<svg version="1.1" viewBox="0 0 1024 1024" xmlns="http://www.w3.org/2000/svg">
  
  <g transform="scale(1, -1) translate(0, -900)">
    <style type="text/css">
        .origin {display:none;}
        .hide {display:none;}
        .stroke {fill: lightgray;}
    </style>

    <path d="M 578 749 Q 512 739 441 719 Q 435 716 432 718 Q 431 721 435 727 Q 505 809 521 824 Q 531 833 527 844 Q 521 856 478 877 Q 463 884 455 881 Q 443 877 448 857 Q 464 794 360 711 Q 356 710 354 707 Q 341 697 345 687 Q 349 671 372 653 Q 382 643 394 653 Q 422 680 565 722 Q 581 728 591 735 C 617 750 608 754 578 749 Z" fill="lightgray" class="stroke"/>
    <path d="M 591 735 Q 627 705 630 704 Q 637 704 642 713 Q 646 723 641 743 Q 638 759 614 775 Q 560 802 548 798 Q 544 797 545 787 Q 545 781 578 749 L 591 735 Z" fill="lightgray" class="stroke"/>
    <path d="M 415 534 Q 339 515 275 496 Q 265 493 269 501 Q 309 550 347 584 Q 362 599 360 606 Q 359 619 325 651 Q 312 664 294 663 Q 284 662 288 646 Q 297 612 242 529 Q 230 511 208 495 Q 192 480 194 469 Q 198 451 213 435 Q 223 425 235 432 Q 272 460 406 507 Q 416 511 427 515 C 455 526 444 541 415 534 Z" fill="lightgray" class="stroke"/>
    <path d="M 463 506 Q 464 509 467 511 Q 470 521 466 540 Q 454 562 411 581 Q 404 584 401 575 Q 398 566 415 534 L 427 515 Q 434 506 444 502 C 457 496 457 496 463 506 Z" fill="lightgray" class="stroke"/>
    <path d="M 709 568 Q 645 555 592 543 Q 576 540 583 553 Q 616 596 646 629 Q 658 644 656 650 Q 655 663 621 689 Q 608 699 592 697 Q 583 696 588 682 Q 598 654 555 574 Q 546 558 528 543 Q 513 530 515 519 Q 519 503 533 489 Q 543 480 553 487 Q 574 502 724 551 C 753 560 738 574 709 568 Z" fill="lightgray" class="stroke"/>
    <path d="M 724 551 Q 769 502 776 500 Q 783 499 789 509 Q 795 519 792 543 Q 791 565 761 588 Q 695 630 680 626 Q 676 625 675 614 Q 676 605 694 586 Q 701 579 709 568 L 724 551 Z" fill="lightgray" class="stroke"/>
    <path d="M 513 467 Q 514 473 514 477 Q 513 489 489 498 Q 476 504 463 506 C 448 510 448 510 444 502 Q 402 415 322 338 Q 217 254 109 183 Q 88 170 114 172 Q 225 176 417 367 Q 453 412 497 449 C 513 463 513 463 513 467 Z" fill="lightgray" class="stroke"/>
    <path d="M 497 449 Q 752 251 803 251 Q 860 251 957 287 Q 973 293 975 298 Q 976 305 960 307 Q 762 344 720 360 Q 660 379 573 430 Q 536 455 513 467 C 487 482 473 467 497 449 Z" fill="lightgray" class="stroke"/>
    <path d="M 474 368 Q 464 311 332 206 Q 314 194 337 197 Q 391 197 522 327 Q 528 334 534 338 Q 543 348 541 356 Q 538 366 517 374 Q 493 383 483 380 Q 476 379 474 368 Z" fill="lightgray" class="stroke"/>
    <path d="M 508 273 Q 502 218 379 102 Q 363 89 385 93 Q 439 99 530 206 Q 530 207 567 250 Q 574 260 572 267 Q 569 277 548 282 Q 526 289 516 285 Q 510 284 508 273 Z" fill="lightgray" class="stroke"/>
    <path d="M 578 208 Q 582 139 440 18 Q 437 17 435 14 Q 395 -17 299 -77 Q 290 -81 300 -85 Q 340 -91 464 -16 Q 569 72 629 136 Q 639 146 646 151 Q 653 155 654 164 Q 654 174 644 187 Q 632 203 616 211 Q 597 221 587 221 Q 578 221 578 208 Z" fill="lightgray" class="stroke"/></g>
</svg>