<svg version="1.1" viewBox="0 0 4096 1024" xmlns="http://www.w3.org/2000/svg">
  
  <g transform="scale(1, -1) translate(0, -900)" class="origin">
    <style type="text/css">
        .origin {display:none;}
        .hide {display:none;}
        .stroke {fill: #000000;}
        
.step1 {transform: translateX(1024px);}
.step2 {transform: translateX(2048px);}
.step3 {transform: translateX(3072px);}
.step4 {transform: translateX(4096px);}
.step5 {transform: translateX(5120px);}
.step6 {transform: translateX(6144px);}
.step7 {transform: translateX(7168px);}
.step8 {transform: translateX(8192px);}
.step9 {transform: translateX(9216px);}
.step10 {transform: translateX(10240px);}
.step11 {transform: translateX(11264px);}
.step12 {transform: translateX(12288px);}
.step13 {transform: translateX(13312px);}
.step14 {transform: translateX(14336px);}
.step15 {transform: translateX(15360px);}
.step16 {transform: translateX(16384px);}
.step17 {transform: translateX(17408px);}
.step18 {transform: translateX(18432px);}
.step19 {transform: translateX(19456px);}
.step20 {transform: translateX(20480px);}
.step21 {transform: translateX(21504px);}
.step22 {transform: translateX(22528px);}
.step23 {transform: translateX(23552px);}
.step24 {transform: translateX(24576px);}
.step25 {transform: translateX(25600px);}
.step26 {transform: translateX(26624px);}
.step27 {transform: translateX(27648px);}
.step28 {transform: translateX(28672px);}
.step29 {transform: translateX(29696px);}
    </style>

    <path d="M 198 381 Q 198 387 200 395 Q 208 449 211 506 L 212 544 Q 212 694 217 705 C 219 724 219 724 196 735 Q 152 759 133 751 Q 123 742 131 729 Q 153 706 158 641 L 159 613 Q 165 446 139 318 Q 112 204 48 82 L 42 69 Q 41 59 51 63 Q 67 67 92 104 Q 135 169 168 257 Q 180 296 190 345 L 198 381 Z" fill="lightgray"/>
    <path d="M 217 705 L 289 727 Q 298 729 304 727 Q 326 723 325 672 Q 334 360 319 177 Q 318 149 310 137 Q 306 137 244 139 Q 243 140 242 140 Q 224 145 225 135 Q 242 122 255 108 Q 277 88 306 54 Q 318 40 330 36 Q 343 33 361 58 Q 387 96 386 147 Q 363 657 390 710 Q 402 729 390 741 Q 367 760 332 774 Q 312 782 269 757 Q 239 745 196 735 C 167 728 188 696 217 705 Z" fill="lightgray"/>
    <path d="M 211 506 Q 260 514 295 515 Q 319 519 310 534 Q 298 549 272 553 Q 248 555 212 544 C 183 535 181 501 211 506 Z" fill="lightgray"/>
    <path d="M 190 345 Q 205 345 287 355 Q 314 359 302 373 Q 274 406 198 381 C 169 372 160 344 190 345 Z" fill="lightgray"/></g>
<g transform="scale(1, -1) translate(0, -900)">
    <style type="text/css">
        .origin {display:none;}
        .hide {display:none;}
        .stroke {fill: #000000;}
        
.step1 {transform: translateX(1024px);}
.step2 {transform: translateX(2048px);}
.step3 {transform: translateX(3072px);}
.step4 {transform: translateX(4096px);}
.step5 {transform: translateX(5120px);}
.step6 {transform: translateX(6144px);}
.step7 {transform: translateX(7168px);}
.step8 {transform: translateX(8192px);}
.step9 {transform: translateX(9216px);}
.step10 {transform: translateX(10240px);}
.step11 {transform: translateX(11264px);}
.step12 {transform: translateX(12288px);}
.step13 {transform: translateX(13312px);}
.step14 {transform: translateX(14336px);}
.step15 {transform: translateX(15360px);}
.step16 {transform: translateX(16384px);}
.step17 {transform: translateX(17408px);}
.step18 {transform: translateX(18432px);}
.step19 {transform: translateX(19456px);}
.step20 {transform: translateX(20480px);}
.step21 {transform: translateX(21504px);}
.step22 {transform: translateX(22528px);}
.step23 {transform: translateX(23552px);}
.step24 {transform: translateX(24576px);}
.step25 {transform: translateX(25600px);}
.step26 {transform: translateX(26624px);}
.step27 {transform: translateX(27648px);}
.step28 {transform: translateX(28672px);}
.step29 {transform: translateX(29696px);}
    </style>

    <path d="M 198 381 Q 198 387 200 395 Q 208 449 211 506 L 212 544 Q 212 694 217 705 C 219 724 219 724 196 735 Q 152 759 133 751 Q 123 742 131 729 Q 153 706 158 641 L 159 613 Q 165 446 139 318 Q 112 204 48 82 L 42 69 Q 41 59 51 63 Q 67 67 92 104 Q 135 169 168 257 Q 180 296 190 345 L 198 381 Z" fill="lightgray" class="stroke step0"/>
    <path d="M 217 705 L 289 727 Q 298 729 304 727 Q 326 723 325 672 Q 334 360 319 177 Q 318 149 310 137 Q 306 137 244 139 Q 243 140 242 140 Q 224 145 225 135 Q 242 122 255 108 Q 277 88 306 54 Q 318 40 330 36 Q 343 33 361 58 Q 387 96 386 147 Q 363 657 390 710 Q 402 729 390 741 Q 367 760 332 774 Q 312 782 269 757 Q 239 745 196 735 C 167 728 188 696 217 705 Z" fill="lightgray" class="hide"/>
    <path d="M 211 506 Q 260 514 295 515 Q 319 519 310 534 Q 298 549 272 553 Q 248 555 212 544 C 183 535 181 501 211 506 Z" fill="lightgray" class="hide"/>
    <path d="M 190 345 Q 205 345 287 355 Q 314 359 302 373 Q 274 406 198 381 C 169 372 160 344 190 345 Z" fill="lightgray" class="hide"/></g><g transform="scale(1, -1) translate(0, -900)">
    <style type="text/css">
        .origin {display:none;}
        .hide {display:none;}
        .stroke {fill: #000000;}
        
.step1 {transform: translateX(1024px);}
.step2 {transform: translateX(2048px);}
.step3 {transform: translateX(3072px);}
.step4 {transform: translateX(4096px);}
.step5 {transform: translateX(5120px);}
.step6 {transform: translateX(6144px);}
.step7 {transform: translateX(7168px);}
.step8 {transform: translateX(8192px);}
.step9 {transform: translateX(9216px);}
.step10 {transform: translateX(10240px);}
.step11 {transform: translateX(11264px);}
.step12 {transform: translateX(12288px);}
.step13 {transform: translateX(13312px);}
.step14 {transform: translateX(14336px);}
.step15 {transform: translateX(15360px);}
.step16 {transform: translateX(16384px);}
.step17 {transform: translateX(17408px);}
.step18 {transform: translateX(18432px);}
.step19 {transform: translateX(19456px);}
.step20 {transform: translateX(20480px);}
.step21 {transform: translateX(21504px);}
.step22 {transform: translateX(22528px);}
.step23 {transform: translateX(23552px);}
.step24 {transform: translateX(24576px);}
.step25 {transform: translateX(25600px);}
.step26 {transform: translateX(26624px);}
.step27 {transform: translateX(27648px);}
.step28 {transform: translateX(28672px);}
.step29 {transform: translateX(29696px);}
    </style>

    <path d="M 198 381 Q 198 387 200 395 Q 208 449 211 506 L 212 544 Q 212 694 217 705 C 219 724 219 724 196 735 Q 152 759 133 751 Q 123 742 131 729 Q 153 706 158 641 L 159 613 Q 165 446 139 318 Q 112 204 48 82 L 42 69 Q 41 59 51 63 Q 67 67 92 104 Q 135 169 168 257 Q 180 296 190 345 L 198 381 Z" fill="lightgray" class="stroke step1"/>
    <path d="M 217 705 L 289 727 Q 298 729 304 727 Q 326 723 325 672 Q 334 360 319 177 Q 318 149 310 137 Q 306 137 244 139 Q 243 140 242 140 Q 224 145 225 135 Q 242 122 255 108 Q 277 88 306 54 Q 318 40 330 36 Q 343 33 361 58 Q 387 96 386 147 Q 363 657 390 710 Q 402 729 390 741 Q 367 760 332 774 Q 312 782 269 757 Q 239 745 196 735 C 167 728 188 696 217 705 Z" fill="lightgray" class="stroke step1"/>
    <path d="M 211 506 Q 260 514 295 515 Q 319 519 310 534 Q 298 549 272 553 Q 248 555 212 544 C 183 535 181 501 211 506 Z" fill="lightgray" class="hide"/>
    <path d="M 190 345 Q 205 345 287 355 Q 314 359 302 373 Q 274 406 198 381 C 169 372 160 344 190 345 Z" fill="lightgray" class="hide"/></g><g transform="scale(1, -1) translate(0, -900)">
    <style type="text/css">
        .origin {display:none;}
        .hide {display:none;}
        .stroke {fill: #000000;}
        
.step1 {transform: translateX(1024px);}
.step2 {transform: translateX(2048px);}
.step3 {transform: translateX(3072px);}
.step4 {transform: translateX(4096px);}
.step5 {transform: translateX(5120px);}
.step6 {transform: translateX(6144px);}
.step7 {transform: translateX(7168px);}
.step8 {transform: translateX(8192px);}
.step9 {transform: translateX(9216px);}
.step10 {transform: translateX(10240px);}
.step11 {transform: translateX(11264px);}
.step12 {transform: translateX(12288px);}
.step13 {transform: translateX(13312px);}
.step14 {transform: translateX(14336px);}
.step15 {transform: translateX(15360px);}
.step16 {transform: translateX(16384px);}
.step17 {transform: translateX(17408px);}
.step18 {transform: translateX(18432px);}
.step19 {transform: translateX(19456px);}
.step20 {transform: translateX(20480px);}
.step21 {transform: translateX(21504px);}
.step22 {transform: translateX(22528px);}
.step23 {transform: translateX(23552px);}
.step24 {transform: translateX(24576px);}
.step25 {transform: translateX(25600px);}
.step26 {transform: translateX(26624px);}
.step27 {transform: translateX(27648px);}
.step28 {transform: translateX(28672px);}
.step29 {transform: translateX(29696px);}
    </style>

    <path d="M 198 381 Q 198 387 200 395 Q 208 449 211 506 L 212 544 Q 212 694 217 705 C 219 724 219 724 196 735 Q 152 759 133 751 Q 123 742 131 729 Q 153 706 158 641 L 159 613 Q 165 446 139 318 Q 112 204 48 82 L 42 69 Q 41 59 51 63 Q 67 67 92 104 Q 135 169 168 257 Q 180 296 190 345 L 198 381 Z" fill="lightgray" class="stroke step2"/>
    <path d="M 217 705 L 289 727 Q 298 729 304 727 Q 326 723 325 672 Q 334 360 319 177 Q 318 149 310 137 Q 306 137 244 139 Q 243 140 242 140 Q 224 145 225 135 Q 242 122 255 108 Q 277 88 306 54 Q 318 40 330 36 Q 343 33 361 58 Q 387 96 386 147 Q 363 657 390 710 Q 402 729 390 741 Q 367 760 332 774 Q 312 782 269 757 Q 239 745 196 735 C 167 728 188 696 217 705 Z" fill="lightgray" class="stroke step2"/>
    <path d="M 211 506 Q 260 514 295 515 Q 319 519 310 534 Q 298 549 272 553 Q 248 555 212 544 C 183 535 181 501 211 506 Z" fill="lightgray" class="stroke step2"/>
    <path d="M 190 345 Q 205 345 287 355 Q 314 359 302 373 Q 274 406 198 381 C 169 372 160 344 190 345 Z" fill="lightgray" class="hide"/></g><g transform="scale(1, -1) translate(0, -900)">
    <style type="text/css">
        .origin {display:none;}
        .hide {display:none;}
        .stroke {fill: #000000;}
        
.step1 {transform: translateX(1024px);}
.step2 {transform: translateX(2048px);}
.step3 {transform: translateX(3072px);}
.step4 {transform: translateX(4096px);}
.step5 {transform: translateX(5120px);}
.step6 {transform: translateX(6144px);}
.step7 {transform: translateX(7168px);}
.step8 {transform: translateX(8192px);}
.step9 {transform: translateX(9216px);}
.step10 {transform: translateX(10240px);}
.step11 {transform: translateX(11264px);}
.step12 {transform: translateX(12288px);}
.step13 {transform: translateX(13312px);}
.step14 {transform: translateX(14336px);}
.step15 {transform: translateX(15360px);}
.step16 {transform: translateX(16384px);}
.step17 {transform: translateX(17408px);}
.step18 {transform: translateX(18432px);}
.step19 {transform: translateX(19456px);}
.step20 {transform: translateX(20480px);}
.step21 {transform: translateX(21504px);}
.step22 {transform: translateX(22528px);}
.step23 {transform: translateX(23552px);}
.step24 {transform: translateX(24576px);}
.step25 {transform: translateX(25600px);}
.step26 {transform: translateX(26624px);}
.step27 {transform: translateX(27648px);}
.step28 {transform: translateX(28672px);}
.step29 {transform: translateX(29696px);}
    </style>

    <path d="M 198 381 Q 198 387 200 395 Q 208 449 211 506 L 212 544 Q 212 694 217 705 C 219 724 219 724 196 735 Q 152 759 133 751 Q 123 742 131 729 Q 153 706 158 641 L 159 613 Q 165 446 139 318 Q 112 204 48 82 L 42 69 Q 41 59 51 63 Q 67 67 92 104 Q 135 169 168 257 Q 180 296 190 345 L 198 381 Z" fill="lightgray" class="stroke step3"/>
    <path d="M 217 705 L 289 727 Q 298 729 304 727 Q 326 723 325 672 Q 334 360 319 177 Q 318 149 310 137 Q 306 137 244 139 Q 243 140 242 140 Q 224 145 225 135 Q 242 122 255 108 Q 277 88 306 54 Q 318 40 330 36 Q 343 33 361 58 Q 387 96 386 147 Q 363 657 390 710 Q 402 729 390 741 Q 367 760 332 774 Q 312 782 269 757 Q 239 745 196 735 C 167 728 188 696 217 705 Z" fill="lightgray" class="stroke step3"/>
    <path d="M 211 506 Q 260 514 295 515 Q 319 519 310 534 Q 298 549 272 553 Q 248 555 212 544 C 183 535 181 501 211 506 Z" fill="lightgray" class="stroke step3"/>
    <path d="M 190 345 Q 205 345 287 355 Q 314 359 302 373 Q 274 406 198 381 C 169 372 160 344 190 345 Z" fill="lightgray" class="stroke step3"/></g></svg>