<svg version="1.1" viewBox="0 0 6144 1024" xmlns="http://www.w3.org/2000/svg">
  
  <g transform="scale(1, -1) translate(0, -900)" class="origin">
    <style type="text/css">
        .origin {display:none;}
        .hide {display:none;}
        .stroke {fill: #000000;}
        
.step1 {transform: translateX(1024px);}
.step2 {transform: translateX(2048px);}
.step3 {transform: translateX(3072px);}
.step4 {transform: translateX(4096px);}
.step5 {transform: translateX(5120px);}
.step6 {transform: translateX(6144px);}
.step7 {transform: translateX(7168px);}
.step8 {transform: translateX(8192px);}
.step9 {transform: translateX(9216px);}
.step10 {transform: translateX(10240px);}
.step11 {transform: translateX(11264px);}
.step12 {transform: translateX(12288px);}
.step13 {transform: translateX(13312px);}
.step14 {transform: translateX(14336px);}
.step15 {transform: translateX(15360px);}
.step16 {transform: translateX(16384px);}
.step17 {transform: translateX(17408px);}
.step18 {transform: translateX(18432px);}
.step19 {transform: translateX(19456px);}
.step20 {transform: translateX(20480px);}
.step21 {transform: translateX(21504px);}
.step22 {transform: translateX(22528px);}
.step23 {transform: translateX(23552px);}
.step24 {transform: translateX(24576px);}
.step25 {transform: translateX(25600px);}
.step26 {transform: translateX(26624px);}
.step27 {transform: translateX(27648px);}
.step28 {transform: translateX(28672px);}
.step29 {transform: translateX(29696px);}
    </style>

    <path d="M 249 651 Q 277 675 354 752 Q 369 770 390 783 Q 408 796 395 810 Q 380 823 354 833 Q 329 842 318 838 Q 306 834 313 822 Q 320 800 239 663 Q 238 662 236 658 C 221 632 226 631 249 651 Z" fill="lightgray"/>
    <path d="M 225 313 Q 238 376 244 408 L 247 431 Q 251 473 253 513 L 255 540 Q 258 604 261 613 C 265 640 265 640 257 645 Q 253 649 249 651 L 236 658 Q 199 676 187 670 Q 177 663 183 651 Q 202 627 203 562 Q 203 394 173 283 Q 146 199 81 77 Q 77 70 75 65 Q 74 55 83 57 Q 114 64 178 181 Q 187 202 198 226 Q 208 256 218 288 L 225 313 Z" fill="lightgray"/>
    <path d="M 376 431 Q 391 409 405 402 Q 415 395 428 414 Q 441 439 470 580 Q 477 608 497 630 Q 507 640 497 653 Q 484 668 446 689 Q 437 692 285 655 Q 270 651 257 645 C 229 634 235 599 261 613 Q 271 625 391 649 Q 409 653 415 647 Q 428 632 425 616 Q 400 469 383 456 C 371 437 371 437 376 431 Z" fill="lightgray"/>
    <path d="M 253 513 Q 313 526 358 535 Q 377 539 369 550 Q 359 560 338 563 Q 311 566 255 540 C 228 527 224 507 253 513 Z" fill="lightgray"/>
    <path d="M 244 408 Q 248 408 256 409 Q 322 422 376 431 C 406 436 411 445 383 456 Q 377 459 369 460 Q 348 461 247 431 C 218 422 214 407 244 408 Z" fill="lightgray"/>
    <path d="M 218 288 Q 219 288 220 288 Q 238 276 266 285 Q 368 319 373 309 Q 382 296 376 260 Q 363 164 339 122 Q 323 97 301 101 Q 277 110 257 120 Q 236 129 250 107 Q 287 65 305 34 Q 321 15 339 30 Q 390 67 415 184 Q 430 289 447 308 Q 457 318 452 328 Q 445 338 399 357 Q 386 363 342 343 Q 284 328 225 313 C 196 306 190 298 218 288 Z" fill="lightgray"/></g>
<g transform="scale(1, -1) translate(0, -900)">
    <style type="text/css">
        .origin {display:none;}
        .hide {display:none;}
        .stroke {fill: #000000;}
        
.step1 {transform: translateX(1024px);}
.step2 {transform: translateX(2048px);}
.step3 {transform: translateX(3072px);}
.step4 {transform: translateX(4096px);}
.step5 {transform: translateX(5120px);}
.step6 {transform: translateX(6144px);}
.step7 {transform: translateX(7168px);}
.step8 {transform: translateX(8192px);}
.step9 {transform: translateX(9216px);}
.step10 {transform: translateX(10240px);}
.step11 {transform: translateX(11264px);}
.step12 {transform: translateX(12288px);}
.step13 {transform: translateX(13312px);}
.step14 {transform: translateX(14336px);}
.step15 {transform: translateX(15360px);}
.step16 {transform: translateX(16384px);}
.step17 {transform: translateX(17408px);}
.step18 {transform: translateX(18432px);}
.step19 {transform: translateX(19456px);}
.step20 {transform: translateX(20480px);}
.step21 {transform: translateX(21504px);}
.step22 {transform: translateX(22528px);}
.step23 {transform: translateX(23552px);}
.step24 {transform: translateX(24576px);}
.step25 {transform: translateX(25600px);}
.step26 {transform: translateX(26624px);}
.step27 {transform: translateX(27648px);}
.step28 {transform: translateX(28672px);}
.step29 {transform: translateX(29696px);}
    </style>

    <path d="M 249 651 Q 277 675 354 752 Q 369 770 390 783 Q 408 796 395 810 Q 380 823 354 833 Q 329 842 318 838 Q 306 834 313 822 Q 320 800 239 663 Q 238 662 236 658 C 221 632 226 631 249 651 Z" fill="lightgray" class="stroke step0"/>
    <path d="M 225 313 Q 238 376 244 408 L 247 431 Q 251 473 253 513 L 255 540 Q 258 604 261 613 C 265 640 265 640 257 645 Q 253 649 249 651 L 236 658 Q 199 676 187 670 Q 177 663 183 651 Q 202 627 203 562 Q 203 394 173 283 Q 146 199 81 77 Q 77 70 75 65 Q 74 55 83 57 Q 114 64 178 181 Q 187 202 198 226 Q 208 256 218 288 L 225 313 Z" fill="lightgray" class="hide"/>
    <path d="M 376 431 Q 391 409 405 402 Q 415 395 428 414 Q 441 439 470 580 Q 477 608 497 630 Q 507 640 497 653 Q 484 668 446 689 Q 437 692 285 655 Q 270 651 257 645 C 229 634 235 599 261 613 Q 271 625 391 649 Q 409 653 415 647 Q 428 632 425 616 Q 400 469 383 456 C 371 437 371 437 376 431 Z" fill="lightgray" class="hide"/>
    <path d="M 253 513 Q 313 526 358 535 Q 377 539 369 550 Q 359 560 338 563 Q 311 566 255 540 C 228 527 224 507 253 513 Z" fill="lightgray" class="hide"/>
    <path d="M 244 408 Q 248 408 256 409 Q 322 422 376 431 C 406 436 411 445 383 456 Q 377 459 369 460 Q 348 461 247 431 C 218 422 214 407 244 408 Z" fill="lightgray" class="hide"/>
    <path d="M 218 288 Q 219 288 220 288 Q 238 276 266 285 Q 368 319 373 309 Q 382 296 376 260 Q 363 164 339 122 Q 323 97 301 101 Q 277 110 257 120 Q 236 129 250 107 Q 287 65 305 34 Q 321 15 339 30 Q 390 67 415 184 Q 430 289 447 308 Q 457 318 452 328 Q 445 338 399 357 Q 386 363 342 343 Q 284 328 225 313 C 196 306 190 298 218 288 Z" fill="lightgray" class="hide"/></g><g transform="scale(1, -1) translate(0, -900)">
    <style type="text/css">
        .origin {display:none;}
        .hide {display:none;}
        .stroke {fill: #000000;}
        
.step1 {transform: translateX(1024px);}
.step2 {transform: translateX(2048px);}
.step3 {transform: translateX(3072px);}
.step4 {transform: translateX(4096px);}
.step5 {transform: translateX(5120px);}
.step6 {transform: translateX(6144px);}
.step7 {transform: translateX(7168px);}
.step8 {transform: translateX(8192px);}
.step9 {transform: translateX(9216px);}
.step10 {transform: translateX(10240px);}
.step11 {transform: translateX(11264px);}
.step12 {transform: translateX(12288px);}
.step13 {transform: translateX(13312px);}
.step14 {transform: translateX(14336px);}
.step15 {transform: translateX(15360px);}
.step16 {transform: translateX(16384px);}
.step17 {transform: translateX(17408px);}
.step18 {transform: translateX(18432px);}
.step19 {transform: translateX(19456px);}
.step20 {transform: translateX(20480px);}
.step21 {transform: translateX(21504px);}
.step22 {transform: translateX(22528px);}
.step23 {transform: translateX(23552px);}
.step24 {transform: translateX(24576px);}
.step25 {transform: translateX(25600px);}
.step26 {transform: translateX(26624px);}
.step27 {transform: translateX(27648px);}
.step28 {transform: translateX(28672px);}
.step29 {transform: translateX(29696px);}
    </style>

    <path d="M 249 651 Q 277 675 354 752 Q 369 770 390 783 Q 408 796 395 810 Q 380 823 354 833 Q 329 842 318 838 Q 306 834 313 822 Q 320 800 239 663 Q 238 662 236 658 C 221 632 226 631 249 651 Z" fill="lightgray" class="stroke step1"/>
    <path d="M 225 313 Q 238 376 244 408 L 247 431 Q 251 473 253 513 L 255 540 Q 258 604 261 613 C 265 640 265 640 257 645 Q 253 649 249 651 L 236 658 Q 199 676 187 670 Q 177 663 183 651 Q 202 627 203 562 Q 203 394 173 283 Q 146 199 81 77 Q 77 70 75 65 Q 74 55 83 57 Q 114 64 178 181 Q 187 202 198 226 Q 208 256 218 288 L 225 313 Z" fill="lightgray" class="stroke step1"/>
    <path d="M 376 431 Q 391 409 405 402 Q 415 395 428 414 Q 441 439 470 580 Q 477 608 497 630 Q 507 640 497 653 Q 484 668 446 689 Q 437 692 285 655 Q 270 651 257 645 C 229 634 235 599 261 613 Q 271 625 391 649 Q 409 653 415 647 Q 428 632 425 616 Q 400 469 383 456 C 371 437 371 437 376 431 Z" fill="lightgray" class="hide"/>
    <path d="M 253 513 Q 313 526 358 535 Q 377 539 369 550 Q 359 560 338 563 Q 311 566 255 540 C 228 527 224 507 253 513 Z" fill="lightgray" class="hide"/>
    <path d="M 244 408 Q 248 408 256 409 Q 322 422 376 431 C 406 436 411 445 383 456 Q 377 459 369 460 Q 348 461 247 431 C 218 422 214 407 244 408 Z" fill="lightgray" class="hide"/>
    <path d="M 218 288 Q 219 288 220 288 Q 238 276 266 285 Q 368 319 373 309 Q 382 296 376 260 Q 363 164 339 122 Q 323 97 301 101 Q 277 110 257 120 Q 236 129 250 107 Q 287 65 305 34 Q 321 15 339 30 Q 390 67 415 184 Q 430 289 447 308 Q 457 318 452 328 Q 445 338 399 357 Q 386 363 342 343 Q 284 328 225 313 C 196 306 190 298 218 288 Z" fill="lightgray" class="hide"/></g><g transform="scale(1, -1) translate(0, -900)">
    <style type="text/css">
        .origin {display:none;}
        .hide {display:none;}
        .stroke {fill: #000000;}
        
.step1 {transform: translateX(1024px);}
.step2 {transform: translateX(2048px);}
.step3 {transform: translateX(3072px);}
.step4 {transform: translateX(4096px);}
.step5 {transform: translateX(5120px);}
.step6 {transform: translateX(6144px);}
.step7 {transform: translateX(7168px);}
.step8 {transform: translateX(8192px);}
.step9 {transform: translateX(9216px);}
.step10 {transform: translateX(10240px);}
.step11 {transform: translateX(11264px);}
.step12 {transform: translateX(12288px);}
.step13 {transform: translateX(13312px);}
.step14 {transform: translateX(14336px);}
.step15 {transform: translateX(15360px);}
.step16 {transform: translateX(16384px);}
.step17 {transform: translateX(17408px);}
.step18 {transform: translateX(18432px);}
.step19 {transform: translateX(19456px);}
.step20 {transform: translateX(20480px);}
.step21 {transform: translateX(21504px);}
.step22 {transform: translateX(22528px);}
.step23 {transform: translateX(23552px);}
.step24 {transform: translateX(24576px);}
.step25 {transform: translateX(25600px);}
.step26 {transform: translateX(26624px);}
.step27 {transform: translateX(27648px);}
.step28 {transform: translateX(28672px);}
.step29 {transform: translateX(29696px);}
    </style>

    <path d="M 249 651 Q 277 675 354 752 Q 369 770 390 783 Q 408 796 395 810 Q 380 823 354 833 Q 329 842 318 838 Q 306 834 313 822 Q 320 800 239 663 Q 238 662 236 658 C 221 632 226 631 249 651 Z" fill="lightgray" class="stroke step2"/>
    <path d="M 225 313 Q 238 376 244 408 L 247 431 Q 251 473 253 513 L 255 540 Q 258 604 261 613 C 265 640 265 640 257 645 Q 253 649 249 651 L 236 658 Q 199 676 187 670 Q 177 663 183 651 Q 202 627 203 562 Q 203 394 173 283 Q 146 199 81 77 Q 77 70 75 65 Q 74 55 83 57 Q 114 64 178 181 Q 187 202 198 226 Q 208 256 218 288 L 225 313 Z" fill="lightgray" class="stroke step2"/>
    <path d="M 376 431 Q 391 409 405 402 Q 415 395 428 414 Q 441 439 470 580 Q 477 608 497 630 Q 507 640 497 653 Q 484 668 446 689 Q 437 692 285 655 Q 270 651 257 645 C 229 634 235 599 261 613 Q 271 625 391 649 Q 409 653 415 647 Q 428 632 425 616 Q 400 469 383 456 C 371 437 371 437 376 431 Z" fill="lightgray" class="stroke step2"/>
    <path d="M 253 513 Q 313 526 358 535 Q 377 539 369 550 Q 359 560 338 563 Q 311 566 255 540 C 228 527 224 507 253 513 Z" fill="lightgray" class="hide"/>
    <path d="M 244 408 Q 248 408 256 409 Q 322 422 376 431 C 406 436 411 445 383 456 Q 377 459 369 460 Q 348 461 247 431 C 218 422 214 407 244 408 Z" fill="lightgray" class="hide"/>
    <path d="M 218 288 Q 219 288 220 288 Q 238 276 266 285 Q 368 319 373 309 Q 382 296 376 260 Q 363 164 339 122 Q 323 97 301 101 Q 277 110 257 120 Q 236 129 250 107 Q 287 65 305 34 Q 321 15 339 30 Q 390 67 415 184 Q 430 289 447 308 Q 457 318 452 328 Q 445 338 399 357 Q 386 363 342 343 Q 284 328 225 313 C 196 306 190 298 218 288 Z" fill="lightgray" class="hide"/></g><g transform="scale(1, -1) translate(0, -900)">
    <style type="text/css">
        .origin {display:none;}
        .hide {display:none;}
        .stroke {fill: #000000;}
        
.step1 {transform: translateX(1024px);}
.step2 {transform: translateX(2048px);}
.step3 {transform: translateX(3072px);}
.step4 {transform: translateX(4096px);}
.step5 {transform: translateX(5120px);}
.step6 {transform: translateX(6144px);}
.step7 {transform: translateX(7168px);}
.step8 {transform: translateX(8192px);}
.step9 {transform: translateX(9216px);}
.step10 {transform: translateX(10240px);}
.step11 {transform: translateX(11264px);}
.step12 {transform: translateX(12288px);}
.step13 {transform: translateX(13312px);}
.step14 {transform: translateX(14336px);}
.step15 {transform: translateX(15360px);}
.step16 {transform: translateX(16384px);}
.step17 {transform: translateX(17408px);}
.step18 {transform: translateX(18432px);}
.step19 {transform: translateX(19456px);}
.step20 {transform: translateX(20480px);}
.step21 {transform: translateX(21504px);}
.step22 {transform: translateX(22528px);}
.step23 {transform: translateX(23552px);}
.step24 {transform: translateX(24576px);}
.step25 {transform: translateX(25600px);}
.step26 {transform: translateX(26624px);}
.step27 {transform: translateX(27648px);}
.step28 {transform: translateX(28672px);}
.step29 {transform: translateX(29696px);}
    </style>

    <path d="M 249 651 Q 277 675 354 752 Q 369 770 390 783 Q 408 796 395 810 Q 380 823 354 833 Q 329 842 318 838 Q 306 834 313 822 Q 320 800 239 663 Q 238 662 236 658 C 221 632 226 631 249 651 Z" fill="lightgray" class="stroke step3"/>
    <path d="M 225 313 Q 238 376 244 408 L 247 431 Q 251 473 253 513 L 255 540 Q 258 604 261 613 C 265 640 265 640 257 645 Q 253 649 249 651 L 236 658 Q 199 676 187 670 Q 177 663 183 651 Q 202 627 203 562 Q 203 394 173 283 Q 146 199 81 77 Q 77 70 75 65 Q 74 55 83 57 Q 114 64 178 181 Q 187 202 198 226 Q 208 256 218 288 L 225 313 Z" fill="lightgray" class="stroke step3"/>
    <path d="M 376 431 Q 391 409 405 402 Q 415 395 428 414 Q 441 439 470 580 Q 477 608 497 630 Q 507 640 497 653 Q 484 668 446 689 Q 437 692 285 655 Q 270 651 257 645 C 229 634 235 599 261 613 Q 271 625 391 649 Q 409 653 415 647 Q 428 632 425 616 Q 400 469 383 456 C 371 437 371 437 376 431 Z" fill="lightgray" class="stroke step3"/>
    <path d="M 253 513 Q 313 526 358 535 Q 377 539 369 550 Q 359 560 338 563 Q 311 566 255 540 C 228 527 224 507 253 513 Z" fill="lightgray" class="stroke step3"/>
    <path d="M 244 408 Q 248 408 256 409 Q 322 422 376 431 C 406 436 411 445 383 456 Q 377 459 369 460 Q 348 461 247 431 C 218 422 214 407 244 408 Z" fill="lightgray" class="hide"/>
    <path d="M 218 288 Q 219 288 220 288 Q 238 276 266 285 Q 368 319 373 309 Q 382 296 376 260 Q 363 164 339 122 Q 323 97 301 101 Q 277 110 257 120 Q 236 129 250 107 Q 287 65 305 34 Q 321 15 339 30 Q 390 67 415 184 Q 430 289 447 308 Q 457 318 452 328 Q 445 338 399 357 Q 386 363 342 343 Q 284 328 225 313 C 196 306 190 298 218 288 Z" fill="lightgray" class="hide"/></g><g transform="scale(1, -1) translate(0, -900)">
    <style type="text/css">
        .origin {display:none;}
        .hide {display:none;}
        .stroke {fill: #000000;}
        
.step1 {transform: translateX(1024px);}
.step2 {transform: translateX(2048px);}
.step3 {transform: translateX(3072px);}
.step4 {transform: translateX(4096px);}
.step5 {transform: translateX(5120px);}
.step6 {transform: translateX(6144px);}
.step7 {transform: translateX(7168px);}
.step8 {transform: translateX(8192px);}
.step9 {transform: translateX(9216px);}
.step10 {transform: translateX(10240px);}
.step11 {transform: translateX(11264px);}
.step12 {transform: translateX(12288px);}
.step13 {transform: translateX(13312px);}
.step14 {transform: translateX(14336px);}
.step15 {transform: translateX(15360px);}
.step16 {transform: translateX(16384px);}
.step17 {transform: translateX(17408px);}
.step18 {transform: translateX(18432px);}
.step19 {transform: translateX(19456px);}
.step20 {transform: translateX(20480px);}
.step21 {transform: translateX(21504px);}
.step22 {transform: translateX(22528px);}
.step23 {transform: translateX(23552px);}
.step24 {transform: translateX(24576px);}
.step25 {transform: translateX(25600px);}
.step26 {transform: translateX(26624px);}
.step27 {transform: translateX(27648px);}
.step28 {transform: translateX(28672px);}
.step29 {transform: translateX(29696px);}
    </style>

    <path d="M 249 651 Q 277 675 354 752 Q 369 770 390 783 Q 408 796 395 810 Q 380 823 354 833 Q 329 842 318 838 Q 306 834 313 822 Q 320 800 239 663 Q 238 662 236 658 C 221 632 226 631 249 651 Z" fill="lightgray" class="stroke step4"/>
    <path d="M 225 313 Q 238 376 244 408 L 247 431 Q 251 473 253 513 L 255 540 Q 258 604 261 613 C 265 640 265 640 257 645 Q 253 649 249 651 L 236 658 Q 199 676 187 670 Q 177 663 183 651 Q 202 627 203 562 Q 203 394 173 283 Q 146 199 81 77 Q 77 70 75 65 Q 74 55 83 57 Q 114 64 178 181 Q 187 202 198 226 Q 208 256 218 288 L 225 313 Z" fill="lightgray" class="stroke step4"/>
    <path d="M 376 431 Q 391 409 405 402 Q 415 395 428 414 Q 441 439 470 580 Q 477 608 497 630 Q 507 640 497 653 Q 484 668 446 689 Q 437 692 285 655 Q 270 651 257 645 C 229 634 235 599 261 613 Q 271 625 391 649 Q 409 653 415 647 Q 428 632 425 616 Q 400 469 383 456 C 371 437 371 437 376 431 Z" fill="lightgray" class="stroke step4"/>
    <path d="M 253 513 Q 313 526 358 535 Q 377 539 369 550 Q 359 560 338 563 Q 311 566 255 540 C 228 527 224 507 253 513 Z" fill="lightgray" class="stroke step4"/>
    <path d="M 244 408 Q 248 408 256 409 Q 322 422 376 431 C 406 436 411 445 383 456 Q 377 459 369 460 Q 348 461 247 431 C 218 422 214 407 244 408 Z" fill="lightgray" class="stroke step4"/>
    <path d="M 218 288 Q 219 288 220 288 Q 238 276 266 285 Q 368 319 373 309 Q 382 296 376 260 Q 363 164 339 122 Q 323 97 301 101 Q 277 110 257 120 Q 236 129 250 107 Q 287 65 305 34 Q 321 15 339 30 Q 390 67 415 184 Q 430 289 447 308 Q 457 318 452 328 Q 445 338 399 357 Q 386 363 342 343 Q 284 328 225 313 C 196 306 190 298 218 288 Z" fill="lightgray" class="hide"/></g><g transform="scale(1, -1) translate(0, -900)">
    <style type="text/css">
        .origin {display:none;}
        .hide {display:none;}
        .stroke {fill: #000000;}
        
.step1 {transform: translateX(1024px);}
.step2 {transform: translateX(2048px);}
.step3 {transform: translateX(3072px);}
.step4 {transform: translateX(4096px);}
.step5 {transform: translateX(5120px);}
.step6 {transform: translateX(6144px);}
.step7 {transform: translateX(7168px);}
.step8 {transform: translateX(8192px);}
.step9 {transform: translateX(9216px);}
.step10 {transform: translateX(10240px);}
.step11 {transform: translateX(11264px);}
.step12 {transform: translateX(12288px);}
.step13 {transform: translateX(13312px);}
.step14 {transform: translateX(14336px);}
.step15 {transform: translateX(15360px);}
.step16 {transform: translateX(16384px);}
.step17 {transform: translateX(17408px);}
.step18 {transform: translateX(18432px);}
.step19 {transform: translateX(19456px);}
.step20 {transform: translateX(20480px);}
.step21 {transform: translateX(21504px);}
.step22 {transform: translateX(22528px);}
.step23 {transform: translateX(23552px);}
.step24 {transform: translateX(24576px);}
.step25 {transform: translateX(25600px);}
.step26 {transform: translateX(26624px);}
.step27 {transform: translateX(27648px);}
.step28 {transform: translateX(28672px);}
.step29 {transform: translateX(29696px);}
    </style>

    <path d="M 249 651 Q 277 675 354 752 Q 369 770 390 783 Q 408 796 395 810 Q 380 823 354 833 Q 329 842 318 838 Q 306 834 313 822 Q 320 800 239 663 Q 238 662 236 658 C 221 632 226 631 249 651 Z" fill="lightgray" class="stroke step5"/>
    <path d="M 225 313 Q 238 376 244 408 L 247 431 Q 251 473 253 513 L 255 540 Q 258 604 261 613 C 265 640 265 640 257 645 Q 253 649 249 651 L 236 658 Q 199 676 187 670 Q 177 663 183 651 Q 202 627 203 562 Q 203 394 173 283 Q 146 199 81 77 Q 77 70 75 65 Q 74 55 83 57 Q 114 64 178 181 Q 187 202 198 226 Q 208 256 218 288 L 225 313 Z" fill="lightgray" class="stroke step5"/>
    <path d="M 376 431 Q 391 409 405 402 Q 415 395 428 414 Q 441 439 470 580 Q 477 608 497 630 Q 507 640 497 653 Q 484 668 446 689 Q 437 692 285 655 Q 270 651 257 645 C 229 634 235 599 261 613 Q 271 625 391 649 Q 409 653 415 647 Q 428 632 425 616 Q 400 469 383 456 C 371 437 371 437 376 431 Z" fill="lightgray" class="stroke step5"/>
    <path d="M 253 513 Q 313 526 358 535 Q 377 539 369 550 Q 359 560 338 563 Q 311 566 255 540 C 228 527 224 507 253 513 Z" fill="lightgray" class="stroke step5"/>
    <path d="M 244 408 Q 248 408 256 409 Q 322 422 376 431 C 406 436 411 445 383 456 Q 377 459 369 460 Q 348 461 247 431 C 218 422 214 407 244 408 Z" fill="lightgray" class="stroke step5"/>
    <path d="M 218 288 Q 219 288 220 288 Q 238 276 266 285 Q 368 319 373 309 Q 382 296 376 260 Q 363 164 339 122 Q 323 97 301 101 Q 277 110 257 120 Q 236 129 250 107 Q 287 65 305 34 Q 321 15 339 30 Q 390 67 415 184 Q 430 289 447 308 Q 457 318 452 328 Q 445 338 399 357 Q 386 363 342 343 Q 284 328 225 313 C 196 306 190 298 218 288 Z" fill="lightgray" class="stroke step5"/></g></svg>