<svg version="1.1" viewBox="0 0 3072 1024" xmlns="http://www.w3.org/2000/svg">
  
  <g transform="scale(1, -1) translate(0, -900)" class="origin">
    <style type="text/css">
        .origin {display:none;}
        .hide {display:none;}
        .stroke {fill: #000000;}
        
.step1 {transform: translateX(1024px);}
.step2 {transform: translateX(2048px);}
.step3 {transform: translateX(3072px);}
.step4 {transform: translateX(4096px);}
.step5 {transform: translateX(5120px);}
.step6 {transform: translateX(6144px);}
.step7 {transform: translateX(7168px);}
.step8 {transform: translateX(8192px);}
.step9 {transform: translateX(9216px);}
.step10 {transform: translateX(10240px);}
.step11 {transform: translateX(11264px);}
.step12 {transform: translateX(12288px);}
.step13 {transform: translateX(13312px);}
.step14 {transform: translateX(14336px);}
.step15 {transform: translateX(15360px);}
.step16 {transform: translateX(16384px);}
.step17 {transform: translateX(17408px);}
.step18 {transform: translateX(18432px);}
.step19 {transform: translateX(19456px);}
.step20 {transform: translateX(20480px);}
.step21 {transform: translateX(21504px);}
.step22 {transform: translateX(22528px);}
.step23 {transform: translateX(23552px);}
.step24 {transform: translateX(24576px);}
.step25 {transform: translateX(25600px);}
.step26 {transform: translateX(26624px);}
.step27 {transform: translateX(27648px);}
.step28 {transform: translateX(28672px);}
.step29 {transform: translateX(29696px);}
    </style>

    <path d="M 552 521 Q 618 534 689 547 Q 770 565 782 576 Q 792 585 787 594 Q 780 607 747 617 Q 713 624 678 612 Q 617 593 556 574 L 502 560 Q 493 559 486 557 Q 374 532 244 521 Q 202 515 232 496 Q 280 469 342 481 Q 418 496 500 511 L 552 521 Z" fill="lightgray"/>
    <path d="M 509 230 Q 536 300 542 396 Q 546 460 552 521 L 556 574 Q 557 688 590 759 Q 597 775 586 788 Q 561 810 517 823 Q 489 830 478 824 Q 468 817 476 802 Q 501 759 503 706 Q 504 633 502 560 L 500 511 Q 488 340 467 270 L 450 228 Q 425 174 376 137 Q 306 82 154 34 Q 139 30 138 24 Q 138 20 151 17 Q 176 11 235 25 Q 337 44 409 100 Q 457 137 487 185 L 509 230 Z" fill="lightgray"/>
    <path d="M 487 185 Q 488 184 490 181 Q 646 -2 704 -9 Q 834 -9 900 0 Q 945 4 941 17 Q 940 23 896 36 Q 719 85 661 116 Q 591 155 509 230 L 467 270 Q 421 316 374 367 Q 334 412 296 413 Q 277 414 273 409 Q 270 402 288 389 Q 339 356 450 228 L 487 185 Z" fill="lightgray"/></g>
<g transform="scale(1, -1) translate(0, -900)">
    <style type="text/css">
        .origin {display:none;}
        .hide {display:none;}
        .stroke {fill: #000000;}
        
.step1 {transform: translateX(1024px);}
.step2 {transform: translateX(2048px);}
.step3 {transform: translateX(3072px);}
.step4 {transform: translateX(4096px);}
.step5 {transform: translateX(5120px);}
.step6 {transform: translateX(6144px);}
.step7 {transform: translateX(7168px);}
.step8 {transform: translateX(8192px);}
.step9 {transform: translateX(9216px);}
.step10 {transform: translateX(10240px);}
.step11 {transform: translateX(11264px);}
.step12 {transform: translateX(12288px);}
.step13 {transform: translateX(13312px);}
.step14 {transform: translateX(14336px);}
.step15 {transform: translateX(15360px);}
.step16 {transform: translateX(16384px);}
.step17 {transform: translateX(17408px);}
.step18 {transform: translateX(18432px);}
.step19 {transform: translateX(19456px);}
.step20 {transform: translateX(20480px);}
.step21 {transform: translateX(21504px);}
.step22 {transform: translateX(22528px);}
.step23 {transform: translateX(23552px);}
.step24 {transform: translateX(24576px);}
.step25 {transform: translateX(25600px);}
.step26 {transform: translateX(26624px);}
.step27 {transform: translateX(27648px);}
.step28 {transform: translateX(28672px);}
.step29 {transform: translateX(29696px);}
    </style>

    <path d="M 552 521 Q 618 534 689 547 Q 770 565 782 576 Q 792 585 787 594 Q 780 607 747 617 Q 713 624 678 612 Q 617 593 556 574 L 502 560 Q 493 559 486 557 Q 374 532 244 521 Q 202 515 232 496 Q 280 469 342 481 Q 418 496 500 511 L 552 521 Z" fill="lightgray" class="stroke step0"/>
    <path d="M 509 230 Q 536 300 542 396 Q 546 460 552 521 L 556 574 Q 557 688 590 759 Q 597 775 586 788 Q 561 810 517 823 Q 489 830 478 824 Q 468 817 476 802 Q 501 759 503 706 Q 504 633 502 560 L 500 511 Q 488 340 467 270 L 450 228 Q 425 174 376 137 Q 306 82 154 34 Q 139 30 138 24 Q 138 20 151 17 Q 176 11 235 25 Q 337 44 409 100 Q 457 137 487 185 L 509 230 Z" fill="lightgray" class="hide"/>
    <path d="M 487 185 Q 488 184 490 181 Q 646 -2 704 -9 Q 834 -9 900 0 Q 945 4 941 17 Q 940 23 896 36 Q 719 85 661 116 Q 591 155 509 230 L 467 270 Q 421 316 374 367 Q 334 412 296 413 Q 277 414 273 409 Q 270 402 288 389 Q 339 356 450 228 L 487 185 Z" fill="lightgray" class="hide"/></g><g transform="scale(1, -1) translate(0, -900)">
    <style type="text/css">
        .origin {display:none;}
        .hide {display:none;}
        .stroke {fill: #000000;}
        
.step1 {transform: translateX(1024px);}
.step2 {transform: translateX(2048px);}
.step3 {transform: translateX(3072px);}
.step4 {transform: translateX(4096px);}
.step5 {transform: translateX(5120px);}
.step6 {transform: translateX(6144px);}
.step7 {transform: translateX(7168px);}
.step8 {transform: translateX(8192px);}
.step9 {transform: translateX(9216px);}
.step10 {transform: translateX(10240px);}
.step11 {transform: translateX(11264px);}
.step12 {transform: translateX(12288px);}
.step13 {transform: translateX(13312px);}
.step14 {transform: translateX(14336px);}
.step15 {transform: translateX(15360px);}
.step16 {transform: translateX(16384px);}
.step17 {transform: translateX(17408px);}
.step18 {transform: translateX(18432px);}
.step19 {transform: translateX(19456px);}
.step20 {transform: translateX(20480px);}
.step21 {transform: translateX(21504px);}
.step22 {transform: translateX(22528px);}
.step23 {transform: translateX(23552px);}
.step24 {transform: translateX(24576px);}
.step25 {transform: translateX(25600px);}
.step26 {transform: translateX(26624px);}
.step27 {transform: translateX(27648px);}
.step28 {transform: translateX(28672px);}
.step29 {transform: translateX(29696px);}
    </style>

    <path d="M 552 521 Q 618 534 689 547 Q 770 565 782 576 Q 792 585 787 594 Q 780 607 747 617 Q 713 624 678 612 Q 617 593 556 574 L 502 560 Q 493 559 486 557 Q 374 532 244 521 Q 202 515 232 496 Q 280 469 342 481 Q 418 496 500 511 L 552 521 Z" fill="lightgray" class="stroke step1"/>
    <path d="M 509 230 Q 536 300 542 396 Q 546 460 552 521 L 556 574 Q 557 688 590 759 Q 597 775 586 788 Q 561 810 517 823 Q 489 830 478 824 Q 468 817 476 802 Q 501 759 503 706 Q 504 633 502 560 L 500 511 Q 488 340 467 270 L 450 228 Q 425 174 376 137 Q 306 82 154 34 Q 139 30 138 24 Q 138 20 151 17 Q 176 11 235 25 Q 337 44 409 100 Q 457 137 487 185 L 509 230 Z" fill="lightgray" class="stroke step1"/>
    <path d="M 487 185 Q 488 184 490 181 Q 646 -2 704 -9 Q 834 -9 900 0 Q 945 4 941 17 Q 940 23 896 36 Q 719 85 661 116 Q 591 155 509 230 L 467 270 Q 421 316 374 367 Q 334 412 296 413 Q 277 414 273 409 Q 270 402 288 389 Q 339 356 450 228 L 487 185 Z" fill="lightgray" class="hide"/></g><g transform="scale(1, -1) translate(0, -900)">
    <style type="text/css">
        .origin {display:none;}
        .hide {display:none;}
        .stroke {fill: #000000;}
        
.step1 {transform: translateX(1024px);}
.step2 {transform: translateX(2048px);}
.step3 {transform: translateX(3072px);}
.step4 {transform: translateX(4096px);}
.step5 {transform: translateX(5120px);}
.step6 {transform: translateX(6144px);}
.step7 {transform: translateX(7168px);}
.step8 {transform: translateX(8192px);}
.step9 {transform: translateX(9216px);}
.step10 {transform: translateX(10240px);}
.step11 {transform: translateX(11264px);}
.step12 {transform: translateX(12288px);}
.step13 {transform: translateX(13312px);}
.step14 {transform: translateX(14336px);}
.step15 {transform: translateX(15360px);}
.step16 {transform: translateX(16384px);}
.step17 {transform: translateX(17408px);}
.step18 {transform: translateX(18432px);}
.step19 {transform: translateX(19456px);}
.step20 {transform: translateX(20480px);}
.step21 {transform: translateX(21504px);}
.step22 {transform: translateX(22528px);}
.step23 {transform: translateX(23552px);}
.step24 {transform: translateX(24576px);}
.step25 {transform: translateX(25600px);}
.step26 {transform: translateX(26624px);}
.step27 {transform: translateX(27648px);}
.step28 {transform: translateX(28672px);}
.step29 {transform: translateX(29696px);}
    </style>

    <path d="M 552 521 Q 618 534 689 547 Q 770 565 782 576 Q 792 585 787 594 Q 780 607 747 617 Q 713 624 678 612 Q 617 593 556 574 L 502 560 Q 493 559 486 557 Q 374 532 244 521 Q 202 515 232 496 Q 280 469 342 481 Q 418 496 500 511 L 552 521 Z" fill="lightgray" class="stroke step2"/>
    <path d="M 509 230 Q 536 300 542 396 Q 546 460 552 521 L 556 574 Q 557 688 590 759 Q 597 775 586 788 Q 561 810 517 823 Q 489 830 478 824 Q 468 817 476 802 Q 501 759 503 706 Q 504 633 502 560 L 500 511 Q 488 340 467 270 L 450 228 Q 425 174 376 137 Q 306 82 154 34 Q 139 30 138 24 Q 138 20 151 17 Q 176 11 235 25 Q 337 44 409 100 Q 457 137 487 185 L 509 230 Z" fill="lightgray" class="stroke step2"/>
    <path d="M 487 185 Q 488 184 490 181 Q 646 -2 704 -9 Q 834 -9 900 0 Q 945 4 941 17 Q 940 23 896 36 Q 719 85 661 116 Q 591 155 509 230 L 467 270 Q 421 316 374 367 Q 334 412 296 413 Q 277 414 273 409 Q 270 402 288 389 Q 339 356 450 228 L 487 185 Z" fill="lightgray" class="stroke step2"/></g></svg>