<svg version="1.1" viewBox="0 0 3072 1024" xmlns="http://www.w3.org/2000/svg">
  
  <g transform="scale(1, -1) translate(0, -900)" class="origin">
    <style type="text/css">
        .origin {display:none;}
        .hide {display:none;}
        .stroke {fill: #000000;}
        
.step1 {transform: translateX(1024px);}
.step2 {transform: translateX(2048px);}
.step3 {transform: translateX(3072px);}
.step4 {transform: translateX(4096px);}
.step5 {transform: translateX(5120px);}
.step6 {transform: translateX(6144px);}
.step7 {transform: translateX(7168px);}
.step8 {transform: translateX(8192px);}
.step9 {transform: translateX(9216px);}
.step10 {transform: translateX(10240px);}
.step11 {transform: translateX(11264px);}
.step12 {transform: translateX(12288px);}
.step13 {transform: translateX(13312px);}
.step14 {transform: translateX(14336px);}
.step15 {transform: translateX(15360px);}
.step16 {transform: translateX(16384px);}
.step17 {transform: translateX(17408px);}
.step18 {transform: translateX(18432px);}
.step19 {transform: translateX(19456px);}
.step20 {transform: translateX(20480px);}
.step21 {transform: translateX(21504px);}
.step22 {transform: translateX(22528px);}
.step23 {transform: translateX(23552px);}
.step24 {transform: translateX(24576px);}
.step25 {transform: translateX(25600px);}
.step26 {transform: translateX(26624px);}
.step27 {transform: translateX(27648px);}
.step28 {transform: translateX(28672px);}
.step29 {transform: translateX(29696px);}
    </style>

    <path d="M 446 766 Q 480 739 515 706 Q 530 693 547 693 Q 559 694 564 708 Q 570 724 559 757 Q 547 796 440 819 Q 424 823 416 819 Q 410 815 412 801 Q 416 788 446 766 Z" fill="lightgray"/>
    <path d="M 311 281 Q 464 372 633 513 Q 666 541 738 570 Q 763 579 749 597 Q 737 619 682 648 Q 667 655 651 644 Q 581 596 300 559 Q 251 555 229 556 Q 213 557 209 542 Q 208 529 240 504 Q 268 482 297 497 Q 346 524 576 567 Q 592 570 596 564 Q 600 560 588 548 Q 407 388 258 283 C 234 266 285 265 311 281 Z" fill="lightgray"/>
    <path d="M 258 283 Q 219 282 175 262 Q 139 255 93 259 Q 72 262 72 248 Q 73 233 102 214 Q 123 198 154 208 Q 257 266 364 225 Q 436 206 632 74 Q 647 65 654 58 Q 711 19 750 18 Q 756 19 762 19 Q 942 61 953 88 Q 954 97 930 97 Q 780 103 694 130 Q 516 202 477 221 Q 353 281 311 281 L 258 283 Z" fill="lightgray"/></g>
<g transform="scale(1, -1) translate(0, -900)">
    <style type="text/css">
        .origin {display:none;}
        .hide {display:none;}
        .stroke {fill: #000000;}
        
.step1 {transform: translateX(1024px);}
.step2 {transform: translateX(2048px);}
.step3 {transform: translateX(3072px);}
.step4 {transform: translateX(4096px);}
.step5 {transform: translateX(5120px);}
.step6 {transform: translateX(6144px);}
.step7 {transform: translateX(7168px);}
.step8 {transform: translateX(8192px);}
.step9 {transform: translateX(9216px);}
.step10 {transform: translateX(10240px);}
.step11 {transform: translateX(11264px);}
.step12 {transform: translateX(12288px);}
.step13 {transform: translateX(13312px);}
.step14 {transform: translateX(14336px);}
.step15 {transform: translateX(15360px);}
.step16 {transform: translateX(16384px);}
.step17 {transform: translateX(17408px);}
.step18 {transform: translateX(18432px);}
.step19 {transform: translateX(19456px);}
.step20 {transform: translateX(20480px);}
.step21 {transform: translateX(21504px);}
.step22 {transform: translateX(22528px);}
.step23 {transform: translateX(23552px);}
.step24 {transform: translateX(24576px);}
.step25 {transform: translateX(25600px);}
.step26 {transform: translateX(26624px);}
.step27 {transform: translateX(27648px);}
.step28 {transform: translateX(28672px);}
.step29 {transform: translateX(29696px);}
    </style>

    <path d="M 446 766 Q 480 739 515 706 Q 530 693 547 693 Q 559 694 564 708 Q 570 724 559 757 Q 547 796 440 819 Q 424 823 416 819 Q 410 815 412 801 Q 416 788 446 766 Z" fill="lightgray" class="stroke step0"/>
    <path d="M 311 281 Q 464 372 633 513 Q 666 541 738 570 Q 763 579 749 597 Q 737 619 682 648 Q 667 655 651 644 Q 581 596 300 559 Q 251 555 229 556 Q 213 557 209 542 Q 208 529 240 504 Q 268 482 297 497 Q 346 524 576 567 Q 592 570 596 564 Q 600 560 588 548 Q 407 388 258 283 C 234 266 285 265 311 281 Z" fill="lightgray" class="hide"/>
    <path d="M 258 283 Q 219 282 175 262 Q 139 255 93 259 Q 72 262 72 248 Q 73 233 102 214 Q 123 198 154 208 Q 257 266 364 225 Q 436 206 632 74 Q 647 65 654 58 Q 711 19 750 18 Q 756 19 762 19 Q 942 61 953 88 Q 954 97 930 97 Q 780 103 694 130 Q 516 202 477 221 Q 353 281 311 281 L 258 283 Z" fill="lightgray" class="hide"/></g><g transform="scale(1, -1) translate(0, -900)">
    <style type="text/css">
        .origin {display:none;}
        .hide {display:none;}
        .stroke {fill: #000000;}
        
.step1 {transform: translateX(1024px);}
.step2 {transform: translateX(2048px);}
.step3 {transform: translateX(3072px);}
.step4 {transform: translateX(4096px);}
.step5 {transform: translateX(5120px);}
.step6 {transform: translateX(6144px);}
.step7 {transform: translateX(7168px);}
.step8 {transform: translateX(8192px);}
.step9 {transform: translateX(9216px);}
.step10 {transform: translateX(10240px);}
.step11 {transform: translateX(11264px);}
.step12 {transform: translateX(12288px);}
.step13 {transform: translateX(13312px);}
.step14 {transform: translateX(14336px);}
.step15 {transform: translateX(15360px);}
.step16 {transform: translateX(16384px);}
.step17 {transform: translateX(17408px);}
.step18 {transform: translateX(18432px);}
.step19 {transform: translateX(19456px);}
.step20 {transform: translateX(20480px);}
.step21 {transform: translateX(21504px);}
.step22 {transform: translateX(22528px);}
.step23 {transform: translateX(23552px);}
.step24 {transform: translateX(24576px);}
.step25 {transform: translateX(25600px);}
.step26 {transform: translateX(26624px);}
.step27 {transform: translateX(27648px);}
.step28 {transform: translateX(28672px);}
.step29 {transform: translateX(29696px);}
    </style>

    <path d="M 446 766 Q 480 739 515 706 Q 530 693 547 693 Q 559 694 564 708 Q 570 724 559 757 Q 547 796 440 819 Q 424 823 416 819 Q 410 815 412 801 Q 416 788 446 766 Z" fill="lightgray" class="stroke step1"/>
    <path d="M 311 281 Q 464 372 633 513 Q 666 541 738 570 Q 763 579 749 597 Q 737 619 682 648 Q 667 655 651 644 Q 581 596 300 559 Q 251 555 229 556 Q 213 557 209 542 Q 208 529 240 504 Q 268 482 297 497 Q 346 524 576 567 Q 592 570 596 564 Q 600 560 588 548 Q 407 388 258 283 C 234 266 285 265 311 281 Z" fill="lightgray" class="stroke step1"/>
    <path d="M 258 283 Q 219 282 175 262 Q 139 255 93 259 Q 72 262 72 248 Q 73 233 102 214 Q 123 198 154 208 Q 257 266 364 225 Q 436 206 632 74 Q 647 65 654 58 Q 711 19 750 18 Q 756 19 762 19 Q 942 61 953 88 Q 954 97 930 97 Q 780 103 694 130 Q 516 202 477 221 Q 353 281 311 281 L 258 283 Z" fill="lightgray" class="hide"/></g><g transform="scale(1, -1) translate(0, -900)">
    <style type="text/css">
        .origin {display:none;}
        .hide {display:none;}
        .stroke {fill: #000000;}
        
.step1 {transform: translateX(1024px);}
.step2 {transform: translateX(2048px);}
.step3 {transform: translateX(3072px);}
.step4 {transform: translateX(4096px);}
.step5 {transform: translateX(5120px);}
.step6 {transform: translateX(6144px);}
.step7 {transform: translateX(7168px);}
.step8 {transform: translateX(8192px);}
.step9 {transform: translateX(9216px);}
.step10 {transform: translateX(10240px);}
.step11 {transform: translateX(11264px);}
.step12 {transform: translateX(12288px);}
.step13 {transform: translateX(13312px);}
.step14 {transform: translateX(14336px);}
.step15 {transform: translateX(15360px);}
.step16 {transform: translateX(16384px);}
.step17 {transform: translateX(17408px);}
.step18 {transform: translateX(18432px);}
.step19 {transform: translateX(19456px);}
.step20 {transform: translateX(20480px);}
.step21 {transform: translateX(21504px);}
.step22 {transform: translateX(22528px);}
.step23 {transform: translateX(23552px);}
.step24 {transform: translateX(24576px);}
.step25 {transform: translateX(25600px);}
.step26 {transform: translateX(26624px);}
.step27 {transform: translateX(27648px);}
.step28 {transform: translateX(28672px);}
.step29 {transform: translateX(29696px);}
    </style>

    <path d="M 446 766 Q 480 739 515 706 Q 530 693 547 693 Q 559 694 564 708 Q 570 724 559 757 Q 547 796 440 819 Q 424 823 416 819 Q 410 815 412 801 Q 416 788 446 766 Z" fill="lightgray" class="stroke step2"/>
    <path d="M 311 281 Q 464 372 633 513 Q 666 541 738 570 Q 763 579 749 597 Q 737 619 682 648 Q 667 655 651 644 Q 581 596 300 559 Q 251 555 229 556 Q 213 557 209 542 Q 208 529 240 504 Q 268 482 297 497 Q 346 524 576 567 Q 592 570 596 564 Q 600 560 588 548 Q 407 388 258 283 C 234 266 285 265 311 281 Z" fill="lightgray" class="stroke step2"/>
    <path d="M 258 283 Q 219 282 175 262 Q 139 255 93 259 Q 72 262 72 248 Q 73 233 102 214 Q 123 198 154 208 Q 257 266 364 225 Q 436 206 632 74 Q 647 65 654 58 Q 711 19 750 18 Q 756 19 762 19 Q 942 61 953 88 Q 954 97 930 97 Q 780 103 694 130 Q 516 202 477 221 Q 353 281 311 281 L 258 283 Z" fill="lightgray" class="stroke step2"/></g></svg>