<svg version="1.1" viewBox="0 0 3072 1024" xmlns="http://www.w3.org/2000/svg">
  
  <g transform="scale(1, -1) translate(0, -900)" class="origin">
    <style type="text/css">
        .origin {display:none;}
        .hide {display:none;}
        .stroke {fill: #000000;}
        
.step1 {transform: translateX(1024px);}
.step2 {transform: translateX(2048px);}
.step3 {transform: translateX(3072px);}
.step4 {transform: translateX(4096px);}
.step5 {transform: translateX(5120px);}
.step6 {transform: translateX(6144px);}
.step7 {transform: translateX(7168px);}
.step8 {transform: translateX(8192px);}
.step9 {transform: translateX(9216px);}
.step10 {transform: translateX(10240px);}
.step11 {transform: translateX(11264px);}
.step12 {transform: translateX(12288px);}
.step13 {transform: translateX(13312px);}
.step14 {transform: translateX(14336px);}
.step15 {transform: translateX(15360px);}
.step16 {transform: translateX(16384px);}
.step17 {transform: translateX(17408px);}
.step18 {transform: translateX(18432px);}
.step19 {transform: translateX(19456px);}
.step20 {transform: translateX(20480px);}
.step21 {transform: translateX(21504px);}
.step22 {transform: translateX(22528px);}
.step23 {transform: translateX(23552px);}
.step24 {transform: translateX(24576px);}
.step25 {transform: translateX(25600px);}
.step26 {transform: translateX(26624px);}
.step27 {transform: translateX(27648px);}
.step28 {transform: translateX(28672px);}
.step29 {transform: translateX(29696px);}
    </style>

    <path d="M 500 709 Q 591 724 710 735 Q 722 734 732 747 Q 733 760 709 772 Q 673 794 598 775 Q 562 769 528 760 Q 449 745 302 731 Q 271 728 294 709 Q 330 678 360 686 Q 403 695 456 702 L 500 709 Z" fill="lightgray"/>
    <path d="M 556 484 Q 634 490 898 491 Q 922 491 927 501 Q 934 514 914 531 Q 842 588 796 565 Q 699 549 552 525 L 502 518 Q 499 519 497 518 Q 322 497 115 474 Q 90 471 108 451 Q 124 435 146 428 Q 171 421 190 427 Q 328 463 506 480 L 556 484 Z" fill="lightgray"/>
    <path d="M 506 480 Q 527 186 476 99 Q 473 90 464 87 Q 446 81 349 100 Q 340 101 338 97 Q 337 93 346 84 Q 416 30 455 -12 Q 468 -25 475 -23 Q 491 -22 517 6 Q 574 63 575 174 Q 576 234 556 484 L 552 525 Q 531 687 528 692 Q 519 701 500 709 C 474 724 442 729 456 702 Q 487 656 502 518 L 506 480 Z" fill="lightgray"/></g>
<g transform="scale(1, -1) translate(0, -900)">
    <style type="text/css">
        .origin {display:none;}
        .hide {display:none;}
        .stroke {fill: #000000;}
        
.step1 {transform: translateX(1024px);}
.step2 {transform: translateX(2048px);}
.step3 {transform: translateX(3072px);}
.step4 {transform: translateX(4096px);}
.step5 {transform: translateX(5120px);}
.step6 {transform: translateX(6144px);}
.step7 {transform: translateX(7168px);}
.step8 {transform: translateX(8192px);}
.step9 {transform: translateX(9216px);}
.step10 {transform: translateX(10240px);}
.step11 {transform: translateX(11264px);}
.step12 {transform: translateX(12288px);}
.step13 {transform: translateX(13312px);}
.step14 {transform: translateX(14336px);}
.step15 {transform: translateX(15360px);}
.step16 {transform: translateX(16384px);}
.step17 {transform: translateX(17408px);}
.step18 {transform: translateX(18432px);}
.step19 {transform: translateX(19456px);}
.step20 {transform: translateX(20480px);}
.step21 {transform: translateX(21504px);}
.step22 {transform: translateX(22528px);}
.step23 {transform: translateX(23552px);}
.step24 {transform: translateX(24576px);}
.step25 {transform: translateX(25600px);}
.step26 {transform: translateX(26624px);}
.step27 {transform: translateX(27648px);}
.step28 {transform: translateX(28672px);}
.step29 {transform: translateX(29696px);}
    </style>

    <path d="M 500 709 Q 591 724 710 735 Q 722 734 732 747 Q 733 760 709 772 Q 673 794 598 775 Q 562 769 528 760 Q 449 745 302 731 Q 271 728 294 709 Q 330 678 360 686 Q 403 695 456 702 L 500 709 Z" fill="lightgray" class="stroke step0"/>
    <path d="M 556 484 Q 634 490 898 491 Q 922 491 927 501 Q 934 514 914 531 Q 842 588 796 565 Q 699 549 552 525 L 502 518 Q 499 519 497 518 Q 322 497 115 474 Q 90 471 108 451 Q 124 435 146 428 Q 171 421 190 427 Q 328 463 506 480 L 556 484 Z" fill="lightgray" class="hide"/>
    <path d="M 506 480 Q 527 186 476 99 Q 473 90 464 87 Q 446 81 349 100 Q 340 101 338 97 Q 337 93 346 84 Q 416 30 455 -12 Q 468 -25 475 -23 Q 491 -22 517 6 Q 574 63 575 174 Q 576 234 556 484 L 552 525 Q 531 687 528 692 Q 519 701 500 709 C 474 724 442 729 456 702 Q 487 656 502 518 L 506 480 Z" fill="lightgray" class="hide"/></g><g transform="scale(1, -1) translate(0, -900)">
    <style type="text/css">
        .origin {display:none;}
        .hide {display:none;}
        .stroke {fill: #000000;}
        
.step1 {transform: translateX(1024px);}
.step2 {transform: translateX(2048px);}
.step3 {transform: translateX(3072px);}
.step4 {transform: translateX(4096px);}
.step5 {transform: translateX(5120px);}
.step6 {transform: translateX(6144px);}
.step7 {transform: translateX(7168px);}
.step8 {transform: translateX(8192px);}
.step9 {transform: translateX(9216px);}
.step10 {transform: translateX(10240px);}
.step11 {transform: translateX(11264px);}
.step12 {transform: translateX(12288px);}
.step13 {transform: translateX(13312px);}
.step14 {transform: translateX(14336px);}
.step15 {transform: translateX(15360px);}
.step16 {transform: translateX(16384px);}
.step17 {transform: translateX(17408px);}
.step18 {transform: translateX(18432px);}
.step19 {transform: translateX(19456px);}
.step20 {transform: translateX(20480px);}
.step21 {transform: translateX(21504px);}
.step22 {transform: translateX(22528px);}
.step23 {transform: translateX(23552px);}
.step24 {transform: translateX(24576px);}
.step25 {transform: translateX(25600px);}
.step26 {transform: translateX(26624px);}
.step27 {transform: translateX(27648px);}
.step28 {transform: translateX(28672px);}
.step29 {transform: translateX(29696px);}
    </style>

    <path d="M 500 709 Q 591 724 710 735 Q 722 734 732 747 Q 733 760 709 772 Q 673 794 598 775 Q 562 769 528 760 Q 449 745 302 731 Q 271 728 294 709 Q 330 678 360 686 Q 403 695 456 702 L 500 709 Z" fill="lightgray" class="stroke step1"/>
    <path d="M 556 484 Q 634 490 898 491 Q 922 491 927 501 Q 934 514 914 531 Q 842 588 796 565 Q 699 549 552 525 L 502 518 Q 499 519 497 518 Q 322 497 115 474 Q 90 471 108 451 Q 124 435 146 428 Q 171 421 190 427 Q 328 463 506 480 L 556 484 Z" fill="lightgray" class="stroke step1"/>
    <path d="M 506 480 Q 527 186 476 99 Q 473 90 464 87 Q 446 81 349 100 Q 340 101 338 97 Q 337 93 346 84 Q 416 30 455 -12 Q 468 -25 475 -23 Q 491 -22 517 6 Q 574 63 575 174 Q 576 234 556 484 L 552 525 Q 531 687 528 692 Q 519 701 500 709 C 474 724 442 729 456 702 Q 487 656 502 518 L 506 480 Z" fill="lightgray" class="hide"/></g><g transform="scale(1, -1) translate(0, -900)">
    <style type="text/css">
        .origin {display:none;}
        .hide {display:none;}
        .stroke {fill: #000000;}
        
.step1 {transform: translateX(1024px);}
.step2 {transform: translateX(2048px);}
.step3 {transform: translateX(3072px);}
.step4 {transform: translateX(4096px);}
.step5 {transform: translateX(5120px);}
.step6 {transform: translateX(6144px);}
.step7 {transform: translateX(7168px);}
.step8 {transform: translateX(8192px);}
.step9 {transform: translateX(9216px);}
.step10 {transform: translateX(10240px);}
.step11 {transform: translateX(11264px);}
.step12 {transform: translateX(12288px);}
.step13 {transform: translateX(13312px);}
.step14 {transform: translateX(14336px);}
.step15 {transform: translateX(15360px);}
.step16 {transform: translateX(16384px);}
.step17 {transform: translateX(17408px);}
.step18 {transform: translateX(18432px);}
.step19 {transform: translateX(19456px);}
.step20 {transform: translateX(20480px);}
.step21 {transform: translateX(21504px);}
.step22 {transform: translateX(22528px);}
.step23 {transform: translateX(23552px);}
.step24 {transform: translateX(24576px);}
.step25 {transform: translateX(25600px);}
.step26 {transform: translateX(26624px);}
.step27 {transform: translateX(27648px);}
.step28 {transform: translateX(28672px);}
.step29 {transform: translateX(29696px);}
    </style>

    <path d="M 500 709 Q 591 724 710 735 Q 722 734 732 747 Q 733 760 709 772 Q 673 794 598 775 Q 562 769 528 760 Q 449 745 302 731 Q 271 728 294 709 Q 330 678 360 686 Q 403 695 456 702 L 500 709 Z" fill="lightgray" class="stroke step2"/>
    <path d="M 556 484 Q 634 490 898 491 Q 922 491 927 501 Q 934 514 914 531 Q 842 588 796 565 Q 699 549 552 525 L 502 518 Q 499 519 497 518 Q 322 497 115 474 Q 90 471 108 451 Q 124 435 146 428 Q 171 421 190 427 Q 328 463 506 480 L 556 484 Z" fill="lightgray" class="stroke step2"/>
    <path d="M 506 480 Q 527 186 476 99 Q 473 90 464 87 Q 446 81 349 100 Q 340 101 338 97 Q 337 93 346 84 Q 416 30 455 -12 Q 468 -25 475 -23 Q 491 -22 517 6 Q 574 63 575 174 Q 576 234 556 484 L 552 525 Q 531 687 528 692 Q 519 701 500 709 C 474 724 442 729 456 702 Q 487 656 502 518 L 506 480 Z" fill="lightgray" class="stroke step2"/></g></svg>