<svg version="1.1" viewBox="0 0 6144 1024" xmlns="http://www.w3.org/2000/svg">
  
  <g transform="scale(1, -1) translate(0, -900)" class="origin">
    <style type="text/css">
        .origin {display:none;}
        .hide {display:none;}
        .stroke {fill: #000000;}
        
.step1 {transform: translateX(1024px);}
.step2 {transform: translateX(2048px);}
.step3 {transform: translateX(3072px);}
.step4 {transform: translateX(4096px);}
.step5 {transform: translateX(5120px);}
.step6 {transform: translateX(6144px);}
.step7 {transform: translateX(7168px);}
.step8 {transform: translateX(8192px);}
.step9 {transform: translateX(9216px);}
.step10 {transform: translateX(10240px);}
.step11 {transform: translateX(11264px);}
.step12 {transform: translateX(12288px);}
.step13 {transform: translateX(13312px);}
.step14 {transform: translateX(14336px);}
.step15 {transform: translateX(15360px);}
.step16 {transform: translateX(16384px);}
.step17 {transform: translateX(17408px);}
.step18 {transform: translateX(18432px);}
.step19 {transform: translateX(19456px);}
.step20 {transform: translateX(20480px);}
.step21 {transform: translateX(21504px);}
.step22 {transform: translateX(22528px);}
.step23 {transform: translateX(23552px);}
.step24 {transform: translateX(24576px);}
.step25 {transform: translateX(25600px);}
.step26 {transform: translateX(26624px);}
.step27 {transform: translateX(27648px);}
.step28 {transform: translateX(28672px);}
.step29 {transform: translateX(29696px);}
    </style>

    <path d="M 431 792 Q 483 744 526 727 Q 542 726 551 740 Q 555 755 551 772 Q 536 815 466 829 Q 424 838 413 833 Q 406 832 410 818 Q 413 805 431 792 Z" fill="lightgray"/>
    <path d="M 201 628 Q 179 625 195 607 Q 231 579 270 588 Q 492 654 795 655 Q 796 655 798 655 Q 820 656 825 665 Q 829 678 812 693 Q 752 732 714 722 Q 569 686 201 628 Z" fill="lightgray"/>
    <path d="M 339 555 Q 335 468 221 386 Q 193 367 179 355 Q 169 342 184 344 Q 227 341 322 414 Q 380 474 410 499 Q 422 509 411 526 Q 375 569 352 569 Q 340 569 339 555 Z" fill="lightgray"/>
    <path d="M 580 533 Q 635 499 696 457 Q 711 447 727 449 Q 737 450 741 464 Q 744 480 731 508 Q 721 538 672 557 Q 623 572 569 581 Q 553 582 548 579 Q 544 575 546 562 Q 550 552 580 533 Z" fill="lightgray"/>
    <path d="M 520 218 Q 557 270 580 332 Q 596 375 610 387 Q 620 399 613 410 Q 603 426 577 436 Q 558 449 538 446 Q 525 443 530 428 Q 552 371 480 253 L 458 223 Q 455 222 454 218 Q 408 164 347 130 Q 274 90 129 56 Q 110 49 131 45 Q 284 18 408 98 Q 459 131 495 182 L 520 218 Z" fill="lightgray"/>
    <path d="M 495 182 Q 591 71 679 5 Q 716 -22 900 7 Q 942 14 938 24 Q 937 30 896 42 Q 671 91 569 178 Q 544 197 520 218 L 480 253 Q 446 284 412 320 Q 373 360 336 360 Q 317 361 314 355 Q 313 348 329 337 Q 371 315 458 223 L 495 182 Z" fill="lightgray"/></g>
<g transform="scale(1, -1) translate(0, -900)">
    <style type="text/css">
        .origin {display:none;}
        .hide {display:none;}
        .stroke {fill: #000000;}
        
.step1 {transform: translateX(1024px);}
.step2 {transform: translateX(2048px);}
.step3 {transform: translateX(3072px);}
.step4 {transform: translateX(4096px);}
.step5 {transform: translateX(5120px);}
.step6 {transform: translateX(6144px);}
.step7 {transform: translateX(7168px);}
.step8 {transform: translateX(8192px);}
.step9 {transform: translateX(9216px);}
.step10 {transform: translateX(10240px);}
.step11 {transform: translateX(11264px);}
.step12 {transform: translateX(12288px);}
.step13 {transform: translateX(13312px);}
.step14 {transform: translateX(14336px);}
.step15 {transform: translateX(15360px);}
.step16 {transform: translateX(16384px);}
.step17 {transform: translateX(17408px);}
.step18 {transform: translateX(18432px);}
.step19 {transform: translateX(19456px);}
.step20 {transform: translateX(20480px);}
.step21 {transform: translateX(21504px);}
.step22 {transform: translateX(22528px);}
.step23 {transform: translateX(23552px);}
.step24 {transform: translateX(24576px);}
.step25 {transform: translateX(25600px);}
.step26 {transform: translateX(26624px);}
.step27 {transform: translateX(27648px);}
.step28 {transform: translateX(28672px);}
.step29 {transform: translateX(29696px);}
    </style>

    <path d="M 431 792 Q 483 744 526 727 Q 542 726 551 740 Q 555 755 551 772 Q 536 815 466 829 Q 424 838 413 833 Q 406 832 410 818 Q 413 805 431 792 Z" fill="lightgray" class="stroke step0"/>
    <path d="M 201 628 Q 179 625 195 607 Q 231 579 270 588 Q 492 654 795 655 Q 796 655 798 655 Q 820 656 825 665 Q 829 678 812 693 Q 752 732 714 722 Q 569 686 201 628 Z" fill="lightgray" class="hide"/>
    <path d="M 339 555 Q 335 468 221 386 Q 193 367 179 355 Q 169 342 184 344 Q 227 341 322 414 Q 380 474 410 499 Q 422 509 411 526 Q 375 569 352 569 Q 340 569 339 555 Z" fill="lightgray" class="hide"/>
    <path d="M 580 533 Q 635 499 696 457 Q 711 447 727 449 Q 737 450 741 464 Q 744 480 731 508 Q 721 538 672 557 Q 623 572 569 581 Q 553 582 548 579 Q 544 575 546 562 Q 550 552 580 533 Z" fill="lightgray" class="hide"/>
    <path d="M 520 218 Q 557 270 580 332 Q 596 375 610 387 Q 620 399 613 410 Q 603 426 577 436 Q 558 449 538 446 Q 525 443 530 428 Q 552 371 480 253 L 458 223 Q 455 222 454 218 Q 408 164 347 130 Q 274 90 129 56 Q 110 49 131 45 Q 284 18 408 98 Q 459 131 495 182 L 520 218 Z" fill="lightgray" class="hide"/>
    <path d="M 495 182 Q 591 71 679 5 Q 716 -22 900 7 Q 942 14 938 24 Q 937 30 896 42 Q 671 91 569 178 Q 544 197 520 218 L 480 253 Q 446 284 412 320 Q 373 360 336 360 Q 317 361 314 355 Q 313 348 329 337 Q 371 315 458 223 L 495 182 Z" fill="lightgray" class="hide"/></g><g transform="scale(1, -1) translate(0, -900)">
    <style type="text/css">
        .origin {display:none;}
        .hide {display:none;}
        .stroke {fill: #000000;}
        
.step1 {transform: translateX(1024px);}
.step2 {transform: translateX(2048px);}
.step3 {transform: translateX(3072px);}
.step4 {transform: translateX(4096px);}
.step5 {transform: translateX(5120px);}
.step6 {transform: translateX(6144px);}
.step7 {transform: translateX(7168px);}
.step8 {transform: translateX(8192px);}
.step9 {transform: translateX(9216px);}
.step10 {transform: translateX(10240px);}
.step11 {transform: translateX(11264px);}
.step12 {transform: translateX(12288px);}
.step13 {transform: translateX(13312px);}
.step14 {transform: translateX(14336px);}
.step15 {transform: translateX(15360px);}
.step16 {transform: translateX(16384px);}
.step17 {transform: translateX(17408px);}
.step18 {transform: translateX(18432px);}
.step19 {transform: translateX(19456px);}
.step20 {transform: translateX(20480px);}
.step21 {transform: translateX(21504px);}
.step22 {transform: translateX(22528px);}
.step23 {transform: translateX(23552px);}
.step24 {transform: translateX(24576px);}
.step25 {transform: translateX(25600px);}
.step26 {transform: translateX(26624px);}
.step27 {transform: translateX(27648px);}
.step28 {transform: translateX(28672px);}
.step29 {transform: translateX(29696px);}
    </style>

    <path d="M 431 792 Q 483 744 526 727 Q 542 726 551 740 Q 555 755 551 772 Q 536 815 466 829 Q 424 838 413 833 Q 406 832 410 818 Q 413 805 431 792 Z" fill="lightgray" class="stroke step1"/>
    <path d="M 201 628 Q 179 625 195 607 Q 231 579 270 588 Q 492 654 795 655 Q 796 655 798 655 Q 820 656 825 665 Q 829 678 812 693 Q 752 732 714 722 Q 569 686 201 628 Z" fill="lightgray" class="stroke step1"/>
    <path d="M 339 555 Q 335 468 221 386 Q 193 367 179 355 Q 169 342 184 344 Q 227 341 322 414 Q 380 474 410 499 Q 422 509 411 526 Q 375 569 352 569 Q 340 569 339 555 Z" fill="lightgray" class="hide"/>
    <path d="M 580 533 Q 635 499 696 457 Q 711 447 727 449 Q 737 450 741 464 Q 744 480 731 508 Q 721 538 672 557 Q 623 572 569 581 Q 553 582 548 579 Q 544 575 546 562 Q 550 552 580 533 Z" fill="lightgray" class="hide"/>
    <path d="M 520 218 Q 557 270 580 332 Q 596 375 610 387 Q 620 399 613 410 Q 603 426 577 436 Q 558 449 538 446 Q 525 443 530 428 Q 552 371 480 253 L 458 223 Q 455 222 454 218 Q 408 164 347 130 Q 274 90 129 56 Q 110 49 131 45 Q 284 18 408 98 Q 459 131 495 182 L 520 218 Z" fill="lightgray" class="hide"/>
    <path d="M 495 182 Q 591 71 679 5 Q 716 -22 900 7 Q 942 14 938 24 Q 937 30 896 42 Q 671 91 569 178 Q 544 197 520 218 L 480 253 Q 446 284 412 320 Q 373 360 336 360 Q 317 361 314 355 Q 313 348 329 337 Q 371 315 458 223 L 495 182 Z" fill="lightgray" class="hide"/></g><g transform="scale(1, -1) translate(0, -900)">
    <style type="text/css">
        .origin {display:none;}
        .hide {display:none;}
        .stroke {fill: #000000;}
        
.step1 {transform: translateX(1024px);}
.step2 {transform: translateX(2048px);}
.step3 {transform: translateX(3072px);}
.step4 {transform: translateX(4096px);}
.step5 {transform: translateX(5120px);}
.step6 {transform: translateX(6144px);}
.step7 {transform: translateX(7168px);}
.step8 {transform: translateX(8192px);}
.step9 {transform: translateX(9216px);}
.step10 {transform: translateX(10240px);}
.step11 {transform: translateX(11264px);}
.step12 {transform: translateX(12288px);}
.step13 {transform: translateX(13312px);}
.step14 {transform: translateX(14336px);}
.step15 {transform: translateX(15360px);}
.step16 {transform: translateX(16384px);}
.step17 {transform: translateX(17408px);}
.step18 {transform: translateX(18432px);}
.step19 {transform: translateX(19456px);}
.step20 {transform: translateX(20480px);}
.step21 {transform: translateX(21504px);}
.step22 {transform: translateX(22528px);}
.step23 {transform: translateX(23552px);}
.step24 {transform: translateX(24576px);}
.step25 {transform: translateX(25600px);}
.step26 {transform: translateX(26624px);}
.step27 {transform: translateX(27648px);}
.step28 {transform: translateX(28672px);}
.step29 {transform: translateX(29696px);}
    </style>

    <path d="M 431 792 Q 483 744 526 727 Q 542 726 551 740 Q 555 755 551 772 Q 536 815 466 829 Q 424 838 413 833 Q 406 832 410 818 Q 413 805 431 792 Z" fill="lightgray" class="stroke step2"/>
    <path d="M 201 628 Q 179 625 195 607 Q 231 579 270 588 Q 492 654 795 655 Q 796 655 798 655 Q 820 656 825 665 Q 829 678 812 693 Q 752 732 714 722 Q 569 686 201 628 Z" fill="lightgray" class="stroke step2"/>
    <path d="M 339 555 Q 335 468 221 386 Q 193 367 179 355 Q 169 342 184 344 Q 227 341 322 414 Q 380 474 410 499 Q 422 509 411 526 Q 375 569 352 569 Q 340 569 339 555 Z" fill="lightgray" class="stroke step2"/>
    <path d="M 580 533 Q 635 499 696 457 Q 711 447 727 449 Q 737 450 741 464 Q 744 480 731 508 Q 721 538 672 557 Q 623 572 569 581 Q 553 582 548 579 Q 544 575 546 562 Q 550 552 580 533 Z" fill="lightgray" class="hide"/>
    <path d="M 520 218 Q 557 270 580 332 Q 596 375 610 387 Q 620 399 613 410 Q 603 426 577 436 Q 558 449 538 446 Q 525 443 530 428 Q 552 371 480 253 L 458 223 Q 455 222 454 218 Q 408 164 347 130 Q 274 90 129 56 Q 110 49 131 45 Q 284 18 408 98 Q 459 131 495 182 L 520 218 Z" fill="lightgray" class="hide"/>
    <path d="M 495 182 Q 591 71 679 5 Q 716 -22 900 7 Q 942 14 938 24 Q 937 30 896 42 Q 671 91 569 178 Q 544 197 520 218 L 480 253 Q 446 284 412 320 Q 373 360 336 360 Q 317 361 314 355 Q 313 348 329 337 Q 371 315 458 223 L 495 182 Z" fill="lightgray" class="hide"/></g><g transform="scale(1, -1) translate(0, -900)">
    <style type="text/css">
        .origin {display:none;}
        .hide {display:none;}
        .stroke {fill: #000000;}
        
.step1 {transform: translateX(1024px);}
.step2 {transform: translateX(2048px);}
.step3 {transform: translateX(3072px);}
.step4 {transform: translateX(4096px);}
.step5 {transform: translateX(5120px);}
.step6 {transform: translateX(6144px);}
.step7 {transform: translateX(7168px);}
.step8 {transform: translateX(8192px);}
.step9 {transform: translateX(9216px);}
.step10 {transform: translateX(10240px);}
.step11 {transform: translateX(11264px);}
.step12 {transform: translateX(12288px);}
.step13 {transform: translateX(13312px);}
.step14 {transform: translateX(14336px);}
.step15 {transform: translateX(15360px);}
.step16 {transform: translateX(16384px);}
.step17 {transform: translateX(17408px);}
.step18 {transform: translateX(18432px);}
.step19 {transform: translateX(19456px);}
.step20 {transform: translateX(20480px);}
.step21 {transform: translateX(21504px);}
.step22 {transform: translateX(22528px);}
.step23 {transform: translateX(23552px);}
.step24 {transform: translateX(24576px);}
.step25 {transform: translateX(25600px);}
.step26 {transform: translateX(26624px);}
.step27 {transform: translateX(27648px);}
.step28 {transform: translateX(28672px);}
.step29 {transform: translateX(29696px);}
    </style>

    <path d="M 431 792 Q 483 744 526 727 Q 542 726 551 740 Q 555 755 551 772 Q 536 815 466 829 Q 424 838 413 833 Q 406 832 410 818 Q 413 805 431 792 Z" fill="lightgray" class="stroke step3"/>
    <path d="M 201 628 Q 179 625 195 607 Q 231 579 270 588 Q 492 654 795 655 Q 796 655 798 655 Q 820 656 825 665 Q 829 678 812 693 Q 752 732 714 722 Q 569 686 201 628 Z" fill="lightgray" class="stroke step3"/>
    <path d="M 339 555 Q 335 468 221 386 Q 193 367 179 355 Q 169 342 184 344 Q 227 341 322 414 Q 380 474 410 499 Q 422 509 411 526 Q 375 569 352 569 Q 340 569 339 555 Z" fill="lightgray" class="stroke step3"/>
    <path d="M 580 533 Q 635 499 696 457 Q 711 447 727 449 Q 737 450 741 464 Q 744 480 731 508 Q 721 538 672 557 Q 623 572 569 581 Q 553 582 548 579 Q 544 575 546 562 Q 550 552 580 533 Z" fill="lightgray" class="stroke step3"/>
    <path d="M 520 218 Q 557 270 580 332 Q 596 375 610 387 Q 620 399 613 410 Q 603 426 577 436 Q 558 449 538 446 Q 525 443 530 428 Q 552 371 480 253 L 458 223 Q 455 222 454 218 Q 408 164 347 130 Q 274 90 129 56 Q 110 49 131 45 Q 284 18 408 98 Q 459 131 495 182 L 520 218 Z" fill="lightgray" class="hide"/>
    <path d="M 495 182 Q 591 71 679 5 Q 716 -22 900 7 Q 942 14 938 24 Q 937 30 896 42 Q 671 91 569 178 Q 544 197 520 218 L 480 253 Q 446 284 412 320 Q 373 360 336 360 Q 317 361 314 355 Q 313 348 329 337 Q 371 315 458 223 L 495 182 Z" fill="lightgray" class="hide"/></g><g transform="scale(1, -1) translate(0, -900)">
    <style type="text/css">
        .origin {display:none;}
        .hide {display:none;}
        .stroke {fill: #000000;}
        
.step1 {transform: translateX(1024px);}
.step2 {transform: translateX(2048px);}
.step3 {transform: translateX(3072px);}
.step4 {transform: translateX(4096px);}
.step5 {transform: translateX(5120px);}
.step6 {transform: translateX(6144px);}
.step7 {transform: translateX(7168px);}
.step8 {transform: translateX(8192px);}
.step9 {transform: translateX(9216px);}
.step10 {transform: translateX(10240px);}
.step11 {transform: translateX(11264px);}
.step12 {transform: translateX(12288px);}
.step13 {transform: translateX(13312px);}
.step14 {transform: translateX(14336px);}
.step15 {transform: translateX(15360px);}
.step16 {transform: translateX(16384px);}
.step17 {transform: translateX(17408px);}
.step18 {transform: translateX(18432px);}
.step19 {transform: translateX(19456px);}
.step20 {transform: translateX(20480px);}
.step21 {transform: translateX(21504px);}
.step22 {transform: translateX(22528px);}
.step23 {transform: translateX(23552px);}
.step24 {transform: translateX(24576px);}
.step25 {transform: translateX(25600px);}
.step26 {transform: translateX(26624px);}
.step27 {transform: translateX(27648px);}
.step28 {transform: translateX(28672px);}
.step29 {transform: translateX(29696px);}
    </style>

    <path d="M 431 792 Q 483 744 526 727 Q 542 726 551 740 Q 555 755 551 772 Q 536 815 466 829 Q 424 838 413 833 Q 406 832 410 818 Q 413 805 431 792 Z" fill="lightgray" class="stroke step4"/>
    <path d="M 201 628 Q 179 625 195 607 Q 231 579 270 588 Q 492 654 795 655 Q 796 655 798 655 Q 820 656 825 665 Q 829 678 812 693 Q 752 732 714 722 Q 569 686 201 628 Z" fill="lightgray" class="stroke step4"/>
    <path d="M 339 555 Q 335 468 221 386 Q 193 367 179 355 Q 169 342 184 344 Q 227 341 322 414 Q 380 474 410 499 Q 422 509 411 526 Q 375 569 352 569 Q 340 569 339 555 Z" fill="lightgray" class="stroke step4"/>
    <path d="M 580 533 Q 635 499 696 457 Q 711 447 727 449 Q 737 450 741 464 Q 744 480 731 508 Q 721 538 672 557 Q 623 572 569 581 Q 553 582 548 579 Q 544 575 546 562 Q 550 552 580 533 Z" fill="lightgray" class="stroke step4"/>
    <path d="M 520 218 Q 557 270 580 332 Q 596 375 610 387 Q 620 399 613 410 Q 603 426 577 436 Q 558 449 538 446 Q 525 443 530 428 Q 552 371 480 253 L 458 223 Q 455 222 454 218 Q 408 164 347 130 Q 274 90 129 56 Q 110 49 131 45 Q 284 18 408 98 Q 459 131 495 182 L 520 218 Z" fill="lightgray" class="stroke step4"/>
    <path d="M 495 182 Q 591 71 679 5 Q 716 -22 900 7 Q 942 14 938 24 Q 937 30 896 42 Q 671 91 569 178 Q 544 197 520 218 L 480 253 Q 446 284 412 320 Q 373 360 336 360 Q 317 361 314 355 Q 313 348 329 337 Q 371 315 458 223 L 495 182 Z" fill="lightgray" class="hide"/></g><g transform="scale(1, -1) translate(0, -900)">
    <style type="text/css">
        .origin {display:none;}
        .hide {display:none;}
        .stroke {fill: #000000;}
        
.step1 {transform: translateX(1024px);}
.step2 {transform: translateX(2048px);}
.step3 {transform: translateX(3072px);}
.step4 {transform: translateX(4096px);}
.step5 {transform: translateX(5120px);}
.step6 {transform: translateX(6144px);}
.step7 {transform: translateX(7168px);}
.step8 {transform: translateX(8192px);}
.step9 {transform: translateX(9216px);}
.step10 {transform: translateX(10240px);}
.step11 {transform: translateX(11264px);}
.step12 {transform: translateX(12288px);}
.step13 {transform: translateX(13312px);}
.step14 {transform: translateX(14336px);}
.step15 {transform: translateX(15360px);}
.step16 {transform: translateX(16384px);}
.step17 {transform: translateX(17408px);}
.step18 {transform: translateX(18432px);}
.step19 {transform: translateX(19456px);}
.step20 {transform: translateX(20480px);}
.step21 {transform: translateX(21504px);}
.step22 {transform: translateX(22528px);}
.step23 {transform: translateX(23552px);}
.step24 {transform: translateX(24576px);}
.step25 {transform: translateX(25600px);}
.step26 {transform: translateX(26624px);}
.step27 {transform: translateX(27648px);}
.step28 {transform: translateX(28672px);}
.step29 {transform: translateX(29696px);}
    </style>

    <path d="M 431 792 Q 483 744 526 727 Q 542 726 551 740 Q 555 755 551 772 Q 536 815 466 829 Q 424 838 413 833 Q 406 832 410 818 Q 413 805 431 792 Z" fill="lightgray" class="stroke step5"/>
    <path d="M 201 628 Q 179 625 195 607 Q 231 579 270 588 Q 492 654 795 655 Q 796 655 798 655 Q 820 656 825 665 Q 829 678 812 693 Q 752 732 714 722 Q 569 686 201 628 Z" fill="lightgray" class="stroke step5"/>
    <path d="M 339 555 Q 335 468 221 386 Q 193 367 179 355 Q 169 342 184 344 Q 227 341 322 414 Q 380 474 410 499 Q 422 509 411 526 Q 375 569 352 569 Q 340 569 339 555 Z" fill="lightgray" class="stroke step5"/>
    <path d="M 580 533 Q 635 499 696 457 Q 711 447 727 449 Q 737 450 741 464 Q 744 480 731 508 Q 721 538 672 557 Q 623 572 569 581 Q 553 582 548 579 Q 544 575 546 562 Q 550 552 580 533 Z" fill="lightgray" class="stroke step5"/>
    <path d="M 520 218 Q 557 270 580 332 Q 596 375 610 387 Q 620 399 613 410 Q 603 426 577 436 Q 558 449 538 446 Q 525 443 530 428 Q 552 371 480 253 L 458 223 Q 455 222 454 218 Q 408 164 347 130 Q 274 90 129 56 Q 110 49 131 45 Q 284 18 408 98 Q 459 131 495 182 L 520 218 Z" fill="lightgray" class="stroke step5"/>
    <path d="M 495 182 Q 591 71 679 5 Q 716 -22 900 7 Q 942 14 938 24 Q 937 30 896 42 Q 671 91 569 178 Q 544 197 520 218 L 480 253 Q 446 284 412 320 Q 373 360 336 360 Q 317 361 314 355 Q 313 348 329 337 Q 371 315 458 223 L 495 182 Z" fill="lightgray" class="stroke step5"/></g></svg>