<svg version="1.1" viewBox="0 0 6144 1024" xmlns="http://www.w3.org/2000/svg">
  
  <g transform="scale(1, -1) translate(0, -900)" class="origin">
    <style type="text/css">
        .origin {display:none;}
        .hide {display:none;}
        .stroke {fill: #000000;}
        
.step1 {transform: translateX(1024px);}
.step2 {transform: translateX(2048px);}
.step3 {transform: translateX(3072px);}
.step4 {transform: translateX(4096px);}
.step5 {transform: translateX(5120px);}
.step6 {transform: translateX(6144px);}
.step7 {transform: translateX(7168px);}
.step8 {transform: translateX(8192px);}
.step9 {transform: translateX(9216px);}
.step10 {transform: translateX(10240px);}
.step11 {transform: translateX(11264px);}
.step12 {transform: translateX(12288px);}
.step13 {transform: translateX(13312px);}
.step14 {transform: translateX(14336px);}
.step15 {transform: translateX(15360px);}
.step16 {transform: translateX(16384px);}
.step17 {transform: translateX(17408px);}
.step18 {transform: translateX(18432px);}
.step19 {transform: translateX(19456px);}
.step20 {transform: translateX(20480px);}
.step21 {transform: translateX(21504px);}
.step22 {transform: translateX(22528px);}
.step23 {transform: translateX(23552px);}
.step24 {transform: translateX(24576px);}
.step25 {transform: translateX(25600px);}
.step26 {transform: translateX(26624px);}
.step27 {transform: translateX(27648px);}
.step28 {transform: translateX(28672px);}
.step29 {transform: translateX(29696px);}
    </style>

    <path d="M 470 784 Q 498 763 527 738 Q 543 725 561 728 Q 571 729 576 744 Q 580 760 568 793 Q 561 812 527 823 Q 449 845 436 835 Q 430 831 433 817 Q 439 805 470 784 Z" fill="lightgray"/>
    <path d="M 648 654 Q 666 658 688 660 Q 755 672 765 680 Q 775 689 771 698 Q 764 713 731 723 Q 704 730 591 702 Q 435 669 310 665 Q 268 661 297 640 Q 342 607 406 620 Q 502 633 601 647 L 648 654 Z" fill="lightgray"/>
    <path d="M 367 578 Q 409 496 431 489 Q 444 485 456 502 Q 460 515 456 539 Q 449 558 427 572 Q 393 599 378 605 Q 368 609 365 597 Q 361 590 367 578 Z" fill="lightgray"/>
    <path d="M 597 483 Q 598 487 602 491 Q 623 522 644 563 Q 653 581 670 603 Q 685 615 676 626 Q 669 639 648 654 C 624 672 596 677 601 647 Q 610 611 564 492 Q 560 485 558 476 C 550 447 583 457 597 483 Z" fill="lightgray"/>
    <path d="M 311 398 Q 320 397 332 400 Q 575 442 785 456 Q 797 455 807 467 Q 808 480 785 493 Q 746 517 671 498 Q 634 491 597 483 L 558 476 Q 477 464 292 448 C 262 445 281 396 311 398 Z" fill="lightgray"/>
    <path d="M 292 448 Q 253 469 240 466 Q 221 463 235 441 Q 263 387 237 223 Q 227 178 204 125 Q 180 70 109 7 Q 94 -6 91 -12 Q 88 -19 100 -19 Q 137 -19 198 40 Q 288 133 308 382 Q 309 391 311 398 C 316 428 318 435 292 448 Z" fill="lightgray"/></g>
<g transform="scale(1, -1) translate(0, -900)">
    <style type="text/css">
        .origin {display:none;}
        .hide {display:none;}
        .stroke {fill: #000000;}
        
.step1 {transform: translateX(1024px);}
.step2 {transform: translateX(2048px);}
.step3 {transform: translateX(3072px);}
.step4 {transform: translateX(4096px);}
.step5 {transform: translateX(5120px);}
.step6 {transform: translateX(6144px);}
.step7 {transform: translateX(7168px);}
.step8 {transform: translateX(8192px);}
.step9 {transform: translateX(9216px);}
.step10 {transform: translateX(10240px);}
.step11 {transform: translateX(11264px);}
.step12 {transform: translateX(12288px);}
.step13 {transform: translateX(13312px);}
.step14 {transform: translateX(14336px);}
.step15 {transform: translateX(15360px);}
.step16 {transform: translateX(16384px);}
.step17 {transform: translateX(17408px);}
.step18 {transform: translateX(18432px);}
.step19 {transform: translateX(19456px);}
.step20 {transform: translateX(20480px);}
.step21 {transform: translateX(21504px);}
.step22 {transform: translateX(22528px);}
.step23 {transform: translateX(23552px);}
.step24 {transform: translateX(24576px);}
.step25 {transform: translateX(25600px);}
.step26 {transform: translateX(26624px);}
.step27 {transform: translateX(27648px);}
.step28 {transform: translateX(28672px);}
.step29 {transform: translateX(29696px);}
    </style>

    <path d="M 470 784 Q 498 763 527 738 Q 543 725 561 728 Q 571 729 576 744 Q 580 760 568 793 Q 561 812 527 823 Q 449 845 436 835 Q 430 831 433 817 Q 439 805 470 784 Z" fill="lightgray" class="stroke step0"/>
    <path d="M 648 654 Q 666 658 688 660 Q 755 672 765 680 Q 775 689 771 698 Q 764 713 731 723 Q 704 730 591 702 Q 435 669 310 665 Q 268 661 297 640 Q 342 607 406 620 Q 502 633 601 647 L 648 654 Z" fill="lightgray" class="hide"/>
    <path d="M 367 578 Q 409 496 431 489 Q 444 485 456 502 Q 460 515 456 539 Q 449 558 427 572 Q 393 599 378 605 Q 368 609 365 597 Q 361 590 367 578 Z" fill="lightgray" class="hide"/>
    <path d="M 597 483 Q 598 487 602 491 Q 623 522 644 563 Q 653 581 670 603 Q 685 615 676 626 Q 669 639 648 654 C 624 672 596 677 601 647 Q 610 611 564 492 Q 560 485 558 476 C 550 447 583 457 597 483 Z" fill="lightgray" class="hide"/>
    <path d="M 311 398 Q 320 397 332 400 Q 575 442 785 456 Q 797 455 807 467 Q 808 480 785 493 Q 746 517 671 498 Q 634 491 597 483 L 558 476 Q 477 464 292 448 C 262 445 281 396 311 398 Z" fill="lightgray" class="hide"/>
    <path d="M 292 448 Q 253 469 240 466 Q 221 463 235 441 Q 263 387 237 223 Q 227 178 204 125 Q 180 70 109 7 Q 94 -6 91 -12 Q 88 -19 100 -19 Q 137 -19 198 40 Q 288 133 308 382 Q 309 391 311 398 C 316 428 318 435 292 448 Z" fill="lightgray" class="hide"/></g><g transform="scale(1, -1) translate(0, -900)">
    <style type="text/css">
        .origin {display:none;}
        .hide {display:none;}
        .stroke {fill: #000000;}
        
.step1 {transform: translateX(1024px);}
.step2 {transform: translateX(2048px);}
.step3 {transform: translateX(3072px);}
.step4 {transform: translateX(4096px);}
.step5 {transform: translateX(5120px);}
.step6 {transform: translateX(6144px);}
.step7 {transform: translateX(7168px);}
.step8 {transform: translateX(8192px);}
.step9 {transform: translateX(9216px);}
.step10 {transform: translateX(10240px);}
.step11 {transform: translateX(11264px);}
.step12 {transform: translateX(12288px);}
.step13 {transform: translateX(13312px);}
.step14 {transform: translateX(14336px);}
.step15 {transform: translateX(15360px);}
.step16 {transform: translateX(16384px);}
.step17 {transform: translateX(17408px);}
.step18 {transform: translateX(18432px);}
.step19 {transform: translateX(19456px);}
.step20 {transform: translateX(20480px);}
.step21 {transform: translateX(21504px);}
.step22 {transform: translateX(22528px);}
.step23 {transform: translateX(23552px);}
.step24 {transform: translateX(24576px);}
.step25 {transform: translateX(25600px);}
.step26 {transform: translateX(26624px);}
.step27 {transform: translateX(27648px);}
.step28 {transform: translateX(28672px);}
.step29 {transform: translateX(29696px);}
    </style>

    <path d="M 470 784 Q 498 763 527 738 Q 543 725 561 728 Q 571 729 576 744 Q 580 760 568 793 Q 561 812 527 823 Q 449 845 436 835 Q 430 831 433 817 Q 439 805 470 784 Z" fill="lightgray" class="stroke step1"/>
    <path d="M 648 654 Q 666 658 688 660 Q 755 672 765 680 Q 775 689 771 698 Q 764 713 731 723 Q 704 730 591 702 Q 435 669 310 665 Q 268 661 297 640 Q 342 607 406 620 Q 502 633 601 647 L 648 654 Z" fill="lightgray" class="stroke step1"/>
    <path d="M 367 578 Q 409 496 431 489 Q 444 485 456 502 Q 460 515 456 539 Q 449 558 427 572 Q 393 599 378 605 Q 368 609 365 597 Q 361 590 367 578 Z" fill="lightgray" class="hide"/>
    <path d="M 597 483 Q 598 487 602 491 Q 623 522 644 563 Q 653 581 670 603 Q 685 615 676 626 Q 669 639 648 654 C 624 672 596 677 601 647 Q 610 611 564 492 Q 560 485 558 476 C 550 447 583 457 597 483 Z" fill="lightgray" class="hide"/>
    <path d="M 311 398 Q 320 397 332 400 Q 575 442 785 456 Q 797 455 807 467 Q 808 480 785 493 Q 746 517 671 498 Q 634 491 597 483 L 558 476 Q 477 464 292 448 C 262 445 281 396 311 398 Z" fill="lightgray" class="hide"/>
    <path d="M 292 448 Q 253 469 240 466 Q 221 463 235 441 Q 263 387 237 223 Q 227 178 204 125 Q 180 70 109 7 Q 94 -6 91 -12 Q 88 -19 100 -19 Q 137 -19 198 40 Q 288 133 308 382 Q 309 391 311 398 C 316 428 318 435 292 448 Z" fill="lightgray" class="hide"/></g><g transform="scale(1, -1) translate(0, -900)">
    <style type="text/css">
        .origin {display:none;}
        .hide {display:none;}
        .stroke {fill: #000000;}
        
.step1 {transform: translateX(1024px);}
.step2 {transform: translateX(2048px);}
.step3 {transform: translateX(3072px);}
.step4 {transform: translateX(4096px);}
.step5 {transform: translateX(5120px);}
.step6 {transform: translateX(6144px);}
.step7 {transform: translateX(7168px);}
.step8 {transform: translateX(8192px);}
.step9 {transform: translateX(9216px);}
.step10 {transform: translateX(10240px);}
.step11 {transform: translateX(11264px);}
.step12 {transform: translateX(12288px);}
.step13 {transform: translateX(13312px);}
.step14 {transform: translateX(14336px);}
.step15 {transform: translateX(15360px);}
.step16 {transform: translateX(16384px);}
.step17 {transform: translateX(17408px);}
.step18 {transform: translateX(18432px);}
.step19 {transform: translateX(19456px);}
.step20 {transform: translateX(20480px);}
.step21 {transform: translateX(21504px);}
.step22 {transform: translateX(22528px);}
.step23 {transform: translateX(23552px);}
.step24 {transform: translateX(24576px);}
.step25 {transform: translateX(25600px);}
.step26 {transform: translateX(26624px);}
.step27 {transform: translateX(27648px);}
.step28 {transform: translateX(28672px);}
.step29 {transform: translateX(29696px);}
    </style>

    <path d="M 470 784 Q 498 763 527 738 Q 543 725 561 728 Q 571 729 576 744 Q 580 760 568 793 Q 561 812 527 823 Q 449 845 436 835 Q 430 831 433 817 Q 439 805 470 784 Z" fill="lightgray" class="stroke step2"/>
    <path d="M 648 654 Q 666 658 688 660 Q 755 672 765 680 Q 775 689 771 698 Q 764 713 731 723 Q 704 730 591 702 Q 435 669 310 665 Q 268 661 297 640 Q 342 607 406 620 Q 502 633 601 647 L 648 654 Z" fill="lightgray" class="stroke step2"/>
    <path d="M 367 578 Q 409 496 431 489 Q 444 485 456 502 Q 460 515 456 539 Q 449 558 427 572 Q 393 599 378 605 Q 368 609 365 597 Q 361 590 367 578 Z" fill="lightgray" class="stroke step2"/>
    <path d="M 597 483 Q 598 487 602 491 Q 623 522 644 563 Q 653 581 670 603 Q 685 615 676 626 Q 669 639 648 654 C 624 672 596 677 601 647 Q 610 611 564 492 Q 560 485 558 476 C 550 447 583 457 597 483 Z" fill="lightgray" class="hide"/>
    <path d="M 311 398 Q 320 397 332 400 Q 575 442 785 456 Q 797 455 807 467 Q 808 480 785 493 Q 746 517 671 498 Q 634 491 597 483 L 558 476 Q 477 464 292 448 C 262 445 281 396 311 398 Z" fill="lightgray" class="hide"/>
    <path d="M 292 448 Q 253 469 240 466 Q 221 463 235 441 Q 263 387 237 223 Q 227 178 204 125 Q 180 70 109 7 Q 94 -6 91 -12 Q 88 -19 100 -19 Q 137 -19 198 40 Q 288 133 308 382 Q 309 391 311 398 C 316 428 318 435 292 448 Z" fill="lightgray" class="hide"/></g><g transform="scale(1, -1) translate(0, -900)">
    <style type="text/css">
        .origin {display:none;}
        .hide {display:none;}
        .stroke {fill: #000000;}
        
.step1 {transform: translateX(1024px);}
.step2 {transform: translateX(2048px);}
.step3 {transform: translateX(3072px);}
.step4 {transform: translateX(4096px);}
.step5 {transform: translateX(5120px);}
.step6 {transform: translateX(6144px);}
.step7 {transform: translateX(7168px);}
.step8 {transform: translateX(8192px);}
.step9 {transform: translateX(9216px);}
.step10 {transform: translateX(10240px);}
.step11 {transform: translateX(11264px);}
.step12 {transform: translateX(12288px);}
.step13 {transform: translateX(13312px);}
.step14 {transform: translateX(14336px);}
.step15 {transform: translateX(15360px);}
.step16 {transform: translateX(16384px);}
.step17 {transform: translateX(17408px);}
.step18 {transform: translateX(18432px);}
.step19 {transform: translateX(19456px);}
.step20 {transform: translateX(20480px);}
.step21 {transform: translateX(21504px);}
.step22 {transform: translateX(22528px);}
.step23 {transform: translateX(23552px);}
.step24 {transform: translateX(24576px);}
.step25 {transform: translateX(25600px);}
.step26 {transform: translateX(26624px);}
.step27 {transform: translateX(27648px);}
.step28 {transform: translateX(28672px);}
.step29 {transform: translateX(29696px);}
    </style>

    <path d="M 470 784 Q 498 763 527 738 Q 543 725 561 728 Q 571 729 576 744 Q 580 760 568 793 Q 561 812 527 823 Q 449 845 436 835 Q 430 831 433 817 Q 439 805 470 784 Z" fill="lightgray" class="stroke step3"/>
    <path d="M 648 654 Q 666 658 688 660 Q 755 672 765 680 Q 775 689 771 698 Q 764 713 731 723 Q 704 730 591 702 Q 435 669 310 665 Q 268 661 297 640 Q 342 607 406 620 Q 502 633 601 647 L 648 654 Z" fill="lightgray" class="stroke step3"/>
    <path d="M 367 578 Q 409 496 431 489 Q 444 485 456 502 Q 460 515 456 539 Q 449 558 427 572 Q 393 599 378 605 Q 368 609 365 597 Q 361 590 367 578 Z" fill="lightgray" class="stroke step3"/>
    <path d="M 597 483 Q 598 487 602 491 Q 623 522 644 563 Q 653 581 670 603 Q 685 615 676 626 Q 669 639 648 654 C 624 672 596 677 601 647 Q 610 611 564 492 Q 560 485 558 476 C 550 447 583 457 597 483 Z" fill="lightgray" class="stroke step3"/>
    <path d="M 311 398 Q 320 397 332 400 Q 575 442 785 456 Q 797 455 807 467 Q 808 480 785 493 Q 746 517 671 498 Q 634 491 597 483 L 558 476 Q 477 464 292 448 C 262 445 281 396 311 398 Z" fill="lightgray" class="hide"/>
    <path d="M 292 448 Q 253 469 240 466 Q 221 463 235 441 Q 263 387 237 223 Q 227 178 204 125 Q 180 70 109 7 Q 94 -6 91 -12 Q 88 -19 100 -19 Q 137 -19 198 40 Q 288 133 308 382 Q 309 391 311 398 C 316 428 318 435 292 448 Z" fill="lightgray" class="hide"/></g><g transform="scale(1, -1) translate(0, -900)">
    <style type="text/css">
        .origin {display:none;}
        .hide {display:none;}
        .stroke {fill: #000000;}
        
.step1 {transform: translateX(1024px);}
.step2 {transform: translateX(2048px);}
.step3 {transform: translateX(3072px);}
.step4 {transform: translateX(4096px);}
.step5 {transform: translateX(5120px);}
.step6 {transform: translateX(6144px);}
.step7 {transform: translateX(7168px);}
.step8 {transform: translateX(8192px);}
.step9 {transform: translateX(9216px);}
.step10 {transform: translateX(10240px);}
.step11 {transform: translateX(11264px);}
.step12 {transform: translateX(12288px);}
.step13 {transform: translateX(13312px);}
.step14 {transform: translateX(14336px);}
.step15 {transform: translateX(15360px);}
.step16 {transform: translateX(16384px);}
.step17 {transform: translateX(17408px);}
.step18 {transform: translateX(18432px);}
.step19 {transform: translateX(19456px);}
.step20 {transform: translateX(20480px);}
.step21 {transform: translateX(21504px);}
.step22 {transform: translateX(22528px);}
.step23 {transform: translateX(23552px);}
.step24 {transform: translateX(24576px);}
.step25 {transform: translateX(25600px);}
.step26 {transform: translateX(26624px);}
.step27 {transform: translateX(27648px);}
.step28 {transform: translateX(28672px);}
.step29 {transform: translateX(29696px);}
    </style>

    <path d="M 470 784 Q 498 763 527 738 Q 543 725 561 728 Q 571 729 576 744 Q 580 760 568 793 Q 561 812 527 823 Q 449 845 436 835 Q 430 831 433 817 Q 439 805 470 784 Z" fill="lightgray" class="stroke step4"/>
    <path d="M 648 654 Q 666 658 688 660 Q 755 672 765 680 Q 775 689 771 698 Q 764 713 731 723 Q 704 730 591 702 Q 435 669 310 665 Q 268 661 297 640 Q 342 607 406 620 Q 502 633 601 647 L 648 654 Z" fill="lightgray" class="stroke step4"/>
    <path d="M 367 578 Q 409 496 431 489 Q 444 485 456 502 Q 460 515 456 539 Q 449 558 427 572 Q 393 599 378 605 Q 368 609 365 597 Q 361 590 367 578 Z" fill="lightgray" class="stroke step4"/>
    <path d="M 597 483 Q 598 487 602 491 Q 623 522 644 563 Q 653 581 670 603 Q 685 615 676 626 Q 669 639 648 654 C 624 672 596 677 601 647 Q 610 611 564 492 Q 560 485 558 476 C 550 447 583 457 597 483 Z" fill="lightgray" class="stroke step4"/>
    <path d="M 311 398 Q 320 397 332 400 Q 575 442 785 456 Q 797 455 807 467 Q 808 480 785 493 Q 746 517 671 498 Q 634 491 597 483 L 558 476 Q 477 464 292 448 C 262 445 281 396 311 398 Z" fill="lightgray" class="stroke step4"/>
    <path d="M 292 448 Q 253 469 240 466 Q 221 463 235 441 Q 263 387 237 223 Q 227 178 204 125 Q 180 70 109 7 Q 94 -6 91 -12 Q 88 -19 100 -19 Q 137 -19 198 40 Q 288 133 308 382 Q 309 391 311 398 C 316 428 318 435 292 448 Z" fill="lightgray" class="hide"/></g><g transform="scale(1, -1) translate(0, -900)">
    <style type="text/css">
        .origin {display:none;}
        .hide {display:none;}
        .stroke {fill: #000000;}
        
.step1 {transform: translateX(1024px);}
.step2 {transform: translateX(2048px);}
.step3 {transform: translateX(3072px);}
.step4 {transform: translateX(4096px);}
.step5 {transform: translateX(5120px);}
.step6 {transform: translateX(6144px);}
.step7 {transform: translateX(7168px);}
.step8 {transform: translateX(8192px);}
.step9 {transform: translateX(9216px);}
.step10 {transform: translateX(10240px);}
.step11 {transform: translateX(11264px);}
.step12 {transform: translateX(12288px);}
.step13 {transform: translateX(13312px);}
.step14 {transform: translateX(14336px);}
.step15 {transform: translateX(15360px);}
.step16 {transform: translateX(16384px);}
.step17 {transform: translateX(17408px);}
.step18 {transform: translateX(18432px);}
.step19 {transform: translateX(19456px);}
.step20 {transform: translateX(20480px);}
.step21 {transform: translateX(21504px);}
.step22 {transform: translateX(22528px);}
.step23 {transform: translateX(23552px);}
.step24 {transform: translateX(24576px);}
.step25 {transform: translateX(25600px);}
.step26 {transform: translateX(26624px);}
.step27 {transform: translateX(27648px);}
.step28 {transform: translateX(28672px);}
.step29 {transform: translateX(29696px);}
    </style>

    <path d="M 470 784 Q 498 763 527 738 Q 543 725 561 728 Q 571 729 576 744 Q 580 760 568 793 Q 561 812 527 823 Q 449 845 436 835 Q 430 831 433 817 Q 439 805 470 784 Z" fill="lightgray" class="stroke step5"/>
    <path d="M 648 654 Q 666 658 688 660 Q 755 672 765 680 Q 775 689 771 698 Q 764 713 731 723 Q 704 730 591 702 Q 435 669 310 665 Q 268 661 297 640 Q 342 607 406 620 Q 502 633 601 647 L 648 654 Z" fill="lightgray" class="stroke step5"/>
    <path d="M 367 578 Q 409 496 431 489 Q 444 485 456 502 Q 460 515 456 539 Q 449 558 427 572 Q 393 599 378 605 Q 368 609 365 597 Q 361 590 367 578 Z" fill="lightgray" class="stroke step5"/>
    <path d="M 597 483 Q 598 487 602 491 Q 623 522 644 563 Q 653 581 670 603 Q 685 615 676 626 Q 669 639 648 654 C 624 672 596 677 601 647 Q 610 611 564 492 Q 560 485 558 476 C 550 447 583 457 597 483 Z" fill="lightgray" class="stroke step5"/>
    <path d="M 311 398 Q 320 397 332 400 Q 575 442 785 456 Q 797 455 807 467 Q 808 480 785 493 Q 746 517 671 498 Q 634 491 597 483 L 558 476 Q 477 464 292 448 C 262 445 281 396 311 398 Z" fill="lightgray" class="stroke step5"/>
    <path d="M 292 448 Q 253 469 240 466 Q 221 463 235 441 Q 263 387 237 223 Q 227 178 204 125 Q 180 70 109 7 Q 94 -6 91 -12 Q 88 -19 100 -19 Q 137 -19 198 40 Q 288 133 308 382 Q 309 391 311 398 C 316 428 318 435 292 448 Z" fill="lightgray" class="stroke step5"/></g></svg>