<svg version="1.1" viewBox="0 0 3072 1024" xmlns="http://www.w3.org/2000/svg">
  
  <g transform="scale(1, -1) translate(0, -900)" class="origin">
    <style type="text/css">
        .origin {display:none;}
        .hide {display:none;}
        .stroke {fill: #000000;}
        
.step1 {transform: translateX(1024px);}
.step2 {transform: translateX(2048px);}
.step3 {transform: translateX(3072px);}
.step4 {transform: translateX(4096px);}
.step5 {transform: translateX(5120px);}
.step6 {transform: translateX(6144px);}
.step7 {transform: translateX(7168px);}
.step8 {transform: translateX(8192px);}
.step9 {transform: translateX(9216px);}
.step10 {transform: translateX(10240px);}
.step11 {transform: translateX(11264px);}
.step12 {transform: translateX(12288px);}
.step13 {transform: translateX(13312px);}
.step14 {transform: translateX(14336px);}
.step15 {transform: translateX(15360px);}
.step16 {transform: translateX(16384px);}
.step17 {transform: translateX(17408px);}
.step18 {transform: translateX(18432px);}
.step19 {transform: translateX(19456px);}
.step20 {transform: translateX(20480px);}
.step21 {transform: translateX(21504px);}
.step22 {transform: translateX(22528px);}
.step23 {transform: translateX(23552px);}
.step24 {transform: translateX(24576px);}
.step25 {transform: translateX(25600px);}
.step26 {transform: translateX(26624px);}
.step27 {transform: translateX(27648px);}
.step28 {transform: translateX(28672px);}
.step29 {transform: translateX(29696px);}
    </style>

    <path d="M 529 709 Q 537 721 544 731 Q 551 741 566 756 Q 576 763 574 774 Q 574 776 573 777 Q 570 797 537 816 Q 502 837 482 832 Q 472 831 474 815 Q 480 771 453 702 Q 409 586 304 467 Q 297 462 282 446 Q 227 388 83 274 Q 73 269 85 265 Q 171 274 314 406 Q 324 417 337 430 Q 423 523 514 686 L 529 709 Z" fill="lightgray"/>
    <path d="M 514 686 L 517 680 L 688 449 Q 749 368 772 361 Q 847 342 966 355 Q 986 356 990 361 Q 996 368 976 378 Q 772 469 745 488 Q 711 519 647 588 Q 550 690 529 709 C 507 730 498 711 514 686 Z" fill="lightgray"/>
    <path d="M 323 90 Q 370 100 457 109 L 619 122 Q 745 131 880 116 Q 910 112 913 126 Q 915 137 907 147 Q 838 214 780 195 L 779 195 L 492 162 Q 166 138 170 139 L 157 139 Q 141 140 141 127 Q 141 114 159 98 Q 178 85 210 73 Q 216 71 223 73 Q 290 86 323 90 Z" fill="lightgray"/></g>
<g transform="scale(1, -1) translate(0, -900)">
    <style type="text/css">
        .origin {display:none;}
        .hide {display:none;}
        .stroke {fill: #000000;}
        
.step1 {transform: translateX(1024px);}
.step2 {transform: translateX(2048px);}
.step3 {transform: translateX(3072px);}
.step4 {transform: translateX(4096px);}
.step5 {transform: translateX(5120px);}
.step6 {transform: translateX(6144px);}
.step7 {transform: translateX(7168px);}
.step8 {transform: translateX(8192px);}
.step9 {transform: translateX(9216px);}
.step10 {transform: translateX(10240px);}
.step11 {transform: translateX(11264px);}
.step12 {transform: translateX(12288px);}
.step13 {transform: translateX(13312px);}
.step14 {transform: translateX(14336px);}
.step15 {transform: translateX(15360px);}
.step16 {transform: translateX(16384px);}
.step17 {transform: translateX(17408px);}
.step18 {transform: translateX(18432px);}
.step19 {transform: translateX(19456px);}
.step20 {transform: translateX(20480px);}
.step21 {transform: translateX(21504px);}
.step22 {transform: translateX(22528px);}
.step23 {transform: translateX(23552px);}
.step24 {transform: translateX(24576px);}
.step25 {transform: translateX(25600px);}
.step26 {transform: translateX(26624px);}
.step27 {transform: translateX(27648px);}
.step28 {transform: translateX(28672px);}
.step29 {transform: translateX(29696px);}
    </style>

    <path d="M 529 709 Q 537 721 544 731 Q 551 741 566 756 Q 576 763 574 774 Q 574 776 573 777 Q 570 797 537 816 Q 502 837 482 832 Q 472 831 474 815 Q 480 771 453 702 Q 409 586 304 467 Q 297 462 282 446 Q 227 388 83 274 Q 73 269 85 265 Q 171 274 314 406 Q 324 417 337 430 Q 423 523 514 686 L 529 709 Z" fill="lightgray" class="stroke step0"/>
    <path d="M 514 686 L 517 680 L 688 449 Q 749 368 772 361 Q 847 342 966 355 Q 986 356 990 361 Q 996 368 976 378 Q 772 469 745 488 Q 711 519 647 588 Q 550 690 529 709 C 507 730 498 711 514 686 Z" fill="lightgray" class="hide"/>
    <path d="M 323 90 Q 370 100 457 109 L 619 122 Q 745 131 880 116 Q 910 112 913 126 Q 915 137 907 147 Q 838 214 780 195 L 779 195 L 492 162 Q 166 138 170 139 L 157 139 Q 141 140 141 127 Q 141 114 159 98 Q 178 85 210 73 Q 216 71 223 73 Q 290 86 323 90 Z" fill="lightgray" class="hide"/></g><g transform="scale(1, -1) translate(0, -900)">
    <style type="text/css">
        .origin {display:none;}
        .hide {display:none;}
        .stroke {fill: #000000;}
        
.step1 {transform: translateX(1024px);}
.step2 {transform: translateX(2048px);}
.step3 {transform: translateX(3072px);}
.step4 {transform: translateX(4096px);}
.step5 {transform: translateX(5120px);}
.step6 {transform: translateX(6144px);}
.step7 {transform: translateX(7168px);}
.step8 {transform: translateX(8192px);}
.step9 {transform: translateX(9216px);}
.step10 {transform: translateX(10240px);}
.step11 {transform: translateX(11264px);}
.step12 {transform: translateX(12288px);}
.step13 {transform: translateX(13312px);}
.step14 {transform: translateX(14336px);}
.step15 {transform: translateX(15360px);}
.step16 {transform: translateX(16384px);}
.step17 {transform: translateX(17408px);}
.step18 {transform: translateX(18432px);}
.step19 {transform: translateX(19456px);}
.step20 {transform: translateX(20480px);}
.step21 {transform: translateX(21504px);}
.step22 {transform: translateX(22528px);}
.step23 {transform: translateX(23552px);}
.step24 {transform: translateX(24576px);}
.step25 {transform: translateX(25600px);}
.step26 {transform: translateX(26624px);}
.step27 {transform: translateX(27648px);}
.step28 {transform: translateX(28672px);}
.step29 {transform: translateX(29696px);}
    </style>

    <path d="M 529 709 Q 537 721 544 731 Q 551 741 566 756 Q 576 763 574 774 Q 574 776 573 777 Q 570 797 537 816 Q 502 837 482 832 Q 472 831 474 815 Q 480 771 453 702 Q 409 586 304 467 Q 297 462 282 446 Q 227 388 83 274 Q 73 269 85 265 Q 171 274 314 406 Q 324 417 337 430 Q 423 523 514 686 L 529 709 Z" fill="lightgray" class="stroke step1"/>
    <path d="M 514 686 L 517 680 L 688 449 Q 749 368 772 361 Q 847 342 966 355 Q 986 356 990 361 Q 996 368 976 378 Q 772 469 745 488 Q 711 519 647 588 Q 550 690 529 709 C 507 730 498 711 514 686 Z" fill="lightgray" class="stroke step1"/>
    <path d="M 323 90 Q 370 100 457 109 L 619 122 Q 745 131 880 116 Q 910 112 913 126 Q 915 137 907 147 Q 838 214 780 195 L 779 195 L 492 162 Q 166 138 170 139 L 157 139 Q 141 140 141 127 Q 141 114 159 98 Q 178 85 210 73 Q 216 71 223 73 Q 290 86 323 90 Z" fill="lightgray" class="hide"/></g><g transform="scale(1, -1) translate(0, -900)">
    <style type="text/css">
        .origin {display:none;}
        .hide {display:none;}
        .stroke {fill: #000000;}
        
.step1 {transform: translateX(1024px);}
.step2 {transform: translateX(2048px);}
.step3 {transform: translateX(3072px);}
.step4 {transform: translateX(4096px);}
.step5 {transform: translateX(5120px);}
.step6 {transform: translateX(6144px);}
.step7 {transform: translateX(7168px);}
.step8 {transform: translateX(8192px);}
.step9 {transform: translateX(9216px);}
.step10 {transform: translateX(10240px);}
.step11 {transform: translateX(11264px);}
.step12 {transform: translateX(12288px);}
.step13 {transform: translateX(13312px);}
.step14 {transform: translateX(14336px);}
.step15 {transform: translateX(15360px);}
.step16 {transform: translateX(16384px);}
.step17 {transform: translateX(17408px);}
.step18 {transform: translateX(18432px);}
.step19 {transform: translateX(19456px);}
.step20 {transform: translateX(20480px);}
.step21 {transform: translateX(21504px);}
.step22 {transform: translateX(22528px);}
.step23 {transform: translateX(23552px);}
.step24 {transform: translateX(24576px);}
.step25 {transform: translateX(25600px);}
.step26 {transform: translateX(26624px);}
.step27 {transform: translateX(27648px);}
.step28 {transform: translateX(28672px);}
.step29 {transform: translateX(29696px);}
    </style>

    <path d="M 529 709 Q 537 721 544 731 Q 551 741 566 756 Q 576 763 574 774 Q 574 776 573 777 Q 570 797 537 816 Q 502 837 482 832 Q 472 831 474 815 Q 480 771 453 702 Q 409 586 304 467 Q 297 462 282 446 Q 227 388 83 274 Q 73 269 85 265 Q 171 274 314 406 Q 324 417 337 430 Q 423 523 514 686 L 529 709 Z" fill="lightgray" class="stroke step2"/>
    <path d="M 514 686 L 517 680 L 688 449 Q 749 368 772 361 Q 847 342 966 355 Q 986 356 990 361 Q 996 368 976 378 Q 772 469 745 488 Q 711 519 647 588 Q 550 690 529 709 C 507 730 498 711 514 686 Z" fill="lightgray" class="stroke step2"/>
    <path d="M 323 90 Q 370 100 457 109 L 619 122 Q 745 131 880 116 Q 910 112 913 126 Q 915 137 907 147 Q 838 214 780 195 L 779 195 L 492 162 Q 166 138 170 139 L 157 139 Q 141 140 141 127 Q 141 114 159 98 Q 178 85 210 73 Q 216 71 223 73 Q 290 86 323 90 Z" fill="lightgray" class="stroke step2"/></g></svg>