<svg version="1.1" viewBox="0 0 4096 1024" xmlns="http://www.w3.org/2000/svg">
  
  <g transform="scale(1, -1) translate(0, -900)" class="origin">
    <style type="text/css">
        .origin {display:none;}
        .hide {display:none;}
        .stroke {fill: #000000;}
        
.step1 {transform: translateX(1024px);}
.step2 {transform: translateX(2048px);}
.step3 {transform: translateX(3072px);}
.step4 {transform: translateX(4096px);}
.step5 {transform: translateX(5120px);}
.step6 {transform: translateX(6144px);}
.step7 {transform: translateX(7168px);}
.step8 {transform: translateX(8192px);}
.step9 {transform: translateX(9216px);}
.step10 {transform: translateX(10240px);}
.step11 {transform: translateX(11264px);}
.step12 {transform: translateX(12288px);}
.step13 {transform: translateX(13312px);}
.step14 {transform: translateX(14336px);}
.step15 {transform: translateX(15360px);}
.step16 {transform: translateX(16384px);}
.step17 {transform: translateX(17408px);}
.step18 {transform: translateX(18432px);}
.step19 {transform: translateX(19456px);}
.step20 {transform: translateX(20480px);}
.step21 {transform: translateX(21504px);}
.step22 {transform: translateX(22528px);}
.step23 {transform: translateX(23552px);}
.step24 {transform: translateX(24576px);}
.step25 {transform: translateX(25600px);}
.step26 {transform: translateX(26624px);}
.step27 {transform: translateX(27648px);}
.step28 {transform: translateX(28672px);}
.step29 {transform: translateX(29696px);}
    </style>

    <path d="M 528 706 Q 544 736 565 753 Q 574 759 572 772 Q 571 784 556 798 Q 540 814 518 822 Q 493 832 480 829 Q 470 828 472 812 Q 488 707 305 502 Q 293 490 283 479 Q 226 421 86 310 Q 76 304 88 300 Q 172 310 315 441 Q 405 526 512 683 L 528 706 Z" fill="lightgray"/>
    <path d="M 512 683 Q 714 416 772 395 Q 848 377 966 390 Q 988 391 990 397 Q 993 404 976 413 Q 774 503 745 522 Q 612 622 531 703 L 528 706 C 507 727 494 707 512 683 Z" fill="lightgray"/>
    <path d="M 384 225 Q 385 226 388 226 Q 575 308 663 337 Q 684 336 682 349 Q 681 368 666 394 Q 651 419 628 429 Q 612 433 607 412 Q 606 396 590 382 Q 517 327 386 248 C 360 232 356 215 384 225 Z" fill="lightgray"/>
    <path d="M 386 248 Q 390 299 402 354 Q 408 375 394 386 Q 378 402 352 412 Q 337 416 327 411 Q 320 407 325 386 Q 340 340 336 297 Q 326 126 339 79 Q 345 51 372 26 Q 463 -44 663 -16 Q 682 -12 703 -7 Q 752 8 802 41 Q 821 56 809 83 Q 796 114 780 208 Q 780 224 773 230 Q 767 234 762 215 Q 731 115 712 84 Q 694 65 646 52 Q 535 24 441 61 Q 404 79 395 101 Q 379 137 384 225 L 386 248 Z" fill="lightgray"/></g>
<g transform="scale(1, -1) translate(0, -900)">
    <style type="text/css">
        .origin {display:none;}
        .hide {display:none;}
        .stroke {fill: #000000;}
        
.step1 {transform: translateX(1024px);}
.step2 {transform: translateX(2048px);}
.step3 {transform: translateX(3072px);}
.step4 {transform: translateX(4096px);}
.step5 {transform: translateX(5120px);}
.step6 {transform: translateX(6144px);}
.step7 {transform: translateX(7168px);}
.step8 {transform: translateX(8192px);}
.step9 {transform: translateX(9216px);}
.step10 {transform: translateX(10240px);}
.step11 {transform: translateX(11264px);}
.step12 {transform: translateX(12288px);}
.step13 {transform: translateX(13312px);}
.step14 {transform: translateX(14336px);}
.step15 {transform: translateX(15360px);}
.step16 {transform: translateX(16384px);}
.step17 {transform: translateX(17408px);}
.step18 {transform: translateX(18432px);}
.step19 {transform: translateX(19456px);}
.step20 {transform: translateX(20480px);}
.step21 {transform: translateX(21504px);}
.step22 {transform: translateX(22528px);}
.step23 {transform: translateX(23552px);}
.step24 {transform: translateX(24576px);}
.step25 {transform: translateX(25600px);}
.step26 {transform: translateX(26624px);}
.step27 {transform: translateX(27648px);}
.step28 {transform: translateX(28672px);}
.step29 {transform: translateX(29696px);}
    </style>

    <path d="M 528 706 Q 544 736 565 753 Q 574 759 572 772 Q 571 784 556 798 Q 540 814 518 822 Q 493 832 480 829 Q 470 828 472 812 Q 488 707 305 502 Q 293 490 283 479 Q 226 421 86 310 Q 76 304 88 300 Q 172 310 315 441 Q 405 526 512 683 L 528 706 Z" fill="lightgray" class="stroke step0"/>
    <path d="M 512 683 Q 714 416 772 395 Q 848 377 966 390 Q 988 391 990 397 Q 993 404 976 413 Q 774 503 745 522 Q 612 622 531 703 L 528 706 C 507 727 494 707 512 683 Z" fill="lightgray" class="hide"/>
    <path d="M 384 225 Q 385 226 388 226 Q 575 308 663 337 Q 684 336 682 349 Q 681 368 666 394 Q 651 419 628 429 Q 612 433 607 412 Q 606 396 590 382 Q 517 327 386 248 C 360 232 356 215 384 225 Z" fill="lightgray" class="hide"/>
    <path d="M 386 248 Q 390 299 402 354 Q 408 375 394 386 Q 378 402 352 412 Q 337 416 327 411 Q 320 407 325 386 Q 340 340 336 297 Q 326 126 339 79 Q 345 51 372 26 Q 463 -44 663 -16 Q 682 -12 703 -7 Q 752 8 802 41 Q 821 56 809 83 Q 796 114 780 208 Q 780 224 773 230 Q 767 234 762 215 Q 731 115 712 84 Q 694 65 646 52 Q 535 24 441 61 Q 404 79 395 101 Q 379 137 384 225 L 386 248 Z" fill="lightgray" class="hide"/></g><g transform="scale(1, -1) translate(0, -900)">
    <style type="text/css">
        .origin {display:none;}
        .hide {display:none;}
        .stroke {fill: #000000;}
        
.step1 {transform: translateX(1024px);}
.step2 {transform: translateX(2048px);}
.step3 {transform: translateX(3072px);}
.step4 {transform: translateX(4096px);}
.step5 {transform: translateX(5120px);}
.step6 {transform: translateX(6144px);}
.step7 {transform: translateX(7168px);}
.step8 {transform: translateX(8192px);}
.step9 {transform: translateX(9216px);}
.step10 {transform: translateX(10240px);}
.step11 {transform: translateX(11264px);}
.step12 {transform: translateX(12288px);}
.step13 {transform: translateX(13312px);}
.step14 {transform: translateX(14336px);}
.step15 {transform: translateX(15360px);}
.step16 {transform: translateX(16384px);}
.step17 {transform: translateX(17408px);}
.step18 {transform: translateX(18432px);}
.step19 {transform: translateX(19456px);}
.step20 {transform: translateX(20480px);}
.step21 {transform: translateX(21504px);}
.step22 {transform: translateX(22528px);}
.step23 {transform: translateX(23552px);}
.step24 {transform: translateX(24576px);}
.step25 {transform: translateX(25600px);}
.step26 {transform: translateX(26624px);}
.step27 {transform: translateX(27648px);}
.step28 {transform: translateX(28672px);}
.step29 {transform: translateX(29696px);}
    </style>

    <path d="M 528 706 Q 544 736 565 753 Q 574 759 572 772 Q 571 784 556 798 Q 540 814 518 822 Q 493 832 480 829 Q 470 828 472 812 Q 488 707 305 502 Q 293 490 283 479 Q 226 421 86 310 Q 76 304 88 300 Q 172 310 315 441 Q 405 526 512 683 L 528 706 Z" fill="lightgray" class="stroke step1"/>
    <path d="M 512 683 Q 714 416 772 395 Q 848 377 966 390 Q 988 391 990 397 Q 993 404 976 413 Q 774 503 745 522 Q 612 622 531 703 L 528 706 C 507 727 494 707 512 683 Z" fill="lightgray" class="stroke step1"/>
    <path d="M 384 225 Q 385 226 388 226 Q 575 308 663 337 Q 684 336 682 349 Q 681 368 666 394 Q 651 419 628 429 Q 612 433 607 412 Q 606 396 590 382 Q 517 327 386 248 C 360 232 356 215 384 225 Z" fill="lightgray" class="hide"/>
    <path d="M 386 248 Q 390 299 402 354 Q 408 375 394 386 Q 378 402 352 412 Q 337 416 327 411 Q 320 407 325 386 Q 340 340 336 297 Q 326 126 339 79 Q 345 51 372 26 Q 463 -44 663 -16 Q 682 -12 703 -7 Q 752 8 802 41 Q 821 56 809 83 Q 796 114 780 208 Q 780 224 773 230 Q 767 234 762 215 Q 731 115 712 84 Q 694 65 646 52 Q 535 24 441 61 Q 404 79 395 101 Q 379 137 384 225 L 386 248 Z" fill="lightgray" class="hide"/></g><g transform="scale(1, -1) translate(0, -900)">
    <style type="text/css">
        .origin {display:none;}
        .hide {display:none;}
        .stroke {fill: #000000;}
        
.step1 {transform: translateX(1024px);}
.step2 {transform: translateX(2048px);}
.step3 {transform: translateX(3072px);}
.step4 {transform: translateX(4096px);}
.step5 {transform: translateX(5120px);}
.step6 {transform: translateX(6144px);}
.step7 {transform: translateX(7168px);}
.step8 {transform: translateX(8192px);}
.step9 {transform: translateX(9216px);}
.step10 {transform: translateX(10240px);}
.step11 {transform: translateX(11264px);}
.step12 {transform: translateX(12288px);}
.step13 {transform: translateX(13312px);}
.step14 {transform: translateX(14336px);}
.step15 {transform: translateX(15360px);}
.step16 {transform: translateX(16384px);}
.step17 {transform: translateX(17408px);}
.step18 {transform: translateX(18432px);}
.step19 {transform: translateX(19456px);}
.step20 {transform: translateX(20480px);}
.step21 {transform: translateX(21504px);}
.step22 {transform: translateX(22528px);}
.step23 {transform: translateX(23552px);}
.step24 {transform: translateX(24576px);}
.step25 {transform: translateX(25600px);}
.step26 {transform: translateX(26624px);}
.step27 {transform: translateX(27648px);}
.step28 {transform: translateX(28672px);}
.step29 {transform: translateX(29696px);}
    </style>

    <path d="M 528 706 Q 544 736 565 753 Q 574 759 572 772 Q 571 784 556 798 Q 540 814 518 822 Q 493 832 480 829 Q 470 828 472 812 Q 488 707 305 502 Q 293 490 283 479 Q 226 421 86 310 Q 76 304 88 300 Q 172 310 315 441 Q 405 526 512 683 L 528 706 Z" fill="lightgray" class="stroke step2"/>
    <path d="M 512 683 Q 714 416 772 395 Q 848 377 966 390 Q 988 391 990 397 Q 993 404 976 413 Q 774 503 745 522 Q 612 622 531 703 L 528 706 C 507 727 494 707 512 683 Z" fill="lightgray" class="stroke step2"/>
    <path d="M 384 225 Q 385 226 388 226 Q 575 308 663 337 Q 684 336 682 349 Q 681 368 666 394 Q 651 419 628 429 Q 612 433 607 412 Q 606 396 590 382 Q 517 327 386 248 C 360 232 356 215 384 225 Z" fill="lightgray" class="stroke step2"/>
    <path d="M 386 248 Q 390 299 402 354 Q 408 375 394 386 Q 378 402 352 412 Q 337 416 327 411 Q 320 407 325 386 Q 340 340 336 297 Q 326 126 339 79 Q 345 51 372 26 Q 463 -44 663 -16 Q 682 -12 703 -7 Q 752 8 802 41 Q 821 56 809 83 Q 796 114 780 208 Q 780 224 773 230 Q 767 234 762 215 Q 731 115 712 84 Q 694 65 646 52 Q 535 24 441 61 Q 404 79 395 101 Q 379 137 384 225 L 386 248 Z" fill="lightgray" class="hide"/></g><g transform="scale(1, -1) translate(0, -900)">
    <style type="text/css">
        .origin {display:none;}
        .hide {display:none;}
        .stroke {fill: #000000;}
        
.step1 {transform: translateX(1024px);}
.step2 {transform: translateX(2048px);}
.step3 {transform: translateX(3072px);}
.step4 {transform: translateX(4096px);}
.step5 {transform: translateX(5120px);}
.step6 {transform: translateX(6144px);}
.step7 {transform: translateX(7168px);}
.step8 {transform: translateX(8192px);}
.step9 {transform: translateX(9216px);}
.step10 {transform: translateX(10240px);}
.step11 {transform: translateX(11264px);}
.step12 {transform: translateX(12288px);}
.step13 {transform: translateX(13312px);}
.step14 {transform: translateX(14336px);}
.step15 {transform: translateX(15360px);}
.step16 {transform: translateX(16384px);}
.step17 {transform: translateX(17408px);}
.step18 {transform: translateX(18432px);}
.step19 {transform: translateX(19456px);}
.step20 {transform: translateX(20480px);}
.step21 {transform: translateX(21504px);}
.step22 {transform: translateX(22528px);}
.step23 {transform: translateX(23552px);}
.step24 {transform: translateX(24576px);}
.step25 {transform: translateX(25600px);}
.step26 {transform: translateX(26624px);}
.step27 {transform: translateX(27648px);}
.step28 {transform: translateX(28672px);}
.step29 {transform: translateX(29696px);}
    </style>

    <path d="M 528 706 Q 544 736 565 753 Q 574 759 572 772 Q 571 784 556 798 Q 540 814 518 822 Q 493 832 480 829 Q 470 828 472 812 Q 488 707 305 502 Q 293 490 283 479 Q 226 421 86 310 Q 76 304 88 300 Q 172 310 315 441 Q 405 526 512 683 L 528 706 Z" fill="lightgray" class="stroke step3"/>
    <path d="M 512 683 Q 714 416 772 395 Q 848 377 966 390 Q 988 391 990 397 Q 993 404 976 413 Q 774 503 745 522 Q 612 622 531 703 L 528 706 C 507 727 494 707 512 683 Z" fill="lightgray" class="stroke step3"/>
    <path d="M 384 225 Q 385 226 388 226 Q 575 308 663 337 Q 684 336 682 349 Q 681 368 666 394 Q 651 419 628 429 Q 612 433 607 412 Q 606 396 590 382 Q 517 327 386 248 C 360 232 356 215 384 225 Z" fill="lightgray" class="stroke step3"/>
    <path d="M 386 248 Q 390 299 402 354 Q 408 375 394 386 Q 378 402 352 412 Q 337 416 327 411 Q 320 407 325 386 Q 340 340 336 297 Q 326 126 339 79 Q 345 51 372 26 Q 463 -44 663 -16 Q 682 -12 703 -7 Q 752 8 802 41 Q 821 56 809 83 Q 796 114 780 208 Q 780 224 773 230 Q 767 234 762 215 Q 731 115 712 84 Q 694 65 646 52 Q 535 24 441 61 Q 404 79 395 101 Q 379 137 384 225 L 386 248 Z" fill="lightgray" class="stroke step3"/></g></svg>