<svg version="1.1" viewBox="0 0 5120 1024" xmlns="http://www.w3.org/2000/svg">
  
  <g transform="scale(1, -1) translate(0, -900)" class="origin">
    <style type="text/css">
        .origin {display:none;}
        .hide {display:none;}
        .stroke {fill: #000000;}
        
.step1 {transform: translateX(1024px);}
.step2 {transform: translateX(2048px);}
.step3 {transform: translateX(3072px);}
.step4 {transform: translateX(4096px);}
.step5 {transform: translateX(5120px);}
.step6 {transform: translateX(6144px);}
.step7 {transform: translateX(7168px);}
.step8 {transform: translateX(8192px);}
.step9 {transform: translateX(9216px);}
.step10 {transform: translateX(10240px);}
.step11 {transform: translateX(11264px);}
.step12 {transform: translateX(12288px);}
.step13 {transform: translateX(13312px);}
.step14 {transform: translateX(14336px);}
.step15 {transform: translateX(15360px);}
.step16 {transform: translateX(16384px);}
.step17 {transform: translateX(17408px);}
.step18 {transform: translateX(18432px);}
.step19 {transform: translateX(19456px);}
.step20 {transform: translateX(20480px);}
.step21 {transform: translateX(21504px);}
.step22 {transform: translateX(22528px);}
.step23 {transform: translateX(23552px);}
.step24 {transform: translateX(24576px);}
.step25 {transform: translateX(25600px);}
.step26 {transform: translateX(26624px);}
.step27 {transform: translateX(27648px);}
.step28 {transform: translateX(28672px);}
.step29 {transform: translateX(29696px);}
    </style>

    <path d="M 291 535 Q 420 740 421 745 Q 420 751 419 755 Q 415 770 380 795 Q 349 816 327 815 Q 305 812 315 787 Q 333 750 319 717 Q 243 525 59 300 Q 47 287 45 280 Q 41 267 58 271 Q 106 283 264 495 L 291 535 Z" fill="lightgray"/>
    <path d="M 264 495 Q 295 431 271 245 Q 264 193 249 139 Q 234 90 271 42 Q 272 39 276 36 Q 295 20 307 48 Q 322 90 322 138 Q 328 391 338 449 Q 345 477 335 488 Q 317 510 303 524 Q 297 531 291 535 C 269 555 253 523 264 495 Z" fill="lightgray"/>
    <path d="M 758 482 Q 819 488 897 489 Q 957 486 964 499 Q 970 511 952 525 Q 892 567 828 547 Q 797 541 758 532 L 699 520 Q 675 517 651 512 Q 534 493 396 471 Q 374 468 391 451 Q 425 423 464 432 Q 575 465 699 476 L 758 482 Z" fill="lightgray"/>
    <path d="M 699 476 Q 699 338 699 121 Q 698 96 685 87 Q 678 84 602 101 Q 565 116 567 104 Q 568 95 591 78 Q 663 17 680 -17 Q 701 -57 719 -58 Q 735 -59 753 -19 Q 775 33 773 120 Q 758 301 758 482 L 758 532 Q 752 667 778 757 Q 797 793 732 818 Q 693 839 671 830 Q 650 823 669 796 Q 694 765 696 725 Q 697 706 699 520 L 699 476 Z" fill="lightgray"/>
    <path d="M 468 344 Q 504 275 535 253 Q 550 246 563 258 Q 573 270 574 288 Q 573 313 557 332 Q 527 362 482 385 Q 470 389 463 388 Q 456 388 456 375 Q 455 362 468 344 Z" fill="lightgray"/></g>
<g transform="scale(1, -1) translate(0, -900)">
    <style type="text/css">
        .origin {display:none;}
        .hide {display:none;}
        .stroke {fill: #000000;}
        
.step1 {transform: translateX(1024px);}
.step2 {transform: translateX(2048px);}
.step3 {transform: translateX(3072px);}
.step4 {transform: translateX(4096px);}
.step5 {transform: translateX(5120px);}
.step6 {transform: translateX(6144px);}
.step7 {transform: translateX(7168px);}
.step8 {transform: translateX(8192px);}
.step9 {transform: translateX(9216px);}
.step10 {transform: translateX(10240px);}
.step11 {transform: translateX(11264px);}
.step12 {transform: translateX(12288px);}
.step13 {transform: translateX(13312px);}
.step14 {transform: translateX(14336px);}
.step15 {transform: translateX(15360px);}
.step16 {transform: translateX(16384px);}
.step17 {transform: translateX(17408px);}
.step18 {transform: translateX(18432px);}
.step19 {transform: translateX(19456px);}
.step20 {transform: translateX(20480px);}
.step21 {transform: translateX(21504px);}
.step22 {transform: translateX(22528px);}
.step23 {transform: translateX(23552px);}
.step24 {transform: translateX(24576px);}
.step25 {transform: translateX(25600px);}
.step26 {transform: translateX(26624px);}
.step27 {transform: translateX(27648px);}
.step28 {transform: translateX(28672px);}
.step29 {transform: translateX(29696px);}
    </style>

    <path d="M 291 535 Q 420 740 421 745 Q 420 751 419 755 Q 415 770 380 795 Q 349 816 327 815 Q 305 812 315 787 Q 333 750 319 717 Q 243 525 59 300 Q 47 287 45 280 Q 41 267 58 271 Q 106 283 264 495 L 291 535 Z" fill="lightgray" class="stroke step0"/>
    <path d="M 264 495 Q 295 431 271 245 Q 264 193 249 139 Q 234 90 271 42 Q 272 39 276 36 Q 295 20 307 48 Q 322 90 322 138 Q 328 391 338 449 Q 345 477 335 488 Q 317 510 303 524 Q 297 531 291 535 C 269 555 253 523 264 495 Z" fill="lightgray" class="hide"/>
    <path d="M 758 482 Q 819 488 897 489 Q 957 486 964 499 Q 970 511 952 525 Q 892 567 828 547 Q 797 541 758 532 L 699 520 Q 675 517 651 512 Q 534 493 396 471 Q 374 468 391 451 Q 425 423 464 432 Q 575 465 699 476 L 758 482 Z" fill="lightgray" class="hide"/>
    <path d="M 699 476 Q 699 338 699 121 Q 698 96 685 87 Q 678 84 602 101 Q 565 116 567 104 Q 568 95 591 78 Q 663 17 680 -17 Q 701 -57 719 -58 Q 735 -59 753 -19 Q 775 33 773 120 Q 758 301 758 482 L 758 532 Q 752 667 778 757 Q 797 793 732 818 Q 693 839 671 830 Q 650 823 669 796 Q 694 765 696 725 Q 697 706 699 520 L 699 476 Z" fill="lightgray" class="hide"/>
    <path d="M 468 344 Q 504 275 535 253 Q 550 246 563 258 Q 573 270 574 288 Q 573 313 557 332 Q 527 362 482 385 Q 470 389 463 388 Q 456 388 456 375 Q 455 362 468 344 Z" fill="lightgray" class="hide"/></g><g transform="scale(1, -1) translate(0, -900)">
    <style type="text/css">
        .origin {display:none;}
        .hide {display:none;}
        .stroke {fill: #000000;}
        
.step1 {transform: translateX(1024px);}
.step2 {transform: translateX(2048px);}
.step3 {transform: translateX(3072px);}
.step4 {transform: translateX(4096px);}
.step5 {transform: translateX(5120px);}
.step6 {transform: translateX(6144px);}
.step7 {transform: translateX(7168px);}
.step8 {transform: translateX(8192px);}
.step9 {transform: translateX(9216px);}
.step10 {transform: translateX(10240px);}
.step11 {transform: translateX(11264px);}
.step12 {transform: translateX(12288px);}
.step13 {transform: translateX(13312px);}
.step14 {transform: translateX(14336px);}
.step15 {transform: translateX(15360px);}
.step16 {transform: translateX(16384px);}
.step17 {transform: translateX(17408px);}
.step18 {transform: translateX(18432px);}
.step19 {transform: translateX(19456px);}
.step20 {transform: translateX(20480px);}
.step21 {transform: translateX(21504px);}
.step22 {transform: translateX(22528px);}
.step23 {transform: translateX(23552px);}
.step24 {transform: translateX(24576px);}
.step25 {transform: translateX(25600px);}
.step26 {transform: translateX(26624px);}
.step27 {transform: translateX(27648px);}
.step28 {transform: translateX(28672px);}
.step29 {transform: translateX(29696px);}
    </style>

    <path d="M 291 535 Q 420 740 421 745 Q 420 751 419 755 Q 415 770 380 795 Q 349 816 327 815 Q 305 812 315 787 Q 333 750 319 717 Q 243 525 59 300 Q 47 287 45 280 Q 41 267 58 271 Q 106 283 264 495 L 291 535 Z" fill="lightgray" class="stroke step1"/>
    <path d="M 264 495 Q 295 431 271 245 Q 264 193 249 139 Q 234 90 271 42 Q 272 39 276 36 Q 295 20 307 48 Q 322 90 322 138 Q 328 391 338 449 Q 345 477 335 488 Q 317 510 303 524 Q 297 531 291 535 C 269 555 253 523 264 495 Z" fill="lightgray" class="stroke step1"/>
    <path d="M 758 482 Q 819 488 897 489 Q 957 486 964 499 Q 970 511 952 525 Q 892 567 828 547 Q 797 541 758 532 L 699 520 Q 675 517 651 512 Q 534 493 396 471 Q 374 468 391 451 Q 425 423 464 432 Q 575 465 699 476 L 758 482 Z" fill="lightgray" class="hide"/>
    <path d="M 699 476 Q 699 338 699 121 Q 698 96 685 87 Q 678 84 602 101 Q 565 116 567 104 Q 568 95 591 78 Q 663 17 680 -17 Q 701 -57 719 -58 Q 735 -59 753 -19 Q 775 33 773 120 Q 758 301 758 482 L 758 532 Q 752 667 778 757 Q 797 793 732 818 Q 693 839 671 830 Q 650 823 669 796 Q 694 765 696 725 Q 697 706 699 520 L 699 476 Z" fill="lightgray" class="hide"/>
    <path d="M 468 344 Q 504 275 535 253 Q 550 246 563 258 Q 573 270 574 288 Q 573 313 557 332 Q 527 362 482 385 Q 470 389 463 388 Q 456 388 456 375 Q 455 362 468 344 Z" fill="lightgray" class="hide"/></g><g transform="scale(1, -1) translate(0, -900)">
    <style type="text/css">
        .origin {display:none;}
        .hide {display:none;}
        .stroke {fill: #000000;}
        
.step1 {transform: translateX(1024px);}
.step2 {transform: translateX(2048px);}
.step3 {transform: translateX(3072px);}
.step4 {transform: translateX(4096px);}
.step5 {transform: translateX(5120px);}
.step6 {transform: translateX(6144px);}
.step7 {transform: translateX(7168px);}
.step8 {transform: translateX(8192px);}
.step9 {transform: translateX(9216px);}
.step10 {transform: translateX(10240px);}
.step11 {transform: translateX(11264px);}
.step12 {transform: translateX(12288px);}
.step13 {transform: translateX(13312px);}
.step14 {transform: translateX(14336px);}
.step15 {transform: translateX(15360px);}
.step16 {transform: translateX(16384px);}
.step17 {transform: translateX(17408px);}
.step18 {transform: translateX(18432px);}
.step19 {transform: translateX(19456px);}
.step20 {transform: translateX(20480px);}
.step21 {transform: translateX(21504px);}
.step22 {transform: translateX(22528px);}
.step23 {transform: translateX(23552px);}
.step24 {transform: translateX(24576px);}
.step25 {transform: translateX(25600px);}
.step26 {transform: translateX(26624px);}
.step27 {transform: translateX(27648px);}
.step28 {transform: translateX(28672px);}
.step29 {transform: translateX(29696px);}
    </style>

    <path d="M 291 535 Q 420 740 421 745 Q 420 751 419 755 Q 415 770 380 795 Q 349 816 327 815 Q 305 812 315 787 Q 333 750 319 717 Q 243 525 59 300 Q 47 287 45 280 Q 41 267 58 271 Q 106 283 264 495 L 291 535 Z" fill="lightgray" class="stroke step2"/>
    <path d="M 264 495 Q 295 431 271 245 Q 264 193 249 139 Q 234 90 271 42 Q 272 39 276 36 Q 295 20 307 48 Q 322 90 322 138 Q 328 391 338 449 Q 345 477 335 488 Q 317 510 303 524 Q 297 531 291 535 C 269 555 253 523 264 495 Z" fill="lightgray" class="stroke step2"/>
    <path d="M 758 482 Q 819 488 897 489 Q 957 486 964 499 Q 970 511 952 525 Q 892 567 828 547 Q 797 541 758 532 L 699 520 Q 675 517 651 512 Q 534 493 396 471 Q 374 468 391 451 Q 425 423 464 432 Q 575 465 699 476 L 758 482 Z" fill="lightgray" class="stroke step2"/>
    <path d="M 699 476 Q 699 338 699 121 Q 698 96 685 87 Q 678 84 602 101 Q 565 116 567 104 Q 568 95 591 78 Q 663 17 680 -17 Q 701 -57 719 -58 Q 735 -59 753 -19 Q 775 33 773 120 Q 758 301 758 482 L 758 532 Q 752 667 778 757 Q 797 793 732 818 Q 693 839 671 830 Q 650 823 669 796 Q 694 765 696 725 Q 697 706 699 520 L 699 476 Z" fill="lightgray" class="hide"/>
    <path d="M 468 344 Q 504 275 535 253 Q 550 246 563 258 Q 573 270 574 288 Q 573 313 557 332 Q 527 362 482 385 Q 470 389 463 388 Q 456 388 456 375 Q 455 362 468 344 Z" fill="lightgray" class="hide"/></g><g transform="scale(1, -1) translate(0, -900)">
    <style type="text/css">
        .origin {display:none;}
        .hide {display:none;}
        .stroke {fill: #000000;}
        
.step1 {transform: translateX(1024px);}
.step2 {transform: translateX(2048px);}
.step3 {transform: translateX(3072px);}
.step4 {transform: translateX(4096px);}
.step5 {transform: translateX(5120px);}
.step6 {transform: translateX(6144px);}
.step7 {transform: translateX(7168px);}
.step8 {transform: translateX(8192px);}
.step9 {transform: translateX(9216px);}
.step10 {transform: translateX(10240px);}
.step11 {transform: translateX(11264px);}
.step12 {transform: translateX(12288px);}
.step13 {transform: translateX(13312px);}
.step14 {transform: translateX(14336px);}
.step15 {transform: translateX(15360px);}
.step16 {transform: translateX(16384px);}
.step17 {transform: translateX(17408px);}
.step18 {transform: translateX(18432px);}
.step19 {transform: translateX(19456px);}
.step20 {transform: translateX(20480px);}
.step21 {transform: translateX(21504px);}
.step22 {transform: translateX(22528px);}
.step23 {transform: translateX(23552px);}
.step24 {transform: translateX(24576px);}
.step25 {transform: translateX(25600px);}
.step26 {transform: translateX(26624px);}
.step27 {transform: translateX(27648px);}
.step28 {transform: translateX(28672px);}
.step29 {transform: translateX(29696px);}
    </style>

    <path d="M 291 535 Q 420 740 421 745 Q 420 751 419 755 Q 415 770 380 795 Q 349 816 327 815 Q 305 812 315 787 Q 333 750 319 717 Q 243 525 59 300 Q 47 287 45 280 Q 41 267 58 271 Q 106 283 264 495 L 291 535 Z" fill="lightgray" class="stroke step3"/>
    <path d="M 264 495 Q 295 431 271 245 Q 264 193 249 139 Q 234 90 271 42 Q 272 39 276 36 Q 295 20 307 48 Q 322 90 322 138 Q 328 391 338 449 Q 345 477 335 488 Q 317 510 303 524 Q 297 531 291 535 C 269 555 253 523 264 495 Z" fill="lightgray" class="stroke step3"/>
    <path d="M 758 482 Q 819 488 897 489 Q 957 486 964 499 Q 970 511 952 525 Q 892 567 828 547 Q 797 541 758 532 L 699 520 Q 675 517 651 512 Q 534 493 396 471 Q 374 468 391 451 Q 425 423 464 432 Q 575 465 699 476 L 758 482 Z" fill="lightgray" class="stroke step3"/>
    <path d="M 699 476 Q 699 338 699 121 Q 698 96 685 87 Q 678 84 602 101 Q 565 116 567 104 Q 568 95 591 78 Q 663 17 680 -17 Q 701 -57 719 -58 Q 735 -59 753 -19 Q 775 33 773 120 Q 758 301 758 482 L 758 532 Q 752 667 778 757 Q 797 793 732 818 Q 693 839 671 830 Q 650 823 669 796 Q 694 765 696 725 Q 697 706 699 520 L 699 476 Z" fill="lightgray" class="stroke step3"/>
    <path d="M 468 344 Q 504 275 535 253 Q 550 246 563 258 Q 573 270 574 288 Q 573 313 557 332 Q 527 362 482 385 Q 470 389 463 388 Q 456 388 456 375 Q 455 362 468 344 Z" fill="lightgray" class="hide"/></g><g transform="scale(1, -1) translate(0, -900)">
    <style type="text/css">
        .origin {display:none;}
        .hide {display:none;}
        .stroke {fill: #000000;}
        
.step1 {transform: translateX(1024px);}
.step2 {transform: translateX(2048px);}
.step3 {transform: translateX(3072px);}
.step4 {transform: translateX(4096px);}
.step5 {transform: translateX(5120px);}
.step6 {transform: translateX(6144px);}
.step7 {transform: translateX(7168px);}
.step8 {transform: translateX(8192px);}
.step9 {transform: translateX(9216px);}
.step10 {transform: translateX(10240px);}
.step11 {transform: translateX(11264px);}
.step12 {transform: translateX(12288px);}
.step13 {transform: translateX(13312px);}
.step14 {transform: translateX(14336px);}
.step15 {transform: translateX(15360px);}
.step16 {transform: translateX(16384px);}
.step17 {transform: translateX(17408px);}
.step18 {transform: translateX(18432px);}
.step19 {transform: translateX(19456px);}
.step20 {transform: translateX(20480px);}
.step21 {transform: translateX(21504px);}
.step22 {transform: translateX(22528px);}
.step23 {transform: translateX(23552px);}
.step24 {transform: translateX(24576px);}
.step25 {transform: translateX(25600px);}
.step26 {transform: translateX(26624px);}
.step27 {transform: translateX(27648px);}
.step28 {transform: translateX(28672px);}
.step29 {transform: translateX(29696px);}
    </style>

    <path d="M 291 535 Q 420 740 421 745 Q 420 751 419 755 Q 415 770 380 795 Q 349 816 327 815 Q 305 812 315 787 Q 333 750 319 717 Q 243 525 59 300 Q 47 287 45 280 Q 41 267 58 271 Q 106 283 264 495 L 291 535 Z" fill="lightgray" class="stroke step4"/>
    <path d="M 264 495 Q 295 431 271 245 Q 264 193 249 139 Q 234 90 271 42 Q 272 39 276 36 Q 295 20 307 48 Q 322 90 322 138 Q 328 391 338 449 Q 345 477 335 488 Q 317 510 303 524 Q 297 531 291 535 C 269 555 253 523 264 495 Z" fill="lightgray" class="stroke step4"/>
    <path d="M 758 482 Q 819 488 897 489 Q 957 486 964 499 Q 970 511 952 525 Q 892 567 828 547 Q 797 541 758 532 L 699 520 Q 675 517 651 512 Q 534 493 396 471 Q 374 468 391 451 Q 425 423 464 432 Q 575 465 699 476 L 758 482 Z" fill="lightgray" class="stroke step4"/>
    <path d="M 699 476 Q 699 338 699 121 Q 698 96 685 87 Q 678 84 602 101 Q 565 116 567 104 Q 568 95 591 78 Q 663 17 680 -17 Q 701 -57 719 -58 Q 735 -59 753 -19 Q 775 33 773 120 Q 758 301 758 482 L 758 532 Q 752 667 778 757 Q 797 793 732 818 Q 693 839 671 830 Q 650 823 669 796 Q 694 765 696 725 Q 697 706 699 520 L 699 476 Z" fill="lightgray" class="stroke step4"/>
    <path d="M 468 344 Q 504 275 535 253 Q 550 246 563 258 Q 573 270 574 288 Q 573 313 557 332 Q 527 362 482 385 Q 470 389 463 388 Q 456 388 456 375 Q 455 362 468 344 Z" fill="lightgray" class="stroke step4"/></g></svg>