<svg version="1.1" viewBox="0 0 6144 1024" xmlns="http://www.w3.org/2000/svg">
  
  <g transform="scale(1, -1) translate(0, -900)" class="origin">
    <style type="text/css">
        .origin {display:none;}
        .hide {display:none;}
        .stroke {fill: #000000;}
        
.step1 {transform: translateX(1024px);}
.step2 {transform: translateX(2048px);}
.step3 {transform: translateX(3072px);}
.step4 {transform: translateX(4096px);}
.step5 {transform: translateX(5120px);}
.step6 {transform: translateX(6144px);}
.step7 {transform: translateX(7168px);}
.step8 {transform: translateX(8192px);}
.step9 {transform: translateX(9216px);}
.step10 {transform: translateX(10240px);}
.step11 {transform: translateX(11264px);}
.step12 {transform: translateX(12288px);}
.step13 {transform: translateX(13312px);}
.step14 {transform: translateX(14336px);}
.step15 {transform: translateX(15360px);}
.step16 {transform: translateX(16384px);}
.step17 {transform: translateX(17408px);}
.step18 {transform: translateX(18432px);}
.step19 {transform: translateX(19456px);}
.step20 {transform: translateX(20480px);}
.step21 {transform: translateX(21504px);}
.step22 {transform: translateX(22528px);}
.step23 {transform: translateX(23552px);}
.step24 {transform: translateX(24576px);}
.step25 {transform: translateX(25600px);}
.step26 {transform: translateX(26624px);}
.step27 {transform: translateX(27648px);}
.step28 {transform: translateX(28672px);}
.step29 {transform: translateX(29696px);}
    </style>

    <path d="M 251 491 Q 294 543 341 610 Q 371 658 396 681 Q 408 691 403 707 Q 399 722 369 748 Q 341 770 320 771 Q 299 770 307 745 Q 319 712 300 672 Q 224 519 61 341 Q 49 331 47 324 Q 43 312 58 314 Q 100 318 207 442 Q 214 451 223 459 L 251 491 Z" fill="lightgray"/>
    <path d="M 223 459 Q 244 402 245 334 Q 244 322 244 309 Q 243 203 214 95 Q 204 50 238 -1 Q 239 -1 241 -4 Q 259 -20 271 7 Q 286 47 285 94 Q 288 350 297 408 Q 304 435 295 446 Q 256 488 251 491 C 229 511 213 487 223 459 Z" fill="lightgray"/>
    <path d="M 593 439 Q 650 451 837 468 Q 859 471 864 480 Q 868 493 849 508 Q 780 547 722 525 Q 670 510 596 489 L 546 478 Q 458 457 356 434 Q 332 430 352 412 Q 368 399 389 394 Q 413 390 430 397 Q 482 416 542 428 L 593 439 Z" fill="lightgray"/>
    <path d="M 589 404 Q 590 422 593 439 L 596 489 Q 608 705 626 744 Q 633 760 621 772 Q 596 791 554 802 Q 527 809 518 801 Q 508 794 517 780 Q 562 711 546 478 L 542 428 Q 524 260 455 162 Q 407 105 320 45 Q 307 35 308 31 Q 309 27 322 27 Q 338 23 380 42 Q 542 105 582 350 L 589 404 Z" fill="lightgray"/>
    <path d="M 582 350 Q 754 17 816 13 Q 891 14 955 14 Q 983 15 983 21 Q 986 28 956 47 Q 809 122 755 182 Q 661 287 589 404 C 573 429 568 377 582 350 Z" fill="lightgray"/>
    <path d="M 725 675 Q 765 647 810 614 Q 825 602 842 604 Q 852 605 857 620 Q 860 636 848 666 Q 838 691 799 706 Q 759 716 715 724 Q 699 727 692 723 Q 688 719 690 705 Q 694 695 725 675 Z" fill="lightgray"/></g>
<g transform="scale(1, -1) translate(0, -900)">
    <style type="text/css">
        .origin {display:none;}
        .hide {display:none;}
        .stroke {fill: #000000;}
        
.step1 {transform: translateX(1024px);}
.step2 {transform: translateX(2048px);}
.step3 {transform: translateX(3072px);}
.step4 {transform: translateX(4096px);}
.step5 {transform: translateX(5120px);}
.step6 {transform: translateX(6144px);}
.step7 {transform: translateX(7168px);}
.step8 {transform: translateX(8192px);}
.step9 {transform: translateX(9216px);}
.step10 {transform: translateX(10240px);}
.step11 {transform: translateX(11264px);}
.step12 {transform: translateX(12288px);}
.step13 {transform: translateX(13312px);}
.step14 {transform: translateX(14336px);}
.step15 {transform: translateX(15360px);}
.step16 {transform: translateX(16384px);}
.step17 {transform: translateX(17408px);}
.step18 {transform: translateX(18432px);}
.step19 {transform: translateX(19456px);}
.step20 {transform: translateX(20480px);}
.step21 {transform: translateX(21504px);}
.step22 {transform: translateX(22528px);}
.step23 {transform: translateX(23552px);}
.step24 {transform: translateX(24576px);}
.step25 {transform: translateX(25600px);}
.step26 {transform: translateX(26624px);}
.step27 {transform: translateX(27648px);}
.step28 {transform: translateX(28672px);}
.step29 {transform: translateX(29696px);}
    </style>

    <path d="M 251 491 Q 294 543 341 610 Q 371 658 396 681 Q 408 691 403 707 Q 399 722 369 748 Q 341 770 320 771 Q 299 770 307 745 Q 319 712 300 672 Q 224 519 61 341 Q 49 331 47 324 Q 43 312 58 314 Q 100 318 207 442 Q 214 451 223 459 L 251 491 Z" fill="lightgray" class="stroke step0"/>
    <path d="M 223 459 Q 244 402 245 334 Q 244 322 244 309 Q 243 203 214 95 Q 204 50 238 -1 Q 239 -1 241 -4 Q 259 -20 271 7 Q 286 47 285 94 Q 288 350 297 408 Q 304 435 295 446 Q 256 488 251 491 C 229 511 213 487 223 459 Z" fill="lightgray" class="hide"/>
    <path d="M 593 439 Q 650 451 837 468 Q 859 471 864 480 Q 868 493 849 508 Q 780 547 722 525 Q 670 510 596 489 L 546 478 Q 458 457 356 434 Q 332 430 352 412 Q 368 399 389 394 Q 413 390 430 397 Q 482 416 542 428 L 593 439 Z" fill="lightgray" class="hide"/>
    <path d="M 589 404 Q 590 422 593 439 L 596 489 Q 608 705 626 744 Q 633 760 621 772 Q 596 791 554 802 Q 527 809 518 801 Q 508 794 517 780 Q 562 711 546 478 L 542 428 Q 524 260 455 162 Q 407 105 320 45 Q 307 35 308 31 Q 309 27 322 27 Q 338 23 380 42 Q 542 105 582 350 L 589 404 Z" fill="lightgray" class="hide"/>
    <path d="M 582 350 Q 754 17 816 13 Q 891 14 955 14 Q 983 15 983 21 Q 986 28 956 47 Q 809 122 755 182 Q 661 287 589 404 C 573 429 568 377 582 350 Z" fill="lightgray" class="hide"/>
    <path d="M 725 675 Q 765 647 810 614 Q 825 602 842 604 Q 852 605 857 620 Q 860 636 848 666 Q 838 691 799 706 Q 759 716 715 724 Q 699 727 692 723 Q 688 719 690 705 Q 694 695 725 675 Z" fill="lightgray" class="hide"/></g><g transform="scale(1, -1) translate(0, -900)">
    <style type="text/css">
        .origin {display:none;}
        .hide {display:none;}
        .stroke {fill: #000000;}
        
.step1 {transform: translateX(1024px);}
.step2 {transform: translateX(2048px);}
.step3 {transform: translateX(3072px);}
.step4 {transform: translateX(4096px);}
.step5 {transform: translateX(5120px);}
.step6 {transform: translateX(6144px);}
.step7 {transform: translateX(7168px);}
.step8 {transform: translateX(8192px);}
.step9 {transform: translateX(9216px);}
.step10 {transform: translateX(10240px);}
.step11 {transform: translateX(11264px);}
.step12 {transform: translateX(12288px);}
.step13 {transform: translateX(13312px);}
.step14 {transform: translateX(14336px);}
.step15 {transform: translateX(15360px);}
.step16 {transform: translateX(16384px);}
.step17 {transform: translateX(17408px);}
.step18 {transform: translateX(18432px);}
.step19 {transform: translateX(19456px);}
.step20 {transform: translateX(20480px);}
.step21 {transform: translateX(21504px);}
.step22 {transform: translateX(22528px);}
.step23 {transform: translateX(23552px);}
.step24 {transform: translateX(24576px);}
.step25 {transform: translateX(25600px);}
.step26 {transform: translateX(26624px);}
.step27 {transform: translateX(27648px);}
.step28 {transform: translateX(28672px);}
.step29 {transform: translateX(29696px);}
    </style>

    <path d="M 251 491 Q 294 543 341 610 Q 371 658 396 681 Q 408 691 403 707 Q 399 722 369 748 Q 341 770 320 771 Q 299 770 307 745 Q 319 712 300 672 Q 224 519 61 341 Q 49 331 47 324 Q 43 312 58 314 Q 100 318 207 442 Q 214 451 223 459 L 251 491 Z" fill="lightgray" class="stroke step1"/>
    <path d="M 223 459 Q 244 402 245 334 Q 244 322 244 309 Q 243 203 214 95 Q 204 50 238 -1 Q 239 -1 241 -4 Q 259 -20 271 7 Q 286 47 285 94 Q 288 350 297 408 Q 304 435 295 446 Q 256 488 251 491 C 229 511 213 487 223 459 Z" fill="lightgray" class="stroke step1"/>
    <path d="M 593 439 Q 650 451 837 468 Q 859 471 864 480 Q 868 493 849 508 Q 780 547 722 525 Q 670 510 596 489 L 546 478 Q 458 457 356 434 Q 332 430 352 412 Q 368 399 389 394 Q 413 390 430 397 Q 482 416 542 428 L 593 439 Z" fill="lightgray" class="hide"/>
    <path d="M 589 404 Q 590 422 593 439 L 596 489 Q 608 705 626 744 Q 633 760 621 772 Q 596 791 554 802 Q 527 809 518 801 Q 508 794 517 780 Q 562 711 546 478 L 542 428 Q 524 260 455 162 Q 407 105 320 45 Q 307 35 308 31 Q 309 27 322 27 Q 338 23 380 42 Q 542 105 582 350 L 589 404 Z" fill="lightgray" class="hide"/>
    <path d="M 582 350 Q 754 17 816 13 Q 891 14 955 14 Q 983 15 983 21 Q 986 28 956 47 Q 809 122 755 182 Q 661 287 589 404 C 573 429 568 377 582 350 Z" fill="lightgray" class="hide"/>
    <path d="M 725 675 Q 765 647 810 614 Q 825 602 842 604 Q 852 605 857 620 Q 860 636 848 666 Q 838 691 799 706 Q 759 716 715 724 Q 699 727 692 723 Q 688 719 690 705 Q 694 695 725 675 Z" fill="lightgray" class="hide"/></g><g transform="scale(1, -1) translate(0, -900)">
    <style type="text/css">
        .origin {display:none;}
        .hide {display:none;}
        .stroke {fill: #000000;}
        
.step1 {transform: translateX(1024px);}
.step2 {transform: translateX(2048px);}
.step3 {transform: translateX(3072px);}
.step4 {transform: translateX(4096px);}
.step5 {transform: translateX(5120px);}
.step6 {transform: translateX(6144px);}
.step7 {transform: translateX(7168px);}
.step8 {transform: translateX(8192px);}
.step9 {transform: translateX(9216px);}
.step10 {transform: translateX(10240px);}
.step11 {transform: translateX(11264px);}
.step12 {transform: translateX(12288px);}
.step13 {transform: translateX(13312px);}
.step14 {transform: translateX(14336px);}
.step15 {transform: translateX(15360px);}
.step16 {transform: translateX(16384px);}
.step17 {transform: translateX(17408px);}
.step18 {transform: translateX(18432px);}
.step19 {transform: translateX(19456px);}
.step20 {transform: translateX(20480px);}
.step21 {transform: translateX(21504px);}
.step22 {transform: translateX(22528px);}
.step23 {transform: translateX(23552px);}
.step24 {transform: translateX(24576px);}
.step25 {transform: translateX(25600px);}
.step26 {transform: translateX(26624px);}
.step27 {transform: translateX(27648px);}
.step28 {transform: translateX(28672px);}
.step29 {transform: translateX(29696px);}
    </style>

    <path d="M 251 491 Q 294 543 341 610 Q 371 658 396 681 Q 408 691 403 707 Q 399 722 369 748 Q 341 770 320 771 Q 299 770 307 745 Q 319 712 300 672 Q 224 519 61 341 Q 49 331 47 324 Q 43 312 58 314 Q 100 318 207 442 Q 214 451 223 459 L 251 491 Z" fill="lightgray" class="stroke step2"/>
    <path d="M 223 459 Q 244 402 245 334 Q 244 322 244 309 Q 243 203 214 95 Q 204 50 238 -1 Q 239 -1 241 -4 Q 259 -20 271 7 Q 286 47 285 94 Q 288 350 297 408 Q 304 435 295 446 Q 256 488 251 491 C 229 511 213 487 223 459 Z" fill="lightgray" class="stroke step2"/>
    <path d="M 593 439 Q 650 451 837 468 Q 859 471 864 480 Q 868 493 849 508 Q 780 547 722 525 Q 670 510 596 489 L 546 478 Q 458 457 356 434 Q 332 430 352 412 Q 368 399 389 394 Q 413 390 430 397 Q 482 416 542 428 L 593 439 Z" fill="lightgray" class="stroke step2"/>
    <path d="M 589 404 Q 590 422 593 439 L 596 489 Q 608 705 626 744 Q 633 760 621 772 Q 596 791 554 802 Q 527 809 518 801 Q 508 794 517 780 Q 562 711 546 478 L 542 428 Q 524 260 455 162 Q 407 105 320 45 Q 307 35 308 31 Q 309 27 322 27 Q 338 23 380 42 Q 542 105 582 350 L 589 404 Z" fill="lightgray" class="hide"/>
    <path d="M 582 350 Q 754 17 816 13 Q 891 14 955 14 Q 983 15 983 21 Q 986 28 956 47 Q 809 122 755 182 Q 661 287 589 404 C 573 429 568 377 582 350 Z" fill="lightgray" class="hide"/>
    <path d="M 725 675 Q 765 647 810 614 Q 825 602 842 604 Q 852 605 857 620 Q 860 636 848 666 Q 838 691 799 706 Q 759 716 715 724 Q 699 727 692 723 Q 688 719 690 705 Q 694 695 725 675 Z" fill="lightgray" class="hide"/></g><g transform="scale(1, -1) translate(0, -900)">
    <style type="text/css">
        .origin {display:none;}
        .hide {display:none;}
        .stroke {fill: #000000;}
        
.step1 {transform: translateX(1024px);}
.step2 {transform: translateX(2048px);}
.step3 {transform: translateX(3072px);}
.step4 {transform: translateX(4096px);}
.step5 {transform: translateX(5120px);}
.step6 {transform: translateX(6144px);}
.step7 {transform: translateX(7168px);}
.step8 {transform: translateX(8192px);}
.step9 {transform: translateX(9216px);}
.step10 {transform: translateX(10240px);}
.step11 {transform: translateX(11264px);}
.step12 {transform: translateX(12288px);}
.step13 {transform: translateX(13312px);}
.step14 {transform: translateX(14336px);}
.step15 {transform: translateX(15360px);}
.step16 {transform: translateX(16384px);}
.step17 {transform: translateX(17408px);}
.step18 {transform: translateX(18432px);}
.step19 {transform: translateX(19456px);}
.step20 {transform: translateX(20480px);}
.step21 {transform: translateX(21504px);}
.step22 {transform: translateX(22528px);}
.step23 {transform: translateX(23552px);}
.step24 {transform: translateX(24576px);}
.step25 {transform: translateX(25600px);}
.step26 {transform: translateX(26624px);}
.step27 {transform: translateX(27648px);}
.step28 {transform: translateX(28672px);}
.step29 {transform: translateX(29696px);}
    </style>

    <path d="M 251 491 Q 294 543 341 610 Q 371 658 396 681 Q 408 691 403 707 Q 399 722 369 748 Q 341 770 320 771 Q 299 770 307 745 Q 319 712 300 672 Q 224 519 61 341 Q 49 331 47 324 Q 43 312 58 314 Q 100 318 207 442 Q 214 451 223 459 L 251 491 Z" fill="lightgray" class="stroke step3"/>
    <path d="M 223 459 Q 244 402 245 334 Q 244 322 244 309 Q 243 203 214 95 Q 204 50 238 -1 Q 239 -1 241 -4 Q 259 -20 271 7 Q 286 47 285 94 Q 288 350 297 408 Q 304 435 295 446 Q 256 488 251 491 C 229 511 213 487 223 459 Z" fill="lightgray" class="stroke step3"/>
    <path d="M 593 439 Q 650 451 837 468 Q 859 471 864 480 Q 868 493 849 508 Q 780 547 722 525 Q 670 510 596 489 L 546 478 Q 458 457 356 434 Q 332 430 352 412 Q 368 399 389 394 Q 413 390 430 397 Q 482 416 542 428 L 593 439 Z" fill="lightgray" class="stroke step3"/>
    <path d="M 589 404 Q 590 422 593 439 L 596 489 Q 608 705 626 744 Q 633 760 621 772 Q 596 791 554 802 Q 527 809 518 801 Q 508 794 517 780 Q 562 711 546 478 L 542 428 Q 524 260 455 162 Q 407 105 320 45 Q 307 35 308 31 Q 309 27 322 27 Q 338 23 380 42 Q 542 105 582 350 L 589 404 Z" fill="lightgray" class="stroke step3"/>
    <path d="M 582 350 Q 754 17 816 13 Q 891 14 955 14 Q 983 15 983 21 Q 986 28 956 47 Q 809 122 755 182 Q 661 287 589 404 C 573 429 568 377 582 350 Z" fill="lightgray" class="hide"/>
    <path d="M 725 675 Q 765 647 810 614 Q 825 602 842 604 Q 852 605 857 620 Q 860 636 848 666 Q 838 691 799 706 Q 759 716 715 724 Q 699 727 692 723 Q 688 719 690 705 Q 694 695 725 675 Z" fill="lightgray" class="hide"/></g><g transform="scale(1, -1) translate(0, -900)">
    <style type="text/css">
        .origin {display:none;}
        .hide {display:none;}
        .stroke {fill: #000000;}
        
.step1 {transform: translateX(1024px);}
.step2 {transform: translateX(2048px);}
.step3 {transform: translateX(3072px);}
.step4 {transform: translateX(4096px);}
.step5 {transform: translateX(5120px);}
.step6 {transform: translateX(6144px);}
.step7 {transform: translateX(7168px);}
.step8 {transform: translateX(8192px);}
.step9 {transform: translateX(9216px);}
.step10 {transform: translateX(10240px);}
.step11 {transform: translateX(11264px);}
.step12 {transform: translateX(12288px);}
.step13 {transform: translateX(13312px);}
.step14 {transform: translateX(14336px);}
.step15 {transform: translateX(15360px);}
.step16 {transform: translateX(16384px);}
.step17 {transform: translateX(17408px);}
.step18 {transform: translateX(18432px);}
.step19 {transform: translateX(19456px);}
.step20 {transform: translateX(20480px);}
.step21 {transform: translateX(21504px);}
.step22 {transform: translateX(22528px);}
.step23 {transform: translateX(23552px);}
.step24 {transform: translateX(24576px);}
.step25 {transform: translateX(25600px);}
.step26 {transform: translateX(26624px);}
.step27 {transform: translateX(27648px);}
.step28 {transform: translateX(28672px);}
.step29 {transform: translateX(29696px);}
    </style>

    <path d="M 251 491 Q 294 543 341 610 Q 371 658 396 681 Q 408 691 403 707 Q 399 722 369 748 Q 341 770 320 771 Q 299 770 307 745 Q 319 712 300 672 Q 224 519 61 341 Q 49 331 47 324 Q 43 312 58 314 Q 100 318 207 442 Q 214 451 223 459 L 251 491 Z" fill="lightgray" class="stroke step4"/>
    <path d="M 223 459 Q 244 402 245 334 Q 244 322 244 309 Q 243 203 214 95 Q 204 50 238 -1 Q 239 -1 241 -4 Q 259 -20 271 7 Q 286 47 285 94 Q 288 350 297 408 Q 304 435 295 446 Q 256 488 251 491 C 229 511 213 487 223 459 Z" fill="lightgray" class="stroke step4"/>
    <path d="M 593 439 Q 650 451 837 468 Q 859 471 864 480 Q 868 493 849 508 Q 780 547 722 525 Q 670 510 596 489 L 546 478 Q 458 457 356 434 Q 332 430 352 412 Q 368 399 389 394 Q 413 390 430 397 Q 482 416 542 428 L 593 439 Z" fill="lightgray" class="stroke step4"/>
    <path d="M 589 404 Q 590 422 593 439 L 596 489 Q 608 705 626 744 Q 633 760 621 772 Q 596 791 554 802 Q 527 809 518 801 Q 508 794 517 780 Q 562 711 546 478 L 542 428 Q 524 260 455 162 Q 407 105 320 45 Q 307 35 308 31 Q 309 27 322 27 Q 338 23 380 42 Q 542 105 582 350 L 589 404 Z" fill="lightgray" class="stroke step4"/>
    <path d="M 582 350 Q 754 17 816 13 Q 891 14 955 14 Q 983 15 983 21 Q 986 28 956 47 Q 809 122 755 182 Q 661 287 589 404 C 573 429 568 377 582 350 Z" fill="lightgray" class="stroke step4"/>
    <path d="M 725 675 Q 765 647 810 614 Q 825 602 842 604 Q 852 605 857 620 Q 860 636 848 666 Q 838 691 799 706 Q 759 716 715 724 Q 699 727 692 723 Q 688 719 690 705 Q 694 695 725 675 Z" fill="lightgray" class="hide"/></g><g transform="scale(1, -1) translate(0, -900)">
    <style type="text/css">
        .origin {display:none;}
        .hide {display:none;}
        .stroke {fill: #000000;}
        
.step1 {transform: translateX(1024px);}
.step2 {transform: translateX(2048px);}
.step3 {transform: translateX(3072px);}
.step4 {transform: translateX(4096px);}
.step5 {transform: translateX(5120px);}
.step6 {transform: translateX(6144px);}
.step7 {transform: translateX(7168px);}
.step8 {transform: translateX(8192px);}
.step9 {transform: translateX(9216px);}
.step10 {transform: translateX(10240px);}
.step11 {transform: translateX(11264px);}
.step12 {transform: translateX(12288px);}
.step13 {transform: translateX(13312px);}
.step14 {transform: translateX(14336px);}
.step15 {transform: translateX(15360px);}
.step16 {transform: translateX(16384px);}
.step17 {transform: translateX(17408px);}
.step18 {transform: translateX(18432px);}
.step19 {transform: translateX(19456px);}
.step20 {transform: translateX(20480px);}
.step21 {transform: translateX(21504px);}
.step22 {transform: translateX(22528px);}
.step23 {transform: translateX(23552px);}
.step24 {transform: translateX(24576px);}
.step25 {transform: translateX(25600px);}
.step26 {transform: translateX(26624px);}
.step27 {transform: translateX(27648px);}
.step28 {transform: translateX(28672px);}
.step29 {transform: translateX(29696px);}
    </style>

    <path d="M 251 491 Q 294 543 341 610 Q 371 658 396 681 Q 408 691 403 707 Q 399 722 369 748 Q 341 770 320 771 Q 299 770 307 745 Q 319 712 300 672 Q 224 519 61 341 Q 49 331 47 324 Q 43 312 58 314 Q 100 318 207 442 Q 214 451 223 459 L 251 491 Z" fill="lightgray" class="stroke step5"/>
    <path d="M 223 459 Q 244 402 245 334 Q 244 322 244 309 Q 243 203 214 95 Q 204 50 238 -1 Q 239 -1 241 -4 Q 259 -20 271 7 Q 286 47 285 94 Q 288 350 297 408 Q 304 435 295 446 Q 256 488 251 491 C 229 511 213 487 223 459 Z" fill="lightgray" class="stroke step5"/>
    <path d="M 593 439 Q 650 451 837 468 Q 859 471 864 480 Q 868 493 849 508 Q 780 547 722 525 Q 670 510 596 489 L 546 478 Q 458 457 356 434 Q 332 430 352 412 Q 368 399 389 394 Q 413 390 430 397 Q 482 416 542 428 L 593 439 Z" fill="lightgray" class="stroke step5"/>
    <path d="M 589 404 Q 590 422 593 439 L 596 489 Q 608 705 626 744 Q 633 760 621 772 Q 596 791 554 802 Q 527 809 518 801 Q 508 794 517 780 Q 562 711 546 478 L 542 428 Q 524 260 455 162 Q 407 105 320 45 Q 307 35 308 31 Q 309 27 322 27 Q 338 23 380 42 Q 542 105 582 350 L 589 404 Z" fill="lightgray" class="stroke step5"/>
    <path d="M 582 350 Q 754 17 816 13 Q 891 14 955 14 Q 983 15 983 21 Q 986 28 956 47 Q 809 122 755 182 Q 661 287 589 404 C 573 429 568 377 582 350 Z" fill="lightgray" class="stroke step5"/>
    <path d="M 725 675 Q 765 647 810 614 Q 825 602 842 604 Q 852 605 857 620 Q 860 636 848 666 Q 838 691 799 706 Q 759 716 715 724 Q 699 727 692 723 Q 688 719 690 705 Q 694 695 725 675 Z" fill="lightgray" class="stroke step5"/></g></svg>