<svg version="1.1" viewBox="0 0 8192 1024" xmlns="http://www.w3.org/2000/svg">
  
  <g transform="scale(1, -1) translate(0, -900)" class="origin">
    <style type="text/css">
        .origin {display:none;}
        .hide {display:none;}
        .stroke {fill: #000000;}
        
.step1 {transform: translateX(1024px);}
.step2 {transform: translateX(2048px);}
.step3 {transform: translateX(3072px);}
.step4 {transform: translateX(4096px);}
.step5 {transform: translateX(5120px);}
.step6 {transform: translateX(6144px);}
.step7 {transform: translateX(7168px);}
.step8 {transform: translateX(8192px);}
.step9 {transform: translateX(9216px);}
.step10 {transform: translateX(10240px);}
.step11 {transform: translateX(11264px);}
.step12 {transform: translateX(12288px);}
.step13 {transform: translateX(13312px);}
.step14 {transform: translateX(14336px);}
.step15 {transform: translateX(15360px);}
.step16 {transform: translateX(16384px);}
.step17 {transform: translateX(17408px);}
.step18 {transform: translateX(18432px);}
.step19 {transform: translateX(19456px);}
.step20 {transform: translateX(20480px);}
.step21 {transform: translateX(21504px);}
.step22 {transform: translateX(22528px);}
.step23 {transform: translateX(23552px);}
.step24 {transform: translateX(24576px);}
.step25 {transform: translateX(25600px);}
.step26 {transform: translateX(26624px);}
.step27 {transform: translateX(27648px);}
.step28 {transform: translateX(28672px);}
.step29 {transform: translateX(29696px);}
    </style>

    <path d="M 232 536 Q 268 588 307 654 Q 334 706 358 730 Q 368 742 362 757 Q 358 770 325 795 Q 295 814 274 814 Q 253 811 263 787 Q 279 754 267 726 Q 204 558 46 358 Q 36 346 33 340 Q 30 327 45 330 Q 87 339 185 472 Q 195 485 205 498 L 232 536 Z" fill="lightgray"/>
    <path d="M 205 498 Q 206 492 210 487 Q 240 427 215 231 Q 206 176 191 119 Q 178 73 213 21 Q 214 17 219 13 Q 238 -5 251 25 Q 267 68 266 118 Q 273 386 283 445 Q 292 475 280 486 Q 241 531 232 536 C 209 556 193 525 205 498 Z" fill="lightgray"/>
    <path d="M 607 641 Q 610 645 720 656 Q 781 662 859 664 Q 919 664 925 675 Q 929 688 912 701 Q 860 737 818 729 Q 722 704 380 644 Q 358 640 375 623 Q 411 593 448 606 Q 497 622 555 632 L 607 641 Z" fill="lightgray"/>
    <path d="M 542 450 Q 564 477 606 546 Q 615 562 631 583 Q 649 596 639 609 Q 629 625 607 641 C 583 659 552 662 555 632 Q 561 595 521 483 Q 512 461 511 446 C 507 416 523 426 542 450 Z" fill="lightgray"/>
    <path d="M 496 443 Q 477 462 440 471 Q 431 472 426 465 Q 422 459 430 449 Q 466 365 449 185 Q 434 125 439 104 Q 449 71 461 59 Q 471 46 481 60 Q 490 73 495 93 L 500 124 Q 501 142 502 262 L 501 289 Q 500 373 501 407 C 502 437 502 438 496 443 Z" fill="lightgray"/>
    <path d="M 694 106 Q 707 81 741 28 Q 753 10 763 13 Q 779 17 786 46 Q 814 119 809 215 Q 810 276 808 345 Q 811 394 833 427 Q 849 449 836 461 Q 812 483 763 501 Q 745 510 653 476 Q 607 464 542 450 L 511 446 Q 504 446 496 443 C 466 438 471 403 501 407 Q 508 406 516 408 Q 711 453 727 439 Q 761 384 741 153 Q 741 131 732 127 Q 731 126 722 127 C 696 112 692 109 694 106 Z" fill="lightgray"/>
    <path d="M 502 262 Q 505 262 680 281 Q 707 285 697 299 Q 685 315 657 321 Q 632 325 501 289 C 472 281 472 259 502 262 Z" fill="lightgray"/>
    <path d="M 495 93 Q 502 86 526 90 Q 581 100 694 106 C 724 108 740 108 722 127 Q 713 137 696 149 Q 678 159 646 151 Q 565 133 500 124 C 470 120 468 107 495 93 Z" fill="lightgray"/></g>
<g transform="scale(1, -1) translate(0, -900)">
    <style type="text/css">
        .origin {display:none;}
        .hide {display:none;}
        .stroke {fill: #000000;}
        
.step1 {transform: translateX(1024px);}
.step2 {transform: translateX(2048px);}
.step3 {transform: translateX(3072px);}
.step4 {transform: translateX(4096px);}
.step5 {transform: translateX(5120px);}
.step6 {transform: translateX(6144px);}
.step7 {transform: translateX(7168px);}
.step8 {transform: translateX(8192px);}
.step9 {transform: translateX(9216px);}
.step10 {transform: translateX(10240px);}
.step11 {transform: translateX(11264px);}
.step12 {transform: translateX(12288px);}
.step13 {transform: translateX(13312px);}
.step14 {transform: translateX(14336px);}
.step15 {transform: translateX(15360px);}
.step16 {transform: translateX(16384px);}
.step17 {transform: translateX(17408px);}
.step18 {transform: translateX(18432px);}
.step19 {transform: translateX(19456px);}
.step20 {transform: translateX(20480px);}
.step21 {transform: translateX(21504px);}
.step22 {transform: translateX(22528px);}
.step23 {transform: translateX(23552px);}
.step24 {transform: translateX(24576px);}
.step25 {transform: translateX(25600px);}
.step26 {transform: translateX(26624px);}
.step27 {transform: translateX(27648px);}
.step28 {transform: translateX(28672px);}
.step29 {transform: translateX(29696px);}
    </style>

    <path d="M 232 536 Q 268 588 307 654 Q 334 706 358 730 Q 368 742 362 757 Q 358 770 325 795 Q 295 814 274 814 Q 253 811 263 787 Q 279 754 267 726 Q 204 558 46 358 Q 36 346 33 340 Q 30 327 45 330 Q 87 339 185 472 Q 195 485 205 498 L 232 536 Z" fill="lightgray" class="stroke step0"/>
    <path d="M 205 498 Q 206 492 210 487 Q 240 427 215 231 Q 206 176 191 119 Q 178 73 213 21 Q 214 17 219 13 Q 238 -5 251 25 Q 267 68 266 118 Q 273 386 283 445 Q 292 475 280 486 Q 241 531 232 536 C 209 556 193 525 205 498 Z" fill="lightgray" class="hide"/>
    <path d="M 607 641 Q 610 645 720 656 Q 781 662 859 664 Q 919 664 925 675 Q 929 688 912 701 Q 860 737 818 729 Q 722 704 380 644 Q 358 640 375 623 Q 411 593 448 606 Q 497 622 555 632 L 607 641 Z" fill="lightgray" class="hide"/>
    <path d="M 542 450 Q 564 477 606 546 Q 615 562 631 583 Q 649 596 639 609 Q 629 625 607 641 C 583 659 552 662 555 632 Q 561 595 521 483 Q 512 461 511 446 C 507 416 523 426 542 450 Z" fill="lightgray" class="hide"/>
    <path d="M 496 443 Q 477 462 440 471 Q 431 472 426 465 Q 422 459 430 449 Q 466 365 449 185 Q 434 125 439 104 Q 449 71 461 59 Q 471 46 481 60 Q 490 73 495 93 L 500 124 Q 501 142 502 262 L 501 289 Q 500 373 501 407 C 502 437 502 438 496 443 Z" fill="lightgray" class="hide"/>
    <path d="M 694 106 Q 707 81 741 28 Q 753 10 763 13 Q 779 17 786 46 Q 814 119 809 215 Q 810 276 808 345 Q 811 394 833 427 Q 849 449 836 461 Q 812 483 763 501 Q 745 510 653 476 Q 607 464 542 450 L 511 446 Q 504 446 496 443 C 466 438 471 403 501 407 Q 508 406 516 408 Q 711 453 727 439 Q 761 384 741 153 Q 741 131 732 127 Q 731 126 722 127 C 696 112 692 109 694 106 Z" fill="lightgray" class="hide"/>
    <path d="M 502 262 Q 505 262 680 281 Q 707 285 697 299 Q 685 315 657 321 Q 632 325 501 289 C 472 281 472 259 502 262 Z" fill="lightgray" class="hide"/>
    <path d="M 495 93 Q 502 86 526 90 Q 581 100 694 106 C 724 108 740 108 722 127 Q 713 137 696 149 Q 678 159 646 151 Q 565 133 500 124 C 470 120 468 107 495 93 Z" fill="lightgray" class="hide"/></g><g transform="scale(1, -1) translate(0, -900)">
    <style type="text/css">
        .origin {display:none;}
        .hide {display:none;}
        .stroke {fill: #000000;}
        
.step1 {transform: translateX(1024px);}
.step2 {transform: translateX(2048px);}
.step3 {transform: translateX(3072px);}
.step4 {transform: translateX(4096px);}
.step5 {transform: translateX(5120px);}
.step6 {transform: translateX(6144px);}
.step7 {transform: translateX(7168px);}
.step8 {transform: translateX(8192px);}
.step9 {transform: translateX(9216px);}
.step10 {transform: translateX(10240px);}
.step11 {transform: translateX(11264px);}
.step12 {transform: translateX(12288px);}
.step13 {transform: translateX(13312px);}
.step14 {transform: translateX(14336px);}
.step15 {transform: translateX(15360px);}
.step16 {transform: translateX(16384px);}
.step17 {transform: translateX(17408px);}
.step18 {transform: translateX(18432px);}
.step19 {transform: translateX(19456px);}
.step20 {transform: translateX(20480px);}
.step21 {transform: translateX(21504px);}
.step22 {transform: translateX(22528px);}
.step23 {transform: translateX(23552px);}
.step24 {transform: translateX(24576px);}
.step25 {transform: translateX(25600px);}
.step26 {transform: translateX(26624px);}
.step27 {transform: translateX(27648px);}
.step28 {transform: translateX(28672px);}
.step29 {transform: translateX(29696px);}
    </style>

    <path d="M 232 536 Q 268 588 307 654 Q 334 706 358 730 Q 368 742 362 757 Q 358 770 325 795 Q 295 814 274 814 Q 253 811 263 787 Q 279 754 267 726 Q 204 558 46 358 Q 36 346 33 340 Q 30 327 45 330 Q 87 339 185 472 Q 195 485 205 498 L 232 536 Z" fill="lightgray" class="stroke step1"/>
    <path d="M 205 498 Q 206 492 210 487 Q 240 427 215 231 Q 206 176 191 119 Q 178 73 213 21 Q 214 17 219 13 Q 238 -5 251 25 Q 267 68 266 118 Q 273 386 283 445 Q 292 475 280 486 Q 241 531 232 536 C 209 556 193 525 205 498 Z" fill="lightgray" class="stroke step1"/>
    <path d="M 607 641 Q 610 645 720 656 Q 781 662 859 664 Q 919 664 925 675 Q 929 688 912 701 Q 860 737 818 729 Q 722 704 380 644 Q 358 640 375 623 Q 411 593 448 606 Q 497 622 555 632 L 607 641 Z" fill="lightgray" class="hide"/>
    <path d="M 542 450 Q 564 477 606 546 Q 615 562 631 583 Q 649 596 639 609 Q 629 625 607 641 C 583 659 552 662 555 632 Q 561 595 521 483 Q 512 461 511 446 C 507 416 523 426 542 450 Z" fill="lightgray" class="hide"/>
    <path d="M 496 443 Q 477 462 440 471 Q 431 472 426 465 Q 422 459 430 449 Q 466 365 449 185 Q 434 125 439 104 Q 449 71 461 59 Q 471 46 481 60 Q 490 73 495 93 L 500 124 Q 501 142 502 262 L 501 289 Q 500 373 501 407 C 502 437 502 438 496 443 Z" fill="lightgray" class="hide"/>
    <path d="M 694 106 Q 707 81 741 28 Q 753 10 763 13 Q 779 17 786 46 Q 814 119 809 215 Q 810 276 808 345 Q 811 394 833 427 Q 849 449 836 461 Q 812 483 763 501 Q 745 510 653 476 Q 607 464 542 450 L 511 446 Q 504 446 496 443 C 466 438 471 403 501 407 Q 508 406 516 408 Q 711 453 727 439 Q 761 384 741 153 Q 741 131 732 127 Q 731 126 722 127 C 696 112 692 109 694 106 Z" fill="lightgray" class="hide"/>
    <path d="M 502 262 Q 505 262 680 281 Q 707 285 697 299 Q 685 315 657 321 Q 632 325 501 289 C 472 281 472 259 502 262 Z" fill="lightgray" class="hide"/>
    <path d="M 495 93 Q 502 86 526 90 Q 581 100 694 106 C 724 108 740 108 722 127 Q 713 137 696 149 Q 678 159 646 151 Q 565 133 500 124 C 470 120 468 107 495 93 Z" fill="lightgray" class="hide"/></g><g transform="scale(1, -1) translate(0, -900)">
    <style type="text/css">
        .origin {display:none;}
        .hide {display:none;}
        .stroke {fill: #000000;}
        
.step1 {transform: translateX(1024px);}
.step2 {transform: translateX(2048px);}
.step3 {transform: translateX(3072px);}
.step4 {transform: translateX(4096px);}
.step5 {transform: translateX(5120px);}
.step6 {transform: translateX(6144px);}
.step7 {transform: translateX(7168px);}
.step8 {transform: translateX(8192px);}
.step9 {transform: translateX(9216px);}
.step10 {transform: translateX(10240px);}
.step11 {transform: translateX(11264px);}
.step12 {transform: translateX(12288px);}
.step13 {transform: translateX(13312px);}
.step14 {transform: translateX(14336px);}
.step15 {transform: translateX(15360px);}
.step16 {transform: translateX(16384px);}
.step17 {transform: translateX(17408px);}
.step18 {transform: translateX(18432px);}
.step19 {transform: translateX(19456px);}
.step20 {transform: translateX(20480px);}
.step21 {transform: translateX(21504px);}
.step22 {transform: translateX(22528px);}
.step23 {transform: translateX(23552px);}
.step24 {transform: translateX(24576px);}
.step25 {transform: translateX(25600px);}
.step26 {transform: translateX(26624px);}
.step27 {transform: translateX(27648px);}
.step28 {transform: translateX(28672px);}
.step29 {transform: translateX(29696px);}
    </style>

    <path d="M 232 536 Q 268 588 307 654 Q 334 706 358 730 Q 368 742 362 757 Q 358 770 325 795 Q 295 814 274 814 Q 253 811 263 787 Q 279 754 267 726 Q 204 558 46 358 Q 36 346 33 340 Q 30 327 45 330 Q 87 339 185 472 Q 195 485 205 498 L 232 536 Z" fill="lightgray" class="stroke step2"/>
    <path d="M 205 498 Q 206 492 210 487 Q 240 427 215 231 Q 206 176 191 119 Q 178 73 213 21 Q 214 17 219 13 Q 238 -5 251 25 Q 267 68 266 118 Q 273 386 283 445 Q 292 475 280 486 Q 241 531 232 536 C 209 556 193 525 205 498 Z" fill="lightgray" class="stroke step2"/>
    <path d="M 607 641 Q 610 645 720 656 Q 781 662 859 664 Q 919 664 925 675 Q 929 688 912 701 Q 860 737 818 729 Q 722 704 380 644 Q 358 640 375 623 Q 411 593 448 606 Q 497 622 555 632 L 607 641 Z" fill="lightgray" class="stroke step2"/>
    <path d="M 542 450 Q 564 477 606 546 Q 615 562 631 583 Q 649 596 639 609 Q 629 625 607 641 C 583 659 552 662 555 632 Q 561 595 521 483 Q 512 461 511 446 C 507 416 523 426 542 450 Z" fill="lightgray" class="hide"/>
    <path d="M 496 443 Q 477 462 440 471 Q 431 472 426 465 Q 422 459 430 449 Q 466 365 449 185 Q 434 125 439 104 Q 449 71 461 59 Q 471 46 481 60 Q 490 73 495 93 L 500 124 Q 501 142 502 262 L 501 289 Q 500 373 501 407 C 502 437 502 438 496 443 Z" fill="lightgray" class="hide"/>
    <path d="M 694 106 Q 707 81 741 28 Q 753 10 763 13 Q 779 17 786 46 Q 814 119 809 215 Q 810 276 808 345 Q 811 394 833 427 Q 849 449 836 461 Q 812 483 763 501 Q 745 510 653 476 Q 607 464 542 450 L 511 446 Q 504 446 496 443 C 466 438 471 403 501 407 Q 508 406 516 408 Q 711 453 727 439 Q 761 384 741 153 Q 741 131 732 127 Q 731 126 722 127 C 696 112 692 109 694 106 Z" fill="lightgray" class="hide"/>
    <path d="M 502 262 Q 505 262 680 281 Q 707 285 697 299 Q 685 315 657 321 Q 632 325 501 289 C 472 281 472 259 502 262 Z" fill="lightgray" class="hide"/>
    <path d="M 495 93 Q 502 86 526 90 Q 581 100 694 106 C 724 108 740 108 722 127 Q 713 137 696 149 Q 678 159 646 151 Q 565 133 500 124 C 470 120 468 107 495 93 Z" fill="lightgray" class="hide"/></g><g transform="scale(1, -1) translate(0, -900)">
    <style type="text/css">
        .origin {display:none;}
        .hide {display:none;}
        .stroke {fill: #000000;}
        
.step1 {transform: translateX(1024px);}
.step2 {transform: translateX(2048px);}
.step3 {transform: translateX(3072px);}
.step4 {transform: translateX(4096px);}
.step5 {transform: translateX(5120px);}
.step6 {transform: translateX(6144px);}
.step7 {transform: translateX(7168px);}
.step8 {transform: translateX(8192px);}
.step9 {transform: translateX(9216px);}
.step10 {transform: translateX(10240px);}
.step11 {transform: translateX(11264px);}
.step12 {transform: translateX(12288px);}
.step13 {transform: translateX(13312px);}
.step14 {transform: translateX(14336px);}
.step15 {transform: translateX(15360px);}
.step16 {transform: translateX(16384px);}
.step17 {transform: translateX(17408px);}
.step18 {transform: translateX(18432px);}
.step19 {transform: translateX(19456px);}
.step20 {transform: translateX(20480px);}
.step21 {transform: translateX(21504px);}
.step22 {transform: translateX(22528px);}
.step23 {transform: translateX(23552px);}
.step24 {transform: translateX(24576px);}
.step25 {transform: translateX(25600px);}
.step26 {transform: translateX(26624px);}
.step27 {transform: translateX(27648px);}
.step28 {transform: translateX(28672px);}
.step29 {transform: translateX(29696px);}
    </style>

    <path d="M 232 536 Q 268 588 307 654 Q 334 706 358 730 Q 368 742 362 757 Q 358 770 325 795 Q 295 814 274 814 Q 253 811 263 787 Q 279 754 267 726 Q 204 558 46 358 Q 36 346 33 340 Q 30 327 45 330 Q 87 339 185 472 Q 195 485 205 498 L 232 536 Z" fill="lightgray" class="stroke step3"/>
    <path d="M 205 498 Q 206 492 210 487 Q 240 427 215 231 Q 206 176 191 119 Q 178 73 213 21 Q 214 17 219 13 Q 238 -5 251 25 Q 267 68 266 118 Q 273 386 283 445 Q 292 475 280 486 Q 241 531 232 536 C 209 556 193 525 205 498 Z" fill="lightgray" class="stroke step3"/>
    <path d="M 607 641 Q 610 645 720 656 Q 781 662 859 664 Q 919 664 925 675 Q 929 688 912 701 Q 860 737 818 729 Q 722 704 380 644 Q 358 640 375 623 Q 411 593 448 606 Q 497 622 555 632 L 607 641 Z" fill="lightgray" class="stroke step3"/>
    <path d="M 542 450 Q 564 477 606 546 Q 615 562 631 583 Q 649 596 639 609 Q 629 625 607 641 C 583 659 552 662 555 632 Q 561 595 521 483 Q 512 461 511 446 C 507 416 523 426 542 450 Z" fill="lightgray" class="stroke step3"/>
    <path d="M 496 443 Q 477 462 440 471 Q 431 472 426 465 Q 422 459 430 449 Q 466 365 449 185 Q 434 125 439 104 Q 449 71 461 59 Q 471 46 481 60 Q 490 73 495 93 L 500 124 Q 501 142 502 262 L 501 289 Q 500 373 501 407 C 502 437 502 438 496 443 Z" fill="lightgray" class="hide"/>
    <path d="M 694 106 Q 707 81 741 28 Q 753 10 763 13 Q 779 17 786 46 Q 814 119 809 215 Q 810 276 808 345 Q 811 394 833 427 Q 849 449 836 461 Q 812 483 763 501 Q 745 510 653 476 Q 607 464 542 450 L 511 446 Q 504 446 496 443 C 466 438 471 403 501 407 Q 508 406 516 408 Q 711 453 727 439 Q 761 384 741 153 Q 741 131 732 127 Q 731 126 722 127 C 696 112 692 109 694 106 Z" fill="lightgray" class="hide"/>
    <path d="M 502 262 Q 505 262 680 281 Q 707 285 697 299 Q 685 315 657 321 Q 632 325 501 289 C 472 281 472 259 502 262 Z" fill="lightgray" class="hide"/>
    <path d="M 495 93 Q 502 86 526 90 Q 581 100 694 106 C 724 108 740 108 722 127 Q 713 137 696 149 Q 678 159 646 151 Q 565 133 500 124 C 470 120 468 107 495 93 Z" fill="lightgray" class="hide"/></g><g transform="scale(1, -1) translate(0, -900)">
    <style type="text/css">
        .origin {display:none;}
        .hide {display:none;}
        .stroke {fill: #000000;}
        
.step1 {transform: translateX(1024px);}
.step2 {transform: translateX(2048px);}
.step3 {transform: translateX(3072px);}
.step4 {transform: translateX(4096px);}
.step5 {transform: translateX(5120px);}
.step6 {transform: translateX(6144px);}
.step7 {transform: translateX(7168px);}
.step8 {transform: translateX(8192px);}
.step9 {transform: translateX(9216px);}
.step10 {transform: translateX(10240px);}
.step11 {transform: translateX(11264px);}
.step12 {transform: translateX(12288px);}
.step13 {transform: translateX(13312px);}
.step14 {transform: translateX(14336px);}
.step15 {transform: translateX(15360px);}
.step16 {transform: translateX(16384px);}
.step17 {transform: translateX(17408px);}
.step18 {transform: translateX(18432px);}
.step19 {transform: translateX(19456px);}
.step20 {transform: translateX(20480px);}
.step21 {transform: translateX(21504px);}
.step22 {transform: translateX(22528px);}
.step23 {transform: translateX(23552px);}
.step24 {transform: translateX(24576px);}
.step25 {transform: translateX(25600px);}
.step26 {transform: translateX(26624px);}
.step27 {transform: translateX(27648px);}
.step28 {transform: translateX(28672px);}
.step29 {transform: translateX(29696px);}
    </style>

    <path d="M 232 536 Q 268 588 307 654 Q 334 706 358 730 Q 368 742 362 757 Q 358 770 325 795 Q 295 814 274 814 Q 253 811 263 787 Q 279 754 267 726 Q 204 558 46 358 Q 36 346 33 340 Q 30 327 45 330 Q 87 339 185 472 Q 195 485 205 498 L 232 536 Z" fill="lightgray" class="stroke step4"/>
    <path d="M 205 498 Q 206 492 210 487 Q 240 427 215 231 Q 206 176 191 119 Q 178 73 213 21 Q 214 17 219 13 Q 238 -5 251 25 Q 267 68 266 118 Q 273 386 283 445 Q 292 475 280 486 Q 241 531 232 536 C 209 556 193 525 205 498 Z" fill="lightgray" class="stroke step4"/>
    <path d="M 607 641 Q 610 645 720 656 Q 781 662 859 664 Q 919 664 925 675 Q 929 688 912 701 Q 860 737 818 729 Q 722 704 380 644 Q 358 640 375 623 Q 411 593 448 606 Q 497 622 555 632 L 607 641 Z" fill="lightgray" class="stroke step4"/>
    <path d="M 542 450 Q 564 477 606 546 Q 615 562 631 583 Q 649 596 639 609 Q 629 625 607 641 C 583 659 552 662 555 632 Q 561 595 521 483 Q 512 461 511 446 C 507 416 523 426 542 450 Z" fill="lightgray" class="stroke step4"/>
    <path d="M 496 443 Q 477 462 440 471 Q 431 472 426 465 Q 422 459 430 449 Q 466 365 449 185 Q 434 125 439 104 Q 449 71 461 59 Q 471 46 481 60 Q 490 73 495 93 L 500 124 Q 501 142 502 262 L 501 289 Q 500 373 501 407 C 502 437 502 438 496 443 Z" fill="lightgray" class="stroke step4"/>
    <path d="M 694 106 Q 707 81 741 28 Q 753 10 763 13 Q 779 17 786 46 Q 814 119 809 215 Q 810 276 808 345 Q 811 394 833 427 Q 849 449 836 461 Q 812 483 763 501 Q 745 510 653 476 Q 607 464 542 450 L 511 446 Q 504 446 496 443 C 466 438 471 403 501 407 Q 508 406 516 408 Q 711 453 727 439 Q 761 384 741 153 Q 741 131 732 127 Q 731 126 722 127 C 696 112 692 109 694 106 Z" fill="lightgray" class="hide"/>
    <path d="M 502 262 Q 505 262 680 281 Q 707 285 697 299 Q 685 315 657 321 Q 632 325 501 289 C 472 281 472 259 502 262 Z" fill="lightgray" class="hide"/>
    <path d="M 495 93 Q 502 86 526 90 Q 581 100 694 106 C 724 108 740 108 722 127 Q 713 137 696 149 Q 678 159 646 151 Q 565 133 500 124 C 470 120 468 107 495 93 Z" fill="lightgray" class="hide"/></g><g transform="scale(1, -1) translate(0, -900)">
    <style type="text/css">
        .origin {display:none;}
        .hide {display:none;}
        .stroke {fill: #000000;}
        
.step1 {transform: translateX(1024px);}
.step2 {transform: translateX(2048px);}
.step3 {transform: translateX(3072px);}
.step4 {transform: translateX(4096px);}
.step5 {transform: translateX(5120px);}
.step6 {transform: translateX(6144px);}
.step7 {transform: translateX(7168px);}
.step8 {transform: translateX(8192px);}
.step9 {transform: translateX(9216px);}
.step10 {transform: translateX(10240px);}
.step11 {transform: translateX(11264px);}
.step12 {transform: translateX(12288px);}
.step13 {transform: translateX(13312px);}
.step14 {transform: translateX(14336px);}
.step15 {transform: translateX(15360px);}
.step16 {transform: translateX(16384px);}
.step17 {transform: translateX(17408px);}
.step18 {transform: translateX(18432px);}
.step19 {transform: translateX(19456px);}
.step20 {transform: translateX(20480px);}
.step21 {transform: translateX(21504px);}
.step22 {transform: translateX(22528px);}
.step23 {transform: translateX(23552px);}
.step24 {transform: translateX(24576px);}
.step25 {transform: translateX(25600px);}
.step26 {transform: translateX(26624px);}
.step27 {transform: translateX(27648px);}
.step28 {transform: translateX(28672px);}
.step29 {transform: translateX(29696px);}
    </style>

    <path d="M 232 536 Q 268 588 307 654 Q 334 706 358 730 Q 368 742 362 757 Q 358 770 325 795 Q 295 814 274 814 Q 253 811 263 787 Q 279 754 267 726 Q 204 558 46 358 Q 36 346 33 340 Q 30 327 45 330 Q 87 339 185 472 Q 195 485 205 498 L 232 536 Z" fill="lightgray" class="stroke step5"/>
    <path d="M 205 498 Q 206 492 210 487 Q 240 427 215 231 Q 206 176 191 119 Q 178 73 213 21 Q 214 17 219 13 Q 238 -5 251 25 Q 267 68 266 118 Q 273 386 283 445 Q 292 475 280 486 Q 241 531 232 536 C 209 556 193 525 205 498 Z" fill="lightgray" class="stroke step5"/>
    <path d="M 607 641 Q 610 645 720 656 Q 781 662 859 664 Q 919 664 925 675 Q 929 688 912 701 Q 860 737 818 729 Q 722 704 380 644 Q 358 640 375 623 Q 411 593 448 606 Q 497 622 555 632 L 607 641 Z" fill="lightgray" class="stroke step5"/>
    <path d="M 542 450 Q 564 477 606 546 Q 615 562 631 583 Q 649 596 639 609 Q 629 625 607 641 C 583 659 552 662 555 632 Q 561 595 521 483 Q 512 461 511 446 C 507 416 523 426 542 450 Z" fill="lightgray" class="stroke step5"/>
    <path d="M 496 443 Q 477 462 440 471 Q 431 472 426 465 Q 422 459 430 449 Q 466 365 449 185 Q 434 125 439 104 Q 449 71 461 59 Q 471 46 481 60 Q 490 73 495 93 L 500 124 Q 501 142 502 262 L 501 289 Q 500 373 501 407 C 502 437 502 438 496 443 Z" fill="lightgray" class="stroke step5"/>
    <path d="M 694 106 Q 707 81 741 28 Q 753 10 763 13 Q 779 17 786 46 Q 814 119 809 215 Q 810 276 808 345 Q 811 394 833 427 Q 849 449 836 461 Q 812 483 763 501 Q 745 510 653 476 Q 607 464 542 450 L 511 446 Q 504 446 496 443 C 466 438 471 403 501 407 Q 508 406 516 408 Q 711 453 727 439 Q 761 384 741 153 Q 741 131 732 127 Q 731 126 722 127 C 696 112 692 109 694 106 Z" fill="lightgray" class="stroke step5"/>
    <path d="M 502 262 Q 505 262 680 281 Q 707 285 697 299 Q 685 315 657 321 Q 632 325 501 289 C 472 281 472 259 502 262 Z" fill="lightgray" class="hide"/>
    <path d="M 495 93 Q 502 86 526 90 Q 581 100 694 106 C 724 108 740 108 722 127 Q 713 137 696 149 Q 678 159 646 151 Q 565 133 500 124 C 470 120 468 107 495 93 Z" fill="lightgray" class="hide"/></g><g transform="scale(1, -1) translate(0, -900)">
    <style type="text/css">
        .origin {display:none;}
        .hide {display:none;}
        .stroke {fill: #000000;}
        
.step1 {transform: translateX(1024px);}
.step2 {transform: translateX(2048px);}
.step3 {transform: translateX(3072px);}
.step4 {transform: translateX(4096px);}
.step5 {transform: translateX(5120px);}
.step6 {transform: translateX(6144px);}
.step7 {transform: translateX(7168px);}
.step8 {transform: translateX(8192px);}
.step9 {transform: translateX(9216px);}
.step10 {transform: translateX(10240px);}
.step11 {transform: translateX(11264px);}
.step12 {transform: translateX(12288px);}
.step13 {transform: translateX(13312px);}
.step14 {transform: translateX(14336px);}
.step15 {transform: translateX(15360px);}
.step16 {transform: translateX(16384px);}
.step17 {transform: translateX(17408px);}
.step18 {transform: translateX(18432px);}
.step19 {transform: translateX(19456px);}
.step20 {transform: translateX(20480px);}
.step21 {transform: translateX(21504px);}
.step22 {transform: translateX(22528px);}
.step23 {transform: translateX(23552px);}
.step24 {transform: translateX(24576px);}
.step25 {transform: translateX(25600px);}
.step26 {transform: translateX(26624px);}
.step27 {transform: translateX(27648px);}
.step28 {transform: translateX(28672px);}
.step29 {transform: translateX(29696px);}
    </style>

    <path d="M 232 536 Q 268 588 307 654 Q 334 706 358 730 Q 368 742 362 757 Q 358 770 325 795 Q 295 814 274 814 Q 253 811 263 787 Q 279 754 267 726 Q 204 558 46 358 Q 36 346 33 340 Q 30 327 45 330 Q 87 339 185 472 Q 195 485 205 498 L 232 536 Z" fill="lightgray" class="stroke step6"/>
    <path d="M 205 498 Q 206 492 210 487 Q 240 427 215 231 Q 206 176 191 119 Q 178 73 213 21 Q 214 17 219 13 Q 238 -5 251 25 Q 267 68 266 118 Q 273 386 283 445 Q 292 475 280 486 Q 241 531 232 536 C 209 556 193 525 205 498 Z" fill="lightgray" class="stroke step6"/>
    <path d="M 607 641 Q 610 645 720 656 Q 781 662 859 664 Q 919 664 925 675 Q 929 688 912 701 Q 860 737 818 729 Q 722 704 380 644 Q 358 640 375 623 Q 411 593 448 606 Q 497 622 555 632 L 607 641 Z" fill="lightgray" class="stroke step6"/>
    <path d="M 542 450 Q 564 477 606 546 Q 615 562 631 583 Q 649 596 639 609 Q 629 625 607 641 C 583 659 552 662 555 632 Q 561 595 521 483 Q 512 461 511 446 C 507 416 523 426 542 450 Z" fill="lightgray" class="stroke step6"/>
    <path d="M 496 443 Q 477 462 440 471 Q 431 472 426 465 Q 422 459 430 449 Q 466 365 449 185 Q 434 125 439 104 Q 449 71 461 59 Q 471 46 481 60 Q 490 73 495 93 L 500 124 Q 501 142 502 262 L 501 289 Q 500 373 501 407 C 502 437 502 438 496 443 Z" fill="lightgray" class="stroke step6"/>
    <path d="M 694 106 Q 707 81 741 28 Q 753 10 763 13 Q 779 17 786 46 Q 814 119 809 215 Q 810 276 808 345 Q 811 394 833 427 Q 849 449 836 461 Q 812 483 763 501 Q 745 510 653 476 Q 607 464 542 450 L 511 446 Q 504 446 496 443 C 466 438 471 403 501 407 Q 508 406 516 408 Q 711 453 727 439 Q 761 384 741 153 Q 741 131 732 127 Q 731 126 722 127 C 696 112 692 109 694 106 Z" fill="lightgray" class="stroke step6"/>
    <path d="M 502 262 Q 505 262 680 281 Q 707 285 697 299 Q 685 315 657 321 Q 632 325 501 289 C 472 281 472 259 502 262 Z" fill="lightgray" class="stroke step6"/>
    <path d="M 495 93 Q 502 86 526 90 Q 581 100 694 106 C 724 108 740 108 722 127 Q 713 137 696 149 Q 678 159 646 151 Q 565 133 500 124 C 470 120 468 107 495 93 Z" fill="lightgray" class="hide"/></g><g transform="scale(1, -1) translate(0, -900)">
    <style type="text/css">
        .origin {display:none;}
        .hide {display:none;}
        .stroke {fill: #000000;}
        
.step1 {transform: translateX(1024px);}
.step2 {transform: translateX(2048px);}
.step3 {transform: translateX(3072px);}
.step4 {transform: translateX(4096px);}
.step5 {transform: translateX(5120px);}
.step6 {transform: translateX(6144px);}
.step7 {transform: translateX(7168px);}
.step8 {transform: translateX(8192px);}
.step9 {transform: translateX(9216px);}
.step10 {transform: translateX(10240px);}
.step11 {transform: translateX(11264px);}
.step12 {transform: translateX(12288px);}
.step13 {transform: translateX(13312px);}
.step14 {transform: translateX(14336px);}
.step15 {transform: translateX(15360px);}
.step16 {transform: translateX(16384px);}
.step17 {transform: translateX(17408px);}
.step18 {transform: translateX(18432px);}
.step19 {transform: translateX(19456px);}
.step20 {transform: translateX(20480px);}
.step21 {transform: translateX(21504px);}
.step22 {transform: translateX(22528px);}
.step23 {transform: translateX(23552px);}
.step24 {transform: translateX(24576px);}
.step25 {transform: translateX(25600px);}
.step26 {transform: translateX(26624px);}
.step27 {transform: translateX(27648px);}
.step28 {transform: translateX(28672px);}
.step29 {transform: translateX(29696px);}
    </style>

    <path d="M 232 536 Q 268 588 307 654 Q 334 706 358 730 Q 368 742 362 757 Q 358 770 325 795 Q 295 814 274 814 Q 253 811 263 787 Q 279 754 267 726 Q 204 558 46 358 Q 36 346 33 340 Q 30 327 45 330 Q 87 339 185 472 Q 195 485 205 498 L 232 536 Z" fill="lightgray" class="stroke step7"/>
    <path d="M 205 498 Q 206 492 210 487 Q 240 427 215 231 Q 206 176 191 119 Q 178 73 213 21 Q 214 17 219 13 Q 238 -5 251 25 Q 267 68 266 118 Q 273 386 283 445 Q 292 475 280 486 Q 241 531 232 536 C 209 556 193 525 205 498 Z" fill="lightgray" class="stroke step7"/>
    <path d="M 607 641 Q 610 645 720 656 Q 781 662 859 664 Q 919 664 925 675 Q 929 688 912 701 Q 860 737 818 729 Q 722 704 380 644 Q 358 640 375 623 Q 411 593 448 606 Q 497 622 555 632 L 607 641 Z" fill="lightgray" class="stroke step7"/>
    <path d="M 542 450 Q 564 477 606 546 Q 615 562 631 583 Q 649 596 639 609 Q 629 625 607 641 C 583 659 552 662 555 632 Q 561 595 521 483 Q 512 461 511 446 C 507 416 523 426 542 450 Z" fill="lightgray" class="stroke step7"/>
    <path d="M 496 443 Q 477 462 440 471 Q 431 472 426 465 Q 422 459 430 449 Q 466 365 449 185 Q 434 125 439 104 Q 449 71 461 59 Q 471 46 481 60 Q 490 73 495 93 L 500 124 Q 501 142 502 262 L 501 289 Q 500 373 501 407 C 502 437 502 438 496 443 Z" fill="lightgray" class="stroke step7"/>
    <path d="M 694 106 Q 707 81 741 28 Q 753 10 763 13 Q 779 17 786 46 Q 814 119 809 215 Q 810 276 808 345 Q 811 394 833 427 Q 849 449 836 461 Q 812 483 763 501 Q 745 510 653 476 Q 607 464 542 450 L 511 446 Q 504 446 496 443 C 466 438 471 403 501 407 Q 508 406 516 408 Q 711 453 727 439 Q 761 384 741 153 Q 741 131 732 127 Q 731 126 722 127 C 696 112 692 109 694 106 Z" fill="lightgray" class="stroke step7"/>
    <path d="M 502 262 Q 505 262 680 281 Q 707 285 697 299 Q 685 315 657 321 Q 632 325 501 289 C 472 281 472 259 502 262 Z" fill="lightgray" class="stroke step7"/>
    <path d="M 495 93 Q 502 86 526 90 Q 581 100 694 106 C 724 108 740 108 722 127 Q 713 137 696 149 Q 678 159 646 151 Q 565 133 500 124 C 470 120 468 107 495 93 Z" fill="lightgray" class="stroke step7"/></g></svg>