<svg version="1.1" viewBox="0 0 10240 1024" xmlns="http://www.w3.org/2000/svg">
  
  <g transform="scale(1, -1) translate(0, -900)" class="origin">
    <style type="text/css">
        .origin {display:none;}
        .hide {display:none;}
        .stroke {fill: #000000;}
        
.step1 {transform: translateX(1024px);}
.step2 {transform: translateX(2048px);}
.step3 {transform: translateX(3072px);}
.step4 {transform: translateX(4096px);}
.step5 {transform: translateX(5120px);}
.step6 {transform: translateX(6144px);}
.step7 {transform: translateX(7168px);}
.step8 {transform: translateX(8192px);}
.step9 {transform: translateX(9216px);}
.step10 {transform: translateX(10240px);}
.step11 {transform: translateX(11264px);}
.step12 {transform: translateX(12288px);}
.step13 {transform: translateX(13312px);}
.step14 {transform: translateX(14336px);}
.step15 {transform: translateX(15360px);}
.step16 {transform: translateX(16384px);}
.step17 {transform: translateX(17408px);}
.step18 {transform: translateX(18432px);}
.step19 {transform: translateX(19456px);}
.step20 {transform: translateX(20480px);}
.step21 {transform: translateX(21504px);}
.step22 {transform: translateX(22528px);}
.step23 {transform: translateX(23552px);}
.step24 {transform: translateX(24576px);}
.step25 {transform: translateX(25600px);}
.step26 {transform: translateX(26624px);}
.step27 {transform: translateX(27648px);}
.step28 {transform: translateX(28672px);}
.step29 {transform: translateX(29696px);}
    </style>

    <path d="M 222 535 Q 267 596 315 679 Q 342 731 367 757 Q 376 767 371 781 Q 367 794 338 815 Q 311 833 293 832 Q 274 831 283 809 Q 298 775 285 746 Q 248 650 189 560 Q 132 475 54 379 Q 44 369 42 362 Q 39 352 53 354 Q 89 360 191 495 Q 195 499 199 505 L 222 535 Z" fill="lightgray"/>
    <path d="M 199 505 Q 220 433 222 405 Q 221 383 221 357 Q 220 255 192 151 Q 180 100 214 61 Q 215 58 218 56 Q 234 40 246 66 Q 261 106 260 151 Q 263 395 272 451 Q 279 478 270 488 Q 231 530 222 535 C 199 554 191 534 199 505 Z" fill="lightgray"/>
    <path d="M 380 478 Q 438 500 484 515 Q 505 522 495 533 Q 482 545 458 544 Q 419 543 381 511 C 358 492 352 467 380 478 Z" fill="lightgray"/>
    <path d="M 381 511 Q 382 550 387 566 Q 391 584 379 594 Q 357 616 339 619 Q 327 622 323 617 Q 313 610 324 599 Q 340 568 341 538 Q 347 349 322 312 Q 310 293 319 272 Q 331 244 346 233 Q 356 227 367 244 Q 392 281 479 377 Q 494 392 495 399 Q 495 411 477 399 Q 444 377 406 354 Q 391 344 385 346 Q 378 349 377 364 Q 378 431 380 478 L 381 511 Z" fill="lightgray"/>
    <path d="M 672 698 Q 867 735 874 741 Q 883 748 879 756 Q 872 768 844 776 Q 822 782 686 746 Q 560 725 526 723 Q 490 719 515 702 Q 551 678 622 690 L 672 698 Z" fill="lightgray"/>
    <path d="M 604 561 Q 626 586 639 602 Q 684 659 692 664 Q 705 677 693 687 Q 684 694 672 698 C 644 709 610 718 622 690 L 623 689 Q 633 668 583 558 C 571 531 584 538 604 561 Z" fill="lightgray"/>
    <path d="M 583 558 Q 582 559 581 560 Q 562 575 541 581 Q 534 582 528 576 Q 527 572 532 562 Q 568 481 542 311 Q 521 233 546 204 L 547 203 Q 557 193 564 203 Q 585 230 586 376 Q 586 497 591 533 C 593 550 593 550 583 558 Z" fill="lightgray"/>
    <path d="M 776 269 Q 769 248 781 228 Q 794 201 802 202 Q 815 203 830 233 Q 843 257 842 276 Q 815 490 854 550 Q 863 565 855 573 Q 830 594 788 611 Q 773 615 753 608 Q 684 575 604 561 C 575 555 555 527 591 533 Q 597 533 603 534 Q 750 579 770 567 Q 780 545 784 485 Q 785 304 776 269 Z" fill="lightgray"/>
    <path d="M 652 413 Q 665 215 617 139 Q 598 108 561 79 Q 525 52 444 16 Q 434 12 430 9 Q 426 5 439 1 Q 512 -5 624 74 Q 636 86 648 99 Q 699 171 701 367 Q 701 406 712 442 Q 716 452 708 458 Q 692 471 660 483 Q 642 490 628 484 Q 612 477 625 463 Q 650 438 652 413 Z" fill="lightgray"/>
    <path d="M 734 135 Q 782 86 839 15 Q 852 -4 866 -9 Q 873 -10 881 -2 Q 893 10 884 50 Q 880 86 808 126 Q 762 151 737 163 Q 730 169 727 157 Q 726 145 734 135 Z" fill="lightgray"/></g>
<g transform="scale(1, -1) translate(0, -900)">
    <style type="text/css">
        .origin {display:none;}
        .hide {display:none;}
        .stroke {fill: #000000;}
        
.step1 {transform: translateX(1024px);}
.step2 {transform: translateX(2048px);}
.step3 {transform: translateX(3072px);}
.step4 {transform: translateX(4096px);}
.step5 {transform: translateX(5120px);}
.step6 {transform: translateX(6144px);}
.step7 {transform: translateX(7168px);}
.step8 {transform: translateX(8192px);}
.step9 {transform: translateX(9216px);}
.step10 {transform: translateX(10240px);}
.step11 {transform: translateX(11264px);}
.step12 {transform: translateX(12288px);}
.step13 {transform: translateX(13312px);}
.step14 {transform: translateX(14336px);}
.step15 {transform: translateX(15360px);}
.step16 {transform: translateX(16384px);}
.step17 {transform: translateX(17408px);}
.step18 {transform: translateX(18432px);}
.step19 {transform: translateX(19456px);}
.step20 {transform: translateX(20480px);}
.step21 {transform: translateX(21504px);}
.step22 {transform: translateX(22528px);}
.step23 {transform: translateX(23552px);}
.step24 {transform: translateX(24576px);}
.step25 {transform: translateX(25600px);}
.step26 {transform: translateX(26624px);}
.step27 {transform: translateX(27648px);}
.step28 {transform: translateX(28672px);}
.step29 {transform: translateX(29696px);}
    </style>

    <path d="M 222 535 Q 267 596 315 679 Q 342 731 367 757 Q 376 767 371 781 Q 367 794 338 815 Q 311 833 293 832 Q 274 831 283 809 Q 298 775 285 746 Q 248 650 189 560 Q 132 475 54 379 Q 44 369 42 362 Q 39 352 53 354 Q 89 360 191 495 Q 195 499 199 505 L 222 535 Z" fill="lightgray" class="stroke step0"/>
    <path d="M 199 505 Q 220 433 222 405 Q 221 383 221 357 Q 220 255 192 151 Q 180 100 214 61 Q 215 58 218 56 Q 234 40 246 66 Q 261 106 260 151 Q 263 395 272 451 Q 279 478 270 488 Q 231 530 222 535 C 199 554 191 534 199 505 Z" fill="lightgray" class="hide"/>
    <path d="M 380 478 Q 438 500 484 515 Q 505 522 495 533 Q 482 545 458 544 Q 419 543 381 511 C 358 492 352 467 380 478 Z" fill="lightgray" class="hide"/>
    <path d="M 381 511 Q 382 550 387 566 Q 391 584 379 594 Q 357 616 339 619 Q 327 622 323 617 Q 313 610 324 599 Q 340 568 341 538 Q 347 349 322 312 Q 310 293 319 272 Q 331 244 346 233 Q 356 227 367 244 Q 392 281 479 377 Q 494 392 495 399 Q 495 411 477 399 Q 444 377 406 354 Q 391 344 385 346 Q 378 349 377 364 Q 378 431 380 478 L 381 511 Z" fill="lightgray" class="hide"/>
    <path d="M 672 698 Q 867 735 874 741 Q 883 748 879 756 Q 872 768 844 776 Q 822 782 686 746 Q 560 725 526 723 Q 490 719 515 702 Q 551 678 622 690 L 672 698 Z" fill="lightgray" class="hide"/>
    <path d="M 604 561 Q 626 586 639 602 Q 684 659 692 664 Q 705 677 693 687 Q 684 694 672 698 C 644 709 610 718 622 690 L 623 689 Q 633 668 583 558 C 571 531 584 538 604 561 Z" fill="lightgray" class="hide"/>
    <path d="M 583 558 Q 582 559 581 560 Q 562 575 541 581 Q 534 582 528 576 Q 527 572 532 562 Q 568 481 542 311 Q 521 233 546 204 L 547 203 Q 557 193 564 203 Q 585 230 586 376 Q 586 497 591 533 C 593 550 593 550 583 558 Z" fill="lightgray" class="hide"/>
    <path d="M 776 269 Q 769 248 781 228 Q 794 201 802 202 Q 815 203 830 233 Q 843 257 842 276 Q 815 490 854 550 Q 863 565 855 573 Q 830 594 788 611 Q 773 615 753 608 Q 684 575 604 561 C 575 555 555 527 591 533 Q 597 533 603 534 Q 750 579 770 567 Q 780 545 784 485 Q 785 304 776 269 Z" fill="lightgray" class="hide"/>
    <path d="M 652 413 Q 665 215 617 139 Q 598 108 561 79 Q 525 52 444 16 Q 434 12 430 9 Q 426 5 439 1 Q 512 -5 624 74 Q 636 86 648 99 Q 699 171 701 367 Q 701 406 712 442 Q 716 452 708 458 Q 692 471 660 483 Q 642 490 628 484 Q 612 477 625 463 Q 650 438 652 413 Z" fill="lightgray" class="hide"/>
    <path d="M 734 135 Q 782 86 839 15 Q 852 -4 866 -9 Q 873 -10 881 -2 Q 893 10 884 50 Q 880 86 808 126 Q 762 151 737 163 Q 730 169 727 157 Q 726 145 734 135 Z" fill="lightgray" class="hide"/></g><g transform="scale(1, -1) translate(0, -900)">
    <style type="text/css">
        .origin {display:none;}
        .hide {display:none;}
        .stroke {fill: #000000;}
        
.step1 {transform: translateX(1024px);}
.step2 {transform: translateX(2048px);}
.step3 {transform: translateX(3072px);}
.step4 {transform: translateX(4096px);}
.step5 {transform: translateX(5120px);}
.step6 {transform: translateX(6144px);}
.step7 {transform: translateX(7168px);}
.step8 {transform: translateX(8192px);}
.step9 {transform: translateX(9216px);}
.step10 {transform: translateX(10240px);}
.step11 {transform: translateX(11264px);}
.step12 {transform: translateX(12288px);}
.step13 {transform: translateX(13312px);}
.step14 {transform: translateX(14336px);}
.step15 {transform: translateX(15360px);}
.step16 {transform: translateX(16384px);}
.step17 {transform: translateX(17408px);}
.step18 {transform: translateX(18432px);}
.step19 {transform: translateX(19456px);}
.step20 {transform: translateX(20480px);}
.step21 {transform: translateX(21504px);}
.step22 {transform: translateX(22528px);}
.step23 {transform: translateX(23552px);}
.step24 {transform: translateX(24576px);}
.step25 {transform: translateX(25600px);}
.step26 {transform: translateX(26624px);}
.step27 {transform: translateX(27648px);}
.step28 {transform: translateX(28672px);}
.step29 {transform: translateX(29696px);}
    </style>

    <path d="M 222 535 Q 267 596 315 679 Q 342 731 367 757 Q 376 767 371 781 Q 367 794 338 815 Q 311 833 293 832 Q 274 831 283 809 Q 298 775 285 746 Q 248 650 189 560 Q 132 475 54 379 Q 44 369 42 362 Q 39 352 53 354 Q 89 360 191 495 Q 195 499 199 505 L 222 535 Z" fill="lightgray" class="stroke step1"/>
    <path d="M 199 505 Q 220 433 222 405 Q 221 383 221 357 Q 220 255 192 151 Q 180 100 214 61 Q 215 58 218 56 Q 234 40 246 66 Q 261 106 260 151 Q 263 395 272 451 Q 279 478 270 488 Q 231 530 222 535 C 199 554 191 534 199 505 Z" fill="lightgray" class="stroke step1"/>
    <path d="M 380 478 Q 438 500 484 515 Q 505 522 495 533 Q 482 545 458 544 Q 419 543 381 511 C 358 492 352 467 380 478 Z" fill="lightgray" class="hide"/>
    <path d="M 381 511 Q 382 550 387 566 Q 391 584 379 594 Q 357 616 339 619 Q 327 622 323 617 Q 313 610 324 599 Q 340 568 341 538 Q 347 349 322 312 Q 310 293 319 272 Q 331 244 346 233 Q 356 227 367 244 Q 392 281 479 377 Q 494 392 495 399 Q 495 411 477 399 Q 444 377 406 354 Q 391 344 385 346 Q 378 349 377 364 Q 378 431 380 478 L 381 511 Z" fill="lightgray" class="hide"/>
    <path d="M 672 698 Q 867 735 874 741 Q 883 748 879 756 Q 872 768 844 776 Q 822 782 686 746 Q 560 725 526 723 Q 490 719 515 702 Q 551 678 622 690 L 672 698 Z" fill="lightgray" class="hide"/>
    <path d="M 604 561 Q 626 586 639 602 Q 684 659 692 664 Q 705 677 693 687 Q 684 694 672 698 C 644 709 610 718 622 690 L 623 689 Q 633 668 583 558 C 571 531 584 538 604 561 Z" fill="lightgray" class="hide"/>
    <path d="M 583 558 Q 582 559 581 560 Q 562 575 541 581 Q 534 582 528 576 Q 527 572 532 562 Q 568 481 542 311 Q 521 233 546 204 L 547 203 Q 557 193 564 203 Q 585 230 586 376 Q 586 497 591 533 C 593 550 593 550 583 558 Z" fill="lightgray" class="hide"/>
    <path d="M 776 269 Q 769 248 781 228 Q 794 201 802 202 Q 815 203 830 233 Q 843 257 842 276 Q 815 490 854 550 Q 863 565 855 573 Q 830 594 788 611 Q 773 615 753 608 Q 684 575 604 561 C 575 555 555 527 591 533 Q 597 533 603 534 Q 750 579 770 567 Q 780 545 784 485 Q 785 304 776 269 Z" fill="lightgray" class="hide"/>
    <path d="M 652 413 Q 665 215 617 139 Q 598 108 561 79 Q 525 52 444 16 Q 434 12 430 9 Q 426 5 439 1 Q 512 -5 624 74 Q 636 86 648 99 Q 699 171 701 367 Q 701 406 712 442 Q 716 452 708 458 Q 692 471 660 483 Q 642 490 628 484 Q 612 477 625 463 Q 650 438 652 413 Z" fill="lightgray" class="hide"/>
    <path d="M 734 135 Q 782 86 839 15 Q 852 -4 866 -9 Q 873 -10 881 -2 Q 893 10 884 50 Q 880 86 808 126 Q 762 151 737 163 Q 730 169 727 157 Q 726 145 734 135 Z" fill="lightgray" class="hide"/></g><g transform="scale(1, -1) translate(0, -900)">
    <style type="text/css">
        .origin {display:none;}
        .hide {display:none;}
        .stroke {fill: #000000;}
        
.step1 {transform: translateX(1024px);}
.step2 {transform: translateX(2048px);}
.step3 {transform: translateX(3072px);}
.step4 {transform: translateX(4096px);}
.step5 {transform: translateX(5120px);}
.step6 {transform: translateX(6144px);}
.step7 {transform: translateX(7168px);}
.step8 {transform: translateX(8192px);}
.step9 {transform: translateX(9216px);}
.step10 {transform: translateX(10240px);}
.step11 {transform: translateX(11264px);}
.step12 {transform: translateX(12288px);}
.step13 {transform: translateX(13312px);}
.step14 {transform: translateX(14336px);}
.step15 {transform: translateX(15360px);}
.step16 {transform: translateX(16384px);}
.step17 {transform: translateX(17408px);}
.step18 {transform: translateX(18432px);}
.step19 {transform: translateX(19456px);}
.step20 {transform: translateX(20480px);}
.step21 {transform: translateX(21504px);}
.step22 {transform: translateX(22528px);}
.step23 {transform: translateX(23552px);}
.step24 {transform: translateX(24576px);}
.step25 {transform: translateX(25600px);}
.step26 {transform: translateX(26624px);}
.step27 {transform: translateX(27648px);}
.step28 {transform: translateX(28672px);}
.step29 {transform: translateX(29696px);}
    </style>

    <path d="M 222 535 Q 267 596 315 679 Q 342 731 367 757 Q 376 767 371 781 Q 367 794 338 815 Q 311 833 293 832 Q 274 831 283 809 Q 298 775 285 746 Q 248 650 189 560 Q 132 475 54 379 Q 44 369 42 362 Q 39 352 53 354 Q 89 360 191 495 Q 195 499 199 505 L 222 535 Z" fill="lightgray" class="stroke step2"/>
    <path d="M 199 505 Q 220 433 222 405 Q 221 383 221 357 Q 220 255 192 151 Q 180 100 214 61 Q 215 58 218 56 Q 234 40 246 66 Q 261 106 260 151 Q 263 395 272 451 Q 279 478 270 488 Q 231 530 222 535 C 199 554 191 534 199 505 Z" fill="lightgray" class="stroke step2"/>
    <path d="M 380 478 Q 438 500 484 515 Q 505 522 495 533 Q 482 545 458 544 Q 419 543 381 511 C 358 492 352 467 380 478 Z" fill="lightgray" class="stroke step2"/>
    <path d="M 381 511 Q 382 550 387 566 Q 391 584 379 594 Q 357 616 339 619 Q 327 622 323 617 Q 313 610 324 599 Q 340 568 341 538 Q 347 349 322 312 Q 310 293 319 272 Q 331 244 346 233 Q 356 227 367 244 Q 392 281 479 377 Q 494 392 495 399 Q 495 411 477 399 Q 444 377 406 354 Q 391 344 385 346 Q 378 349 377 364 Q 378 431 380 478 L 381 511 Z" fill="lightgray" class="hide"/>
    <path d="M 672 698 Q 867 735 874 741 Q 883 748 879 756 Q 872 768 844 776 Q 822 782 686 746 Q 560 725 526 723 Q 490 719 515 702 Q 551 678 622 690 L 672 698 Z" fill="lightgray" class="hide"/>
    <path d="M 604 561 Q 626 586 639 602 Q 684 659 692 664 Q 705 677 693 687 Q 684 694 672 698 C 644 709 610 718 622 690 L 623 689 Q 633 668 583 558 C 571 531 584 538 604 561 Z" fill="lightgray" class="hide"/>
    <path d="M 583 558 Q 582 559 581 560 Q 562 575 541 581 Q 534 582 528 576 Q 527 572 532 562 Q 568 481 542 311 Q 521 233 546 204 L 547 203 Q 557 193 564 203 Q 585 230 586 376 Q 586 497 591 533 C 593 550 593 550 583 558 Z" fill="lightgray" class="hide"/>
    <path d="M 776 269 Q 769 248 781 228 Q 794 201 802 202 Q 815 203 830 233 Q 843 257 842 276 Q 815 490 854 550 Q 863 565 855 573 Q 830 594 788 611 Q 773 615 753 608 Q 684 575 604 561 C 575 555 555 527 591 533 Q 597 533 603 534 Q 750 579 770 567 Q 780 545 784 485 Q 785 304 776 269 Z" fill="lightgray" class="hide"/>
    <path d="M 652 413 Q 665 215 617 139 Q 598 108 561 79 Q 525 52 444 16 Q 434 12 430 9 Q 426 5 439 1 Q 512 -5 624 74 Q 636 86 648 99 Q 699 171 701 367 Q 701 406 712 442 Q 716 452 708 458 Q 692 471 660 483 Q 642 490 628 484 Q 612 477 625 463 Q 650 438 652 413 Z" fill="lightgray" class="hide"/>
    <path d="M 734 135 Q 782 86 839 15 Q 852 -4 866 -9 Q 873 -10 881 -2 Q 893 10 884 50 Q 880 86 808 126 Q 762 151 737 163 Q 730 169 727 157 Q 726 145 734 135 Z" fill="lightgray" class="hide"/></g><g transform="scale(1, -1) translate(0, -900)">
    <style type="text/css">
        .origin {display:none;}
        .hide {display:none;}
        .stroke {fill: #000000;}
        
.step1 {transform: translateX(1024px);}
.step2 {transform: translateX(2048px);}
.step3 {transform: translateX(3072px);}
.step4 {transform: translateX(4096px);}
.step5 {transform: translateX(5120px);}
.step6 {transform: translateX(6144px);}
.step7 {transform: translateX(7168px);}
.step8 {transform: translateX(8192px);}
.step9 {transform: translateX(9216px);}
.step10 {transform: translateX(10240px);}
.step11 {transform: translateX(11264px);}
.step12 {transform: translateX(12288px);}
.step13 {transform: translateX(13312px);}
.step14 {transform: translateX(14336px);}
.step15 {transform: translateX(15360px);}
.step16 {transform: translateX(16384px);}
.step17 {transform: translateX(17408px);}
.step18 {transform: translateX(18432px);}
.step19 {transform: translateX(19456px);}
.step20 {transform: translateX(20480px);}
.step21 {transform: translateX(21504px);}
.step22 {transform: translateX(22528px);}
.step23 {transform: translateX(23552px);}
.step24 {transform: translateX(24576px);}
.step25 {transform: translateX(25600px);}
.step26 {transform: translateX(26624px);}
.step27 {transform: translateX(27648px);}
.step28 {transform: translateX(28672px);}
.step29 {transform: translateX(29696px);}
    </style>

    <path d="M 222 535 Q 267 596 315 679 Q 342 731 367 757 Q 376 767 371 781 Q 367 794 338 815 Q 311 833 293 832 Q 274 831 283 809 Q 298 775 285 746 Q 248 650 189 560 Q 132 475 54 379 Q 44 369 42 362 Q 39 352 53 354 Q 89 360 191 495 Q 195 499 199 505 L 222 535 Z" fill="lightgray" class="stroke step3"/>
    <path d="M 199 505 Q 220 433 222 405 Q 221 383 221 357 Q 220 255 192 151 Q 180 100 214 61 Q 215 58 218 56 Q 234 40 246 66 Q 261 106 260 151 Q 263 395 272 451 Q 279 478 270 488 Q 231 530 222 535 C 199 554 191 534 199 505 Z" fill="lightgray" class="stroke step3"/>
    <path d="M 380 478 Q 438 500 484 515 Q 505 522 495 533 Q 482 545 458 544 Q 419 543 381 511 C 358 492 352 467 380 478 Z" fill="lightgray" class="stroke step3"/>
    <path d="M 381 511 Q 382 550 387 566 Q 391 584 379 594 Q 357 616 339 619 Q 327 622 323 617 Q 313 610 324 599 Q 340 568 341 538 Q 347 349 322 312 Q 310 293 319 272 Q 331 244 346 233 Q 356 227 367 244 Q 392 281 479 377 Q 494 392 495 399 Q 495 411 477 399 Q 444 377 406 354 Q 391 344 385 346 Q 378 349 377 364 Q 378 431 380 478 L 381 511 Z" fill="lightgray" class="stroke step3"/>
    <path d="M 672 698 Q 867 735 874 741 Q 883 748 879 756 Q 872 768 844 776 Q 822 782 686 746 Q 560 725 526 723 Q 490 719 515 702 Q 551 678 622 690 L 672 698 Z" fill="lightgray" class="hide"/>
    <path d="M 604 561 Q 626 586 639 602 Q 684 659 692 664 Q 705 677 693 687 Q 684 694 672 698 C 644 709 610 718 622 690 L 623 689 Q 633 668 583 558 C 571 531 584 538 604 561 Z" fill="lightgray" class="hide"/>
    <path d="M 583 558 Q 582 559 581 560 Q 562 575 541 581 Q 534 582 528 576 Q 527 572 532 562 Q 568 481 542 311 Q 521 233 546 204 L 547 203 Q 557 193 564 203 Q 585 230 586 376 Q 586 497 591 533 C 593 550 593 550 583 558 Z" fill="lightgray" class="hide"/>
    <path d="M 776 269 Q 769 248 781 228 Q 794 201 802 202 Q 815 203 830 233 Q 843 257 842 276 Q 815 490 854 550 Q 863 565 855 573 Q 830 594 788 611 Q 773 615 753 608 Q 684 575 604 561 C 575 555 555 527 591 533 Q 597 533 603 534 Q 750 579 770 567 Q 780 545 784 485 Q 785 304 776 269 Z" fill="lightgray" class="hide"/>
    <path d="M 652 413 Q 665 215 617 139 Q 598 108 561 79 Q 525 52 444 16 Q 434 12 430 9 Q 426 5 439 1 Q 512 -5 624 74 Q 636 86 648 99 Q 699 171 701 367 Q 701 406 712 442 Q 716 452 708 458 Q 692 471 660 483 Q 642 490 628 484 Q 612 477 625 463 Q 650 438 652 413 Z" fill="lightgray" class="hide"/>
    <path d="M 734 135 Q 782 86 839 15 Q 852 -4 866 -9 Q 873 -10 881 -2 Q 893 10 884 50 Q 880 86 808 126 Q 762 151 737 163 Q 730 169 727 157 Q 726 145 734 135 Z" fill="lightgray" class="hide"/></g><g transform="scale(1, -1) translate(0, -900)">
    <style type="text/css">
        .origin {display:none;}
        .hide {display:none;}
        .stroke {fill: #000000;}
        
.step1 {transform: translateX(1024px);}
.step2 {transform: translateX(2048px);}
.step3 {transform: translateX(3072px);}
.step4 {transform: translateX(4096px);}
.step5 {transform: translateX(5120px);}
.step6 {transform: translateX(6144px);}
.step7 {transform: translateX(7168px);}
.step8 {transform: translateX(8192px);}
.step9 {transform: translateX(9216px);}
.step10 {transform: translateX(10240px);}
.step11 {transform: translateX(11264px);}
.step12 {transform: translateX(12288px);}
.step13 {transform: translateX(13312px);}
.step14 {transform: translateX(14336px);}
.step15 {transform: translateX(15360px);}
.step16 {transform: translateX(16384px);}
.step17 {transform: translateX(17408px);}
.step18 {transform: translateX(18432px);}
.step19 {transform: translateX(19456px);}
.step20 {transform: translateX(20480px);}
.step21 {transform: translateX(21504px);}
.step22 {transform: translateX(22528px);}
.step23 {transform: translateX(23552px);}
.step24 {transform: translateX(24576px);}
.step25 {transform: translateX(25600px);}
.step26 {transform: translateX(26624px);}
.step27 {transform: translateX(27648px);}
.step28 {transform: translateX(28672px);}
.step29 {transform: translateX(29696px);}
    </style>

    <path d="M 222 535 Q 267 596 315 679 Q 342 731 367 757 Q 376 767 371 781 Q 367 794 338 815 Q 311 833 293 832 Q 274 831 283 809 Q 298 775 285 746 Q 248 650 189 560 Q 132 475 54 379 Q 44 369 42 362 Q 39 352 53 354 Q 89 360 191 495 Q 195 499 199 505 L 222 535 Z" fill="lightgray" class="stroke step4"/>
    <path d="M 199 505 Q 220 433 222 405 Q 221 383 221 357 Q 220 255 192 151 Q 180 100 214 61 Q 215 58 218 56 Q 234 40 246 66 Q 261 106 260 151 Q 263 395 272 451 Q 279 478 270 488 Q 231 530 222 535 C 199 554 191 534 199 505 Z" fill="lightgray" class="stroke step4"/>
    <path d="M 380 478 Q 438 500 484 515 Q 505 522 495 533 Q 482 545 458 544 Q 419 543 381 511 C 358 492 352 467 380 478 Z" fill="lightgray" class="stroke step4"/>
    <path d="M 381 511 Q 382 550 387 566 Q 391 584 379 594 Q 357 616 339 619 Q 327 622 323 617 Q 313 610 324 599 Q 340 568 341 538 Q 347 349 322 312 Q 310 293 319 272 Q 331 244 346 233 Q 356 227 367 244 Q 392 281 479 377 Q 494 392 495 399 Q 495 411 477 399 Q 444 377 406 354 Q 391 344 385 346 Q 378 349 377 364 Q 378 431 380 478 L 381 511 Z" fill="lightgray" class="stroke step4"/>
    <path d="M 672 698 Q 867 735 874 741 Q 883 748 879 756 Q 872 768 844 776 Q 822 782 686 746 Q 560 725 526 723 Q 490 719 515 702 Q 551 678 622 690 L 672 698 Z" fill="lightgray" class="stroke step4"/>
    <path d="M 604 561 Q 626 586 639 602 Q 684 659 692 664 Q 705 677 693 687 Q 684 694 672 698 C 644 709 610 718 622 690 L 623 689 Q 633 668 583 558 C 571 531 584 538 604 561 Z" fill="lightgray" class="hide"/>
    <path d="M 583 558 Q 582 559 581 560 Q 562 575 541 581 Q 534 582 528 576 Q 527 572 532 562 Q 568 481 542 311 Q 521 233 546 204 L 547 203 Q 557 193 564 203 Q 585 230 586 376 Q 586 497 591 533 C 593 550 593 550 583 558 Z" fill="lightgray" class="hide"/>
    <path d="M 776 269 Q 769 248 781 228 Q 794 201 802 202 Q 815 203 830 233 Q 843 257 842 276 Q 815 490 854 550 Q 863 565 855 573 Q 830 594 788 611 Q 773 615 753 608 Q 684 575 604 561 C 575 555 555 527 591 533 Q 597 533 603 534 Q 750 579 770 567 Q 780 545 784 485 Q 785 304 776 269 Z" fill="lightgray" class="hide"/>
    <path d="M 652 413 Q 665 215 617 139 Q 598 108 561 79 Q 525 52 444 16 Q 434 12 430 9 Q 426 5 439 1 Q 512 -5 624 74 Q 636 86 648 99 Q 699 171 701 367 Q 701 406 712 442 Q 716 452 708 458 Q 692 471 660 483 Q 642 490 628 484 Q 612 477 625 463 Q 650 438 652 413 Z" fill="lightgray" class="hide"/>
    <path d="M 734 135 Q 782 86 839 15 Q 852 -4 866 -9 Q 873 -10 881 -2 Q 893 10 884 50 Q 880 86 808 126 Q 762 151 737 163 Q 730 169 727 157 Q 726 145 734 135 Z" fill="lightgray" class="hide"/></g><g transform="scale(1, -1) translate(0, -900)">
    <style type="text/css">
        .origin {display:none;}
        .hide {display:none;}
        .stroke {fill: #000000;}
        
.step1 {transform: translateX(1024px);}
.step2 {transform: translateX(2048px);}
.step3 {transform: translateX(3072px);}
.step4 {transform: translateX(4096px);}
.step5 {transform: translateX(5120px);}
.step6 {transform: translateX(6144px);}
.step7 {transform: translateX(7168px);}
.step8 {transform: translateX(8192px);}
.step9 {transform: translateX(9216px);}
.step10 {transform: translateX(10240px);}
.step11 {transform: translateX(11264px);}
.step12 {transform: translateX(12288px);}
.step13 {transform: translateX(13312px);}
.step14 {transform: translateX(14336px);}
.step15 {transform: translateX(15360px);}
.step16 {transform: translateX(16384px);}
.step17 {transform: translateX(17408px);}
.step18 {transform: translateX(18432px);}
.step19 {transform: translateX(19456px);}
.step20 {transform: translateX(20480px);}
.step21 {transform: translateX(21504px);}
.step22 {transform: translateX(22528px);}
.step23 {transform: translateX(23552px);}
.step24 {transform: translateX(24576px);}
.step25 {transform: translateX(25600px);}
.step26 {transform: translateX(26624px);}
.step27 {transform: translateX(27648px);}
.step28 {transform: translateX(28672px);}
.step29 {transform: translateX(29696px);}
    </style>

    <path d="M 222 535 Q 267 596 315 679 Q 342 731 367 757 Q 376 767 371 781 Q 367 794 338 815 Q 311 833 293 832 Q 274 831 283 809 Q 298 775 285 746 Q 248 650 189 560 Q 132 475 54 379 Q 44 369 42 362 Q 39 352 53 354 Q 89 360 191 495 Q 195 499 199 505 L 222 535 Z" fill="lightgray" class="stroke step5"/>
    <path d="M 199 505 Q 220 433 222 405 Q 221 383 221 357 Q 220 255 192 151 Q 180 100 214 61 Q 215 58 218 56 Q 234 40 246 66 Q 261 106 260 151 Q 263 395 272 451 Q 279 478 270 488 Q 231 530 222 535 C 199 554 191 534 199 505 Z" fill="lightgray" class="stroke step5"/>
    <path d="M 380 478 Q 438 500 484 515 Q 505 522 495 533 Q 482 545 458 544 Q 419 543 381 511 C 358 492 352 467 380 478 Z" fill="lightgray" class="stroke step5"/>
    <path d="M 381 511 Q 382 550 387 566 Q 391 584 379 594 Q 357 616 339 619 Q 327 622 323 617 Q 313 610 324 599 Q 340 568 341 538 Q 347 349 322 312 Q 310 293 319 272 Q 331 244 346 233 Q 356 227 367 244 Q 392 281 479 377 Q 494 392 495 399 Q 495 411 477 399 Q 444 377 406 354 Q 391 344 385 346 Q 378 349 377 364 Q 378 431 380 478 L 381 511 Z" fill="lightgray" class="stroke step5"/>
    <path d="M 672 698 Q 867 735 874 741 Q 883 748 879 756 Q 872 768 844 776 Q 822 782 686 746 Q 560 725 526 723 Q 490 719 515 702 Q 551 678 622 690 L 672 698 Z" fill="lightgray" class="stroke step5"/>
    <path d="M 604 561 Q 626 586 639 602 Q 684 659 692 664 Q 705 677 693 687 Q 684 694 672 698 C 644 709 610 718 622 690 L 623 689 Q 633 668 583 558 C 571 531 584 538 604 561 Z" fill="lightgray" class="stroke step5"/>
    <path d="M 583 558 Q 582 559 581 560 Q 562 575 541 581 Q 534 582 528 576 Q 527 572 532 562 Q 568 481 542 311 Q 521 233 546 204 L 547 203 Q 557 193 564 203 Q 585 230 586 376 Q 586 497 591 533 C 593 550 593 550 583 558 Z" fill="lightgray" class="hide"/>
    <path d="M 776 269 Q 769 248 781 228 Q 794 201 802 202 Q 815 203 830 233 Q 843 257 842 276 Q 815 490 854 550 Q 863 565 855 573 Q 830 594 788 611 Q 773 615 753 608 Q 684 575 604 561 C 575 555 555 527 591 533 Q 597 533 603 534 Q 750 579 770 567 Q 780 545 784 485 Q 785 304 776 269 Z" fill="lightgray" class="hide"/>
    <path d="M 652 413 Q 665 215 617 139 Q 598 108 561 79 Q 525 52 444 16 Q 434 12 430 9 Q 426 5 439 1 Q 512 -5 624 74 Q 636 86 648 99 Q 699 171 701 367 Q 701 406 712 442 Q 716 452 708 458 Q 692 471 660 483 Q 642 490 628 484 Q 612 477 625 463 Q 650 438 652 413 Z" fill="lightgray" class="hide"/>
    <path d="M 734 135 Q 782 86 839 15 Q 852 -4 866 -9 Q 873 -10 881 -2 Q 893 10 884 50 Q 880 86 808 126 Q 762 151 737 163 Q 730 169 727 157 Q 726 145 734 135 Z" fill="lightgray" class="hide"/></g><g transform="scale(1, -1) translate(0, -900)">
    <style type="text/css">
        .origin {display:none;}
        .hide {display:none;}
        .stroke {fill: #000000;}
        
.step1 {transform: translateX(1024px);}
.step2 {transform: translateX(2048px);}
.step3 {transform: translateX(3072px);}
.step4 {transform: translateX(4096px);}
.step5 {transform: translateX(5120px);}
.step6 {transform: translateX(6144px);}
.step7 {transform: translateX(7168px);}
.step8 {transform: translateX(8192px);}
.step9 {transform: translateX(9216px);}
.step10 {transform: translateX(10240px);}
.step11 {transform: translateX(11264px);}
.step12 {transform: translateX(12288px);}
.step13 {transform: translateX(13312px);}
.step14 {transform: translateX(14336px);}
.step15 {transform: translateX(15360px);}
.step16 {transform: translateX(16384px);}
.step17 {transform: translateX(17408px);}
.step18 {transform: translateX(18432px);}
.step19 {transform: translateX(19456px);}
.step20 {transform: translateX(20480px);}
.step21 {transform: translateX(21504px);}
.step22 {transform: translateX(22528px);}
.step23 {transform: translateX(23552px);}
.step24 {transform: translateX(24576px);}
.step25 {transform: translateX(25600px);}
.step26 {transform: translateX(26624px);}
.step27 {transform: translateX(27648px);}
.step28 {transform: translateX(28672px);}
.step29 {transform: translateX(29696px);}
    </style>

    <path d="M 222 535 Q 267 596 315 679 Q 342 731 367 757 Q 376 767 371 781 Q 367 794 338 815 Q 311 833 293 832 Q 274 831 283 809 Q 298 775 285 746 Q 248 650 189 560 Q 132 475 54 379 Q 44 369 42 362 Q 39 352 53 354 Q 89 360 191 495 Q 195 499 199 505 L 222 535 Z" fill="lightgray" class="stroke step6"/>
    <path d="M 199 505 Q 220 433 222 405 Q 221 383 221 357 Q 220 255 192 151 Q 180 100 214 61 Q 215 58 218 56 Q 234 40 246 66 Q 261 106 260 151 Q 263 395 272 451 Q 279 478 270 488 Q 231 530 222 535 C 199 554 191 534 199 505 Z" fill="lightgray" class="stroke step6"/>
    <path d="M 380 478 Q 438 500 484 515 Q 505 522 495 533 Q 482 545 458 544 Q 419 543 381 511 C 358 492 352 467 380 478 Z" fill="lightgray" class="stroke step6"/>
    <path d="M 381 511 Q 382 550 387 566 Q 391 584 379 594 Q 357 616 339 619 Q 327 622 323 617 Q 313 610 324 599 Q 340 568 341 538 Q 347 349 322 312 Q 310 293 319 272 Q 331 244 346 233 Q 356 227 367 244 Q 392 281 479 377 Q 494 392 495 399 Q 495 411 477 399 Q 444 377 406 354 Q 391 344 385 346 Q 378 349 377 364 Q 378 431 380 478 L 381 511 Z" fill="lightgray" class="stroke step6"/>
    <path d="M 672 698 Q 867 735 874 741 Q 883 748 879 756 Q 872 768 844 776 Q 822 782 686 746 Q 560 725 526 723 Q 490 719 515 702 Q 551 678 622 690 L 672 698 Z" fill="lightgray" class="stroke step6"/>
    <path d="M 604 561 Q 626 586 639 602 Q 684 659 692 664 Q 705 677 693 687 Q 684 694 672 698 C 644 709 610 718 622 690 L 623 689 Q 633 668 583 558 C 571 531 584 538 604 561 Z" fill="lightgray" class="stroke step6"/>
    <path d="M 583 558 Q 582 559 581 560 Q 562 575 541 581 Q 534 582 528 576 Q 527 572 532 562 Q 568 481 542 311 Q 521 233 546 204 L 547 203 Q 557 193 564 203 Q 585 230 586 376 Q 586 497 591 533 C 593 550 593 550 583 558 Z" fill="lightgray" class="stroke step6"/>
    <path d="M 776 269 Q 769 248 781 228 Q 794 201 802 202 Q 815 203 830 233 Q 843 257 842 276 Q 815 490 854 550 Q 863 565 855 573 Q 830 594 788 611 Q 773 615 753 608 Q 684 575 604 561 C 575 555 555 527 591 533 Q 597 533 603 534 Q 750 579 770 567 Q 780 545 784 485 Q 785 304 776 269 Z" fill="lightgray" class="hide"/>
    <path d="M 652 413 Q 665 215 617 139 Q 598 108 561 79 Q 525 52 444 16 Q 434 12 430 9 Q 426 5 439 1 Q 512 -5 624 74 Q 636 86 648 99 Q 699 171 701 367 Q 701 406 712 442 Q 716 452 708 458 Q 692 471 660 483 Q 642 490 628 484 Q 612 477 625 463 Q 650 438 652 413 Z" fill="lightgray" class="hide"/>
    <path d="M 734 135 Q 782 86 839 15 Q 852 -4 866 -9 Q 873 -10 881 -2 Q 893 10 884 50 Q 880 86 808 126 Q 762 151 737 163 Q 730 169 727 157 Q 726 145 734 135 Z" fill="lightgray" class="hide"/></g><g transform="scale(1, -1) translate(0, -900)">
    <style type="text/css">
        .origin {display:none;}
        .hide {display:none;}
        .stroke {fill: #000000;}
        
.step1 {transform: translateX(1024px);}
.step2 {transform: translateX(2048px);}
.step3 {transform: translateX(3072px);}
.step4 {transform: translateX(4096px);}
.step5 {transform: translateX(5120px);}
.step6 {transform: translateX(6144px);}
.step7 {transform: translateX(7168px);}
.step8 {transform: translateX(8192px);}
.step9 {transform: translateX(9216px);}
.step10 {transform: translateX(10240px);}
.step11 {transform: translateX(11264px);}
.step12 {transform: translateX(12288px);}
.step13 {transform: translateX(13312px);}
.step14 {transform: translateX(14336px);}
.step15 {transform: translateX(15360px);}
.step16 {transform: translateX(16384px);}
.step17 {transform: translateX(17408px);}
.step18 {transform: translateX(18432px);}
.step19 {transform: translateX(19456px);}
.step20 {transform: translateX(20480px);}
.step21 {transform: translateX(21504px);}
.step22 {transform: translateX(22528px);}
.step23 {transform: translateX(23552px);}
.step24 {transform: translateX(24576px);}
.step25 {transform: translateX(25600px);}
.step26 {transform: translateX(26624px);}
.step27 {transform: translateX(27648px);}
.step28 {transform: translateX(28672px);}
.step29 {transform: translateX(29696px);}
    </style>

    <path d="M 222 535 Q 267 596 315 679 Q 342 731 367 757 Q 376 767 371 781 Q 367 794 338 815 Q 311 833 293 832 Q 274 831 283 809 Q 298 775 285 746 Q 248 650 189 560 Q 132 475 54 379 Q 44 369 42 362 Q 39 352 53 354 Q 89 360 191 495 Q 195 499 199 505 L 222 535 Z" fill="lightgray" class="stroke step7"/>
    <path d="M 199 505 Q 220 433 222 405 Q 221 383 221 357 Q 220 255 192 151 Q 180 100 214 61 Q 215 58 218 56 Q 234 40 246 66 Q 261 106 260 151 Q 263 395 272 451 Q 279 478 270 488 Q 231 530 222 535 C 199 554 191 534 199 505 Z" fill="lightgray" class="stroke step7"/>
    <path d="M 380 478 Q 438 500 484 515 Q 505 522 495 533 Q 482 545 458 544 Q 419 543 381 511 C 358 492 352 467 380 478 Z" fill="lightgray" class="stroke step7"/>
    <path d="M 381 511 Q 382 550 387 566 Q 391 584 379 594 Q 357 616 339 619 Q 327 622 323 617 Q 313 610 324 599 Q 340 568 341 538 Q 347 349 322 312 Q 310 293 319 272 Q 331 244 346 233 Q 356 227 367 244 Q 392 281 479 377 Q 494 392 495 399 Q 495 411 477 399 Q 444 377 406 354 Q 391 344 385 346 Q 378 349 377 364 Q 378 431 380 478 L 381 511 Z" fill="lightgray" class="stroke step7"/>
    <path d="M 672 698 Q 867 735 874 741 Q 883 748 879 756 Q 872 768 844 776 Q 822 782 686 746 Q 560 725 526 723 Q 490 719 515 702 Q 551 678 622 690 L 672 698 Z" fill="lightgray" class="stroke step7"/>
    <path d="M 604 561 Q 626 586 639 602 Q 684 659 692 664 Q 705 677 693 687 Q 684 694 672 698 C 644 709 610 718 622 690 L 623 689 Q 633 668 583 558 C 571 531 584 538 604 561 Z" fill="lightgray" class="stroke step7"/>
    <path d="M 583 558 Q 582 559 581 560 Q 562 575 541 581 Q 534 582 528 576 Q 527 572 532 562 Q 568 481 542 311 Q 521 233 546 204 L 547 203 Q 557 193 564 203 Q 585 230 586 376 Q 586 497 591 533 C 593 550 593 550 583 558 Z" fill="lightgray" class="stroke step7"/>
    <path d="M 776 269 Q 769 248 781 228 Q 794 201 802 202 Q 815 203 830 233 Q 843 257 842 276 Q 815 490 854 550 Q 863 565 855 573 Q 830 594 788 611 Q 773 615 753 608 Q 684 575 604 561 C 575 555 555 527 591 533 Q 597 533 603 534 Q 750 579 770 567 Q 780 545 784 485 Q 785 304 776 269 Z" fill="lightgray" class="stroke step7"/>
    <path d="M 652 413 Q 665 215 617 139 Q 598 108 561 79 Q 525 52 444 16 Q 434 12 430 9 Q 426 5 439 1 Q 512 -5 624 74 Q 636 86 648 99 Q 699 171 701 367 Q 701 406 712 442 Q 716 452 708 458 Q 692 471 660 483 Q 642 490 628 484 Q 612 477 625 463 Q 650 438 652 413 Z" fill="lightgray" class="hide"/>
    <path d="M 734 135 Q 782 86 839 15 Q 852 -4 866 -9 Q 873 -10 881 -2 Q 893 10 884 50 Q 880 86 808 126 Q 762 151 737 163 Q 730 169 727 157 Q 726 145 734 135 Z" fill="lightgray" class="hide"/></g><g transform="scale(1, -1) translate(0, -900)">
    <style type="text/css">
        .origin {display:none;}
        .hide {display:none;}
        .stroke {fill: #000000;}
        
.step1 {transform: translateX(1024px);}
.step2 {transform: translateX(2048px);}
.step3 {transform: translateX(3072px);}
.step4 {transform: translateX(4096px);}
.step5 {transform: translateX(5120px);}
.step6 {transform: translateX(6144px);}
.step7 {transform: translateX(7168px);}
.step8 {transform: translateX(8192px);}
.step9 {transform: translateX(9216px);}
.step10 {transform: translateX(10240px);}
.step11 {transform: translateX(11264px);}
.step12 {transform: translateX(12288px);}
.step13 {transform: translateX(13312px);}
.step14 {transform: translateX(14336px);}
.step15 {transform: translateX(15360px);}
.step16 {transform: translateX(16384px);}
.step17 {transform: translateX(17408px);}
.step18 {transform: translateX(18432px);}
.step19 {transform: translateX(19456px);}
.step20 {transform: translateX(20480px);}
.step21 {transform: translateX(21504px);}
.step22 {transform: translateX(22528px);}
.step23 {transform: translateX(23552px);}
.step24 {transform: translateX(24576px);}
.step25 {transform: translateX(25600px);}
.step26 {transform: translateX(26624px);}
.step27 {transform: translateX(27648px);}
.step28 {transform: translateX(28672px);}
.step29 {transform: translateX(29696px);}
    </style>

    <path d="M 222 535 Q 267 596 315 679 Q 342 731 367 757 Q 376 767 371 781 Q 367 794 338 815 Q 311 833 293 832 Q 274 831 283 809 Q 298 775 285 746 Q 248 650 189 560 Q 132 475 54 379 Q 44 369 42 362 Q 39 352 53 354 Q 89 360 191 495 Q 195 499 199 505 L 222 535 Z" fill="lightgray" class="stroke step8"/>
    <path d="M 199 505 Q 220 433 222 405 Q 221 383 221 357 Q 220 255 192 151 Q 180 100 214 61 Q 215 58 218 56 Q 234 40 246 66 Q 261 106 260 151 Q 263 395 272 451 Q 279 478 270 488 Q 231 530 222 535 C 199 554 191 534 199 505 Z" fill="lightgray" class="stroke step8"/>
    <path d="M 380 478 Q 438 500 484 515 Q 505 522 495 533 Q 482 545 458 544 Q 419 543 381 511 C 358 492 352 467 380 478 Z" fill="lightgray" class="stroke step8"/>
    <path d="M 381 511 Q 382 550 387 566 Q 391 584 379 594 Q 357 616 339 619 Q 327 622 323 617 Q 313 610 324 599 Q 340 568 341 538 Q 347 349 322 312 Q 310 293 319 272 Q 331 244 346 233 Q 356 227 367 244 Q 392 281 479 377 Q 494 392 495 399 Q 495 411 477 399 Q 444 377 406 354 Q 391 344 385 346 Q 378 349 377 364 Q 378 431 380 478 L 381 511 Z" fill="lightgray" class="stroke step8"/>
    <path d="M 672 698 Q 867 735 874 741 Q 883 748 879 756 Q 872 768 844 776 Q 822 782 686 746 Q 560 725 526 723 Q 490 719 515 702 Q 551 678 622 690 L 672 698 Z" fill="lightgray" class="stroke step8"/>
    <path d="M 604 561 Q 626 586 639 602 Q 684 659 692 664 Q 705 677 693 687 Q 684 694 672 698 C 644 709 610 718 622 690 L 623 689 Q 633 668 583 558 C 571 531 584 538 604 561 Z" fill="lightgray" class="stroke step8"/>
    <path d="M 583 558 Q 582 559 581 560 Q 562 575 541 581 Q 534 582 528 576 Q 527 572 532 562 Q 568 481 542 311 Q 521 233 546 204 L 547 203 Q 557 193 564 203 Q 585 230 586 376 Q 586 497 591 533 C 593 550 593 550 583 558 Z" fill="lightgray" class="stroke step8"/>
    <path d="M 776 269 Q 769 248 781 228 Q 794 201 802 202 Q 815 203 830 233 Q 843 257 842 276 Q 815 490 854 550 Q 863 565 855 573 Q 830 594 788 611 Q 773 615 753 608 Q 684 575 604 561 C 575 555 555 527 591 533 Q 597 533 603 534 Q 750 579 770 567 Q 780 545 784 485 Q 785 304 776 269 Z" fill="lightgray" class="stroke step8"/>
    <path d="M 652 413 Q 665 215 617 139 Q 598 108 561 79 Q 525 52 444 16 Q 434 12 430 9 Q 426 5 439 1 Q 512 -5 624 74 Q 636 86 648 99 Q 699 171 701 367 Q 701 406 712 442 Q 716 452 708 458 Q 692 471 660 483 Q 642 490 628 484 Q 612 477 625 463 Q 650 438 652 413 Z" fill="lightgray" class="stroke step8"/>
    <path d="M 734 135 Q 782 86 839 15 Q 852 -4 866 -9 Q 873 -10 881 -2 Q 893 10 884 50 Q 880 86 808 126 Q 762 151 737 163 Q 730 169 727 157 Q 726 145 734 135 Z" fill="lightgray" class="hide"/></g><g transform="scale(1, -1) translate(0, -900)">
    <style type="text/css">
        .origin {display:none;}
        .hide {display:none;}
        .stroke {fill: #000000;}
        
.step1 {transform: translateX(1024px);}
.step2 {transform: translateX(2048px);}
.step3 {transform: translateX(3072px);}
.step4 {transform: translateX(4096px);}
.step5 {transform: translateX(5120px);}
.step6 {transform: translateX(6144px);}
.step7 {transform: translateX(7168px);}
.step8 {transform: translateX(8192px);}
.step9 {transform: translateX(9216px);}
.step10 {transform: translateX(10240px);}
.step11 {transform: translateX(11264px);}
.step12 {transform: translateX(12288px);}
.step13 {transform: translateX(13312px);}
.step14 {transform: translateX(14336px);}
.step15 {transform: translateX(15360px);}
.step16 {transform: translateX(16384px);}
.step17 {transform: translateX(17408px);}
.step18 {transform: translateX(18432px);}
.step19 {transform: translateX(19456px);}
.step20 {transform: translateX(20480px);}
.step21 {transform: translateX(21504px);}
.step22 {transform: translateX(22528px);}
.step23 {transform: translateX(23552px);}
.step24 {transform: translateX(24576px);}
.step25 {transform: translateX(25600px);}
.step26 {transform: translateX(26624px);}
.step27 {transform: translateX(27648px);}
.step28 {transform: translateX(28672px);}
.step29 {transform: translateX(29696px);}
    </style>

    <path d="M 222 535 Q 267 596 315 679 Q 342 731 367 757 Q 376 767 371 781 Q 367 794 338 815 Q 311 833 293 832 Q 274 831 283 809 Q 298 775 285 746 Q 248 650 189 560 Q 132 475 54 379 Q 44 369 42 362 Q 39 352 53 354 Q 89 360 191 495 Q 195 499 199 505 L 222 535 Z" fill="lightgray" class="stroke step9"/>
    <path d="M 199 505 Q 220 433 222 405 Q 221 383 221 357 Q 220 255 192 151 Q 180 100 214 61 Q 215 58 218 56 Q 234 40 246 66 Q 261 106 260 151 Q 263 395 272 451 Q 279 478 270 488 Q 231 530 222 535 C 199 554 191 534 199 505 Z" fill="lightgray" class="stroke step9"/>
    <path d="M 380 478 Q 438 500 484 515 Q 505 522 495 533 Q 482 545 458 544 Q 419 543 381 511 C 358 492 352 467 380 478 Z" fill="lightgray" class="stroke step9"/>
    <path d="M 381 511 Q 382 550 387 566 Q 391 584 379 594 Q 357 616 339 619 Q 327 622 323 617 Q 313 610 324 599 Q 340 568 341 538 Q 347 349 322 312 Q 310 293 319 272 Q 331 244 346 233 Q 356 227 367 244 Q 392 281 479 377 Q 494 392 495 399 Q 495 411 477 399 Q 444 377 406 354 Q 391 344 385 346 Q 378 349 377 364 Q 378 431 380 478 L 381 511 Z" fill="lightgray" class="stroke step9"/>
    <path d="M 672 698 Q 867 735 874 741 Q 883 748 879 756 Q 872 768 844 776 Q 822 782 686 746 Q 560 725 526 723 Q 490 719 515 702 Q 551 678 622 690 L 672 698 Z" fill="lightgray" class="stroke step9"/>
    <path d="M 604 561 Q 626 586 639 602 Q 684 659 692 664 Q 705 677 693 687 Q 684 694 672 698 C 644 709 610 718 622 690 L 623 689 Q 633 668 583 558 C 571 531 584 538 604 561 Z" fill="lightgray" class="stroke step9"/>
    <path d="M 583 558 Q 582 559 581 560 Q 562 575 541 581 Q 534 582 528 576 Q 527 572 532 562 Q 568 481 542 311 Q 521 233 546 204 L 547 203 Q 557 193 564 203 Q 585 230 586 376 Q 586 497 591 533 C 593 550 593 550 583 558 Z" fill="lightgray" class="stroke step9"/>
    <path d="M 776 269 Q 769 248 781 228 Q 794 201 802 202 Q 815 203 830 233 Q 843 257 842 276 Q 815 490 854 550 Q 863 565 855 573 Q 830 594 788 611 Q 773 615 753 608 Q 684 575 604 561 C 575 555 555 527 591 533 Q 597 533 603 534 Q 750 579 770 567 Q 780 545 784 485 Q 785 304 776 269 Z" fill="lightgray" class="stroke step9"/>
    <path d="M 652 413 Q 665 215 617 139 Q 598 108 561 79 Q 525 52 444 16 Q 434 12 430 9 Q 426 5 439 1 Q 512 -5 624 74 Q 636 86 648 99 Q 699 171 701 367 Q 701 406 712 442 Q 716 452 708 458 Q 692 471 660 483 Q 642 490 628 484 Q 612 477 625 463 Q 650 438 652 413 Z" fill="lightgray" class="stroke step9"/>
    <path d="M 734 135 Q 782 86 839 15 Q 852 -4 866 -9 Q 873 -10 881 -2 Q 893 10 884 50 Q 880 86 808 126 Q 762 151 737 163 Q 730 169 727 157 Q 726 145 734 135 Z" fill="lightgray" class="stroke step9"/></g></svg>