<svg version="1.1" viewBox="0 0 13312 1024" xmlns="http://www.w3.org/2000/svg">
  
  <g transform="scale(1, -1) translate(0, -900)" class="origin">
    <style type="text/css">
        .origin {display:none;}
        .hide {display:none;}
        .stroke {fill: #000000;}
        
.step1 {transform: translateX(1024px);}
.step2 {transform: translateX(2048px);}
.step3 {transform: translateX(3072px);}
.step4 {transform: translateX(4096px);}
.step5 {transform: translateX(5120px);}
.step6 {transform: translateX(6144px);}
.step7 {transform: translateX(7168px);}
.step8 {transform: translateX(8192px);}
.step9 {transform: translateX(9216px);}
.step10 {transform: translateX(10240px);}
.step11 {transform: translateX(11264px);}
.step12 {transform: translateX(12288px);}
.step13 {transform: translateX(13312px);}
.step14 {transform: translateX(14336px);}
.step15 {transform: translateX(15360px);}
.step16 {transform: translateX(16384px);}
.step17 {transform: translateX(17408px);}
.step18 {transform: translateX(18432px);}
.step19 {transform: translateX(19456px);}
.step20 {transform: translateX(20480px);}
.step21 {transform: translateX(21504px);}
.step22 {transform: translateX(22528px);}
.step23 {transform: translateX(23552px);}
.step24 {transform: translateX(24576px);}
.step25 {transform: translateX(25600px);}
.step26 {transform: translateX(26624px);}
.step27 {transform: translateX(27648px);}
.step28 {transform: translateX(28672px);}
.step29 {transform: translateX(29696px);}
    </style>

    <path d="M 230 536 Q 267 594 306 668 Q 331 722 354 748 Q 363 760 357 773 Q 353 786 322 807 Q 294 823 274 822 Q 255 819 265 797 Q 281 764 271 735 Q 237 636 183 544 Q 131 454 57 356 Q 47 344 45 338 Q 44 326 57 330 Q 97 342 190 478 Q 197 488 206 500 L 230 536 Z" fill="lightgray"/>
    <path d="M 206 500 Q 233 455 233 367 Q 233 223 202 99 Q 192 54 226 3 Q 227 3 229 0 Q 247 -16 259 11 Q 274 51 273 98 Q 272 384 281 448 Q 288 475 279 486 Q 237 531 230 536 C 208 557 192 527 206 500 Z" fill="lightgray"/>
    <path d="M 464 700 Q 454 704 426 707 Q 416 710 412 705 Q 408 699 416 685 Q 432 652 448 605 L 456 575 Q 471 506 489 486 Q 505 467 510 481 Q 511 488 512 498 L 509 527 Q 508 536 496 586 L 490 613 Q 481 653 478 671 C 473 697 473 697 464 700 Z" fill="lightgray"/>
    <path d="M 683 531 Q 696 512 709 506 Q 719 499 732 518 Q 742 537 764 631 L 778 675 Q 785 690 796 702 Q 808 712 797 725 Q 784 738 746 761 Q 731 767 670 750 Q 642 747 623 739 L 573 727 Q 555 724 541 719 Q 498 709 464 700 C 435 692 449 662 478 671 Q 517 684 575 698 L 620 710 Q 695 732 715 720 Q 727 711 724 694 Q 720 676 717 660 L 711 625 Q 701 582 697 571 Q 693 562 686 559 C 672 544 672 544 683 531 Z" fill="lightgray"/>
    <path d="M 764 631 Q 800 637 905 643 Q 921 644 925 652 Q 929 662 914 672 Q 866 705 799 681 Q 789 680 778 675 L 717 660 Q 671 651 619 639 L 577 630 Q 534 623 490 613 L 448 605 Q 390 595 333 583 Q 317 580 329 567 Q 359 545 387 554 Q 418 566 456 575 L 496 586 Q 532 596 574 603 Q 575 604 577 603 L 618 611 Q 660 620 711 625 L 764 631 Z" fill="lightgray"/>
    <path d="M 616 520 Q 644 527 683 531 C 713 534 712 545 686 559 Q 665 572 637 563 Q 627 562 617 556 L 578 545 Q 541 535 509 527 C 480 520 482 496 512 498 Q 518 498 525 500 Q 544 507 578 513 L 616 520 Z" fill="lightgray"/>
    <path d="M 451 430 Q 439 436 407 438 Q 397 439 394 435 Q 390 429 398 417 Q 423 380 443 318 Q 447 299 461 288 Q 479 272 481 285 Q 482 292 482 304 L 476 332 Q 463 381 458 403 C 452 430 452 430 451 430 Z" fill="lightgray"/>
    <path d="M 746 375 Q 764 420 786 432 Q 799 447 788 460 Q 727 508 686 484 Q 649 471 614 460 L 576 451 Q 513 439 451 430 C 421 426 429 397 458 403 Q 465 404 475 407 Q 524 417 576 428 L 614 436 Q 701 457 713 446 Q 719 442 717 431 Q 713 403 706 379 C 698 350 734 347 746 375 Z" fill="lightgray"/>
    <path d="M 482 304 Q 489 304 497 305 Q 513 309 536 313 L 563 318 Q 635 334 758 346 Q 767 347 768 354 Q 768 361 746 375 L 706 379 Q 703 380 701 379 Q 653 367 612 357 L 573 349 Q 521 340 476 332 C 446 327 452 303 482 304 Z" fill="lightgray"/>
    <path d="M 614 460 Q 614 491 616 520 L 617 556 Q 617 584 618 611 L 619 639 Q 619 672 620 703 Q 620 707 620 710 L 623 739 Q 624 758 628 772 Q 634 797 637 814 Q 640 824 621 838 Q 587 854 565 859 Q 549 862 542 853 Q 535 846 543 832 Q 573 789 573 727 L 575 698 Q 576 665 577 630 L 577 603 Q 577 575 578 545 L 578 513 Q 577 483 576 451 L 576 428 Q 575 391 573 349 C 572 319 612 327 612 357 Q 612 397 614 436 L 614 460 Z" fill="lightgray"/>
    <path d="M 536 313 Q 545 295 531 245 Q 528 239 527 232 L 512 195 Q 503 176 494 163 Q 484 147 487 136 Q 488 126 504 123 Q 541 111 582 88 L 619 67 Q 677 31 763 -44 Q 785 -63 801 -64 Q 820 -64 820 -46 Q 821 -28 797 14 Q 782 44 647 99 L 605 117 Q 571 132 545 140 Q 526 144 537 163 Q 549 185 558 202 L 580 240 Q 587 256 595 265 Q 604 271 601 280 Q 597 293 563 318 C 539 336 530 342 536 313 Z" fill="lightgray"/>
    <path d="M 582 88 Q 530 40 424 -4 Q 411 -8 421 -13 Q 460 -28 541 9 Q 586 28 619 67 L 647 99 Q 662 120 700 190 Q 706 206 716 219 C 733 244 734 245 720 262 Q 696 295 673 293 Q 661 292 663 279 Q 664 266 663 252 L 653 214 Q 653 213 605 117 L 582 88 Z" fill="lightgray"/>
    <path d="M 527 232 Q 433 220 332 205 Q 311 204 327 187 Q 340 174 358 169 Q 379 163 394 168 Q 449 184 512 195 L 558 202 Q 570 205 583 206 Q 614 212 653 214 L 716 219 Q 782 225 916 225 Q 935 225 939 234 Q 945 244 928 258 Q 877 295 813 281 Q 771 272 720 262 L 663 252 Q 638 252 580 240 L 527 232 Z" fill="lightgray"/></g>
<g transform="scale(1, -1) translate(0, -900)">
    <style type="text/css">
        .origin {display:none;}
        .hide {display:none;}
        .stroke {fill: #000000;}
        
.step1 {transform: translateX(1024px);}
.step2 {transform: translateX(2048px);}
.step3 {transform: translateX(3072px);}
.step4 {transform: translateX(4096px);}
.step5 {transform: translateX(5120px);}
.step6 {transform: translateX(6144px);}
.step7 {transform: translateX(7168px);}
.step8 {transform: translateX(8192px);}
.step9 {transform: translateX(9216px);}
.step10 {transform: translateX(10240px);}
.step11 {transform: translateX(11264px);}
.step12 {transform: translateX(12288px);}
.step13 {transform: translateX(13312px);}
.step14 {transform: translateX(14336px);}
.step15 {transform: translateX(15360px);}
.step16 {transform: translateX(16384px);}
.step17 {transform: translateX(17408px);}
.step18 {transform: translateX(18432px);}
.step19 {transform: translateX(19456px);}
.step20 {transform: translateX(20480px);}
.step21 {transform: translateX(21504px);}
.step22 {transform: translateX(22528px);}
.step23 {transform: translateX(23552px);}
.step24 {transform: translateX(24576px);}
.step25 {transform: translateX(25600px);}
.step26 {transform: translateX(26624px);}
.step27 {transform: translateX(27648px);}
.step28 {transform: translateX(28672px);}
.step29 {transform: translateX(29696px);}
    </style>

    <path d="M 230 536 Q 267 594 306 668 Q 331 722 354 748 Q 363 760 357 773 Q 353 786 322 807 Q 294 823 274 822 Q 255 819 265 797 Q 281 764 271 735 Q 237 636 183 544 Q 131 454 57 356 Q 47 344 45 338 Q 44 326 57 330 Q 97 342 190 478 Q 197 488 206 500 L 230 536 Z" fill="lightgray" class="stroke step0"/>
    <path d="M 206 500 Q 233 455 233 367 Q 233 223 202 99 Q 192 54 226 3 Q 227 3 229 0 Q 247 -16 259 11 Q 274 51 273 98 Q 272 384 281 448 Q 288 475 279 486 Q 237 531 230 536 C 208 557 192 527 206 500 Z" fill="lightgray" class="hide"/>
    <path d="M 464 700 Q 454 704 426 707 Q 416 710 412 705 Q 408 699 416 685 Q 432 652 448 605 L 456 575 Q 471 506 489 486 Q 505 467 510 481 Q 511 488 512 498 L 509 527 Q 508 536 496 586 L 490 613 Q 481 653 478 671 C 473 697 473 697 464 700 Z" fill="lightgray" class="hide"/>
    <path d="M 683 531 Q 696 512 709 506 Q 719 499 732 518 Q 742 537 764 631 L 778 675 Q 785 690 796 702 Q 808 712 797 725 Q 784 738 746 761 Q 731 767 670 750 Q 642 747 623 739 L 573 727 Q 555 724 541 719 Q 498 709 464 700 C 435 692 449 662 478 671 Q 517 684 575 698 L 620 710 Q 695 732 715 720 Q 727 711 724 694 Q 720 676 717 660 L 711 625 Q 701 582 697 571 Q 693 562 686 559 C 672 544 672 544 683 531 Z" fill="lightgray" class="hide"/>
    <path d="M 764 631 Q 800 637 905 643 Q 921 644 925 652 Q 929 662 914 672 Q 866 705 799 681 Q 789 680 778 675 L 717 660 Q 671 651 619 639 L 577 630 Q 534 623 490 613 L 448 605 Q 390 595 333 583 Q 317 580 329 567 Q 359 545 387 554 Q 418 566 456 575 L 496 586 Q 532 596 574 603 Q 575 604 577 603 L 618 611 Q 660 620 711 625 L 764 631 Z" fill="lightgray" class="hide"/>
    <path d="M 616 520 Q 644 527 683 531 C 713 534 712 545 686 559 Q 665 572 637 563 Q 627 562 617 556 L 578 545 Q 541 535 509 527 C 480 520 482 496 512 498 Q 518 498 525 500 Q 544 507 578 513 L 616 520 Z" fill="lightgray" class="hide"/>
    <path d="M 451 430 Q 439 436 407 438 Q 397 439 394 435 Q 390 429 398 417 Q 423 380 443 318 Q 447 299 461 288 Q 479 272 481 285 Q 482 292 482 304 L 476 332 Q 463 381 458 403 C 452 430 452 430 451 430 Z" fill="lightgray" class="hide"/>
    <path d="M 746 375 Q 764 420 786 432 Q 799 447 788 460 Q 727 508 686 484 Q 649 471 614 460 L 576 451 Q 513 439 451 430 C 421 426 429 397 458 403 Q 465 404 475 407 Q 524 417 576 428 L 614 436 Q 701 457 713 446 Q 719 442 717 431 Q 713 403 706 379 C 698 350 734 347 746 375 Z" fill="lightgray" class="hide"/>
    <path d="M 482 304 Q 489 304 497 305 Q 513 309 536 313 L 563 318 Q 635 334 758 346 Q 767 347 768 354 Q 768 361 746 375 L 706 379 Q 703 380 701 379 Q 653 367 612 357 L 573 349 Q 521 340 476 332 C 446 327 452 303 482 304 Z" fill="lightgray" class="hide"/>
    <path d="M 614 460 Q 614 491 616 520 L 617 556 Q 617 584 618 611 L 619 639 Q 619 672 620 703 Q 620 707 620 710 L 623 739 Q 624 758 628 772 Q 634 797 637 814 Q 640 824 621 838 Q 587 854 565 859 Q 549 862 542 853 Q 535 846 543 832 Q 573 789 573 727 L 575 698 Q 576 665 577 630 L 577 603 Q 577 575 578 545 L 578 513 Q 577 483 576 451 L 576 428 Q 575 391 573 349 C 572 319 612 327 612 357 Q 612 397 614 436 L 614 460 Z" fill="lightgray" class="hide"/>
    <path d="M 536 313 Q 545 295 531 245 Q 528 239 527 232 L 512 195 Q 503 176 494 163 Q 484 147 487 136 Q 488 126 504 123 Q 541 111 582 88 L 619 67 Q 677 31 763 -44 Q 785 -63 801 -64 Q 820 -64 820 -46 Q 821 -28 797 14 Q 782 44 647 99 L 605 117 Q 571 132 545 140 Q 526 144 537 163 Q 549 185 558 202 L 580 240 Q 587 256 595 265 Q 604 271 601 280 Q 597 293 563 318 C 539 336 530 342 536 313 Z" fill="lightgray" class="hide"/>
    <path d="M 582 88 Q 530 40 424 -4 Q 411 -8 421 -13 Q 460 -28 541 9 Q 586 28 619 67 L 647 99 Q 662 120 700 190 Q 706 206 716 219 C 733 244 734 245 720 262 Q 696 295 673 293 Q 661 292 663 279 Q 664 266 663 252 L 653 214 Q 653 213 605 117 L 582 88 Z" fill="lightgray" class="hide"/>
    <path d="M 527 232 Q 433 220 332 205 Q 311 204 327 187 Q 340 174 358 169 Q 379 163 394 168 Q 449 184 512 195 L 558 202 Q 570 205 583 206 Q 614 212 653 214 L 716 219 Q 782 225 916 225 Q 935 225 939 234 Q 945 244 928 258 Q 877 295 813 281 Q 771 272 720 262 L 663 252 Q 638 252 580 240 L 527 232 Z" fill="lightgray" class="hide"/></g><g transform="scale(1, -1) translate(0, -900)">
    <style type="text/css">
        .origin {display:none;}
        .hide {display:none;}
        .stroke {fill: #000000;}
        
.step1 {transform: translateX(1024px);}
.step2 {transform: translateX(2048px);}
.step3 {transform: translateX(3072px);}
.step4 {transform: translateX(4096px);}
.step5 {transform: translateX(5120px);}
.step6 {transform: translateX(6144px);}
.step7 {transform: translateX(7168px);}
.step8 {transform: translateX(8192px);}
.step9 {transform: translateX(9216px);}
.step10 {transform: translateX(10240px);}
.step11 {transform: translateX(11264px);}
.step12 {transform: translateX(12288px);}
.step13 {transform: translateX(13312px);}
.step14 {transform: translateX(14336px);}
.step15 {transform: translateX(15360px);}
.step16 {transform: translateX(16384px);}
.step17 {transform: translateX(17408px);}
.step18 {transform: translateX(18432px);}
.step19 {transform: translateX(19456px);}
.step20 {transform: translateX(20480px);}
.step21 {transform: translateX(21504px);}
.step22 {transform: translateX(22528px);}
.step23 {transform: translateX(23552px);}
.step24 {transform: translateX(24576px);}
.step25 {transform: translateX(25600px);}
.step26 {transform: translateX(26624px);}
.step27 {transform: translateX(27648px);}
.step28 {transform: translateX(28672px);}
.step29 {transform: translateX(29696px);}
    </style>

    <path d="M 230 536 Q 267 594 306 668 Q 331 722 354 748 Q 363 760 357 773 Q 353 786 322 807 Q 294 823 274 822 Q 255 819 265 797 Q 281 764 271 735 Q 237 636 183 544 Q 131 454 57 356 Q 47 344 45 338 Q 44 326 57 330 Q 97 342 190 478 Q 197 488 206 500 L 230 536 Z" fill="lightgray" class="stroke step1"/>
    <path d="M 206 500 Q 233 455 233 367 Q 233 223 202 99 Q 192 54 226 3 Q 227 3 229 0 Q 247 -16 259 11 Q 274 51 273 98 Q 272 384 281 448 Q 288 475 279 486 Q 237 531 230 536 C 208 557 192 527 206 500 Z" fill="lightgray" class="stroke step1"/>
    <path d="M 464 700 Q 454 704 426 707 Q 416 710 412 705 Q 408 699 416 685 Q 432 652 448 605 L 456 575 Q 471 506 489 486 Q 505 467 510 481 Q 511 488 512 498 L 509 527 Q 508 536 496 586 L 490 613 Q 481 653 478 671 C 473 697 473 697 464 700 Z" fill="lightgray" class="hide"/>
    <path d="M 683 531 Q 696 512 709 506 Q 719 499 732 518 Q 742 537 764 631 L 778 675 Q 785 690 796 702 Q 808 712 797 725 Q 784 738 746 761 Q 731 767 670 750 Q 642 747 623 739 L 573 727 Q 555 724 541 719 Q 498 709 464 700 C 435 692 449 662 478 671 Q 517 684 575 698 L 620 710 Q 695 732 715 720 Q 727 711 724 694 Q 720 676 717 660 L 711 625 Q 701 582 697 571 Q 693 562 686 559 C 672 544 672 544 683 531 Z" fill="lightgray" class="hide"/>
    <path d="M 764 631 Q 800 637 905 643 Q 921 644 925 652 Q 929 662 914 672 Q 866 705 799 681 Q 789 680 778 675 L 717 660 Q 671 651 619 639 L 577 630 Q 534 623 490 613 L 448 605 Q 390 595 333 583 Q 317 580 329 567 Q 359 545 387 554 Q 418 566 456 575 L 496 586 Q 532 596 574 603 Q 575 604 577 603 L 618 611 Q 660 620 711 625 L 764 631 Z" fill="lightgray" class="hide"/>
    <path d="M 616 520 Q 644 527 683 531 C 713 534 712 545 686 559 Q 665 572 637 563 Q 627 562 617 556 L 578 545 Q 541 535 509 527 C 480 520 482 496 512 498 Q 518 498 525 500 Q 544 507 578 513 L 616 520 Z" fill="lightgray" class="hide"/>
    <path d="M 451 430 Q 439 436 407 438 Q 397 439 394 435 Q 390 429 398 417 Q 423 380 443 318 Q 447 299 461 288 Q 479 272 481 285 Q 482 292 482 304 L 476 332 Q 463 381 458 403 C 452 430 452 430 451 430 Z" fill="lightgray" class="hide"/>
    <path d="M 746 375 Q 764 420 786 432 Q 799 447 788 460 Q 727 508 686 484 Q 649 471 614 460 L 576 451 Q 513 439 451 430 C 421 426 429 397 458 403 Q 465 404 475 407 Q 524 417 576 428 L 614 436 Q 701 457 713 446 Q 719 442 717 431 Q 713 403 706 379 C 698 350 734 347 746 375 Z" fill="lightgray" class="hide"/>
    <path d="M 482 304 Q 489 304 497 305 Q 513 309 536 313 L 563 318 Q 635 334 758 346 Q 767 347 768 354 Q 768 361 746 375 L 706 379 Q 703 380 701 379 Q 653 367 612 357 L 573 349 Q 521 340 476 332 C 446 327 452 303 482 304 Z" fill="lightgray" class="hide"/>
    <path d="M 614 460 Q 614 491 616 520 L 617 556 Q 617 584 618 611 L 619 639 Q 619 672 620 703 Q 620 707 620 710 L 623 739 Q 624 758 628 772 Q 634 797 637 814 Q 640 824 621 838 Q 587 854 565 859 Q 549 862 542 853 Q 535 846 543 832 Q 573 789 573 727 L 575 698 Q 576 665 577 630 L 577 603 Q 577 575 578 545 L 578 513 Q 577 483 576 451 L 576 428 Q 575 391 573 349 C 572 319 612 327 612 357 Q 612 397 614 436 L 614 460 Z" fill="lightgray" class="hide"/>
    <path d="M 536 313 Q 545 295 531 245 Q 528 239 527 232 L 512 195 Q 503 176 494 163 Q 484 147 487 136 Q 488 126 504 123 Q 541 111 582 88 L 619 67 Q 677 31 763 -44 Q 785 -63 801 -64 Q 820 -64 820 -46 Q 821 -28 797 14 Q 782 44 647 99 L 605 117 Q 571 132 545 140 Q 526 144 537 163 Q 549 185 558 202 L 580 240 Q 587 256 595 265 Q 604 271 601 280 Q 597 293 563 318 C 539 336 530 342 536 313 Z" fill="lightgray" class="hide"/>
    <path d="M 582 88 Q 530 40 424 -4 Q 411 -8 421 -13 Q 460 -28 541 9 Q 586 28 619 67 L 647 99 Q 662 120 700 190 Q 706 206 716 219 C 733 244 734 245 720 262 Q 696 295 673 293 Q 661 292 663 279 Q 664 266 663 252 L 653 214 Q 653 213 605 117 L 582 88 Z" fill="lightgray" class="hide"/>
    <path d="M 527 232 Q 433 220 332 205 Q 311 204 327 187 Q 340 174 358 169 Q 379 163 394 168 Q 449 184 512 195 L 558 202 Q 570 205 583 206 Q 614 212 653 214 L 716 219 Q 782 225 916 225 Q 935 225 939 234 Q 945 244 928 258 Q 877 295 813 281 Q 771 272 720 262 L 663 252 Q 638 252 580 240 L 527 232 Z" fill="lightgray" class="hide"/></g><g transform="scale(1, -1) translate(0, -900)">
    <style type="text/css">
        .origin {display:none;}
        .hide {display:none;}
        .stroke {fill: #000000;}
        
.step1 {transform: translateX(1024px);}
.step2 {transform: translateX(2048px);}
.step3 {transform: translateX(3072px);}
.step4 {transform: translateX(4096px);}
.step5 {transform: translateX(5120px);}
.step6 {transform: translateX(6144px);}
.step7 {transform: translateX(7168px);}
.step8 {transform: translateX(8192px);}
.step9 {transform: translateX(9216px);}
.step10 {transform: translateX(10240px);}
.step11 {transform: translateX(11264px);}
.step12 {transform: translateX(12288px);}
.step13 {transform: translateX(13312px);}
.step14 {transform: translateX(14336px);}
.step15 {transform: translateX(15360px);}
.step16 {transform: translateX(16384px);}
.step17 {transform: translateX(17408px);}
.step18 {transform: translateX(18432px);}
.step19 {transform: translateX(19456px);}
.step20 {transform: translateX(20480px);}
.step21 {transform: translateX(21504px);}
.step22 {transform: translateX(22528px);}
.step23 {transform: translateX(23552px);}
.step24 {transform: translateX(24576px);}
.step25 {transform: translateX(25600px);}
.step26 {transform: translateX(26624px);}
.step27 {transform: translateX(27648px);}
.step28 {transform: translateX(28672px);}
.step29 {transform: translateX(29696px);}
    </style>

    <path d="M 230 536 Q 267 594 306 668 Q 331 722 354 748 Q 363 760 357 773 Q 353 786 322 807 Q 294 823 274 822 Q 255 819 265 797 Q 281 764 271 735 Q 237 636 183 544 Q 131 454 57 356 Q 47 344 45 338 Q 44 326 57 330 Q 97 342 190 478 Q 197 488 206 500 L 230 536 Z" fill="lightgray" class="stroke step2"/>
    <path d="M 206 500 Q 233 455 233 367 Q 233 223 202 99 Q 192 54 226 3 Q 227 3 229 0 Q 247 -16 259 11 Q 274 51 273 98 Q 272 384 281 448 Q 288 475 279 486 Q 237 531 230 536 C 208 557 192 527 206 500 Z" fill="lightgray" class="stroke step2"/>
    <path d="M 464 700 Q 454 704 426 707 Q 416 710 412 705 Q 408 699 416 685 Q 432 652 448 605 L 456 575 Q 471 506 489 486 Q 505 467 510 481 Q 511 488 512 498 L 509 527 Q 508 536 496 586 L 490 613 Q 481 653 478 671 C 473 697 473 697 464 700 Z" fill="lightgray" class="stroke step2"/>
    <path d="M 683 531 Q 696 512 709 506 Q 719 499 732 518 Q 742 537 764 631 L 778 675 Q 785 690 796 702 Q 808 712 797 725 Q 784 738 746 761 Q 731 767 670 750 Q 642 747 623 739 L 573 727 Q 555 724 541 719 Q 498 709 464 700 C 435 692 449 662 478 671 Q 517 684 575 698 L 620 710 Q 695 732 715 720 Q 727 711 724 694 Q 720 676 717 660 L 711 625 Q 701 582 697 571 Q 693 562 686 559 C 672 544 672 544 683 531 Z" fill="lightgray" class="hide"/>
    <path d="M 764 631 Q 800 637 905 643 Q 921 644 925 652 Q 929 662 914 672 Q 866 705 799 681 Q 789 680 778 675 L 717 660 Q 671 651 619 639 L 577 630 Q 534 623 490 613 L 448 605 Q 390 595 333 583 Q 317 580 329 567 Q 359 545 387 554 Q 418 566 456 575 L 496 586 Q 532 596 574 603 Q 575 604 577 603 L 618 611 Q 660 620 711 625 L 764 631 Z" fill="lightgray" class="hide"/>
    <path d="M 616 520 Q 644 527 683 531 C 713 534 712 545 686 559 Q 665 572 637 563 Q 627 562 617 556 L 578 545 Q 541 535 509 527 C 480 520 482 496 512 498 Q 518 498 525 500 Q 544 507 578 513 L 616 520 Z" fill="lightgray" class="hide"/>
    <path d="M 451 430 Q 439 436 407 438 Q 397 439 394 435 Q 390 429 398 417 Q 423 380 443 318 Q 447 299 461 288 Q 479 272 481 285 Q 482 292 482 304 L 476 332 Q 463 381 458 403 C 452 430 452 430 451 430 Z" fill="lightgray" class="hide"/>
    <path d="M 746 375 Q 764 420 786 432 Q 799 447 788 460 Q 727 508 686 484 Q 649 471 614 460 L 576 451 Q 513 439 451 430 C 421 426 429 397 458 403 Q 465 404 475 407 Q 524 417 576 428 L 614 436 Q 701 457 713 446 Q 719 442 717 431 Q 713 403 706 379 C 698 350 734 347 746 375 Z" fill="lightgray" class="hide"/>
    <path d="M 482 304 Q 489 304 497 305 Q 513 309 536 313 L 563 318 Q 635 334 758 346 Q 767 347 768 354 Q 768 361 746 375 L 706 379 Q 703 380 701 379 Q 653 367 612 357 L 573 349 Q 521 340 476 332 C 446 327 452 303 482 304 Z" fill="lightgray" class="hide"/>
    <path d="M 614 460 Q 614 491 616 520 L 617 556 Q 617 584 618 611 L 619 639 Q 619 672 620 703 Q 620 707 620 710 L 623 739 Q 624 758 628 772 Q 634 797 637 814 Q 640 824 621 838 Q 587 854 565 859 Q 549 862 542 853 Q 535 846 543 832 Q 573 789 573 727 L 575 698 Q 576 665 577 630 L 577 603 Q 577 575 578 545 L 578 513 Q 577 483 576 451 L 576 428 Q 575 391 573 349 C 572 319 612 327 612 357 Q 612 397 614 436 L 614 460 Z" fill="lightgray" class="hide"/>
    <path d="M 536 313 Q 545 295 531 245 Q 528 239 527 232 L 512 195 Q 503 176 494 163 Q 484 147 487 136 Q 488 126 504 123 Q 541 111 582 88 L 619 67 Q 677 31 763 -44 Q 785 -63 801 -64 Q 820 -64 820 -46 Q 821 -28 797 14 Q 782 44 647 99 L 605 117 Q 571 132 545 140 Q 526 144 537 163 Q 549 185 558 202 L 580 240 Q 587 256 595 265 Q 604 271 601 280 Q 597 293 563 318 C 539 336 530 342 536 313 Z" fill="lightgray" class="hide"/>
    <path d="M 582 88 Q 530 40 424 -4 Q 411 -8 421 -13 Q 460 -28 541 9 Q 586 28 619 67 L 647 99 Q 662 120 700 190 Q 706 206 716 219 C 733 244 734 245 720 262 Q 696 295 673 293 Q 661 292 663 279 Q 664 266 663 252 L 653 214 Q 653 213 605 117 L 582 88 Z" fill="lightgray" class="hide"/>
    <path d="M 527 232 Q 433 220 332 205 Q 311 204 327 187 Q 340 174 358 169 Q 379 163 394 168 Q 449 184 512 195 L 558 202 Q 570 205 583 206 Q 614 212 653 214 L 716 219 Q 782 225 916 225 Q 935 225 939 234 Q 945 244 928 258 Q 877 295 813 281 Q 771 272 720 262 L 663 252 Q 638 252 580 240 L 527 232 Z" fill="lightgray" class="hide"/></g><g transform="scale(1, -1) translate(0, -900)">
    <style type="text/css">
        .origin {display:none;}
        .hide {display:none;}
        .stroke {fill: #000000;}
        
.step1 {transform: translateX(1024px);}
.step2 {transform: translateX(2048px);}
.step3 {transform: translateX(3072px);}
.step4 {transform: translateX(4096px);}
.step5 {transform: translateX(5120px);}
.step6 {transform: translateX(6144px);}
.step7 {transform: translateX(7168px);}
.step8 {transform: translateX(8192px);}
.step9 {transform: translateX(9216px);}
.step10 {transform: translateX(10240px);}
.step11 {transform: translateX(11264px);}
.step12 {transform: translateX(12288px);}
.step13 {transform: translateX(13312px);}
.step14 {transform: translateX(14336px);}
.step15 {transform: translateX(15360px);}
.step16 {transform: translateX(16384px);}
.step17 {transform: translateX(17408px);}
.step18 {transform: translateX(18432px);}
.step19 {transform: translateX(19456px);}
.step20 {transform: translateX(20480px);}
.step21 {transform: translateX(21504px);}
.step22 {transform: translateX(22528px);}
.step23 {transform: translateX(23552px);}
.step24 {transform: translateX(24576px);}
.step25 {transform: translateX(25600px);}
.step26 {transform: translateX(26624px);}
.step27 {transform: translateX(27648px);}
.step28 {transform: translateX(28672px);}
.step29 {transform: translateX(29696px);}
    </style>

    <path d="M 230 536 Q 267 594 306 668 Q 331 722 354 748 Q 363 760 357 773 Q 353 786 322 807 Q 294 823 274 822 Q 255 819 265 797 Q 281 764 271 735 Q 237 636 183 544 Q 131 454 57 356 Q 47 344 45 338 Q 44 326 57 330 Q 97 342 190 478 Q 197 488 206 500 L 230 536 Z" fill="lightgray" class="stroke step3"/>
    <path d="M 206 500 Q 233 455 233 367 Q 233 223 202 99 Q 192 54 226 3 Q 227 3 229 0 Q 247 -16 259 11 Q 274 51 273 98 Q 272 384 281 448 Q 288 475 279 486 Q 237 531 230 536 C 208 557 192 527 206 500 Z" fill="lightgray" class="stroke step3"/>
    <path d="M 464 700 Q 454 704 426 707 Q 416 710 412 705 Q 408 699 416 685 Q 432 652 448 605 L 456 575 Q 471 506 489 486 Q 505 467 510 481 Q 511 488 512 498 L 509 527 Q 508 536 496 586 L 490 613 Q 481 653 478 671 C 473 697 473 697 464 700 Z" fill="lightgray" class="stroke step3"/>
    <path d="M 683 531 Q 696 512 709 506 Q 719 499 732 518 Q 742 537 764 631 L 778 675 Q 785 690 796 702 Q 808 712 797 725 Q 784 738 746 761 Q 731 767 670 750 Q 642 747 623 739 L 573 727 Q 555 724 541 719 Q 498 709 464 700 C 435 692 449 662 478 671 Q 517 684 575 698 L 620 710 Q 695 732 715 720 Q 727 711 724 694 Q 720 676 717 660 L 711 625 Q 701 582 697 571 Q 693 562 686 559 C 672 544 672 544 683 531 Z" fill="lightgray" class="stroke step3"/>
    <path d="M 764 631 Q 800 637 905 643 Q 921 644 925 652 Q 929 662 914 672 Q 866 705 799 681 Q 789 680 778 675 L 717 660 Q 671 651 619 639 L 577 630 Q 534 623 490 613 L 448 605 Q 390 595 333 583 Q 317 580 329 567 Q 359 545 387 554 Q 418 566 456 575 L 496 586 Q 532 596 574 603 Q 575 604 577 603 L 618 611 Q 660 620 711 625 L 764 631 Z" fill="lightgray" class="hide"/>
    <path d="M 616 520 Q 644 527 683 531 C 713 534 712 545 686 559 Q 665 572 637 563 Q 627 562 617 556 L 578 545 Q 541 535 509 527 C 480 520 482 496 512 498 Q 518 498 525 500 Q 544 507 578 513 L 616 520 Z" fill="lightgray" class="hide"/>
    <path d="M 451 430 Q 439 436 407 438 Q 397 439 394 435 Q 390 429 398 417 Q 423 380 443 318 Q 447 299 461 288 Q 479 272 481 285 Q 482 292 482 304 L 476 332 Q 463 381 458 403 C 452 430 452 430 451 430 Z" fill="lightgray" class="hide"/>
    <path d="M 746 375 Q 764 420 786 432 Q 799 447 788 460 Q 727 508 686 484 Q 649 471 614 460 L 576 451 Q 513 439 451 430 C 421 426 429 397 458 403 Q 465 404 475 407 Q 524 417 576 428 L 614 436 Q 701 457 713 446 Q 719 442 717 431 Q 713 403 706 379 C 698 350 734 347 746 375 Z" fill="lightgray" class="hide"/>
    <path d="M 482 304 Q 489 304 497 305 Q 513 309 536 313 L 563 318 Q 635 334 758 346 Q 767 347 768 354 Q 768 361 746 375 L 706 379 Q 703 380 701 379 Q 653 367 612 357 L 573 349 Q 521 340 476 332 C 446 327 452 303 482 304 Z" fill="lightgray" class="hide"/>
    <path d="M 614 460 Q 614 491 616 520 L 617 556 Q 617 584 618 611 L 619 639 Q 619 672 620 703 Q 620 707 620 710 L 623 739 Q 624 758 628 772 Q 634 797 637 814 Q 640 824 621 838 Q 587 854 565 859 Q 549 862 542 853 Q 535 846 543 832 Q 573 789 573 727 L 575 698 Q 576 665 577 630 L 577 603 Q 577 575 578 545 L 578 513 Q 577 483 576 451 L 576 428 Q 575 391 573 349 C 572 319 612 327 612 357 Q 612 397 614 436 L 614 460 Z" fill="lightgray" class="hide"/>
    <path d="M 536 313 Q 545 295 531 245 Q 528 239 527 232 L 512 195 Q 503 176 494 163 Q 484 147 487 136 Q 488 126 504 123 Q 541 111 582 88 L 619 67 Q 677 31 763 -44 Q 785 -63 801 -64 Q 820 -64 820 -46 Q 821 -28 797 14 Q 782 44 647 99 L 605 117 Q 571 132 545 140 Q 526 144 537 163 Q 549 185 558 202 L 580 240 Q 587 256 595 265 Q 604 271 601 280 Q 597 293 563 318 C 539 336 530 342 536 313 Z" fill="lightgray" class="hide"/>
    <path d="M 582 88 Q 530 40 424 -4 Q 411 -8 421 -13 Q 460 -28 541 9 Q 586 28 619 67 L 647 99 Q 662 120 700 190 Q 706 206 716 219 C 733 244 734 245 720 262 Q 696 295 673 293 Q 661 292 663 279 Q 664 266 663 252 L 653 214 Q 653 213 605 117 L 582 88 Z" fill="lightgray" class="hide"/>
    <path d="M 527 232 Q 433 220 332 205 Q 311 204 327 187 Q 340 174 358 169 Q 379 163 394 168 Q 449 184 512 195 L 558 202 Q 570 205 583 206 Q 614 212 653 214 L 716 219 Q 782 225 916 225 Q 935 225 939 234 Q 945 244 928 258 Q 877 295 813 281 Q 771 272 720 262 L 663 252 Q 638 252 580 240 L 527 232 Z" fill="lightgray" class="hide"/></g><g transform="scale(1, -1) translate(0, -900)">
    <style type="text/css">
        .origin {display:none;}
        .hide {display:none;}
        .stroke {fill: #000000;}
        
.step1 {transform: translateX(1024px);}
.step2 {transform: translateX(2048px);}
.step3 {transform: translateX(3072px);}
.step4 {transform: translateX(4096px);}
.step5 {transform: translateX(5120px);}
.step6 {transform: translateX(6144px);}
.step7 {transform: translateX(7168px);}
.step8 {transform: translateX(8192px);}
.step9 {transform: translateX(9216px);}
.step10 {transform: translateX(10240px);}
.step11 {transform: translateX(11264px);}
.step12 {transform: translateX(12288px);}
.step13 {transform: translateX(13312px);}
.step14 {transform: translateX(14336px);}
.step15 {transform: translateX(15360px);}
.step16 {transform: translateX(16384px);}
.step17 {transform: translateX(17408px);}
.step18 {transform: translateX(18432px);}
.step19 {transform: translateX(19456px);}
.step20 {transform: translateX(20480px);}
.step21 {transform: translateX(21504px);}
.step22 {transform: translateX(22528px);}
.step23 {transform: translateX(23552px);}
.step24 {transform: translateX(24576px);}
.step25 {transform: translateX(25600px);}
.step26 {transform: translateX(26624px);}
.step27 {transform: translateX(27648px);}
.step28 {transform: translateX(28672px);}
.step29 {transform: translateX(29696px);}
    </style>

    <path d="M 230 536 Q 267 594 306 668 Q 331 722 354 748 Q 363 760 357 773 Q 353 786 322 807 Q 294 823 274 822 Q 255 819 265 797 Q 281 764 271 735 Q 237 636 183 544 Q 131 454 57 356 Q 47 344 45 338 Q 44 326 57 330 Q 97 342 190 478 Q 197 488 206 500 L 230 536 Z" fill="lightgray" class="stroke step4"/>
    <path d="M 206 500 Q 233 455 233 367 Q 233 223 202 99 Q 192 54 226 3 Q 227 3 229 0 Q 247 -16 259 11 Q 274 51 273 98 Q 272 384 281 448 Q 288 475 279 486 Q 237 531 230 536 C 208 557 192 527 206 500 Z" fill="lightgray" class="stroke step4"/>
    <path d="M 464 700 Q 454 704 426 707 Q 416 710 412 705 Q 408 699 416 685 Q 432 652 448 605 L 456 575 Q 471 506 489 486 Q 505 467 510 481 Q 511 488 512 498 L 509 527 Q 508 536 496 586 L 490 613 Q 481 653 478 671 C 473 697 473 697 464 700 Z" fill="lightgray" class="stroke step4"/>
    <path d="M 683 531 Q 696 512 709 506 Q 719 499 732 518 Q 742 537 764 631 L 778 675 Q 785 690 796 702 Q 808 712 797 725 Q 784 738 746 761 Q 731 767 670 750 Q 642 747 623 739 L 573 727 Q 555 724 541 719 Q 498 709 464 700 C 435 692 449 662 478 671 Q 517 684 575 698 L 620 710 Q 695 732 715 720 Q 727 711 724 694 Q 720 676 717 660 L 711 625 Q 701 582 697 571 Q 693 562 686 559 C 672 544 672 544 683 531 Z" fill="lightgray" class="stroke step4"/>
    <path d="M 764 631 Q 800 637 905 643 Q 921 644 925 652 Q 929 662 914 672 Q 866 705 799 681 Q 789 680 778 675 L 717 660 Q 671 651 619 639 L 577 630 Q 534 623 490 613 L 448 605 Q 390 595 333 583 Q 317 580 329 567 Q 359 545 387 554 Q 418 566 456 575 L 496 586 Q 532 596 574 603 Q 575 604 577 603 L 618 611 Q 660 620 711 625 L 764 631 Z" fill="lightgray" class="stroke step4"/>
    <path d="M 616 520 Q 644 527 683 531 C 713 534 712 545 686 559 Q 665 572 637 563 Q 627 562 617 556 L 578 545 Q 541 535 509 527 C 480 520 482 496 512 498 Q 518 498 525 500 Q 544 507 578 513 L 616 520 Z" fill="lightgray" class="hide"/>
    <path d="M 451 430 Q 439 436 407 438 Q 397 439 394 435 Q 390 429 398 417 Q 423 380 443 318 Q 447 299 461 288 Q 479 272 481 285 Q 482 292 482 304 L 476 332 Q 463 381 458 403 C 452 430 452 430 451 430 Z" fill="lightgray" class="hide"/>
    <path d="M 746 375 Q 764 420 786 432 Q 799 447 788 460 Q 727 508 686 484 Q 649 471 614 460 L 576 451 Q 513 439 451 430 C 421 426 429 397 458 403 Q 465 404 475 407 Q 524 417 576 428 L 614 436 Q 701 457 713 446 Q 719 442 717 431 Q 713 403 706 379 C 698 350 734 347 746 375 Z" fill="lightgray" class="hide"/>
    <path d="M 482 304 Q 489 304 497 305 Q 513 309 536 313 L 563 318 Q 635 334 758 346 Q 767 347 768 354 Q 768 361 746 375 L 706 379 Q 703 380 701 379 Q 653 367 612 357 L 573 349 Q 521 340 476 332 C 446 327 452 303 482 304 Z" fill="lightgray" class="hide"/>
    <path d="M 614 460 Q 614 491 616 520 L 617 556 Q 617 584 618 611 L 619 639 Q 619 672 620 703 Q 620 707 620 710 L 623 739 Q 624 758 628 772 Q 634 797 637 814 Q 640 824 621 838 Q 587 854 565 859 Q 549 862 542 853 Q 535 846 543 832 Q 573 789 573 727 L 575 698 Q 576 665 577 630 L 577 603 Q 577 575 578 545 L 578 513 Q 577 483 576 451 L 576 428 Q 575 391 573 349 C 572 319 612 327 612 357 Q 612 397 614 436 L 614 460 Z" fill="lightgray" class="hide"/>
    <path d="M 536 313 Q 545 295 531 245 Q 528 239 527 232 L 512 195 Q 503 176 494 163 Q 484 147 487 136 Q 488 126 504 123 Q 541 111 582 88 L 619 67 Q 677 31 763 -44 Q 785 -63 801 -64 Q 820 -64 820 -46 Q 821 -28 797 14 Q 782 44 647 99 L 605 117 Q 571 132 545 140 Q 526 144 537 163 Q 549 185 558 202 L 580 240 Q 587 256 595 265 Q 604 271 601 280 Q 597 293 563 318 C 539 336 530 342 536 313 Z" fill="lightgray" class="hide"/>
    <path d="M 582 88 Q 530 40 424 -4 Q 411 -8 421 -13 Q 460 -28 541 9 Q 586 28 619 67 L 647 99 Q 662 120 700 190 Q 706 206 716 219 C 733 244 734 245 720 262 Q 696 295 673 293 Q 661 292 663 279 Q 664 266 663 252 L 653 214 Q 653 213 605 117 L 582 88 Z" fill="lightgray" class="hide"/>
    <path d="M 527 232 Q 433 220 332 205 Q 311 204 327 187 Q 340 174 358 169 Q 379 163 394 168 Q 449 184 512 195 L 558 202 Q 570 205 583 206 Q 614 212 653 214 L 716 219 Q 782 225 916 225 Q 935 225 939 234 Q 945 244 928 258 Q 877 295 813 281 Q 771 272 720 262 L 663 252 Q 638 252 580 240 L 527 232 Z" fill="lightgray" class="hide"/></g><g transform="scale(1, -1) translate(0, -900)">
    <style type="text/css">
        .origin {display:none;}
        .hide {display:none;}
        .stroke {fill: #000000;}
        
.step1 {transform: translateX(1024px);}
.step2 {transform: translateX(2048px);}
.step3 {transform: translateX(3072px);}
.step4 {transform: translateX(4096px);}
.step5 {transform: translateX(5120px);}
.step6 {transform: translateX(6144px);}
.step7 {transform: translateX(7168px);}
.step8 {transform: translateX(8192px);}
.step9 {transform: translateX(9216px);}
.step10 {transform: translateX(10240px);}
.step11 {transform: translateX(11264px);}
.step12 {transform: translateX(12288px);}
.step13 {transform: translateX(13312px);}
.step14 {transform: translateX(14336px);}
.step15 {transform: translateX(15360px);}
.step16 {transform: translateX(16384px);}
.step17 {transform: translateX(17408px);}
.step18 {transform: translateX(18432px);}
.step19 {transform: translateX(19456px);}
.step20 {transform: translateX(20480px);}
.step21 {transform: translateX(21504px);}
.step22 {transform: translateX(22528px);}
.step23 {transform: translateX(23552px);}
.step24 {transform: translateX(24576px);}
.step25 {transform: translateX(25600px);}
.step26 {transform: translateX(26624px);}
.step27 {transform: translateX(27648px);}
.step28 {transform: translateX(28672px);}
.step29 {transform: translateX(29696px);}
    </style>

    <path d="M 230 536 Q 267 594 306 668 Q 331 722 354 748 Q 363 760 357 773 Q 353 786 322 807 Q 294 823 274 822 Q 255 819 265 797 Q 281 764 271 735 Q 237 636 183 544 Q 131 454 57 356 Q 47 344 45 338 Q 44 326 57 330 Q 97 342 190 478 Q 197 488 206 500 L 230 536 Z" fill="lightgray" class="stroke step5"/>
    <path d="M 206 500 Q 233 455 233 367 Q 233 223 202 99 Q 192 54 226 3 Q 227 3 229 0 Q 247 -16 259 11 Q 274 51 273 98 Q 272 384 281 448 Q 288 475 279 486 Q 237 531 230 536 C 208 557 192 527 206 500 Z" fill="lightgray" class="stroke step5"/>
    <path d="M 464 700 Q 454 704 426 707 Q 416 710 412 705 Q 408 699 416 685 Q 432 652 448 605 L 456 575 Q 471 506 489 486 Q 505 467 510 481 Q 511 488 512 498 L 509 527 Q 508 536 496 586 L 490 613 Q 481 653 478 671 C 473 697 473 697 464 700 Z" fill="lightgray" class="stroke step5"/>
    <path d="M 683 531 Q 696 512 709 506 Q 719 499 732 518 Q 742 537 764 631 L 778 675 Q 785 690 796 702 Q 808 712 797 725 Q 784 738 746 761 Q 731 767 670 750 Q 642 747 623 739 L 573 727 Q 555 724 541 719 Q 498 709 464 700 C 435 692 449 662 478 671 Q 517 684 575 698 L 620 710 Q 695 732 715 720 Q 727 711 724 694 Q 720 676 717 660 L 711 625 Q 701 582 697 571 Q 693 562 686 559 C 672 544 672 544 683 531 Z" fill="lightgray" class="stroke step5"/>
    <path d="M 764 631 Q 800 637 905 643 Q 921 644 925 652 Q 929 662 914 672 Q 866 705 799 681 Q 789 680 778 675 L 717 660 Q 671 651 619 639 L 577 630 Q 534 623 490 613 L 448 605 Q 390 595 333 583 Q 317 580 329 567 Q 359 545 387 554 Q 418 566 456 575 L 496 586 Q 532 596 574 603 Q 575 604 577 603 L 618 611 Q 660 620 711 625 L 764 631 Z" fill="lightgray" class="stroke step5"/>
    <path d="M 616 520 Q 644 527 683 531 C 713 534 712 545 686 559 Q 665 572 637 563 Q 627 562 617 556 L 578 545 Q 541 535 509 527 C 480 520 482 496 512 498 Q 518 498 525 500 Q 544 507 578 513 L 616 520 Z" fill="lightgray" class="stroke step5"/>
    <path d="M 451 430 Q 439 436 407 438 Q 397 439 394 435 Q 390 429 398 417 Q 423 380 443 318 Q 447 299 461 288 Q 479 272 481 285 Q 482 292 482 304 L 476 332 Q 463 381 458 403 C 452 430 452 430 451 430 Z" fill="lightgray" class="hide"/>
    <path d="M 746 375 Q 764 420 786 432 Q 799 447 788 460 Q 727 508 686 484 Q 649 471 614 460 L 576 451 Q 513 439 451 430 C 421 426 429 397 458 403 Q 465 404 475 407 Q 524 417 576 428 L 614 436 Q 701 457 713 446 Q 719 442 717 431 Q 713 403 706 379 C 698 350 734 347 746 375 Z" fill="lightgray" class="hide"/>
    <path d="M 482 304 Q 489 304 497 305 Q 513 309 536 313 L 563 318 Q 635 334 758 346 Q 767 347 768 354 Q 768 361 746 375 L 706 379 Q 703 380 701 379 Q 653 367 612 357 L 573 349 Q 521 340 476 332 C 446 327 452 303 482 304 Z" fill="lightgray" class="hide"/>
    <path d="M 614 460 Q 614 491 616 520 L 617 556 Q 617 584 618 611 L 619 639 Q 619 672 620 703 Q 620 707 620 710 L 623 739 Q 624 758 628 772 Q 634 797 637 814 Q 640 824 621 838 Q 587 854 565 859 Q 549 862 542 853 Q 535 846 543 832 Q 573 789 573 727 L 575 698 Q 576 665 577 630 L 577 603 Q 577 575 578 545 L 578 513 Q 577 483 576 451 L 576 428 Q 575 391 573 349 C 572 319 612 327 612 357 Q 612 397 614 436 L 614 460 Z" fill="lightgray" class="hide"/>
    <path d="M 536 313 Q 545 295 531 245 Q 528 239 527 232 L 512 195 Q 503 176 494 163 Q 484 147 487 136 Q 488 126 504 123 Q 541 111 582 88 L 619 67 Q 677 31 763 -44 Q 785 -63 801 -64 Q 820 -64 820 -46 Q 821 -28 797 14 Q 782 44 647 99 L 605 117 Q 571 132 545 140 Q 526 144 537 163 Q 549 185 558 202 L 580 240 Q 587 256 595 265 Q 604 271 601 280 Q 597 293 563 318 C 539 336 530 342 536 313 Z" fill="lightgray" class="hide"/>
    <path d="M 582 88 Q 530 40 424 -4 Q 411 -8 421 -13 Q 460 -28 541 9 Q 586 28 619 67 L 647 99 Q 662 120 700 190 Q 706 206 716 219 C 733 244 734 245 720 262 Q 696 295 673 293 Q 661 292 663 279 Q 664 266 663 252 L 653 214 Q 653 213 605 117 L 582 88 Z" fill="lightgray" class="hide"/>
    <path d="M 527 232 Q 433 220 332 205 Q 311 204 327 187 Q 340 174 358 169 Q 379 163 394 168 Q 449 184 512 195 L 558 202 Q 570 205 583 206 Q 614 212 653 214 L 716 219 Q 782 225 916 225 Q 935 225 939 234 Q 945 244 928 258 Q 877 295 813 281 Q 771 272 720 262 L 663 252 Q 638 252 580 240 L 527 232 Z" fill="lightgray" class="hide"/></g><g transform="scale(1, -1) translate(0, -900)">
    <style type="text/css">
        .origin {display:none;}
        .hide {display:none;}
        .stroke {fill: #000000;}
        
.step1 {transform: translateX(1024px);}
.step2 {transform: translateX(2048px);}
.step3 {transform: translateX(3072px);}
.step4 {transform: translateX(4096px);}
.step5 {transform: translateX(5120px);}
.step6 {transform: translateX(6144px);}
.step7 {transform: translateX(7168px);}
.step8 {transform: translateX(8192px);}
.step9 {transform: translateX(9216px);}
.step10 {transform: translateX(10240px);}
.step11 {transform: translateX(11264px);}
.step12 {transform: translateX(12288px);}
.step13 {transform: translateX(13312px);}
.step14 {transform: translateX(14336px);}
.step15 {transform: translateX(15360px);}
.step16 {transform: translateX(16384px);}
.step17 {transform: translateX(17408px);}
.step18 {transform: translateX(18432px);}
.step19 {transform: translateX(19456px);}
.step20 {transform: translateX(20480px);}
.step21 {transform: translateX(21504px);}
.step22 {transform: translateX(22528px);}
.step23 {transform: translateX(23552px);}
.step24 {transform: translateX(24576px);}
.step25 {transform: translateX(25600px);}
.step26 {transform: translateX(26624px);}
.step27 {transform: translateX(27648px);}
.step28 {transform: translateX(28672px);}
.step29 {transform: translateX(29696px);}
    </style>

    <path d="M 230 536 Q 267 594 306 668 Q 331 722 354 748 Q 363 760 357 773 Q 353 786 322 807 Q 294 823 274 822 Q 255 819 265 797 Q 281 764 271 735 Q 237 636 183 544 Q 131 454 57 356 Q 47 344 45 338 Q 44 326 57 330 Q 97 342 190 478 Q 197 488 206 500 L 230 536 Z" fill="lightgray" class="stroke step6"/>
    <path d="M 206 500 Q 233 455 233 367 Q 233 223 202 99 Q 192 54 226 3 Q 227 3 229 0 Q 247 -16 259 11 Q 274 51 273 98 Q 272 384 281 448 Q 288 475 279 486 Q 237 531 230 536 C 208 557 192 527 206 500 Z" fill="lightgray" class="stroke step6"/>
    <path d="M 464 700 Q 454 704 426 707 Q 416 710 412 705 Q 408 699 416 685 Q 432 652 448 605 L 456 575 Q 471 506 489 486 Q 505 467 510 481 Q 511 488 512 498 L 509 527 Q 508 536 496 586 L 490 613 Q 481 653 478 671 C 473 697 473 697 464 700 Z" fill="lightgray" class="stroke step6"/>
    <path d="M 683 531 Q 696 512 709 506 Q 719 499 732 518 Q 742 537 764 631 L 778 675 Q 785 690 796 702 Q 808 712 797 725 Q 784 738 746 761 Q 731 767 670 750 Q 642 747 623 739 L 573 727 Q 555 724 541 719 Q 498 709 464 700 C 435 692 449 662 478 671 Q 517 684 575 698 L 620 710 Q 695 732 715 720 Q 727 711 724 694 Q 720 676 717 660 L 711 625 Q 701 582 697 571 Q 693 562 686 559 C 672 544 672 544 683 531 Z" fill="lightgray" class="stroke step6"/>
    <path d="M 764 631 Q 800 637 905 643 Q 921 644 925 652 Q 929 662 914 672 Q 866 705 799 681 Q 789 680 778 675 L 717 660 Q 671 651 619 639 L 577 630 Q 534 623 490 613 L 448 605 Q 390 595 333 583 Q 317 580 329 567 Q 359 545 387 554 Q 418 566 456 575 L 496 586 Q 532 596 574 603 Q 575 604 577 603 L 618 611 Q 660 620 711 625 L 764 631 Z" fill="lightgray" class="stroke step6"/>
    <path d="M 616 520 Q 644 527 683 531 C 713 534 712 545 686 559 Q 665 572 637 563 Q 627 562 617 556 L 578 545 Q 541 535 509 527 C 480 520 482 496 512 498 Q 518 498 525 500 Q 544 507 578 513 L 616 520 Z" fill="lightgray" class="stroke step6"/>
    <path d="M 451 430 Q 439 436 407 438 Q 397 439 394 435 Q 390 429 398 417 Q 423 380 443 318 Q 447 299 461 288 Q 479 272 481 285 Q 482 292 482 304 L 476 332 Q 463 381 458 403 C 452 430 452 430 451 430 Z" fill="lightgray" class="stroke step6"/>
    <path d="M 746 375 Q 764 420 786 432 Q 799 447 788 460 Q 727 508 686 484 Q 649 471 614 460 L 576 451 Q 513 439 451 430 C 421 426 429 397 458 403 Q 465 404 475 407 Q 524 417 576 428 L 614 436 Q 701 457 713 446 Q 719 442 717 431 Q 713 403 706 379 C 698 350 734 347 746 375 Z" fill="lightgray" class="hide"/>
    <path d="M 482 304 Q 489 304 497 305 Q 513 309 536 313 L 563 318 Q 635 334 758 346 Q 767 347 768 354 Q 768 361 746 375 L 706 379 Q 703 380 701 379 Q 653 367 612 357 L 573 349 Q 521 340 476 332 C 446 327 452 303 482 304 Z" fill="lightgray" class="hide"/>
    <path d="M 614 460 Q 614 491 616 520 L 617 556 Q 617 584 618 611 L 619 639 Q 619 672 620 703 Q 620 707 620 710 L 623 739 Q 624 758 628 772 Q 634 797 637 814 Q 640 824 621 838 Q 587 854 565 859 Q 549 862 542 853 Q 535 846 543 832 Q 573 789 573 727 L 575 698 Q 576 665 577 630 L 577 603 Q 577 575 578 545 L 578 513 Q 577 483 576 451 L 576 428 Q 575 391 573 349 C 572 319 612 327 612 357 Q 612 397 614 436 L 614 460 Z" fill="lightgray" class="hide"/>
    <path d="M 536 313 Q 545 295 531 245 Q 528 239 527 232 L 512 195 Q 503 176 494 163 Q 484 147 487 136 Q 488 126 504 123 Q 541 111 582 88 L 619 67 Q 677 31 763 -44 Q 785 -63 801 -64 Q 820 -64 820 -46 Q 821 -28 797 14 Q 782 44 647 99 L 605 117 Q 571 132 545 140 Q 526 144 537 163 Q 549 185 558 202 L 580 240 Q 587 256 595 265 Q 604 271 601 280 Q 597 293 563 318 C 539 336 530 342 536 313 Z" fill="lightgray" class="hide"/>
    <path d="M 582 88 Q 530 40 424 -4 Q 411 -8 421 -13 Q 460 -28 541 9 Q 586 28 619 67 L 647 99 Q 662 120 700 190 Q 706 206 716 219 C 733 244 734 245 720 262 Q 696 295 673 293 Q 661 292 663 279 Q 664 266 663 252 L 653 214 Q 653 213 605 117 L 582 88 Z" fill="lightgray" class="hide"/>
    <path d="M 527 232 Q 433 220 332 205 Q 311 204 327 187 Q 340 174 358 169 Q 379 163 394 168 Q 449 184 512 195 L 558 202 Q 570 205 583 206 Q 614 212 653 214 L 716 219 Q 782 225 916 225 Q 935 225 939 234 Q 945 244 928 258 Q 877 295 813 281 Q 771 272 720 262 L 663 252 Q 638 252 580 240 L 527 232 Z" fill="lightgray" class="hide"/></g><g transform="scale(1, -1) translate(0, -900)">
    <style type="text/css">
        .origin {display:none;}
        .hide {display:none;}
        .stroke {fill: #000000;}
        
.step1 {transform: translateX(1024px);}
.step2 {transform: translateX(2048px);}
.step3 {transform: translateX(3072px);}
.step4 {transform: translateX(4096px);}
.step5 {transform: translateX(5120px);}
.step6 {transform: translateX(6144px);}
.step7 {transform: translateX(7168px);}
.step8 {transform: translateX(8192px);}
.step9 {transform: translateX(9216px);}
.step10 {transform: translateX(10240px);}
.step11 {transform: translateX(11264px);}
.step12 {transform: translateX(12288px);}
.step13 {transform: translateX(13312px);}
.step14 {transform: translateX(14336px);}
.step15 {transform: translateX(15360px);}
.step16 {transform: translateX(16384px);}
.step17 {transform: translateX(17408px);}
.step18 {transform: translateX(18432px);}
.step19 {transform: translateX(19456px);}
.step20 {transform: translateX(20480px);}
.step21 {transform: translateX(21504px);}
.step22 {transform: translateX(22528px);}
.step23 {transform: translateX(23552px);}
.step24 {transform: translateX(24576px);}
.step25 {transform: translateX(25600px);}
.step26 {transform: translateX(26624px);}
.step27 {transform: translateX(27648px);}
.step28 {transform: translateX(28672px);}
.step29 {transform: translateX(29696px);}
    </style>

    <path d="M 230 536 Q 267 594 306 668 Q 331 722 354 748 Q 363 760 357 773 Q 353 786 322 807 Q 294 823 274 822 Q 255 819 265 797 Q 281 764 271 735 Q 237 636 183 544 Q 131 454 57 356 Q 47 344 45 338 Q 44 326 57 330 Q 97 342 190 478 Q 197 488 206 500 L 230 536 Z" fill="lightgray" class="stroke step7"/>
    <path d="M 206 500 Q 233 455 233 367 Q 233 223 202 99 Q 192 54 226 3 Q 227 3 229 0 Q 247 -16 259 11 Q 274 51 273 98 Q 272 384 281 448 Q 288 475 279 486 Q 237 531 230 536 C 208 557 192 527 206 500 Z" fill="lightgray" class="stroke step7"/>
    <path d="M 464 700 Q 454 704 426 707 Q 416 710 412 705 Q 408 699 416 685 Q 432 652 448 605 L 456 575 Q 471 506 489 486 Q 505 467 510 481 Q 511 488 512 498 L 509 527 Q 508 536 496 586 L 490 613 Q 481 653 478 671 C 473 697 473 697 464 700 Z" fill="lightgray" class="stroke step7"/>
    <path d="M 683 531 Q 696 512 709 506 Q 719 499 732 518 Q 742 537 764 631 L 778 675 Q 785 690 796 702 Q 808 712 797 725 Q 784 738 746 761 Q 731 767 670 750 Q 642 747 623 739 L 573 727 Q 555 724 541 719 Q 498 709 464 700 C 435 692 449 662 478 671 Q 517 684 575 698 L 620 710 Q 695 732 715 720 Q 727 711 724 694 Q 720 676 717 660 L 711 625 Q 701 582 697 571 Q 693 562 686 559 C 672 544 672 544 683 531 Z" fill="lightgray" class="stroke step7"/>
    <path d="M 764 631 Q 800 637 905 643 Q 921 644 925 652 Q 929 662 914 672 Q 866 705 799 681 Q 789 680 778 675 L 717 660 Q 671 651 619 639 L 577 630 Q 534 623 490 613 L 448 605 Q 390 595 333 583 Q 317 580 329 567 Q 359 545 387 554 Q 418 566 456 575 L 496 586 Q 532 596 574 603 Q 575 604 577 603 L 618 611 Q 660 620 711 625 L 764 631 Z" fill="lightgray" class="stroke step7"/>
    <path d="M 616 520 Q 644 527 683 531 C 713 534 712 545 686 559 Q 665 572 637 563 Q 627 562 617 556 L 578 545 Q 541 535 509 527 C 480 520 482 496 512 498 Q 518 498 525 500 Q 544 507 578 513 L 616 520 Z" fill="lightgray" class="stroke step7"/>
    <path d="M 451 430 Q 439 436 407 438 Q 397 439 394 435 Q 390 429 398 417 Q 423 380 443 318 Q 447 299 461 288 Q 479 272 481 285 Q 482 292 482 304 L 476 332 Q 463 381 458 403 C 452 430 452 430 451 430 Z" fill="lightgray" class="stroke step7"/>
    <path d="M 746 375 Q 764 420 786 432 Q 799 447 788 460 Q 727 508 686 484 Q 649 471 614 460 L 576 451 Q 513 439 451 430 C 421 426 429 397 458 403 Q 465 404 475 407 Q 524 417 576 428 L 614 436 Q 701 457 713 446 Q 719 442 717 431 Q 713 403 706 379 C 698 350 734 347 746 375 Z" fill="lightgray" class="stroke step7"/>
    <path d="M 482 304 Q 489 304 497 305 Q 513 309 536 313 L 563 318 Q 635 334 758 346 Q 767 347 768 354 Q 768 361 746 375 L 706 379 Q 703 380 701 379 Q 653 367 612 357 L 573 349 Q 521 340 476 332 C 446 327 452 303 482 304 Z" fill="lightgray" class="hide"/>
    <path d="M 614 460 Q 614 491 616 520 L 617 556 Q 617 584 618 611 L 619 639 Q 619 672 620 703 Q 620 707 620 710 L 623 739 Q 624 758 628 772 Q 634 797 637 814 Q 640 824 621 838 Q 587 854 565 859 Q 549 862 542 853 Q 535 846 543 832 Q 573 789 573 727 L 575 698 Q 576 665 577 630 L 577 603 Q 577 575 578 545 L 578 513 Q 577 483 576 451 L 576 428 Q 575 391 573 349 C 572 319 612 327 612 357 Q 612 397 614 436 L 614 460 Z" fill="lightgray" class="hide"/>
    <path d="M 536 313 Q 545 295 531 245 Q 528 239 527 232 L 512 195 Q 503 176 494 163 Q 484 147 487 136 Q 488 126 504 123 Q 541 111 582 88 L 619 67 Q 677 31 763 -44 Q 785 -63 801 -64 Q 820 -64 820 -46 Q 821 -28 797 14 Q 782 44 647 99 L 605 117 Q 571 132 545 140 Q 526 144 537 163 Q 549 185 558 202 L 580 240 Q 587 256 595 265 Q 604 271 601 280 Q 597 293 563 318 C 539 336 530 342 536 313 Z" fill="lightgray" class="hide"/>
    <path d="M 582 88 Q 530 40 424 -4 Q 411 -8 421 -13 Q 460 -28 541 9 Q 586 28 619 67 L 647 99 Q 662 120 700 190 Q 706 206 716 219 C 733 244 734 245 720 262 Q 696 295 673 293 Q 661 292 663 279 Q 664 266 663 252 L 653 214 Q 653 213 605 117 L 582 88 Z" fill="lightgray" class="hide"/>
    <path d="M 527 232 Q 433 220 332 205 Q 311 204 327 187 Q 340 174 358 169 Q 379 163 394 168 Q 449 184 512 195 L 558 202 Q 570 205 583 206 Q 614 212 653 214 L 716 219 Q 782 225 916 225 Q 935 225 939 234 Q 945 244 928 258 Q 877 295 813 281 Q 771 272 720 262 L 663 252 Q 638 252 580 240 L 527 232 Z" fill="lightgray" class="hide"/></g><g transform="scale(1, -1) translate(0, -900)">
    <style type="text/css">
        .origin {display:none;}
        .hide {display:none;}
        .stroke {fill: #000000;}
        
.step1 {transform: translateX(1024px);}
.step2 {transform: translateX(2048px);}
.step3 {transform: translateX(3072px);}
.step4 {transform: translateX(4096px);}
.step5 {transform: translateX(5120px);}
.step6 {transform: translateX(6144px);}
.step7 {transform: translateX(7168px);}
.step8 {transform: translateX(8192px);}
.step9 {transform: translateX(9216px);}
.step10 {transform: translateX(10240px);}
.step11 {transform: translateX(11264px);}
.step12 {transform: translateX(12288px);}
.step13 {transform: translateX(13312px);}
.step14 {transform: translateX(14336px);}
.step15 {transform: translateX(15360px);}
.step16 {transform: translateX(16384px);}
.step17 {transform: translateX(17408px);}
.step18 {transform: translateX(18432px);}
.step19 {transform: translateX(19456px);}
.step20 {transform: translateX(20480px);}
.step21 {transform: translateX(21504px);}
.step22 {transform: translateX(22528px);}
.step23 {transform: translateX(23552px);}
.step24 {transform: translateX(24576px);}
.step25 {transform: translateX(25600px);}
.step26 {transform: translateX(26624px);}
.step27 {transform: translateX(27648px);}
.step28 {transform: translateX(28672px);}
.step29 {transform: translateX(29696px);}
    </style>

    <path d="M 230 536 Q 267 594 306 668 Q 331 722 354 748 Q 363 760 357 773 Q 353 786 322 807 Q 294 823 274 822 Q 255 819 265 797 Q 281 764 271 735 Q 237 636 183 544 Q 131 454 57 356 Q 47 344 45 338 Q 44 326 57 330 Q 97 342 190 478 Q 197 488 206 500 L 230 536 Z" fill="lightgray" class="stroke step8"/>
    <path d="M 206 500 Q 233 455 233 367 Q 233 223 202 99 Q 192 54 226 3 Q 227 3 229 0 Q 247 -16 259 11 Q 274 51 273 98 Q 272 384 281 448 Q 288 475 279 486 Q 237 531 230 536 C 208 557 192 527 206 500 Z" fill="lightgray" class="stroke step8"/>
    <path d="M 464 700 Q 454 704 426 707 Q 416 710 412 705 Q 408 699 416 685 Q 432 652 448 605 L 456 575 Q 471 506 489 486 Q 505 467 510 481 Q 511 488 512 498 L 509 527 Q 508 536 496 586 L 490 613 Q 481 653 478 671 C 473 697 473 697 464 700 Z" fill="lightgray" class="stroke step8"/>
    <path d="M 683 531 Q 696 512 709 506 Q 719 499 732 518 Q 742 537 764 631 L 778 675 Q 785 690 796 702 Q 808 712 797 725 Q 784 738 746 761 Q 731 767 670 750 Q 642 747 623 739 L 573 727 Q 555 724 541 719 Q 498 709 464 700 C 435 692 449 662 478 671 Q 517 684 575 698 L 620 710 Q 695 732 715 720 Q 727 711 724 694 Q 720 676 717 660 L 711 625 Q 701 582 697 571 Q 693 562 686 559 C 672 544 672 544 683 531 Z" fill="lightgray" class="stroke step8"/>
    <path d="M 764 631 Q 800 637 905 643 Q 921 644 925 652 Q 929 662 914 672 Q 866 705 799 681 Q 789 680 778 675 L 717 660 Q 671 651 619 639 L 577 630 Q 534 623 490 613 L 448 605 Q 390 595 333 583 Q 317 580 329 567 Q 359 545 387 554 Q 418 566 456 575 L 496 586 Q 532 596 574 603 Q 575 604 577 603 L 618 611 Q 660 620 711 625 L 764 631 Z" fill="lightgray" class="stroke step8"/>
    <path d="M 616 520 Q 644 527 683 531 C 713 534 712 545 686 559 Q 665 572 637 563 Q 627 562 617 556 L 578 545 Q 541 535 509 527 C 480 520 482 496 512 498 Q 518 498 525 500 Q 544 507 578 513 L 616 520 Z" fill="lightgray" class="stroke step8"/>
    <path d="M 451 430 Q 439 436 407 438 Q 397 439 394 435 Q 390 429 398 417 Q 423 380 443 318 Q 447 299 461 288 Q 479 272 481 285 Q 482 292 482 304 L 476 332 Q 463 381 458 403 C 452 430 452 430 451 430 Z" fill="lightgray" class="stroke step8"/>
    <path d="M 746 375 Q 764 420 786 432 Q 799 447 788 460 Q 727 508 686 484 Q 649 471 614 460 L 576 451 Q 513 439 451 430 C 421 426 429 397 458 403 Q 465 404 475 407 Q 524 417 576 428 L 614 436 Q 701 457 713 446 Q 719 442 717 431 Q 713 403 706 379 C 698 350 734 347 746 375 Z" fill="lightgray" class="stroke step8"/>
    <path d="M 482 304 Q 489 304 497 305 Q 513 309 536 313 L 563 318 Q 635 334 758 346 Q 767 347 768 354 Q 768 361 746 375 L 706 379 Q 703 380 701 379 Q 653 367 612 357 L 573 349 Q 521 340 476 332 C 446 327 452 303 482 304 Z" fill="lightgray" class="stroke step8"/>
    <path d="M 614 460 Q 614 491 616 520 L 617 556 Q 617 584 618 611 L 619 639 Q 619 672 620 703 Q 620 707 620 710 L 623 739 Q 624 758 628 772 Q 634 797 637 814 Q 640 824 621 838 Q 587 854 565 859 Q 549 862 542 853 Q 535 846 543 832 Q 573 789 573 727 L 575 698 Q 576 665 577 630 L 577 603 Q 577 575 578 545 L 578 513 Q 577 483 576 451 L 576 428 Q 575 391 573 349 C 572 319 612 327 612 357 Q 612 397 614 436 L 614 460 Z" fill="lightgray" class="hide"/>
    <path d="M 536 313 Q 545 295 531 245 Q 528 239 527 232 L 512 195 Q 503 176 494 163 Q 484 147 487 136 Q 488 126 504 123 Q 541 111 582 88 L 619 67 Q 677 31 763 -44 Q 785 -63 801 -64 Q 820 -64 820 -46 Q 821 -28 797 14 Q 782 44 647 99 L 605 117 Q 571 132 545 140 Q 526 144 537 163 Q 549 185 558 202 L 580 240 Q 587 256 595 265 Q 604 271 601 280 Q 597 293 563 318 C 539 336 530 342 536 313 Z" fill="lightgray" class="hide"/>
    <path d="M 582 88 Q 530 40 424 -4 Q 411 -8 421 -13 Q 460 -28 541 9 Q 586 28 619 67 L 647 99 Q 662 120 700 190 Q 706 206 716 219 C 733 244 734 245 720 262 Q 696 295 673 293 Q 661 292 663 279 Q 664 266 663 252 L 653 214 Q 653 213 605 117 L 582 88 Z" fill="lightgray" class="hide"/>
    <path d="M 527 232 Q 433 220 332 205 Q 311 204 327 187 Q 340 174 358 169 Q 379 163 394 168 Q 449 184 512 195 L 558 202 Q 570 205 583 206 Q 614 212 653 214 L 716 219 Q 782 225 916 225 Q 935 225 939 234 Q 945 244 928 258 Q 877 295 813 281 Q 771 272 720 262 L 663 252 Q 638 252 580 240 L 527 232 Z" fill="lightgray" class="hide"/></g><g transform="scale(1, -1) translate(0, -900)">
    <style type="text/css">
        .origin {display:none;}
        .hide {display:none;}
        .stroke {fill: #000000;}
        
.step1 {transform: translateX(1024px);}
.step2 {transform: translateX(2048px);}
.step3 {transform: translateX(3072px);}
.step4 {transform: translateX(4096px);}
.step5 {transform: translateX(5120px);}
.step6 {transform: translateX(6144px);}
.step7 {transform: translateX(7168px);}
.step8 {transform: translateX(8192px);}
.step9 {transform: translateX(9216px);}
.step10 {transform: translateX(10240px);}
.step11 {transform: translateX(11264px);}
.step12 {transform: translateX(12288px);}
.step13 {transform: translateX(13312px);}
.step14 {transform: translateX(14336px);}
.step15 {transform: translateX(15360px);}
.step16 {transform: translateX(16384px);}
.step17 {transform: translateX(17408px);}
.step18 {transform: translateX(18432px);}
.step19 {transform: translateX(19456px);}
.step20 {transform: translateX(20480px);}
.step21 {transform: translateX(21504px);}
.step22 {transform: translateX(22528px);}
.step23 {transform: translateX(23552px);}
.step24 {transform: translateX(24576px);}
.step25 {transform: translateX(25600px);}
.step26 {transform: translateX(26624px);}
.step27 {transform: translateX(27648px);}
.step28 {transform: translateX(28672px);}
.step29 {transform: translateX(29696px);}
    </style>

    <path d="M 230 536 Q 267 594 306 668 Q 331 722 354 748 Q 363 760 357 773 Q 353 786 322 807 Q 294 823 274 822 Q 255 819 265 797 Q 281 764 271 735 Q 237 636 183 544 Q 131 454 57 356 Q 47 344 45 338 Q 44 326 57 330 Q 97 342 190 478 Q 197 488 206 500 L 230 536 Z" fill="lightgray" class="stroke step9"/>
    <path d="M 206 500 Q 233 455 233 367 Q 233 223 202 99 Q 192 54 226 3 Q 227 3 229 0 Q 247 -16 259 11 Q 274 51 273 98 Q 272 384 281 448 Q 288 475 279 486 Q 237 531 230 536 C 208 557 192 527 206 500 Z" fill="lightgray" class="stroke step9"/>
    <path d="M 464 700 Q 454 704 426 707 Q 416 710 412 705 Q 408 699 416 685 Q 432 652 448 605 L 456 575 Q 471 506 489 486 Q 505 467 510 481 Q 511 488 512 498 L 509 527 Q 508 536 496 586 L 490 613 Q 481 653 478 671 C 473 697 473 697 464 700 Z" fill="lightgray" class="stroke step9"/>
    <path d="M 683 531 Q 696 512 709 506 Q 719 499 732 518 Q 742 537 764 631 L 778 675 Q 785 690 796 702 Q 808 712 797 725 Q 784 738 746 761 Q 731 767 670 750 Q 642 747 623 739 L 573 727 Q 555 724 541 719 Q 498 709 464 700 C 435 692 449 662 478 671 Q 517 684 575 698 L 620 710 Q 695 732 715 720 Q 727 711 724 694 Q 720 676 717 660 L 711 625 Q 701 582 697 571 Q 693 562 686 559 C 672 544 672 544 683 531 Z" fill="lightgray" class="stroke step9"/>
    <path d="M 764 631 Q 800 637 905 643 Q 921 644 925 652 Q 929 662 914 672 Q 866 705 799 681 Q 789 680 778 675 L 717 660 Q 671 651 619 639 L 577 630 Q 534 623 490 613 L 448 605 Q 390 595 333 583 Q 317 580 329 567 Q 359 545 387 554 Q 418 566 456 575 L 496 586 Q 532 596 574 603 Q 575 604 577 603 L 618 611 Q 660 620 711 625 L 764 631 Z" fill="lightgray" class="stroke step9"/>
    <path d="M 616 520 Q 644 527 683 531 C 713 534 712 545 686 559 Q 665 572 637 563 Q 627 562 617 556 L 578 545 Q 541 535 509 527 C 480 520 482 496 512 498 Q 518 498 525 500 Q 544 507 578 513 L 616 520 Z" fill="lightgray" class="stroke step9"/>
    <path d="M 451 430 Q 439 436 407 438 Q 397 439 394 435 Q 390 429 398 417 Q 423 380 443 318 Q 447 299 461 288 Q 479 272 481 285 Q 482 292 482 304 L 476 332 Q 463 381 458 403 C 452 430 452 430 451 430 Z" fill="lightgray" class="stroke step9"/>
    <path d="M 746 375 Q 764 420 786 432 Q 799 447 788 460 Q 727 508 686 484 Q 649 471 614 460 L 576 451 Q 513 439 451 430 C 421 426 429 397 458 403 Q 465 404 475 407 Q 524 417 576 428 L 614 436 Q 701 457 713 446 Q 719 442 717 431 Q 713 403 706 379 C 698 350 734 347 746 375 Z" fill="lightgray" class="stroke step9"/>
    <path d="M 482 304 Q 489 304 497 305 Q 513 309 536 313 L 563 318 Q 635 334 758 346 Q 767 347 768 354 Q 768 361 746 375 L 706 379 Q 703 380 701 379 Q 653 367 612 357 L 573 349 Q 521 340 476 332 C 446 327 452 303 482 304 Z" fill="lightgray" class="stroke step9"/>
    <path d="M 614 460 Q 614 491 616 520 L 617 556 Q 617 584 618 611 L 619 639 Q 619 672 620 703 Q 620 707 620 710 L 623 739 Q 624 758 628 772 Q 634 797 637 814 Q 640 824 621 838 Q 587 854 565 859 Q 549 862 542 853 Q 535 846 543 832 Q 573 789 573 727 L 575 698 Q 576 665 577 630 L 577 603 Q 577 575 578 545 L 578 513 Q 577 483 576 451 L 576 428 Q 575 391 573 349 C 572 319 612 327 612 357 Q 612 397 614 436 L 614 460 Z" fill="lightgray" class="stroke step9"/>
    <path d="M 536 313 Q 545 295 531 245 Q 528 239 527 232 L 512 195 Q 503 176 494 163 Q 484 147 487 136 Q 488 126 504 123 Q 541 111 582 88 L 619 67 Q 677 31 763 -44 Q 785 -63 801 -64 Q 820 -64 820 -46 Q 821 -28 797 14 Q 782 44 647 99 L 605 117 Q 571 132 545 140 Q 526 144 537 163 Q 549 185 558 202 L 580 240 Q 587 256 595 265 Q 604 271 601 280 Q 597 293 563 318 C 539 336 530 342 536 313 Z" fill="lightgray" class="hide"/>
    <path d="M 582 88 Q 530 40 424 -4 Q 411 -8 421 -13 Q 460 -28 541 9 Q 586 28 619 67 L 647 99 Q 662 120 700 190 Q 706 206 716 219 C 733 244 734 245 720 262 Q 696 295 673 293 Q 661 292 663 279 Q 664 266 663 252 L 653 214 Q 653 213 605 117 L 582 88 Z" fill="lightgray" class="hide"/>
    <path d="M 527 232 Q 433 220 332 205 Q 311 204 327 187 Q 340 174 358 169 Q 379 163 394 168 Q 449 184 512 195 L 558 202 Q 570 205 583 206 Q 614 212 653 214 L 716 219 Q 782 225 916 225 Q 935 225 939 234 Q 945 244 928 258 Q 877 295 813 281 Q 771 272 720 262 L 663 252 Q 638 252 580 240 L 527 232 Z" fill="lightgray" class="hide"/></g><g transform="scale(1, -1) translate(0, -900)">
    <style type="text/css">
        .origin {display:none;}
        .hide {display:none;}
        .stroke {fill: #000000;}
        
.step1 {transform: translateX(1024px);}
.step2 {transform: translateX(2048px);}
.step3 {transform: translateX(3072px);}
.step4 {transform: translateX(4096px);}
.step5 {transform: translateX(5120px);}
.step6 {transform: translateX(6144px);}
.step7 {transform: translateX(7168px);}
.step8 {transform: translateX(8192px);}
.step9 {transform: translateX(9216px);}
.step10 {transform: translateX(10240px);}
.step11 {transform: translateX(11264px);}
.step12 {transform: translateX(12288px);}
.step13 {transform: translateX(13312px);}
.step14 {transform: translateX(14336px);}
.step15 {transform: translateX(15360px);}
.step16 {transform: translateX(16384px);}
.step17 {transform: translateX(17408px);}
.step18 {transform: translateX(18432px);}
.step19 {transform: translateX(19456px);}
.step20 {transform: translateX(20480px);}
.step21 {transform: translateX(21504px);}
.step22 {transform: translateX(22528px);}
.step23 {transform: translateX(23552px);}
.step24 {transform: translateX(24576px);}
.step25 {transform: translateX(25600px);}
.step26 {transform: translateX(26624px);}
.step27 {transform: translateX(27648px);}
.step28 {transform: translateX(28672px);}
.step29 {transform: translateX(29696px);}
    </style>

    <path d="M 230 536 Q 267 594 306 668 Q 331 722 354 748 Q 363 760 357 773 Q 353 786 322 807 Q 294 823 274 822 Q 255 819 265 797 Q 281 764 271 735 Q 237 636 183 544 Q 131 454 57 356 Q 47 344 45 338 Q 44 326 57 330 Q 97 342 190 478 Q 197 488 206 500 L 230 536 Z" fill="lightgray" class="stroke step10"/>
    <path d="M 206 500 Q 233 455 233 367 Q 233 223 202 99 Q 192 54 226 3 Q 227 3 229 0 Q 247 -16 259 11 Q 274 51 273 98 Q 272 384 281 448 Q 288 475 279 486 Q 237 531 230 536 C 208 557 192 527 206 500 Z" fill="lightgray" class="stroke step10"/>
    <path d="M 464 700 Q 454 704 426 707 Q 416 710 412 705 Q 408 699 416 685 Q 432 652 448 605 L 456 575 Q 471 506 489 486 Q 505 467 510 481 Q 511 488 512 498 L 509 527 Q 508 536 496 586 L 490 613 Q 481 653 478 671 C 473 697 473 697 464 700 Z" fill="lightgray" class="stroke step10"/>
    <path d="M 683 531 Q 696 512 709 506 Q 719 499 732 518 Q 742 537 764 631 L 778 675 Q 785 690 796 702 Q 808 712 797 725 Q 784 738 746 761 Q 731 767 670 750 Q 642 747 623 739 L 573 727 Q 555 724 541 719 Q 498 709 464 700 C 435 692 449 662 478 671 Q 517 684 575 698 L 620 710 Q 695 732 715 720 Q 727 711 724 694 Q 720 676 717 660 L 711 625 Q 701 582 697 571 Q 693 562 686 559 C 672 544 672 544 683 531 Z" fill="lightgray" class="stroke step10"/>
    <path d="M 764 631 Q 800 637 905 643 Q 921 644 925 652 Q 929 662 914 672 Q 866 705 799 681 Q 789 680 778 675 L 717 660 Q 671 651 619 639 L 577 630 Q 534 623 490 613 L 448 605 Q 390 595 333 583 Q 317 580 329 567 Q 359 545 387 554 Q 418 566 456 575 L 496 586 Q 532 596 574 603 Q 575 604 577 603 L 618 611 Q 660 620 711 625 L 764 631 Z" fill="lightgray" class="stroke step10"/>
    <path d="M 616 520 Q 644 527 683 531 C 713 534 712 545 686 559 Q 665 572 637 563 Q 627 562 617 556 L 578 545 Q 541 535 509 527 C 480 520 482 496 512 498 Q 518 498 525 500 Q 544 507 578 513 L 616 520 Z" fill="lightgray" class="stroke step10"/>
    <path d="M 451 430 Q 439 436 407 438 Q 397 439 394 435 Q 390 429 398 417 Q 423 380 443 318 Q 447 299 461 288 Q 479 272 481 285 Q 482 292 482 304 L 476 332 Q 463 381 458 403 C 452 430 452 430 451 430 Z" fill="lightgray" class="stroke step10"/>
    <path d="M 746 375 Q 764 420 786 432 Q 799 447 788 460 Q 727 508 686 484 Q 649 471 614 460 L 576 451 Q 513 439 451 430 C 421 426 429 397 458 403 Q 465 404 475 407 Q 524 417 576 428 L 614 436 Q 701 457 713 446 Q 719 442 717 431 Q 713 403 706 379 C 698 350 734 347 746 375 Z" fill="lightgray" class="stroke step10"/>
    <path d="M 482 304 Q 489 304 497 305 Q 513 309 536 313 L 563 318 Q 635 334 758 346 Q 767 347 768 354 Q 768 361 746 375 L 706 379 Q 703 380 701 379 Q 653 367 612 357 L 573 349 Q 521 340 476 332 C 446 327 452 303 482 304 Z" fill="lightgray" class="stroke step10"/>
    <path d="M 614 460 Q 614 491 616 520 L 617 556 Q 617 584 618 611 L 619 639 Q 619 672 620 703 Q 620 707 620 710 L 623 739 Q 624 758 628 772 Q 634 797 637 814 Q 640 824 621 838 Q 587 854 565 859 Q 549 862 542 853 Q 535 846 543 832 Q 573 789 573 727 L 575 698 Q 576 665 577 630 L 577 603 Q 577 575 578 545 L 578 513 Q 577 483 576 451 L 576 428 Q 575 391 573 349 C 572 319 612 327 612 357 Q 612 397 614 436 L 614 460 Z" fill="lightgray" class="stroke step10"/>
    <path d="M 536 313 Q 545 295 531 245 Q 528 239 527 232 L 512 195 Q 503 176 494 163 Q 484 147 487 136 Q 488 126 504 123 Q 541 111 582 88 L 619 67 Q 677 31 763 -44 Q 785 -63 801 -64 Q 820 -64 820 -46 Q 821 -28 797 14 Q 782 44 647 99 L 605 117 Q 571 132 545 140 Q 526 144 537 163 Q 549 185 558 202 L 580 240 Q 587 256 595 265 Q 604 271 601 280 Q 597 293 563 318 C 539 336 530 342 536 313 Z" fill="lightgray" class="stroke step10"/>
    <path d="M 582 88 Q 530 40 424 -4 Q 411 -8 421 -13 Q 460 -28 541 9 Q 586 28 619 67 L 647 99 Q 662 120 700 190 Q 706 206 716 219 C 733 244 734 245 720 262 Q 696 295 673 293 Q 661 292 663 279 Q 664 266 663 252 L 653 214 Q 653 213 605 117 L 582 88 Z" fill="lightgray" class="hide"/>
    <path d="M 527 232 Q 433 220 332 205 Q 311 204 327 187 Q 340 174 358 169 Q 379 163 394 168 Q 449 184 512 195 L 558 202 Q 570 205 583 206 Q 614 212 653 214 L 716 219 Q 782 225 916 225 Q 935 225 939 234 Q 945 244 928 258 Q 877 295 813 281 Q 771 272 720 262 L 663 252 Q 638 252 580 240 L 527 232 Z" fill="lightgray" class="hide"/></g><g transform="scale(1, -1) translate(0, -900)">
    <style type="text/css">
        .origin {display:none;}
        .hide {display:none;}
        .stroke {fill: #000000;}
        
.step1 {transform: translateX(1024px);}
.step2 {transform: translateX(2048px);}
.step3 {transform: translateX(3072px);}
.step4 {transform: translateX(4096px);}
.step5 {transform: translateX(5120px);}
.step6 {transform: translateX(6144px);}
.step7 {transform: translateX(7168px);}
.step8 {transform: translateX(8192px);}
.step9 {transform: translateX(9216px);}
.step10 {transform: translateX(10240px);}
.step11 {transform: translateX(11264px);}
.step12 {transform: translateX(12288px);}
.step13 {transform: translateX(13312px);}
.step14 {transform: translateX(14336px);}
.step15 {transform: translateX(15360px);}
.step16 {transform: translateX(16384px);}
.step17 {transform: translateX(17408px);}
.step18 {transform: translateX(18432px);}
.step19 {transform: translateX(19456px);}
.step20 {transform: translateX(20480px);}
.step21 {transform: translateX(21504px);}
.step22 {transform: translateX(22528px);}
.step23 {transform: translateX(23552px);}
.step24 {transform: translateX(24576px);}
.step25 {transform: translateX(25600px);}
.step26 {transform: translateX(26624px);}
.step27 {transform: translateX(27648px);}
.step28 {transform: translateX(28672px);}
.step29 {transform: translateX(29696px);}
    </style>

    <path d="M 230 536 Q 267 594 306 668 Q 331 722 354 748 Q 363 760 357 773 Q 353 786 322 807 Q 294 823 274 822 Q 255 819 265 797 Q 281 764 271 735 Q 237 636 183 544 Q 131 454 57 356 Q 47 344 45 338 Q 44 326 57 330 Q 97 342 190 478 Q 197 488 206 500 L 230 536 Z" fill="lightgray" class="stroke step11"/>
    <path d="M 206 500 Q 233 455 233 367 Q 233 223 202 99 Q 192 54 226 3 Q 227 3 229 0 Q 247 -16 259 11 Q 274 51 273 98 Q 272 384 281 448 Q 288 475 279 486 Q 237 531 230 536 C 208 557 192 527 206 500 Z" fill="lightgray" class="stroke step11"/>
    <path d="M 464 700 Q 454 704 426 707 Q 416 710 412 705 Q 408 699 416 685 Q 432 652 448 605 L 456 575 Q 471 506 489 486 Q 505 467 510 481 Q 511 488 512 498 L 509 527 Q 508 536 496 586 L 490 613 Q 481 653 478 671 C 473 697 473 697 464 700 Z" fill="lightgray" class="stroke step11"/>
    <path d="M 683 531 Q 696 512 709 506 Q 719 499 732 518 Q 742 537 764 631 L 778 675 Q 785 690 796 702 Q 808 712 797 725 Q 784 738 746 761 Q 731 767 670 750 Q 642 747 623 739 L 573 727 Q 555 724 541 719 Q 498 709 464 700 C 435 692 449 662 478 671 Q 517 684 575 698 L 620 710 Q 695 732 715 720 Q 727 711 724 694 Q 720 676 717 660 L 711 625 Q 701 582 697 571 Q 693 562 686 559 C 672 544 672 544 683 531 Z" fill="lightgray" class="stroke step11"/>
    <path d="M 764 631 Q 800 637 905 643 Q 921 644 925 652 Q 929 662 914 672 Q 866 705 799 681 Q 789 680 778 675 L 717 660 Q 671 651 619 639 L 577 630 Q 534 623 490 613 L 448 605 Q 390 595 333 583 Q 317 580 329 567 Q 359 545 387 554 Q 418 566 456 575 L 496 586 Q 532 596 574 603 Q 575 604 577 603 L 618 611 Q 660 620 711 625 L 764 631 Z" fill="lightgray" class="stroke step11"/>
    <path d="M 616 520 Q 644 527 683 531 C 713 534 712 545 686 559 Q 665 572 637 563 Q 627 562 617 556 L 578 545 Q 541 535 509 527 C 480 520 482 496 512 498 Q 518 498 525 500 Q 544 507 578 513 L 616 520 Z" fill="lightgray" class="stroke step11"/>
    <path d="M 451 430 Q 439 436 407 438 Q 397 439 394 435 Q 390 429 398 417 Q 423 380 443 318 Q 447 299 461 288 Q 479 272 481 285 Q 482 292 482 304 L 476 332 Q 463 381 458 403 C 452 430 452 430 451 430 Z" fill="lightgray" class="stroke step11"/>
    <path d="M 746 375 Q 764 420 786 432 Q 799 447 788 460 Q 727 508 686 484 Q 649 471 614 460 L 576 451 Q 513 439 451 430 C 421 426 429 397 458 403 Q 465 404 475 407 Q 524 417 576 428 L 614 436 Q 701 457 713 446 Q 719 442 717 431 Q 713 403 706 379 C 698 350 734 347 746 375 Z" fill="lightgray" class="stroke step11"/>
    <path d="M 482 304 Q 489 304 497 305 Q 513 309 536 313 L 563 318 Q 635 334 758 346 Q 767 347 768 354 Q 768 361 746 375 L 706 379 Q 703 380 701 379 Q 653 367 612 357 L 573 349 Q 521 340 476 332 C 446 327 452 303 482 304 Z" fill="lightgray" class="stroke step11"/>
    <path d="M 614 460 Q 614 491 616 520 L 617 556 Q 617 584 618 611 L 619 639 Q 619 672 620 703 Q 620 707 620 710 L 623 739 Q 624 758 628 772 Q 634 797 637 814 Q 640 824 621 838 Q 587 854 565 859 Q 549 862 542 853 Q 535 846 543 832 Q 573 789 573 727 L 575 698 Q 576 665 577 630 L 577 603 Q 577 575 578 545 L 578 513 Q 577 483 576 451 L 576 428 Q 575 391 573 349 C 572 319 612 327 612 357 Q 612 397 614 436 L 614 460 Z" fill="lightgray" class="stroke step11"/>
    <path d="M 536 313 Q 545 295 531 245 Q 528 239 527 232 L 512 195 Q 503 176 494 163 Q 484 147 487 136 Q 488 126 504 123 Q 541 111 582 88 L 619 67 Q 677 31 763 -44 Q 785 -63 801 -64 Q 820 -64 820 -46 Q 821 -28 797 14 Q 782 44 647 99 L 605 117 Q 571 132 545 140 Q 526 144 537 163 Q 549 185 558 202 L 580 240 Q 587 256 595 265 Q 604 271 601 280 Q 597 293 563 318 C 539 336 530 342 536 313 Z" fill="lightgray" class="stroke step11"/>
    <path d="M 582 88 Q 530 40 424 -4 Q 411 -8 421 -13 Q 460 -28 541 9 Q 586 28 619 67 L 647 99 Q 662 120 700 190 Q 706 206 716 219 C 733 244 734 245 720 262 Q 696 295 673 293 Q 661 292 663 279 Q 664 266 663 252 L 653 214 Q 653 213 605 117 L 582 88 Z" fill="lightgray" class="stroke step11"/>
    <path d="M 527 232 Q 433 220 332 205 Q 311 204 327 187 Q 340 174 358 169 Q 379 163 394 168 Q 449 184 512 195 L 558 202 Q 570 205 583 206 Q 614 212 653 214 L 716 219 Q 782 225 916 225 Q 935 225 939 234 Q 945 244 928 258 Q 877 295 813 281 Q 771 272 720 262 L 663 252 Q 638 252 580 240 L 527 232 Z" fill="lightgray" class="hide"/></g><g transform="scale(1, -1) translate(0, -900)">
    <style type="text/css">
        .origin {display:none;}
        .hide {display:none;}
        .stroke {fill: #000000;}
        
.step1 {transform: translateX(1024px);}
.step2 {transform: translateX(2048px);}
.step3 {transform: translateX(3072px);}
.step4 {transform: translateX(4096px);}
.step5 {transform: translateX(5120px);}
.step6 {transform: translateX(6144px);}
.step7 {transform: translateX(7168px);}
.step8 {transform: translateX(8192px);}
.step9 {transform: translateX(9216px);}
.step10 {transform: translateX(10240px);}
.step11 {transform: translateX(11264px);}
.step12 {transform: translateX(12288px);}
.step13 {transform: translateX(13312px);}
.step14 {transform: translateX(14336px);}
.step15 {transform: translateX(15360px);}
.step16 {transform: translateX(16384px);}
.step17 {transform: translateX(17408px);}
.step18 {transform: translateX(18432px);}
.step19 {transform: translateX(19456px);}
.step20 {transform: translateX(20480px);}
.step21 {transform: translateX(21504px);}
.step22 {transform: translateX(22528px);}
.step23 {transform: translateX(23552px);}
.step24 {transform: translateX(24576px);}
.step25 {transform: translateX(25600px);}
.step26 {transform: translateX(26624px);}
.step27 {transform: translateX(27648px);}
.step28 {transform: translateX(28672px);}
.step29 {transform: translateX(29696px);}
    </style>

    <path d="M 230 536 Q 267 594 306 668 Q 331 722 354 748 Q 363 760 357 773 Q 353 786 322 807 Q 294 823 274 822 Q 255 819 265 797 Q 281 764 271 735 Q 237 636 183 544 Q 131 454 57 356 Q 47 344 45 338 Q 44 326 57 330 Q 97 342 190 478 Q 197 488 206 500 L 230 536 Z" fill="lightgray" class="stroke step12"/>
    <path d="M 206 500 Q 233 455 233 367 Q 233 223 202 99 Q 192 54 226 3 Q 227 3 229 0 Q 247 -16 259 11 Q 274 51 273 98 Q 272 384 281 448 Q 288 475 279 486 Q 237 531 230 536 C 208 557 192 527 206 500 Z" fill="lightgray" class="stroke step12"/>
    <path d="M 464 700 Q 454 704 426 707 Q 416 710 412 705 Q 408 699 416 685 Q 432 652 448 605 L 456 575 Q 471 506 489 486 Q 505 467 510 481 Q 511 488 512 498 L 509 527 Q 508 536 496 586 L 490 613 Q 481 653 478 671 C 473 697 473 697 464 700 Z" fill="lightgray" class="stroke step12"/>
    <path d="M 683 531 Q 696 512 709 506 Q 719 499 732 518 Q 742 537 764 631 L 778 675 Q 785 690 796 702 Q 808 712 797 725 Q 784 738 746 761 Q 731 767 670 750 Q 642 747 623 739 L 573 727 Q 555 724 541 719 Q 498 709 464 700 C 435 692 449 662 478 671 Q 517 684 575 698 L 620 710 Q 695 732 715 720 Q 727 711 724 694 Q 720 676 717 660 L 711 625 Q 701 582 697 571 Q 693 562 686 559 C 672 544 672 544 683 531 Z" fill="lightgray" class="stroke step12"/>
    <path d="M 764 631 Q 800 637 905 643 Q 921 644 925 652 Q 929 662 914 672 Q 866 705 799 681 Q 789 680 778 675 L 717 660 Q 671 651 619 639 L 577 630 Q 534 623 490 613 L 448 605 Q 390 595 333 583 Q 317 580 329 567 Q 359 545 387 554 Q 418 566 456 575 L 496 586 Q 532 596 574 603 Q 575 604 577 603 L 618 611 Q 660 620 711 625 L 764 631 Z" fill="lightgray" class="stroke step12"/>
    <path d="M 616 520 Q 644 527 683 531 C 713 534 712 545 686 559 Q 665 572 637 563 Q 627 562 617 556 L 578 545 Q 541 535 509 527 C 480 520 482 496 512 498 Q 518 498 525 500 Q 544 507 578 513 L 616 520 Z" fill="lightgray" class="stroke step12"/>
    <path d="M 451 430 Q 439 436 407 438 Q 397 439 394 435 Q 390 429 398 417 Q 423 380 443 318 Q 447 299 461 288 Q 479 272 481 285 Q 482 292 482 304 L 476 332 Q 463 381 458 403 C 452 430 452 430 451 430 Z" fill="lightgray" class="stroke step12"/>
    <path d="M 746 375 Q 764 420 786 432 Q 799 447 788 460 Q 727 508 686 484 Q 649 471 614 460 L 576 451 Q 513 439 451 430 C 421 426 429 397 458 403 Q 465 404 475 407 Q 524 417 576 428 L 614 436 Q 701 457 713 446 Q 719 442 717 431 Q 713 403 706 379 C 698 350 734 347 746 375 Z" fill="lightgray" class="stroke step12"/>
    <path d="M 482 304 Q 489 304 497 305 Q 513 309 536 313 L 563 318 Q 635 334 758 346 Q 767 347 768 354 Q 768 361 746 375 L 706 379 Q 703 380 701 379 Q 653 367 612 357 L 573 349 Q 521 340 476 332 C 446 327 452 303 482 304 Z" fill="lightgray" class="stroke step12"/>
    <path d="M 614 460 Q 614 491 616 520 L 617 556 Q 617 584 618 611 L 619 639 Q 619 672 620 703 Q 620 707 620 710 L 623 739 Q 624 758 628 772 Q 634 797 637 814 Q 640 824 621 838 Q 587 854 565 859 Q 549 862 542 853 Q 535 846 543 832 Q 573 789 573 727 L 575 698 Q 576 665 577 630 L 577 603 Q 577 575 578 545 L 578 513 Q 577 483 576 451 L 576 428 Q 575 391 573 349 C 572 319 612 327 612 357 Q 612 397 614 436 L 614 460 Z" fill="lightgray" class="stroke step12"/>
    <path d="M 536 313 Q 545 295 531 245 Q 528 239 527 232 L 512 195 Q 503 176 494 163 Q 484 147 487 136 Q 488 126 504 123 Q 541 111 582 88 L 619 67 Q 677 31 763 -44 Q 785 -63 801 -64 Q 820 -64 820 -46 Q 821 -28 797 14 Q 782 44 647 99 L 605 117 Q 571 132 545 140 Q 526 144 537 163 Q 549 185 558 202 L 580 240 Q 587 256 595 265 Q 604 271 601 280 Q 597 293 563 318 C 539 336 530 342 536 313 Z" fill="lightgray" class="stroke step12"/>
    <path d="M 582 88 Q 530 40 424 -4 Q 411 -8 421 -13 Q 460 -28 541 9 Q 586 28 619 67 L 647 99 Q 662 120 700 190 Q 706 206 716 219 C 733 244 734 245 720 262 Q 696 295 673 293 Q 661 292 663 279 Q 664 266 663 252 L 653 214 Q 653 213 605 117 L 582 88 Z" fill="lightgray" class="stroke step12"/>
    <path d="M 527 232 Q 433 220 332 205 Q 311 204 327 187 Q 340 174 358 169 Q 379 163 394 168 Q 449 184 512 195 L 558 202 Q 570 205 583 206 Q 614 212 653 214 L 716 219 Q 782 225 916 225 Q 935 225 939 234 Q 945 244 928 258 Q 877 295 813 281 Q 771 272 720 262 L 663 252 Q 638 252 580 240 L 527 232 Z" fill="lightgray" class="stroke step12"/></g></svg>