<svg version="1.1" viewBox="0 0 4096 1024" xmlns="http://www.w3.org/2000/svg">
  
  <g transform="scale(1, -1) translate(0, -900)" class="origin">
    <style type="text/css">
        .origin {display:none;}
        .hide {display:none;}
        .stroke {fill: #000000;}
        
.step1 {transform: translateX(1024px);}
.step2 {transform: translateX(2048px);}
.step3 {transform: translateX(3072px);}
.step4 {transform: translateX(4096px);}
.step5 {transform: translateX(5120px);}
.step6 {transform: translateX(6144px);}
.step7 {transform: translateX(7168px);}
.step8 {transform: translateX(8192px);}
.step9 {transform: translateX(9216px);}
.step10 {transform: translateX(10240px);}
.step11 {transform: translateX(11264px);}
.step12 {transform: translateX(12288px);}
.step13 {transform: translateX(13312px);}
.step14 {transform: translateX(14336px);}
.step15 {transform: translateX(15360px);}
.step16 {transform: translateX(16384px);}
.step17 {transform: translateX(17408px);}
.step18 {transform: translateX(18432px);}
.step19 {transform: translateX(19456px);}
.step20 {transform: translateX(20480px);}
.step21 {transform: translateX(21504px);}
.step22 {transform: translateX(22528px);}
.step23 {transform: translateX(23552px);}
.step24 {transform: translateX(24576px);}
.step25 {transform: translateX(25600px);}
.step26 {transform: translateX(26624px);}
.step27 {transform: translateX(27648px);}
.step28 {transform: translateX(28672px);}
.step29 {transform: translateX(29696px);}
    </style>

    <path d="M 324 682 Q 328 610 221 489 Q 170 440 94 376 Q 85 372 96 368 Q 144 368 253 455 Q 331 533 390 611 Q 399 623 405 627 Q 414 633 412 643 Q 411 653 399 667 Q 365 701 331 697 Q 322 696 324 682 Z" fill="lightgray"/>
    <path d="M 448 795 Q 506 765 551 690 Q 710 426 782 412 Q 839 412 959 425 Q 984 428 984 434 Q 984 441 960 448 Q 792 500 734 551 Q 662 611 551 774 Q 524 813 479 815 Q 448 816 445 808 Q 441 798 448 795 Z" fill="lightgray"/>
    <path d="M 434 376 Q 510 395 575 405 Q 600 408 604 400 Q 617 378 606 323 Q 584 169 544 104 Q 526 71 498 76 Q 461 88 427 101 Q 402 108 420 85 Q 478 37 507 0 Q 532 -27 555 -3 Q 592 25 617 74 Q 647 132 663 308 Q 669 369 690 401 Q 703 416 697 427 Q 687 440 630 465 Q 608 475 586 460 Q 559 444 456 421 Q 353 396 266 390 Q 245 389 242 379 Q 241 369 268 356 Q 296 337 320 346 Q 354 356 388 364 L 434 376 Z" fill="lightgray"/>
    <path d="M 388 364 Q 388 205 153 38 Q 144 31 151 27 Q 158 24 170 28 Q 228 47 279 83 Q 366 138 437 282 Q 450 304 465 327 Q 474 336 468 347 Q 462 357 434 376 C 410 393 389 394 388 364 Z" fill="lightgray"/></g>
<g transform="scale(1, -1) translate(0, -900)">
    <style type="text/css">
        .origin {display:none;}
        .hide {display:none;}
        .stroke {fill: #000000;}
        
.step1 {transform: translateX(1024px);}
.step2 {transform: translateX(2048px);}
.step3 {transform: translateX(3072px);}
.step4 {transform: translateX(4096px);}
.step5 {transform: translateX(5120px);}
.step6 {transform: translateX(6144px);}
.step7 {transform: translateX(7168px);}
.step8 {transform: translateX(8192px);}
.step9 {transform: translateX(9216px);}
.step10 {transform: translateX(10240px);}
.step11 {transform: translateX(11264px);}
.step12 {transform: translateX(12288px);}
.step13 {transform: translateX(13312px);}
.step14 {transform: translateX(14336px);}
.step15 {transform: translateX(15360px);}
.step16 {transform: translateX(16384px);}
.step17 {transform: translateX(17408px);}
.step18 {transform: translateX(18432px);}
.step19 {transform: translateX(19456px);}
.step20 {transform: translateX(20480px);}
.step21 {transform: translateX(21504px);}
.step22 {transform: translateX(22528px);}
.step23 {transform: translateX(23552px);}
.step24 {transform: translateX(24576px);}
.step25 {transform: translateX(25600px);}
.step26 {transform: translateX(26624px);}
.step27 {transform: translateX(27648px);}
.step28 {transform: translateX(28672px);}
.step29 {transform: translateX(29696px);}
    </style>

    <path d="M 324 682 Q 328 610 221 489 Q 170 440 94 376 Q 85 372 96 368 Q 144 368 253 455 Q 331 533 390 611 Q 399 623 405 627 Q 414 633 412 643 Q 411 653 399 667 Q 365 701 331 697 Q 322 696 324 682 Z" fill="lightgray" class="stroke step0"/>
    <path d="M 448 795 Q 506 765 551 690 Q 710 426 782 412 Q 839 412 959 425 Q 984 428 984 434 Q 984 441 960 448 Q 792 500 734 551 Q 662 611 551 774 Q 524 813 479 815 Q 448 816 445 808 Q 441 798 448 795 Z" fill="lightgray" class="hide"/>
    <path d="M 434 376 Q 510 395 575 405 Q 600 408 604 400 Q 617 378 606 323 Q 584 169 544 104 Q 526 71 498 76 Q 461 88 427 101 Q 402 108 420 85 Q 478 37 507 0 Q 532 -27 555 -3 Q 592 25 617 74 Q 647 132 663 308 Q 669 369 690 401 Q 703 416 697 427 Q 687 440 630 465 Q 608 475 586 460 Q 559 444 456 421 Q 353 396 266 390 Q 245 389 242 379 Q 241 369 268 356 Q 296 337 320 346 Q 354 356 388 364 L 434 376 Z" fill="lightgray" class="hide"/>
    <path d="M 388 364 Q 388 205 153 38 Q 144 31 151 27 Q 158 24 170 28 Q 228 47 279 83 Q 366 138 437 282 Q 450 304 465 327 Q 474 336 468 347 Q 462 357 434 376 C 410 393 389 394 388 364 Z" fill="lightgray" class="hide"/></g><g transform="scale(1, -1) translate(0, -900)">
    <style type="text/css">
        .origin {display:none;}
        .hide {display:none;}
        .stroke {fill: #000000;}
        
.step1 {transform: translateX(1024px);}
.step2 {transform: translateX(2048px);}
.step3 {transform: translateX(3072px);}
.step4 {transform: translateX(4096px);}
.step5 {transform: translateX(5120px);}
.step6 {transform: translateX(6144px);}
.step7 {transform: translateX(7168px);}
.step8 {transform: translateX(8192px);}
.step9 {transform: translateX(9216px);}
.step10 {transform: translateX(10240px);}
.step11 {transform: translateX(11264px);}
.step12 {transform: translateX(12288px);}
.step13 {transform: translateX(13312px);}
.step14 {transform: translateX(14336px);}
.step15 {transform: translateX(15360px);}
.step16 {transform: translateX(16384px);}
.step17 {transform: translateX(17408px);}
.step18 {transform: translateX(18432px);}
.step19 {transform: translateX(19456px);}
.step20 {transform: translateX(20480px);}
.step21 {transform: translateX(21504px);}
.step22 {transform: translateX(22528px);}
.step23 {transform: translateX(23552px);}
.step24 {transform: translateX(24576px);}
.step25 {transform: translateX(25600px);}
.step26 {transform: translateX(26624px);}
.step27 {transform: translateX(27648px);}
.step28 {transform: translateX(28672px);}
.step29 {transform: translateX(29696px);}
    </style>

    <path d="M 324 682 Q 328 610 221 489 Q 170 440 94 376 Q 85 372 96 368 Q 144 368 253 455 Q 331 533 390 611 Q 399 623 405 627 Q 414 633 412 643 Q 411 653 399 667 Q 365 701 331 697 Q 322 696 324 682 Z" fill="lightgray" class="stroke step1"/>
    <path d="M 448 795 Q 506 765 551 690 Q 710 426 782 412 Q 839 412 959 425 Q 984 428 984 434 Q 984 441 960 448 Q 792 500 734 551 Q 662 611 551 774 Q 524 813 479 815 Q 448 816 445 808 Q 441 798 448 795 Z" fill="lightgray" class="stroke step1"/>
    <path d="M 434 376 Q 510 395 575 405 Q 600 408 604 400 Q 617 378 606 323 Q 584 169 544 104 Q 526 71 498 76 Q 461 88 427 101 Q 402 108 420 85 Q 478 37 507 0 Q 532 -27 555 -3 Q 592 25 617 74 Q 647 132 663 308 Q 669 369 690 401 Q 703 416 697 427 Q 687 440 630 465 Q 608 475 586 460 Q 559 444 456 421 Q 353 396 266 390 Q 245 389 242 379 Q 241 369 268 356 Q 296 337 320 346 Q 354 356 388 364 L 434 376 Z" fill="lightgray" class="hide"/>
    <path d="M 388 364 Q 388 205 153 38 Q 144 31 151 27 Q 158 24 170 28 Q 228 47 279 83 Q 366 138 437 282 Q 450 304 465 327 Q 474 336 468 347 Q 462 357 434 376 C 410 393 389 394 388 364 Z" fill="lightgray" class="hide"/></g><g transform="scale(1, -1) translate(0, -900)">
    <style type="text/css">
        .origin {display:none;}
        .hide {display:none;}
        .stroke {fill: #000000;}
        
.step1 {transform: translateX(1024px);}
.step2 {transform: translateX(2048px);}
.step3 {transform: translateX(3072px);}
.step4 {transform: translateX(4096px);}
.step5 {transform: translateX(5120px);}
.step6 {transform: translateX(6144px);}
.step7 {transform: translateX(7168px);}
.step8 {transform: translateX(8192px);}
.step9 {transform: translateX(9216px);}
.step10 {transform: translateX(10240px);}
.step11 {transform: translateX(11264px);}
.step12 {transform: translateX(12288px);}
.step13 {transform: translateX(13312px);}
.step14 {transform: translateX(14336px);}
.step15 {transform: translateX(15360px);}
.step16 {transform: translateX(16384px);}
.step17 {transform: translateX(17408px);}
.step18 {transform: translateX(18432px);}
.step19 {transform: translateX(19456px);}
.step20 {transform: translateX(20480px);}
.step21 {transform: translateX(21504px);}
.step22 {transform: translateX(22528px);}
.step23 {transform: translateX(23552px);}
.step24 {transform: translateX(24576px);}
.step25 {transform: translateX(25600px);}
.step26 {transform: translateX(26624px);}
.step27 {transform: translateX(27648px);}
.step28 {transform: translateX(28672px);}
.step29 {transform: translateX(29696px);}
    </style>

    <path d="M 324 682 Q 328 610 221 489 Q 170 440 94 376 Q 85 372 96 368 Q 144 368 253 455 Q 331 533 390 611 Q 399 623 405 627 Q 414 633 412 643 Q 411 653 399 667 Q 365 701 331 697 Q 322 696 324 682 Z" fill="lightgray" class="stroke step2"/>
    <path d="M 448 795 Q 506 765 551 690 Q 710 426 782 412 Q 839 412 959 425 Q 984 428 984 434 Q 984 441 960 448 Q 792 500 734 551 Q 662 611 551 774 Q 524 813 479 815 Q 448 816 445 808 Q 441 798 448 795 Z" fill="lightgray" class="stroke step2"/>
    <path d="M 434 376 Q 510 395 575 405 Q 600 408 604 400 Q 617 378 606 323 Q 584 169 544 104 Q 526 71 498 76 Q 461 88 427 101 Q 402 108 420 85 Q 478 37 507 0 Q 532 -27 555 -3 Q 592 25 617 74 Q 647 132 663 308 Q 669 369 690 401 Q 703 416 697 427 Q 687 440 630 465 Q 608 475 586 460 Q 559 444 456 421 Q 353 396 266 390 Q 245 389 242 379 Q 241 369 268 356 Q 296 337 320 346 Q 354 356 388 364 L 434 376 Z" fill="lightgray" class="stroke step2"/>
    <path d="M 388 364 Q 388 205 153 38 Q 144 31 151 27 Q 158 24 170 28 Q 228 47 279 83 Q 366 138 437 282 Q 450 304 465 327 Q 474 336 468 347 Q 462 357 434 376 C 410 393 389 394 388 364 Z" fill="lightgray" class="hide"/></g><g transform="scale(1, -1) translate(0, -900)">
    <style type="text/css">
        .origin {display:none;}
        .hide {display:none;}
        .stroke {fill: #000000;}
        
.step1 {transform: translateX(1024px);}
.step2 {transform: translateX(2048px);}
.step3 {transform: translateX(3072px);}
.step4 {transform: translateX(4096px);}
.step5 {transform: translateX(5120px);}
.step6 {transform: translateX(6144px);}
.step7 {transform: translateX(7168px);}
.step8 {transform: translateX(8192px);}
.step9 {transform: translateX(9216px);}
.step10 {transform: translateX(10240px);}
.step11 {transform: translateX(11264px);}
.step12 {transform: translateX(12288px);}
.step13 {transform: translateX(13312px);}
.step14 {transform: translateX(14336px);}
.step15 {transform: translateX(15360px);}
.step16 {transform: translateX(16384px);}
.step17 {transform: translateX(17408px);}
.step18 {transform: translateX(18432px);}
.step19 {transform: translateX(19456px);}
.step20 {transform: translateX(20480px);}
.step21 {transform: translateX(21504px);}
.step22 {transform: translateX(22528px);}
.step23 {transform: translateX(23552px);}
.step24 {transform: translateX(24576px);}
.step25 {transform: translateX(25600px);}
.step26 {transform: translateX(26624px);}
.step27 {transform: translateX(27648px);}
.step28 {transform: translateX(28672px);}
.step29 {transform: translateX(29696px);}
    </style>

    <path d="M 324 682 Q 328 610 221 489 Q 170 440 94 376 Q 85 372 96 368 Q 144 368 253 455 Q 331 533 390 611 Q 399 623 405 627 Q 414 633 412 643 Q 411 653 399 667 Q 365 701 331 697 Q 322 696 324 682 Z" fill="lightgray" class="stroke step3"/>
    <path d="M 448 795 Q 506 765 551 690 Q 710 426 782 412 Q 839 412 959 425 Q 984 428 984 434 Q 984 441 960 448 Q 792 500 734 551 Q 662 611 551 774 Q 524 813 479 815 Q 448 816 445 808 Q 441 798 448 795 Z" fill="lightgray" class="stroke step3"/>
    <path d="M 434 376 Q 510 395 575 405 Q 600 408 604 400 Q 617 378 606 323 Q 584 169 544 104 Q 526 71 498 76 Q 461 88 427 101 Q 402 108 420 85 Q 478 37 507 0 Q 532 -27 555 -3 Q 592 25 617 74 Q 647 132 663 308 Q 669 369 690 401 Q 703 416 697 427 Q 687 440 630 465 Q 608 475 586 460 Q 559 444 456 421 Q 353 396 266 390 Q 245 389 242 379 Q 241 369 268 356 Q 296 337 320 346 Q 354 356 388 364 L 434 376 Z" fill="lightgray" class="stroke step3"/>
    <path d="M 388 364 Q 388 205 153 38 Q 144 31 151 27 Q 158 24 170 28 Q 228 47 279 83 Q 366 138 437 282 Q 450 304 465 327 Q 474 336 468 347 Q 462 357 434 376 C 410 393 389 394 388 364 Z" fill="lightgray" class="stroke step3"/></g></svg>