<svg version="1.1" viewBox="0 0 4096 1024" xmlns="http://www.w3.org/2000/svg">
  
  <g transform="scale(1, -1) translate(0, -900)" class="origin">
    <style type="text/css">
        .origin {display:none;}
        .hide {display:none;}
        .stroke {fill: #000000;}
        
.step1 {transform: translateX(1024px);}
.step2 {transform: translateX(2048px);}
.step3 {transform: translateX(3072px);}
.step4 {transform: translateX(4096px);}
.step5 {transform: translateX(5120px);}
.step6 {transform: translateX(6144px);}
.step7 {transform: translateX(7168px);}
.step8 {transform: translateX(8192px);}
.step9 {transform: translateX(9216px);}
.step10 {transform: translateX(10240px);}
.step11 {transform: translateX(11264px);}
.step12 {transform: translateX(12288px);}
.step13 {transform: translateX(13312px);}
.step14 {transform: translateX(14336px);}
.step15 {transform: translateX(15360px);}
.step16 {transform: translateX(16384px);}
.step17 {transform: translateX(17408px);}
.step18 {transform: translateX(18432px);}
.step19 {transform: translateX(19456px);}
.step20 {transform: translateX(20480px);}
.step21 {transform: translateX(21504px);}
.step22 {transform: translateX(22528px);}
.step23 {transform: translateX(23552px);}
.step24 {transform: translateX(24576px);}
.step25 {transform: translateX(25600px);}
.step26 {transform: translateX(26624px);}
.step27 {transform: translateX(27648px);}
.step28 {transform: translateX(28672px);}
.step29 {transform: translateX(29696px);}
    </style>

    <path d="M 272 503 Q 318 563 367 639 Q 397 691 422 715 Q 432 725 428 741 Q 424 754 393 780 Q 365 799 344 800 Q 325 799 333 774 Q 348 740 334 711 Q 292 614 230 525 Q 169 440 88 345 Q 78 335 74 328 Q 70 315 86 318 Q 122 321 236 459 Q 240 465 247 472 L 272 503 Z" fill="lightgray"/>
    <path d="M 247 472 Q 268 400 270 381 Q 270 234 245 135 Q 230 86 267 38 Q 268 35 272 32 Q 291 16 303 44 Q 318 86 318 134 Q 319 362 326 413 Q 333 441 323 452 Q 305 474 291 488 Q 282 498 272 503 C 247 520 239 501 247 472 Z" fill="lightgray"/>
    <path d="M 551 355 Q 669 448 743 523 Q 782 566 812 584 Q 825 593 823 609 Q 822 622 797 654 Q 773 679 754 684 Q 733 685 737 661 Q 744 625 725 600 Q 665 516 587 443 Q 571 430 554 413 L 499 365 Q 459 332 414 298 Q 401 291 398 284 Q 391 274 407 273 Q 426 272 499 317 L 551 355 Z" fill="lightgray"/>
    <path d="M 941 98 Q 959 114 939 146 Q 917 201 908 276 Q 907 286 899 296 Q 887 302 885 277 Q 852 150 846 141 Q 839 128 807 122 Q 698 94 614 117 Q 572 129 559 171 Q 549 204 551 355 L 554 413 Q 572 663 596 697 Q 605 721 585 735 Q 555 763 516 773 Q 495 777 487 768 Q 478 758 486 748 Q 501 735 508 711 Q 512 687 505 539 Q 501 448 499 365 L 499 317 Q 502 148 535 108 Q 545 96 566 84 Q 654 38 846 62 Q 856 65 866 67 Q 918 80 941 98 Z" fill="lightgray"/></g>
<g transform="scale(1, -1) translate(0, -900)">
    <style type="text/css">
        .origin {display:none;}
        .hide {display:none;}
        .stroke {fill: #000000;}
        
.step1 {transform: translateX(1024px);}
.step2 {transform: translateX(2048px);}
.step3 {transform: translateX(3072px);}
.step4 {transform: translateX(4096px);}
.step5 {transform: translateX(5120px);}
.step6 {transform: translateX(6144px);}
.step7 {transform: translateX(7168px);}
.step8 {transform: translateX(8192px);}
.step9 {transform: translateX(9216px);}
.step10 {transform: translateX(10240px);}
.step11 {transform: translateX(11264px);}
.step12 {transform: translateX(12288px);}
.step13 {transform: translateX(13312px);}
.step14 {transform: translateX(14336px);}
.step15 {transform: translateX(15360px);}
.step16 {transform: translateX(16384px);}
.step17 {transform: translateX(17408px);}
.step18 {transform: translateX(18432px);}
.step19 {transform: translateX(19456px);}
.step20 {transform: translateX(20480px);}
.step21 {transform: translateX(21504px);}
.step22 {transform: translateX(22528px);}
.step23 {transform: translateX(23552px);}
.step24 {transform: translateX(24576px);}
.step25 {transform: translateX(25600px);}
.step26 {transform: translateX(26624px);}
.step27 {transform: translateX(27648px);}
.step28 {transform: translateX(28672px);}
.step29 {transform: translateX(29696px);}
    </style>

    <path d="M 272 503 Q 318 563 367 639 Q 397 691 422 715 Q 432 725 428 741 Q 424 754 393 780 Q 365 799 344 800 Q 325 799 333 774 Q 348 740 334 711 Q 292 614 230 525 Q 169 440 88 345 Q 78 335 74 328 Q 70 315 86 318 Q 122 321 236 459 Q 240 465 247 472 L 272 503 Z" fill="lightgray" class="stroke step0"/>
    <path d="M 247 472 Q 268 400 270 381 Q 270 234 245 135 Q 230 86 267 38 Q 268 35 272 32 Q 291 16 303 44 Q 318 86 318 134 Q 319 362 326 413 Q 333 441 323 452 Q 305 474 291 488 Q 282 498 272 503 C 247 520 239 501 247 472 Z" fill="lightgray" class="hide"/>
    <path d="M 551 355 Q 669 448 743 523 Q 782 566 812 584 Q 825 593 823 609 Q 822 622 797 654 Q 773 679 754 684 Q 733 685 737 661 Q 744 625 725 600 Q 665 516 587 443 Q 571 430 554 413 L 499 365 Q 459 332 414 298 Q 401 291 398 284 Q 391 274 407 273 Q 426 272 499 317 L 551 355 Z" fill="lightgray" class="hide"/>
    <path d="M 941 98 Q 959 114 939 146 Q 917 201 908 276 Q 907 286 899 296 Q 887 302 885 277 Q 852 150 846 141 Q 839 128 807 122 Q 698 94 614 117 Q 572 129 559 171 Q 549 204 551 355 L 554 413 Q 572 663 596 697 Q 605 721 585 735 Q 555 763 516 773 Q 495 777 487 768 Q 478 758 486 748 Q 501 735 508 711 Q 512 687 505 539 Q 501 448 499 365 L 499 317 Q 502 148 535 108 Q 545 96 566 84 Q 654 38 846 62 Q 856 65 866 67 Q 918 80 941 98 Z" fill="lightgray" class="hide"/></g><g transform="scale(1, -1) translate(0, -900)">
    <style type="text/css">
        .origin {display:none;}
        .hide {display:none;}
        .stroke {fill: #000000;}
        
.step1 {transform: translateX(1024px);}
.step2 {transform: translateX(2048px);}
.step3 {transform: translateX(3072px);}
.step4 {transform: translateX(4096px);}
.step5 {transform: translateX(5120px);}
.step6 {transform: translateX(6144px);}
.step7 {transform: translateX(7168px);}
.step8 {transform: translateX(8192px);}
.step9 {transform: translateX(9216px);}
.step10 {transform: translateX(10240px);}
.step11 {transform: translateX(11264px);}
.step12 {transform: translateX(12288px);}
.step13 {transform: translateX(13312px);}
.step14 {transform: translateX(14336px);}
.step15 {transform: translateX(15360px);}
.step16 {transform: translateX(16384px);}
.step17 {transform: translateX(17408px);}
.step18 {transform: translateX(18432px);}
.step19 {transform: translateX(19456px);}
.step20 {transform: translateX(20480px);}
.step21 {transform: translateX(21504px);}
.step22 {transform: translateX(22528px);}
.step23 {transform: translateX(23552px);}
.step24 {transform: translateX(24576px);}
.step25 {transform: translateX(25600px);}
.step26 {transform: translateX(26624px);}
.step27 {transform: translateX(27648px);}
.step28 {transform: translateX(28672px);}
.step29 {transform: translateX(29696px);}
    </style>

    <path d="M 272 503 Q 318 563 367 639 Q 397 691 422 715 Q 432 725 428 741 Q 424 754 393 780 Q 365 799 344 800 Q 325 799 333 774 Q 348 740 334 711 Q 292 614 230 525 Q 169 440 88 345 Q 78 335 74 328 Q 70 315 86 318 Q 122 321 236 459 Q 240 465 247 472 L 272 503 Z" fill="lightgray" class="stroke step1"/>
    <path d="M 247 472 Q 268 400 270 381 Q 270 234 245 135 Q 230 86 267 38 Q 268 35 272 32 Q 291 16 303 44 Q 318 86 318 134 Q 319 362 326 413 Q 333 441 323 452 Q 305 474 291 488 Q 282 498 272 503 C 247 520 239 501 247 472 Z" fill="lightgray" class="stroke step1"/>
    <path d="M 551 355 Q 669 448 743 523 Q 782 566 812 584 Q 825 593 823 609 Q 822 622 797 654 Q 773 679 754 684 Q 733 685 737 661 Q 744 625 725 600 Q 665 516 587 443 Q 571 430 554 413 L 499 365 Q 459 332 414 298 Q 401 291 398 284 Q 391 274 407 273 Q 426 272 499 317 L 551 355 Z" fill="lightgray" class="hide"/>
    <path d="M 941 98 Q 959 114 939 146 Q 917 201 908 276 Q 907 286 899 296 Q 887 302 885 277 Q 852 150 846 141 Q 839 128 807 122 Q 698 94 614 117 Q 572 129 559 171 Q 549 204 551 355 L 554 413 Q 572 663 596 697 Q 605 721 585 735 Q 555 763 516 773 Q 495 777 487 768 Q 478 758 486 748 Q 501 735 508 711 Q 512 687 505 539 Q 501 448 499 365 L 499 317 Q 502 148 535 108 Q 545 96 566 84 Q 654 38 846 62 Q 856 65 866 67 Q 918 80 941 98 Z" fill="lightgray" class="hide"/></g><g transform="scale(1, -1) translate(0, -900)">
    <style type="text/css">
        .origin {display:none;}
        .hide {display:none;}
        .stroke {fill: #000000;}
        
.step1 {transform: translateX(1024px);}
.step2 {transform: translateX(2048px);}
.step3 {transform: translateX(3072px);}
.step4 {transform: translateX(4096px);}
.step5 {transform: translateX(5120px);}
.step6 {transform: translateX(6144px);}
.step7 {transform: translateX(7168px);}
.step8 {transform: translateX(8192px);}
.step9 {transform: translateX(9216px);}
.step10 {transform: translateX(10240px);}
.step11 {transform: translateX(11264px);}
.step12 {transform: translateX(12288px);}
.step13 {transform: translateX(13312px);}
.step14 {transform: translateX(14336px);}
.step15 {transform: translateX(15360px);}
.step16 {transform: translateX(16384px);}
.step17 {transform: translateX(17408px);}
.step18 {transform: translateX(18432px);}
.step19 {transform: translateX(19456px);}
.step20 {transform: translateX(20480px);}
.step21 {transform: translateX(21504px);}
.step22 {transform: translateX(22528px);}
.step23 {transform: translateX(23552px);}
.step24 {transform: translateX(24576px);}
.step25 {transform: translateX(25600px);}
.step26 {transform: translateX(26624px);}
.step27 {transform: translateX(27648px);}
.step28 {transform: translateX(28672px);}
.step29 {transform: translateX(29696px);}
    </style>

    <path d="M 272 503 Q 318 563 367 639 Q 397 691 422 715 Q 432 725 428 741 Q 424 754 393 780 Q 365 799 344 800 Q 325 799 333 774 Q 348 740 334 711 Q 292 614 230 525 Q 169 440 88 345 Q 78 335 74 328 Q 70 315 86 318 Q 122 321 236 459 Q 240 465 247 472 L 272 503 Z" fill="lightgray" class="stroke step2"/>
    <path d="M 247 472 Q 268 400 270 381 Q 270 234 245 135 Q 230 86 267 38 Q 268 35 272 32 Q 291 16 303 44 Q 318 86 318 134 Q 319 362 326 413 Q 333 441 323 452 Q 305 474 291 488 Q 282 498 272 503 C 247 520 239 501 247 472 Z" fill="lightgray" class="stroke step2"/>
    <path d="M 551 355 Q 669 448 743 523 Q 782 566 812 584 Q 825 593 823 609 Q 822 622 797 654 Q 773 679 754 684 Q 733 685 737 661 Q 744 625 725 600 Q 665 516 587 443 Q 571 430 554 413 L 499 365 Q 459 332 414 298 Q 401 291 398 284 Q 391 274 407 273 Q 426 272 499 317 L 551 355 Z" fill="lightgray" class="stroke step2"/>
    <path d="M 941 98 Q 959 114 939 146 Q 917 201 908 276 Q 907 286 899 296 Q 887 302 885 277 Q 852 150 846 141 Q 839 128 807 122 Q 698 94 614 117 Q 572 129 559 171 Q 549 204 551 355 L 554 413 Q 572 663 596 697 Q 605 721 585 735 Q 555 763 516 773 Q 495 777 487 768 Q 478 758 486 748 Q 501 735 508 711 Q 512 687 505 539 Q 501 448 499 365 L 499 317 Q 502 148 535 108 Q 545 96 566 84 Q 654 38 846 62 Q 856 65 866 67 Q 918 80 941 98 Z" fill="lightgray" class="hide"/></g><g transform="scale(1, -1) translate(0, -900)">
    <style type="text/css">
        .origin {display:none;}
        .hide {display:none;}
        .stroke {fill: #000000;}
        
.step1 {transform: translateX(1024px);}
.step2 {transform: translateX(2048px);}
.step3 {transform: translateX(3072px);}
.step4 {transform: translateX(4096px);}
.step5 {transform: translateX(5120px);}
.step6 {transform: translateX(6144px);}
.step7 {transform: translateX(7168px);}
.step8 {transform: translateX(8192px);}
.step9 {transform: translateX(9216px);}
.step10 {transform: translateX(10240px);}
.step11 {transform: translateX(11264px);}
.step12 {transform: translateX(12288px);}
.step13 {transform: translateX(13312px);}
.step14 {transform: translateX(14336px);}
.step15 {transform: translateX(15360px);}
.step16 {transform: translateX(16384px);}
.step17 {transform: translateX(17408px);}
.step18 {transform: translateX(18432px);}
.step19 {transform: translateX(19456px);}
.step20 {transform: translateX(20480px);}
.step21 {transform: translateX(21504px);}
.step22 {transform: translateX(22528px);}
.step23 {transform: translateX(23552px);}
.step24 {transform: translateX(24576px);}
.step25 {transform: translateX(25600px);}
.step26 {transform: translateX(26624px);}
.step27 {transform: translateX(27648px);}
.step28 {transform: translateX(28672px);}
.step29 {transform: translateX(29696px);}
    </style>

    <path d="M 272 503 Q 318 563 367 639 Q 397 691 422 715 Q 432 725 428 741 Q 424 754 393 780 Q 365 799 344 800 Q 325 799 333 774 Q 348 740 334 711 Q 292 614 230 525 Q 169 440 88 345 Q 78 335 74 328 Q 70 315 86 318 Q 122 321 236 459 Q 240 465 247 472 L 272 503 Z" fill="lightgray" class="stroke step3"/>
    <path d="M 247 472 Q 268 400 270 381 Q 270 234 245 135 Q 230 86 267 38 Q 268 35 272 32 Q 291 16 303 44 Q 318 86 318 134 Q 319 362 326 413 Q 333 441 323 452 Q 305 474 291 488 Q 282 498 272 503 C 247 520 239 501 247 472 Z" fill="lightgray" class="stroke step3"/>
    <path d="M 551 355 Q 669 448 743 523 Q 782 566 812 584 Q 825 593 823 609 Q 822 622 797 654 Q 773 679 754 684 Q 733 685 737 661 Q 744 625 725 600 Q 665 516 587 443 Q 571 430 554 413 L 499 365 Q 459 332 414 298 Q 401 291 398 284 Q 391 274 407 273 Q 426 272 499 317 L 551 355 Z" fill="lightgray" class="stroke step3"/>
    <path d="M 941 98 Q 959 114 939 146 Q 917 201 908 276 Q 907 286 899 296 Q 887 302 885 277 Q 852 150 846 141 Q 839 128 807 122 Q 698 94 614 117 Q 572 129 559 171 Q 549 204 551 355 L 554 413 Q 572 663 596 697 Q 605 721 585 735 Q 555 763 516 773 Q 495 777 487 768 Q 478 758 486 748 Q 501 735 508 711 Q 512 687 505 539 Q 501 448 499 365 L 499 317 Q 502 148 535 108 Q 545 96 566 84 Q 654 38 846 62 Q 856 65 866 67 Q 918 80 941 98 Z" fill="lightgray" class="stroke step3"/></g></svg>