<svg version="1.1" viewBox="0 0 2048 1024" xmlns="http://www.w3.org/2000/svg">
  
  <g transform="scale(1, -1) translate(0, -900)" class="origin">
    <style type="text/css">
        .origin {display:none;}
        .hide {display:none;}
        .stroke {fill: #000000;}
        
.step1 {transform: translateX(1024px);}
.step2 {transform: translateX(2048px);}
.step3 {transform: translateX(3072px);}
.step4 {transform: translateX(4096px);}
.step5 {transform: translateX(5120px);}
.step6 {transform: translateX(6144px);}
.step7 {transform: translateX(7168px);}
.step8 {transform: translateX(8192px);}
.step9 {transform: translateX(9216px);}
.step10 {transform: translateX(10240px);}
.step11 {transform: translateX(11264px);}
.step12 {transform: translateX(12288px);}
.step13 {transform: translateX(13312px);}
.step14 {transform: translateX(14336px);}
.step15 {transform: translateX(15360px);}
.step16 {transform: translateX(16384px);}
.step17 {transform: translateX(17408px);}
.step18 {transform: translateX(18432px);}
.step19 {transform: translateX(19456px);}
.step20 {transform: translateX(20480px);}
.step21 {transform: translateX(21504px);}
.step22 {transform: translateX(22528px);}
.step23 {transform: translateX(23552px);}
.step24 {transform: translateX(24576px);}
.step25 {transform: translateX(25600px);}
.step26 {transform: translateX(26624px);}
.step27 {transform: translateX(27648px);}
.step28 {transform: translateX(28672px);}
.step29 {transform: translateX(29696px);}
    </style>

    <path d="M 304 627 Q 359 632 488 651 Q 778 690 815 705 Q 815 708 819 708 Q 831 715 826 727 Q 819 744 790 753 Q 749 765 708 753 Q 510 698 310 686 Q 214 671 139 671 Q 123 671 122 659 Q 122 646 143 629 Q 156 621 165 617 Q 192 604 227 612 L 304 627 Z" fill="lightgray"/>
    <path d="M 227 612 Q 229 603 230 586 Q 231 537 233 523 Q 246 174 204 79 Q 202 77 201 74 L 182 53 Q 170 37 182 22 Q 188 2 207 -12 Q 225 -27 246 -12 Q 282 33 514 48 Q 723 63 853 46 Q 906 39 907 65 Q 907 82 868 106 Q 827 131 805 129 Q 767 129 429 86 Q 303 65 292 79 Q 286 86 290 214 Q 290 441 302 580 Q 302 616 304 627 C 305 657 224 642 227 612 Z" fill="lightgray"/></g>
<g transform="scale(1, -1) translate(0, -900)">
    <style type="text/css">
        .origin {display:none;}
        .hide {display:none;}
        .stroke {fill: #000000;}
        
.step1 {transform: translateX(1024px);}
.step2 {transform: translateX(2048px);}
.step3 {transform: translateX(3072px);}
.step4 {transform: translateX(4096px);}
.step5 {transform: translateX(5120px);}
.step6 {transform: translateX(6144px);}
.step7 {transform: translateX(7168px);}
.step8 {transform: translateX(8192px);}
.step9 {transform: translateX(9216px);}
.step10 {transform: translateX(10240px);}
.step11 {transform: translateX(11264px);}
.step12 {transform: translateX(12288px);}
.step13 {transform: translateX(13312px);}
.step14 {transform: translateX(14336px);}
.step15 {transform: translateX(15360px);}
.step16 {transform: translateX(16384px);}
.step17 {transform: translateX(17408px);}
.step18 {transform: translateX(18432px);}
.step19 {transform: translateX(19456px);}
.step20 {transform: translateX(20480px);}
.step21 {transform: translateX(21504px);}
.step22 {transform: translateX(22528px);}
.step23 {transform: translateX(23552px);}
.step24 {transform: translateX(24576px);}
.step25 {transform: translateX(25600px);}
.step26 {transform: translateX(26624px);}
.step27 {transform: translateX(27648px);}
.step28 {transform: translateX(28672px);}
.step29 {transform: translateX(29696px);}
    </style>

    <path d="M 304 627 Q 359 632 488 651 Q 778 690 815 705 Q 815 708 819 708 Q 831 715 826 727 Q 819 744 790 753 Q 749 765 708 753 Q 510 698 310 686 Q 214 671 139 671 Q 123 671 122 659 Q 122 646 143 629 Q 156 621 165 617 Q 192 604 227 612 L 304 627 Z" fill="lightgray" class="stroke step0"/>
    <path d="M 227 612 Q 229 603 230 586 Q 231 537 233 523 Q 246 174 204 79 Q 202 77 201 74 L 182 53 Q 170 37 182 22 Q 188 2 207 -12 Q 225 -27 246 -12 Q 282 33 514 48 Q 723 63 853 46 Q 906 39 907 65 Q 907 82 868 106 Q 827 131 805 129 Q 767 129 429 86 Q 303 65 292 79 Q 286 86 290 214 Q 290 441 302 580 Q 302 616 304 627 C 305 657 224 642 227 612 Z" fill="lightgray" class="hide"/></g><g transform="scale(1, -1) translate(0, -900)">
    <style type="text/css">
        .origin {display:none;}
        .hide {display:none;}
        .stroke {fill: #000000;}
        
.step1 {transform: translateX(1024px);}
.step2 {transform: translateX(2048px);}
.step3 {transform: translateX(3072px);}
.step4 {transform: translateX(4096px);}
.step5 {transform: translateX(5120px);}
.step6 {transform: translateX(6144px);}
.step7 {transform: translateX(7168px);}
.step8 {transform: translateX(8192px);}
.step9 {transform: translateX(9216px);}
.step10 {transform: translateX(10240px);}
.step11 {transform: translateX(11264px);}
.step12 {transform: translateX(12288px);}
.step13 {transform: translateX(13312px);}
.step14 {transform: translateX(14336px);}
.step15 {transform: translateX(15360px);}
.step16 {transform: translateX(16384px);}
.step17 {transform: translateX(17408px);}
.step18 {transform: translateX(18432px);}
.step19 {transform: translateX(19456px);}
.step20 {transform: translateX(20480px);}
.step21 {transform: translateX(21504px);}
.step22 {transform: translateX(22528px);}
.step23 {transform: translateX(23552px);}
.step24 {transform: translateX(24576px);}
.step25 {transform: translateX(25600px);}
.step26 {transform: translateX(26624px);}
.step27 {transform: translateX(27648px);}
.step28 {transform: translateX(28672px);}
.step29 {transform: translateX(29696px);}
    </style>

    <path d="M 304 627 Q 359 632 488 651 Q 778 690 815 705 Q 815 708 819 708 Q 831 715 826 727 Q 819 744 790 753 Q 749 765 708 753 Q 510 698 310 686 Q 214 671 139 671 Q 123 671 122 659 Q 122 646 143 629 Q 156 621 165 617 Q 192 604 227 612 L 304 627 Z" fill="lightgray" class="stroke step1"/>
    <path d="M 227 612 Q 229 603 230 586 Q 231 537 233 523 Q 246 174 204 79 Q 202 77 201 74 L 182 53 Q 170 37 182 22 Q 188 2 207 -12 Q 225 -27 246 -12 Q 282 33 514 48 Q 723 63 853 46 Q 906 39 907 65 Q 907 82 868 106 Q 827 131 805 129 Q 767 129 429 86 Q 303 65 292 79 Q 286 86 290 214 Q 290 441 302 580 Q 302 616 304 627 C 305 657 224 642 227 612 Z" fill="lightgray" class="stroke step1"/></g></svg>