<svg version="1.1" viewBox="0 0 5120 1024" xmlns="http://www.w3.org/2000/svg">
  
  <g transform="scale(1, -1) translate(0, -900)" class="origin">
    <style type="text/css">
        .origin {display:none;}
        .hide {display:none;}
        .stroke {fill: #000000;}
        
.step1 {transform: translateX(1024px);}
.step2 {transform: translateX(2048px);}
.step3 {transform: translateX(3072px);}
.step4 {transform: translateX(4096px);}
.step5 {transform: translateX(5120px);}
.step6 {transform: translateX(6144px);}
.step7 {transform: translateX(7168px);}
.step8 {transform: translateX(8192px);}
.step9 {transform: translateX(9216px);}
.step10 {transform: translateX(10240px);}
.step11 {transform: translateX(11264px);}
.step12 {transform: translateX(12288px);}
.step13 {transform: translateX(13312px);}
.step14 {transform: translateX(14336px);}
.step15 {transform: translateX(15360px);}
.step16 {transform: translateX(16384px);}
.step17 {transform: translateX(17408px);}
.step18 {transform: translateX(18432px);}
.step19 {transform: translateX(19456px);}
.step20 {transform: translateX(20480px);}
.step21 {transform: translateX(21504px);}
.step22 {transform: translateX(22528px);}
.step23 {transform: translateX(23552px);}
.step24 {transform: translateX(24576px);}
.step25 {transform: translateX(25600px);}
.step26 {transform: translateX(26624px);}
.step27 {transform: translateX(27648px);}
.step28 {transform: translateX(28672px);}
.step29 {transform: translateX(29696px);}
    </style>

    <path d="M 369 583 Q 415 634 466 710 Q 488 746 507 763 Q 517 773 512 789 Q 508 802 477 828 Q 449 847 428 848 Q 409 847 417 822 Q 436 774 349 639 Q 309 575 252 505 Q 240 495 238 487 Q 234 475 250 478 Q 274 481 352 564 L 369 583 Z" fill="lightgray"/>
    <path d="M 641 57 Q 626 56 549 97 Q 539 101 539 96 Q 538 92 549 81 Q 595 26 616 -14 Q 628 -39 643 -39 Q 665 -40 688 -16 Q 767 50 788 218 Q 804 330 810 504 Q 811 543 835 573 Q 850 588 848 597 Q 847 606 825 621 Q 795 643 756 655 Q 734 662 646 636 Q 631 633 614 628 Q 497 601 369 583 C 339 579 322 568 352 564 Q 391 552 483 565 Q 556 575 619 587 Q 721 605 734 590 Q 750 556 740 344 Q 728 187 683 99 Q 665 59 641 57 Z" fill="lightgray"/>
    <path d="M 254 413 Q 241 419 206 425 Q 193 429 189 423 Q 182 416 192 398 Q 222 335 241 232 Q 244 201 262 181 Q 281 156 288 174 Q 292 187 292 209 L 288 244 Q 269 350 267 382 C 265 409 265 409 254 413 Z" fill="lightgray"/>
    <path d="M 467 260 Q 494 356 527 381 Q 545 400 529 418 Q 513 431 460 456 Q 441 463 419 455 Q 377 439 338 429 Q 298 420 254 413 C 224 408 237 378 267 382 Q 279 383 291 387 Q 352 397 409 406 Q 424 410 430 403 Q 440 394 438 374 Q 428 316 416 267 C 409 238 459 231 467 260 Z" fill="lightgray"/>
    <path d="M 292 209 Q 302 208 314 210 Q 366 219 478 224 Q 490 225 491 234 Q 491 241 467 260 C 457 268 446 268 416 267 Q 413 268 410 267 Q 343 252 288 244 C 258 240 262 210 292 209 Z" fill="lightgray"/></g>
<g transform="scale(1, -1) translate(0, -900)">
    <style type="text/css">
        .origin {display:none;}
        .hide {display:none;}
        .stroke {fill: #000000;}
        
.step1 {transform: translateX(1024px);}
.step2 {transform: translateX(2048px);}
.step3 {transform: translateX(3072px);}
.step4 {transform: translateX(4096px);}
.step5 {transform: translateX(5120px);}
.step6 {transform: translateX(6144px);}
.step7 {transform: translateX(7168px);}
.step8 {transform: translateX(8192px);}
.step9 {transform: translateX(9216px);}
.step10 {transform: translateX(10240px);}
.step11 {transform: translateX(11264px);}
.step12 {transform: translateX(12288px);}
.step13 {transform: translateX(13312px);}
.step14 {transform: translateX(14336px);}
.step15 {transform: translateX(15360px);}
.step16 {transform: translateX(16384px);}
.step17 {transform: translateX(17408px);}
.step18 {transform: translateX(18432px);}
.step19 {transform: translateX(19456px);}
.step20 {transform: translateX(20480px);}
.step21 {transform: translateX(21504px);}
.step22 {transform: translateX(22528px);}
.step23 {transform: translateX(23552px);}
.step24 {transform: translateX(24576px);}
.step25 {transform: translateX(25600px);}
.step26 {transform: translateX(26624px);}
.step27 {transform: translateX(27648px);}
.step28 {transform: translateX(28672px);}
.step29 {transform: translateX(29696px);}
    </style>

    <path d="M 369 583 Q 415 634 466 710 Q 488 746 507 763 Q 517 773 512 789 Q 508 802 477 828 Q 449 847 428 848 Q 409 847 417 822 Q 436 774 349 639 Q 309 575 252 505 Q 240 495 238 487 Q 234 475 250 478 Q 274 481 352 564 L 369 583 Z" fill="lightgray" class="stroke step0"/>
    <path d="M 641 57 Q 626 56 549 97 Q 539 101 539 96 Q 538 92 549 81 Q 595 26 616 -14 Q 628 -39 643 -39 Q 665 -40 688 -16 Q 767 50 788 218 Q 804 330 810 504 Q 811 543 835 573 Q 850 588 848 597 Q 847 606 825 621 Q 795 643 756 655 Q 734 662 646 636 Q 631 633 614 628 Q 497 601 369 583 C 339 579 322 568 352 564 Q 391 552 483 565 Q 556 575 619 587 Q 721 605 734 590 Q 750 556 740 344 Q 728 187 683 99 Q 665 59 641 57 Z" fill="lightgray" class="hide"/>
    <path d="M 254 413 Q 241 419 206 425 Q 193 429 189 423 Q 182 416 192 398 Q 222 335 241 232 Q 244 201 262 181 Q 281 156 288 174 Q 292 187 292 209 L 288 244 Q 269 350 267 382 C 265 409 265 409 254 413 Z" fill="lightgray" class="hide"/>
    <path d="M 467 260 Q 494 356 527 381 Q 545 400 529 418 Q 513 431 460 456 Q 441 463 419 455 Q 377 439 338 429 Q 298 420 254 413 C 224 408 237 378 267 382 Q 279 383 291 387 Q 352 397 409 406 Q 424 410 430 403 Q 440 394 438 374 Q 428 316 416 267 C 409 238 459 231 467 260 Z" fill="lightgray" class="hide"/>
    <path d="M 292 209 Q 302 208 314 210 Q 366 219 478 224 Q 490 225 491 234 Q 491 241 467 260 C 457 268 446 268 416 267 Q 413 268 410 267 Q 343 252 288 244 C 258 240 262 210 292 209 Z" fill="lightgray" class="hide"/></g><g transform="scale(1, -1) translate(0, -900)">
    <style type="text/css">
        .origin {display:none;}
        .hide {display:none;}
        .stroke {fill: #000000;}
        
.step1 {transform: translateX(1024px);}
.step2 {transform: translateX(2048px);}
.step3 {transform: translateX(3072px);}
.step4 {transform: translateX(4096px);}
.step5 {transform: translateX(5120px);}
.step6 {transform: translateX(6144px);}
.step7 {transform: translateX(7168px);}
.step8 {transform: translateX(8192px);}
.step9 {transform: translateX(9216px);}
.step10 {transform: translateX(10240px);}
.step11 {transform: translateX(11264px);}
.step12 {transform: translateX(12288px);}
.step13 {transform: translateX(13312px);}
.step14 {transform: translateX(14336px);}
.step15 {transform: translateX(15360px);}
.step16 {transform: translateX(16384px);}
.step17 {transform: translateX(17408px);}
.step18 {transform: translateX(18432px);}
.step19 {transform: translateX(19456px);}
.step20 {transform: translateX(20480px);}
.step21 {transform: translateX(21504px);}
.step22 {transform: translateX(22528px);}
.step23 {transform: translateX(23552px);}
.step24 {transform: translateX(24576px);}
.step25 {transform: translateX(25600px);}
.step26 {transform: translateX(26624px);}
.step27 {transform: translateX(27648px);}
.step28 {transform: translateX(28672px);}
.step29 {transform: translateX(29696px);}
    </style>

    <path d="M 369 583 Q 415 634 466 710 Q 488 746 507 763 Q 517 773 512 789 Q 508 802 477 828 Q 449 847 428 848 Q 409 847 417 822 Q 436 774 349 639 Q 309 575 252 505 Q 240 495 238 487 Q 234 475 250 478 Q 274 481 352 564 L 369 583 Z" fill="lightgray" class="stroke step1"/>
    <path d="M 641 57 Q 626 56 549 97 Q 539 101 539 96 Q 538 92 549 81 Q 595 26 616 -14 Q 628 -39 643 -39 Q 665 -40 688 -16 Q 767 50 788 218 Q 804 330 810 504 Q 811 543 835 573 Q 850 588 848 597 Q 847 606 825 621 Q 795 643 756 655 Q 734 662 646 636 Q 631 633 614 628 Q 497 601 369 583 C 339 579 322 568 352 564 Q 391 552 483 565 Q 556 575 619 587 Q 721 605 734 590 Q 750 556 740 344 Q 728 187 683 99 Q 665 59 641 57 Z" fill="lightgray" class="stroke step1"/>
    <path d="M 254 413 Q 241 419 206 425 Q 193 429 189 423 Q 182 416 192 398 Q 222 335 241 232 Q 244 201 262 181 Q 281 156 288 174 Q 292 187 292 209 L 288 244 Q 269 350 267 382 C 265 409 265 409 254 413 Z" fill="lightgray" class="hide"/>
    <path d="M 467 260 Q 494 356 527 381 Q 545 400 529 418 Q 513 431 460 456 Q 441 463 419 455 Q 377 439 338 429 Q 298 420 254 413 C 224 408 237 378 267 382 Q 279 383 291 387 Q 352 397 409 406 Q 424 410 430 403 Q 440 394 438 374 Q 428 316 416 267 C 409 238 459 231 467 260 Z" fill="lightgray" class="hide"/>
    <path d="M 292 209 Q 302 208 314 210 Q 366 219 478 224 Q 490 225 491 234 Q 491 241 467 260 C 457 268 446 268 416 267 Q 413 268 410 267 Q 343 252 288 244 C 258 240 262 210 292 209 Z" fill="lightgray" class="hide"/></g><g transform="scale(1, -1) translate(0, -900)">
    <style type="text/css">
        .origin {display:none;}
        .hide {display:none;}
        .stroke {fill: #000000;}
        
.step1 {transform: translateX(1024px);}
.step2 {transform: translateX(2048px);}
.step3 {transform: translateX(3072px);}
.step4 {transform: translateX(4096px);}
.step5 {transform: translateX(5120px);}
.step6 {transform: translateX(6144px);}
.step7 {transform: translateX(7168px);}
.step8 {transform: translateX(8192px);}
.step9 {transform: translateX(9216px);}
.step10 {transform: translateX(10240px);}
.step11 {transform: translateX(11264px);}
.step12 {transform: translateX(12288px);}
.step13 {transform: translateX(13312px);}
.step14 {transform: translateX(14336px);}
.step15 {transform: translateX(15360px);}
.step16 {transform: translateX(16384px);}
.step17 {transform: translateX(17408px);}
.step18 {transform: translateX(18432px);}
.step19 {transform: translateX(19456px);}
.step20 {transform: translateX(20480px);}
.step21 {transform: translateX(21504px);}
.step22 {transform: translateX(22528px);}
.step23 {transform: translateX(23552px);}
.step24 {transform: translateX(24576px);}
.step25 {transform: translateX(25600px);}
.step26 {transform: translateX(26624px);}
.step27 {transform: translateX(27648px);}
.step28 {transform: translateX(28672px);}
.step29 {transform: translateX(29696px);}
    </style>

    <path d="M 369 583 Q 415 634 466 710 Q 488 746 507 763 Q 517 773 512 789 Q 508 802 477 828 Q 449 847 428 848 Q 409 847 417 822 Q 436 774 349 639 Q 309 575 252 505 Q 240 495 238 487 Q 234 475 250 478 Q 274 481 352 564 L 369 583 Z" fill="lightgray" class="stroke step2"/>
    <path d="M 641 57 Q 626 56 549 97 Q 539 101 539 96 Q 538 92 549 81 Q 595 26 616 -14 Q 628 -39 643 -39 Q 665 -40 688 -16 Q 767 50 788 218 Q 804 330 810 504 Q 811 543 835 573 Q 850 588 848 597 Q 847 606 825 621 Q 795 643 756 655 Q 734 662 646 636 Q 631 633 614 628 Q 497 601 369 583 C 339 579 322 568 352 564 Q 391 552 483 565 Q 556 575 619 587 Q 721 605 734 590 Q 750 556 740 344 Q 728 187 683 99 Q 665 59 641 57 Z" fill="lightgray" class="stroke step2"/>
    <path d="M 254 413 Q 241 419 206 425 Q 193 429 189 423 Q 182 416 192 398 Q 222 335 241 232 Q 244 201 262 181 Q 281 156 288 174 Q 292 187 292 209 L 288 244 Q 269 350 267 382 C 265 409 265 409 254 413 Z" fill="lightgray" class="stroke step2"/>
    <path d="M 467 260 Q 494 356 527 381 Q 545 400 529 418 Q 513 431 460 456 Q 441 463 419 455 Q 377 439 338 429 Q 298 420 254 413 C 224 408 237 378 267 382 Q 279 383 291 387 Q 352 397 409 406 Q 424 410 430 403 Q 440 394 438 374 Q 428 316 416 267 C 409 238 459 231 467 260 Z" fill="lightgray" class="hide"/>
    <path d="M 292 209 Q 302 208 314 210 Q 366 219 478 224 Q 490 225 491 234 Q 491 241 467 260 C 457 268 446 268 416 267 Q 413 268 410 267 Q 343 252 288 244 C 258 240 262 210 292 209 Z" fill="lightgray" class="hide"/></g><g transform="scale(1, -1) translate(0, -900)">
    <style type="text/css">
        .origin {display:none;}
        .hide {display:none;}
        .stroke {fill: #000000;}
        
.step1 {transform: translateX(1024px);}
.step2 {transform: translateX(2048px);}
.step3 {transform: translateX(3072px);}
.step4 {transform: translateX(4096px);}
.step5 {transform: translateX(5120px);}
.step6 {transform: translateX(6144px);}
.step7 {transform: translateX(7168px);}
.step8 {transform: translateX(8192px);}
.step9 {transform: translateX(9216px);}
.step10 {transform: translateX(10240px);}
.step11 {transform: translateX(11264px);}
.step12 {transform: translateX(12288px);}
.step13 {transform: translateX(13312px);}
.step14 {transform: translateX(14336px);}
.step15 {transform: translateX(15360px);}
.step16 {transform: translateX(16384px);}
.step17 {transform: translateX(17408px);}
.step18 {transform: translateX(18432px);}
.step19 {transform: translateX(19456px);}
.step20 {transform: translateX(20480px);}
.step21 {transform: translateX(21504px);}
.step22 {transform: translateX(22528px);}
.step23 {transform: translateX(23552px);}
.step24 {transform: translateX(24576px);}
.step25 {transform: translateX(25600px);}
.step26 {transform: translateX(26624px);}
.step27 {transform: translateX(27648px);}
.step28 {transform: translateX(28672px);}
.step29 {transform: translateX(29696px);}
    </style>

    <path d="M 369 583 Q 415 634 466 710 Q 488 746 507 763 Q 517 773 512 789 Q 508 802 477 828 Q 449 847 428 848 Q 409 847 417 822 Q 436 774 349 639 Q 309 575 252 505 Q 240 495 238 487 Q 234 475 250 478 Q 274 481 352 564 L 369 583 Z" fill="lightgray" class="stroke step3"/>
    <path d="M 641 57 Q 626 56 549 97 Q 539 101 539 96 Q 538 92 549 81 Q 595 26 616 -14 Q 628 -39 643 -39 Q 665 -40 688 -16 Q 767 50 788 218 Q 804 330 810 504 Q 811 543 835 573 Q 850 588 848 597 Q 847 606 825 621 Q 795 643 756 655 Q 734 662 646 636 Q 631 633 614 628 Q 497 601 369 583 C 339 579 322 568 352 564 Q 391 552 483 565 Q 556 575 619 587 Q 721 605 734 590 Q 750 556 740 344 Q 728 187 683 99 Q 665 59 641 57 Z" fill="lightgray" class="stroke step3"/>
    <path d="M 254 413 Q 241 419 206 425 Q 193 429 189 423 Q 182 416 192 398 Q 222 335 241 232 Q 244 201 262 181 Q 281 156 288 174 Q 292 187 292 209 L 288 244 Q 269 350 267 382 C 265 409 265 409 254 413 Z" fill="lightgray" class="stroke step3"/>
    <path d="M 467 260 Q 494 356 527 381 Q 545 400 529 418 Q 513 431 460 456 Q 441 463 419 455 Q 377 439 338 429 Q 298 420 254 413 C 224 408 237 378 267 382 Q 279 383 291 387 Q 352 397 409 406 Q 424 410 430 403 Q 440 394 438 374 Q 428 316 416 267 C 409 238 459 231 467 260 Z" fill="lightgray" class="stroke step3"/>
    <path d="M 292 209 Q 302 208 314 210 Q 366 219 478 224 Q 490 225 491 234 Q 491 241 467 260 C 457 268 446 268 416 267 Q 413 268 410 267 Q 343 252 288 244 C 258 240 262 210 292 209 Z" fill="lightgray" class="hide"/></g><g transform="scale(1, -1) translate(0, -900)">
    <style type="text/css">
        .origin {display:none;}
        .hide {display:none;}
        .stroke {fill: #000000;}
        
.step1 {transform: translateX(1024px);}
.step2 {transform: translateX(2048px);}
.step3 {transform: translateX(3072px);}
.step4 {transform: translateX(4096px);}
.step5 {transform: translateX(5120px);}
.step6 {transform: translateX(6144px);}
.step7 {transform: translateX(7168px);}
.step8 {transform: translateX(8192px);}
.step9 {transform: translateX(9216px);}
.step10 {transform: translateX(10240px);}
.step11 {transform: translateX(11264px);}
.step12 {transform: translateX(12288px);}
.step13 {transform: translateX(13312px);}
.step14 {transform: translateX(14336px);}
.step15 {transform: translateX(15360px);}
.step16 {transform: translateX(16384px);}
.step17 {transform: translateX(17408px);}
.step18 {transform: translateX(18432px);}
.step19 {transform: translateX(19456px);}
.step20 {transform: translateX(20480px);}
.step21 {transform: translateX(21504px);}
.step22 {transform: translateX(22528px);}
.step23 {transform: translateX(23552px);}
.step24 {transform: translateX(24576px);}
.step25 {transform: translateX(25600px);}
.step26 {transform: translateX(26624px);}
.step27 {transform: translateX(27648px);}
.step28 {transform: translateX(28672px);}
.step29 {transform: translateX(29696px);}
    </style>

    <path d="M 369 583 Q 415 634 466 710 Q 488 746 507 763 Q 517 773 512 789 Q 508 802 477 828 Q 449 847 428 848 Q 409 847 417 822 Q 436 774 349 639 Q 309 575 252 505 Q 240 495 238 487 Q 234 475 250 478 Q 274 481 352 564 L 369 583 Z" fill="lightgray" class="stroke step4"/>
    <path d="M 641 57 Q 626 56 549 97 Q 539 101 539 96 Q 538 92 549 81 Q 595 26 616 -14 Q 628 -39 643 -39 Q 665 -40 688 -16 Q 767 50 788 218 Q 804 330 810 504 Q 811 543 835 573 Q 850 588 848 597 Q 847 606 825 621 Q 795 643 756 655 Q 734 662 646 636 Q 631 633 614 628 Q 497 601 369 583 C 339 579 322 568 352 564 Q 391 552 483 565 Q 556 575 619 587 Q 721 605 734 590 Q 750 556 740 344 Q 728 187 683 99 Q 665 59 641 57 Z" fill="lightgray" class="stroke step4"/>
    <path d="M 254 413 Q 241 419 206 425 Q 193 429 189 423 Q 182 416 192 398 Q 222 335 241 232 Q 244 201 262 181 Q 281 156 288 174 Q 292 187 292 209 L 288 244 Q 269 350 267 382 C 265 409 265 409 254 413 Z" fill="lightgray" class="stroke step4"/>
    <path d="M 467 260 Q 494 356 527 381 Q 545 400 529 418 Q 513 431 460 456 Q 441 463 419 455 Q 377 439 338 429 Q 298 420 254 413 C 224 408 237 378 267 382 Q 279 383 291 387 Q 352 397 409 406 Q 424 410 430 403 Q 440 394 438 374 Q 428 316 416 267 C 409 238 459 231 467 260 Z" fill="lightgray" class="stroke step4"/>
    <path d="M 292 209 Q 302 208 314 210 Q 366 219 478 224 Q 490 225 491 234 Q 491 241 467 260 C 457 268 446 268 416 267 Q 413 268 410 267 Q 343 252 288 244 C 258 240 262 210 292 209 Z" fill="lightgray" class="stroke step4"/></g></svg>