<svg version="1.1" viewBox="0 0 6144 1024" xmlns="http://www.w3.org/2000/svg">
  
  <g transform="scale(1, -1) translate(0, -900)" class="origin">
    <style type="text/css">
        .origin {display:none;}
        .hide {display:none;}
        .stroke {fill: #000000;}
        
.step1 {transform: translateX(1024px);}
.step2 {transform: translateX(2048px);}
.step3 {transform: translateX(3072px);}
.step4 {transform: translateX(4096px);}
.step5 {transform: translateX(5120px);}
.step6 {transform: translateX(6144px);}
.step7 {transform: translateX(7168px);}
.step8 {transform: translateX(8192px);}
.step9 {transform: translateX(9216px);}
.step10 {transform: translateX(10240px);}
.step11 {transform: translateX(11264px);}
.step12 {transform: translateX(12288px);}
.step13 {transform: translateX(13312px);}
.step14 {transform: translateX(14336px);}
.step15 {transform: translateX(15360px);}
.step16 {transform: translateX(16384px);}
.step17 {transform: translateX(17408px);}
.step18 {transform: translateX(18432px);}
.step19 {transform: translateX(19456px);}
.step20 {transform: translateX(20480px);}
.step21 {transform: translateX(21504px);}
.step22 {transform: translateX(22528px);}
.step23 {transform: translateX(23552px);}
.step24 {transform: translateX(24576px);}
.step25 {transform: translateX(25600px);}
.step26 {transform: translateX(26624px);}
.step27 {transform: translateX(27648px);}
.step28 {transform: translateX(28672px);}
.step29 {transform: translateX(29696px);}
    </style>

    <path d="M 145 599 Q 133 605 107 609 Q 94 613 91 607 Q 84 601 93 584 Q 124 514 141 401 Q 144 367 163 344 Q 182 322 187 337 Q 194 356 191 386 L 186 422 Q 165 549 165 574 C 164 591 164 591 145 599 Z" fill="lightgray"/>
    <path d="M 331 453 Q 344 556 371 590 Q 393 617 369 629 Q 348 639 321 655 Q 302 665 284 653 Q 242 623 145 599 C 116 592 136 565 165 574 Q 216 590 258 602 Q 286 609 293 599 Q 303 592 297 548 Q 290 505 283 454 C 279 424 327 423 331 453 Z" fill="lightgray"/>
    <path d="M 191 386 Q 200 395 347 421 Q 357 422 358 432 Q 358 439 331 453 L 283 454 Q 279 454 278 453 Q 229 435 186 422 C 157 413 165 372 191 386 Z" fill="lightgray"/>
    <path d="M 627 671 Q 697 686 905 709 Q 917 708 928 722 Q 929 735 904 748 Q 864 772 797 752 Q 602 710 520 701 Q 463 697 402 688 Q 369 685 394 665 Q 431 635 456 640 Q 468 646 592 665 L 627 671 Z" fill="lightgray"/>
    <path d="M 654 487 Q 655 518 655 550 Q 655 625 657 636 Q 661 648 651 656 Q 642 663 627 671 C 601 686 584 694 592 665 Q 620 605 591 139 Q 582 34 611 -1 Q 623 -17 634 2 Q 664 56 656 106 Q 655 124 654 454 L 654 487 Z" fill="lightgray"/>
    <path d="M 654 454 Q 727 409 816 342 Q 835 326 850 323 Q 859 324 865 335 Q 874 350 854 390 Q 835 439 654 487 C 625 495 629 470 654 454 Z" fill="lightgray"/></g>
<g transform="scale(1, -1) translate(0, -900)">
    <style type="text/css">
        .origin {display:none;}
        .hide {display:none;}
        .stroke {fill: #000000;}
        
.step1 {transform: translateX(1024px);}
.step2 {transform: translateX(2048px);}
.step3 {transform: translateX(3072px);}
.step4 {transform: translateX(4096px);}
.step5 {transform: translateX(5120px);}
.step6 {transform: translateX(6144px);}
.step7 {transform: translateX(7168px);}
.step8 {transform: translateX(8192px);}
.step9 {transform: translateX(9216px);}
.step10 {transform: translateX(10240px);}
.step11 {transform: translateX(11264px);}
.step12 {transform: translateX(12288px);}
.step13 {transform: translateX(13312px);}
.step14 {transform: translateX(14336px);}
.step15 {transform: translateX(15360px);}
.step16 {transform: translateX(16384px);}
.step17 {transform: translateX(17408px);}
.step18 {transform: translateX(18432px);}
.step19 {transform: translateX(19456px);}
.step20 {transform: translateX(20480px);}
.step21 {transform: translateX(21504px);}
.step22 {transform: translateX(22528px);}
.step23 {transform: translateX(23552px);}
.step24 {transform: translateX(24576px);}
.step25 {transform: translateX(25600px);}
.step26 {transform: translateX(26624px);}
.step27 {transform: translateX(27648px);}
.step28 {transform: translateX(28672px);}
.step29 {transform: translateX(29696px);}
    </style>

    <path d="M 145 599 Q 133 605 107 609 Q 94 613 91 607 Q 84 601 93 584 Q 124 514 141 401 Q 144 367 163 344 Q 182 322 187 337 Q 194 356 191 386 L 186 422 Q 165 549 165 574 C 164 591 164 591 145 599 Z" fill="lightgray" class="stroke step0"/>
    <path d="M 331 453 Q 344 556 371 590 Q 393 617 369 629 Q 348 639 321 655 Q 302 665 284 653 Q 242 623 145 599 C 116 592 136 565 165 574 Q 216 590 258 602 Q 286 609 293 599 Q 303 592 297 548 Q 290 505 283 454 C 279 424 327 423 331 453 Z" fill="lightgray" class="hide"/>
    <path d="M 191 386 Q 200 395 347 421 Q 357 422 358 432 Q 358 439 331 453 L 283 454 Q 279 454 278 453 Q 229 435 186 422 C 157 413 165 372 191 386 Z" fill="lightgray" class="hide"/>
    <path d="M 627 671 Q 697 686 905 709 Q 917 708 928 722 Q 929 735 904 748 Q 864 772 797 752 Q 602 710 520 701 Q 463 697 402 688 Q 369 685 394 665 Q 431 635 456 640 Q 468 646 592 665 L 627 671 Z" fill="lightgray" class="hide"/>
    <path d="M 654 487 Q 655 518 655 550 Q 655 625 657 636 Q 661 648 651 656 Q 642 663 627 671 C 601 686 584 694 592 665 Q 620 605 591 139 Q 582 34 611 -1 Q 623 -17 634 2 Q 664 56 656 106 Q 655 124 654 454 L 654 487 Z" fill="lightgray" class="hide"/>
    <path d="M 654 454 Q 727 409 816 342 Q 835 326 850 323 Q 859 324 865 335 Q 874 350 854 390 Q 835 439 654 487 C 625 495 629 470 654 454 Z" fill="lightgray" class="hide"/></g><g transform="scale(1, -1) translate(0, -900)">
    <style type="text/css">
        .origin {display:none;}
        .hide {display:none;}
        .stroke {fill: #000000;}
        
.step1 {transform: translateX(1024px);}
.step2 {transform: translateX(2048px);}
.step3 {transform: translateX(3072px);}
.step4 {transform: translateX(4096px);}
.step5 {transform: translateX(5120px);}
.step6 {transform: translateX(6144px);}
.step7 {transform: translateX(7168px);}
.step8 {transform: translateX(8192px);}
.step9 {transform: translateX(9216px);}
.step10 {transform: translateX(10240px);}
.step11 {transform: translateX(11264px);}
.step12 {transform: translateX(12288px);}
.step13 {transform: translateX(13312px);}
.step14 {transform: translateX(14336px);}
.step15 {transform: translateX(15360px);}
.step16 {transform: translateX(16384px);}
.step17 {transform: translateX(17408px);}
.step18 {transform: translateX(18432px);}
.step19 {transform: translateX(19456px);}
.step20 {transform: translateX(20480px);}
.step21 {transform: translateX(21504px);}
.step22 {transform: translateX(22528px);}
.step23 {transform: translateX(23552px);}
.step24 {transform: translateX(24576px);}
.step25 {transform: translateX(25600px);}
.step26 {transform: translateX(26624px);}
.step27 {transform: translateX(27648px);}
.step28 {transform: translateX(28672px);}
.step29 {transform: translateX(29696px);}
    </style>

    <path d="M 145 599 Q 133 605 107 609 Q 94 613 91 607 Q 84 601 93 584 Q 124 514 141 401 Q 144 367 163 344 Q 182 322 187 337 Q 194 356 191 386 L 186 422 Q 165 549 165 574 C 164 591 164 591 145 599 Z" fill="lightgray" class="stroke step1"/>
    <path d="M 331 453 Q 344 556 371 590 Q 393 617 369 629 Q 348 639 321 655 Q 302 665 284 653 Q 242 623 145 599 C 116 592 136 565 165 574 Q 216 590 258 602 Q 286 609 293 599 Q 303 592 297 548 Q 290 505 283 454 C 279 424 327 423 331 453 Z" fill="lightgray" class="stroke step1"/>
    <path d="M 191 386 Q 200 395 347 421 Q 357 422 358 432 Q 358 439 331 453 L 283 454 Q 279 454 278 453 Q 229 435 186 422 C 157 413 165 372 191 386 Z" fill="lightgray" class="hide"/>
    <path d="M 627 671 Q 697 686 905 709 Q 917 708 928 722 Q 929 735 904 748 Q 864 772 797 752 Q 602 710 520 701 Q 463 697 402 688 Q 369 685 394 665 Q 431 635 456 640 Q 468 646 592 665 L 627 671 Z" fill="lightgray" class="hide"/>
    <path d="M 654 487 Q 655 518 655 550 Q 655 625 657 636 Q 661 648 651 656 Q 642 663 627 671 C 601 686 584 694 592 665 Q 620 605 591 139 Q 582 34 611 -1 Q 623 -17 634 2 Q 664 56 656 106 Q 655 124 654 454 L 654 487 Z" fill="lightgray" class="hide"/>
    <path d="M 654 454 Q 727 409 816 342 Q 835 326 850 323 Q 859 324 865 335 Q 874 350 854 390 Q 835 439 654 487 C 625 495 629 470 654 454 Z" fill="lightgray" class="hide"/></g><g transform="scale(1, -1) translate(0, -900)">
    <style type="text/css">
        .origin {display:none;}
        .hide {display:none;}
        .stroke {fill: #000000;}
        
.step1 {transform: translateX(1024px);}
.step2 {transform: translateX(2048px);}
.step3 {transform: translateX(3072px);}
.step4 {transform: translateX(4096px);}
.step5 {transform: translateX(5120px);}
.step6 {transform: translateX(6144px);}
.step7 {transform: translateX(7168px);}
.step8 {transform: translateX(8192px);}
.step9 {transform: translateX(9216px);}
.step10 {transform: translateX(10240px);}
.step11 {transform: translateX(11264px);}
.step12 {transform: translateX(12288px);}
.step13 {transform: translateX(13312px);}
.step14 {transform: translateX(14336px);}
.step15 {transform: translateX(15360px);}
.step16 {transform: translateX(16384px);}
.step17 {transform: translateX(17408px);}
.step18 {transform: translateX(18432px);}
.step19 {transform: translateX(19456px);}
.step20 {transform: translateX(20480px);}
.step21 {transform: translateX(21504px);}
.step22 {transform: translateX(22528px);}
.step23 {transform: translateX(23552px);}
.step24 {transform: translateX(24576px);}
.step25 {transform: translateX(25600px);}
.step26 {transform: translateX(26624px);}
.step27 {transform: translateX(27648px);}
.step28 {transform: translateX(28672px);}
.step29 {transform: translateX(29696px);}
    </style>

    <path d="M 145 599 Q 133 605 107 609 Q 94 613 91 607 Q 84 601 93 584 Q 124 514 141 401 Q 144 367 163 344 Q 182 322 187 337 Q 194 356 191 386 L 186 422 Q 165 549 165 574 C 164 591 164 591 145 599 Z" fill="lightgray" class="stroke step2"/>
    <path d="M 331 453 Q 344 556 371 590 Q 393 617 369 629 Q 348 639 321 655 Q 302 665 284 653 Q 242 623 145 599 C 116 592 136 565 165 574 Q 216 590 258 602 Q 286 609 293 599 Q 303 592 297 548 Q 290 505 283 454 C 279 424 327 423 331 453 Z" fill="lightgray" class="stroke step2"/>
    <path d="M 191 386 Q 200 395 347 421 Q 357 422 358 432 Q 358 439 331 453 L 283 454 Q 279 454 278 453 Q 229 435 186 422 C 157 413 165 372 191 386 Z" fill="lightgray" class="stroke step2"/>
    <path d="M 627 671 Q 697 686 905 709 Q 917 708 928 722 Q 929 735 904 748 Q 864 772 797 752 Q 602 710 520 701 Q 463 697 402 688 Q 369 685 394 665 Q 431 635 456 640 Q 468 646 592 665 L 627 671 Z" fill="lightgray" class="hide"/>
    <path d="M 654 487 Q 655 518 655 550 Q 655 625 657 636 Q 661 648 651 656 Q 642 663 627 671 C 601 686 584 694 592 665 Q 620 605 591 139 Q 582 34 611 -1 Q 623 -17 634 2 Q 664 56 656 106 Q 655 124 654 454 L 654 487 Z" fill="lightgray" class="hide"/>
    <path d="M 654 454 Q 727 409 816 342 Q 835 326 850 323 Q 859 324 865 335 Q 874 350 854 390 Q 835 439 654 487 C 625 495 629 470 654 454 Z" fill="lightgray" class="hide"/></g><g transform="scale(1, -1) translate(0, -900)">
    <style type="text/css">
        .origin {display:none;}
        .hide {display:none;}
        .stroke {fill: #000000;}
        
.step1 {transform: translateX(1024px);}
.step2 {transform: translateX(2048px);}
.step3 {transform: translateX(3072px);}
.step4 {transform: translateX(4096px);}
.step5 {transform: translateX(5120px);}
.step6 {transform: translateX(6144px);}
.step7 {transform: translateX(7168px);}
.step8 {transform: translateX(8192px);}
.step9 {transform: translateX(9216px);}
.step10 {transform: translateX(10240px);}
.step11 {transform: translateX(11264px);}
.step12 {transform: translateX(12288px);}
.step13 {transform: translateX(13312px);}
.step14 {transform: translateX(14336px);}
.step15 {transform: translateX(15360px);}
.step16 {transform: translateX(16384px);}
.step17 {transform: translateX(17408px);}
.step18 {transform: translateX(18432px);}
.step19 {transform: translateX(19456px);}
.step20 {transform: translateX(20480px);}
.step21 {transform: translateX(21504px);}
.step22 {transform: translateX(22528px);}
.step23 {transform: translateX(23552px);}
.step24 {transform: translateX(24576px);}
.step25 {transform: translateX(25600px);}
.step26 {transform: translateX(26624px);}
.step27 {transform: translateX(27648px);}
.step28 {transform: translateX(28672px);}
.step29 {transform: translateX(29696px);}
    </style>

    <path d="M 145 599 Q 133 605 107 609 Q 94 613 91 607 Q 84 601 93 584 Q 124 514 141 401 Q 144 367 163 344 Q 182 322 187 337 Q 194 356 191 386 L 186 422 Q 165 549 165 574 C 164 591 164 591 145 599 Z" fill="lightgray" class="stroke step3"/>
    <path d="M 331 453 Q 344 556 371 590 Q 393 617 369 629 Q 348 639 321 655 Q 302 665 284 653 Q 242 623 145 599 C 116 592 136 565 165 574 Q 216 590 258 602 Q 286 609 293 599 Q 303 592 297 548 Q 290 505 283 454 C 279 424 327 423 331 453 Z" fill="lightgray" class="stroke step3"/>
    <path d="M 191 386 Q 200 395 347 421 Q 357 422 358 432 Q 358 439 331 453 L 283 454 Q 279 454 278 453 Q 229 435 186 422 C 157 413 165 372 191 386 Z" fill="lightgray" class="stroke step3"/>
    <path d="M 627 671 Q 697 686 905 709 Q 917 708 928 722 Q 929 735 904 748 Q 864 772 797 752 Q 602 710 520 701 Q 463 697 402 688 Q 369 685 394 665 Q 431 635 456 640 Q 468 646 592 665 L 627 671 Z" fill="lightgray" class="stroke step3"/>
    <path d="M 654 487 Q 655 518 655 550 Q 655 625 657 636 Q 661 648 651 656 Q 642 663 627 671 C 601 686 584 694 592 665 Q 620 605 591 139 Q 582 34 611 -1 Q 623 -17 634 2 Q 664 56 656 106 Q 655 124 654 454 L 654 487 Z" fill="lightgray" class="hide"/>
    <path d="M 654 454 Q 727 409 816 342 Q 835 326 850 323 Q 859 324 865 335 Q 874 350 854 390 Q 835 439 654 487 C 625 495 629 470 654 454 Z" fill="lightgray" class="hide"/></g><g transform="scale(1, -1) translate(0, -900)">
    <style type="text/css">
        .origin {display:none;}
        .hide {display:none;}
        .stroke {fill: #000000;}
        
.step1 {transform: translateX(1024px);}
.step2 {transform: translateX(2048px);}
.step3 {transform: translateX(3072px);}
.step4 {transform: translateX(4096px);}
.step5 {transform: translateX(5120px);}
.step6 {transform: translateX(6144px);}
.step7 {transform: translateX(7168px);}
.step8 {transform: translateX(8192px);}
.step9 {transform: translateX(9216px);}
.step10 {transform: translateX(10240px);}
.step11 {transform: translateX(11264px);}
.step12 {transform: translateX(12288px);}
.step13 {transform: translateX(13312px);}
.step14 {transform: translateX(14336px);}
.step15 {transform: translateX(15360px);}
.step16 {transform: translateX(16384px);}
.step17 {transform: translateX(17408px);}
.step18 {transform: translateX(18432px);}
.step19 {transform: translateX(19456px);}
.step20 {transform: translateX(20480px);}
.step21 {transform: translateX(21504px);}
.step22 {transform: translateX(22528px);}
.step23 {transform: translateX(23552px);}
.step24 {transform: translateX(24576px);}
.step25 {transform: translateX(25600px);}
.step26 {transform: translateX(26624px);}
.step27 {transform: translateX(27648px);}
.step28 {transform: translateX(28672px);}
.step29 {transform: translateX(29696px);}
    </style>

    <path d="M 145 599 Q 133 605 107 609 Q 94 613 91 607 Q 84 601 93 584 Q 124 514 141 401 Q 144 367 163 344 Q 182 322 187 337 Q 194 356 191 386 L 186 422 Q 165 549 165 574 C 164 591 164 591 145 599 Z" fill="lightgray" class="stroke step4"/>
    <path d="M 331 453 Q 344 556 371 590 Q 393 617 369 629 Q 348 639 321 655 Q 302 665 284 653 Q 242 623 145 599 C 116 592 136 565 165 574 Q 216 590 258 602 Q 286 609 293 599 Q 303 592 297 548 Q 290 505 283 454 C 279 424 327 423 331 453 Z" fill="lightgray" class="stroke step4"/>
    <path d="M 191 386 Q 200 395 347 421 Q 357 422 358 432 Q 358 439 331 453 L 283 454 Q 279 454 278 453 Q 229 435 186 422 C 157 413 165 372 191 386 Z" fill="lightgray" class="stroke step4"/>
    <path d="M 627 671 Q 697 686 905 709 Q 917 708 928 722 Q 929 735 904 748 Q 864 772 797 752 Q 602 710 520 701 Q 463 697 402 688 Q 369 685 394 665 Q 431 635 456 640 Q 468 646 592 665 L 627 671 Z" fill="lightgray" class="stroke step4"/>
    <path d="M 654 487 Q 655 518 655 550 Q 655 625 657 636 Q 661 648 651 656 Q 642 663 627 671 C 601 686 584 694 592 665 Q 620 605 591 139 Q 582 34 611 -1 Q 623 -17 634 2 Q 664 56 656 106 Q 655 124 654 454 L 654 487 Z" fill="lightgray" class="stroke step4"/>
    <path d="M 654 454 Q 727 409 816 342 Q 835 326 850 323 Q 859 324 865 335 Q 874 350 854 390 Q 835 439 654 487 C 625 495 629 470 654 454 Z" fill="lightgray" class="hide"/></g><g transform="scale(1, -1) translate(0, -900)">
    <style type="text/css">
        .origin {display:none;}
        .hide {display:none;}
        .stroke {fill: #000000;}
        
.step1 {transform: translateX(1024px);}
.step2 {transform: translateX(2048px);}
.step3 {transform: translateX(3072px);}
.step4 {transform: translateX(4096px);}
.step5 {transform: translateX(5120px);}
.step6 {transform: translateX(6144px);}
.step7 {transform: translateX(7168px);}
.step8 {transform: translateX(8192px);}
.step9 {transform: translateX(9216px);}
.step10 {transform: translateX(10240px);}
.step11 {transform: translateX(11264px);}
.step12 {transform: translateX(12288px);}
.step13 {transform: translateX(13312px);}
.step14 {transform: translateX(14336px);}
.step15 {transform: translateX(15360px);}
.step16 {transform: translateX(16384px);}
.step17 {transform: translateX(17408px);}
.step18 {transform: translateX(18432px);}
.step19 {transform: translateX(19456px);}
.step20 {transform: translateX(20480px);}
.step21 {transform: translateX(21504px);}
.step22 {transform: translateX(22528px);}
.step23 {transform: translateX(23552px);}
.step24 {transform: translateX(24576px);}
.step25 {transform: translateX(25600px);}
.step26 {transform: translateX(26624px);}
.step27 {transform: translateX(27648px);}
.step28 {transform: translateX(28672px);}
.step29 {transform: translateX(29696px);}
    </style>

    <path d="M 145 599 Q 133 605 107 609 Q 94 613 91 607 Q 84 601 93 584 Q 124 514 141 401 Q 144 367 163 344 Q 182 322 187 337 Q 194 356 191 386 L 186 422 Q 165 549 165 574 C 164 591 164 591 145 599 Z" fill="lightgray" class="stroke step5"/>
    <path d="M 331 453 Q 344 556 371 590 Q 393 617 369 629 Q 348 639 321 655 Q 302 665 284 653 Q 242 623 145 599 C 116 592 136 565 165 574 Q 216 590 258 602 Q 286 609 293 599 Q 303 592 297 548 Q 290 505 283 454 C 279 424 327 423 331 453 Z" fill="lightgray" class="stroke step5"/>
    <path d="M 191 386 Q 200 395 347 421 Q 357 422 358 432 Q 358 439 331 453 L 283 454 Q 279 454 278 453 Q 229 435 186 422 C 157 413 165 372 191 386 Z" fill="lightgray" class="stroke step5"/>
    <path d="M 627 671 Q 697 686 905 709 Q 917 708 928 722 Q 929 735 904 748 Q 864 772 797 752 Q 602 710 520 701 Q 463 697 402 688 Q 369 685 394 665 Q 431 635 456 640 Q 468 646 592 665 L 627 671 Z" fill="lightgray" class="stroke step5"/>
    <path d="M 654 487 Q 655 518 655 550 Q 655 625 657 636 Q 661 648 651 656 Q 642 663 627 671 C 601 686 584 694 592 665 Q 620 605 591 139 Q 582 34 611 -1 Q 623 -17 634 2 Q 664 56 656 106 Q 655 124 654 454 L 654 487 Z" fill="lightgray" class="stroke step5"/>
    <path d="M 654 454 Q 727 409 816 342 Q 835 326 850 323 Q 859 324 865 335 Q 874 350 854 390 Q 835 439 654 487 C 625 495 629 470 654 454 Z" fill="lightgray" class="stroke step5"/></g></svg>