<svg version="1.1" viewBox="0 0 7168 1024" xmlns="http://www.w3.org/2000/svg">
  
  <g transform="scale(1, -1) translate(0, -900)" class="origin">
    <style type="text/css">
        .origin {display:none;}
        .hide {display:none;}
        .stroke {fill: #000000;}
        
.step1 {transform: translateX(1024px);}
.step2 {transform: translateX(2048px);}
.step3 {transform: translateX(3072px);}
.step4 {transform: translateX(4096px);}
.step5 {transform: translateX(5120px);}
.step6 {transform: translateX(6144px);}
.step7 {transform: translateX(7168px);}
.step8 {transform: translateX(8192px);}
.step9 {transform: translateX(9216px);}
.step10 {transform: translateX(10240px);}
.step11 {transform: translateX(11264px);}
.step12 {transform: translateX(12288px);}
.step13 {transform: translateX(13312px);}
.step14 {transform: translateX(14336px);}
.step15 {transform: translateX(15360px);}
.step16 {transform: translateX(16384px);}
.step17 {transform: translateX(17408px);}
.step18 {transform: translateX(18432px);}
.step19 {transform: translateX(19456px);}
.step20 {transform: translateX(20480px);}
.step21 {transform: translateX(21504px);}
.step22 {transform: translateX(22528px);}
.step23 {transform: translateX(23552px);}
.step24 {transform: translateX(24576px);}
.step25 {transform: translateX(25600px);}
.step26 {transform: translateX(26624px);}
.step27 {transform: translateX(27648px);}
.step28 {transform: translateX(28672px);}
.step29 {transform: translateX(29696px);}
    </style>

    <path d="M 118 557 Q 106 564 77 569 Q 64 573 61 568 Q 54 562 62 546 Q 93 471 107 352 Q 108 316 128 292 Q 144 270 151 285 Q 160 307 154 351 L 150 381 Q 132 495 130 528 C 128 552 128 552 118 557 Z" fill="lightgray"/>
    <path d="M 292 411 Q 305 511 330 545 Q 352 573 326 586 Q 305 596 276 612 Q 257 621 213 593 Q 174 575 118 557 C 89 548 102 517 130 528 Q 151 537 219 555 Q 243 562 248 552 Q 258 545 252 504 Q 248 462 240 412 C 235 382 288 381 292 411 Z" fill="lightgray"/>
    <path d="M 154 351 Q 161 350 173 353 Q 213 366 304 383 Q 314 384 314 393 Q 314 400 292 411 C 269 423 268 422 240 412 Q 189 393 150 381 C 121 372 124 352 154 351 Z" fill="lightgray"/>
    <path d="M 594 546 Q 655 562 720 577 Q 769 590 776 597 Q 785 607 780 615 Q 771 628 740 635 Q 707 639 675 626 Q 638 613 598 599 L 545 583 Q 485 570 417 560 Q 378 553 407 535 Q 449 513 522 530 Q 529 533 543 534 L 594 546 Z" fill="lightgray"/>
    <path d="M 582 293 Q 619 309 683 313 Q 698 313 709 311 C 739 308 743 357 713 354 Q 643 347 583 334 L 531 323 Q 474 313 426 297 Q 410 296 415 314 Q 424 351 433 390 Q 440 415 430 431 Q 417 450 392 468 Q 382 475 370 474 Q 358 470 364 449 Q 380 397 368 348 Q 358 302 336 282 Q 317 264 324 249 Q 334 233 352 220 Q 367 211 379 222 Q 404 249 529 280 L 582 293 Z" fill="lightgray"/>
    <path d="M 709 311 Q 713 289 720 273 Q 727 257 740 267 Q 765 291 774 372 Q 790 441 799 450 Q 808 463 798 478 Q 780 494 750 514 Q 738 521 726 516 Q 719 513 720 500 Q 747 452 716 360 Q 713 357 713 354 L 709 311 Z" fill="lightgray"/>
    <path d="M 978 45 Q 957 103 949 204 Q 948 220 941 228 Q 934 235 928 219 Q 913 161 897 115 Q 890 84 862 67 Q 829 36 698 44 Q 646 50 628 61 Q 612 71 602 93 Q 583 136 582 293 L 583 334 Q 587 458 594 546 L 598 599 Q 604 693 617 739 Q 627 761 596 784 Q 571 802 549 814 Q 530 827 512 816 Q 500 809 521 780 Q 546 744 546 697 Q 547 658 545 583 L 543 534 Q 539 458 534 349 Q 533 336 531 323 L 529 280 Q 517 103 577 32 Q 625 -25 810 -18 Q 892 -17 955 10 Q 989 19 978 45 Z" fill="lightgray"/></g>
<g transform="scale(1, -1) translate(0, -900)">
    <style type="text/css">
        .origin {display:none;}
        .hide {display:none;}
        .stroke {fill: #000000;}
        
.step1 {transform: translateX(1024px);}
.step2 {transform: translateX(2048px);}
.step3 {transform: translateX(3072px);}
.step4 {transform: translateX(4096px);}
.step5 {transform: translateX(5120px);}
.step6 {transform: translateX(6144px);}
.step7 {transform: translateX(7168px);}
.step8 {transform: translateX(8192px);}
.step9 {transform: translateX(9216px);}
.step10 {transform: translateX(10240px);}
.step11 {transform: translateX(11264px);}
.step12 {transform: translateX(12288px);}
.step13 {transform: translateX(13312px);}
.step14 {transform: translateX(14336px);}
.step15 {transform: translateX(15360px);}
.step16 {transform: translateX(16384px);}
.step17 {transform: translateX(17408px);}
.step18 {transform: translateX(18432px);}
.step19 {transform: translateX(19456px);}
.step20 {transform: translateX(20480px);}
.step21 {transform: translateX(21504px);}
.step22 {transform: translateX(22528px);}
.step23 {transform: translateX(23552px);}
.step24 {transform: translateX(24576px);}
.step25 {transform: translateX(25600px);}
.step26 {transform: translateX(26624px);}
.step27 {transform: translateX(27648px);}
.step28 {transform: translateX(28672px);}
.step29 {transform: translateX(29696px);}
    </style>

    <path d="M 118 557 Q 106 564 77 569 Q 64 573 61 568 Q 54 562 62 546 Q 93 471 107 352 Q 108 316 128 292 Q 144 270 151 285 Q 160 307 154 351 L 150 381 Q 132 495 130 528 C 128 552 128 552 118 557 Z" fill="lightgray" class="stroke step0"/>
    <path d="M 292 411 Q 305 511 330 545 Q 352 573 326 586 Q 305 596 276 612 Q 257 621 213 593 Q 174 575 118 557 C 89 548 102 517 130 528 Q 151 537 219 555 Q 243 562 248 552 Q 258 545 252 504 Q 248 462 240 412 C 235 382 288 381 292 411 Z" fill="lightgray" class="hide"/>
    <path d="M 154 351 Q 161 350 173 353 Q 213 366 304 383 Q 314 384 314 393 Q 314 400 292 411 C 269 423 268 422 240 412 Q 189 393 150 381 C 121 372 124 352 154 351 Z" fill="lightgray" class="hide"/>
    <path d="M 594 546 Q 655 562 720 577 Q 769 590 776 597 Q 785 607 780 615 Q 771 628 740 635 Q 707 639 675 626 Q 638 613 598 599 L 545 583 Q 485 570 417 560 Q 378 553 407 535 Q 449 513 522 530 Q 529 533 543 534 L 594 546 Z" fill="lightgray" class="hide"/>
    <path d="M 582 293 Q 619 309 683 313 Q 698 313 709 311 C 739 308 743 357 713 354 Q 643 347 583 334 L 531 323 Q 474 313 426 297 Q 410 296 415 314 Q 424 351 433 390 Q 440 415 430 431 Q 417 450 392 468 Q 382 475 370 474 Q 358 470 364 449 Q 380 397 368 348 Q 358 302 336 282 Q 317 264 324 249 Q 334 233 352 220 Q 367 211 379 222 Q 404 249 529 280 L 582 293 Z" fill="lightgray" class="hide"/>
    <path d="M 709 311 Q 713 289 720 273 Q 727 257 740 267 Q 765 291 774 372 Q 790 441 799 450 Q 808 463 798 478 Q 780 494 750 514 Q 738 521 726 516 Q 719 513 720 500 Q 747 452 716 360 Q 713 357 713 354 L 709 311 Z" fill="lightgray" class="hide"/>
    <path d="M 978 45 Q 957 103 949 204 Q 948 220 941 228 Q 934 235 928 219 Q 913 161 897 115 Q 890 84 862 67 Q 829 36 698 44 Q 646 50 628 61 Q 612 71 602 93 Q 583 136 582 293 L 583 334 Q 587 458 594 546 L 598 599 Q 604 693 617 739 Q 627 761 596 784 Q 571 802 549 814 Q 530 827 512 816 Q 500 809 521 780 Q 546 744 546 697 Q 547 658 545 583 L 543 534 Q 539 458 534 349 Q 533 336 531 323 L 529 280 Q 517 103 577 32 Q 625 -25 810 -18 Q 892 -17 955 10 Q 989 19 978 45 Z" fill="lightgray" class="hide"/></g><g transform="scale(1, -1) translate(0, -900)">
    <style type="text/css">
        .origin {display:none;}
        .hide {display:none;}
        .stroke {fill: #000000;}
        
.step1 {transform: translateX(1024px);}
.step2 {transform: translateX(2048px);}
.step3 {transform: translateX(3072px);}
.step4 {transform: translateX(4096px);}
.step5 {transform: translateX(5120px);}
.step6 {transform: translateX(6144px);}
.step7 {transform: translateX(7168px);}
.step8 {transform: translateX(8192px);}
.step9 {transform: translateX(9216px);}
.step10 {transform: translateX(10240px);}
.step11 {transform: translateX(11264px);}
.step12 {transform: translateX(12288px);}
.step13 {transform: translateX(13312px);}
.step14 {transform: translateX(14336px);}
.step15 {transform: translateX(15360px);}
.step16 {transform: translateX(16384px);}
.step17 {transform: translateX(17408px);}
.step18 {transform: translateX(18432px);}
.step19 {transform: translateX(19456px);}
.step20 {transform: translateX(20480px);}
.step21 {transform: translateX(21504px);}
.step22 {transform: translateX(22528px);}
.step23 {transform: translateX(23552px);}
.step24 {transform: translateX(24576px);}
.step25 {transform: translateX(25600px);}
.step26 {transform: translateX(26624px);}
.step27 {transform: translateX(27648px);}
.step28 {transform: translateX(28672px);}
.step29 {transform: translateX(29696px);}
    </style>

    <path d="M 118 557 Q 106 564 77 569 Q 64 573 61 568 Q 54 562 62 546 Q 93 471 107 352 Q 108 316 128 292 Q 144 270 151 285 Q 160 307 154 351 L 150 381 Q 132 495 130 528 C 128 552 128 552 118 557 Z" fill="lightgray" class="stroke step1"/>
    <path d="M 292 411 Q 305 511 330 545 Q 352 573 326 586 Q 305 596 276 612 Q 257 621 213 593 Q 174 575 118 557 C 89 548 102 517 130 528 Q 151 537 219 555 Q 243 562 248 552 Q 258 545 252 504 Q 248 462 240 412 C 235 382 288 381 292 411 Z" fill="lightgray" class="stroke step1"/>
    <path d="M 154 351 Q 161 350 173 353 Q 213 366 304 383 Q 314 384 314 393 Q 314 400 292 411 C 269 423 268 422 240 412 Q 189 393 150 381 C 121 372 124 352 154 351 Z" fill="lightgray" class="hide"/>
    <path d="M 594 546 Q 655 562 720 577 Q 769 590 776 597 Q 785 607 780 615 Q 771 628 740 635 Q 707 639 675 626 Q 638 613 598 599 L 545 583 Q 485 570 417 560 Q 378 553 407 535 Q 449 513 522 530 Q 529 533 543 534 L 594 546 Z" fill="lightgray" class="hide"/>
    <path d="M 582 293 Q 619 309 683 313 Q 698 313 709 311 C 739 308 743 357 713 354 Q 643 347 583 334 L 531 323 Q 474 313 426 297 Q 410 296 415 314 Q 424 351 433 390 Q 440 415 430 431 Q 417 450 392 468 Q 382 475 370 474 Q 358 470 364 449 Q 380 397 368 348 Q 358 302 336 282 Q 317 264 324 249 Q 334 233 352 220 Q 367 211 379 222 Q 404 249 529 280 L 582 293 Z" fill="lightgray" class="hide"/>
    <path d="M 709 311 Q 713 289 720 273 Q 727 257 740 267 Q 765 291 774 372 Q 790 441 799 450 Q 808 463 798 478 Q 780 494 750 514 Q 738 521 726 516 Q 719 513 720 500 Q 747 452 716 360 Q 713 357 713 354 L 709 311 Z" fill="lightgray" class="hide"/>
    <path d="M 978 45 Q 957 103 949 204 Q 948 220 941 228 Q 934 235 928 219 Q 913 161 897 115 Q 890 84 862 67 Q 829 36 698 44 Q 646 50 628 61 Q 612 71 602 93 Q 583 136 582 293 L 583 334 Q 587 458 594 546 L 598 599 Q 604 693 617 739 Q 627 761 596 784 Q 571 802 549 814 Q 530 827 512 816 Q 500 809 521 780 Q 546 744 546 697 Q 547 658 545 583 L 543 534 Q 539 458 534 349 Q 533 336 531 323 L 529 280 Q 517 103 577 32 Q 625 -25 810 -18 Q 892 -17 955 10 Q 989 19 978 45 Z" fill="lightgray" class="hide"/></g><g transform="scale(1, -1) translate(0, -900)">
    <style type="text/css">
        .origin {display:none;}
        .hide {display:none;}
        .stroke {fill: #000000;}
        
.step1 {transform: translateX(1024px);}
.step2 {transform: translateX(2048px);}
.step3 {transform: translateX(3072px);}
.step4 {transform: translateX(4096px);}
.step5 {transform: translateX(5120px);}
.step6 {transform: translateX(6144px);}
.step7 {transform: translateX(7168px);}
.step8 {transform: translateX(8192px);}
.step9 {transform: translateX(9216px);}
.step10 {transform: translateX(10240px);}
.step11 {transform: translateX(11264px);}
.step12 {transform: translateX(12288px);}
.step13 {transform: translateX(13312px);}
.step14 {transform: translateX(14336px);}
.step15 {transform: translateX(15360px);}
.step16 {transform: translateX(16384px);}
.step17 {transform: translateX(17408px);}
.step18 {transform: translateX(18432px);}
.step19 {transform: translateX(19456px);}
.step20 {transform: translateX(20480px);}
.step21 {transform: translateX(21504px);}
.step22 {transform: translateX(22528px);}
.step23 {transform: translateX(23552px);}
.step24 {transform: translateX(24576px);}
.step25 {transform: translateX(25600px);}
.step26 {transform: translateX(26624px);}
.step27 {transform: translateX(27648px);}
.step28 {transform: translateX(28672px);}
.step29 {transform: translateX(29696px);}
    </style>

    <path d="M 118 557 Q 106 564 77 569 Q 64 573 61 568 Q 54 562 62 546 Q 93 471 107 352 Q 108 316 128 292 Q 144 270 151 285 Q 160 307 154 351 L 150 381 Q 132 495 130 528 C 128 552 128 552 118 557 Z" fill="lightgray" class="stroke step2"/>
    <path d="M 292 411 Q 305 511 330 545 Q 352 573 326 586 Q 305 596 276 612 Q 257 621 213 593 Q 174 575 118 557 C 89 548 102 517 130 528 Q 151 537 219 555 Q 243 562 248 552 Q 258 545 252 504 Q 248 462 240 412 C 235 382 288 381 292 411 Z" fill="lightgray" class="stroke step2"/>
    <path d="M 154 351 Q 161 350 173 353 Q 213 366 304 383 Q 314 384 314 393 Q 314 400 292 411 C 269 423 268 422 240 412 Q 189 393 150 381 C 121 372 124 352 154 351 Z" fill="lightgray" class="stroke step2"/>
    <path d="M 594 546 Q 655 562 720 577 Q 769 590 776 597 Q 785 607 780 615 Q 771 628 740 635 Q 707 639 675 626 Q 638 613 598 599 L 545 583 Q 485 570 417 560 Q 378 553 407 535 Q 449 513 522 530 Q 529 533 543 534 L 594 546 Z" fill="lightgray" class="hide"/>
    <path d="M 582 293 Q 619 309 683 313 Q 698 313 709 311 C 739 308 743 357 713 354 Q 643 347 583 334 L 531 323 Q 474 313 426 297 Q 410 296 415 314 Q 424 351 433 390 Q 440 415 430 431 Q 417 450 392 468 Q 382 475 370 474 Q 358 470 364 449 Q 380 397 368 348 Q 358 302 336 282 Q 317 264 324 249 Q 334 233 352 220 Q 367 211 379 222 Q 404 249 529 280 L 582 293 Z" fill="lightgray" class="hide"/>
    <path d="M 709 311 Q 713 289 720 273 Q 727 257 740 267 Q 765 291 774 372 Q 790 441 799 450 Q 808 463 798 478 Q 780 494 750 514 Q 738 521 726 516 Q 719 513 720 500 Q 747 452 716 360 Q 713 357 713 354 L 709 311 Z" fill="lightgray" class="hide"/>
    <path d="M 978 45 Q 957 103 949 204 Q 948 220 941 228 Q 934 235 928 219 Q 913 161 897 115 Q 890 84 862 67 Q 829 36 698 44 Q 646 50 628 61 Q 612 71 602 93 Q 583 136 582 293 L 583 334 Q 587 458 594 546 L 598 599 Q 604 693 617 739 Q 627 761 596 784 Q 571 802 549 814 Q 530 827 512 816 Q 500 809 521 780 Q 546 744 546 697 Q 547 658 545 583 L 543 534 Q 539 458 534 349 Q 533 336 531 323 L 529 280 Q 517 103 577 32 Q 625 -25 810 -18 Q 892 -17 955 10 Q 989 19 978 45 Z" fill="lightgray" class="hide"/></g><g transform="scale(1, -1) translate(0, -900)">
    <style type="text/css">
        .origin {display:none;}
        .hide {display:none;}
        .stroke {fill: #000000;}
        
.step1 {transform: translateX(1024px);}
.step2 {transform: translateX(2048px);}
.step3 {transform: translateX(3072px);}
.step4 {transform: translateX(4096px);}
.step5 {transform: translateX(5120px);}
.step6 {transform: translateX(6144px);}
.step7 {transform: translateX(7168px);}
.step8 {transform: translateX(8192px);}
.step9 {transform: translateX(9216px);}
.step10 {transform: translateX(10240px);}
.step11 {transform: translateX(11264px);}
.step12 {transform: translateX(12288px);}
.step13 {transform: translateX(13312px);}
.step14 {transform: translateX(14336px);}
.step15 {transform: translateX(15360px);}
.step16 {transform: translateX(16384px);}
.step17 {transform: translateX(17408px);}
.step18 {transform: translateX(18432px);}
.step19 {transform: translateX(19456px);}
.step20 {transform: translateX(20480px);}
.step21 {transform: translateX(21504px);}
.step22 {transform: translateX(22528px);}
.step23 {transform: translateX(23552px);}
.step24 {transform: translateX(24576px);}
.step25 {transform: translateX(25600px);}
.step26 {transform: translateX(26624px);}
.step27 {transform: translateX(27648px);}
.step28 {transform: translateX(28672px);}
.step29 {transform: translateX(29696px);}
    </style>

    <path d="M 118 557 Q 106 564 77 569 Q 64 573 61 568 Q 54 562 62 546 Q 93 471 107 352 Q 108 316 128 292 Q 144 270 151 285 Q 160 307 154 351 L 150 381 Q 132 495 130 528 C 128 552 128 552 118 557 Z" fill="lightgray" class="stroke step3"/>
    <path d="M 292 411 Q 305 511 330 545 Q 352 573 326 586 Q 305 596 276 612 Q 257 621 213 593 Q 174 575 118 557 C 89 548 102 517 130 528 Q 151 537 219 555 Q 243 562 248 552 Q 258 545 252 504 Q 248 462 240 412 C 235 382 288 381 292 411 Z" fill="lightgray" class="stroke step3"/>
    <path d="M 154 351 Q 161 350 173 353 Q 213 366 304 383 Q 314 384 314 393 Q 314 400 292 411 C 269 423 268 422 240 412 Q 189 393 150 381 C 121 372 124 352 154 351 Z" fill="lightgray" class="stroke step3"/>
    <path d="M 594 546 Q 655 562 720 577 Q 769 590 776 597 Q 785 607 780 615 Q 771 628 740 635 Q 707 639 675 626 Q 638 613 598 599 L 545 583 Q 485 570 417 560 Q 378 553 407 535 Q 449 513 522 530 Q 529 533 543 534 L 594 546 Z" fill="lightgray" class="stroke step3"/>
    <path d="M 582 293 Q 619 309 683 313 Q 698 313 709 311 C 739 308 743 357 713 354 Q 643 347 583 334 L 531 323 Q 474 313 426 297 Q 410 296 415 314 Q 424 351 433 390 Q 440 415 430 431 Q 417 450 392 468 Q 382 475 370 474 Q 358 470 364 449 Q 380 397 368 348 Q 358 302 336 282 Q 317 264 324 249 Q 334 233 352 220 Q 367 211 379 222 Q 404 249 529 280 L 582 293 Z" fill="lightgray" class="hide"/>
    <path d="M 709 311 Q 713 289 720 273 Q 727 257 740 267 Q 765 291 774 372 Q 790 441 799 450 Q 808 463 798 478 Q 780 494 750 514 Q 738 521 726 516 Q 719 513 720 500 Q 747 452 716 360 Q 713 357 713 354 L 709 311 Z" fill="lightgray" class="hide"/>
    <path d="M 978 45 Q 957 103 949 204 Q 948 220 941 228 Q 934 235 928 219 Q 913 161 897 115 Q 890 84 862 67 Q 829 36 698 44 Q 646 50 628 61 Q 612 71 602 93 Q 583 136 582 293 L 583 334 Q 587 458 594 546 L 598 599 Q 604 693 617 739 Q 627 761 596 784 Q 571 802 549 814 Q 530 827 512 816 Q 500 809 521 780 Q 546 744 546 697 Q 547 658 545 583 L 543 534 Q 539 458 534 349 Q 533 336 531 323 L 529 280 Q 517 103 577 32 Q 625 -25 810 -18 Q 892 -17 955 10 Q 989 19 978 45 Z" fill="lightgray" class="hide"/></g><g transform="scale(1, -1) translate(0, -900)">
    <style type="text/css">
        .origin {display:none;}
        .hide {display:none;}
        .stroke {fill: #000000;}
        
.step1 {transform: translateX(1024px);}
.step2 {transform: translateX(2048px);}
.step3 {transform: translateX(3072px);}
.step4 {transform: translateX(4096px);}
.step5 {transform: translateX(5120px);}
.step6 {transform: translateX(6144px);}
.step7 {transform: translateX(7168px);}
.step8 {transform: translateX(8192px);}
.step9 {transform: translateX(9216px);}
.step10 {transform: translateX(10240px);}
.step11 {transform: translateX(11264px);}
.step12 {transform: translateX(12288px);}
.step13 {transform: translateX(13312px);}
.step14 {transform: translateX(14336px);}
.step15 {transform: translateX(15360px);}
.step16 {transform: translateX(16384px);}
.step17 {transform: translateX(17408px);}
.step18 {transform: translateX(18432px);}
.step19 {transform: translateX(19456px);}
.step20 {transform: translateX(20480px);}
.step21 {transform: translateX(21504px);}
.step22 {transform: translateX(22528px);}
.step23 {transform: translateX(23552px);}
.step24 {transform: translateX(24576px);}
.step25 {transform: translateX(25600px);}
.step26 {transform: translateX(26624px);}
.step27 {transform: translateX(27648px);}
.step28 {transform: translateX(28672px);}
.step29 {transform: translateX(29696px);}
    </style>

    <path d="M 118 557 Q 106 564 77 569 Q 64 573 61 568 Q 54 562 62 546 Q 93 471 107 352 Q 108 316 128 292 Q 144 270 151 285 Q 160 307 154 351 L 150 381 Q 132 495 130 528 C 128 552 128 552 118 557 Z" fill="lightgray" class="stroke step4"/>
    <path d="M 292 411 Q 305 511 330 545 Q 352 573 326 586 Q 305 596 276 612 Q 257 621 213 593 Q 174 575 118 557 C 89 548 102 517 130 528 Q 151 537 219 555 Q 243 562 248 552 Q 258 545 252 504 Q 248 462 240 412 C 235 382 288 381 292 411 Z" fill="lightgray" class="stroke step4"/>
    <path d="M 154 351 Q 161 350 173 353 Q 213 366 304 383 Q 314 384 314 393 Q 314 400 292 411 C 269 423 268 422 240 412 Q 189 393 150 381 C 121 372 124 352 154 351 Z" fill="lightgray" class="stroke step4"/>
    <path d="M 594 546 Q 655 562 720 577 Q 769 590 776 597 Q 785 607 780 615 Q 771 628 740 635 Q 707 639 675 626 Q 638 613 598 599 L 545 583 Q 485 570 417 560 Q 378 553 407 535 Q 449 513 522 530 Q 529 533 543 534 L 594 546 Z" fill="lightgray" class="stroke step4"/>
    <path d="M 582 293 Q 619 309 683 313 Q 698 313 709 311 C 739 308 743 357 713 354 Q 643 347 583 334 L 531 323 Q 474 313 426 297 Q 410 296 415 314 Q 424 351 433 390 Q 440 415 430 431 Q 417 450 392 468 Q 382 475 370 474 Q 358 470 364 449 Q 380 397 368 348 Q 358 302 336 282 Q 317 264 324 249 Q 334 233 352 220 Q 367 211 379 222 Q 404 249 529 280 L 582 293 Z" fill="lightgray" class="stroke step4"/>
    <path d="M 709 311 Q 713 289 720 273 Q 727 257 740 267 Q 765 291 774 372 Q 790 441 799 450 Q 808 463 798 478 Q 780 494 750 514 Q 738 521 726 516 Q 719 513 720 500 Q 747 452 716 360 Q 713 357 713 354 L 709 311 Z" fill="lightgray" class="hide"/>
    <path d="M 978 45 Q 957 103 949 204 Q 948 220 941 228 Q 934 235 928 219 Q 913 161 897 115 Q 890 84 862 67 Q 829 36 698 44 Q 646 50 628 61 Q 612 71 602 93 Q 583 136 582 293 L 583 334 Q 587 458 594 546 L 598 599 Q 604 693 617 739 Q 627 761 596 784 Q 571 802 549 814 Q 530 827 512 816 Q 500 809 521 780 Q 546 744 546 697 Q 547 658 545 583 L 543 534 Q 539 458 534 349 Q 533 336 531 323 L 529 280 Q 517 103 577 32 Q 625 -25 810 -18 Q 892 -17 955 10 Q 989 19 978 45 Z" fill="lightgray" class="hide"/></g><g transform="scale(1, -1) translate(0, -900)">
    <style type="text/css">
        .origin {display:none;}
        .hide {display:none;}
        .stroke {fill: #000000;}
        
.step1 {transform: translateX(1024px);}
.step2 {transform: translateX(2048px);}
.step3 {transform: translateX(3072px);}
.step4 {transform: translateX(4096px);}
.step5 {transform: translateX(5120px);}
.step6 {transform: translateX(6144px);}
.step7 {transform: translateX(7168px);}
.step8 {transform: translateX(8192px);}
.step9 {transform: translateX(9216px);}
.step10 {transform: translateX(10240px);}
.step11 {transform: translateX(11264px);}
.step12 {transform: translateX(12288px);}
.step13 {transform: translateX(13312px);}
.step14 {transform: translateX(14336px);}
.step15 {transform: translateX(15360px);}
.step16 {transform: translateX(16384px);}
.step17 {transform: translateX(17408px);}
.step18 {transform: translateX(18432px);}
.step19 {transform: translateX(19456px);}
.step20 {transform: translateX(20480px);}
.step21 {transform: translateX(21504px);}
.step22 {transform: translateX(22528px);}
.step23 {transform: translateX(23552px);}
.step24 {transform: translateX(24576px);}
.step25 {transform: translateX(25600px);}
.step26 {transform: translateX(26624px);}
.step27 {transform: translateX(27648px);}
.step28 {transform: translateX(28672px);}
.step29 {transform: translateX(29696px);}
    </style>

    <path d="M 118 557 Q 106 564 77 569 Q 64 573 61 568 Q 54 562 62 546 Q 93 471 107 352 Q 108 316 128 292 Q 144 270 151 285 Q 160 307 154 351 L 150 381 Q 132 495 130 528 C 128 552 128 552 118 557 Z" fill="lightgray" class="stroke step5"/>
    <path d="M 292 411 Q 305 511 330 545 Q 352 573 326 586 Q 305 596 276 612 Q 257 621 213 593 Q 174 575 118 557 C 89 548 102 517 130 528 Q 151 537 219 555 Q 243 562 248 552 Q 258 545 252 504 Q 248 462 240 412 C 235 382 288 381 292 411 Z" fill="lightgray" class="stroke step5"/>
    <path d="M 154 351 Q 161 350 173 353 Q 213 366 304 383 Q 314 384 314 393 Q 314 400 292 411 C 269 423 268 422 240 412 Q 189 393 150 381 C 121 372 124 352 154 351 Z" fill="lightgray" class="stroke step5"/>
    <path d="M 594 546 Q 655 562 720 577 Q 769 590 776 597 Q 785 607 780 615 Q 771 628 740 635 Q 707 639 675 626 Q 638 613 598 599 L 545 583 Q 485 570 417 560 Q 378 553 407 535 Q 449 513 522 530 Q 529 533 543 534 L 594 546 Z" fill="lightgray" class="stroke step5"/>
    <path d="M 582 293 Q 619 309 683 313 Q 698 313 709 311 C 739 308 743 357 713 354 Q 643 347 583 334 L 531 323 Q 474 313 426 297 Q 410 296 415 314 Q 424 351 433 390 Q 440 415 430 431 Q 417 450 392 468 Q 382 475 370 474 Q 358 470 364 449 Q 380 397 368 348 Q 358 302 336 282 Q 317 264 324 249 Q 334 233 352 220 Q 367 211 379 222 Q 404 249 529 280 L 582 293 Z" fill="lightgray" class="stroke step5"/>
    <path d="M 709 311 Q 713 289 720 273 Q 727 257 740 267 Q 765 291 774 372 Q 790 441 799 450 Q 808 463 798 478 Q 780 494 750 514 Q 738 521 726 516 Q 719 513 720 500 Q 747 452 716 360 Q 713 357 713 354 L 709 311 Z" fill="lightgray" class="stroke step5"/>
    <path d="M 978 45 Q 957 103 949 204 Q 948 220 941 228 Q 934 235 928 219 Q 913 161 897 115 Q 890 84 862 67 Q 829 36 698 44 Q 646 50 628 61 Q 612 71 602 93 Q 583 136 582 293 L 583 334 Q 587 458 594 546 L 598 599 Q 604 693 617 739 Q 627 761 596 784 Q 571 802 549 814 Q 530 827 512 816 Q 500 809 521 780 Q 546 744 546 697 Q 547 658 545 583 L 543 534 Q 539 458 534 349 Q 533 336 531 323 L 529 280 Q 517 103 577 32 Q 625 -25 810 -18 Q 892 -17 955 10 Q 989 19 978 45 Z" fill="lightgray" class="hide"/></g><g transform="scale(1, -1) translate(0, -900)">
    <style type="text/css">
        .origin {display:none;}
        .hide {display:none;}
        .stroke {fill: #000000;}
        
.step1 {transform: translateX(1024px);}
.step2 {transform: translateX(2048px);}
.step3 {transform: translateX(3072px);}
.step4 {transform: translateX(4096px);}
.step5 {transform: translateX(5120px);}
.step6 {transform: translateX(6144px);}
.step7 {transform: translateX(7168px);}
.step8 {transform: translateX(8192px);}
.step9 {transform: translateX(9216px);}
.step10 {transform: translateX(10240px);}
.step11 {transform: translateX(11264px);}
.step12 {transform: translateX(12288px);}
.step13 {transform: translateX(13312px);}
.step14 {transform: translateX(14336px);}
.step15 {transform: translateX(15360px);}
.step16 {transform: translateX(16384px);}
.step17 {transform: translateX(17408px);}
.step18 {transform: translateX(18432px);}
.step19 {transform: translateX(19456px);}
.step20 {transform: translateX(20480px);}
.step21 {transform: translateX(21504px);}
.step22 {transform: translateX(22528px);}
.step23 {transform: translateX(23552px);}
.step24 {transform: translateX(24576px);}
.step25 {transform: translateX(25600px);}
.step26 {transform: translateX(26624px);}
.step27 {transform: translateX(27648px);}
.step28 {transform: translateX(28672px);}
.step29 {transform: translateX(29696px);}
    </style>

    <path d="M 118 557 Q 106 564 77 569 Q 64 573 61 568 Q 54 562 62 546 Q 93 471 107 352 Q 108 316 128 292 Q 144 270 151 285 Q 160 307 154 351 L 150 381 Q 132 495 130 528 C 128 552 128 552 118 557 Z" fill="lightgray" class="stroke step6"/>
    <path d="M 292 411 Q 305 511 330 545 Q 352 573 326 586 Q 305 596 276 612 Q 257 621 213 593 Q 174 575 118 557 C 89 548 102 517 130 528 Q 151 537 219 555 Q 243 562 248 552 Q 258 545 252 504 Q 248 462 240 412 C 235 382 288 381 292 411 Z" fill="lightgray" class="stroke step6"/>
    <path d="M 154 351 Q 161 350 173 353 Q 213 366 304 383 Q 314 384 314 393 Q 314 400 292 411 C 269 423 268 422 240 412 Q 189 393 150 381 C 121 372 124 352 154 351 Z" fill="lightgray" class="stroke step6"/>
    <path d="M 594 546 Q 655 562 720 577 Q 769 590 776 597 Q 785 607 780 615 Q 771 628 740 635 Q 707 639 675 626 Q 638 613 598 599 L 545 583 Q 485 570 417 560 Q 378 553 407 535 Q 449 513 522 530 Q 529 533 543 534 L 594 546 Z" fill="lightgray" class="stroke step6"/>
    <path d="M 582 293 Q 619 309 683 313 Q 698 313 709 311 C 739 308 743 357 713 354 Q 643 347 583 334 L 531 323 Q 474 313 426 297 Q 410 296 415 314 Q 424 351 433 390 Q 440 415 430 431 Q 417 450 392 468 Q 382 475 370 474 Q 358 470 364 449 Q 380 397 368 348 Q 358 302 336 282 Q 317 264 324 249 Q 334 233 352 220 Q 367 211 379 222 Q 404 249 529 280 L 582 293 Z" fill="lightgray" class="stroke step6"/>
    <path d="M 709 311 Q 713 289 720 273 Q 727 257 740 267 Q 765 291 774 372 Q 790 441 799 450 Q 808 463 798 478 Q 780 494 750 514 Q 738 521 726 516 Q 719 513 720 500 Q 747 452 716 360 Q 713 357 713 354 L 709 311 Z" fill="lightgray" class="stroke step6"/>
    <path d="M 978 45 Q 957 103 949 204 Q 948 220 941 228 Q 934 235 928 219 Q 913 161 897 115 Q 890 84 862 67 Q 829 36 698 44 Q 646 50 628 61 Q 612 71 602 93 Q 583 136 582 293 L 583 334 Q 587 458 594 546 L 598 599 Q 604 693 617 739 Q 627 761 596 784 Q 571 802 549 814 Q 530 827 512 816 Q 500 809 521 780 Q 546 744 546 697 Q 547 658 545 583 L 543 534 Q 539 458 534 349 Q 533 336 531 323 L 529 280 Q 517 103 577 32 Q 625 -25 810 -18 Q 892 -17 955 10 Q 989 19 978 45 Z" fill="lightgray" class="stroke step6"/></g></svg>