<svg version="1.1" viewBox="0 0 7168 1024" xmlns="http://www.w3.org/2000/svg">
  
  <g transform="scale(1, -1) translate(0, -900)" class="origin">
    <style type="text/css">
        .origin {display:none;}
        .hide {display:none;}
        .stroke {fill: #000000;}
        
.step1 {transform: translateX(1024px);}
.step2 {transform: translateX(2048px);}
.step3 {transform: translateX(3072px);}
.step4 {transform: translateX(4096px);}
.step5 {transform: translateX(5120px);}
.step6 {transform: translateX(6144px);}
.step7 {transform: translateX(7168px);}
.step8 {transform: translateX(8192px);}
.step9 {transform: translateX(9216px);}
.step10 {transform: translateX(10240px);}
.step11 {transform: translateX(11264px);}
.step12 {transform: translateX(12288px);}
.step13 {transform: translateX(13312px);}
.step14 {transform: translateX(14336px);}
.step15 {transform: translateX(15360px);}
.step16 {transform: translateX(16384px);}
.step17 {transform: translateX(17408px);}
.step18 {transform: translateX(18432px);}
.step19 {transform: translateX(19456px);}
.step20 {transform: translateX(20480px);}
.step21 {transform: translateX(21504px);}
.step22 {transform: translateX(22528px);}
.step23 {transform: translateX(23552px);}
.step24 {transform: translateX(24576px);}
.step25 {transform: translateX(25600px);}
.step26 {transform: translateX(26624px);}
.step27 {transform: translateX(27648px);}
.step28 {transform: translateX(28672px);}
.step29 {transform: translateX(29696px);}
    </style>

    <path d="M 513 795 Q 544 773 578 746 Q 593 734 610 736 Q 620 737 625 752 Q 628 768 616 798 Q 601 832 503 844 Q 487 847 480 843 Q 476 839 478 825 Q 482 815 513 795 Z" fill="lightgray"/>
    <path d="M 711 509 Q 741 603 775 629 Q 793 648 777 666 Q 761 679 706 705 Q 687 712 665 704 Q 557 662 390 637 C 360 632 362 598 392 602 Q 408 602 640 652 Q 667 659 678 648 Q 693 630 664 525 C 656 496 702 481 711 509 Z" fill="lightgray"/>
    <path d="M 363 444 Q 378 435 398 438 Q 498 460 714 480 Q 726 481 727 490 Q 727 497 711 509 C 689 527 689 527 664 525 Q 654 525 646 522 Q 492 486 368 472 C 338 469 336 456 363 444 Z" fill="lightgray"/>
    <path d="M 390 637 Q 387 641 382 644 Q 333 675 316 674 Q 294 673 309 647 Q 334 593 297 391 Q 284 310 231 217 Q 186 133 88 65 Q 70 52 67 46 Q 63 39 77 38 Q 116 35 206 108 Q 317 207 363 444 L 368 472 Q 377 521 385 576 Q 389 592 392 602 C 400 630 400 630 390 637 Z" fill="lightgray"/>
    <path d="M 405 288 Q 393 295 360 301 Q 347 305 343 300 Q 336 293 345 276 Q 376 200 393 78 Q 396 41 415 17 Q 434 -7 439 9 Q 446 30 444 64 L 439 101 Q 420 216 417 254 C 414 284 414 284 405 288 Z" fill="lightgray"/>
    <path d="M 721 134 Q 745 233 782 263 Q 800 284 784 303 Q 709 360 649 337 Q 544 304 405 288 C 375 284 387 250 417 254 Q 450 258 641 291 Q 666 297 676 286 Q 689 276 686 252 Q 679 188 666 135 C 659 106 714 105 721 134 Z" fill="lightgray"/>
    <path d="M 444 64 Q 448 64 458 65 Q 548 81 741 92 Q 753 93 755 102 Q 756 111 724 133 Q 723 134 721 134 L 666 135 Q 539 110 439 101 C 409 98 414 62 444 64 Z" fill="lightgray"/></g>
<g transform="scale(1, -1) translate(0, -900)">
    <style type="text/css">
        .origin {display:none;}
        .hide {display:none;}
        .stroke {fill: #000000;}
        
.step1 {transform: translateX(1024px);}
.step2 {transform: translateX(2048px);}
.step3 {transform: translateX(3072px);}
.step4 {transform: translateX(4096px);}
.step5 {transform: translateX(5120px);}
.step6 {transform: translateX(6144px);}
.step7 {transform: translateX(7168px);}
.step8 {transform: translateX(8192px);}
.step9 {transform: translateX(9216px);}
.step10 {transform: translateX(10240px);}
.step11 {transform: translateX(11264px);}
.step12 {transform: translateX(12288px);}
.step13 {transform: translateX(13312px);}
.step14 {transform: translateX(14336px);}
.step15 {transform: translateX(15360px);}
.step16 {transform: translateX(16384px);}
.step17 {transform: translateX(17408px);}
.step18 {transform: translateX(18432px);}
.step19 {transform: translateX(19456px);}
.step20 {transform: translateX(20480px);}
.step21 {transform: translateX(21504px);}
.step22 {transform: translateX(22528px);}
.step23 {transform: translateX(23552px);}
.step24 {transform: translateX(24576px);}
.step25 {transform: translateX(25600px);}
.step26 {transform: translateX(26624px);}
.step27 {transform: translateX(27648px);}
.step28 {transform: translateX(28672px);}
.step29 {transform: translateX(29696px);}
    </style>

    <path d="M 513 795 Q 544 773 578 746 Q 593 734 610 736 Q 620 737 625 752 Q 628 768 616 798 Q 601 832 503 844 Q 487 847 480 843 Q 476 839 478 825 Q 482 815 513 795 Z" fill="lightgray" class="stroke step0"/>
    <path d="M 711 509 Q 741 603 775 629 Q 793 648 777 666 Q 761 679 706 705 Q 687 712 665 704 Q 557 662 390 637 C 360 632 362 598 392 602 Q 408 602 640 652 Q 667 659 678 648 Q 693 630 664 525 C 656 496 702 481 711 509 Z" fill="lightgray" class="hide"/>
    <path d="M 363 444 Q 378 435 398 438 Q 498 460 714 480 Q 726 481 727 490 Q 727 497 711 509 C 689 527 689 527 664 525 Q 654 525 646 522 Q 492 486 368 472 C 338 469 336 456 363 444 Z" fill="lightgray" class="hide"/>
    <path d="M 390 637 Q 387 641 382 644 Q 333 675 316 674 Q 294 673 309 647 Q 334 593 297 391 Q 284 310 231 217 Q 186 133 88 65 Q 70 52 67 46 Q 63 39 77 38 Q 116 35 206 108 Q 317 207 363 444 L 368 472 Q 377 521 385 576 Q 389 592 392 602 C 400 630 400 630 390 637 Z" fill="lightgray" class="hide"/>
    <path d="M 405 288 Q 393 295 360 301 Q 347 305 343 300 Q 336 293 345 276 Q 376 200 393 78 Q 396 41 415 17 Q 434 -7 439 9 Q 446 30 444 64 L 439 101 Q 420 216 417 254 C 414 284 414 284 405 288 Z" fill="lightgray" class="hide"/>
    <path d="M 721 134 Q 745 233 782 263 Q 800 284 784 303 Q 709 360 649 337 Q 544 304 405 288 C 375 284 387 250 417 254 Q 450 258 641 291 Q 666 297 676 286 Q 689 276 686 252 Q 679 188 666 135 C 659 106 714 105 721 134 Z" fill="lightgray" class="hide"/>
    <path d="M 444 64 Q 448 64 458 65 Q 548 81 741 92 Q 753 93 755 102 Q 756 111 724 133 Q 723 134 721 134 L 666 135 Q 539 110 439 101 C 409 98 414 62 444 64 Z" fill="lightgray" class="hide"/></g><g transform="scale(1, -1) translate(0, -900)">
    <style type="text/css">
        .origin {display:none;}
        .hide {display:none;}
        .stroke {fill: #000000;}
        
.step1 {transform: translateX(1024px);}
.step2 {transform: translateX(2048px);}
.step3 {transform: translateX(3072px);}
.step4 {transform: translateX(4096px);}
.step5 {transform: translateX(5120px);}
.step6 {transform: translateX(6144px);}
.step7 {transform: translateX(7168px);}
.step8 {transform: translateX(8192px);}
.step9 {transform: translateX(9216px);}
.step10 {transform: translateX(10240px);}
.step11 {transform: translateX(11264px);}
.step12 {transform: translateX(12288px);}
.step13 {transform: translateX(13312px);}
.step14 {transform: translateX(14336px);}
.step15 {transform: translateX(15360px);}
.step16 {transform: translateX(16384px);}
.step17 {transform: translateX(17408px);}
.step18 {transform: translateX(18432px);}
.step19 {transform: translateX(19456px);}
.step20 {transform: translateX(20480px);}
.step21 {transform: translateX(21504px);}
.step22 {transform: translateX(22528px);}
.step23 {transform: translateX(23552px);}
.step24 {transform: translateX(24576px);}
.step25 {transform: translateX(25600px);}
.step26 {transform: translateX(26624px);}
.step27 {transform: translateX(27648px);}
.step28 {transform: translateX(28672px);}
.step29 {transform: translateX(29696px);}
    </style>

    <path d="M 513 795 Q 544 773 578 746 Q 593 734 610 736 Q 620 737 625 752 Q 628 768 616 798 Q 601 832 503 844 Q 487 847 480 843 Q 476 839 478 825 Q 482 815 513 795 Z" fill="lightgray" class="stroke step1"/>
    <path d="M 711 509 Q 741 603 775 629 Q 793 648 777 666 Q 761 679 706 705 Q 687 712 665 704 Q 557 662 390 637 C 360 632 362 598 392 602 Q 408 602 640 652 Q 667 659 678 648 Q 693 630 664 525 C 656 496 702 481 711 509 Z" fill="lightgray" class="stroke step1"/>
    <path d="M 363 444 Q 378 435 398 438 Q 498 460 714 480 Q 726 481 727 490 Q 727 497 711 509 C 689 527 689 527 664 525 Q 654 525 646 522 Q 492 486 368 472 C 338 469 336 456 363 444 Z" fill="lightgray" class="hide"/>
    <path d="M 390 637 Q 387 641 382 644 Q 333 675 316 674 Q 294 673 309 647 Q 334 593 297 391 Q 284 310 231 217 Q 186 133 88 65 Q 70 52 67 46 Q 63 39 77 38 Q 116 35 206 108 Q 317 207 363 444 L 368 472 Q 377 521 385 576 Q 389 592 392 602 C 400 630 400 630 390 637 Z" fill="lightgray" class="hide"/>
    <path d="M 405 288 Q 393 295 360 301 Q 347 305 343 300 Q 336 293 345 276 Q 376 200 393 78 Q 396 41 415 17 Q 434 -7 439 9 Q 446 30 444 64 L 439 101 Q 420 216 417 254 C 414 284 414 284 405 288 Z" fill="lightgray" class="hide"/>
    <path d="M 721 134 Q 745 233 782 263 Q 800 284 784 303 Q 709 360 649 337 Q 544 304 405 288 C 375 284 387 250 417 254 Q 450 258 641 291 Q 666 297 676 286 Q 689 276 686 252 Q 679 188 666 135 C 659 106 714 105 721 134 Z" fill="lightgray" class="hide"/>
    <path d="M 444 64 Q 448 64 458 65 Q 548 81 741 92 Q 753 93 755 102 Q 756 111 724 133 Q 723 134 721 134 L 666 135 Q 539 110 439 101 C 409 98 414 62 444 64 Z" fill="lightgray" class="hide"/></g><g transform="scale(1, -1) translate(0, -900)">
    <style type="text/css">
        .origin {display:none;}
        .hide {display:none;}
        .stroke {fill: #000000;}
        
.step1 {transform: translateX(1024px);}
.step2 {transform: translateX(2048px);}
.step3 {transform: translateX(3072px);}
.step4 {transform: translateX(4096px);}
.step5 {transform: translateX(5120px);}
.step6 {transform: translateX(6144px);}
.step7 {transform: translateX(7168px);}
.step8 {transform: translateX(8192px);}
.step9 {transform: translateX(9216px);}
.step10 {transform: translateX(10240px);}
.step11 {transform: translateX(11264px);}
.step12 {transform: translateX(12288px);}
.step13 {transform: translateX(13312px);}
.step14 {transform: translateX(14336px);}
.step15 {transform: translateX(15360px);}
.step16 {transform: translateX(16384px);}
.step17 {transform: translateX(17408px);}
.step18 {transform: translateX(18432px);}
.step19 {transform: translateX(19456px);}
.step20 {transform: translateX(20480px);}
.step21 {transform: translateX(21504px);}
.step22 {transform: translateX(22528px);}
.step23 {transform: translateX(23552px);}
.step24 {transform: translateX(24576px);}
.step25 {transform: translateX(25600px);}
.step26 {transform: translateX(26624px);}
.step27 {transform: translateX(27648px);}
.step28 {transform: translateX(28672px);}
.step29 {transform: translateX(29696px);}
    </style>

    <path d="M 513 795 Q 544 773 578 746 Q 593 734 610 736 Q 620 737 625 752 Q 628 768 616 798 Q 601 832 503 844 Q 487 847 480 843 Q 476 839 478 825 Q 482 815 513 795 Z" fill="lightgray" class="stroke step2"/>
    <path d="M 711 509 Q 741 603 775 629 Q 793 648 777 666 Q 761 679 706 705 Q 687 712 665 704 Q 557 662 390 637 C 360 632 362 598 392 602 Q 408 602 640 652 Q 667 659 678 648 Q 693 630 664 525 C 656 496 702 481 711 509 Z" fill="lightgray" class="stroke step2"/>
    <path d="M 363 444 Q 378 435 398 438 Q 498 460 714 480 Q 726 481 727 490 Q 727 497 711 509 C 689 527 689 527 664 525 Q 654 525 646 522 Q 492 486 368 472 C 338 469 336 456 363 444 Z" fill="lightgray" class="stroke step2"/>
    <path d="M 390 637 Q 387 641 382 644 Q 333 675 316 674 Q 294 673 309 647 Q 334 593 297 391 Q 284 310 231 217 Q 186 133 88 65 Q 70 52 67 46 Q 63 39 77 38 Q 116 35 206 108 Q 317 207 363 444 L 368 472 Q 377 521 385 576 Q 389 592 392 602 C 400 630 400 630 390 637 Z" fill="lightgray" class="hide"/>
    <path d="M 405 288 Q 393 295 360 301 Q 347 305 343 300 Q 336 293 345 276 Q 376 200 393 78 Q 396 41 415 17 Q 434 -7 439 9 Q 446 30 444 64 L 439 101 Q 420 216 417 254 C 414 284 414 284 405 288 Z" fill="lightgray" class="hide"/>
    <path d="M 721 134 Q 745 233 782 263 Q 800 284 784 303 Q 709 360 649 337 Q 544 304 405 288 C 375 284 387 250 417 254 Q 450 258 641 291 Q 666 297 676 286 Q 689 276 686 252 Q 679 188 666 135 C 659 106 714 105 721 134 Z" fill="lightgray" class="hide"/>
    <path d="M 444 64 Q 448 64 458 65 Q 548 81 741 92 Q 753 93 755 102 Q 756 111 724 133 Q 723 134 721 134 L 666 135 Q 539 110 439 101 C 409 98 414 62 444 64 Z" fill="lightgray" class="hide"/></g><g transform="scale(1, -1) translate(0, -900)">
    <style type="text/css">
        .origin {display:none;}
        .hide {display:none;}
        .stroke {fill: #000000;}
        
.step1 {transform: translateX(1024px);}
.step2 {transform: translateX(2048px);}
.step3 {transform: translateX(3072px);}
.step4 {transform: translateX(4096px);}
.step5 {transform: translateX(5120px);}
.step6 {transform: translateX(6144px);}
.step7 {transform: translateX(7168px);}
.step8 {transform: translateX(8192px);}
.step9 {transform: translateX(9216px);}
.step10 {transform: translateX(10240px);}
.step11 {transform: translateX(11264px);}
.step12 {transform: translateX(12288px);}
.step13 {transform: translateX(13312px);}
.step14 {transform: translateX(14336px);}
.step15 {transform: translateX(15360px);}
.step16 {transform: translateX(16384px);}
.step17 {transform: translateX(17408px);}
.step18 {transform: translateX(18432px);}
.step19 {transform: translateX(19456px);}
.step20 {transform: translateX(20480px);}
.step21 {transform: translateX(21504px);}
.step22 {transform: translateX(22528px);}
.step23 {transform: translateX(23552px);}
.step24 {transform: translateX(24576px);}
.step25 {transform: translateX(25600px);}
.step26 {transform: translateX(26624px);}
.step27 {transform: translateX(27648px);}
.step28 {transform: translateX(28672px);}
.step29 {transform: translateX(29696px);}
    </style>

    <path d="M 513 795 Q 544 773 578 746 Q 593 734 610 736 Q 620 737 625 752 Q 628 768 616 798 Q 601 832 503 844 Q 487 847 480 843 Q 476 839 478 825 Q 482 815 513 795 Z" fill="lightgray" class="stroke step3"/>
    <path d="M 711 509 Q 741 603 775 629 Q 793 648 777 666 Q 761 679 706 705 Q 687 712 665 704 Q 557 662 390 637 C 360 632 362 598 392 602 Q 408 602 640 652 Q 667 659 678 648 Q 693 630 664 525 C 656 496 702 481 711 509 Z" fill="lightgray" class="stroke step3"/>
    <path d="M 363 444 Q 378 435 398 438 Q 498 460 714 480 Q 726 481 727 490 Q 727 497 711 509 C 689 527 689 527 664 525 Q 654 525 646 522 Q 492 486 368 472 C 338 469 336 456 363 444 Z" fill="lightgray" class="stroke step3"/>
    <path d="M 390 637 Q 387 641 382 644 Q 333 675 316 674 Q 294 673 309 647 Q 334 593 297 391 Q 284 310 231 217 Q 186 133 88 65 Q 70 52 67 46 Q 63 39 77 38 Q 116 35 206 108 Q 317 207 363 444 L 368 472 Q 377 521 385 576 Q 389 592 392 602 C 400 630 400 630 390 637 Z" fill="lightgray" class="stroke step3"/>
    <path d="M 405 288 Q 393 295 360 301 Q 347 305 343 300 Q 336 293 345 276 Q 376 200 393 78 Q 396 41 415 17 Q 434 -7 439 9 Q 446 30 444 64 L 439 101 Q 420 216 417 254 C 414 284 414 284 405 288 Z" fill="lightgray" class="hide"/>
    <path d="M 721 134 Q 745 233 782 263 Q 800 284 784 303 Q 709 360 649 337 Q 544 304 405 288 C 375 284 387 250 417 254 Q 450 258 641 291 Q 666 297 676 286 Q 689 276 686 252 Q 679 188 666 135 C 659 106 714 105 721 134 Z" fill="lightgray" class="hide"/>
    <path d="M 444 64 Q 448 64 458 65 Q 548 81 741 92 Q 753 93 755 102 Q 756 111 724 133 Q 723 134 721 134 L 666 135 Q 539 110 439 101 C 409 98 414 62 444 64 Z" fill="lightgray" class="hide"/></g><g transform="scale(1, -1) translate(0, -900)">
    <style type="text/css">
        .origin {display:none;}
        .hide {display:none;}
        .stroke {fill: #000000;}
        
.step1 {transform: translateX(1024px);}
.step2 {transform: translateX(2048px);}
.step3 {transform: translateX(3072px);}
.step4 {transform: translateX(4096px);}
.step5 {transform: translateX(5120px);}
.step6 {transform: translateX(6144px);}
.step7 {transform: translateX(7168px);}
.step8 {transform: translateX(8192px);}
.step9 {transform: translateX(9216px);}
.step10 {transform: translateX(10240px);}
.step11 {transform: translateX(11264px);}
.step12 {transform: translateX(12288px);}
.step13 {transform: translateX(13312px);}
.step14 {transform: translateX(14336px);}
.step15 {transform: translateX(15360px);}
.step16 {transform: translateX(16384px);}
.step17 {transform: translateX(17408px);}
.step18 {transform: translateX(18432px);}
.step19 {transform: translateX(19456px);}
.step20 {transform: translateX(20480px);}
.step21 {transform: translateX(21504px);}
.step22 {transform: translateX(22528px);}
.step23 {transform: translateX(23552px);}
.step24 {transform: translateX(24576px);}
.step25 {transform: translateX(25600px);}
.step26 {transform: translateX(26624px);}
.step27 {transform: translateX(27648px);}
.step28 {transform: translateX(28672px);}
.step29 {transform: translateX(29696px);}
    </style>

    <path d="M 513 795 Q 544 773 578 746 Q 593 734 610 736 Q 620 737 625 752 Q 628 768 616 798 Q 601 832 503 844 Q 487 847 480 843 Q 476 839 478 825 Q 482 815 513 795 Z" fill="lightgray" class="stroke step4"/>
    <path d="M 711 509 Q 741 603 775 629 Q 793 648 777 666 Q 761 679 706 705 Q 687 712 665 704 Q 557 662 390 637 C 360 632 362 598 392 602 Q 408 602 640 652 Q 667 659 678 648 Q 693 630 664 525 C 656 496 702 481 711 509 Z" fill="lightgray" class="stroke step4"/>
    <path d="M 363 444 Q 378 435 398 438 Q 498 460 714 480 Q 726 481 727 490 Q 727 497 711 509 C 689 527 689 527 664 525 Q 654 525 646 522 Q 492 486 368 472 C 338 469 336 456 363 444 Z" fill="lightgray" class="stroke step4"/>
    <path d="M 390 637 Q 387 641 382 644 Q 333 675 316 674 Q 294 673 309 647 Q 334 593 297 391 Q 284 310 231 217 Q 186 133 88 65 Q 70 52 67 46 Q 63 39 77 38 Q 116 35 206 108 Q 317 207 363 444 L 368 472 Q 377 521 385 576 Q 389 592 392 602 C 400 630 400 630 390 637 Z" fill="lightgray" class="stroke step4"/>
    <path d="M 405 288 Q 393 295 360 301 Q 347 305 343 300 Q 336 293 345 276 Q 376 200 393 78 Q 396 41 415 17 Q 434 -7 439 9 Q 446 30 444 64 L 439 101 Q 420 216 417 254 C 414 284 414 284 405 288 Z" fill="lightgray" class="stroke step4"/>
    <path d="M 721 134 Q 745 233 782 263 Q 800 284 784 303 Q 709 360 649 337 Q 544 304 405 288 C 375 284 387 250 417 254 Q 450 258 641 291 Q 666 297 676 286 Q 689 276 686 252 Q 679 188 666 135 C 659 106 714 105 721 134 Z" fill="lightgray" class="hide"/>
    <path d="M 444 64 Q 448 64 458 65 Q 548 81 741 92 Q 753 93 755 102 Q 756 111 724 133 Q 723 134 721 134 L 666 135 Q 539 110 439 101 C 409 98 414 62 444 64 Z" fill="lightgray" class="hide"/></g><g transform="scale(1, -1) translate(0, -900)">
    <style type="text/css">
        .origin {display:none;}
        .hide {display:none;}
        .stroke {fill: #000000;}
        
.step1 {transform: translateX(1024px);}
.step2 {transform: translateX(2048px);}
.step3 {transform: translateX(3072px);}
.step4 {transform: translateX(4096px);}
.step5 {transform: translateX(5120px);}
.step6 {transform: translateX(6144px);}
.step7 {transform: translateX(7168px);}
.step8 {transform: translateX(8192px);}
.step9 {transform: translateX(9216px);}
.step10 {transform: translateX(10240px);}
.step11 {transform: translateX(11264px);}
.step12 {transform: translateX(12288px);}
.step13 {transform: translateX(13312px);}
.step14 {transform: translateX(14336px);}
.step15 {transform: translateX(15360px);}
.step16 {transform: translateX(16384px);}
.step17 {transform: translateX(17408px);}
.step18 {transform: translateX(18432px);}
.step19 {transform: translateX(19456px);}
.step20 {transform: translateX(20480px);}
.step21 {transform: translateX(21504px);}
.step22 {transform: translateX(22528px);}
.step23 {transform: translateX(23552px);}
.step24 {transform: translateX(24576px);}
.step25 {transform: translateX(25600px);}
.step26 {transform: translateX(26624px);}
.step27 {transform: translateX(27648px);}
.step28 {transform: translateX(28672px);}
.step29 {transform: translateX(29696px);}
    </style>

    <path d="M 513 795 Q 544 773 578 746 Q 593 734 610 736 Q 620 737 625 752 Q 628 768 616 798 Q 601 832 503 844 Q 487 847 480 843 Q 476 839 478 825 Q 482 815 513 795 Z" fill="lightgray" class="stroke step5"/>
    <path d="M 711 509 Q 741 603 775 629 Q 793 648 777 666 Q 761 679 706 705 Q 687 712 665 704 Q 557 662 390 637 C 360 632 362 598 392 602 Q 408 602 640 652 Q 667 659 678 648 Q 693 630 664 525 C 656 496 702 481 711 509 Z" fill="lightgray" class="stroke step5"/>
    <path d="M 363 444 Q 378 435 398 438 Q 498 460 714 480 Q 726 481 727 490 Q 727 497 711 509 C 689 527 689 527 664 525 Q 654 525 646 522 Q 492 486 368 472 C 338 469 336 456 363 444 Z" fill="lightgray" class="stroke step5"/>
    <path d="M 390 637 Q 387 641 382 644 Q 333 675 316 674 Q 294 673 309 647 Q 334 593 297 391 Q 284 310 231 217 Q 186 133 88 65 Q 70 52 67 46 Q 63 39 77 38 Q 116 35 206 108 Q 317 207 363 444 L 368 472 Q 377 521 385 576 Q 389 592 392 602 C 400 630 400 630 390 637 Z" fill="lightgray" class="stroke step5"/>
    <path d="M 405 288 Q 393 295 360 301 Q 347 305 343 300 Q 336 293 345 276 Q 376 200 393 78 Q 396 41 415 17 Q 434 -7 439 9 Q 446 30 444 64 L 439 101 Q 420 216 417 254 C 414 284 414 284 405 288 Z" fill="lightgray" class="stroke step5"/>
    <path d="M 721 134 Q 745 233 782 263 Q 800 284 784 303 Q 709 360 649 337 Q 544 304 405 288 C 375 284 387 250 417 254 Q 450 258 641 291 Q 666 297 676 286 Q 689 276 686 252 Q 679 188 666 135 C 659 106 714 105 721 134 Z" fill="lightgray" class="stroke step5"/>
    <path d="M 444 64 Q 448 64 458 65 Q 548 81 741 92 Q 753 93 755 102 Q 756 111 724 133 Q 723 134 721 134 L 666 135 Q 539 110 439 101 C 409 98 414 62 444 64 Z" fill="lightgray" class="hide"/></g><g transform="scale(1, -1) translate(0, -900)">
    <style type="text/css">
        .origin {display:none;}
        .hide {display:none;}
        .stroke {fill: #000000;}
        
.step1 {transform: translateX(1024px);}
.step2 {transform: translateX(2048px);}
.step3 {transform: translateX(3072px);}
.step4 {transform: translateX(4096px);}
.step5 {transform: translateX(5120px);}
.step6 {transform: translateX(6144px);}
.step7 {transform: translateX(7168px);}
.step8 {transform: translateX(8192px);}
.step9 {transform: translateX(9216px);}
.step10 {transform: translateX(10240px);}
.step11 {transform: translateX(11264px);}
.step12 {transform: translateX(12288px);}
.step13 {transform: translateX(13312px);}
.step14 {transform: translateX(14336px);}
.step15 {transform: translateX(15360px);}
.step16 {transform: translateX(16384px);}
.step17 {transform: translateX(17408px);}
.step18 {transform: translateX(18432px);}
.step19 {transform: translateX(19456px);}
.step20 {transform: translateX(20480px);}
.step21 {transform: translateX(21504px);}
.step22 {transform: translateX(22528px);}
.step23 {transform: translateX(23552px);}
.step24 {transform: translateX(24576px);}
.step25 {transform: translateX(25600px);}
.step26 {transform: translateX(26624px);}
.step27 {transform: translateX(27648px);}
.step28 {transform: translateX(28672px);}
.step29 {transform: translateX(29696px);}
    </style>

    <path d="M 513 795 Q 544 773 578 746 Q 593 734 610 736 Q 620 737 625 752 Q 628 768 616 798 Q 601 832 503 844 Q 487 847 480 843 Q 476 839 478 825 Q 482 815 513 795 Z" fill="lightgray" class="stroke step6"/>
    <path d="M 711 509 Q 741 603 775 629 Q 793 648 777 666 Q 761 679 706 705 Q 687 712 665 704 Q 557 662 390 637 C 360 632 362 598 392 602 Q 408 602 640 652 Q 667 659 678 648 Q 693 630 664 525 C 656 496 702 481 711 509 Z" fill="lightgray" class="stroke step6"/>
    <path d="M 363 444 Q 378 435 398 438 Q 498 460 714 480 Q 726 481 727 490 Q 727 497 711 509 C 689 527 689 527 664 525 Q 654 525 646 522 Q 492 486 368 472 C 338 469 336 456 363 444 Z" fill="lightgray" class="stroke step6"/>
    <path d="M 390 637 Q 387 641 382 644 Q 333 675 316 674 Q 294 673 309 647 Q 334 593 297 391 Q 284 310 231 217 Q 186 133 88 65 Q 70 52 67 46 Q 63 39 77 38 Q 116 35 206 108 Q 317 207 363 444 L 368 472 Q 377 521 385 576 Q 389 592 392 602 C 400 630 400 630 390 637 Z" fill="lightgray" class="stroke step6"/>
    <path d="M 405 288 Q 393 295 360 301 Q 347 305 343 300 Q 336 293 345 276 Q 376 200 393 78 Q 396 41 415 17 Q 434 -7 439 9 Q 446 30 444 64 L 439 101 Q 420 216 417 254 C 414 284 414 284 405 288 Z" fill="lightgray" class="stroke step6"/>
    <path d="M 721 134 Q 745 233 782 263 Q 800 284 784 303 Q 709 360 649 337 Q 544 304 405 288 C 375 284 387 250 417 254 Q 450 258 641 291 Q 666 297 676 286 Q 689 276 686 252 Q 679 188 666 135 C 659 106 714 105 721 134 Z" fill="lightgray" class="stroke step6"/>
    <path d="M 444 64 Q 448 64 458 65 Q 548 81 741 92 Q 753 93 755 102 Q 756 111 724 133 Q 723 134 721 134 L 666 135 Q 539 110 439 101 C 409 98 414 62 444 64 Z" fill="lightgray" class="stroke step6"/></g></svg>