<svg version="1.1" viewBox="0 0 7168 1024" xmlns="http://www.w3.org/2000/svg">
  
  <g transform="scale(1, -1) translate(0, -900)" class="origin">
    <style type="text/css">
        .origin {display:none;}
        .hide {display:none;}
        .stroke {fill: #000000;}
        
.step1 {transform: translateX(1024px);}
.step2 {transform: translateX(2048px);}
.step3 {transform: translateX(3072px);}
.step4 {transform: translateX(4096px);}
.step5 {transform: translateX(5120px);}
.step6 {transform: translateX(6144px);}
.step7 {transform: translateX(7168px);}
.step8 {transform: translateX(8192px);}
.step9 {transform: translateX(9216px);}
.step10 {transform: translateX(10240px);}
.step11 {transform: translateX(11264px);}
.step12 {transform: translateX(12288px);}
.step13 {transform: translateX(13312px);}
.step14 {transform: translateX(14336px);}
.step15 {transform: translateX(15360px);}
.step16 {transform: translateX(16384px);}
.step17 {transform: translateX(17408px);}
.step18 {transform: translateX(18432px);}
.step19 {transform: translateX(19456px);}
.step20 {transform: translateX(20480px);}
.step21 {transform: translateX(21504px);}
.step22 {transform: translateX(22528px);}
.step23 {transform: translateX(23552px);}
.step24 {transform: translateX(24576px);}
.step25 {transform: translateX(25600px);}
.step26 {transform: translateX(26624px);}
.step27 {transform: translateX(27648px);}
.step28 {transform: translateX(28672px);}
.step29 {transform: translateX(29696px);}
    </style>

    <path d="M 334 759 Q 328 760 323 760 Q 310 763 307 757 Q 300 750 310 734 Q 341 679 361 585 Q 365 557 383 539 Q 402 517 407 534 Q 408 541 410 551 L 407 587 Q 403 602 382 723 C 377 753 364 756 334 759 Z" fill="lightgray"/>
    <path d="M 660 626 Q 687 705 721 731 Q 739 749 724 767 Q 655 824 599 802 Q 413 742 334 759 C 304 764 353 716 382 723 Q 607 774 626 756 Q 641 740 608 632 C 599 603 650 598 660 626 Z" fill="lightgray"/>
    <path d="M 410 551 Q 416 551 423 552 Q 501 571 672 591 Q 682 592 684 602 Q 684 609 660 626 C 646 636 638 635 608 632 Q 605 633 602 632 Q 494 602 407 587 C 377 582 380 549 410 551 Z" fill="lightgray"/>
    <path d="M 508 429 Q 581 442 658 455 Q 716 468 726 475 Q 735 482 731 492 Q 724 504 694 513 Q 664 520 578 492 Q 436 458 319 449 Q 282 445 308 426 Q 344 402 420 415 Q 433 418 449 419 L 508 429 Z" fill="lightgray"/>
    <path d="M 519 274 Q 633 286 800 283 Q 830 282 855 283 Q 877 282 883 292 Q 889 305 871 320 Q 814 363 772 355 Q 678 337 519 314 L 458 305 Q 320 290 162 272 Q 140 271 156 251 Q 172 235 191 229 Q 215 223 232 228 Q 334 255 451 267 L 519 274 Z" fill="lightgray"/>
    <path d="M 519 314 Q 534 384 539 393 Q 546 400 540 411 Q 534 418 508 429 C 481 442 441 448 449 419 Q 467 367 458 305 L 451 267 Q 415 144 310 76 Q 265 49 185 15 Q 158 2 190 1 Q 211 -2 252 11 Q 304 23 350 47 Q 393 66 426 105 Q 469 153 504 253 L 519 314 Z" fill="lightgray"/>
    <path d="M 504 253 Q 505 252 510 246 Q 666 18 719 -1 Q 797 -19 906 -7 Q 927 -6 929 -1 Q 932 6 916 14 Q 867 36 808 59 Q 679 116 541 254 Q 528 267 519 274 C 496 294 486 277 504 253 Z" fill="lightgray"/></g>
<g transform="scale(1, -1) translate(0, -900)">
    <style type="text/css">
        .origin {display:none;}
        .hide {display:none;}
        .stroke {fill: #000000;}
        
.step1 {transform: translateX(1024px);}
.step2 {transform: translateX(2048px);}
.step3 {transform: translateX(3072px);}
.step4 {transform: translateX(4096px);}
.step5 {transform: translateX(5120px);}
.step6 {transform: translateX(6144px);}
.step7 {transform: translateX(7168px);}
.step8 {transform: translateX(8192px);}
.step9 {transform: translateX(9216px);}
.step10 {transform: translateX(10240px);}
.step11 {transform: translateX(11264px);}
.step12 {transform: translateX(12288px);}
.step13 {transform: translateX(13312px);}
.step14 {transform: translateX(14336px);}
.step15 {transform: translateX(15360px);}
.step16 {transform: translateX(16384px);}
.step17 {transform: translateX(17408px);}
.step18 {transform: translateX(18432px);}
.step19 {transform: translateX(19456px);}
.step20 {transform: translateX(20480px);}
.step21 {transform: translateX(21504px);}
.step22 {transform: translateX(22528px);}
.step23 {transform: translateX(23552px);}
.step24 {transform: translateX(24576px);}
.step25 {transform: translateX(25600px);}
.step26 {transform: translateX(26624px);}
.step27 {transform: translateX(27648px);}
.step28 {transform: translateX(28672px);}
.step29 {transform: translateX(29696px);}
    </style>

    <path d="M 334 759 Q 328 760 323 760 Q 310 763 307 757 Q 300 750 310 734 Q 341 679 361 585 Q 365 557 383 539 Q 402 517 407 534 Q 408 541 410 551 L 407 587 Q 403 602 382 723 C 377 753 364 756 334 759 Z" fill="lightgray" class="stroke step0"/>
    <path d="M 660 626 Q 687 705 721 731 Q 739 749 724 767 Q 655 824 599 802 Q 413 742 334 759 C 304 764 353 716 382 723 Q 607 774 626 756 Q 641 740 608 632 C 599 603 650 598 660 626 Z" fill="lightgray" class="hide"/>
    <path d="M 410 551 Q 416 551 423 552 Q 501 571 672 591 Q 682 592 684 602 Q 684 609 660 626 C 646 636 638 635 608 632 Q 605 633 602 632 Q 494 602 407 587 C 377 582 380 549 410 551 Z" fill="lightgray" class="hide"/>
    <path d="M 508 429 Q 581 442 658 455 Q 716 468 726 475 Q 735 482 731 492 Q 724 504 694 513 Q 664 520 578 492 Q 436 458 319 449 Q 282 445 308 426 Q 344 402 420 415 Q 433 418 449 419 L 508 429 Z" fill="lightgray" class="hide"/>
    <path d="M 519 274 Q 633 286 800 283 Q 830 282 855 283 Q 877 282 883 292 Q 889 305 871 320 Q 814 363 772 355 Q 678 337 519 314 L 458 305 Q 320 290 162 272 Q 140 271 156 251 Q 172 235 191 229 Q 215 223 232 228 Q 334 255 451 267 L 519 274 Z" fill="lightgray" class="hide"/>
    <path d="M 519 314 Q 534 384 539 393 Q 546 400 540 411 Q 534 418 508 429 C 481 442 441 448 449 419 Q 467 367 458 305 L 451 267 Q 415 144 310 76 Q 265 49 185 15 Q 158 2 190 1 Q 211 -2 252 11 Q 304 23 350 47 Q 393 66 426 105 Q 469 153 504 253 L 519 314 Z" fill="lightgray" class="hide"/>
    <path d="M 504 253 Q 505 252 510 246 Q 666 18 719 -1 Q 797 -19 906 -7 Q 927 -6 929 -1 Q 932 6 916 14 Q 867 36 808 59 Q 679 116 541 254 Q 528 267 519 274 C 496 294 486 277 504 253 Z" fill="lightgray" class="hide"/></g><g transform="scale(1, -1) translate(0, -900)">
    <style type="text/css">
        .origin {display:none;}
        .hide {display:none;}
        .stroke {fill: #000000;}
        
.step1 {transform: translateX(1024px);}
.step2 {transform: translateX(2048px);}
.step3 {transform: translateX(3072px);}
.step4 {transform: translateX(4096px);}
.step5 {transform: translateX(5120px);}
.step6 {transform: translateX(6144px);}
.step7 {transform: translateX(7168px);}
.step8 {transform: translateX(8192px);}
.step9 {transform: translateX(9216px);}
.step10 {transform: translateX(10240px);}
.step11 {transform: translateX(11264px);}
.step12 {transform: translateX(12288px);}
.step13 {transform: translateX(13312px);}
.step14 {transform: translateX(14336px);}
.step15 {transform: translateX(15360px);}
.step16 {transform: translateX(16384px);}
.step17 {transform: translateX(17408px);}
.step18 {transform: translateX(18432px);}
.step19 {transform: translateX(19456px);}
.step20 {transform: translateX(20480px);}
.step21 {transform: translateX(21504px);}
.step22 {transform: translateX(22528px);}
.step23 {transform: translateX(23552px);}
.step24 {transform: translateX(24576px);}
.step25 {transform: translateX(25600px);}
.step26 {transform: translateX(26624px);}
.step27 {transform: translateX(27648px);}
.step28 {transform: translateX(28672px);}
.step29 {transform: translateX(29696px);}
    </style>

    <path d="M 334 759 Q 328 760 323 760 Q 310 763 307 757 Q 300 750 310 734 Q 341 679 361 585 Q 365 557 383 539 Q 402 517 407 534 Q 408 541 410 551 L 407 587 Q 403 602 382 723 C 377 753 364 756 334 759 Z" fill="lightgray" class="stroke step1"/>
    <path d="M 660 626 Q 687 705 721 731 Q 739 749 724 767 Q 655 824 599 802 Q 413 742 334 759 C 304 764 353 716 382 723 Q 607 774 626 756 Q 641 740 608 632 C 599 603 650 598 660 626 Z" fill="lightgray" class="stroke step1"/>
    <path d="M 410 551 Q 416 551 423 552 Q 501 571 672 591 Q 682 592 684 602 Q 684 609 660 626 C 646 636 638 635 608 632 Q 605 633 602 632 Q 494 602 407 587 C 377 582 380 549 410 551 Z" fill="lightgray" class="hide"/>
    <path d="M 508 429 Q 581 442 658 455 Q 716 468 726 475 Q 735 482 731 492 Q 724 504 694 513 Q 664 520 578 492 Q 436 458 319 449 Q 282 445 308 426 Q 344 402 420 415 Q 433 418 449 419 L 508 429 Z" fill="lightgray" class="hide"/>
    <path d="M 519 274 Q 633 286 800 283 Q 830 282 855 283 Q 877 282 883 292 Q 889 305 871 320 Q 814 363 772 355 Q 678 337 519 314 L 458 305 Q 320 290 162 272 Q 140 271 156 251 Q 172 235 191 229 Q 215 223 232 228 Q 334 255 451 267 L 519 274 Z" fill="lightgray" class="hide"/>
    <path d="M 519 314 Q 534 384 539 393 Q 546 400 540 411 Q 534 418 508 429 C 481 442 441 448 449 419 Q 467 367 458 305 L 451 267 Q 415 144 310 76 Q 265 49 185 15 Q 158 2 190 1 Q 211 -2 252 11 Q 304 23 350 47 Q 393 66 426 105 Q 469 153 504 253 L 519 314 Z" fill="lightgray" class="hide"/>
    <path d="M 504 253 Q 505 252 510 246 Q 666 18 719 -1 Q 797 -19 906 -7 Q 927 -6 929 -1 Q 932 6 916 14 Q 867 36 808 59 Q 679 116 541 254 Q 528 267 519 274 C 496 294 486 277 504 253 Z" fill="lightgray" class="hide"/></g><g transform="scale(1, -1) translate(0, -900)">
    <style type="text/css">
        .origin {display:none;}
        .hide {display:none;}
        .stroke {fill: #000000;}
        
.step1 {transform: translateX(1024px);}
.step2 {transform: translateX(2048px);}
.step3 {transform: translateX(3072px);}
.step4 {transform: translateX(4096px);}
.step5 {transform: translateX(5120px);}
.step6 {transform: translateX(6144px);}
.step7 {transform: translateX(7168px);}
.step8 {transform: translateX(8192px);}
.step9 {transform: translateX(9216px);}
.step10 {transform: translateX(10240px);}
.step11 {transform: translateX(11264px);}
.step12 {transform: translateX(12288px);}
.step13 {transform: translateX(13312px);}
.step14 {transform: translateX(14336px);}
.step15 {transform: translateX(15360px);}
.step16 {transform: translateX(16384px);}
.step17 {transform: translateX(17408px);}
.step18 {transform: translateX(18432px);}
.step19 {transform: translateX(19456px);}
.step20 {transform: translateX(20480px);}
.step21 {transform: translateX(21504px);}
.step22 {transform: translateX(22528px);}
.step23 {transform: translateX(23552px);}
.step24 {transform: translateX(24576px);}
.step25 {transform: translateX(25600px);}
.step26 {transform: translateX(26624px);}
.step27 {transform: translateX(27648px);}
.step28 {transform: translateX(28672px);}
.step29 {transform: translateX(29696px);}
    </style>

    <path d="M 334 759 Q 328 760 323 760 Q 310 763 307 757 Q 300 750 310 734 Q 341 679 361 585 Q 365 557 383 539 Q 402 517 407 534 Q 408 541 410 551 L 407 587 Q 403 602 382 723 C 377 753 364 756 334 759 Z" fill="lightgray" class="stroke step2"/>
    <path d="M 660 626 Q 687 705 721 731 Q 739 749 724 767 Q 655 824 599 802 Q 413 742 334 759 C 304 764 353 716 382 723 Q 607 774 626 756 Q 641 740 608 632 C 599 603 650 598 660 626 Z" fill="lightgray" class="stroke step2"/>
    <path d="M 410 551 Q 416 551 423 552 Q 501 571 672 591 Q 682 592 684 602 Q 684 609 660 626 C 646 636 638 635 608 632 Q 605 633 602 632 Q 494 602 407 587 C 377 582 380 549 410 551 Z" fill="lightgray" class="stroke step2"/>
    <path d="M 508 429 Q 581 442 658 455 Q 716 468 726 475 Q 735 482 731 492 Q 724 504 694 513 Q 664 520 578 492 Q 436 458 319 449 Q 282 445 308 426 Q 344 402 420 415 Q 433 418 449 419 L 508 429 Z" fill="lightgray" class="hide"/>
    <path d="M 519 274 Q 633 286 800 283 Q 830 282 855 283 Q 877 282 883 292 Q 889 305 871 320 Q 814 363 772 355 Q 678 337 519 314 L 458 305 Q 320 290 162 272 Q 140 271 156 251 Q 172 235 191 229 Q 215 223 232 228 Q 334 255 451 267 L 519 274 Z" fill="lightgray" class="hide"/>
    <path d="M 519 314 Q 534 384 539 393 Q 546 400 540 411 Q 534 418 508 429 C 481 442 441 448 449 419 Q 467 367 458 305 L 451 267 Q 415 144 310 76 Q 265 49 185 15 Q 158 2 190 1 Q 211 -2 252 11 Q 304 23 350 47 Q 393 66 426 105 Q 469 153 504 253 L 519 314 Z" fill="lightgray" class="hide"/>
    <path d="M 504 253 Q 505 252 510 246 Q 666 18 719 -1 Q 797 -19 906 -7 Q 927 -6 929 -1 Q 932 6 916 14 Q 867 36 808 59 Q 679 116 541 254 Q 528 267 519 274 C 496 294 486 277 504 253 Z" fill="lightgray" class="hide"/></g><g transform="scale(1, -1) translate(0, -900)">
    <style type="text/css">
        .origin {display:none;}
        .hide {display:none;}
        .stroke {fill: #000000;}
        
.step1 {transform: translateX(1024px);}
.step2 {transform: translateX(2048px);}
.step3 {transform: translateX(3072px);}
.step4 {transform: translateX(4096px);}
.step5 {transform: translateX(5120px);}
.step6 {transform: translateX(6144px);}
.step7 {transform: translateX(7168px);}
.step8 {transform: translateX(8192px);}
.step9 {transform: translateX(9216px);}
.step10 {transform: translateX(10240px);}
.step11 {transform: translateX(11264px);}
.step12 {transform: translateX(12288px);}
.step13 {transform: translateX(13312px);}
.step14 {transform: translateX(14336px);}
.step15 {transform: translateX(15360px);}
.step16 {transform: translateX(16384px);}
.step17 {transform: translateX(17408px);}
.step18 {transform: translateX(18432px);}
.step19 {transform: translateX(19456px);}
.step20 {transform: translateX(20480px);}
.step21 {transform: translateX(21504px);}
.step22 {transform: translateX(22528px);}
.step23 {transform: translateX(23552px);}
.step24 {transform: translateX(24576px);}
.step25 {transform: translateX(25600px);}
.step26 {transform: translateX(26624px);}
.step27 {transform: translateX(27648px);}
.step28 {transform: translateX(28672px);}
.step29 {transform: translateX(29696px);}
    </style>

    <path d="M 334 759 Q 328 760 323 760 Q 310 763 307 757 Q 300 750 310 734 Q 341 679 361 585 Q 365 557 383 539 Q 402 517 407 534 Q 408 541 410 551 L 407 587 Q 403 602 382 723 C 377 753 364 756 334 759 Z" fill="lightgray" class="stroke step3"/>
    <path d="M 660 626 Q 687 705 721 731 Q 739 749 724 767 Q 655 824 599 802 Q 413 742 334 759 C 304 764 353 716 382 723 Q 607 774 626 756 Q 641 740 608 632 C 599 603 650 598 660 626 Z" fill="lightgray" class="stroke step3"/>
    <path d="M 410 551 Q 416 551 423 552 Q 501 571 672 591 Q 682 592 684 602 Q 684 609 660 626 C 646 636 638 635 608 632 Q 605 633 602 632 Q 494 602 407 587 C 377 582 380 549 410 551 Z" fill="lightgray" class="stroke step3"/>
    <path d="M 508 429 Q 581 442 658 455 Q 716 468 726 475 Q 735 482 731 492 Q 724 504 694 513 Q 664 520 578 492 Q 436 458 319 449 Q 282 445 308 426 Q 344 402 420 415 Q 433 418 449 419 L 508 429 Z" fill="lightgray" class="stroke step3"/>
    <path d="M 519 274 Q 633 286 800 283 Q 830 282 855 283 Q 877 282 883 292 Q 889 305 871 320 Q 814 363 772 355 Q 678 337 519 314 L 458 305 Q 320 290 162 272 Q 140 271 156 251 Q 172 235 191 229 Q 215 223 232 228 Q 334 255 451 267 L 519 274 Z" fill="lightgray" class="hide"/>
    <path d="M 519 314 Q 534 384 539 393 Q 546 400 540 411 Q 534 418 508 429 C 481 442 441 448 449 419 Q 467 367 458 305 L 451 267 Q 415 144 310 76 Q 265 49 185 15 Q 158 2 190 1 Q 211 -2 252 11 Q 304 23 350 47 Q 393 66 426 105 Q 469 153 504 253 L 519 314 Z" fill="lightgray" class="hide"/>
    <path d="M 504 253 Q 505 252 510 246 Q 666 18 719 -1 Q 797 -19 906 -7 Q 927 -6 929 -1 Q 932 6 916 14 Q 867 36 808 59 Q 679 116 541 254 Q 528 267 519 274 C 496 294 486 277 504 253 Z" fill="lightgray" class="hide"/></g><g transform="scale(1, -1) translate(0, -900)">
    <style type="text/css">
        .origin {display:none;}
        .hide {display:none;}
        .stroke {fill: #000000;}
        
.step1 {transform: translateX(1024px);}
.step2 {transform: translateX(2048px);}
.step3 {transform: translateX(3072px);}
.step4 {transform: translateX(4096px);}
.step5 {transform: translateX(5120px);}
.step6 {transform: translateX(6144px);}
.step7 {transform: translateX(7168px);}
.step8 {transform: translateX(8192px);}
.step9 {transform: translateX(9216px);}
.step10 {transform: translateX(10240px);}
.step11 {transform: translateX(11264px);}
.step12 {transform: translateX(12288px);}
.step13 {transform: translateX(13312px);}
.step14 {transform: translateX(14336px);}
.step15 {transform: translateX(15360px);}
.step16 {transform: translateX(16384px);}
.step17 {transform: translateX(17408px);}
.step18 {transform: translateX(18432px);}
.step19 {transform: translateX(19456px);}
.step20 {transform: translateX(20480px);}
.step21 {transform: translateX(21504px);}
.step22 {transform: translateX(22528px);}
.step23 {transform: translateX(23552px);}
.step24 {transform: translateX(24576px);}
.step25 {transform: translateX(25600px);}
.step26 {transform: translateX(26624px);}
.step27 {transform: translateX(27648px);}
.step28 {transform: translateX(28672px);}
.step29 {transform: translateX(29696px);}
    </style>

    <path d="M 334 759 Q 328 760 323 760 Q 310 763 307 757 Q 300 750 310 734 Q 341 679 361 585 Q 365 557 383 539 Q 402 517 407 534 Q 408 541 410 551 L 407 587 Q 403 602 382 723 C 377 753 364 756 334 759 Z" fill="lightgray" class="stroke step4"/>
    <path d="M 660 626 Q 687 705 721 731 Q 739 749 724 767 Q 655 824 599 802 Q 413 742 334 759 C 304 764 353 716 382 723 Q 607 774 626 756 Q 641 740 608 632 C 599 603 650 598 660 626 Z" fill="lightgray" class="stroke step4"/>
    <path d="M 410 551 Q 416 551 423 552 Q 501 571 672 591 Q 682 592 684 602 Q 684 609 660 626 C 646 636 638 635 608 632 Q 605 633 602 632 Q 494 602 407 587 C 377 582 380 549 410 551 Z" fill="lightgray" class="stroke step4"/>
    <path d="M 508 429 Q 581 442 658 455 Q 716 468 726 475 Q 735 482 731 492 Q 724 504 694 513 Q 664 520 578 492 Q 436 458 319 449 Q 282 445 308 426 Q 344 402 420 415 Q 433 418 449 419 L 508 429 Z" fill="lightgray" class="stroke step4"/>
    <path d="M 519 274 Q 633 286 800 283 Q 830 282 855 283 Q 877 282 883 292 Q 889 305 871 320 Q 814 363 772 355 Q 678 337 519 314 L 458 305 Q 320 290 162 272 Q 140 271 156 251 Q 172 235 191 229 Q 215 223 232 228 Q 334 255 451 267 L 519 274 Z" fill="lightgray" class="stroke step4"/>
    <path d="M 519 314 Q 534 384 539 393 Q 546 400 540 411 Q 534 418 508 429 C 481 442 441 448 449 419 Q 467 367 458 305 L 451 267 Q 415 144 310 76 Q 265 49 185 15 Q 158 2 190 1 Q 211 -2 252 11 Q 304 23 350 47 Q 393 66 426 105 Q 469 153 504 253 L 519 314 Z" fill="lightgray" class="hide"/>
    <path d="M 504 253 Q 505 252 510 246 Q 666 18 719 -1 Q 797 -19 906 -7 Q 927 -6 929 -1 Q 932 6 916 14 Q 867 36 808 59 Q 679 116 541 254 Q 528 267 519 274 C 496 294 486 277 504 253 Z" fill="lightgray" class="hide"/></g><g transform="scale(1, -1) translate(0, -900)">
    <style type="text/css">
        .origin {display:none;}
        .hide {display:none;}
        .stroke {fill: #000000;}
        
.step1 {transform: translateX(1024px);}
.step2 {transform: translateX(2048px);}
.step3 {transform: translateX(3072px);}
.step4 {transform: translateX(4096px);}
.step5 {transform: translateX(5120px);}
.step6 {transform: translateX(6144px);}
.step7 {transform: translateX(7168px);}
.step8 {transform: translateX(8192px);}
.step9 {transform: translateX(9216px);}
.step10 {transform: translateX(10240px);}
.step11 {transform: translateX(11264px);}
.step12 {transform: translateX(12288px);}
.step13 {transform: translateX(13312px);}
.step14 {transform: translateX(14336px);}
.step15 {transform: translateX(15360px);}
.step16 {transform: translateX(16384px);}
.step17 {transform: translateX(17408px);}
.step18 {transform: translateX(18432px);}
.step19 {transform: translateX(19456px);}
.step20 {transform: translateX(20480px);}
.step21 {transform: translateX(21504px);}
.step22 {transform: translateX(22528px);}
.step23 {transform: translateX(23552px);}
.step24 {transform: translateX(24576px);}
.step25 {transform: translateX(25600px);}
.step26 {transform: translateX(26624px);}
.step27 {transform: translateX(27648px);}
.step28 {transform: translateX(28672px);}
.step29 {transform: translateX(29696px);}
    </style>

    <path d="M 334 759 Q 328 760 323 760 Q 310 763 307 757 Q 300 750 310 734 Q 341 679 361 585 Q 365 557 383 539 Q 402 517 407 534 Q 408 541 410 551 L 407 587 Q 403 602 382 723 C 377 753 364 756 334 759 Z" fill="lightgray" class="stroke step5"/>
    <path d="M 660 626 Q 687 705 721 731 Q 739 749 724 767 Q 655 824 599 802 Q 413 742 334 759 C 304 764 353 716 382 723 Q 607 774 626 756 Q 641 740 608 632 C 599 603 650 598 660 626 Z" fill="lightgray" class="stroke step5"/>
    <path d="M 410 551 Q 416 551 423 552 Q 501 571 672 591 Q 682 592 684 602 Q 684 609 660 626 C 646 636 638 635 608 632 Q 605 633 602 632 Q 494 602 407 587 C 377 582 380 549 410 551 Z" fill="lightgray" class="stroke step5"/>
    <path d="M 508 429 Q 581 442 658 455 Q 716 468 726 475 Q 735 482 731 492 Q 724 504 694 513 Q 664 520 578 492 Q 436 458 319 449 Q 282 445 308 426 Q 344 402 420 415 Q 433 418 449 419 L 508 429 Z" fill="lightgray" class="stroke step5"/>
    <path d="M 519 274 Q 633 286 800 283 Q 830 282 855 283 Q 877 282 883 292 Q 889 305 871 320 Q 814 363 772 355 Q 678 337 519 314 L 458 305 Q 320 290 162 272 Q 140 271 156 251 Q 172 235 191 229 Q 215 223 232 228 Q 334 255 451 267 L 519 274 Z" fill="lightgray" class="stroke step5"/>
    <path d="M 519 314 Q 534 384 539 393 Q 546 400 540 411 Q 534 418 508 429 C 481 442 441 448 449 419 Q 467 367 458 305 L 451 267 Q 415 144 310 76 Q 265 49 185 15 Q 158 2 190 1 Q 211 -2 252 11 Q 304 23 350 47 Q 393 66 426 105 Q 469 153 504 253 L 519 314 Z" fill="lightgray" class="stroke step5"/>
    <path d="M 504 253 Q 505 252 510 246 Q 666 18 719 -1 Q 797 -19 906 -7 Q 927 -6 929 -1 Q 932 6 916 14 Q 867 36 808 59 Q 679 116 541 254 Q 528 267 519 274 C 496 294 486 277 504 253 Z" fill="lightgray" class="hide"/></g><g transform="scale(1, -1) translate(0, -900)">
    <style type="text/css">
        .origin {display:none;}
        .hide {display:none;}
        .stroke {fill: #000000;}
        
.step1 {transform: translateX(1024px);}
.step2 {transform: translateX(2048px);}
.step3 {transform: translateX(3072px);}
.step4 {transform: translateX(4096px);}
.step5 {transform: translateX(5120px);}
.step6 {transform: translateX(6144px);}
.step7 {transform: translateX(7168px);}
.step8 {transform: translateX(8192px);}
.step9 {transform: translateX(9216px);}
.step10 {transform: translateX(10240px);}
.step11 {transform: translateX(11264px);}
.step12 {transform: translateX(12288px);}
.step13 {transform: translateX(13312px);}
.step14 {transform: translateX(14336px);}
.step15 {transform: translateX(15360px);}
.step16 {transform: translateX(16384px);}
.step17 {transform: translateX(17408px);}
.step18 {transform: translateX(18432px);}
.step19 {transform: translateX(19456px);}
.step20 {transform: translateX(20480px);}
.step21 {transform: translateX(21504px);}
.step22 {transform: translateX(22528px);}
.step23 {transform: translateX(23552px);}
.step24 {transform: translateX(24576px);}
.step25 {transform: translateX(25600px);}
.step26 {transform: translateX(26624px);}
.step27 {transform: translateX(27648px);}
.step28 {transform: translateX(28672px);}
.step29 {transform: translateX(29696px);}
    </style>

    <path d="M 334 759 Q 328 760 323 760 Q 310 763 307 757 Q 300 750 310 734 Q 341 679 361 585 Q 365 557 383 539 Q 402 517 407 534 Q 408 541 410 551 L 407 587 Q 403 602 382 723 C 377 753 364 756 334 759 Z" fill="lightgray" class="stroke step6"/>
    <path d="M 660 626 Q 687 705 721 731 Q 739 749 724 767 Q 655 824 599 802 Q 413 742 334 759 C 304 764 353 716 382 723 Q 607 774 626 756 Q 641 740 608 632 C 599 603 650 598 660 626 Z" fill="lightgray" class="stroke step6"/>
    <path d="M 410 551 Q 416 551 423 552 Q 501 571 672 591 Q 682 592 684 602 Q 684 609 660 626 C 646 636 638 635 608 632 Q 605 633 602 632 Q 494 602 407 587 C 377 582 380 549 410 551 Z" fill="lightgray" class="stroke step6"/>
    <path d="M 508 429 Q 581 442 658 455 Q 716 468 726 475 Q 735 482 731 492 Q 724 504 694 513 Q 664 520 578 492 Q 436 458 319 449 Q 282 445 308 426 Q 344 402 420 415 Q 433 418 449 419 L 508 429 Z" fill="lightgray" class="stroke step6"/>
    <path d="M 519 274 Q 633 286 800 283 Q 830 282 855 283 Q 877 282 883 292 Q 889 305 871 320 Q 814 363 772 355 Q 678 337 519 314 L 458 305 Q 320 290 162 272 Q 140 271 156 251 Q 172 235 191 229 Q 215 223 232 228 Q 334 255 451 267 L 519 274 Z" fill="lightgray" class="stroke step6"/>
    <path d="M 519 314 Q 534 384 539 393 Q 546 400 540 411 Q 534 418 508 429 C 481 442 441 448 449 419 Q 467 367 458 305 L 451 267 Q 415 144 310 76 Q 265 49 185 15 Q 158 2 190 1 Q 211 -2 252 11 Q 304 23 350 47 Q 393 66 426 105 Q 469 153 504 253 L 519 314 Z" fill="lightgray" class="stroke step6"/>
    <path d="M 504 253 Q 505 252 510 246 Q 666 18 719 -1 Q 797 -19 906 -7 Q 927 -6 929 -1 Q 932 6 916 14 Q 867 36 808 59 Q 679 116 541 254 Q 528 267 519 274 C 496 294 486 277 504 253 Z" fill="lightgray" class="stroke step6"/></g></svg>