<svg version="1.1" viewBox="0 0 10240 1024" xmlns="http://www.w3.org/2000/svg">
  
  <g transform="scale(1, -1) translate(0, -900)" class="origin">
    <style type="text/css">
        .origin {display:none;}
        .hide {display:none;}
        .stroke {fill: #000000;}
        
.step1 {transform: translateX(1024px);}
.step2 {transform: translateX(2048px);}
.step3 {transform: translateX(3072px);}
.step4 {transform: translateX(4096px);}
.step5 {transform: translateX(5120px);}
.step6 {transform: translateX(6144px);}
.step7 {transform: translateX(7168px);}
.step8 {transform: translateX(8192px);}
.step9 {transform: translateX(9216px);}
.step10 {transform: translateX(10240px);}
.step11 {transform: translateX(11264px);}
.step12 {transform: translateX(12288px);}
.step13 {transform: translateX(13312px);}
.step14 {transform: translateX(14336px);}
.step15 {transform: translateX(15360px);}
.step16 {transform: translateX(16384px);}
.step17 {transform: translateX(17408px);}
.step18 {transform: translateX(18432px);}
.step19 {transform: translateX(19456px);}
.step20 {transform: translateX(20480px);}
.step21 {transform: translateX(21504px);}
.step22 {transform: translateX(22528px);}
.step23 {transform: translateX(23552px);}
.step24 {transform: translateX(24576px);}
.step25 {transform: translateX(25600px);}
.step26 {transform: translateX(26624px);}
.step27 {transform: translateX(27648px);}
.step28 {transform: translateX(28672px);}
.step29 {transform: translateX(29696px);}
    </style>

    <path d="M 149 569 Q 136 576 108 582 Q 95 586 91 581 Q 84 575 92 557 Q 120 487 132 374 Q 133 340 152 317 Q 168 293 176 309 Q 183 327 182 359 L 178 396 Q 165 508 163 539 C 161 563 161 563 149 569 Z" fill="lightgray"/>
    <path d="M 317 415 Q 335 515 362 544 Q 386 572 360 588 Q 287 622 286 622 Q 276 622 267 615 Q 239 596 149 569 C 120 560 134 533 163 539 Q 170 540 180 543 Q 217 553 250 560 Q 272 564 277 556 Q 286 549 279 511 Q 272 468 262 418 C 256 389 312 386 317 415 Z" fill="lightgray"/>
    <path d="M 182 359 Q 228 371 332 379 Q 344 380 344 390 Q 344 399 317 415 L 262 418 L 261 418 Q 215 405 178 396 C 149 389 153 352 182 359 Z" fill="lightgray"/>
    <path d="M 634 626 Q 788 662 790 663 Q 800 670 795 680 Q 788 692 758 700 Q 733 706 637 676 L 580 662 Q 522 652 458 646 Q 421 640 447 622 Q 492 598 549 610 Q 562 614 581 616 L 634 626 Z" fill="lightgray"/>
    <path d="M 626 508 Q 651 515 747 528 Q 757 527 766 539 Q 766 549 745 559 Q 709 580 633 553 Q 630 553 629 552 L 581 541 Q 514 529 471 523 Q 444 519 466 503 Q 496 482 534 490 Q 555 496 581 499 L 626 508 Z" fill="lightgray"/>
    <path d="M 621 432 Q 624 471 626 508 L 629 552 Q 630 589 634 626 L 637 676 Q 655 772 650 781 Q 646 787 638 792 Q 602 811 578 815 Q 562 819 554 810 Q 547 803 555 787 Q 577 756 577 734 Q 578 700 580 662 L 581 616 Q 581 580 581 541 L 581 499 Q 580 465 579 425 C 578 395 619 402 621 432 Z" fill="lightgray"/>
    <path d="M 558 386 Q 660 407 827 410 Q 881 410 888 419 Q 892 431 877 443 Q 820 479 775 464 Q 714 451 621 432 L 579 425 Q 483 410 375 393 Q 356 390 370 375 Q 383 362 401 358 Q 420 354 435 358 Q 472 370 517 378 L 558 386 Z" fill="lightgray"/>
    <path d="M 557 304 Q 567 323 584 335 Q 591 339 591 348 Q 588 372 558 386 C 532 401 519 408 517 378 Q 517 302 392 186 Q 389 185 387 182 Q 350 148 258 82 Q 251 78 259 75 Q 310 75 423 161 Q 477 210 533 276 L 557 304 Z" fill="lightgray"/>
    <path d="M 662 117 Q 698 166 730 239 Q 743 267 765 285 Q 784 300 772 314 Q 759 327 728 340 Q 706 349 677 336 Q 652 326 620 317 Q 593 310 557 304 C 527 299 504 282 533 276 Q 567 266 611 278 Q 650 294 658 295 Q 679 291 670 267 Q 654 198 622 149 L 599 119 Q 533 44 397 8 Q 382 4 394 -5 Q 400 -9 443 -7 Q 551 2 633 82 L 662 117 Z" fill="lightgray"/>
    <path d="M 633 82 Q 741 -33 781 -32 Q 857 -31 920 -18 Q 953 -14 949 -4 Q 949 -1 794 45 Q 733 64 662 117 L 622 149 Q 598 170 575 192 Q 541 225 509 224 Q 493 224 490 219 Q 489 213 503 204 Q 527 191 599 119 L 633 82 Z" fill="lightgray"/></g>
<g transform="scale(1, -1) translate(0, -900)">
    <style type="text/css">
        .origin {display:none;}
        .hide {display:none;}
        .stroke {fill: #000000;}
        
.step1 {transform: translateX(1024px);}
.step2 {transform: translateX(2048px);}
.step3 {transform: translateX(3072px);}
.step4 {transform: translateX(4096px);}
.step5 {transform: translateX(5120px);}
.step6 {transform: translateX(6144px);}
.step7 {transform: translateX(7168px);}
.step8 {transform: translateX(8192px);}
.step9 {transform: translateX(9216px);}
.step10 {transform: translateX(10240px);}
.step11 {transform: translateX(11264px);}
.step12 {transform: translateX(12288px);}
.step13 {transform: translateX(13312px);}
.step14 {transform: translateX(14336px);}
.step15 {transform: translateX(15360px);}
.step16 {transform: translateX(16384px);}
.step17 {transform: translateX(17408px);}
.step18 {transform: translateX(18432px);}
.step19 {transform: translateX(19456px);}
.step20 {transform: translateX(20480px);}
.step21 {transform: translateX(21504px);}
.step22 {transform: translateX(22528px);}
.step23 {transform: translateX(23552px);}
.step24 {transform: translateX(24576px);}
.step25 {transform: translateX(25600px);}
.step26 {transform: translateX(26624px);}
.step27 {transform: translateX(27648px);}
.step28 {transform: translateX(28672px);}
.step29 {transform: translateX(29696px);}
    </style>

    <path d="M 149 569 Q 136 576 108 582 Q 95 586 91 581 Q 84 575 92 557 Q 120 487 132 374 Q 133 340 152 317 Q 168 293 176 309 Q 183 327 182 359 L 178 396 Q 165 508 163 539 C 161 563 161 563 149 569 Z" fill="lightgray" class="stroke step0"/>
    <path d="M 317 415 Q 335 515 362 544 Q 386 572 360 588 Q 287 622 286 622 Q 276 622 267 615 Q 239 596 149 569 C 120 560 134 533 163 539 Q 170 540 180 543 Q 217 553 250 560 Q 272 564 277 556 Q 286 549 279 511 Q 272 468 262 418 C 256 389 312 386 317 415 Z" fill="lightgray" class="hide"/>
    <path d="M 182 359 Q 228 371 332 379 Q 344 380 344 390 Q 344 399 317 415 L 262 418 L 261 418 Q 215 405 178 396 C 149 389 153 352 182 359 Z" fill="lightgray" class="hide"/>
    <path d="M 634 626 Q 788 662 790 663 Q 800 670 795 680 Q 788 692 758 700 Q 733 706 637 676 L 580 662 Q 522 652 458 646 Q 421 640 447 622 Q 492 598 549 610 Q 562 614 581 616 L 634 626 Z" fill="lightgray" class="hide"/>
    <path d="M 626 508 Q 651 515 747 528 Q 757 527 766 539 Q 766 549 745 559 Q 709 580 633 553 Q 630 553 629 552 L 581 541 Q 514 529 471 523 Q 444 519 466 503 Q 496 482 534 490 Q 555 496 581 499 L 626 508 Z" fill="lightgray" class="hide"/>
    <path d="M 621 432 Q 624 471 626 508 L 629 552 Q 630 589 634 626 L 637 676 Q 655 772 650 781 Q 646 787 638 792 Q 602 811 578 815 Q 562 819 554 810 Q 547 803 555 787 Q 577 756 577 734 Q 578 700 580 662 L 581 616 Q 581 580 581 541 L 581 499 Q 580 465 579 425 C 578 395 619 402 621 432 Z" fill="lightgray" class="hide"/>
    <path d="M 558 386 Q 660 407 827 410 Q 881 410 888 419 Q 892 431 877 443 Q 820 479 775 464 Q 714 451 621 432 L 579 425 Q 483 410 375 393 Q 356 390 370 375 Q 383 362 401 358 Q 420 354 435 358 Q 472 370 517 378 L 558 386 Z" fill="lightgray" class="hide"/>
    <path d="M 557 304 Q 567 323 584 335 Q 591 339 591 348 Q 588 372 558 386 C 532 401 519 408 517 378 Q 517 302 392 186 Q 389 185 387 182 Q 350 148 258 82 Q 251 78 259 75 Q 310 75 423 161 Q 477 210 533 276 L 557 304 Z" fill="lightgray" class="hide"/>
    <path d="M 662 117 Q 698 166 730 239 Q 743 267 765 285 Q 784 300 772 314 Q 759 327 728 340 Q 706 349 677 336 Q 652 326 620 317 Q 593 310 557 304 C 527 299 504 282 533 276 Q 567 266 611 278 Q 650 294 658 295 Q 679 291 670 267 Q 654 198 622 149 L 599 119 Q 533 44 397 8 Q 382 4 394 -5 Q 400 -9 443 -7 Q 551 2 633 82 L 662 117 Z" fill="lightgray" class="hide"/>
    <path d="M 633 82 Q 741 -33 781 -32 Q 857 -31 920 -18 Q 953 -14 949 -4 Q 949 -1 794 45 Q 733 64 662 117 L 622 149 Q 598 170 575 192 Q 541 225 509 224 Q 493 224 490 219 Q 489 213 503 204 Q 527 191 599 119 L 633 82 Z" fill="lightgray" class="hide"/></g><g transform="scale(1, -1) translate(0, -900)">
    <style type="text/css">
        .origin {display:none;}
        .hide {display:none;}
        .stroke {fill: #000000;}
        
.step1 {transform: translateX(1024px);}
.step2 {transform: translateX(2048px);}
.step3 {transform: translateX(3072px);}
.step4 {transform: translateX(4096px);}
.step5 {transform: translateX(5120px);}
.step6 {transform: translateX(6144px);}
.step7 {transform: translateX(7168px);}
.step8 {transform: translateX(8192px);}
.step9 {transform: translateX(9216px);}
.step10 {transform: translateX(10240px);}
.step11 {transform: translateX(11264px);}
.step12 {transform: translateX(12288px);}
.step13 {transform: translateX(13312px);}
.step14 {transform: translateX(14336px);}
.step15 {transform: translateX(15360px);}
.step16 {transform: translateX(16384px);}
.step17 {transform: translateX(17408px);}
.step18 {transform: translateX(18432px);}
.step19 {transform: translateX(19456px);}
.step20 {transform: translateX(20480px);}
.step21 {transform: translateX(21504px);}
.step22 {transform: translateX(22528px);}
.step23 {transform: translateX(23552px);}
.step24 {transform: translateX(24576px);}
.step25 {transform: translateX(25600px);}
.step26 {transform: translateX(26624px);}
.step27 {transform: translateX(27648px);}
.step28 {transform: translateX(28672px);}
.step29 {transform: translateX(29696px);}
    </style>

    <path d="M 149 569 Q 136 576 108 582 Q 95 586 91 581 Q 84 575 92 557 Q 120 487 132 374 Q 133 340 152 317 Q 168 293 176 309 Q 183 327 182 359 L 178 396 Q 165 508 163 539 C 161 563 161 563 149 569 Z" fill="lightgray" class="stroke step1"/>
    <path d="M 317 415 Q 335 515 362 544 Q 386 572 360 588 Q 287 622 286 622 Q 276 622 267 615 Q 239 596 149 569 C 120 560 134 533 163 539 Q 170 540 180 543 Q 217 553 250 560 Q 272 564 277 556 Q 286 549 279 511 Q 272 468 262 418 C 256 389 312 386 317 415 Z" fill="lightgray" class="stroke step1"/>
    <path d="M 182 359 Q 228 371 332 379 Q 344 380 344 390 Q 344 399 317 415 L 262 418 L 261 418 Q 215 405 178 396 C 149 389 153 352 182 359 Z" fill="lightgray" class="hide"/>
    <path d="M 634 626 Q 788 662 790 663 Q 800 670 795 680 Q 788 692 758 700 Q 733 706 637 676 L 580 662 Q 522 652 458 646 Q 421 640 447 622 Q 492 598 549 610 Q 562 614 581 616 L 634 626 Z" fill="lightgray" class="hide"/>
    <path d="M 626 508 Q 651 515 747 528 Q 757 527 766 539 Q 766 549 745 559 Q 709 580 633 553 Q 630 553 629 552 L 581 541 Q 514 529 471 523 Q 444 519 466 503 Q 496 482 534 490 Q 555 496 581 499 L 626 508 Z" fill="lightgray" class="hide"/>
    <path d="M 621 432 Q 624 471 626 508 L 629 552 Q 630 589 634 626 L 637 676 Q 655 772 650 781 Q 646 787 638 792 Q 602 811 578 815 Q 562 819 554 810 Q 547 803 555 787 Q 577 756 577 734 Q 578 700 580 662 L 581 616 Q 581 580 581 541 L 581 499 Q 580 465 579 425 C 578 395 619 402 621 432 Z" fill="lightgray" class="hide"/>
    <path d="M 558 386 Q 660 407 827 410 Q 881 410 888 419 Q 892 431 877 443 Q 820 479 775 464 Q 714 451 621 432 L 579 425 Q 483 410 375 393 Q 356 390 370 375 Q 383 362 401 358 Q 420 354 435 358 Q 472 370 517 378 L 558 386 Z" fill="lightgray" class="hide"/>
    <path d="M 557 304 Q 567 323 584 335 Q 591 339 591 348 Q 588 372 558 386 C 532 401 519 408 517 378 Q 517 302 392 186 Q 389 185 387 182 Q 350 148 258 82 Q 251 78 259 75 Q 310 75 423 161 Q 477 210 533 276 L 557 304 Z" fill="lightgray" class="hide"/>
    <path d="M 662 117 Q 698 166 730 239 Q 743 267 765 285 Q 784 300 772 314 Q 759 327 728 340 Q 706 349 677 336 Q 652 326 620 317 Q 593 310 557 304 C 527 299 504 282 533 276 Q 567 266 611 278 Q 650 294 658 295 Q 679 291 670 267 Q 654 198 622 149 L 599 119 Q 533 44 397 8 Q 382 4 394 -5 Q 400 -9 443 -7 Q 551 2 633 82 L 662 117 Z" fill="lightgray" class="hide"/>
    <path d="M 633 82 Q 741 -33 781 -32 Q 857 -31 920 -18 Q 953 -14 949 -4 Q 949 -1 794 45 Q 733 64 662 117 L 622 149 Q 598 170 575 192 Q 541 225 509 224 Q 493 224 490 219 Q 489 213 503 204 Q 527 191 599 119 L 633 82 Z" fill="lightgray" class="hide"/></g><g transform="scale(1, -1) translate(0, -900)">
    <style type="text/css">
        .origin {display:none;}
        .hide {display:none;}
        .stroke {fill: #000000;}
        
.step1 {transform: translateX(1024px);}
.step2 {transform: translateX(2048px);}
.step3 {transform: translateX(3072px);}
.step4 {transform: translateX(4096px);}
.step5 {transform: translateX(5120px);}
.step6 {transform: translateX(6144px);}
.step7 {transform: translateX(7168px);}
.step8 {transform: translateX(8192px);}
.step9 {transform: translateX(9216px);}
.step10 {transform: translateX(10240px);}
.step11 {transform: translateX(11264px);}
.step12 {transform: translateX(12288px);}
.step13 {transform: translateX(13312px);}
.step14 {transform: translateX(14336px);}
.step15 {transform: translateX(15360px);}
.step16 {transform: translateX(16384px);}
.step17 {transform: translateX(17408px);}
.step18 {transform: translateX(18432px);}
.step19 {transform: translateX(19456px);}
.step20 {transform: translateX(20480px);}
.step21 {transform: translateX(21504px);}
.step22 {transform: translateX(22528px);}
.step23 {transform: translateX(23552px);}
.step24 {transform: translateX(24576px);}
.step25 {transform: translateX(25600px);}
.step26 {transform: translateX(26624px);}
.step27 {transform: translateX(27648px);}
.step28 {transform: translateX(28672px);}
.step29 {transform: translateX(29696px);}
    </style>

    <path d="M 149 569 Q 136 576 108 582 Q 95 586 91 581 Q 84 575 92 557 Q 120 487 132 374 Q 133 340 152 317 Q 168 293 176 309 Q 183 327 182 359 L 178 396 Q 165 508 163 539 C 161 563 161 563 149 569 Z" fill="lightgray" class="stroke step2"/>
    <path d="M 317 415 Q 335 515 362 544 Q 386 572 360 588 Q 287 622 286 622 Q 276 622 267 615 Q 239 596 149 569 C 120 560 134 533 163 539 Q 170 540 180 543 Q 217 553 250 560 Q 272 564 277 556 Q 286 549 279 511 Q 272 468 262 418 C 256 389 312 386 317 415 Z" fill="lightgray" class="stroke step2"/>
    <path d="M 182 359 Q 228 371 332 379 Q 344 380 344 390 Q 344 399 317 415 L 262 418 L 261 418 Q 215 405 178 396 C 149 389 153 352 182 359 Z" fill="lightgray" class="stroke step2"/>
    <path d="M 634 626 Q 788 662 790 663 Q 800 670 795 680 Q 788 692 758 700 Q 733 706 637 676 L 580 662 Q 522 652 458 646 Q 421 640 447 622 Q 492 598 549 610 Q 562 614 581 616 L 634 626 Z" fill="lightgray" class="hide"/>
    <path d="M 626 508 Q 651 515 747 528 Q 757 527 766 539 Q 766 549 745 559 Q 709 580 633 553 Q 630 553 629 552 L 581 541 Q 514 529 471 523 Q 444 519 466 503 Q 496 482 534 490 Q 555 496 581 499 L 626 508 Z" fill="lightgray" class="hide"/>
    <path d="M 621 432 Q 624 471 626 508 L 629 552 Q 630 589 634 626 L 637 676 Q 655 772 650 781 Q 646 787 638 792 Q 602 811 578 815 Q 562 819 554 810 Q 547 803 555 787 Q 577 756 577 734 Q 578 700 580 662 L 581 616 Q 581 580 581 541 L 581 499 Q 580 465 579 425 C 578 395 619 402 621 432 Z" fill="lightgray" class="hide"/>
    <path d="M 558 386 Q 660 407 827 410 Q 881 410 888 419 Q 892 431 877 443 Q 820 479 775 464 Q 714 451 621 432 L 579 425 Q 483 410 375 393 Q 356 390 370 375 Q 383 362 401 358 Q 420 354 435 358 Q 472 370 517 378 L 558 386 Z" fill="lightgray" class="hide"/>
    <path d="M 557 304 Q 567 323 584 335 Q 591 339 591 348 Q 588 372 558 386 C 532 401 519 408 517 378 Q 517 302 392 186 Q 389 185 387 182 Q 350 148 258 82 Q 251 78 259 75 Q 310 75 423 161 Q 477 210 533 276 L 557 304 Z" fill="lightgray" class="hide"/>
    <path d="M 662 117 Q 698 166 730 239 Q 743 267 765 285 Q 784 300 772 314 Q 759 327 728 340 Q 706 349 677 336 Q 652 326 620 317 Q 593 310 557 304 C 527 299 504 282 533 276 Q 567 266 611 278 Q 650 294 658 295 Q 679 291 670 267 Q 654 198 622 149 L 599 119 Q 533 44 397 8 Q 382 4 394 -5 Q 400 -9 443 -7 Q 551 2 633 82 L 662 117 Z" fill="lightgray" class="hide"/>
    <path d="M 633 82 Q 741 -33 781 -32 Q 857 -31 920 -18 Q 953 -14 949 -4 Q 949 -1 794 45 Q 733 64 662 117 L 622 149 Q 598 170 575 192 Q 541 225 509 224 Q 493 224 490 219 Q 489 213 503 204 Q 527 191 599 119 L 633 82 Z" fill="lightgray" class="hide"/></g><g transform="scale(1, -1) translate(0, -900)">
    <style type="text/css">
        .origin {display:none;}
        .hide {display:none;}
        .stroke {fill: #000000;}
        
.step1 {transform: translateX(1024px);}
.step2 {transform: translateX(2048px);}
.step3 {transform: translateX(3072px);}
.step4 {transform: translateX(4096px);}
.step5 {transform: translateX(5120px);}
.step6 {transform: translateX(6144px);}
.step7 {transform: translateX(7168px);}
.step8 {transform: translateX(8192px);}
.step9 {transform: translateX(9216px);}
.step10 {transform: translateX(10240px);}
.step11 {transform: translateX(11264px);}
.step12 {transform: translateX(12288px);}
.step13 {transform: translateX(13312px);}
.step14 {transform: translateX(14336px);}
.step15 {transform: translateX(15360px);}
.step16 {transform: translateX(16384px);}
.step17 {transform: translateX(17408px);}
.step18 {transform: translateX(18432px);}
.step19 {transform: translateX(19456px);}
.step20 {transform: translateX(20480px);}
.step21 {transform: translateX(21504px);}
.step22 {transform: translateX(22528px);}
.step23 {transform: translateX(23552px);}
.step24 {transform: translateX(24576px);}
.step25 {transform: translateX(25600px);}
.step26 {transform: translateX(26624px);}
.step27 {transform: translateX(27648px);}
.step28 {transform: translateX(28672px);}
.step29 {transform: translateX(29696px);}
    </style>

    <path d="M 149 569 Q 136 576 108 582 Q 95 586 91 581 Q 84 575 92 557 Q 120 487 132 374 Q 133 340 152 317 Q 168 293 176 309 Q 183 327 182 359 L 178 396 Q 165 508 163 539 C 161 563 161 563 149 569 Z" fill="lightgray" class="stroke step3"/>
    <path d="M 317 415 Q 335 515 362 544 Q 386 572 360 588 Q 287 622 286 622 Q 276 622 267 615 Q 239 596 149 569 C 120 560 134 533 163 539 Q 170 540 180 543 Q 217 553 250 560 Q 272 564 277 556 Q 286 549 279 511 Q 272 468 262 418 C 256 389 312 386 317 415 Z" fill="lightgray" class="stroke step3"/>
    <path d="M 182 359 Q 228 371 332 379 Q 344 380 344 390 Q 344 399 317 415 L 262 418 L 261 418 Q 215 405 178 396 C 149 389 153 352 182 359 Z" fill="lightgray" class="stroke step3"/>
    <path d="M 634 626 Q 788 662 790 663 Q 800 670 795 680 Q 788 692 758 700 Q 733 706 637 676 L 580 662 Q 522 652 458 646 Q 421 640 447 622 Q 492 598 549 610 Q 562 614 581 616 L 634 626 Z" fill="lightgray" class="stroke step3"/>
    <path d="M 626 508 Q 651 515 747 528 Q 757 527 766 539 Q 766 549 745 559 Q 709 580 633 553 Q 630 553 629 552 L 581 541 Q 514 529 471 523 Q 444 519 466 503 Q 496 482 534 490 Q 555 496 581 499 L 626 508 Z" fill="lightgray" class="hide"/>
    <path d="M 621 432 Q 624 471 626 508 L 629 552 Q 630 589 634 626 L 637 676 Q 655 772 650 781 Q 646 787 638 792 Q 602 811 578 815 Q 562 819 554 810 Q 547 803 555 787 Q 577 756 577 734 Q 578 700 580 662 L 581 616 Q 581 580 581 541 L 581 499 Q 580 465 579 425 C 578 395 619 402 621 432 Z" fill="lightgray" class="hide"/>
    <path d="M 558 386 Q 660 407 827 410 Q 881 410 888 419 Q 892 431 877 443 Q 820 479 775 464 Q 714 451 621 432 L 579 425 Q 483 410 375 393 Q 356 390 370 375 Q 383 362 401 358 Q 420 354 435 358 Q 472 370 517 378 L 558 386 Z" fill="lightgray" class="hide"/>
    <path d="M 557 304 Q 567 323 584 335 Q 591 339 591 348 Q 588 372 558 386 C 532 401 519 408 517 378 Q 517 302 392 186 Q 389 185 387 182 Q 350 148 258 82 Q 251 78 259 75 Q 310 75 423 161 Q 477 210 533 276 L 557 304 Z" fill="lightgray" class="hide"/>
    <path d="M 662 117 Q 698 166 730 239 Q 743 267 765 285 Q 784 300 772 314 Q 759 327 728 340 Q 706 349 677 336 Q 652 326 620 317 Q 593 310 557 304 C 527 299 504 282 533 276 Q 567 266 611 278 Q 650 294 658 295 Q 679 291 670 267 Q 654 198 622 149 L 599 119 Q 533 44 397 8 Q 382 4 394 -5 Q 400 -9 443 -7 Q 551 2 633 82 L 662 117 Z" fill="lightgray" class="hide"/>
    <path d="M 633 82 Q 741 -33 781 -32 Q 857 -31 920 -18 Q 953 -14 949 -4 Q 949 -1 794 45 Q 733 64 662 117 L 622 149 Q 598 170 575 192 Q 541 225 509 224 Q 493 224 490 219 Q 489 213 503 204 Q 527 191 599 119 L 633 82 Z" fill="lightgray" class="hide"/></g><g transform="scale(1, -1) translate(0, -900)">
    <style type="text/css">
        .origin {display:none;}
        .hide {display:none;}
        .stroke {fill: #000000;}
        
.step1 {transform: translateX(1024px);}
.step2 {transform: translateX(2048px);}
.step3 {transform: translateX(3072px);}
.step4 {transform: translateX(4096px);}
.step5 {transform: translateX(5120px);}
.step6 {transform: translateX(6144px);}
.step7 {transform: translateX(7168px);}
.step8 {transform: translateX(8192px);}
.step9 {transform: translateX(9216px);}
.step10 {transform: translateX(10240px);}
.step11 {transform: translateX(11264px);}
.step12 {transform: translateX(12288px);}
.step13 {transform: translateX(13312px);}
.step14 {transform: translateX(14336px);}
.step15 {transform: translateX(15360px);}
.step16 {transform: translateX(16384px);}
.step17 {transform: translateX(17408px);}
.step18 {transform: translateX(18432px);}
.step19 {transform: translateX(19456px);}
.step20 {transform: translateX(20480px);}
.step21 {transform: translateX(21504px);}
.step22 {transform: translateX(22528px);}
.step23 {transform: translateX(23552px);}
.step24 {transform: translateX(24576px);}
.step25 {transform: translateX(25600px);}
.step26 {transform: translateX(26624px);}
.step27 {transform: translateX(27648px);}
.step28 {transform: translateX(28672px);}
.step29 {transform: translateX(29696px);}
    </style>

    <path d="M 149 569 Q 136 576 108 582 Q 95 586 91 581 Q 84 575 92 557 Q 120 487 132 374 Q 133 340 152 317 Q 168 293 176 309 Q 183 327 182 359 L 178 396 Q 165 508 163 539 C 161 563 161 563 149 569 Z" fill="lightgray" class="stroke step4"/>
    <path d="M 317 415 Q 335 515 362 544 Q 386 572 360 588 Q 287 622 286 622 Q 276 622 267 615 Q 239 596 149 569 C 120 560 134 533 163 539 Q 170 540 180 543 Q 217 553 250 560 Q 272 564 277 556 Q 286 549 279 511 Q 272 468 262 418 C 256 389 312 386 317 415 Z" fill="lightgray" class="stroke step4"/>
    <path d="M 182 359 Q 228 371 332 379 Q 344 380 344 390 Q 344 399 317 415 L 262 418 L 261 418 Q 215 405 178 396 C 149 389 153 352 182 359 Z" fill="lightgray" class="stroke step4"/>
    <path d="M 634 626 Q 788 662 790 663 Q 800 670 795 680 Q 788 692 758 700 Q 733 706 637 676 L 580 662 Q 522 652 458 646 Q 421 640 447 622 Q 492 598 549 610 Q 562 614 581 616 L 634 626 Z" fill="lightgray" class="stroke step4"/>
    <path d="M 626 508 Q 651 515 747 528 Q 757 527 766 539 Q 766 549 745 559 Q 709 580 633 553 Q 630 553 629 552 L 581 541 Q 514 529 471 523 Q 444 519 466 503 Q 496 482 534 490 Q 555 496 581 499 L 626 508 Z" fill="lightgray" class="stroke step4"/>
    <path d="M 621 432 Q 624 471 626 508 L 629 552 Q 630 589 634 626 L 637 676 Q 655 772 650 781 Q 646 787 638 792 Q 602 811 578 815 Q 562 819 554 810 Q 547 803 555 787 Q 577 756 577 734 Q 578 700 580 662 L 581 616 Q 581 580 581 541 L 581 499 Q 580 465 579 425 C 578 395 619 402 621 432 Z" fill="lightgray" class="hide"/>
    <path d="M 558 386 Q 660 407 827 410 Q 881 410 888 419 Q 892 431 877 443 Q 820 479 775 464 Q 714 451 621 432 L 579 425 Q 483 410 375 393 Q 356 390 370 375 Q 383 362 401 358 Q 420 354 435 358 Q 472 370 517 378 L 558 386 Z" fill="lightgray" class="hide"/>
    <path d="M 557 304 Q 567 323 584 335 Q 591 339 591 348 Q 588 372 558 386 C 532 401 519 408 517 378 Q 517 302 392 186 Q 389 185 387 182 Q 350 148 258 82 Q 251 78 259 75 Q 310 75 423 161 Q 477 210 533 276 L 557 304 Z" fill="lightgray" class="hide"/>
    <path d="M 662 117 Q 698 166 730 239 Q 743 267 765 285 Q 784 300 772 314 Q 759 327 728 340 Q 706 349 677 336 Q 652 326 620 317 Q 593 310 557 304 C 527 299 504 282 533 276 Q 567 266 611 278 Q 650 294 658 295 Q 679 291 670 267 Q 654 198 622 149 L 599 119 Q 533 44 397 8 Q 382 4 394 -5 Q 400 -9 443 -7 Q 551 2 633 82 L 662 117 Z" fill="lightgray" class="hide"/>
    <path d="M 633 82 Q 741 -33 781 -32 Q 857 -31 920 -18 Q 953 -14 949 -4 Q 949 -1 794 45 Q 733 64 662 117 L 622 149 Q 598 170 575 192 Q 541 225 509 224 Q 493 224 490 219 Q 489 213 503 204 Q 527 191 599 119 L 633 82 Z" fill="lightgray" class="hide"/></g><g transform="scale(1, -1) translate(0, -900)">
    <style type="text/css">
        .origin {display:none;}
        .hide {display:none;}
        .stroke {fill: #000000;}
        
.step1 {transform: translateX(1024px);}
.step2 {transform: translateX(2048px);}
.step3 {transform: translateX(3072px);}
.step4 {transform: translateX(4096px);}
.step5 {transform: translateX(5120px);}
.step6 {transform: translateX(6144px);}
.step7 {transform: translateX(7168px);}
.step8 {transform: translateX(8192px);}
.step9 {transform: translateX(9216px);}
.step10 {transform: translateX(10240px);}
.step11 {transform: translateX(11264px);}
.step12 {transform: translateX(12288px);}
.step13 {transform: translateX(13312px);}
.step14 {transform: translateX(14336px);}
.step15 {transform: translateX(15360px);}
.step16 {transform: translateX(16384px);}
.step17 {transform: translateX(17408px);}
.step18 {transform: translateX(18432px);}
.step19 {transform: translateX(19456px);}
.step20 {transform: translateX(20480px);}
.step21 {transform: translateX(21504px);}
.step22 {transform: translateX(22528px);}
.step23 {transform: translateX(23552px);}
.step24 {transform: translateX(24576px);}
.step25 {transform: translateX(25600px);}
.step26 {transform: translateX(26624px);}
.step27 {transform: translateX(27648px);}
.step28 {transform: translateX(28672px);}
.step29 {transform: translateX(29696px);}
    </style>

    <path d="M 149 569 Q 136 576 108 582 Q 95 586 91 581 Q 84 575 92 557 Q 120 487 132 374 Q 133 340 152 317 Q 168 293 176 309 Q 183 327 182 359 L 178 396 Q 165 508 163 539 C 161 563 161 563 149 569 Z" fill="lightgray" class="stroke step5"/>
    <path d="M 317 415 Q 335 515 362 544 Q 386 572 360 588 Q 287 622 286 622 Q 276 622 267 615 Q 239 596 149 569 C 120 560 134 533 163 539 Q 170 540 180 543 Q 217 553 250 560 Q 272 564 277 556 Q 286 549 279 511 Q 272 468 262 418 C 256 389 312 386 317 415 Z" fill="lightgray" class="stroke step5"/>
    <path d="M 182 359 Q 228 371 332 379 Q 344 380 344 390 Q 344 399 317 415 L 262 418 L 261 418 Q 215 405 178 396 C 149 389 153 352 182 359 Z" fill="lightgray" class="stroke step5"/>
    <path d="M 634 626 Q 788 662 790 663 Q 800 670 795 680 Q 788 692 758 700 Q 733 706 637 676 L 580 662 Q 522 652 458 646 Q 421 640 447 622 Q 492 598 549 610 Q 562 614 581 616 L 634 626 Z" fill="lightgray" class="stroke step5"/>
    <path d="M 626 508 Q 651 515 747 528 Q 757 527 766 539 Q 766 549 745 559 Q 709 580 633 553 Q 630 553 629 552 L 581 541 Q 514 529 471 523 Q 444 519 466 503 Q 496 482 534 490 Q 555 496 581 499 L 626 508 Z" fill="lightgray" class="stroke step5"/>
    <path d="M 621 432 Q 624 471 626 508 L 629 552 Q 630 589 634 626 L 637 676 Q 655 772 650 781 Q 646 787 638 792 Q 602 811 578 815 Q 562 819 554 810 Q 547 803 555 787 Q 577 756 577 734 Q 578 700 580 662 L 581 616 Q 581 580 581 541 L 581 499 Q 580 465 579 425 C 578 395 619 402 621 432 Z" fill="lightgray" class="stroke step5"/>
    <path d="M 558 386 Q 660 407 827 410 Q 881 410 888 419 Q 892 431 877 443 Q 820 479 775 464 Q 714 451 621 432 L 579 425 Q 483 410 375 393 Q 356 390 370 375 Q 383 362 401 358 Q 420 354 435 358 Q 472 370 517 378 L 558 386 Z" fill="lightgray" class="hide"/>
    <path d="M 557 304 Q 567 323 584 335 Q 591 339 591 348 Q 588 372 558 386 C 532 401 519 408 517 378 Q 517 302 392 186 Q 389 185 387 182 Q 350 148 258 82 Q 251 78 259 75 Q 310 75 423 161 Q 477 210 533 276 L 557 304 Z" fill="lightgray" class="hide"/>
    <path d="M 662 117 Q 698 166 730 239 Q 743 267 765 285 Q 784 300 772 314 Q 759 327 728 340 Q 706 349 677 336 Q 652 326 620 317 Q 593 310 557 304 C 527 299 504 282 533 276 Q 567 266 611 278 Q 650 294 658 295 Q 679 291 670 267 Q 654 198 622 149 L 599 119 Q 533 44 397 8 Q 382 4 394 -5 Q 400 -9 443 -7 Q 551 2 633 82 L 662 117 Z" fill="lightgray" class="hide"/>
    <path d="M 633 82 Q 741 -33 781 -32 Q 857 -31 920 -18 Q 953 -14 949 -4 Q 949 -1 794 45 Q 733 64 662 117 L 622 149 Q 598 170 575 192 Q 541 225 509 224 Q 493 224 490 219 Q 489 213 503 204 Q 527 191 599 119 L 633 82 Z" fill="lightgray" class="hide"/></g><g transform="scale(1, -1) translate(0, -900)">
    <style type="text/css">
        .origin {display:none;}
        .hide {display:none;}
        .stroke {fill: #000000;}
        
.step1 {transform: translateX(1024px);}
.step2 {transform: translateX(2048px);}
.step3 {transform: translateX(3072px);}
.step4 {transform: translateX(4096px);}
.step5 {transform: translateX(5120px);}
.step6 {transform: translateX(6144px);}
.step7 {transform: translateX(7168px);}
.step8 {transform: translateX(8192px);}
.step9 {transform: translateX(9216px);}
.step10 {transform: translateX(10240px);}
.step11 {transform: translateX(11264px);}
.step12 {transform: translateX(12288px);}
.step13 {transform: translateX(13312px);}
.step14 {transform: translateX(14336px);}
.step15 {transform: translateX(15360px);}
.step16 {transform: translateX(16384px);}
.step17 {transform: translateX(17408px);}
.step18 {transform: translateX(18432px);}
.step19 {transform: translateX(19456px);}
.step20 {transform: translateX(20480px);}
.step21 {transform: translateX(21504px);}
.step22 {transform: translateX(22528px);}
.step23 {transform: translateX(23552px);}
.step24 {transform: translateX(24576px);}
.step25 {transform: translateX(25600px);}
.step26 {transform: translateX(26624px);}
.step27 {transform: translateX(27648px);}
.step28 {transform: translateX(28672px);}
.step29 {transform: translateX(29696px);}
    </style>

    <path d="M 149 569 Q 136 576 108 582 Q 95 586 91 581 Q 84 575 92 557 Q 120 487 132 374 Q 133 340 152 317 Q 168 293 176 309 Q 183 327 182 359 L 178 396 Q 165 508 163 539 C 161 563 161 563 149 569 Z" fill="lightgray" class="stroke step6"/>
    <path d="M 317 415 Q 335 515 362 544 Q 386 572 360 588 Q 287 622 286 622 Q 276 622 267 615 Q 239 596 149 569 C 120 560 134 533 163 539 Q 170 540 180 543 Q 217 553 250 560 Q 272 564 277 556 Q 286 549 279 511 Q 272 468 262 418 C 256 389 312 386 317 415 Z" fill="lightgray" class="stroke step6"/>
    <path d="M 182 359 Q 228 371 332 379 Q 344 380 344 390 Q 344 399 317 415 L 262 418 L 261 418 Q 215 405 178 396 C 149 389 153 352 182 359 Z" fill="lightgray" class="stroke step6"/>
    <path d="M 634 626 Q 788 662 790 663 Q 800 670 795 680 Q 788 692 758 700 Q 733 706 637 676 L 580 662 Q 522 652 458 646 Q 421 640 447 622 Q 492 598 549 610 Q 562 614 581 616 L 634 626 Z" fill="lightgray" class="stroke step6"/>
    <path d="M 626 508 Q 651 515 747 528 Q 757 527 766 539 Q 766 549 745 559 Q 709 580 633 553 Q 630 553 629 552 L 581 541 Q 514 529 471 523 Q 444 519 466 503 Q 496 482 534 490 Q 555 496 581 499 L 626 508 Z" fill="lightgray" class="stroke step6"/>
    <path d="M 621 432 Q 624 471 626 508 L 629 552 Q 630 589 634 626 L 637 676 Q 655 772 650 781 Q 646 787 638 792 Q 602 811 578 815 Q 562 819 554 810 Q 547 803 555 787 Q 577 756 577 734 Q 578 700 580 662 L 581 616 Q 581 580 581 541 L 581 499 Q 580 465 579 425 C 578 395 619 402 621 432 Z" fill="lightgray" class="stroke step6"/>
    <path d="M 558 386 Q 660 407 827 410 Q 881 410 888 419 Q 892 431 877 443 Q 820 479 775 464 Q 714 451 621 432 L 579 425 Q 483 410 375 393 Q 356 390 370 375 Q 383 362 401 358 Q 420 354 435 358 Q 472 370 517 378 L 558 386 Z" fill="lightgray" class="stroke step6"/>
    <path d="M 557 304 Q 567 323 584 335 Q 591 339 591 348 Q 588 372 558 386 C 532 401 519 408 517 378 Q 517 302 392 186 Q 389 185 387 182 Q 350 148 258 82 Q 251 78 259 75 Q 310 75 423 161 Q 477 210 533 276 L 557 304 Z" fill="lightgray" class="hide"/>
    <path d="M 662 117 Q 698 166 730 239 Q 743 267 765 285 Q 784 300 772 314 Q 759 327 728 340 Q 706 349 677 336 Q 652 326 620 317 Q 593 310 557 304 C 527 299 504 282 533 276 Q 567 266 611 278 Q 650 294 658 295 Q 679 291 670 267 Q 654 198 622 149 L 599 119 Q 533 44 397 8 Q 382 4 394 -5 Q 400 -9 443 -7 Q 551 2 633 82 L 662 117 Z" fill="lightgray" class="hide"/>
    <path d="M 633 82 Q 741 -33 781 -32 Q 857 -31 920 -18 Q 953 -14 949 -4 Q 949 -1 794 45 Q 733 64 662 117 L 622 149 Q 598 170 575 192 Q 541 225 509 224 Q 493 224 490 219 Q 489 213 503 204 Q 527 191 599 119 L 633 82 Z" fill="lightgray" class="hide"/></g><g transform="scale(1, -1) translate(0, -900)">
    <style type="text/css">
        .origin {display:none;}
        .hide {display:none;}
        .stroke {fill: #000000;}
        
.step1 {transform: translateX(1024px);}
.step2 {transform: translateX(2048px);}
.step3 {transform: translateX(3072px);}
.step4 {transform: translateX(4096px);}
.step5 {transform: translateX(5120px);}
.step6 {transform: translateX(6144px);}
.step7 {transform: translateX(7168px);}
.step8 {transform: translateX(8192px);}
.step9 {transform: translateX(9216px);}
.step10 {transform: translateX(10240px);}
.step11 {transform: translateX(11264px);}
.step12 {transform: translateX(12288px);}
.step13 {transform: translateX(13312px);}
.step14 {transform: translateX(14336px);}
.step15 {transform: translateX(15360px);}
.step16 {transform: translateX(16384px);}
.step17 {transform: translateX(17408px);}
.step18 {transform: translateX(18432px);}
.step19 {transform: translateX(19456px);}
.step20 {transform: translateX(20480px);}
.step21 {transform: translateX(21504px);}
.step22 {transform: translateX(22528px);}
.step23 {transform: translateX(23552px);}
.step24 {transform: translateX(24576px);}
.step25 {transform: translateX(25600px);}
.step26 {transform: translateX(26624px);}
.step27 {transform: translateX(27648px);}
.step28 {transform: translateX(28672px);}
.step29 {transform: translateX(29696px);}
    </style>

    <path d="M 149 569 Q 136 576 108 582 Q 95 586 91 581 Q 84 575 92 557 Q 120 487 132 374 Q 133 340 152 317 Q 168 293 176 309 Q 183 327 182 359 L 178 396 Q 165 508 163 539 C 161 563 161 563 149 569 Z" fill="lightgray" class="stroke step7"/>
    <path d="M 317 415 Q 335 515 362 544 Q 386 572 360 588 Q 287 622 286 622 Q 276 622 267 615 Q 239 596 149 569 C 120 560 134 533 163 539 Q 170 540 180 543 Q 217 553 250 560 Q 272 564 277 556 Q 286 549 279 511 Q 272 468 262 418 C 256 389 312 386 317 415 Z" fill="lightgray" class="stroke step7"/>
    <path d="M 182 359 Q 228 371 332 379 Q 344 380 344 390 Q 344 399 317 415 L 262 418 L 261 418 Q 215 405 178 396 C 149 389 153 352 182 359 Z" fill="lightgray" class="stroke step7"/>
    <path d="M 634 626 Q 788 662 790 663 Q 800 670 795 680 Q 788 692 758 700 Q 733 706 637 676 L 580 662 Q 522 652 458 646 Q 421 640 447 622 Q 492 598 549 610 Q 562 614 581 616 L 634 626 Z" fill="lightgray" class="stroke step7"/>
    <path d="M 626 508 Q 651 515 747 528 Q 757 527 766 539 Q 766 549 745 559 Q 709 580 633 553 Q 630 553 629 552 L 581 541 Q 514 529 471 523 Q 444 519 466 503 Q 496 482 534 490 Q 555 496 581 499 L 626 508 Z" fill="lightgray" class="stroke step7"/>
    <path d="M 621 432 Q 624 471 626 508 L 629 552 Q 630 589 634 626 L 637 676 Q 655 772 650 781 Q 646 787 638 792 Q 602 811 578 815 Q 562 819 554 810 Q 547 803 555 787 Q 577 756 577 734 Q 578 700 580 662 L 581 616 Q 581 580 581 541 L 581 499 Q 580 465 579 425 C 578 395 619 402 621 432 Z" fill="lightgray" class="stroke step7"/>
    <path d="M 558 386 Q 660 407 827 410 Q 881 410 888 419 Q 892 431 877 443 Q 820 479 775 464 Q 714 451 621 432 L 579 425 Q 483 410 375 393 Q 356 390 370 375 Q 383 362 401 358 Q 420 354 435 358 Q 472 370 517 378 L 558 386 Z" fill="lightgray" class="stroke step7"/>
    <path d="M 557 304 Q 567 323 584 335 Q 591 339 591 348 Q 588 372 558 386 C 532 401 519 408 517 378 Q 517 302 392 186 Q 389 185 387 182 Q 350 148 258 82 Q 251 78 259 75 Q 310 75 423 161 Q 477 210 533 276 L 557 304 Z" fill="lightgray" class="stroke step7"/>
    <path d="M 662 117 Q 698 166 730 239 Q 743 267 765 285 Q 784 300 772 314 Q 759 327 728 340 Q 706 349 677 336 Q 652 326 620 317 Q 593 310 557 304 C 527 299 504 282 533 276 Q 567 266 611 278 Q 650 294 658 295 Q 679 291 670 267 Q 654 198 622 149 L 599 119 Q 533 44 397 8 Q 382 4 394 -5 Q 400 -9 443 -7 Q 551 2 633 82 L 662 117 Z" fill="lightgray" class="hide"/>
    <path d="M 633 82 Q 741 -33 781 -32 Q 857 -31 920 -18 Q 953 -14 949 -4 Q 949 -1 794 45 Q 733 64 662 117 L 622 149 Q 598 170 575 192 Q 541 225 509 224 Q 493 224 490 219 Q 489 213 503 204 Q 527 191 599 119 L 633 82 Z" fill="lightgray" class="hide"/></g><g transform="scale(1, -1) translate(0, -900)">
    <style type="text/css">
        .origin {display:none;}
        .hide {display:none;}
        .stroke {fill: #000000;}
        
.step1 {transform: translateX(1024px);}
.step2 {transform: translateX(2048px);}
.step3 {transform: translateX(3072px);}
.step4 {transform: translateX(4096px);}
.step5 {transform: translateX(5120px);}
.step6 {transform: translateX(6144px);}
.step7 {transform: translateX(7168px);}
.step8 {transform: translateX(8192px);}
.step9 {transform: translateX(9216px);}
.step10 {transform: translateX(10240px);}
.step11 {transform: translateX(11264px);}
.step12 {transform: translateX(12288px);}
.step13 {transform: translateX(13312px);}
.step14 {transform: translateX(14336px);}
.step15 {transform: translateX(15360px);}
.step16 {transform: translateX(16384px);}
.step17 {transform: translateX(17408px);}
.step18 {transform: translateX(18432px);}
.step19 {transform: translateX(19456px);}
.step20 {transform: translateX(20480px);}
.step21 {transform: translateX(21504px);}
.step22 {transform: translateX(22528px);}
.step23 {transform: translateX(23552px);}
.step24 {transform: translateX(24576px);}
.step25 {transform: translateX(25600px);}
.step26 {transform: translateX(26624px);}
.step27 {transform: translateX(27648px);}
.step28 {transform: translateX(28672px);}
.step29 {transform: translateX(29696px);}
    </style>

    <path d="M 149 569 Q 136 576 108 582 Q 95 586 91 581 Q 84 575 92 557 Q 120 487 132 374 Q 133 340 152 317 Q 168 293 176 309 Q 183 327 182 359 L 178 396 Q 165 508 163 539 C 161 563 161 563 149 569 Z" fill="lightgray" class="stroke step8"/>
    <path d="M 317 415 Q 335 515 362 544 Q 386 572 360 588 Q 287 622 286 622 Q 276 622 267 615 Q 239 596 149 569 C 120 560 134 533 163 539 Q 170 540 180 543 Q 217 553 250 560 Q 272 564 277 556 Q 286 549 279 511 Q 272 468 262 418 C 256 389 312 386 317 415 Z" fill="lightgray" class="stroke step8"/>
    <path d="M 182 359 Q 228 371 332 379 Q 344 380 344 390 Q 344 399 317 415 L 262 418 L 261 418 Q 215 405 178 396 C 149 389 153 352 182 359 Z" fill="lightgray" class="stroke step8"/>
    <path d="M 634 626 Q 788 662 790 663 Q 800 670 795 680 Q 788 692 758 700 Q 733 706 637 676 L 580 662 Q 522 652 458 646 Q 421 640 447 622 Q 492 598 549 610 Q 562 614 581 616 L 634 626 Z" fill="lightgray" class="stroke step8"/>
    <path d="M 626 508 Q 651 515 747 528 Q 757 527 766 539 Q 766 549 745 559 Q 709 580 633 553 Q 630 553 629 552 L 581 541 Q 514 529 471 523 Q 444 519 466 503 Q 496 482 534 490 Q 555 496 581 499 L 626 508 Z" fill="lightgray" class="stroke step8"/>
    <path d="M 621 432 Q 624 471 626 508 L 629 552 Q 630 589 634 626 L 637 676 Q 655 772 650 781 Q 646 787 638 792 Q 602 811 578 815 Q 562 819 554 810 Q 547 803 555 787 Q 577 756 577 734 Q 578 700 580 662 L 581 616 Q 581 580 581 541 L 581 499 Q 580 465 579 425 C 578 395 619 402 621 432 Z" fill="lightgray" class="stroke step8"/>
    <path d="M 558 386 Q 660 407 827 410 Q 881 410 888 419 Q 892 431 877 443 Q 820 479 775 464 Q 714 451 621 432 L 579 425 Q 483 410 375 393 Q 356 390 370 375 Q 383 362 401 358 Q 420 354 435 358 Q 472 370 517 378 L 558 386 Z" fill="lightgray" class="stroke step8"/>
    <path d="M 557 304 Q 567 323 584 335 Q 591 339 591 348 Q 588 372 558 386 C 532 401 519 408 517 378 Q 517 302 392 186 Q 389 185 387 182 Q 350 148 258 82 Q 251 78 259 75 Q 310 75 423 161 Q 477 210 533 276 L 557 304 Z" fill="lightgray" class="stroke step8"/>
    <path d="M 662 117 Q 698 166 730 239 Q 743 267 765 285 Q 784 300 772 314 Q 759 327 728 340 Q 706 349 677 336 Q 652 326 620 317 Q 593 310 557 304 C 527 299 504 282 533 276 Q 567 266 611 278 Q 650 294 658 295 Q 679 291 670 267 Q 654 198 622 149 L 599 119 Q 533 44 397 8 Q 382 4 394 -5 Q 400 -9 443 -7 Q 551 2 633 82 L 662 117 Z" fill="lightgray" class="stroke step8"/>
    <path d="M 633 82 Q 741 -33 781 -32 Q 857 -31 920 -18 Q 953 -14 949 -4 Q 949 -1 794 45 Q 733 64 662 117 L 622 149 Q 598 170 575 192 Q 541 225 509 224 Q 493 224 490 219 Q 489 213 503 204 Q 527 191 599 119 L 633 82 Z" fill="lightgray" class="hide"/></g><g transform="scale(1, -1) translate(0, -900)">
    <style type="text/css">
        .origin {display:none;}
        .hide {display:none;}
        .stroke {fill: #000000;}
        
.step1 {transform: translateX(1024px);}
.step2 {transform: translateX(2048px);}
.step3 {transform: translateX(3072px);}
.step4 {transform: translateX(4096px);}
.step5 {transform: translateX(5120px);}
.step6 {transform: translateX(6144px);}
.step7 {transform: translateX(7168px);}
.step8 {transform: translateX(8192px);}
.step9 {transform: translateX(9216px);}
.step10 {transform: translateX(10240px);}
.step11 {transform: translateX(11264px);}
.step12 {transform: translateX(12288px);}
.step13 {transform: translateX(13312px);}
.step14 {transform: translateX(14336px);}
.step15 {transform: translateX(15360px);}
.step16 {transform: translateX(16384px);}
.step17 {transform: translateX(17408px);}
.step18 {transform: translateX(18432px);}
.step19 {transform: translateX(19456px);}
.step20 {transform: translateX(20480px);}
.step21 {transform: translateX(21504px);}
.step22 {transform: translateX(22528px);}
.step23 {transform: translateX(23552px);}
.step24 {transform: translateX(24576px);}
.step25 {transform: translateX(25600px);}
.step26 {transform: translateX(26624px);}
.step27 {transform: translateX(27648px);}
.step28 {transform: translateX(28672px);}
.step29 {transform: translateX(29696px);}
    </style>

    <path d="M 149 569 Q 136 576 108 582 Q 95 586 91 581 Q 84 575 92 557 Q 120 487 132 374 Q 133 340 152 317 Q 168 293 176 309 Q 183 327 182 359 L 178 396 Q 165 508 163 539 C 161 563 161 563 149 569 Z" fill="lightgray" class="stroke step9"/>
    <path d="M 317 415 Q 335 515 362 544 Q 386 572 360 588 Q 287 622 286 622 Q 276 622 267 615 Q 239 596 149 569 C 120 560 134 533 163 539 Q 170 540 180 543 Q 217 553 250 560 Q 272 564 277 556 Q 286 549 279 511 Q 272 468 262 418 C 256 389 312 386 317 415 Z" fill="lightgray" class="stroke step9"/>
    <path d="M 182 359 Q 228 371 332 379 Q 344 380 344 390 Q 344 399 317 415 L 262 418 L 261 418 Q 215 405 178 396 C 149 389 153 352 182 359 Z" fill="lightgray" class="stroke step9"/>
    <path d="M 634 626 Q 788 662 790 663 Q 800 670 795 680 Q 788 692 758 700 Q 733 706 637 676 L 580 662 Q 522 652 458 646 Q 421 640 447 622 Q 492 598 549 610 Q 562 614 581 616 L 634 626 Z" fill="lightgray" class="stroke step9"/>
    <path d="M 626 508 Q 651 515 747 528 Q 757 527 766 539 Q 766 549 745 559 Q 709 580 633 553 Q 630 553 629 552 L 581 541 Q 514 529 471 523 Q 444 519 466 503 Q 496 482 534 490 Q 555 496 581 499 L 626 508 Z" fill="lightgray" class="stroke step9"/>
    <path d="M 621 432 Q 624 471 626 508 L 629 552 Q 630 589 634 626 L 637 676 Q 655 772 650 781 Q 646 787 638 792 Q 602 811 578 815 Q 562 819 554 810 Q 547 803 555 787 Q 577 756 577 734 Q 578 700 580 662 L 581 616 Q 581 580 581 541 L 581 499 Q 580 465 579 425 C 578 395 619 402 621 432 Z" fill="lightgray" class="stroke step9"/>
    <path d="M 558 386 Q 660 407 827 410 Q 881 410 888 419 Q 892 431 877 443 Q 820 479 775 464 Q 714 451 621 432 L 579 425 Q 483 410 375 393 Q 356 390 370 375 Q 383 362 401 358 Q 420 354 435 358 Q 472 370 517 378 L 558 386 Z" fill="lightgray" class="stroke step9"/>
    <path d="M 557 304 Q 567 323 584 335 Q 591 339 591 348 Q 588 372 558 386 C 532 401 519 408 517 378 Q 517 302 392 186 Q 389 185 387 182 Q 350 148 258 82 Q 251 78 259 75 Q 310 75 423 161 Q 477 210 533 276 L 557 304 Z" fill="lightgray" class="stroke step9"/>
    <path d="M 662 117 Q 698 166 730 239 Q 743 267 765 285 Q 784 300 772 314 Q 759 327 728 340 Q 706 349 677 336 Q 652 326 620 317 Q 593 310 557 304 C 527 299 504 282 533 276 Q 567 266 611 278 Q 650 294 658 295 Q 679 291 670 267 Q 654 198 622 149 L 599 119 Q 533 44 397 8 Q 382 4 394 -5 Q 400 -9 443 -7 Q 551 2 633 82 L 662 117 Z" fill="lightgray" class="stroke step9"/>
    <path d="M 633 82 Q 741 -33 781 -32 Q 857 -31 920 -18 Q 953 -14 949 -4 Q 949 -1 794 45 Q 733 64 662 117 L 622 149 Q 598 170 575 192 Q 541 225 509 224 Q 493 224 490 219 Q 489 213 503 204 Q 527 191 599 119 L 633 82 Z" fill="lightgray" class="stroke step9"/></g></svg>