<svg version="1.1" viewBox="0 0 11264 1024" xmlns="http://www.w3.org/2000/svg">
  
  <g transform="scale(1, -1) translate(0, -900)" class="origin">
    <style type="text/css">
        .origin {display:none;}
        .hide {display:none;}
        .stroke {fill: #000000;}
        
.step1 {transform: translateX(1024px);}
.step2 {transform: translateX(2048px);}
.step3 {transform: translateX(3072px);}
.step4 {transform: translateX(4096px);}
.step5 {transform: translateX(5120px);}
.step6 {transform: translateX(6144px);}
.step7 {transform: translateX(7168px);}
.step8 {transform: translateX(8192px);}
.step9 {transform: translateX(9216px);}
.step10 {transform: translateX(10240px);}
.step11 {transform: translateX(11264px);}
.step12 {transform: translateX(12288px);}
.step13 {transform: translateX(13312px);}
.step14 {transform: translateX(14336px);}
.step15 {transform: translateX(15360px);}
.step16 {transform: translateX(16384px);}
.step17 {transform: translateX(17408px);}
.step18 {transform: translateX(18432px);}
.step19 {transform: translateX(19456px);}
.step20 {transform: translateX(20480px);}
.step21 {transform: translateX(21504px);}
.step22 {transform: translateX(22528px);}
.step23 {transform: translateX(23552px);}
.step24 {transform: translateX(24576px);}
.step25 {transform: translateX(25600px);}
.step26 {transform: translateX(26624px);}
.step27 {transform: translateX(27648px);}
.step28 {transform: translateX(28672px);}
.step29 {transform: translateX(29696px);}
    </style>

    <path d="M 139 560 Q 126 567 96 574 Q 83 578 79 573 Q 72 566 80 549 Q 108 480 120 369 Q 121 336 140 313 Q 156 289 163 305 Q 170 323 169 355 L 167 385 Q 152 503 151 533 C 150 555 150 555 139 560 Z" fill="lightgray"/>
    <path d="M 307 418 Q 323 512 348 543 Q 370 570 346 583 Q 327 593 298 610 Q 279 620 260 608 Q 224 583 139 560 C 110 552 123 521 151 533 Q 154 537 238 558 Q 263 565 269 555 Q 279 548 271 506 Q 264 463 253 413 C 247 384 302 388 307 418 Z" fill="lightgray"/>
    <path d="M 169 355 Q 176 354 189 357 Q 231 370 324 387 Q 334 388 334 397 Q 334 404 307 418 C 292 426 281 422 253 413 Q 205 397 167 385 C 138 376 139 356 169 355 Z" fill="lightgray"/>
    <path d="M 557 773 Q 582 751 609 726 Q 624 713 640 714 Q 652 714 657 729 Q 661 745 651 775 Q 641 802 551 823 Q 535 826 528 823 Q 522 819 525 805 Q 529 795 557 773 Z" fill="lightgray"/>
    <path d="M 748 525 Q 778 591 810 612 Q 826 630 813 648 Q 738 709 683 679 Q 605 648 476 623 C 447 617 455 584 484 591 Q 494 594 686 640 Q 708 647 719 637 Q 726 628 722 610 Q 710 570 697 537 C 686 509 735 498 748 525 Z" fill="lightgray"/>
    <path d="M 462 464 Q 480 452 499 457 Q 578 476 752 497 Q 762 498 764 507 Q 764 514 748 525 C 725 542 725 542 697 537 Q 690 537 687 535 Q 564 501 466 487 Q 465 487 465 486 C 436 479 436 478 462 464 Z" fill="lightgray"/>
    <path d="M 476 623 Q 475 624 473 625 Q 427 655 411 653 Q 390 652 404 628 Q 431 571 394 373 Q 381 292 329 199 Q 296 136 224 77 Q 179 46 167 29 Q 164 22 176 21 Q 192 20 215 33 Q 269 61 302 93 Q 407 189 447 388 Q 454 424 462 464 L 465 486 Q 469 523 476 562 Q 480 581 484 591 C 491 614 491 614 476 623 Z" fill="lightgray"/>
    <path d="M 632 285 Q 776 315 783 321 Q 792 328 787 337 Q 780 347 752 355 Q 724 361 694 350 Q 667 341 640 333 L 581 318 Q 532 309 477 304 Q 443 298 467 282 Q 506 258 563 271 Q 569 272 577 274 L 632 285 Z" fill="lightgray"/>
    <path d="M 626 259 Q 629 272 632 285 L 640 333 Q 641 339 642 345 Q 646 369 650 379 Q 657 385 651 395 Q 647 402 619 412 Q 589 427 575 422 Q 565 416 573 401 Q 585 367 581 318 L 577 274 Q 555 141 444 62 Q 416 46 379 25 Q 357 12 384 13 Q 432 10 506 56 Q 581 98 619 232 L 626 259 Z" fill="lightgray"/>
    <path d="M 619 232 Q 692 127 785 16 Q 803 -2 831 0 Q 928 4 958 10 Q 967 13 968 17 Q 968 21 956 28 Q 812 89 767 127 Q 701 184 626 259 C 605 280 602 257 619 232 Z" fill="lightgray"/>
    <path d="M 785 411 Q 810 389 838 360 Q 851 347 865 348 Q 875 348 881 361 Q 885 374 878 403 Q 869 434 781 458 Q 766 462 760 459 Q 756 455 756 443 Q 760 433 785 411 Z" fill="lightgray"/></g>
<g transform="scale(1, -1) translate(0, -900)">
    <style type="text/css">
        .origin {display:none;}
        .hide {display:none;}
        .stroke {fill: #000000;}
        
.step1 {transform: translateX(1024px);}
.step2 {transform: translateX(2048px);}
.step3 {transform: translateX(3072px);}
.step4 {transform: translateX(4096px);}
.step5 {transform: translateX(5120px);}
.step6 {transform: translateX(6144px);}
.step7 {transform: translateX(7168px);}
.step8 {transform: translateX(8192px);}
.step9 {transform: translateX(9216px);}
.step10 {transform: translateX(10240px);}
.step11 {transform: translateX(11264px);}
.step12 {transform: translateX(12288px);}
.step13 {transform: translateX(13312px);}
.step14 {transform: translateX(14336px);}
.step15 {transform: translateX(15360px);}
.step16 {transform: translateX(16384px);}
.step17 {transform: translateX(17408px);}
.step18 {transform: translateX(18432px);}
.step19 {transform: translateX(19456px);}
.step20 {transform: translateX(20480px);}
.step21 {transform: translateX(21504px);}
.step22 {transform: translateX(22528px);}
.step23 {transform: translateX(23552px);}
.step24 {transform: translateX(24576px);}
.step25 {transform: translateX(25600px);}
.step26 {transform: translateX(26624px);}
.step27 {transform: translateX(27648px);}
.step28 {transform: translateX(28672px);}
.step29 {transform: translateX(29696px);}
    </style>

    <path d="M 139 560 Q 126 567 96 574 Q 83 578 79 573 Q 72 566 80 549 Q 108 480 120 369 Q 121 336 140 313 Q 156 289 163 305 Q 170 323 169 355 L 167 385 Q 152 503 151 533 C 150 555 150 555 139 560 Z" fill="lightgray" class="stroke step0"/>
    <path d="M 307 418 Q 323 512 348 543 Q 370 570 346 583 Q 327 593 298 610 Q 279 620 260 608 Q 224 583 139 560 C 110 552 123 521 151 533 Q 154 537 238 558 Q 263 565 269 555 Q 279 548 271 506 Q 264 463 253 413 C 247 384 302 388 307 418 Z" fill="lightgray" class="hide"/>
    <path d="M 169 355 Q 176 354 189 357 Q 231 370 324 387 Q 334 388 334 397 Q 334 404 307 418 C 292 426 281 422 253 413 Q 205 397 167 385 C 138 376 139 356 169 355 Z" fill="lightgray" class="hide"/>
    <path d="M 557 773 Q 582 751 609 726 Q 624 713 640 714 Q 652 714 657 729 Q 661 745 651 775 Q 641 802 551 823 Q 535 826 528 823 Q 522 819 525 805 Q 529 795 557 773 Z" fill="lightgray" class="hide"/>
    <path d="M 748 525 Q 778 591 810 612 Q 826 630 813 648 Q 738 709 683 679 Q 605 648 476 623 C 447 617 455 584 484 591 Q 494 594 686 640 Q 708 647 719 637 Q 726 628 722 610 Q 710 570 697 537 C 686 509 735 498 748 525 Z" fill="lightgray" class="hide"/>
    <path d="M 462 464 Q 480 452 499 457 Q 578 476 752 497 Q 762 498 764 507 Q 764 514 748 525 C 725 542 725 542 697 537 Q 690 537 687 535 Q 564 501 466 487 Q 465 487 465 486 C 436 479 436 478 462 464 Z" fill="lightgray" class="hide"/>
    <path d="M 476 623 Q 475 624 473 625 Q 427 655 411 653 Q 390 652 404 628 Q 431 571 394 373 Q 381 292 329 199 Q 296 136 224 77 Q 179 46 167 29 Q 164 22 176 21 Q 192 20 215 33 Q 269 61 302 93 Q 407 189 447 388 Q 454 424 462 464 L 465 486 Q 469 523 476 562 Q 480 581 484 591 C 491 614 491 614 476 623 Z" fill="lightgray" class="hide"/>
    <path d="M 632 285 Q 776 315 783 321 Q 792 328 787 337 Q 780 347 752 355 Q 724 361 694 350 Q 667 341 640 333 L 581 318 Q 532 309 477 304 Q 443 298 467 282 Q 506 258 563 271 Q 569 272 577 274 L 632 285 Z" fill="lightgray" class="hide"/>
    <path d="M 626 259 Q 629 272 632 285 L 640 333 Q 641 339 642 345 Q 646 369 650 379 Q 657 385 651 395 Q 647 402 619 412 Q 589 427 575 422 Q 565 416 573 401 Q 585 367 581 318 L 577 274 Q 555 141 444 62 Q 416 46 379 25 Q 357 12 384 13 Q 432 10 506 56 Q 581 98 619 232 L 626 259 Z" fill="lightgray" class="hide"/>
    <path d="M 619 232 Q 692 127 785 16 Q 803 -2 831 0 Q 928 4 958 10 Q 967 13 968 17 Q 968 21 956 28 Q 812 89 767 127 Q 701 184 626 259 C 605 280 602 257 619 232 Z" fill="lightgray" class="hide"/>
    <path d="M 785 411 Q 810 389 838 360 Q 851 347 865 348 Q 875 348 881 361 Q 885 374 878 403 Q 869 434 781 458 Q 766 462 760 459 Q 756 455 756 443 Q 760 433 785 411 Z" fill="lightgray" class="hide"/></g><g transform="scale(1, -1) translate(0, -900)">
    <style type="text/css">
        .origin {display:none;}
        .hide {display:none;}
        .stroke {fill: #000000;}
        
.step1 {transform: translateX(1024px);}
.step2 {transform: translateX(2048px);}
.step3 {transform: translateX(3072px);}
.step4 {transform: translateX(4096px);}
.step5 {transform: translateX(5120px);}
.step6 {transform: translateX(6144px);}
.step7 {transform: translateX(7168px);}
.step8 {transform: translateX(8192px);}
.step9 {transform: translateX(9216px);}
.step10 {transform: translateX(10240px);}
.step11 {transform: translateX(11264px);}
.step12 {transform: translateX(12288px);}
.step13 {transform: translateX(13312px);}
.step14 {transform: translateX(14336px);}
.step15 {transform: translateX(15360px);}
.step16 {transform: translateX(16384px);}
.step17 {transform: translateX(17408px);}
.step18 {transform: translateX(18432px);}
.step19 {transform: translateX(19456px);}
.step20 {transform: translateX(20480px);}
.step21 {transform: translateX(21504px);}
.step22 {transform: translateX(22528px);}
.step23 {transform: translateX(23552px);}
.step24 {transform: translateX(24576px);}
.step25 {transform: translateX(25600px);}
.step26 {transform: translateX(26624px);}
.step27 {transform: translateX(27648px);}
.step28 {transform: translateX(28672px);}
.step29 {transform: translateX(29696px);}
    </style>

    <path d="M 139 560 Q 126 567 96 574 Q 83 578 79 573 Q 72 566 80 549 Q 108 480 120 369 Q 121 336 140 313 Q 156 289 163 305 Q 170 323 169 355 L 167 385 Q 152 503 151 533 C 150 555 150 555 139 560 Z" fill="lightgray" class="stroke step1"/>
    <path d="M 307 418 Q 323 512 348 543 Q 370 570 346 583 Q 327 593 298 610 Q 279 620 260 608 Q 224 583 139 560 C 110 552 123 521 151 533 Q 154 537 238 558 Q 263 565 269 555 Q 279 548 271 506 Q 264 463 253 413 C 247 384 302 388 307 418 Z" fill="lightgray" class="stroke step1"/>
    <path d="M 169 355 Q 176 354 189 357 Q 231 370 324 387 Q 334 388 334 397 Q 334 404 307 418 C 292 426 281 422 253 413 Q 205 397 167 385 C 138 376 139 356 169 355 Z" fill="lightgray" class="hide"/>
    <path d="M 557 773 Q 582 751 609 726 Q 624 713 640 714 Q 652 714 657 729 Q 661 745 651 775 Q 641 802 551 823 Q 535 826 528 823 Q 522 819 525 805 Q 529 795 557 773 Z" fill="lightgray" class="hide"/>
    <path d="M 748 525 Q 778 591 810 612 Q 826 630 813 648 Q 738 709 683 679 Q 605 648 476 623 C 447 617 455 584 484 591 Q 494 594 686 640 Q 708 647 719 637 Q 726 628 722 610 Q 710 570 697 537 C 686 509 735 498 748 525 Z" fill="lightgray" class="hide"/>
    <path d="M 462 464 Q 480 452 499 457 Q 578 476 752 497 Q 762 498 764 507 Q 764 514 748 525 C 725 542 725 542 697 537 Q 690 537 687 535 Q 564 501 466 487 Q 465 487 465 486 C 436 479 436 478 462 464 Z" fill="lightgray" class="hide"/>
    <path d="M 476 623 Q 475 624 473 625 Q 427 655 411 653 Q 390 652 404 628 Q 431 571 394 373 Q 381 292 329 199 Q 296 136 224 77 Q 179 46 167 29 Q 164 22 176 21 Q 192 20 215 33 Q 269 61 302 93 Q 407 189 447 388 Q 454 424 462 464 L 465 486 Q 469 523 476 562 Q 480 581 484 591 C 491 614 491 614 476 623 Z" fill="lightgray" class="hide"/>
    <path d="M 632 285 Q 776 315 783 321 Q 792 328 787 337 Q 780 347 752 355 Q 724 361 694 350 Q 667 341 640 333 L 581 318 Q 532 309 477 304 Q 443 298 467 282 Q 506 258 563 271 Q 569 272 577 274 L 632 285 Z" fill="lightgray" class="hide"/>
    <path d="M 626 259 Q 629 272 632 285 L 640 333 Q 641 339 642 345 Q 646 369 650 379 Q 657 385 651 395 Q 647 402 619 412 Q 589 427 575 422 Q 565 416 573 401 Q 585 367 581 318 L 577 274 Q 555 141 444 62 Q 416 46 379 25 Q 357 12 384 13 Q 432 10 506 56 Q 581 98 619 232 L 626 259 Z" fill="lightgray" class="hide"/>
    <path d="M 619 232 Q 692 127 785 16 Q 803 -2 831 0 Q 928 4 958 10 Q 967 13 968 17 Q 968 21 956 28 Q 812 89 767 127 Q 701 184 626 259 C 605 280 602 257 619 232 Z" fill="lightgray" class="hide"/>
    <path d="M 785 411 Q 810 389 838 360 Q 851 347 865 348 Q 875 348 881 361 Q 885 374 878 403 Q 869 434 781 458 Q 766 462 760 459 Q 756 455 756 443 Q 760 433 785 411 Z" fill="lightgray" class="hide"/></g><g transform="scale(1, -1) translate(0, -900)">
    <style type="text/css">
        .origin {display:none;}
        .hide {display:none;}
        .stroke {fill: #000000;}
        
.step1 {transform: translateX(1024px);}
.step2 {transform: translateX(2048px);}
.step3 {transform: translateX(3072px);}
.step4 {transform: translateX(4096px);}
.step5 {transform: translateX(5120px);}
.step6 {transform: translateX(6144px);}
.step7 {transform: translateX(7168px);}
.step8 {transform: translateX(8192px);}
.step9 {transform: translateX(9216px);}
.step10 {transform: translateX(10240px);}
.step11 {transform: translateX(11264px);}
.step12 {transform: translateX(12288px);}
.step13 {transform: translateX(13312px);}
.step14 {transform: translateX(14336px);}
.step15 {transform: translateX(15360px);}
.step16 {transform: translateX(16384px);}
.step17 {transform: translateX(17408px);}
.step18 {transform: translateX(18432px);}
.step19 {transform: translateX(19456px);}
.step20 {transform: translateX(20480px);}
.step21 {transform: translateX(21504px);}
.step22 {transform: translateX(22528px);}
.step23 {transform: translateX(23552px);}
.step24 {transform: translateX(24576px);}
.step25 {transform: translateX(25600px);}
.step26 {transform: translateX(26624px);}
.step27 {transform: translateX(27648px);}
.step28 {transform: translateX(28672px);}
.step29 {transform: translateX(29696px);}
    </style>

    <path d="M 139 560 Q 126 567 96 574 Q 83 578 79 573 Q 72 566 80 549 Q 108 480 120 369 Q 121 336 140 313 Q 156 289 163 305 Q 170 323 169 355 L 167 385 Q 152 503 151 533 C 150 555 150 555 139 560 Z" fill="lightgray" class="stroke step2"/>
    <path d="M 307 418 Q 323 512 348 543 Q 370 570 346 583 Q 327 593 298 610 Q 279 620 260 608 Q 224 583 139 560 C 110 552 123 521 151 533 Q 154 537 238 558 Q 263 565 269 555 Q 279 548 271 506 Q 264 463 253 413 C 247 384 302 388 307 418 Z" fill="lightgray" class="stroke step2"/>
    <path d="M 169 355 Q 176 354 189 357 Q 231 370 324 387 Q 334 388 334 397 Q 334 404 307 418 C 292 426 281 422 253 413 Q 205 397 167 385 C 138 376 139 356 169 355 Z" fill="lightgray" class="stroke step2"/>
    <path d="M 557 773 Q 582 751 609 726 Q 624 713 640 714 Q 652 714 657 729 Q 661 745 651 775 Q 641 802 551 823 Q 535 826 528 823 Q 522 819 525 805 Q 529 795 557 773 Z" fill="lightgray" class="hide"/>
    <path d="M 748 525 Q 778 591 810 612 Q 826 630 813 648 Q 738 709 683 679 Q 605 648 476 623 C 447 617 455 584 484 591 Q 494 594 686 640 Q 708 647 719 637 Q 726 628 722 610 Q 710 570 697 537 C 686 509 735 498 748 525 Z" fill="lightgray" class="hide"/>
    <path d="M 462 464 Q 480 452 499 457 Q 578 476 752 497 Q 762 498 764 507 Q 764 514 748 525 C 725 542 725 542 697 537 Q 690 537 687 535 Q 564 501 466 487 Q 465 487 465 486 C 436 479 436 478 462 464 Z" fill="lightgray" class="hide"/>
    <path d="M 476 623 Q 475 624 473 625 Q 427 655 411 653 Q 390 652 404 628 Q 431 571 394 373 Q 381 292 329 199 Q 296 136 224 77 Q 179 46 167 29 Q 164 22 176 21 Q 192 20 215 33 Q 269 61 302 93 Q 407 189 447 388 Q 454 424 462 464 L 465 486 Q 469 523 476 562 Q 480 581 484 591 C 491 614 491 614 476 623 Z" fill="lightgray" class="hide"/>
    <path d="M 632 285 Q 776 315 783 321 Q 792 328 787 337 Q 780 347 752 355 Q 724 361 694 350 Q 667 341 640 333 L 581 318 Q 532 309 477 304 Q 443 298 467 282 Q 506 258 563 271 Q 569 272 577 274 L 632 285 Z" fill="lightgray" class="hide"/>
    <path d="M 626 259 Q 629 272 632 285 L 640 333 Q 641 339 642 345 Q 646 369 650 379 Q 657 385 651 395 Q 647 402 619 412 Q 589 427 575 422 Q 565 416 573 401 Q 585 367 581 318 L 577 274 Q 555 141 444 62 Q 416 46 379 25 Q 357 12 384 13 Q 432 10 506 56 Q 581 98 619 232 L 626 259 Z" fill="lightgray" class="hide"/>
    <path d="M 619 232 Q 692 127 785 16 Q 803 -2 831 0 Q 928 4 958 10 Q 967 13 968 17 Q 968 21 956 28 Q 812 89 767 127 Q 701 184 626 259 C 605 280 602 257 619 232 Z" fill="lightgray" class="hide"/>
    <path d="M 785 411 Q 810 389 838 360 Q 851 347 865 348 Q 875 348 881 361 Q 885 374 878 403 Q 869 434 781 458 Q 766 462 760 459 Q 756 455 756 443 Q 760 433 785 411 Z" fill="lightgray" class="hide"/></g><g transform="scale(1, -1) translate(0, -900)">
    <style type="text/css">
        .origin {display:none;}
        .hide {display:none;}
        .stroke {fill: #000000;}
        
.step1 {transform: translateX(1024px);}
.step2 {transform: translateX(2048px);}
.step3 {transform: translateX(3072px);}
.step4 {transform: translateX(4096px);}
.step5 {transform: translateX(5120px);}
.step6 {transform: translateX(6144px);}
.step7 {transform: translateX(7168px);}
.step8 {transform: translateX(8192px);}
.step9 {transform: translateX(9216px);}
.step10 {transform: translateX(10240px);}
.step11 {transform: translateX(11264px);}
.step12 {transform: translateX(12288px);}
.step13 {transform: translateX(13312px);}
.step14 {transform: translateX(14336px);}
.step15 {transform: translateX(15360px);}
.step16 {transform: translateX(16384px);}
.step17 {transform: translateX(17408px);}
.step18 {transform: translateX(18432px);}
.step19 {transform: translateX(19456px);}
.step20 {transform: translateX(20480px);}
.step21 {transform: translateX(21504px);}
.step22 {transform: translateX(22528px);}
.step23 {transform: translateX(23552px);}
.step24 {transform: translateX(24576px);}
.step25 {transform: translateX(25600px);}
.step26 {transform: translateX(26624px);}
.step27 {transform: translateX(27648px);}
.step28 {transform: translateX(28672px);}
.step29 {transform: translateX(29696px);}
    </style>

    <path d="M 139 560 Q 126 567 96 574 Q 83 578 79 573 Q 72 566 80 549 Q 108 480 120 369 Q 121 336 140 313 Q 156 289 163 305 Q 170 323 169 355 L 167 385 Q 152 503 151 533 C 150 555 150 555 139 560 Z" fill="lightgray" class="stroke step3"/>
    <path d="M 307 418 Q 323 512 348 543 Q 370 570 346 583 Q 327 593 298 610 Q 279 620 260 608 Q 224 583 139 560 C 110 552 123 521 151 533 Q 154 537 238 558 Q 263 565 269 555 Q 279 548 271 506 Q 264 463 253 413 C 247 384 302 388 307 418 Z" fill="lightgray" class="stroke step3"/>
    <path d="M 169 355 Q 176 354 189 357 Q 231 370 324 387 Q 334 388 334 397 Q 334 404 307 418 C 292 426 281 422 253 413 Q 205 397 167 385 C 138 376 139 356 169 355 Z" fill="lightgray" class="stroke step3"/>
    <path d="M 557 773 Q 582 751 609 726 Q 624 713 640 714 Q 652 714 657 729 Q 661 745 651 775 Q 641 802 551 823 Q 535 826 528 823 Q 522 819 525 805 Q 529 795 557 773 Z" fill="lightgray" class="stroke step3"/>
    <path d="M 748 525 Q 778 591 810 612 Q 826 630 813 648 Q 738 709 683 679 Q 605 648 476 623 C 447 617 455 584 484 591 Q 494 594 686 640 Q 708 647 719 637 Q 726 628 722 610 Q 710 570 697 537 C 686 509 735 498 748 525 Z" fill="lightgray" class="hide"/>
    <path d="M 462 464 Q 480 452 499 457 Q 578 476 752 497 Q 762 498 764 507 Q 764 514 748 525 C 725 542 725 542 697 537 Q 690 537 687 535 Q 564 501 466 487 Q 465 487 465 486 C 436 479 436 478 462 464 Z" fill="lightgray" class="hide"/>
    <path d="M 476 623 Q 475 624 473 625 Q 427 655 411 653 Q 390 652 404 628 Q 431 571 394 373 Q 381 292 329 199 Q 296 136 224 77 Q 179 46 167 29 Q 164 22 176 21 Q 192 20 215 33 Q 269 61 302 93 Q 407 189 447 388 Q 454 424 462 464 L 465 486 Q 469 523 476 562 Q 480 581 484 591 C 491 614 491 614 476 623 Z" fill="lightgray" class="hide"/>
    <path d="M 632 285 Q 776 315 783 321 Q 792 328 787 337 Q 780 347 752 355 Q 724 361 694 350 Q 667 341 640 333 L 581 318 Q 532 309 477 304 Q 443 298 467 282 Q 506 258 563 271 Q 569 272 577 274 L 632 285 Z" fill="lightgray" class="hide"/>
    <path d="M 626 259 Q 629 272 632 285 L 640 333 Q 641 339 642 345 Q 646 369 650 379 Q 657 385 651 395 Q 647 402 619 412 Q 589 427 575 422 Q 565 416 573 401 Q 585 367 581 318 L 577 274 Q 555 141 444 62 Q 416 46 379 25 Q 357 12 384 13 Q 432 10 506 56 Q 581 98 619 232 L 626 259 Z" fill="lightgray" class="hide"/>
    <path d="M 619 232 Q 692 127 785 16 Q 803 -2 831 0 Q 928 4 958 10 Q 967 13 968 17 Q 968 21 956 28 Q 812 89 767 127 Q 701 184 626 259 C 605 280 602 257 619 232 Z" fill="lightgray" class="hide"/>
    <path d="M 785 411 Q 810 389 838 360 Q 851 347 865 348 Q 875 348 881 361 Q 885 374 878 403 Q 869 434 781 458 Q 766 462 760 459 Q 756 455 756 443 Q 760 433 785 411 Z" fill="lightgray" class="hide"/></g><g transform="scale(1, -1) translate(0, -900)">
    <style type="text/css">
        .origin {display:none;}
        .hide {display:none;}
        .stroke {fill: #000000;}
        
.step1 {transform: translateX(1024px);}
.step2 {transform: translateX(2048px);}
.step3 {transform: translateX(3072px);}
.step4 {transform: translateX(4096px);}
.step5 {transform: translateX(5120px);}
.step6 {transform: translateX(6144px);}
.step7 {transform: translateX(7168px);}
.step8 {transform: translateX(8192px);}
.step9 {transform: translateX(9216px);}
.step10 {transform: translateX(10240px);}
.step11 {transform: translateX(11264px);}
.step12 {transform: translateX(12288px);}
.step13 {transform: translateX(13312px);}
.step14 {transform: translateX(14336px);}
.step15 {transform: translateX(15360px);}
.step16 {transform: translateX(16384px);}
.step17 {transform: translateX(17408px);}
.step18 {transform: translateX(18432px);}
.step19 {transform: translateX(19456px);}
.step20 {transform: translateX(20480px);}
.step21 {transform: translateX(21504px);}
.step22 {transform: translateX(22528px);}
.step23 {transform: translateX(23552px);}
.step24 {transform: translateX(24576px);}
.step25 {transform: translateX(25600px);}
.step26 {transform: translateX(26624px);}
.step27 {transform: translateX(27648px);}
.step28 {transform: translateX(28672px);}
.step29 {transform: translateX(29696px);}
    </style>

    <path d="M 139 560 Q 126 567 96 574 Q 83 578 79 573 Q 72 566 80 549 Q 108 480 120 369 Q 121 336 140 313 Q 156 289 163 305 Q 170 323 169 355 L 167 385 Q 152 503 151 533 C 150 555 150 555 139 560 Z" fill="lightgray" class="stroke step4"/>
    <path d="M 307 418 Q 323 512 348 543 Q 370 570 346 583 Q 327 593 298 610 Q 279 620 260 608 Q 224 583 139 560 C 110 552 123 521 151 533 Q 154 537 238 558 Q 263 565 269 555 Q 279 548 271 506 Q 264 463 253 413 C 247 384 302 388 307 418 Z" fill="lightgray" class="stroke step4"/>
    <path d="M 169 355 Q 176 354 189 357 Q 231 370 324 387 Q 334 388 334 397 Q 334 404 307 418 C 292 426 281 422 253 413 Q 205 397 167 385 C 138 376 139 356 169 355 Z" fill="lightgray" class="stroke step4"/>
    <path d="M 557 773 Q 582 751 609 726 Q 624 713 640 714 Q 652 714 657 729 Q 661 745 651 775 Q 641 802 551 823 Q 535 826 528 823 Q 522 819 525 805 Q 529 795 557 773 Z" fill="lightgray" class="stroke step4"/>
    <path d="M 748 525 Q 778 591 810 612 Q 826 630 813 648 Q 738 709 683 679 Q 605 648 476 623 C 447 617 455 584 484 591 Q 494 594 686 640 Q 708 647 719 637 Q 726 628 722 610 Q 710 570 697 537 C 686 509 735 498 748 525 Z" fill="lightgray" class="stroke step4"/>
    <path d="M 462 464 Q 480 452 499 457 Q 578 476 752 497 Q 762 498 764 507 Q 764 514 748 525 C 725 542 725 542 697 537 Q 690 537 687 535 Q 564 501 466 487 Q 465 487 465 486 C 436 479 436 478 462 464 Z" fill="lightgray" class="hide"/>
    <path d="M 476 623 Q 475 624 473 625 Q 427 655 411 653 Q 390 652 404 628 Q 431 571 394 373 Q 381 292 329 199 Q 296 136 224 77 Q 179 46 167 29 Q 164 22 176 21 Q 192 20 215 33 Q 269 61 302 93 Q 407 189 447 388 Q 454 424 462 464 L 465 486 Q 469 523 476 562 Q 480 581 484 591 C 491 614 491 614 476 623 Z" fill="lightgray" class="hide"/>
    <path d="M 632 285 Q 776 315 783 321 Q 792 328 787 337 Q 780 347 752 355 Q 724 361 694 350 Q 667 341 640 333 L 581 318 Q 532 309 477 304 Q 443 298 467 282 Q 506 258 563 271 Q 569 272 577 274 L 632 285 Z" fill="lightgray" class="hide"/>
    <path d="M 626 259 Q 629 272 632 285 L 640 333 Q 641 339 642 345 Q 646 369 650 379 Q 657 385 651 395 Q 647 402 619 412 Q 589 427 575 422 Q 565 416 573 401 Q 585 367 581 318 L 577 274 Q 555 141 444 62 Q 416 46 379 25 Q 357 12 384 13 Q 432 10 506 56 Q 581 98 619 232 L 626 259 Z" fill="lightgray" class="hide"/>
    <path d="M 619 232 Q 692 127 785 16 Q 803 -2 831 0 Q 928 4 958 10 Q 967 13 968 17 Q 968 21 956 28 Q 812 89 767 127 Q 701 184 626 259 C 605 280 602 257 619 232 Z" fill="lightgray" class="hide"/>
    <path d="M 785 411 Q 810 389 838 360 Q 851 347 865 348 Q 875 348 881 361 Q 885 374 878 403 Q 869 434 781 458 Q 766 462 760 459 Q 756 455 756 443 Q 760 433 785 411 Z" fill="lightgray" class="hide"/></g><g transform="scale(1, -1) translate(0, -900)">
    <style type="text/css">
        .origin {display:none;}
        .hide {display:none;}
        .stroke {fill: #000000;}
        
.step1 {transform: translateX(1024px);}
.step2 {transform: translateX(2048px);}
.step3 {transform: translateX(3072px);}
.step4 {transform: translateX(4096px);}
.step5 {transform: translateX(5120px);}
.step6 {transform: translateX(6144px);}
.step7 {transform: translateX(7168px);}
.step8 {transform: translateX(8192px);}
.step9 {transform: translateX(9216px);}
.step10 {transform: translateX(10240px);}
.step11 {transform: translateX(11264px);}
.step12 {transform: translateX(12288px);}
.step13 {transform: translateX(13312px);}
.step14 {transform: translateX(14336px);}
.step15 {transform: translateX(15360px);}
.step16 {transform: translateX(16384px);}
.step17 {transform: translateX(17408px);}
.step18 {transform: translateX(18432px);}
.step19 {transform: translateX(19456px);}
.step20 {transform: translateX(20480px);}
.step21 {transform: translateX(21504px);}
.step22 {transform: translateX(22528px);}
.step23 {transform: translateX(23552px);}
.step24 {transform: translateX(24576px);}
.step25 {transform: translateX(25600px);}
.step26 {transform: translateX(26624px);}
.step27 {transform: translateX(27648px);}
.step28 {transform: translateX(28672px);}
.step29 {transform: translateX(29696px);}
    </style>

    <path d="M 139 560 Q 126 567 96 574 Q 83 578 79 573 Q 72 566 80 549 Q 108 480 120 369 Q 121 336 140 313 Q 156 289 163 305 Q 170 323 169 355 L 167 385 Q 152 503 151 533 C 150 555 150 555 139 560 Z" fill="lightgray" class="stroke step5"/>
    <path d="M 307 418 Q 323 512 348 543 Q 370 570 346 583 Q 327 593 298 610 Q 279 620 260 608 Q 224 583 139 560 C 110 552 123 521 151 533 Q 154 537 238 558 Q 263 565 269 555 Q 279 548 271 506 Q 264 463 253 413 C 247 384 302 388 307 418 Z" fill="lightgray" class="stroke step5"/>
    <path d="M 169 355 Q 176 354 189 357 Q 231 370 324 387 Q 334 388 334 397 Q 334 404 307 418 C 292 426 281 422 253 413 Q 205 397 167 385 C 138 376 139 356 169 355 Z" fill="lightgray" class="stroke step5"/>
    <path d="M 557 773 Q 582 751 609 726 Q 624 713 640 714 Q 652 714 657 729 Q 661 745 651 775 Q 641 802 551 823 Q 535 826 528 823 Q 522 819 525 805 Q 529 795 557 773 Z" fill="lightgray" class="stroke step5"/>
    <path d="M 748 525 Q 778 591 810 612 Q 826 630 813 648 Q 738 709 683 679 Q 605 648 476 623 C 447 617 455 584 484 591 Q 494 594 686 640 Q 708 647 719 637 Q 726 628 722 610 Q 710 570 697 537 C 686 509 735 498 748 525 Z" fill="lightgray" class="stroke step5"/>
    <path d="M 462 464 Q 480 452 499 457 Q 578 476 752 497 Q 762 498 764 507 Q 764 514 748 525 C 725 542 725 542 697 537 Q 690 537 687 535 Q 564 501 466 487 Q 465 487 465 486 C 436 479 436 478 462 464 Z" fill="lightgray" class="stroke step5"/>
    <path d="M 476 623 Q 475 624 473 625 Q 427 655 411 653 Q 390 652 404 628 Q 431 571 394 373 Q 381 292 329 199 Q 296 136 224 77 Q 179 46 167 29 Q 164 22 176 21 Q 192 20 215 33 Q 269 61 302 93 Q 407 189 447 388 Q 454 424 462 464 L 465 486 Q 469 523 476 562 Q 480 581 484 591 C 491 614 491 614 476 623 Z" fill="lightgray" class="hide"/>
    <path d="M 632 285 Q 776 315 783 321 Q 792 328 787 337 Q 780 347 752 355 Q 724 361 694 350 Q 667 341 640 333 L 581 318 Q 532 309 477 304 Q 443 298 467 282 Q 506 258 563 271 Q 569 272 577 274 L 632 285 Z" fill="lightgray" class="hide"/>
    <path d="M 626 259 Q 629 272 632 285 L 640 333 Q 641 339 642 345 Q 646 369 650 379 Q 657 385 651 395 Q 647 402 619 412 Q 589 427 575 422 Q 565 416 573 401 Q 585 367 581 318 L 577 274 Q 555 141 444 62 Q 416 46 379 25 Q 357 12 384 13 Q 432 10 506 56 Q 581 98 619 232 L 626 259 Z" fill="lightgray" class="hide"/>
    <path d="M 619 232 Q 692 127 785 16 Q 803 -2 831 0 Q 928 4 958 10 Q 967 13 968 17 Q 968 21 956 28 Q 812 89 767 127 Q 701 184 626 259 C 605 280 602 257 619 232 Z" fill="lightgray" class="hide"/>
    <path d="M 785 411 Q 810 389 838 360 Q 851 347 865 348 Q 875 348 881 361 Q 885 374 878 403 Q 869 434 781 458 Q 766 462 760 459 Q 756 455 756 443 Q 760 433 785 411 Z" fill="lightgray" class="hide"/></g><g transform="scale(1, -1) translate(0, -900)">
    <style type="text/css">
        .origin {display:none;}
        .hide {display:none;}
        .stroke {fill: #000000;}
        
.step1 {transform: translateX(1024px);}
.step2 {transform: translateX(2048px);}
.step3 {transform: translateX(3072px);}
.step4 {transform: translateX(4096px);}
.step5 {transform: translateX(5120px);}
.step6 {transform: translateX(6144px);}
.step7 {transform: translateX(7168px);}
.step8 {transform: translateX(8192px);}
.step9 {transform: translateX(9216px);}
.step10 {transform: translateX(10240px);}
.step11 {transform: translateX(11264px);}
.step12 {transform: translateX(12288px);}
.step13 {transform: translateX(13312px);}
.step14 {transform: translateX(14336px);}
.step15 {transform: translateX(15360px);}
.step16 {transform: translateX(16384px);}
.step17 {transform: translateX(17408px);}
.step18 {transform: translateX(18432px);}
.step19 {transform: translateX(19456px);}
.step20 {transform: translateX(20480px);}
.step21 {transform: translateX(21504px);}
.step22 {transform: translateX(22528px);}
.step23 {transform: translateX(23552px);}
.step24 {transform: translateX(24576px);}
.step25 {transform: translateX(25600px);}
.step26 {transform: translateX(26624px);}
.step27 {transform: translateX(27648px);}
.step28 {transform: translateX(28672px);}
.step29 {transform: translateX(29696px);}
    </style>

    <path d="M 139 560 Q 126 567 96 574 Q 83 578 79 573 Q 72 566 80 549 Q 108 480 120 369 Q 121 336 140 313 Q 156 289 163 305 Q 170 323 169 355 L 167 385 Q 152 503 151 533 C 150 555 150 555 139 560 Z" fill="lightgray" class="stroke step6"/>
    <path d="M 307 418 Q 323 512 348 543 Q 370 570 346 583 Q 327 593 298 610 Q 279 620 260 608 Q 224 583 139 560 C 110 552 123 521 151 533 Q 154 537 238 558 Q 263 565 269 555 Q 279 548 271 506 Q 264 463 253 413 C 247 384 302 388 307 418 Z" fill="lightgray" class="stroke step6"/>
    <path d="M 169 355 Q 176 354 189 357 Q 231 370 324 387 Q 334 388 334 397 Q 334 404 307 418 C 292 426 281 422 253 413 Q 205 397 167 385 C 138 376 139 356 169 355 Z" fill="lightgray" class="stroke step6"/>
    <path d="M 557 773 Q 582 751 609 726 Q 624 713 640 714 Q 652 714 657 729 Q 661 745 651 775 Q 641 802 551 823 Q 535 826 528 823 Q 522 819 525 805 Q 529 795 557 773 Z" fill="lightgray" class="stroke step6"/>
    <path d="M 748 525 Q 778 591 810 612 Q 826 630 813 648 Q 738 709 683 679 Q 605 648 476 623 C 447 617 455 584 484 591 Q 494 594 686 640 Q 708 647 719 637 Q 726 628 722 610 Q 710 570 697 537 C 686 509 735 498 748 525 Z" fill="lightgray" class="stroke step6"/>
    <path d="M 462 464 Q 480 452 499 457 Q 578 476 752 497 Q 762 498 764 507 Q 764 514 748 525 C 725 542 725 542 697 537 Q 690 537 687 535 Q 564 501 466 487 Q 465 487 465 486 C 436 479 436 478 462 464 Z" fill="lightgray" class="stroke step6"/>
    <path d="M 476 623 Q 475 624 473 625 Q 427 655 411 653 Q 390 652 404 628 Q 431 571 394 373 Q 381 292 329 199 Q 296 136 224 77 Q 179 46 167 29 Q 164 22 176 21 Q 192 20 215 33 Q 269 61 302 93 Q 407 189 447 388 Q 454 424 462 464 L 465 486 Q 469 523 476 562 Q 480 581 484 591 C 491 614 491 614 476 623 Z" fill="lightgray" class="stroke step6"/>
    <path d="M 632 285 Q 776 315 783 321 Q 792 328 787 337 Q 780 347 752 355 Q 724 361 694 350 Q 667 341 640 333 L 581 318 Q 532 309 477 304 Q 443 298 467 282 Q 506 258 563 271 Q 569 272 577 274 L 632 285 Z" fill="lightgray" class="hide"/>
    <path d="M 626 259 Q 629 272 632 285 L 640 333 Q 641 339 642 345 Q 646 369 650 379 Q 657 385 651 395 Q 647 402 619 412 Q 589 427 575 422 Q 565 416 573 401 Q 585 367 581 318 L 577 274 Q 555 141 444 62 Q 416 46 379 25 Q 357 12 384 13 Q 432 10 506 56 Q 581 98 619 232 L 626 259 Z" fill="lightgray" class="hide"/>
    <path d="M 619 232 Q 692 127 785 16 Q 803 -2 831 0 Q 928 4 958 10 Q 967 13 968 17 Q 968 21 956 28 Q 812 89 767 127 Q 701 184 626 259 C 605 280 602 257 619 232 Z" fill="lightgray" class="hide"/>
    <path d="M 785 411 Q 810 389 838 360 Q 851 347 865 348 Q 875 348 881 361 Q 885 374 878 403 Q 869 434 781 458 Q 766 462 760 459 Q 756 455 756 443 Q 760 433 785 411 Z" fill="lightgray" class="hide"/></g><g transform="scale(1, -1) translate(0, -900)">
    <style type="text/css">
        .origin {display:none;}
        .hide {display:none;}
        .stroke {fill: #000000;}
        
.step1 {transform: translateX(1024px);}
.step2 {transform: translateX(2048px);}
.step3 {transform: translateX(3072px);}
.step4 {transform: translateX(4096px);}
.step5 {transform: translateX(5120px);}
.step6 {transform: translateX(6144px);}
.step7 {transform: translateX(7168px);}
.step8 {transform: translateX(8192px);}
.step9 {transform: translateX(9216px);}
.step10 {transform: translateX(10240px);}
.step11 {transform: translateX(11264px);}
.step12 {transform: translateX(12288px);}
.step13 {transform: translateX(13312px);}
.step14 {transform: translateX(14336px);}
.step15 {transform: translateX(15360px);}
.step16 {transform: translateX(16384px);}
.step17 {transform: translateX(17408px);}
.step18 {transform: translateX(18432px);}
.step19 {transform: translateX(19456px);}
.step20 {transform: translateX(20480px);}
.step21 {transform: translateX(21504px);}
.step22 {transform: translateX(22528px);}
.step23 {transform: translateX(23552px);}
.step24 {transform: translateX(24576px);}
.step25 {transform: translateX(25600px);}
.step26 {transform: translateX(26624px);}
.step27 {transform: translateX(27648px);}
.step28 {transform: translateX(28672px);}
.step29 {transform: translateX(29696px);}
    </style>

    <path d="M 139 560 Q 126 567 96 574 Q 83 578 79 573 Q 72 566 80 549 Q 108 480 120 369 Q 121 336 140 313 Q 156 289 163 305 Q 170 323 169 355 L 167 385 Q 152 503 151 533 C 150 555 150 555 139 560 Z" fill="lightgray" class="stroke step7"/>
    <path d="M 307 418 Q 323 512 348 543 Q 370 570 346 583 Q 327 593 298 610 Q 279 620 260 608 Q 224 583 139 560 C 110 552 123 521 151 533 Q 154 537 238 558 Q 263 565 269 555 Q 279 548 271 506 Q 264 463 253 413 C 247 384 302 388 307 418 Z" fill="lightgray" class="stroke step7"/>
    <path d="M 169 355 Q 176 354 189 357 Q 231 370 324 387 Q 334 388 334 397 Q 334 404 307 418 C 292 426 281 422 253 413 Q 205 397 167 385 C 138 376 139 356 169 355 Z" fill="lightgray" class="stroke step7"/>
    <path d="M 557 773 Q 582 751 609 726 Q 624 713 640 714 Q 652 714 657 729 Q 661 745 651 775 Q 641 802 551 823 Q 535 826 528 823 Q 522 819 525 805 Q 529 795 557 773 Z" fill="lightgray" class="stroke step7"/>
    <path d="M 748 525 Q 778 591 810 612 Q 826 630 813 648 Q 738 709 683 679 Q 605 648 476 623 C 447 617 455 584 484 591 Q 494 594 686 640 Q 708 647 719 637 Q 726 628 722 610 Q 710 570 697 537 C 686 509 735 498 748 525 Z" fill="lightgray" class="stroke step7"/>
    <path d="M 462 464 Q 480 452 499 457 Q 578 476 752 497 Q 762 498 764 507 Q 764 514 748 525 C 725 542 725 542 697 537 Q 690 537 687 535 Q 564 501 466 487 Q 465 487 465 486 C 436 479 436 478 462 464 Z" fill="lightgray" class="stroke step7"/>
    <path d="M 476 623 Q 475 624 473 625 Q 427 655 411 653 Q 390 652 404 628 Q 431 571 394 373 Q 381 292 329 199 Q 296 136 224 77 Q 179 46 167 29 Q 164 22 176 21 Q 192 20 215 33 Q 269 61 302 93 Q 407 189 447 388 Q 454 424 462 464 L 465 486 Q 469 523 476 562 Q 480 581 484 591 C 491 614 491 614 476 623 Z" fill="lightgray" class="stroke step7"/>
    <path d="M 632 285 Q 776 315 783 321 Q 792 328 787 337 Q 780 347 752 355 Q 724 361 694 350 Q 667 341 640 333 L 581 318 Q 532 309 477 304 Q 443 298 467 282 Q 506 258 563 271 Q 569 272 577 274 L 632 285 Z" fill="lightgray" class="stroke step7"/>
    <path d="M 626 259 Q 629 272 632 285 L 640 333 Q 641 339 642 345 Q 646 369 650 379 Q 657 385 651 395 Q 647 402 619 412 Q 589 427 575 422 Q 565 416 573 401 Q 585 367 581 318 L 577 274 Q 555 141 444 62 Q 416 46 379 25 Q 357 12 384 13 Q 432 10 506 56 Q 581 98 619 232 L 626 259 Z" fill="lightgray" class="hide"/>
    <path d="M 619 232 Q 692 127 785 16 Q 803 -2 831 0 Q 928 4 958 10 Q 967 13 968 17 Q 968 21 956 28 Q 812 89 767 127 Q 701 184 626 259 C 605 280 602 257 619 232 Z" fill="lightgray" class="hide"/>
    <path d="M 785 411 Q 810 389 838 360 Q 851 347 865 348 Q 875 348 881 361 Q 885 374 878 403 Q 869 434 781 458 Q 766 462 760 459 Q 756 455 756 443 Q 760 433 785 411 Z" fill="lightgray" class="hide"/></g><g transform="scale(1, -1) translate(0, -900)">
    <style type="text/css">
        .origin {display:none;}
        .hide {display:none;}
        .stroke {fill: #000000;}
        
.step1 {transform: translateX(1024px);}
.step2 {transform: translateX(2048px);}
.step3 {transform: translateX(3072px);}
.step4 {transform: translateX(4096px);}
.step5 {transform: translateX(5120px);}
.step6 {transform: translateX(6144px);}
.step7 {transform: translateX(7168px);}
.step8 {transform: translateX(8192px);}
.step9 {transform: translateX(9216px);}
.step10 {transform: translateX(10240px);}
.step11 {transform: translateX(11264px);}
.step12 {transform: translateX(12288px);}
.step13 {transform: translateX(13312px);}
.step14 {transform: translateX(14336px);}
.step15 {transform: translateX(15360px);}
.step16 {transform: translateX(16384px);}
.step17 {transform: translateX(17408px);}
.step18 {transform: translateX(18432px);}
.step19 {transform: translateX(19456px);}
.step20 {transform: translateX(20480px);}
.step21 {transform: translateX(21504px);}
.step22 {transform: translateX(22528px);}
.step23 {transform: translateX(23552px);}
.step24 {transform: translateX(24576px);}
.step25 {transform: translateX(25600px);}
.step26 {transform: translateX(26624px);}
.step27 {transform: translateX(27648px);}
.step28 {transform: translateX(28672px);}
.step29 {transform: translateX(29696px);}
    </style>

    <path d="M 139 560 Q 126 567 96 574 Q 83 578 79 573 Q 72 566 80 549 Q 108 480 120 369 Q 121 336 140 313 Q 156 289 163 305 Q 170 323 169 355 L 167 385 Q 152 503 151 533 C 150 555 150 555 139 560 Z" fill="lightgray" class="stroke step8"/>
    <path d="M 307 418 Q 323 512 348 543 Q 370 570 346 583 Q 327 593 298 610 Q 279 620 260 608 Q 224 583 139 560 C 110 552 123 521 151 533 Q 154 537 238 558 Q 263 565 269 555 Q 279 548 271 506 Q 264 463 253 413 C 247 384 302 388 307 418 Z" fill="lightgray" class="stroke step8"/>
    <path d="M 169 355 Q 176 354 189 357 Q 231 370 324 387 Q 334 388 334 397 Q 334 404 307 418 C 292 426 281 422 253 413 Q 205 397 167 385 C 138 376 139 356 169 355 Z" fill="lightgray" class="stroke step8"/>
    <path d="M 557 773 Q 582 751 609 726 Q 624 713 640 714 Q 652 714 657 729 Q 661 745 651 775 Q 641 802 551 823 Q 535 826 528 823 Q 522 819 525 805 Q 529 795 557 773 Z" fill="lightgray" class="stroke step8"/>
    <path d="M 748 525 Q 778 591 810 612 Q 826 630 813 648 Q 738 709 683 679 Q 605 648 476 623 C 447 617 455 584 484 591 Q 494 594 686 640 Q 708 647 719 637 Q 726 628 722 610 Q 710 570 697 537 C 686 509 735 498 748 525 Z" fill="lightgray" class="stroke step8"/>
    <path d="M 462 464 Q 480 452 499 457 Q 578 476 752 497 Q 762 498 764 507 Q 764 514 748 525 C 725 542 725 542 697 537 Q 690 537 687 535 Q 564 501 466 487 Q 465 487 465 486 C 436 479 436 478 462 464 Z" fill="lightgray" class="stroke step8"/>
    <path d="M 476 623 Q 475 624 473 625 Q 427 655 411 653 Q 390 652 404 628 Q 431 571 394 373 Q 381 292 329 199 Q 296 136 224 77 Q 179 46 167 29 Q 164 22 176 21 Q 192 20 215 33 Q 269 61 302 93 Q 407 189 447 388 Q 454 424 462 464 L 465 486 Q 469 523 476 562 Q 480 581 484 591 C 491 614 491 614 476 623 Z" fill="lightgray" class="stroke step8"/>
    <path d="M 632 285 Q 776 315 783 321 Q 792 328 787 337 Q 780 347 752 355 Q 724 361 694 350 Q 667 341 640 333 L 581 318 Q 532 309 477 304 Q 443 298 467 282 Q 506 258 563 271 Q 569 272 577 274 L 632 285 Z" fill="lightgray" class="stroke step8"/>
    <path d="M 626 259 Q 629 272 632 285 L 640 333 Q 641 339 642 345 Q 646 369 650 379 Q 657 385 651 395 Q 647 402 619 412 Q 589 427 575 422 Q 565 416 573 401 Q 585 367 581 318 L 577 274 Q 555 141 444 62 Q 416 46 379 25 Q 357 12 384 13 Q 432 10 506 56 Q 581 98 619 232 L 626 259 Z" fill="lightgray" class="stroke step8"/>
    <path d="M 619 232 Q 692 127 785 16 Q 803 -2 831 0 Q 928 4 958 10 Q 967 13 968 17 Q 968 21 956 28 Q 812 89 767 127 Q 701 184 626 259 C 605 280 602 257 619 232 Z" fill="lightgray" class="hide"/>
    <path d="M 785 411 Q 810 389 838 360 Q 851 347 865 348 Q 875 348 881 361 Q 885 374 878 403 Q 869 434 781 458 Q 766 462 760 459 Q 756 455 756 443 Q 760 433 785 411 Z" fill="lightgray" class="hide"/></g><g transform="scale(1, -1) translate(0, -900)">
    <style type="text/css">
        .origin {display:none;}
        .hide {display:none;}
        .stroke {fill: #000000;}
        
.step1 {transform: translateX(1024px);}
.step2 {transform: translateX(2048px);}
.step3 {transform: translateX(3072px);}
.step4 {transform: translateX(4096px);}
.step5 {transform: translateX(5120px);}
.step6 {transform: translateX(6144px);}
.step7 {transform: translateX(7168px);}
.step8 {transform: translateX(8192px);}
.step9 {transform: translateX(9216px);}
.step10 {transform: translateX(10240px);}
.step11 {transform: translateX(11264px);}
.step12 {transform: translateX(12288px);}
.step13 {transform: translateX(13312px);}
.step14 {transform: translateX(14336px);}
.step15 {transform: translateX(15360px);}
.step16 {transform: translateX(16384px);}
.step17 {transform: translateX(17408px);}
.step18 {transform: translateX(18432px);}
.step19 {transform: translateX(19456px);}
.step20 {transform: translateX(20480px);}
.step21 {transform: translateX(21504px);}
.step22 {transform: translateX(22528px);}
.step23 {transform: translateX(23552px);}
.step24 {transform: translateX(24576px);}
.step25 {transform: translateX(25600px);}
.step26 {transform: translateX(26624px);}
.step27 {transform: translateX(27648px);}
.step28 {transform: translateX(28672px);}
.step29 {transform: translateX(29696px);}
    </style>

    <path d="M 139 560 Q 126 567 96 574 Q 83 578 79 573 Q 72 566 80 549 Q 108 480 120 369 Q 121 336 140 313 Q 156 289 163 305 Q 170 323 169 355 L 167 385 Q 152 503 151 533 C 150 555 150 555 139 560 Z" fill="lightgray" class="stroke step9"/>
    <path d="M 307 418 Q 323 512 348 543 Q 370 570 346 583 Q 327 593 298 610 Q 279 620 260 608 Q 224 583 139 560 C 110 552 123 521 151 533 Q 154 537 238 558 Q 263 565 269 555 Q 279 548 271 506 Q 264 463 253 413 C 247 384 302 388 307 418 Z" fill="lightgray" class="stroke step9"/>
    <path d="M 169 355 Q 176 354 189 357 Q 231 370 324 387 Q 334 388 334 397 Q 334 404 307 418 C 292 426 281 422 253 413 Q 205 397 167 385 C 138 376 139 356 169 355 Z" fill="lightgray" class="stroke step9"/>
    <path d="M 557 773 Q 582 751 609 726 Q 624 713 640 714 Q 652 714 657 729 Q 661 745 651 775 Q 641 802 551 823 Q 535 826 528 823 Q 522 819 525 805 Q 529 795 557 773 Z" fill="lightgray" class="stroke step9"/>
    <path d="M 748 525 Q 778 591 810 612 Q 826 630 813 648 Q 738 709 683 679 Q 605 648 476 623 C 447 617 455 584 484 591 Q 494 594 686 640 Q 708 647 719 637 Q 726 628 722 610 Q 710 570 697 537 C 686 509 735 498 748 525 Z" fill="lightgray" class="stroke step9"/>
    <path d="M 462 464 Q 480 452 499 457 Q 578 476 752 497 Q 762 498 764 507 Q 764 514 748 525 C 725 542 725 542 697 537 Q 690 537 687 535 Q 564 501 466 487 Q 465 487 465 486 C 436 479 436 478 462 464 Z" fill="lightgray" class="stroke step9"/>
    <path d="M 476 623 Q 475 624 473 625 Q 427 655 411 653 Q 390 652 404 628 Q 431 571 394 373 Q 381 292 329 199 Q 296 136 224 77 Q 179 46 167 29 Q 164 22 176 21 Q 192 20 215 33 Q 269 61 302 93 Q 407 189 447 388 Q 454 424 462 464 L 465 486 Q 469 523 476 562 Q 480 581 484 591 C 491 614 491 614 476 623 Z" fill="lightgray" class="stroke step9"/>
    <path d="M 632 285 Q 776 315 783 321 Q 792 328 787 337 Q 780 347 752 355 Q 724 361 694 350 Q 667 341 640 333 L 581 318 Q 532 309 477 304 Q 443 298 467 282 Q 506 258 563 271 Q 569 272 577 274 L 632 285 Z" fill="lightgray" class="stroke step9"/>
    <path d="M 626 259 Q 629 272 632 285 L 640 333 Q 641 339 642 345 Q 646 369 650 379 Q 657 385 651 395 Q 647 402 619 412 Q 589 427 575 422 Q 565 416 573 401 Q 585 367 581 318 L 577 274 Q 555 141 444 62 Q 416 46 379 25 Q 357 12 384 13 Q 432 10 506 56 Q 581 98 619 232 L 626 259 Z" fill="lightgray" class="stroke step9"/>
    <path d="M 619 232 Q 692 127 785 16 Q 803 -2 831 0 Q 928 4 958 10 Q 967 13 968 17 Q 968 21 956 28 Q 812 89 767 127 Q 701 184 626 259 C 605 280 602 257 619 232 Z" fill="lightgray" class="stroke step9"/>
    <path d="M 785 411 Q 810 389 838 360 Q 851 347 865 348 Q 875 348 881 361 Q 885 374 878 403 Q 869 434 781 458 Q 766 462 760 459 Q 756 455 756 443 Q 760 433 785 411 Z" fill="lightgray" class="hide"/></g><g transform="scale(1, -1) translate(0, -900)">
    <style type="text/css">
        .origin {display:none;}
        .hide {display:none;}
        .stroke {fill: #000000;}
        
.step1 {transform: translateX(1024px);}
.step2 {transform: translateX(2048px);}
.step3 {transform: translateX(3072px);}
.step4 {transform: translateX(4096px);}
.step5 {transform: translateX(5120px);}
.step6 {transform: translateX(6144px);}
.step7 {transform: translateX(7168px);}
.step8 {transform: translateX(8192px);}
.step9 {transform: translateX(9216px);}
.step10 {transform: translateX(10240px);}
.step11 {transform: translateX(11264px);}
.step12 {transform: translateX(12288px);}
.step13 {transform: translateX(13312px);}
.step14 {transform: translateX(14336px);}
.step15 {transform: translateX(15360px);}
.step16 {transform: translateX(16384px);}
.step17 {transform: translateX(17408px);}
.step18 {transform: translateX(18432px);}
.step19 {transform: translateX(19456px);}
.step20 {transform: translateX(20480px);}
.step21 {transform: translateX(21504px);}
.step22 {transform: translateX(22528px);}
.step23 {transform: translateX(23552px);}
.step24 {transform: translateX(24576px);}
.step25 {transform: translateX(25600px);}
.step26 {transform: translateX(26624px);}
.step27 {transform: translateX(27648px);}
.step28 {transform: translateX(28672px);}
.step29 {transform: translateX(29696px);}
    </style>

    <path d="M 139 560 Q 126 567 96 574 Q 83 578 79 573 Q 72 566 80 549 Q 108 480 120 369 Q 121 336 140 313 Q 156 289 163 305 Q 170 323 169 355 L 167 385 Q 152 503 151 533 C 150 555 150 555 139 560 Z" fill="lightgray" class="stroke step10"/>
    <path d="M 307 418 Q 323 512 348 543 Q 370 570 346 583 Q 327 593 298 610 Q 279 620 260 608 Q 224 583 139 560 C 110 552 123 521 151 533 Q 154 537 238 558 Q 263 565 269 555 Q 279 548 271 506 Q 264 463 253 413 C 247 384 302 388 307 418 Z" fill="lightgray" class="stroke step10"/>
    <path d="M 169 355 Q 176 354 189 357 Q 231 370 324 387 Q 334 388 334 397 Q 334 404 307 418 C 292 426 281 422 253 413 Q 205 397 167 385 C 138 376 139 356 169 355 Z" fill="lightgray" class="stroke step10"/>
    <path d="M 557 773 Q 582 751 609 726 Q 624 713 640 714 Q 652 714 657 729 Q 661 745 651 775 Q 641 802 551 823 Q 535 826 528 823 Q 522 819 525 805 Q 529 795 557 773 Z" fill="lightgray" class="stroke step10"/>
    <path d="M 748 525 Q 778 591 810 612 Q 826 630 813 648 Q 738 709 683 679 Q 605 648 476 623 C 447 617 455 584 484 591 Q 494 594 686 640 Q 708 647 719 637 Q 726 628 722 610 Q 710 570 697 537 C 686 509 735 498 748 525 Z" fill="lightgray" class="stroke step10"/>
    <path d="M 462 464 Q 480 452 499 457 Q 578 476 752 497 Q 762 498 764 507 Q 764 514 748 525 C 725 542 725 542 697 537 Q 690 537 687 535 Q 564 501 466 487 Q 465 487 465 486 C 436 479 436 478 462 464 Z" fill="lightgray" class="stroke step10"/>
    <path d="M 476 623 Q 475 624 473 625 Q 427 655 411 653 Q 390 652 404 628 Q 431 571 394 373 Q 381 292 329 199 Q 296 136 224 77 Q 179 46 167 29 Q 164 22 176 21 Q 192 20 215 33 Q 269 61 302 93 Q 407 189 447 388 Q 454 424 462 464 L 465 486 Q 469 523 476 562 Q 480 581 484 591 C 491 614 491 614 476 623 Z" fill="lightgray" class="stroke step10"/>
    <path d="M 632 285 Q 776 315 783 321 Q 792 328 787 337 Q 780 347 752 355 Q 724 361 694 350 Q 667 341 640 333 L 581 318 Q 532 309 477 304 Q 443 298 467 282 Q 506 258 563 271 Q 569 272 577 274 L 632 285 Z" fill="lightgray" class="stroke step10"/>
    <path d="M 626 259 Q 629 272 632 285 L 640 333 Q 641 339 642 345 Q 646 369 650 379 Q 657 385 651 395 Q 647 402 619 412 Q 589 427 575 422 Q 565 416 573 401 Q 585 367 581 318 L 577 274 Q 555 141 444 62 Q 416 46 379 25 Q 357 12 384 13 Q 432 10 506 56 Q 581 98 619 232 L 626 259 Z" fill="lightgray" class="stroke step10"/>
    <path d="M 619 232 Q 692 127 785 16 Q 803 -2 831 0 Q 928 4 958 10 Q 967 13 968 17 Q 968 21 956 28 Q 812 89 767 127 Q 701 184 626 259 C 605 280 602 257 619 232 Z" fill="lightgray" class="stroke step10"/>
    <path d="M 785 411 Q 810 389 838 360 Q 851 347 865 348 Q 875 348 881 361 Q 885 374 878 403 Q 869 434 781 458 Q 766 462 760 459 Q 756 455 756 443 Q 760 433 785 411 Z" fill="lightgray" class="stroke step10"/></g></svg>