<svg version="1.1" viewBox="0 0 16384 1024" xmlns="http://www.w3.org/2000/svg">
  
  <g transform="scale(1, -1) translate(0, -900)" class="origin">
    <style type="text/css">
        .origin {display:none;}
        .hide {display:none;}
        .stroke {fill: #000000;}
        
.step1 {transform: translateX(1024px);}
.step2 {transform: translateX(2048px);}
.step3 {transform: translateX(3072px);}
.step4 {transform: translateX(4096px);}
.step5 {transform: translateX(5120px);}
.step6 {transform: translateX(6144px);}
.step7 {transform: translateX(7168px);}
.step8 {transform: translateX(8192px);}
.step9 {transform: translateX(9216px);}
.step10 {transform: translateX(10240px);}
.step11 {transform: translateX(11264px);}
.step12 {transform: translateX(12288px);}
.step13 {transform: translateX(13312px);}
.step14 {transform: translateX(14336px);}
.step15 {transform: translateX(15360px);}
.step16 {transform: translateX(16384px);}
.step17 {transform: translateX(17408px);}
.step18 {transform: translateX(18432px);}
.step19 {transform: translateX(19456px);}
.step20 {transform: translateX(20480px);}
.step21 {transform: translateX(21504px);}
.step22 {transform: translateX(22528px);}
.step23 {transform: translateX(23552px);}
.step24 {transform: translateX(24576px);}
.step25 {transform: translateX(25600px);}
.step26 {transform: translateX(26624px);}
.step27 {transform: translateX(27648px);}
.step28 {transform: translateX(28672px);}
.step29 {transform: translateX(29696px);}
    </style>

    <path d="M 116 569 Q 115 570 115 571 Q 105 578 70 585 Q 58 589 55 584 Q 48 578 56 563 Q 83 497 95 393 Q 96 362 113 340 Q 129 318 135 333 Q 141 348 140 374 L 137 405 Q 124 505 120 540 L 116 569 Z" fill="lightgray"/>
    <path d="M 271 435 Q 287 525 311 553 Q 332 580 308 593 Q 289 603 261 618 Q 242 628 224 616 Q 194 595 116 569 C 88 559 92 529 120 540 Q 126 544 205 565 Q 227 572 234 563 Q 241 556 236 519 Q 230 479 222 433 C 217 403 266 405 271 435 Z" fill="lightgray"/>
    <path d="M 140 374 Q 150 373 164 376 Q 204 388 291 401 Q 301 402 302 412 Q 302 419 271 435 C 255 444 251 442 222 433 Q 173 417 137 405 C 109 396 110 375 140 374 Z" fill="lightgray"/>
    <path d="M 586 779 L 588 781 Q 606 814 606 816 Q 605 826 591 837 Q 558 867 525 858 Q 518 855 520 843 Q 538 770 423 617 Q 420 616 418 612 Q 385 570 301 488 Q 292 482 303 480 Q 375 495 483 622 Q 486 626 489 629 Q 523 674 573 756 L 586 779 Z" fill="lightgray"/>
    <path d="M 573 756 Q 748 563 798 550 Q 852 541 956 561 Q 974 562 975 568 Q 978 575 963 580 Q 777 647 758 658 Q 725 677 586 779 C 562 797 553 778 573 756 Z" fill="lightgray"/>
    <path d="M 474 591 Q 441 584 466 569 Q 500 553 567 568 Q 603 577 642 586 Q 661 590 664 594 Q 671 601 667 609 Q 660 619 633 625 Q 614 628 535 602 Q 508 595 474 591 Z" fill="lightgray"/>
    <path d="M 400 480 Q 390 484 365 488 Q 355 492 351 487 Q 345 481 353 466 Q 378 411 394 323 Q 397 296 413 279 Q 429 258 434 273 Q 435 280 437 289 L 437 318 Q 434 331 417 447 C 413 476 413 476 400 480 Z" fill="lightgray"/>
    <path d="M 694 327 Q 707 305 721 298 Q 730 291 745 309 Q 758 327 789 426 Q 799 454 821 478 Q 834 488 823 503 Q 810 519 769 544 Q 751 554 678 534 Q 645 531 511 502 Q 451 489 400 480 C 370 475 389 435 417 447 Q 426 456 535 476 L 571 484 Q 712 517 736 500 Q 746 493 743 477 Q 721 381 712 367 Q 708 358 696 354 C 682 344 682 344 694 327 Z" fill="lightgray"/>
    <path d="M 586 349 Q 590 392 594 428 Q 594 435 595 439 Q 602 455 594 464 Q 582 476 571 484 C 547 502 525 504 535 476 Q 541 470 545 339 C 546 309 583 319 586 349 Z" fill="lightgray"/>
    <path d="M 452 414 Q 488 362 505 359 Q 515 358 521 371 Q 524 381 518 397 Q 511 410 495 417 Q 470 432 458 434 Q 451 435 449 427 Q 448 421 452 414 Z" fill="lightgray"/>
    <path d="M 640 445 Q 630 423 607 389 Q 603 385 607 379 Q 613 379 618 382 Q 667 419 693 434 Q 706 438 702 446 Q 698 456 682 469 Q 667 481 652 482 Q 642 481 643 467 Q 644 457 640 445 Z" fill="lightgray"/>
    <path d="M 437 289 Q 447 286 460 289 Q 533 308 694 327 C 724 331 720 336 696 354 Q 692 358 684 362 Q 666 372 586 349 L 545 339 Q 485 327 437 318 C 408 312 407 294 437 289 Z" fill="lightgray"/>
    <path d="M 471 230 Q 452 245 428 252 Q 421 253 415 247 Q 412 243 419 233 Q 446 160 424 52 Q 414 33 421 6 Q 428 -22 439 -33 Q 449 -45 456 -33 Q 469 -14 471 9 L 476 42 Q 476 72 477 104 L 478 128 Q 478 183 481 202 C 483 221 483 221 471 230 Z" fill="lightgray"/>
    <path d="M 672 21 Q 685 -1 696 -26 Q 706 -45 716 -48 Q 726 -48 736 -26 Q 754 20 745 157 Q 745 202 751 223 Q 760 244 748 252 Q 741 262 706 279 Q 690 286 608 259 Q 532 240 471 230 C 441 225 452 196 481 202 Q 490 203 501 206 Q 565 228 650 240 Q 675 244 683 235 Q 692 226 688 111 Q 688 69 684 61 Q 681 57 675 54 C 662 39 662 39 672 21 Z" fill="lightgray"/>
    <path d="M 477 104 Q 484 103 495 104 Q 576 120 636 129 Q 658 133 649 145 Q 639 158 615 162 Q 585 163 478 128 C 449 119 447 106 477 104 Z" fill="lightgray"/>
    <path d="M 471 9 Q 480 8 491 9 Q 549 19 672 21 C 702 22 698 35 675 54 Q 671 58 666 61 Q 650 71 619 65 Q 540 50 476 42 C 446 38 441 11 471 9 Z" fill="lightgray"/></g>
<g transform="scale(1, -1) translate(0, -900)">
    <style type="text/css">
        .origin {display:none;}
        .hide {display:none;}
        .stroke {fill: #000000;}
        
.step1 {transform: translateX(1024px);}
.step2 {transform: translateX(2048px);}
.step3 {transform: translateX(3072px);}
.step4 {transform: translateX(4096px);}
.step5 {transform: translateX(5120px);}
.step6 {transform: translateX(6144px);}
.step7 {transform: translateX(7168px);}
.step8 {transform: translateX(8192px);}
.step9 {transform: translateX(9216px);}
.step10 {transform: translateX(10240px);}
.step11 {transform: translateX(11264px);}
.step12 {transform: translateX(12288px);}
.step13 {transform: translateX(13312px);}
.step14 {transform: translateX(14336px);}
.step15 {transform: translateX(15360px);}
.step16 {transform: translateX(16384px);}
.step17 {transform: translateX(17408px);}
.step18 {transform: translateX(18432px);}
.step19 {transform: translateX(19456px);}
.step20 {transform: translateX(20480px);}
.step21 {transform: translateX(21504px);}
.step22 {transform: translateX(22528px);}
.step23 {transform: translateX(23552px);}
.step24 {transform: translateX(24576px);}
.step25 {transform: translateX(25600px);}
.step26 {transform: translateX(26624px);}
.step27 {transform: translateX(27648px);}
.step28 {transform: translateX(28672px);}
.step29 {transform: translateX(29696px);}
    </style>

    <path d="M 116 569 Q 115 570 115 571 Q 105 578 70 585 Q 58 589 55 584 Q 48 578 56 563 Q 83 497 95 393 Q 96 362 113 340 Q 129 318 135 333 Q 141 348 140 374 L 137 405 Q 124 505 120 540 L 116 569 Z" fill="lightgray" class="stroke step0"/>
    <path d="M 271 435 Q 287 525 311 553 Q 332 580 308 593 Q 289 603 261 618 Q 242 628 224 616 Q 194 595 116 569 C 88 559 92 529 120 540 Q 126 544 205 565 Q 227 572 234 563 Q 241 556 236 519 Q 230 479 222 433 C 217 403 266 405 271 435 Z" fill="lightgray" class="hide"/>
    <path d="M 140 374 Q 150 373 164 376 Q 204 388 291 401 Q 301 402 302 412 Q 302 419 271 435 C 255 444 251 442 222 433 Q 173 417 137 405 C 109 396 110 375 140 374 Z" fill="lightgray" class="hide"/>
    <path d="M 586 779 L 588 781 Q 606 814 606 816 Q 605 826 591 837 Q 558 867 525 858 Q 518 855 520 843 Q 538 770 423 617 Q 420 616 418 612 Q 385 570 301 488 Q 292 482 303 480 Q 375 495 483 622 Q 486 626 489 629 Q 523 674 573 756 L 586 779 Z" fill="lightgray" class="hide"/>
    <path d="M 573 756 Q 748 563 798 550 Q 852 541 956 561 Q 974 562 975 568 Q 978 575 963 580 Q 777 647 758 658 Q 725 677 586 779 C 562 797 553 778 573 756 Z" fill="lightgray" class="hide"/>
    <path d="M 474 591 Q 441 584 466 569 Q 500 553 567 568 Q 603 577 642 586 Q 661 590 664 594 Q 671 601 667 609 Q 660 619 633 625 Q 614 628 535 602 Q 508 595 474 591 Z" fill="lightgray" class="hide"/>
    <path d="M 400 480 Q 390 484 365 488 Q 355 492 351 487 Q 345 481 353 466 Q 378 411 394 323 Q 397 296 413 279 Q 429 258 434 273 Q 435 280 437 289 L 437 318 Q 434 331 417 447 C 413 476 413 476 400 480 Z" fill="lightgray" class="hide"/>
    <path d="M 694 327 Q 707 305 721 298 Q 730 291 745 309 Q 758 327 789 426 Q 799 454 821 478 Q 834 488 823 503 Q 810 519 769 544 Q 751 554 678 534 Q 645 531 511 502 Q 451 489 400 480 C 370 475 389 435 417 447 Q 426 456 535 476 L 571 484 Q 712 517 736 500 Q 746 493 743 477 Q 721 381 712 367 Q 708 358 696 354 C 682 344 682 344 694 327 Z" fill="lightgray" class="hide"/>
    <path d="M 586 349 Q 590 392 594 428 Q 594 435 595 439 Q 602 455 594 464 Q 582 476 571 484 C 547 502 525 504 535 476 Q 541 470 545 339 C 546 309 583 319 586 349 Z" fill="lightgray" class="hide"/>
    <path d="M 452 414 Q 488 362 505 359 Q 515 358 521 371 Q 524 381 518 397 Q 511 410 495 417 Q 470 432 458 434 Q 451 435 449 427 Q 448 421 452 414 Z" fill="lightgray" class="hide"/>
    <path d="M 640 445 Q 630 423 607 389 Q 603 385 607 379 Q 613 379 618 382 Q 667 419 693 434 Q 706 438 702 446 Q 698 456 682 469 Q 667 481 652 482 Q 642 481 643 467 Q 644 457 640 445 Z" fill="lightgray" class="hide"/>
    <path d="M 437 289 Q 447 286 460 289 Q 533 308 694 327 C 724 331 720 336 696 354 Q 692 358 684 362 Q 666 372 586 349 L 545 339 Q 485 327 437 318 C 408 312 407 294 437 289 Z" fill="lightgray" class="hide"/>
    <path d="M 471 230 Q 452 245 428 252 Q 421 253 415 247 Q 412 243 419 233 Q 446 160 424 52 Q 414 33 421 6 Q 428 -22 439 -33 Q 449 -45 456 -33 Q 469 -14 471 9 L 476 42 Q 476 72 477 104 L 478 128 Q 478 183 481 202 C 483 221 483 221 471 230 Z" fill="lightgray" class="hide"/>
    <path d="M 672 21 Q 685 -1 696 -26 Q 706 -45 716 -48 Q 726 -48 736 -26 Q 754 20 745 157 Q 745 202 751 223 Q 760 244 748 252 Q 741 262 706 279 Q 690 286 608 259 Q 532 240 471 230 C 441 225 452 196 481 202 Q 490 203 501 206 Q 565 228 650 240 Q 675 244 683 235 Q 692 226 688 111 Q 688 69 684 61 Q 681 57 675 54 C 662 39 662 39 672 21 Z" fill="lightgray" class="hide"/>
    <path d="M 477 104 Q 484 103 495 104 Q 576 120 636 129 Q 658 133 649 145 Q 639 158 615 162 Q 585 163 478 128 C 449 119 447 106 477 104 Z" fill="lightgray" class="hide"/>
    <path d="M 471 9 Q 480 8 491 9 Q 549 19 672 21 C 702 22 698 35 675 54 Q 671 58 666 61 Q 650 71 619 65 Q 540 50 476 42 C 446 38 441 11 471 9 Z" fill="lightgray" class="hide"/></g><g transform="scale(1, -1) translate(0, -900)">
    <style type="text/css">
        .origin {display:none;}
        .hide {display:none;}
        .stroke {fill: #000000;}
        
.step1 {transform: translateX(1024px);}
.step2 {transform: translateX(2048px);}
.step3 {transform: translateX(3072px);}
.step4 {transform: translateX(4096px);}
.step5 {transform: translateX(5120px);}
.step6 {transform: translateX(6144px);}
.step7 {transform: translateX(7168px);}
.step8 {transform: translateX(8192px);}
.step9 {transform: translateX(9216px);}
.step10 {transform: translateX(10240px);}
.step11 {transform: translateX(11264px);}
.step12 {transform: translateX(12288px);}
.step13 {transform: translateX(13312px);}
.step14 {transform: translateX(14336px);}
.step15 {transform: translateX(15360px);}
.step16 {transform: translateX(16384px);}
.step17 {transform: translateX(17408px);}
.step18 {transform: translateX(18432px);}
.step19 {transform: translateX(19456px);}
.step20 {transform: translateX(20480px);}
.step21 {transform: translateX(21504px);}
.step22 {transform: translateX(22528px);}
.step23 {transform: translateX(23552px);}
.step24 {transform: translateX(24576px);}
.step25 {transform: translateX(25600px);}
.step26 {transform: translateX(26624px);}
.step27 {transform: translateX(27648px);}
.step28 {transform: translateX(28672px);}
.step29 {transform: translateX(29696px);}
    </style>

    <path d="M 116 569 Q 115 570 115 571 Q 105 578 70 585 Q 58 589 55 584 Q 48 578 56 563 Q 83 497 95 393 Q 96 362 113 340 Q 129 318 135 333 Q 141 348 140 374 L 137 405 Q 124 505 120 540 L 116 569 Z" fill="lightgray" class="stroke step1"/>
    <path d="M 271 435 Q 287 525 311 553 Q 332 580 308 593 Q 289 603 261 618 Q 242 628 224 616 Q 194 595 116 569 C 88 559 92 529 120 540 Q 126 544 205 565 Q 227 572 234 563 Q 241 556 236 519 Q 230 479 222 433 C 217 403 266 405 271 435 Z" fill="lightgray" class="stroke step1"/>
    <path d="M 140 374 Q 150 373 164 376 Q 204 388 291 401 Q 301 402 302 412 Q 302 419 271 435 C 255 444 251 442 222 433 Q 173 417 137 405 C 109 396 110 375 140 374 Z" fill="lightgray" class="hide"/>
    <path d="M 586 779 L 588 781 Q 606 814 606 816 Q 605 826 591 837 Q 558 867 525 858 Q 518 855 520 843 Q 538 770 423 617 Q 420 616 418 612 Q 385 570 301 488 Q 292 482 303 480 Q 375 495 483 622 Q 486 626 489 629 Q 523 674 573 756 L 586 779 Z" fill="lightgray" class="hide"/>
    <path d="M 573 756 Q 748 563 798 550 Q 852 541 956 561 Q 974 562 975 568 Q 978 575 963 580 Q 777 647 758 658 Q 725 677 586 779 C 562 797 553 778 573 756 Z" fill="lightgray" class="hide"/>
    <path d="M 474 591 Q 441 584 466 569 Q 500 553 567 568 Q 603 577 642 586 Q 661 590 664 594 Q 671 601 667 609 Q 660 619 633 625 Q 614 628 535 602 Q 508 595 474 591 Z" fill="lightgray" class="hide"/>
    <path d="M 400 480 Q 390 484 365 488 Q 355 492 351 487 Q 345 481 353 466 Q 378 411 394 323 Q 397 296 413 279 Q 429 258 434 273 Q 435 280 437 289 L 437 318 Q 434 331 417 447 C 413 476 413 476 400 480 Z" fill="lightgray" class="hide"/>
    <path d="M 694 327 Q 707 305 721 298 Q 730 291 745 309 Q 758 327 789 426 Q 799 454 821 478 Q 834 488 823 503 Q 810 519 769 544 Q 751 554 678 534 Q 645 531 511 502 Q 451 489 400 480 C 370 475 389 435 417 447 Q 426 456 535 476 L 571 484 Q 712 517 736 500 Q 746 493 743 477 Q 721 381 712 367 Q 708 358 696 354 C 682 344 682 344 694 327 Z" fill="lightgray" class="hide"/>
    <path d="M 586 349 Q 590 392 594 428 Q 594 435 595 439 Q 602 455 594 464 Q 582 476 571 484 C 547 502 525 504 535 476 Q 541 470 545 339 C 546 309 583 319 586 349 Z" fill="lightgray" class="hide"/>
    <path d="M 452 414 Q 488 362 505 359 Q 515 358 521 371 Q 524 381 518 397 Q 511 410 495 417 Q 470 432 458 434 Q 451 435 449 427 Q 448 421 452 414 Z" fill="lightgray" class="hide"/>
    <path d="M 640 445 Q 630 423 607 389 Q 603 385 607 379 Q 613 379 618 382 Q 667 419 693 434 Q 706 438 702 446 Q 698 456 682 469 Q 667 481 652 482 Q 642 481 643 467 Q 644 457 640 445 Z" fill="lightgray" class="hide"/>
    <path d="M 437 289 Q 447 286 460 289 Q 533 308 694 327 C 724 331 720 336 696 354 Q 692 358 684 362 Q 666 372 586 349 L 545 339 Q 485 327 437 318 C 408 312 407 294 437 289 Z" fill="lightgray" class="hide"/>
    <path d="M 471 230 Q 452 245 428 252 Q 421 253 415 247 Q 412 243 419 233 Q 446 160 424 52 Q 414 33 421 6 Q 428 -22 439 -33 Q 449 -45 456 -33 Q 469 -14 471 9 L 476 42 Q 476 72 477 104 L 478 128 Q 478 183 481 202 C 483 221 483 221 471 230 Z" fill="lightgray" class="hide"/>
    <path d="M 672 21 Q 685 -1 696 -26 Q 706 -45 716 -48 Q 726 -48 736 -26 Q 754 20 745 157 Q 745 202 751 223 Q 760 244 748 252 Q 741 262 706 279 Q 690 286 608 259 Q 532 240 471 230 C 441 225 452 196 481 202 Q 490 203 501 206 Q 565 228 650 240 Q 675 244 683 235 Q 692 226 688 111 Q 688 69 684 61 Q 681 57 675 54 C 662 39 662 39 672 21 Z" fill="lightgray" class="hide"/>
    <path d="M 477 104 Q 484 103 495 104 Q 576 120 636 129 Q 658 133 649 145 Q 639 158 615 162 Q 585 163 478 128 C 449 119 447 106 477 104 Z" fill="lightgray" class="hide"/>
    <path d="M 471 9 Q 480 8 491 9 Q 549 19 672 21 C 702 22 698 35 675 54 Q 671 58 666 61 Q 650 71 619 65 Q 540 50 476 42 C 446 38 441 11 471 9 Z" fill="lightgray" class="hide"/></g><g transform="scale(1, -1) translate(0, -900)">
    <style type="text/css">
        .origin {display:none;}
        .hide {display:none;}
        .stroke {fill: #000000;}
        
.step1 {transform: translateX(1024px);}
.step2 {transform: translateX(2048px);}
.step3 {transform: translateX(3072px);}
.step4 {transform: translateX(4096px);}
.step5 {transform: translateX(5120px);}
.step6 {transform: translateX(6144px);}
.step7 {transform: translateX(7168px);}
.step8 {transform: translateX(8192px);}
.step9 {transform: translateX(9216px);}
.step10 {transform: translateX(10240px);}
.step11 {transform: translateX(11264px);}
.step12 {transform: translateX(12288px);}
.step13 {transform: translateX(13312px);}
.step14 {transform: translateX(14336px);}
.step15 {transform: translateX(15360px);}
.step16 {transform: translateX(16384px);}
.step17 {transform: translateX(17408px);}
.step18 {transform: translateX(18432px);}
.step19 {transform: translateX(19456px);}
.step20 {transform: translateX(20480px);}
.step21 {transform: translateX(21504px);}
.step22 {transform: translateX(22528px);}
.step23 {transform: translateX(23552px);}
.step24 {transform: translateX(24576px);}
.step25 {transform: translateX(25600px);}
.step26 {transform: translateX(26624px);}
.step27 {transform: translateX(27648px);}
.step28 {transform: translateX(28672px);}
.step29 {transform: translateX(29696px);}
    </style>

    <path d="M 116 569 Q 115 570 115 571 Q 105 578 70 585 Q 58 589 55 584 Q 48 578 56 563 Q 83 497 95 393 Q 96 362 113 340 Q 129 318 135 333 Q 141 348 140 374 L 137 405 Q 124 505 120 540 L 116 569 Z" fill="lightgray" class="stroke step2"/>
    <path d="M 271 435 Q 287 525 311 553 Q 332 580 308 593 Q 289 603 261 618 Q 242 628 224 616 Q 194 595 116 569 C 88 559 92 529 120 540 Q 126 544 205 565 Q 227 572 234 563 Q 241 556 236 519 Q 230 479 222 433 C 217 403 266 405 271 435 Z" fill="lightgray" class="stroke step2"/>
    <path d="M 140 374 Q 150 373 164 376 Q 204 388 291 401 Q 301 402 302 412 Q 302 419 271 435 C 255 444 251 442 222 433 Q 173 417 137 405 C 109 396 110 375 140 374 Z" fill="lightgray" class="stroke step2"/>
    <path d="M 586 779 L 588 781 Q 606 814 606 816 Q 605 826 591 837 Q 558 867 525 858 Q 518 855 520 843 Q 538 770 423 617 Q 420 616 418 612 Q 385 570 301 488 Q 292 482 303 480 Q 375 495 483 622 Q 486 626 489 629 Q 523 674 573 756 L 586 779 Z" fill="lightgray" class="hide"/>
    <path d="M 573 756 Q 748 563 798 550 Q 852 541 956 561 Q 974 562 975 568 Q 978 575 963 580 Q 777 647 758 658 Q 725 677 586 779 C 562 797 553 778 573 756 Z" fill="lightgray" class="hide"/>
    <path d="M 474 591 Q 441 584 466 569 Q 500 553 567 568 Q 603 577 642 586 Q 661 590 664 594 Q 671 601 667 609 Q 660 619 633 625 Q 614 628 535 602 Q 508 595 474 591 Z" fill="lightgray" class="hide"/>
    <path d="M 400 480 Q 390 484 365 488 Q 355 492 351 487 Q 345 481 353 466 Q 378 411 394 323 Q 397 296 413 279 Q 429 258 434 273 Q 435 280 437 289 L 437 318 Q 434 331 417 447 C 413 476 413 476 400 480 Z" fill="lightgray" class="hide"/>
    <path d="M 694 327 Q 707 305 721 298 Q 730 291 745 309 Q 758 327 789 426 Q 799 454 821 478 Q 834 488 823 503 Q 810 519 769 544 Q 751 554 678 534 Q 645 531 511 502 Q 451 489 400 480 C 370 475 389 435 417 447 Q 426 456 535 476 L 571 484 Q 712 517 736 500 Q 746 493 743 477 Q 721 381 712 367 Q 708 358 696 354 C 682 344 682 344 694 327 Z" fill="lightgray" class="hide"/>
    <path d="M 586 349 Q 590 392 594 428 Q 594 435 595 439 Q 602 455 594 464 Q 582 476 571 484 C 547 502 525 504 535 476 Q 541 470 545 339 C 546 309 583 319 586 349 Z" fill="lightgray" class="hide"/>
    <path d="M 452 414 Q 488 362 505 359 Q 515 358 521 371 Q 524 381 518 397 Q 511 410 495 417 Q 470 432 458 434 Q 451 435 449 427 Q 448 421 452 414 Z" fill="lightgray" class="hide"/>
    <path d="M 640 445 Q 630 423 607 389 Q 603 385 607 379 Q 613 379 618 382 Q 667 419 693 434 Q 706 438 702 446 Q 698 456 682 469 Q 667 481 652 482 Q 642 481 643 467 Q 644 457 640 445 Z" fill="lightgray" class="hide"/>
    <path d="M 437 289 Q 447 286 460 289 Q 533 308 694 327 C 724 331 720 336 696 354 Q 692 358 684 362 Q 666 372 586 349 L 545 339 Q 485 327 437 318 C 408 312 407 294 437 289 Z" fill="lightgray" class="hide"/>
    <path d="M 471 230 Q 452 245 428 252 Q 421 253 415 247 Q 412 243 419 233 Q 446 160 424 52 Q 414 33 421 6 Q 428 -22 439 -33 Q 449 -45 456 -33 Q 469 -14 471 9 L 476 42 Q 476 72 477 104 L 478 128 Q 478 183 481 202 C 483 221 483 221 471 230 Z" fill="lightgray" class="hide"/>
    <path d="M 672 21 Q 685 -1 696 -26 Q 706 -45 716 -48 Q 726 -48 736 -26 Q 754 20 745 157 Q 745 202 751 223 Q 760 244 748 252 Q 741 262 706 279 Q 690 286 608 259 Q 532 240 471 230 C 441 225 452 196 481 202 Q 490 203 501 206 Q 565 228 650 240 Q 675 244 683 235 Q 692 226 688 111 Q 688 69 684 61 Q 681 57 675 54 C 662 39 662 39 672 21 Z" fill="lightgray" class="hide"/>
    <path d="M 477 104 Q 484 103 495 104 Q 576 120 636 129 Q 658 133 649 145 Q 639 158 615 162 Q 585 163 478 128 C 449 119 447 106 477 104 Z" fill="lightgray" class="hide"/>
    <path d="M 471 9 Q 480 8 491 9 Q 549 19 672 21 C 702 22 698 35 675 54 Q 671 58 666 61 Q 650 71 619 65 Q 540 50 476 42 C 446 38 441 11 471 9 Z" fill="lightgray" class="hide"/></g><g transform="scale(1, -1) translate(0, -900)">
    <style type="text/css">
        .origin {display:none;}
        .hide {display:none;}
        .stroke {fill: #000000;}
        
.step1 {transform: translateX(1024px);}
.step2 {transform: translateX(2048px);}
.step3 {transform: translateX(3072px);}
.step4 {transform: translateX(4096px);}
.step5 {transform: translateX(5120px);}
.step6 {transform: translateX(6144px);}
.step7 {transform: translateX(7168px);}
.step8 {transform: translateX(8192px);}
.step9 {transform: translateX(9216px);}
.step10 {transform: translateX(10240px);}
.step11 {transform: translateX(11264px);}
.step12 {transform: translateX(12288px);}
.step13 {transform: translateX(13312px);}
.step14 {transform: translateX(14336px);}
.step15 {transform: translateX(15360px);}
.step16 {transform: translateX(16384px);}
.step17 {transform: translateX(17408px);}
.step18 {transform: translateX(18432px);}
.step19 {transform: translateX(19456px);}
.step20 {transform: translateX(20480px);}
.step21 {transform: translateX(21504px);}
.step22 {transform: translateX(22528px);}
.step23 {transform: translateX(23552px);}
.step24 {transform: translateX(24576px);}
.step25 {transform: translateX(25600px);}
.step26 {transform: translateX(26624px);}
.step27 {transform: translateX(27648px);}
.step28 {transform: translateX(28672px);}
.step29 {transform: translateX(29696px);}
    </style>

    <path d="M 116 569 Q 115 570 115 571 Q 105 578 70 585 Q 58 589 55 584 Q 48 578 56 563 Q 83 497 95 393 Q 96 362 113 340 Q 129 318 135 333 Q 141 348 140 374 L 137 405 Q 124 505 120 540 L 116 569 Z" fill="lightgray" class="stroke step3"/>
    <path d="M 271 435 Q 287 525 311 553 Q 332 580 308 593 Q 289 603 261 618 Q 242 628 224 616 Q 194 595 116 569 C 88 559 92 529 120 540 Q 126 544 205 565 Q 227 572 234 563 Q 241 556 236 519 Q 230 479 222 433 C 217 403 266 405 271 435 Z" fill="lightgray" class="stroke step3"/>
    <path d="M 140 374 Q 150 373 164 376 Q 204 388 291 401 Q 301 402 302 412 Q 302 419 271 435 C 255 444 251 442 222 433 Q 173 417 137 405 C 109 396 110 375 140 374 Z" fill="lightgray" class="stroke step3"/>
    <path d="M 586 779 L 588 781 Q 606 814 606 816 Q 605 826 591 837 Q 558 867 525 858 Q 518 855 520 843 Q 538 770 423 617 Q 420 616 418 612 Q 385 570 301 488 Q 292 482 303 480 Q 375 495 483 622 Q 486 626 489 629 Q 523 674 573 756 L 586 779 Z" fill="lightgray" class="stroke step3"/>
    <path d="M 573 756 Q 748 563 798 550 Q 852 541 956 561 Q 974 562 975 568 Q 978 575 963 580 Q 777 647 758 658 Q 725 677 586 779 C 562 797 553 778 573 756 Z" fill="lightgray" class="hide"/>
    <path d="M 474 591 Q 441 584 466 569 Q 500 553 567 568 Q 603 577 642 586 Q 661 590 664 594 Q 671 601 667 609 Q 660 619 633 625 Q 614 628 535 602 Q 508 595 474 591 Z" fill="lightgray" class="hide"/>
    <path d="M 400 480 Q 390 484 365 488 Q 355 492 351 487 Q 345 481 353 466 Q 378 411 394 323 Q 397 296 413 279 Q 429 258 434 273 Q 435 280 437 289 L 437 318 Q 434 331 417 447 C 413 476 413 476 400 480 Z" fill="lightgray" class="hide"/>
    <path d="M 694 327 Q 707 305 721 298 Q 730 291 745 309 Q 758 327 789 426 Q 799 454 821 478 Q 834 488 823 503 Q 810 519 769 544 Q 751 554 678 534 Q 645 531 511 502 Q 451 489 400 480 C 370 475 389 435 417 447 Q 426 456 535 476 L 571 484 Q 712 517 736 500 Q 746 493 743 477 Q 721 381 712 367 Q 708 358 696 354 C 682 344 682 344 694 327 Z" fill="lightgray" class="hide"/>
    <path d="M 586 349 Q 590 392 594 428 Q 594 435 595 439 Q 602 455 594 464 Q 582 476 571 484 C 547 502 525 504 535 476 Q 541 470 545 339 C 546 309 583 319 586 349 Z" fill="lightgray" class="hide"/>
    <path d="M 452 414 Q 488 362 505 359 Q 515 358 521 371 Q 524 381 518 397 Q 511 410 495 417 Q 470 432 458 434 Q 451 435 449 427 Q 448 421 452 414 Z" fill="lightgray" class="hide"/>
    <path d="M 640 445 Q 630 423 607 389 Q 603 385 607 379 Q 613 379 618 382 Q 667 419 693 434 Q 706 438 702 446 Q 698 456 682 469 Q 667 481 652 482 Q 642 481 643 467 Q 644 457 640 445 Z" fill="lightgray" class="hide"/>
    <path d="M 437 289 Q 447 286 460 289 Q 533 308 694 327 C 724 331 720 336 696 354 Q 692 358 684 362 Q 666 372 586 349 L 545 339 Q 485 327 437 318 C 408 312 407 294 437 289 Z" fill="lightgray" class="hide"/>
    <path d="M 471 230 Q 452 245 428 252 Q 421 253 415 247 Q 412 243 419 233 Q 446 160 424 52 Q 414 33 421 6 Q 428 -22 439 -33 Q 449 -45 456 -33 Q 469 -14 471 9 L 476 42 Q 476 72 477 104 L 478 128 Q 478 183 481 202 C 483 221 483 221 471 230 Z" fill="lightgray" class="hide"/>
    <path d="M 672 21 Q 685 -1 696 -26 Q 706 -45 716 -48 Q 726 -48 736 -26 Q 754 20 745 157 Q 745 202 751 223 Q 760 244 748 252 Q 741 262 706 279 Q 690 286 608 259 Q 532 240 471 230 C 441 225 452 196 481 202 Q 490 203 501 206 Q 565 228 650 240 Q 675 244 683 235 Q 692 226 688 111 Q 688 69 684 61 Q 681 57 675 54 C 662 39 662 39 672 21 Z" fill="lightgray" class="hide"/>
    <path d="M 477 104 Q 484 103 495 104 Q 576 120 636 129 Q 658 133 649 145 Q 639 158 615 162 Q 585 163 478 128 C 449 119 447 106 477 104 Z" fill="lightgray" class="hide"/>
    <path d="M 471 9 Q 480 8 491 9 Q 549 19 672 21 C 702 22 698 35 675 54 Q 671 58 666 61 Q 650 71 619 65 Q 540 50 476 42 C 446 38 441 11 471 9 Z" fill="lightgray" class="hide"/></g><g transform="scale(1, -1) translate(0, -900)">
    <style type="text/css">
        .origin {display:none;}
        .hide {display:none;}
        .stroke {fill: #000000;}
        
.step1 {transform: translateX(1024px);}
.step2 {transform: translateX(2048px);}
.step3 {transform: translateX(3072px);}
.step4 {transform: translateX(4096px);}
.step5 {transform: translateX(5120px);}
.step6 {transform: translateX(6144px);}
.step7 {transform: translateX(7168px);}
.step8 {transform: translateX(8192px);}
.step9 {transform: translateX(9216px);}
.step10 {transform: translateX(10240px);}
.step11 {transform: translateX(11264px);}
.step12 {transform: translateX(12288px);}
.step13 {transform: translateX(13312px);}
.step14 {transform: translateX(14336px);}
.step15 {transform: translateX(15360px);}
.step16 {transform: translateX(16384px);}
.step17 {transform: translateX(17408px);}
.step18 {transform: translateX(18432px);}
.step19 {transform: translateX(19456px);}
.step20 {transform: translateX(20480px);}
.step21 {transform: translateX(21504px);}
.step22 {transform: translateX(22528px);}
.step23 {transform: translateX(23552px);}
.step24 {transform: translateX(24576px);}
.step25 {transform: translateX(25600px);}
.step26 {transform: translateX(26624px);}
.step27 {transform: translateX(27648px);}
.step28 {transform: translateX(28672px);}
.step29 {transform: translateX(29696px);}
    </style>

    <path d="M 116 569 Q 115 570 115 571 Q 105 578 70 585 Q 58 589 55 584 Q 48 578 56 563 Q 83 497 95 393 Q 96 362 113 340 Q 129 318 135 333 Q 141 348 140 374 L 137 405 Q 124 505 120 540 L 116 569 Z" fill="lightgray" class="stroke step4"/>
    <path d="M 271 435 Q 287 525 311 553 Q 332 580 308 593 Q 289 603 261 618 Q 242 628 224 616 Q 194 595 116 569 C 88 559 92 529 120 540 Q 126 544 205 565 Q 227 572 234 563 Q 241 556 236 519 Q 230 479 222 433 C 217 403 266 405 271 435 Z" fill="lightgray" class="stroke step4"/>
    <path d="M 140 374 Q 150 373 164 376 Q 204 388 291 401 Q 301 402 302 412 Q 302 419 271 435 C 255 444 251 442 222 433 Q 173 417 137 405 C 109 396 110 375 140 374 Z" fill="lightgray" class="stroke step4"/>
    <path d="M 586 779 L 588 781 Q 606 814 606 816 Q 605 826 591 837 Q 558 867 525 858 Q 518 855 520 843 Q 538 770 423 617 Q 420 616 418 612 Q 385 570 301 488 Q 292 482 303 480 Q 375 495 483 622 Q 486 626 489 629 Q 523 674 573 756 L 586 779 Z" fill="lightgray" class="stroke step4"/>
    <path d="M 573 756 Q 748 563 798 550 Q 852 541 956 561 Q 974 562 975 568 Q 978 575 963 580 Q 777 647 758 658 Q 725 677 586 779 C 562 797 553 778 573 756 Z" fill="lightgray" class="stroke step4"/>
    <path d="M 474 591 Q 441 584 466 569 Q 500 553 567 568 Q 603 577 642 586 Q 661 590 664 594 Q 671 601 667 609 Q 660 619 633 625 Q 614 628 535 602 Q 508 595 474 591 Z" fill="lightgray" class="hide"/>
    <path d="M 400 480 Q 390 484 365 488 Q 355 492 351 487 Q 345 481 353 466 Q 378 411 394 323 Q 397 296 413 279 Q 429 258 434 273 Q 435 280 437 289 L 437 318 Q 434 331 417 447 C 413 476 413 476 400 480 Z" fill="lightgray" class="hide"/>
    <path d="M 694 327 Q 707 305 721 298 Q 730 291 745 309 Q 758 327 789 426 Q 799 454 821 478 Q 834 488 823 503 Q 810 519 769 544 Q 751 554 678 534 Q 645 531 511 502 Q 451 489 400 480 C 370 475 389 435 417 447 Q 426 456 535 476 L 571 484 Q 712 517 736 500 Q 746 493 743 477 Q 721 381 712 367 Q 708 358 696 354 C 682 344 682 344 694 327 Z" fill="lightgray" class="hide"/>
    <path d="M 586 349 Q 590 392 594 428 Q 594 435 595 439 Q 602 455 594 464 Q 582 476 571 484 C 547 502 525 504 535 476 Q 541 470 545 339 C 546 309 583 319 586 349 Z" fill="lightgray" class="hide"/>
    <path d="M 452 414 Q 488 362 505 359 Q 515 358 521 371 Q 524 381 518 397 Q 511 410 495 417 Q 470 432 458 434 Q 451 435 449 427 Q 448 421 452 414 Z" fill="lightgray" class="hide"/>
    <path d="M 640 445 Q 630 423 607 389 Q 603 385 607 379 Q 613 379 618 382 Q 667 419 693 434 Q 706 438 702 446 Q 698 456 682 469 Q 667 481 652 482 Q 642 481 643 467 Q 644 457 640 445 Z" fill="lightgray" class="hide"/>
    <path d="M 437 289 Q 447 286 460 289 Q 533 308 694 327 C 724 331 720 336 696 354 Q 692 358 684 362 Q 666 372 586 349 L 545 339 Q 485 327 437 318 C 408 312 407 294 437 289 Z" fill="lightgray" class="hide"/>
    <path d="M 471 230 Q 452 245 428 252 Q 421 253 415 247 Q 412 243 419 233 Q 446 160 424 52 Q 414 33 421 6 Q 428 -22 439 -33 Q 449 -45 456 -33 Q 469 -14 471 9 L 476 42 Q 476 72 477 104 L 478 128 Q 478 183 481 202 C 483 221 483 221 471 230 Z" fill="lightgray" class="hide"/>
    <path d="M 672 21 Q 685 -1 696 -26 Q 706 -45 716 -48 Q 726 -48 736 -26 Q 754 20 745 157 Q 745 202 751 223 Q 760 244 748 252 Q 741 262 706 279 Q 690 286 608 259 Q 532 240 471 230 C 441 225 452 196 481 202 Q 490 203 501 206 Q 565 228 650 240 Q 675 244 683 235 Q 692 226 688 111 Q 688 69 684 61 Q 681 57 675 54 C 662 39 662 39 672 21 Z" fill="lightgray" class="hide"/>
    <path d="M 477 104 Q 484 103 495 104 Q 576 120 636 129 Q 658 133 649 145 Q 639 158 615 162 Q 585 163 478 128 C 449 119 447 106 477 104 Z" fill="lightgray" class="hide"/>
    <path d="M 471 9 Q 480 8 491 9 Q 549 19 672 21 C 702 22 698 35 675 54 Q 671 58 666 61 Q 650 71 619 65 Q 540 50 476 42 C 446 38 441 11 471 9 Z" fill="lightgray" class="hide"/></g><g transform="scale(1, -1) translate(0, -900)">
    <style type="text/css">
        .origin {display:none;}
        .hide {display:none;}
        .stroke {fill: #000000;}
        
.step1 {transform: translateX(1024px);}
.step2 {transform: translateX(2048px);}
.step3 {transform: translateX(3072px);}
.step4 {transform: translateX(4096px);}
.step5 {transform: translateX(5120px);}
.step6 {transform: translateX(6144px);}
.step7 {transform: translateX(7168px);}
.step8 {transform: translateX(8192px);}
.step9 {transform: translateX(9216px);}
.step10 {transform: translateX(10240px);}
.step11 {transform: translateX(11264px);}
.step12 {transform: translateX(12288px);}
.step13 {transform: translateX(13312px);}
.step14 {transform: translateX(14336px);}
.step15 {transform: translateX(15360px);}
.step16 {transform: translateX(16384px);}
.step17 {transform: translateX(17408px);}
.step18 {transform: translateX(18432px);}
.step19 {transform: translateX(19456px);}
.step20 {transform: translateX(20480px);}
.step21 {transform: translateX(21504px);}
.step22 {transform: translateX(22528px);}
.step23 {transform: translateX(23552px);}
.step24 {transform: translateX(24576px);}
.step25 {transform: translateX(25600px);}
.step26 {transform: translateX(26624px);}
.step27 {transform: translateX(27648px);}
.step28 {transform: translateX(28672px);}
.step29 {transform: translateX(29696px);}
    </style>

    <path d="M 116 569 Q 115 570 115 571 Q 105 578 70 585 Q 58 589 55 584 Q 48 578 56 563 Q 83 497 95 393 Q 96 362 113 340 Q 129 318 135 333 Q 141 348 140 374 L 137 405 Q 124 505 120 540 L 116 569 Z" fill="lightgray" class="stroke step5"/>
    <path d="M 271 435 Q 287 525 311 553 Q 332 580 308 593 Q 289 603 261 618 Q 242 628 224 616 Q 194 595 116 569 C 88 559 92 529 120 540 Q 126 544 205 565 Q 227 572 234 563 Q 241 556 236 519 Q 230 479 222 433 C 217 403 266 405 271 435 Z" fill="lightgray" class="stroke step5"/>
    <path d="M 140 374 Q 150 373 164 376 Q 204 388 291 401 Q 301 402 302 412 Q 302 419 271 435 C 255 444 251 442 222 433 Q 173 417 137 405 C 109 396 110 375 140 374 Z" fill="lightgray" class="stroke step5"/>
    <path d="M 586 779 L 588 781 Q 606 814 606 816 Q 605 826 591 837 Q 558 867 525 858 Q 518 855 520 843 Q 538 770 423 617 Q 420 616 418 612 Q 385 570 301 488 Q 292 482 303 480 Q 375 495 483 622 Q 486 626 489 629 Q 523 674 573 756 L 586 779 Z" fill="lightgray" class="stroke step5"/>
    <path d="M 573 756 Q 748 563 798 550 Q 852 541 956 561 Q 974 562 975 568 Q 978 575 963 580 Q 777 647 758 658 Q 725 677 586 779 C 562 797 553 778 573 756 Z" fill="lightgray" class="stroke step5"/>
    <path d="M 474 591 Q 441 584 466 569 Q 500 553 567 568 Q 603 577 642 586 Q 661 590 664 594 Q 671 601 667 609 Q 660 619 633 625 Q 614 628 535 602 Q 508 595 474 591 Z" fill="lightgray" class="stroke step5"/>
    <path d="M 400 480 Q 390 484 365 488 Q 355 492 351 487 Q 345 481 353 466 Q 378 411 394 323 Q 397 296 413 279 Q 429 258 434 273 Q 435 280 437 289 L 437 318 Q 434 331 417 447 C 413 476 413 476 400 480 Z" fill="lightgray" class="hide"/>
    <path d="M 694 327 Q 707 305 721 298 Q 730 291 745 309 Q 758 327 789 426 Q 799 454 821 478 Q 834 488 823 503 Q 810 519 769 544 Q 751 554 678 534 Q 645 531 511 502 Q 451 489 400 480 C 370 475 389 435 417 447 Q 426 456 535 476 L 571 484 Q 712 517 736 500 Q 746 493 743 477 Q 721 381 712 367 Q 708 358 696 354 C 682 344 682 344 694 327 Z" fill="lightgray" class="hide"/>
    <path d="M 586 349 Q 590 392 594 428 Q 594 435 595 439 Q 602 455 594 464 Q 582 476 571 484 C 547 502 525 504 535 476 Q 541 470 545 339 C 546 309 583 319 586 349 Z" fill="lightgray" class="hide"/>
    <path d="M 452 414 Q 488 362 505 359 Q 515 358 521 371 Q 524 381 518 397 Q 511 410 495 417 Q 470 432 458 434 Q 451 435 449 427 Q 448 421 452 414 Z" fill="lightgray" class="hide"/>
    <path d="M 640 445 Q 630 423 607 389 Q 603 385 607 379 Q 613 379 618 382 Q 667 419 693 434 Q 706 438 702 446 Q 698 456 682 469 Q 667 481 652 482 Q 642 481 643 467 Q 644 457 640 445 Z" fill="lightgray" class="hide"/>
    <path d="M 437 289 Q 447 286 460 289 Q 533 308 694 327 C 724 331 720 336 696 354 Q 692 358 684 362 Q 666 372 586 349 L 545 339 Q 485 327 437 318 C 408 312 407 294 437 289 Z" fill="lightgray" class="hide"/>
    <path d="M 471 230 Q 452 245 428 252 Q 421 253 415 247 Q 412 243 419 233 Q 446 160 424 52 Q 414 33 421 6 Q 428 -22 439 -33 Q 449 -45 456 -33 Q 469 -14 471 9 L 476 42 Q 476 72 477 104 L 478 128 Q 478 183 481 202 C 483 221 483 221 471 230 Z" fill="lightgray" class="hide"/>
    <path d="M 672 21 Q 685 -1 696 -26 Q 706 -45 716 -48 Q 726 -48 736 -26 Q 754 20 745 157 Q 745 202 751 223 Q 760 244 748 252 Q 741 262 706 279 Q 690 286 608 259 Q 532 240 471 230 C 441 225 452 196 481 202 Q 490 203 501 206 Q 565 228 650 240 Q 675 244 683 235 Q 692 226 688 111 Q 688 69 684 61 Q 681 57 675 54 C 662 39 662 39 672 21 Z" fill="lightgray" class="hide"/>
    <path d="M 477 104 Q 484 103 495 104 Q 576 120 636 129 Q 658 133 649 145 Q 639 158 615 162 Q 585 163 478 128 C 449 119 447 106 477 104 Z" fill="lightgray" class="hide"/>
    <path d="M 471 9 Q 480 8 491 9 Q 549 19 672 21 C 702 22 698 35 675 54 Q 671 58 666 61 Q 650 71 619 65 Q 540 50 476 42 C 446 38 441 11 471 9 Z" fill="lightgray" class="hide"/></g><g transform="scale(1, -1) translate(0, -900)">
    <style type="text/css">
        .origin {display:none;}
        .hide {display:none;}
        .stroke {fill: #000000;}
        
.step1 {transform: translateX(1024px);}
.step2 {transform: translateX(2048px);}
.step3 {transform: translateX(3072px);}
.step4 {transform: translateX(4096px);}
.step5 {transform: translateX(5120px);}
.step6 {transform: translateX(6144px);}
.step7 {transform: translateX(7168px);}
.step8 {transform: translateX(8192px);}
.step9 {transform: translateX(9216px);}
.step10 {transform: translateX(10240px);}
.step11 {transform: translateX(11264px);}
.step12 {transform: translateX(12288px);}
.step13 {transform: translateX(13312px);}
.step14 {transform: translateX(14336px);}
.step15 {transform: translateX(15360px);}
.step16 {transform: translateX(16384px);}
.step17 {transform: translateX(17408px);}
.step18 {transform: translateX(18432px);}
.step19 {transform: translateX(19456px);}
.step20 {transform: translateX(20480px);}
.step21 {transform: translateX(21504px);}
.step22 {transform: translateX(22528px);}
.step23 {transform: translateX(23552px);}
.step24 {transform: translateX(24576px);}
.step25 {transform: translateX(25600px);}
.step26 {transform: translateX(26624px);}
.step27 {transform: translateX(27648px);}
.step28 {transform: translateX(28672px);}
.step29 {transform: translateX(29696px);}
    </style>

    <path d="M 116 569 Q 115 570 115 571 Q 105 578 70 585 Q 58 589 55 584 Q 48 578 56 563 Q 83 497 95 393 Q 96 362 113 340 Q 129 318 135 333 Q 141 348 140 374 L 137 405 Q 124 505 120 540 L 116 569 Z" fill="lightgray" class="stroke step6"/>
    <path d="M 271 435 Q 287 525 311 553 Q 332 580 308 593 Q 289 603 261 618 Q 242 628 224 616 Q 194 595 116 569 C 88 559 92 529 120 540 Q 126 544 205 565 Q 227 572 234 563 Q 241 556 236 519 Q 230 479 222 433 C 217 403 266 405 271 435 Z" fill="lightgray" class="stroke step6"/>
    <path d="M 140 374 Q 150 373 164 376 Q 204 388 291 401 Q 301 402 302 412 Q 302 419 271 435 C 255 444 251 442 222 433 Q 173 417 137 405 C 109 396 110 375 140 374 Z" fill="lightgray" class="stroke step6"/>
    <path d="M 586 779 L 588 781 Q 606 814 606 816 Q 605 826 591 837 Q 558 867 525 858 Q 518 855 520 843 Q 538 770 423 617 Q 420 616 418 612 Q 385 570 301 488 Q 292 482 303 480 Q 375 495 483 622 Q 486 626 489 629 Q 523 674 573 756 L 586 779 Z" fill="lightgray" class="stroke step6"/>
    <path d="M 573 756 Q 748 563 798 550 Q 852 541 956 561 Q 974 562 975 568 Q 978 575 963 580 Q 777 647 758 658 Q 725 677 586 779 C 562 797 553 778 573 756 Z" fill="lightgray" class="stroke step6"/>
    <path d="M 474 591 Q 441 584 466 569 Q 500 553 567 568 Q 603 577 642 586 Q 661 590 664 594 Q 671 601 667 609 Q 660 619 633 625 Q 614 628 535 602 Q 508 595 474 591 Z" fill="lightgray" class="stroke step6"/>
    <path d="M 400 480 Q 390 484 365 488 Q 355 492 351 487 Q 345 481 353 466 Q 378 411 394 323 Q 397 296 413 279 Q 429 258 434 273 Q 435 280 437 289 L 437 318 Q 434 331 417 447 C 413 476 413 476 400 480 Z" fill="lightgray" class="stroke step6"/>
    <path d="M 694 327 Q 707 305 721 298 Q 730 291 745 309 Q 758 327 789 426 Q 799 454 821 478 Q 834 488 823 503 Q 810 519 769 544 Q 751 554 678 534 Q 645 531 511 502 Q 451 489 400 480 C 370 475 389 435 417 447 Q 426 456 535 476 L 571 484 Q 712 517 736 500 Q 746 493 743 477 Q 721 381 712 367 Q 708 358 696 354 C 682 344 682 344 694 327 Z" fill="lightgray" class="hide"/>
    <path d="M 586 349 Q 590 392 594 428 Q 594 435 595 439 Q 602 455 594 464 Q 582 476 571 484 C 547 502 525 504 535 476 Q 541 470 545 339 C 546 309 583 319 586 349 Z" fill="lightgray" class="hide"/>
    <path d="M 452 414 Q 488 362 505 359 Q 515 358 521 371 Q 524 381 518 397 Q 511 410 495 417 Q 470 432 458 434 Q 451 435 449 427 Q 448 421 452 414 Z" fill="lightgray" class="hide"/>
    <path d="M 640 445 Q 630 423 607 389 Q 603 385 607 379 Q 613 379 618 382 Q 667 419 693 434 Q 706 438 702 446 Q 698 456 682 469 Q 667 481 652 482 Q 642 481 643 467 Q 644 457 640 445 Z" fill="lightgray" class="hide"/>
    <path d="M 437 289 Q 447 286 460 289 Q 533 308 694 327 C 724 331 720 336 696 354 Q 692 358 684 362 Q 666 372 586 349 L 545 339 Q 485 327 437 318 C 408 312 407 294 437 289 Z" fill="lightgray" class="hide"/>
    <path d="M 471 230 Q 452 245 428 252 Q 421 253 415 247 Q 412 243 419 233 Q 446 160 424 52 Q 414 33 421 6 Q 428 -22 439 -33 Q 449 -45 456 -33 Q 469 -14 471 9 L 476 42 Q 476 72 477 104 L 478 128 Q 478 183 481 202 C 483 221 483 221 471 230 Z" fill="lightgray" class="hide"/>
    <path d="M 672 21 Q 685 -1 696 -26 Q 706 -45 716 -48 Q 726 -48 736 -26 Q 754 20 745 157 Q 745 202 751 223 Q 760 244 748 252 Q 741 262 706 279 Q 690 286 608 259 Q 532 240 471 230 C 441 225 452 196 481 202 Q 490 203 501 206 Q 565 228 650 240 Q 675 244 683 235 Q 692 226 688 111 Q 688 69 684 61 Q 681 57 675 54 C 662 39 662 39 672 21 Z" fill="lightgray" class="hide"/>
    <path d="M 477 104 Q 484 103 495 104 Q 576 120 636 129 Q 658 133 649 145 Q 639 158 615 162 Q 585 163 478 128 C 449 119 447 106 477 104 Z" fill="lightgray" class="hide"/>
    <path d="M 471 9 Q 480 8 491 9 Q 549 19 672 21 C 702 22 698 35 675 54 Q 671 58 666 61 Q 650 71 619 65 Q 540 50 476 42 C 446 38 441 11 471 9 Z" fill="lightgray" class="hide"/></g><g transform="scale(1, -1) translate(0, -900)">
    <style type="text/css">
        .origin {display:none;}
        .hide {display:none;}
        .stroke {fill: #000000;}
        
.step1 {transform: translateX(1024px);}
.step2 {transform: translateX(2048px);}
.step3 {transform: translateX(3072px);}
.step4 {transform: translateX(4096px);}
.step5 {transform: translateX(5120px);}
.step6 {transform: translateX(6144px);}
.step7 {transform: translateX(7168px);}
.step8 {transform: translateX(8192px);}
.step9 {transform: translateX(9216px);}
.step10 {transform: translateX(10240px);}
.step11 {transform: translateX(11264px);}
.step12 {transform: translateX(12288px);}
.step13 {transform: translateX(13312px);}
.step14 {transform: translateX(14336px);}
.step15 {transform: translateX(15360px);}
.step16 {transform: translateX(16384px);}
.step17 {transform: translateX(17408px);}
.step18 {transform: translateX(18432px);}
.step19 {transform: translateX(19456px);}
.step20 {transform: translateX(20480px);}
.step21 {transform: translateX(21504px);}
.step22 {transform: translateX(22528px);}
.step23 {transform: translateX(23552px);}
.step24 {transform: translateX(24576px);}
.step25 {transform: translateX(25600px);}
.step26 {transform: translateX(26624px);}
.step27 {transform: translateX(27648px);}
.step28 {transform: translateX(28672px);}
.step29 {transform: translateX(29696px);}
    </style>

    <path d="M 116 569 Q 115 570 115 571 Q 105 578 70 585 Q 58 589 55 584 Q 48 578 56 563 Q 83 497 95 393 Q 96 362 113 340 Q 129 318 135 333 Q 141 348 140 374 L 137 405 Q 124 505 120 540 L 116 569 Z" fill="lightgray" class="stroke step7"/>
    <path d="M 271 435 Q 287 525 311 553 Q 332 580 308 593 Q 289 603 261 618 Q 242 628 224 616 Q 194 595 116 569 C 88 559 92 529 120 540 Q 126 544 205 565 Q 227 572 234 563 Q 241 556 236 519 Q 230 479 222 433 C 217 403 266 405 271 435 Z" fill="lightgray" class="stroke step7"/>
    <path d="M 140 374 Q 150 373 164 376 Q 204 388 291 401 Q 301 402 302 412 Q 302 419 271 435 C 255 444 251 442 222 433 Q 173 417 137 405 C 109 396 110 375 140 374 Z" fill="lightgray" class="stroke step7"/>
    <path d="M 586 779 L 588 781 Q 606 814 606 816 Q 605 826 591 837 Q 558 867 525 858 Q 518 855 520 843 Q 538 770 423 617 Q 420 616 418 612 Q 385 570 301 488 Q 292 482 303 480 Q 375 495 483 622 Q 486 626 489 629 Q 523 674 573 756 L 586 779 Z" fill="lightgray" class="stroke step7"/>
    <path d="M 573 756 Q 748 563 798 550 Q 852 541 956 561 Q 974 562 975 568 Q 978 575 963 580 Q 777 647 758 658 Q 725 677 586 779 C 562 797 553 778 573 756 Z" fill="lightgray" class="stroke step7"/>
    <path d="M 474 591 Q 441 584 466 569 Q 500 553 567 568 Q 603 577 642 586 Q 661 590 664 594 Q 671 601 667 609 Q 660 619 633 625 Q 614 628 535 602 Q 508 595 474 591 Z" fill="lightgray" class="stroke step7"/>
    <path d="M 400 480 Q 390 484 365 488 Q 355 492 351 487 Q 345 481 353 466 Q 378 411 394 323 Q 397 296 413 279 Q 429 258 434 273 Q 435 280 437 289 L 437 318 Q 434 331 417 447 C 413 476 413 476 400 480 Z" fill="lightgray" class="stroke step7"/>
    <path d="M 694 327 Q 707 305 721 298 Q 730 291 745 309 Q 758 327 789 426 Q 799 454 821 478 Q 834 488 823 503 Q 810 519 769 544 Q 751 554 678 534 Q 645 531 511 502 Q 451 489 400 480 C 370 475 389 435 417 447 Q 426 456 535 476 L 571 484 Q 712 517 736 500 Q 746 493 743 477 Q 721 381 712 367 Q 708 358 696 354 C 682 344 682 344 694 327 Z" fill="lightgray" class="stroke step7"/>
    <path d="M 586 349 Q 590 392 594 428 Q 594 435 595 439 Q 602 455 594 464 Q 582 476 571 484 C 547 502 525 504 535 476 Q 541 470 545 339 C 546 309 583 319 586 349 Z" fill="lightgray" class="hide"/>
    <path d="M 452 414 Q 488 362 505 359 Q 515 358 521 371 Q 524 381 518 397 Q 511 410 495 417 Q 470 432 458 434 Q 451 435 449 427 Q 448 421 452 414 Z" fill="lightgray" class="hide"/>
    <path d="M 640 445 Q 630 423 607 389 Q 603 385 607 379 Q 613 379 618 382 Q 667 419 693 434 Q 706 438 702 446 Q 698 456 682 469 Q 667 481 652 482 Q 642 481 643 467 Q 644 457 640 445 Z" fill="lightgray" class="hide"/>
    <path d="M 437 289 Q 447 286 460 289 Q 533 308 694 327 C 724 331 720 336 696 354 Q 692 358 684 362 Q 666 372 586 349 L 545 339 Q 485 327 437 318 C 408 312 407 294 437 289 Z" fill="lightgray" class="hide"/>
    <path d="M 471 230 Q 452 245 428 252 Q 421 253 415 247 Q 412 243 419 233 Q 446 160 424 52 Q 414 33 421 6 Q 428 -22 439 -33 Q 449 -45 456 -33 Q 469 -14 471 9 L 476 42 Q 476 72 477 104 L 478 128 Q 478 183 481 202 C 483 221 483 221 471 230 Z" fill="lightgray" class="hide"/>
    <path d="M 672 21 Q 685 -1 696 -26 Q 706 -45 716 -48 Q 726 -48 736 -26 Q 754 20 745 157 Q 745 202 751 223 Q 760 244 748 252 Q 741 262 706 279 Q 690 286 608 259 Q 532 240 471 230 C 441 225 452 196 481 202 Q 490 203 501 206 Q 565 228 650 240 Q 675 244 683 235 Q 692 226 688 111 Q 688 69 684 61 Q 681 57 675 54 C 662 39 662 39 672 21 Z" fill="lightgray" class="hide"/>
    <path d="M 477 104 Q 484 103 495 104 Q 576 120 636 129 Q 658 133 649 145 Q 639 158 615 162 Q 585 163 478 128 C 449 119 447 106 477 104 Z" fill="lightgray" class="hide"/>
    <path d="M 471 9 Q 480 8 491 9 Q 549 19 672 21 C 702 22 698 35 675 54 Q 671 58 666 61 Q 650 71 619 65 Q 540 50 476 42 C 446 38 441 11 471 9 Z" fill="lightgray" class="hide"/></g><g transform="scale(1, -1) translate(0, -900)">
    <style type="text/css">
        .origin {display:none;}
        .hide {display:none;}
        .stroke {fill: #000000;}
        
.step1 {transform: translateX(1024px);}
.step2 {transform: translateX(2048px);}
.step3 {transform: translateX(3072px);}
.step4 {transform: translateX(4096px);}
.step5 {transform: translateX(5120px);}
.step6 {transform: translateX(6144px);}
.step7 {transform: translateX(7168px);}
.step8 {transform: translateX(8192px);}
.step9 {transform: translateX(9216px);}
.step10 {transform: translateX(10240px);}
.step11 {transform: translateX(11264px);}
.step12 {transform: translateX(12288px);}
.step13 {transform: translateX(13312px);}
.step14 {transform: translateX(14336px);}
.step15 {transform: translateX(15360px);}
.step16 {transform: translateX(16384px);}
.step17 {transform: translateX(17408px);}
.step18 {transform: translateX(18432px);}
.step19 {transform: translateX(19456px);}
.step20 {transform: translateX(20480px);}
.step21 {transform: translateX(21504px);}
.step22 {transform: translateX(22528px);}
.step23 {transform: translateX(23552px);}
.step24 {transform: translateX(24576px);}
.step25 {transform: translateX(25600px);}
.step26 {transform: translateX(26624px);}
.step27 {transform: translateX(27648px);}
.step28 {transform: translateX(28672px);}
.step29 {transform: translateX(29696px);}
    </style>

    <path d="M 116 569 Q 115 570 115 571 Q 105 578 70 585 Q 58 589 55 584 Q 48 578 56 563 Q 83 497 95 393 Q 96 362 113 340 Q 129 318 135 333 Q 141 348 140 374 L 137 405 Q 124 505 120 540 L 116 569 Z" fill="lightgray" class="stroke step8"/>
    <path d="M 271 435 Q 287 525 311 553 Q 332 580 308 593 Q 289 603 261 618 Q 242 628 224 616 Q 194 595 116 569 C 88 559 92 529 120 540 Q 126 544 205 565 Q 227 572 234 563 Q 241 556 236 519 Q 230 479 222 433 C 217 403 266 405 271 435 Z" fill="lightgray" class="stroke step8"/>
    <path d="M 140 374 Q 150 373 164 376 Q 204 388 291 401 Q 301 402 302 412 Q 302 419 271 435 C 255 444 251 442 222 433 Q 173 417 137 405 C 109 396 110 375 140 374 Z" fill="lightgray" class="stroke step8"/>
    <path d="M 586 779 L 588 781 Q 606 814 606 816 Q 605 826 591 837 Q 558 867 525 858 Q 518 855 520 843 Q 538 770 423 617 Q 420 616 418 612 Q 385 570 301 488 Q 292 482 303 480 Q 375 495 483 622 Q 486 626 489 629 Q 523 674 573 756 L 586 779 Z" fill="lightgray" class="stroke step8"/>
    <path d="M 573 756 Q 748 563 798 550 Q 852 541 956 561 Q 974 562 975 568 Q 978 575 963 580 Q 777 647 758 658 Q 725 677 586 779 C 562 797 553 778 573 756 Z" fill="lightgray" class="stroke step8"/>
    <path d="M 474 591 Q 441 584 466 569 Q 500 553 567 568 Q 603 577 642 586 Q 661 590 664 594 Q 671 601 667 609 Q 660 619 633 625 Q 614 628 535 602 Q 508 595 474 591 Z" fill="lightgray" class="stroke step8"/>
    <path d="M 400 480 Q 390 484 365 488 Q 355 492 351 487 Q 345 481 353 466 Q 378 411 394 323 Q 397 296 413 279 Q 429 258 434 273 Q 435 280 437 289 L 437 318 Q 434 331 417 447 C 413 476 413 476 400 480 Z" fill="lightgray" class="stroke step8"/>
    <path d="M 694 327 Q 707 305 721 298 Q 730 291 745 309 Q 758 327 789 426 Q 799 454 821 478 Q 834 488 823 503 Q 810 519 769 544 Q 751 554 678 534 Q 645 531 511 502 Q 451 489 400 480 C 370 475 389 435 417 447 Q 426 456 535 476 L 571 484 Q 712 517 736 500 Q 746 493 743 477 Q 721 381 712 367 Q 708 358 696 354 C 682 344 682 344 694 327 Z" fill="lightgray" class="stroke step8"/>
    <path d="M 586 349 Q 590 392 594 428 Q 594 435 595 439 Q 602 455 594 464 Q 582 476 571 484 C 547 502 525 504 535 476 Q 541 470 545 339 C 546 309 583 319 586 349 Z" fill="lightgray" class="stroke step8"/>
    <path d="M 452 414 Q 488 362 505 359 Q 515 358 521 371 Q 524 381 518 397 Q 511 410 495 417 Q 470 432 458 434 Q 451 435 449 427 Q 448 421 452 414 Z" fill="lightgray" class="hide"/>
    <path d="M 640 445 Q 630 423 607 389 Q 603 385 607 379 Q 613 379 618 382 Q 667 419 693 434 Q 706 438 702 446 Q 698 456 682 469 Q 667 481 652 482 Q 642 481 643 467 Q 644 457 640 445 Z" fill="lightgray" class="hide"/>
    <path d="M 437 289 Q 447 286 460 289 Q 533 308 694 327 C 724 331 720 336 696 354 Q 692 358 684 362 Q 666 372 586 349 L 545 339 Q 485 327 437 318 C 408 312 407 294 437 289 Z" fill="lightgray" class="hide"/>
    <path d="M 471 230 Q 452 245 428 252 Q 421 253 415 247 Q 412 243 419 233 Q 446 160 424 52 Q 414 33 421 6 Q 428 -22 439 -33 Q 449 -45 456 -33 Q 469 -14 471 9 L 476 42 Q 476 72 477 104 L 478 128 Q 478 183 481 202 C 483 221 483 221 471 230 Z" fill="lightgray" class="hide"/>
    <path d="M 672 21 Q 685 -1 696 -26 Q 706 -45 716 -48 Q 726 -48 736 -26 Q 754 20 745 157 Q 745 202 751 223 Q 760 244 748 252 Q 741 262 706 279 Q 690 286 608 259 Q 532 240 471 230 C 441 225 452 196 481 202 Q 490 203 501 206 Q 565 228 650 240 Q 675 244 683 235 Q 692 226 688 111 Q 688 69 684 61 Q 681 57 675 54 C 662 39 662 39 672 21 Z" fill="lightgray" class="hide"/>
    <path d="M 477 104 Q 484 103 495 104 Q 576 120 636 129 Q 658 133 649 145 Q 639 158 615 162 Q 585 163 478 128 C 449 119 447 106 477 104 Z" fill="lightgray" class="hide"/>
    <path d="M 471 9 Q 480 8 491 9 Q 549 19 672 21 C 702 22 698 35 675 54 Q 671 58 666 61 Q 650 71 619 65 Q 540 50 476 42 C 446 38 441 11 471 9 Z" fill="lightgray" class="hide"/></g><g transform="scale(1, -1) translate(0, -900)">
    <style type="text/css">
        .origin {display:none;}
        .hide {display:none;}
        .stroke {fill: #000000;}
        
.step1 {transform: translateX(1024px);}
.step2 {transform: translateX(2048px);}
.step3 {transform: translateX(3072px);}
.step4 {transform: translateX(4096px);}
.step5 {transform: translateX(5120px);}
.step6 {transform: translateX(6144px);}
.step7 {transform: translateX(7168px);}
.step8 {transform: translateX(8192px);}
.step9 {transform: translateX(9216px);}
.step10 {transform: translateX(10240px);}
.step11 {transform: translateX(11264px);}
.step12 {transform: translateX(12288px);}
.step13 {transform: translateX(13312px);}
.step14 {transform: translateX(14336px);}
.step15 {transform: translateX(15360px);}
.step16 {transform: translateX(16384px);}
.step17 {transform: translateX(17408px);}
.step18 {transform: translateX(18432px);}
.step19 {transform: translateX(19456px);}
.step20 {transform: translateX(20480px);}
.step21 {transform: translateX(21504px);}
.step22 {transform: translateX(22528px);}
.step23 {transform: translateX(23552px);}
.step24 {transform: translateX(24576px);}
.step25 {transform: translateX(25600px);}
.step26 {transform: translateX(26624px);}
.step27 {transform: translateX(27648px);}
.step28 {transform: translateX(28672px);}
.step29 {transform: translateX(29696px);}
    </style>

    <path d="M 116 569 Q 115 570 115 571 Q 105 578 70 585 Q 58 589 55 584 Q 48 578 56 563 Q 83 497 95 393 Q 96 362 113 340 Q 129 318 135 333 Q 141 348 140 374 L 137 405 Q 124 505 120 540 L 116 569 Z" fill="lightgray" class="stroke step9"/>
    <path d="M 271 435 Q 287 525 311 553 Q 332 580 308 593 Q 289 603 261 618 Q 242 628 224 616 Q 194 595 116 569 C 88 559 92 529 120 540 Q 126 544 205 565 Q 227 572 234 563 Q 241 556 236 519 Q 230 479 222 433 C 217 403 266 405 271 435 Z" fill="lightgray" class="stroke step9"/>
    <path d="M 140 374 Q 150 373 164 376 Q 204 388 291 401 Q 301 402 302 412 Q 302 419 271 435 C 255 444 251 442 222 433 Q 173 417 137 405 C 109 396 110 375 140 374 Z" fill="lightgray" class="stroke step9"/>
    <path d="M 586 779 L 588 781 Q 606 814 606 816 Q 605 826 591 837 Q 558 867 525 858 Q 518 855 520 843 Q 538 770 423 617 Q 420 616 418 612 Q 385 570 301 488 Q 292 482 303 480 Q 375 495 483 622 Q 486 626 489 629 Q 523 674 573 756 L 586 779 Z" fill="lightgray" class="stroke step9"/>
    <path d="M 573 756 Q 748 563 798 550 Q 852 541 956 561 Q 974 562 975 568 Q 978 575 963 580 Q 777 647 758 658 Q 725 677 586 779 C 562 797 553 778 573 756 Z" fill="lightgray" class="stroke step9"/>
    <path d="M 474 591 Q 441 584 466 569 Q 500 553 567 568 Q 603 577 642 586 Q 661 590 664 594 Q 671 601 667 609 Q 660 619 633 625 Q 614 628 535 602 Q 508 595 474 591 Z" fill="lightgray" class="stroke step9"/>
    <path d="M 400 480 Q 390 484 365 488 Q 355 492 351 487 Q 345 481 353 466 Q 378 411 394 323 Q 397 296 413 279 Q 429 258 434 273 Q 435 280 437 289 L 437 318 Q 434 331 417 447 C 413 476 413 476 400 480 Z" fill="lightgray" class="stroke step9"/>
    <path d="M 694 327 Q 707 305 721 298 Q 730 291 745 309 Q 758 327 789 426 Q 799 454 821 478 Q 834 488 823 503 Q 810 519 769 544 Q 751 554 678 534 Q 645 531 511 502 Q 451 489 400 480 C 370 475 389 435 417 447 Q 426 456 535 476 L 571 484 Q 712 517 736 500 Q 746 493 743 477 Q 721 381 712 367 Q 708 358 696 354 C 682 344 682 344 694 327 Z" fill="lightgray" class="stroke step9"/>
    <path d="M 586 349 Q 590 392 594 428 Q 594 435 595 439 Q 602 455 594 464 Q 582 476 571 484 C 547 502 525 504 535 476 Q 541 470 545 339 C 546 309 583 319 586 349 Z" fill="lightgray" class="stroke step9"/>
    <path d="M 452 414 Q 488 362 505 359 Q 515 358 521 371 Q 524 381 518 397 Q 511 410 495 417 Q 470 432 458 434 Q 451 435 449 427 Q 448 421 452 414 Z" fill="lightgray" class="stroke step9"/>
    <path d="M 640 445 Q 630 423 607 389 Q 603 385 607 379 Q 613 379 618 382 Q 667 419 693 434 Q 706 438 702 446 Q 698 456 682 469 Q 667 481 652 482 Q 642 481 643 467 Q 644 457 640 445 Z" fill="lightgray" class="hide"/>
    <path d="M 437 289 Q 447 286 460 289 Q 533 308 694 327 C 724 331 720 336 696 354 Q 692 358 684 362 Q 666 372 586 349 L 545 339 Q 485 327 437 318 C 408 312 407 294 437 289 Z" fill="lightgray" class="hide"/>
    <path d="M 471 230 Q 452 245 428 252 Q 421 253 415 247 Q 412 243 419 233 Q 446 160 424 52 Q 414 33 421 6 Q 428 -22 439 -33 Q 449 -45 456 -33 Q 469 -14 471 9 L 476 42 Q 476 72 477 104 L 478 128 Q 478 183 481 202 C 483 221 483 221 471 230 Z" fill="lightgray" class="hide"/>
    <path d="M 672 21 Q 685 -1 696 -26 Q 706 -45 716 -48 Q 726 -48 736 -26 Q 754 20 745 157 Q 745 202 751 223 Q 760 244 748 252 Q 741 262 706 279 Q 690 286 608 259 Q 532 240 471 230 C 441 225 452 196 481 202 Q 490 203 501 206 Q 565 228 650 240 Q 675 244 683 235 Q 692 226 688 111 Q 688 69 684 61 Q 681 57 675 54 C 662 39 662 39 672 21 Z" fill="lightgray" class="hide"/>
    <path d="M 477 104 Q 484 103 495 104 Q 576 120 636 129 Q 658 133 649 145 Q 639 158 615 162 Q 585 163 478 128 C 449 119 447 106 477 104 Z" fill="lightgray" class="hide"/>
    <path d="M 471 9 Q 480 8 491 9 Q 549 19 672 21 C 702 22 698 35 675 54 Q 671 58 666 61 Q 650 71 619 65 Q 540 50 476 42 C 446 38 441 11 471 9 Z" fill="lightgray" class="hide"/></g><g transform="scale(1, -1) translate(0, -900)">
    <style type="text/css">
        .origin {display:none;}
        .hide {display:none;}
        .stroke {fill: #000000;}
        
.step1 {transform: translateX(1024px);}
.step2 {transform: translateX(2048px);}
.step3 {transform: translateX(3072px);}
.step4 {transform: translateX(4096px);}
.step5 {transform: translateX(5120px);}
.step6 {transform: translateX(6144px);}
.step7 {transform: translateX(7168px);}
.step8 {transform: translateX(8192px);}
.step9 {transform: translateX(9216px);}
.step10 {transform: translateX(10240px);}
.step11 {transform: translateX(11264px);}
.step12 {transform: translateX(12288px);}
.step13 {transform: translateX(13312px);}
.step14 {transform: translateX(14336px);}
.step15 {transform: translateX(15360px);}
.step16 {transform: translateX(16384px);}
.step17 {transform: translateX(17408px);}
.step18 {transform: translateX(18432px);}
.step19 {transform: translateX(19456px);}
.step20 {transform: translateX(20480px);}
.step21 {transform: translateX(21504px);}
.step22 {transform: translateX(22528px);}
.step23 {transform: translateX(23552px);}
.step24 {transform: translateX(24576px);}
.step25 {transform: translateX(25600px);}
.step26 {transform: translateX(26624px);}
.step27 {transform: translateX(27648px);}
.step28 {transform: translateX(28672px);}
.step29 {transform: translateX(29696px);}
    </style>

    <path d="M 116 569 Q 115 570 115 571 Q 105 578 70 585 Q 58 589 55 584 Q 48 578 56 563 Q 83 497 95 393 Q 96 362 113 340 Q 129 318 135 333 Q 141 348 140 374 L 137 405 Q 124 505 120 540 L 116 569 Z" fill="lightgray" class="stroke step10"/>
    <path d="M 271 435 Q 287 525 311 553 Q 332 580 308 593 Q 289 603 261 618 Q 242 628 224 616 Q 194 595 116 569 C 88 559 92 529 120 540 Q 126 544 205 565 Q 227 572 234 563 Q 241 556 236 519 Q 230 479 222 433 C 217 403 266 405 271 435 Z" fill="lightgray" class="stroke step10"/>
    <path d="M 140 374 Q 150 373 164 376 Q 204 388 291 401 Q 301 402 302 412 Q 302 419 271 435 C 255 444 251 442 222 433 Q 173 417 137 405 C 109 396 110 375 140 374 Z" fill="lightgray" class="stroke step10"/>
    <path d="M 586 779 L 588 781 Q 606 814 606 816 Q 605 826 591 837 Q 558 867 525 858 Q 518 855 520 843 Q 538 770 423 617 Q 420 616 418 612 Q 385 570 301 488 Q 292 482 303 480 Q 375 495 483 622 Q 486 626 489 629 Q 523 674 573 756 L 586 779 Z" fill="lightgray" class="stroke step10"/>
    <path d="M 573 756 Q 748 563 798 550 Q 852 541 956 561 Q 974 562 975 568 Q 978 575 963 580 Q 777 647 758 658 Q 725 677 586 779 C 562 797 553 778 573 756 Z" fill="lightgray" class="stroke step10"/>
    <path d="M 474 591 Q 441 584 466 569 Q 500 553 567 568 Q 603 577 642 586 Q 661 590 664 594 Q 671 601 667 609 Q 660 619 633 625 Q 614 628 535 602 Q 508 595 474 591 Z" fill="lightgray" class="stroke step10"/>
    <path d="M 400 480 Q 390 484 365 488 Q 355 492 351 487 Q 345 481 353 466 Q 378 411 394 323 Q 397 296 413 279 Q 429 258 434 273 Q 435 280 437 289 L 437 318 Q 434 331 417 447 C 413 476 413 476 400 480 Z" fill="lightgray" class="stroke step10"/>
    <path d="M 694 327 Q 707 305 721 298 Q 730 291 745 309 Q 758 327 789 426 Q 799 454 821 478 Q 834 488 823 503 Q 810 519 769 544 Q 751 554 678 534 Q 645 531 511 502 Q 451 489 400 480 C 370 475 389 435 417 447 Q 426 456 535 476 L 571 484 Q 712 517 736 500 Q 746 493 743 477 Q 721 381 712 367 Q 708 358 696 354 C 682 344 682 344 694 327 Z" fill="lightgray" class="stroke step10"/>
    <path d="M 586 349 Q 590 392 594 428 Q 594 435 595 439 Q 602 455 594 464 Q 582 476 571 484 C 547 502 525 504 535 476 Q 541 470 545 339 C 546 309 583 319 586 349 Z" fill="lightgray" class="stroke step10"/>
    <path d="M 452 414 Q 488 362 505 359 Q 515 358 521 371 Q 524 381 518 397 Q 511 410 495 417 Q 470 432 458 434 Q 451 435 449 427 Q 448 421 452 414 Z" fill="lightgray" class="stroke step10"/>
    <path d="M 640 445 Q 630 423 607 389 Q 603 385 607 379 Q 613 379 618 382 Q 667 419 693 434 Q 706 438 702 446 Q 698 456 682 469 Q 667 481 652 482 Q 642 481 643 467 Q 644 457 640 445 Z" fill="lightgray" class="stroke step10"/>
    <path d="M 437 289 Q 447 286 460 289 Q 533 308 694 327 C 724 331 720 336 696 354 Q 692 358 684 362 Q 666 372 586 349 L 545 339 Q 485 327 437 318 C 408 312 407 294 437 289 Z" fill="lightgray" class="hide"/>
    <path d="M 471 230 Q 452 245 428 252 Q 421 253 415 247 Q 412 243 419 233 Q 446 160 424 52 Q 414 33 421 6 Q 428 -22 439 -33 Q 449 -45 456 -33 Q 469 -14 471 9 L 476 42 Q 476 72 477 104 L 478 128 Q 478 183 481 202 C 483 221 483 221 471 230 Z" fill="lightgray" class="hide"/>
    <path d="M 672 21 Q 685 -1 696 -26 Q 706 -45 716 -48 Q 726 -48 736 -26 Q 754 20 745 157 Q 745 202 751 223 Q 760 244 748 252 Q 741 262 706 279 Q 690 286 608 259 Q 532 240 471 230 C 441 225 452 196 481 202 Q 490 203 501 206 Q 565 228 650 240 Q 675 244 683 235 Q 692 226 688 111 Q 688 69 684 61 Q 681 57 675 54 C 662 39 662 39 672 21 Z" fill="lightgray" class="hide"/>
    <path d="M 477 104 Q 484 103 495 104 Q 576 120 636 129 Q 658 133 649 145 Q 639 158 615 162 Q 585 163 478 128 C 449 119 447 106 477 104 Z" fill="lightgray" class="hide"/>
    <path d="M 471 9 Q 480 8 491 9 Q 549 19 672 21 C 702 22 698 35 675 54 Q 671 58 666 61 Q 650 71 619 65 Q 540 50 476 42 C 446 38 441 11 471 9 Z" fill="lightgray" class="hide"/></g><g transform="scale(1, -1) translate(0, -900)">
    <style type="text/css">
        .origin {display:none;}
        .hide {display:none;}
        .stroke {fill: #000000;}
        
.step1 {transform: translateX(1024px);}
.step2 {transform: translateX(2048px);}
.step3 {transform: translateX(3072px);}
.step4 {transform: translateX(4096px);}
.step5 {transform: translateX(5120px);}
.step6 {transform: translateX(6144px);}
.step7 {transform: translateX(7168px);}
.step8 {transform: translateX(8192px);}
.step9 {transform: translateX(9216px);}
.step10 {transform: translateX(10240px);}
.step11 {transform: translateX(11264px);}
.step12 {transform: translateX(12288px);}
.step13 {transform: translateX(13312px);}
.step14 {transform: translateX(14336px);}
.step15 {transform: translateX(15360px);}
.step16 {transform: translateX(16384px);}
.step17 {transform: translateX(17408px);}
.step18 {transform: translateX(18432px);}
.step19 {transform: translateX(19456px);}
.step20 {transform: translateX(20480px);}
.step21 {transform: translateX(21504px);}
.step22 {transform: translateX(22528px);}
.step23 {transform: translateX(23552px);}
.step24 {transform: translateX(24576px);}
.step25 {transform: translateX(25600px);}
.step26 {transform: translateX(26624px);}
.step27 {transform: translateX(27648px);}
.step28 {transform: translateX(28672px);}
.step29 {transform: translateX(29696px);}
    </style>

    <path d="M 116 569 Q 115 570 115 571 Q 105 578 70 585 Q 58 589 55 584 Q 48 578 56 563 Q 83 497 95 393 Q 96 362 113 340 Q 129 318 135 333 Q 141 348 140 374 L 137 405 Q 124 505 120 540 L 116 569 Z" fill="lightgray" class="stroke step11"/>
    <path d="M 271 435 Q 287 525 311 553 Q 332 580 308 593 Q 289 603 261 618 Q 242 628 224 616 Q 194 595 116 569 C 88 559 92 529 120 540 Q 126 544 205 565 Q 227 572 234 563 Q 241 556 236 519 Q 230 479 222 433 C 217 403 266 405 271 435 Z" fill="lightgray" class="stroke step11"/>
    <path d="M 140 374 Q 150 373 164 376 Q 204 388 291 401 Q 301 402 302 412 Q 302 419 271 435 C 255 444 251 442 222 433 Q 173 417 137 405 C 109 396 110 375 140 374 Z" fill="lightgray" class="stroke step11"/>
    <path d="M 586 779 L 588 781 Q 606 814 606 816 Q 605 826 591 837 Q 558 867 525 858 Q 518 855 520 843 Q 538 770 423 617 Q 420 616 418 612 Q 385 570 301 488 Q 292 482 303 480 Q 375 495 483 622 Q 486 626 489 629 Q 523 674 573 756 L 586 779 Z" fill="lightgray" class="stroke step11"/>
    <path d="M 573 756 Q 748 563 798 550 Q 852 541 956 561 Q 974 562 975 568 Q 978 575 963 580 Q 777 647 758 658 Q 725 677 586 779 C 562 797 553 778 573 756 Z" fill="lightgray" class="stroke step11"/>
    <path d="M 474 591 Q 441 584 466 569 Q 500 553 567 568 Q 603 577 642 586 Q 661 590 664 594 Q 671 601 667 609 Q 660 619 633 625 Q 614 628 535 602 Q 508 595 474 591 Z" fill="lightgray" class="stroke step11"/>
    <path d="M 400 480 Q 390 484 365 488 Q 355 492 351 487 Q 345 481 353 466 Q 378 411 394 323 Q 397 296 413 279 Q 429 258 434 273 Q 435 280 437 289 L 437 318 Q 434 331 417 447 C 413 476 413 476 400 480 Z" fill="lightgray" class="stroke step11"/>
    <path d="M 694 327 Q 707 305 721 298 Q 730 291 745 309 Q 758 327 789 426 Q 799 454 821 478 Q 834 488 823 503 Q 810 519 769 544 Q 751 554 678 534 Q 645 531 511 502 Q 451 489 400 480 C 370 475 389 435 417 447 Q 426 456 535 476 L 571 484 Q 712 517 736 500 Q 746 493 743 477 Q 721 381 712 367 Q 708 358 696 354 C 682 344 682 344 694 327 Z" fill="lightgray" class="stroke step11"/>
    <path d="M 586 349 Q 590 392 594 428 Q 594 435 595 439 Q 602 455 594 464 Q 582 476 571 484 C 547 502 525 504 535 476 Q 541 470 545 339 C 546 309 583 319 586 349 Z" fill="lightgray" class="stroke step11"/>
    <path d="M 452 414 Q 488 362 505 359 Q 515 358 521 371 Q 524 381 518 397 Q 511 410 495 417 Q 470 432 458 434 Q 451 435 449 427 Q 448 421 452 414 Z" fill="lightgray" class="stroke step11"/>
    <path d="M 640 445 Q 630 423 607 389 Q 603 385 607 379 Q 613 379 618 382 Q 667 419 693 434 Q 706 438 702 446 Q 698 456 682 469 Q 667 481 652 482 Q 642 481 643 467 Q 644 457 640 445 Z" fill="lightgray" class="stroke step11"/>
    <path d="M 437 289 Q 447 286 460 289 Q 533 308 694 327 C 724 331 720 336 696 354 Q 692 358 684 362 Q 666 372 586 349 L 545 339 Q 485 327 437 318 C 408 312 407 294 437 289 Z" fill="lightgray" class="stroke step11"/>
    <path d="M 471 230 Q 452 245 428 252 Q 421 253 415 247 Q 412 243 419 233 Q 446 160 424 52 Q 414 33 421 6 Q 428 -22 439 -33 Q 449 -45 456 -33 Q 469 -14 471 9 L 476 42 Q 476 72 477 104 L 478 128 Q 478 183 481 202 C 483 221 483 221 471 230 Z" fill="lightgray" class="hide"/>
    <path d="M 672 21 Q 685 -1 696 -26 Q 706 -45 716 -48 Q 726 -48 736 -26 Q 754 20 745 157 Q 745 202 751 223 Q 760 244 748 252 Q 741 262 706 279 Q 690 286 608 259 Q 532 240 471 230 C 441 225 452 196 481 202 Q 490 203 501 206 Q 565 228 650 240 Q 675 244 683 235 Q 692 226 688 111 Q 688 69 684 61 Q 681 57 675 54 C 662 39 662 39 672 21 Z" fill="lightgray" class="hide"/>
    <path d="M 477 104 Q 484 103 495 104 Q 576 120 636 129 Q 658 133 649 145 Q 639 158 615 162 Q 585 163 478 128 C 449 119 447 106 477 104 Z" fill="lightgray" class="hide"/>
    <path d="M 471 9 Q 480 8 491 9 Q 549 19 672 21 C 702 22 698 35 675 54 Q 671 58 666 61 Q 650 71 619 65 Q 540 50 476 42 C 446 38 441 11 471 9 Z" fill="lightgray" class="hide"/></g><g transform="scale(1, -1) translate(0, -900)">
    <style type="text/css">
        .origin {display:none;}
        .hide {display:none;}
        .stroke {fill: #000000;}
        
.step1 {transform: translateX(1024px);}
.step2 {transform: translateX(2048px);}
.step3 {transform: translateX(3072px);}
.step4 {transform: translateX(4096px);}
.step5 {transform: translateX(5120px);}
.step6 {transform: translateX(6144px);}
.step7 {transform: translateX(7168px);}
.step8 {transform: translateX(8192px);}
.step9 {transform: translateX(9216px);}
.step10 {transform: translateX(10240px);}
.step11 {transform: translateX(11264px);}
.step12 {transform: translateX(12288px);}
.step13 {transform: translateX(13312px);}
.step14 {transform: translateX(14336px);}
.step15 {transform: translateX(15360px);}
.step16 {transform: translateX(16384px);}
.step17 {transform: translateX(17408px);}
.step18 {transform: translateX(18432px);}
.step19 {transform: translateX(19456px);}
.step20 {transform: translateX(20480px);}
.step21 {transform: translateX(21504px);}
.step22 {transform: translateX(22528px);}
.step23 {transform: translateX(23552px);}
.step24 {transform: translateX(24576px);}
.step25 {transform: translateX(25600px);}
.step26 {transform: translateX(26624px);}
.step27 {transform: translateX(27648px);}
.step28 {transform: translateX(28672px);}
.step29 {transform: translateX(29696px);}
    </style>

    <path d="M 116 569 Q 115 570 115 571 Q 105 578 70 585 Q 58 589 55 584 Q 48 578 56 563 Q 83 497 95 393 Q 96 362 113 340 Q 129 318 135 333 Q 141 348 140 374 L 137 405 Q 124 505 120 540 L 116 569 Z" fill="lightgray" class="stroke step12"/>
    <path d="M 271 435 Q 287 525 311 553 Q 332 580 308 593 Q 289 603 261 618 Q 242 628 224 616 Q 194 595 116 569 C 88 559 92 529 120 540 Q 126 544 205 565 Q 227 572 234 563 Q 241 556 236 519 Q 230 479 222 433 C 217 403 266 405 271 435 Z" fill="lightgray" class="stroke step12"/>
    <path d="M 140 374 Q 150 373 164 376 Q 204 388 291 401 Q 301 402 302 412 Q 302 419 271 435 C 255 444 251 442 222 433 Q 173 417 137 405 C 109 396 110 375 140 374 Z" fill="lightgray" class="stroke step12"/>
    <path d="M 586 779 L 588 781 Q 606 814 606 816 Q 605 826 591 837 Q 558 867 525 858 Q 518 855 520 843 Q 538 770 423 617 Q 420 616 418 612 Q 385 570 301 488 Q 292 482 303 480 Q 375 495 483 622 Q 486 626 489 629 Q 523 674 573 756 L 586 779 Z" fill="lightgray" class="stroke step12"/>
    <path d="M 573 756 Q 748 563 798 550 Q 852 541 956 561 Q 974 562 975 568 Q 978 575 963 580 Q 777 647 758 658 Q 725 677 586 779 C 562 797 553 778 573 756 Z" fill="lightgray" class="stroke step12"/>
    <path d="M 474 591 Q 441 584 466 569 Q 500 553 567 568 Q 603 577 642 586 Q 661 590 664 594 Q 671 601 667 609 Q 660 619 633 625 Q 614 628 535 602 Q 508 595 474 591 Z" fill="lightgray" class="stroke step12"/>
    <path d="M 400 480 Q 390 484 365 488 Q 355 492 351 487 Q 345 481 353 466 Q 378 411 394 323 Q 397 296 413 279 Q 429 258 434 273 Q 435 280 437 289 L 437 318 Q 434 331 417 447 C 413 476 413 476 400 480 Z" fill="lightgray" class="stroke step12"/>
    <path d="M 694 327 Q 707 305 721 298 Q 730 291 745 309 Q 758 327 789 426 Q 799 454 821 478 Q 834 488 823 503 Q 810 519 769 544 Q 751 554 678 534 Q 645 531 511 502 Q 451 489 400 480 C 370 475 389 435 417 447 Q 426 456 535 476 L 571 484 Q 712 517 736 500 Q 746 493 743 477 Q 721 381 712 367 Q 708 358 696 354 C 682 344 682 344 694 327 Z" fill="lightgray" class="stroke step12"/>
    <path d="M 586 349 Q 590 392 594 428 Q 594 435 595 439 Q 602 455 594 464 Q 582 476 571 484 C 547 502 525 504 535 476 Q 541 470 545 339 C 546 309 583 319 586 349 Z" fill="lightgray" class="stroke step12"/>
    <path d="M 452 414 Q 488 362 505 359 Q 515 358 521 371 Q 524 381 518 397 Q 511 410 495 417 Q 470 432 458 434 Q 451 435 449 427 Q 448 421 452 414 Z" fill="lightgray" class="stroke step12"/>
    <path d="M 640 445 Q 630 423 607 389 Q 603 385 607 379 Q 613 379 618 382 Q 667 419 693 434 Q 706 438 702 446 Q 698 456 682 469 Q 667 481 652 482 Q 642 481 643 467 Q 644 457 640 445 Z" fill="lightgray" class="stroke step12"/>
    <path d="M 437 289 Q 447 286 460 289 Q 533 308 694 327 C 724 331 720 336 696 354 Q 692 358 684 362 Q 666 372 586 349 L 545 339 Q 485 327 437 318 C 408 312 407 294 437 289 Z" fill="lightgray" class="stroke step12"/>
    <path d="M 471 230 Q 452 245 428 252 Q 421 253 415 247 Q 412 243 419 233 Q 446 160 424 52 Q 414 33 421 6 Q 428 -22 439 -33 Q 449 -45 456 -33 Q 469 -14 471 9 L 476 42 Q 476 72 477 104 L 478 128 Q 478 183 481 202 C 483 221 483 221 471 230 Z" fill="lightgray" class="stroke step12"/>
    <path d="M 672 21 Q 685 -1 696 -26 Q 706 -45 716 -48 Q 726 -48 736 -26 Q 754 20 745 157 Q 745 202 751 223 Q 760 244 748 252 Q 741 262 706 279 Q 690 286 608 259 Q 532 240 471 230 C 441 225 452 196 481 202 Q 490 203 501 206 Q 565 228 650 240 Q 675 244 683 235 Q 692 226 688 111 Q 688 69 684 61 Q 681 57 675 54 C 662 39 662 39 672 21 Z" fill="lightgray" class="hide"/>
    <path d="M 477 104 Q 484 103 495 104 Q 576 120 636 129 Q 658 133 649 145 Q 639 158 615 162 Q 585 163 478 128 C 449 119 447 106 477 104 Z" fill="lightgray" class="hide"/>
    <path d="M 471 9 Q 480 8 491 9 Q 549 19 672 21 C 702 22 698 35 675 54 Q 671 58 666 61 Q 650 71 619 65 Q 540 50 476 42 C 446 38 441 11 471 9 Z" fill="lightgray" class="hide"/></g><g transform="scale(1, -1) translate(0, -900)">
    <style type="text/css">
        .origin {display:none;}
        .hide {display:none;}
        .stroke {fill: #000000;}
        
.step1 {transform: translateX(1024px);}
.step2 {transform: translateX(2048px);}
.step3 {transform: translateX(3072px);}
.step4 {transform: translateX(4096px);}
.step5 {transform: translateX(5120px);}
.step6 {transform: translateX(6144px);}
.step7 {transform: translateX(7168px);}
.step8 {transform: translateX(8192px);}
.step9 {transform: translateX(9216px);}
.step10 {transform: translateX(10240px);}
.step11 {transform: translateX(11264px);}
.step12 {transform: translateX(12288px);}
.step13 {transform: translateX(13312px);}
.step14 {transform: translateX(14336px);}
.step15 {transform: translateX(15360px);}
.step16 {transform: translateX(16384px);}
.step17 {transform: translateX(17408px);}
.step18 {transform: translateX(18432px);}
.step19 {transform: translateX(19456px);}
.step20 {transform: translateX(20480px);}
.step21 {transform: translateX(21504px);}
.step22 {transform: translateX(22528px);}
.step23 {transform: translateX(23552px);}
.step24 {transform: translateX(24576px);}
.step25 {transform: translateX(25600px);}
.step26 {transform: translateX(26624px);}
.step27 {transform: translateX(27648px);}
.step28 {transform: translateX(28672px);}
.step29 {transform: translateX(29696px);}
    </style>

    <path d="M 116 569 Q 115 570 115 571 Q 105 578 70 585 Q 58 589 55 584 Q 48 578 56 563 Q 83 497 95 393 Q 96 362 113 340 Q 129 318 135 333 Q 141 348 140 374 L 137 405 Q 124 505 120 540 L 116 569 Z" fill="lightgray" class="stroke step13"/>
    <path d="M 271 435 Q 287 525 311 553 Q 332 580 308 593 Q 289 603 261 618 Q 242 628 224 616 Q 194 595 116 569 C 88 559 92 529 120 540 Q 126 544 205 565 Q 227 572 234 563 Q 241 556 236 519 Q 230 479 222 433 C 217 403 266 405 271 435 Z" fill="lightgray" class="stroke step13"/>
    <path d="M 140 374 Q 150 373 164 376 Q 204 388 291 401 Q 301 402 302 412 Q 302 419 271 435 C 255 444 251 442 222 433 Q 173 417 137 405 C 109 396 110 375 140 374 Z" fill="lightgray" class="stroke step13"/>
    <path d="M 586 779 L 588 781 Q 606 814 606 816 Q 605 826 591 837 Q 558 867 525 858 Q 518 855 520 843 Q 538 770 423 617 Q 420 616 418 612 Q 385 570 301 488 Q 292 482 303 480 Q 375 495 483 622 Q 486 626 489 629 Q 523 674 573 756 L 586 779 Z" fill="lightgray" class="stroke step13"/>
    <path d="M 573 756 Q 748 563 798 550 Q 852 541 956 561 Q 974 562 975 568 Q 978 575 963 580 Q 777 647 758 658 Q 725 677 586 779 C 562 797 553 778 573 756 Z" fill="lightgray" class="stroke step13"/>
    <path d="M 474 591 Q 441 584 466 569 Q 500 553 567 568 Q 603 577 642 586 Q 661 590 664 594 Q 671 601 667 609 Q 660 619 633 625 Q 614 628 535 602 Q 508 595 474 591 Z" fill="lightgray" class="stroke step13"/>
    <path d="M 400 480 Q 390 484 365 488 Q 355 492 351 487 Q 345 481 353 466 Q 378 411 394 323 Q 397 296 413 279 Q 429 258 434 273 Q 435 280 437 289 L 437 318 Q 434 331 417 447 C 413 476 413 476 400 480 Z" fill="lightgray" class="stroke step13"/>
    <path d="M 694 327 Q 707 305 721 298 Q 730 291 745 309 Q 758 327 789 426 Q 799 454 821 478 Q 834 488 823 503 Q 810 519 769 544 Q 751 554 678 534 Q 645 531 511 502 Q 451 489 400 480 C 370 475 389 435 417 447 Q 426 456 535 476 L 571 484 Q 712 517 736 500 Q 746 493 743 477 Q 721 381 712 367 Q 708 358 696 354 C 682 344 682 344 694 327 Z" fill="lightgray" class="stroke step13"/>
    <path d="M 586 349 Q 590 392 594 428 Q 594 435 595 439 Q 602 455 594 464 Q 582 476 571 484 C 547 502 525 504 535 476 Q 541 470 545 339 C 546 309 583 319 586 349 Z" fill="lightgray" class="stroke step13"/>
    <path d="M 452 414 Q 488 362 505 359 Q 515 358 521 371 Q 524 381 518 397 Q 511 410 495 417 Q 470 432 458 434 Q 451 435 449 427 Q 448 421 452 414 Z" fill="lightgray" class="stroke step13"/>
    <path d="M 640 445 Q 630 423 607 389 Q 603 385 607 379 Q 613 379 618 382 Q 667 419 693 434 Q 706 438 702 446 Q 698 456 682 469 Q 667 481 652 482 Q 642 481 643 467 Q 644 457 640 445 Z" fill="lightgray" class="stroke step13"/>
    <path d="M 437 289 Q 447 286 460 289 Q 533 308 694 327 C 724 331 720 336 696 354 Q 692 358 684 362 Q 666 372 586 349 L 545 339 Q 485 327 437 318 C 408 312 407 294 437 289 Z" fill="lightgray" class="stroke step13"/>
    <path d="M 471 230 Q 452 245 428 252 Q 421 253 415 247 Q 412 243 419 233 Q 446 160 424 52 Q 414 33 421 6 Q 428 -22 439 -33 Q 449 -45 456 -33 Q 469 -14 471 9 L 476 42 Q 476 72 477 104 L 478 128 Q 478 183 481 202 C 483 221 483 221 471 230 Z" fill="lightgray" class="stroke step13"/>
    <path d="M 672 21 Q 685 -1 696 -26 Q 706 -45 716 -48 Q 726 -48 736 -26 Q 754 20 745 157 Q 745 202 751 223 Q 760 244 748 252 Q 741 262 706 279 Q 690 286 608 259 Q 532 240 471 230 C 441 225 452 196 481 202 Q 490 203 501 206 Q 565 228 650 240 Q 675 244 683 235 Q 692 226 688 111 Q 688 69 684 61 Q 681 57 675 54 C 662 39 662 39 672 21 Z" fill="lightgray" class="stroke step13"/>
    <path d="M 477 104 Q 484 103 495 104 Q 576 120 636 129 Q 658 133 649 145 Q 639 158 615 162 Q 585 163 478 128 C 449 119 447 106 477 104 Z" fill="lightgray" class="hide"/>
    <path d="M 471 9 Q 480 8 491 9 Q 549 19 672 21 C 702 22 698 35 675 54 Q 671 58 666 61 Q 650 71 619 65 Q 540 50 476 42 C 446 38 441 11 471 9 Z" fill="lightgray" class="hide"/></g><g transform="scale(1, -1) translate(0, -900)">
    <style type="text/css">
        .origin {display:none;}
        .hide {display:none;}
        .stroke {fill: #000000;}
        
.step1 {transform: translateX(1024px);}
.step2 {transform: translateX(2048px);}
.step3 {transform: translateX(3072px);}
.step4 {transform: translateX(4096px);}
.step5 {transform: translateX(5120px);}
.step6 {transform: translateX(6144px);}
.step7 {transform: translateX(7168px);}
.step8 {transform: translateX(8192px);}
.step9 {transform: translateX(9216px);}
.step10 {transform: translateX(10240px);}
.step11 {transform: translateX(11264px);}
.step12 {transform: translateX(12288px);}
.step13 {transform: translateX(13312px);}
.step14 {transform: translateX(14336px);}
.step15 {transform: translateX(15360px);}
.step16 {transform: translateX(16384px);}
.step17 {transform: translateX(17408px);}
.step18 {transform: translateX(18432px);}
.step19 {transform: translateX(19456px);}
.step20 {transform: translateX(20480px);}
.step21 {transform: translateX(21504px);}
.step22 {transform: translateX(22528px);}
.step23 {transform: translateX(23552px);}
.step24 {transform: translateX(24576px);}
.step25 {transform: translateX(25600px);}
.step26 {transform: translateX(26624px);}
.step27 {transform: translateX(27648px);}
.step28 {transform: translateX(28672px);}
.step29 {transform: translateX(29696px);}
    </style>

    <path d="M 116 569 Q 115 570 115 571 Q 105 578 70 585 Q 58 589 55 584 Q 48 578 56 563 Q 83 497 95 393 Q 96 362 113 340 Q 129 318 135 333 Q 141 348 140 374 L 137 405 Q 124 505 120 540 L 116 569 Z" fill="lightgray" class="stroke step14"/>
    <path d="M 271 435 Q 287 525 311 553 Q 332 580 308 593 Q 289 603 261 618 Q 242 628 224 616 Q 194 595 116 569 C 88 559 92 529 120 540 Q 126 544 205 565 Q 227 572 234 563 Q 241 556 236 519 Q 230 479 222 433 C 217 403 266 405 271 435 Z" fill="lightgray" class="stroke step14"/>
    <path d="M 140 374 Q 150 373 164 376 Q 204 388 291 401 Q 301 402 302 412 Q 302 419 271 435 C 255 444 251 442 222 433 Q 173 417 137 405 C 109 396 110 375 140 374 Z" fill="lightgray" class="stroke step14"/>
    <path d="M 586 779 L 588 781 Q 606 814 606 816 Q 605 826 591 837 Q 558 867 525 858 Q 518 855 520 843 Q 538 770 423 617 Q 420 616 418 612 Q 385 570 301 488 Q 292 482 303 480 Q 375 495 483 622 Q 486 626 489 629 Q 523 674 573 756 L 586 779 Z" fill="lightgray" class="stroke step14"/>
    <path d="M 573 756 Q 748 563 798 550 Q 852 541 956 561 Q 974 562 975 568 Q 978 575 963 580 Q 777 647 758 658 Q 725 677 586 779 C 562 797 553 778 573 756 Z" fill="lightgray" class="stroke step14"/>
    <path d="M 474 591 Q 441 584 466 569 Q 500 553 567 568 Q 603 577 642 586 Q 661 590 664 594 Q 671 601 667 609 Q 660 619 633 625 Q 614 628 535 602 Q 508 595 474 591 Z" fill="lightgray" class="stroke step14"/>
    <path d="M 400 480 Q 390 484 365 488 Q 355 492 351 487 Q 345 481 353 466 Q 378 411 394 323 Q 397 296 413 279 Q 429 258 434 273 Q 435 280 437 289 L 437 318 Q 434 331 417 447 C 413 476 413 476 400 480 Z" fill="lightgray" class="stroke step14"/>
    <path d="M 694 327 Q 707 305 721 298 Q 730 291 745 309 Q 758 327 789 426 Q 799 454 821 478 Q 834 488 823 503 Q 810 519 769 544 Q 751 554 678 534 Q 645 531 511 502 Q 451 489 400 480 C 370 475 389 435 417 447 Q 426 456 535 476 L 571 484 Q 712 517 736 500 Q 746 493 743 477 Q 721 381 712 367 Q 708 358 696 354 C 682 344 682 344 694 327 Z" fill="lightgray" class="stroke step14"/>
    <path d="M 586 349 Q 590 392 594 428 Q 594 435 595 439 Q 602 455 594 464 Q 582 476 571 484 C 547 502 525 504 535 476 Q 541 470 545 339 C 546 309 583 319 586 349 Z" fill="lightgray" class="stroke step14"/>
    <path d="M 452 414 Q 488 362 505 359 Q 515 358 521 371 Q 524 381 518 397 Q 511 410 495 417 Q 470 432 458 434 Q 451 435 449 427 Q 448 421 452 414 Z" fill="lightgray" class="stroke step14"/>
    <path d="M 640 445 Q 630 423 607 389 Q 603 385 607 379 Q 613 379 618 382 Q 667 419 693 434 Q 706 438 702 446 Q 698 456 682 469 Q 667 481 652 482 Q 642 481 643 467 Q 644 457 640 445 Z" fill="lightgray" class="stroke step14"/>
    <path d="M 437 289 Q 447 286 460 289 Q 533 308 694 327 C 724 331 720 336 696 354 Q 692 358 684 362 Q 666 372 586 349 L 545 339 Q 485 327 437 318 C 408 312 407 294 437 289 Z" fill="lightgray" class="stroke step14"/>
    <path d="M 471 230 Q 452 245 428 252 Q 421 253 415 247 Q 412 243 419 233 Q 446 160 424 52 Q 414 33 421 6 Q 428 -22 439 -33 Q 449 -45 456 -33 Q 469 -14 471 9 L 476 42 Q 476 72 477 104 L 478 128 Q 478 183 481 202 C 483 221 483 221 471 230 Z" fill="lightgray" class="stroke step14"/>
    <path d="M 672 21 Q 685 -1 696 -26 Q 706 -45 716 -48 Q 726 -48 736 -26 Q 754 20 745 157 Q 745 202 751 223 Q 760 244 748 252 Q 741 262 706 279 Q 690 286 608 259 Q 532 240 471 230 C 441 225 452 196 481 202 Q 490 203 501 206 Q 565 228 650 240 Q 675 244 683 235 Q 692 226 688 111 Q 688 69 684 61 Q 681 57 675 54 C 662 39 662 39 672 21 Z" fill="lightgray" class="stroke step14"/>
    <path d="M 477 104 Q 484 103 495 104 Q 576 120 636 129 Q 658 133 649 145 Q 639 158 615 162 Q 585 163 478 128 C 449 119 447 106 477 104 Z" fill="lightgray" class="stroke step14"/>
    <path d="M 471 9 Q 480 8 491 9 Q 549 19 672 21 C 702 22 698 35 675 54 Q 671 58 666 61 Q 650 71 619 65 Q 540 50 476 42 C 446 38 441 11 471 9 Z" fill="lightgray" class="hide"/></g><g transform="scale(1, -1) translate(0, -900)">
    <style type="text/css">
        .origin {display:none;}
        .hide {display:none;}
        .stroke {fill: #000000;}
        
.step1 {transform: translateX(1024px);}
.step2 {transform: translateX(2048px);}
.step3 {transform: translateX(3072px);}
.step4 {transform: translateX(4096px);}
.step5 {transform: translateX(5120px);}
.step6 {transform: translateX(6144px);}
.step7 {transform: translateX(7168px);}
.step8 {transform: translateX(8192px);}
.step9 {transform: translateX(9216px);}
.step10 {transform: translateX(10240px);}
.step11 {transform: translateX(11264px);}
.step12 {transform: translateX(12288px);}
.step13 {transform: translateX(13312px);}
.step14 {transform: translateX(14336px);}
.step15 {transform: translateX(15360px);}
.step16 {transform: translateX(16384px);}
.step17 {transform: translateX(17408px);}
.step18 {transform: translateX(18432px);}
.step19 {transform: translateX(19456px);}
.step20 {transform: translateX(20480px);}
.step21 {transform: translateX(21504px);}
.step22 {transform: translateX(22528px);}
.step23 {transform: translateX(23552px);}
.step24 {transform: translateX(24576px);}
.step25 {transform: translateX(25600px);}
.step26 {transform: translateX(26624px);}
.step27 {transform: translateX(27648px);}
.step28 {transform: translateX(28672px);}
.step29 {transform: translateX(29696px);}
    </style>

    <path d="M 116 569 Q 115 570 115 571 Q 105 578 70 585 Q 58 589 55 584 Q 48 578 56 563 Q 83 497 95 393 Q 96 362 113 340 Q 129 318 135 333 Q 141 348 140 374 L 137 405 Q 124 505 120 540 L 116 569 Z" fill="lightgray" class="stroke step15"/>
    <path d="M 271 435 Q 287 525 311 553 Q 332 580 308 593 Q 289 603 261 618 Q 242 628 224 616 Q 194 595 116 569 C 88 559 92 529 120 540 Q 126 544 205 565 Q 227 572 234 563 Q 241 556 236 519 Q 230 479 222 433 C 217 403 266 405 271 435 Z" fill="lightgray" class="stroke step15"/>
    <path d="M 140 374 Q 150 373 164 376 Q 204 388 291 401 Q 301 402 302 412 Q 302 419 271 435 C 255 444 251 442 222 433 Q 173 417 137 405 C 109 396 110 375 140 374 Z" fill="lightgray" class="stroke step15"/>
    <path d="M 586 779 L 588 781 Q 606 814 606 816 Q 605 826 591 837 Q 558 867 525 858 Q 518 855 520 843 Q 538 770 423 617 Q 420 616 418 612 Q 385 570 301 488 Q 292 482 303 480 Q 375 495 483 622 Q 486 626 489 629 Q 523 674 573 756 L 586 779 Z" fill="lightgray" class="stroke step15"/>
    <path d="M 573 756 Q 748 563 798 550 Q 852 541 956 561 Q 974 562 975 568 Q 978 575 963 580 Q 777 647 758 658 Q 725 677 586 779 C 562 797 553 778 573 756 Z" fill="lightgray" class="stroke step15"/>
    <path d="M 474 591 Q 441 584 466 569 Q 500 553 567 568 Q 603 577 642 586 Q 661 590 664 594 Q 671 601 667 609 Q 660 619 633 625 Q 614 628 535 602 Q 508 595 474 591 Z" fill="lightgray" class="stroke step15"/>
    <path d="M 400 480 Q 390 484 365 488 Q 355 492 351 487 Q 345 481 353 466 Q 378 411 394 323 Q 397 296 413 279 Q 429 258 434 273 Q 435 280 437 289 L 437 318 Q 434 331 417 447 C 413 476 413 476 400 480 Z" fill="lightgray" class="stroke step15"/>
    <path d="M 694 327 Q 707 305 721 298 Q 730 291 745 309 Q 758 327 789 426 Q 799 454 821 478 Q 834 488 823 503 Q 810 519 769 544 Q 751 554 678 534 Q 645 531 511 502 Q 451 489 400 480 C 370 475 389 435 417 447 Q 426 456 535 476 L 571 484 Q 712 517 736 500 Q 746 493 743 477 Q 721 381 712 367 Q 708 358 696 354 C 682 344 682 344 694 327 Z" fill="lightgray" class="stroke step15"/>
    <path d="M 586 349 Q 590 392 594 428 Q 594 435 595 439 Q 602 455 594 464 Q 582 476 571 484 C 547 502 525 504 535 476 Q 541 470 545 339 C 546 309 583 319 586 349 Z" fill="lightgray" class="stroke step15"/>
    <path d="M 452 414 Q 488 362 505 359 Q 515 358 521 371 Q 524 381 518 397 Q 511 410 495 417 Q 470 432 458 434 Q 451 435 449 427 Q 448 421 452 414 Z" fill="lightgray" class="stroke step15"/>
    <path d="M 640 445 Q 630 423 607 389 Q 603 385 607 379 Q 613 379 618 382 Q 667 419 693 434 Q 706 438 702 446 Q 698 456 682 469 Q 667 481 652 482 Q 642 481 643 467 Q 644 457 640 445 Z" fill="lightgray" class="stroke step15"/>
    <path d="M 437 289 Q 447 286 460 289 Q 533 308 694 327 C 724 331 720 336 696 354 Q 692 358 684 362 Q 666 372 586 349 L 545 339 Q 485 327 437 318 C 408 312 407 294 437 289 Z" fill="lightgray" class="stroke step15"/>
    <path d="M 471 230 Q 452 245 428 252 Q 421 253 415 247 Q 412 243 419 233 Q 446 160 424 52 Q 414 33 421 6 Q 428 -22 439 -33 Q 449 -45 456 -33 Q 469 -14 471 9 L 476 42 Q 476 72 477 104 L 478 128 Q 478 183 481 202 C 483 221 483 221 471 230 Z" fill="lightgray" class="stroke step15"/>
    <path d="M 672 21 Q 685 -1 696 -26 Q 706 -45 716 -48 Q 726 -48 736 -26 Q 754 20 745 157 Q 745 202 751 223 Q 760 244 748 252 Q 741 262 706 279 Q 690 286 608 259 Q 532 240 471 230 C 441 225 452 196 481 202 Q 490 203 501 206 Q 565 228 650 240 Q 675 244 683 235 Q 692 226 688 111 Q 688 69 684 61 Q 681 57 675 54 C 662 39 662 39 672 21 Z" fill="lightgray" class="stroke step15"/>
    <path d="M 477 104 Q 484 103 495 104 Q 576 120 636 129 Q 658 133 649 145 Q 639 158 615 162 Q 585 163 478 128 C 449 119 447 106 477 104 Z" fill="lightgray" class="stroke step15"/>
    <path d="M 471 9 Q 480 8 491 9 Q 549 19 672 21 C 702 22 698 35 675 54 Q 671 58 666 61 Q 650 71 619 65 Q 540 50 476 42 C 446 38 441 11 471 9 Z" fill="lightgray" class="stroke step15"/></g></svg>