<svg version="1.1" viewBox="0 0 8192 1024" xmlns="http://www.w3.org/2000/svg">
  
  <g transform="scale(1, -1) translate(0, -900)" class="origin">
    <style type="text/css">
        .origin {display:none;}
        .hide {display:none;}
        .stroke {fill: #000000;}
        
.step1 {transform: translateX(1024px);}
.step2 {transform: translateX(2048px);}
.step3 {transform: translateX(3072px);}
.step4 {transform: translateX(4096px);}
.step5 {transform: translateX(5120px);}
.step6 {transform: translateX(6144px);}
.step7 {transform: translateX(7168px);}
.step8 {transform: translateX(8192px);}
.step9 {transform: translateX(9216px);}
.step10 {transform: translateX(10240px);}
.step11 {transform: translateX(11264px);}
.step12 {transform: translateX(12288px);}
.step13 {transform: translateX(13312px);}
.step14 {transform: translateX(14336px);}
.step15 {transform: translateX(15360px);}
.step16 {transform: translateX(16384px);}
.step17 {transform: translateX(17408px);}
.step18 {transform: translateX(18432px);}
.step19 {transform: translateX(19456px);}
.step20 {transform: translateX(20480px);}
.step21 {transform: translateX(21504px);}
.step22 {transform: translateX(22528px);}
.step23 {transform: translateX(23552px);}
.step24 {transform: translateX(24576px);}
.step25 {transform: translateX(25600px);}
.step26 {transform: translateX(26624px);}
.step27 {transform: translateX(27648px);}
.step28 {transform: translateX(28672px);}
.step29 {transform: translateX(29696px);}
    </style>

    <path d="M 342 149 Q 366 127 395 95 Q 411 79 420 78 Q 429 78 435 89 Q 442 99 438 130 Q 432 163 373 197 L 330 221 Q 305 236 273 252 Q 254 262 255 284 Q 274 342 292 401 L 304 439 Q 328 527 348 616 Q 358 664 376 688 Q 389 710 382 723 Q 367 742 321 769 Q 300 781 284 772 Q 271 765 281 749 Q 315 698 258 430 L 249 389 Q 240 331 211 283 Q 201 262 233 236 Q 272 212 306 181 L 342 149 Z" fill="lightgray"/>
    <path d="M 306 181 Q 248 112 160 56 Q 147 47 159 44 Q 237 38 339 146 Q 340 147 342 149 L 373 197 Q 410 273 420 311 Q 420 347 445 409 Q 449 422 457 434 Q 467 452 451 462 Q 405 499 379 491 Q 364 487 370 472 Q 374 463 377 453 L 380 426 L 380 424 Q 380 322 330 221 L 306 181 Z" fill="lightgray"/>
    <path d="M 377 453 Q 340 447 304 439 L 258 430 Q 185 420 107 406 Q 85 402 52 407 Q 39 407 36 398 Q 33 386 41 377 Q 60 359 89 337 Q 99 333 111 340 Q 171 373 249 389 L 292 401 Q 325 411 361 420 Q 370 423 380 426 C 409 435 407 458 377 453 Z" fill="lightgray"/>
    <path d="M 695 457 Q 731 464 912 489 Q 922 488 932 500 Q 933 513 910 524 Q 871 546 791 521 Q 704 502 699 500 L 647 490 Q 614 486 584 481 Q 536 477 485 470 Q 454 466 478 448 Q 508 423 555 431 Q 595 440 646 448 L 695 457 Z" fill="lightgray"/>
    <path d="M 681 294 Q 688 378 695 457 L 699 500 Q 706 639 733 740 Q 737 752 715 769 Q 678 791 651 796 Q 633 800 624 791 Q 615 784 624 766 Q 651 723 650 694 Q 651 597 647 490 L 646 448 Q 642 370 634 284 C 631 254 679 264 681 294 Z" fill="lightgray"/>
    <path d="M 547 271 Q 535 278 500 285 Q 487 289 483 284 Q 476 277 485 260 Q 515 191 530 81 Q 533 47 551 25 Q 570 1 575 17 Q 579 30 580 52 L 576 91 Q 560 202 556 238 C 553 268 552 268 547 271 Z" fill="lightgray"/>
    <path d="M 817 113 Q 847 215 883 240 Q 901 259 885 279 Q 867 294 812 322 Q 793 329 769 321 Q 723 305 681 294 L 634 284 Q 591 277 547 271 C 517 267 526 234 556 238 Q 568 239 582 242 Q 667 257 749 271 Q 771 275 779 267 Q 797 248 764 125 C 756 96 808 84 817 113 Z" fill="lightgray"/>
    <path d="M 580 52 Q 589 51 601 53 Q 673 68 825 78 Q 838 79 839 89 Q 839 96 817 113 L 764 125 Q 757 125 753 123 Q 653 101 576 91 C 546 87 550 53 580 52 Z" fill="lightgray"/></g>
<g transform="scale(1, -1) translate(0, -900)">
    <style type="text/css">
        .origin {display:none;}
        .hide {display:none;}
        .stroke {fill: #000000;}
        
.step1 {transform: translateX(1024px);}
.step2 {transform: translateX(2048px);}
.step3 {transform: translateX(3072px);}
.step4 {transform: translateX(4096px);}
.step5 {transform: translateX(5120px);}
.step6 {transform: translateX(6144px);}
.step7 {transform: translateX(7168px);}
.step8 {transform: translateX(8192px);}
.step9 {transform: translateX(9216px);}
.step10 {transform: translateX(10240px);}
.step11 {transform: translateX(11264px);}
.step12 {transform: translateX(12288px);}
.step13 {transform: translateX(13312px);}
.step14 {transform: translateX(14336px);}
.step15 {transform: translateX(15360px);}
.step16 {transform: translateX(16384px);}
.step17 {transform: translateX(17408px);}
.step18 {transform: translateX(18432px);}
.step19 {transform: translateX(19456px);}
.step20 {transform: translateX(20480px);}
.step21 {transform: translateX(21504px);}
.step22 {transform: translateX(22528px);}
.step23 {transform: translateX(23552px);}
.step24 {transform: translateX(24576px);}
.step25 {transform: translateX(25600px);}
.step26 {transform: translateX(26624px);}
.step27 {transform: translateX(27648px);}
.step28 {transform: translateX(28672px);}
.step29 {transform: translateX(29696px);}
    </style>

    <path d="M 342 149 Q 366 127 395 95 Q 411 79 420 78 Q 429 78 435 89 Q 442 99 438 130 Q 432 163 373 197 L 330 221 Q 305 236 273 252 Q 254 262 255 284 Q 274 342 292 401 L 304 439 Q 328 527 348 616 Q 358 664 376 688 Q 389 710 382 723 Q 367 742 321 769 Q 300 781 284 772 Q 271 765 281 749 Q 315 698 258 430 L 249 389 Q 240 331 211 283 Q 201 262 233 236 Q 272 212 306 181 L 342 149 Z" fill="lightgray" class="stroke step0"/>
    <path d="M 306 181 Q 248 112 160 56 Q 147 47 159 44 Q 237 38 339 146 Q 340 147 342 149 L 373 197 Q 410 273 420 311 Q 420 347 445 409 Q 449 422 457 434 Q 467 452 451 462 Q 405 499 379 491 Q 364 487 370 472 Q 374 463 377 453 L 380 426 L 380 424 Q 380 322 330 221 L 306 181 Z" fill="lightgray" class="hide"/>
    <path d="M 377 453 Q 340 447 304 439 L 258 430 Q 185 420 107 406 Q 85 402 52 407 Q 39 407 36 398 Q 33 386 41 377 Q 60 359 89 337 Q 99 333 111 340 Q 171 373 249 389 L 292 401 Q 325 411 361 420 Q 370 423 380 426 C 409 435 407 458 377 453 Z" fill="lightgray" class="hide"/>
    <path d="M 695 457 Q 731 464 912 489 Q 922 488 932 500 Q 933 513 910 524 Q 871 546 791 521 Q 704 502 699 500 L 647 490 Q 614 486 584 481 Q 536 477 485 470 Q 454 466 478 448 Q 508 423 555 431 Q 595 440 646 448 L 695 457 Z" fill="lightgray" class="hide"/>
    <path d="M 681 294 Q 688 378 695 457 L 699 500 Q 706 639 733 740 Q 737 752 715 769 Q 678 791 651 796 Q 633 800 624 791 Q 615 784 624 766 Q 651 723 650 694 Q 651 597 647 490 L 646 448 Q 642 370 634 284 C 631 254 679 264 681 294 Z" fill="lightgray" class="hide"/>
    <path d="M 547 271 Q 535 278 500 285 Q 487 289 483 284 Q 476 277 485 260 Q 515 191 530 81 Q 533 47 551 25 Q 570 1 575 17 Q 579 30 580 52 L 576 91 Q 560 202 556 238 C 553 268 552 268 547 271 Z" fill="lightgray" class="hide"/>
    <path d="M 817 113 Q 847 215 883 240 Q 901 259 885 279 Q 867 294 812 322 Q 793 329 769 321 Q 723 305 681 294 L 634 284 Q 591 277 547 271 C 517 267 526 234 556 238 Q 568 239 582 242 Q 667 257 749 271 Q 771 275 779 267 Q 797 248 764 125 C 756 96 808 84 817 113 Z" fill="lightgray" class="hide"/>
    <path d="M 580 52 Q 589 51 601 53 Q 673 68 825 78 Q 838 79 839 89 Q 839 96 817 113 L 764 125 Q 757 125 753 123 Q 653 101 576 91 C 546 87 550 53 580 52 Z" fill="lightgray" class="hide"/></g><g transform="scale(1, -1) translate(0, -900)">
    <style type="text/css">
        .origin {display:none;}
        .hide {display:none;}
        .stroke {fill: #000000;}
        
.step1 {transform: translateX(1024px);}
.step2 {transform: translateX(2048px);}
.step3 {transform: translateX(3072px);}
.step4 {transform: translateX(4096px);}
.step5 {transform: translateX(5120px);}
.step6 {transform: translateX(6144px);}
.step7 {transform: translateX(7168px);}
.step8 {transform: translateX(8192px);}
.step9 {transform: translateX(9216px);}
.step10 {transform: translateX(10240px);}
.step11 {transform: translateX(11264px);}
.step12 {transform: translateX(12288px);}
.step13 {transform: translateX(13312px);}
.step14 {transform: translateX(14336px);}
.step15 {transform: translateX(15360px);}
.step16 {transform: translateX(16384px);}
.step17 {transform: translateX(17408px);}
.step18 {transform: translateX(18432px);}
.step19 {transform: translateX(19456px);}
.step20 {transform: translateX(20480px);}
.step21 {transform: translateX(21504px);}
.step22 {transform: translateX(22528px);}
.step23 {transform: translateX(23552px);}
.step24 {transform: translateX(24576px);}
.step25 {transform: translateX(25600px);}
.step26 {transform: translateX(26624px);}
.step27 {transform: translateX(27648px);}
.step28 {transform: translateX(28672px);}
.step29 {transform: translateX(29696px);}
    </style>

    <path d="M 342 149 Q 366 127 395 95 Q 411 79 420 78 Q 429 78 435 89 Q 442 99 438 130 Q 432 163 373 197 L 330 221 Q 305 236 273 252 Q 254 262 255 284 Q 274 342 292 401 L 304 439 Q 328 527 348 616 Q 358 664 376 688 Q 389 710 382 723 Q 367 742 321 769 Q 300 781 284 772 Q 271 765 281 749 Q 315 698 258 430 L 249 389 Q 240 331 211 283 Q 201 262 233 236 Q 272 212 306 181 L 342 149 Z" fill="lightgray" class="stroke step1"/>
    <path d="M 306 181 Q 248 112 160 56 Q 147 47 159 44 Q 237 38 339 146 Q 340 147 342 149 L 373 197 Q 410 273 420 311 Q 420 347 445 409 Q 449 422 457 434 Q 467 452 451 462 Q 405 499 379 491 Q 364 487 370 472 Q 374 463 377 453 L 380 426 L 380 424 Q 380 322 330 221 L 306 181 Z" fill="lightgray" class="stroke step1"/>
    <path d="M 377 453 Q 340 447 304 439 L 258 430 Q 185 420 107 406 Q 85 402 52 407 Q 39 407 36 398 Q 33 386 41 377 Q 60 359 89 337 Q 99 333 111 340 Q 171 373 249 389 L 292 401 Q 325 411 361 420 Q 370 423 380 426 C 409 435 407 458 377 453 Z" fill="lightgray" class="hide"/>
    <path d="M 695 457 Q 731 464 912 489 Q 922 488 932 500 Q 933 513 910 524 Q 871 546 791 521 Q 704 502 699 500 L 647 490 Q 614 486 584 481 Q 536 477 485 470 Q 454 466 478 448 Q 508 423 555 431 Q 595 440 646 448 L 695 457 Z" fill="lightgray" class="hide"/>
    <path d="M 681 294 Q 688 378 695 457 L 699 500 Q 706 639 733 740 Q 737 752 715 769 Q 678 791 651 796 Q 633 800 624 791 Q 615 784 624 766 Q 651 723 650 694 Q 651 597 647 490 L 646 448 Q 642 370 634 284 C 631 254 679 264 681 294 Z" fill="lightgray" class="hide"/>
    <path d="M 547 271 Q 535 278 500 285 Q 487 289 483 284 Q 476 277 485 260 Q 515 191 530 81 Q 533 47 551 25 Q 570 1 575 17 Q 579 30 580 52 L 576 91 Q 560 202 556 238 C 553 268 552 268 547 271 Z" fill="lightgray" class="hide"/>
    <path d="M 817 113 Q 847 215 883 240 Q 901 259 885 279 Q 867 294 812 322 Q 793 329 769 321 Q 723 305 681 294 L 634 284 Q 591 277 547 271 C 517 267 526 234 556 238 Q 568 239 582 242 Q 667 257 749 271 Q 771 275 779 267 Q 797 248 764 125 C 756 96 808 84 817 113 Z" fill="lightgray" class="hide"/>
    <path d="M 580 52 Q 589 51 601 53 Q 673 68 825 78 Q 838 79 839 89 Q 839 96 817 113 L 764 125 Q 757 125 753 123 Q 653 101 576 91 C 546 87 550 53 580 52 Z" fill="lightgray" class="hide"/></g><g transform="scale(1, -1) translate(0, -900)">
    <style type="text/css">
        .origin {display:none;}
        .hide {display:none;}
        .stroke {fill: #000000;}
        
.step1 {transform: translateX(1024px);}
.step2 {transform: translateX(2048px);}
.step3 {transform: translateX(3072px);}
.step4 {transform: translateX(4096px);}
.step5 {transform: translateX(5120px);}
.step6 {transform: translateX(6144px);}
.step7 {transform: translateX(7168px);}
.step8 {transform: translateX(8192px);}
.step9 {transform: translateX(9216px);}
.step10 {transform: translateX(10240px);}
.step11 {transform: translateX(11264px);}
.step12 {transform: translateX(12288px);}
.step13 {transform: translateX(13312px);}
.step14 {transform: translateX(14336px);}
.step15 {transform: translateX(15360px);}
.step16 {transform: translateX(16384px);}
.step17 {transform: translateX(17408px);}
.step18 {transform: translateX(18432px);}
.step19 {transform: translateX(19456px);}
.step20 {transform: translateX(20480px);}
.step21 {transform: translateX(21504px);}
.step22 {transform: translateX(22528px);}
.step23 {transform: translateX(23552px);}
.step24 {transform: translateX(24576px);}
.step25 {transform: translateX(25600px);}
.step26 {transform: translateX(26624px);}
.step27 {transform: translateX(27648px);}
.step28 {transform: translateX(28672px);}
.step29 {transform: translateX(29696px);}
    </style>

    <path d="M 342 149 Q 366 127 395 95 Q 411 79 420 78 Q 429 78 435 89 Q 442 99 438 130 Q 432 163 373 197 L 330 221 Q 305 236 273 252 Q 254 262 255 284 Q 274 342 292 401 L 304 439 Q 328 527 348 616 Q 358 664 376 688 Q 389 710 382 723 Q 367 742 321 769 Q 300 781 284 772 Q 271 765 281 749 Q 315 698 258 430 L 249 389 Q 240 331 211 283 Q 201 262 233 236 Q 272 212 306 181 L 342 149 Z" fill="lightgray" class="stroke step2"/>
    <path d="M 306 181 Q 248 112 160 56 Q 147 47 159 44 Q 237 38 339 146 Q 340 147 342 149 L 373 197 Q 410 273 420 311 Q 420 347 445 409 Q 449 422 457 434 Q 467 452 451 462 Q 405 499 379 491 Q 364 487 370 472 Q 374 463 377 453 L 380 426 L 380 424 Q 380 322 330 221 L 306 181 Z" fill="lightgray" class="stroke step2"/>
    <path d="M 377 453 Q 340 447 304 439 L 258 430 Q 185 420 107 406 Q 85 402 52 407 Q 39 407 36 398 Q 33 386 41 377 Q 60 359 89 337 Q 99 333 111 340 Q 171 373 249 389 L 292 401 Q 325 411 361 420 Q 370 423 380 426 C 409 435 407 458 377 453 Z" fill="lightgray" class="stroke step2"/>
    <path d="M 695 457 Q 731 464 912 489 Q 922 488 932 500 Q 933 513 910 524 Q 871 546 791 521 Q 704 502 699 500 L 647 490 Q 614 486 584 481 Q 536 477 485 470 Q 454 466 478 448 Q 508 423 555 431 Q 595 440 646 448 L 695 457 Z" fill="lightgray" class="hide"/>
    <path d="M 681 294 Q 688 378 695 457 L 699 500 Q 706 639 733 740 Q 737 752 715 769 Q 678 791 651 796 Q 633 800 624 791 Q 615 784 624 766 Q 651 723 650 694 Q 651 597 647 490 L 646 448 Q 642 370 634 284 C 631 254 679 264 681 294 Z" fill="lightgray" class="hide"/>
    <path d="M 547 271 Q 535 278 500 285 Q 487 289 483 284 Q 476 277 485 260 Q 515 191 530 81 Q 533 47 551 25 Q 570 1 575 17 Q 579 30 580 52 L 576 91 Q 560 202 556 238 C 553 268 552 268 547 271 Z" fill="lightgray" class="hide"/>
    <path d="M 817 113 Q 847 215 883 240 Q 901 259 885 279 Q 867 294 812 322 Q 793 329 769 321 Q 723 305 681 294 L 634 284 Q 591 277 547 271 C 517 267 526 234 556 238 Q 568 239 582 242 Q 667 257 749 271 Q 771 275 779 267 Q 797 248 764 125 C 756 96 808 84 817 113 Z" fill="lightgray" class="hide"/>
    <path d="M 580 52 Q 589 51 601 53 Q 673 68 825 78 Q 838 79 839 89 Q 839 96 817 113 L 764 125 Q 757 125 753 123 Q 653 101 576 91 C 546 87 550 53 580 52 Z" fill="lightgray" class="hide"/></g><g transform="scale(1, -1) translate(0, -900)">
    <style type="text/css">
        .origin {display:none;}
        .hide {display:none;}
        .stroke {fill: #000000;}
        
.step1 {transform: translateX(1024px);}
.step2 {transform: translateX(2048px);}
.step3 {transform: translateX(3072px);}
.step4 {transform: translateX(4096px);}
.step5 {transform: translateX(5120px);}
.step6 {transform: translateX(6144px);}
.step7 {transform: translateX(7168px);}
.step8 {transform: translateX(8192px);}
.step9 {transform: translateX(9216px);}
.step10 {transform: translateX(10240px);}
.step11 {transform: translateX(11264px);}
.step12 {transform: translateX(12288px);}
.step13 {transform: translateX(13312px);}
.step14 {transform: translateX(14336px);}
.step15 {transform: translateX(15360px);}
.step16 {transform: translateX(16384px);}
.step17 {transform: translateX(17408px);}
.step18 {transform: translateX(18432px);}
.step19 {transform: translateX(19456px);}
.step20 {transform: translateX(20480px);}
.step21 {transform: translateX(21504px);}
.step22 {transform: translateX(22528px);}
.step23 {transform: translateX(23552px);}
.step24 {transform: translateX(24576px);}
.step25 {transform: translateX(25600px);}
.step26 {transform: translateX(26624px);}
.step27 {transform: translateX(27648px);}
.step28 {transform: translateX(28672px);}
.step29 {transform: translateX(29696px);}
    </style>

    <path d="M 342 149 Q 366 127 395 95 Q 411 79 420 78 Q 429 78 435 89 Q 442 99 438 130 Q 432 163 373 197 L 330 221 Q 305 236 273 252 Q 254 262 255 284 Q 274 342 292 401 L 304 439 Q 328 527 348 616 Q 358 664 376 688 Q 389 710 382 723 Q 367 742 321 769 Q 300 781 284 772 Q 271 765 281 749 Q 315 698 258 430 L 249 389 Q 240 331 211 283 Q 201 262 233 236 Q 272 212 306 181 L 342 149 Z" fill="lightgray" class="stroke step3"/>
    <path d="M 306 181 Q 248 112 160 56 Q 147 47 159 44 Q 237 38 339 146 Q 340 147 342 149 L 373 197 Q 410 273 420 311 Q 420 347 445 409 Q 449 422 457 434 Q 467 452 451 462 Q 405 499 379 491 Q 364 487 370 472 Q 374 463 377 453 L 380 426 L 380 424 Q 380 322 330 221 L 306 181 Z" fill="lightgray" class="stroke step3"/>
    <path d="M 377 453 Q 340 447 304 439 L 258 430 Q 185 420 107 406 Q 85 402 52 407 Q 39 407 36 398 Q 33 386 41 377 Q 60 359 89 337 Q 99 333 111 340 Q 171 373 249 389 L 292 401 Q 325 411 361 420 Q 370 423 380 426 C 409 435 407 458 377 453 Z" fill="lightgray" class="stroke step3"/>
    <path d="M 695 457 Q 731 464 912 489 Q 922 488 932 500 Q 933 513 910 524 Q 871 546 791 521 Q 704 502 699 500 L 647 490 Q 614 486 584 481 Q 536 477 485 470 Q 454 466 478 448 Q 508 423 555 431 Q 595 440 646 448 L 695 457 Z" fill="lightgray" class="stroke step3"/>
    <path d="M 681 294 Q 688 378 695 457 L 699 500 Q 706 639 733 740 Q 737 752 715 769 Q 678 791 651 796 Q 633 800 624 791 Q 615 784 624 766 Q 651 723 650 694 Q 651 597 647 490 L 646 448 Q 642 370 634 284 C 631 254 679 264 681 294 Z" fill="lightgray" class="hide"/>
    <path d="M 547 271 Q 535 278 500 285 Q 487 289 483 284 Q 476 277 485 260 Q 515 191 530 81 Q 533 47 551 25 Q 570 1 575 17 Q 579 30 580 52 L 576 91 Q 560 202 556 238 C 553 268 552 268 547 271 Z" fill="lightgray" class="hide"/>
    <path d="M 817 113 Q 847 215 883 240 Q 901 259 885 279 Q 867 294 812 322 Q 793 329 769 321 Q 723 305 681 294 L 634 284 Q 591 277 547 271 C 517 267 526 234 556 238 Q 568 239 582 242 Q 667 257 749 271 Q 771 275 779 267 Q 797 248 764 125 C 756 96 808 84 817 113 Z" fill="lightgray" class="hide"/>
    <path d="M 580 52 Q 589 51 601 53 Q 673 68 825 78 Q 838 79 839 89 Q 839 96 817 113 L 764 125 Q 757 125 753 123 Q 653 101 576 91 C 546 87 550 53 580 52 Z" fill="lightgray" class="hide"/></g><g transform="scale(1, -1) translate(0, -900)">
    <style type="text/css">
        .origin {display:none;}
        .hide {display:none;}
        .stroke {fill: #000000;}
        
.step1 {transform: translateX(1024px);}
.step2 {transform: translateX(2048px);}
.step3 {transform: translateX(3072px);}
.step4 {transform: translateX(4096px);}
.step5 {transform: translateX(5120px);}
.step6 {transform: translateX(6144px);}
.step7 {transform: translateX(7168px);}
.step8 {transform: translateX(8192px);}
.step9 {transform: translateX(9216px);}
.step10 {transform: translateX(10240px);}
.step11 {transform: translateX(11264px);}
.step12 {transform: translateX(12288px);}
.step13 {transform: translateX(13312px);}
.step14 {transform: translateX(14336px);}
.step15 {transform: translateX(15360px);}
.step16 {transform: translateX(16384px);}
.step17 {transform: translateX(17408px);}
.step18 {transform: translateX(18432px);}
.step19 {transform: translateX(19456px);}
.step20 {transform: translateX(20480px);}
.step21 {transform: translateX(21504px);}
.step22 {transform: translateX(22528px);}
.step23 {transform: translateX(23552px);}
.step24 {transform: translateX(24576px);}
.step25 {transform: translateX(25600px);}
.step26 {transform: translateX(26624px);}
.step27 {transform: translateX(27648px);}
.step28 {transform: translateX(28672px);}
.step29 {transform: translateX(29696px);}
    </style>

    <path d="M 342 149 Q 366 127 395 95 Q 411 79 420 78 Q 429 78 435 89 Q 442 99 438 130 Q 432 163 373 197 L 330 221 Q 305 236 273 252 Q 254 262 255 284 Q 274 342 292 401 L 304 439 Q 328 527 348 616 Q 358 664 376 688 Q 389 710 382 723 Q 367 742 321 769 Q 300 781 284 772 Q 271 765 281 749 Q 315 698 258 430 L 249 389 Q 240 331 211 283 Q 201 262 233 236 Q 272 212 306 181 L 342 149 Z" fill="lightgray" class="stroke step4"/>
    <path d="M 306 181 Q 248 112 160 56 Q 147 47 159 44 Q 237 38 339 146 Q 340 147 342 149 L 373 197 Q 410 273 420 311 Q 420 347 445 409 Q 449 422 457 434 Q 467 452 451 462 Q 405 499 379 491 Q 364 487 370 472 Q 374 463 377 453 L 380 426 L 380 424 Q 380 322 330 221 L 306 181 Z" fill="lightgray" class="stroke step4"/>
    <path d="M 377 453 Q 340 447 304 439 L 258 430 Q 185 420 107 406 Q 85 402 52 407 Q 39 407 36 398 Q 33 386 41 377 Q 60 359 89 337 Q 99 333 111 340 Q 171 373 249 389 L 292 401 Q 325 411 361 420 Q 370 423 380 426 C 409 435 407 458 377 453 Z" fill="lightgray" class="stroke step4"/>
    <path d="M 695 457 Q 731 464 912 489 Q 922 488 932 500 Q 933 513 910 524 Q 871 546 791 521 Q 704 502 699 500 L 647 490 Q 614 486 584 481 Q 536 477 485 470 Q 454 466 478 448 Q 508 423 555 431 Q 595 440 646 448 L 695 457 Z" fill="lightgray" class="stroke step4"/>
    <path d="M 681 294 Q 688 378 695 457 L 699 500 Q 706 639 733 740 Q 737 752 715 769 Q 678 791 651 796 Q 633 800 624 791 Q 615 784 624 766 Q 651 723 650 694 Q 651 597 647 490 L 646 448 Q 642 370 634 284 C 631 254 679 264 681 294 Z" fill="lightgray" class="stroke step4"/>
    <path d="M 547 271 Q 535 278 500 285 Q 487 289 483 284 Q 476 277 485 260 Q 515 191 530 81 Q 533 47 551 25 Q 570 1 575 17 Q 579 30 580 52 L 576 91 Q 560 202 556 238 C 553 268 552 268 547 271 Z" fill="lightgray" class="hide"/>
    <path d="M 817 113 Q 847 215 883 240 Q 901 259 885 279 Q 867 294 812 322 Q 793 329 769 321 Q 723 305 681 294 L 634 284 Q 591 277 547 271 C 517 267 526 234 556 238 Q 568 239 582 242 Q 667 257 749 271 Q 771 275 779 267 Q 797 248 764 125 C 756 96 808 84 817 113 Z" fill="lightgray" class="hide"/>
    <path d="M 580 52 Q 589 51 601 53 Q 673 68 825 78 Q 838 79 839 89 Q 839 96 817 113 L 764 125 Q 757 125 753 123 Q 653 101 576 91 C 546 87 550 53 580 52 Z" fill="lightgray" class="hide"/></g><g transform="scale(1, -1) translate(0, -900)">
    <style type="text/css">
        .origin {display:none;}
        .hide {display:none;}
        .stroke {fill: #000000;}
        
.step1 {transform: translateX(1024px);}
.step2 {transform: translateX(2048px);}
.step3 {transform: translateX(3072px);}
.step4 {transform: translateX(4096px);}
.step5 {transform: translateX(5120px);}
.step6 {transform: translateX(6144px);}
.step7 {transform: translateX(7168px);}
.step8 {transform: translateX(8192px);}
.step9 {transform: translateX(9216px);}
.step10 {transform: translateX(10240px);}
.step11 {transform: translateX(11264px);}
.step12 {transform: translateX(12288px);}
.step13 {transform: translateX(13312px);}
.step14 {transform: translateX(14336px);}
.step15 {transform: translateX(15360px);}
.step16 {transform: translateX(16384px);}
.step17 {transform: translateX(17408px);}
.step18 {transform: translateX(18432px);}
.step19 {transform: translateX(19456px);}
.step20 {transform: translateX(20480px);}
.step21 {transform: translateX(21504px);}
.step22 {transform: translateX(22528px);}
.step23 {transform: translateX(23552px);}
.step24 {transform: translateX(24576px);}
.step25 {transform: translateX(25600px);}
.step26 {transform: translateX(26624px);}
.step27 {transform: translateX(27648px);}
.step28 {transform: translateX(28672px);}
.step29 {transform: translateX(29696px);}
    </style>

    <path d="M 342 149 Q 366 127 395 95 Q 411 79 420 78 Q 429 78 435 89 Q 442 99 438 130 Q 432 163 373 197 L 330 221 Q 305 236 273 252 Q 254 262 255 284 Q 274 342 292 401 L 304 439 Q 328 527 348 616 Q 358 664 376 688 Q 389 710 382 723 Q 367 742 321 769 Q 300 781 284 772 Q 271 765 281 749 Q 315 698 258 430 L 249 389 Q 240 331 211 283 Q 201 262 233 236 Q 272 212 306 181 L 342 149 Z" fill="lightgray" class="stroke step5"/>
    <path d="M 306 181 Q 248 112 160 56 Q 147 47 159 44 Q 237 38 339 146 Q 340 147 342 149 L 373 197 Q 410 273 420 311 Q 420 347 445 409 Q 449 422 457 434 Q 467 452 451 462 Q 405 499 379 491 Q 364 487 370 472 Q 374 463 377 453 L 380 426 L 380 424 Q 380 322 330 221 L 306 181 Z" fill="lightgray" class="stroke step5"/>
    <path d="M 377 453 Q 340 447 304 439 L 258 430 Q 185 420 107 406 Q 85 402 52 407 Q 39 407 36 398 Q 33 386 41 377 Q 60 359 89 337 Q 99 333 111 340 Q 171 373 249 389 L 292 401 Q 325 411 361 420 Q 370 423 380 426 C 409 435 407 458 377 453 Z" fill="lightgray" class="stroke step5"/>
    <path d="M 695 457 Q 731 464 912 489 Q 922 488 932 500 Q 933 513 910 524 Q 871 546 791 521 Q 704 502 699 500 L 647 490 Q 614 486 584 481 Q 536 477 485 470 Q 454 466 478 448 Q 508 423 555 431 Q 595 440 646 448 L 695 457 Z" fill="lightgray" class="stroke step5"/>
    <path d="M 681 294 Q 688 378 695 457 L 699 500 Q 706 639 733 740 Q 737 752 715 769 Q 678 791 651 796 Q 633 800 624 791 Q 615 784 624 766 Q 651 723 650 694 Q 651 597 647 490 L 646 448 Q 642 370 634 284 C 631 254 679 264 681 294 Z" fill="lightgray" class="stroke step5"/>
    <path d="M 547 271 Q 535 278 500 285 Q 487 289 483 284 Q 476 277 485 260 Q 515 191 530 81 Q 533 47 551 25 Q 570 1 575 17 Q 579 30 580 52 L 576 91 Q 560 202 556 238 C 553 268 552 268 547 271 Z" fill="lightgray" class="stroke step5"/>
    <path d="M 817 113 Q 847 215 883 240 Q 901 259 885 279 Q 867 294 812 322 Q 793 329 769 321 Q 723 305 681 294 L 634 284 Q 591 277 547 271 C 517 267 526 234 556 238 Q 568 239 582 242 Q 667 257 749 271 Q 771 275 779 267 Q 797 248 764 125 C 756 96 808 84 817 113 Z" fill="lightgray" class="hide"/>
    <path d="M 580 52 Q 589 51 601 53 Q 673 68 825 78 Q 838 79 839 89 Q 839 96 817 113 L 764 125 Q 757 125 753 123 Q 653 101 576 91 C 546 87 550 53 580 52 Z" fill="lightgray" class="hide"/></g><g transform="scale(1, -1) translate(0, -900)">
    <style type="text/css">
        .origin {display:none;}
        .hide {display:none;}
        .stroke {fill: #000000;}
        
.step1 {transform: translateX(1024px);}
.step2 {transform: translateX(2048px);}
.step3 {transform: translateX(3072px);}
.step4 {transform: translateX(4096px);}
.step5 {transform: translateX(5120px);}
.step6 {transform: translateX(6144px);}
.step7 {transform: translateX(7168px);}
.step8 {transform: translateX(8192px);}
.step9 {transform: translateX(9216px);}
.step10 {transform: translateX(10240px);}
.step11 {transform: translateX(11264px);}
.step12 {transform: translateX(12288px);}
.step13 {transform: translateX(13312px);}
.step14 {transform: translateX(14336px);}
.step15 {transform: translateX(15360px);}
.step16 {transform: translateX(16384px);}
.step17 {transform: translateX(17408px);}
.step18 {transform: translateX(18432px);}
.step19 {transform: translateX(19456px);}
.step20 {transform: translateX(20480px);}
.step21 {transform: translateX(21504px);}
.step22 {transform: translateX(22528px);}
.step23 {transform: translateX(23552px);}
.step24 {transform: translateX(24576px);}
.step25 {transform: translateX(25600px);}
.step26 {transform: translateX(26624px);}
.step27 {transform: translateX(27648px);}
.step28 {transform: translateX(28672px);}
.step29 {transform: translateX(29696px);}
    </style>

    <path d="M 342 149 Q 366 127 395 95 Q 411 79 420 78 Q 429 78 435 89 Q 442 99 438 130 Q 432 163 373 197 L 330 221 Q 305 236 273 252 Q 254 262 255 284 Q 274 342 292 401 L 304 439 Q 328 527 348 616 Q 358 664 376 688 Q 389 710 382 723 Q 367 742 321 769 Q 300 781 284 772 Q 271 765 281 749 Q 315 698 258 430 L 249 389 Q 240 331 211 283 Q 201 262 233 236 Q 272 212 306 181 L 342 149 Z" fill="lightgray" class="stroke step6"/>
    <path d="M 306 181 Q 248 112 160 56 Q 147 47 159 44 Q 237 38 339 146 Q 340 147 342 149 L 373 197 Q 410 273 420 311 Q 420 347 445 409 Q 449 422 457 434 Q 467 452 451 462 Q 405 499 379 491 Q 364 487 370 472 Q 374 463 377 453 L 380 426 L 380 424 Q 380 322 330 221 L 306 181 Z" fill="lightgray" class="stroke step6"/>
    <path d="M 377 453 Q 340 447 304 439 L 258 430 Q 185 420 107 406 Q 85 402 52 407 Q 39 407 36 398 Q 33 386 41 377 Q 60 359 89 337 Q 99 333 111 340 Q 171 373 249 389 L 292 401 Q 325 411 361 420 Q 370 423 380 426 C 409 435 407 458 377 453 Z" fill="lightgray" class="stroke step6"/>
    <path d="M 695 457 Q 731 464 912 489 Q 922 488 932 500 Q 933 513 910 524 Q 871 546 791 521 Q 704 502 699 500 L 647 490 Q 614 486 584 481 Q 536 477 485 470 Q 454 466 478 448 Q 508 423 555 431 Q 595 440 646 448 L 695 457 Z" fill="lightgray" class="stroke step6"/>
    <path d="M 681 294 Q 688 378 695 457 L 699 500 Q 706 639 733 740 Q 737 752 715 769 Q 678 791 651 796 Q 633 800 624 791 Q 615 784 624 766 Q 651 723 650 694 Q 651 597 647 490 L 646 448 Q 642 370 634 284 C 631 254 679 264 681 294 Z" fill="lightgray" class="stroke step6"/>
    <path d="M 547 271 Q 535 278 500 285 Q 487 289 483 284 Q 476 277 485 260 Q 515 191 530 81 Q 533 47 551 25 Q 570 1 575 17 Q 579 30 580 52 L 576 91 Q 560 202 556 238 C 553 268 552 268 547 271 Z" fill="lightgray" class="stroke step6"/>
    <path d="M 817 113 Q 847 215 883 240 Q 901 259 885 279 Q 867 294 812 322 Q 793 329 769 321 Q 723 305 681 294 L 634 284 Q 591 277 547 271 C 517 267 526 234 556 238 Q 568 239 582 242 Q 667 257 749 271 Q 771 275 779 267 Q 797 248 764 125 C 756 96 808 84 817 113 Z" fill="lightgray" class="stroke step6"/>
    <path d="M 580 52 Q 589 51 601 53 Q 673 68 825 78 Q 838 79 839 89 Q 839 96 817 113 L 764 125 Q 757 125 753 123 Q 653 101 576 91 C 546 87 550 53 580 52 Z" fill="lightgray" class="hide"/></g><g transform="scale(1, -1) translate(0, -900)">
    <style type="text/css">
        .origin {display:none;}
        .hide {display:none;}
        .stroke {fill: #000000;}
        
.step1 {transform: translateX(1024px);}
.step2 {transform: translateX(2048px);}
.step3 {transform: translateX(3072px);}
.step4 {transform: translateX(4096px);}
.step5 {transform: translateX(5120px);}
.step6 {transform: translateX(6144px);}
.step7 {transform: translateX(7168px);}
.step8 {transform: translateX(8192px);}
.step9 {transform: translateX(9216px);}
.step10 {transform: translateX(10240px);}
.step11 {transform: translateX(11264px);}
.step12 {transform: translateX(12288px);}
.step13 {transform: translateX(13312px);}
.step14 {transform: translateX(14336px);}
.step15 {transform: translateX(15360px);}
.step16 {transform: translateX(16384px);}
.step17 {transform: translateX(17408px);}
.step18 {transform: translateX(18432px);}
.step19 {transform: translateX(19456px);}
.step20 {transform: translateX(20480px);}
.step21 {transform: translateX(21504px);}
.step22 {transform: translateX(22528px);}
.step23 {transform: translateX(23552px);}
.step24 {transform: translateX(24576px);}
.step25 {transform: translateX(25600px);}
.step26 {transform: translateX(26624px);}
.step27 {transform: translateX(27648px);}
.step28 {transform: translateX(28672px);}
.step29 {transform: translateX(29696px);}
    </style>

    <path d="M 342 149 Q 366 127 395 95 Q 411 79 420 78 Q 429 78 435 89 Q 442 99 438 130 Q 432 163 373 197 L 330 221 Q 305 236 273 252 Q 254 262 255 284 Q 274 342 292 401 L 304 439 Q 328 527 348 616 Q 358 664 376 688 Q 389 710 382 723 Q 367 742 321 769 Q 300 781 284 772 Q 271 765 281 749 Q 315 698 258 430 L 249 389 Q 240 331 211 283 Q 201 262 233 236 Q 272 212 306 181 L 342 149 Z" fill="lightgray" class="stroke step7"/>
    <path d="M 306 181 Q 248 112 160 56 Q 147 47 159 44 Q 237 38 339 146 Q 340 147 342 149 L 373 197 Q 410 273 420 311 Q 420 347 445 409 Q 449 422 457 434 Q 467 452 451 462 Q 405 499 379 491 Q 364 487 370 472 Q 374 463 377 453 L 380 426 L 380 424 Q 380 322 330 221 L 306 181 Z" fill="lightgray" class="stroke step7"/>
    <path d="M 377 453 Q 340 447 304 439 L 258 430 Q 185 420 107 406 Q 85 402 52 407 Q 39 407 36 398 Q 33 386 41 377 Q 60 359 89 337 Q 99 333 111 340 Q 171 373 249 389 L 292 401 Q 325 411 361 420 Q 370 423 380 426 C 409 435 407 458 377 453 Z" fill="lightgray" class="stroke step7"/>
    <path d="M 695 457 Q 731 464 912 489 Q 922 488 932 500 Q 933 513 910 524 Q 871 546 791 521 Q 704 502 699 500 L 647 490 Q 614 486 584 481 Q 536 477 485 470 Q 454 466 478 448 Q 508 423 555 431 Q 595 440 646 448 L 695 457 Z" fill="lightgray" class="stroke step7"/>
    <path d="M 681 294 Q 688 378 695 457 L 699 500 Q 706 639 733 740 Q 737 752 715 769 Q 678 791 651 796 Q 633 800 624 791 Q 615 784 624 766 Q 651 723 650 694 Q 651 597 647 490 L 646 448 Q 642 370 634 284 C 631 254 679 264 681 294 Z" fill="lightgray" class="stroke step7"/>
    <path d="M 547 271 Q 535 278 500 285 Q 487 289 483 284 Q 476 277 485 260 Q 515 191 530 81 Q 533 47 551 25 Q 570 1 575 17 Q 579 30 580 52 L 576 91 Q 560 202 556 238 C 553 268 552 268 547 271 Z" fill="lightgray" class="stroke step7"/>
    <path d="M 817 113 Q 847 215 883 240 Q 901 259 885 279 Q 867 294 812 322 Q 793 329 769 321 Q 723 305 681 294 L 634 284 Q 591 277 547 271 C 517 267 526 234 556 238 Q 568 239 582 242 Q 667 257 749 271 Q 771 275 779 267 Q 797 248 764 125 C 756 96 808 84 817 113 Z" fill="lightgray" class="stroke step7"/>
    <path d="M 580 52 Q 589 51 601 53 Q 673 68 825 78 Q 838 79 839 89 Q 839 96 817 113 L 764 125 Q 757 125 753 123 Q 653 101 576 91 C 546 87 550 53 580 52 Z" fill="lightgray" class="stroke step7"/></g></svg>