<svg version="1.1" viewBox="0 0 3072 1024" xmlns="http://www.w3.org/2000/svg">
  
  <g transform="scale(1, -1) translate(0, -900)" class="origin">
    <style type="text/css">
        .origin {display:none;}
        .hide {display:none;}
        .stroke {fill: #000000;}
        
.step1 {transform: translateX(1024px);}
.step2 {transform: translateX(2048px);}
.step3 {transform: translateX(3072px);}
.step4 {transform: translateX(4096px);}
.step5 {transform: translateX(5120px);}
.step6 {transform: translateX(6144px);}
.step7 {transform: translateX(7168px);}
.step8 {transform: translateX(8192px);}
.step9 {transform: translateX(9216px);}
.step10 {transform: translateX(10240px);}
.step11 {transform: translateX(11264px);}
.step12 {transform: translateX(12288px);}
.step13 {transform: translateX(13312px);}
.step14 {transform: translateX(14336px);}
.step15 {transform: translateX(15360px);}
.step16 {transform: translateX(16384px);}
.step17 {transform: translateX(17408px);}
.step18 {transform: translateX(18432px);}
.step19 {transform: translateX(19456px);}
.step20 {transform: translateX(20480px);}
.step21 {transform: translateX(21504px);}
.step22 {transform: translateX(22528px);}
.step23 {transform: translateX(23552px);}
.step24 {transform: translateX(24576px);}
.step25 {transform: translateX(25600px);}
.step26 {transform: translateX(26624px);}
.step27 {transform: translateX(27648px);}
.step28 {transform: translateX(28672px);}
.step29 {transform: translateX(29696px);}
    </style>

    <path d="M 544 561 Q 575 580 648 638 Q 679 666 700 671 Q 737 683 739 698 Q 740 708 705 746 Q 672 782 661 780 Q 657 783 644 778 Q 575 748 344 719 Q 323 720 309 722 Q 290 726 283 715 Q 280 708 288 697 Q 298 684 322 666 Q 343 650 354 650 Q 364 649 384 662 Q 420 690 607 732 Q 632 738 637 735 Q 643 731 642 723 Q 642 714 543 589 Q 534 580 529 573 C 509 550 519 545 544 561 Z" fill="lightgray"/>
    <path d="M 529 573 Q 505 588 486 592 Q 474 596 466 591 Q 462 587 474 574 Q 495 544 508 451 L 513 407 Q 541 169 492 90 Q 489 83 482 81 Q 467 77 356 100 Q 349 100 346 97 Q 345 93 354 85 Q 429 30 470 -13 Q 483 -26 492 -24 Q 505 -23 527 -1 Q 575 44 576 136 Q 583 239 562 411 L 557 457 Q 551 505 549 542 Q 549 554 544 561 L 529 573 Z" fill="lightgray"/>
    <path d="M 508 451 Q 499 452 299 429 Q 227 419 121 418 Q 108 418 106 406 Q 105 393 124 378 Q 142 365 174 353 Q 186 349 204 357 Q 222 363 297 375 Q 393 397 513 407 L 562 411 Q 769 430 888 417 Q 937 417 940 418 Q 940 421 942 421 Q 949 434 937 447 Q 864 513 800 491 Q 739 479 675 469 Q 605 463 557 457 L 508 451 Z" fill="lightgray"/></g>
<g transform="scale(1, -1) translate(0, -900)">
    <style type="text/css">
        .origin {display:none;}
        .hide {display:none;}
        .stroke {fill: #000000;}
        
.step1 {transform: translateX(1024px);}
.step2 {transform: translateX(2048px);}
.step3 {transform: translateX(3072px);}
.step4 {transform: translateX(4096px);}
.step5 {transform: translateX(5120px);}
.step6 {transform: translateX(6144px);}
.step7 {transform: translateX(7168px);}
.step8 {transform: translateX(8192px);}
.step9 {transform: translateX(9216px);}
.step10 {transform: translateX(10240px);}
.step11 {transform: translateX(11264px);}
.step12 {transform: translateX(12288px);}
.step13 {transform: translateX(13312px);}
.step14 {transform: translateX(14336px);}
.step15 {transform: translateX(15360px);}
.step16 {transform: translateX(16384px);}
.step17 {transform: translateX(17408px);}
.step18 {transform: translateX(18432px);}
.step19 {transform: translateX(19456px);}
.step20 {transform: translateX(20480px);}
.step21 {transform: translateX(21504px);}
.step22 {transform: translateX(22528px);}
.step23 {transform: translateX(23552px);}
.step24 {transform: translateX(24576px);}
.step25 {transform: translateX(25600px);}
.step26 {transform: translateX(26624px);}
.step27 {transform: translateX(27648px);}
.step28 {transform: translateX(28672px);}
.step29 {transform: translateX(29696px);}
    </style>

    <path d="M 544 561 Q 575 580 648 638 Q 679 666 700 671 Q 737 683 739 698 Q 740 708 705 746 Q 672 782 661 780 Q 657 783 644 778 Q 575 748 344 719 Q 323 720 309 722 Q 290 726 283 715 Q 280 708 288 697 Q 298 684 322 666 Q 343 650 354 650 Q 364 649 384 662 Q 420 690 607 732 Q 632 738 637 735 Q 643 731 642 723 Q 642 714 543 589 Q 534 580 529 573 C 509 550 519 545 544 561 Z" fill="lightgray" class="stroke step0"/>
    <path d="M 529 573 Q 505 588 486 592 Q 474 596 466 591 Q 462 587 474 574 Q 495 544 508 451 L 513 407 Q 541 169 492 90 Q 489 83 482 81 Q 467 77 356 100 Q 349 100 346 97 Q 345 93 354 85 Q 429 30 470 -13 Q 483 -26 492 -24 Q 505 -23 527 -1 Q 575 44 576 136 Q 583 239 562 411 L 557 457 Q 551 505 549 542 Q 549 554 544 561 L 529 573 Z" fill="lightgray" class="hide"/>
    <path d="M 508 451 Q 499 452 299 429 Q 227 419 121 418 Q 108 418 106 406 Q 105 393 124 378 Q 142 365 174 353 Q 186 349 204 357 Q 222 363 297 375 Q 393 397 513 407 L 562 411 Q 769 430 888 417 Q 937 417 940 418 Q 940 421 942 421 Q 949 434 937 447 Q 864 513 800 491 Q 739 479 675 469 Q 605 463 557 457 L 508 451 Z" fill="lightgray" class="hide"/></g><g transform="scale(1, -1) translate(0, -900)">
    <style type="text/css">
        .origin {display:none;}
        .hide {display:none;}
        .stroke {fill: #000000;}
        
.step1 {transform: translateX(1024px);}
.step2 {transform: translateX(2048px);}
.step3 {transform: translateX(3072px);}
.step4 {transform: translateX(4096px);}
.step5 {transform: translateX(5120px);}
.step6 {transform: translateX(6144px);}
.step7 {transform: translateX(7168px);}
.step8 {transform: translateX(8192px);}
.step9 {transform: translateX(9216px);}
.step10 {transform: translateX(10240px);}
.step11 {transform: translateX(11264px);}
.step12 {transform: translateX(12288px);}
.step13 {transform: translateX(13312px);}
.step14 {transform: translateX(14336px);}
.step15 {transform: translateX(15360px);}
.step16 {transform: translateX(16384px);}
.step17 {transform: translateX(17408px);}
.step18 {transform: translateX(18432px);}
.step19 {transform: translateX(19456px);}
.step20 {transform: translateX(20480px);}
.step21 {transform: translateX(21504px);}
.step22 {transform: translateX(22528px);}
.step23 {transform: translateX(23552px);}
.step24 {transform: translateX(24576px);}
.step25 {transform: translateX(25600px);}
.step26 {transform: translateX(26624px);}
.step27 {transform: translateX(27648px);}
.step28 {transform: translateX(28672px);}
.step29 {transform: translateX(29696px);}
    </style>

    <path d="M 544 561 Q 575 580 648 638 Q 679 666 700 671 Q 737 683 739 698 Q 740 708 705 746 Q 672 782 661 780 Q 657 783 644 778 Q 575 748 344 719 Q 323 720 309 722 Q 290 726 283 715 Q 280 708 288 697 Q 298 684 322 666 Q 343 650 354 650 Q 364 649 384 662 Q 420 690 607 732 Q 632 738 637 735 Q 643 731 642 723 Q 642 714 543 589 Q 534 580 529 573 C 509 550 519 545 544 561 Z" fill="lightgray" class="stroke step1"/>
    <path d="M 529 573 Q 505 588 486 592 Q 474 596 466 591 Q 462 587 474 574 Q 495 544 508 451 L 513 407 Q 541 169 492 90 Q 489 83 482 81 Q 467 77 356 100 Q 349 100 346 97 Q 345 93 354 85 Q 429 30 470 -13 Q 483 -26 492 -24 Q 505 -23 527 -1 Q 575 44 576 136 Q 583 239 562 411 L 557 457 Q 551 505 549 542 Q 549 554 544 561 L 529 573 Z" fill="lightgray" class="stroke step1"/>
    <path d="M 508 451 Q 499 452 299 429 Q 227 419 121 418 Q 108 418 106 406 Q 105 393 124 378 Q 142 365 174 353 Q 186 349 204 357 Q 222 363 297 375 Q 393 397 513 407 L 562 411 Q 769 430 888 417 Q 937 417 940 418 Q 940 421 942 421 Q 949 434 937 447 Q 864 513 800 491 Q 739 479 675 469 Q 605 463 557 457 L 508 451 Z" fill="lightgray" class="hide"/></g><g transform="scale(1, -1) translate(0, -900)">
    <style type="text/css">
        .origin {display:none;}
        .hide {display:none;}
        .stroke {fill: #000000;}
        
.step1 {transform: translateX(1024px);}
.step2 {transform: translateX(2048px);}
.step3 {transform: translateX(3072px);}
.step4 {transform: translateX(4096px);}
.step5 {transform: translateX(5120px);}
.step6 {transform: translateX(6144px);}
.step7 {transform: translateX(7168px);}
.step8 {transform: translateX(8192px);}
.step9 {transform: translateX(9216px);}
.step10 {transform: translateX(10240px);}
.step11 {transform: translateX(11264px);}
.step12 {transform: translateX(12288px);}
.step13 {transform: translateX(13312px);}
.step14 {transform: translateX(14336px);}
.step15 {transform: translateX(15360px);}
.step16 {transform: translateX(16384px);}
.step17 {transform: translateX(17408px);}
.step18 {transform: translateX(18432px);}
.step19 {transform: translateX(19456px);}
.step20 {transform: translateX(20480px);}
.step21 {transform: translateX(21504px);}
.step22 {transform: translateX(22528px);}
.step23 {transform: translateX(23552px);}
.step24 {transform: translateX(24576px);}
.step25 {transform: translateX(25600px);}
.step26 {transform: translateX(26624px);}
.step27 {transform: translateX(27648px);}
.step28 {transform: translateX(28672px);}
.step29 {transform: translateX(29696px);}
    </style>

    <path d="M 544 561 Q 575 580 648 638 Q 679 666 700 671 Q 737 683 739 698 Q 740 708 705 746 Q 672 782 661 780 Q 657 783 644 778 Q 575 748 344 719 Q 323 720 309 722 Q 290 726 283 715 Q 280 708 288 697 Q 298 684 322 666 Q 343 650 354 650 Q 364 649 384 662 Q 420 690 607 732 Q 632 738 637 735 Q 643 731 642 723 Q 642 714 543 589 Q 534 580 529 573 C 509 550 519 545 544 561 Z" fill="lightgray" class="stroke step2"/>
    <path d="M 529 573 Q 505 588 486 592 Q 474 596 466 591 Q 462 587 474 574 Q 495 544 508 451 L 513 407 Q 541 169 492 90 Q 489 83 482 81 Q 467 77 356 100 Q 349 100 346 97 Q 345 93 354 85 Q 429 30 470 -13 Q 483 -26 492 -24 Q 505 -23 527 -1 Q 575 44 576 136 Q 583 239 562 411 L 557 457 Q 551 505 549 542 Q 549 554 544 561 L 529 573 Z" fill="lightgray" class="stroke step2"/>
    <path d="M 508 451 Q 499 452 299 429 Q 227 419 121 418 Q 108 418 106 406 Q 105 393 124 378 Q 142 365 174 353 Q 186 349 204 357 Q 222 363 297 375 Q 393 397 513 407 L 562 411 Q 769 430 888 417 Q 937 417 940 418 Q 940 421 942 421 Q 949 434 937 447 Q 864 513 800 491 Q 739 479 675 469 Q 605 463 557 457 L 508 451 Z" fill="lightgray" class="stroke step2"/></g></svg>