<svg version="1.1" viewBox="0 0 6144 1024" xmlns="http://www.w3.org/2000/svg">
  
  <g transform="scale(1, -1) translate(0, -900)" class="origin">
    <style type="text/css">
        .origin {display:none;}
        .hide {display:none;}
        .stroke {fill: #000000;}
        
.step1 {transform: translateX(1024px);}
.step2 {transform: translateX(2048px);}
.step3 {transform: translateX(3072px);}
.step4 {transform: translateX(4096px);}
.step5 {transform: translateX(5120px);}
.step6 {transform: translateX(6144px);}
.step7 {transform: translateX(7168px);}
.step8 {transform: translateX(8192px);}
.step9 {transform: translateX(9216px);}
.step10 {transform: translateX(10240px);}
.step11 {transform: translateX(11264px);}
.step12 {transform: translateX(12288px);}
.step13 {transform: translateX(13312px);}
.step14 {transform: translateX(14336px);}
.step15 {transform: translateX(15360px);}
.step16 {transform: translateX(16384px);}
.step17 {transform: translateX(17408px);}
.step18 {transform: translateX(18432px);}
.step19 {transform: translateX(19456px);}
.step20 {transform: translateX(20480px);}
.step21 {transform: translateX(21504px);}
.step22 {transform: translateX(22528px);}
.step23 {transform: translateX(23552px);}
.step24 {transform: translateX(24576px);}
.step25 {transform: translateX(25600px);}
.step26 {transform: translateX(26624px);}
.step27 {transform: translateX(27648px);}
.step28 {transform: translateX(28672px);}
.step29 {transform: translateX(29696px);}
    </style>

    <path d="M 276 351 Q 295 675 297 679 Q 306 722 302 730 Q 298 736 290 741 Q 256 759 232 763 Q 216 766 208 758 Q 201 751 209 736 Q 233 702 233 678 Q 243 521 236 336 C 235 306 274 321 276 351 Z" fill="lightgray"/>
    <path d="M 236 336 Q 190 320 154 300 Q 141 296 143 312 Q 147 358 151 408 Q 155 432 144 446 Q 128 464 103 476 Q 91 482 81 479 Q 71 475 79 455 Q 104 401 97 347 Q 93 295 72 272 Q 56 253 65 239 Q 78 226 96 216 Q 111 210 120 220 Q 141 253 290 316 Q 326 332 348 336 C 377 343 388 388 359 379 Q 314 366 276 351 L 236 336 Z" fill="lightgray"/>
    <path d="M 348 336 Q 348 335 349 333 Q 353 308 361 291 Q 368 278 379 287 Q 400 305 404 379 Q 404 424 419 455 Q 420 462 425 468 Q 437 487 387 518 Q 383 521 380 522 Q 370 528 359 523 Q 352 519 355 508 Q 376 462 359 379 C 353 350 347 342 348 336 Z" fill="lightgray"/>
    <path d="M 551 610 Q 581 653 612 715 Q 627 746 642 764 Q 649 774 644 786 Q 638 796 611 815 Q 586 828 568 827 Q 552 823 561 804 Q 592 749 451 520 Q 444 510 442 505 Q 439 495 452 498 Q 473 504 535 587 L 551 610 Z" fill="lightgray"/>
    <path d="M 535 587 Q 544 578 582 570 Q 603 567 689 585 Q 833 616 840 624 Q 850 633 844 643 Q 835 656 802 663 Q 772 669 675 634 Q 602 616 551 610 C 521 606 510 603 535 587 Z" fill="lightgray"/>
    <path d="M 479 425 Q 464 424 462 415 Q 461 408 469 404 Q 503 395 536 404 Q 564 414 591 423 Q 613 429 616 422 Q 622 412 609 395 Q 470 206 474 108 Q 478 71 507 47 Q 579 -14 747 -9 Q 840 -6 948 40 Q 979 53 971 77 Q 952 138 942 239 Q 938 252 930 253 Q 924 253 919 237 Q 912 201 903 162 Q 891 105 848 85 Q 806 61 708 59 Q 611 58 573 75 Q 539 91 529 125 Q 510 206 636 349 Q 675 395 714 415 Q 739 427 731 440 Q 724 456 672 482 Q 653 494 625 480 Q 549 440 479 425 Z" fill="lightgray"/></g>
<g transform="scale(1, -1) translate(0, -900)">
    <style type="text/css">
        .origin {display:none;}
        .hide {display:none;}
        .stroke {fill: #000000;}
        
.step1 {transform: translateX(1024px);}
.step2 {transform: translateX(2048px);}
.step3 {transform: translateX(3072px);}
.step4 {transform: translateX(4096px);}
.step5 {transform: translateX(5120px);}
.step6 {transform: translateX(6144px);}
.step7 {transform: translateX(7168px);}
.step8 {transform: translateX(8192px);}
.step9 {transform: translateX(9216px);}
.step10 {transform: translateX(10240px);}
.step11 {transform: translateX(11264px);}
.step12 {transform: translateX(12288px);}
.step13 {transform: translateX(13312px);}
.step14 {transform: translateX(14336px);}
.step15 {transform: translateX(15360px);}
.step16 {transform: translateX(16384px);}
.step17 {transform: translateX(17408px);}
.step18 {transform: translateX(18432px);}
.step19 {transform: translateX(19456px);}
.step20 {transform: translateX(20480px);}
.step21 {transform: translateX(21504px);}
.step22 {transform: translateX(22528px);}
.step23 {transform: translateX(23552px);}
.step24 {transform: translateX(24576px);}
.step25 {transform: translateX(25600px);}
.step26 {transform: translateX(26624px);}
.step27 {transform: translateX(27648px);}
.step28 {transform: translateX(28672px);}
.step29 {transform: translateX(29696px);}
    </style>

    <path d="M 276 351 Q 295 675 297 679 Q 306 722 302 730 Q 298 736 290 741 Q 256 759 232 763 Q 216 766 208 758 Q 201 751 209 736 Q 233 702 233 678 Q 243 521 236 336 C 235 306 274 321 276 351 Z" fill="lightgray" class="stroke step0"/>
    <path d="M 236 336 Q 190 320 154 300 Q 141 296 143 312 Q 147 358 151 408 Q 155 432 144 446 Q 128 464 103 476 Q 91 482 81 479 Q 71 475 79 455 Q 104 401 97 347 Q 93 295 72 272 Q 56 253 65 239 Q 78 226 96 216 Q 111 210 120 220 Q 141 253 290 316 Q 326 332 348 336 C 377 343 388 388 359 379 Q 314 366 276 351 L 236 336 Z" fill="lightgray" class="hide"/>
    <path d="M 348 336 Q 348 335 349 333 Q 353 308 361 291 Q 368 278 379 287 Q 400 305 404 379 Q 404 424 419 455 Q 420 462 425 468 Q 437 487 387 518 Q 383 521 380 522 Q 370 528 359 523 Q 352 519 355 508 Q 376 462 359 379 C 353 350 347 342 348 336 Z" fill="lightgray" class="hide"/>
    <path d="M 551 610 Q 581 653 612 715 Q 627 746 642 764 Q 649 774 644 786 Q 638 796 611 815 Q 586 828 568 827 Q 552 823 561 804 Q 592 749 451 520 Q 444 510 442 505 Q 439 495 452 498 Q 473 504 535 587 L 551 610 Z" fill="lightgray" class="hide"/>
    <path d="M 535 587 Q 544 578 582 570 Q 603 567 689 585 Q 833 616 840 624 Q 850 633 844 643 Q 835 656 802 663 Q 772 669 675 634 Q 602 616 551 610 C 521 606 510 603 535 587 Z" fill="lightgray" class="hide"/>
    <path d="M 479 425 Q 464 424 462 415 Q 461 408 469 404 Q 503 395 536 404 Q 564 414 591 423 Q 613 429 616 422 Q 622 412 609 395 Q 470 206 474 108 Q 478 71 507 47 Q 579 -14 747 -9 Q 840 -6 948 40 Q 979 53 971 77 Q 952 138 942 239 Q 938 252 930 253 Q 924 253 919 237 Q 912 201 903 162 Q 891 105 848 85 Q 806 61 708 59 Q 611 58 573 75 Q 539 91 529 125 Q 510 206 636 349 Q 675 395 714 415 Q 739 427 731 440 Q 724 456 672 482 Q 653 494 625 480 Q 549 440 479 425 Z" fill="lightgray" class="hide"/></g><g transform="scale(1, -1) translate(0, -900)">
    <style type="text/css">
        .origin {display:none;}
        .hide {display:none;}
        .stroke {fill: #000000;}
        
.step1 {transform: translateX(1024px);}
.step2 {transform: translateX(2048px);}
.step3 {transform: translateX(3072px);}
.step4 {transform: translateX(4096px);}
.step5 {transform: translateX(5120px);}
.step6 {transform: translateX(6144px);}
.step7 {transform: translateX(7168px);}
.step8 {transform: translateX(8192px);}
.step9 {transform: translateX(9216px);}
.step10 {transform: translateX(10240px);}
.step11 {transform: translateX(11264px);}
.step12 {transform: translateX(12288px);}
.step13 {transform: translateX(13312px);}
.step14 {transform: translateX(14336px);}
.step15 {transform: translateX(15360px);}
.step16 {transform: translateX(16384px);}
.step17 {transform: translateX(17408px);}
.step18 {transform: translateX(18432px);}
.step19 {transform: translateX(19456px);}
.step20 {transform: translateX(20480px);}
.step21 {transform: translateX(21504px);}
.step22 {transform: translateX(22528px);}
.step23 {transform: translateX(23552px);}
.step24 {transform: translateX(24576px);}
.step25 {transform: translateX(25600px);}
.step26 {transform: translateX(26624px);}
.step27 {transform: translateX(27648px);}
.step28 {transform: translateX(28672px);}
.step29 {transform: translateX(29696px);}
    </style>

    <path d="M 276 351 Q 295 675 297 679 Q 306 722 302 730 Q 298 736 290 741 Q 256 759 232 763 Q 216 766 208 758 Q 201 751 209 736 Q 233 702 233 678 Q 243 521 236 336 C 235 306 274 321 276 351 Z" fill="lightgray" class="stroke step1"/>
    <path d="M 236 336 Q 190 320 154 300 Q 141 296 143 312 Q 147 358 151 408 Q 155 432 144 446 Q 128 464 103 476 Q 91 482 81 479 Q 71 475 79 455 Q 104 401 97 347 Q 93 295 72 272 Q 56 253 65 239 Q 78 226 96 216 Q 111 210 120 220 Q 141 253 290 316 Q 326 332 348 336 C 377 343 388 388 359 379 Q 314 366 276 351 L 236 336 Z" fill="lightgray" class="stroke step1"/>
    <path d="M 348 336 Q 348 335 349 333 Q 353 308 361 291 Q 368 278 379 287 Q 400 305 404 379 Q 404 424 419 455 Q 420 462 425 468 Q 437 487 387 518 Q 383 521 380 522 Q 370 528 359 523 Q 352 519 355 508 Q 376 462 359 379 C 353 350 347 342 348 336 Z" fill="lightgray" class="hide"/>
    <path d="M 551 610 Q 581 653 612 715 Q 627 746 642 764 Q 649 774 644 786 Q 638 796 611 815 Q 586 828 568 827 Q 552 823 561 804 Q 592 749 451 520 Q 444 510 442 505 Q 439 495 452 498 Q 473 504 535 587 L 551 610 Z" fill="lightgray" class="hide"/>
    <path d="M 535 587 Q 544 578 582 570 Q 603 567 689 585 Q 833 616 840 624 Q 850 633 844 643 Q 835 656 802 663 Q 772 669 675 634 Q 602 616 551 610 C 521 606 510 603 535 587 Z" fill="lightgray" class="hide"/>
    <path d="M 479 425 Q 464 424 462 415 Q 461 408 469 404 Q 503 395 536 404 Q 564 414 591 423 Q 613 429 616 422 Q 622 412 609 395 Q 470 206 474 108 Q 478 71 507 47 Q 579 -14 747 -9 Q 840 -6 948 40 Q 979 53 971 77 Q 952 138 942 239 Q 938 252 930 253 Q 924 253 919 237 Q 912 201 903 162 Q 891 105 848 85 Q 806 61 708 59 Q 611 58 573 75 Q 539 91 529 125 Q 510 206 636 349 Q 675 395 714 415 Q 739 427 731 440 Q 724 456 672 482 Q 653 494 625 480 Q 549 440 479 425 Z" fill="lightgray" class="hide"/></g><g transform="scale(1, -1) translate(0, -900)">
    <style type="text/css">
        .origin {display:none;}
        .hide {display:none;}
        .stroke {fill: #000000;}
        
.step1 {transform: translateX(1024px);}
.step2 {transform: translateX(2048px);}
.step3 {transform: translateX(3072px);}
.step4 {transform: translateX(4096px);}
.step5 {transform: translateX(5120px);}
.step6 {transform: translateX(6144px);}
.step7 {transform: translateX(7168px);}
.step8 {transform: translateX(8192px);}
.step9 {transform: translateX(9216px);}
.step10 {transform: translateX(10240px);}
.step11 {transform: translateX(11264px);}
.step12 {transform: translateX(12288px);}
.step13 {transform: translateX(13312px);}
.step14 {transform: translateX(14336px);}
.step15 {transform: translateX(15360px);}
.step16 {transform: translateX(16384px);}
.step17 {transform: translateX(17408px);}
.step18 {transform: translateX(18432px);}
.step19 {transform: translateX(19456px);}
.step20 {transform: translateX(20480px);}
.step21 {transform: translateX(21504px);}
.step22 {transform: translateX(22528px);}
.step23 {transform: translateX(23552px);}
.step24 {transform: translateX(24576px);}
.step25 {transform: translateX(25600px);}
.step26 {transform: translateX(26624px);}
.step27 {transform: translateX(27648px);}
.step28 {transform: translateX(28672px);}
.step29 {transform: translateX(29696px);}
    </style>

    <path d="M 276 351 Q 295 675 297 679 Q 306 722 302 730 Q 298 736 290 741 Q 256 759 232 763 Q 216 766 208 758 Q 201 751 209 736 Q 233 702 233 678 Q 243 521 236 336 C 235 306 274 321 276 351 Z" fill="lightgray" class="stroke step2"/>
    <path d="M 236 336 Q 190 320 154 300 Q 141 296 143 312 Q 147 358 151 408 Q 155 432 144 446 Q 128 464 103 476 Q 91 482 81 479 Q 71 475 79 455 Q 104 401 97 347 Q 93 295 72 272 Q 56 253 65 239 Q 78 226 96 216 Q 111 210 120 220 Q 141 253 290 316 Q 326 332 348 336 C 377 343 388 388 359 379 Q 314 366 276 351 L 236 336 Z" fill="lightgray" class="stroke step2"/>
    <path d="M 348 336 Q 348 335 349 333 Q 353 308 361 291 Q 368 278 379 287 Q 400 305 404 379 Q 404 424 419 455 Q 420 462 425 468 Q 437 487 387 518 Q 383 521 380 522 Q 370 528 359 523 Q 352 519 355 508 Q 376 462 359 379 C 353 350 347 342 348 336 Z" fill="lightgray" class="stroke step2"/>
    <path d="M 551 610 Q 581 653 612 715 Q 627 746 642 764 Q 649 774 644 786 Q 638 796 611 815 Q 586 828 568 827 Q 552 823 561 804 Q 592 749 451 520 Q 444 510 442 505 Q 439 495 452 498 Q 473 504 535 587 L 551 610 Z" fill="lightgray" class="hide"/>
    <path d="M 535 587 Q 544 578 582 570 Q 603 567 689 585 Q 833 616 840 624 Q 850 633 844 643 Q 835 656 802 663 Q 772 669 675 634 Q 602 616 551 610 C 521 606 510 603 535 587 Z" fill="lightgray" class="hide"/>
    <path d="M 479 425 Q 464 424 462 415 Q 461 408 469 404 Q 503 395 536 404 Q 564 414 591 423 Q 613 429 616 422 Q 622 412 609 395 Q 470 206 474 108 Q 478 71 507 47 Q 579 -14 747 -9 Q 840 -6 948 40 Q 979 53 971 77 Q 952 138 942 239 Q 938 252 930 253 Q 924 253 919 237 Q 912 201 903 162 Q 891 105 848 85 Q 806 61 708 59 Q 611 58 573 75 Q 539 91 529 125 Q 510 206 636 349 Q 675 395 714 415 Q 739 427 731 440 Q 724 456 672 482 Q 653 494 625 480 Q 549 440 479 425 Z" fill="lightgray" class="hide"/></g><g transform="scale(1, -1) translate(0, -900)">
    <style type="text/css">
        .origin {display:none;}
        .hide {display:none;}
        .stroke {fill: #000000;}
        
.step1 {transform: translateX(1024px);}
.step2 {transform: translateX(2048px);}
.step3 {transform: translateX(3072px);}
.step4 {transform: translateX(4096px);}
.step5 {transform: translateX(5120px);}
.step6 {transform: translateX(6144px);}
.step7 {transform: translateX(7168px);}
.step8 {transform: translateX(8192px);}
.step9 {transform: translateX(9216px);}
.step10 {transform: translateX(10240px);}
.step11 {transform: translateX(11264px);}
.step12 {transform: translateX(12288px);}
.step13 {transform: translateX(13312px);}
.step14 {transform: translateX(14336px);}
.step15 {transform: translateX(15360px);}
.step16 {transform: translateX(16384px);}
.step17 {transform: translateX(17408px);}
.step18 {transform: translateX(18432px);}
.step19 {transform: translateX(19456px);}
.step20 {transform: translateX(20480px);}
.step21 {transform: translateX(21504px);}
.step22 {transform: translateX(22528px);}
.step23 {transform: translateX(23552px);}
.step24 {transform: translateX(24576px);}
.step25 {transform: translateX(25600px);}
.step26 {transform: translateX(26624px);}
.step27 {transform: translateX(27648px);}
.step28 {transform: translateX(28672px);}
.step29 {transform: translateX(29696px);}
    </style>

    <path d="M 276 351 Q 295 675 297 679 Q 306 722 302 730 Q 298 736 290 741 Q 256 759 232 763 Q 216 766 208 758 Q 201 751 209 736 Q 233 702 233 678 Q 243 521 236 336 C 235 306 274 321 276 351 Z" fill="lightgray" class="stroke step3"/>
    <path d="M 236 336 Q 190 320 154 300 Q 141 296 143 312 Q 147 358 151 408 Q 155 432 144 446 Q 128 464 103 476 Q 91 482 81 479 Q 71 475 79 455 Q 104 401 97 347 Q 93 295 72 272 Q 56 253 65 239 Q 78 226 96 216 Q 111 210 120 220 Q 141 253 290 316 Q 326 332 348 336 C 377 343 388 388 359 379 Q 314 366 276 351 L 236 336 Z" fill="lightgray" class="stroke step3"/>
    <path d="M 348 336 Q 348 335 349 333 Q 353 308 361 291 Q 368 278 379 287 Q 400 305 404 379 Q 404 424 419 455 Q 420 462 425 468 Q 437 487 387 518 Q 383 521 380 522 Q 370 528 359 523 Q 352 519 355 508 Q 376 462 359 379 C 353 350 347 342 348 336 Z" fill="lightgray" class="stroke step3"/>
    <path d="M 551 610 Q 581 653 612 715 Q 627 746 642 764 Q 649 774 644 786 Q 638 796 611 815 Q 586 828 568 827 Q 552 823 561 804 Q 592 749 451 520 Q 444 510 442 505 Q 439 495 452 498 Q 473 504 535 587 L 551 610 Z" fill="lightgray" class="stroke step3"/>
    <path d="M 535 587 Q 544 578 582 570 Q 603 567 689 585 Q 833 616 840 624 Q 850 633 844 643 Q 835 656 802 663 Q 772 669 675 634 Q 602 616 551 610 C 521 606 510 603 535 587 Z" fill="lightgray" class="hide"/>
    <path d="M 479 425 Q 464 424 462 415 Q 461 408 469 404 Q 503 395 536 404 Q 564 414 591 423 Q 613 429 616 422 Q 622 412 609 395 Q 470 206 474 108 Q 478 71 507 47 Q 579 -14 747 -9 Q 840 -6 948 40 Q 979 53 971 77 Q 952 138 942 239 Q 938 252 930 253 Q 924 253 919 237 Q 912 201 903 162 Q 891 105 848 85 Q 806 61 708 59 Q 611 58 573 75 Q 539 91 529 125 Q 510 206 636 349 Q 675 395 714 415 Q 739 427 731 440 Q 724 456 672 482 Q 653 494 625 480 Q 549 440 479 425 Z" fill="lightgray" class="hide"/></g><g transform="scale(1, -1) translate(0, -900)">
    <style type="text/css">
        .origin {display:none;}
        .hide {display:none;}
        .stroke {fill: #000000;}
        
.step1 {transform: translateX(1024px);}
.step2 {transform: translateX(2048px);}
.step3 {transform: translateX(3072px);}
.step4 {transform: translateX(4096px);}
.step5 {transform: translateX(5120px);}
.step6 {transform: translateX(6144px);}
.step7 {transform: translateX(7168px);}
.step8 {transform: translateX(8192px);}
.step9 {transform: translateX(9216px);}
.step10 {transform: translateX(10240px);}
.step11 {transform: translateX(11264px);}
.step12 {transform: translateX(12288px);}
.step13 {transform: translateX(13312px);}
.step14 {transform: translateX(14336px);}
.step15 {transform: translateX(15360px);}
.step16 {transform: translateX(16384px);}
.step17 {transform: translateX(17408px);}
.step18 {transform: translateX(18432px);}
.step19 {transform: translateX(19456px);}
.step20 {transform: translateX(20480px);}
.step21 {transform: translateX(21504px);}
.step22 {transform: translateX(22528px);}
.step23 {transform: translateX(23552px);}
.step24 {transform: translateX(24576px);}
.step25 {transform: translateX(25600px);}
.step26 {transform: translateX(26624px);}
.step27 {transform: translateX(27648px);}
.step28 {transform: translateX(28672px);}
.step29 {transform: translateX(29696px);}
    </style>

    <path d="M 276 351 Q 295 675 297 679 Q 306 722 302 730 Q 298 736 290 741 Q 256 759 232 763 Q 216 766 208 758 Q 201 751 209 736 Q 233 702 233 678 Q 243 521 236 336 C 235 306 274 321 276 351 Z" fill="lightgray" class="stroke step4"/>
    <path d="M 236 336 Q 190 320 154 300 Q 141 296 143 312 Q 147 358 151 408 Q 155 432 144 446 Q 128 464 103 476 Q 91 482 81 479 Q 71 475 79 455 Q 104 401 97 347 Q 93 295 72 272 Q 56 253 65 239 Q 78 226 96 216 Q 111 210 120 220 Q 141 253 290 316 Q 326 332 348 336 C 377 343 388 388 359 379 Q 314 366 276 351 L 236 336 Z" fill="lightgray" class="stroke step4"/>
    <path d="M 348 336 Q 348 335 349 333 Q 353 308 361 291 Q 368 278 379 287 Q 400 305 404 379 Q 404 424 419 455 Q 420 462 425 468 Q 437 487 387 518 Q 383 521 380 522 Q 370 528 359 523 Q 352 519 355 508 Q 376 462 359 379 C 353 350 347 342 348 336 Z" fill="lightgray" class="stroke step4"/>
    <path d="M 551 610 Q 581 653 612 715 Q 627 746 642 764 Q 649 774 644 786 Q 638 796 611 815 Q 586 828 568 827 Q 552 823 561 804 Q 592 749 451 520 Q 444 510 442 505 Q 439 495 452 498 Q 473 504 535 587 L 551 610 Z" fill="lightgray" class="stroke step4"/>
    <path d="M 535 587 Q 544 578 582 570 Q 603 567 689 585 Q 833 616 840 624 Q 850 633 844 643 Q 835 656 802 663 Q 772 669 675 634 Q 602 616 551 610 C 521 606 510 603 535 587 Z" fill="lightgray" class="stroke step4"/>
    <path d="M 479 425 Q 464 424 462 415 Q 461 408 469 404 Q 503 395 536 404 Q 564 414 591 423 Q 613 429 616 422 Q 622 412 609 395 Q 470 206 474 108 Q 478 71 507 47 Q 579 -14 747 -9 Q 840 -6 948 40 Q 979 53 971 77 Q 952 138 942 239 Q 938 252 930 253 Q 924 253 919 237 Q 912 201 903 162 Q 891 105 848 85 Q 806 61 708 59 Q 611 58 573 75 Q 539 91 529 125 Q 510 206 636 349 Q 675 395 714 415 Q 739 427 731 440 Q 724 456 672 482 Q 653 494 625 480 Q 549 440 479 425 Z" fill="lightgray" class="hide"/></g><g transform="scale(1, -1) translate(0, -900)">
    <style type="text/css">
        .origin {display:none;}
        .hide {display:none;}
        .stroke {fill: #000000;}
        
.step1 {transform: translateX(1024px);}
.step2 {transform: translateX(2048px);}
.step3 {transform: translateX(3072px);}
.step4 {transform: translateX(4096px);}
.step5 {transform: translateX(5120px);}
.step6 {transform: translateX(6144px);}
.step7 {transform: translateX(7168px);}
.step8 {transform: translateX(8192px);}
.step9 {transform: translateX(9216px);}
.step10 {transform: translateX(10240px);}
.step11 {transform: translateX(11264px);}
.step12 {transform: translateX(12288px);}
.step13 {transform: translateX(13312px);}
.step14 {transform: translateX(14336px);}
.step15 {transform: translateX(15360px);}
.step16 {transform: translateX(16384px);}
.step17 {transform: translateX(17408px);}
.step18 {transform: translateX(18432px);}
.step19 {transform: translateX(19456px);}
.step20 {transform: translateX(20480px);}
.step21 {transform: translateX(21504px);}
.step22 {transform: translateX(22528px);}
.step23 {transform: translateX(23552px);}
.step24 {transform: translateX(24576px);}
.step25 {transform: translateX(25600px);}
.step26 {transform: translateX(26624px);}
.step27 {transform: translateX(27648px);}
.step28 {transform: translateX(28672px);}
.step29 {transform: translateX(29696px);}
    </style>

    <path d="M 276 351 Q 295 675 297 679 Q 306 722 302 730 Q 298 736 290 741 Q 256 759 232 763 Q 216 766 208 758 Q 201 751 209 736 Q 233 702 233 678 Q 243 521 236 336 C 235 306 274 321 276 351 Z" fill="lightgray" class="stroke step5"/>
    <path d="M 236 336 Q 190 320 154 300 Q 141 296 143 312 Q 147 358 151 408 Q 155 432 144 446 Q 128 464 103 476 Q 91 482 81 479 Q 71 475 79 455 Q 104 401 97 347 Q 93 295 72 272 Q 56 253 65 239 Q 78 226 96 216 Q 111 210 120 220 Q 141 253 290 316 Q 326 332 348 336 C 377 343 388 388 359 379 Q 314 366 276 351 L 236 336 Z" fill="lightgray" class="stroke step5"/>
    <path d="M 348 336 Q 348 335 349 333 Q 353 308 361 291 Q 368 278 379 287 Q 400 305 404 379 Q 404 424 419 455 Q 420 462 425 468 Q 437 487 387 518 Q 383 521 380 522 Q 370 528 359 523 Q 352 519 355 508 Q 376 462 359 379 C 353 350 347 342 348 336 Z" fill="lightgray" class="stroke step5"/>
    <path d="M 551 610 Q 581 653 612 715 Q 627 746 642 764 Q 649 774 644 786 Q 638 796 611 815 Q 586 828 568 827 Q 552 823 561 804 Q 592 749 451 520 Q 444 510 442 505 Q 439 495 452 498 Q 473 504 535 587 L 551 610 Z" fill="lightgray" class="stroke step5"/>
    <path d="M 535 587 Q 544 578 582 570 Q 603 567 689 585 Q 833 616 840 624 Q 850 633 844 643 Q 835 656 802 663 Q 772 669 675 634 Q 602 616 551 610 C 521 606 510 603 535 587 Z" fill="lightgray" class="stroke step5"/>
    <path d="M 479 425 Q 464 424 462 415 Q 461 408 469 404 Q 503 395 536 404 Q 564 414 591 423 Q 613 429 616 422 Q 622 412 609 395 Q 470 206 474 108 Q 478 71 507 47 Q 579 -14 747 -9 Q 840 -6 948 40 Q 979 53 971 77 Q 952 138 942 239 Q 938 252 930 253 Q 924 253 919 237 Q 912 201 903 162 Q 891 105 848 85 Q 806 61 708 59 Q 611 58 573 75 Q 539 91 529 125 Q 510 206 636 349 Q 675 395 714 415 Q 739 427 731 440 Q 724 456 672 482 Q 653 494 625 480 Q 549 440 479 425 Z" fill="lightgray" class="stroke step5"/></g></svg>