<svg version="1.1" viewBox="0 0 8192 1024" xmlns="http://www.w3.org/2000/svg">
  
  <g transform="scale(1, -1) translate(0, -900)" class="origin">
    <style type="text/css">
        .origin {display:none;}
        .hide {display:none;}
        .stroke {fill: #000000;}
        
.step1 {transform: translateX(1024px);}
.step2 {transform: translateX(2048px);}
.step3 {transform: translateX(3072px);}
.step4 {transform: translateX(4096px);}
.step5 {transform: translateX(5120px);}
.step6 {transform: translateX(6144px);}
.step7 {transform: translateX(7168px);}
.step8 {transform: translateX(8192px);}
.step9 {transform: translateX(9216px);}
.step10 {transform: translateX(10240px);}
.step11 {transform: translateX(11264px);}
.step12 {transform: translateX(12288px);}
.step13 {transform: translateX(13312px);}
.step14 {transform: translateX(14336px);}
.step15 {transform: translateX(15360px);}
.step16 {transform: translateX(16384px);}
.step17 {transform: translateX(17408px);}
.step18 {transform: translateX(18432px);}
.step19 {transform: translateX(19456px);}
.step20 {transform: translateX(20480px);}
.step21 {transform: translateX(21504px);}
.step22 {transform: translateX(22528px);}
.step23 {transform: translateX(23552px);}
.step24 {transform: translateX(24576px);}
.step25 {transform: translateX(25600px);}
.step26 {transform: translateX(26624px);}
.step27 {transform: translateX(27648px);}
.step28 {transform: translateX(28672px);}
.step29 {transform: translateX(29696px);}
    </style>

    <path d="M 254 323 Q 275 659 290 703 Q 293 715 272 731 Q 235 750 208 755 Q 190 759 182 749 Q 175 742 183 725 Q 207 691 207 667 Q 217 504 210 312 C 209 282 252 293 254 323 Z" fill="lightgray"/>
    <path d="M 332 339 Q 290 333 254 323 L 210 312 Q 173 303 142 291 Q 126 287 129 307 Q 135 353 141 403 Q 145 427 135 441 Q 99 480 74 477 Q 64 473 71 453 Q 93 398 85 344 Q 78 292 57 270 Q 39 251 47 237 Q 59 222 76 212 Q 86 208 106 219 Q 139 249 266 286 Q 312 299 331 299 C 361 302 362 344 332 339 Z" fill="lightgray"/>
    <path d="M 331 299 Q 335 283 344 271 Q 351 261 362 270 Q 383 297 384 330 Q 390 429 403 473 Q 410 492 393 505 Q 378 515 364 525 Q 352 531 344 526 Q 335 522 338 506 Q 354 458 332 339 L 331 299 Z" fill="lightgray"/>
    <path d="M 626 686 Q 653 758 663 774 Q 670 781 666 792 Q 662 802 646 811 Q 604 833 573 821 Q 564 817 570 804 Q 600 732 507 543 Q 504 540 503 536 Q 475 484 399 381 Q 392 374 403 373 Q 455 391 545 518 Q 584 588 614 655 L 626 686 Z" fill="lightgray"/>
    <path d="M 614 655 Q 690 544 790 426 Q 808 407 838 407 Q 941 408 973 414 Q 983 415 984 421 Q 985 425 971 433 Q 836 484 761 551 Q 697 609 626 686 C 606 708 597 680 614 655 Z" fill="lightgray"/>
    <path d="M 568 452 Q 605 409 638 392 Q 651 389 660 401 Q 664 411 663 426 Q 654 465 580 486 Q 565 490 557 487 Q 551 486 554 475 Q 555 465 568 452 Z" fill="lightgray"/>
    <path d="M 637 130 Q 749 266 795 291 Q 816 298 808 316 Q 804 332 731 365 Q 710 375 687 364 Q 629 339 538 310 Q 516 301 457 301 Q 432 301 442 280 Q 451 267 471 255 Q 504 240 542 262 Q 666 328 692 312 Q 707 302 699 286 Q 662 219 620 139 C 606 112 618 107 637 130 Z" fill="lightgray"/>
    <path d="M 620 139 Q 619 140 616 141 Q 567 165 538 176 Q 529 180 527 169 Q 526 156 537 145 Q 591 96 654 23 Q 670 2 685 -2 Q 694 -3 701 7 Q 714 20 702 63 Q 695 99 637 130 L 620 139 Z" fill="lightgray"/></g>
<g transform="scale(1, -1) translate(0, -900)">
    <style type="text/css">
        .origin {display:none;}
        .hide {display:none;}
        .stroke {fill: #000000;}
        
.step1 {transform: translateX(1024px);}
.step2 {transform: translateX(2048px);}
.step3 {transform: translateX(3072px);}
.step4 {transform: translateX(4096px);}
.step5 {transform: translateX(5120px);}
.step6 {transform: translateX(6144px);}
.step7 {transform: translateX(7168px);}
.step8 {transform: translateX(8192px);}
.step9 {transform: translateX(9216px);}
.step10 {transform: translateX(10240px);}
.step11 {transform: translateX(11264px);}
.step12 {transform: translateX(12288px);}
.step13 {transform: translateX(13312px);}
.step14 {transform: translateX(14336px);}
.step15 {transform: translateX(15360px);}
.step16 {transform: translateX(16384px);}
.step17 {transform: translateX(17408px);}
.step18 {transform: translateX(18432px);}
.step19 {transform: translateX(19456px);}
.step20 {transform: translateX(20480px);}
.step21 {transform: translateX(21504px);}
.step22 {transform: translateX(22528px);}
.step23 {transform: translateX(23552px);}
.step24 {transform: translateX(24576px);}
.step25 {transform: translateX(25600px);}
.step26 {transform: translateX(26624px);}
.step27 {transform: translateX(27648px);}
.step28 {transform: translateX(28672px);}
.step29 {transform: translateX(29696px);}
    </style>

    <path d="M 254 323 Q 275 659 290 703 Q 293 715 272 731 Q 235 750 208 755 Q 190 759 182 749 Q 175 742 183 725 Q 207 691 207 667 Q 217 504 210 312 C 209 282 252 293 254 323 Z" fill="lightgray" class="stroke step0"/>
    <path d="M 332 339 Q 290 333 254 323 L 210 312 Q 173 303 142 291 Q 126 287 129 307 Q 135 353 141 403 Q 145 427 135 441 Q 99 480 74 477 Q 64 473 71 453 Q 93 398 85 344 Q 78 292 57 270 Q 39 251 47 237 Q 59 222 76 212 Q 86 208 106 219 Q 139 249 266 286 Q 312 299 331 299 C 361 302 362 344 332 339 Z" fill="lightgray" class="hide"/>
    <path d="M 331 299 Q 335 283 344 271 Q 351 261 362 270 Q 383 297 384 330 Q 390 429 403 473 Q 410 492 393 505 Q 378 515 364 525 Q 352 531 344 526 Q 335 522 338 506 Q 354 458 332 339 L 331 299 Z" fill="lightgray" class="hide"/>
    <path d="M 626 686 Q 653 758 663 774 Q 670 781 666 792 Q 662 802 646 811 Q 604 833 573 821 Q 564 817 570 804 Q 600 732 507 543 Q 504 540 503 536 Q 475 484 399 381 Q 392 374 403 373 Q 455 391 545 518 Q 584 588 614 655 L 626 686 Z" fill="lightgray" class="hide"/>
    <path d="M 614 655 Q 690 544 790 426 Q 808 407 838 407 Q 941 408 973 414 Q 983 415 984 421 Q 985 425 971 433 Q 836 484 761 551 Q 697 609 626 686 C 606 708 597 680 614 655 Z" fill="lightgray" class="hide"/>
    <path d="M 568 452 Q 605 409 638 392 Q 651 389 660 401 Q 664 411 663 426 Q 654 465 580 486 Q 565 490 557 487 Q 551 486 554 475 Q 555 465 568 452 Z" fill="lightgray" class="hide"/>
    <path d="M 637 130 Q 749 266 795 291 Q 816 298 808 316 Q 804 332 731 365 Q 710 375 687 364 Q 629 339 538 310 Q 516 301 457 301 Q 432 301 442 280 Q 451 267 471 255 Q 504 240 542 262 Q 666 328 692 312 Q 707 302 699 286 Q 662 219 620 139 C 606 112 618 107 637 130 Z" fill="lightgray" class="hide"/>
    <path d="M 620 139 Q 619 140 616 141 Q 567 165 538 176 Q 529 180 527 169 Q 526 156 537 145 Q 591 96 654 23 Q 670 2 685 -2 Q 694 -3 701 7 Q 714 20 702 63 Q 695 99 637 130 L 620 139 Z" fill="lightgray" class="hide"/></g><g transform="scale(1, -1) translate(0, -900)">
    <style type="text/css">
        .origin {display:none;}
        .hide {display:none;}
        .stroke {fill: #000000;}
        
.step1 {transform: translateX(1024px);}
.step2 {transform: translateX(2048px);}
.step3 {transform: translateX(3072px);}
.step4 {transform: translateX(4096px);}
.step5 {transform: translateX(5120px);}
.step6 {transform: translateX(6144px);}
.step7 {transform: translateX(7168px);}
.step8 {transform: translateX(8192px);}
.step9 {transform: translateX(9216px);}
.step10 {transform: translateX(10240px);}
.step11 {transform: translateX(11264px);}
.step12 {transform: translateX(12288px);}
.step13 {transform: translateX(13312px);}
.step14 {transform: translateX(14336px);}
.step15 {transform: translateX(15360px);}
.step16 {transform: translateX(16384px);}
.step17 {transform: translateX(17408px);}
.step18 {transform: translateX(18432px);}
.step19 {transform: translateX(19456px);}
.step20 {transform: translateX(20480px);}
.step21 {transform: translateX(21504px);}
.step22 {transform: translateX(22528px);}
.step23 {transform: translateX(23552px);}
.step24 {transform: translateX(24576px);}
.step25 {transform: translateX(25600px);}
.step26 {transform: translateX(26624px);}
.step27 {transform: translateX(27648px);}
.step28 {transform: translateX(28672px);}
.step29 {transform: translateX(29696px);}
    </style>

    <path d="M 254 323 Q 275 659 290 703 Q 293 715 272 731 Q 235 750 208 755 Q 190 759 182 749 Q 175 742 183 725 Q 207 691 207 667 Q 217 504 210 312 C 209 282 252 293 254 323 Z" fill="lightgray" class="stroke step1"/>
    <path d="M 332 339 Q 290 333 254 323 L 210 312 Q 173 303 142 291 Q 126 287 129 307 Q 135 353 141 403 Q 145 427 135 441 Q 99 480 74 477 Q 64 473 71 453 Q 93 398 85 344 Q 78 292 57 270 Q 39 251 47 237 Q 59 222 76 212 Q 86 208 106 219 Q 139 249 266 286 Q 312 299 331 299 C 361 302 362 344 332 339 Z" fill="lightgray" class="stroke step1"/>
    <path d="M 331 299 Q 335 283 344 271 Q 351 261 362 270 Q 383 297 384 330 Q 390 429 403 473 Q 410 492 393 505 Q 378 515 364 525 Q 352 531 344 526 Q 335 522 338 506 Q 354 458 332 339 L 331 299 Z" fill="lightgray" class="hide"/>
    <path d="M 626 686 Q 653 758 663 774 Q 670 781 666 792 Q 662 802 646 811 Q 604 833 573 821 Q 564 817 570 804 Q 600 732 507 543 Q 504 540 503 536 Q 475 484 399 381 Q 392 374 403 373 Q 455 391 545 518 Q 584 588 614 655 L 626 686 Z" fill="lightgray" class="hide"/>
    <path d="M 614 655 Q 690 544 790 426 Q 808 407 838 407 Q 941 408 973 414 Q 983 415 984 421 Q 985 425 971 433 Q 836 484 761 551 Q 697 609 626 686 C 606 708 597 680 614 655 Z" fill="lightgray" class="hide"/>
    <path d="M 568 452 Q 605 409 638 392 Q 651 389 660 401 Q 664 411 663 426 Q 654 465 580 486 Q 565 490 557 487 Q 551 486 554 475 Q 555 465 568 452 Z" fill="lightgray" class="hide"/>
    <path d="M 637 130 Q 749 266 795 291 Q 816 298 808 316 Q 804 332 731 365 Q 710 375 687 364 Q 629 339 538 310 Q 516 301 457 301 Q 432 301 442 280 Q 451 267 471 255 Q 504 240 542 262 Q 666 328 692 312 Q 707 302 699 286 Q 662 219 620 139 C 606 112 618 107 637 130 Z" fill="lightgray" class="hide"/>
    <path d="M 620 139 Q 619 140 616 141 Q 567 165 538 176 Q 529 180 527 169 Q 526 156 537 145 Q 591 96 654 23 Q 670 2 685 -2 Q 694 -3 701 7 Q 714 20 702 63 Q 695 99 637 130 L 620 139 Z" fill="lightgray" class="hide"/></g><g transform="scale(1, -1) translate(0, -900)">
    <style type="text/css">
        .origin {display:none;}
        .hide {display:none;}
        .stroke {fill: #000000;}
        
.step1 {transform: translateX(1024px);}
.step2 {transform: translateX(2048px);}
.step3 {transform: translateX(3072px);}
.step4 {transform: translateX(4096px);}
.step5 {transform: translateX(5120px);}
.step6 {transform: translateX(6144px);}
.step7 {transform: translateX(7168px);}
.step8 {transform: translateX(8192px);}
.step9 {transform: translateX(9216px);}
.step10 {transform: translateX(10240px);}
.step11 {transform: translateX(11264px);}
.step12 {transform: translateX(12288px);}
.step13 {transform: translateX(13312px);}
.step14 {transform: translateX(14336px);}
.step15 {transform: translateX(15360px);}
.step16 {transform: translateX(16384px);}
.step17 {transform: translateX(17408px);}
.step18 {transform: translateX(18432px);}
.step19 {transform: translateX(19456px);}
.step20 {transform: translateX(20480px);}
.step21 {transform: translateX(21504px);}
.step22 {transform: translateX(22528px);}
.step23 {transform: translateX(23552px);}
.step24 {transform: translateX(24576px);}
.step25 {transform: translateX(25600px);}
.step26 {transform: translateX(26624px);}
.step27 {transform: translateX(27648px);}
.step28 {transform: translateX(28672px);}
.step29 {transform: translateX(29696px);}
    </style>

    <path d="M 254 323 Q 275 659 290 703 Q 293 715 272 731 Q 235 750 208 755 Q 190 759 182 749 Q 175 742 183 725 Q 207 691 207 667 Q 217 504 210 312 C 209 282 252 293 254 323 Z" fill="lightgray" class="stroke step2"/>
    <path d="M 332 339 Q 290 333 254 323 L 210 312 Q 173 303 142 291 Q 126 287 129 307 Q 135 353 141 403 Q 145 427 135 441 Q 99 480 74 477 Q 64 473 71 453 Q 93 398 85 344 Q 78 292 57 270 Q 39 251 47 237 Q 59 222 76 212 Q 86 208 106 219 Q 139 249 266 286 Q 312 299 331 299 C 361 302 362 344 332 339 Z" fill="lightgray" class="stroke step2"/>
    <path d="M 331 299 Q 335 283 344 271 Q 351 261 362 270 Q 383 297 384 330 Q 390 429 403 473 Q 410 492 393 505 Q 378 515 364 525 Q 352 531 344 526 Q 335 522 338 506 Q 354 458 332 339 L 331 299 Z" fill="lightgray" class="stroke step2"/>
    <path d="M 626 686 Q 653 758 663 774 Q 670 781 666 792 Q 662 802 646 811 Q 604 833 573 821 Q 564 817 570 804 Q 600 732 507 543 Q 504 540 503 536 Q 475 484 399 381 Q 392 374 403 373 Q 455 391 545 518 Q 584 588 614 655 L 626 686 Z" fill="lightgray" class="hide"/>
    <path d="M 614 655 Q 690 544 790 426 Q 808 407 838 407 Q 941 408 973 414 Q 983 415 984 421 Q 985 425 971 433 Q 836 484 761 551 Q 697 609 626 686 C 606 708 597 680 614 655 Z" fill="lightgray" class="hide"/>
    <path d="M 568 452 Q 605 409 638 392 Q 651 389 660 401 Q 664 411 663 426 Q 654 465 580 486 Q 565 490 557 487 Q 551 486 554 475 Q 555 465 568 452 Z" fill="lightgray" class="hide"/>
    <path d="M 637 130 Q 749 266 795 291 Q 816 298 808 316 Q 804 332 731 365 Q 710 375 687 364 Q 629 339 538 310 Q 516 301 457 301 Q 432 301 442 280 Q 451 267 471 255 Q 504 240 542 262 Q 666 328 692 312 Q 707 302 699 286 Q 662 219 620 139 C 606 112 618 107 637 130 Z" fill="lightgray" class="hide"/>
    <path d="M 620 139 Q 619 140 616 141 Q 567 165 538 176 Q 529 180 527 169 Q 526 156 537 145 Q 591 96 654 23 Q 670 2 685 -2 Q 694 -3 701 7 Q 714 20 702 63 Q 695 99 637 130 L 620 139 Z" fill="lightgray" class="hide"/></g><g transform="scale(1, -1) translate(0, -900)">
    <style type="text/css">
        .origin {display:none;}
        .hide {display:none;}
        .stroke {fill: #000000;}
        
.step1 {transform: translateX(1024px);}
.step2 {transform: translateX(2048px);}
.step3 {transform: translateX(3072px);}
.step4 {transform: translateX(4096px);}
.step5 {transform: translateX(5120px);}
.step6 {transform: translateX(6144px);}
.step7 {transform: translateX(7168px);}
.step8 {transform: translateX(8192px);}
.step9 {transform: translateX(9216px);}
.step10 {transform: translateX(10240px);}
.step11 {transform: translateX(11264px);}
.step12 {transform: translateX(12288px);}
.step13 {transform: translateX(13312px);}
.step14 {transform: translateX(14336px);}
.step15 {transform: translateX(15360px);}
.step16 {transform: translateX(16384px);}
.step17 {transform: translateX(17408px);}
.step18 {transform: translateX(18432px);}
.step19 {transform: translateX(19456px);}
.step20 {transform: translateX(20480px);}
.step21 {transform: translateX(21504px);}
.step22 {transform: translateX(22528px);}
.step23 {transform: translateX(23552px);}
.step24 {transform: translateX(24576px);}
.step25 {transform: translateX(25600px);}
.step26 {transform: translateX(26624px);}
.step27 {transform: translateX(27648px);}
.step28 {transform: translateX(28672px);}
.step29 {transform: translateX(29696px);}
    </style>

    <path d="M 254 323 Q 275 659 290 703 Q 293 715 272 731 Q 235 750 208 755 Q 190 759 182 749 Q 175 742 183 725 Q 207 691 207 667 Q 217 504 210 312 C 209 282 252 293 254 323 Z" fill="lightgray" class="stroke step3"/>
    <path d="M 332 339 Q 290 333 254 323 L 210 312 Q 173 303 142 291 Q 126 287 129 307 Q 135 353 141 403 Q 145 427 135 441 Q 99 480 74 477 Q 64 473 71 453 Q 93 398 85 344 Q 78 292 57 270 Q 39 251 47 237 Q 59 222 76 212 Q 86 208 106 219 Q 139 249 266 286 Q 312 299 331 299 C 361 302 362 344 332 339 Z" fill="lightgray" class="stroke step3"/>
    <path d="M 331 299 Q 335 283 344 271 Q 351 261 362 270 Q 383 297 384 330 Q 390 429 403 473 Q 410 492 393 505 Q 378 515 364 525 Q 352 531 344 526 Q 335 522 338 506 Q 354 458 332 339 L 331 299 Z" fill="lightgray" class="stroke step3"/>
    <path d="M 626 686 Q 653 758 663 774 Q 670 781 666 792 Q 662 802 646 811 Q 604 833 573 821 Q 564 817 570 804 Q 600 732 507 543 Q 504 540 503 536 Q 475 484 399 381 Q 392 374 403 373 Q 455 391 545 518 Q 584 588 614 655 L 626 686 Z" fill="lightgray" class="stroke step3"/>
    <path d="M 614 655 Q 690 544 790 426 Q 808 407 838 407 Q 941 408 973 414 Q 983 415 984 421 Q 985 425 971 433 Q 836 484 761 551 Q 697 609 626 686 C 606 708 597 680 614 655 Z" fill="lightgray" class="hide"/>
    <path d="M 568 452 Q 605 409 638 392 Q 651 389 660 401 Q 664 411 663 426 Q 654 465 580 486 Q 565 490 557 487 Q 551 486 554 475 Q 555 465 568 452 Z" fill="lightgray" class="hide"/>
    <path d="M 637 130 Q 749 266 795 291 Q 816 298 808 316 Q 804 332 731 365 Q 710 375 687 364 Q 629 339 538 310 Q 516 301 457 301 Q 432 301 442 280 Q 451 267 471 255 Q 504 240 542 262 Q 666 328 692 312 Q 707 302 699 286 Q 662 219 620 139 C 606 112 618 107 637 130 Z" fill="lightgray" class="hide"/>
    <path d="M 620 139 Q 619 140 616 141 Q 567 165 538 176 Q 529 180 527 169 Q 526 156 537 145 Q 591 96 654 23 Q 670 2 685 -2 Q 694 -3 701 7 Q 714 20 702 63 Q 695 99 637 130 L 620 139 Z" fill="lightgray" class="hide"/></g><g transform="scale(1, -1) translate(0, -900)">
    <style type="text/css">
        .origin {display:none;}
        .hide {display:none;}
        .stroke {fill: #000000;}
        
.step1 {transform: translateX(1024px);}
.step2 {transform: translateX(2048px);}
.step3 {transform: translateX(3072px);}
.step4 {transform: translateX(4096px);}
.step5 {transform: translateX(5120px);}
.step6 {transform: translateX(6144px);}
.step7 {transform: translateX(7168px);}
.step8 {transform: translateX(8192px);}
.step9 {transform: translateX(9216px);}
.step10 {transform: translateX(10240px);}
.step11 {transform: translateX(11264px);}
.step12 {transform: translateX(12288px);}
.step13 {transform: translateX(13312px);}
.step14 {transform: translateX(14336px);}
.step15 {transform: translateX(15360px);}
.step16 {transform: translateX(16384px);}
.step17 {transform: translateX(17408px);}
.step18 {transform: translateX(18432px);}
.step19 {transform: translateX(19456px);}
.step20 {transform: translateX(20480px);}
.step21 {transform: translateX(21504px);}
.step22 {transform: translateX(22528px);}
.step23 {transform: translateX(23552px);}
.step24 {transform: translateX(24576px);}
.step25 {transform: translateX(25600px);}
.step26 {transform: translateX(26624px);}
.step27 {transform: translateX(27648px);}
.step28 {transform: translateX(28672px);}
.step29 {transform: translateX(29696px);}
    </style>

    <path d="M 254 323 Q 275 659 290 703 Q 293 715 272 731 Q 235 750 208 755 Q 190 759 182 749 Q 175 742 183 725 Q 207 691 207 667 Q 217 504 210 312 C 209 282 252 293 254 323 Z" fill="lightgray" class="stroke step4"/>
    <path d="M 332 339 Q 290 333 254 323 L 210 312 Q 173 303 142 291 Q 126 287 129 307 Q 135 353 141 403 Q 145 427 135 441 Q 99 480 74 477 Q 64 473 71 453 Q 93 398 85 344 Q 78 292 57 270 Q 39 251 47 237 Q 59 222 76 212 Q 86 208 106 219 Q 139 249 266 286 Q 312 299 331 299 C 361 302 362 344 332 339 Z" fill="lightgray" class="stroke step4"/>
    <path d="M 331 299 Q 335 283 344 271 Q 351 261 362 270 Q 383 297 384 330 Q 390 429 403 473 Q 410 492 393 505 Q 378 515 364 525 Q 352 531 344 526 Q 335 522 338 506 Q 354 458 332 339 L 331 299 Z" fill="lightgray" class="stroke step4"/>
    <path d="M 626 686 Q 653 758 663 774 Q 670 781 666 792 Q 662 802 646 811 Q 604 833 573 821 Q 564 817 570 804 Q 600 732 507 543 Q 504 540 503 536 Q 475 484 399 381 Q 392 374 403 373 Q 455 391 545 518 Q 584 588 614 655 L 626 686 Z" fill="lightgray" class="stroke step4"/>
    <path d="M 614 655 Q 690 544 790 426 Q 808 407 838 407 Q 941 408 973 414 Q 983 415 984 421 Q 985 425 971 433 Q 836 484 761 551 Q 697 609 626 686 C 606 708 597 680 614 655 Z" fill="lightgray" class="stroke step4"/>
    <path d="M 568 452 Q 605 409 638 392 Q 651 389 660 401 Q 664 411 663 426 Q 654 465 580 486 Q 565 490 557 487 Q 551 486 554 475 Q 555 465 568 452 Z" fill="lightgray" class="hide"/>
    <path d="M 637 130 Q 749 266 795 291 Q 816 298 808 316 Q 804 332 731 365 Q 710 375 687 364 Q 629 339 538 310 Q 516 301 457 301 Q 432 301 442 280 Q 451 267 471 255 Q 504 240 542 262 Q 666 328 692 312 Q 707 302 699 286 Q 662 219 620 139 C 606 112 618 107 637 130 Z" fill="lightgray" class="hide"/>
    <path d="M 620 139 Q 619 140 616 141 Q 567 165 538 176 Q 529 180 527 169 Q 526 156 537 145 Q 591 96 654 23 Q 670 2 685 -2 Q 694 -3 701 7 Q 714 20 702 63 Q 695 99 637 130 L 620 139 Z" fill="lightgray" class="hide"/></g><g transform="scale(1, -1) translate(0, -900)">
    <style type="text/css">
        .origin {display:none;}
        .hide {display:none;}
        .stroke {fill: #000000;}
        
.step1 {transform: translateX(1024px);}
.step2 {transform: translateX(2048px);}
.step3 {transform: translateX(3072px);}
.step4 {transform: translateX(4096px);}
.step5 {transform: translateX(5120px);}
.step6 {transform: translateX(6144px);}
.step7 {transform: translateX(7168px);}
.step8 {transform: translateX(8192px);}
.step9 {transform: translateX(9216px);}
.step10 {transform: translateX(10240px);}
.step11 {transform: translateX(11264px);}
.step12 {transform: translateX(12288px);}
.step13 {transform: translateX(13312px);}
.step14 {transform: translateX(14336px);}
.step15 {transform: translateX(15360px);}
.step16 {transform: translateX(16384px);}
.step17 {transform: translateX(17408px);}
.step18 {transform: translateX(18432px);}
.step19 {transform: translateX(19456px);}
.step20 {transform: translateX(20480px);}
.step21 {transform: translateX(21504px);}
.step22 {transform: translateX(22528px);}
.step23 {transform: translateX(23552px);}
.step24 {transform: translateX(24576px);}
.step25 {transform: translateX(25600px);}
.step26 {transform: translateX(26624px);}
.step27 {transform: translateX(27648px);}
.step28 {transform: translateX(28672px);}
.step29 {transform: translateX(29696px);}
    </style>

    <path d="M 254 323 Q 275 659 290 703 Q 293 715 272 731 Q 235 750 208 755 Q 190 759 182 749 Q 175 742 183 725 Q 207 691 207 667 Q 217 504 210 312 C 209 282 252 293 254 323 Z" fill="lightgray" class="stroke step5"/>
    <path d="M 332 339 Q 290 333 254 323 L 210 312 Q 173 303 142 291 Q 126 287 129 307 Q 135 353 141 403 Q 145 427 135 441 Q 99 480 74 477 Q 64 473 71 453 Q 93 398 85 344 Q 78 292 57 270 Q 39 251 47 237 Q 59 222 76 212 Q 86 208 106 219 Q 139 249 266 286 Q 312 299 331 299 C 361 302 362 344 332 339 Z" fill="lightgray" class="stroke step5"/>
    <path d="M 331 299 Q 335 283 344 271 Q 351 261 362 270 Q 383 297 384 330 Q 390 429 403 473 Q 410 492 393 505 Q 378 515 364 525 Q 352 531 344 526 Q 335 522 338 506 Q 354 458 332 339 L 331 299 Z" fill="lightgray" class="stroke step5"/>
    <path d="M 626 686 Q 653 758 663 774 Q 670 781 666 792 Q 662 802 646 811 Q 604 833 573 821 Q 564 817 570 804 Q 600 732 507 543 Q 504 540 503 536 Q 475 484 399 381 Q 392 374 403 373 Q 455 391 545 518 Q 584 588 614 655 L 626 686 Z" fill="lightgray" class="stroke step5"/>
    <path d="M 614 655 Q 690 544 790 426 Q 808 407 838 407 Q 941 408 973 414 Q 983 415 984 421 Q 985 425 971 433 Q 836 484 761 551 Q 697 609 626 686 C 606 708 597 680 614 655 Z" fill="lightgray" class="stroke step5"/>
    <path d="M 568 452 Q 605 409 638 392 Q 651 389 660 401 Q 664 411 663 426 Q 654 465 580 486 Q 565 490 557 487 Q 551 486 554 475 Q 555 465 568 452 Z" fill="lightgray" class="stroke step5"/>
    <path d="M 637 130 Q 749 266 795 291 Q 816 298 808 316 Q 804 332 731 365 Q 710 375 687 364 Q 629 339 538 310 Q 516 301 457 301 Q 432 301 442 280 Q 451 267 471 255 Q 504 240 542 262 Q 666 328 692 312 Q 707 302 699 286 Q 662 219 620 139 C 606 112 618 107 637 130 Z" fill="lightgray" class="hide"/>
    <path d="M 620 139 Q 619 140 616 141 Q 567 165 538 176 Q 529 180 527 169 Q 526 156 537 145 Q 591 96 654 23 Q 670 2 685 -2 Q 694 -3 701 7 Q 714 20 702 63 Q 695 99 637 130 L 620 139 Z" fill="lightgray" class="hide"/></g><g transform="scale(1, -1) translate(0, -900)">
    <style type="text/css">
        .origin {display:none;}
        .hide {display:none;}
        .stroke {fill: #000000;}
        
.step1 {transform: translateX(1024px);}
.step2 {transform: translateX(2048px);}
.step3 {transform: translateX(3072px);}
.step4 {transform: translateX(4096px);}
.step5 {transform: translateX(5120px);}
.step6 {transform: translateX(6144px);}
.step7 {transform: translateX(7168px);}
.step8 {transform: translateX(8192px);}
.step9 {transform: translateX(9216px);}
.step10 {transform: translateX(10240px);}
.step11 {transform: translateX(11264px);}
.step12 {transform: translateX(12288px);}
.step13 {transform: translateX(13312px);}
.step14 {transform: translateX(14336px);}
.step15 {transform: translateX(15360px);}
.step16 {transform: translateX(16384px);}
.step17 {transform: translateX(17408px);}
.step18 {transform: translateX(18432px);}
.step19 {transform: translateX(19456px);}
.step20 {transform: translateX(20480px);}
.step21 {transform: translateX(21504px);}
.step22 {transform: translateX(22528px);}
.step23 {transform: translateX(23552px);}
.step24 {transform: translateX(24576px);}
.step25 {transform: translateX(25600px);}
.step26 {transform: translateX(26624px);}
.step27 {transform: translateX(27648px);}
.step28 {transform: translateX(28672px);}
.step29 {transform: translateX(29696px);}
    </style>

    <path d="M 254 323 Q 275 659 290 703 Q 293 715 272 731 Q 235 750 208 755 Q 190 759 182 749 Q 175 742 183 725 Q 207 691 207 667 Q 217 504 210 312 C 209 282 252 293 254 323 Z" fill="lightgray" class="stroke step6"/>
    <path d="M 332 339 Q 290 333 254 323 L 210 312 Q 173 303 142 291 Q 126 287 129 307 Q 135 353 141 403 Q 145 427 135 441 Q 99 480 74 477 Q 64 473 71 453 Q 93 398 85 344 Q 78 292 57 270 Q 39 251 47 237 Q 59 222 76 212 Q 86 208 106 219 Q 139 249 266 286 Q 312 299 331 299 C 361 302 362 344 332 339 Z" fill="lightgray" class="stroke step6"/>
    <path d="M 331 299 Q 335 283 344 271 Q 351 261 362 270 Q 383 297 384 330 Q 390 429 403 473 Q 410 492 393 505 Q 378 515 364 525 Q 352 531 344 526 Q 335 522 338 506 Q 354 458 332 339 L 331 299 Z" fill="lightgray" class="stroke step6"/>
    <path d="M 626 686 Q 653 758 663 774 Q 670 781 666 792 Q 662 802 646 811 Q 604 833 573 821 Q 564 817 570 804 Q 600 732 507 543 Q 504 540 503 536 Q 475 484 399 381 Q 392 374 403 373 Q 455 391 545 518 Q 584 588 614 655 L 626 686 Z" fill="lightgray" class="stroke step6"/>
    <path d="M 614 655 Q 690 544 790 426 Q 808 407 838 407 Q 941 408 973 414 Q 983 415 984 421 Q 985 425 971 433 Q 836 484 761 551 Q 697 609 626 686 C 606 708 597 680 614 655 Z" fill="lightgray" class="stroke step6"/>
    <path d="M 568 452 Q 605 409 638 392 Q 651 389 660 401 Q 664 411 663 426 Q 654 465 580 486 Q 565 490 557 487 Q 551 486 554 475 Q 555 465 568 452 Z" fill="lightgray" class="stroke step6"/>
    <path d="M 637 130 Q 749 266 795 291 Q 816 298 808 316 Q 804 332 731 365 Q 710 375 687 364 Q 629 339 538 310 Q 516 301 457 301 Q 432 301 442 280 Q 451 267 471 255 Q 504 240 542 262 Q 666 328 692 312 Q 707 302 699 286 Q 662 219 620 139 C 606 112 618 107 637 130 Z" fill="lightgray" class="stroke step6"/>
    <path d="M 620 139 Q 619 140 616 141 Q 567 165 538 176 Q 529 180 527 169 Q 526 156 537 145 Q 591 96 654 23 Q 670 2 685 -2 Q 694 -3 701 7 Q 714 20 702 63 Q 695 99 637 130 L 620 139 Z" fill="lightgray" class="hide"/></g><g transform="scale(1, -1) translate(0, -900)">
    <style type="text/css">
        .origin {display:none;}
        .hide {display:none;}
        .stroke {fill: #000000;}
        
.step1 {transform: translateX(1024px);}
.step2 {transform: translateX(2048px);}
.step3 {transform: translateX(3072px);}
.step4 {transform: translateX(4096px);}
.step5 {transform: translateX(5120px);}
.step6 {transform: translateX(6144px);}
.step7 {transform: translateX(7168px);}
.step8 {transform: translateX(8192px);}
.step9 {transform: translateX(9216px);}
.step10 {transform: translateX(10240px);}
.step11 {transform: translateX(11264px);}
.step12 {transform: translateX(12288px);}
.step13 {transform: translateX(13312px);}
.step14 {transform: translateX(14336px);}
.step15 {transform: translateX(15360px);}
.step16 {transform: translateX(16384px);}
.step17 {transform: translateX(17408px);}
.step18 {transform: translateX(18432px);}
.step19 {transform: translateX(19456px);}
.step20 {transform: translateX(20480px);}
.step21 {transform: translateX(21504px);}
.step22 {transform: translateX(22528px);}
.step23 {transform: translateX(23552px);}
.step24 {transform: translateX(24576px);}
.step25 {transform: translateX(25600px);}
.step26 {transform: translateX(26624px);}
.step27 {transform: translateX(27648px);}
.step28 {transform: translateX(28672px);}
.step29 {transform: translateX(29696px);}
    </style>

    <path d="M 254 323 Q 275 659 290 703 Q 293 715 272 731 Q 235 750 208 755 Q 190 759 182 749 Q 175 742 183 725 Q 207 691 207 667 Q 217 504 210 312 C 209 282 252 293 254 323 Z" fill="lightgray" class="stroke step7"/>
    <path d="M 332 339 Q 290 333 254 323 L 210 312 Q 173 303 142 291 Q 126 287 129 307 Q 135 353 141 403 Q 145 427 135 441 Q 99 480 74 477 Q 64 473 71 453 Q 93 398 85 344 Q 78 292 57 270 Q 39 251 47 237 Q 59 222 76 212 Q 86 208 106 219 Q 139 249 266 286 Q 312 299 331 299 C 361 302 362 344 332 339 Z" fill="lightgray" class="stroke step7"/>
    <path d="M 331 299 Q 335 283 344 271 Q 351 261 362 270 Q 383 297 384 330 Q 390 429 403 473 Q 410 492 393 505 Q 378 515 364 525 Q 352 531 344 526 Q 335 522 338 506 Q 354 458 332 339 L 331 299 Z" fill="lightgray" class="stroke step7"/>
    <path d="M 626 686 Q 653 758 663 774 Q 670 781 666 792 Q 662 802 646 811 Q 604 833 573 821 Q 564 817 570 804 Q 600 732 507 543 Q 504 540 503 536 Q 475 484 399 381 Q 392 374 403 373 Q 455 391 545 518 Q 584 588 614 655 L 626 686 Z" fill="lightgray" class="stroke step7"/>
    <path d="M 614 655 Q 690 544 790 426 Q 808 407 838 407 Q 941 408 973 414 Q 983 415 984 421 Q 985 425 971 433 Q 836 484 761 551 Q 697 609 626 686 C 606 708 597 680 614 655 Z" fill="lightgray" class="stroke step7"/>
    <path d="M 568 452 Q 605 409 638 392 Q 651 389 660 401 Q 664 411 663 426 Q 654 465 580 486 Q 565 490 557 487 Q 551 486 554 475 Q 555 465 568 452 Z" fill="lightgray" class="stroke step7"/>
    <path d="M 637 130 Q 749 266 795 291 Q 816 298 808 316 Q 804 332 731 365 Q 710 375 687 364 Q 629 339 538 310 Q 516 301 457 301 Q 432 301 442 280 Q 451 267 471 255 Q 504 240 542 262 Q 666 328 692 312 Q 707 302 699 286 Q 662 219 620 139 C 606 112 618 107 637 130 Z" fill="lightgray" class="stroke step7"/>
    <path d="M 620 139 Q 619 140 616 141 Q 567 165 538 176 Q 529 180 527 169 Q 526 156 537 145 Q 591 96 654 23 Q 670 2 685 -2 Q 694 -3 701 7 Q 714 20 702 63 Q 695 99 637 130 L 620 139 Z" fill="lightgray" class="stroke step7"/></g></svg>