<svg version="1.1" viewBox="0 0 5120 1024" xmlns="http://www.w3.org/2000/svg">
  
  <g transform="scale(1, -1) translate(0, -900)" class="origin">
    <style type="text/css">
        .origin {display:none;}
        .hide {display:none;}
        .stroke {fill: #000000;}
        
.step1 {transform: translateX(1024px);}
.step2 {transform: translateX(2048px);}
.step3 {transform: translateX(3072px);}
.step4 {transform: translateX(4096px);}
.step5 {transform: translateX(5120px);}
.step6 {transform: translateX(6144px);}
.step7 {transform: translateX(7168px);}
.step8 {transform: translateX(8192px);}
.step9 {transform: translateX(9216px);}
.step10 {transform: translateX(10240px);}
.step11 {transform: translateX(11264px);}
.step12 {transform: translateX(12288px);}
.step13 {transform: translateX(13312px);}
.step14 {transform: translateX(14336px);}
.step15 {transform: translateX(15360px);}
.step16 {transform: translateX(16384px);}
.step17 {transform: translateX(17408px);}
.step18 {transform: translateX(18432px);}
.step19 {transform: translateX(19456px);}
.step20 {transform: translateX(20480px);}
.step21 {transform: translateX(21504px);}
.step22 {transform: translateX(22528px);}
.step23 {transform: translateX(23552px);}
.step24 {transform: translateX(24576px);}
.step25 {transform: translateX(25600px);}
.step26 {transform: translateX(26624px);}
.step27 {transform: translateX(27648px);}
.step28 {transform: translateX(28672px);}
.step29 {transform: translateX(29696px);}
    </style>

    <path d="M 490 526 Q 583 542 681 558 Q 754 571 765 581 Q 775 590 771 599 Q 764 612 733 621 Q 700 630 667 618 Q 591 596 508 576 L 451 565 Q 369 553 276 547 Q 236 543 264 523 Q 309 495 369 506 Q 400 512 433 516 L 490 526 Z" fill="lightgray"/>
    <path d="M 433 516 Q 337 284 144 108 Q 66 45 65 37 Q 64 31 81 39 Q 283 127 406 351 Q 455 439 490 526 L 508 576 Q 508 577 509 578 Q 534 651 543 708 Q 547 741 567 773 Q 582 794 560 807 Q 530 828 490 837 Q 471 841 461 835 Q 454 828 461 810 Q 506 729 451 565 L 433 516 Z" fill="lightgray"/>
    <path d="M 566 302 Q 738 335 746 339 Q 755 346 751 356 Q 744 368 714 376 Q 687 382 577 352 Q 483 334 419 329 Q 382 325 408 306 Q 447 279 509 292 Q 515 293 523 294 L 566 302 Z" fill="lightgray"/>
    <path d="M 574 93 Q 592 276 593 276 Q 580 291 566 302 C 543 321 516 323 523 294 Q 532 266 527 88 C 526 58 571 63 574 93 Z" fill="lightgray"/>
    <path d="M 527 88 Q 415 78 286 63 Q 264 62 280 43 Q 295 27 313 21 Q 335 15 353 19 Q 539 64 821 54 Q 842 54 863 53 Q 885 52 890 61 Q 897 74 879 89 Q 822 131 784 124 Q 705 111 574 93 L 527 88 Z" fill="lightgray"/></g>
<g transform="scale(1, -1) translate(0, -900)">
    <style type="text/css">
        .origin {display:none;}
        .hide {display:none;}
        .stroke {fill: #000000;}
        
.step1 {transform: translateX(1024px);}
.step2 {transform: translateX(2048px);}
.step3 {transform: translateX(3072px);}
.step4 {transform: translateX(4096px);}
.step5 {transform: translateX(5120px);}
.step6 {transform: translateX(6144px);}
.step7 {transform: translateX(7168px);}
.step8 {transform: translateX(8192px);}
.step9 {transform: translateX(9216px);}
.step10 {transform: translateX(10240px);}
.step11 {transform: translateX(11264px);}
.step12 {transform: translateX(12288px);}
.step13 {transform: translateX(13312px);}
.step14 {transform: translateX(14336px);}
.step15 {transform: translateX(15360px);}
.step16 {transform: translateX(16384px);}
.step17 {transform: translateX(17408px);}
.step18 {transform: translateX(18432px);}
.step19 {transform: translateX(19456px);}
.step20 {transform: translateX(20480px);}
.step21 {transform: translateX(21504px);}
.step22 {transform: translateX(22528px);}
.step23 {transform: translateX(23552px);}
.step24 {transform: translateX(24576px);}
.step25 {transform: translateX(25600px);}
.step26 {transform: translateX(26624px);}
.step27 {transform: translateX(27648px);}
.step28 {transform: translateX(28672px);}
.step29 {transform: translateX(29696px);}
    </style>

    <path d="M 490 526 Q 583 542 681 558 Q 754 571 765 581 Q 775 590 771 599 Q 764 612 733 621 Q 700 630 667 618 Q 591 596 508 576 L 451 565 Q 369 553 276 547 Q 236 543 264 523 Q 309 495 369 506 Q 400 512 433 516 L 490 526 Z" fill="lightgray" class="stroke step0"/>
    <path d="M 433 516 Q 337 284 144 108 Q 66 45 65 37 Q 64 31 81 39 Q 283 127 406 351 Q 455 439 490 526 L 508 576 Q 508 577 509 578 Q 534 651 543 708 Q 547 741 567 773 Q 582 794 560 807 Q 530 828 490 837 Q 471 841 461 835 Q 454 828 461 810 Q 506 729 451 565 L 433 516 Z" fill="lightgray" class="hide"/>
    <path d="M 566 302 Q 738 335 746 339 Q 755 346 751 356 Q 744 368 714 376 Q 687 382 577 352 Q 483 334 419 329 Q 382 325 408 306 Q 447 279 509 292 Q 515 293 523 294 L 566 302 Z" fill="lightgray" class="hide"/>
    <path d="M 574 93 Q 592 276 593 276 Q 580 291 566 302 C 543 321 516 323 523 294 Q 532 266 527 88 C 526 58 571 63 574 93 Z" fill="lightgray" class="hide"/>
    <path d="M 527 88 Q 415 78 286 63 Q 264 62 280 43 Q 295 27 313 21 Q 335 15 353 19 Q 539 64 821 54 Q 842 54 863 53 Q 885 52 890 61 Q 897 74 879 89 Q 822 131 784 124 Q 705 111 574 93 L 527 88 Z" fill="lightgray" class="hide"/></g><g transform="scale(1, -1) translate(0, -900)">
    <style type="text/css">
        .origin {display:none;}
        .hide {display:none;}
        .stroke {fill: #000000;}
        
.step1 {transform: translateX(1024px);}
.step2 {transform: translateX(2048px);}
.step3 {transform: translateX(3072px);}
.step4 {transform: translateX(4096px);}
.step5 {transform: translateX(5120px);}
.step6 {transform: translateX(6144px);}
.step7 {transform: translateX(7168px);}
.step8 {transform: translateX(8192px);}
.step9 {transform: translateX(9216px);}
.step10 {transform: translateX(10240px);}
.step11 {transform: translateX(11264px);}
.step12 {transform: translateX(12288px);}
.step13 {transform: translateX(13312px);}
.step14 {transform: translateX(14336px);}
.step15 {transform: translateX(15360px);}
.step16 {transform: translateX(16384px);}
.step17 {transform: translateX(17408px);}
.step18 {transform: translateX(18432px);}
.step19 {transform: translateX(19456px);}
.step20 {transform: translateX(20480px);}
.step21 {transform: translateX(21504px);}
.step22 {transform: translateX(22528px);}
.step23 {transform: translateX(23552px);}
.step24 {transform: translateX(24576px);}
.step25 {transform: translateX(25600px);}
.step26 {transform: translateX(26624px);}
.step27 {transform: translateX(27648px);}
.step28 {transform: translateX(28672px);}
.step29 {transform: translateX(29696px);}
    </style>

    <path d="M 490 526 Q 583 542 681 558 Q 754 571 765 581 Q 775 590 771 599 Q 764 612 733 621 Q 700 630 667 618 Q 591 596 508 576 L 451 565 Q 369 553 276 547 Q 236 543 264 523 Q 309 495 369 506 Q 400 512 433 516 L 490 526 Z" fill="lightgray" class="stroke step1"/>
    <path d="M 433 516 Q 337 284 144 108 Q 66 45 65 37 Q 64 31 81 39 Q 283 127 406 351 Q 455 439 490 526 L 508 576 Q 508 577 509 578 Q 534 651 543 708 Q 547 741 567 773 Q 582 794 560 807 Q 530 828 490 837 Q 471 841 461 835 Q 454 828 461 810 Q 506 729 451 565 L 433 516 Z" fill="lightgray" class="stroke step1"/>
    <path d="M 566 302 Q 738 335 746 339 Q 755 346 751 356 Q 744 368 714 376 Q 687 382 577 352 Q 483 334 419 329 Q 382 325 408 306 Q 447 279 509 292 Q 515 293 523 294 L 566 302 Z" fill="lightgray" class="hide"/>
    <path d="M 574 93 Q 592 276 593 276 Q 580 291 566 302 C 543 321 516 323 523 294 Q 532 266 527 88 C 526 58 571 63 574 93 Z" fill="lightgray" class="hide"/>
    <path d="M 527 88 Q 415 78 286 63 Q 264 62 280 43 Q 295 27 313 21 Q 335 15 353 19 Q 539 64 821 54 Q 842 54 863 53 Q 885 52 890 61 Q 897 74 879 89 Q 822 131 784 124 Q 705 111 574 93 L 527 88 Z" fill="lightgray" class="hide"/></g><g transform="scale(1, -1) translate(0, -900)">
    <style type="text/css">
        .origin {display:none;}
        .hide {display:none;}
        .stroke {fill: #000000;}
        
.step1 {transform: translateX(1024px);}
.step2 {transform: translateX(2048px);}
.step3 {transform: translateX(3072px);}
.step4 {transform: translateX(4096px);}
.step5 {transform: translateX(5120px);}
.step6 {transform: translateX(6144px);}
.step7 {transform: translateX(7168px);}
.step8 {transform: translateX(8192px);}
.step9 {transform: translateX(9216px);}
.step10 {transform: translateX(10240px);}
.step11 {transform: translateX(11264px);}
.step12 {transform: translateX(12288px);}
.step13 {transform: translateX(13312px);}
.step14 {transform: translateX(14336px);}
.step15 {transform: translateX(15360px);}
.step16 {transform: translateX(16384px);}
.step17 {transform: translateX(17408px);}
.step18 {transform: translateX(18432px);}
.step19 {transform: translateX(19456px);}
.step20 {transform: translateX(20480px);}
.step21 {transform: translateX(21504px);}
.step22 {transform: translateX(22528px);}
.step23 {transform: translateX(23552px);}
.step24 {transform: translateX(24576px);}
.step25 {transform: translateX(25600px);}
.step26 {transform: translateX(26624px);}
.step27 {transform: translateX(27648px);}
.step28 {transform: translateX(28672px);}
.step29 {transform: translateX(29696px);}
    </style>

    <path d="M 490 526 Q 583 542 681 558 Q 754 571 765 581 Q 775 590 771 599 Q 764 612 733 621 Q 700 630 667 618 Q 591 596 508 576 L 451 565 Q 369 553 276 547 Q 236 543 264 523 Q 309 495 369 506 Q 400 512 433 516 L 490 526 Z" fill="lightgray" class="stroke step2"/>
    <path d="M 433 516 Q 337 284 144 108 Q 66 45 65 37 Q 64 31 81 39 Q 283 127 406 351 Q 455 439 490 526 L 508 576 Q 508 577 509 578 Q 534 651 543 708 Q 547 741 567 773 Q 582 794 560 807 Q 530 828 490 837 Q 471 841 461 835 Q 454 828 461 810 Q 506 729 451 565 L 433 516 Z" fill="lightgray" class="stroke step2"/>
    <path d="M 566 302 Q 738 335 746 339 Q 755 346 751 356 Q 744 368 714 376 Q 687 382 577 352 Q 483 334 419 329 Q 382 325 408 306 Q 447 279 509 292 Q 515 293 523 294 L 566 302 Z" fill="lightgray" class="stroke step2"/>
    <path d="M 574 93 Q 592 276 593 276 Q 580 291 566 302 C 543 321 516 323 523 294 Q 532 266 527 88 C 526 58 571 63 574 93 Z" fill="lightgray" class="hide"/>
    <path d="M 527 88 Q 415 78 286 63 Q 264 62 280 43 Q 295 27 313 21 Q 335 15 353 19 Q 539 64 821 54 Q 842 54 863 53 Q 885 52 890 61 Q 897 74 879 89 Q 822 131 784 124 Q 705 111 574 93 L 527 88 Z" fill="lightgray" class="hide"/></g><g transform="scale(1, -1) translate(0, -900)">
    <style type="text/css">
        .origin {display:none;}
        .hide {display:none;}
        .stroke {fill: #000000;}
        
.step1 {transform: translateX(1024px);}
.step2 {transform: translateX(2048px);}
.step3 {transform: translateX(3072px);}
.step4 {transform: translateX(4096px);}
.step5 {transform: translateX(5120px);}
.step6 {transform: translateX(6144px);}
.step7 {transform: translateX(7168px);}
.step8 {transform: translateX(8192px);}
.step9 {transform: translateX(9216px);}
.step10 {transform: translateX(10240px);}
.step11 {transform: translateX(11264px);}
.step12 {transform: translateX(12288px);}
.step13 {transform: translateX(13312px);}
.step14 {transform: translateX(14336px);}
.step15 {transform: translateX(15360px);}
.step16 {transform: translateX(16384px);}
.step17 {transform: translateX(17408px);}
.step18 {transform: translateX(18432px);}
.step19 {transform: translateX(19456px);}
.step20 {transform: translateX(20480px);}
.step21 {transform: translateX(21504px);}
.step22 {transform: translateX(22528px);}
.step23 {transform: translateX(23552px);}
.step24 {transform: translateX(24576px);}
.step25 {transform: translateX(25600px);}
.step26 {transform: translateX(26624px);}
.step27 {transform: translateX(27648px);}
.step28 {transform: translateX(28672px);}
.step29 {transform: translateX(29696px);}
    </style>

    <path d="M 490 526 Q 583 542 681 558 Q 754 571 765 581 Q 775 590 771 599 Q 764 612 733 621 Q 700 630 667 618 Q 591 596 508 576 L 451 565 Q 369 553 276 547 Q 236 543 264 523 Q 309 495 369 506 Q 400 512 433 516 L 490 526 Z" fill="lightgray" class="stroke step3"/>
    <path d="M 433 516 Q 337 284 144 108 Q 66 45 65 37 Q 64 31 81 39 Q 283 127 406 351 Q 455 439 490 526 L 508 576 Q 508 577 509 578 Q 534 651 543 708 Q 547 741 567 773 Q 582 794 560 807 Q 530 828 490 837 Q 471 841 461 835 Q 454 828 461 810 Q 506 729 451 565 L 433 516 Z" fill="lightgray" class="stroke step3"/>
    <path d="M 566 302 Q 738 335 746 339 Q 755 346 751 356 Q 744 368 714 376 Q 687 382 577 352 Q 483 334 419 329 Q 382 325 408 306 Q 447 279 509 292 Q 515 293 523 294 L 566 302 Z" fill="lightgray" class="stroke step3"/>
    <path d="M 574 93 Q 592 276 593 276 Q 580 291 566 302 C 543 321 516 323 523 294 Q 532 266 527 88 C 526 58 571 63 574 93 Z" fill="lightgray" class="stroke step3"/>
    <path d="M 527 88 Q 415 78 286 63 Q 264 62 280 43 Q 295 27 313 21 Q 335 15 353 19 Q 539 64 821 54 Q 842 54 863 53 Q 885 52 890 61 Q 897 74 879 89 Q 822 131 784 124 Q 705 111 574 93 L 527 88 Z" fill="lightgray" class="hide"/></g><g transform="scale(1, -1) translate(0, -900)">
    <style type="text/css">
        .origin {display:none;}
        .hide {display:none;}
        .stroke {fill: #000000;}
        
.step1 {transform: translateX(1024px);}
.step2 {transform: translateX(2048px);}
.step3 {transform: translateX(3072px);}
.step4 {transform: translateX(4096px);}
.step5 {transform: translateX(5120px);}
.step6 {transform: translateX(6144px);}
.step7 {transform: translateX(7168px);}
.step8 {transform: translateX(8192px);}
.step9 {transform: translateX(9216px);}
.step10 {transform: translateX(10240px);}
.step11 {transform: translateX(11264px);}
.step12 {transform: translateX(12288px);}
.step13 {transform: translateX(13312px);}
.step14 {transform: translateX(14336px);}
.step15 {transform: translateX(15360px);}
.step16 {transform: translateX(16384px);}
.step17 {transform: translateX(17408px);}
.step18 {transform: translateX(18432px);}
.step19 {transform: translateX(19456px);}
.step20 {transform: translateX(20480px);}
.step21 {transform: translateX(21504px);}
.step22 {transform: translateX(22528px);}
.step23 {transform: translateX(23552px);}
.step24 {transform: translateX(24576px);}
.step25 {transform: translateX(25600px);}
.step26 {transform: translateX(26624px);}
.step27 {transform: translateX(27648px);}
.step28 {transform: translateX(28672px);}
.step29 {transform: translateX(29696px);}
    </style>

    <path d="M 490 526 Q 583 542 681 558 Q 754 571 765 581 Q 775 590 771 599 Q 764 612 733 621 Q 700 630 667 618 Q 591 596 508 576 L 451 565 Q 369 553 276 547 Q 236 543 264 523 Q 309 495 369 506 Q 400 512 433 516 L 490 526 Z" fill="lightgray" class="stroke step4"/>
    <path d="M 433 516 Q 337 284 144 108 Q 66 45 65 37 Q 64 31 81 39 Q 283 127 406 351 Q 455 439 490 526 L 508 576 Q 508 577 509 578 Q 534 651 543 708 Q 547 741 567 773 Q 582 794 560 807 Q 530 828 490 837 Q 471 841 461 835 Q 454 828 461 810 Q 506 729 451 565 L 433 516 Z" fill="lightgray" class="stroke step4"/>
    <path d="M 566 302 Q 738 335 746 339 Q 755 346 751 356 Q 744 368 714 376 Q 687 382 577 352 Q 483 334 419 329 Q 382 325 408 306 Q 447 279 509 292 Q 515 293 523 294 L 566 302 Z" fill="lightgray" class="stroke step4"/>
    <path d="M 574 93 Q 592 276 593 276 Q 580 291 566 302 C 543 321 516 323 523 294 Q 532 266 527 88 C 526 58 571 63 574 93 Z" fill="lightgray" class="stroke step4"/>
    <path d="M 527 88 Q 415 78 286 63 Q 264 62 280 43 Q 295 27 313 21 Q 335 15 353 19 Q 539 64 821 54 Q 842 54 863 53 Q 885 52 890 61 Q 897 74 879 89 Q 822 131 784 124 Q 705 111 574 93 L 527 88 Z" fill="lightgray" class="stroke step4"/></g></svg>