<svg version="1.1" viewBox="0 0 8192 1024" xmlns="http://www.w3.org/2000/svg">
  
  <g transform="scale(1, -1) translate(0, -900)" class="origin">
    <style type="text/css">
        .origin {display:none;}
        .hide {display:none;}
        .stroke {fill: #000000;}
        
.step1 {transform: translateX(1024px);}
.step2 {transform: translateX(2048px);}
.step3 {transform: translateX(3072px);}
.step4 {transform: translateX(4096px);}
.step5 {transform: translateX(5120px);}
.step6 {transform: translateX(6144px);}
.step7 {transform: translateX(7168px);}
.step8 {transform: translateX(8192px);}
.step9 {transform: translateX(9216px);}
.step10 {transform: translateX(10240px);}
.step11 {transform: translateX(11264px);}
.step12 {transform: translateX(12288px);}
.step13 {transform: translateX(13312px);}
.step14 {transform: translateX(14336px);}
.step15 {transform: translateX(15360px);}
.step16 {transform: translateX(16384px);}
.step17 {transform: translateX(17408px);}
.step18 {transform: translateX(18432px);}
.step19 {transform: translateX(19456px);}
.step20 {transform: translateX(20480px);}
.step21 {transform: translateX(21504px);}
.step22 {transform: translateX(22528px);}
.step23 {transform: translateX(23552px);}
.step24 {transform: translateX(24576px);}
.step25 {transform: translateX(25600px);}
.step26 {transform: translateX(26624px);}
.step27 {transform: translateX(27648px);}
.step28 {transform: translateX(28672px);}
.step29 {transform: translateX(29696px);}
    </style>

    <path d="M 455 804 Q 506 758 546 742 Q 562 741 571 756 Q 575 771 571 788 Q 553 831 489 842 Q 450 851 436 845 Q 430 844 434 830 Q 437 817 455 804 Z" fill="lightgray"/>
    <path d="M 319 649 Q 347 640 466 658 Q 715 698 744 707 Q 750 710 753 711 Q 763 718 758 728 Q 752 741 722 749 Q 692 756 588 727 Q 459 700 407 693 Q 359 690 301 684 C 271 681 289 654 319 649 Z" fill="lightgray"/>
    <path d="M 301 684 Q 253 717 233 708 Q 220 701 228 686 Q 246 659 246 592 Q 245 585 245 575 Q 242 410 205 298 Q 172 201 102 84 Q 98 77 95 71 Q 94 59 104 62 Q 140 68 215 198 Q 222 216 233 236 Q 291 371 305 546 Q 308 628 319 649 C 325 669 325 669 301 684 Z" fill="lightgray"/>
    <path d="M 481 528 Q 523 588 524 589 Q 523 593 523 595 Q 519 605 496 624 Q 474 639 458 638 Q 443 637 450 619 Q 460 601 426 529 Q 410 498 385 461 Q 378 454 375 448 Q 372 438 384 441 Q 399 444 457 501 L 481 528 Z" fill="lightgray"/>
    <path d="M 457 501 Q 481 486 500 492 Q 666 537 678 521 Q 688 508 682 471 Q 672 369 647 325 Q 631 297 607 301 Q 588 308 570 316 Q 548 326 562 301 Q 598 258 612 226 Q 631 205 648 222 Q 702 259 728 389 Q 737 492 760 522 Q 772 535 766 544 Q 757 554 709 576 Q 690 585 671 572 Q 626 548 481 528 C 451 524 430 514 457 501 Z" fill="lightgray"/>
    <path d="M 513 273 Q 532 348 554 369 Q 575 394 553 406 Q 535 416 510 433 Q 492 443 475 432 Q 456 419 428 409 Q 407 402 380 394 C 351 385 366 359 394 369 Q 397 372 460 385 Q 479 389 483 381 Q 489 377 482 348 Q 475 317 466 279 C 459 250 505 244 513 273 Z" fill="lightgray"/>
    <path d="M 378 229 Q 384 228 393 230 Q 433 239 522 246 Q 531 247 532 254 Q 532 260 513 273 C 494 286 494 286 466 279 Q 420 267 380 258 C 351 251 348 231 378 229 Z" fill="lightgray"/>
    <path d="M 889 108 Q 876 136 857 224 Q 856 240 849 246 Q 843 250 838 231 Q 810 137 791 108 Q 770 83 709 66 Q 565 30 450 77 Q 404 99 391 128 Q 372 167 378 229 L 380 258 Q 383 307 393 362 Q 394 366 394 369 C 397 384 397 384 380 394 Q 368 404 350 411 Q 337 415 329 410 Q 322 406 328 388 Q 341 351 338 313 Q 329 153 343 109 Q 350 75 382 46 Q 493 -41 732 -2 Q 748 2 768 7 Q 826 25 882 65 Q 903 81 889 108 Z" fill="lightgray"/></g>
<g transform="scale(1, -1) translate(0, -900)">
    <style type="text/css">
        .origin {display:none;}
        .hide {display:none;}
        .stroke {fill: #000000;}
        
.step1 {transform: translateX(1024px);}
.step2 {transform: translateX(2048px);}
.step3 {transform: translateX(3072px);}
.step4 {transform: translateX(4096px);}
.step5 {transform: translateX(5120px);}
.step6 {transform: translateX(6144px);}
.step7 {transform: translateX(7168px);}
.step8 {transform: translateX(8192px);}
.step9 {transform: translateX(9216px);}
.step10 {transform: translateX(10240px);}
.step11 {transform: translateX(11264px);}
.step12 {transform: translateX(12288px);}
.step13 {transform: translateX(13312px);}
.step14 {transform: translateX(14336px);}
.step15 {transform: translateX(15360px);}
.step16 {transform: translateX(16384px);}
.step17 {transform: translateX(17408px);}
.step18 {transform: translateX(18432px);}
.step19 {transform: translateX(19456px);}
.step20 {transform: translateX(20480px);}
.step21 {transform: translateX(21504px);}
.step22 {transform: translateX(22528px);}
.step23 {transform: translateX(23552px);}
.step24 {transform: translateX(24576px);}
.step25 {transform: translateX(25600px);}
.step26 {transform: translateX(26624px);}
.step27 {transform: translateX(27648px);}
.step28 {transform: translateX(28672px);}
.step29 {transform: translateX(29696px);}
    </style>

    <path d="M 455 804 Q 506 758 546 742 Q 562 741 571 756 Q 575 771 571 788 Q 553 831 489 842 Q 450 851 436 845 Q 430 844 434 830 Q 437 817 455 804 Z" fill="lightgray" class="stroke step0"/>
    <path d="M 319 649 Q 347 640 466 658 Q 715 698 744 707 Q 750 710 753 711 Q 763 718 758 728 Q 752 741 722 749 Q 692 756 588 727 Q 459 700 407 693 Q 359 690 301 684 C 271 681 289 654 319 649 Z" fill="lightgray" class="hide"/>
    <path d="M 301 684 Q 253 717 233 708 Q 220 701 228 686 Q 246 659 246 592 Q 245 585 245 575 Q 242 410 205 298 Q 172 201 102 84 Q 98 77 95 71 Q 94 59 104 62 Q 140 68 215 198 Q 222 216 233 236 Q 291 371 305 546 Q 308 628 319 649 C 325 669 325 669 301 684 Z" fill="lightgray" class="hide"/>
    <path d="M 481 528 Q 523 588 524 589 Q 523 593 523 595 Q 519 605 496 624 Q 474 639 458 638 Q 443 637 450 619 Q 460 601 426 529 Q 410 498 385 461 Q 378 454 375 448 Q 372 438 384 441 Q 399 444 457 501 L 481 528 Z" fill="lightgray" class="hide"/>
    <path d="M 457 501 Q 481 486 500 492 Q 666 537 678 521 Q 688 508 682 471 Q 672 369 647 325 Q 631 297 607 301 Q 588 308 570 316 Q 548 326 562 301 Q 598 258 612 226 Q 631 205 648 222 Q 702 259 728 389 Q 737 492 760 522 Q 772 535 766 544 Q 757 554 709 576 Q 690 585 671 572 Q 626 548 481 528 C 451 524 430 514 457 501 Z" fill="lightgray" class="hide"/>
    <path d="M 513 273 Q 532 348 554 369 Q 575 394 553 406 Q 535 416 510 433 Q 492 443 475 432 Q 456 419 428 409 Q 407 402 380 394 C 351 385 366 359 394 369 Q 397 372 460 385 Q 479 389 483 381 Q 489 377 482 348 Q 475 317 466 279 C 459 250 505 244 513 273 Z" fill="lightgray" class="hide"/>
    <path d="M 378 229 Q 384 228 393 230 Q 433 239 522 246 Q 531 247 532 254 Q 532 260 513 273 C 494 286 494 286 466 279 Q 420 267 380 258 C 351 251 348 231 378 229 Z" fill="lightgray" class="hide"/>
    <path d="M 889 108 Q 876 136 857 224 Q 856 240 849 246 Q 843 250 838 231 Q 810 137 791 108 Q 770 83 709 66 Q 565 30 450 77 Q 404 99 391 128 Q 372 167 378 229 L 380 258 Q 383 307 393 362 Q 394 366 394 369 C 397 384 397 384 380 394 Q 368 404 350 411 Q 337 415 329 410 Q 322 406 328 388 Q 341 351 338 313 Q 329 153 343 109 Q 350 75 382 46 Q 493 -41 732 -2 Q 748 2 768 7 Q 826 25 882 65 Q 903 81 889 108 Z" fill="lightgray" class="hide"/></g><g transform="scale(1, -1) translate(0, -900)">
    <style type="text/css">
        .origin {display:none;}
        .hide {display:none;}
        .stroke {fill: #000000;}
        
.step1 {transform: translateX(1024px);}
.step2 {transform: translateX(2048px);}
.step3 {transform: translateX(3072px);}
.step4 {transform: translateX(4096px);}
.step5 {transform: translateX(5120px);}
.step6 {transform: translateX(6144px);}
.step7 {transform: translateX(7168px);}
.step8 {transform: translateX(8192px);}
.step9 {transform: translateX(9216px);}
.step10 {transform: translateX(10240px);}
.step11 {transform: translateX(11264px);}
.step12 {transform: translateX(12288px);}
.step13 {transform: translateX(13312px);}
.step14 {transform: translateX(14336px);}
.step15 {transform: translateX(15360px);}
.step16 {transform: translateX(16384px);}
.step17 {transform: translateX(17408px);}
.step18 {transform: translateX(18432px);}
.step19 {transform: translateX(19456px);}
.step20 {transform: translateX(20480px);}
.step21 {transform: translateX(21504px);}
.step22 {transform: translateX(22528px);}
.step23 {transform: translateX(23552px);}
.step24 {transform: translateX(24576px);}
.step25 {transform: translateX(25600px);}
.step26 {transform: translateX(26624px);}
.step27 {transform: translateX(27648px);}
.step28 {transform: translateX(28672px);}
.step29 {transform: translateX(29696px);}
    </style>

    <path d="M 455 804 Q 506 758 546 742 Q 562 741 571 756 Q 575 771 571 788 Q 553 831 489 842 Q 450 851 436 845 Q 430 844 434 830 Q 437 817 455 804 Z" fill="lightgray" class="stroke step1"/>
    <path d="M 319 649 Q 347 640 466 658 Q 715 698 744 707 Q 750 710 753 711 Q 763 718 758 728 Q 752 741 722 749 Q 692 756 588 727 Q 459 700 407 693 Q 359 690 301 684 C 271 681 289 654 319 649 Z" fill="lightgray" class="stroke step1"/>
    <path d="M 301 684 Q 253 717 233 708 Q 220 701 228 686 Q 246 659 246 592 Q 245 585 245 575 Q 242 410 205 298 Q 172 201 102 84 Q 98 77 95 71 Q 94 59 104 62 Q 140 68 215 198 Q 222 216 233 236 Q 291 371 305 546 Q 308 628 319 649 C 325 669 325 669 301 684 Z" fill="lightgray" class="hide"/>
    <path d="M 481 528 Q 523 588 524 589 Q 523 593 523 595 Q 519 605 496 624 Q 474 639 458 638 Q 443 637 450 619 Q 460 601 426 529 Q 410 498 385 461 Q 378 454 375 448 Q 372 438 384 441 Q 399 444 457 501 L 481 528 Z" fill="lightgray" class="hide"/>
    <path d="M 457 501 Q 481 486 500 492 Q 666 537 678 521 Q 688 508 682 471 Q 672 369 647 325 Q 631 297 607 301 Q 588 308 570 316 Q 548 326 562 301 Q 598 258 612 226 Q 631 205 648 222 Q 702 259 728 389 Q 737 492 760 522 Q 772 535 766 544 Q 757 554 709 576 Q 690 585 671 572 Q 626 548 481 528 C 451 524 430 514 457 501 Z" fill="lightgray" class="hide"/>
    <path d="M 513 273 Q 532 348 554 369 Q 575 394 553 406 Q 535 416 510 433 Q 492 443 475 432 Q 456 419 428 409 Q 407 402 380 394 C 351 385 366 359 394 369 Q 397 372 460 385 Q 479 389 483 381 Q 489 377 482 348 Q 475 317 466 279 C 459 250 505 244 513 273 Z" fill="lightgray" class="hide"/>
    <path d="M 378 229 Q 384 228 393 230 Q 433 239 522 246 Q 531 247 532 254 Q 532 260 513 273 C 494 286 494 286 466 279 Q 420 267 380 258 C 351 251 348 231 378 229 Z" fill="lightgray" class="hide"/>
    <path d="M 889 108 Q 876 136 857 224 Q 856 240 849 246 Q 843 250 838 231 Q 810 137 791 108 Q 770 83 709 66 Q 565 30 450 77 Q 404 99 391 128 Q 372 167 378 229 L 380 258 Q 383 307 393 362 Q 394 366 394 369 C 397 384 397 384 380 394 Q 368 404 350 411 Q 337 415 329 410 Q 322 406 328 388 Q 341 351 338 313 Q 329 153 343 109 Q 350 75 382 46 Q 493 -41 732 -2 Q 748 2 768 7 Q 826 25 882 65 Q 903 81 889 108 Z" fill="lightgray" class="hide"/></g><g transform="scale(1, -1) translate(0, -900)">
    <style type="text/css">
        .origin {display:none;}
        .hide {display:none;}
        .stroke {fill: #000000;}
        
.step1 {transform: translateX(1024px);}
.step2 {transform: translateX(2048px);}
.step3 {transform: translateX(3072px);}
.step4 {transform: translateX(4096px);}
.step5 {transform: translateX(5120px);}
.step6 {transform: translateX(6144px);}
.step7 {transform: translateX(7168px);}
.step8 {transform: translateX(8192px);}
.step9 {transform: translateX(9216px);}
.step10 {transform: translateX(10240px);}
.step11 {transform: translateX(11264px);}
.step12 {transform: translateX(12288px);}
.step13 {transform: translateX(13312px);}
.step14 {transform: translateX(14336px);}
.step15 {transform: translateX(15360px);}
.step16 {transform: translateX(16384px);}
.step17 {transform: translateX(17408px);}
.step18 {transform: translateX(18432px);}
.step19 {transform: translateX(19456px);}
.step20 {transform: translateX(20480px);}
.step21 {transform: translateX(21504px);}
.step22 {transform: translateX(22528px);}
.step23 {transform: translateX(23552px);}
.step24 {transform: translateX(24576px);}
.step25 {transform: translateX(25600px);}
.step26 {transform: translateX(26624px);}
.step27 {transform: translateX(27648px);}
.step28 {transform: translateX(28672px);}
.step29 {transform: translateX(29696px);}
    </style>

    <path d="M 455 804 Q 506 758 546 742 Q 562 741 571 756 Q 575 771 571 788 Q 553 831 489 842 Q 450 851 436 845 Q 430 844 434 830 Q 437 817 455 804 Z" fill="lightgray" class="stroke step2"/>
    <path d="M 319 649 Q 347 640 466 658 Q 715 698 744 707 Q 750 710 753 711 Q 763 718 758 728 Q 752 741 722 749 Q 692 756 588 727 Q 459 700 407 693 Q 359 690 301 684 C 271 681 289 654 319 649 Z" fill="lightgray" class="stroke step2"/>
    <path d="M 301 684 Q 253 717 233 708 Q 220 701 228 686 Q 246 659 246 592 Q 245 585 245 575 Q 242 410 205 298 Q 172 201 102 84 Q 98 77 95 71 Q 94 59 104 62 Q 140 68 215 198 Q 222 216 233 236 Q 291 371 305 546 Q 308 628 319 649 C 325 669 325 669 301 684 Z" fill="lightgray" class="stroke step2"/>
    <path d="M 481 528 Q 523 588 524 589 Q 523 593 523 595 Q 519 605 496 624 Q 474 639 458 638 Q 443 637 450 619 Q 460 601 426 529 Q 410 498 385 461 Q 378 454 375 448 Q 372 438 384 441 Q 399 444 457 501 L 481 528 Z" fill="lightgray" class="hide"/>
    <path d="M 457 501 Q 481 486 500 492 Q 666 537 678 521 Q 688 508 682 471 Q 672 369 647 325 Q 631 297 607 301 Q 588 308 570 316 Q 548 326 562 301 Q 598 258 612 226 Q 631 205 648 222 Q 702 259 728 389 Q 737 492 760 522 Q 772 535 766 544 Q 757 554 709 576 Q 690 585 671 572 Q 626 548 481 528 C 451 524 430 514 457 501 Z" fill="lightgray" class="hide"/>
    <path d="M 513 273 Q 532 348 554 369 Q 575 394 553 406 Q 535 416 510 433 Q 492 443 475 432 Q 456 419 428 409 Q 407 402 380 394 C 351 385 366 359 394 369 Q 397 372 460 385 Q 479 389 483 381 Q 489 377 482 348 Q 475 317 466 279 C 459 250 505 244 513 273 Z" fill="lightgray" class="hide"/>
    <path d="M 378 229 Q 384 228 393 230 Q 433 239 522 246 Q 531 247 532 254 Q 532 260 513 273 C 494 286 494 286 466 279 Q 420 267 380 258 C 351 251 348 231 378 229 Z" fill="lightgray" class="hide"/>
    <path d="M 889 108 Q 876 136 857 224 Q 856 240 849 246 Q 843 250 838 231 Q 810 137 791 108 Q 770 83 709 66 Q 565 30 450 77 Q 404 99 391 128 Q 372 167 378 229 L 380 258 Q 383 307 393 362 Q 394 366 394 369 C 397 384 397 384 380 394 Q 368 404 350 411 Q 337 415 329 410 Q 322 406 328 388 Q 341 351 338 313 Q 329 153 343 109 Q 350 75 382 46 Q 493 -41 732 -2 Q 748 2 768 7 Q 826 25 882 65 Q 903 81 889 108 Z" fill="lightgray" class="hide"/></g><g transform="scale(1, -1) translate(0, -900)">
    <style type="text/css">
        .origin {display:none;}
        .hide {display:none;}
        .stroke {fill: #000000;}
        
.step1 {transform: translateX(1024px);}
.step2 {transform: translateX(2048px);}
.step3 {transform: translateX(3072px);}
.step4 {transform: translateX(4096px);}
.step5 {transform: translateX(5120px);}
.step6 {transform: translateX(6144px);}
.step7 {transform: translateX(7168px);}
.step8 {transform: translateX(8192px);}
.step9 {transform: translateX(9216px);}
.step10 {transform: translateX(10240px);}
.step11 {transform: translateX(11264px);}
.step12 {transform: translateX(12288px);}
.step13 {transform: translateX(13312px);}
.step14 {transform: translateX(14336px);}
.step15 {transform: translateX(15360px);}
.step16 {transform: translateX(16384px);}
.step17 {transform: translateX(17408px);}
.step18 {transform: translateX(18432px);}
.step19 {transform: translateX(19456px);}
.step20 {transform: translateX(20480px);}
.step21 {transform: translateX(21504px);}
.step22 {transform: translateX(22528px);}
.step23 {transform: translateX(23552px);}
.step24 {transform: translateX(24576px);}
.step25 {transform: translateX(25600px);}
.step26 {transform: translateX(26624px);}
.step27 {transform: translateX(27648px);}
.step28 {transform: translateX(28672px);}
.step29 {transform: translateX(29696px);}
    </style>

    <path d="M 455 804 Q 506 758 546 742 Q 562 741 571 756 Q 575 771 571 788 Q 553 831 489 842 Q 450 851 436 845 Q 430 844 434 830 Q 437 817 455 804 Z" fill="lightgray" class="stroke step3"/>
    <path d="M 319 649 Q 347 640 466 658 Q 715 698 744 707 Q 750 710 753 711 Q 763 718 758 728 Q 752 741 722 749 Q 692 756 588 727 Q 459 700 407 693 Q 359 690 301 684 C 271 681 289 654 319 649 Z" fill="lightgray" class="stroke step3"/>
    <path d="M 301 684 Q 253 717 233 708 Q 220 701 228 686 Q 246 659 246 592 Q 245 585 245 575 Q 242 410 205 298 Q 172 201 102 84 Q 98 77 95 71 Q 94 59 104 62 Q 140 68 215 198 Q 222 216 233 236 Q 291 371 305 546 Q 308 628 319 649 C 325 669 325 669 301 684 Z" fill="lightgray" class="stroke step3"/>
    <path d="M 481 528 Q 523 588 524 589 Q 523 593 523 595 Q 519 605 496 624 Q 474 639 458 638 Q 443 637 450 619 Q 460 601 426 529 Q 410 498 385 461 Q 378 454 375 448 Q 372 438 384 441 Q 399 444 457 501 L 481 528 Z" fill="lightgray" class="stroke step3"/>
    <path d="M 457 501 Q 481 486 500 492 Q 666 537 678 521 Q 688 508 682 471 Q 672 369 647 325 Q 631 297 607 301 Q 588 308 570 316 Q 548 326 562 301 Q 598 258 612 226 Q 631 205 648 222 Q 702 259 728 389 Q 737 492 760 522 Q 772 535 766 544 Q 757 554 709 576 Q 690 585 671 572 Q 626 548 481 528 C 451 524 430 514 457 501 Z" fill="lightgray" class="hide"/>
    <path d="M 513 273 Q 532 348 554 369 Q 575 394 553 406 Q 535 416 510 433 Q 492 443 475 432 Q 456 419 428 409 Q 407 402 380 394 C 351 385 366 359 394 369 Q 397 372 460 385 Q 479 389 483 381 Q 489 377 482 348 Q 475 317 466 279 C 459 250 505 244 513 273 Z" fill="lightgray" class="hide"/>
    <path d="M 378 229 Q 384 228 393 230 Q 433 239 522 246 Q 531 247 532 254 Q 532 260 513 273 C 494 286 494 286 466 279 Q 420 267 380 258 C 351 251 348 231 378 229 Z" fill="lightgray" class="hide"/>
    <path d="M 889 108 Q 876 136 857 224 Q 856 240 849 246 Q 843 250 838 231 Q 810 137 791 108 Q 770 83 709 66 Q 565 30 450 77 Q 404 99 391 128 Q 372 167 378 229 L 380 258 Q 383 307 393 362 Q 394 366 394 369 C 397 384 397 384 380 394 Q 368 404 350 411 Q 337 415 329 410 Q 322 406 328 388 Q 341 351 338 313 Q 329 153 343 109 Q 350 75 382 46 Q 493 -41 732 -2 Q 748 2 768 7 Q 826 25 882 65 Q 903 81 889 108 Z" fill="lightgray" class="hide"/></g><g transform="scale(1, -1) translate(0, -900)">
    <style type="text/css">
        .origin {display:none;}
        .hide {display:none;}
        .stroke {fill: #000000;}
        
.step1 {transform: translateX(1024px);}
.step2 {transform: translateX(2048px);}
.step3 {transform: translateX(3072px);}
.step4 {transform: translateX(4096px);}
.step5 {transform: translateX(5120px);}
.step6 {transform: translateX(6144px);}
.step7 {transform: translateX(7168px);}
.step8 {transform: translateX(8192px);}
.step9 {transform: translateX(9216px);}
.step10 {transform: translateX(10240px);}
.step11 {transform: translateX(11264px);}
.step12 {transform: translateX(12288px);}
.step13 {transform: translateX(13312px);}
.step14 {transform: translateX(14336px);}
.step15 {transform: translateX(15360px);}
.step16 {transform: translateX(16384px);}
.step17 {transform: translateX(17408px);}
.step18 {transform: translateX(18432px);}
.step19 {transform: translateX(19456px);}
.step20 {transform: translateX(20480px);}
.step21 {transform: translateX(21504px);}
.step22 {transform: translateX(22528px);}
.step23 {transform: translateX(23552px);}
.step24 {transform: translateX(24576px);}
.step25 {transform: translateX(25600px);}
.step26 {transform: translateX(26624px);}
.step27 {transform: translateX(27648px);}
.step28 {transform: translateX(28672px);}
.step29 {transform: translateX(29696px);}
    </style>

    <path d="M 455 804 Q 506 758 546 742 Q 562 741 571 756 Q 575 771 571 788 Q 553 831 489 842 Q 450 851 436 845 Q 430 844 434 830 Q 437 817 455 804 Z" fill="lightgray" class="stroke step4"/>
    <path d="M 319 649 Q 347 640 466 658 Q 715 698 744 707 Q 750 710 753 711 Q 763 718 758 728 Q 752 741 722 749 Q 692 756 588 727 Q 459 700 407 693 Q 359 690 301 684 C 271 681 289 654 319 649 Z" fill="lightgray" class="stroke step4"/>
    <path d="M 301 684 Q 253 717 233 708 Q 220 701 228 686 Q 246 659 246 592 Q 245 585 245 575 Q 242 410 205 298 Q 172 201 102 84 Q 98 77 95 71 Q 94 59 104 62 Q 140 68 215 198 Q 222 216 233 236 Q 291 371 305 546 Q 308 628 319 649 C 325 669 325 669 301 684 Z" fill="lightgray" class="stroke step4"/>
    <path d="M 481 528 Q 523 588 524 589 Q 523 593 523 595 Q 519 605 496 624 Q 474 639 458 638 Q 443 637 450 619 Q 460 601 426 529 Q 410 498 385 461 Q 378 454 375 448 Q 372 438 384 441 Q 399 444 457 501 L 481 528 Z" fill="lightgray" class="stroke step4"/>
    <path d="M 457 501 Q 481 486 500 492 Q 666 537 678 521 Q 688 508 682 471 Q 672 369 647 325 Q 631 297 607 301 Q 588 308 570 316 Q 548 326 562 301 Q 598 258 612 226 Q 631 205 648 222 Q 702 259 728 389 Q 737 492 760 522 Q 772 535 766 544 Q 757 554 709 576 Q 690 585 671 572 Q 626 548 481 528 C 451 524 430 514 457 501 Z" fill="lightgray" class="stroke step4"/>
    <path d="M 513 273 Q 532 348 554 369 Q 575 394 553 406 Q 535 416 510 433 Q 492 443 475 432 Q 456 419 428 409 Q 407 402 380 394 C 351 385 366 359 394 369 Q 397 372 460 385 Q 479 389 483 381 Q 489 377 482 348 Q 475 317 466 279 C 459 250 505 244 513 273 Z" fill="lightgray" class="hide"/>
    <path d="M 378 229 Q 384 228 393 230 Q 433 239 522 246 Q 531 247 532 254 Q 532 260 513 273 C 494 286 494 286 466 279 Q 420 267 380 258 C 351 251 348 231 378 229 Z" fill="lightgray" class="hide"/>
    <path d="M 889 108 Q 876 136 857 224 Q 856 240 849 246 Q 843 250 838 231 Q 810 137 791 108 Q 770 83 709 66 Q 565 30 450 77 Q 404 99 391 128 Q 372 167 378 229 L 380 258 Q 383 307 393 362 Q 394 366 394 369 C 397 384 397 384 380 394 Q 368 404 350 411 Q 337 415 329 410 Q 322 406 328 388 Q 341 351 338 313 Q 329 153 343 109 Q 350 75 382 46 Q 493 -41 732 -2 Q 748 2 768 7 Q 826 25 882 65 Q 903 81 889 108 Z" fill="lightgray" class="hide"/></g><g transform="scale(1, -1) translate(0, -900)">
    <style type="text/css">
        .origin {display:none;}
        .hide {display:none;}
        .stroke {fill: #000000;}
        
.step1 {transform: translateX(1024px);}
.step2 {transform: translateX(2048px);}
.step3 {transform: translateX(3072px);}
.step4 {transform: translateX(4096px);}
.step5 {transform: translateX(5120px);}
.step6 {transform: translateX(6144px);}
.step7 {transform: translateX(7168px);}
.step8 {transform: translateX(8192px);}
.step9 {transform: translateX(9216px);}
.step10 {transform: translateX(10240px);}
.step11 {transform: translateX(11264px);}
.step12 {transform: translateX(12288px);}
.step13 {transform: translateX(13312px);}
.step14 {transform: translateX(14336px);}
.step15 {transform: translateX(15360px);}
.step16 {transform: translateX(16384px);}
.step17 {transform: translateX(17408px);}
.step18 {transform: translateX(18432px);}
.step19 {transform: translateX(19456px);}
.step20 {transform: translateX(20480px);}
.step21 {transform: translateX(21504px);}
.step22 {transform: translateX(22528px);}
.step23 {transform: translateX(23552px);}
.step24 {transform: translateX(24576px);}
.step25 {transform: translateX(25600px);}
.step26 {transform: translateX(26624px);}
.step27 {transform: translateX(27648px);}
.step28 {transform: translateX(28672px);}
.step29 {transform: translateX(29696px);}
    </style>

    <path d="M 455 804 Q 506 758 546 742 Q 562 741 571 756 Q 575 771 571 788 Q 553 831 489 842 Q 450 851 436 845 Q 430 844 434 830 Q 437 817 455 804 Z" fill="lightgray" class="stroke step5"/>
    <path d="M 319 649 Q 347 640 466 658 Q 715 698 744 707 Q 750 710 753 711 Q 763 718 758 728 Q 752 741 722 749 Q 692 756 588 727 Q 459 700 407 693 Q 359 690 301 684 C 271 681 289 654 319 649 Z" fill="lightgray" class="stroke step5"/>
    <path d="M 301 684 Q 253 717 233 708 Q 220 701 228 686 Q 246 659 246 592 Q 245 585 245 575 Q 242 410 205 298 Q 172 201 102 84 Q 98 77 95 71 Q 94 59 104 62 Q 140 68 215 198 Q 222 216 233 236 Q 291 371 305 546 Q 308 628 319 649 C 325 669 325 669 301 684 Z" fill="lightgray" class="stroke step5"/>
    <path d="M 481 528 Q 523 588 524 589 Q 523 593 523 595 Q 519 605 496 624 Q 474 639 458 638 Q 443 637 450 619 Q 460 601 426 529 Q 410 498 385 461 Q 378 454 375 448 Q 372 438 384 441 Q 399 444 457 501 L 481 528 Z" fill="lightgray" class="stroke step5"/>
    <path d="M 457 501 Q 481 486 500 492 Q 666 537 678 521 Q 688 508 682 471 Q 672 369 647 325 Q 631 297 607 301 Q 588 308 570 316 Q 548 326 562 301 Q 598 258 612 226 Q 631 205 648 222 Q 702 259 728 389 Q 737 492 760 522 Q 772 535 766 544 Q 757 554 709 576 Q 690 585 671 572 Q 626 548 481 528 C 451 524 430 514 457 501 Z" fill="lightgray" class="stroke step5"/>
    <path d="M 513 273 Q 532 348 554 369 Q 575 394 553 406 Q 535 416 510 433 Q 492 443 475 432 Q 456 419 428 409 Q 407 402 380 394 C 351 385 366 359 394 369 Q 397 372 460 385 Q 479 389 483 381 Q 489 377 482 348 Q 475 317 466 279 C 459 250 505 244 513 273 Z" fill="lightgray" class="stroke step5"/>
    <path d="M 378 229 Q 384 228 393 230 Q 433 239 522 246 Q 531 247 532 254 Q 532 260 513 273 C 494 286 494 286 466 279 Q 420 267 380 258 C 351 251 348 231 378 229 Z" fill="lightgray" class="hide"/>
    <path d="M 889 108 Q 876 136 857 224 Q 856 240 849 246 Q 843 250 838 231 Q 810 137 791 108 Q 770 83 709 66 Q 565 30 450 77 Q 404 99 391 128 Q 372 167 378 229 L 380 258 Q 383 307 393 362 Q 394 366 394 369 C 397 384 397 384 380 394 Q 368 404 350 411 Q 337 415 329 410 Q 322 406 328 388 Q 341 351 338 313 Q 329 153 343 109 Q 350 75 382 46 Q 493 -41 732 -2 Q 748 2 768 7 Q 826 25 882 65 Q 903 81 889 108 Z" fill="lightgray" class="hide"/></g><g transform="scale(1, -1) translate(0, -900)">
    <style type="text/css">
        .origin {display:none;}
        .hide {display:none;}
        .stroke {fill: #000000;}
        
.step1 {transform: translateX(1024px);}
.step2 {transform: translateX(2048px);}
.step3 {transform: translateX(3072px);}
.step4 {transform: translateX(4096px);}
.step5 {transform: translateX(5120px);}
.step6 {transform: translateX(6144px);}
.step7 {transform: translateX(7168px);}
.step8 {transform: translateX(8192px);}
.step9 {transform: translateX(9216px);}
.step10 {transform: translateX(10240px);}
.step11 {transform: translateX(11264px);}
.step12 {transform: translateX(12288px);}
.step13 {transform: translateX(13312px);}
.step14 {transform: translateX(14336px);}
.step15 {transform: translateX(15360px);}
.step16 {transform: translateX(16384px);}
.step17 {transform: translateX(17408px);}
.step18 {transform: translateX(18432px);}
.step19 {transform: translateX(19456px);}
.step20 {transform: translateX(20480px);}
.step21 {transform: translateX(21504px);}
.step22 {transform: translateX(22528px);}
.step23 {transform: translateX(23552px);}
.step24 {transform: translateX(24576px);}
.step25 {transform: translateX(25600px);}
.step26 {transform: translateX(26624px);}
.step27 {transform: translateX(27648px);}
.step28 {transform: translateX(28672px);}
.step29 {transform: translateX(29696px);}
    </style>

    <path d="M 455 804 Q 506 758 546 742 Q 562 741 571 756 Q 575 771 571 788 Q 553 831 489 842 Q 450 851 436 845 Q 430 844 434 830 Q 437 817 455 804 Z" fill="lightgray" class="stroke step6"/>
    <path d="M 319 649 Q 347 640 466 658 Q 715 698 744 707 Q 750 710 753 711 Q 763 718 758 728 Q 752 741 722 749 Q 692 756 588 727 Q 459 700 407 693 Q 359 690 301 684 C 271 681 289 654 319 649 Z" fill="lightgray" class="stroke step6"/>
    <path d="M 301 684 Q 253 717 233 708 Q 220 701 228 686 Q 246 659 246 592 Q 245 585 245 575 Q 242 410 205 298 Q 172 201 102 84 Q 98 77 95 71 Q 94 59 104 62 Q 140 68 215 198 Q 222 216 233 236 Q 291 371 305 546 Q 308 628 319 649 C 325 669 325 669 301 684 Z" fill="lightgray" class="stroke step6"/>
    <path d="M 481 528 Q 523 588 524 589 Q 523 593 523 595 Q 519 605 496 624 Q 474 639 458 638 Q 443 637 450 619 Q 460 601 426 529 Q 410 498 385 461 Q 378 454 375 448 Q 372 438 384 441 Q 399 444 457 501 L 481 528 Z" fill="lightgray" class="stroke step6"/>
    <path d="M 457 501 Q 481 486 500 492 Q 666 537 678 521 Q 688 508 682 471 Q 672 369 647 325 Q 631 297 607 301 Q 588 308 570 316 Q 548 326 562 301 Q 598 258 612 226 Q 631 205 648 222 Q 702 259 728 389 Q 737 492 760 522 Q 772 535 766 544 Q 757 554 709 576 Q 690 585 671 572 Q 626 548 481 528 C 451 524 430 514 457 501 Z" fill="lightgray" class="stroke step6"/>
    <path d="M 513 273 Q 532 348 554 369 Q 575 394 553 406 Q 535 416 510 433 Q 492 443 475 432 Q 456 419 428 409 Q 407 402 380 394 C 351 385 366 359 394 369 Q 397 372 460 385 Q 479 389 483 381 Q 489 377 482 348 Q 475 317 466 279 C 459 250 505 244 513 273 Z" fill="lightgray" class="stroke step6"/>
    <path d="M 378 229 Q 384 228 393 230 Q 433 239 522 246 Q 531 247 532 254 Q 532 260 513 273 C 494 286 494 286 466 279 Q 420 267 380 258 C 351 251 348 231 378 229 Z" fill="lightgray" class="stroke step6"/>
    <path d="M 889 108 Q 876 136 857 224 Q 856 240 849 246 Q 843 250 838 231 Q 810 137 791 108 Q 770 83 709 66 Q 565 30 450 77 Q 404 99 391 128 Q 372 167 378 229 L 380 258 Q 383 307 393 362 Q 394 366 394 369 C 397 384 397 384 380 394 Q 368 404 350 411 Q 337 415 329 410 Q 322 406 328 388 Q 341 351 338 313 Q 329 153 343 109 Q 350 75 382 46 Q 493 -41 732 -2 Q 748 2 768 7 Q 826 25 882 65 Q 903 81 889 108 Z" fill="lightgray" class="hide"/></g><g transform="scale(1, -1) translate(0, -900)">
    <style type="text/css">
        .origin {display:none;}
        .hide {display:none;}
        .stroke {fill: #000000;}
        
.step1 {transform: translateX(1024px);}
.step2 {transform: translateX(2048px);}
.step3 {transform: translateX(3072px);}
.step4 {transform: translateX(4096px);}
.step5 {transform: translateX(5120px);}
.step6 {transform: translateX(6144px);}
.step7 {transform: translateX(7168px);}
.step8 {transform: translateX(8192px);}
.step9 {transform: translateX(9216px);}
.step10 {transform: translateX(10240px);}
.step11 {transform: translateX(11264px);}
.step12 {transform: translateX(12288px);}
.step13 {transform: translateX(13312px);}
.step14 {transform: translateX(14336px);}
.step15 {transform: translateX(15360px);}
.step16 {transform: translateX(16384px);}
.step17 {transform: translateX(17408px);}
.step18 {transform: translateX(18432px);}
.step19 {transform: translateX(19456px);}
.step20 {transform: translateX(20480px);}
.step21 {transform: translateX(21504px);}
.step22 {transform: translateX(22528px);}
.step23 {transform: translateX(23552px);}
.step24 {transform: translateX(24576px);}
.step25 {transform: translateX(25600px);}
.step26 {transform: translateX(26624px);}
.step27 {transform: translateX(27648px);}
.step28 {transform: translateX(28672px);}
.step29 {transform: translateX(29696px);}
    </style>

    <path d="M 455 804 Q 506 758 546 742 Q 562 741 571 756 Q 575 771 571 788 Q 553 831 489 842 Q 450 851 436 845 Q 430 844 434 830 Q 437 817 455 804 Z" fill="lightgray" class="stroke step7"/>
    <path d="M 319 649 Q 347 640 466 658 Q 715 698 744 707 Q 750 710 753 711 Q 763 718 758 728 Q 752 741 722 749 Q 692 756 588 727 Q 459 700 407 693 Q 359 690 301 684 C 271 681 289 654 319 649 Z" fill="lightgray" class="stroke step7"/>
    <path d="M 301 684 Q 253 717 233 708 Q 220 701 228 686 Q 246 659 246 592 Q 245 585 245 575 Q 242 410 205 298 Q 172 201 102 84 Q 98 77 95 71 Q 94 59 104 62 Q 140 68 215 198 Q 222 216 233 236 Q 291 371 305 546 Q 308 628 319 649 C 325 669 325 669 301 684 Z" fill="lightgray" class="stroke step7"/>
    <path d="M 481 528 Q 523 588 524 589 Q 523 593 523 595 Q 519 605 496 624 Q 474 639 458 638 Q 443 637 450 619 Q 460 601 426 529 Q 410 498 385 461 Q 378 454 375 448 Q 372 438 384 441 Q 399 444 457 501 L 481 528 Z" fill="lightgray" class="stroke step7"/>
    <path d="M 457 501 Q 481 486 500 492 Q 666 537 678 521 Q 688 508 682 471 Q 672 369 647 325 Q 631 297 607 301 Q 588 308 570 316 Q 548 326 562 301 Q 598 258 612 226 Q 631 205 648 222 Q 702 259 728 389 Q 737 492 760 522 Q 772 535 766 544 Q 757 554 709 576 Q 690 585 671 572 Q 626 548 481 528 C 451 524 430 514 457 501 Z" fill="lightgray" class="stroke step7"/>
    <path d="M 513 273 Q 532 348 554 369 Q 575 394 553 406 Q 535 416 510 433 Q 492 443 475 432 Q 456 419 428 409 Q 407 402 380 394 C 351 385 366 359 394 369 Q 397 372 460 385 Q 479 389 483 381 Q 489 377 482 348 Q 475 317 466 279 C 459 250 505 244 513 273 Z" fill="lightgray" class="stroke step7"/>
    <path d="M 378 229 Q 384 228 393 230 Q 433 239 522 246 Q 531 247 532 254 Q 532 260 513 273 C 494 286 494 286 466 279 Q 420 267 380 258 C 351 251 348 231 378 229 Z" fill="lightgray" class="stroke step7"/>
    <path d="M 889 108 Q 876 136 857 224 Q 856 240 849 246 Q 843 250 838 231 Q 810 137 791 108 Q 770 83 709 66 Q 565 30 450 77 Q 404 99 391 128 Q 372 167 378 229 L 380 258 Q 383 307 393 362 Q 394 366 394 369 C 397 384 397 384 380 394 Q 368 404 350 411 Q 337 415 329 410 Q 322 406 328 388 Q 341 351 338 313 Q 329 153 343 109 Q 350 75 382 46 Q 493 -41 732 -2 Q 748 2 768 7 Q 826 25 882 65 Q 903 81 889 108 Z" fill="lightgray" class="stroke step7"/></g></svg>