<svg version="1.1" viewBox="0 0 4096 1024" xmlns="http://www.w3.org/2000/svg">
  
  <g transform="scale(1, -1) translate(0, -900)" class="origin">
    <style type="text/css">
        .origin {display:none;}
        .hide {display:none;}
        .stroke {fill: #000000;}
        
.step1 {transform: translateX(1024px);}
.step2 {transform: translateX(2048px);}
.step3 {transform: translateX(3072px);}
.step4 {transform: translateX(4096px);}
.step5 {transform: translateX(5120px);}
.step6 {transform: translateX(6144px);}
.step7 {transform: translateX(7168px);}
.step8 {transform: translateX(8192px);}
.step9 {transform: translateX(9216px);}
.step10 {transform: translateX(10240px);}
.step11 {transform: translateX(11264px);}
.step12 {transform: translateX(12288px);}
.step13 {transform: translateX(13312px);}
.step14 {transform: translateX(14336px);}
.step15 {transform: translateX(15360px);}
.step16 {transform: translateX(16384px);}
.step17 {transform: translateX(17408px);}
.step18 {transform: translateX(18432px);}
.step19 {transform: translateX(19456px);}
.step20 {transform: translateX(20480px);}
.step21 {transform: translateX(21504px);}
.step22 {transform: translateX(22528px);}
.step23 {transform: translateX(23552px);}
.step24 {transform: translateX(24576px);}
.step25 {transform: translateX(25600px);}
.step26 {transform: translateX(26624px);}
.step27 {transform: translateX(27648px);}
.step28 {transform: translateX(28672px);}
.step29 {transform: translateX(29696px);}
    </style>

    <path d="M 612 685 Q 634 691 660 694 Q 717 706 726 713 Q 736 722 731 731 Q 724 744 693 753 Q 663 760 557 728 Q 431 700 324 691 Q 284 687 312 667 Q 355 640 417 652 Q 487 665 561 677 L 612 685 Z" fill="lightgray"/>
    <path d="M 653 401 Q 752 411 907 399 Q 932 396 938 405 Q 945 418 933 431 Q 902 459 857 480 Q 842 487 815 478 Q 742 462 667 451 Q 660 451 653 449 L 594 442 Q 453 429 407 421 L 350 414 Q 310 413 282 407 Q 209 395 101 394 Q 86 394 85 382 Q 85 369 104 354 Q 149 321 187 334 Q 229 350 342 365 Q 343 366 347 366 L 403 375 Q 460 387 594 395 L 653 401 Z" fill="lightgray"/>
    <path d="M 407 421 Q 411 464 413 514 Q 417 535 419 546 Q 425 568 403 578 Q 354 603 337 601 Q 316 597 333 574 Q 354 535 350 414 L 347 366 Q 347 245 264 128 Q 216 77 200 61 Q 185 48 182 41 Q 179 34 192 34 Q 208 34 230 49 Q 273 77 300 106 Q 373 187 394 314 Q 398 342 403 375 L 407 421 Z" fill="lightgray"/>
    <path d="M 599 -2 Q 605 -30 613 -41 Q 619 -48 627 -46 Q 645 -37 651 31 Q 658 115 656 197 Q 653 248 653 401 L 653 449 Q 653 554 665 632 Q 669 651 653 663 Q 628 679 612 685 C 585 698 551 705 561 677 Q 558 670 577 643 Q 587 622 593 530 Q 593 490 594 442 L 594 395 Q 588 68 599 -2 Z" fill="lightgray"/></g>
<g transform="scale(1, -1) translate(0, -900)">
    <style type="text/css">
        .origin {display:none;}
        .hide {display:none;}
        .stroke {fill: #000000;}
        
.step1 {transform: translateX(1024px);}
.step2 {transform: translateX(2048px);}
.step3 {transform: translateX(3072px);}
.step4 {transform: translateX(4096px);}
.step5 {transform: translateX(5120px);}
.step6 {transform: translateX(6144px);}
.step7 {transform: translateX(7168px);}
.step8 {transform: translateX(8192px);}
.step9 {transform: translateX(9216px);}
.step10 {transform: translateX(10240px);}
.step11 {transform: translateX(11264px);}
.step12 {transform: translateX(12288px);}
.step13 {transform: translateX(13312px);}
.step14 {transform: translateX(14336px);}
.step15 {transform: translateX(15360px);}
.step16 {transform: translateX(16384px);}
.step17 {transform: translateX(17408px);}
.step18 {transform: translateX(18432px);}
.step19 {transform: translateX(19456px);}
.step20 {transform: translateX(20480px);}
.step21 {transform: translateX(21504px);}
.step22 {transform: translateX(22528px);}
.step23 {transform: translateX(23552px);}
.step24 {transform: translateX(24576px);}
.step25 {transform: translateX(25600px);}
.step26 {transform: translateX(26624px);}
.step27 {transform: translateX(27648px);}
.step28 {transform: translateX(28672px);}
.step29 {transform: translateX(29696px);}
    </style>

    <path d="M 612 685 Q 634 691 660 694 Q 717 706 726 713 Q 736 722 731 731 Q 724 744 693 753 Q 663 760 557 728 Q 431 700 324 691 Q 284 687 312 667 Q 355 640 417 652 Q 487 665 561 677 L 612 685 Z" fill="lightgray" class="stroke step0"/>
    <path d="M 653 401 Q 752 411 907 399 Q 932 396 938 405 Q 945 418 933 431 Q 902 459 857 480 Q 842 487 815 478 Q 742 462 667 451 Q 660 451 653 449 L 594 442 Q 453 429 407 421 L 350 414 Q 310 413 282 407 Q 209 395 101 394 Q 86 394 85 382 Q 85 369 104 354 Q 149 321 187 334 Q 229 350 342 365 Q 343 366 347 366 L 403 375 Q 460 387 594 395 L 653 401 Z" fill="lightgray" class="hide"/>
    <path d="M 407 421 Q 411 464 413 514 Q 417 535 419 546 Q 425 568 403 578 Q 354 603 337 601 Q 316 597 333 574 Q 354 535 350 414 L 347 366 Q 347 245 264 128 Q 216 77 200 61 Q 185 48 182 41 Q 179 34 192 34 Q 208 34 230 49 Q 273 77 300 106 Q 373 187 394 314 Q 398 342 403 375 L 407 421 Z" fill="lightgray" class="hide"/>
    <path d="M 599 -2 Q 605 -30 613 -41 Q 619 -48 627 -46 Q 645 -37 651 31 Q 658 115 656 197 Q 653 248 653 401 L 653 449 Q 653 554 665 632 Q 669 651 653 663 Q 628 679 612 685 C 585 698 551 705 561 677 Q 558 670 577 643 Q 587 622 593 530 Q 593 490 594 442 L 594 395 Q 588 68 599 -2 Z" fill="lightgray" class="hide"/></g><g transform="scale(1, -1) translate(0, -900)">
    <style type="text/css">
        .origin {display:none;}
        .hide {display:none;}
        .stroke {fill: #000000;}
        
.step1 {transform: translateX(1024px);}
.step2 {transform: translateX(2048px);}
.step3 {transform: translateX(3072px);}
.step4 {transform: translateX(4096px);}
.step5 {transform: translateX(5120px);}
.step6 {transform: translateX(6144px);}
.step7 {transform: translateX(7168px);}
.step8 {transform: translateX(8192px);}
.step9 {transform: translateX(9216px);}
.step10 {transform: translateX(10240px);}
.step11 {transform: translateX(11264px);}
.step12 {transform: translateX(12288px);}
.step13 {transform: translateX(13312px);}
.step14 {transform: translateX(14336px);}
.step15 {transform: translateX(15360px);}
.step16 {transform: translateX(16384px);}
.step17 {transform: translateX(17408px);}
.step18 {transform: translateX(18432px);}
.step19 {transform: translateX(19456px);}
.step20 {transform: translateX(20480px);}
.step21 {transform: translateX(21504px);}
.step22 {transform: translateX(22528px);}
.step23 {transform: translateX(23552px);}
.step24 {transform: translateX(24576px);}
.step25 {transform: translateX(25600px);}
.step26 {transform: translateX(26624px);}
.step27 {transform: translateX(27648px);}
.step28 {transform: translateX(28672px);}
.step29 {transform: translateX(29696px);}
    </style>

    <path d="M 612 685 Q 634 691 660 694 Q 717 706 726 713 Q 736 722 731 731 Q 724 744 693 753 Q 663 760 557 728 Q 431 700 324 691 Q 284 687 312 667 Q 355 640 417 652 Q 487 665 561 677 L 612 685 Z" fill="lightgray" class="stroke step1"/>
    <path d="M 653 401 Q 752 411 907 399 Q 932 396 938 405 Q 945 418 933 431 Q 902 459 857 480 Q 842 487 815 478 Q 742 462 667 451 Q 660 451 653 449 L 594 442 Q 453 429 407 421 L 350 414 Q 310 413 282 407 Q 209 395 101 394 Q 86 394 85 382 Q 85 369 104 354 Q 149 321 187 334 Q 229 350 342 365 Q 343 366 347 366 L 403 375 Q 460 387 594 395 L 653 401 Z" fill="lightgray" class="stroke step1"/>
    <path d="M 407 421 Q 411 464 413 514 Q 417 535 419 546 Q 425 568 403 578 Q 354 603 337 601 Q 316 597 333 574 Q 354 535 350 414 L 347 366 Q 347 245 264 128 Q 216 77 200 61 Q 185 48 182 41 Q 179 34 192 34 Q 208 34 230 49 Q 273 77 300 106 Q 373 187 394 314 Q 398 342 403 375 L 407 421 Z" fill="lightgray" class="hide"/>
    <path d="M 599 -2 Q 605 -30 613 -41 Q 619 -48 627 -46 Q 645 -37 651 31 Q 658 115 656 197 Q 653 248 653 401 L 653 449 Q 653 554 665 632 Q 669 651 653 663 Q 628 679 612 685 C 585 698 551 705 561 677 Q 558 670 577 643 Q 587 622 593 530 Q 593 490 594 442 L 594 395 Q 588 68 599 -2 Z" fill="lightgray" class="hide"/></g><g transform="scale(1, -1) translate(0, -900)">
    <style type="text/css">
        .origin {display:none;}
        .hide {display:none;}
        .stroke {fill: #000000;}
        
.step1 {transform: translateX(1024px);}
.step2 {transform: translateX(2048px);}
.step3 {transform: translateX(3072px);}
.step4 {transform: translateX(4096px);}
.step5 {transform: translateX(5120px);}
.step6 {transform: translateX(6144px);}
.step7 {transform: translateX(7168px);}
.step8 {transform: translateX(8192px);}
.step9 {transform: translateX(9216px);}
.step10 {transform: translateX(10240px);}
.step11 {transform: translateX(11264px);}
.step12 {transform: translateX(12288px);}
.step13 {transform: translateX(13312px);}
.step14 {transform: translateX(14336px);}
.step15 {transform: translateX(15360px);}
.step16 {transform: translateX(16384px);}
.step17 {transform: translateX(17408px);}
.step18 {transform: translateX(18432px);}
.step19 {transform: translateX(19456px);}
.step20 {transform: translateX(20480px);}
.step21 {transform: translateX(21504px);}
.step22 {transform: translateX(22528px);}
.step23 {transform: translateX(23552px);}
.step24 {transform: translateX(24576px);}
.step25 {transform: translateX(25600px);}
.step26 {transform: translateX(26624px);}
.step27 {transform: translateX(27648px);}
.step28 {transform: translateX(28672px);}
.step29 {transform: translateX(29696px);}
    </style>

    <path d="M 612 685 Q 634 691 660 694 Q 717 706 726 713 Q 736 722 731 731 Q 724 744 693 753 Q 663 760 557 728 Q 431 700 324 691 Q 284 687 312 667 Q 355 640 417 652 Q 487 665 561 677 L 612 685 Z" fill="lightgray" class="stroke step2"/>
    <path d="M 653 401 Q 752 411 907 399 Q 932 396 938 405 Q 945 418 933 431 Q 902 459 857 480 Q 842 487 815 478 Q 742 462 667 451 Q 660 451 653 449 L 594 442 Q 453 429 407 421 L 350 414 Q 310 413 282 407 Q 209 395 101 394 Q 86 394 85 382 Q 85 369 104 354 Q 149 321 187 334 Q 229 350 342 365 Q 343 366 347 366 L 403 375 Q 460 387 594 395 L 653 401 Z" fill="lightgray" class="stroke step2"/>
    <path d="M 407 421 Q 411 464 413 514 Q 417 535 419 546 Q 425 568 403 578 Q 354 603 337 601 Q 316 597 333 574 Q 354 535 350 414 L 347 366 Q 347 245 264 128 Q 216 77 200 61 Q 185 48 182 41 Q 179 34 192 34 Q 208 34 230 49 Q 273 77 300 106 Q 373 187 394 314 Q 398 342 403 375 L 407 421 Z" fill="lightgray" class="stroke step2"/>
    <path d="M 599 -2 Q 605 -30 613 -41 Q 619 -48 627 -46 Q 645 -37 651 31 Q 658 115 656 197 Q 653 248 653 401 L 653 449 Q 653 554 665 632 Q 669 651 653 663 Q 628 679 612 685 C 585 698 551 705 561 677 Q 558 670 577 643 Q 587 622 593 530 Q 593 490 594 442 L 594 395 Q 588 68 599 -2 Z" fill="lightgray" class="hide"/></g><g transform="scale(1, -1) translate(0, -900)">
    <style type="text/css">
        .origin {display:none;}
        .hide {display:none;}
        .stroke {fill: #000000;}
        
.step1 {transform: translateX(1024px);}
.step2 {transform: translateX(2048px);}
.step3 {transform: translateX(3072px);}
.step4 {transform: translateX(4096px);}
.step5 {transform: translateX(5120px);}
.step6 {transform: translateX(6144px);}
.step7 {transform: translateX(7168px);}
.step8 {transform: translateX(8192px);}
.step9 {transform: translateX(9216px);}
.step10 {transform: translateX(10240px);}
.step11 {transform: translateX(11264px);}
.step12 {transform: translateX(12288px);}
.step13 {transform: translateX(13312px);}
.step14 {transform: translateX(14336px);}
.step15 {transform: translateX(15360px);}
.step16 {transform: translateX(16384px);}
.step17 {transform: translateX(17408px);}
.step18 {transform: translateX(18432px);}
.step19 {transform: translateX(19456px);}
.step20 {transform: translateX(20480px);}
.step21 {transform: translateX(21504px);}
.step22 {transform: translateX(22528px);}
.step23 {transform: translateX(23552px);}
.step24 {transform: translateX(24576px);}
.step25 {transform: translateX(25600px);}
.step26 {transform: translateX(26624px);}
.step27 {transform: translateX(27648px);}
.step28 {transform: translateX(28672px);}
.step29 {transform: translateX(29696px);}
    </style>

    <path d="M 612 685 Q 634 691 660 694 Q 717 706 726 713 Q 736 722 731 731 Q 724 744 693 753 Q 663 760 557 728 Q 431 700 324 691 Q 284 687 312 667 Q 355 640 417 652 Q 487 665 561 677 L 612 685 Z" fill="lightgray" class="stroke step3"/>
    <path d="M 653 401 Q 752 411 907 399 Q 932 396 938 405 Q 945 418 933 431 Q 902 459 857 480 Q 842 487 815 478 Q 742 462 667 451 Q 660 451 653 449 L 594 442 Q 453 429 407 421 L 350 414 Q 310 413 282 407 Q 209 395 101 394 Q 86 394 85 382 Q 85 369 104 354 Q 149 321 187 334 Q 229 350 342 365 Q 343 366 347 366 L 403 375 Q 460 387 594 395 L 653 401 Z" fill="lightgray" class="stroke step3"/>
    <path d="M 407 421 Q 411 464 413 514 Q 417 535 419 546 Q 425 568 403 578 Q 354 603 337 601 Q 316 597 333 574 Q 354 535 350 414 L 347 366 Q 347 245 264 128 Q 216 77 200 61 Q 185 48 182 41 Q 179 34 192 34 Q 208 34 230 49 Q 273 77 300 106 Q 373 187 394 314 Q 398 342 403 375 L 407 421 Z" fill="lightgray" class="stroke step3"/>
    <path d="M 599 -2 Q 605 -30 613 -41 Q 619 -48 627 -46 Q 645 -37 651 31 Q 658 115 656 197 Q 653 248 653 401 L 653 449 Q 653 554 665 632 Q 669 651 653 663 Q 628 679 612 685 C 585 698 551 705 561 677 Q 558 670 577 643 Q 587 622 593 530 Q 593 490 594 442 L 594 395 Q 588 68 599 -2 Z" fill="lightgray" class="stroke step3"/></g></svg>