<svg version="1.1" viewBox="0 0 8192 1024" xmlns="http://www.w3.org/2000/svg">
  
  <g transform="scale(1, -1) translate(0, -900)" class="origin">
    <style type="text/css">
        .origin {display:none;}
        .hide {display:none;}
        .stroke {fill: #000000;}
        
.step1 {transform: translateX(1024px);}
.step2 {transform: translateX(2048px);}
.step3 {transform: translateX(3072px);}
.step4 {transform: translateX(4096px);}
.step5 {transform: translateX(5120px);}
.step6 {transform: translateX(6144px);}
.step7 {transform: translateX(7168px);}
.step8 {transform: translateX(8192px);}
.step9 {transform: translateX(9216px);}
.step10 {transform: translateX(10240px);}
.step11 {transform: translateX(11264px);}
.step12 {transform: translateX(12288px);}
.step13 {transform: translateX(13312px);}
.step14 {transform: translateX(14336px);}
.step15 {transform: translateX(15360px);}
.step16 {transform: translateX(16384px);}
.step17 {transform: translateX(17408px);}
.step18 {transform: translateX(18432px);}
.step19 {transform: translateX(19456px);}
.step20 {transform: translateX(20480px);}
.step21 {transform: translateX(21504px);}
.step22 {transform: translateX(22528px);}
.step23 {transform: translateX(23552px);}
.step24 {transform: translateX(24576px);}
.step25 {transform: translateX(25600px);}
.step26 {transform: translateX(26624px);}
.step27 {transform: translateX(27648px);}
.step28 {transform: translateX(28672px);}
.step29 {transform: translateX(29696px);}
    </style>

    <path d="M 366 570 Q 391 655 420 680 Q 445 707 422 723 Q 401 736 373 756 Q 352 771 308 743 Q 256 722 180 712 Q 167 712 169 705 Q 170 699 184 691 Q 202 682 285 698 Q 333 708 340 698 Q 347 691 335 650 Q 325 613 310 570 C 300 542 357 541 366 570 Z" fill="lightgray"/>
    <path d="M 216 509 Q 225 508 236 511 Q 282 524 382 537 Q 392 538 393 548 Q 393 555 366 570 C 346 581 339 579 310 570 Q 249 551 202 540 C 173 533 186 510 216 509 Z" fill="lightgray"/>
    <path d="M 280 378 Q 302 379 310 369 Q 322 353 316 312 Q 306 215 280 148 Q 264 108 249 92 Q 239 82 213 92 Q 182 102 157 109 Q 139 115 142 104 Q 145 91 160 77 Q 197 41 217 7 Q 235 -15 256 -1 Q 332 57 343 124 Q 382 335 389 345 Q 390 348 393 351 Q 405 370 394 381 Q 381 399 349 415 Q 327 425 254 406 Q 194 397 194 398 Q 190 401 193 412 Q 202 449 213 494 Q 214 503 216 509 C 220 528 220 528 202 540 Q 192 550 170 560 Q 157 570 148 563 Q 138 556 148 542 Q 166 511 155 463 Q 142 400 115 376 Q 102 361 107 348 Q 114 335 125 326 Q 135 319 155 334 Q 179 356 206 364 Q 255 379 280 378 Z" fill="lightgray"/>
    <path d="M 663 510 Q 699 550 736 615 Q 755 645 784 663 Q 800 672 801 681 Q 802 696 771 715 Q 734 742 717 742 Q 704 742 692 734 Q 590 698 514 692 Q 472 693 470 683 Q 469 679 476 673 Q 521 637 647 681 Q 671 688 680 680 Q 687 676 663 621 Q 594 467 416 397 Q 406 393 406 388 Q 407 384 415 383 Q 532 380 644 490 L 663 510 Z" fill="lightgray"/>
    <path d="M 644 490 Q 645 489 650 485 Q 723 440 816 373 Q 835 357 850 355 Q 859 356 864 367 Q 874 382 854 422 Q 826 479 663 510 C 634 516 621 509 644 490 Z" fill="lightgray"/>
    <path d="M 620 292 Q 675 304 731 313 Q 768 320 774 325 Q 784 334 779 343 Q 772 356 740 365 Q 709 372 675 360 Q 633 347 588 337 Q 539 327 479 323 Q 440 319 468 299 Q 510 272 572 285 Q 575 286 580 285 L 620 292 Z" fill="lightgray"/>
    <path d="M 629 107 Q 647 263 648 265 Q 635 281 620 292 C 596 310 574 314 580 285 Q 587 258 583 102 C 582 72 626 77 629 107 Z" fill="lightgray"/>
    <path d="M 583 102 Q 489 95 382 83 Q 360 82 376 63 Q 391 47 409 41 Q 431 34 449 39 Q 629 79 877 61 Q 877 62 879 61 Q 901 60 906 69 Q 912 82 895 97 Q 838 142 773 128 Q 715 119 629 107 L 583 102 Z" fill="lightgray"/></g>
<g transform="scale(1, -1) translate(0, -900)">
    <style type="text/css">
        .origin {display:none;}
        .hide {display:none;}
        .stroke {fill: #000000;}
        
.step1 {transform: translateX(1024px);}
.step2 {transform: translateX(2048px);}
.step3 {transform: translateX(3072px);}
.step4 {transform: translateX(4096px);}
.step5 {transform: translateX(5120px);}
.step6 {transform: translateX(6144px);}
.step7 {transform: translateX(7168px);}
.step8 {transform: translateX(8192px);}
.step9 {transform: translateX(9216px);}
.step10 {transform: translateX(10240px);}
.step11 {transform: translateX(11264px);}
.step12 {transform: translateX(12288px);}
.step13 {transform: translateX(13312px);}
.step14 {transform: translateX(14336px);}
.step15 {transform: translateX(15360px);}
.step16 {transform: translateX(16384px);}
.step17 {transform: translateX(17408px);}
.step18 {transform: translateX(18432px);}
.step19 {transform: translateX(19456px);}
.step20 {transform: translateX(20480px);}
.step21 {transform: translateX(21504px);}
.step22 {transform: translateX(22528px);}
.step23 {transform: translateX(23552px);}
.step24 {transform: translateX(24576px);}
.step25 {transform: translateX(25600px);}
.step26 {transform: translateX(26624px);}
.step27 {transform: translateX(27648px);}
.step28 {transform: translateX(28672px);}
.step29 {transform: translateX(29696px);}
    </style>

    <path d="M 366 570 Q 391 655 420 680 Q 445 707 422 723 Q 401 736 373 756 Q 352 771 308 743 Q 256 722 180 712 Q 167 712 169 705 Q 170 699 184 691 Q 202 682 285 698 Q 333 708 340 698 Q 347 691 335 650 Q 325 613 310 570 C 300 542 357 541 366 570 Z" fill="lightgray" class="stroke step0"/>
    <path d="M 216 509 Q 225 508 236 511 Q 282 524 382 537 Q 392 538 393 548 Q 393 555 366 570 C 346 581 339 579 310 570 Q 249 551 202 540 C 173 533 186 510 216 509 Z" fill="lightgray" class="hide"/>
    <path d="M 280 378 Q 302 379 310 369 Q 322 353 316 312 Q 306 215 280 148 Q 264 108 249 92 Q 239 82 213 92 Q 182 102 157 109 Q 139 115 142 104 Q 145 91 160 77 Q 197 41 217 7 Q 235 -15 256 -1 Q 332 57 343 124 Q 382 335 389 345 Q 390 348 393 351 Q 405 370 394 381 Q 381 399 349 415 Q 327 425 254 406 Q 194 397 194 398 Q 190 401 193 412 Q 202 449 213 494 Q 214 503 216 509 C 220 528 220 528 202 540 Q 192 550 170 560 Q 157 570 148 563 Q 138 556 148 542 Q 166 511 155 463 Q 142 400 115 376 Q 102 361 107 348 Q 114 335 125 326 Q 135 319 155 334 Q 179 356 206 364 Q 255 379 280 378 Z" fill="lightgray" class="hide"/>
    <path d="M 663 510 Q 699 550 736 615 Q 755 645 784 663 Q 800 672 801 681 Q 802 696 771 715 Q 734 742 717 742 Q 704 742 692 734 Q 590 698 514 692 Q 472 693 470 683 Q 469 679 476 673 Q 521 637 647 681 Q 671 688 680 680 Q 687 676 663 621 Q 594 467 416 397 Q 406 393 406 388 Q 407 384 415 383 Q 532 380 644 490 L 663 510 Z" fill="lightgray" class="hide"/>
    <path d="M 644 490 Q 645 489 650 485 Q 723 440 816 373 Q 835 357 850 355 Q 859 356 864 367 Q 874 382 854 422 Q 826 479 663 510 C 634 516 621 509 644 490 Z" fill="lightgray" class="hide"/>
    <path d="M 620 292 Q 675 304 731 313 Q 768 320 774 325 Q 784 334 779 343 Q 772 356 740 365 Q 709 372 675 360 Q 633 347 588 337 Q 539 327 479 323 Q 440 319 468 299 Q 510 272 572 285 Q 575 286 580 285 L 620 292 Z" fill="lightgray" class="hide"/>
    <path d="M 629 107 Q 647 263 648 265 Q 635 281 620 292 C 596 310 574 314 580 285 Q 587 258 583 102 C 582 72 626 77 629 107 Z" fill="lightgray" class="hide"/>
    <path d="M 583 102 Q 489 95 382 83 Q 360 82 376 63 Q 391 47 409 41 Q 431 34 449 39 Q 629 79 877 61 Q 877 62 879 61 Q 901 60 906 69 Q 912 82 895 97 Q 838 142 773 128 Q 715 119 629 107 L 583 102 Z" fill="lightgray" class="hide"/></g><g transform="scale(1, -1) translate(0, -900)">
    <style type="text/css">
        .origin {display:none;}
        .hide {display:none;}
        .stroke {fill: #000000;}
        
.step1 {transform: translateX(1024px);}
.step2 {transform: translateX(2048px);}
.step3 {transform: translateX(3072px);}
.step4 {transform: translateX(4096px);}
.step5 {transform: translateX(5120px);}
.step6 {transform: translateX(6144px);}
.step7 {transform: translateX(7168px);}
.step8 {transform: translateX(8192px);}
.step9 {transform: translateX(9216px);}
.step10 {transform: translateX(10240px);}
.step11 {transform: translateX(11264px);}
.step12 {transform: translateX(12288px);}
.step13 {transform: translateX(13312px);}
.step14 {transform: translateX(14336px);}
.step15 {transform: translateX(15360px);}
.step16 {transform: translateX(16384px);}
.step17 {transform: translateX(17408px);}
.step18 {transform: translateX(18432px);}
.step19 {transform: translateX(19456px);}
.step20 {transform: translateX(20480px);}
.step21 {transform: translateX(21504px);}
.step22 {transform: translateX(22528px);}
.step23 {transform: translateX(23552px);}
.step24 {transform: translateX(24576px);}
.step25 {transform: translateX(25600px);}
.step26 {transform: translateX(26624px);}
.step27 {transform: translateX(27648px);}
.step28 {transform: translateX(28672px);}
.step29 {transform: translateX(29696px);}
    </style>

    <path d="M 366 570 Q 391 655 420 680 Q 445 707 422 723 Q 401 736 373 756 Q 352 771 308 743 Q 256 722 180 712 Q 167 712 169 705 Q 170 699 184 691 Q 202 682 285 698 Q 333 708 340 698 Q 347 691 335 650 Q 325 613 310 570 C 300 542 357 541 366 570 Z" fill="lightgray" class="stroke step1"/>
    <path d="M 216 509 Q 225 508 236 511 Q 282 524 382 537 Q 392 538 393 548 Q 393 555 366 570 C 346 581 339 579 310 570 Q 249 551 202 540 C 173 533 186 510 216 509 Z" fill="lightgray" class="stroke step1"/>
    <path d="M 280 378 Q 302 379 310 369 Q 322 353 316 312 Q 306 215 280 148 Q 264 108 249 92 Q 239 82 213 92 Q 182 102 157 109 Q 139 115 142 104 Q 145 91 160 77 Q 197 41 217 7 Q 235 -15 256 -1 Q 332 57 343 124 Q 382 335 389 345 Q 390 348 393 351 Q 405 370 394 381 Q 381 399 349 415 Q 327 425 254 406 Q 194 397 194 398 Q 190 401 193 412 Q 202 449 213 494 Q 214 503 216 509 C 220 528 220 528 202 540 Q 192 550 170 560 Q 157 570 148 563 Q 138 556 148 542 Q 166 511 155 463 Q 142 400 115 376 Q 102 361 107 348 Q 114 335 125 326 Q 135 319 155 334 Q 179 356 206 364 Q 255 379 280 378 Z" fill="lightgray" class="hide"/>
    <path d="M 663 510 Q 699 550 736 615 Q 755 645 784 663 Q 800 672 801 681 Q 802 696 771 715 Q 734 742 717 742 Q 704 742 692 734 Q 590 698 514 692 Q 472 693 470 683 Q 469 679 476 673 Q 521 637 647 681 Q 671 688 680 680 Q 687 676 663 621 Q 594 467 416 397 Q 406 393 406 388 Q 407 384 415 383 Q 532 380 644 490 L 663 510 Z" fill="lightgray" class="hide"/>
    <path d="M 644 490 Q 645 489 650 485 Q 723 440 816 373 Q 835 357 850 355 Q 859 356 864 367 Q 874 382 854 422 Q 826 479 663 510 C 634 516 621 509 644 490 Z" fill="lightgray" class="hide"/>
    <path d="M 620 292 Q 675 304 731 313 Q 768 320 774 325 Q 784 334 779 343 Q 772 356 740 365 Q 709 372 675 360 Q 633 347 588 337 Q 539 327 479 323 Q 440 319 468 299 Q 510 272 572 285 Q 575 286 580 285 L 620 292 Z" fill="lightgray" class="hide"/>
    <path d="M 629 107 Q 647 263 648 265 Q 635 281 620 292 C 596 310 574 314 580 285 Q 587 258 583 102 C 582 72 626 77 629 107 Z" fill="lightgray" class="hide"/>
    <path d="M 583 102 Q 489 95 382 83 Q 360 82 376 63 Q 391 47 409 41 Q 431 34 449 39 Q 629 79 877 61 Q 877 62 879 61 Q 901 60 906 69 Q 912 82 895 97 Q 838 142 773 128 Q 715 119 629 107 L 583 102 Z" fill="lightgray" class="hide"/></g><g transform="scale(1, -1) translate(0, -900)">
    <style type="text/css">
        .origin {display:none;}
        .hide {display:none;}
        .stroke {fill: #000000;}
        
.step1 {transform: translateX(1024px);}
.step2 {transform: translateX(2048px);}
.step3 {transform: translateX(3072px);}
.step4 {transform: translateX(4096px);}
.step5 {transform: translateX(5120px);}
.step6 {transform: translateX(6144px);}
.step7 {transform: translateX(7168px);}
.step8 {transform: translateX(8192px);}
.step9 {transform: translateX(9216px);}
.step10 {transform: translateX(10240px);}
.step11 {transform: translateX(11264px);}
.step12 {transform: translateX(12288px);}
.step13 {transform: translateX(13312px);}
.step14 {transform: translateX(14336px);}
.step15 {transform: translateX(15360px);}
.step16 {transform: translateX(16384px);}
.step17 {transform: translateX(17408px);}
.step18 {transform: translateX(18432px);}
.step19 {transform: translateX(19456px);}
.step20 {transform: translateX(20480px);}
.step21 {transform: translateX(21504px);}
.step22 {transform: translateX(22528px);}
.step23 {transform: translateX(23552px);}
.step24 {transform: translateX(24576px);}
.step25 {transform: translateX(25600px);}
.step26 {transform: translateX(26624px);}
.step27 {transform: translateX(27648px);}
.step28 {transform: translateX(28672px);}
.step29 {transform: translateX(29696px);}
    </style>

    <path d="M 366 570 Q 391 655 420 680 Q 445 707 422 723 Q 401 736 373 756 Q 352 771 308 743 Q 256 722 180 712 Q 167 712 169 705 Q 170 699 184 691 Q 202 682 285 698 Q 333 708 340 698 Q 347 691 335 650 Q 325 613 310 570 C 300 542 357 541 366 570 Z" fill="lightgray" class="stroke step2"/>
    <path d="M 216 509 Q 225 508 236 511 Q 282 524 382 537 Q 392 538 393 548 Q 393 555 366 570 C 346 581 339 579 310 570 Q 249 551 202 540 C 173 533 186 510 216 509 Z" fill="lightgray" class="stroke step2"/>
    <path d="M 280 378 Q 302 379 310 369 Q 322 353 316 312 Q 306 215 280 148 Q 264 108 249 92 Q 239 82 213 92 Q 182 102 157 109 Q 139 115 142 104 Q 145 91 160 77 Q 197 41 217 7 Q 235 -15 256 -1 Q 332 57 343 124 Q 382 335 389 345 Q 390 348 393 351 Q 405 370 394 381 Q 381 399 349 415 Q 327 425 254 406 Q 194 397 194 398 Q 190 401 193 412 Q 202 449 213 494 Q 214 503 216 509 C 220 528 220 528 202 540 Q 192 550 170 560 Q 157 570 148 563 Q 138 556 148 542 Q 166 511 155 463 Q 142 400 115 376 Q 102 361 107 348 Q 114 335 125 326 Q 135 319 155 334 Q 179 356 206 364 Q 255 379 280 378 Z" fill="lightgray" class="stroke step2"/>
    <path d="M 663 510 Q 699 550 736 615 Q 755 645 784 663 Q 800 672 801 681 Q 802 696 771 715 Q 734 742 717 742 Q 704 742 692 734 Q 590 698 514 692 Q 472 693 470 683 Q 469 679 476 673 Q 521 637 647 681 Q 671 688 680 680 Q 687 676 663 621 Q 594 467 416 397 Q 406 393 406 388 Q 407 384 415 383 Q 532 380 644 490 L 663 510 Z" fill="lightgray" class="hide"/>
    <path d="M 644 490 Q 645 489 650 485 Q 723 440 816 373 Q 835 357 850 355 Q 859 356 864 367 Q 874 382 854 422 Q 826 479 663 510 C 634 516 621 509 644 490 Z" fill="lightgray" class="hide"/>
    <path d="M 620 292 Q 675 304 731 313 Q 768 320 774 325 Q 784 334 779 343 Q 772 356 740 365 Q 709 372 675 360 Q 633 347 588 337 Q 539 327 479 323 Q 440 319 468 299 Q 510 272 572 285 Q 575 286 580 285 L 620 292 Z" fill="lightgray" class="hide"/>
    <path d="M 629 107 Q 647 263 648 265 Q 635 281 620 292 C 596 310 574 314 580 285 Q 587 258 583 102 C 582 72 626 77 629 107 Z" fill="lightgray" class="hide"/>
    <path d="M 583 102 Q 489 95 382 83 Q 360 82 376 63 Q 391 47 409 41 Q 431 34 449 39 Q 629 79 877 61 Q 877 62 879 61 Q 901 60 906 69 Q 912 82 895 97 Q 838 142 773 128 Q 715 119 629 107 L 583 102 Z" fill="lightgray" class="hide"/></g><g transform="scale(1, -1) translate(0, -900)">
    <style type="text/css">
        .origin {display:none;}
        .hide {display:none;}
        .stroke {fill: #000000;}
        
.step1 {transform: translateX(1024px);}
.step2 {transform: translateX(2048px);}
.step3 {transform: translateX(3072px);}
.step4 {transform: translateX(4096px);}
.step5 {transform: translateX(5120px);}
.step6 {transform: translateX(6144px);}
.step7 {transform: translateX(7168px);}
.step8 {transform: translateX(8192px);}
.step9 {transform: translateX(9216px);}
.step10 {transform: translateX(10240px);}
.step11 {transform: translateX(11264px);}
.step12 {transform: translateX(12288px);}
.step13 {transform: translateX(13312px);}
.step14 {transform: translateX(14336px);}
.step15 {transform: translateX(15360px);}
.step16 {transform: translateX(16384px);}
.step17 {transform: translateX(17408px);}
.step18 {transform: translateX(18432px);}
.step19 {transform: translateX(19456px);}
.step20 {transform: translateX(20480px);}
.step21 {transform: translateX(21504px);}
.step22 {transform: translateX(22528px);}
.step23 {transform: translateX(23552px);}
.step24 {transform: translateX(24576px);}
.step25 {transform: translateX(25600px);}
.step26 {transform: translateX(26624px);}
.step27 {transform: translateX(27648px);}
.step28 {transform: translateX(28672px);}
.step29 {transform: translateX(29696px);}
    </style>

    <path d="M 366 570 Q 391 655 420 680 Q 445 707 422 723 Q 401 736 373 756 Q 352 771 308 743 Q 256 722 180 712 Q 167 712 169 705 Q 170 699 184 691 Q 202 682 285 698 Q 333 708 340 698 Q 347 691 335 650 Q 325 613 310 570 C 300 542 357 541 366 570 Z" fill="lightgray" class="stroke step3"/>
    <path d="M 216 509 Q 225 508 236 511 Q 282 524 382 537 Q 392 538 393 548 Q 393 555 366 570 C 346 581 339 579 310 570 Q 249 551 202 540 C 173 533 186 510 216 509 Z" fill="lightgray" class="stroke step3"/>
    <path d="M 280 378 Q 302 379 310 369 Q 322 353 316 312 Q 306 215 280 148 Q 264 108 249 92 Q 239 82 213 92 Q 182 102 157 109 Q 139 115 142 104 Q 145 91 160 77 Q 197 41 217 7 Q 235 -15 256 -1 Q 332 57 343 124 Q 382 335 389 345 Q 390 348 393 351 Q 405 370 394 381 Q 381 399 349 415 Q 327 425 254 406 Q 194 397 194 398 Q 190 401 193 412 Q 202 449 213 494 Q 214 503 216 509 C 220 528 220 528 202 540 Q 192 550 170 560 Q 157 570 148 563 Q 138 556 148 542 Q 166 511 155 463 Q 142 400 115 376 Q 102 361 107 348 Q 114 335 125 326 Q 135 319 155 334 Q 179 356 206 364 Q 255 379 280 378 Z" fill="lightgray" class="stroke step3"/>
    <path d="M 663 510 Q 699 550 736 615 Q 755 645 784 663 Q 800 672 801 681 Q 802 696 771 715 Q 734 742 717 742 Q 704 742 692 734 Q 590 698 514 692 Q 472 693 470 683 Q 469 679 476 673 Q 521 637 647 681 Q 671 688 680 680 Q 687 676 663 621 Q 594 467 416 397 Q 406 393 406 388 Q 407 384 415 383 Q 532 380 644 490 L 663 510 Z" fill="lightgray" class="stroke step3"/>
    <path d="M 644 490 Q 645 489 650 485 Q 723 440 816 373 Q 835 357 850 355 Q 859 356 864 367 Q 874 382 854 422 Q 826 479 663 510 C 634 516 621 509 644 490 Z" fill="lightgray" class="hide"/>
    <path d="M 620 292 Q 675 304 731 313 Q 768 320 774 325 Q 784 334 779 343 Q 772 356 740 365 Q 709 372 675 360 Q 633 347 588 337 Q 539 327 479 323 Q 440 319 468 299 Q 510 272 572 285 Q 575 286 580 285 L 620 292 Z" fill="lightgray" class="hide"/>
    <path d="M 629 107 Q 647 263 648 265 Q 635 281 620 292 C 596 310 574 314 580 285 Q 587 258 583 102 C 582 72 626 77 629 107 Z" fill="lightgray" class="hide"/>
    <path d="M 583 102 Q 489 95 382 83 Q 360 82 376 63 Q 391 47 409 41 Q 431 34 449 39 Q 629 79 877 61 Q 877 62 879 61 Q 901 60 906 69 Q 912 82 895 97 Q 838 142 773 128 Q 715 119 629 107 L 583 102 Z" fill="lightgray" class="hide"/></g><g transform="scale(1, -1) translate(0, -900)">
    <style type="text/css">
        .origin {display:none;}
        .hide {display:none;}
        .stroke {fill: #000000;}
        
.step1 {transform: translateX(1024px);}
.step2 {transform: translateX(2048px);}
.step3 {transform: translateX(3072px);}
.step4 {transform: translateX(4096px);}
.step5 {transform: translateX(5120px);}
.step6 {transform: translateX(6144px);}
.step7 {transform: translateX(7168px);}
.step8 {transform: translateX(8192px);}
.step9 {transform: translateX(9216px);}
.step10 {transform: translateX(10240px);}
.step11 {transform: translateX(11264px);}
.step12 {transform: translateX(12288px);}
.step13 {transform: translateX(13312px);}
.step14 {transform: translateX(14336px);}
.step15 {transform: translateX(15360px);}
.step16 {transform: translateX(16384px);}
.step17 {transform: translateX(17408px);}
.step18 {transform: translateX(18432px);}
.step19 {transform: translateX(19456px);}
.step20 {transform: translateX(20480px);}
.step21 {transform: translateX(21504px);}
.step22 {transform: translateX(22528px);}
.step23 {transform: translateX(23552px);}
.step24 {transform: translateX(24576px);}
.step25 {transform: translateX(25600px);}
.step26 {transform: translateX(26624px);}
.step27 {transform: translateX(27648px);}
.step28 {transform: translateX(28672px);}
.step29 {transform: translateX(29696px);}
    </style>

    <path d="M 366 570 Q 391 655 420 680 Q 445 707 422 723 Q 401 736 373 756 Q 352 771 308 743 Q 256 722 180 712 Q 167 712 169 705 Q 170 699 184 691 Q 202 682 285 698 Q 333 708 340 698 Q 347 691 335 650 Q 325 613 310 570 C 300 542 357 541 366 570 Z" fill="lightgray" class="stroke step4"/>
    <path d="M 216 509 Q 225 508 236 511 Q 282 524 382 537 Q 392 538 393 548 Q 393 555 366 570 C 346 581 339 579 310 570 Q 249 551 202 540 C 173 533 186 510 216 509 Z" fill="lightgray" class="stroke step4"/>
    <path d="M 280 378 Q 302 379 310 369 Q 322 353 316 312 Q 306 215 280 148 Q 264 108 249 92 Q 239 82 213 92 Q 182 102 157 109 Q 139 115 142 104 Q 145 91 160 77 Q 197 41 217 7 Q 235 -15 256 -1 Q 332 57 343 124 Q 382 335 389 345 Q 390 348 393 351 Q 405 370 394 381 Q 381 399 349 415 Q 327 425 254 406 Q 194 397 194 398 Q 190 401 193 412 Q 202 449 213 494 Q 214 503 216 509 C 220 528 220 528 202 540 Q 192 550 170 560 Q 157 570 148 563 Q 138 556 148 542 Q 166 511 155 463 Q 142 400 115 376 Q 102 361 107 348 Q 114 335 125 326 Q 135 319 155 334 Q 179 356 206 364 Q 255 379 280 378 Z" fill="lightgray" class="stroke step4"/>
    <path d="M 663 510 Q 699 550 736 615 Q 755 645 784 663 Q 800 672 801 681 Q 802 696 771 715 Q 734 742 717 742 Q 704 742 692 734 Q 590 698 514 692 Q 472 693 470 683 Q 469 679 476 673 Q 521 637 647 681 Q 671 688 680 680 Q 687 676 663 621 Q 594 467 416 397 Q 406 393 406 388 Q 407 384 415 383 Q 532 380 644 490 L 663 510 Z" fill="lightgray" class="stroke step4"/>
    <path d="M 644 490 Q 645 489 650 485 Q 723 440 816 373 Q 835 357 850 355 Q 859 356 864 367 Q 874 382 854 422 Q 826 479 663 510 C 634 516 621 509 644 490 Z" fill="lightgray" class="stroke step4"/>
    <path d="M 620 292 Q 675 304 731 313 Q 768 320 774 325 Q 784 334 779 343 Q 772 356 740 365 Q 709 372 675 360 Q 633 347 588 337 Q 539 327 479 323 Q 440 319 468 299 Q 510 272 572 285 Q 575 286 580 285 L 620 292 Z" fill="lightgray" class="hide"/>
    <path d="M 629 107 Q 647 263 648 265 Q 635 281 620 292 C 596 310 574 314 580 285 Q 587 258 583 102 C 582 72 626 77 629 107 Z" fill="lightgray" class="hide"/>
    <path d="M 583 102 Q 489 95 382 83 Q 360 82 376 63 Q 391 47 409 41 Q 431 34 449 39 Q 629 79 877 61 Q 877 62 879 61 Q 901 60 906 69 Q 912 82 895 97 Q 838 142 773 128 Q 715 119 629 107 L 583 102 Z" fill="lightgray" class="hide"/></g><g transform="scale(1, -1) translate(0, -900)">
    <style type="text/css">
        .origin {display:none;}
        .hide {display:none;}
        .stroke {fill: #000000;}
        
.step1 {transform: translateX(1024px);}
.step2 {transform: translateX(2048px);}
.step3 {transform: translateX(3072px);}
.step4 {transform: translateX(4096px);}
.step5 {transform: translateX(5120px);}
.step6 {transform: translateX(6144px);}
.step7 {transform: translateX(7168px);}
.step8 {transform: translateX(8192px);}
.step9 {transform: translateX(9216px);}
.step10 {transform: translateX(10240px);}
.step11 {transform: translateX(11264px);}
.step12 {transform: translateX(12288px);}
.step13 {transform: translateX(13312px);}
.step14 {transform: translateX(14336px);}
.step15 {transform: translateX(15360px);}
.step16 {transform: translateX(16384px);}
.step17 {transform: translateX(17408px);}
.step18 {transform: translateX(18432px);}
.step19 {transform: translateX(19456px);}
.step20 {transform: translateX(20480px);}
.step21 {transform: translateX(21504px);}
.step22 {transform: translateX(22528px);}
.step23 {transform: translateX(23552px);}
.step24 {transform: translateX(24576px);}
.step25 {transform: translateX(25600px);}
.step26 {transform: translateX(26624px);}
.step27 {transform: translateX(27648px);}
.step28 {transform: translateX(28672px);}
.step29 {transform: translateX(29696px);}
    </style>

    <path d="M 366 570 Q 391 655 420 680 Q 445 707 422 723 Q 401 736 373 756 Q 352 771 308 743 Q 256 722 180 712 Q 167 712 169 705 Q 170 699 184 691 Q 202 682 285 698 Q 333 708 340 698 Q 347 691 335 650 Q 325 613 310 570 C 300 542 357 541 366 570 Z" fill="lightgray" class="stroke step5"/>
    <path d="M 216 509 Q 225 508 236 511 Q 282 524 382 537 Q 392 538 393 548 Q 393 555 366 570 C 346 581 339 579 310 570 Q 249 551 202 540 C 173 533 186 510 216 509 Z" fill="lightgray" class="stroke step5"/>
    <path d="M 280 378 Q 302 379 310 369 Q 322 353 316 312 Q 306 215 280 148 Q 264 108 249 92 Q 239 82 213 92 Q 182 102 157 109 Q 139 115 142 104 Q 145 91 160 77 Q 197 41 217 7 Q 235 -15 256 -1 Q 332 57 343 124 Q 382 335 389 345 Q 390 348 393 351 Q 405 370 394 381 Q 381 399 349 415 Q 327 425 254 406 Q 194 397 194 398 Q 190 401 193 412 Q 202 449 213 494 Q 214 503 216 509 C 220 528 220 528 202 540 Q 192 550 170 560 Q 157 570 148 563 Q 138 556 148 542 Q 166 511 155 463 Q 142 400 115 376 Q 102 361 107 348 Q 114 335 125 326 Q 135 319 155 334 Q 179 356 206 364 Q 255 379 280 378 Z" fill="lightgray" class="stroke step5"/>
    <path d="M 663 510 Q 699 550 736 615 Q 755 645 784 663 Q 800 672 801 681 Q 802 696 771 715 Q 734 742 717 742 Q 704 742 692 734 Q 590 698 514 692 Q 472 693 470 683 Q 469 679 476 673 Q 521 637 647 681 Q 671 688 680 680 Q 687 676 663 621 Q 594 467 416 397 Q 406 393 406 388 Q 407 384 415 383 Q 532 380 644 490 L 663 510 Z" fill="lightgray" class="stroke step5"/>
    <path d="M 644 490 Q 645 489 650 485 Q 723 440 816 373 Q 835 357 850 355 Q 859 356 864 367 Q 874 382 854 422 Q 826 479 663 510 C 634 516 621 509 644 490 Z" fill="lightgray" class="stroke step5"/>
    <path d="M 620 292 Q 675 304 731 313 Q 768 320 774 325 Q 784 334 779 343 Q 772 356 740 365 Q 709 372 675 360 Q 633 347 588 337 Q 539 327 479 323 Q 440 319 468 299 Q 510 272 572 285 Q 575 286 580 285 L 620 292 Z" fill="lightgray" class="stroke step5"/>
    <path d="M 629 107 Q 647 263 648 265 Q 635 281 620 292 C 596 310 574 314 580 285 Q 587 258 583 102 C 582 72 626 77 629 107 Z" fill="lightgray" class="hide"/>
    <path d="M 583 102 Q 489 95 382 83 Q 360 82 376 63 Q 391 47 409 41 Q 431 34 449 39 Q 629 79 877 61 Q 877 62 879 61 Q 901 60 906 69 Q 912 82 895 97 Q 838 142 773 128 Q 715 119 629 107 L 583 102 Z" fill="lightgray" class="hide"/></g><g transform="scale(1, -1) translate(0, -900)">
    <style type="text/css">
        .origin {display:none;}
        .hide {display:none;}
        .stroke {fill: #000000;}
        
.step1 {transform: translateX(1024px);}
.step2 {transform: translateX(2048px);}
.step3 {transform: translateX(3072px);}
.step4 {transform: translateX(4096px);}
.step5 {transform: translateX(5120px);}
.step6 {transform: translateX(6144px);}
.step7 {transform: translateX(7168px);}
.step8 {transform: translateX(8192px);}
.step9 {transform: translateX(9216px);}
.step10 {transform: translateX(10240px);}
.step11 {transform: translateX(11264px);}
.step12 {transform: translateX(12288px);}
.step13 {transform: translateX(13312px);}
.step14 {transform: translateX(14336px);}
.step15 {transform: translateX(15360px);}
.step16 {transform: translateX(16384px);}
.step17 {transform: translateX(17408px);}
.step18 {transform: translateX(18432px);}
.step19 {transform: translateX(19456px);}
.step20 {transform: translateX(20480px);}
.step21 {transform: translateX(21504px);}
.step22 {transform: translateX(22528px);}
.step23 {transform: translateX(23552px);}
.step24 {transform: translateX(24576px);}
.step25 {transform: translateX(25600px);}
.step26 {transform: translateX(26624px);}
.step27 {transform: translateX(27648px);}
.step28 {transform: translateX(28672px);}
.step29 {transform: translateX(29696px);}
    </style>

    <path d="M 366 570 Q 391 655 420 680 Q 445 707 422 723 Q 401 736 373 756 Q 352 771 308 743 Q 256 722 180 712 Q 167 712 169 705 Q 170 699 184 691 Q 202 682 285 698 Q 333 708 340 698 Q 347 691 335 650 Q 325 613 310 570 C 300 542 357 541 366 570 Z" fill="lightgray" class="stroke step6"/>
    <path d="M 216 509 Q 225 508 236 511 Q 282 524 382 537 Q 392 538 393 548 Q 393 555 366 570 C 346 581 339 579 310 570 Q 249 551 202 540 C 173 533 186 510 216 509 Z" fill="lightgray" class="stroke step6"/>
    <path d="M 280 378 Q 302 379 310 369 Q 322 353 316 312 Q 306 215 280 148 Q 264 108 249 92 Q 239 82 213 92 Q 182 102 157 109 Q 139 115 142 104 Q 145 91 160 77 Q 197 41 217 7 Q 235 -15 256 -1 Q 332 57 343 124 Q 382 335 389 345 Q 390 348 393 351 Q 405 370 394 381 Q 381 399 349 415 Q 327 425 254 406 Q 194 397 194 398 Q 190 401 193 412 Q 202 449 213 494 Q 214 503 216 509 C 220 528 220 528 202 540 Q 192 550 170 560 Q 157 570 148 563 Q 138 556 148 542 Q 166 511 155 463 Q 142 400 115 376 Q 102 361 107 348 Q 114 335 125 326 Q 135 319 155 334 Q 179 356 206 364 Q 255 379 280 378 Z" fill="lightgray" class="stroke step6"/>
    <path d="M 663 510 Q 699 550 736 615 Q 755 645 784 663 Q 800 672 801 681 Q 802 696 771 715 Q 734 742 717 742 Q 704 742 692 734 Q 590 698 514 692 Q 472 693 470 683 Q 469 679 476 673 Q 521 637 647 681 Q 671 688 680 680 Q 687 676 663 621 Q 594 467 416 397 Q 406 393 406 388 Q 407 384 415 383 Q 532 380 644 490 L 663 510 Z" fill="lightgray" class="stroke step6"/>
    <path d="M 644 490 Q 645 489 650 485 Q 723 440 816 373 Q 835 357 850 355 Q 859 356 864 367 Q 874 382 854 422 Q 826 479 663 510 C 634 516 621 509 644 490 Z" fill="lightgray" class="stroke step6"/>
    <path d="M 620 292 Q 675 304 731 313 Q 768 320 774 325 Q 784 334 779 343 Q 772 356 740 365 Q 709 372 675 360 Q 633 347 588 337 Q 539 327 479 323 Q 440 319 468 299 Q 510 272 572 285 Q 575 286 580 285 L 620 292 Z" fill="lightgray" class="stroke step6"/>
    <path d="M 629 107 Q 647 263 648 265 Q 635 281 620 292 C 596 310 574 314 580 285 Q 587 258 583 102 C 582 72 626 77 629 107 Z" fill="lightgray" class="stroke step6"/>
    <path d="M 583 102 Q 489 95 382 83 Q 360 82 376 63 Q 391 47 409 41 Q 431 34 449 39 Q 629 79 877 61 Q 877 62 879 61 Q 901 60 906 69 Q 912 82 895 97 Q 838 142 773 128 Q 715 119 629 107 L 583 102 Z" fill="lightgray" class="hide"/></g><g transform="scale(1, -1) translate(0, -900)">
    <style type="text/css">
        .origin {display:none;}
        .hide {display:none;}
        .stroke {fill: #000000;}
        
.step1 {transform: translateX(1024px);}
.step2 {transform: translateX(2048px);}
.step3 {transform: translateX(3072px);}
.step4 {transform: translateX(4096px);}
.step5 {transform: translateX(5120px);}
.step6 {transform: translateX(6144px);}
.step7 {transform: translateX(7168px);}
.step8 {transform: translateX(8192px);}
.step9 {transform: translateX(9216px);}
.step10 {transform: translateX(10240px);}
.step11 {transform: translateX(11264px);}
.step12 {transform: translateX(12288px);}
.step13 {transform: translateX(13312px);}
.step14 {transform: translateX(14336px);}
.step15 {transform: translateX(15360px);}
.step16 {transform: translateX(16384px);}
.step17 {transform: translateX(17408px);}
.step18 {transform: translateX(18432px);}
.step19 {transform: translateX(19456px);}
.step20 {transform: translateX(20480px);}
.step21 {transform: translateX(21504px);}
.step22 {transform: translateX(22528px);}
.step23 {transform: translateX(23552px);}
.step24 {transform: translateX(24576px);}
.step25 {transform: translateX(25600px);}
.step26 {transform: translateX(26624px);}
.step27 {transform: translateX(27648px);}
.step28 {transform: translateX(28672px);}
.step29 {transform: translateX(29696px);}
    </style>

    <path d="M 366 570 Q 391 655 420 680 Q 445 707 422 723 Q 401 736 373 756 Q 352 771 308 743 Q 256 722 180 712 Q 167 712 169 705 Q 170 699 184 691 Q 202 682 285 698 Q 333 708 340 698 Q 347 691 335 650 Q 325 613 310 570 C 300 542 357 541 366 570 Z" fill="lightgray" class="stroke step7"/>
    <path d="M 216 509 Q 225 508 236 511 Q 282 524 382 537 Q 392 538 393 548 Q 393 555 366 570 C 346 581 339 579 310 570 Q 249 551 202 540 C 173 533 186 510 216 509 Z" fill="lightgray" class="stroke step7"/>
    <path d="M 280 378 Q 302 379 310 369 Q 322 353 316 312 Q 306 215 280 148 Q 264 108 249 92 Q 239 82 213 92 Q 182 102 157 109 Q 139 115 142 104 Q 145 91 160 77 Q 197 41 217 7 Q 235 -15 256 -1 Q 332 57 343 124 Q 382 335 389 345 Q 390 348 393 351 Q 405 370 394 381 Q 381 399 349 415 Q 327 425 254 406 Q 194 397 194 398 Q 190 401 193 412 Q 202 449 213 494 Q 214 503 216 509 C 220 528 220 528 202 540 Q 192 550 170 560 Q 157 570 148 563 Q 138 556 148 542 Q 166 511 155 463 Q 142 400 115 376 Q 102 361 107 348 Q 114 335 125 326 Q 135 319 155 334 Q 179 356 206 364 Q 255 379 280 378 Z" fill="lightgray" class="stroke step7"/>
    <path d="M 663 510 Q 699 550 736 615 Q 755 645 784 663 Q 800 672 801 681 Q 802 696 771 715 Q 734 742 717 742 Q 704 742 692 734 Q 590 698 514 692 Q 472 693 470 683 Q 469 679 476 673 Q 521 637 647 681 Q 671 688 680 680 Q 687 676 663 621 Q 594 467 416 397 Q 406 393 406 388 Q 407 384 415 383 Q 532 380 644 490 L 663 510 Z" fill="lightgray" class="stroke step7"/>
    <path d="M 644 490 Q 645 489 650 485 Q 723 440 816 373 Q 835 357 850 355 Q 859 356 864 367 Q 874 382 854 422 Q 826 479 663 510 C 634 516 621 509 644 490 Z" fill="lightgray" class="stroke step7"/>
    <path d="M 620 292 Q 675 304 731 313 Q 768 320 774 325 Q 784 334 779 343 Q 772 356 740 365 Q 709 372 675 360 Q 633 347 588 337 Q 539 327 479 323 Q 440 319 468 299 Q 510 272 572 285 Q 575 286 580 285 L 620 292 Z" fill="lightgray" class="stroke step7"/>
    <path d="M 629 107 Q 647 263 648 265 Q 635 281 620 292 C 596 310 574 314 580 285 Q 587 258 583 102 C 582 72 626 77 629 107 Z" fill="lightgray" class="stroke step7"/>
    <path d="M 583 102 Q 489 95 382 83 Q 360 82 376 63 Q 391 47 409 41 Q 431 34 449 39 Q 629 79 877 61 Q 877 62 879 61 Q 901 60 906 69 Q 912 82 895 97 Q 838 142 773 128 Q 715 119 629 107 L 583 102 Z" fill="lightgray" class="stroke step7"/></g></svg>