<svg version="1.1" viewBox="0 0 10240 1024" xmlns="http://www.w3.org/2000/svg">
  
  <g transform="scale(1, -1) translate(0, -900)" class="origin">
    <style type="text/css">
        .origin {display:none;}
        .hide {display:none;}
        .stroke {fill: #000000;}
        
.step1 {transform: translateX(1024px);}
.step2 {transform: translateX(2048px);}
.step3 {transform: translateX(3072px);}
.step4 {transform: translateX(4096px);}
.step5 {transform: translateX(5120px);}
.step6 {transform: translateX(6144px);}
.step7 {transform: translateX(7168px);}
.step8 {transform: translateX(8192px);}
.step9 {transform: translateX(9216px);}
.step10 {transform: translateX(10240px);}
.step11 {transform: translateX(11264px);}
.step12 {transform: translateX(12288px);}
.step13 {transform: translateX(13312px);}
.step14 {transform: translateX(14336px);}
.step15 {transform: translateX(15360px);}
.step16 {transform: translateX(16384px);}
.step17 {transform: translateX(17408px);}
.step18 {transform: translateX(18432px);}
.step19 {transform: translateX(19456px);}
.step20 {transform: translateX(20480px);}
.step21 {transform: translateX(21504px);}
.step22 {transform: translateX(22528px);}
.step23 {transform: translateX(23552px);}
.step24 {transform: translateX(24576px);}
.step25 {transform: translateX(25600px);}
.step26 {transform: translateX(26624px);}
.step27 {transform: translateX(27648px);}
.step28 {transform: translateX(28672px);}
.step29 {transform: translateX(29696px);}
    </style>

    <path d="M 292 792 Q 304 756 219 651 Q 179 603 127 552 Q 115 545 113 538 Q 109 528 122 529 Q 173 529 319 683 Q 337 711 364 728 Q 374 737 372 750 Q 371 763 346 789 Q 324 810 305 813 Q 287 813 292 792 Z" fill="lightgray"/>
    <path d="M 243 400 Q 276 434 313 476 Q 340 510 361 526 Q 371 536 369 550 Q 368 563 342 589 Q 318 611 300 613 Q 281 613 286 591 Q 295 564 282 544 Q 216 429 71 289 Q 59 280 56 275 Q 52 265 66 265 Q 105 271 196 356 Q 203 363 212 370 L 243 400 Z" fill="lightgray"/>
    <path d="M 212 370 Q 248 295 207 95 Q 186 56 221 0 Q 224 -7 230 -12 Q 246 -28 258 -2 Q 273 38 272 83 Q 273 282 280 327 Q 287 354 278 364 Q 245 400 243 400 C 221 420 201 398 212 370 Z" fill="lightgray"/>
    <path d="M 624 615 Q 676 628 735 639 Q 777 649 783 655 Q 792 662 787 672 Q 780 684 750 691 Q 720 697 628 664 L 577 651 Q 525 641 465 634 Q 428 627 455 610 Q 500 586 558 602 Q 565 605 578 605 L 624 615 Z" fill="lightgray"/>
    <path d="M 456 491 Q 499 440 515 438 Q 524 438 529 449 Q 533 461 529 487 Q 523 512 455 532 Q 442 536 436 535 Q 432 532 432 520 Q 433 510 456 491 Z" fill="lightgray"/>
    <path d="M 716 566 Q 697 535 655 484 Q 651 477 655 471 Q 662 470 669 474 Q 747 526 785 546 Q 801 550 797 561 Q 793 576 774 594 Q 756 610 735 613 Q 722 612 722 594 Q 723 581 716 566 Z" fill="lightgray"/>
    <path d="M 630 370 Q 714 383 843 386 Q 900 386 908 396 Q 914 409 897 422 Q 843 458 806 449 Q 737 433 621 409 L 577 401 Q 574 401 563 398 Q 470 386 364 367 Q 343 364 359 347 Q 386 323 442 333 Q 485 346 539 356 L 630 370 Z" fill="lightgray"/>
    <path d="M 574 312 Q 574 165 548 73 Q 536 31 563 -30 Q 570 -48 578 -51 Q 585 -58 592 -49 Q 599 -45 610 -24 Q 620 1 619 33 Q 618 72 620 334 L 621 409 Q 621 575 624 615 L 628 664 Q 632 709 643 744 Q 652 759 649 773 Q 642 783 586 817 Q 562 833 541 818 Q 537 814 542 798 Q 576 747 577 696 Q 577 674 577 651 L 578 605 Q 579 557 577 401 L 574 312 Z" fill="lightgray"/>
    <path d="M 539 356 Q 470 217 279 67 Q 267 54 276 53 Q 285 49 297 54 Q 438 114 553 284 Q 565 302 574 312 C 618 366 563 402 539 356 Z" fill="lightgray"/>
    <path d="M 620 334 Q 774 58 830 53 Q 894 57 952 58 Q 976 59 976 65 Q 977 72 951 86 Q 821 149 772 197 Q 685 290 630 370 C 613 395 596 376 620 334 Z" fill="lightgray"/></g>
<g transform="scale(1, -1) translate(0, -900)">
    <style type="text/css">
        .origin {display:none;}
        .hide {display:none;}
        .stroke {fill: #000000;}
        
.step1 {transform: translateX(1024px);}
.step2 {transform: translateX(2048px);}
.step3 {transform: translateX(3072px);}
.step4 {transform: translateX(4096px);}
.step5 {transform: translateX(5120px);}
.step6 {transform: translateX(6144px);}
.step7 {transform: translateX(7168px);}
.step8 {transform: translateX(8192px);}
.step9 {transform: translateX(9216px);}
.step10 {transform: translateX(10240px);}
.step11 {transform: translateX(11264px);}
.step12 {transform: translateX(12288px);}
.step13 {transform: translateX(13312px);}
.step14 {transform: translateX(14336px);}
.step15 {transform: translateX(15360px);}
.step16 {transform: translateX(16384px);}
.step17 {transform: translateX(17408px);}
.step18 {transform: translateX(18432px);}
.step19 {transform: translateX(19456px);}
.step20 {transform: translateX(20480px);}
.step21 {transform: translateX(21504px);}
.step22 {transform: translateX(22528px);}
.step23 {transform: translateX(23552px);}
.step24 {transform: translateX(24576px);}
.step25 {transform: translateX(25600px);}
.step26 {transform: translateX(26624px);}
.step27 {transform: translateX(27648px);}
.step28 {transform: translateX(28672px);}
.step29 {transform: translateX(29696px);}
    </style>

    <path d="M 292 792 Q 304 756 219 651 Q 179 603 127 552 Q 115 545 113 538 Q 109 528 122 529 Q 173 529 319 683 Q 337 711 364 728 Q 374 737 372 750 Q 371 763 346 789 Q 324 810 305 813 Q 287 813 292 792 Z" fill="lightgray" class="stroke step0"/>
    <path d="M 243 400 Q 276 434 313 476 Q 340 510 361 526 Q 371 536 369 550 Q 368 563 342 589 Q 318 611 300 613 Q 281 613 286 591 Q 295 564 282 544 Q 216 429 71 289 Q 59 280 56 275 Q 52 265 66 265 Q 105 271 196 356 Q 203 363 212 370 L 243 400 Z" fill="lightgray" class="hide"/>
    <path d="M 212 370 Q 248 295 207 95 Q 186 56 221 0 Q 224 -7 230 -12 Q 246 -28 258 -2 Q 273 38 272 83 Q 273 282 280 327 Q 287 354 278 364 Q 245 400 243 400 C 221 420 201 398 212 370 Z" fill="lightgray" class="hide"/>
    <path d="M 624 615 Q 676 628 735 639 Q 777 649 783 655 Q 792 662 787 672 Q 780 684 750 691 Q 720 697 628 664 L 577 651 Q 525 641 465 634 Q 428 627 455 610 Q 500 586 558 602 Q 565 605 578 605 L 624 615 Z" fill="lightgray" class="hide"/>
    <path d="M 456 491 Q 499 440 515 438 Q 524 438 529 449 Q 533 461 529 487 Q 523 512 455 532 Q 442 536 436 535 Q 432 532 432 520 Q 433 510 456 491 Z" fill="lightgray" class="hide"/>
    <path d="M 716 566 Q 697 535 655 484 Q 651 477 655 471 Q 662 470 669 474 Q 747 526 785 546 Q 801 550 797 561 Q 793 576 774 594 Q 756 610 735 613 Q 722 612 722 594 Q 723 581 716 566 Z" fill="lightgray" class="hide"/>
    <path d="M 630 370 Q 714 383 843 386 Q 900 386 908 396 Q 914 409 897 422 Q 843 458 806 449 Q 737 433 621 409 L 577 401 Q 574 401 563 398 Q 470 386 364 367 Q 343 364 359 347 Q 386 323 442 333 Q 485 346 539 356 L 630 370 Z" fill="lightgray" class="hide"/>
    <path d="M 574 312 Q 574 165 548 73 Q 536 31 563 -30 Q 570 -48 578 -51 Q 585 -58 592 -49 Q 599 -45 610 -24 Q 620 1 619 33 Q 618 72 620 334 L 621 409 Q 621 575 624 615 L 628 664 Q 632 709 643 744 Q 652 759 649 773 Q 642 783 586 817 Q 562 833 541 818 Q 537 814 542 798 Q 576 747 577 696 Q 577 674 577 651 L 578 605 Q 579 557 577 401 L 574 312 Z" fill="lightgray" class="hide"/>
    <path d="M 539 356 Q 470 217 279 67 Q 267 54 276 53 Q 285 49 297 54 Q 438 114 553 284 Q 565 302 574 312 C 618 366 563 402 539 356 Z" fill="lightgray" class="hide"/>
    <path d="M 620 334 Q 774 58 830 53 Q 894 57 952 58 Q 976 59 976 65 Q 977 72 951 86 Q 821 149 772 197 Q 685 290 630 370 C 613 395 596 376 620 334 Z" fill="lightgray" class="hide"/></g><g transform="scale(1, -1) translate(0, -900)">
    <style type="text/css">
        .origin {display:none;}
        .hide {display:none;}
        .stroke {fill: #000000;}
        
.step1 {transform: translateX(1024px);}
.step2 {transform: translateX(2048px);}
.step3 {transform: translateX(3072px);}
.step4 {transform: translateX(4096px);}
.step5 {transform: translateX(5120px);}
.step6 {transform: translateX(6144px);}
.step7 {transform: translateX(7168px);}
.step8 {transform: translateX(8192px);}
.step9 {transform: translateX(9216px);}
.step10 {transform: translateX(10240px);}
.step11 {transform: translateX(11264px);}
.step12 {transform: translateX(12288px);}
.step13 {transform: translateX(13312px);}
.step14 {transform: translateX(14336px);}
.step15 {transform: translateX(15360px);}
.step16 {transform: translateX(16384px);}
.step17 {transform: translateX(17408px);}
.step18 {transform: translateX(18432px);}
.step19 {transform: translateX(19456px);}
.step20 {transform: translateX(20480px);}
.step21 {transform: translateX(21504px);}
.step22 {transform: translateX(22528px);}
.step23 {transform: translateX(23552px);}
.step24 {transform: translateX(24576px);}
.step25 {transform: translateX(25600px);}
.step26 {transform: translateX(26624px);}
.step27 {transform: translateX(27648px);}
.step28 {transform: translateX(28672px);}
.step29 {transform: translateX(29696px);}
    </style>

    <path d="M 292 792 Q 304 756 219 651 Q 179 603 127 552 Q 115 545 113 538 Q 109 528 122 529 Q 173 529 319 683 Q 337 711 364 728 Q 374 737 372 750 Q 371 763 346 789 Q 324 810 305 813 Q 287 813 292 792 Z" fill="lightgray" class="stroke step1"/>
    <path d="M 243 400 Q 276 434 313 476 Q 340 510 361 526 Q 371 536 369 550 Q 368 563 342 589 Q 318 611 300 613 Q 281 613 286 591 Q 295 564 282 544 Q 216 429 71 289 Q 59 280 56 275 Q 52 265 66 265 Q 105 271 196 356 Q 203 363 212 370 L 243 400 Z" fill="lightgray" class="stroke step1"/>
    <path d="M 212 370 Q 248 295 207 95 Q 186 56 221 0 Q 224 -7 230 -12 Q 246 -28 258 -2 Q 273 38 272 83 Q 273 282 280 327 Q 287 354 278 364 Q 245 400 243 400 C 221 420 201 398 212 370 Z" fill="lightgray" class="hide"/>
    <path d="M 624 615 Q 676 628 735 639 Q 777 649 783 655 Q 792 662 787 672 Q 780 684 750 691 Q 720 697 628 664 L 577 651 Q 525 641 465 634 Q 428 627 455 610 Q 500 586 558 602 Q 565 605 578 605 L 624 615 Z" fill="lightgray" class="hide"/>
    <path d="M 456 491 Q 499 440 515 438 Q 524 438 529 449 Q 533 461 529 487 Q 523 512 455 532 Q 442 536 436 535 Q 432 532 432 520 Q 433 510 456 491 Z" fill="lightgray" class="hide"/>
    <path d="M 716 566 Q 697 535 655 484 Q 651 477 655 471 Q 662 470 669 474 Q 747 526 785 546 Q 801 550 797 561 Q 793 576 774 594 Q 756 610 735 613 Q 722 612 722 594 Q 723 581 716 566 Z" fill="lightgray" class="hide"/>
    <path d="M 630 370 Q 714 383 843 386 Q 900 386 908 396 Q 914 409 897 422 Q 843 458 806 449 Q 737 433 621 409 L 577 401 Q 574 401 563 398 Q 470 386 364 367 Q 343 364 359 347 Q 386 323 442 333 Q 485 346 539 356 L 630 370 Z" fill="lightgray" class="hide"/>
    <path d="M 574 312 Q 574 165 548 73 Q 536 31 563 -30 Q 570 -48 578 -51 Q 585 -58 592 -49 Q 599 -45 610 -24 Q 620 1 619 33 Q 618 72 620 334 L 621 409 Q 621 575 624 615 L 628 664 Q 632 709 643 744 Q 652 759 649 773 Q 642 783 586 817 Q 562 833 541 818 Q 537 814 542 798 Q 576 747 577 696 Q 577 674 577 651 L 578 605 Q 579 557 577 401 L 574 312 Z" fill="lightgray" class="hide"/>
    <path d="M 539 356 Q 470 217 279 67 Q 267 54 276 53 Q 285 49 297 54 Q 438 114 553 284 Q 565 302 574 312 C 618 366 563 402 539 356 Z" fill="lightgray" class="hide"/>
    <path d="M 620 334 Q 774 58 830 53 Q 894 57 952 58 Q 976 59 976 65 Q 977 72 951 86 Q 821 149 772 197 Q 685 290 630 370 C 613 395 596 376 620 334 Z" fill="lightgray" class="hide"/></g><g transform="scale(1, -1) translate(0, -900)">
    <style type="text/css">
        .origin {display:none;}
        .hide {display:none;}
        .stroke {fill: #000000;}
        
.step1 {transform: translateX(1024px);}
.step2 {transform: translateX(2048px);}
.step3 {transform: translateX(3072px);}
.step4 {transform: translateX(4096px);}
.step5 {transform: translateX(5120px);}
.step6 {transform: translateX(6144px);}
.step7 {transform: translateX(7168px);}
.step8 {transform: translateX(8192px);}
.step9 {transform: translateX(9216px);}
.step10 {transform: translateX(10240px);}
.step11 {transform: translateX(11264px);}
.step12 {transform: translateX(12288px);}
.step13 {transform: translateX(13312px);}
.step14 {transform: translateX(14336px);}
.step15 {transform: translateX(15360px);}
.step16 {transform: translateX(16384px);}
.step17 {transform: translateX(17408px);}
.step18 {transform: translateX(18432px);}
.step19 {transform: translateX(19456px);}
.step20 {transform: translateX(20480px);}
.step21 {transform: translateX(21504px);}
.step22 {transform: translateX(22528px);}
.step23 {transform: translateX(23552px);}
.step24 {transform: translateX(24576px);}
.step25 {transform: translateX(25600px);}
.step26 {transform: translateX(26624px);}
.step27 {transform: translateX(27648px);}
.step28 {transform: translateX(28672px);}
.step29 {transform: translateX(29696px);}
    </style>

    <path d="M 292 792 Q 304 756 219 651 Q 179 603 127 552 Q 115 545 113 538 Q 109 528 122 529 Q 173 529 319 683 Q 337 711 364 728 Q 374 737 372 750 Q 371 763 346 789 Q 324 810 305 813 Q 287 813 292 792 Z" fill="lightgray" class="stroke step2"/>
    <path d="M 243 400 Q 276 434 313 476 Q 340 510 361 526 Q 371 536 369 550 Q 368 563 342 589 Q 318 611 300 613 Q 281 613 286 591 Q 295 564 282 544 Q 216 429 71 289 Q 59 280 56 275 Q 52 265 66 265 Q 105 271 196 356 Q 203 363 212 370 L 243 400 Z" fill="lightgray" class="stroke step2"/>
    <path d="M 212 370 Q 248 295 207 95 Q 186 56 221 0 Q 224 -7 230 -12 Q 246 -28 258 -2 Q 273 38 272 83 Q 273 282 280 327 Q 287 354 278 364 Q 245 400 243 400 C 221 420 201 398 212 370 Z" fill="lightgray" class="stroke step2"/>
    <path d="M 624 615 Q 676 628 735 639 Q 777 649 783 655 Q 792 662 787 672 Q 780 684 750 691 Q 720 697 628 664 L 577 651 Q 525 641 465 634 Q 428 627 455 610 Q 500 586 558 602 Q 565 605 578 605 L 624 615 Z" fill="lightgray" class="hide"/>
    <path d="M 456 491 Q 499 440 515 438 Q 524 438 529 449 Q 533 461 529 487 Q 523 512 455 532 Q 442 536 436 535 Q 432 532 432 520 Q 433 510 456 491 Z" fill="lightgray" class="hide"/>
    <path d="M 716 566 Q 697 535 655 484 Q 651 477 655 471 Q 662 470 669 474 Q 747 526 785 546 Q 801 550 797 561 Q 793 576 774 594 Q 756 610 735 613 Q 722 612 722 594 Q 723 581 716 566 Z" fill="lightgray" class="hide"/>
    <path d="M 630 370 Q 714 383 843 386 Q 900 386 908 396 Q 914 409 897 422 Q 843 458 806 449 Q 737 433 621 409 L 577 401 Q 574 401 563 398 Q 470 386 364 367 Q 343 364 359 347 Q 386 323 442 333 Q 485 346 539 356 L 630 370 Z" fill="lightgray" class="hide"/>
    <path d="M 574 312 Q 574 165 548 73 Q 536 31 563 -30 Q 570 -48 578 -51 Q 585 -58 592 -49 Q 599 -45 610 -24 Q 620 1 619 33 Q 618 72 620 334 L 621 409 Q 621 575 624 615 L 628 664 Q 632 709 643 744 Q 652 759 649 773 Q 642 783 586 817 Q 562 833 541 818 Q 537 814 542 798 Q 576 747 577 696 Q 577 674 577 651 L 578 605 Q 579 557 577 401 L 574 312 Z" fill="lightgray" class="hide"/>
    <path d="M 539 356 Q 470 217 279 67 Q 267 54 276 53 Q 285 49 297 54 Q 438 114 553 284 Q 565 302 574 312 C 618 366 563 402 539 356 Z" fill="lightgray" class="hide"/>
    <path d="M 620 334 Q 774 58 830 53 Q 894 57 952 58 Q 976 59 976 65 Q 977 72 951 86 Q 821 149 772 197 Q 685 290 630 370 C 613 395 596 376 620 334 Z" fill="lightgray" class="hide"/></g><g transform="scale(1, -1) translate(0, -900)">
    <style type="text/css">
        .origin {display:none;}
        .hide {display:none;}
        .stroke {fill: #000000;}
        
.step1 {transform: translateX(1024px);}
.step2 {transform: translateX(2048px);}
.step3 {transform: translateX(3072px);}
.step4 {transform: translateX(4096px);}
.step5 {transform: translateX(5120px);}
.step6 {transform: translateX(6144px);}
.step7 {transform: translateX(7168px);}
.step8 {transform: translateX(8192px);}
.step9 {transform: translateX(9216px);}
.step10 {transform: translateX(10240px);}
.step11 {transform: translateX(11264px);}
.step12 {transform: translateX(12288px);}
.step13 {transform: translateX(13312px);}
.step14 {transform: translateX(14336px);}
.step15 {transform: translateX(15360px);}
.step16 {transform: translateX(16384px);}
.step17 {transform: translateX(17408px);}
.step18 {transform: translateX(18432px);}
.step19 {transform: translateX(19456px);}
.step20 {transform: translateX(20480px);}
.step21 {transform: translateX(21504px);}
.step22 {transform: translateX(22528px);}
.step23 {transform: translateX(23552px);}
.step24 {transform: translateX(24576px);}
.step25 {transform: translateX(25600px);}
.step26 {transform: translateX(26624px);}
.step27 {transform: translateX(27648px);}
.step28 {transform: translateX(28672px);}
.step29 {transform: translateX(29696px);}
    </style>

    <path d="M 292 792 Q 304 756 219 651 Q 179 603 127 552 Q 115 545 113 538 Q 109 528 122 529 Q 173 529 319 683 Q 337 711 364 728 Q 374 737 372 750 Q 371 763 346 789 Q 324 810 305 813 Q 287 813 292 792 Z" fill="lightgray" class="stroke step3"/>
    <path d="M 243 400 Q 276 434 313 476 Q 340 510 361 526 Q 371 536 369 550 Q 368 563 342 589 Q 318 611 300 613 Q 281 613 286 591 Q 295 564 282 544 Q 216 429 71 289 Q 59 280 56 275 Q 52 265 66 265 Q 105 271 196 356 Q 203 363 212 370 L 243 400 Z" fill="lightgray" class="stroke step3"/>
    <path d="M 212 370 Q 248 295 207 95 Q 186 56 221 0 Q 224 -7 230 -12 Q 246 -28 258 -2 Q 273 38 272 83 Q 273 282 280 327 Q 287 354 278 364 Q 245 400 243 400 C 221 420 201 398 212 370 Z" fill="lightgray" class="stroke step3"/>
    <path d="M 624 615 Q 676 628 735 639 Q 777 649 783 655 Q 792 662 787 672 Q 780 684 750 691 Q 720 697 628 664 L 577 651 Q 525 641 465 634 Q 428 627 455 610 Q 500 586 558 602 Q 565 605 578 605 L 624 615 Z" fill="lightgray" class="stroke step3"/>
    <path d="M 456 491 Q 499 440 515 438 Q 524 438 529 449 Q 533 461 529 487 Q 523 512 455 532 Q 442 536 436 535 Q 432 532 432 520 Q 433 510 456 491 Z" fill="lightgray" class="hide"/>
    <path d="M 716 566 Q 697 535 655 484 Q 651 477 655 471 Q 662 470 669 474 Q 747 526 785 546 Q 801 550 797 561 Q 793 576 774 594 Q 756 610 735 613 Q 722 612 722 594 Q 723 581 716 566 Z" fill="lightgray" class="hide"/>
    <path d="M 630 370 Q 714 383 843 386 Q 900 386 908 396 Q 914 409 897 422 Q 843 458 806 449 Q 737 433 621 409 L 577 401 Q 574 401 563 398 Q 470 386 364 367 Q 343 364 359 347 Q 386 323 442 333 Q 485 346 539 356 L 630 370 Z" fill="lightgray" class="hide"/>
    <path d="M 574 312 Q 574 165 548 73 Q 536 31 563 -30 Q 570 -48 578 -51 Q 585 -58 592 -49 Q 599 -45 610 -24 Q 620 1 619 33 Q 618 72 620 334 L 621 409 Q 621 575 624 615 L 628 664 Q 632 709 643 744 Q 652 759 649 773 Q 642 783 586 817 Q 562 833 541 818 Q 537 814 542 798 Q 576 747 577 696 Q 577 674 577 651 L 578 605 Q 579 557 577 401 L 574 312 Z" fill="lightgray" class="hide"/>
    <path d="M 539 356 Q 470 217 279 67 Q 267 54 276 53 Q 285 49 297 54 Q 438 114 553 284 Q 565 302 574 312 C 618 366 563 402 539 356 Z" fill="lightgray" class="hide"/>
    <path d="M 620 334 Q 774 58 830 53 Q 894 57 952 58 Q 976 59 976 65 Q 977 72 951 86 Q 821 149 772 197 Q 685 290 630 370 C 613 395 596 376 620 334 Z" fill="lightgray" class="hide"/></g><g transform="scale(1, -1) translate(0, -900)">
    <style type="text/css">
        .origin {display:none;}
        .hide {display:none;}
        .stroke {fill: #000000;}
        
.step1 {transform: translateX(1024px);}
.step2 {transform: translateX(2048px);}
.step3 {transform: translateX(3072px);}
.step4 {transform: translateX(4096px);}
.step5 {transform: translateX(5120px);}
.step6 {transform: translateX(6144px);}
.step7 {transform: translateX(7168px);}
.step8 {transform: translateX(8192px);}
.step9 {transform: translateX(9216px);}
.step10 {transform: translateX(10240px);}
.step11 {transform: translateX(11264px);}
.step12 {transform: translateX(12288px);}
.step13 {transform: translateX(13312px);}
.step14 {transform: translateX(14336px);}
.step15 {transform: translateX(15360px);}
.step16 {transform: translateX(16384px);}
.step17 {transform: translateX(17408px);}
.step18 {transform: translateX(18432px);}
.step19 {transform: translateX(19456px);}
.step20 {transform: translateX(20480px);}
.step21 {transform: translateX(21504px);}
.step22 {transform: translateX(22528px);}
.step23 {transform: translateX(23552px);}
.step24 {transform: translateX(24576px);}
.step25 {transform: translateX(25600px);}
.step26 {transform: translateX(26624px);}
.step27 {transform: translateX(27648px);}
.step28 {transform: translateX(28672px);}
.step29 {transform: translateX(29696px);}
    </style>

    <path d="M 292 792 Q 304 756 219 651 Q 179 603 127 552 Q 115 545 113 538 Q 109 528 122 529 Q 173 529 319 683 Q 337 711 364 728 Q 374 737 372 750 Q 371 763 346 789 Q 324 810 305 813 Q 287 813 292 792 Z" fill="lightgray" class="stroke step4"/>
    <path d="M 243 400 Q 276 434 313 476 Q 340 510 361 526 Q 371 536 369 550 Q 368 563 342 589 Q 318 611 300 613 Q 281 613 286 591 Q 295 564 282 544 Q 216 429 71 289 Q 59 280 56 275 Q 52 265 66 265 Q 105 271 196 356 Q 203 363 212 370 L 243 400 Z" fill="lightgray" class="stroke step4"/>
    <path d="M 212 370 Q 248 295 207 95 Q 186 56 221 0 Q 224 -7 230 -12 Q 246 -28 258 -2 Q 273 38 272 83 Q 273 282 280 327 Q 287 354 278 364 Q 245 400 243 400 C 221 420 201 398 212 370 Z" fill="lightgray" class="stroke step4"/>
    <path d="M 624 615 Q 676 628 735 639 Q 777 649 783 655 Q 792 662 787 672 Q 780 684 750 691 Q 720 697 628 664 L 577 651 Q 525 641 465 634 Q 428 627 455 610 Q 500 586 558 602 Q 565 605 578 605 L 624 615 Z" fill="lightgray" class="stroke step4"/>
    <path d="M 456 491 Q 499 440 515 438 Q 524 438 529 449 Q 533 461 529 487 Q 523 512 455 532 Q 442 536 436 535 Q 432 532 432 520 Q 433 510 456 491 Z" fill="lightgray" class="stroke step4"/>
    <path d="M 716 566 Q 697 535 655 484 Q 651 477 655 471 Q 662 470 669 474 Q 747 526 785 546 Q 801 550 797 561 Q 793 576 774 594 Q 756 610 735 613 Q 722 612 722 594 Q 723 581 716 566 Z" fill="lightgray" class="hide"/>
    <path d="M 630 370 Q 714 383 843 386 Q 900 386 908 396 Q 914 409 897 422 Q 843 458 806 449 Q 737 433 621 409 L 577 401 Q 574 401 563 398 Q 470 386 364 367 Q 343 364 359 347 Q 386 323 442 333 Q 485 346 539 356 L 630 370 Z" fill="lightgray" class="hide"/>
    <path d="M 574 312 Q 574 165 548 73 Q 536 31 563 -30 Q 570 -48 578 -51 Q 585 -58 592 -49 Q 599 -45 610 -24 Q 620 1 619 33 Q 618 72 620 334 L 621 409 Q 621 575 624 615 L 628 664 Q 632 709 643 744 Q 652 759 649 773 Q 642 783 586 817 Q 562 833 541 818 Q 537 814 542 798 Q 576 747 577 696 Q 577 674 577 651 L 578 605 Q 579 557 577 401 L 574 312 Z" fill="lightgray" class="hide"/>
    <path d="M 539 356 Q 470 217 279 67 Q 267 54 276 53 Q 285 49 297 54 Q 438 114 553 284 Q 565 302 574 312 C 618 366 563 402 539 356 Z" fill="lightgray" class="hide"/>
    <path d="M 620 334 Q 774 58 830 53 Q 894 57 952 58 Q 976 59 976 65 Q 977 72 951 86 Q 821 149 772 197 Q 685 290 630 370 C 613 395 596 376 620 334 Z" fill="lightgray" class="hide"/></g><g transform="scale(1, -1) translate(0, -900)">
    <style type="text/css">
        .origin {display:none;}
        .hide {display:none;}
        .stroke {fill: #000000;}
        
.step1 {transform: translateX(1024px);}
.step2 {transform: translateX(2048px);}
.step3 {transform: translateX(3072px);}
.step4 {transform: translateX(4096px);}
.step5 {transform: translateX(5120px);}
.step6 {transform: translateX(6144px);}
.step7 {transform: translateX(7168px);}
.step8 {transform: translateX(8192px);}
.step9 {transform: translateX(9216px);}
.step10 {transform: translateX(10240px);}
.step11 {transform: translateX(11264px);}
.step12 {transform: translateX(12288px);}
.step13 {transform: translateX(13312px);}
.step14 {transform: translateX(14336px);}
.step15 {transform: translateX(15360px);}
.step16 {transform: translateX(16384px);}
.step17 {transform: translateX(17408px);}
.step18 {transform: translateX(18432px);}
.step19 {transform: translateX(19456px);}
.step20 {transform: translateX(20480px);}
.step21 {transform: translateX(21504px);}
.step22 {transform: translateX(22528px);}
.step23 {transform: translateX(23552px);}
.step24 {transform: translateX(24576px);}
.step25 {transform: translateX(25600px);}
.step26 {transform: translateX(26624px);}
.step27 {transform: translateX(27648px);}
.step28 {transform: translateX(28672px);}
.step29 {transform: translateX(29696px);}
    </style>

    <path d="M 292 792 Q 304 756 219 651 Q 179 603 127 552 Q 115 545 113 538 Q 109 528 122 529 Q 173 529 319 683 Q 337 711 364 728 Q 374 737 372 750 Q 371 763 346 789 Q 324 810 305 813 Q 287 813 292 792 Z" fill="lightgray" class="stroke step5"/>
    <path d="M 243 400 Q 276 434 313 476 Q 340 510 361 526 Q 371 536 369 550 Q 368 563 342 589 Q 318 611 300 613 Q 281 613 286 591 Q 295 564 282 544 Q 216 429 71 289 Q 59 280 56 275 Q 52 265 66 265 Q 105 271 196 356 Q 203 363 212 370 L 243 400 Z" fill="lightgray" class="stroke step5"/>
    <path d="M 212 370 Q 248 295 207 95 Q 186 56 221 0 Q 224 -7 230 -12 Q 246 -28 258 -2 Q 273 38 272 83 Q 273 282 280 327 Q 287 354 278 364 Q 245 400 243 400 C 221 420 201 398 212 370 Z" fill="lightgray" class="stroke step5"/>
    <path d="M 624 615 Q 676 628 735 639 Q 777 649 783 655 Q 792 662 787 672 Q 780 684 750 691 Q 720 697 628 664 L 577 651 Q 525 641 465 634 Q 428 627 455 610 Q 500 586 558 602 Q 565 605 578 605 L 624 615 Z" fill="lightgray" class="stroke step5"/>
    <path d="M 456 491 Q 499 440 515 438 Q 524 438 529 449 Q 533 461 529 487 Q 523 512 455 532 Q 442 536 436 535 Q 432 532 432 520 Q 433 510 456 491 Z" fill="lightgray" class="stroke step5"/>
    <path d="M 716 566 Q 697 535 655 484 Q 651 477 655 471 Q 662 470 669 474 Q 747 526 785 546 Q 801 550 797 561 Q 793 576 774 594 Q 756 610 735 613 Q 722 612 722 594 Q 723 581 716 566 Z" fill="lightgray" class="stroke step5"/>
    <path d="M 630 370 Q 714 383 843 386 Q 900 386 908 396 Q 914 409 897 422 Q 843 458 806 449 Q 737 433 621 409 L 577 401 Q 574 401 563 398 Q 470 386 364 367 Q 343 364 359 347 Q 386 323 442 333 Q 485 346 539 356 L 630 370 Z" fill="lightgray" class="hide"/>
    <path d="M 574 312 Q 574 165 548 73 Q 536 31 563 -30 Q 570 -48 578 -51 Q 585 -58 592 -49 Q 599 -45 610 -24 Q 620 1 619 33 Q 618 72 620 334 L 621 409 Q 621 575 624 615 L 628 664 Q 632 709 643 744 Q 652 759 649 773 Q 642 783 586 817 Q 562 833 541 818 Q 537 814 542 798 Q 576 747 577 696 Q 577 674 577 651 L 578 605 Q 579 557 577 401 L 574 312 Z" fill="lightgray" class="hide"/>
    <path d="M 539 356 Q 470 217 279 67 Q 267 54 276 53 Q 285 49 297 54 Q 438 114 553 284 Q 565 302 574 312 C 618 366 563 402 539 356 Z" fill="lightgray" class="hide"/>
    <path d="M 620 334 Q 774 58 830 53 Q 894 57 952 58 Q 976 59 976 65 Q 977 72 951 86 Q 821 149 772 197 Q 685 290 630 370 C 613 395 596 376 620 334 Z" fill="lightgray" class="hide"/></g><g transform="scale(1, -1) translate(0, -900)">
    <style type="text/css">
        .origin {display:none;}
        .hide {display:none;}
        .stroke {fill: #000000;}
        
.step1 {transform: translateX(1024px);}
.step2 {transform: translateX(2048px);}
.step3 {transform: translateX(3072px);}
.step4 {transform: translateX(4096px);}
.step5 {transform: translateX(5120px);}
.step6 {transform: translateX(6144px);}
.step7 {transform: translateX(7168px);}
.step8 {transform: translateX(8192px);}
.step9 {transform: translateX(9216px);}
.step10 {transform: translateX(10240px);}
.step11 {transform: translateX(11264px);}
.step12 {transform: translateX(12288px);}
.step13 {transform: translateX(13312px);}
.step14 {transform: translateX(14336px);}
.step15 {transform: translateX(15360px);}
.step16 {transform: translateX(16384px);}
.step17 {transform: translateX(17408px);}
.step18 {transform: translateX(18432px);}
.step19 {transform: translateX(19456px);}
.step20 {transform: translateX(20480px);}
.step21 {transform: translateX(21504px);}
.step22 {transform: translateX(22528px);}
.step23 {transform: translateX(23552px);}
.step24 {transform: translateX(24576px);}
.step25 {transform: translateX(25600px);}
.step26 {transform: translateX(26624px);}
.step27 {transform: translateX(27648px);}
.step28 {transform: translateX(28672px);}
.step29 {transform: translateX(29696px);}
    </style>

    <path d="M 292 792 Q 304 756 219 651 Q 179 603 127 552 Q 115 545 113 538 Q 109 528 122 529 Q 173 529 319 683 Q 337 711 364 728 Q 374 737 372 750 Q 371 763 346 789 Q 324 810 305 813 Q 287 813 292 792 Z" fill="lightgray" class="stroke step6"/>
    <path d="M 243 400 Q 276 434 313 476 Q 340 510 361 526 Q 371 536 369 550 Q 368 563 342 589 Q 318 611 300 613 Q 281 613 286 591 Q 295 564 282 544 Q 216 429 71 289 Q 59 280 56 275 Q 52 265 66 265 Q 105 271 196 356 Q 203 363 212 370 L 243 400 Z" fill="lightgray" class="stroke step6"/>
    <path d="M 212 370 Q 248 295 207 95 Q 186 56 221 0 Q 224 -7 230 -12 Q 246 -28 258 -2 Q 273 38 272 83 Q 273 282 280 327 Q 287 354 278 364 Q 245 400 243 400 C 221 420 201 398 212 370 Z" fill="lightgray" class="stroke step6"/>
    <path d="M 624 615 Q 676 628 735 639 Q 777 649 783 655 Q 792 662 787 672 Q 780 684 750 691 Q 720 697 628 664 L 577 651 Q 525 641 465 634 Q 428 627 455 610 Q 500 586 558 602 Q 565 605 578 605 L 624 615 Z" fill="lightgray" class="stroke step6"/>
    <path d="M 456 491 Q 499 440 515 438 Q 524 438 529 449 Q 533 461 529 487 Q 523 512 455 532 Q 442 536 436 535 Q 432 532 432 520 Q 433 510 456 491 Z" fill="lightgray" class="stroke step6"/>
    <path d="M 716 566 Q 697 535 655 484 Q 651 477 655 471 Q 662 470 669 474 Q 747 526 785 546 Q 801 550 797 561 Q 793 576 774 594 Q 756 610 735 613 Q 722 612 722 594 Q 723 581 716 566 Z" fill="lightgray" class="stroke step6"/>
    <path d="M 630 370 Q 714 383 843 386 Q 900 386 908 396 Q 914 409 897 422 Q 843 458 806 449 Q 737 433 621 409 L 577 401 Q 574 401 563 398 Q 470 386 364 367 Q 343 364 359 347 Q 386 323 442 333 Q 485 346 539 356 L 630 370 Z" fill="lightgray" class="stroke step6"/>
    <path d="M 574 312 Q 574 165 548 73 Q 536 31 563 -30 Q 570 -48 578 -51 Q 585 -58 592 -49 Q 599 -45 610 -24 Q 620 1 619 33 Q 618 72 620 334 L 621 409 Q 621 575 624 615 L 628 664 Q 632 709 643 744 Q 652 759 649 773 Q 642 783 586 817 Q 562 833 541 818 Q 537 814 542 798 Q 576 747 577 696 Q 577 674 577 651 L 578 605 Q 579 557 577 401 L 574 312 Z" fill="lightgray" class="hide"/>
    <path d="M 539 356 Q 470 217 279 67 Q 267 54 276 53 Q 285 49 297 54 Q 438 114 553 284 Q 565 302 574 312 C 618 366 563 402 539 356 Z" fill="lightgray" class="hide"/>
    <path d="M 620 334 Q 774 58 830 53 Q 894 57 952 58 Q 976 59 976 65 Q 977 72 951 86 Q 821 149 772 197 Q 685 290 630 370 C 613 395 596 376 620 334 Z" fill="lightgray" class="hide"/></g><g transform="scale(1, -1) translate(0, -900)">
    <style type="text/css">
        .origin {display:none;}
        .hide {display:none;}
        .stroke {fill: #000000;}
        
.step1 {transform: translateX(1024px);}
.step2 {transform: translateX(2048px);}
.step3 {transform: translateX(3072px);}
.step4 {transform: translateX(4096px);}
.step5 {transform: translateX(5120px);}
.step6 {transform: translateX(6144px);}
.step7 {transform: translateX(7168px);}
.step8 {transform: translateX(8192px);}
.step9 {transform: translateX(9216px);}
.step10 {transform: translateX(10240px);}
.step11 {transform: translateX(11264px);}
.step12 {transform: translateX(12288px);}
.step13 {transform: translateX(13312px);}
.step14 {transform: translateX(14336px);}
.step15 {transform: translateX(15360px);}
.step16 {transform: translateX(16384px);}
.step17 {transform: translateX(17408px);}
.step18 {transform: translateX(18432px);}
.step19 {transform: translateX(19456px);}
.step20 {transform: translateX(20480px);}
.step21 {transform: translateX(21504px);}
.step22 {transform: translateX(22528px);}
.step23 {transform: translateX(23552px);}
.step24 {transform: translateX(24576px);}
.step25 {transform: translateX(25600px);}
.step26 {transform: translateX(26624px);}
.step27 {transform: translateX(27648px);}
.step28 {transform: translateX(28672px);}
.step29 {transform: translateX(29696px);}
    </style>

    <path d="M 292 792 Q 304 756 219 651 Q 179 603 127 552 Q 115 545 113 538 Q 109 528 122 529 Q 173 529 319 683 Q 337 711 364 728 Q 374 737 372 750 Q 371 763 346 789 Q 324 810 305 813 Q 287 813 292 792 Z" fill="lightgray" class="stroke step7"/>
    <path d="M 243 400 Q 276 434 313 476 Q 340 510 361 526 Q 371 536 369 550 Q 368 563 342 589 Q 318 611 300 613 Q 281 613 286 591 Q 295 564 282 544 Q 216 429 71 289 Q 59 280 56 275 Q 52 265 66 265 Q 105 271 196 356 Q 203 363 212 370 L 243 400 Z" fill="lightgray" class="stroke step7"/>
    <path d="M 212 370 Q 248 295 207 95 Q 186 56 221 0 Q 224 -7 230 -12 Q 246 -28 258 -2 Q 273 38 272 83 Q 273 282 280 327 Q 287 354 278 364 Q 245 400 243 400 C 221 420 201 398 212 370 Z" fill="lightgray" class="stroke step7"/>
    <path d="M 624 615 Q 676 628 735 639 Q 777 649 783 655 Q 792 662 787 672 Q 780 684 750 691 Q 720 697 628 664 L 577 651 Q 525 641 465 634 Q 428 627 455 610 Q 500 586 558 602 Q 565 605 578 605 L 624 615 Z" fill="lightgray" class="stroke step7"/>
    <path d="M 456 491 Q 499 440 515 438 Q 524 438 529 449 Q 533 461 529 487 Q 523 512 455 532 Q 442 536 436 535 Q 432 532 432 520 Q 433 510 456 491 Z" fill="lightgray" class="stroke step7"/>
    <path d="M 716 566 Q 697 535 655 484 Q 651 477 655 471 Q 662 470 669 474 Q 747 526 785 546 Q 801 550 797 561 Q 793 576 774 594 Q 756 610 735 613 Q 722 612 722 594 Q 723 581 716 566 Z" fill="lightgray" class="stroke step7"/>
    <path d="M 630 370 Q 714 383 843 386 Q 900 386 908 396 Q 914 409 897 422 Q 843 458 806 449 Q 737 433 621 409 L 577 401 Q 574 401 563 398 Q 470 386 364 367 Q 343 364 359 347 Q 386 323 442 333 Q 485 346 539 356 L 630 370 Z" fill="lightgray" class="stroke step7"/>
    <path d="M 574 312 Q 574 165 548 73 Q 536 31 563 -30 Q 570 -48 578 -51 Q 585 -58 592 -49 Q 599 -45 610 -24 Q 620 1 619 33 Q 618 72 620 334 L 621 409 Q 621 575 624 615 L 628 664 Q 632 709 643 744 Q 652 759 649 773 Q 642 783 586 817 Q 562 833 541 818 Q 537 814 542 798 Q 576 747 577 696 Q 577 674 577 651 L 578 605 Q 579 557 577 401 L 574 312 Z" fill="lightgray" class="stroke step7"/>
    <path d="M 539 356 Q 470 217 279 67 Q 267 54 276 53 Q 285 49 297 54 Q 438 114 553 284 Q 565 302 574 312 C 618 366 563 402 539 356 Z" fill="lightgray" class="hide"/>
    <path d="M 620 334 Q 774 58 830 53 Q 894 57 952 58 Q 976 59 976 65 Q 977 72 951 86 Q 821 149 772 197 Q 685 290 630 370 C 613 395 596 376 620 334 Z" fill="lightgray" class="hide"/></g><g transform="scale(1, -1) translate(0, -900)">
    <style type="text/css">
        .origin {display:none;}
        .hide {display:none;}
        .stroke {fill: #000000;}
        
.step1 {transform: translateX(1024px);}
.step2 {transform: translateX(2048px);}
.step3 {transform: translateX(3072px);}
.step4 {transform: translateX(4096px);}
.step5 {transform: translateX(5120px);}
.step6 {transform: translateX(6144px);}
.step7 {transform: translateX(7168px);}
.step8 {transform: translateX(8192px);}
.step9 {transform: translateX(9216px);}
.step10 {transform: translateX(10240px);}
.step11 {transform: translateX(11264px);}
.step12 {transform: translateX(12288px);}
.step13 {transform: translateX(13312px);}
.step14 {transform: translateX(14336px);}
.step15 {transform: translateX(15360px);}
.step16 {transform: translateX(16384px);}
.step17 {transform: translateX(17408px);}
.step18 {transform: translateX(18432px);}
.step19 {transform: translateX(19456px);}
.step20 {transform: translateX(20480px);}
.step21 {transform: translateX(21504px);}
.step22 {transform: translateX(22528px);}
.step23 {transform: translateX(23552px);}
.step24 {transform: translateX(24576px);}
.step25 {transform: translateX(25600px);}
.step26 {transform: translateX(26624px);}
.step27 {transform: translateX(27648px);}
.step28 {transform: translateX(28672px);}
.step29 {transform: translateX(29696px);}
    </style>

    <path d="M 292 792 Q 304 756 219 651 Q 179 603 127 552 Q 115 545 113 538 Q 109 528 122 529 Q 173 529 319 683 Q 337 711 364 728 Q 374 737 372 750 Q 371 763 346 789 Q 324 810 305 813 Q 287 813 292 792 Z" fill="lightgray" class="stroke step8"/>
    <path d="M 243 400 Q 276 434 313 476 Q 340 510 361 526 Q 371 536 369 550 Q 368 563 342 589 Q 318 611 300 613 Q 281 613 286 591 Q 295 564 282 544 Q 216 429 71 289 Q 59 280 56 275 Q 52 265 66 265 Q 105 271 196 356 Q 203 363 212 370 L 243 400 Z" fill="lightgray" class="stroke step8"/>
    <path d="M 212 370 Q 248 295 207 95 Q 186 56 221 0 Q 224 -7 230 -12 Q 246 -28 258 -2 Q 273 38 272 83 Q 273 282 280 327 Q 287 354 278 364 Q 245 400 243 400 C 221 420 201 398 212 370 Z" fill="lightgray" class="stroke step8"/>
    <path d="M 624 615 Q 676 628 735 639 Q 777 649 783 655 Q 792 662 787 672 Q 780 684 750 691 Q 720 697 628 664 L 577 651 Q 525 641 465 634 Q 428 627 455 610 Q 500 586 558 602 Q 565 605 578 605 L 624 615 Z" fill="lightgray" class="stroke step8"/>
    <path d="M 456 491 Q 499 440 515 438 Q 524 438 529 449 Q 533 461 529 487 Q 523 512 455 532 Q 442 536 436 535 Q 432 532 432 520 Q 433 510 456 491 Z" fill="lightgray" class="stroke step8"/>
    <path d="M 716 566 Q 697 535 655 484 Q 651 477 655 471 Q 662 470 669 474 Q 747 526 785 546 Q 801 550 797 561 Q 793 576 774 594 Q 756 610 735 613 Q 722 612 722 594 Q 723 581 716 566 Z" fill="lightgray" class="stroke step8"/>
    <path d="M 630 370 Q 714 383 843 386 Q 900 386 908 396 Q 914 409 897 422 Q 843 458 806 449 Q 737 433 621 409 L 577 401 Q 574 401 563 398 Q 470 386 364 367 Q 343 364 359 347 Q 386 323 442 333 Q 485 346 539 356 L 630 370 Z" fill="lightgray" class="stroke step8"/>
    <path d="M 574 312 Q 574 165 548 73 Q 536 31 563 -30 Q 570 -48 578 -51 Q 585 -58 592 -49 Q 599 -45 610 -24 Q 620 1 619 33 Q 618 72 620 334 L 621 409 Q 621 575 624 615 L 628 664 Q 632 709 643 744 Q 652 759 649 773 Q 642 783 586 817 Q 562 833 541 818 Q 537 814 542 798 Q 576 747 577 696 Q 577 674 577 651 L 578 605 Q 579 557 577 401 L 574 312 Z" fill="lightgray" class="stroke step8"/>
    <path d="M 539 356 Q 470 217 279 67 Q 267 54 276 53 Q 285 49 297 54 Q 438 114 553 284 Q 565 302 574 312 C 618 366 563 402 539 356 Z" fill="lightgray" class="stroke step8"/>
    <path d="M 620 334 Q 774 58 830 53 Q 894 57 952 58 Q 976 59 976 65 Q 977 72 951 86 Q 821 149 772 197 Q 685 290 630 370 C 613 395 596 376 620 334 Z" fill="lightgray" class="hide"/></g><g transform="scale(1, -1) translate(0, -900)">
    <style type="text/css">
        .origin {display:none;}
        .hide {display:none;}
        .stroke {fill: #000000;}
        
.step1 {transform: translateX(1024px);}
.step2 {transform: translateX(2048px);}
.step3 {transform: translateX(3072px);}
.step4 {transform: translateX(4096px);}
.step5 {transform: translateX(5120px);}
.step6 {transform: translateX(6144px);}
.step7 {transform: translateX(7168px);}
.step8 {transform: translateX(8192px);}
.step9 {transform: translateX(9216px);}
.step10 {transform: translateX(10240px);}
.step11 {transform: translateX(11264px);}
.step12 {transform: translateX(12288px);}
.step13 {transform: translateX(13312px);}
.step14 {transform: translateX(14336px);}
.step15 {transform: translateX(15360px);}
.step16 {transform: translateX(16384px);}
.step17 {transform: translateX(17408px);}
.step18 {transform: translateX(18432px);}
.step19 {transform: translateX(19456px);}
.step20 {transform: translateX(20480px);}
.step21 {transform: translateX(21504px);}
.step22 {transform: translateX(22528px);}
.step23 {transform: translateX(23552px);}
.step24 {transform: translateX(24576px);}
.step25 {transform: translateX(25600px);}
.step26 {transform: translateX(26624px);}
.step27 {transform: translateX(27648px);}
.step28 {transform: translateX(28672px);}
.step29 {transform: translateX(29696px);}
    </style>

    <path d="M 292 792 Q 304 756 219 651 Q 179 603 127 552 Q 115 545 113 538 Q 109 528 122 529 Q 173 529 319 683 Q 337 711 364 728 Q 374 737 372 750 Q 371 763 346 789 Q 324 810 305 813 Q 287 813 292 792 Z" fill="lightgray" class="stroke step9"/>
    <path d="M 243 400 Q 276 434 313 476 Q 340 510 361 526 Q 371 536 369 550 Q 368 563 342 589 Q 318 611 300 613 Q 281 613 286 591 Q 295 564 282 544 Q 216 429 71 289 Q 59 280 56 275 Q 52 265 66 265 Q 105 271 196 356 Q 203 363 212 370 L 243 400 Z" fill="lightgray" class="stroke step9"/>
    <path d="M 212 370 Q 248 295 207 95 Q 186 56 221 0 Q 224 -7 230 -12 Q 246 -28 258 -2 Q 273 38 272 83 Q 273 282 280 327 Q 287 354 278 364 Q 245 400 243 400 C 221 420 201 398 212 370 Z" fill="lightgray" class="stroke step9"/>
    <path d="M 624 615 Q 676 628 735 639 Q 777 649 783 655 Q 792 662 787 672 Q 780 684 750 691 Q 720 697 628 664 L 577 651 Q 525 641 465 634 Q 428 627 455 610 Q 500 586 558 602 Q 565 605 578 605 L 624 615 Z" fill="lightgray" class="stroke step9"/>
    <path d="M 456 491 Q 499 440 515 438 Q 524 438 529 449 Q 533 461 529 487 Q 523 512 455 532 Q 442 536 436 535 Q 432 532 432 520 Q 433 510 456 491 Z" fill="lightgray" class="stroke step9"/>
    <path d="M 716 566 Q 697 535 655 484 Q 651 477 655 471 Q 662 470 669 474 Q 747 526 785 546 Q 801 550 797 561 Q 793 576 774 594 Q 756 610 735 613 Q 722 612 722 594 Q 723 581 716 566 Z" fill="lightgray" class="stroke step9"/>
    <path d="M 630 370 Q 714 383 843 386 Q 900 386 908 396 Q 914 409 897 422 Q 843 458 806 449 Q 737 433 621 409 L 577 401 Q 574 401 563 398 Q 470 386 364 367 Q 343 364 359 347 Q 386 323 442 333 Q 485 346 539 356 L 630 370 Z" fill="lightgray" class="stroke step9"/>
    <path d="M 574 312 Q 574 165 548 73 Q 536 31 563 -30 Q 570 -48 578 -51 Q 585 -58 592 -49 Q 599 -45 610 -24 Q 620 1 619 33 Q 618 72 620 334 L 621 409 Q 621 575 624 615 L 628 664 Q 632 709 643 744 Q 652 759 649 773 Q 642 783 586 817 Q 562 833 541 818 Q 537 814 542 798 Q 576 747 577 696 Q 577 674 577 651 L 578 605 Q 579 557 577 401 L 574 312 Z" fill="lightgray" class="stroke step9"/>
    <path d="M 539 356 Q 470 217 279 67 Q 267 54 276 53 Q 285 49 297 54 Q 438 114 553 284 Q 565 302 574 312 C 618 366 563 402 539 356 Z" fill="lightgray" class="stroke step9"/>
    <path d="M 620 334 Q 774 58 830 53 Q 894 57 952 58 Q 976 59 976 65 Q 977 72 951 86 Q 821 149 772 197 Q 685 290 630 370 C 613 395 596 376 620 334 Z" fill="lightgray" class="stroke step9"/></g></svg>