<svg version="1.1" viewBox="0 0 4096 1024" xmlns="http://www.w3.org/2000/svg">
  
  <g transform="scale(1, -1) translate(0, -900)" class="origin">
    <style type="text/css">
        .origin {display:none;}
        .hide {display:none;}
        .stroke {fill: #000000;}
        
.step1 {transform: translateX(1024px);}
.step2 {transform: translateX(2048px);}
.step3 {transform: translateX(3072px);}
.step4 {transform: translateX(4096px);}
.step5 {transform: translateX(5120px);}
.step6 {transform: translateX(6144px);}
.step7 {transform: translateX(7168px);}
.step8 {transform: translateX(8192px);}
.step9 {transform: translateX(9216px);}
.step10 {transform: translateX(10240px);}
.step11 {transform: translateX(11264px);}
.step12 {transform: translateX(12288px);}
.step13 {transform: translateX(13312px);}
.step14 {transform: translateX(14336px);}
.step15 {transform: translateX(15360px);}
.step16 {transform: translateX(16384px);}
.step17 {transform: translateX(17408px);}
.step18 {transform: translateX(18432px);}
.step19 {transform: translateX(19456px);}
.step20 {transform: translateX(20480px);}
.step21 {transform: translateX(21504px);}
.step22 {transform: translateX(22528px);}
.step23 {transform: translateX(23552px);}
.step24 {transform: translateX(24576px);}
.step25 {transform: translateX(25600px);}
.step26 {transform: translateX(26624px);}
.step27 {transform: translateX(27648px);}
.step28 {transform: translateX(28672px);}
.step29 {transform: translateX(29696px);}
    </style>

    <path d="M 171 459 Q 147 381 112 311 Q 91 269 117 230 Q 129 209 152 227 Q 177 249 190 289 Q 211 344 208 392 Q 211 432 199 462 Q 192 472 185 472 Q 175 469 171 459 Z" fill="lightgray"/>
    <path d="M 863 228 Q 859 243 834 262 Q 797 290 698 391 Q 691 398 685 398 Q 682 397 684 389 Q 708 338 732 281 Q 742 257 728 241 Q 689 208 550 226 Q 441 244 397 323 Q 370 377 355 435 Q 348 463 324 476 Q 306 486 299 478 Q 295 474 302 454 Q 312 429 335 363 Q 372 224 476 178 Q 495 171 521 163 Q 710 115 851 212 Q 866 221 863 228 Z" fill="lightgray"/>
    <path d="M 441 617 Q 475 578 511 531 Q 524 515 541 513 Q 553 512 561 525 Q 568 541 564 574 Q 560 619 444 670 Q 428 677 420 675 Q 414 672 414 658 Q 415 645 441 617 Z" fill="lightgray"/>
    <path d="M 760 585 Q 814 536 877 465 Q 896 441 914 437 Q 924 436 933 447 Q 948 463 932 514 Q 922 563 840 592 Q 789 613 761 621 Q 751 627 748 612 Q 747 596 760 585 Z" fill="lightgray"/></g>
<g transform="scale(1, -1) translate(0, -900)">
    <style type="text/css">
        .origin {display:none;}
        .hide {display:none;}
        .stroke {fill: #000000;}
        
.step1 {transform: translateX(1024px);}
.step2 {transform: translateX(2048px);}
.step3 {transform: translateX(3072px);}
.step4 {transform: translateX(4096px);}
.step5 {transform: translateX(5120px);}
.step6 {transform: translateX(6144px);}
.step7 {transform: translateX(7168px);}
.step8 {transform: translateX(8192px);}
.step9 {transform: translateX(9216px);}
.step10 {transform: translateX(10240px);}
.step11 {transform: translateX(11264px);}
.step12 {transform: translateX(12288px);}
.step13 {transform: translateX(13312px);}
.step14 {transform: translateX(14336px);}
.step15 {transform: translateX(15360px);}
.step16 {transform: translateX(16384px);}
.step17 {transform: translateX(17408px);}
.step18 {transform: translateX(18432px);}
.step19 {transform: translateX(19456px);}
.step20 {transform: translateX(20480px);}
.step21 {transform: translateX(21504px);}
.step22 {transform: translateX(22528px);}
.step23 {transform: translateX(23552px);}
.step24 {transform: translateX(24576px);}
.step25 {transform: translateX(25600px);}
.step26 {transform: translateX(26624px);}
.step27 {transform: translateX(27648px);}
.step28 {transform: translateX(28672px);}
.step29 {transform: translateX(29696px);}
    </style>

    <path d="M 171 459 Q 147 381 112 311 Q 91 269 117 230 Q 129 209 152 227 Q 177 249 190 289 Q 211 344 208 392 Q 211 432 199 462 Q 192 472 185 472 Q 175 469 171 459 Z" fill="lightgray" class="stroke step0"/>
    <path d="M 863 228 Q 859 243 834 262 Q 797 290 698 391 Q 691 398 685 398 Q 682 397 684 389 Q 708 338 732 281 Q 742 257 728 241 Q 689 208 550 226 Q 441 244 397 323 Q 370 377 355 435 Q 348 463 324 476 Q 306 486 299 478 Q 295 474 302 454 Q 312 429 335 363 Q 372 224 476 178 Q 495 171 521 163 Q 710 115 851 212 Q 866 221 863 228 Z" fill="lightgray" class="hide"/>
    <path d="M 441 617 Q 475 578 511 531 Q 524 515 541 513 Q 553 512 561 525 Q 568 541 564 574 Q 560 619 444 670 Q 428 677 420 675 Q 414 672 414 658 Q 415 645 441 617 Z" fill="lightgray" class="hide"/>
    <path d="M 760 585 Q 814 536 877 465 Q 896 441 914 437 Q 924 436 933 447 Q 948 463 932 514 Q 922 563 840 592 Q 789 613 761 621 Q 751 627 748 612 Q 747 596 760 585 Z" fill="lightgray" class="hide"/></g><g transform="scale(1, -1) translate(0, -900)">
    <style type="text/css">
        .origin {display:none;}
        .hide {display:none;}
        .stroke {fill: #000000;}
        
.step1 {transform: translateX(1024px);}
.step2 {transform: translateX(2048px);}
.step3 {transform: translateX(3072px);}
.step4 {transform: translateX(4096px);}
.step5 {transform: translateX(5120px);}
.step6 {transform: translateX(6144px);}
.step7 {transform: translateX(7168px);}
.step8 {transform: translateX(8192px);}
.step9 {transform: translateX(9216px);}
.step10 {transform: translateX(10240px);}
.step11 {transform: translateX(11264px);}
.step12 {transform: translateX(12288px);}
.step13 {transform: translateX(13312px);}
.step14 {transform: translateX(14336px);}
.step15 {transform: translateX(15360px);}
.step16 {transform: translateX(16384px);}
.step17 {transform: translateX(17408px);}
.step18 {transform: translateX(18432px);}
.step19 {transform: translateX(19456px);}
.step20 {transform: translateX(20480px);}
.step21 {transform: translateX(21504px);}
.step22 {transform: translateX(22528px);}
.step23 {transform: translateX(23552px);}
.step24 {transform: translateX(24576px);}
.step25 {transform: translateX(25600px);}
.step26 {transform: translateX(26624px);}
.step27 {transform: translateX(27648px);}
.step28 {transform: translateX(28672px);}
.step29 {transform: translateX(29696px);}
    </style>

    <path d="M 171 459 Q 147 381 112 311 Q 91 269 117 230 Q 129 209 152 227 Q 177 249 190 289 Q 211 344 208 392 Q 211 432 199 462 Q 192 472 185 472 Q 175 469 171 459 Z" fill="lightgray" class="stroke step1"/>
    <path d="M 863 228 Q 859 243 834 262 Q 797 290 698 391 Q 691 398 685 398 Q 682 397 684 389 Q 708 338 732 281 Q 742 257 728 241 Q 689 208 550 226 Q 441 244 397 323 Q 370 377 355 435 Q 348 463 324 476 Q 306 486 299 478 Q 295 474 302 454 Q 312 429 335 363 Q 372 224 476 178 Q 495 171 521 163 Q 710 115 851 212 Q 866 221 863 228 Z" fill="lightgray" class="stroke step1"/>
    <path d="M 441 617 Q 475 578 511 531 Q 524 515 541 513 Q 553 512 561 525 Q 568 541 564 574 Q 560 619 444 670 Q 428 677 420 675 Q 414 672 414 658 Q 415 645 441 617 Z" fill="lightgray" class="hide"/>
    <path d="M 760 585 Q 814 536 877 465 Q 896 441 914 437 Q 924 436 933 447 Q 948 463 932 514 Q 922 563 840 592 Q 789 613 761 621 Q 751 627 748 612 Q 747 596 760 585 Z" fill="lightgray" class="hide"/></g><g transform="scale(1, -1) translate(0, -900)">
    <style type="text/css">
        .origin {display:none;}
        .hide {display:none;}
        .stroke {fill: #000000;}
        
.step1 {transform: translateX(1024px);}
.step2 {transform: translateX(2048px);}
.step3 {transform: translateX(3072px);}
.step4 {transform: translateX(4096px);}
.step5 {transform: translateX(5120px);}
.step6 {transform: translateX(6144px);}
.step7 {transform: translateX(7168px);}
.step8 {transform: translateX(8192px);}
.step9 {transform: translateX(9216px);}
.step10 {transform: translateX(10240px);}
.step11 {transform: translateX(11264px);}
.step12 {transform: translateX(12288px);}
.step13 {transform: translateX(13312px);}
.step14 {transform: translateX(14336px);}
.step15 {transform: translateX(15360px);}
.step16 {transform: translateX(16384px);}
.step17 {transform: translateX(17408px);}
.step18 {transform: translateX(18432px);}
.step19 {transform: translateX(19456px);}
.step20 {transform: translateX(20480px);}
.step21 {transform: translateX(21504px);}
.step22 {transform: translateX(22528px);}
.step23 {transform: translateX(23552px);}
.step24 {transform: translateX(24576px);}
.step25 {transform: translateX(25600px);}
.step26 {transform: translateX(26624px);}
.step27 {transform: translateX(27648px);}
.step28 {transform: translateX(28672px);}
.step29 {transform: translateX(29696px);}
    </style>

    <path d="M 171 459 Q 147 381 112 311 Q 91 269 117 230 Q 129 209 152 227 Q 177 249 190 289 Q 211 344 208 392 Q 211 432 199 462 Q 192 472 185 472 Q 175 469 171 459 Z" fill="lightgray" class="stroke step2"/>
    <path d="M 863 228 Q 859 243 834 262 Q 797 290 698 391 Q 691 398 685 398 Q 682 397 684 389 Q 708 338 732 281 Q 742 257 728 241 Q 689 208 550 226 Q 441 244 397 323 Q 370 377 355 435 Q 348 463 324 476 Q 306 486 299 478 Q 295 474 302 454 Q 312 429 335 363 Q 372 224 476 178 Q 495 171 521 163 Q 710 115 851 212 Q 866 221 863 228 Z" fill="lightgray" class="stroke step2"/>
    <path d="M 441 617 Q 475 578 511 531 Q 524 515 541 513 Q 553 512 561 525 Q 568 541 564 574 Q 560 619 444 670 Q 428 677 420 675 Q 414 672 414 658 Q 415 645 441 617 Z" fill="lightgray" class="stroke step2"/>
    <path d="M 760 585 Q 814 536 877 465 Q 896 441 914 437 Q 924 436 933 447 Q 948 463 932 514 Q 922 563 840 592 Q 789 613 761 621 Q 751 627 748 612 Q 747 596 760 585 Z" fill="lightgray" class="hide"/></g><g transform="scale(1, -1) translate(0, -900)">
    <style type="text/css">
        .origin {display:none;}
        .hide {display:none;}
        .stroke {fill: #000000;}
        
.step1 {transform: translateX(1024px);}
.step2 {transform: translateX(2048px);}
.step3 {transform: translateX(3072px);}
.step4 {transform: translateX(4096px);}
.step5 {transform: translateX(5120px);}
.step6 {transform: translateX(6144px);}
.step7 {transform: translateX(7168px);}
.step8 {transform: translateX(8192px);}
.step9 {transform: translateX(9216px);}
.step10 {transform: translateX(10240px);}
.step11 {transform: translateX(11264px);}
.step12 {transform: translateX(12288px);}
.step13 {transform: translateX(13312px);}
.step14 {transform: translateX(14336px);}
.step15 {transform: translateX(15360px);}
.step16 {transform: translateX(16384px);}
.step17 {transform: translateX(17408px);}
.step18 {transform: translateX(18432px);}
.step19 {transform: translateX(19456px);}
.step20 {transform: translateX(20480px);}
.step21 {transform: translateX(21504px);}
.step22 {transform: translateX(22528px);}
.step23 {transform: translateX(23552px);}
.step24 {transform: translateX(24576px);}
.step25 {transform: translateX(25600px);}
.step26 {transform: translateX(26624px);}
.step27 {transform: translateX(27648px);}
.step28 {transform: translateX(28672px);}
.step29 {transform: translateX(29696px);}
    </style>

    <path d="M 171 459 Q 147 381 112 311 Q 91 269 117 230 Q 129 209 152 227 Q 177 249 190 289 Q 211 344 208 392 Q 211 432 199 462 Q 192 472 185 472 Q 175 469 171 459 Z" fill="lightgray" class="stroke step3"/>
    <path d="M 863 228 Q 859 243 834 262 Q 797 290 698 391 Q 691 398 685 398 Q 682 397 684 389 Q 708 338 732 281 Q 742 257 728 241 Q 689 208 550 226 Q 441 244 397 323 Q 370 377 355 435 Q 348 463 324 476 Q 306 486 299 478 Q 295 474 302 454 Q 312 429 335 363 Q 372 224 476 178 Q 495 171 521 163 Q 710 115 851 212 Q 866 221 863 228 Z" fill="lightgray" class="stroke step3"/>
    <path d="M 441 617 Q 475 578 511 531 Q 524 515 541 513 Q 553 512 561 525 Q 568 541 564 574 Q 560 619 444 670 Q 428 677 420 675 Q 414 672 414 658 Q 415 645 441 617 Z" fill="lightgray" class="stroke step3"/>
    <path d="M 760 585 Q 814 536 877 465 Q 896 441 914 437 Q 924 436 933 447 Q 948 463 932 514 Q 922 563 840 592 Q 789 613 761 621 Q 751 627 748 612 Q 747 596 760 585 Z" fill="lightgray" class="stroke step3"/></g></svg>