<svg version="1.1" viewBox="0 0 14336 1024" xmlns="http://www.w3.org/2000/svg">
  
  <g transform="scale(1, -1) translate(0, -900)" class="origin">
    <style type="text/css">
        .origin {display:none;}
        .hide {display:none;}
        .stroke {fill: #000000;}
        
.step1 {transform: translateX(1024px);}
.step2 {transform: translateX(2048px);}
.step3 {transform: translateX(3072px);}
.step4 {transform: translateX(4096px);}
.step5 {transform: translateX(5120px);}
.step6 {transform: translateX(6144px);}
.step7 {transform: translateX(7168px);}
.step8 {transform: translateX(8192px);}
.step9 {transform: translateX(9216px);}
.step10 {transform: translateX(10240px);}
.step11 {transform: translateX(11264px);}
.step12 {transform: translateX(12288px);}
.step13 {transform: translateX(13312px);}
.step14 {transform: translateX(14336px);}
.step15 {transform: translateX(15360px);}
.step16 {transform: translateX(16384px);}
.step17 {transform: translateX(17408px);}
.step18 {transform: translateX(18432px);}
.step19 {transform: translateX(19456px);}
.step20 {transform: translateX(20480px);}
.step21 {transform: translateX(21504px);}
.step22 {transform: translateX(22528px);}
.step23 {transform: translateX(23552px);}
.step24 {transform: translateX(24576px);}
.step25 {transform: translateX(25600px);}
.step26 {transform: translateX(26624px);}
.step27 {transform: translateX(27648px);}
.step28 {transform: translateX(28672px);}
.step29 {transform: translateX(29696px);}
    </style>

    <path d="M 119 513 Q 103 450 76 392 Q 61 361 81 334 Q 90 319 106 333 Q 124 349 133 378 Q 149 426 147 466 Q 148 494 139 516 Q 135 523 129 523 Q 122 522 119 513 Z" fill="lightgray"/>
    <path d="M 272 545 L 273 545 Q 297 526 322 503 Q 332 493 345 494 Q 354 494 357 505 Q 361 515 353 539 Q 349 555 323 567 Q 299 576 273 581 C 244 587 246 560 272 545 Z" fill="lightgray"/>
    <path d="M 273 581 Q 276 671 294 732 Q 303 747 300 760 Q 293 770 238 805 Q 214 823 193 807 Q 189 803 194 786 Q 227 737 227 688 Q 228 615 229 534 Q 225 390 220 234 Q 214 156 193 85 Q 183 48 207 -18 Q 214 -36 222 -39 Q 228 -46 236 -37 Q 263 -21 264 45 Q 263 94 272 545 L 273 581 Z" fill="lightgray"/>
    <path d="M 469 650 Q 508 641 543 648 Q 835 703 849 710 Q 849 711 850 711 Q 860 718 855 728 Q 848 740 818 748 Q 791 754 687 723 Q 566 696 464 685 C 434 682 440 656 469 650 Z" fill="lightgray"/>
    <path d="M 581 571 Q 574 575 544 579 Q 534 580 532 577 Q 528 573 535 560 Q 557 517 574 447 Q 578 426 591 413 Q 606 397 609 409 Q 610 418 611 430 L 607 458 Q 594 519 590 544 C 586 569 586 569 581 571 Z" fill="lightgray"/>
    <path d="M 755 484 Q 776 541 801 554 Q 814 570 802 584 Q 789 594 747 613 Q 732 620 715 613 Q 681 597 647 587 Q 616 578 581 571 C 552 565 560 539 590 544 Q 656 556 725 570 L 726 569 Q 733 562 731 550 Q 724 514 714 485 C 705 457 744 456 755 484 Z" fill="lightgray"/>
    <path d="M 611 430 Q 618 429 629 431 Q 674 441 771 453 Q 780 454 780 462 Q 780 469 755 484 C 742 492 742 492 714 485 L 713 485 Q 653 467 607 458 C 578 452 581 432 611 430 Z" fill="lightgray"/>
    <path d="M 518 324 Q 511 328 486 330 Q 479 331 476 328 Q 472 324 478 314 Q 503 269 519 196 Q 523 174 536 159 Q 549 146 552 156 Q 555 168 552 185 L 547 213 Q 531 279 526 302 C 521 323 521 323 518 324 Z" fill="lightgray"/>
    <path d="M 640 224 Q 656 282 675 299 Q 694 318 676 331 Q 661 340 640 354 Q 625 363 611 355 Q 592 343 569 336 Q 547 330 518 324 C 489 318 496 298 526 302 Q 530 302 595 315 Q 611 319 616 312 Q 619 309 600 226 C 593 197 632 195 640 224 Z" fill="lightgray"/>
    <path d="M 552 185 Q 559 184 569 186 Q 596 190 654 194 Q 663 195 664 202 Q 664 209 640 224 C 634 228 630 228 600 226 Q 599 227 597 226 Q 569 219 547 213 C 518 205 522 187 552 185 Z" fill="lightgray"/>
    <path d="M 742 349 Q 733 355 704 360 Q 695 363 692 358 Q 688 354 694 341 Q 716 295 728 219 Q 729 197 743 181 Q 756 165 761 176 Q 764 185 764 199 L 761 232 Q 749 302 747 326 C 745 348 745 348 742 349 Z" fill="lightgray"/>
    <path d="M 870 247 Q 892 305 914 323 Q 933 342 916 356 Q 865 389 857 387 Q 851 387 848 384 Q 824 369 742 349 C 713 342 717 322 747 326 Q 756 327 768 329 Q 802 336 830 342 Q 849 346 854 338 Q 857 335 827 248 C 817 220 859 219 870 247 Z" fill="lightgray"/>
    <path d="M 764 199 Q 773 198 783 200 Q 817 206 888 209 Q 898 210 900 220 Q 900 227 870 247 C 866 250 857 250 827 248 Q 826 249 823 248 Q 789 238 761 232 C 732 226 734 201 764 199 Z" fill="lightgray"/>
    <path d="M 464 685 Q 463 686 463 687 Q 453 697 422 712 Q 401 722 393 715 Q 386 708 393 692 Q 412 658 415 592 Q 427 354 410 134 Q 406 92 382 55 Q 370 39 380 17 Q 389 -5 399 -15 Q 409 -24 428 -11 Q 492 31 590 47 Q 701 65 914 57 Q 942 56 943 69 Q 943 85 912 109 Q 896 124 858 117 Q 756 104 675 96 Q 593 95 494 77 Q 479 74 472 80 Q 465 81 464 99 Q 468 307 466 571 Q 465 619 469 650 C 471 680 471 680 464 685 Z" fill="lightgray"/></g>
<g transform="scale(1, -1) translate(0, -900)">
    <style type="text/css">
        .origin {display:none;}
        .hide {display:none;}
        .stroke {fill: #000000;}
        
.step1 {transform: translateX(1024px);}
.step2 {transform: translateX(2048px);}
.step3 {transform: translateX(3072px);}
.step4 {transform: translateX(4096px);}
.step5 {transform: translateX(5120px);}
.step6 {transform: translateX(6144px);}
.step7 {transform: translateX(7168px);}
.step8 {transform: translateX(8192px);}
.step9 {transform: translateX(9216px);}
.step10 {transform: translateX(10240px);}
.step11 {transform: translateX(11264px);}
.step12 {transform: translateX(12288px);}
.step13 {transform: translateX(13312px);}
.step14 {transform: translateX(14336px);}
.step15 {transform: translateX(15360px);}
.step16 {transform: translateX(16384px);}
.step17 {transform: translateX(17408px);}
.step18 {transform: translateX(18432px);}
.step19 {transform: translateX(19456px);}
.step20 {transform: translateX(20480px);}
.step21 {transform: translateX(21504px);}
.step22 {transform: translateX(22528px);}
.step23 {transform: translateX(23552px);}
.step24 {transform: translateX(24576px);}
.step25 {transform: translateX(25600px);}
.step26 {transform: translateX(26624px);}
.step27 {transform: translateX(27648px);}
.step28 {transform: translateX(28672px);}
.step29 {transform: translateX(29696px);}
    </style>

    <path d="M 119 513 Q 103 450 76 392 Q 61 361 81 334 Q 90 319 106 333 Q 124 349 133 378 Q 149 426 147 466 Q 148 494 139 516 Q 135 523 129 523 Q 122 522 119 513 Z" fill="lightgray" class="stroke step0"/>
    <path d="M 272 545 L 273 545 Q 297 526 322 503 Q 332 493 345 494 Q 354 494 357 505 Q 361 515 353 539 Q 349 555 323 567 Q 299 576 273 581 C 244 587 246 560 272 545 Z" fill="lightgray" class="hide"/>
    <path d="M 273 581 Q 276 671 294 732 Q 303 747 300 760 Q 293 770 238 805 Q 214 823 193 807 Q 189 803 194 786 Q 227 737 227 688 Q 228 615 229 534 Q 225 390 220 234 Q 214 156 193 85 Q 183 48 207 -18 Q 214 -36 222 -39 Q 228 -46 236 -37 Q 263 -21 264 45 Q 263 94 272 545 L 273 581 Z" fill="lightgray" class="hide"/>
    <path d="M 469 650 Q 508 641 543 648 Q 835 703 849 710 Q 849 711 850 711 Q 860 718 855 728 Q 848 740 818 748 Q 791 754 687 723 Q 566 696 464 685 C 434 682 440 656 469 650 Z" fill="lightgray" class="hide"/>
    <path d="M 581 571 Q 574 575 544 579 Q 534 580 532 577 Q 528 573 535 560 Q 557 517 574 447 Q 578 426 591 413 Q 606 397 609 409 Q 610 418 611 430 L 607 458 Q 594 519 590 544 C 586 569 586 569 581 571 Z" fill="lightgray" class="hide"/>
    <path d="M 755 484 Q 776 541 801 554 Q 814 570 802 584 Q 789 594 747 613 Q 732 620 715 613 Q 681 597 647 587 Q 616 578 581 571 C 552 565 560 539 590 544 Q 656 556 725 570 L 726 569 Q 733 562 731 550 Q 724 514 714 485 C 705 457 744 456 755 484 Z" fill="lightgray" class="hide"/>
    <path d="M 611 430 Q 618 429 629 431 Q 674 441 771 453 Q 780 454 780 462 Q 780 469 755 484 C 742 492 742 492 714 485 L 713 485 Q 653 467 607 458 C 578 452 581 432 611 430 Z" fill="lightgray" class="hide"/>
    <path d="M 518 324 Q 511 328 486 330 Q 479 331 476 328 Q 472 324 478 314 Q 503 269 519 196 Q 523 174 536 159 Q 549 146 552 156 Q 555 168 552 185 L 547 213 Q 531 279 526 302 C 521 323 521 323 518 324 Z" fill="lightgray" class="hide"/>
    <path d="M 640 224 Q 656 282 675 299 Q 694 318 676 331 Q 661 340 640 354 Q 625 363 611 355 Q 592 343 569 336 Q 547 330 518 324 C 489 318 496 298 526 302 Q 530 302 595 315 Q 611 319 616 312 Q 619 309 600 226 C 593 197 632 195 640 224 Z" fill="lightgray" class="hide"/>
    <path d="M 552 185 Q 559 184 569 186 Q 596 190 654 194 Q 663 195 664 202 Q 664 209 640 224 C 634 228 630 228 600 226 Q 599 227 597 226 Q 569 219 547 213 C 518 205 522 187 552 185 Z" fill="lightgray" class="hide"/>
    <path d="M 742 349 Q 733 355 704 360 Q 695 363 692 358 Q 688 354 694 341 Q 716 295 728 219 Q 729 197 743 181 Q 756 165 761 176 Q 764 185 764 199 L 761 232 Q 749 302 747 326 C 745 348 745 348 742 349 Z" fill="lightgray" class="hide"/>
    <path d="M 870 247 Q 892 305 914 323 Q 933 342 916 356 Q 865 389 857 387 Q 851 387 848 384 Q 824 369 742 349 C 713 342 717 322 747 326 Q 756 327 768 329 Q 802 336 830 342 Q 849 346 854 338 Q 857 335 827 248 C 817 220 859 219 870 247 Z" fill="lightgray" class="hide"/>
    <path d="M 764 199 Q 773 198 783 200 Q 817 206 888 209 Q 898 210 900 220 Q 900 227 870 247 C 866 250 857 250 827 248 Q 826 249 823 248 Q 789 238 761 232 C 732 226 734 201 764 199 Z" fill="lightgray" class="hide"/>
    <path d="M 464 685 Q 463 686 463 687 Q 453 697 422 712 Q 401 722 393 715 Q 386 708 393 692 Q 412 658 415 592 Q 427 354 410 134 Q 406 92 382 55 Q 370 39 380 17 Q 389 -5 399 -15 Q 409 -24 428 -11 Q 492 31 590 47 Q 701 65 914 57 Q 942 56 943 69 Q 943 85 912 109 Q 896 124 858 117 Q 756 104 675 96 Q 593 95 494 77 Q 479 74 472 80 Q 465 81 464 99 Q 468 307 466 571 Q 465 619 469 650 C 471 680 471 680 464 685 Z" fill="lightgray" class="hide"/></g><g transform="scale(1, -1) translate(0, -900)">
    <style type="text/css">
        .origin {display:none;}
        .hide {display:none;}
        .stroke {fill: #000000;}
        
.step1 {transform: translateX(1024px);}
.step2 {transform: translateX(2048px);}
.step3 {transform: translateX(3072px);}
.step4 {transform: translateX(4096px);}
.step5 {transform: translateX(5120px);}
.step6 {transform: translateX(6144px);}
.step7 {transform: translateX(7168px);}
.step8 {transform: translateX(8192px);}
.step9 {transform: translateX(9216px);}
.step10 {transform: translateX(10240px);}
.step11 {transform: translateX(11264px);}
.step12 {transform: translateX(12288px);}
.step13 {transform: translateX(13312px);}
.step14 {transform: translateX(14336px);}
.step15 {transform: translateX(15360px);}
.step16 {transform: translateX(16384px);}
.step17 {transform: translateX(17408px);}
.step18 {transform: translateX(18432px);}
.step19 {transform: translateX(19456px);}
.step20 {transform: translateX(20480px);}
.step21 {transform: translateX(21504px);}
.step22 {transform: translateX(22528px);}
.step23 {transform: translateX(23552px);}
.step24 {transform: translateX(24576px);}
.step25 {transform: translateX(25600px);}
.step26 {transform: translateX(26624px);}
.step27 {transform: translateX(27648px);}
.step28 {transform: translateX(28672px);}
.step29 {transform: translateX(29696px);}
    </style>

    <path d="M 119 513 Q 103 450 76 392 Q 61 361 81 334 Q 90 319 106 333 Q 124 349 133 378 Q 149 426 147 466 Q 148 494 139 516 Q 135 523 129 523 Q 122 522 119 513 Z" fill="lightgray" class="stroke step1"/>
    <path d="M 272 545 L 273 545 Q 297 526 322 503 Q 332 493 345 494 Q 354 494 357 505 Q 361 515 353 539 Q 349 555 323 567 Q 299 576 273 581 C 244 587 246 560 272 545 Z" fill="lightgray" class="stroke step1"/>
    <path d="M 273 581 Q 276 671 294 732 Q 303 747 300 760 Q 293 770 238 805 Q 214 823 193 807 Q 189 803 194 786 Q 227 737 227 688 Q 228 615 229 534 Q 225 390 220 234 Q 214 156 193 85 Q 183 48 207 -18 Q 214 -36 222 -39 Q 228 -46 236 -37 Q 263 -21 264 45 Q 263 94 272 545 L 273 581 Z" fill="lightgray" class="hide"/>
    <path d="M 469 650 Q 508 641 543 648 Q 835 703 849 710 Q 849 711 850 711 Q 860 718 855 728 Q 848 740 818 748 Q 791 754 687 723 Q 566 696 464 685 C 434 682 440 656 469 650 Z" fill="lightgray" class="hide"/>
    <path d="M 581 571 Q 574 575 544 579 Q 534 580 532 577 Q 528 573 535 560 Q 557 517 574 447 Q 578 426 591 413 Q 606 397 609 409 Q 610 418 611 430 L 607 458 Q 594 519 590 544 C 586 569 586 569 581 571 Z" fill="lightgray" class="hide"/>
    <path d="M 755 484 Q 776 541 801 554 Q 814 570 802 584 Q 789 594 747 613 Q 732 620 715 613 Q 681 597 647 587 Q 616 578 581 571 C 552 565 560 539 590 544 Q 656 556 725 570 L 726 569 Q 733 562 731 550 Q 724 514 714 485 C 705 457 744 456 755 484 Z" fill="lightgray" class="hide"/>
    <path d="M 611 430 Q 618 429 629 431 Q 674 441 771 453 Q 780 454 780 462 Q 780 469 755 484 C 742 492 742 492 714 485 L 713 485 Q 653 467 607 458 C 578 452 581 432 611 430 Z" fill="lightgray" class="hide"/>
    <path d="M 518 324 Q 511 328 486 330 Q 479 331 476 328 Q 472 324 478 314 Q 503 269 519 196 Q 523 174 536 159 Q 549 146 552 156 Q 555 168 552 185 L 547 213 Q 531 279 526 302 C 521 323 521 323 518 324 Z" fill="lightgray" class="hide"/>
    <path d="M 640 224 Q 656 282 675 299 Q 694 318 676 331 Q 661 340 640 354 Q 625 363 611 355 Q 592 343 569 336 Q 547 330 518 324 C 489 318 496 298 526 302 Q 530 302 595 315 Q 611 319 616 312 Q 619 309 600 226 C 593 197 632 195 640 224 Z" fill="lightgray" class="hide"/>
    <path d="M 552 185 Q 559 184 569 186 Q 596 190 654 194 Q 663 195 664 202 Q 664 209 640 224 C 634 228 630 228 600 226 Q 599 227 597 226 Q 569 219 547 213 C 518 205 522 187 552 185 Z" fill="lightgray" class="hide"/>
    <path d="M 742 349 Q 733 355 704 360 Q 695 363 692 358 Q 688 354 694 341 Q 716 295 728 219 Q 729 197 743 181 Q 756 165 761 176 Q 764 185 764 199 L 761 232 Q 749 302 747 326 C 745 348 745 348 742 349 Z" fill="lightgray" class="hide"/>
    <path d="M 870 247 Q 892 305 914 323 Q 933 342 916 356 Q 865 389 857 387 Q 851 387 848 384 Q 824 369 742 349 C 713 342 717 322 747 326 Q 756 327 768 329 Q 802 336 830 342 Q 849 346 854 338 Q 857 335 827 248 C 817 220 859 219 870 247 Z" fill="lightgray" class="hide"/>
    <path d="M 764 199 Q 773 198 783 200 Q 817 206 888 209 Q 898 210 900 220 Q 900 227 870 247 C 866 250 857 250 827 248 Q 826 249 823 248 Q 789 238 761 232 C 732 226 734 201 764 199 Z" fill="lightgray" class="hide"/>
    <path d="M 464 685 Q 463 686 463 687 Q 453 697 422 712 Q 401 722 393 715 Q 386 708 393 692 Q 412 658 415 592 Q 427 354 410 134 Q 406 92 382 55 Q 370 39 380 17 Q 389 -5 399 -15 Q 409 -24 428 -11 Q 492 31 590 47 Q 701 65 914 57 Q 942 56 943 69 Q 943 85 912 109 Q 896 124 858 117 Q 756 104 675 96 Q 593 95 494 77 Q 479 74 472 80 Q 465 81 464 99 Q 468 307 466 571 Q 465 619 469 650 C 471 680 471 680 464 685 Z" fill="lightgray" class="hide"/></g><g transform="scale(1, -1) translate(0, -900)">
    <style type="text/css">
        .origin {display:none;}
        .hide {display:none;}
        .stroke {fill: #000000;}
        
.step1 {transform: translateX(1024px);}
.step2 {transform: translateX(2048px);}
.step3 {transform: translateX(3072px);}
.step4 {transform: translateX(4096px);}
.step5 {transform: translateX(5120px);}
.step6 {transform: translateX(6144px);}
.step7 {transform: translateX(7168px);}
.step8 {transform: translateX(8192px);}
.step9 {transform: translateX(9216px);}
.step10 {transform: translateX(10240px);}
.step11 {transform: translateX(11264px);}
.step12 {transform: translateX(12288px);}
.step13 {transform: translateX(13312px);}
.step14 {transform: translateX(14336px);}
.step15 {transform: translateX(15360px);}
.step16 {transform: translateX(16384px);}
.step17 {transform: translateX(17408px);}
.step18 {transform: translateX(18432px);}
.step19 {transform: translateX(19456px);}
.step20 {transform: translateX(20480px);}
.step21 {transform: translateX(21504px);}
.step22 {transform: translateX(22528px);}
.step23 {transform: translateX(23552px);}
.step24 {transform: translateX(24576px);}
.step25 {transform: translateX(25600px);}
.step26 {transform: translateX(26624px);}
.step27 {transform: translateX(27648px);}
.step28 {transform: translateX(28672px);}
.step29 {transform: translateX(29696px);}
    </style>

    <path d="M 119 513 Q 103 450 76 392 Q 61 361 81 334 Q 90 319 106 333 Q 124 349 133 378 Q 149 426 147 466 Q 148 494 139 516 Q 135 523 129 523 Q 122 522 119 513 Z" fill="lightgray" class="stroke step2"/>
    <path d="M 272 545 L 273 545 Q 297 526 322 503 Q 332 493 345 494 Q 354 494 357 505 Q 361 515 353 539 Q 349 555 323 567 Q 299 576 273 581 C 244 587 246 560 272 545 Z" fill="lightgray" class="stroke step2"/>
    <path d="M 273 581 Q 276 671 294 732 Q 303 747 300 760 Q 293 770 238 805 Q 214 823 193 807 Q 189 803 194 786 Q 227 737 227 688 Q 228 615 229 534 Q 225 390 220 234 Q 214 156 193 85 Q 183 48 207 -18 Q 214 -36 222 -39 Q 228 -46 236 -37 Q 263 -21 264 45 Q 263 94 272 545 L 273 581 Z" fill="lightgray" class="stroke step2"/>
    <path d="M 469 650 Q 508 641 543 648 Q 835 703 849 710 Q 849 711 850 711 Q 860 718 855 728 Q 848 740 818 748 Q 791 754 687 723 Q 566 696 464 685 C 434 682 440 656 469 650 Z" fill="lightgray" class="hide"/>
    <path d="M 581 571 Q 574 575 544 579 Q 534 580 532 577 Q 528 573 535 560 Q 557 517 574 447 Q 578 426 591 413 Q 606 397 609 409 Q 610 418 611 430 L 607 458 Q 594 519 590 544 C 586 569 586 569 581 571 Z" fill="lightgray" class="hide"/>
    <path d="M 755 484 Q 776 541 801 554 Q 814 570 802 584 Q 789 594 747 613 Q 732 620 715 613 Q 681 597 647 587 Q 616 578 581 571 C 552 565 560 539 590 544 Q 656 556 725 570 L 726 569 Q 733 562 731 550 Q 724 514 714 485 C 705 457 744 456 755 484 Z" fill="lightgray" class="hide"/>
    <path d="M 611 430 Q 618 429 629 431 Q 674 441 771 453 Q 780 454 780 462 Q 780 469 755 484 C 742 492 742 492 714 485 L 713 485 Q 653 467 607 458 C 578 452 581 432 611 430 Z" fill="lightgray" class="hide"/>
    <path d="M 518 324 Q 511 328 486 330 Q 479 331 476 328 Q 472 324 478 314 Q 503 269 519 196 Q 523 174 536 159 Q 549 146 552 156 Q 555 168 552 185 L 547 213 Q 531 279 526 302 C 521 323 521 323 518 324 Z" fill="lightgray" class="hide"/>
    <path d="M 640 224 Q 656 282 675 299 Q 694 318 676 331 Q 661 340 640 354 Q 625 363 611 355 Q 592 343 569 336 Q 547 330 518 324 C 489 318 496 298 526 302 Q 530 302 595 315 Q 611 319 616 312 Q 619 309 600 226 C 593 197 632 195 640 224 Z" fill="lightgray" class="hide"/>
    <path d="M 552 185 Q 559 184 569 186 Q 596 190 654 194 Q 663 195 664 202 Q 664 209 640 224 C 634 228 630 228 600 226 Q 599 227 597 226 Q 569 219 547 213 C 518 205 522 187 552 185 Z" fill="lightgray" class="hide"/>
    <path d="M 742 349 Q 733 355 704 360 Q 695 363 692 358 Q 688 354 694 341 Q 716 295 728 219 Q 729 197 743 181 Q 756 165 761 176 Q 764 185 764 199 L 761 232 Q 749 302 747 326 C 745 348 745 348 742 349 Z" fill="lightgray" class="hide"/>
    <path d="M 870 247 Q 892 305 914 323 Q 933 342 916 356 Q 865 389 857 387 Q 851 387 848 384 Q 824 369 742 349 C 713 342 717 322 747 326 Q 756 327 768 329 Q 802 336 830 342 Q 849 346 854 338 Q 857 335 827 248 C 817 220 859 219 870 247 Z" fill="lightgray" class="hide"/>
    <path d="M 764 199 Q 773 198 783 200 Q 817 206 888 209 Q 898 210 900 220 Q 900 227 870 247 C 866 250 857 250 827 248 Q 826 249 823 248 Q 789 238 761 232 C 732 226 734 201 764 199 Z" fill="lightgray" class="hide"/>
    <path d="M 464 685 Q 463 686 463 687 Q 453 697 422 712 Q 401 722 393 715 Q 386 708 393 692 Q 412 658 415 592 Q 427 354 410 134 Q 406 92 382 55 Q 370 39 380 17 Q 389 -5 399 -15 Q 409 -24 428 -11 Q 492 31 590 47 Q 701 65 914 57 Q 942 56 943 69 Q 943 85 912 109 Q 896 124 858 117 Q 756 104 675 96 Q 593 95 494 77 Q 479 74 472 80 Q 465 81 464 99 Q 468 307 466 571 Q 465 619 469 650 C 471 680 471 680 464 685 Z" fill="lightgray" class="hide"/></g><g transform="scale(1, -1) translate(0, -900)">
    <style type="text/css">
        .origin {display:none;}
        .hide {display:none;}
        .stroke {fill: #000000;}
        
.step1 {transform: translateX(1024px);}
.step2 {transform: translateX(2048px);}
.step3 {transform: translateX(3072px);}
.step4 {transform: translateX(4096px);}
.step5 {transform: translateX(5120px);}
.step6 {transform: translateX(6144px);}
.step7 {transform: translateX(7168px);}
.step8 {transform: translateX(8192px);}
.step9 {transform: translateX(9216px);}
.step10 {transform: translateX(10240px);}
.step11 {transform: translateX(11264px);}
.step12 {transform: translateX(12288px);}
.step13 {transform: translateX(13312px);}
.step14 {transform: translateX(14336px);}
.step15 {transform: translateX(15360px);}
.step16 {transform: translateX(16384px);}
.step17 {transform: translateX(17408px);}
.step18 {transform: translateX(18432px);}
.step19 {transform: translateX(19456px);}
.step20 {transform: translateX(20480px);}
.step21 {transform: translateX(21504px);}
.step22 {transform: translateX(22528px);}
.step23 {transform: translateX(23552px);}
.step24 {transform: translateX(24576px);}
.step25 {transform: translateX(25600px);}
.step26 {transform: translateX(26624px);}
.step27 {transform: translateX(27648px);}
.step28 {transform: translateX(28672px);}
.step29 {transform: translateX(29696px);}
    </style>

    <path d="M 119 513 Q 103 450 76 392 Q 61 361 81 334 Q 90 319 106 333 Q 124 349 133 378 Q 149 426 147 466 Q 148 494 139 516 Q 135 523 129 523 Q 122 522 119 513 Z" fill="lightgray" class="stroke step3"/>
    <path d="M 272 545 L 273 545 Q 297 526 322 503 Q 332 493 345 494 Q 354 494 357 505 Q 361 515 353 539 Q 349 555 323 567 Q 299 576 273 581 C 244 587 246 560 272 545 Z" fill="lightgray" class="stroke step3"/>
    <path d="M 273 581 Q 276 671 294 732 Q 303 747 300 760 Q 293 770 238 805 Q 214 823 193 807 Q 189 803 194 786 Q 227 737 227 688 Q 228 615 229 534 Q 225 390 220 234 Q 214 156 193 85 Q 183 48 207 -18 Q 214 -36 222 -39 Q 228 -46 236 -37 Q 263 -21 264 45 Q 263 94 272 545 L 273 581 Z" fill="lightgray" class="stroke step3"/>
    <path d="M 469 650 Q 508 641 543 648 Q 835 703 849 710 Q 849 711 850 711 Q 860 718 855 728 Q 848 740 818 748 Q 791 754 687 723 Q 566 696 464 685 C 434 682 440 656 469 650 Z" fill="lightgray" class="stroke step3"/>
    <path d="M 581 571 Q 574 575 544 579 Q 534 580 532 577 Q 528 573 535 560 Q 557 517 574 447 Q 578 426 591 413 Q 606 397 609 409 Q 610 418 611 430 L 607 458 Q 594 519 590 544 C 586 569 586 569 581 571 Z" fill="lightgray" class="hide"/>
    <path d="M 755 484 Q 776 541 801 554 Q 814 570 802 584 Q 789 594 747 613 Q 732 620 715 613 Q 681 597 647 587 Q 616 578 581 571 C 552 565 560 539 590 544 Q 656 556 725 570 L 726 569 Q 733 562 731 550 Q 724 514 714 485 C 705 457 744 456 755 484 Z" fill="lightgray" class="hide"/>
    <path d="M 611 430 Q 618 429 629 431 Q 674 441 771 453 Q 780 454 780 462 Q 780 469 755 484 C 742 492 742 492 714 485 L 713 485 Q 653 467 607 458 C 578 452 581 432 611 430 Z" fill="lightgray" class="hide"/>
    <path d="M 518 324 Q 511 328 486 330 Q 479 331 476 328 Q 472 324 478 314 Q 503 269 519 196 Q 523 174 536 159 Q 549 146 552 156 Q 555 168 552 185 L 547 213 Q 531 279 526 302 C 521 323 521 323 518 324 Z" fill="lightgray" class="hide"/>
    <path d="M 640 224 Q 656 282 675 299 Q 694 318 676 331 Q 661 340 640 354 Q 625 363 611 355 Q 592 343 569 336 Q 547 330 518 324 C 489 318 496 298 526 302 Q 530 302 595 315 Q 611 319 616 312 Q 619 309 600 226 C 593 197 632 195 640 224 Z" fill="lightgray" class="hide"/>
    <path d="M 552 185 Q 559 184 569 186 Q 596 190 654 194 Q 663 195 664 202 Q 664 209 640 224 C 634 228 630 228 600 226 Q 599 227 597 226 Q 569 219 547 213 C 518 205 522 187 552 185 Z" fill="lightgray" class="hide"/>
    <path d="M 742 349 Q 733 355 704 360 Q 695 363 692 358 Q 688 354 694 341 Q 716 295 728 219 Q 729 197 743 181 Q 756 165 761 176 Q 764 185 764 199 L 761 232 Q 749 302 747 326 C 745 348 745 348 742 349 Z" fill="lightgray" class="hide"/>
    <path d="M 870 247 Q 892 305 914 323 Q 933 342 916 356 Q 865 389 857 387 Q 851 387 848 384 Q 824 369 742 349 C 713 342 717 322 747 326 Q 756 327 768 329 Q 802 336 830 342 Q 849 346 854 338 Q 857 335 827 248 C 817 220 859 219 870 247 Z" fill="lightgray" class="hide"/>
    <path d="M 764 199 Q 773 198 783 200 Q 817 206 888 209 Q 898 210 900 220 Q 900 227 870 247 C 866 250 857 250 827 248 Q 826 249 823 248 Q 789 238 761 232 C 732 226 734 201 764 199 Z" fill="lightgray" class="hide"/>
    <path d="M 464 685 Q 463 686 463 687 Q 453 697 422 712 Q 401 722 393 715 Q 386 708 393 692 Q 412 658 415 592 Q 427 354 410 134 Q 406 92 382 55 Q 370 39 380 17 Q 389 -5 399 -15 Q 409 -24 428 -11 Q 492 31 590 47 Q 701 65 914 57 Q 942 56 943 69 Q 943 85 912 109 Q 896 124 858 117 Q 756 104 675 96 Q 593 95 494 77 Q 479 74 472 80 Q 465 81 464 99 Q 468 307 466 571 Q 465 619 469 650 C 471 680 471 680 464 685 Z" fill="lightgray" class="hide"/></g><g transform="scale(1, -1) translate(0, -900)">
    <style type="text/css">
        .origin {display:none;}
        .hide {display:none;}
        .stroke {fill: #000000;}
        
.step1 {transform: translateX(1024px);}
.step2 {transform: translateX(2048px);}
.step3 {transform: translateX(3072px);}
.step4 {transform: translateX(4096px);}
.step5 {transform: translateX(5120px);}
.step6 {transform: translateX(6144px);}
.step7 {transform: translateX(7168px);}
.step8 {transform: translateX(8192px);}
.step9 {transform: translateX(9216px);}
.step10 {transform: translateX(10240px);}
.step11 {transform: translateX(11264px);}
.step12 {transform: translateX(12288px);}
.step13 {transform: translateX(13312px);}
.step14 {transform: translateX(14336px);}
.step15 {transform: translateX(15360px);}
.step16 {transform: translateX(16384px);}
.step17 {transform: translateX(17408px);}
.step18 {transform: translateX(18432px);}
.step19 {transform: translateX(19456px);}
.step20 {transform: translateX(20480px);}
.step21 {transform: translateX(21504px);}
.step22 {transform: translateX(22528px);}
.step23 {transform: translateX(23552px);}
.step24 {transform: translateX(24576px);}
.step25 {transform: translateX(25600px);}
.step26 {transform: translateX(26624px);}
.step27 {transform: translateX(27648px);}
.step28 {transform: translateX(28672px);}
.step29 {transform: translateX(29696px);}
    </style>

    <path d="M 119 513 Q 103 450 76 392 Q 61 361 81 334 Q 90 319 106 333 Q 124 349 133 378 Q 149 426 147 466 Q 148 494 139 516 Q 135 523 129 523 Q 122 522 119 513 Z" fill="lightgray" class="stroke step4"/>
    <path d="M 272 545 L 273 545 Q 297 526 322 503 Q 332 493 345 494 Q 354 494 357 505 Q 361 515 353 539 Q 349 555 323 567 Q 299 576 273 581 C 244 587 246 560 272 545 Z" fill="lightgray" class="stroke step4"/>
    <path d="M 273 581 Q 276 671 294 732 Q 303 747 300 760 Q 293 770 238 805 Q 214 823 193 807 Q 189 803 194 786 Q 227 737 227 688 Q 228 615 229 534 Q 225 390 220 234 Q 214 156 193 85 Q 183 48 207 -18 Q 214 -36 222 -39 Q 228 -46 236 -37 Q 263 -21 264 45 Q 263 94 272 545 L 273 581 Z" fill="lightgray" class="stroke step4"/>
    <path d="M 469 650 Q 508 641 543 648 Q 835 703 849 710 Q 849 711 850 711 Q 860 718 855 728 Q 848 740 818 748 Q 791 754 687 723 Q 566 696 464 685 C 434 682 440 656 469 650 Z" fill="lightgray" class="stroke step4"/>
    <path d="M 581 571 Q 574 575 544 579 Q 534 580 532 577 Q 528 573 535 560 Q 557 517 574 447 Q 578 426 591 413 Q 606 397 609 409 Q 610 418 611 430 L 607 458 Q 594 519 590 544 C 586 569 586 569 581 571 Z" fill="lightgray" class="stroke step4"/>
    <path d="M 755 484 Q 776 541 801 554 Q 814 570 802 584 Q 789 594 747 613 Q 732 620 715 613 Q 681 597 647 587 Q 616 578 581 571 C 552 565 560 539 590 544 Q 656 556 725 570 L 726 569 Q 733 562 731 550 Q 724 514 714 485 C 705 457 744 456 755 484 Z" fill="lightgray" class="hide"/>
    <path d="M 611 430 Q 618 429 629 431 Q 674 441 771 453 Q 780 454 780 462 Q 780 469 755 484 C 742 492 742 492 714 485 L 713 485 Q 653 467 607 458 C 578 452 581 432 611 430 Z" fill="lightgray" class="hide"/>
    <path d="M 518 324 Q 511 328 486 330 Q 479 331 476 328 Q 472 324 478 314 Q 503 269 519 196 Q 523 174 536 159 Q 549 146 552 156 Q 555 168 552 185 L 547 213 Q 531 279 526 302 C 521 323 521 323 518 324 Z" fill="lightgray" class="hide"/>
    <path d="M 640 224 Q 656 282 675 299 Q 694 318 676 331 Q 661 340 640 354 Q 625 363 611 355 Q 592 343 569 336 Q 547 330 518 324 C 489 318 496 298 526 302 Q 530 302 595 315 Q 611 319 616 312 Q 619 309 600 226 C 593 197 632 195 640 224 Z" fill="lightgray" class="hide"/>
    <path d="M 552 185 Q 559 184 569 186 Q 596 190 654 194 Q 663 195 664 202 Q 664 209 640 224 C 634 228 630 228 600 226 Q 599 227 597 226 Q 569 219 547 213 C 518 205 522 187 552 185 Z" fill="lightgray" class="hide"/>
    <path d="M 742 349 Q 733 355 704 360 Q 695 363 692 358 Q 688 354 694 341 Q 716 295 728 219 Q 729 197 743 181 Q 756 165 761 176 Q 764 185 764 199 L 761 232 Q 749 302 747 326 C 745 348 745 348 742 349 Z" fill="lightgray" class="hide"/>
    <path d="M 870 247 Q 892 305 914 323 Q 933 342 916 356 Q 865 389 857 387 Q 851 387 848 384 Q 824 369 742 349 C 713 342 717 322 747 326 Q 756 327 768 329 Q 802 336 830 342 Q 849 346 854 338 Q 857 335 827 248 C 817 220 859 219 870 247 Z" fill="lightgray" class="hide"/>
    <path d="M 764 199 Q 773 198 783 200 Q 817 206 888 209 Q 898 210 900 220 Q 900 227 870 247 C 866 250 857 250 827 248 Q 826 249 823 248 Q 789 238 761 232 C 732 226 734 201 764 199 Z" fill="lightgray" class="hide"/>
    <path d="M 464 685 Q 463 686 463 687 Q 453 697 422 712 Q 401 722 393 715 Q 386 708 393 692 Q 412 658 415 592 Q 427 354 410 134 Q 406 92 382 55 Q 370 39 380 17 Q 389 -5 399 -15 Q 409 -24 428 -11 Q 492 31 590 47 Q 701 65 914 57 Q 942 56 943 69 Q 943 85 912 109 Q 896 124 858 117 Q 756 104 675 96 Q 593 95 494 77 Q 479 74 472 80 Q 465 81 464 99 Q 468 307 466 571 Q 465 619 469 650 C 471 680 471 680 464 685 Z" fill="lightgray" class="hide"/></g><g transform="scale(1, -1) translate(0, -900)">
    <style type="text/css">
        .origin {display:none;}
        .hide {display:none;}
        .stroke {fill: #000000;}
        
.step1 {transform: translateX(1024px);}
.step2 {transform: translateX(2048px);}
.step3 {transform: translateX(3072px);}
.step4 {transform: translateX(4096px);}
.step5 {transform: translateX(5120px);}
.step6 {transform: translateX(6144px);}
.step7 {transform: translateX(7168px);}
.step8 {transform: translateX(8192px);}
.step9 {transform: translateX(9216px);}
.step10 {transform: translateX(10240px);}
.step11 {transform: translateX(11264px);}
.step12 {transform: translateX(12288px);}
.step13 {transform: translateX(13312px);}
.step14 {transform: translateX(14336px);}
.step15 {transform: translateX(15360px);}
.step16 {transform: translateX(16384px);}
.step17 {transform: translateX(17408px);}
.step18 {transform: translateX(18432px);}
.step19 {transform: translateX(19456px);}
.step20 {transform: translateX(20480px);}
.step21 {transform: translateX(21504px);}
.step22 {transform: translateX(22528px);}
.step23 {transform: translateX(23552px);}
.step24 {transform: translateX(24576px);}
.step25 {transform: translateX(25600px);}
.step26 {transform: translateX(26624px);}
.step27 {transform: translateX(27648px);}
.step28 {transform: translateX(28672px);}
.step29 {transform: translateX(29696px);}
    </style>

    <path d="M 119 513 Q 103 450 76 392 Q 61 361 81 334 Q 90 319 106 333 Q 124 349 133 378 Q 149 426 147 466 Q 148 494 139 516 Q 135 523 129 523 Q 122 522 119 513 Z" fill="lightgray" class="stroke step5"/>
    <path d="M 272 545 L 273 545 Q 297 526 322 503 Q 332 493 345 494 Q 354 494 357 505 Q 361 515 353 539 Q 349 555 323 567 Q 299 576 273 581 C 244 587 246 560 272 545 Z" fill="lightgray" class="stroke step5"/>
    <path d="M 273 581 Q 276 671 294 732 Q 303 747 300 760 Q 293 770 238 805 Q 214 823 193 807 Q 189 803 194 786 Q 227 737 227 688 Q 228 615 229 534 Q 225 390 220 234 Q 214 156 193 85 Q 183 48 207 -18 Q 214 -36 222 -39 Q 228 -46 236 -37 Q 263 -21 264 45 Q 263 94 272 545 L 273 581 Z" fill="lightgray" class="stroke step5"/>
    <path d="M 469 650 Q 508 641 543 648 Q 835 703 849 710 Q 849 711 850 711 Q 860 718 855 728 Q 848 740 818 748 Q 791 754 687 723 Q 566 696 464 685 C 434 682 440 656 469 650 Z" fill="lightgray" class="stroke step5"/>
    <path d="M 581 571 Q 574 575 544 579 Q 534 580 532 577 Q 528 573 535 560 Q 557 517 574 447 Q 578 426 591 413 Q 606 397 609 409 Q 610 418 611 430 L 607 458 Q 594 519 590 544 C 586 569 586 569 581 571 Z" fill="lightgray" class="stroke step5"/>
    <path d="M 755 484 Q 776 541 801 554 Q 814 570 802 584 Q 789 594 747 613 Q 732 620 715 613 Q 681 597 647 587 Q 616 578 581 571 C 552 565 560 539 590 544 Q 656 556 725 570 L 726 569 Q 733 562 731 550 Q 724 514 714 485 C 705 457 744 456 755 484 Z" fill="lightgray" class="stroke step5"/>
    <path d="M 611 430 Q 618 429 629 431 Q 674 441 771 453 Q 780 454 780 462 Q 780 469 755 484 C 742 492 742 492 714 485 L 713 485 Q 653 467 607 458 C 578 452 581 432 611 430 Z" fill="lightgray" class="hide"/>
    <path d="M 518 324 Q 511 328 486 330 Q 479 331 476 328 Q 472 324 478 314 Q 503 269 519 196 Q 523 174 536 159 Q 549 146 552 156 Q 555 168 552 185 L 547 213 Q 531 279 526 302 C 521 323 521 323 518 324 Z" fill="lightgray" class="hide"/>
    <path d="M 640 224 Q 656 282 675 299 Q 694 318 676 331 Q 661 340 640 354 Q 625 363 611 355 Q 592 343 569 336 Q 547 330 518 324 C 489 318 496 298 526 302 Q 530 302 595 315 Q 611 319 616 312 Q 619 309 600 226 C 593 197 632 195 640 224 Z" fill="lightgray" class="hide"/>
    <path d="M 552 185 Q 559 184 569 186 Q 596 190 654 194 Q 663 195 664 202 Q 664 209 640 224 C 634 228 630 228 600 226 Q 599 227 597 226 Q 569 219 547 213 C 518 205 522 187 552 185 Z" fill="lightgray" class="hide"/>
    <path d="M 742 349 Q 733 355 704 360 Q 695 363 692 358 Q 688 354 694 341 Q 716 295 728 219 Q 729 197 743 181 Q 756 165 761 176 Q 764 185 764 199 L 761 232 Q 749 302 747 326 C 745 348 745 348 742 349 Z" fill="lightgray" class="hide"/>
    <path d="M 870 247 Q 892 305 914 323 Q 933 342 916 356 Q 865 389 857 387 Q 851 387 848 384 Q 824 369 742 349 C 713 342 717 322 747 326 Q 756 327 768 329 Q 802 336 830 342 Q 849 346 854 338 Q 857 335 827 248 C 817 220 859 219 870 247 Z" fill="lightgray" class="hide"/>
    <path d="M 764 199 Q 773 198 783 200 Q 817 206 888 209 Q 898 210 900 220 Q 900 227 870 247 C 866 250 857 250 827 248 Q 826 249 823 248 Q 789 238 761 232 C 732 226 734 201 764 199 Z" fill="lightgray" class="hide"/>
    <path d="M 464 685 Q 463 686 463 687 Q 453 697 422 712 Q 401 722 393 715 Q 386 708 393 692 Q 412 658 415 592 Q 427 354 410 134 Q 406 92 382 55 Q 370 39 380 17 Q 389 -5 399 -15 Q 409 -24 428 -11 Q 492 31 590 47 Q 701 65 914 57 Q 942 56 943 69 Q 943 85 912 109 Q 896 124 858 117 Q 756 104 675 96 Q 593 95 494 77 Q 479 74 472 80 Q 465 81 464 99 Q 468 307 466 571 Q 465 619 469 650 C 471 680 471 680 464 685 Z" fill="lightgray" class="hide"/></g><g transform="scale(1, -1) translate(0, -900)">
    <style type="text/css">
        .origin {display:none;}
        .hide {display:none;}
        .stroke {fill: #000000;}
        
.step1 {transform: translateX(1024px);}
.step2 {transform: translateX(2048px);}
.step3 {transform: translateX(3072px);}
.step4 {transform: translateX(4096px);}
.step5 {transform: translateX(5120px);}
.step6 {transform: translateX(6144px);}
.step7 {transform: translateX(7168px);}
.step8 {transform: translateX(8192px);}
.step9 {transform: translateX(9216px);}
.step10 {transform: translateX(10240px);}
.step11 {transform: translateX(11264px);}
.step12 {transform: translateX(12288px);}
.step13 {transform: translateX(13312px);}
.step14 {transform: translateX(14336px);}
.step15 {transform: translateX(15360px);}
.step16 {transform: translateX(16384px);}
.step17 {transform: translateX(17408px);}
.step18 {transform: translateX(18432px);}
.step19 {transform: translateX(19456px);}
.step20 {transform: translateX(20480px);}
.step21 {transform: translateX(21504px);}
.step22 {transform: translateX(22528px);}
.step23 {transform: translateX(23552px);}
.step24 {transform: translateX(24576px);}
.step25 {transform: translateX(25600px);}
.step26 {transform: translateX(26624px);}
.step27 {transform: translateX(27648px);}
.step28 {transform: translateX(28672px);}
.step29 {transform: translateX(29696px);}
    </style>

    <path d="M 119 513 Q 103 450 76 392 Q 61 361 81 334 Q 90 319 106 333 Q 124 349 133 378 Q 149 426 147 466 Q 148 494 139 516 Q 135 523 129 523 Q 122 522 119 513 Z" fill="lightgray" class="stroke step6"/>
    <path d="M 272 545 L 273 545 Q 297 526 322 503 Q 332 493 345 494 Q 354 494 357 505 Q 361 515 353 539 Q 349 555 323 567 Q 299 576 273 581 C 244 587 246 560 272 545 Z" fill="lightgray" class="stroke step6"/>
    <path d="M 273 581 Q 276 671 294 732 Q 303 747 300 760 Q 293 770 238 805 Q 214 823 193 807 Q 189 803 194 786 Q 227 737 227 688 Q 228 615 229 534 Q 225 390 220 234 Q 214 156 193 85 Q 183 48 207 -18 Q 214 -36 222 -39 Q 228 -46 236 -37 Q 263 -21 264 45 Q 263 94 272 545 L 273 581 Z" fill="lightgray" class="stroke step6"/>
    <path d="M 469 650 Q 508 641 543 648 Q 835 703 849 710 Q 849 711 850 711 Q 860 718 855 728 Q 848 740 818 748 Q 791 754 687 723 Q 566 696 464 685 C 434 682 440 656 469 650 Z" fill="lightgray" class="stroke step6"/>
    <path d="M 581 571 Q 574 575 544 579 Q 534 580 532 577 Q 528 573 535 560 Q 557 517 574 447 Q 578 426 591 413 Q 606 397 609 409 Q 610 418 611 430 L 607 458 Q 594 519 590 544 C 586 569 586 569 581 571 Z" fill="lightgray" class="stroke step6"/>
    <path d="M 755 484 Q 776 541 801 554 Q 814 570 802 584 Q 789 594 747 613 Q 732 620 715 613 Q 681 597 647 587 Q 616 578 581 571 C 552 565 560 539 590 544 Q 656 556 725 570 L 726 569 Q 733 562 731 550 Q 724 514 714 485 C 705 457 744 456 755 484 Z" fill="lightgray" class="stroke step6"/>
    <path d="M 611 430 Q 618 429 629 431 Q 674 441 771 453 Q 780 454 780 462 Q 780 469 755 484 C 742 492 742 492 714 485 L 713 485 Q 653 467 607 458 C 578 452 581 432 611 430 Z" fill="lightgray" class="stroke step6"/>
    <path d="M 518 324 Q 511 328 486 330 Q 479 331 476 328 Q 472 324 478 314 Q 503 269 519 196 Q 523 174 536 159 Q 549 146 552 156 Q 555 168 552 185 L 547 213 Q 531 279 526 302 C 521 323 521 323 518 324 Z" fill="lightgray" class="hide"/>
    <path d="M 640 224 Q 656 282 675 299 Q 694 318 676 331 Q 661 340 640 354 Q 625 363 611 355 Q 592 343 569 336 Q 547 330 518 324 C 489 318 496 298 526 302 Q 530 302 595 315 Q 611 319 616 312 Q 619 309 600 226 C 593 197 632 195 640 224 Z" fill="lightgray" class="hide"/>
    <path d="M 552 185 Q 559 184 569 186 Q 596 190 654 194 Q 663 195 664 202 Q 664 209 640 224 C 634 228 630 228 600 226 Q 599 227 597 226 Q 569 219 547 213 C 518 205 522 187 552 185 Z" fill="lightgray" class="hide"/>
    <path d="M 742 349 Q 733 355 704 360 Q 695 363 692 358 Q 688 354 694 341 Q 716 295 728 219 Q 729 197 743 181 Q 756 165 761 176 Q 764 185 764 199 L 761 232 Q 749 302 747 326 C 745 348 745 348 742 349 Z" fill="lightgray" class="hide"/>
    <path d="M 870 247 Q 892 305 914 323 Q 933 342 916 356 Q 865 389 857 387 Q 851 387 848 384 Q 824 369 742 349 C 713 342 717 322 747 326 Q 756 327 768 329 Q 802 336 830 342 Q 849 346 854 338 Q 857 335 827 248 C 817 220 859 219 870 247 Z" fill="lightgray" class="hide"/>
    <path d="M 764 199 Q 773 198 783 200 Q 817 206 888 209 Q 898 210 900 220 Q 900 227 870 247 C 866 250 857 250 827 248 Q 826 249 823 248 Q 789 238 761 232 C 732 226 734 201 764 199 Z" fill="lightgray" class="hide"/>
    <path d="M 464 685 Q 463 686 463 687 Q 453 697 422 712 Q 401 722 393 715 Q 386 708 393 692 Q 412 658 415 592 Q 427 354 410 134 Q 406 92 382 55 Q 370 39 380 17 Q 389 -5 399 -15 Q 409 -24 428 -11 Q 492 31 590 47 Q 701 65 914 57 Q 942 56 943 69 Q 943 85 912 109 Q 896 124 858 117 Q 756 104 675 96 Q 593 95 494 77 Q 479 74 472 80 Q 465 81 464 99 Q 468 307 466 571 Q 465 619 469 650 C 471 680 471 680 464 685 Z" fill="lightgray" class="hide"/></g><g transform="scale(1, -1) translate(0, -900)">
    <style type="text/css">
        .origin {display:none;}
        .hide {display:none;}
        .stroke {fill: #000000;}
        
.step1 {transform: translateX(1024px);}
.step2 {transform: translateX(2048px);}
.step3 {transform: translateX(3072px);}
.step4 {transform: translateX(4096px);}
.step5 {transform: translateX(5120px);}
.step6 {transform: translateX(6144px);}
.step7 {transform: translateX(7168px);}
.step8 {transform: translateX(8192px);}
.step9 {transform: translateX(9216px);}
.step10 {transform: translateX(10240px);}
.step11 {transform: translateX(11264px);}
.step12 {transform: translateX(12288px);}
.step13 {transform: translateX(13312px);}
.step14 {transform: translateX(14336px);}
.step15 {transform: translateX(15360px);}
.step16 {transform: translateX(16384px);}
.step17 {transform: translateX(17408px);}
.step18 {transform: translateX(18432px);}
.step19 {transform: translateX(19456px);}
.step20 {transform: translateX(20480px);}
.step21 {transform: translateX(21504px);}
.step22 {transform: translateX(22528px);}
.step23 {transform: translateX(23552px);}
.step24 {transform: translateX(24576px);}
.step25 {transform: translateX(25600px);}
.step26 {transform: translateX(26624px);}
.step27 {transform: translateX(27648px);}
.step28 {transform: translateX(28672px);}
.step29 {transform: translateX(29696px);}
    </style>

    <path d="M 119 513 Q 103 450 76 392 Q 61 361 81 334 Q 90 319 106 333 Q 124 349 133 378 Q 149 426 147 466 Q 148 494 139 516 Q 135 523 129 523 Q 122 522 119 513 Z" fill="lightgray" class="stroke step7"/>
    <path d="M 272 545 L 273 545 Q 297 526 322 503 Q 332 493 345 494 Q 354 494 357 505 Q 361 515 353 539 Q 349 555 323 567 Q 299 576 273 581 C 244 587 246 560 272 545 Z" fill="lightgray" class="stroke step7"/>
    <path d="M 273 581 Q 276 671 294 732 Q 303 747 300 760 Q 293 770 238 805 Q 214 823 193 807 Q 189 803 194 786 Q 227 737 227 688 Q 228 615 229 534 Q 225 390 220 234 Q 214 156 193 85 Q 183 48 207 -18 Q 214 -36 222 -39 Q 228 -46 236 -37 Q 263 -21 264 45 Q 263 94 272 545 L 273 581 Z" fill="lightgray" class="stroke step7"/>
    <path d="M 469 650 Q 508 641 543 648 Q 835 703 849 710 Q 849 711 850 711 Q 860 718 855 728 Q 848 740 818 748 Q 791 754 687 723 Q 566 696 464 685 C 434 682 440 656 469 650 Z" fill="lightgray" class="stroke step7"/>
    <path d="M 581 571 Q 574 575 544 579 Q 534 580 532 577 Q 528 573 535 560 Q 557 517 574 447 Q 578 426 591 413 Q 606 397 609 409 Q 610 418 611 430 L 607 458 Q 594 519 590 544 C 586 569 586 569 581 571 Z" fill="lightgray" class="stroke step7"/>
    <path d="M 755 484 Q 776 541 801 554 Q 814 570 802 584 Q 789 594 747 613 Q 732 620 715 613 Q 681 597 647 587 Q 616 578 581 571 C 552 565 560 539 590 544 Q 656 556 725 570 L 726 569 Q 733 562 731 550 Q 724 514 714 485 C 705 457 744 456 755 484 Z" fill="lightgray" class="stroke step7"/>
    <path d="M 611 430 Q 618 429 629 431 Q 674 441 771 453 Q 780 454 780 462 Q 780 469 755 484 C 742 492 742 492 714 485 L 713 485 Q 653 467 607 458 C 578 452 581 432 611 430 Z" fill="lightgray" class="stroke step7"/>
    <path d="M 518 324 Q 511 328 486 330 Q 479 331 476 328 Q 472 324 478 314 Q 503 269 519 196 Q 523 174 536 159 Q 549 146 552 156 Q 555 168 552 185 L 547 213 Q 531 279 526 302 C 521 323 521 323 518 324 Z" fill="lightgray" class="stroke step7"/>
    <path d="M 640 224 Q 656 282 675 299 Q 694 318 676 331 Q 661 340 640 354 Q 625 363 611 355 Q 592 343 569 336 Q 547 330 518 324 C 489 318 496 298 526 302 Q 530 302 595 315 Q 611 319 616 312 Q 619 309 600 226 C 593 197 632 195 640 224 Z" fill="lightgray" class="hide"/>
    <path d="M 552 185 Q 559 184 569 186 Q 596 190 654 194 Q 663 195 664 202 Q 664 209 640 224 C 634 228 630 228 600 226 Q 599 227 597 226 Q 569 219 547 213 C 518 205 522 187 552 185 Z" fill="lightgray" class="hide"/>
    <path d="M 742 349 Q 733 355 704 360 Q 695 363 692 358 Q 688 354 694 341 Q 716 295 728 219 Q 729 197 743 181 Q 756 165 761 176 Q 764 185 764 199 L 761 232 Q 749 302 747 326 C 745 348 745 348 742 349 Z" fill="lightgray" class="hide"/>
    <path d="M 870 247 Q 892 305 914 323 Q 933 342 916 356 Q 865 389 857 387 Q 851 387 848 384 Q 824 369 742 349 C 713 342 717 322 747 326 Q 756 327 768 329 Q 802 336 830 342 Q 849 346 854 338 Q 857 335 827 248 C 817 220 859 219 870 247 Z" fill="lightgray" class="hide"/>
    <path d="M 764 199 Q 773 198 783 200 Q 817 206 888 209 Q 898 210 900 220 Q 900 227 870 247 C 866 250 857 250 827 248 Q 826 249 823 248 Q 789 238 761 232 C 732 226 734 201 764 199 Z" fill="lightgray" class="hide"/>
    <path d="M 464 685 Q 463 686 463 687 Q 453 697 422 712 Q 401 722 393 715 Q 386 708 393 692 Q 412 658 415 592 Q 427 354 410 134 Q 406 92 382 55 Q 370 39 380 17 Q 389 -5 399 -15 Q 409 -24 428 -11 Q 492 31 590 47 Q 701 65 914 57 Q 942 56 943 69 Q 943 85 912 109 Q 896 124 858 117 Q 756 104 675 96 Q 593 95 494 77 Q 479 74 472 80 Q 465 81 464 99 Q 468 307 466 571 Q 465 619 469 650 C 471 680 471 680 464 685 Z" fill="lightgray" class="hide"/></g><g transform="scale(1, -1) translate(0, -900)">
    <style type="text/css">
        .origin {display:none;}
        .hide {display:none;}
        .stroke {fill: #000000;}
        
.step1 {transform: translateX(1024px);}
.step2 {transform: translateX(2048px);}
.step3 {transform: translateX(3072px);}
.step4 {transform: translateX(4096px);}
.step5 {transform: translateX(5120px);}
.step6 {transform: translateX(6144px);}
.step7 {transform: translateX(7168px);}
.step8 {transform: translateX(8192px);}
.step9 {transform: translateX(9216px);}
.step10 {transform: translateX(10240px);}
.step11 {transform: translateX(11264px);}
.step12 {transform: translateX(12288px);}
.step13 {transform: translateX(13312px);}
.step14 {transform: translateX(14336px);}
.step15 {transform: translateX(15360px);}
.step16 {transform: translateX(16384px);}
.step17 {transform: translateX(17408px);}
.step18 {transform: translateX(18432px);}
.step19 {transform: translateX(19456px);}
.step20 {transform: translateX(20480px);}
.step21 {transform: translateX(21504px);}
.step22 {transform: translateX(22528px);}
.step23 {transform: translateX(23552px);}
.step24 {transform: translateX(24576px);}
.step25 {transform: translateX(25600px);}
.step26 {transform: translateX(26624px);}
.step27 {transform: translateX(27648px);}
.step28 {transform: translateX(28672px);}
.step29 {transform: translateX(29696px);}
    </style>

    <path d="M 119 513 Q 103 450 76 392 Q 61 361 81 334 Q 90 319 106 333 Q 124 349 133 378 Q 149 426 147 466 Q 148 494 139 516 Q 135 523 129 523 Q 122 522 119 513 Z" fill="lightgray" class="stroke step8"/>
    <path d="M 272 545 L 273 545 Q 297 526 322 503 Q 332 493 345 494 Q 354 494 357 505 Q 361 515 353 539 Q 349 555 323 567 Q 299 576 273 581 C 244 587 246 560 272 545 Z" fill="lightgray" class="stroke step8"/>
    <path d="M 273 581 Q 276 671 294 732 Q 303 747 300 760 Q 293 770 238 805 Q 214 823 193 807 Q 189 803 194 786 Q 227 737 227 688 Q 228 615 229 534 Q 225 390 220 234 Q 214 156 193 85 Q 183 48 207 -18 Q 214 -36 222 -39 Q 228 -46 236 -37 Q 263 -21 264 45 Q 263 94 272 545 L 273 581 Z" fill="lightgray" class="stroke step8"/>
    <path d="M 469 650 Q 508 641 543 648 Q 835 703 849 710 Q 849 711 850 711 Q 860 718 855 728 Q 848 740 818 748 Q 791 754 687 723 Q 566 696 464 685 C 434 682 440 656 469 650 Z" fill="lightgray" class="stroke step8"/>
    <path d="M 581 571 Q 574 575 544 579 Q 534 580 532 577 Q 528 573 535 560 Q 557 517 574 447 Q 578 426 591 413 Q 606 397 609 409 Q 610 418 611 430 L 607 458 Q 594 519 590 544 C 586 569 586 569 581 571 Z" fill="lightgray" class="stroke step8"/>
    <path d="M 755 484 Q 776 541 801 554 Q 814 570 802 584 Q 789 594 747 613 Q 732 620 715 613 Q 681 597 647 587 Q 616 578 581 571 C 552 565 560 539 590 544 Q 656 556 725 570 L 726 569 Q 733 562 731 550 Q 724 514 714 485 C 705 457 744 456 755 484 Z" fill="lightgray" class="stroke step8"/>
    <path d="M 611 430 Q 618 429 629 431 Q 674 441 771 453 Q 780 454 780 462 Q 780 469 755 484 C 742 492 742 492 714 485 L 713 485 Q 653 467 607 458 C 578 452 581 432 611 430 Z" fill="lightgray" class="stroke step8"/>
    <path d="M 518 324 Q 511 328 486 330 Q 479 331 476 328 Q 472 324 478 314 Q 503 269 519 196 Q 523 174 536 159 Q 549 146 552 156 Q 555 168 552 185 L 547 213 Q 531 279 526 302 C 521 323 521 323 518 324 Z" fill="lightgray" class="stroke step8"/>
    <path d="M 640 224 Q 656 282 675 299 Q 694 318 676 331 Q 661 340 640 354 Q 625 363 611 355 Q 592 343 569 336 Q 547 330 518 324 C 489 318 496 298 526 302 Q 530 302 595 315 Q 611 319 616 312 Q 619 309 600 226 C 593 197 632 195 640 224 Z" fill="lightgray" class="stroke step8"/>
    <path d="M 552 185 Q 559 184 569 186 Q 596 190 654 194 Q 663 195 664 202 Q 664 209 640 224 C 634 228 630 228 600 226 Q 599 227 597 226 Q 569 219 547 213 C 518 205 522 187 552 185 Z" fill="lightgray" class="hide"/>
    <path d="M 742 349 Q 733 355 704 360 Q 695 363 692 358 Q 688 354 694 341 Q 716 295 728 219 Q 729 197 743 181 Q 756 165 761 176 Q 764 185 764 199 L 761 232 Q 749 302 747 326 C 745 348 745 348 742 349 Z" fill="lightgray" class="hide"/>
    <path d="M 870 247 Q 892 305 914 323 Q 933 342 916 356 Q 865 389 857 387 Q 851 387 848 384 Q 824 369 742 349 C 713 342 717 322 747 326 Q 756 327 768 329 Q 802 336 830 342 Q 849 346 854 338 Q 857 335 827 248 C 817 220 859 219 870 247 Z" fill="lightgray" class="hide"/>
    <path d="M 764 199 Q 773 198 783 200 Q 817 206 888 209 Q 898 210 900 220 Q 900 227 870 247 C 866 250 857 250 827 248 Q 826 249 823 248 Q 789 238 761 232 C 732 226 734 201 764 199 Z" fill="lightgray" class="hide"/>
    <path d="M 464 685 Q 463 686 463 687 Q 453 697 422 712 Q 401 722 393 715 Q 386 708 393 692 Q 412 658 415 592 Q 427 354 410 134 Q 406 92 382 55 Q 370 39 380 17 Q 389 -5 399 -15 Q 409 -24 428 -11 Q 492 31 590 47 Q 701 65 914 57 Q 942 56 943 69 Q 943 85 912 109 Q 896 124 858 117 Q 756 104 675 96 Q 593 95 494 77 Q 479 74 472 80 Q 465 81 464 99 Q 468 307 466 571 Q 465 619 469 650 C 471 680 471 680 464 685 Z" fill="lightgray" class="hide"/></g><g transform="scale(1, -1) translate(0, -900)">
    <style type="text/css">
        .origin {display:none;}
        .hide {display:none;}
        .stroke {fill: #000000;}
        
.step1 {transform: translateX(1024px);}
.step2 {transform: translateX(2048px);}
.step3 {transform: translateX(3072px);}
.step4 {transform: translateX(4096px);}
.step5 {transform: translateX(5120px);}
.step6 {transform: translateX(6144px);}
.step7 {transform: translateX(7168px);}
.step8 {transform: translateX(8192px);}
.step9 {transform: translateX(9216px);}
.step10 {transform: translateX(10240px);}
.step11 {transform: translateX(11264px);}
.step12 {transform: translateX(12288px);}
.step13 {transform: translateX(13312px);}
.step14 {transform: translateX(14336px);}
.step15 {transform: translateX(15360px);}
.step16 {transform: translateX(16384px);}
.step17 {transform: translateX(17408px);}
.step18 {transform: translateX(18432px);}
.step19 {transform: translateX(19456px);}
.step20 {transform: translateX(20480px);}
.step21 {transform: translateX(21504px);}
.step22 {transform: translateX(22528px);}
.step23 {transform: translateX(23552px);}
.step24 {transform: translateX(24576px);}
.step25 {transform: translateX(25600px);}
.step26 {transform: translateX(26624px);}
.step27 {transform: translateX(27648px);}
.step28 {transform: translateX(28672px);}
.step29 {transform: translateX(29696px);}
    </style>

    <path d="M 119 513 Q 103 450 76 392 Q 61 361 81 334 Q 90 319 106 333 Q 124 349 133 378 Q 149 426 147 466 Q 148 494 139 516 Q 135 523 129 523 Q 122 522 119 513 Z" fill="lightgray" class="stroke step9"/>
    <path d="M 272 545 L 273 545 Q 297 526 322 503 Q 332 493 345 494 Q 354 494 357 505 Q 361 515 353 539 Q 349 555 323 567 Q 299 576 273 581 C 244 587 246 560 272 545 Z" fill="lightgray" class="stroke step9"/>
    <path d="M 273 581 Q 276 671 294 732 Q 303 747 300 760 Q 293 770 238 805 Q 214 823 193 807 Q 189 803 194 786 Q 227 737 227 688 Q 228 615 229 534 Q 225 390 220 234 Q 214 156 193 85 Q 183 48 207 -18 Q 214 -36 222 -39 Q 228 -46 236 -37 Q 263 -21 264 45 Q 263 94 272 545 L 273 581 Z" fill="lightgray" class="stroke step9"/>
    <path d="M 469 650 Q 508 641 543 648 Q 835 703 849 710 Q 849 711 850 711 Q 860 718 855 728 Q 848 740 818 748 Q 791 754 687 723 Q 566 696 464 685 C 434 682 440 656 469 650 Z" fill="lightgray" class="stroke step9"/>
    <path d="M 581 571 Q 574 575 544 579 Q 534 580 532 577 Q 528 573 535 560 Q 557 517 574 447 Q 578 426 591 413 Q 606 397 609 409 Q 610 418 611 430 L 607 458 Q 594 519 590 544 C 586 569 586 569 581 571 Z" fill="lightgray" class="stroke step9"/>
    <path d="M 755 484 Q 776 541 801 554 Q 814 570 802 584 Q 789 594 747 613 Q 732 620 715 613 Q 681 597 647 587 Q 616 578 581 571 C 552 565 560 539 590 544 Q 656 556 725 570 L 726 569 Q 733 562 731 550 Q 724 514 714 485 C 705 457 744 456 755 484 Z" fill="lightgray" class="stroke step9"/>
    <path d="M 611 430 Q 618 429 629 431 Q 674 441 771 453 Q 780 454 780 462 Q 780 469 755 484 C 742 492 742 492 714 485 L 713 485 Q 653 467 607 458 C 578 452 581 432 611 430 Z" fill="lightgray" class="stroke step9"/>
    <path d="M 518 324 Q 511 328 486 330 Q 479 331 476 328 Q 472 324 478 314 Q 503 269 519 196 Q 523 174 536 159 Q 549 146 552 156 Q 555 168 552 185 L 547 213 Q 531 279 526 302 C 521 323 521 323 518 324 Z" fill="lightgray" class="stroke step9"/>
    <path d="M 640 224 Q 656 282 675 299 Q 694 318 676 331 Q 661 340 640 354 Q 625 363 611 355 Q 592 343 569 336 Q 547 330 518 324 C 489 318 496 298 526 302 Q 530 302 595 315 Q 611 319 616 312 Q 619 309 600 226 C 593 197 632 195 640 224 Z" fill="lightgray" class="stroke step9"/>
    <path d="M 552 185 Q 559 184 569 186 Q 596 190 654 194 Q 663 195 664 202 Q 664 209 640 224 C 634 228 630 228 600 226 Q 599 227 597 226 Q 569 219 547 213 C 518 205 522 187 552 185 Z" fill="lightgray" class="stroke step9"/>
    <path d="M 742 349 Q 733 355 704 360 Q 695 363 692 358 Q 688 354 694 341 Q 716 295 728 219 Q 729 197 743 181 Q 756 165 761 176 Q 764 185 764 199 L 761 232 Q 749 302 747 326 C 745 348 745 348 742 349 Z" fill="lightgray" class="hide"/>
    <path d="M 870 247 Q 892 305 914 323 Q 933 342 916 356 Q 865 389 857 387 Q 851 387 848 384 Q 824 369 742 349 C 713 342 717 322 747 326 Q 756 327 768 329 Q 802 336 830 342 Q 849 346 854 338 Q 857 335 827 248 C 817 220 859 219 870 247 Z" fill="lightgray" class="hide"/>
    <path d="M 764 199 Q 773 198 783 200 Q 817 206 888 209 Q 898 210 900 220 Q 900 227 870 247 C 866 250 857 250 827 248 Q 826 249 823 248 Q 789 238 761 232 C 732 226 734 201 764 199 Z" fill="lightgray" class="hide"/>
    <path d="M 464 685 Q 463 686 463 687 Q 453 697 422 712 Q 401 722 393 715 Q 386 708 393 692 Q 412 658 415 592 Q 427 354 410 134 Q 406 92 382 55 Q 370 39 380 17 Q 389 -5 399 -15 Q 409 -24 428 -11 Q 492 31 590 47 Q 701 65 914 57 Q 942 56 943 69 Q 943 85 912 109 Q 896 124 858 117 Q 756 104 675 96 Q 593 95 494 77 Q 479 74 472 80 Q 465 81 464 99 Q 468 307 466 571 Q 465 619 469 650 C 471 680 471 680 464 685 Z" fill="lightgray" class="hide"/></g><g transform="scale(1, -1) translate(0, -900)">
    <style type="text/css">
        .origin {display:none;}
        .hide {display:none;}
        .stroke {fill: #000000;}
        
.step1 {transform: translateX(1024px);}
.step2 {transform: translateX(2048px);}
.step3 {transform: translateX(3072px);}
.step4 {transform: translateX(4096px);}
.step5 {transform: translateX(5120px);}
.step6 {transform: translateX(6144px);}
.step7 {transform: translateX(7168px);}
.step8 {transform: translateX(8192px);}
.step9 {transform: translateX(9216px);}
.step10 {transform: translateX(10240px);}
.step11 {transform: translateX(11264px);}
.step12 {transform: translateX(12288px);}
.step13 {transform: translateX(13312px);}
.step14 {transform: translateX(14336px);}
.step15 {transform: translateX(15360px);}
.step16 {transform: translateX(16384px);}
.step17 {transform: translateX(17408px);}
.step18 {transform: translateX(18432px);}
.step19 {transform: translateX(19456px);}
.step20 {transform: translateX(20480px);}
.step21 {transform: translateX(21504px);}
.step22 {transform: translateX(22528px);}
.step23 {transform: translateX(23552px);}
.step24 {transform: translateX(24576px);}
.step25 {transform: translateX(25600px);}
.step26 {transform: translateX(26624px);}
.step27 {transform: translateX(27648px);}
.step28 {transform: translateX(28672px);}
.step29 {transform: translateX(29696px);}
    </style>

    <path d="M 119 513 Q 103 450 76 392 Q 61 361 81 334 Q 90 319 106 333 Q 124 349 133 378 Q 149 426 147 466 Q 148 494 139 516 Q 135 523 129 523 Q 122 522 119 513 Z" fill="lightgray" class="stroke step10"/>
    <path d="M 272 545 L 273 545 Q 297 526 322 503 Q 332 493 345 494 Q 354 494 357 505 Q 361 515 353 539 Q 349 555 323 567 Q 299 576 273 581 C 244 587 246 560 272 545 Z" fill="lightgray" class="stroke step10"/>
    <path d="M 273 581 Q 276 671 294 732 Q 303 747 300 760 Q 293 770 238 805 Q 214 823 193 807 Q 189 803 194 786 Q 227 737 227 688 Q 228 615 229 534 Q 225 390 220 234 Q 214 156 193 85 Q 183 48 207 -18 Q 214 -36 222 -39 Q 228 -46 236 -37 Q 263 -21 264 45 Q 263 94 272 545 L 273 581 Z" fill="lightgray" class="stroke step10"/>
    <path d="M 469 650 Q 508 641 543 648 Q 835 703 849 710 Q 849 711 850 711 Q 860 718 855 728 Q 848 740 818 748 Q 791 754 687 723 Q 566 696 464 685 C 434 682 440 656 469 650 Z" fill="lightgray" class="stroke step10"/>
    <path d="M 581 571 Q 574 575 544 579 Q 534 580 532 577 Q 528 573 535 560 Q 557 517 574 447 Q 578 426 591 413 Q 606 397 609 409 Q 610 418 611 430 L 607 458 Q 594 519 590 544 C 586 569 586 569 581 571 Z" fill="lightgray" class="stroke step10"/>
    <path d="M 755 484 Q 776 541 801 554 Q 814 570 802 584 Q 789 594 747 613 Q 732 620 715 613 Q 681 597 647 587 Q 616 578 581 571 C 552 565 560 539 590 544 Q 656 556 725 570 L 726 569 Q 733 562 731 550 Q 724 514 714 485 C 705 457 744 456 755 484 Z" fill="lightgray" class="stroke step10"/>
    <path d="M 611 430 Q 618 429 629 431 Q 674 441 771 453 Q 780 454 780 462 Q 780 469 755 484 C 742 492 742 492 714 485 L 713 485 Q 653 467 607 458 C 578 452 581 432 611 430 Z" fill="lightgray" class="stroke step10"/>
    <path d="M 518 324 Q 511 328 486 330 Q 479 331 476 328 Q 472 324 478 314 Q 503 269 519 196 Q 523 174 536 159 Q 549 146 552 156 Q 555 168 552 185 L 547 213 Q 531 279 526 302 C 521 323 521 323 518 324 Z" fill="lightgray" class="stroke step10"/>
    <path d="M 640 224 Q 656 282 675 299 Q 694 318 676 331 Q 661 340 640 354 Q 625 363 611 355 Q 592 343 569 336 Q 547 330 518 324 C 489 318 496 298 526 302 Q 530 302 595 315 Q 611 319 616 312 Q 619 309 600 226 C 593 197 632 195 640 224 Z" fill="lightgray" class="stroke step10"/>
    <path d="M 552 185 Q 559 184 569 186 Q 596 190 654 194 Q 663 195 664 202 Q 664 209 640 224 C 634 228 630 228 600 226 Q 599 227 597 226 Q 569 219 547 213 C 518 205 522 187 552 185 Z" fill="lightgray" class="stroke step10"/>
    <path d="M 742 349 Q 733 355 704 360 Q 695 363 692 358 Q 688 354 694 341 Q 716 295 728 219 Q 729 197 743 181 Q 756 165 761 176 Q 764 185 764 199 L 761 232 Q 749 302 747 326 C 745 348 745 348 742 349 Z" fill="lightgray" class="stroke step10"/>
    <path d="M 870 247 Q 892 305 914 323 Q 933 342 916 356 Q 865 389 857 387 Q 851 387 848 384 Q 824 369 742 349 C 713 342 717 322 747 326 Q 756 327 768 329 Q 802 336 830 342 Q 849 346 854 338 Q 857 335 827 248 C 817 220 859 219 870 247 Z" fill="lightgray" class="hide"/>
    <path d="M 764 199 Q 773 198 783 200 Q 817 206 888 209 Q 898 210 900 220 Q 900 227 870 247 C 866 250 857 250 827 248 Q 826 249 823 248 Q 789 238 761 232 C 732 226 734 201 764 199 Z" fill="lightgray" class="hide"/>
    <path d="M 464 685 Q 463 686 463 687 Q 453 697 422 712 Q 401 722 393 715 Q 386 708 393 692 Q 412 658 415 592 Q 427 354 410 134 Q 406 92 382 55 Q 370 39 380 17 Q 389 -5 399 -15 Q 409 -24 428 -11 Q 492 31 590 47 Q 701 65 914 57 Q 942 56 943 69 Q 943 85 912 109 Q 896 124 858 117 Q 756 104 675 96 Q 593 95 494 77 Q 479 74 472 80 Q 465 81 464 99 Q 468 307 466 571 Q 465 619 469 650 C 471 680 471 680 464 685 Z" fill="lightgray" class="hide"/></g><g transform="scale(1, -1) translate(0, -900)">
    <style type="text/css">
        .origin {display:none;}
        .hide {display:none;}
        .stroke {fill: #000000;}
        
.step1 {transform: translateX(1024px);}
.step2 {transform: translateX(2048px);}
.step3 {transform: translateX(3072px);}
.step4 {transform: translateX(4096px);}
.step5 {transform: translateX(5120px);}
.step6 {transform: translateX(6144px);}
.step7 {transform: translateX(7168px);}
.step8 {transform: translateX(8192px);}
.step9 {transform: translateX(9216px);}
.step10 {transform: translateX(10240px);}
.step11 {transform: translateX(11264px);}
.step12 {transform: translateX(12288px);}
.step13 {transform: translateX(13312px);}
.step14 {transform: translateX(14336px);}
.step15 {transform: translateX(15360px);}
.step16 {transform: translateX(16384px);}
.step17 {transform: translateX(17408px);}
.step18 {transform: translateX(18432px);}
.step19 {transform: translateX(19456px);}
.step20 {transform: translateX(20480px);}
.step21 {transform: translateX(21504px);}
.step22 {transform: translateX(22528px);}
.step23 {transform: translateX(23552px);}
.step24 {transform: translateX(24576px);}
.step25 {transform: translateX(25600px);}
.step26 {transform: translateX(26624px);}
.step27 {transform: translateX(27648px);}
.step28 {transform: translateX(28672px);}
.step29 {transform: translateX(29696px);}
    </style>

    <path d="M 119 513 Q 103 450 76 392 Q 61 361 81 334 Q 90 319 106 333 Q 124 349 133 378 Q 149 426 147 466 Q 148 494 139 516 Q 135 523 129 523 Q 122 522 119 513 Z" fill="lightgray" class="stroke step11"/>
    <path d="M 272 545 L 273 545 Q 297 526 322 503 Q 332 493 345 494 Q 354 494 357 505 Q 361 515 353 539 Q 349 555 323 567 Q 299 576 273 581 C 244 587 246 560 272 545 Z" fill="lightgray" class="stroke step11"/>
    <path d="M 273 581 Q 276 671 294 732 Q 303 747 300 760 Q 293 770 238 805 Q 214 823 193 807 Q 189 803 194 786 Q 227 737 227 688 Q 228 615 229 534 Q 225 390 220 234 Q 214 156 193 85 Q 183 48 207 -18 Q 214 -36 222 -39 Q 228 -46 236 -37 Q 263 -21 264 45 Q 263 94 272 545 L 273 581 Z" fill="lightgray" class="stroke step11"/>
    <path d="M 469 650 Q 508 641 543 648 Q 835 703 849 710 Q 849 711 850 711 Q 860 718 855 728 Q 848 740 818 748 Q 791 754 687 723 Q 566 696 464 685 C 434 682 440 656 469 650 Z" fill="lightgray" class="stroke step11"/>
    <path d="M 581 571 Q 574 575 544 579 Q 534 580 532 577 Q 528 573 535 560 Q 557 517 574 447 Q 578 426 591 413 Q 606 397 609 409 Q 610 418 611 430 L 607 458 Q 594 519 590 544 C 586 569 586 569 581 571 Z" fill="lightgray" class="stroke step11"/>
    <path d="M 755 484 Q 776 541 801 554 Q 814 570 802 584 Q 789 594 747 613 Q 732 620 715 613 Q 681 597 647 587 Q 616 578 581 571 C 552 565 560 539 590 544 Q 656 556 725 570 L 726 569 Q 733 562 731 550 Q 724 514 714 485 C 705 457 744 456 755 484 Z" fill="lightgray" class="stroke step11"/>
    <path d="M 611 430 Q 618 429 629 431 Q 674 441 771 453 Q 780 454 780 462 Q 780 469 755 484 C 742 492 742 492 714 485 L 713 485 Q 653 467 607 458 C 578 452 581 432 611 430 Z" fill="lightgray" class="stroke step11"/>
    <path d="M 518 324 Q 511 328 486 330 Q 479 331 476 328 Q 472 324 478 314 Q 503 269 519 196 Q 523 174 536 159 Q 549 146 552 156 Q 555 168 552 185 L 547 213 Q 531 279 526 302 C 521 323 521 323 518 324 Z" fill="lightgray" class="stroke step11"/>
    <path d="M 640 224 Q 656 282 675 299 Q 694 318 676 331 Q 661 340 640 354 Q 625 363 611 355 Q 592 343 569 336 Q 547 330 518 324 C 489 318 496 298 526 302 Q 530 302 595 315 Q 611 319 616 312 Q 619 309 600 226 C 593 197 632 195 640 224 Z" fill="lightgray" class="stroke step11"/>
    <path d="M 552 185 Q 559 184 569 186 Q 596 190 654 194 Q 663 195 664 202 Q 664 209 640 224 C 634 228 630 228 600 226 Q 599 227 597 226 Q 569 219 547 213 C 518 205 522 187 552 185 Z" fill="lightgray" class="stroke step11"/>
    <path d="M 742 349 Q 733 355 704 360 Q 695 363 692 358 Q 688 354 694 341 Q 716 295 728 219 Q 729 197 743 181 Q 756 165 761 176 Q 764 185 764 199 L 761 232 Q 749 302 747 326 C 745 348 745 348 742 349 Z" fill="lightgray" class="stroke step11"/>
    <path d="M 870 247 Q 892 305 914 323 Q 933 342 916 356 Q 865 389 857 387 Q 851 387 848 384 Q 824 369 742 349 C 713 342 717 322 747 326 Q 756 327 768 329 Q 802 336 830 342 Q 849 346 854 338 Q 857 335 827 248 C 817 220 859 219 870 247 Z" fill="lightgray" class="stroke step11"/>
    <path d="M 764 199 Q 773 198 783 200 Q 817 206 888 209 Q 898 210 900 220 Q 900 227 870 247 C 866 250 857 250 827 248 Q 826 249 823 248 Q 789 238 761 232 C 732 226 734 201 764 199 Z" fill="lightgray" class="hide"/>
    <path d="M 464 685 Q 463 686 463 687 Q 453 697 422 712 Q 401 722 393 715 Q 386 708 393 692 Q 412 658 415 592 Q 427 354 410 134 Q 406 92 382 55 Q 370 39 380 17 Q 389 -5 399 -15 Q 409 -24 428 -11 Q 492 31 590 47 Q 701 65 914 57 Q 942 56 943 69 Q 943 85 912 109 Q 896 124 858 117 Q 756 104 675 96 Q 593 95 494 77 Q 479 74 472 80 Q 465 81 464 99 Q 468 307 466 571 Q 465 619 469 650 C 471 680 471 680 464 685 Z" fill="lightgray" class="hide"/></g><g transform="scale(1, -1) translate(0, -900)">
    <style type="text/css">
        .origin {display:none;}
        .hide {display:none;}
        .stroke {fill: #000000;}
        
.step1 {transform: translateX(1024px);}
.step2 {transform: translateX(2048px);}
.step3 {transform: translateX(3072px);}
.step4 {transform: translateX(4096px);}
.step5 {transform: translateX(5120px);}
.step6 {transform: translateX(6144px);}
.step7 {transform: translateX(7168px);}
.step8 {transform: translateX(8192px);}
.step9 {transform: translateX(9216px);}
.step10 {transform: translateX(10240px);}
.step11 {transform: translateX(11264px);}
.step12 {transform: translateX(12288px);}
.step13 {transform: translateX(13312px);}
.step14 {transform: translateX(14336px);}
.step15 {transform: translateX(15360px);}
.step16 {transform: translateX(16384px);}
.step17 {transform: translateX(17408px);}
.step18 {transform: translateX(18432px);}
.step19 {transform: translateX(19456px);}
.step20 {transform: translateX(20480px);}
.step21 {transform: translateX(21504px);}
.step22 {transform: translateX(22528px);}
.step23 {transform: translateX(23552px);}
.step24 {transform: translateX(24576px);}
.step25 {transform: translateX(25600px);}
.step26 {transform: translateX(26624px);}
.step27 {transform: translateX(27648px);}
.step28 {transform: translateX(28672px);}
.step29 {transform: translateX(29696px);}
    </style>

    <path d="M 119 513 Q 103 450 76 392 Q 61 361 81 334 Q 90 319 106 333 Q 124 349 133 378 Q 149 426 147 466 Q 148 494 139 516 Q 135 523 129 523 Q 122 522 119 513 Z" fill="lightgray" class="stroke step12"/>
    <path d="M 272 545 L 273 545 Q 297 526 322 503 Q 332 493 345 494 Q 354 494 357 505 Q 361 515 353 539 Q 349 555 323 567 Q 299 576 273 581 C 244 587 246 560 272 545 Z" fill="lightgray" class="stroke step12"/>
    <path d="M 273 581 Q 276 671 294 732 Q 303 747 300 760 Q 293 770 238 805 Q 214 823 193 807 Q 189 803 194 786 Q 227 737 227 688 Q 228 615 229 534 Q 225 390 220 234 Q 214 156 193 85 Q 183 48 207 -18 Q 214 -36 222 -39 Q 228 -46 236 -37 Q 263 -21 264 45 Q 263 94 272 545 L 273 581 Z" fill="lightgray" class="stroke step12"/>
    <path d="M 469 650 Q 508 641 543 648 Q 835 703 849 710 Q 849 711 850 711 Q 860 718 855 728 Q 848 740 818 748 Q 791 754 687 723 Q 566 696 464 685 C 434 682 440 656 469 650 Z" fill="lightgray" class="stroke step12"/>
    <path d="M 581 571 Q 574 575 544 579 Q 534 580 532 577 Q 528 573 535 560 Q 557 517 574 447 Q 578 426 591 413 Q 606 397 609 409 Q 610 418 611 430 L 607 458 Q 594 519 590 544 C 586 569 586 569 581 571 Z" fill="lightgray" class="stroke step12"/>
    <path d="M 755 484 Q 776 541 801 554 Q 814 570 802 584 Q 789 594 747 613 Q 732 620 715 613 Q 681 597 647 587 Q 616 578 581 571 C 552 565 560 539 590 544 Q 656 556 725 570 L 726 569 Q 733 562 731 550 Q 724 514 714 485 C 705 457 744 456 755 484 Z" fill="lightgray" class="stroke step12"/>
    <path d="M 611 430 Q 618 429 629 431 Q 674 441 771 453 Q 780 454 780 462 Q 780 469 755 484 C 742 492 742 492 714 485 L 713 485 Q 653 467 607 458 C 578 452 581 432 611 430 Z" fill="lightgray" class="stroke step12"/>
    <path d="M 518 324 Q 511 328 486 330 Q 479 331 476 328 Q 472 324 478 314 Q 503 269 519 196 Q 523 174 536 159 Q 549 146 552 156 Q 555 168 552 185 L 547 213 Q 531 279 526 302 C 521 323 521 323 518 324 Z" fill="lightgray" class="stroke step12"/>
    <path d="M 640 224 Q 656 282 675 299 Q 694 318 676 331 Q 661 340 640 354 Q 625 363 611 355 Q 592 343 569 336 Q 547 330 518 324 C 489 318 496 298 526 302 Q 530 302 595 315 Q 611 319 616 312 Q 619 309 600 226 C 593 197 632 195 640 224 Z" fill="lightgray" class="stroke step12"/>
    <path d="M 552 185 Q 559 184 569 186 Q 596 190 654 194 Q 663 195 664 202 Q 664 209 640 224 C 634 228 630 228 600 226 Q 599 227 597 226 Q 569 219 547 213 C 518 205 522 187 552 185 Z" fill="lightgray" class="stroke step12"/>
    <path d="M 742 349 Q 733 355 704 360 Q 695 363 692 358 Q 688 354 694 341 Q 716 295 728 219 Q 729 197 743 181 Q 756 165 761 176 Q 764 185 764 199 L 761 232 Q 749 302 747 326 C 745 348 745 348 742 349 Z" fill="lightgray" class="stroke step12"/>
    <path d="M 870 247 Q 892 305 914 323 Q 933 342 916 356 Q 865 389 857 387 Q 851 387 848 384 Q 824 369 742 349 C 713 342 717 322 747 326 Q 756 327 768 329 Q 802 336 830 342 Q 849 346 854 338 Q 857 335 827 248 C 817 220 859 219 870 247 Z" fill="lightgray" class="stroke step12"/>
    <path d="M 764 199 Q 773 198 783 200 Q 817 206 888 209 Q 898 210 900 220 Q 900 227 870 247 C 866 250 857 250 827 248 Q 826 249 823 248 Q 789 238 761 232 C 732 226 734 201 764 199 Z" fill="lightgray" class="stroke step12"/>
    <path d="M 464 685 Q 463 686 463 687 Q 453 697 422 712 Q 401 722 393 715 Q 386 708 393 692 Q 412 658 415 592 Q 427 354 410 134 Q 406 92 382 55 Q 370 39 380 17 Q 389 -5 399 -15 Q 409 -24 428 -11 Q 492 31 590 47 Q 701 65 914 57 Q 942 56 943 69 Q 943 85 912 109 Q 896 124 858 117 Q 756 104 675 96 Q 593 95 494 77 Q 479 74 472 80 Q 465 81 464 99 Q 468 307 466 571 Q 465 619 469 650 C 471 680 471 680 464 685 Z" fill="lightgray" class="hide"/></g><g transform="scale(1, -1) translate(0, -900)">
    <style type="text/css">
        .origin {display:none;}
        .hide {display:none;}
        .stroke {fill: #000000;}
        
.step1 {transform: translateX(1024px);}
.step2 {transform: translateX(2048px);}
.step3 {transform: translateX(3072px);}
.step4 {transform: translateX(4096px);}
.step5 {transform: translateX(5120px);}
.step6 {transform: translateX(6144px);}
.step7 {transform: translateX(7168px);}
.step8 {transform: translateX(8192px);}
.step9 {transform: translateX(9216px);}
.step10 {transform: translateX(10240px);}
.step11 {transform: translateX(11264px);}
.step12 {transform: translateX(12288px);}
.step13 {transform: translateX(13312px);}
.step14 {transform: translateX(14336px);}
.step15 {transform: translateX(15360px);}
.step16 {transform: translateX(16384px);}
.step17 {transform: translateX(17408px);}
.step18 {transform: translateX(18432px);}
.step19 {transform: translateX(19456px);}
.step20 {transform: translateX(20480px);}
.step21 {transform: translateX(21504px);}
.step22 {transform: translateX(22528px);}
.step23 {transform: translateX(23552px);}
.step24 {transform: translateX(24576px);}
.step25 {transform: translateX(25600px);}
.step26 {transform: translateX(26624px);}
.step27 {transform: translateX(27648px);}
.step28 {transform: translateX(28672px);}
.step29 {transform: translateX(29696px);}
    </style>

    <path d="M 119 513 Q 103 450 76 392 Q 61 361 81 334 Q 90 319 106 333 Q 124 349 133 378 Q 149 426 147 466 Q 148 494 139 516 Q 135 523 129 523 Q 122 522 119 513 Z" fill="lightgray" class="stroke step13"/>
    <path d="M 272 545 L 273 545 Q 297 526 322 503 Q 332 493 345 494 Q 354 494 357 505 Q 361 515 353 539 Q 349 555 323 567 Q 299 576 273 581 C 244 587 246 560 272 545 Z" fill="lightgray" class="stroke step13"/>
    <path d="M 273 581 Q 276 671 294 732 Q 303 747 300 760 Q 293 770 238 805 Q 214 823 193 807 Q 189 803 194 786 Q 227 737 227 688 Q 228 615 229 534 Q 225 390 220 234 Q 214 156 193 85 Q 183 48 207 -18 Q 214 -36 222 -39 Q 228 -46 236 -37 Q 263 -21 264 45 Q 263 94 272 545 L 273 581 Z" fill="lightgray" class="stroke step13"/>
    <path d="M 469 650 Q 508 641 543 648 Q 835 703 849 710 Q 849 711 850 711 Q 860 718 855 728 Q 848 740 818 748 Q 791 754 687 723 Q 566 696 464 685 C 434 682 440 656 469 650 Z" fill="lightgray" class="stroke step13"/>
    <path d="M 581 571 Q 574 575 544 579 Q 534 580 532 577 Q 528 573 535 560 Q 557 517 574 447 Q 578 426 591 413 Q 606 397 609 409 Q 610 418 611 430 L 607 458 Q 594 519 590 544 C 586 569 586 569 581 571 Z" fill="lightgray" class="stroke step13"/>
    <path d="M 755 484 Q 776 541 801 554 Q 814 570 802 584 Q 789 594 747 613 Q 732 620 715 613 Q 681 597 647 587 Q 616 578 581 571 C 552 565 560 539 590 544 Q 656 556 725 570 L 726 569 Q 733 562 731 550 Q 724 514 714 485 C 705 457 744 456 755 484 Z" fill="lightgray" class="stroke step13"/>
    <path d="M 611 430 Q 618 429 629 431 Q 674 441 771 453 Q 780 454 780 462 Q 780 469 755 484 C 742 492 742 492 714 485 L 713 485 Q 653 467 607 458 C 578 452 581 432 611 430 Z" fill="lightgray" class="stroke step13"/>
    <path d="M 518 324 Q 511 328 486 330 Q 479 331 476 328 Q 472 324 478 314 Q 503 269 519 196 Q 523 174 536 159 Q 549 146 552 156 Q 555 168 552 185 L 547 213 Q 531 279 526 302 C 521 323 521 323 518 324 Z" fill="lightgray" class="stroke step13"/>
    <path d="M 640 224 Q 656 282 675 299 Q 694 318 676 331 Q 661 340 640 354 Q 625 363 611 355 Q 592 343 569 336 Q 547 330 518 324 C 489 318 496 298 526 302 Q 530 302 595 315 Q 611 319 616 312 Q 619 309 600 226 C 593 197 632 195 640 224 Z" fill="lightgray" class="stroke step13"/>
    <path d="M 552 185 Q 559 184 569 186 Q 596 190 654 194 Q 663 195 664 202 Q 664 209 640 224 C 634 228 630 228 600 226 Q 599 227 597 226 Q 569 219 547 213 C 518 205 522 187 552 185 Z" fill="lightgray" class="stroke step13"/>
    <path d="M 742 349 Q 733 355 704 360 Q 695 363 692 358 Q 688 354 694 341 Q 716 295 728 219 Q 729 197 743 181 Q 756 165 761 176 Q 764 185 764 199 L 761 232 Q 749 302 747 326 C 745 348 745 348 742 349 Z" fill="lightgray" class="stroke step13"/>
    <path d="M 870 247 Q 892 305 914 323 Q 933 342 916 356 Q 865 389 857 387 Q 851 387 848 384 Q 824 369 742 349 C 713 342 717 322 747 326 Q 756 327 768 329 Q 802 336 830 342 Q 849 346 854 338 Q 857 335 827 248 C 817 220 859 219 870 247 Z" fill="lightgray" class="stroke step13"/>
    <path d="M 764 199 Q 773 198 783 200 Q 817 206 888 209 Q 898 210 900 220 Q 900 227 870 247 C 866 250 857 250 827 248 Q 826 249 823 248 Q 789 238 761 232 C 732 226 734 201 764 199 Z" fill="lightgray" class="stroke step13"/>
    <path d="M 464 685 Q 463 686 463 687 Q 453 697 422 712 Q 401 722 393 715 Q 386 708 393 692 Q 412 658 415 592 Q 427 354 410 134 Q 406 92 382 55 Q 370 39 380 17 Q 389 -5 399 -15 Q 409 -24 428 -11 Q 492 31 590 47 Q 701 65 914 57 Q 942 56 943 69 Q 943 85 912 109 Q 896 124 858 117 Q 756 104 675 96 Q 593 95 494 77 Q 479 74 472 80 Q 465 81 464 99 Q 468 307 466 571 Q 465 619 469 650 C 471 680 471 680 464 685 Z" fill="lightgray" class="stroke step13"/></g></svg>