<svg version="1.1" viewBox="0 0 14336 1024" xmlns="http://www.w3.org/2000/svg">
  
  <g transform="scale(1, -1) translate(0, -900)" class="origin">
    <style type="text/css">
        .origin {display:none;}
        .hide {display:none;}
        .stroke {fill: #000000;}
        
.step1 {transform: translateX(1024px);}
.step2 {transform: translateX(2048px);}
.step3 {transform: translateX(3072px);}
.step4 {transform: translateX(4096px);}
.step5 {transform: translateX(5120px);}
.step6 {transform: translateX(6144px);}
.step7 {transform: translateX(7168px);}
.step8 {transform: translateX(8192px);}
.step9 {transform: translateX(9216px);}
.step10 {transform: translateX(10240px);}
.step11 {transform: translateX(11264px);}
.step12 {transform: translateX(12288px);}
.step13 {transform: translateX(13312px);}
.step14 {transform: translateX(14336px);}
.step15 {transform: translateX(15360px);}
.step16 {transform: translateX(16384px);}
.step17 {transform: translateX(17408px);}
.step18 {transform: translateX(18432px);}
.step19 {transform: translateX(19456px);}
.step20 {transform: translateX(20480px);}
.step21 {transform: translateX(21504px);}
.step22 {transform: translateX(22528px);}
.step23 {transform: translateX(23552px);}
.step24 {transform: translateX(24576px);}
.step25 {transform: translateX(25600px);}
.step26 {transform: translateX(26624px);}
.step27 {transform: translateX(27648px);}
.step28 {transform: translateX(28672px);}
.step29 {transform: translateX(29696px);}
    </style>

    <path d="M 125 556 Q 109 489 81 426 Q 66 393 88 363 Q 97 347 115 362 Q 163 407 157 505 Q 158 536 147 559 Q 141 566 136 567 Q 129 564 125 556 Z" fill="lightgray"/>
    <path d="M 282 601 Q 303 589 358 544 Q 371 534 384 535 Q 394 536 397 548 Q 400 561 391 587 Q 378 620 291 631 Q 287 632 284 631 C 254 629 256 616 282 601 Z" fill="lightgray"/>
    <path d="M 284 631 Q 288 692 301 738 Q 310 753 307 766 Q 300 776 246 809 Q 224 825 203 811 Q 199 807 205 791 Q 236 740 238 664 Q 238 243 220 151 Q 214 123 206 93 Q 196 56 220 -6 Q 227 -24 235 -27 Q 241 -34 248 -25 Q 275 -9 275 54 Q 274 105 282 575 Q 282 588 282 601 L 284 631 Z" fill="lightgray"/>
    <path d="M 462 781 Q 455 782 446 784 Q 436 787 432 782 Q 428 776 435 762 Q 463 704 481 606 Q 485 578 501 558 Q 517 539 522 553 Q 525 563 525 579 L 524 600 Q 523 609 521 617 Q 515 642 511 664 L 507 684 Q 497 738 496 754 C 494 776 492 776 462 781 Z" fill="lightgray"/>
    <path d="M 686 600 Q 702 578 717 570 Q 727 563 741 582 Q 751 601 776 700 Q 783 728 806 751 Q 818 761 808 775 Q 795 791 755 815 Q 742 821 668 810 Q 667 810 563 796 Q 512 787 472 784 Q 465 784 462 781 C 433 774 467 747 496 754 Q 526 764 684 779 Q 709 780 716 772 Q 726 760 725 749 Q 710 637 691 625 C 679 609 679 609 686 600 Z" fill="lightgray"/>
    <path d="M 511 664 Q 517 663 528 664 Q 598 676 652 682 Q 673 686 665 697 Q 655 710 633 714 Q 605 718 507 684 C 479 674 481 667 511 664 Z" fill="lightgray"/>
    <path d="M 525 579 Q 531 578 539 579 Q 623 592 686 600 C 716 604 718 612 691 625 Q 673 640 530 601 Q 527 601 524 600 C 494 595 495 582 525 579 Z" fill="lightgray"/>
    <path d="M 426 502 Q 416 508 386 512 Q 376 513 372 509 Q 368 505 375 490 Q 399 445 416 371 Q 420 349 433 334 Q 449 315 454 329 Q 455 336 456 348 L 455 370 Q 454 374 454 378 Q 441 444 437 470 C 432 499 432 499 426 502 Z" fill="lightgray"/>
    <path d="M 758 385 Q 774 358 789 350 Q 798 343 813 361 Q 822 371 846 430 Q 856 458 878 482 Q 891 492 881 507 Q 868 523 828 550 Q 813 559 737 544 L 426 502 C 396 498 407 466 437 470 Q 443 470 450 471 Q 478 478 514 483 L 535 488 Q 577 495 631 502 L 674 507 Q 774 522 791 505 Q 798 498 796 490 Q 783 415 767 407 C 754 391 754 391 758 385 Z" fill="lightgray"/>
    <path d="M 514 483 Q 517 471 518 447 Q 518 402 536 383 C 548 369 548 369 555 386 Q 555 387 556 387 Q 560 412 542 472 Q 541 482 535 488 C 516 511 507 512 514 483 Z" fill="lightgray"/>
    <path d="M 631 502 Q 640 487 630 417 Q 627 407 627 398 C 626 368 635 377 649 403 Q 653 410 658 421 Q 680 473 685 478 Q 695 488 687 496 Q 683 502 674 507 C 648 523 619 529 631 502 Z" fill="lightgray"/>
    <path d="M 456 348 Q 469 344 492 347 Q 643 372 758 385 C 788 388 795 395 767 407 Q 751 420 649 403 L 627 398 Q 590 394 555 386 L 536 383 Q 493 379 455 370 C 426 363 427 354 456 348 Z" fill="lightgray"/>
    <path d="M 577 128 Q 511 62 377 32 Q 362 28 374 19 Q 380 15 422 17 Q 525 26 610 93 L 640 123 Q 674 165 706 226 Q 721 254 742 271 Q 764 286 751 301 Q 739 314 708 329 Q 687 338 599 309 Q 545 297 488 290 Q 473 290 468 283 Q 464 276 483 267 Q 520 251 571 265 Q 625 284 634 283 Q 655 279 648 258 Q 632 200 601 156 L 577 128 Z" fill="lightgray"/>
    <path d="M 610 93 Q 691 8 771 -41 Q 795 -50 880 -30 Q 899 -24 919 -20 Q 932 -17 943 -11 Q 949 -4 937 4 Q 922 10 806 36 Q 743 49 640 123 L 601 156 Q 573 181 543 210 Q 524 231 492 233 Q 479 234 471 226 Q 467 219 477 212 Q 525 182 577 128 L 610 93 Z" fill="lightgray"/></g>
<g transform="scale(1, -1) translate(0, -900)">
    <style type="text/css">
        .origin {display:none;}
        .hide {display:none;}
        .stroke {fill: #000000;}
        
.step1 {transform: translateX(1024px);}
.step2 {transform: translateX(2048px);}
.step3 {transform: translateX(3072px);}
.step4 {transform: translateX(4096px);}
.step5 {transform: translateX(5120px);}
.step6 {transform: translateX(6144px);}
.step7 {transform: translateX(7168px);}
.step8 {transform: translateX(8192px);}
.step9 {transform: translateX(9216px);}
.step10 {transform: translateX(10240px);}
.step11 {transform: translateX(11264px);}
.step12 {transform: translateX(12288px);}
.step13 {transform: translateX(13312px);}
.step14 {transform: translateX(14336px);}
.step15 {transform: translateX(15360px);}
.step16 {transform: translateX(16384px);}
.step17 {transform: translateX(17408px);}
.step18 {transform: translateX(18432px);}
.step19 {transform: translateX(19456px);}
.step20 {transform: translateX(20480px);}
.step21 {transform: translateX(21504px);}
.step22 {transform: translateX(22528px);}
.step23 {transform: translateX(23552px);}
.step24 {transform: translateX(24576px);}
.step25 {transform: translateX(25600px);}
.step26 {transform: translateX(26624px);}
.step27 {transform: translateX(27648px);}
.step28 {transform: translateX(28672px);}
.step29 {transform: translateX(29696px);}
    </style>

    <path d="M 125 556 Q 109 489 81 426 Q 66 393 88 363 Q 97 347 115 362 Q 163 407 157 505 Q 158 536 147 559 Q 141 566 136 567 Q 129 564 125 556 Z" fill="lightgray" class="stroke step0"/>
    <path d="M 282 601 Q 303 589 358 544 Q 371 534 384 535 Q 394 536 397 548 Q 400 561 391 587 Q 378 620 291 631 Q 287 632 284 631 C 254 629 256 616 282 601 Z" fill="lightgray" class="hide"/>
    <path d="M 284 631 Q 288 692 301 738 Q 310 753 307 766 Q 300 776 246 809 Q 224 825 203 811 Q 199 807 205 791 Q 236 740 238 664 Q 238 243 220 151 Q 214 123 206 93 Q 196 56 220 -6 Q 227 -24 235 -27 Q 241 -34 248 -25 Q 275 -9 275 54 Q 274 105 282 575 Q 282 588 282 601 L 284 631 Z" fill="lightgray" class="hide"/>
    <path d="M 462 781 Q 455 782 446 784 Q 436 787 432 782 Q 428 776 435 762 Q 463 704 481 606 Q 485 578 501 558 Q 517 539 522 553 Q 525 563 525 579 L 524 600 Q 523 609 521 617 Q 515 642 511 664 L 507 684 Q 497 738 496 754 C 494 776 492 776 462 781 Z" fill="lightgray" class="hide"/>
    <path d="M 686 600 Q 702 578 717 570 Q 727 563 741 582 Q 751 601 776 700 Q 783 728 806 751 Q 818 761 808 775 Q 795 791 755 815 Q 742 821 668 810 Q 667 810 563 796 Q 512 787 472 784 Q 465 784 462 781 C 433 774 467 747 496 754 Q 526 764 684 779 Q 709 780 716 772 Q 726 760 725 749 Q 710 637 691 625 C 679 609 679 609 686 600 Z" fill="lightgray" class="hide"/>
    <path d="M 511 664 Q 517 663 528 664 Q 598 676 652 682 Q 673 686 665 697 Q 655 710 633 714 Q 605 718 507 684 C 479 674 481 667 511 664 Z" fill="lightgray" class="hide"/>
    <path d="M 525 579 Q 531 578 539 579 Q 623 592 686 600 C 716 604 718 612 691 625 Q 673 640 530 601 Q 527 601 524 600 C 494 595 495 582 525 579 Z" fill="lightgray" class="hide"/>
    <path d="M 426 502 Q 416 508 386 512 Q 376 513 372 509 Q 368 505 375 490 Q 399 445 416 371 Q 420 349 433 334 Q 449 315 454 329 Q 455 336 456 348 L 455 370 Q 454 374 454 378 Q 441 444 437 470 C 432 499 432 499 426 502 Z" fill="lightgray" class="hide"/>
    <path d="M 758 385 Q 774 358 789 350 Q 798 343 813 361 Q 822 371 846 430 Q 856 458 878 482 Q 891 492 881 507 Q 868 523 828 550 Q 813 559 737 544 L 426 502 C 396 498 407 466 437 470 Q 443 470 450 471 Q 478 478 514 483 L 535 488 Q 577 495 631 502 L 674 507 Q 774 522 791 505 Q 798 498 796 490 Q 783 415 767 407 C 754 391 754 391 758 385 Z" fill="lightgray" class="hide"/>
    <path d="M 514 483 Q 517 471 518 447 Q 518 402 536 383 C 548 369 548 369 555 386 Q 555 387 556 387 Q 560 412 542 472 Q 541 482 535 488 C 516 511 507 512 514 483 Z" fill="lightgray" class="hide"/>
    <path d="M 631 502 Q 640 487 630 417 Q 627 407 627 398 C 626 368 635 377 649 403 Q 653 410 658 421 Q 680 473 685 478 Q 695 488 687 496 Q 683 502 674 507 C 648 523 619 529 631 502 Z" fill="lightgray" class="hide"/>
    <path d="M 456 348 Q 469 344 492 347 Q 643 372 758 385 C 788 388 795 395 767 407 Q 751 420 649 403 L 627 398 Q 590 394 555 386 L 536 383 Q 493 379 455 370 C 426 363 427 354 456 348 Z" fill="lightgray" class="hide"/>
    <path d="M 577 128 Q 511 62 377 32 Q 362 28 374 19 Q 380 15 422 17 Q 525 26 610 93 L 640 123 Q 674 165 706 226 Q 721 254 742 271 Q 764 286 751 301 Q 739 314 708 329 Q 687 338 599 309 Q 545 297 488 290 Q 473 290 468 283 Q 464 276 483 267 Q 520 251 571 265 Q 625 284 634 283 Q 655 279 648 258 Q 632 200 601 156 L 577 128 Z" fill="lightgray" class="hide"/>
    <path d="M 610 93 Q 691 8 771 -41 Q 795 -50 880 -30 Q 899 -24 919 -20 Q 932 -17 943 -11 Q 949 -4 937 4 Q 922 10 806 36 Q 743 49 640 123 L 601 156 Q 573 181 543 210 Q 524 231 492 233 Q 479 234 471 226 Q 467 219 477 212 Q 525 182 577 128 L 610 93 Z" fill="lightgray" class="hide"/></g><g transform="scale(1, -1) translate(0, -900)">
    <style type="text/css">
        .origin {display:none;}
        .hide {display:none;}
        .stroke {fill: #000000;}
        
.step1 {transform: translateX(1024px);}
.step2 {transform: translateX(2048px);}
.step3 {transform: translateX(3072px);}
.step4 {transform: translateX(4096px);}
.step5 {transform: translateX(5120px);}
.step6 {transform: translateX(6144px);}
.step7 {transform: translateX(7168px);}
.step8 {transform: translateX(8192px);}
.step9 {transform: translateX(9216px);}
.step10 {transform: translateX(10240px);}
.step11 {transform: translateX(11264px);}
.step12 {transform: translateX(12288px);}
.step13 {transform: translateX(13312px);}
.step14 {transform: translateX(14336px);}
.step15 {transform: translateX(15360px);}
.step16 {transform: translateX(16384px);}
.step17 {transform: translateX(17408px);}
.step18 {transform: translateX(18432px);}
.step19 {transform: translateX(19456px);}
.step20 {transform: translateX(20480px);}
.step21 {transform: translateX(21504px);}
.step22 {transform: translateX(22528px);}
.step23 {transform: translateX(23552px);}
.step24 {transform: translateX(24576px);}
.step25 {transform: translateX(25600px);}
.step26 {transform: translateX(26624px);}
.step27 {transform: translateX(27648px);}
.step28 {transform: translateX(28672px);}
.step29 {transform: translateX(29696px);}
    </style>

    <path d="M 125 556 Q 109 489 81 426 Q 66 393 88 363 Q 97 347 115 362 Q 163 407 157 505 Q 158 536 147 559 Q 141 566 136 567 Q 129 564 125 556 Z" fill="lightgray" class="stroke step1"/>
    <path d="M 282 601 Q 303 589 358 544 Q 371 534 384 535 Q 394 536 397 548 Q 400 561 391 587 Q 378 620 291 631 Q 287 632 284 631 C 254 629 256 616 282 601 Z" fill="lightgray" class="stroke step1"/>
    <path d="M 284 631 Q 288 692 301 738 Q 310 753 307 766 Q 300 776 246 809 Q 224 825 203 811 Q 199 807 205 791 Q 236 740 238 664 Q 238 243 220 151 Q 214 123 206 93 Q 196 56 220 -6 Q 227 -24 235 -27 Q 241 -34 248 -25 Q 275 -9 275 54 Q 274 105 282 575 Q 282 588 282 601 L 284 631 Z" fill="lightgray" class="hide"/>
    <path d="M 462 781 Q 455 782 446 784 Q 436 787 432 782 Q 428 776 435 762 Q 463 704 481 606 Q 485 578 501 558 Q 517 539 522 553 Q 525 563 525 579 L 524 600 Q 523 609 521 617 Q 515 642 511 664 L 507 684 Q 497 738 496 754 C 494 776 492 776 462 781 Z" fill="lightgray" class="hide"/>
    <path d="M 686 600 Q 702 578 717 570 Q 727 563 741 582 Q 751 601 776 700 Q 783 728 806 751 Q 818 761 808 775 Q 795 791 755 815 Q 742 821 668 810 Q 667 810 563 796 Q 512 787 472 784 Q 465 784 462 781 C 433 774 467 747 496 754 Q 526 764 684 779 Q 709 780 716 772 Q 726 760 725 749 Q 710 637 691 625 C 679 609 679 609 686 600 Z" fill="lightgray" class="hide"/>
    <path d="M 511 664 Q 517 663 528 664 Q 598 676 652 682 Q 673 686 665 697 Q 655 710 633 714 Q 605 718 507 684 C 479 674 481 667 511 664 Z" fill="lightgray" class="hide"/>
    <path d="M 525 579 Q 531 578 539 579 Q 623 592 686 600 C 716 604 718 612 691 625 Q 673 640 530 601 Q 527 601 524 600 C 494 595 495 582 525 579 Z" fill="lightgray" class="hide"/>
    <path d="M 426 502 Q 416 508 386 512 Q 376 513 372 509 Q 368 505 375 490 Q 399 445 416 371 Q 420 349 433 334 Q 449 315 454 329 Q 455 336 456 348 L 455 370 Q 454 374 454 378 Q 441 444 437 470 C 432 499 432 499 426 502 Z" fill="lightgray" class="hide"/>
    <path d="M 758 385 Q 774 358 789 350 Q 798 343 813 361 Q 822 371 846 430 Q 856 458 878 482 Q 891 492 881 507 Q 868 523 828 550 Q 813 559 737 544 L 426 502 C 396 498 407 466 437 470 Q 443 470 450 471 Q 478 478 514 483 L 535 488 Q 577 495 631 502 L 674 507 Q 774 522 791 505 Q 798 498 796 490 Q 783 415 767 407 C 754 391 754 391 758 385 Z" fill="lightgray" class="hide"/>
    <path d="M 514 483 Q 517 471 518 447 Q 518 402 536 383 C 548 369 548 369 555 386 Q 555 387 556 387 Q 560 412 542 472 Q 541 482 535 488 C 516 511 507 512 514 483 Z" fill="lightgray" class="hide"/>
    <path d="M 631 502 Q 640 487 630 417 Q 627 407 627 398 C 626 368 635 377 649 403 Q 653 410 658 421 Q 680 473 685 478 Q 695 488 687 496 Q 683 502 674 507 C 648 523 619 529 631 502 Z" fill="lightgray" class="hide"/>
    <path d="M 456 348 Q 469 344 492 347 Q 643 372 758 385 C 788 388 795 395 767 407 Q 751 420 649 403 L 627 398 Q 590 394 555 386 L 536 383 Q 493 379 455 370 C 426 363 427 354 456 348 Z" fill="lightgray" class="hide"/>
    <path d="M 577 128 Q 511 62 377 32 Q 362 28 374 19 Q 380 15 422 17 Q 525 26 610 93 L 640 123 Q 674 165 706 226 Q 721 254 742 271 Q 764 286 751 301 Q 739 314 708 329 Q 687 338 599 309 Q 545 297 488 290 Q 473 290 468 283 Q 464 276 483 267 Q 520 251 571 265 Q 625 284 634 283 Q 655 279 648 258 Q 632 200 601 156 L 577 128 Z" fill="lightgray" class="hide"/>
    <path d="M 610 93 Q 691 8 771 -41 Q 795 -50 880 -30 Q 899 -24 919 -20 Q 932 -17 943 -11 Q 949 -4 937 4 Q 922 10 806 36 Q 743 49 640 123 L 601 156 Q 573 181 543 210 Q 524 231 492 233 Q 479 234 471 226 Q 467 219 477 212 Q 525 182 577 128 L 610 93 Z" fill="lightgray" class="hide"/></g><g transform="scale(1, -1) translate(0, -900)">
    <style type="text/css">
        .origin {display:none;}
        .hide {display:none;}
        .stroke {fill: #000000;}
        
.step1 {transform: translateX(1024px);}
.step2 {transform: translateX(2048px);}
.step3 {transform: translateX(3072px);}
.step4 {transform: translateX(4096px);}
.step5 {transform: translateX(5120px);}
.step6 {transform: translateX(6144px);}
.step7 {transform: translateX(7168px);}
.step8 {transform: translateX(8192px);}
.step9 {transform: translateX(9216px);}
.step10 {transform: translateX(10240px);}
.step11 {transform: translateX(11264px);}
.step12 {transform: translateX(12288px);}
.step13 {transform: translateX(13312px);}
.step14 {transform: translateX(14336px);}
.step15 {transform: translateX(15360px);}
.step16 {transform: translateX(16384px);}
.step17 {transform: translateX(17408px);}
.step18 {transform: translateX(18432px);}
.step19 {transform: translateX(19456px);}
.step20 {transform: translateX(20480px);}
.step21 {transform: translateX(21504px);}
.step22 {transform: translateX(22528px);}
.step23 {transform: translateX(23552px);}
.step24 {transform: translateX(24576px);}
.step25 {transform: translateX(25600px);}
.step26 {transform: translateX(26624px);}
.step27 {transform: translateX(27648px);}
.step28 {transform: translateX(28672px);}
.step29 {transform: translateX(29696px);}
    </style>

    <path d="M 125 556 Q 109 489 81 426 Q 66 393 88 363 Q 97 347 115 362 Q 163 407 157 505 Q 158 536 147 559 Q 141 566 136 567 Q 129 564 125 556 Z" fill="lightgray" class="stroke step2"/>
    <path d="M 282 601 Q 303 589 358 544 Q 371 534 384 535 Q 394 536 397 548 Q 400 561 391 587 Q 378 620 291 631 Q 287 632 284 631 C 254 629 256 616 282 601 Z" fill="lightgray" class="stroke step2"/>
    <path d="M 284 631 Q 288 692 301 738 Q 310 753 307 766 Q 300 776 246 809 Q 224 825 203 811 Q 199 807 205 791 Q 236 740 238 664 Q 238 243 220 151 Q 214 123 206 93 Q 196 56 220 -6 Q 227 -24 235 -27 Q 241 -34 248 -25 Q 275 -9 275 54 Q 274 105 282 575 Q 282 588 282 601 L 284 631 Z" fill="lightgray" class="stroke step2"/>
    <path d="M 462 781 Q 455 782 446 784 Q 436 787 432 782 Q 428 776 435 762 Q 463 704 481 606 Q 485 578 501 558 Q 517 539 522 553 Q 525 563 525 579 L 524 600 Q 523 609 521 617 Q 515 642 511 664 L 507 684 Q 497 738 496 754 C 494 776 492 776 462 781 Z" fill="lightgray" class="hide"/>
    <path d="M 686 600 Q 702 578 717 570 Q 727 563 741 582 Q 751 601 776 700 Q 783 728 806 751 Q 818 761 808 775 Q 795 791 755 815 Q 742 821 668 810 Q 667 810 563 796 Q 512 787 472 784 Q 465 784 462 781 C 433 774 467 747 496 754 Q 526 764 684 779 Q 709 780 716 772 Q 726 760 725 749 Q 710 637 691 625 C 679 609 679 609 686 600 Z" fill="lightgray" class="hide"/>
    <path d="M 511 664 Q 517 663 528 664 Q 598 676 652 682 Q 673 686 665 697 Q 655 710 633 714 Q 605 718 507 684 C 479 674 481 667 511 664 Z" fill="lightgray" class="hide"/>
    <path d="M 525 579 Q 531 578 539 579 Q 623 592 686 600 C 716 604 718 612 691 625 Q 673 640 530 601 Q 527 601 524 600 C 494 595 495 582 525 579 Z" fill="lightgray" class="hide"/>
    <path d="M 426 502 Q 416 508 386 512 Q 376 513 372 509 Q 368 505 375 490 Q 399 445 416 371 Q 420 349 433 334 Q 449 315 454 329 Q 455 336 456 348 L 455 370 Q 454 374 454 378 Q 441 444 437 470 C 432 499 432 499 426 502 Z" fill="lightgray" class="hide"/>
    <path d="M 758 385 Q 774 358 789 350 Q 798 343 813 361 Q 822 371 846 430 Q 856 458 878 482 Q 891 492 881 507 Q 868 523 828 550 Q 813 559 737 544 L 426 502 C 396 498 407 466 437 470 Q 443 470 450 471 Q 478 478 514 483 L 535 488 Q 577 495 631 502 L 674 507 Q 774 522 791 505 Q 798 498 796 490 Q 783 415 767 407 C 754 391 754 391 758 385 Z" fill="lightgray" class="hide"/>
    <path d="M 514 483 Q 517 471 518 447 Q 518 402 536 383 C 548 369 548 369 555 386 Q 555 387 556 387 Q 560 412 542 472 Q 541 482 535 488 C 516 511 507 512 514 483 Z" fill="lightgray" class="hide"/>
    <path d="M 631 502 Q 640 487 630 417 Q 627 407 627 398 C 626 368 635 377 649 403 Q 653 410 658 421 Q 680 473 685 478 Q 695 488 687 496 Q 683 502 674 507 C 648 523 619 529 631 502 Z" fill="lightgray" class="hide"/>
    <path d="M 456 348 Q 469 344 492 347 Q 643 372 758 385 C 788 388 795 395 767 407 Q 751 420 649 403 L 627 398 Q 590 394 555 386 L 536 383 Q 493 379 455 370 C 426 363 427 354 456 348 Z" fill="lightgray" class="hide"/>
    <path d="M 577 128 Q 511 62 377 32 Q 362 28 374 19 Q 380 15 422 17 Q 525 26 610 93 L 640 123 Q 674 165 706 226 Q 721 254 742 271 Q 764 286 751 301 Q 739 314 708 329 Q 687 338 599 309 Q 545 297 488 290 Q 473 290 468 283 Q 464 276 483 267 Q 520 251 571 265 Q 625 284 634 283 Q 655 279 648 258 Q 632 200 601 156 L 577 128 Z" fill="lightgray" class="hide"/>
    <path d="M 610 93 Q 691 8 771 -41 Q 795 -50 880 -30 Q 899 -24 919 -20 Q 932 -17 943 -11 Q 949 -4 937 4 Q 922 10 806 36 Q 743 49 640 123 L 601 156 Q 573 181 543 210 Q 524 231 492 233 Q 479 234 471 226 Q 467 219 477 212 Q 525 182 577 128 L 610 93 Z" fill="lightgray" class="hide"/></g><g transform="scale(1, -1) translate(0, -900)">
    <style type="text/css">
        .origin {display:none;}
        .hide {display:none;}
        .stroke {fill: #000000;}
        
.step1 {transform: translateX(1024px);}
.step2 {transform: translateX(2048px);}
.step3 {transform: translateX(3072px);}
.step4 {transform: translateX(4096px);}
.step5 {transform: translateX(5120px);}
.step6 {transform: translateX(6144px);}
.step7 {transform: translateX(7168px);}
.step8 {transform: translateX(8192px);}
.step9 {transform: translateX(9216px);}
.step10 {transform: translateX(10240px);}
.step11 {transform: translateX(11264px);}
.step12 {transform: translateX(12288px);}
.step13 {transform: translateX(13312px);}
.step14 {transform: translateX(14336px);}
.step15 {transform: translateX(15360px);}
.step16 {transform: translateX(16384px);}
.step17 {transform: translateX(17408px);}
.step18 {transform: translateX(18432px);}
.step19 {transform: translateX(19456px);}
.step20 {transform: translateX(20480px);}
.step21 {transform: translateX(21504px);}
.step22 {transform: translateX(22528px);}
.step23 {transform: translateX(23552px);}
.step24 {transform: translateX(24576px);}
.step25 {transform: translateX(25600px);}
.step26 {transform: translateX(26624px);}
.step27 {transform: translateX(27648px);}
.step28 {transform: translateX(28672px);}
.step29 {transform: translateX(29696px);}
    </style>

    <path d="M 125 556 Q 109 489 81 426 Q 66 393 88 363 Q 97 347 115 362 Q 163 407 157 505 Q 158 536 147 559 Q 141 566 136 567 Q 129 564 125 556 Z" fill="lightgray" class="stroke step3"/>
    <path d="M 282 601 Q 303 589 358 544 Q 371 534 384 535 Q 394 536 397 548 Q 400 561 391 587 Q 378 620 291 631 Q 287 632 284 631 C 254 629 256 616 282 601 Z" fill="lightgray" class="stroke step3"/>
    <path d="M 284 631 Q 288 692 301 738 Q 310 753 307 766 Q 300 776 246 809 Q 224 825 203 811 Q 199 807 205 791 Q 236 740 238 664 Q 238 243 220 151 Q 214 123 206 93 Q 196 56 220 -6 Q 227 -24 235 -27 Q 241 -34 248 -25 Q 275 -9 275 54 Q 274 105 282 575 Q 282 588 282 601 L 284 631 Z" fill="lightgray" class="stroke step3"/>
    <path d="M 462 781 Q 455 782 446 784 Q 436 787 432 782 Q 428 776 435 762 Q 463 704 481 606 Q 485 578 501 558 Q 517 539 522 553 Q 525 563 525 579 L 524 600 Q 523 609 521 617 Q 515 642 511 664 L 507 684 Q 497 738 496 754 C 494 776 492 776 462 781 Z" fill="lightgray" class="stroke step3"/>
    <path d="M 686 600 Q 702 578 717 570 Q 727 563 741 582 Q 751 601 776 700 Q 783 728 806 751 Q 818 761 808 775 Q 795 791 755 815 Q 742 821 668 810 Q 667 810 563 796 Q 512 787 472 784 Q 465 784 462 781 C 433 774 467 747 496 754 Q 526 764 684 779 Q 709 780 716 772 Q 726 760 725 749 Q 710 637 691 625 C 679 609 679 609 686 600 Z" fill="lightgray" class="hide"/>
    <path d="M 511 664 Q 517 663 528 664 Q 598 676 652 682 Q 673 686 665 697 Q 655 710 633 714 Q 605 718 507 684 C 479 674 481 667 511 664 Z" fill="lightgray" class="hide"/>
    <path d="M 525 579 Q 531 578 539 579 Q 623 592 686 600 C 716 604 718 612 691 625 Q 673 640 530 601 Q 527 601 524 600 C 494 595 495 582 525 579 Z" fill="lightgray" class="hide"/>
    <path d="M 426 502 Q 416 508 386 512 Q 376 513 372 509 Q 368 505 375 490 Q 399 445 416 371 Q 420 349 433 334 Q 449 315 454 329 Q 455 336 456 348 L 455 370 Q 454 374 454 378 Q 441 444 437 470 C 432 499 432 499 426 502 Z" fill="lightgray" class="hide"/>
    <path d="M 758 385 Q 774 358 789 350 Q 798 343 813 361 Q 822 371 846 430 Q 856 458 878 482 Q 891 492 881 507 Q 868 523 828 550 Q 813 559 737 544 L 426 502 C 396 498 407 466 437 470 Q 443 470 450 471 Q 478 478 514 483 L 535 488 Q 577 495 631 502 L 674 507 Q 774 522 791 505 Q 798 498 796 490 Q 783 415 767 407 C 754 391 754 391 758 385 Z" fill="lightgray" class="hide"/>
    <path d="M 514 483 Q 517 471 518 447 Q 518 402 536 383 C 548 369 548 369 555 386 Q 555 387 556 387 Q 560 412 542 472 Q 541 482 535 488 C 516 511 507 512 514 483 Z" fill="lightgray" class="hide"/>
    <path d="M 631 502 Q 640 487 630 417 Q 627 407 627 398 C 626 368 635 377 649 403 Q 653 410 658 421 Q 680 473 685 478 Q 695 488 687 496 Q 683 502 674 507 C 648 523 619 529 631 502 Z" fill="lightgray" class="hide"/>
    <path d="M 456 348 Q 469 344 492 347 Q 643 372 758 385 C 788 388 795 395 767 407 Q 751 420 649 403 L 627 398 Q 590 394 555 386 L 536 383 Q 493 379 455 370 C 426 363 427 354 456 348 Z" fill="lightgray" class="hide"/>
    <path d="M 577 128 Q 511 62 377 32 Q 362 28 374 19 Q 380 15 422 17 Q 525 26 610 93 L 640 123 Q 674 165 706 226 Q 721 254 742 271 Q 764 286 751 301 Q 739 314 708 329 Q 687 338 599 309 Q 545 297 488 290 Q 473 290 468 283 Q 464 276 483 267 Q 520 251 571 265 Q 625 284 634 283 Q 655 279 648 258 Q 632 200 601 156 L 577 128 Z" fill="lightgray" class="hide"/>
    <path d="M 610 93 Q 691 8 771 -41 Q 795 -50 880 -30 Q 899 -24 919 -20 Q 932 -17 943 -11 Q 949 -4 937 4 Q 922 10 806 36 Q 743 49 640 123 L 601 156 Q 573 181 543 210 Q 524 231 492 233 Q 479 234 471 226 Q 467 219 477 212 Q 525 182 577 128 L 610 93 Z" fill="lightgray" class="hide"/></g><g transform="scale(1, -1) translate(0, -900)">
    <style type="text/css">
        .origin {display:none;}
        .hide {display:none;}
        .stroke {fill: #000000;}
        
.step1 {transform: translateX(1024px);}
.step2 {transform: translateX(2048px);}
.step3 {transform: translateX(3072px);}
.step4 {transform: translateX(4096px);}
.step5 {transform: translateX(5120px);}
.step6 {transform: translateX(6144px);}
.step7 {transform: translateX(7168px);}
.step8 {transform: translateX(8192px);}
.step9 {transform: translateX(9216px);}
.step10 {transform: translateX(10240px);}
.step11 {transform: translateX(11264px);}
.step12 {transform: translateX(12288px);}
.step13 {transform: translateX(13312px);}
.step14 {transform: translateX(14336px);}
.step15 {transform: translateX(15360px);}
.step16 {transform: translateX(16384px);}
.step17 {transform: translateX(17408px);}
.step18 {transform: translateX(18432px);}
.step19 {transform: translateX(19456px);}
.step20 {transform: translateX(20480px);}
.step21 {transform: translateX(21504px);}
.step22 {transform: translateX(22528px);}
.step23 {transform: translateX(23552px);}
.step24 {transform: translateX(24576px);}
.step25 {transform: translateX(25600px);}
.step26 {transform: translateX(26624px);}
.step27 {transform: translateX(27648px);}
.step28 {transform: translateX(28672px);}
.step29 {transform: translateX(29696px);}
    </style>

    <path d="M 125 556 Q 109 489 81 426 Q 66 393 88 363 Q 97 347 115 362 Q 163 407 157 505 Q 158 536 147 559 Q 141 566 136 567 Q 129 564 125 556 Z" fill="lightgray" class="stroke step4"/>
    <path d="M 282 601 Q 303 589 358 544 Q 371 534 384 535 Q 394 536 397 548 Q 400 561 391 587 Q 378 620 291 631 Q 287 632 284 631 C 254 629 256 616 282 601 Z" fill="lightgray" class="stroke step4"/>
    <path d="M 284 631 Q 288 692 301 738 Q 310 753 307 766 Q 300 776 246 809 Q 224 825 203 811 Q 199 807 205 791 Q 236 740 238 664 Q 238 243 220 151 Q 214 123 206 93 Q 196 56 220 -6 Q 227 -24 235 -27 Q 241 -34 248 -25 Q 275 -9 275 54 Q 274 105 282 575 Q 282 588 282 601 L 284 631 Z" fill="lightgray" class="stroke step4"/>
    <path d="M 462 781 Q 455 782 446 784 Q 436 787 432 782 Q 428 776 435 762 Q 463 704 481 606 Q 485 578 501 558 Q 517 539 522 553 Q 525 563 525 579 L 524 600 Q 523 609 521 617 Q 515 642 511 664 L 507 684 Q 497 738 496 754 C 494 776 492 776 462 781 Z" fill="lightgray" class="stroke step4"/>
    <path d="M 686 600 Q 702 578 717 570 Q 727 563 741 582 Q 751 601 776 700 Q 783 728 806 751 Q 818 761 808 775 Q 795 791 755 815 Q 742 821 668 810 Q 667 810 563 796 Q 512 787 472 784 Q 465 784 462 781 C 433 774 467 747 496 754 Q 526 764 684 779 Q 709 780 716 772 Q 726 760 725 749 Q 710 637 691 625 C 679 609 679 609 686 600 Z" fill="lightgray" class="stroke step4"/>
    <path d="M 511 664 Q 517 663 528 664 Q 598 676 652 682 Q 673 686 665 697 Q 655 710 633 714 Q 605 718 507 684 C 479 674 481 667 511 664 Z" fill="lightgray" class="hide"/>
    <path d="M 525 579 Q 531 578 539 579 Q 623 592 686 600 C 716 604 718 612 691 625 Q 673 640 530 601 Q 527 601 524 600 C 494 595 495 582 525 579 Z" fill="lightgray" class="hide"/>
    <path d="M 426 502 Q 416 508 386 512 Q 376 513 372 509 Q 368 505 375 490 Q 399 445 416 371 Q 420 349 433 334 Q 449 315 454 329 Q 455 336 456 348 L 455 370 Q 454 374 454 378 Q 441 444 437 470 C 432 499 432 499 426 502 Z" fill="lightgray" class="hide"/>
    <path d="M 758 385 Q 774 358 789 350 Q 798 343 813 361 Q 822 371 846 430 Q 856 458 878 482 Q 891 492 881 507 Q 868 523 828 550 Q 813 559 737 544 L 426 502 C 396 498 407 466 437 470 Q 443 470 450 471 Q 478 478 514 483 L 535 488 Q 577 495 631 502 L 674 507 Q 774 522 791 505 Q 798 498 796 490 Q 783 415 767 407 C 754 391 754 391 758 385 Z" fill="lightgray" class="hide"/>
    <path d="M 514 483 Q 517 471 518 447 Q 518 402 536 383 C 548 369 548 369 555 386 Q 555 387 556 387 Q 560 412 542 472 Q 541 482 535 488 C 516 511 507 512 514 483 Z" fill="lightgray" class="hide"/>
    <path d="M 631 502 Q 640 487 630 417 Q 627 407 627 398 C 626 368 635 377 649 403 Q 653 410 658 421 Q 680 473 685 478 Q 695 488 687 496 Q 683 502 674 507 C 648 523 619 529 631 502 Z" fill="lightgray" class="hide"/>
    <path d="M 456 348 Q 469 344 492 347 Q 643 372 758 385 C 788 388 795 395 767 407 Q 751 420 649 403 L 627 398 Q 590 394 555 386 L 536 383 Q 493 379 455 370 C 426 363 427 354 456 348 Z" fill="lightgray" class="hide"/>
    <path d="M 577 128 Q 511 62 377 32 Q 362 28 374 19 Q 380 15 422 17 Q 525 26 610 93 L 640 123 Q 674 165 706 226 Q 721 254 742 271 Q 764 286 751 301 Q 739 314 708 329 Q 687 338 599 309 Q 545 297 488 290 Q 473 290 468 283 Q 464 276 483 267 Q 520 251 571 265 Q 625 284 634 283 Q 655 279 648 258 Q 632 200 601 156 L 577 128 Z" fill="lightgray" class="hide"/>
    <path d="M 610 93 Q 691 8 771 -41 Q 795 -50 880 -30 Q 899 -24 919 -20 Q 932 -17 943 -11 Q 949 -4 937 4 Q 922 10 806 36 Q 743 49 640 123 L 601 156 Q 573 181 543 210 Q 524 231 492 233 Q 479 234 471 226 Q 467 219 477 212 Q 525 182 577 128 L 610 93 Z" fill="lightgray" class="hide"/></g><g transform="scale(1, -1) translate(0, -900)">
    <style type="text/css">
        .origin {display:none;}
        .hide {display:none;}
        .stroke {fill: #000000;}
        
.step1 {transform: translateX(1024px);}
.step2 {transform: translateX(2048px);}
.step3 {transform: translateX(3072px);}
.step4 {transform: translateX(4096px);}
.step5 {transform: translateX(5120px);}
.step6 {transform: translateX(6144px);}
.step7 {transform: translateX(7168px);}
.step8 {transform: translateX(8192px);}
.step9 {transform: translateX(9216px);}
.step10 {transform: translateX(10240px);}
.step11 {transform: translateX(11264px);}
.step12 {transform: translateX(12288px);}
.step13 {transform: translateX(13312px);}
.step14 {transform: translateX(14336px);}
.step15 {transform: translateX(15360px);}
.step16 {transform: translateX(16384px);}
.step17 {transform: translateX(17408px);}
.step18 {transform: translateX(18432px);}
.step19 {transform: translateX(19456px);}
.step20 {transform: translateX(20480px);}
.step21 {transform: translateX(21504px);}
.step22 {transform: translateX(22528px);}
.step23 {transform: translateX(23552px);}
.step24 {transform: translateX(24576px);}
.step25 {transform: translateX(25600px);}
.step26 {transform: translateX(26624px);}
.step27 {transform: translateX(27648px);}
.step28 {transform: translateX(28672px);}
.step29 {transform: translateX(29696px);}
    </style>

    <path d="M 125 556 Q 109 489 81 426 Q 66 393 88 363 Q 97 347 115 362 Q 163 407 157 505 Q 158 536 147 559 Q 141 566 136 567 Q 129 564 125 556 Z" fill="lightgray" class="stroke step5"/>
    <path d="M 282 601 Q 303 589 358 544 Q 371 534 384 535 Q 394 536 397 548 Q 400 561 391 587 Q 378 620 291 631 Q 287 632 284 631 C 254 629 256 616 282 601 Z" fill="lightgray" class="stroke step5"/>
    <path d="M 284 631 Q 288 692 301 738 Q 310 753 307 766 Q 300 776 246 809 Q 224 825 203 811 Q 199 807 205 791 Q 236 740 238 664 Q 238 243 220 151 Q 214 123 206 93 Q 196 56 220 -6 Q 227 -24 235 -27 Q 241 -34 248 -25 Q 275 -9 275 54 Q 274 105 282 575 Q 282 588 282 601 L 284 631 Z" fill="lightgray" class="stroke step5"/>
    <path d="M 462 781 Q 455 782 446 784 Q 436 787 432 782 Q 428 776 435 762 Q 463 704 481 606 Q 485 578 501 558 Q 517 539 522 553 Q 525 563 525 579 L 524 600 Q 523 609 521 617 Q 515 642 511 664 L 507 684 Q 497 738 496 754 C 494 776 492 776 462 781 Z" fill="lightgray" class="stroke step5"/>
    <path d="M 686 600 Q 702 578 717 570 Q 727 563 741 582 Q 751 601 776 700 Q 783 728 806 751 Q 818 761 808 775 Q 795 791 755 815 Q 742 821 668 810 Q 667 810 563 796 Q 512 787 472 784 Q 465 784 462 781 C 433 774 467 747 496 754 Q 526 764 684 779 Q 709 780 716 772 Q 726 760 725 749 Q 710 637 691 625 C 679 609 679 609 686 600 Z" fill="lightgray" class="stroke step5"/>
    <path d="M 511 664 Q 517 663 528 664 Q 598 676 652 682 Q 673 686 665 697 Q 655 710 633 714 Q 605 718 507 684 C 479 674 481 667 511 664 Z" fill="lightgray" class="stroke step5"/>
    <path d="M 525 579 Q 531 578 539 579 Q 623 592 686 600 C 716 604 718 612 691 625 Q 673 640 530 601 Q 527 601 524 600 C 494 595 495 582 525 579 Z" fill="lightgray" class="hide"/>
    <path d="M 426 502 Q 416 508 386 512 Q 376 513 372 509 Q 368 505 375 490 Q 399 445 416 371 Q 420 349 433 334 Q 449 315 454 329 Q 455 336 456 348 L 455 370 Q 454 374 454 378 Q 441 444 437 470 C 432 499 432 499 426 502 Z" fill="lightgray" class="hide"/>
    <path d="M 758 385 Q 774 358 789 350 Q 798 343 813 361 Q 822 371 846 430 Q 856 458 878 482 Q 891 492 881 507 Q 868 523 828 550 Q 813 559 737 544 L 426 502 C 396 498 407 466 437 470 Q 443 470 450 471 Q 478 478 514 483 L 535 488 Q 577 495 631 502 L 674 507 Q 774 522 791 505 Q 798 498 796 490 Q 783 415 767 407 C 754 391 754 391 758 385 Z" fill="lightgray" class="hide"/>
    <path d="M 514 483 Q 517 471 518 447 Q 518 402 536 383 C 548 369 548 369 555 386 Q 555 387 556 387 Q 560 412 542 472 Q 541 482 535 488 C 516 511 507 512 514 483 Z" fill="lightgray" class="hide"/>
    <path d="M 631 502 Q 640 487 630 417 Q 627 407 627 398 C 626 368 635 377 649 403 Q 653 410 658 421 Q 680 473 685 478 Q 695 488 687 496 Q 683 502 674 507 C 648 523 619 529 631 502 Z" fill="lightgray" class="hide"/>
    <path d="M 456 348 Q 469 344 492 347 Q 643 372 758 385 C 788 388 795 395 767 407 Q 751 420 649 403 L 627 398 Q 590 394 555 386 L 536 383 Q 493 379 455 370 C 426 363 427 354 456 348 Z" fill="lightgray" class="hide"/>
    <path d="M 577 128 Q 511 62 377 32 Q 362 28 374 19 Q 380 15 422 17 Q 525 26 610 93 L 640 123 Q 674 165 706 226 Q 721 254 742 271 Q 764 286 751 301 Q 739 314 708 329 Q 687 338 599 309 Q 545 297 488 290 Q 473 290 468 283 Q 464 276 483 267 Q 520 251 571 265 Q 625 284 634 283 Q 655 279 648 258 Q 632 200 601 156 L 577 128 Z" fill="lightgray" class="hide"/>
    <path d="M 610 93 Q 691 8 771 -41 Q 795 -50 880 -30 Q 899 -24 919 -20 Q 932 -17 943 -11 Q 949 -4 937 4 Q 922 10 806 36 Q 743 49 640 123 L 601 156 Q 573 181 543 210 Q 524 231 492 233 Q 479 234 471 226 Q 467 219 477 212 Q 525 182 577 128 L 610 93 Z" fill="lightgray" class="hide"/></g><g transform="scale(1, -1) translate(0, -900)">
    <style type="text/css">
        .origin {display:none;}
        .hide {display:none;}
        .stroke {fill: #000000;}
        
.step1 {transform: translateX(1024px);}
.step2 {transform: translateX(2048px);}
.step3 {transform: translateX(3072px);}
.step4 {transform: translateX(4096px);}
.step5 {transform: translateX(5120px);}
.step6 {transform: translateX(6144px);}
.step7 {transform: translateX(7168px);}
.step8 {transform: translateX(8192px);}
.step9 {transform: translateX(9216px);}
.step10 {transform: translateX(10240px);}
.step11 {transform: translateX(11264px);}
.step12 {transform: translateX(12288px);}
.step13 {transform: translateX(13312px);}
.step14 {transform: translateX(14336px);}
.step15 {transform: translateX(15360px);}
.step16 {transform: translateX(16384px);}
.step17 {transform: translateX(17408px);}
.step18 {transform: translateX(18432px);}
.step19 {transform: translateX(19456px);}
.step20 {transform: translateX(20480px);}
.step21 {transform: translateX(21504px);}
.step22 {transform: translateX(22528px);}
.step23 {transform: translateX(23552px);}
.step24 {transform: translateX(24576px);}
.step25 {transform: translateX(25600px);}
.step26 {transform: translateX(26624px);}
.step27 {transform: translateX(27648px);}
.step28 {transform: translateX(28672px);}
.step29 {transform: translateX(29696px);}
    </style>

    <path d="M 125 556 Q 109 489 81 426 Q 66 393 88 363 Q 97 347 115 362 Q 163 407 157 505 Q 158 536 147 559 Q 141 566 136 567 Q 129 564 125 556 Z" fill="lightgray" class="stroke step6"/>
    <path d="M 282 601 Q 303 589 358 544 Q 371 534 384 535 Q 394 536 397 548 Q 400 561 391 587 Q 378 620 291 631 Q 287 632 284 631 C 254 629 256 616 282 601 Z" fill="lightgray" class="stroke step6"/>
    <path d="M 284 631 Q 288 692 301 738 Q 310 753 307 766 Q 300 776 246 809 Q 224 825 203 811 Q 199 807 205 791 Q 236 740 238 664 Q 238 243 220 151 Q 214 123 206 93 Q 196 56 220 -6 Q 227 -24 235 -27 Q 241 -34 248 -25 Q 275 -9 275 54 Q 274 105 282 575 Q 282 588 282 601 L 284 631 Z" fill="lightgray" class="stroke step6"/>
    <path d="M 462 781 Q 455 782 446 784 Q 436 787 432 782 Q 428 776 435 762 Q 463 704 481 606 Q 485 578 501 558 Q 517 539 522 553 Q 525 563 525 579 L 524 600 Q 523 609 521 617 Q 515 642 511 664 L 507 684 Q 497 738 496 754 C 494 776 492 776 462 781 Z" fill="lightgray" class="stroke step6"/>
    <path d="M 686 600 Q 702 578 717 570 Q 727 563 741 582 Q 751 601 776 700 Q 783 728 806 751 Q 818 761 808 775 Q 795 791 755 815 Q 742 821 668 810 Q 667 810 563 796 Q 512 787 472 784 Q 465 784 462 781 C 433 774 467 747 496 754 Q 526 764 684 779 Q 709 780 716 772 Q 726 760 725 749 Q 710 637 691 625 C 679 609 679 609 686 600 Z" fill="lightgray" class="stroke step6"/>
    <path d="M 511 664 Q 517 663 528 664 Q 598 676 652 682 Q 673 686 665 697 Q 655 710 633 714 Q 605 718 507 684 C 479 674 481 667 511 664 Z" fill="lightgray" class="stroke step6"/>
    <path d="M 525 579 Q 531 578 539 579 Q 623 592 686 600 C 716 604 718 612 691 625 Q 673 640 530 601 Q 527 601 524 600 C 494 595 495 582 525 579 Z" fill="lightgray" class="stroke step6"/>
    <path d="M 426 502 Q 416 508 386 512 Q 376 513 372 509 Q 368 505 375 490 Q 399 445 416 371 Q 420 349 433 334 Q 449 315 454 329 Q 455 336 456 348 L 455 370 Q 454 374 454 378 Q 441 444 437 470 C 432 499 432 499 426 502 Z" fill="lightgray" class="hide"/>
    <path d="M 758 385 Q 774 358 789 350 Q 798 343 813 361 Q 822 371 846 430 Q 856 458 878 482 Q 891 492 881 507 Q 868 523 828 550 Q 813 559 737 544 L 426 502 C 396 498 407 466 437 470 Q 443 470 450 471 Q 478 478 514 483 L 535 488 Q 577 495 631 502 L 674 507 Q 774 522 791 505 Q 798 498 796 490 Q 783 415 767 407 C 754 391 754 391 758 385 Z" fill="lightgray" class="hide"/>
    <path d="M 514 483 Q 517 471 518 447 Q 518 402 536 383 C 548 369 548 369 555 386 Q 555 387 556 387 Q 560 412 542 472 Q 541 482 535 488 C 516 511 507 512 514 483 Z" fill="lightgray" class="hide"/>
    <path d="M 631 502 Q 640 487 630 417 Q 627 407 627 398 C 626 368 635 377 649 403 Q 653 410 658 421 Q 680 473 685 478 Q 695 488 687 496 Q 683 502 674 507 C 648 523 619 529 631 502 Z" fill="lightgray" class="hide"/>
    <path d="M 456 348 Q 469 344 492 347 Q 643 372 758 385 C 788 388 795 395 767 407 Q 751 420 649 403 L 627 398 Q 590 394 555 386 L 536 383 Q 493 379 455 370 C 426 363 427 354 456 348 Z" fill="lightgray" class="hide"/>
    <path d="M 577 128 Q 511 62 377 32 Q 362 28 374 19 Q 380 15 422 17 Q 525 26 610 93 L 640 123 Q 674 165 706 226 Q 721 254 742 271 Q 764 286 751 301 Q 739 314 708 329 Q 687 338 599 309 Q 545 297 488 290 Q 473 290 468 283 Q 464 276 483 267 Q 520 251 571 265 Q 625 284 634 283 Q 655 279 648 258 Q 632 200 601 156 L 577 128 Z" fill="lightgray" class="hide"/>
    <path d="M 610 93 Q 691 8 771 -41 Q 795 -50 880 -30 Q 899 -24 919 -20 Q 932 -17 943 -11 Q 949 -4 937 4 Q 922 10 806 36 Q 743 49 640 123 L 601 156 Q 573 181 543 210 Q 524 231 492 233 Q 479 234 471 226 Q 467 219 477 212 Q 525 182 577 128 L 610 93 Z" fill="lightgray" class="hide"/></g><g transform="scale(1, -1) translate(0, -900)">
    <style type="text/css">
        .origin {display:none;}
        .hide {display:none;}
        .stroke {fill: #000000;}
        
.step1 {transform: translateX(1024px);}
.step2 {transform: translateX(2048px);}
.step3 {transform: translateX(3072px);}
.step4 {transform: translateX(4096px);}
.step5 {transform: translateX(5120px);}
.step6 {transform: translateX(6144px);}
.step7 {transform: translateX(7168px);}
.step8 {transform: translateX(8192px);}
.step9 {transform: translateX(9216px);}
.step10 {transform: translateX(10240px);}
.step11 {transform: translateX(11264px);}
.step12 {transform: translateX(12288px);}
.step13 {transform: translateX(13312px);}
.step14 {transform: translateX(14336px);}
.step15 {transform: translateX(15360px);}
.step16 {transform: translateX(16384px);}
.step17 {transform: translateX(17408px);}
.step18 {transform: translateX(18432px);}
.step19 {transform: translateX(19456px);}
.step20 {transform: translateX(20480px);}
.step21 {transform: translateX(21504px);}
.step22 {transform: translateX(22528px);}
.step23 {transform: translateX(23552px);}
.step24 {transform: translateX(24576px);}
.step25 {transform: translateX(25600px);}
.step26 {transform: translateX(26624px);}
.step27 {transform: translateX(27648px);}
.step28 {transform: translateX(28672px);}
.step29 {transform: translateX(29696px);}
    </style>

    <path d="M 125 556 Q 109 489 81 426 Q 66 393 88 363 Q 97 347 115 362 Q 163 407 157 505 Q 158 536 147 559 Q 141 566 136 567 Q 129 564 125 556 Z" fill="lightgray" class="stroke step7"/>
    <path d="M 282 601 Q 303 589 358 544 Q 371 534 384 535 Q 394 536 397 548 Q 400 561 391 587 Q 378 620 291 631 Q 287 632 284 631 C 254 629 256 616 282 601 Z" fill="lightgray" class="stroke step7"/>
    <path d="M 284 631 Q 288 692 301 738 Q 310 753 307 766 Q 300 776 246 809 Q 224 825 203 811 Q 199 807 205 791 Q 236 740 238 664 Q 238 243 220 151 Q 214 123 206 93 Q 196 56 220 -6 Q 227 -24 235 -27 Q 241 -34 248 -25 Q 275 -9 275 54 Q 274 105 282 575 Q 282 588 282 601 L 284 631 Z" fill="lightgray" class="stroke step7"/>
    <path d="M 462 781 Q 455 782 446 784 Q 436 787 432 782 Q 428 776 435 762 Q 463 704 481 606 Q 485 578 501 558 Q 517 539 522 553 Q 525 563 525 579 L 524 600 Q 523 609 521 617 Q 515 642 511 664 L 507 684 Q 497 738 496 754 C 494 776 492 776 462 781 Z" fill="lightgray" class="stroke step7"/>
    <path d="M 686 600 Q 702 578 717 570 Q 727 563 741 582 Q 751 601 776 700 Q 783 728 806 751 Q 818 761 808 775 Q 795 791 755 815 Q 742 821 668 810 Q 667 810 563 796 Q 512 787 472 784 Q 465 784 462 781 C 433 774 467 747 496 754 Q 526 764 684 779 Q 709 780 716 772 Q 726 760 725 749 Q 710 637 691 625 C 679 609 679 609 686 600 Z" fill="lightgray" class="stroke step7"/>
    <path d="M 511 664 Q 517 663 528 664 Q 598 676 652 682 Q 673 686 665 697 Q 655 710 633 714 Q 605 718 507 684 C 479 674 481 667 511 664 Z" fill="lightgray" class="stroke step7"/>
    <path d="M 525 579 Q 531 578 539 579 Q 623 592 686 600 C 716 604 718 612 691 625 Q 673 640 530 601 Q 527 601 524 600 C 494 595 495 582 525 579 Z" fill="lightgray" class="stroke step7"/>
    <path d="M 426 502 Q 416 508 386 512 Q 376 513 372 509 Q 368 505 375 490 Q 399 445 416 371 Q 420 349 433 334 Q 449 315 454 329 Q 455 336 456 348 L 455 370 Q 454 374 454 378 Q 441 444 437 470 C 432 499 432 499 426 502 Z" fill="lightgray" class="stroke step7"/>
    <path d="M 758 385 Q 774 358 789 350 Q 798 343 813 361 Q 822 371 846 430 Q 856 458 878 482 Q 891 492 881 507 Q 868 523 828 550 Q 813 559 737 544 L 426 502 C 396 498 407 466 437 470 Q 443 470 450 471 Q 478 478 514 483 L 535 488 Q 577 495 631 502 L 674 507 Q 774 522 791 505 Q 798 498 796 490 Q 783 415 767 407 C 754 391 754 391 758 385 Z" fill="lightgray" class="hide"/>
    <path d="M 514 483 Q 517 471 518 447 Q 518 402 536 383 C 548 369 548 369 555 386 Q 555 387 556 387 Q 560 412 542 472 Q 541 482 535 488 C 516 511 507 512 514 483 Z" fill="lightgray" class="hide"/>
    <path d="M 631 502 Q 640 487 630 417 Q 627 407 627 398 C 626 368 635 377 649 403 Q 653 410 658 421 Q 680 473 685 478 Q 695 488 687 496 Q 683 502 674 507 C 648 523 619 529 631 502 Z" fill="lightgray" class="hide"/>
    <path d="M 456 348 Q 469 344 492 347 Q 643 372 758 385 C 788 388 795 395 767 407 Q 751 420 649 403 L 627 398 Q 590 394 555 386 L 536 383 Q 493 379 455 370 C 426 363 427 354 456 348 Z" fill="lightgray" class="hide"/>
    <path d="M 577 128 Q 511 62 377 32 Q 362 28 374 19 Q 380 15 422 17 Q 525 26 610 93 L 640 123 Q 674 165 706 226 Q 721 254 742 271 Q 764 286 751 301 Q 739 314 708 329 Q 687 338 599 309 Q 545 297 488 290 Q 473 290 468 283 Q 464 276 483 267 Q 520 251 571 265 Q 625 284 634 283 Q 655 279 648 258 Q 632 200 601 156 L 577 128 Z" fill="lightgray" class="hide"/>
    <path d="M 610 93 Q 691 8 771 -41 Q 795 -50 880 -30 Q 899 -24 919 -20 Q 932 -17 943 -11 Q 949 -4 937 4 Q 922 10 806 36 Q 743 49 640 123 L 601 156 Q 573 181 543 210 Q 524 231 492 233 Q 479 234 471 226 Q 467 219 477 212 Q 525 182 577 128 L 610 93 Z" fill="lightgray" class="hide"/></g><g transform="scale(1, -1) translate(0, -900)">
    <style type="text/css">
        .origin {display:none;}
        .hide {display:none;}
        .stroke {fill: #000000;}
        
.step1 {transform: translateX(1024px);}
.step2 {transform: translateX(2048px);}
.step3 {transform: translateX(3072px);}
.step4 {transform: translateX(4096px);}
.step5 {transform: translateX(5120px);}
.step6 {transform: translateX(6144px);}
.step7 {transform: translateX(7168px);}
.step8 {transform: translateX(8192px);}
.step9 {transform: translateX(9216px);}
.step10 {transform: translateX(10240px);}
.step11 {transform: translateX(11264px);}
.step12 {transform: translateX(12288px);}
.step13 {transform: translateX(13312px);}
.step14 {transform: translateX(14336px);}
.step15 {transform: translateX(15360px);}
.step16 {transform: translateX(16384px);}
.step17 {transform: translateX(17408px);}
.step18 {transform: translateX(18432px);}
.step19 {transform: translateX(19456px);}
.step20 {transform: translateX(20480px);}
.step21 {transform: translateX(21504px);}
.step22 {transform: translateX(22528px);}
.step23 {transform: translateX(23552px);}
.step24 {transform: translateX(24576px);}
.step25 {transform: translateX(25600px);}
.step26 {transform: translateX(26624px);}
.step27 {transform: translateX(27648px);}
.step28 {transform: translateX(28672px);}
.step29 {transform: translateX(29696px);}
    </style>

    <path d="M 125 556 Q 109 489 81 426 Q 66 393 88 363 Q 97 347 115 362 Q 163 407 157 505 Q 158 536 147 559 Q 141 566 136 567 Q 129 564 125 556 Z" fill="lightgray" class="stroke step8"/>
    <path d="M 282 601 Q 303 589 358 544 Q 371 534 384 535 Q 394 536 397 548 Q 400 561 391 587 Q 378 620 291 631 Q 287 632 284 631 C 254 629 256 616 282 601 Z" fill="lightgray" class="stroke step8"/>
    <path d="M 284 631 Q 288 692 301 738 Q 310 753 307 766 Q 300 776 246 809 Q 224 825 203 811 Q 199 807 205 791 Q 236 740 238 664 Q 238 243 220 151 Q 214 123 206 93 Q 196 56 220 -6 Q 227 -24 235 -27 Q 241 -34 248 -25 Q 275 -9 275 54 Q 274 105 282 575 Q 282 588 282 601 L 284 631 Z" fill="lightgray" class="stroke step8"/>
    <path d="M 462 781 Q 455 782 446 784 Q 436 787 432 782 Q 428 776 435 762 Q 463 704 481 606 Q 485 578 501 558 Q 517 539 522 553 Q 525 563 525 579 L 524 600 Q 523 609 521 617 Q 515 642 511 664 L 507 684 Q 497 738 496 754 C 494 776 492 776 462 781 Z" fill="lightgray" class="stroke step8"/>
    <path d="M 686 600 Q 702 578 717 570 Q 727 563 741 582 Q 751 601 776 700 Q 783 728 806 751 Q 818 761 808 775 Q 795 791 755 815 Q 742 821 668 810 Q 667 810 563 796 Q 512 787 472 784 Q 465 784 462 781 C 433 774 467 747 496 754 Q 526 764 684 779 Q 709 780 716 772 Q 726 760 725 749 Q 710 637 691 625 C 679 609 679 609 686 600 Z" fill="lightgray" class="stroke step8"/>
    <path d="M 511 664 Q 517 663 528 664 Q 598 676 652 682 Q 673 686 665 697 Q 655 710 633 714 Q 605 718 507 684 C 479 674 481 667 511 664 Z" fill="lightgray" class="stroke step8"/>
    <path d="M 525 579 Q 531 578 539 579 Q 623 592 686 600 C 716 604 718 612 691 625 Q 673 640 530 601 Q 527 601 524 600 C 494 595 495 582 525 579 Z" fill="lightgray" class="stroke step8"/>
    <path d="M 426 502 Q 416 508 386 512 Q 376 513 372 509 Q 368 505 375 490 Q 399 445 416 371 Q 420 349 433 334 Q 449 315 454 329 Q 455 336 456 348 L 455 370 Q 454 374 454 378 Q 441 444 437 470 C 432 499 432 499 426 502 Z" fill="lightgray" class="stroke step8"/>
    <path d="M 758 385 Q 774 358 789 350 Q 798 343 813 361 Q 822 371 846 430 Q 856 458 878 482 Q 891 492 881 507 Q 868 523 828 550 Q 813 559 737 544 L 426 502 C 396 498 407 466 437 470 Q 443 470 450 471 Q 478 478 514 483 L 535 488 Q 577 495 631 502 L 674 507 Q 774 522 791 505 Q 798 498 796 490 Q 783 415 767 407 C 754 391 754 391 758 385 Z" fill="lightgray" class="stroke step8"/>
    <path d="M 514 483 Q 517 471 518 447 Q 518 402 536 383 C 548 369 548 369 555 386 Q 555 387 556 387 Q 560 412 542 472 Q 541 482 535 488 C 516 511 507 512 514 483 Z" fill="lightgray" class="hide"/>
    <path d="M 631 502 Q 640 487 630 417 Q 627 407 627 398 C 626 368 635 377 649 403 Q 653 410 658 421 Q 680 473 685 478 Q 695 488 687 496 Q 683 502 674 507 C 648 523 619 529 631 502 Z" fill="lightgray" class="hide"/>
    <path d="M 456 348 Q 469 344 492 347 Q 643 372 758 385 C 788 388 795 395 767 407 Q 751 420 649 403 L 627 398 Q 590 394 555 386 L 536 383 Q 493 379 455 370 C 426 363 427 354 456 348 Z" fill="lightgray" class="hide"/>
    <path d="M 577 128 Q 511 62 377 32 Q 362 28 374 19 Q 380 15 422 17 Q 525 26 610 93 L 640 123 Q 674 165 706 226 Q 721 254 742 271 Q 764 286 751 301 Q 739 314 708 329 Q 687 338 599 309 Q 545 297 488 290 Q 473 290 468 283 Q 464 276 483 267 Q 520 251 571 265 Q 625 284 634 283 Q 655 279 648 258 Q 632 200 601 156 L 577 128 Z" fill="lightgray" class="hide"/>
    <path d="M 610 93 Q 691 8 771 -41 Q 795 -50 880 -30 Q 899 -24 919 -20 Q 932 -17 943 -11 Q 949 -4 937 4 Q 922 10 806 36 Q 743 49 640 123 L 601 156 Q 573 181 543 210 Q 524 231 492 233 Q 479 234 471 226 Q 467 219 477 212 Q 525 182 577 128 L 610 93 Z" fill="lightgray" class="hide"/></g><g transform="scale(1, -1) translate(0, -900)">
    <style type="text/css">
        .origin {display:none;}
        .hide {display:none;}
        .stroke {fill: #000000;}
        
.step1 {transform: translateX(1024px);}
.step2 {transform: translateX(2048px);}
.step3 {transform: translateX(3072px);}
.step4 {transform: translateX(4096px);}
.step5 {transform: translateX(5120px);}
.step6 {transform: translateX(6144px);}
.step7 {transform: translateX(7168px);}
.step8 {transform: translateX(8192px);}
.step9 {transform: translateX(9216px);}
.step10 {transform: translateX(10240px);}
.step11 {transform: translateX(11264px);}
.step12 {transform: translateX(12288px);}
.step13 {transform: translateX(13312px);}
.step14 {transform: translateX(14336px);}
.step15 {transform: translateX(15360px);}
.step16 {transform: translateX(16384px);}
.step17 {transform: translateX(17408px);}
.step18 {transform: translateX(18432px);}
.step19 {transform: translateX(19456px);}
.step20 {transform: translateX(20480px);}
.step21 {transform: translateX(21504px);}
.step22 {transform: translateX(22528px);}
.step23 {transform: translateX(23552px);}
.step24 {transform: translateX(24576px);}
.step25 {transform: translateX(25600px);}
.step26 {transform: translateX(26624px);}
.step27 {transform: translateX(27648px);}
.step28 {transform: translateX(28672px);}
.step29 {transform: translateX(29696px);}
    </style>

    <path d="M 125 556 Q 109 489 81 426 Q 66 393 88 363 Q 97 347 115 362 Q 163 407 157 505 Q 158 536 147 559 Q 141 566 136 567 Q 129 564 125 556 Z" fill="lightgray" class="stroke step9"/>
    <path d="M 282 601 Q 303 589 358 544 Q 371 534 384 535 Q 394 536 397 548 Q 400 561 391 587 Q 378 620 291 631 Q 287 632 284 631 C 254 629 256 616 282 601 Z" fill="lightgray" class="stroke step9"/>
    <path d="M 284 631 Q 288 692 301 738 Q 310 753 307 766 Q 300 776 246 809 Q 224 825 203 811 Q 199 807 205 791 Q 236 740 238 664 Q 238 243 220 151 Q 214 123 206 93 Q 196 56 220 -6 Q 227 -24 235 -27 Q 241 -34 248 -25 Q 275 -9 275 54 Q 274 105 282 575 Q 282 588 282 601 L 284 631 Z" fill="lightgray" class="stroke step9"/>
    <path d="M 462 781 Q 455 782 446 784 Q 436 787 432 782 Q 428 776 435 762 Q 463 704 481 606 Q 485 578 501 558 Q 517 539 522 553 Q 525 563 525 579 L 524 600 Q 523 609 521 617 Q 515 642 511 664 L 507 684 Q 497 738 496 754 C 494 776 492 776 462 781 Z" fill="lightgray" class="stroke step9"/>
    <path d="M 686 600 Q 702 578 717 570 Q 727 563 741 582 Q 751 601 776 700 Q 783 728 806 751 Q 818 761 808 775 Q 795 791 755 815 Q 742 821 668 810 Q 667 810 563 796 Q 512 787 472 784 Q 465 784 462 781 C 433 774 467 747 496 754 Q 526 764 684 779 Q 709 780 716 772 Q 726 760 725 749 Q 710 637 691 625 C 679 609 679 609 686 600 Z" fill="lightgray" class="stroke step9"/>
    <path d="M 511 664 Q 517 663 528 664 Q 598 676 652 682 Q 673 686 665 697 Q 655 710 633 714 Q 605 718 507 684 C 479 674 481 667 511 664 Z" fill="lightgray" class="stroke step9"/>
    <path d="M 525 579 Q 531 578 539 579 Q 623 592 686 600 C 716 604 718 612 691 625 Q 673 640 530 601 Q 527 601 524 600 C 494 595 495 582 525 579 Z" fill="lightgray" class="stroke step9"/>
    <path d="M 426 502 Q 416 508 386 512 Q 376 513 372 509 Q 368 505 375 490 Q 399 445 416 371 Q 420 349 433 334 Q 449 315 454 329 Q 455 336 456 348 L 455 370 Q 454 374 454 378 Q 441 444 437 470 C 432 499 432 499 426 502 Z" fill="lightgray" class="stroke step9"/>
    <path d="M 758 385 Q 774 358 789 350 Q 798 343 813 361 Q 822 371 846 430 Q 856 458 878 482 Q 891 492 881 507 Q 868 523 828 550 Q 813 559 737 544 L 426 502 C 396 498 407 466 437 470 Q 443 470 450 471 Q 478 478 514 483 L 535 488 Q 577 495 631 502 L 674 507 Q 774 522 791 505 Q 798 498 796 490 Q 783 415 767 407 C 754 391 754 391 758 385 Z" fill="lightgray" class="stroke step9"/>
    <path d="M 514 483 Q 517 471 518 447 Q 518 402 536 383 C 548 369 548 369 555 386 Q 555 387 556 387 Q 560 412 542 472 Q 541 482 535 488 C 516 511 507 512 514 483 Z" fill="lightgray" class="stroke step9"/>
    <path d="M 631 502 Q 640 487 630 417 Q 627 407 627 398 C 626 368 635 377 649 403 Q 653 410 658 421 Q 680 473 685 478 Q 695 488 687 496 Q 683 502 674 507 C 648 523 619 529 631 502 Z" fill="lightgray" class="hide"/>
    <path d="M 456 348 Q 469 344 492 347 Q 643 372 758 385 C 788 388 795 395 767 407 Q 751 420 649 403 L 627 398 Q 590 394 555 386 L 536 383 Q 493 379 455 370 C 426 363 427 354 456 348 Z" fill="lightgray" class="hide"/>
    <path d="M 577 128 Q 511 62 377 32 Q 362 28 374 19 Q 380 15 422 17 Q 525 26 610 93 L 640 123 Q 674 165 706 226 Q 721 254 742 271 Q 764 286 751 301 Q 739 314 708 329 Q 687 338 599 309 Q 545 297 488 290 Q 473 290 468 283 Q 464 276 483 267 Q 520 251 571 265 Q 625 284 634 283 Q 655 279 648 258 Q 632 200 601 156 L 577 128 Z" fill="lightgray" class="hide"/>
    <path d="M 610 93 Q 691 8 771 -41 Q 795 -50 880 -30 Q 899 -24 919 -20 Q 932 -17 943 -11 Q 949 -4 937 4 Q 922 10 806 36 Q 743 49 640 123 L 601 156 Q 573 181 543 210 Q 524 231 492 233 Q 479 234 471 226 Q 467 219 477 212 Q 525 182 577 128 L 610 93 Z" fill="lightgray" class="hide"/></g><g transform="scale(1, -1) translate(0, -900)">
    <style type="text/css">
        .origin {display:none;}
        .hide {display:none;}
        .stroke {fill: #000000;}
        
.step1 {transform: translateX(1024px);}
.step2 {transform: translateX(2048px);}
.step3 {transform: translateX(3072px);}
.step4 {transform: translateX(4096px);}
.step5 {transform: translateX(5120px);}
.step6 {transform: translateX(6144px);}
.step7 {transform: translateX(7168px);}
.step8 {transform: translateX(8192px);}
.step9 {transform: translateX(9216px);}
.step10 {transform: translateX(10240px);}
.step11 {transform: translateX(11264px);}
.step12 {transform: translateX(12288px);}
.step13 {transform: translateX(13312px);}
.step14 {transform: translateX(14336px);}
.step15 {transform: translateX(15360px);}
.step16 {transform: translateX(16384px);}
.step17 {transform: translateX(17408px);}
.step18 {transform: translateX(18432px);}
.step19 {transform: translateX(19456px);}
.step20 {transform: translateX(20480px);}
.step21 {transform: translateX(21504px);}
.step22 {transform: translateX(22528px);}
.step23 {transform: translateX(23552px);}
.step24 {transform: translateX(24576px);}
.step25 {transform: translateX(25600px);}
.step26 {transform: translateX(26624px);}
.step27 {transform: translateX(27648px);}
.step28 {transform: translateX(28672px);}
.step29 {transform: translateX(29696px);}
    </style>

    <path d="M 125 556 Q 109 489 81 426 Q 66 393 88 363 Q 97 347 115 362 Q 163 407 157 505 Q 158 536 147 559 Q 141 566 136 567 Q 129 564 125 556 Z" fill="lightgray" class="stroke step10"/>
    <path d="M 282 601 Q 303 589 358 544 Q 371 534 384 535 Q 394 536 397 548 Q 400 561 391 587 Q 378 620 291 631 Q 287 632 284 631 C 254 629 256 616 282 601 Z" fill="lightgray" class="stroke step10"/>
    <path d="M 284 631 Q 288 692 301 738 Q 310 753 307 766 Q 300 776 246 809 Q 224 825 203 811 Q 199 807 205 791 Q 236 740 238 664 Q 238 243 220 151 Q 214 123 206 93 Q 196 56 220 -6 Q 227 -24 235 -27 Q 241 -34 248 -25 Q 275 -9 275 54 Q 274 105 282 575 Q 282 588 282 601 L 284 631 Z" fill="lightgray" class="stroke step10"/>
    <path d="M 462 781 Q 455 782 446 784 Q 436 787 432 782 Q 428 776 435 762 Q 463 704 481 606 Q 485 578 501 558 Q 517 539 522 553 Q 525 563 525 579 L 524 600 Q 523 609 521 617 Q 515 642 511 664 L 507 684 Q 497 738 496 754 C 494 776 492 776 462 781 Z" fill="lightgray" class="stroke step10"/>
    <path d="M 686 600 Q 702 578 717 570 Q 727 563 741 582 Q 751 601 776 700 Q 783 728 806 751 Q 818 761 808 775 Q 795 791 755 815 Q 742 821 668 810 Q 667 810 563 796 Q 512 787 472 784 Q 465 784 462 781 C 433 774 467 747 496 754 Q 526 764 684 779 Q 709 780 716 772 Q 726 760 725 749 Q 710 637 691 625 C 679 609 679 609 686 600 Z" fill="lightgray" class="stroke step10"/>
    <path d="M 511 664 Q 517 663 528 664 Q 598 676 652 682 Q 673 686 665 697 Q 655 710 633 714 Q 605 718 507 684 C 479 674 481 667 511 664 Z" fill="lightgray" class="stroke step10"/>
    <path d="M 525 579 Q 531 578 539 579 Q 623 592 686 600 C 716 604 718 612 691 625 Q 673 640 530 601 Q 527 601 524 600 C 494 595 495 582 525 579 Z" fill="lightgray" class="stroke step10"/>
    <path d="M 426 502 Q 416 508 386 512 Q 376 513 372 509 Q 368 505 375 490 Q 399 445 416 371 Q 420 349 433 334 Q 449 315 454 329 Q 455 336 456 348 L 455 370 Q 454 374 454 378 Q 441 444 437 470 C 432 499 432 499 426 502 Z" fill="lightgray" class="stroke step10"/>
    <path d="M 758 385 Q 774 358 789 350 Q 798 343 813 361 Q 822 371 846 430 Q 856 458 878 482 Q 891 492 881 507 Q 868 523 828 550 Q 813 559 737 544 L 426 502 C 396 498 407 466 437 470 Q 443 470 450 471 Q 478 478 514 483 L 535 488 Q 577 495 631 502 L 674 507 Q 774 522 791 505 Q 798 498 796 490 Q 783 415 767 407 C 754 391 754 391 758 385 Z" fill="lightgray" class="stroke step10"/>
    <path d="M 514 483 Q 517 471 518 447 Q 518 402 536 383 C 548 369 548 369 555 386 Q 555 387 556 387 Q 560 412 542 472 Q 541 482 535 488 C 516 511 507 512 514 483 Z" fill="lightgray" class="stroke step10"/>
    <path d="M 631 502 Q 640 487 630 417 Q 627 407 627 398 C 626 368 635 377 649 403 Q 653 410 658 421 Q 680 473 685 478 Q 695 488 687 496 Q 683 502 674 507 C 648 523 619 529 631 502 Z" fill="lightgray" class="stroke step10"/>
    <path d="M 456 348 Q 469 344 492 347 Q 643 372 758 385 C 788 388 795 395 767 407 Q 751 420 649 403 L 627 398 Q 590 394 555 386 L 536 383 Q 493 379 455 370 C 426 363 427 354 456 348 Z" fill="lightgray" class="hide"/>
    <path d="M 577 128 Q 511 62 377 32 Q 362 28 374 19 Q 380 15 422 17 Q 525 26 610 93 L 640 123 Q 674 165 706 226 Q 721 254 742 271 Q 764 286 751 301 Q 739 314 708 329 Q 687 338 599 309 Q 545 297 488 290 Q 473 290 468 283 Q 464 276 483 267 Q 520 251 571 265 Q 625 284 634 283 Q 655 279 648 258 Q 632 200 601 156 L 577 128 Z" fill="lightgray" class="hide"/>
    <path d="M 610 93 Q 691 8 771 -41 Q 795 -50 880 -30 Q 899 -24 919 -20 Q 932 -17 943 -11 Q 949 -4 937 4 Q 922 10 806 36 Q 743 49 640 123 L 601 156 Q 573 181 543 210 Q 524 231 492 233 Q 479 234 471 226 Q 467 219 477 212 Q 525 182 577 128 L 610 93 Z" fill="lightgray" class="hide"/></g><g transform="scale(1, -1) translate(0, -900)">
    <style type="text/css">
        .origin {display:none;}
        .hide {display:none;}
        .stroke {fill: #000000;}
        
.step1 {transform: translateX(1024px);}
.step2 {transform: translateX(2048px);}
.step3 {transform: translateX(3072px);}
.step4 {transform: translateX(4096px);}
.step5 {transform: translateX(5120px);}
.step6 {transform: translateX(6144px);}
.step7 {transform: translateX(7168px);}
.step8 {transform: translateX(8192px);}
.step9 {transform: translateX(9216px);}
.step10 {transform: translateX(10240px);}
.step11 {transform: translateX(11264px);}
.step12 {transform: translateX(12288px);}
.step13 {transform: translateX(13312px);}
.step14 {transform: translateX(14336px);}
.step15 {transform: translateX(15360px);}
.step16 {transform: translateX(16384px);}
.step17 {transform: translateX(17408px);}
.step18 {transform: translateX(18432px);}
.step19 {transform: translateX(19456px);}
.step20 {transform: translateX(20480px);}
.step21 {transform: translateX(21504px);}
.step22 {transform: translateX(22528px);}
.step23 {transform: translateX(23552px);}
.step24 {transform: translateX(24576px);}
.step25 {transform: translateX(25600px);}
.step26 {transform: translateX(26624px);}
.step27 {transform: translateX(27648px);}
.step28 {transform: translateX(28672px);}
.step29 {transform: translateX(29696px);}
    </style>

    <path d="M 125 556 Q 109 489 81 426 Q 66 393 88 363 Q 97 347 115 362 Q 163 407 157 505 Q 158 536 147 559 Q 141 566 136 567 Q 129 564 125 556 Z" fill="lightgray" class="stroke step11"/>
    <path d="M 282 601 Q 303 589 358 544 Q 371 534 384 535 Q 394 536 397 548 Q 400 561 391 587 Q 378 620 291 631 Q 287 632 284 631 C 254 629 256 616 282 601 Z" fill="lightgray" class="stroke step11"/>
    <path d="M 284 631 Q 288 692 301 738 Q 310 753 307 766 Q 300 776 246 809 Q 224 825 203 811 Q 199 807 205 791 Q 236 740 238 664 Q 238 243 220 151 Q 214 123 206 93 Q 196 56 220 -6 Q 227 -24 235 -27 Q 241 -34 248 -25 Q 275 -9 275 54 Q 274 105 282 575 Q 282 588 282 601 L 284 631 Z" fill="lightgray" class="stroke step11"/>
    <path d="M 462 781 Q 455 782 446 784 Q 436 787 432 782 Q 428 776 435 762 Q 463 704 481 606 Q 485 578 501 558 Q 517 539 522 553 Q 525 563 525 579 L 524 600 Q 523 609 521 617 Q 515 642 511 664 L 507 684 Q 497 738 496 754 C 494 776 492 776 462 781 Z" fill="lightgray" class="stroke step11"/>
    <path d="M 686 600 Q 702 578 717 570 Q 727 563 741 582 Q 751 601 776 700 Q 783 728 806 751 Q 818 761 808 775 Q 795 791 755 815 Q 742 821 668 810 Q 667 810 563 796 Q 512 787 472 784 Q 465 784 462 781 C 433 774 467 747 496 754 Q 526 764 684 779 Q 709 780 716 772 Q 726 760 725 749 Q 710 637 691 625 C 679 609 679 609 686 600 Z" fill="lightgray" class="stroke step11"/>
    <path d="M 511 664 Q 517 663 528 664 Q 598 676 652 682 Q 673 686 665 697 Q 655 710 633 714 Q 605 718 507 684 C 479 674 481 667 511 664 Z" fill="lightgray" class="stroke step11"/>
    <path d="M 525 579 Q 531 578 539 579 Q 623 592 686 600 C 716 604 718 612 691 625 Q 673 640 530 601 Q 527 601 524 600 C 494 595 495 582 525 579 Z" fill="lightgray" class="stroke step11"/>
    <path d="M 426 502 Q 416 508 386 512 Q 376 513 372 509 Q 368 505 375 490 Q 399 445 416 371 Q 420 349 433 334 Q 449 315 454 329 Q 455 336 456 348 L 455 370 Q 454 374 454 378 Q 441 444 437 470 C 432 499 432 499 426 502 Z" fill="lightgray" class="stroke step11"/>
    <path d="M 758 385 Q 774 358 789 350 Q 798 343 813 361 Q 822 371 846 430 Q 856 458 878 482 Q 891 492 881 507 Q 868 523 828 550 Q 813 559 737 544 L 426 502 C 396 498 407 466 437 470 Q 443 470 450 471 Q 478 478 514 483 L 535 488 Q 577 495 631 502 L 674 507 Q 774 522 791 505 Q 798 498 796 490 Q 783 415 767 407 C 754 391 754 391 758 385 Z" fill="lightgray" class="stroke step11"/>
    <path d="M 514 483 Q 517 471 518 447 Q 518 402 536 383 C 548 369 548 369 555 386 Q 555 387 556 387 Q 560 412 542 472 Q 541 482 535 488 C 516 511 507 512 514 483 Z" fill="lightgray" class="stroke step11"/>
    <path d="M 631 502 Q 640 487 630 417 Q 627 407 627 398 C 626 368 635 377 649 403 Q 653 410 658 421 Q 680 473 685 478 Q 695 488 687 496 Q 683 502 674 507 C 648 523 619 529 631 502 Z" fill="lightgray" class="stroke step11"/>
    <path d="M 456 348 Q 469 344 492 347 Q 643 372 758 385 C 788 388 795 395 767 407 Q 751 420 649 403 L 627 398 Q 590 394 555 386 L 536 383 Q 493 379 455 370 C 426 363 427 354 456 348 Z" fill="lightgray" class="stroke step11"/>
    <path d="M 577 128 Q 511 62 377 32 Q 362 28 374 19 Q 380 15 422 17 Q 525 26 610 93 L 640 123 Q 674 165 706 226 Q 721 254 742 271 Q 764 286 751 301 Q 739 314 708 329 Q 687 338 599 309 Q 545 297 488 290 Q 473 290 468 283 Q 464 276 483 267 Q 520 251 571 265 Q 625 284 634 283 Q 655 279 648 258 Q 632 200 601 156 L 577 128 Z" fill="lightgray" class="hide"/>
    <path d="M 610 93 Q 691 8 771 -41 Q 795 -50 880 -30 Q 899 -24 919 -20 Q 932 -17 943 -11 Q 949 -4 937 4 Q 922 10 806 36 Q 743 49 640 123 L 601 156 Q 573 181 543 210 Q 524 231 492 233 Q 479 234 471 226 Q 467 219 477 212 Q 525 182 577 128 L 610 93 Z" fill="lightgray" class="hide"/></g><g transform="scale(1, -1) translate(0, -900)">
    <style type="text/css">
        .origin {display:none;}
        .hide {display:none;}
        .stroke {fill: #000000;}
        
.step1 {transform: translateX(1024px);}
.step2 {transform: translateX(2048px);}
.step3 {transform: translateX(3072px);}
.step4 {transform: translateX(4096px);}
.step5 {transform: translateX(5120px);}
.step6 {transform: translateX(6144px);}
.step7 {transform: translateX(7168px);}
.step8 {transform: translateX(8192px);}
.step9 {transform: translateX(9216px);}
.step10 {transform: translateX(10240px);}
.step11 {transform: translateX(11264px);}
.step12 {transform: translateX(12288px);}
.step13 {transform: translateX(13312px);}
.step14 {transform: translateX(14336px);}
.step15 {transform: translateX(15360px);}
.step16 {transform: translateX(16384px);}
.step17 {transform: translateX(17408px);}
.step18 {transform: translateX(18432px);}
.step19 {transform: translateX(19456px);}
.step20 {transform: translateX(20480px);}
.step21 {transform: translateX(21504px);}
.step22 {transform: translateX(22528px);}
.step23 {transform: translateX(23552px);}
.step24 {transform: translateX(24576px);}
.step25 {transform: translateX(25600px);}
.step26 {transform: translateX(26624px);}
.step27 {transform: translateX(27648px);}
.step28 {transform: translateX(28672px);}
.step29 {transform: translateX(29696px);}
    </style>

    <path d="M 125 556 Q 109 489 81 426 Q 66 393 88 363 Q 97 347 115 362 Q 163 407 157 505 Q 158 536 147 559 Q 141 566 136 567 Q 129 564 125 556 Z" fill="lightgray" class="stroke step12"/>
    <path d="M 282 601 Q 303 589 358 544 Q 371 534 384 535 Q 394 536 397 548 Q 400 561 391 587 Q 378 620 291 631 Q 287 632 284 631 C 254 629 256 616 282 601 Z" fill="lightgray" class="stroke step12"/>
    <path d="M 284 631 Q 288 692 301 738 Q 310 753 307 766 Q 300 776 246 809 Q 224 825 203 811 Q 199 807 205 791 Q 236 740 238 664 Q 238 243 220 151 Q 214 123 206 93 Q 196 56 220 -6 Q 227 -24 235 -27 Q 241 -34 248 -25 Q 275 -9 275 54 Q 274 105 282 575 Q 282 588 282 601 L 284 631 Z" fill="lightgray" class="stroke step12"/>
    <path d="M 462 781 Q 455 782 446 784 Q 436 787 432 782 Q 428 776 435 762 Q 463 704 481 606 Q 485 578 501 558 Q 517 539 522 553 Q 525 563 525 579 L 524 600 Q 523 609 521 617 Q 515 642 511 664 L 507 684 Q 497 738 496 754 C 494 776 492 776 462 781 Z" fill="lightgray" class="stroke step12"/>
    <path d="M 686 600 Q 702 578 717 570 Q 727 563 741 582 Q 751 601 776 700 Q 783 728 806 751 Q 818 761 808 775 Q 795 791 755 815 Q 742 821 668 810 Q 667 810 563 796 Q 512 787 472 784 Q 465 784 462 781 C 433 774 467 747 496 754 Q 526 764 684 779 Q 709 780 716 772 Q 726 760 725 749 Q 710 637 691 625 C 679 609 679 609 686 600 Z" fill="lightgray" class="stroke step12"/>
    <path d="M 511 664 Q 517 663 528 664 Q 598 676 652 682 Q 673 686 665 697 Q 655 710 633 714 Q 605 718 507 684 C 479 674 481 667 511 664 Z" fill="lightgray" class="stroke step12"/>
    <path d="M 525 579 Q 531 578 539 579 Q 623 592 686 600 C 716 604 718 612 691 625 Q 673 640 530 601 Q 527 601 524 600 C 494 595 495 582 525 579 Z" fill="lightgray" class="stroke step12"/>
    <path d="M 426 502 Q 416 508 386 512 Q 376 513 372 509 Q 368 505 375 490 Q 399 445 416 371 Q 420 349 433 334 Q 449 315 454 329 Q 455 336 456 348 L 455 370 Q 454 374 454 378 Q 441 444 437 470 C 432 499 432 499 426 502 Z" fill="lightgray" class="stroke step12"/>
    <path d="M 758 385 Q 774 358 789 350 Q 798 343 813 361 Q 822 371 846 430 Q 856 458 878 482 Q 891 492 881 507 Q 868 523 828 550 Q 813 559 737 544 L 426 502 C 396 498 407 466 437 470 Q 443 470 450 471 Q 478 478 514 483 L 535 488 Q 577 495 631 502 L 674 507 Q 774 522 791 505 Q 798 498 796 490 Q 783 415 767 407 C 754 391 754 391 758 385 Z" fill="lightgray" class="stroke step12"/>
    <path d="M 514 483 Q 517 471 518 447 Q 518 402 536 383 C 548 369 548 369 555 386 Q 555 387 556 387 Q 560 412 542 472 Q 541 482 535 488 C 516 511 507 512 514 483 Z" fill="lightgray" class="stroke step12"/>
    <path d="M 631 502 Q 640 487 630 417 Q 627 407 627 398 C 626 368 635 377 649 403 Q 653 410 658 421 Q 680 473 685 478 Q 695 488 687 496 Q 683 502 674 507 C 648 523 619 529 631 502 Z" fill="lightgray" class="stroke step12"/>
    <path d="M 456 348 Q 469 344 492 347 Q 643 372 758 385 C 788 388 795 395 767 407 Q 751 420 649 403 L 627 398 Q 590 394 555 386 L 536 383 Q 493 379 455 370 C 426 363 427 354 456 348 Z" fill="lightgray" class="stroke step12"/>
    <path d="M 577 128 Q 511 62 377 32 Q 362 28 374 19 Q 380 15 422 17 Q 525 26 610 93 L 640 123 Q 674 165 706 226 Q 721 254 742 271 Q 764 286 751 301 Q 739 314 708 329 Q 687 338 599 309 Q 545 297 488 290 Q 473 290 468 283 Q 464 276 483 267 Q 520 251 571 265 Q 625 284 634 283 Q 655 279 648 258 Q 632 200 601 156 L 577 128 Z" fill="lightgray" class="stroke step12"/>
    <path d="M 610 93 Q 691 8 771 -41 Q 795 -50 880 -30 Q 899 -24 919 -20 Q 932 -17 943 -11 Q 949 -4 937 4 Q 922 10 806 36 Q 743 49 640 123 L 601 156 Q 573 181 543 210 Q 524 231 492 233 Q 479 234 471 226 Q 467 219 477 212 Q 525 182 577 128 L 610 93 Z" fill="lightgray" class="hide"/></g><g transform="scale(1, -1) translate(0, -900)">
    <style type="text/css">
        .origin {display:none;}
        .hide {display:none;}
        .stroke {fill: #000000;}
        
.step1 {transform: translateX(1024px);}
.step2 {transform: translateX(2048px);}
.step3 {transform: translateX(3072px);}
.step4 {transform: translateX(4096px);}
.step5 {transform: translateX(5120px);}
.step6 {transform: translateX(6144px);}
.step7 {transform: translateX(7168px);}
.step8 {transform: translateX(8192px);}
.step9 {transform: translateX(9216px);}
.step10 {transform: translateX(10240px);}
.step11 {transform: translateX(11264px);}
.step12 {transform: translateX(12288px);}
.step13 {transform: translateX(13312px);}
.step14 {transform: translateX(14336px);}
.step15 {transform: translateX(15360px);}
.step16 {transform: translateX(16384px);}
.step17 {transform: translateX(17408px);}
.step18 {transform: translateX(18432px);}
.step19 {transform: translateX(19456px);}
.step20 {transform: translateX(20480px);}
.step21 {transform: translateX(21504px);}
.step22 {transform: translateX(22528px);}
.step23 {transform: translateX(23552px);}
.step24 {transform: translateX(24576px);}
.step25 {transform: translateX(25600px);}
.step26 {transform: translateX(26624px);}
.step27 {transform: translateX(27648px);}
.step28 {transform: translateX(28672px);}
.step29 {transform: translateX(29696px);}
    </style>

    <path d="M 125 556 Q 109 489 81 426 Q 66 393 88 363 Q 97 347 115 362 Q 163 407 157 505 Q 158 536 147 559 Q 141 566 136 567 Q 129 564 125 556 Z" fill="lightgray" class="stroke step13"/>
    <path d="M 282 601 Q 303 589 358 544 Q 371 534 384 535 Q 394 536 397 548 Q 400 561 391 587 Q 378 620 291 631 Q 287 632 284 631 C 254 629 256 616 282 601 Z" fill="lightgray" class="stroke step13"/>
    <path d="M 284 631 Q 288 692 301 738 Q 310 753 307 766 Q 300 776 246 809 Q 224 825 203 811 Q 199 807 205 791 Q 236 740 238 664 Q 238 243 220 151 Q 214 123 206 93 Q 196 56 220 -6 Q 227 -24 235 -27 Q 241 -34 248 -25 Q 275 -9 275 54 Q 274 105 282 575 Q 282 588 282 601 L 284 631 Z" fill="lightgray" class="stroke step13"/>
    <path d="M 462 781 Q 455 782 446 784 Q 436 787 432 782 Q 428 776 435 762 Q 463 704 481 606 Q 485 578 501 558 Q 517 539 522 553 Q 525 563 525 579 L 524 600 Q 523 609 521 617 Q 515 642 511 664 L 507 684 Q 497 738 496 754 C 494 776 492 776 462 781 Z" fill="lightgray" class="stroke step13"/>
    <path d="M 686 600 Q 702 578 717 570 Q 727 563 741 582 Q 751 601 776 700 Q 783 728 806 751 Q 818 761 808 775 Q 795 791 755 815 Q 742 821 668 810 Q 667 810 563 796 Q 512 787 472 784 Q 465 784 462 781 C 433 774 467 747 496 754 Q 526 764 684 779 Q 709 780 716 772 Q 726 760 725 749 Q 710 637 691 625 C 679 609 679 609 686 600 Z" fill="lightgray" class="stroke step13"/>
    <path d="M 511 664 Q 517 663 528 664 Q 598 676 652 682 Q 673 686 665 697 Q 655 710 633 714 Q 605 718 507 684 C 479 674 481 667 511 664 Z" fill="lightgray" class="stroke step13"/>
    <path d="M 525 579 Q 531 578 539 579 Q 623 592 686 600 C 716 604 718 612 691 625 Q 673 640 530 601 Q 527 601 524 600 C 494 595 495 582 525 579 Z" fill="lightgray" class="stroke step13"/>
    <path d="M 426 502 Q 416 508 386 512 Q 376 513 372 509 Q 368 505 375 490 Q 399 445 416 371 Q 420 349 433 334 Q 449 315 454 329 Q 455 336 456 348 L 455 370 Q 454 374 454 378 Q 441 444 437 470 C 432 499 432 499 426 502 Z" fill="lightgray" class="stroke step13"/>
    <path d="M 758 385 Q 774 358 789 350 Q 798 343 813 361 Q 822 371 846 430 Q 856 458 878 482 Q 891 492 881 507 Q 868 523 828 550 Q 813 559 737 544 L 426 502 C 396 498 407 466 437 470 Q 443 470 450 471 Q 478 478 514 483 L 535 488 Q 577 495 631 502 L 674 507 Q 774 522 791 505 Q 798 498 796 490 Q 783 415 767 407 C 754 391 754 391 758 385 Z" fill="lightgray" class="stroke step13"/>
    <path d="M 514 483 Q 517 471 518 447 Q 518 402 536 383 C 548 369 548 369 555 386 Q 555 387 556 387 Q 560 412 542 472 Q 541 482 535 488 C 516 511 507 512 514 483 Z" fill="lightgray" class="stroke step13"/>
    <path d="M 631 502 Q 640 487 630 417 Q 627 407 627 398 C 626 368 635 377 649 403 Q 653 410 658 421 Q 680 473 685 478 Q 695 488 687 496 Q 683 502 674 507 C 648 523 619 529 631 502 Z" fill="lightgray" class="stroke step13"/>
    <path d="M 456 348 Q 469 344 492 347 Q 643 372 758 385 C 788 388 795 395 767 407 Q 751 420 649 403 L 627 398 Q 590 394 555 386 L 536 383 Q 493 379 455 370 C 426 363 427 354 456 348 Z" fill="lightgray" class="stroke step13"/>
    <path d="M 577 128 Q 511 62 377 32 Q 362 28 374 19 Q 380 15 422 17 Q 525 26 610 93 L 640 123 Q 674 165 706 226 Q 721 254 742 271 Q 764 286 751 301 Q 739 314 708 329 Q 687 338 599 309 Q 545 297 488 290 Q 473 290 468 283 Q 464 276 483 267 Q 520 251 571 265 Q 625 284 634 283 Q 655 279 648 258 Q 632 200 601 156 L 577 128 Z" fill="lightgray" class="stroke step13"/>
    <path d="M 610 93 Q 691 8 771 -41 Q 795 -50 880 -30 Q 899 -24 919 -20 Q 932 -17 943 -11 Q 949 -4 937 4 Q 922 10 806 36 Q 743 49 640 123 L 601 156 Q 573 181 543 210 Q 524 231 492 233 Q 479 234 471 226 Q 467 219 477 212 Q 525 182 577 128 L 610 93 Z" fill="lightgray" class="stroke step13"/></g></svg>