<svg version="1.1" viewBox="0 0 4096 1024" xmlns="http://www.w3.org/2000/svg">
  
  <g transform="scale(1, -1) translate(0, -900)" class="origin">
    <style type="text/css">
        .origin {display:none;}
        .hide {display:none;}
        .stroke {fill: #000000;}
        
.step1 {transform: translateX(1024px);}
.step2 {transform: translateX(2048px);}
.step3 {transform: translateX(3072px);}
.step4 {transform: translateX(4096px);}
.step5 {transform: translateX(5120px);}
.step6 {transform: translateX(6144px);}
.step7 {transform: translateX(7168px);}
.step8 {transform: translateX(8192px);}
.step9 {transform: translateX(9216px);}
.step10 {transform: translateX(10240px);}
.step11 {transform: translateX(11264px);}
.step12 {transform: translateX(12288px);}
.step13 {transform: translateX(13312px);}
.step14 {transform: translateX(14336px);}
.step15 {transform: translateX(15360px);}
.step16 {transform: translateX(16384px);}
.step17 {transform: translateX(17408px);}
.step18 {transform: translateX(18432px);}
.step19 {transform: translateX(19456px);}
.step20 {transform: translateX(20480px);}
.step21 {transform: translateX(21504px);}
.step22 {transform: translateX(22528px);}
.step23 {transform: translateX(23552px);}
.step24 {transform: translateX(24576px);}
.step25 {transform: translateX(25600px);}
.step26 {transform: translateX(26624px);}
.step27 {transform: translateX(27648px);}
.step28 {transform: translateX(28672px);}
.step29 {transform: translateX(29696px);}
    </style>

    <path d="M 398 698 Q 350 542 220 346 Q 210 333 209 327 Q 206 314 221 319 Q 248 325 317 421 L 332 443 Q 336 450 343 459 Q 365 490 388 530 L 403 556 Q 472 691 486 705 Q 495 718 488 732 Q 482 745 449 766 Q 418 784 399 781 Q 378 777 390 754 Q 406 726 398 698 Z" fill="lightgray"/>
    <path d="M 591 537 Q 645 552 703 564 Q 749 576 756 582 Q 766 592 760 602 Q 751 615 717 623 Q 681 630 582 593 Q 477 566 403 556 C 373 552 360 541 388 530 Q 437 508 518 522 Q 524 523 532 524 L 591 537 Z" fill="lightgray"/>
    <path d="M 466 229 Q 399 142 279 97 Q 246 87 206 75 Q 191 72 187 69 Q 181 65 197 59 Q 251 44 378 89 Q 453 119 498 184 L 528 234 Q 529 238 532 241 Q 566 313 596 428 Q 603 456 621 489 Q 628 499 621 510 Q 611 523 591 537 C 567 555 523 553 532 524 Q 562 455 491 274 L 466 229 Z" fill="lightgray"/>
    <path d="M 317 421 Q 369 379 466 229 L 498 184 Q 541 126 597 62 Q 615 40 646 35 Q 743 22 822 24 Q 864 25 862 36 Q 859 42 672 123 Q 599 163 528 234 L 491 274 Q 442 329 394 394 Q 366 434 332 443 C 304 454 295 441 317 421 Z" fill="lightgray"/></g>
<g transform="scale(1, -1) translate(0, -900)">
    <style type="text/css">
        .origin {display:none;}
        .hide {display:none;}
        .stroke {fill: #000000;}
        
.step1 {transform: translateX(1024px);}
.step2 {transform: translateX(2048px);}
.step3 {transform: translateX(3072px);}
.step4 {transform: translateX(4096px);}
.step5 {transform: translateX(5120px);}
.step6 {transform: translateX(6144px);}
.step7 {transform: translateX(7168px);}
.step8 {transform: translateX(8192px);}
.step9 {transform: translateX(9216px);}
.step10 {transform: translateX(10240px);}
.step11 {transform: translateX(11264px);}
.step12 {transform: translateX(12288px);}
.step13 {transform: translateX(13312px);}
.step14 {transform: translateX(14336px);}
.step15 {transform: translateX(15360px);}
.step16 {transform: translateX(16384px);}
.step17 {transform: translateX(17408px);}
.step18 {transform: translateX(18432px);}
.step19 {transform: translateX(19456px);}
.step20 {transform: translateX(20480px);}
.step21 {transform: translateX(21504px);}
.step22 {transform: translateX(22528px);}
.step23 {transform: translateX(23552px);}
.step24 {transform: translateX(24576px);}
.step25 {transform: translateX(25600px);}
.step26 {transform: translateX(26624px);}
.step27 {transform: translateX(27648px);}
.step28 {transform: translateX(28672px);}
.step29 {transform: translateX(29696px);}
    </style>

    <path d="M 398 698 Q 350 542 220 346 Q 210 333 209 327 Q 206 314 221 319 Q 248 325 317 421 L 332 443 Q 336 450 343 459 Q 365 490 388 530 L 403 556 Q 472 691 486 705 Q 495 718 488 732 Q 482 745 449 766 Q 418 784 399 781 Q 378 777 390 754 Q 406 726 398 698 Z" fill="lightgray" class="stroke step0"/>
    <path d="M 591 537 Q 645 552 703 564 Q 749 576 756 582 Q 766 592 760 602 Q 751 615 717 623 Q 681 630 582 593 Q 477 566 403 556 C 373 552 360 541 388 530 Q 437 508 518 522 Q 524 523 532 524 L 591 537 Z" fill="lightgray" class="hide"/>
    <path d="M 466 229 Q 399 142 279 97 Q 246 87 206 75 Q 191 72 187 69 Q 181 65 197 59 Q 251 44 378 89 Q 453 119 498 184 L 528 234 Q 529 238 532 241 Q 566 313 596 428 Q 603 456 621 489 Q 628 499 621 510 Q 611 523 591 537 C 567 555 523 553 532 524 Q 562 455 491 274 L 466 229 Z" fill="lightgray" class="hide"/>
    <path d="M 317 421 Q 369 379 466 229 L 498 184 Q 541 126 597 62 Q 615 40 646 35 Q 743 22 822 24 Q 864 25 862 36 Q 859 42 672 123 Q 599 163 528 234 L 491 274 Q 442 329 394 394 Q 366 434 332 443 C 304 454 295 441 317 421 Z" fill="lightgray" class="hide"/></g><g transform="scale(1, -1) translate(0, -900)">
    <style type="text/css">
        .origin {display:none;}
        .hide {display:none;}
        .stroke {fill: #000000;}
        
.step1 {transform: translateX(1024px);}
.step2 {transform: translateX(2048px);}
.step3 {transform: translateX(3072px);}
.step4 {transform: translateX(4096px);}
.step5 {transform: translateX(5120px);}
.step6 {transform: translateX(6144px);}
.step7 {transform: translateX(7168px);}
.step8 {transform: translateX(8192px);}
.step9 {transform: translateX(9216px);}
.step10 {transform: translateX(10240px);}
.step11 {transform: translateX(11264px);}
.step12 {transform: translateX(12288px);}
.step13 {transform: translateX(13312px);}
.step14 {transform: translateX(14336px);}
.step15 {transform: translateX(15360px);}
.step16 {transform: translateX(16384px);}
.step17 {transform: translateX(17408px);}
.step18 {transform: translateX(18432px);}
.step19 {transform: translateX(19456px);}
.step20 {transform: translateX(20480px);}
.step21 {transform: translateX(21504px);}
.step22 {transform: translateX(22528px);}
.step23 {transform: translateX(23552px);}
.step24 {transform: translateX(24576px);}
.step25 {transform: translateX(25600px);}
.step26 {transform: translateX(26624px);}
.step27 {transform: translateX(27648px);}
.step28 {transform: translateX(28672px);}
.step29 {transform: translateX(29696px);}
    </style>

    <path d="M 398 698 Q 350 542 220 346 Q 210 333 209 327 Q 206 314 221 319 Q 248 325 317 421 L 332 443 Q 336 450 343 459 Q 365 490 388 530 L 403 556 Q 472 691 486 705 Q 495 718 488 732 Q 482 745 449 766 Q 418 784 399 781 Q 378 777 390 754 Q 406 726 398 698 Z" fill="lightgray" class="stroke step1"/>
    <path d="M 591 537 Q 645 552 703 564 Q 749 576 756 582 Q 766 592 760 602 Q 751 615 717 623 Q 681 630 582 593 Q 477 566 403 556 C 373 552 360 541 388 530 Q 437 508 518 522 Q 524 523 532 524 L 591 537 Z" fill="lightgray" class="stroke step1"/>
    <path d="M 466 229 Q 399 142 279 97 Q 246 87 206 75 Q 191 72 187 69 Q 181 65 197 59 Q 251 44 378 89 Q 453 119 498 184 L 528 234 Q 529 238 532 241 Q 566 313 596 428 Q 603 456 621 489 Q 628 499 621 510 Q 611 523 591 537 C 567 555 523 553 532 524 Q 562 455 491 274 L 466 229 Z" fill="lightgray" class="hide"/>
    <path d="M 317 421 Q 369 379 466 229 L 498 184 Q 541 126 597 62 Q 615 40 646 35 Q 743 22 822 24 Q 864 25 862 36 Q 859 42 672 123 Q 599 163 528 234 L 491 274 Q 442 329 394 394 Q 366 434 332 443 C 304 454 295 441 317 421 Z" fill="lightgray" class="hide"/></g><g transform="scale(1, -1) translate(0, -900)">
    <style type="text/css">
        .origin {display:none;}
        .hide {display:none;}
        .stroke {fill: #000000;}
        
.step1 {transform: translateX(1024px);}
.step2 {transform: translateX(2048px);}
.step3 {transform: translateX(3072px);}
.step4 {transform: translateX(4096px);}
.step5 {transform: translateX(5120px);}
.step6 {transform: translateX(6144px);}
.step7 {transform: translateX(7168px);}
.step8 {transform: translateX(8192px);}
.step9 {transform: translateX(9216px);}
.step10 {transform: translateX(10240px);}
.step11 {transform: translateX(11264px);}
.step12 {transform: translateX(12288px);}
.step13 {transform: translateX(13312px);}
.step14 {transform: translateX(14336px);}
.step15 {transform: translateX(15360px);}
.step16 {transform: translateX(16384px);}
.step17 {transform: translateX(17408px);}
.step18 {transform: translateX(18432px);}
.step19 {transform: translateX(19456px);}
.step20 {transform: translateX(20480px);}
.step21 {transform: translateX(21504px);}
.step22 {transform: translateX(22528px);}
.step23 {transform: translateX(23552px);}
.step24 {transform: translateX(24576px);}
.step25 {transform: translateX(25600px);}
.step26 {transform: translateX(26624px);}
.step27 {transform: translateX(27648px);}
.step28 {transform: translateX(28672px);}
.step29 {transform: translateX(29696px);}
    </style>

    <path d="M 398 698 Q 350 542 220 346 Q 210 333 209 327 Q 206 314 221 319 Q 248 325 317 421 L 332 443 Q 336 450 343 459 Q 365 490 388 530 L 403 556 Q 472 691 486 705 Q 495 718 488 732 Q 482 745 449 766 Q 418 784 399 781 Q 378 777 390 754 Q 406 726 398 698 Z" fill="lightgray" class="stroke step2"/>
    <path d="M 591 537 Q 645 552 703 564 Q 749 576 756 582 Q 766 592 760 602 Q 751 615 717 623 Q 681 630 582 593 Q 477 566 403 556 C 373 552 360 541 388 530 Q 437 508 518 522 Q 524 523 532 524 L 591 537 Z" fill="lightgray" class="stroke step2"/>
    <path d="M 466 229 Q 399 142 279 97 Q 246 87 206 75 Q 191 72 187 69 Q 181 65 197 59 Q 251 44 378 89 Q 453 119 498 184 L 528 234 Q 529 238 532 241 Q 566 313 596 428 Q 603 456 621 489 Q 628 499 621 510 Q 611 523 591 537 C 567 555 523 553 532 524 Q 562 455 491 274 L 466 229 Z" fill="lightgray" class="stroke step2"/>
    <path d="M 317 421 Q 369 379 466 229 L 498 184 Q 541 126 597 62 Q 615 40 646 35 Q 743 22 822 24 Q 864 25 862 36 Q 859 42 672 123 Q 599 163 528 234 L 491 274 Q 442 329 394 394 Q 366 434 332 443 C 304 454 295 441 317 421 Z" fill="lightgray" class="hide"/></g><g transform="scale(1, -1) translate(0, -900)">
    <style type="text/css">
        .origin {display:none;}
        .hide {display:none;}
        .stroke {fill: #000000;}
        
.step1 {transform: translateX(1024px);}
.step2 {transform: translateX(2048px);}
.step3 {transform: translateX(3072px);}
.step4 {transform: translateX(4096px);}
.step5 {transform: translateX(5120px);}
.step6 {transform: translateX(6144px);}
.step7 {transform: translateX(7168px);}
.step8 {transform: translateX(8192px);}
.step9 {transform: translateX(9216px);}
.step10 {transform: translateX(10240px);}
.step11 {transform: translateX(11264px);}
.step12 {transform: translateX(12288px);}
.step13 {transform: translateX(13312px);}
.step14 {transform: translateX(14336px);}
.step15 {transform: translateX(15360px);}
.step16 {transform: translateX(16384px);}
.step17 {transform: translateX(17408px);}
.step18 {transform: translateX(18432px);}
.step19 {transform: translateX(19456px);}
.step20 {transform: translateX(20480px);}
.step21 {transform: translateX(21504px);}
.step22 {transform: translateX(22528px);}
.step23 {transform: translateX(23552px);}
.step24 {transform: translateX(24576px);}
.step25 {transform: translateX(25600px);}
.step26 {transform: translateX(26624px);}
.step27 {transform: translateX(27648px);}
.step28 {transform: translateX(28672px);}
.step29 {transform: translateX(29696px);}
    </style>

    <path d="M 398 698 Q 350 542 220 346 Q 210 333 209 327 Q 206 314 221 319 Q 248 325 317 421 L 332 443 Q 336 450 343 459 Q 365 490 388 530 L 403 556 Q 472 691 486 705 Q 495 718 488 732 Q 482 745 449 766 Q 418 784 399 781 Q 378 777 390 754 Q 406 726 398 698 Z" fill="lightgray" class="stroke step3"/>
    <path d="M 591 537 Q 645 552 703 564 Q 749 576 756 582 Q 766 592 760 602 Q 751 615 717 623 Q 681 630 582 593 Q 477 566 403 556 C 373 552 360 541 388 530 Q 437 508 518 522 Q 524 523 532 524 L 591 537 Z" fill="lightgray" class="stroke step3"/>
    <path d="M 466 229 Q 399 142 279 97 Q 246 87 206 75 Q 191 72 187 69 Q 181 65 197 59 Q 251 44 378 89 Q 453 119 498 184 L 528 234 Q 529 238 532 241 Q 566 313 596 428 Q 603 456 621 489 Q 628 499 621 510 Q 611 523 591 537 C 567 555 523 553 532 524 Q 562 455 491 274 L 466 229 Z" fill="lightgray" class="stroke step3"/>
    <path d="M 317 421 Q 369 379 466 229 L 498 184 Q 541 126 597 62 Q 615 40 646 35 Q 743 22 822 24 Q 864 25 862 36 Q 859 42 672 123 Q 599 163 528 234 L 491 274 Q 442 329 394 394 Q 366 434 332 443 C 304 454 295 441 317 421 Z" fill="lightgray" class="stroke step3"/></g></svg>