<svg version="1.1" viewBox="0 0 4096 1024" xmlns="http://www.w3.org/2000/svg">
  
  <g transform="scale(1, -1) translate(0, -900)" class="origin">
    <style type="text/css">
        .origin {display:none;}
        .hide {display:none;}
        .stroke {fill: #000000;}
        
.step1 {transform: translateX(1024px);}
.step2 {transform: translateX(2048px);}
.step3 {transform: translateX(3072px);}
.step4 {transform: translateX(4096px);}
.step5 {transform: translateX(5120px);}
.step6 {transform: translateX(6144px);}
.step7 {transform: translateX(7168px);}
.step8 {transform: translateX(8192px);}
.step9 {transform: translateX(9216px);}
.step10 {transform: translateX(10240px);}
.step11 {transform: translateX(11264px);}
.step12 {transform: translateX(12288px);}
.step13 {transform: translateX(13312px);}
.step14 {transform: translateX(14336px);}
.step15 {transform: translateX(15360px);}
.step16 {transform: translateX(16384px);}
.step17 {transform: translateX(17408px);}
.step18 {transform: translateX(18432px);}
.step19 {transform: translateX(19456px);}
.step20 {transform: translateX(20480px);}
.step21 {transform: translateX(21504px);}
.step22 {transform: translateX(22528px);}
.step23 {transform: translateX(23552px);}
.step24 {transform: translateX(24576px);}
.step25 {transform: translateX(25600px);}
.step26 {transform: translateX(26624px);}
.step27 {transform: translateX(27648px);}
.step28 {transform: translateX(28672px);}
.step29 {transform: translateX(29696px);}
    </style>

    <path d="M 372 669 Q 510 709 546 727 Q 601 749 648 759 Q 669 760 673 770 Q 677 783 663 796 Q 638 815 583 836 Q 564 845 549 843 Q 539 839 539 825 Q 539 786 360 693 C 333 679 343 661 372 669 Z" fill="lightgray"/>
    <path d="M 360 514 Q 364 614 371 662 Q 372 666 372 669 C 374 686 374 686 360 693 Q 297 724 281 720 Q 259 716 277 691 Q 317 621 290 389 Q 280 326 250 253 Q 217 169 124 84 Q 108 69 104 62 Q 103 53 116 54 Q 167 57 239 140 Q 321 230 349 412 Q 352 445 357 481 L 360 514 Z" fill="lightgray"/>
    <path d="M 618 519 Q 630 522 868 541 Q 889 542 894 551 Q 898 564 881 577 Q 823 613 786 603 Q 668 573 360 514 C 331 508 328 489 357 481 Q 387 469 425 478 Q 486 497 556 508 L 618 519 Z" fill="lightgray"/>
    <path d="M 588 -35 Q 594 -63 601 -73 Q 607 -80 615 -78 Q 631 -69 638 -4 Q 645 63 644 129 Q 637 378 656 474 Q 659 493 644 503 Q 629 513 618 519 C 592 534 542 534 556 508 Q 557 507 559 505 Q 578 465 581 439 Q 585 316 583 125 Q 583 5 588 -35 Z" fill="lightgray"/></g>
<g transform="scale(1, -1) translate(0, -900)">
    <style type="text/css">
        .origin {display:none;}
        .hide {display:none;}
        .stroke {fill: #000000;}
        
.step1 {transform: translateX(1024px);}
.step2 {transform: translateX(2048px);}
.step3 {transform: translateX(3072px);}
.step4 {transform: translateX(4096px);}
.step5 {transform: translateX(5120px);}
.step6 {transform: translateX(6144px);}
.step7 {transform: translateX(7168px);}
.step8 {transform: translateX(8192px);}
.step9 {transform: translateX(9216px);}
.step10 {transform: translateX(10240px);}
.step11 {transform: translateX(11264px);}
.step12 {transform: translateX(12288px);}
.step13 {transform: translateX(13312px);}
.step14 {transform: translateX(14336px);}
.step15 {transform: translateX(15360px);}
.step16 {transform: translateX(16384px);}
.step17 {transform: translateX(17408px);}
.step18 {transform: translateX(18432px);}
.step19 {transform: translateX(19456px);}
.step20 {transform: translateX(20480px);}
.step21 {transform: translateX(21504px);}
.step22 {transform: translateX(22528px);}
.step23 {transform: translateX(23552px);}
.step24 {transform: translateX(24576px);}
.step25 {transform: translateX(25600px);}
.step26 {transform: translateX(26624px);}
.step27 {transform: translateX(27648px);}
.step28 {transform: translateX(28672px);}
.step29 {transform: translateX(29696px);}
    </style>

    <path d="M 372 669 Q 510 709 546 727 Q 601 749 648 759 Q 669 760 673 770 Q 677 783 663 796 Q 638 815 583 836 Q 564 845 549 843 Q 539 839 539 825 Q 539 786 360 693 C 333 679 343 661 372 669 Z" fill="lightgray" class="stroke step0"/>
    <path d="M 360 514 Q 364 614 371 662 Q 372 666 372 669 C 374 686 374 686 360 693 Q 297 724 281 720 Q 259 716 277 691 Q 317 621 290 389 Q 280 326 250 253 Q 217 169 124 84 Q 108 69 104 62 Q 103 53 116 54 Q 167 57 239 140 Q 321 230 349 412 Q 352 445 357 481 L 360 514 Z" fill="lightgray" class="hide"/>
    <path d="M 618 519 Q 630 522 868 541 Q 889 542 894 551 Q 898 564 881 577 Q 823 613 786 603 Q 668 573 360 514 C 331 508 328 489 357 481 Q 387 469 425 478 Q 486 497 556 508 L 618 519 Z" fill="lightgray" class="hide"/>
    <path d="M 588 -35 Q 594 -63 601 -73 Q 607 -80 615 -78 Q 631 -69 638 -4 Q 645 63 644 129 Q 637 378 656 474 Q 659 493 644 503 Q 629 513 618 519 C 592 534 542 534 556 508 Q 557 507 559 505 Q 578 465 581 439 Q 585 316 583 125 Q 583 5 588 -35 Z" fill="lightgray" class="hide"/></g><g transform="scale(1, -1) translate(0, -900)">
    <style type="text/css">
        .origin {display:none;}
        .hide {display:none;}
        .stroke {fill: #000000;}
        
.step1 {transform: translateX(1024px);}
.step2 {transform: translateX(2048px);}
.step3 {transform: translateX(3072px);}
.step4 {transform: translateX(4096px);}
.step5 {transform: translateX(5120px);}
.step6 {transform: translateX(6144px);}
.step7 {transform: translateX(7168px);}
.step8 {transform: translateX(8192px);}
.step9 {transform: translateX(9216px);}
.step10 {transform: translateX(10240px);}
.step11 {transform: translateX(11264px);}
.step12 {transform: translateX(12288px);}
.step13 {transform: translateX(13312px);}
.step14 {transform: translateX(14336px);}
.step15 {transform: translateX(15360px);}
.step16 {transform: translateX(16384px);}
.step17 {transform: translateX(17408px);}
.step18 {transform: translateX(18432px);}
.step19 {transform: translateX(19456px);}
.step20 {transform: translateX(20480px);}
.step21 {transform: translateX(21504px);}
.step22 {transform: translateX(22528px);}
.step23 {transform: translateX(23552px);}
.step24 {transform: translateX(24576px);}
.step25 {transform: translateX(25600px);}
.step26 {transform: translateX(26624px);}
.step27 {transform: translateX(27648px);}
.step28 {transform: translateX(28672px);}
.step29 {transform: translateX(29696px);}
    </style>

    <path d="M 372 669 Q 510 709 546 727 Q 601 749 648 759 Q 669 760 673 770 Q 677 783 663 796 Q 638 815 583 836 Q 564 845 549 843 Q 539 839 539 825 Q 539 786 360 693 C 333 679 343 661 372 669 Z" fill="lightgray" class="stroke step1"/>
    <path d="M 360 514 Q 364 614 371 662 Q 372 666 372 669 C 374 686 374 686 360 693 Q 297 724 281 720 Q 259 716 277 691 Q 317 621 290 389 Q 280 326 250 253 Q 217 169 124 84 Q 108 69 104 62 Q 103 53 116 54 Q 167 57 239 140 Q 321 230 349 412 Q 352 445 357 481 L 360 514 Z" fill="lightgray" class="stroke step1"/>
    <path d="M 618 519 Q 630 522 868 541 Q 889 542 894 551 Q 898 564 881 577 Q 823 613 786 603 Q 668 573 360 514 C 331 508 328 489 357 481 Q 387 469 425 478 Q 486 497 556 508 L 618 519 Z" fill="lightgray" class="hide"/>
    <path d="M 588 -35 Q 594 -63 601 -73 Q 607 -80 615 -78 Q 631 -69 638 -4 Q 645 63 644 129 Q 637 378 656 474 Q 659 493 644 503 Q 629 513 618 519 C 592 534 542 534 556 508 Q 557 507 559 505 Q 578 465 581 439 Q 585 316 583 125 Q 583 5 588 -35 Z" fill="lightgray" class="hide"/></g><g transform="scale(1, -1) translate(0, -900)">
    <style type="text/css">
        .origin {display:none;}
        .hide {display:none;}
        .stroke {fill: #000000;}
        
.step1 {transform: translateX(1024px);}
.step2 {transform: translateX(2048px);}
.step3 {transform: translateX(3072px);}
.step4 {transform: translateX(4096px);}
.step5 {transform: translateX(5120px);}
.step6 {transform: translateX(6144px);}
.step7 {transform: translateX(7168px);}
.step8 {transform: translateX(8192px);}
.step9 {transform: translateX(9216px);}
.step10 {transform: translateX(10240px);}
.step11 {transform: translateX(11264px);}
.step12 {transform: translateX(12288px);}
.step13 {transform: translateX(13312px);}
.step14 {transform: translateX(14336px);}
.step15 {transform: translateX(15360px);}
.step16 {transform: translateX(16384px);}
.step17 {transform: translateX(17408px);}
.step18 {transform: translateX(18432px);}
.step19 {transform: translateX(19456px);}
.step20 {transform: translateX(20480px);}
.step21 {transform: translateX(21504px);}
.step22 {transform: translateX(22528px);}
.step23 {transform: translateX(23552px);}
.step24 {transform: translateX(24576px);}
.step25 {transform: translateX(25600px);}
.step26 {transform: translateX(26624px);}
.step27 {transform: translateX(27648px);}
.step28 {transform: translateX(28672px);}
.step29 {transform: translateX(29696px);}
    </style>

    <path d="M 372 669 Q 510 709 546 727 Q 601 749 648 759 Q 669 760 673 770 Q 677 783 663 796 Q 638 815 583 836 Q 564 845 549 843 Q 539 839 539 825 Q 539 786 360 693 C 333 679 343 661 372 669 Z" fill="lightgray" class="stroke step2"/>
    <path d="M 360 514 Q 364 614 371 662 Q 372 666 372 669 C 374 686 374 686 360 693 Q 297 724 281 720 Q 259 716 277 691 Q 317 621 290 389 Q 280 326 250 253 Q 217 169 124 84 Q 108 69 104 62 Q 103 53 116 54 Q 167 57 239 140 Q 321 230 349 412 Q 352 445 357 481 L 360 514 Z" fill="lightgray" class="stroke step2"/>
    <path d="M 618 519 Q 630 522 868 541 Q 889 542 894 551 Q 898 564 881 577 Q 823 613 786 603 Q 668 573 360 514 C 331 508 328 489 357 481 Q 387 469 425 478 Q 486 497 556 508 L 618 519 Z" fill="lightgray" class="stroke step2"/>
    <path d="M 588 -35 Q 594 -63 601 -73 Q 607 -80 615 -78 Q 631 -69 638 -4 Q 645 63 644 129 Q 637 378 656 474 Q 659 493 644 503 Q 629 513 618 519 C 592 534 542 534 556 508 Q 557 507 559 505 Q 578 465 581 439 Q 585 316 583 125 Q 583 5 588 -35 Z" fill="lightgray" class="hide"/></g><g transform="scale(1, -1) translate(0, -900)">
    <style type="text/css">
        .origin {display:none;}
        .hide {display:none;}
        .stroke {fill: #000000;}
        
.step1 {transform: translateX(1024px);}
.step2 {transform: translateX(2048px);}
.step3 {transform: translateX(3072px);}
.step4 {transform: translateX(4096px);}
.step5 {transform: translateX(5120px);}
.step6 {transform: translateX(6144px);}
.step7 {transform: translateX(7168px);}
.step8 {transform: translateX(8192px);}
.step9 {transform: translateX(9216px);}
.step10 {transform: translateX(10240px);}
.step11 {transform: translateX(11264px);}
.step12 {transform: translateX(12288px);}
.step13 {transform: translateX(13312px);}
.step14 {transform: translateX(14336px);}
.step15 {transform: translateX(15360px);}
.step16 {transform: translateX(16384px);}
.step17 {transform: translateX(17408px);}
.step18 {transform: translateX(18432px);}
.step19 {transform: translateX(19456px);}
.step20 {transform: translateX(20480px);}
.step21 {transform: translateX(21504px);}
.step22 {transform: translateX(22528px);}
.step23 {transform: translateX(23552px);}
.step24 {transform: translateX(24576px);}
.step25 {transform: translateX(25600px);}
.step26 {transform: translateX(26624px);}
.step27 {transform: translateX(27648px);}
.step28 {transform: translateX(28672px);}
.step29 {transform: translateX(29696px);}
    </style>

    <path d="M 372 669 Q 510 709 546 727 Q 601 749 648 759 Q 669 760 673 770 Q 677 783 663 796 Q 638 815 583 836 Q 564 845 549 843 Q 539 839 539 825 Q 539 786 360 693 C 333 679 343 661 372 669 Z" fill="lightgray" class="stroke step3"/>
    <path d="M 360 514 Q 364 614 371 662 Q 372 666 372 669 C 374 686 374 686 360 693 Q 297 724 281 720 Q 259 716 277 691 Q 317 621 290 389 Q 280 326 250 253 Q 217 169 124 84 Q 108 69 104 62 Q 103 53 116 54 Q 167 57 239 140 Q 321 230 349 412 Q 352 445 357 481 L 360 514 Z" fill="lightgray" class="stroke step3"/>
    <path d="M 618 519 Q 630 522 868 541 Q 889 542 894 551 Q 898 564 881 577 Q 823 613 786 603 Q 668 573 360 514 C 331 508 328 489 357 481 Q 387 469 425 478 Q 486 497 556 508 L 618 519 Z" fill="lightgray" class="stroke step3"/>
    <path d="M 588 -35 Q 594 -63 601 -73 Q 607 -80 615 -78 Q 631 -69 638 -4 Q 645 63 644 129 Q 637 378 656 474 Q 659 493 644 503 Q 629 513 618 519 C 592 534 542 534 556 508 Q 557 507 559 505 Q 578 465 581 439 Q 585 316 583 125 Q 583 5 588 -35 Z" fill="lightgray" class="stroke step3"/></g></svg>