<svg version="1.1" viewBox="0 0 9216 1024" xmlns="http://www.w3.org/2000/svg">
  
  <g transform="scale(1, -1) translate(0, -900)" class="origin">
    <style type="text/css">
        .origin {display:none;}
        .hide {display:none;}
        .stroke {fill: #000000;}
        
.step1 {transform: translateX(1024px);}
.step2 {transform: translateX(2048px);}
.step3 {transform: translateX(3072px);}
.step4 {transform: translateX(4096px);}
.step5 {transform: translateX(5120px);}
.step6 {transform: translateX(6144px);}
.step7 {transform: translateX(7168px);}
.step8 {transform: translateX(8192px);}
.step9 {transform: translateX(9216px);}
.step10 {transform: translateX(10240px);}
.step11 {transform: translateX(11264px);}
.step12 {transform: translateX(12288px);}
.step13 {transform: translateX(13312px);}
.step14 {transform: translateX(14336px);}
.step15 {transform: translateX(15360px);}
.step16 {transform: translateX(16384px);}
.step17 {transform: translateX(17408px);}
.step18 {transform: translateX(18432px);}
.step19 {transform: translateX(19456px);}
.step20 {transform: translateX(20480px);}
.step21 {transform: translateX(21504px);}
.step22 {transform: translateX(22528px);}
.step23 {transform: translateX(23552px);}
.step24 {transform: translateX(24576px);}
.step25 {transform: translateX(25600px);}
.step26 {transform: translateX(26624px);}
.step27 {transform: translateX(27648px);}
.step28 {transform: translateX(28672px);}
.step29 {transform: translateX(29696px);}
    </style>

    <path d="M 159 646 Q 150 658 121 668 Q 111 672 100 668 Q 93 664 99 651 Q 120 578 121 568 Q 121 562 122 555 Q 137 348 107 219 Q 94 165 129 121 Q 139 108 150 121 Q 160 134 162 152 L 165 187 Q 165 202 166 400 L 166 437 Q 166 528 169 621 C 170 637 170 637 159 646 Z" fill="lightgray"/>
    <path d="M 266 162 Q 273 149 283 136 Q 298 114 305 116 Q 317 119 331 153 Q 341 181 337 299 Q 319 584 342 632 Q 352 648 344 659 Q 337 669 291 682 Q 269 689 252 680 Q 203 658 159 646 C 130 637 140 613 169 621 Q 197 628 231 639 Q 261 649 272 639 Q 287 626 286 570 Q 290 341 280 215 Q 283 199 270 195 C 258 176 258 176 266 162 Z" fill="lightgray"/>
    <path d="M 166 400 Q 215 407 251 410 Q 275 414 265 428 Q 253 443 227 447 Q 202 448 166 437 C 137 428 136 396 166 400 Z" fill="lightgray"/>
    <path d="M 162 152 Q 193 159 266 162 C 296 163 296 181 270 195 Q 267 196 264 199 Q 249 206 165 187 C 136 180 133 146 162 152 Z" fill="lightgray"/>
    <path d="M 437 532 Q 422 541 405 545 Q 392 549 385 542 Q 378 536 385 524 Q 412 485 440 334 C 446 305 479 310 476 340 Q 461 472 463 498 C 464 517 463 517 437 532 Z" fill="lightgray"/>
    <path d="M 755 382 Q 783 493 819 521 Q 837 540 821 559 Q 739 622 687 590 Q 651 577 618 566 L 571 554 Q 505 541 437 532 C 407 528 434 490 463 498 Q 511 511 570 520 L 616 530 Q 704 551 717 540 Q 729 530 727 506 Q 715 431 699 372 C 691 343 747 353 755 382 Z" fill="lightgray"/>
    <path d="M 604 322 Q 703 337 915 337 Q 934 337 939 346 Q 945 356 928 370 Q 871 412 804 391 Q 780 388 755 382 L 699 372 Q 621 363 607 357 L 557 351 Q 515 347 476 340 L 440 334 Q 403 331 364 325 Q 343 324 359 307 Q 372 294 390 289 Q 409 283 426 288 Q 484 304 551 314 L 604 322 Z" fill="lightgray"/>
    <path d="M 602 314 Q 602 318 603 321 Q 603 322 604 322 L 607 357 Q 610 387 612 419 Q 613 476 616 530 L 618 566 Q 619 707 648 774 Q 655 789 643 800 Q 621 819 579 831 Q 554 838 544 830 Q 534 823 542 810 Q 566 773 569 723 Q 573 638 571 554 L 570 520 Q 569 457 562 396 Q 561 374 557 351 L 551 314 Q 521 163 409 76 Q 372 48 321 19 Q 308 12 308 7 Q 309 3 322 3 Q 340 -1 385 16 Q 547 70 595 274 L 602 314 Z" fill="lightgray"/>
    <path d="M 595 274 Q 682 121 780 10 Q 802 -18 825 -18 Q 889 -9 944 -3 Q 968 -2 968 5 Q 969 12 942 26 Q 797 101 760 136 Q 655 241 602 314 C 584 338 580 300 595 274 Z" fill="lightgray"/></g>
<g transform="scale(1, -1) translate(0, -900)">
    <style type="text/css">
        .origin {display:none;}
        .hide {display:none;}
        .stroke {fill: #000000;}
        
.step1 {transform: translateX(1024px);}
.step2 {transform: translateX(2048px);}
.step3 {transform: translateX(3072px);}
.step4 {transform: translateX(4096px);}
.step5 {transform: translateX(5120px);}
.step6 {transform: translateX(6144px);}
.step7 {transform: translateX(7168px);}
.step8 {transform: translateX(8192px);}
.step9 {transform: translateX(9216px);}
.step10 {transform: translateX(10240px);}
.step11 {transform: translateX(11264px);}
.step12 {transform: translateX(12288px);}
.step13 {transform: translateX(13312px);}
.step14 {transform: translateX(14336px);}
.step15 {transform: translateX(15360px);}
.step16 {transform: translateX(16384px);}
.step17 {transform: translateX(17408px);}
.step18 {transform: translateX(18432px);}
.step19 {transform: translateX(19456px);}
.step20 {transform: translateX(20480px);}
.step21 {transform: translateX(21504px);}
.step22 {transform: translateX(22528px);}
.step23 {transform: translateX(23552px);}
.step24 {transform: translateX(24576px);}
.step25 {transform: translateX(25600px);}
.step26 {transform: translateX(26624px);}
.step27 {transform: translateX(27648px);}
.step28 {transform: translateX(28672px);}
.step29 {transform: translateX(29696px);}
    </style>

    <path d="M 159 646 Q 150 658 121 668 Q 111 672 100 668 Q 93 664 99 651 Q 120 578 121 568 Q 121 562 122 555 Q 137 348 107 219 Q 94 165 129 121 Q 139 108 150 121 Q 160 134 162 152 L 165 187 Q 165 202 166 400 L 166 437 Q 166 528 169 621 C 170 637 170 637 159 646 Z" fill="lightgray" class="stroke step0"/>
    <path d="M 266 162 Q 273 149 283 136 Q 298 114 305 116 Q 317 119 331 153 Q 341 181 337 299 Q 319 584 342 632 Q 352 648 344 659 Q 337 669 291 682 Q 269 689 252 680 Q 203 658 159 646 C 130 637 140 613 169 621 Q 197 628 231 639 Q 261 649 272 639 Q 287 626 286 570 Q 290 341 280 215 Q 283 199 270 195 C 258 176 258 176 266 162 Z" fill="lightgray" class="hide"/>
    <path d="M 166 400 Q 215 407 251 410 Q 275 414 265 428 Q 253 443 227 447 Q 202 448 166 437 C 137 428 136 396 166 400 Z" fill="lightgray" class="hide"/>
    <path d="M 162 152 Q 193 159 266 162 C 296 163 296 181 270 195 Q 267 196 264 199 Q 249 206 165 187 C 136 180 133 146 162 152 Z" fill="lightgray" class="hide"/>
    <path d="M 437 532 Q 422 541 405 545 Q 392 549 385 542 Q 378 536 385 524 Q 412 485 440 334 C 446 305 479 310 476 340 Q 461 472 463 498 C 464 517 463 517 437 532 Z" fill="lightgray" class="hide"/>
    <path d="M 755 382 Q 783 493 819 521 Q 837 540 821 559 Q 739 622 687 590 Q 651 577 618 566 L 571 554 Q 505 541 437 532 C 407 528 434 490 463 498 Q 511 511 570 520 L 616 530 Q 704 551 717 540 Q 729 530 727 506 Q 715 431 699 372 C 691 343 747 353 755 382 Z" fill="lightgray" class="hide"/>
    <path d="M 604 322 Q 703 337 915 337 Q 934 337 939 346 Q 945 356 928 370 Q 871 412 804 391 Q 780 388 755 382 L 699 372 Q 621 363 607 357 L 557 351 Q 515 347 476 340 L 440 334 Q 403 331 364 325 Q 343 324 359 307 Q 372 294 390 289 Q 409 283 426 288 Q 484 304 551 314 L 604 322 Z" fill="lightgray" class="hide"/>
    <path d="M 602 314 Q 602 318 603 321 Q 603 322 604 322 L 607 357 Q 610 387 612 419 Q 613 476 616 530 L 618 566 Q 619 707 648 774 Q 655 789 643 800 Q 621 819 579 831 Q 554 838 544 830 Q 534 823 542 810 Q 566 773 569 723 Q 573 638 571 554 L 570 520 Q 569 457 562 396 Q 561 374 557 351 L 551 314 Q 521 163 409 76 Q 372 48 321 19 Q 308 12 308 7 Q 309 3 322 3 Q 340 -1 385 16 Q 547 70 595 274 L 602 314 Z" fill="lightgray" class="hide"/>
    <path d="M 595 274 Q 682 121 780 10 Q 802 -18 825 -18 Q 889 -9 944 -3 Q 968 -2 968 5 Q 969 12 942 26 Q 797 101 760 136 Q 655 241 602 314 C 584 338 580 300 595 274 Z" fill="lightgray" class="hide"/></g><g transform="scale(1, -1) translate(0, -900)">
    <style type="text/css">
        .origin {display:none;}
        .hide {display:none;}
        .stroke {fill: #000000;}
        
.step1 {transform: translateX(1024px);}
.step2 {transform: translateX(2048px);}
.step3 {transform: translateX(3072px);}
.step4 {transform: translateX(4096px);}
.step5 {transform: translateX(5120px);}
.step6 {transform: translateX(6144px);}
.step7 {transform: translateX(7168px);}
.step8 {transform: translateX(8192px);}
.step9 {transform: translateX(9216px);}
.step10 {transform: translateX(10240px);}
.step11 {transform: translateX(11264px);}
.step12 {transform: translateX(12288px);}
.step13 {transform: translateX(13312px);}
.step14 {transform: translateX(14336px);}
.step15 {transform: translateX(15360px);}
.step16 {transform: translateX(16384px);}
.step17 {transform: translateX(17408px);}
.step18 {transform: translateX(18432px);}
.step19 {transform: translateX(19456px);}
.step20 {transform: translateX(20480px);}
.step21 {transform: translateX(21504px);}
.step22 {transform: translateX(22528px);}
.step23 {transform: translateX(23552px);}
.step24 {transform: translateX(24576px);}
.step25 {transform: translateX(25600px);}
.step26 {transform: translateX(26624px);}
.step27 {transform: translateX(27648px);}
.step28 {transform: translateX(28672px);}
.step29 {transform: translateX(29696px);}
    </style>

    <path d="M 159 646 Q 150 658 121 668 Q 111 672 100 668 Q 93 664 99 651 Q 120 578 121 568 Q 121 562 122 555 Q 137 348 107 219 Q 94 165 129 121 Q 139 108 150 121 Q 160 134 162 152 L 165 187 Q 165 202 166 400 L 166 437 Q 166 528 169 621 C 170 637 170 637 159 646 Z" fill="lightgray" class="stroke step1"/>
    <path d="M 266 162 Q 273 149 283 136 Q 298 114 305 116 Q 317 119 331 153 Q 341 181 337 299 Q 319 584 342 632 Q 352 648 344 659 Q 337 669 291 682 Q 269 689 252 680 Q 203 658 159 646 C 130 637 140 613 169 621 Q 197 628 231 639 Q 261 649 272 639 Q 287 626 286 570 Q 290 341 280 215 Q 283 199 270 195 C 258 176 258 176 266 162 Z" fill="lightgray" class="stroke step1"/>
    <path d="M 166 400 Q 215 407 251 410 Q 275 414 265 428 Q 253 443 227 447 Q 202 448 166 437 C 137 428 136 396 166 400 Z" fill="lightgray" class="hide"/>
    <path d="M 162 152 Q 193 159 266 162 C 296 163 296 181 270 195 Q 267 196 264 199 Q 249 206 165 187 C 136 180 133 146 162 152 Z" fill="lightgray" class="hide"/>
    <path d="M 437 532 Q 422 541 405 545 Q 392 549 385 542 Q 378 536 385 524 Q 412 485 440 334 C 446 305 479 310 476 340 Q 461 472 463 498 C 464 517 463 517 437 532 Z" fill="lightgray" class="hide"/>
    <path d="M 755 382 Q 783 493 819 521 Q 837 540 821 559 Q 739 622 687 590 Q 651 577 618 566 L 571 554 Q 505 541 437 532 C 407 528 434 490 463 498 Q 511 511 570 520 L 616 530 Q 704 551 717 540 Q 729 530 727 506 Q 715 431 699 372 C 691 343 747 353 755 382 Z" fill="lightgray" class="hide"/>
    <path d="M 604 322 Q 703 337 915 337 Q 934 337 939 346 Q 945 356 928 370 Q 871 412 804 391 Q 780 388 755 382 L 699 372 Q 621 363 607 357 L 557 351 Q 515 347 476 340 L 440 334 Q 403 331 364 325 Q 343 324 359 307 Q 372 294 390 289 Q 409 283 426 288 Q 484 304 551 314 L 604 322 Z" fill="lightgray" class="hide"/>
    <path d="M 602 314 Q 602 318 603 321 Q 603 322 604 322 L 607 357 Q 610 387 612 419 Q 613 476 616 530 L 618 566 Q 619 707 648 774 Q 655 789 643 800 Q 621 819 579 831 Q 554 838 544 830 Q 534 823 542 810 Q 566 773 569 723 Q 573 638 571 554 L 570 520 Q 569 457 562 396 Q 561 374 557 351 L 551 314 Q 521 163 409 76 Q 372 48 321 19 Q 308 12 308 7 Q 309 3 322 3 Q 340 -1 385 16 Q 547 70 595 274 L 602 314 Z" fill="lightgray" class="hide"/>
    <path d="M 595 274 Q 682 121 780 10 Q 802 -18 825 -18 Q 889 -9 944 -3 Q 968 -2 968 5 Q 969 12 942 26 Q 797 101 760 136 Q 655 241 602 314 C 584 338 580 300 595 274 Z" fill="lightgray" class="hide"/></g><g transform="scale(1, -1) translate(0, -900)">
    <style type="text/css">
        .origin {display:none;}
        .hide {display:none;}
        .stroke {fill: #000000;}
        
.step1 {transform: translateX(1024px);}
.step2 {transform: translateX(2048px);}
.step3 {transform: translateX(3072px);}
.step4 {transform: translateX(4096px);}
.step5 {transform: translateX(5120px);}
.step6 {transform: translateX(6144px);}
.step7 {transform: translateX(7168px);}
.step8 {transform: translateX(8192px);}
.step9 {transform: translateX(9216px);}
.step10 {transform: translateX(10240px);}
.step11 {transform: translateX(11264px);}
.step12 {transform: translateX(12288px);}
.step13 {transform: translateX(13312px);}
.step14 {transform: translateX(14336px);}
.step15 {transform: translateX(15360px);}
.step16 {transform: translateX(16384px);}
.step17 {transform: translateX(17408px);}
.step18 {transform: translateX(18432px);}
.step19 {transform: translateX(19456px);}
.step20 {transform: translateX(20480px);}
.step21 {transform: translateX(21504px);}
.step22 {transform: translateX(22528px);}
.step23 {transform: translateX(23552px);}
.step24 {transform: translateX(24576px);}
.step25 {transform: translateX(25600px);}
.step26 {transform: translateX(26624px);}
.step27 {transform: translateX(27648px);}
.step28 {transform: translateX(28672px);}
.step29 {transform: translateX(29696px);}
    </style>

    <path d="M 159 646 Q 150 658 121 668 Q 111 672 100 668 Q 93 664 99 651 Q 120 578 121 568 Q 121 562 122 555 Q 137 348 107 219 Q 94 165 129 121 Q 139 108 150 121 Q 160 134 162 152 L 165 187 Q 165 202 166 400 L 166 437 Q 166 528 169 621 C 170 637 170 637 159 646 Z" fill="lightgray" class="stroke step2"/>
    <path d="M 266 162 Q 273 149 283 136 Q 298 114 305 116 Q 317 119 331 153 Q 341 181 337 299 Q 319 584 342 632 Q 352 648 344 659 Q 337 669 291 682 Q 269 689 252 680 Q 203 658 159 646 C 130 637 140 613 169 621 Q 197 628 231 639 Q 261 649 272 639 Q 287 626 286 570 Q 290 341 280 215 Q 283 199 270 195 C 258 176 258 176 266 162 Z" fill="lightgray" class="stroke step2"/>
    <path d="M 166 400 Q 215 407 251 410 Q 275 414 265 428 Q 253 443 227 447 Q 202 448 166 437 C 137 428 136 396 166 400 Z" fill="lightgray" class="stroke step2"/>
    <path d="M 162 152 Q 193 159 266 162 C 296 163 296 181 270 195 Q 267 196 264 199 Q 249 206 165 187 C 136 180 133 146 162 152 Z" fill="lightgray" class="hide"/>
    <path d="M 437 532 Q 422 541 405 545 Q 392 549 385 542 Q 378 536 385 524 Q 412 485 440 334 C 446 305 479 310 476 340 Q 461 472 463 498 C 464 517 463 517 437 532 Z" fill="lightgray" class="hide"/>
    <path d="M 755 382 Q 783 493 819 521 Q 837 540 821 559 Q 739 622 687 590 Q 651 577 618 566 L 571 554 Q 505 541 437 532 C 407 528 434 490 463 498 Q 511 511 570 520 L 616 530 Q 704 551 717 540 Q 729 530 727 506 Q 715 431 699 372 C 691 343 747 353 755 382 Z" fill="lightgray" class="hide"/>
    <path d="M 604 322 Q 703 337 915 337 Q 934 337 939 346 Q 945 356 928 370 Q 871 412 804 391 Q 780 388 755 382 L 699 372 Q 621 363 607 357 L 557 351 Q 515 347 476 340 L 440 334 Q 403 331 364 325 Q 343 324 359 307 Q 372 294 390 289 Q 409 283 426 288 Q 484 304 551 314 L 604 322 Z" fill="lightgray" class="hide"/>
    <path d="M 602 314 Q 602 318 603 321 Q 603 322 604 322 L 607 357 Q 610 387 612 419 Q 613 476 616 530 L 618 566 Q 619 707 648 774 Q 655 789 643 800 Q 621 819 579 831 Q 554 838 544 830 Q 534 823 542 810 Q 566 773 569 723 Q 573 638 571 554 L 570 520 Q 569 457 562 396 Q 561 374 557 351 L 551 314 Q 521 163 409 76 Q 372 48 321 19 Q 308 12 308 7 Q 309 3 322 3 Q 340 -1 385 16 Q 547 70 595 274 L 602 314 Z" fill="lightgray" class="hide"/>
    <path d="M 595 274 Q 682 121 780 10 Q 802 -18 825 -18 Q 889 -9 944 -3 Q 968 -2 968 5 Q 969 12 942 26 Q 797 101 760 136 Q 655 241 602 314 C 584 338 580 300 595 274 Z" fill="lightgray" class="hide"/></g><g transform="scale(1, -1) translate(0, -900)">
    <style type="text/css">
        .origin {display:none;}
        .hide {display:none;}
        .stroke {fill: #000000;}
        
.step1 {transform: translateX(1024px);}
.step2 {transform: translateX(2048px);}
.step3 {transform: translateX(3072px);}
.step4 {transform: translateX(4096px);}
.step5 {transform: translateX(5120px);}
.step6 {transform: translateX(6144px);}
.step7 {transform: translateX(7168px);}
.step8 {transform: translateX(8192px);}
.step9 {transform: translateX(9216px);}
.step10 {transform: translateX(10240px);}
.step11 {transform: translateX(11264px);}
.step12 {transform: translateX(12288px);}
.step13 {transform: translateX(13312px);}
.step14 {transform: translateX(14336px);}
.step15 {transform: translateX(15360px);}
.step16 {transform: translateX(16384px);}
.step17 {transform: translateX(17408px);}
.step18 {transform: translateX(18432px);}
.step19 {transform: translateX(19456px);}
.step20 {transform: translateX(20480px);}
.step21 {transform: translateX(21504px);}
.step22 {transform: translateX(22528px);}
.step23 {transform: translateX(23552px);}
.step24 {transform: translateX(24576px);}
.step25 {transform: translateX(25600px);}
.step26 {transform: translateX(26624px);}
.step27 {transform: translateX(27648px);}
.step28 {transform: translateX(28672px);}
.step29 {transform: translateX(29696px);}
    </style>

    <path d="M 159 646 Q 150 658 121 668 Q 111 672 100 668 Q 93 664 99 651 Q 120 578 121 568 Q 121 562 122 555 Q 137 348 107 219 Q 94 165 129 121 Q 139 108 150 121 Q 160 134 162 152 L 165 187 Q 165 202 166 400 L 166 437 Q 166 528 169 621 C 170 637 170 637 159 646 Z" fill="lightgray" class="stroke step3"/>
    <path d="M 266 162 Q 273 149 283 136 Q 298 114 305 116 Q 317 119 331 153 Q 341 181 337 299 Q 319 584 342 632 Q 352 648 344 659 Q 337 669 291 682 Q 269 689 252 680 Q 203 658 159 646 C 130 637 140 613 169 621 Q 197 628 231 639 Q 261 649 272 639 Q 287 626 286 570 Q 290 341 280 215 Q 283 199 270 195 C 258 176 258 176 266 162 Z" fill="lightgray" class="stroke step3"/>
    <path d="M 166 400 Q 215 407 251 410 Q 275 414 265 428 Q 253 443 227 447 Q 202 448 166 437 C 137 428 136 396 166 400 Z" fill="lightgray" class="stroke step3"/>
    <path d="M 162 152 Q 193 159 266 162 C 296 163 296 181 270 195 Q 267 196 264 199 Q 249 206 165 187 C 136 180 133 146 162 152 Z" fill="lightgray" class="stroke step3"/>
    <path d="M 437 532 Q 422 541 405 545 Q 392 549 385 542 Q 378 536 385 524 Q 412 485 440 334 C 446 305 479 310 476 340 Q 461 472 463 498 C 464 517 463 517 437 532 Z" fill="lightgray" class="hide"/>
    <path d="M 755 382 Q 783 493 819 521 Q 837 540 821 559 Q 739 622 687 590 Q 651 577 618 566 L 571 554 Q 505 541 437 532 C 407 528 434 490 463 498 Q 511 511 570 520 L 616 530 Q 704 551 717 540 Q 729 530 727 506 Q 715 431 699 372 C 691 343 747 353 755 382 Z" fill="lightgray" class="hide"/>
    <path d="M 604 322 Q 703 337 915 337 Q 934 337 939 346 Q 945 356 928 370 Q 871 412 804 391 Q 780 388 755 382 L 699 372 Q 621 363 607 357 L 557 351 Q 515 347 476 340 L 440 334 Q 403 331 364 325 Q 343 324 359 307 Q 372 294 390 289 Q 409 283 426 288 Q 484 304 551 314 L 604 322 Z" fill="lightgray" class="hide"/>
    <path d="M 602 314 Q 602 318 603 321 Q 603 322 604 322 L 607 357 Q 610 387 612 419 Q 613 476 616 530 L 618 566 Q 619 707 648 774 Q 655 789 643 800 Q 621 819 579 831 Q 554 838 544 830 Q 534 823 542 810 Q 566 773 569 723 Q 573 638 571 554 L 570 520 Q 569 457 562 396 Q 561 374 557 351 L 551 314 Q 521 163 409 76 Q 372 48 321 19 Q 308 12 308 7 Q 309 3 322 3 Q 340 -1 385 16 Q 547 70 595 274 L 602 314 Z" fill="lightgray" class="hide"/>
    <path d="M 595 274 Q 682 121 780 10 Q 802 -18 825 -18 Q 889 -9 944 -3 Q 968 -2 968 5 Q 969 12 942 26 Q 797 101 760 136 Q 655 241 602 314 C 584 338 580 300 595 274 Z" fill="lightgray" class="hide"/></g><g transform="scale(1, -1) translate(0, -900)">
    <style type="text/css">
        .origin {display:none;}
        .hide {display:none;}
        .stroke {fill: #000000;}
        
.step1 {transform: translateX(1024px);}
.step2 {transform: translateX(2048px);}
.step3 {transform: translateX(3072px);}
.step4 {transform: translateX(4096px);}
.step5 {transform: translateX(5120px);}
.step6 {transform: translateX(6144px);}
.step7 {transform: translateX(7168px);}
.step8 {transform: translateX(8192px);}
.step9 {transform: translateX(9216px);}
.step10 {transform: translateX(10240px);}
.step11 {transform: translateX(11264px);}
.step12 {transform: translateX(12288px);}
.step13 {transform: translateX(13312px);}
.step14 {transform: translateX(14336px);}
.step15 {transform: translateX(15360px);}
.step16 {transform: translateX(16384px);}
.step17 {transform: translateX(17408px);}
.step18 {transform: translateX(18432px);}
.step19 {transform: translateX(19456px);}
.step20 {transform: translateX(20480px);}
.step21 {transform: translateX(21504px);}
.step22 {transform: translateX(22528px);}
.step23 {transform: translateX(23552px);}
.step24 {transform: translateX(24576px);}
.step25 {transform: translateX(25600px);}
.step26 {transform: translateX(26624px);}
.step27 {transform: translateX(27648px);}
.step28 {transform: translateX(28672px);}
.step29 {transform: translateX(29696px);}
    </style>

    <path d="M 159 646 Q 150 658 121 668 Q 111 672 100 668 Q 93 664 99 651 Q 120 578 121 568 Q 121 562 122 555 Q 137 348 107 219 Q 94 165 129 121 Q 139 108 150 121 Q 160 134 162 152 L 165 187 Q 165 202 166 400 L 166 437 Q 166 528 169 621 C 170 637 170 637 159 646 Z" fill="lightgray" class="stroke step4"/>
    <path d="M 266 162 Q 273 149 283 136 Q 298 114 305 116 Q 317 119 331 153 Q 341 181 337 299 Q 319 584 342 632 Q 352 648 344 659 Q 337 669 291 682 Q 269 689 252 680 Q 203 658 159 646 C 130 637 140 613 169 621 Q 197 628 231 639 Q 261 649 272 639 Q 287 626 286 570 Q 290 341 280 215 Q 283 199 270 195 C 258 176 258 176 266 162 Z" fill="lightgray" class="stroke step4"/>
    <path d="M 166 400 Q 215 407 251 410 Q 275 414 265 428 Q 253 443 227 447 Q 202 448 166 437 C 137 428 136 396 166 400 Z" fill="lightgray" class="stroke step4"/>
    <path d="M 162 152 Q 193 159 266 162 C 296 163 296 181 270 195 Q 267 196 264 199 Q 249 206 165 187 C 136 180 133 146 162 152 Z" fill="lightgray" class="stroke step4"/>
    <path d="M 437 532 Q 422 541 405 545 Q 392 549 385 542 Q 378 536 385 524 Q 412 485 440 334 C 446 305 479 310 476 340 Q 461 472 463 498 C 464 517 463 517 437 532 Z" fill="lightgray" class="stroke step4"/>
    <path d="M 755 382 Q 783 493 819 521 Q 837 540 821 559 Q 739 622 687 590 Q 651 577 618 566 L 571 554 Q 505 541 437 532 C 407 528 434 490 463 498 Q 511 511 570 520 L 616 530 Q 704 551 717 540 Q 729 530 727 506 Q 715 431 699 372 C 691 343 747 353 755 382 Z" fill="lightgray" class="hide"/>
    <path d="M 604 322 Q 703 337 915 337 Q 934 337 939 346 Q 945 356 928 370 Q 871 412 804 391 Q 780 388 755 382 L 699 372 Q 621 363 607 357 L 557 351 Q 515 347 476 340 L 440 334 Q 403 331 364 325 Q 343 324 359 307 Q 372 294 390 289 Q 409 283 426 288 Q 484 304 551 314 L 604 322 Z" fill="lightgray" class="hide"/>
    <path d="M 602 314 Q 602 318 603 321 Q 603 322 604 322 L 607 357 Q 610 387 612 419 Q 613 476 616 530 L 618 566 Q 619 707 648 774 Q 655 789 643 800 Q 621 819 579 831 Q 554 838 544 830 Q 534 823 542 810 Q 566 773 569 723 Q 573 638 571 554 L 570 520 Q 569 457 562 396 Q 561 374 557 351 L 551 314 Q 521 163 409 76 Q 372 48 321 19 Q 308 12 308 7 Q 309 3 322 3 Q 340 -1 385 16 Q 547 70 595 274 L 602 314 Z" fill="lightgray" class="hide"/>
    <path d="M 595 274 Q 682 121 780 10 Q 802 -18 825 -18 Q 889 -9 944 -3 Q 968 -2 968 5 Q 969 12 942 26 Q 797 101 760 136 Q 655 241 602 314 C 584 338 580 300 595 274 Z" fill="lightgray" class="hide"/></g><g transform="scale(1, -1) translate(0, -900)">
    <style type="text/css">
        .origin {display:none;}
        .hide {display:none;}
        .stroke {fill: #000000;}
        
.step1 {transform: translateX(1024px);}
.step2 {transform: translateX(2048px);}
.step3 {transform: translateX(3072px);}
.step4 {transform: translateX(4096px);}
.step5 {transform: translateX(5120px);}
.step6 {transform: translateX(6144px);}
.step7 {transform: translateX(7168px);}
.step8 {transform: translateX(8192px);}
.step9 {transform: translateX(9216px);}
.step10 {transform: translateX(10240px);}
.step11 {transform: translateX(11264px);}
.step12 {transform: translateX(12288px);}
.step13 {transform: translateX(13312px);}
.step14 {transform: translateX(14336px);}
.step15 {transform: translateX(15360px);}
.step16 {transform: translateX(16384px);}
.step17 {transform: translateX(17408px);}
.step18 {transform: translateX(18432px);}
.step19 {transform: translateX(19456px);}
.step20 {transform: translateX(20480px);}
.step21 {transform: translateX(21504px);}
.step22 {transform: translateX(22528px);}
.step23 {transform: translateX(23552px);}
.step24 {transform: translateX(24576px);}
.step25 {transform: translateX(25600px);}
.step26 {transform: translateX(26624px);}
.step27 {transform: translateX(27648px);}
.step28 {transform: translateX(28672px);}
.step29 {transform: translateX(29696px);}
    </style>

    <path d="M 159 646 Q 150 658 121 668 Q 111 672 100 668 Q 93 664 99 651 Q 120 578 121 568 Q 121 562 122 555 Q 137 348 107 219 Q 94 165 129 121 Q 139 108 150 121 Q 160 134 162 152 L 165 187 Q 165 202 166 400 L 166 437 Q 166 528 169 621 C 170 637 170 637 159 646 Z" fill="lightgray" class="stroke step5"/>
    <path d="M 266 162 Q 273 149 283 136 Q 298 114 305 116 Q 317 119 331 153 Q 341 181 337 299 Q 319 584 342 632 Q 352 648 344 659 Q 337 669 291 682 Q 269 689 252 680 Q 203 658 159 646 C 130 637 140 613 169 621 Q 197 628 231 639 Q 261 649 272 639 Q 287 626 286 570 Q 290 341 280 215 Q 283 199 270 195 C 258 176 258 176 266 162 Z" fill="lightgray" class="stroke step5"/>
    <path d="M 166 400 Q 215 407 251 410 Q 275 414 265 428 Q 253 443 227 447 Q 202 448 166 437 C 137 428 136 396 166 400 Z" fill="lightgray" class="stroke step5"/>
    <path d="M 162 152 Q 193 159 266 162 C 296 163 296 181 270 195 Q 267 196 264 199 Q 249 206 165 187 C 136 180 133 146 162 152 Z" fill="lightgray" class="stroke step5"/>
    <path d="M 437 532 Q 422 541 405 545 Q 392 549 385 542 Q 378 536 385 524 Q 412 485 440 334 C 446 305 479 310 476 340 Q 461 472 463 498 C 464 517 463 517 437 532 Z" fill="lightgray" class="stroke step5"/>
    <path d="M 755 382 Q 783 493 819 521 Q 837 540 821 559 Q 739 622 687 590 Q 651 577 618 566 L 571 554 Q 505 541 437 532 C 407 528 434 490 463 498 Q 511 511 570 520 L 616 530 Q 704 551 717 540 Q 729 530 727 506 Q 715 431 699 372 C 691 343 747 353 755 382 Z" fill="lightgray" class="stroke step5"/>
    <path d="M 604 322 Q 703 337 915 337 Q 934 337 939 346 Q 945 356 928 370 Q 871 412 804 391 Q 780 388 755 382 L 699 372 Q 621 363 607 357 L 557 351 Q 515 347 476 340 L 440 334 Q 403 331 364 325 Q 343 324 359 307 Q 372 294 390 289 Q 409 283 426 288 Q 484 304 551 314 L 604 322 Z" fill="lightgray" class="hide"/>
    <path d="M 602 314 Q 602 318 603 321 Q 603 322 604 322 L 607 357 Q 610 387 612 419 Q 613 476 616 530 L 618 566 Q 619 707 648 774 Q 655 789 643 800 Q 621 819 579 831 Q 554 838 544 830 Q 534 823 542 810 Q 566 773 569 723 Q 573 638 571 554 L 570 520 Q 569 457 562 396 Q 561 374 557 351 L 551 314 Q 521 163 409 76 Q 372 48 321 19 Q 308 12 308 7 Q 309 3 322 3 Q 340 -1 385 16 Q 547 70 595 274 L 602 314 Z" fill="lightgray" class="hide"/>
    <path d="M 595 274 Q 682 121 780 10 Q 802 -18 825 -18 Q 889 -9 944 -3 Q 968 -2 968 5 Q 969 12 942 26 Q 797 101 760 136 Q 655 241 602 314 C 584 338 580 300 595 274 Z" fill="lightgray" class="hide"/></g><g transform="scale(1, -1) translate(0, -900)">
    <style type="text/css">
        .origin {display:none;}
        .hide {display:none;}
        .stroke {fill: #000000;}
        
.step1 {transform: translateX(1024px);}
.step2 {transform: translateX(2048px);}
.step3 {transform: translateX(3072px);}
.step4 {transform: translateX(4096px);}
.step5 {transform: translateX(5120px);}
.step6 {transform: translateX(6144px);}
.step7 {transform: translateX(7168px);}
.step8 {transform: translateX(8192px);}
.step9 {transform: translateX(9216px);}
.step10 {transform: translateX(10240px);}
.step11 {transform: translateX(11264px);}
.step12 {transform: translateX(12288px);}
.step13 {transform: translateX(13312px);}
.step14 {transform: translateX(14336px);}
.step15 {transform: translateX(15360px);}
.step16 {transform: translateX(16384px);}
.step17 {transform: translateX(17408px);}
.step18 {transform: translateX(18432px);}
.step19 {transform: translateX(19456px);}
.step20 {transform: translateX(20480px);}
.step21 {transform: translateX(21504px);}
.step22 {transform: translateX(22528px);}
.step23 {transform: translateX(23552px);}
.step24 {transform: translateX(24576px);}
.step25 {transform: translateX(25600px);}
.step26 {transform: translateX(26624px);}
.step27 {transform: translateX(27648px);}
.step28 {transform: translateX(28672px);}
.step29 {transform: translateX(29696px);}
    </style>

    <path d="M 159 646 Q 150 658 121 668 Q 111 672 100 668 Q 93 664 99 651 Q 120 578 121 568 Q 121 562 122 555 Q 137 348 107 219 Q 94 165 129 121 Q 139 108 150 121 Q 160 134 162 152 L 165 187 Q 165 202 166 400 L 166 437 Q 166 528 169 621 C 170 637 170 637 159 646 Z" fill="lightgray" class="stroke step6"/>
    <path d="M 266 162 Q 273 149 283 136 Q 298 114 305 116 Q 317 119 331 153 Q 341 181 337 299 Q 319 584 342 632 Q 352 648 344 659 Q 337 669 291 682 Q 269 689 252 680 Q 203 658 159 646 C 130 637 140 613 169 621 Q 197 628 231 639 Q 261 649 272 639 Q 287 626 286 570 Q 290 341 280 215 Q 283 199 270 195 C 258 176 258 176 266 162 Z" fill="lightgray" class="stroke step6"/>
    <path d="M 166 400 Q 215 407 251 410 Q 275 414 265 428 Q 253 443 227 447 Q 202 448 166 437 C 137 428 136 396 166 400 Z" fill="lightgray" class="stroke step6"/>
    <path d="M 162 152 Q 193 159 266 162 C 296 163 296 181 270 195 Q 267 196 264 199 Q 249 206 165 187 C 136 180 133 146 162 152 Z" fill="lightgray" class="stroke step6"/>
    <path d="M 437 532 Q 422 541 405 545 Q 392 549 385 542 Q 378 536 385 524 Q 412 485 440 334 C 446 305 479 310 476 340 Q 461 472 463 498 C 464 517 463 517 437 532 Z" fill="lightgray" class="stroke step6"/>
    <path d="M 755 382 Q 783 493 819 521 Q 837 540 821 559 Q 739 622 687 590 Q 651 577 618 566 L 571 554 Q 505 541 437 532 C 407 528 434 490 463 498 Q 511 511 570 520 L 616 530 Q 704 551 717 540 Q 729 530 727 506 Q 715 431 699 372 C 691 343 747 353 755 382 Z" fill="lightgray" class="stroke step6"/>
    <path d="M 604 322 Q 703 337 915 337 Q 934 337 939 346 Q 945 356 928 370 Q 871 412 804 391 Q 780 388 755 382 L 699 372 Q 621 363 607 357 L 557 351 Q 515 347 476 340 L 440 334 Q 403 331 364 325 Q 343 324 359 307 Q 372 294 390 289 Q 409 283 426 288 Q 484 304 551 314 L 604 322 Z" fill="lightgray" class="stroke step6"/>
    <path d="M 602 314 Q 602 318 603 321 Q 603 322 604 322 L 607 357 Q 610 387 612 419 Q 613 476 616 530 L 618 566 Q 619 707 648 774 Q 655 789 643 800 Q 621 819 579 831 Q 554 838 544 830 Q 534 823 542 810 Q 566 773 569 723 Q 573 638 571 554 L 570 520 Q 569 457 562 396 Q 561 374 557 351 L 551 314 Q 521 163 409 76 Q 372 48 321 19 Q 308 12 308 7 Q 309 3 322 3 Q 340 -1 385 16 Q 547 70 595 274 L 602 314 Z" fill="lightgray" class="hide"/>
    <path d="M 595 274 Q 682 121 780 10 Q 802 -18 825 -18 Q 889 -9 944 -3 Q 968 -2 968 5 Q 969 12 942 26 Q 797 101 760 136 Q 655 241 602 314 C 584 338 580 300 595 274 Z" fill="lightgray" class="hide"/></g><g transform="scale(1, -1) translate(0, -900)">
    <style type="text/css">
        .origin {display:none;}
        .hide {display:none;}
        .stroke {fill: #000000;}
        
.step1 {transform: translateX(1024px);}
.step2 {transform: translateX(2048px);}
.step3 {transform: translateX(3072px);}
.step4 {transform: translateX(4096px);}
.step5 {transform: translateX(5120px);}
.step6 {transform: translateX(6144px);}
.step7 {transform: translateX(7168px);}
.step8 {transform: translateX(8192px);}
.step9 {transform: translateX(9216px);}
.step10 {transform: translateX(10240px);}
.step11 {transform: translateX(11264px);}
.step12 {transform: translateX(12288px);}
.step13 {transform: translateX(13312px);}
.step14 {transform: translateX(14336px);}
.step15 {transform: translateX(15360px);}
.step16 {transform: translateX(16384px);}
.step17 {transform: translateX(17408px);}
.step18 {transform: translateX(18432px);}
.step19 {transform: translateX(19456px);}
.step20 {transform: translateX(20480px);}
.step21 {transform: translateX(21504px);}
.step22 {transform: translateX(22528px);}
.step23 {transform: translateX(23552px);}
.step24 {transform: translateX(24576px);}
.step25 {transform: translateX(25600px);}
.step26 {transform: translateX(26624px);}
.step27 {transform: translateX(27648px);}
.step28 {transform: translateX(28672px);}
.step29 {transform: translateX(29696px);}
    </style>

    <path d="M 159 646 Q 150 658 121 668 Q 111 672 100 668 Q 93 664 99 651 Q 120 578 121 568 Q 121 562 122 555 Q 137 348 107 219 Q 94 165 129 121 Q 139 108 150 121 Q 160 134 162 152 L 165 187 Q 165 202 166 400 L 166 437 Q 166 528 169 621 C 170 637 170 637 159 646 Z" fill="lightgray" class="stroke step7"/>
    <path d="M 266 162 Q 273 149 283 136 Q 298 114 305 116 Q 317 119 331 153 Q 341 181 337 299 Q 319 584 342 632 Q 352 648 344 659 Q 337 669 291 682 Q 269 689 252 680 Q 203 658 159 646 C 130 637 140 613 169 621 Q 197 628 231 639 Q 261 649 272 639 Q 287 626 286 570 Q 290 341 280 215 Q 283 199 270 195 C 258 176 258 176 266 162 Z" fill="lightgray" class="stroke step7"/>
    <path d="M 166 400 Q 215 407 251 410 Q 275 414 265 428 Q 253 443 227 447 Q 202 448 166 437 C 137 428 136 396 166 400 Z" fill="lightgray" class="stroke step7"/>
    <path d="M 162 152 Q 193 159 266 162 C 296 163 296 181 270 195 Q 267 196 264 199 Q 249 206 165 187 C 136 180 133 146 162 152 Z" fill="lightgray" class="stroke step7"/>
    <path d="M 437 532 Q 422 541 405 545 Q 392 549 385 542 Q 378 536 385 524 Q 412 485 440 334 C 446 305 479 310 476 340 Q 461 472 463 498 C 464 517 463 517 437 532 Z" fill="lightgray" class="stroke step7"/>
    <path d="M 755 382 Q 783 493 819 521 Q 837 540 821 559 Q 739 622 687 590 Q 651 577 618 566 L 571 554 Q 505 541 437 532 C 407 528 434 490 463 498 Q 511 511 570 520 L 616 530 Q 704 551 717 540 Q 729 530 727 506 Q 715 431 699 372 C 691 343 747 353 755 382 Z" fill="lightgray" class="stroke step7"/>
    <path d="M 604 322 Q 703 337 915 337 Q 934 337 939 346 Q 945 356 928 370 Q 871 412 804 391 Q 780 388 755 382 L 699 372 Q 621 363 607 357 L 557 351 Q 515 347 476 340 L 440 334 Q 403 331 364 325 Q 343 324 359 307 Q 372 294 390 289 Q 409 283 426 288 Q 484 304 551 314 L 604 322 Z" fill="lightgray" class="stroke step7"/>
    <path d="M 602 314 Q 602 318 603 321 Q 603 322 604 322 L 607 357 Q 610 387 612 419 Q 613 476 616 530 L 618 566 Q 619 707 648 774 Q 655 789 643 800 Q 621 819 579 831 Q 554 838 544 830 Q 534 823 542 810 Q 566 773 569 723 Q 573 638 571 554 L 570 520 Q 569 457 562 396 Q 561 374 557 351 L 551 314 Q 521 163 409 76 Q 372 48 321 19 Q 308 12 308 7 Q 309 3 322 3 Q 340 -1 385 16 Q 547 70 595 274 L 602 314 Z" fill="lightgray" class="stroke step7"/>
    <path d="M 595 274 Q 682 121 780 10 Q 802 -18 825 -18 Q 889 -9 944 -3 Q 968 -2 968 5 Q 969 12 942 26 Q 797 101 760 136 Q 655 241 602 314 C 584 338 580 300 595 274 Z" fill="lightgray" class="hide"/></g><g transform="scale(1, -1) translate(0, -900)">
    <style type="text/css">
        .origin {display:none;}
        .hide {display:none;}
        .stroke {fill: #000000;}
        
.step1 {transform: translateX(1024px);}
.step2 {transform: translateX(2048px);}
.step3 {transform: translateX(3072px);}
.step4 {transform: translateX(4096px);}
.step5 {transform: translateX(5120px);}
.step6 {transform: translateX(6144px);}
.step7 {transform: translateX(7168px);}
.step8 {transform: translateX(8192px);}
.step9 {transform: translateX(9216px);}
.step10 {transform: translateX(10240px);}
.step11 {transform: translateX(11264px);}
.step12 {transform: translateX(12288px);}
.step13 {transform: translateX(13312px);}
.step14 {transform: translateX(14336px);}
.step15 {transform: translateX(15360px);}
.step16 {transform: translateX(16384px);}
.step17 {transform: translateX(17408px);}
.step18 {transform: translateX(18432px);}
.step19 {transform: translateX(19456px);}
.step20 {transform: translateX(20480px);}
.step21 {transform: translateX(21504px);}
.step22 {transform: translateX(22528px);}
.step23 {transform: translateX(23552px);}
.step24 {transform: translateX(24576px);}
.step25 {transform: translateX(25600px);}
.step26 {transform: translateX(26624px);}
.step27 {transform: translateX(27648px);}
.step28 {transform: translateX(28672px);}
.step29 {transform: translateX(29696px);}
    </style>

    <path d="M 159 646 Q 150 658 121 668 Q 111 672 100 668 Q 93 664 99 651 Q 120 578 121 568 Q 121 562 122 555 Q 137 348 107 219 Q 94 165 129 121 Q 139 108 150 121 Q 160 134 162 152 L 165 187 Q 165 202 166 400 L 166 437 Q 166 528 169 621 C 170 637 170 637 159 646 Z" fill="lightgray" class="stroke step8"/>
    <path d="M 266 162 Q 273 149 283 136 Q 298 114 305 116 Q 317 119 331 153 Q 341 181 337 299 Q 319 584 342 632 Q 352 648 344 659 Q 337 669 291 682 Q 269 689 252 680 Q 203 658 159 646 C 130 637 140 613 169 621 Q 197 628 231 639 Q 261 649 272 639 Q 287 626 286 570 Q 290 341 280 215 Q 283 199 270 195 C 258 176 258 176 266 162 Z" fill="lightgray" class="stroke step8"/>
    <path d="M 166 400 Q 215 407 251 410 Q 275 414 265 428 Q 253 443 227 447 Q 202 448 166 437 C 137 428 136 396 166 400 Z" fill="lightgray" class="stroke step8"/>
    <path d="M 162 152 Q 193 159 266 162 C 296 163 296 181 270 195 Q 267 196 264 199 Q 249 206 165 187 C 136 180 133 146 162 152 Z" fill="lightgray" class="stroke step8"/>
    <path d="M 437 532 Q 422 541 405 545 Q 392 549 385 542 Q 378 536 385 524 Q 412 485 440 334 C 446 305 479 310 476 340 Q 461 472 463 498 C 464 517 463 517 437 532 Z" fill="lightgray" class="stroke step8"/>
    <path d="M 755 382 Q 783 493 819 521 Q 837 540 821 559 Q 739 622 687 590 Q 651 577 618 566 L 571 554 Q 505 541 437 532 C 407 528 434 490 463 498 Q 511 511 570 520 L 616 530 Q 704 551 717 540 Q 729 530 727 506 Q 715 431 699 372 C 691 343 747 353 755 382 Z" fill="lightgray" class="stroke step8"/>
    <path d="M 604 322 Q 703 337 915 337 Q 934 337 939 346 Q 945 356 928 370 Q 871 412 804 391 Q 780 388 755 382 L 699 372 Q 621 363 607 357 L 557 351 Q 515 347 476 340 L 440 334 Q 403 331 364 325 Q 343 324 359 307 Q 372 294 390 289 Q 409 283 426 288 Q 484 304 551 314 L 604 322 Z" fill="lightgray" class="stroke step8"/>
    <path d="M 602 314 Q 602 318 603 321 Q 603 322 604 322 L 607 357 Q 610 387 612 419 Q 613 476 616 530 L 618 566 Q 619 707 648 774 Q 655 789 643 800 Q 621 819 579 831 Q 554 838 544 830 Q 534 823 542 810 Q 566 773 569 723 Q 573 638 571 554 L 570 520 Q 569 457 562 396 Q 561 374 557 351 L 551 314 Q 521 163 409 76 Q 372 48 321 19 Q 308 12 308 7 Q 309 3 322 3 Q 340 -1 385 16 Q 547 70 595 274 L 602 314 Z" fill="lightgray" class="stroke step8"/>
    <path d="M 595 274 Q 682 121 780 10 Q 802 -18 825 -18 Q 889 -9 944 -3 Q 968 -2 968 5 Q 969 12 942 26 Q 797 101 760 136 Q 655 241 602 314 C 584 338 580 300 595 274 Z" fill="lightgray" class="stroke step8"/></g></svg>