<svg version="1.1" viewBox="0 0 5120 1024" xmlns="http://www.w3.org/2000/svg">
  
  <g transform="scale(1, -1) translate(0, -900)" class="origin">
    <style type="text/css">
        .origin {display:none;}
        .hide {display:none;}
        .stroke {fill: #000000;}
        
.step1 {transform: translateX(1024px);}
.step2 {transform: translateX(2048px);}
.step3 {transform: translateX(3072px);}
.step4 {transform: translateX(4096px);}
.step5 {transform: translateX(5120px);}
.step6 {transform: translateX(6144px);}
.step7 {transform: translateX(7168px);}
.step8 {transform: translateX(8192px);}
.step9 {transform: translateX(9216px);}
.step10 {transform: translateX(10240px);}
.step11 {transform: translateX(11264px);}
.step12 {transform: translateX(12288px);}
.step13 {transform: translateX(13312px);}
.step14 {transform: translateX(14336px);}
.step15 {transform: translateX(15360px);}
.step16 {transform: translateX(16384px);}
.step17 {transform: translateX(17408px);}
.step18 {transform: translateX(18432px);}
.step19 {transform: translateX(19456px);}
.step20 {transform: translateX(20480px);}
.step21 {transform: translateX(21504px);}
.step22 {transform: translateX(22528px);}
.step23 {transform: translateX(23552px);}
.step24 {transform: translateX(24576px);}
.step25 {transform: translateX(25600px);}
.step26 {transform: translateX(26624px);}
.step27 {transform: translateX(27648px);}
.step28 {transform: translateX(28672px);}
.step29 {transform: translateX(29696px);}
    </style>

    <path d="M 521 610 Q 680 652 683 653 Q 693 662 688 671 Q 679 684 648 691 Q 618 697 523 663 L 475 648 Q 409 633 334 624 Q 294 617 323 599 Q 371 575 431 591 Q 450 597 476 600 L 521 610 Z" fill="lightgray"/>
    <path d="M 521 440 Q 530 441 775 459 Q 797 460 801 470 Q 807 483 788 496 Q 727 538 662 517 Q 602 504 520 484 L 476 475 Q 472 476 467 474 Q 341 450 192 424 Q 170 421 187 403 Q 223 373 263 386 Q 347 414 443 428 L 521 440 Z" fill="lightgray"/>
    <path d="M 520 484 Q 520 547 521 610 L 523 663 Q 527 724 540 770 Q 550 786 546 799 Q 539 809 481 845 Q 456 863 435 846 Q 429 840 436 825 Q 473 771 474 718 Q 474 684 475 648 L 476 600 Q 479 552 476 475 L 473 370 Q 469 178 464 145 Q 440 16 441 15 Q 447 -12 462 -45 Q 469 -64 477 -67 Q 484 -74 492 -65 Q 499 -61 510 -39 Q 520 -12 519 20 Q 518 66 518 402 L 520 484 Z" fill="lightgray"/>
    <path d="M 443 428 Q 356 263 120 91 Q 107 79 116 77 Q 143 67 238 128 Q 334 188 440 327 Q 461 355 473 370 C 527 439 465 468 443 428 Z" fill="lightgray"/>
    <path d="M 518 402 Q 614 258 739 105 Q 761 80 798 80 Q 925 79 966 85 Q 978 86 981 93 Q 981 100 964 108 Q 795 174 738 223 Q 638 313 521 440 L 519 440 C 496 460 501 427 518 402 Z" fill="lightgray"/></g>
<g transform="scale(1, -1) translate(0, -900)">
    <style type="text/css">
        .origin {display:none;}
        .hide {display:none;}
        .stroke {fill: #000000;}
        
.step1 {transform: translateX(1024px);}
.step2 {transform: translateX(2048px);}
.step3 {transform: translateX(3072px);}
.step4 {transform: translateX(4096px);}
.step5 {transform: translateX(5120px);}
.step6 {transform: translateX(6144px);}
.step7 {transform: translateX(7168px);}
.step8 {transform: translateX(8192px);}
.step9 {transform: translateX(9216px);}
.step10 {transform: translateX(10240px);}
.step11 {transform: translateX(11264px);}
.step12 {transform: translateX(12288px);}
.step13 {transform: translateX(13312px);}
.step14 {transform: translateX(14336px);}
.step15 {transform: translateX(15360px);}
.step16 {transform: translateX(16384px);}
.step17 {transform: translateX(17408px);}
.step18 {transform: translateX(18432px);}
.step19 {transform: translateX(19456px);}
.step20 {transform: translateX(20480px);}
.step21 {transform: translateX(21504px);}
.step22 {transform: translateX(22528px);}
.step23 {transform: translateX(23552px);}
.step24 {transform: translateX(24576px);}
.step25 {transform: translateX(25600px);}
.step26 {transform: translateX(26624px);}
.step27 {transform: translateX(27648px);}
.step28 {transform: translateX(28672px);}
.step29 {transform: translateX(29696px);}
    </style>

    <path d="M 521 610 Q 680 652 683 653 Q 693 662 688 671 Q 679 684 648 691 Q 618 697 523 663 L 475 648 Q 409 633 334 624 Q 294 617 323 599 Q 371 575 431 591 Q 450 597 476 600 L 521 610 Z" fill="lightgray" class="stroke step0"/>
    <path d="M 521 440 Q 530 441 775 459 Q 797 460 801 470 Q 807 483 788 496 Q 727 538 662 517 Q 602 504 520 484 L 476 475 Q 472 476 467 474 Q 341 450 192 424 Q 170 421 187 403 Q 223 373 263 386 Q 347 414 443 428 L 521 440 Z" fill="lightgray" class="hide"/>
    <path d="M 520 484 Q 520 547 521 610 L 523 663 Q 527 724 540 770 Q 550 786 546 799 Q 539 809 481 845 Q 456 863 435 846 Q 429 840 436 825 Q 473 771 474 718 Q 474 684 475 648 L 476 600 Q 479 552 476 475 L 473 370 Q 469 178 464 145 Q 440 16 441 15 Q 447 -12 462 -45 Q 469 -64 477 -67 Q 484 -74 492 -65 Q 499 -61 510 -39 Q 520 -12 519 20 Q 518 66 518 402 L 520 484 Z" fill="lightgray" class="hide"/>
    <path d="M 443 428 Q 356 263 120 91 Q 107 79 116 77 Q 143 67 238 128 Q 334 188 440 327 Q 461 355 473 370 C 527 439 465 468 443 428 Z" fill="lightgray" class="hide"/>
    <path d="M 518 402 Q 614 258 739 105 Q 761 80 798 80 Q 925 79 966 85 Q 978 86 981 93 Q 981 100 964 108 Q 795 174 738 223 Q 638 313 521 440 L 519 440 C 496 460 501 427 518 402 Z" fill="lightgray" class="hide"/></g><g transform="scale(1, -1) translate(0, -900)">
    <style type="text/css">
        .origin {display:none;}
        .hide {display:none;}
        .stroke {fill: #000000;}
        
.step1 {transform: translateX(1024px);}
.step2 {transform: translateX(2048px);}
.step3 {transform: translateX(3072px);}
.step4 {transform: translateX(4096px);}
.step5 {transform: translateX(5120px);}
.step6 {transform: translateX(6144px);}
.step7 {transform: translateX(7168px);}
.step8 {transform: translateX(8192px);}
.step9 {transform: translateX(9216px);}
.step10 {transform: translateX(10240px);}
.step11 {transform: translateX(11264px);}
.step12 {transform: translateX(12288px);}
.step13 {transform: translateX(13312px);}
.step14 {transform: translateX(14336px);}
.step15 {transform: translateX(15360px);}
.step16 {transform: translateX(16384px);}
.step17 {transform: translateX(17408px);}
.step18 {transform: translateX(18432px);}
.step19 {transform: translateX(19456px);}
.step20 {transform: translateX(20480px);}
.step21 {transform: translateX(21504px);}
.step22 {transform: translateX(22528px);}
.step23 {transform: translateX(23552px);}
.step24 {transform: translateX(24576px);}
.step25 {transform: translateX(25600px);}
.step26 {transform: translateX(26624px);}
.step27 {transform: translateX(27648px);}
.step28 {transform: translateX(28672px);}
.step29 {transform: translateX(29696px);}
    </style>

    <path d="M 521 610 Q 680 652 683 653 Q 693 662 688 671 Q 679 684 648 691 Q 618 697 523 663 L 475 648 Q 409 633 334 624 Q 294 617 323 599 Q 371 575 431 591 Q 450 597 476 600 L 521 610 Z" fill="lightgray" class="stroke step1"/>
    <path d="M 521 440 Q 530 441 775 459 Q 797 460 801 470 Q 807 483 788 496 Q 727 538 662 517 Q 602 504 520 484 L 476 475 Q 472 476 467 474 Q 341 450 192 424 Q 170 421 187 403 Q 223 373 263 386 Q 347 414 443 428 L 521 440 Z" fill="lightgray" class="stroke step1"/>
    <path d="M 520 484 Q 520 547 521 610 L 523 663 Q 527 724 540 770 Q 550 786 546 799 Q 539 809 481 845 Q 456 863 435 846 Q 429 840 436 825 Q 473 771 474 718 Q 474 684 475 648 L 476 600 Q 479 552 476 475 L 473 370 Q 469 178 464 145 Q 440 16 441 15 Q 447 -12 462 -45 Q 469 -64 477 -67 Q 484 -74 492 -65 Q 499 -61 510 -39 Q 520 -12 519 20 Q 518 66 518 402 L 520 484 Z" fill="lightgray" class="hide"/>
    <path d="M 443 428 Q 356 263 120 91 Q 107 79 116 77 Q 143 67 238 128 Q 334 188 440 327 Q 461 355 473 370 C 527 439 465 468 443 428 Z" fill="lightgray" class="hide"/>
    <path d="M 518 402 Q 614 258 739 105 Q 761 80 798 80 Q 925 79 966 85 Q 978 86 981 93 Q 981 100 964 108 Q 795 174 738 223 Q 638 313 521 440 L 519 440 C 496 460 501 427 518 402 Z" fill="lightgray" class="hide"/></g><g transform="scale(1, -1) translate(0, -900)">
    <style type="text/css">
        .origin {display:none;}
        .hide {display:none;}
        .stroke {fill: #000000;}
        
.step1 {transform: translateX(1024px);}
.step2 {transform: translateX(2048px);}
.step3 {transform: translateX(3072px);}
.step4 {transform: translateX(4096px);}
.step5 {transform: translateX(5120px);}
.step6 {transform: translateX(6144px);}
.step7 {transform: translateX(7168px);}
.step8 {transform: translateX(8192px);}
.step9 {transform: translateX(9216px);}
.step10 {transform: translateX(10240px);}
.step11 {transform: translateX(11264px);}
.step12 {transform: translateX(12288px);}
.step13 {transform: translateX(13312px);}
.step14 {transform: translateX(14336px);}
.step15 {transform: translateX(15360px);}
.step16 {transform: translateX(16384px);}
.step17 {transform: translateX(17408px);}
.step18 {transform: translateX(18432px);}
.step19 {transform: translateX(19456px);}
.step20 {transform: translateX(20480px);}
.step21 {transform: translateX(21504px);}
.step22 {transform: translateX(22528px);}
.step23 {transform: translateX(23552px);}
.step24 {transform: translateX(24576px);}
.step25 {transform: translateX(25600px);}
.step26 {transform: translateX(26624px);}
.step27 {transform: translateX(27648px);}
.step28 {transform: translateX(28672px);}
.step29 {transform: translateX(29696px);}
    </style>

    <path d="M 521 610 Q 680 652 683 653 Q 693 662 688 671 Q 679 684 648 691 Q 618 697 523 663 L 475 648 Q 409 633 334 624 Q 294 617 323 599 Q 371 575 431 591 Q 450 597 476 600 L 521 610 Z" fill="lightgray" class="stroke step2"/>
    <path d="M 521 440 Q 530 441 775 459 Q 797 460 801 470 Q 807 483 788 496 Q 727 538 662 517 Q 602 504 520 484 L 476 475 Q 472 476 467 474 Q 341 450 192 424 Q 170 421 187 403 Q 223 373 263 386 Q 347 414 443 428 L 521 440 Z" fill="lightgray" class="stroke step2"/>
    <path d="M 520 484 Q 520 547 521 610 L 523 663 Q 527 724 540 770 Q 550 786 546 799 Q 539 809 481 845 Q 456 863 435 846 Q 429 840 436 825 Q 473 771 474 718 Q 474 684 475 648 L 476 600 Q 479 552 476 475 L 473 370 Q 469 178 464 145 Q 440 16 441 15 Q 447 -12 462 -45 Q 469 -64 477 -67 Q 484 -74 492 -65 Q 499 -61 510 -39 Q 520 -12 519 20 Q 518 66 518 402 L 520 484 Z" fill="lightgray" class="stroke step2"/>
    <path d="M 443 428 Q 356 263 120 91 Q 107 79 116 77 Q 143 67 238 128 Q 334 188 440 327 Q 461 355 473 370 C 527 439 465 468 443 428 Z" fill="lightgray" class="hide"/>
    <path d="M 518 402 Q 614 258 739 105 Q 761 80 798 80 Q 925 79 966 85 Q 978 86 981 93 Q 981 100 964 108 Q 795 174 738 223 Q 638 313 521 440 L 519 440 C 496 460 501 427 518 402 Z" fill="lightgray" class="hide"/></g><g transform="scale(1, -1) translate(0, -900)">
    <style type="text/css">
        .origin {display:none;}
        .hide {display:none;}
        .stroke {fill: #000000;}
        
.step1 {transform: translateX(1024px);}
.step2 {transform: translateX(2048px);}
.step3 {transform: translateX(3072px);}
.step4 {transform: translateX(4096px);}
.step5 {transform: translateX(5120px);}
.step6 {transform: translateX(6144px);}
.step7 {transform: translateX(7168px);}
.step8 {transform: translateX(8192px);}
.step9 {transform: translateX(9216px);}
.step10 {transform: translateX(10240px);}
.step11 {transform: translateX(11264px);}
.step12 {transform: translateX(12288px);}
.step13 {transform: translateX(13312px);}
.step14 {transform: translateX(14336px);}
.step15 {transform: translateX(15360px);}
.step16 {transform: translateX(16384px);}
.step17 {transform: translateX(17408px);}
.step18 {transform: translateX(18432px);}
.step19 {transform: translateX(19456px);}
.step20 {transform: translateX(20480px);}
.step21 {transform: translateX(21504px);}
.step22 {transform: translateX(22528px);}
.step23 {transform: translateX(23552px);}
.step24 {transform: translateX(24576px);}
.step25 {transform: translateX(25600px);}
.step26 {transform: translateX(26624px);}
.step27 {transform: translateX(27648px);}
.step28 {transform: translateX(28672px);}
.step29 {transform: translateX(29696px);}
    </style>

    <path d="M 521 610 Q 680 652 683 653 Q 693 662 688 671 Q 679 684 648 691 Q 618 697 523 663 L 475 648 Q 409 633 334 624 Q 294 617 323 599 Q 371 575 431 591 Q 450 597 476 600 L 521 610 Z" fill="lightgray" class="stroke step3"/>
    <path d="M 521 440 Q 530 441 775 459 Q 797 460 801 470 Q 807 483 788 496 Q 727 538 662 517 Q 602 504 520 484 L 476 475 Q 472 476 467 474 Q 341 450 192 424 Q 170 421 187 403 Q 223 373 263 386 Q 347 414 443 428 L 521 440 Z" fill="lightgray" class="stroke step3"/>
    <path d="M 520 484 Q 520 547 521 610 L 523 663 Q 527 724 540 770 Q 550 786 546 799 Q 539 809 481 845 Q 456 863 435 846 Q 429 840 436 825 Q 473 771 474 718 Q 474 684 475 648 L 476 600 Q 479 552 476 475 L 473 370 Q 469 178 464 145 Q 440 16 441 15 Q 447 -12 462 -45 Q 469 -64 477 -67 Q 484 -74 492 -65 Q 499 -61 510 -39 Q 520 -12 519 20 Q 518 66 518 402 L 520 484 Z" fill="lightgray" class="stroke step3"/>
    <path d="M 443 428 Q 356 263 120 91 Q 107 79 116 77 Q 143 67 238 128 Q 334 188 440 327 Q 461 355 473 370 C 527 439 465 468 443 428 Z" fill="lightgray" class="stroke step3"/>
    <path d="M 518 402 Q 614 258 739 105 Q 761 80 798 80 Q 925 79 966 85 Q 978 86 981 93 Q 981 100 964 108 Q 795 174 738 223 Q 638 313 521 440 L 519 440 C 496 460 501 427 518 402 Z" fill="lightgray" class="hide"/></g><g transform="scale(1, -1) translate(0, -900)">
    <style type="text/css">
        .origin {display:none;}
        .hide {display:none;}
        .stroke {fill: #000000;}
        
.step1 {transform: translateX(1024px);}
.step2 {transform: translateX(2048px);}
.step3 {transform: translateX(3072px);}
.step4 {transform: translateX(4096px);}
.step5 {transform: translateX(5120px);}
.step6 {transform: translateX(6144px);}
.step7 {transform: translateX(7168px);}
.step8 {transform: translateX(8192px);}
.step9 {transform: translateX(9216px);}
.step10 {transform: translateX(10240px);}
.step11 {transform: translateX(11264px);}
.step12 {transform: translateX(12288px);}
.step13 {transform: translateX(13312px);}
.step14 {transform: translateX(14336px);}
.step15 {transform: translateX(15360px);}
.step16 {transform: translateX(16384px);}
.step17 {transform: translateX(17408px);}
.step18 {transform: translateX(18432px);}
.step19 {transform: translateX(19456px);}
.step20 {transform: translateX(20480px);}
.step21 {transform: translateX(21504px);}
.step22 {transform: translateX(22528px);}
.step23 {transform: translateX(23552px);}
.step24 {transform: translateX(24576px);}
.step25 {transform: translateX(25600px);}
.step26 {transform: translateX(26624px);}
.step27 {transform: translateX(27648px);}
.step28 {transform: translateX(28672px);}
.step29 {transform: translateX(29696px);}
    </style>

    <path d="M 521 610 Q 680 652 683 653 Q 693 662 688 671 Q 679 684 648 691 Q 618 697 523 663 L 475 648 Q 409 633 334 624 Q 294 617 323 599 Q 371 575 431 591 Q 450 597 476 600 L 521 610 Z" fill="lightgray" class="stroke step4"/>
    <path d="M 521 440 Q 530 441 775 459 Q 797 460 801 470 Q 807 483 788 496 Q 727 538 662 517 Q 602 504 520 484 L 476 475 Q 472 476 467 474 Q 341 450 192 424 Q 170 421 187 403 Q 223 373 263 386 Q 347 414 443 428 L 521 440 Z" fill="lightgray" class="stroke step4"/>
    <path d="M 520 484 Q 520 547 521 610 L 523 663 Q 527 724 540 770 Q 550 786 546 799 Q 539 809 481 845 Q 456 863 435 846 Q 429 840 436 825 Q 473 771 474 718 Q 474 684 475 648 L 476 600 Q 479 552 476 475 L 473 370 Q 469 178 464 145 Q 440 16 441 15 Q 447 -12 462 -45 Q 469 -64 477 -67 Q 484 -74 492 -65 Q 499 -61 510 -39 Q 520 -12 519 20 Q 518 66 518 402 L 520 484 Z" fill="lightgray" class="stroke step4"/>
    <path d="M 443 428 Q 356 263 120 91 Q 107 79 116 77 Q 143 67 238 128 Q 334 188 440 327 Q 461 355 473 370 C 527 439 465 468 443 428 Z" fill="lightgray" class="stroke step4"/>
    <path d="M 518 402 Q 614 258 739 105 Q 761 80 798 80 Q 925 79 966 85 Q 978 86 981 93 Q 981 100 964 108 Q 795 174 738 223 Q 638 313 521 440 L 519 440 C 496 460 501 427 518 402 Z" fill="lightgray" class="stroke step4"/></g></svg>