<svg version="1.1" viewBox="0 0 4096 1024" xmlns="http://www.w3.org/2000/svg">
  
  <g transform="scale(1, -1) translate(0, -900)" class="origin">
    <style type="text/css">
        .origin {display:none;}
        .hide {display:none;}
        .stroke {fill: #000000;}
        
.step1 {transform: translateX(1024px);}
.step2 {transform: translateX(2048px);}
.step3 {transform: translateX(3072px);}
.step4 {transform: translateX(4096px);}
.step5 {transform: translateX(5120px);}
.step6 {transform: translateX(6144px);}
.step7 {transform: translateX(7168px);}
.step8 {transform: translateX(8192px);}
.step9 {transform: translateX(9216px);}
.step10 {transform: translateX(10240px);}
.step11 {transform: translateX(11264px);}
.step12 {transform: translateX(12288px);}
.step13 {transform: translateX(13312px);}
.step14 {transform: translateX(14336px);}
.step15 {transform: translateX(15360px);}
.step16 {transform: translateX(16384px);}
.step17 {transform: translateX(17408px);}
.step18 {transform: translateX(18432px);}
.step19 {transform: translateX(19456px);}
.step20 {transform: translateX(20480px);}
.step21 {transform: translateX(21504px);}
.step22 {transform: translateX(22528px);}
.step23 {transform: translateX(23552px);}
.step24 {transform: translateX(24576px);}
.step25 {transform: translateX(25600px);}
.step26 {transform: translateX(26624px);}
.step27 {transform: translateX(27648px);}
.step28 {transform: translateX(28672px);}
.step29 {transform: translateX(29696px);}
    </style>

    <path d="M 484 690 Q 610 747 649 755 Q 668 756 671 764 Q 675 776 662 787 Q 640 803 592 822 Q 576 829 562 828 Q 553 824 553 812 Q 553 764 303 649 C 276 636 278 622 307 630 Q 364 645 436 673 L 484 690 Z" fill="lightgray"/>
    <path d="M 303 649 Q 296 664 237 680 Q 218 683 212 677 Q 205 670 217 650 Q 245 610 252 512 Q 259 212 193 121 Q 186 112 179 103 Q 166 90 174 66 Q 184 35 200 21 Q 213 11 228 27 Q 280 90 437 220 Q 455 232 456 242 Q 459 249 451 248 Q 439 247 309 170 Q 297 164 294 168 Q 285 172 287 195 Q 300 583 307 625 Q 307 628 307 630 L 303 649 Z" fill="lightgray"/>
    <path d="M 555 438 Q 619 457 693 476 Q 748 492 757 501 Q 766 511 760 519 Q 751 532 720 538 Q 687 542 656 527 Q 599 505 540 483 L 497 470 Q 430 454 356 441 Q 317 432 346 415 Q 394 396 471 416 Q 489 422 511 426 L 555 438 Z" fill="lightgray"/>
    <path d="M 511 426 Q 574 237 699 101 Q 744 50 801 11 Q 862 -26 899 -33 Q 927 -30 922 6 Q 912 42 920 206 Q 920 219 914 221 Q 908 222 904 208 Q 888 171 875 133 Q 856 84 839 85 Q 814 86 761 131 Q 706 174 657 246 Q 585 351 555 438 L 540 483 Q 516 574 534 637 Q 540 659 496 684 Q 490 688 484 690 C 458 705 421 699 436 673 Q 458 645 467 596 Q 480 529 497 470 L 511 426 Z" fill="lightgray"/></g>
<g transform="scale(1, -1) translate(0, -900)">
    <style type="text/css">
        .origin {display:none;}
        .hide {display:none;}
        .stroke {fill: #000000;}
        
.step1 {transform: translateX(1024px);}
.step2 {transform: translateX(2048px);}
.step3 {transform: translateX(3072px);}
.step4 {transform: translateX(4096px);}
.step5 {transform: translateX(5120px);}
.step6 {transform: translateX(6144px);}
.step7 {transform: translateX(7168px);}
.step8 {transform: translateX(8192px);}
.step9 {transform: translateX(9216px);}
.step10 {transform: translateX(10240px);}
.step11 {transform: translateX(11264px);}
.step12 {transform: translateX(12288px);}
.step13 {transform: translateX(13312px);}
.step14 {transform: translateX(14336px);}
.step15 {transform: translateX(15360px);}
.step16 {transform: translateX(16384px);}
.step17 {transform: translateX(17408px);}
.step18 {transform: translateX(18432px);}
.step19 {transform: translateX(19456px);}
.step20 {transform: translateX(20480px);}
.step21 {transform: translateX(21504px);}
.step22 {transform: translateX(22528px);}
.step23 {transform: translateX(23552px);}
.step24 {transform: translateX(24576px);}
.step25 {transform: translateX(25600px);}
.step26 {transform: translateX(26624px);}
.step27 {transform: translateX(27648px);}
.step28 {transform: translateX(28672px);}
.step29 {transform: translateX(29696px);}
    </style>

    <path d="M 484 690 Q 610 747 649 755 Q 668 756 671 764 Q 675 776 662 787 Q 640 803 592 822 Q 576 829 562 828 Q 553 824 553 812 Q 553 764 303 649 C 276 636 278 622 307 630 Q 364 645 436 673 L 484 690 Z" fill="lightgray" class="stroke step0"/>
    <path d="M 303 649 Q 296 664 237 680 Q 218 683 212 677 Q 205 670 217 650 Q 245 610 252 512 Q 259 212 193 121 Q 186 112 179 103 Q 166 90 174 66 Q 184 35 200 21 Q 213 11 228 27 Q 280 90 437 220 Q 455 232 456 242 Q 459 249 451 248 Q 439 247 309 170 Q 297 164 294 168 Q 285 172 287 195 Q 300 583 307 625 Q 307 628 307 630 L 303 649 Z" fill="lightgray" class="hide"/>
    <path d="M 555 438 Q 619 457 693 476 Q 748 492 757 501 Q 766 511 760 519 Q 751 532 720 538 Q 687 542 656 527 Q 599 505 540 483 L 497 470 Q 430 454 356 441 Q 317 432 346 415 Q 394 396 471 416 Q 489 422 511 426 L 555 438 Z" fill="lightgray" class="hide"/>
    <path d="M 511 426 Q 574 237 699 101 Q 744 50 801 11 Q 862 -26 899 -33 Q 927 -30 922 6 Q 912 42 920 206 Q 920 219 914 221 Q 908 222 904 208 Q 888 171 875 133 Q 856 84 839 85 Q 814 86 761 131 Q 706 174 657 246 Q 585 351 555 438 L 540 483 Q 516 574 534 637 Q 540 659 496 684 Q 490 688 484 690 C 458 705 421 699 436 673 Q 458 645 467 596 Q 480 529 497 470 L 511 426 Z" fill="lightgray" class="hide"/></g><g transform="scale(1, -1) translate(0, -900)">
    <style type="text/css">
        .origin {display:none;}
        .hide {display:none;}
        .stroke {fill: #000000;}
        
.step1 {transform: translateX(1024px);}
.step2 {transform: translateX(2048px);}
.step3 {transform: translateX(3072px);}
.step4 {transform: translateX(4096px);}
.step5 {transform: translateX(5120px);}
.step6 {transform: translateX(6144px);}
.step7 {transform: translateX(7168px);}
.step8 {transform: translateX(8192px);}
.step9 {transform: translateX(9216px);}
.step10 {transform: translateX(10240px);}
.step11 {transform: translateX(11264px);}
.step12 {transform: translateX(12288px);}
.step13 {transform: translateX(13312px);}
.step14 {transform: translateX(14336px);}
.step15 {transform: translateX(15360px);}
.step16 {transform: translateX(16384px);}
.step17 {transform: translateX(17408px);}
.step18 {transform: translateX(18432px);}
.step19 {transform: translateX(19456px);}
.step20 {transform: translateX(20480px);}
.step21 {transform: translateX(21504px);}
.step22 {transform: translateX(22528px);}
.step23 {transform: translateX(23552px);}
.step24 {transform: translateX(24576px);}
.step25 {transform: translateX(25600px);}
.step26 {transform: translateX(26624px);}
.step27 {transform: translateX(27648px);}
.step28 {transform: translateX(28672px);}
.step29 {transform: translateX(29696px);}
    </style>

    <path d="M 484 690 Q 610 747 649 755 Q 668 756 671 764 Q 675 776 662 787 Q 640 803 592 822 Q 576 829 562 828 Q 553 824 553 812 Q 553 764 303 649 C 276 636 278 622 307 630 Q 364 645 436 673 L 484 690 Z" fill="lightgray" class="stroke step1"/>
    <path d="M 303 649 Q 296 664 237 680 Q 218 683 212 677 Q 205 670 217 650 Q 245 610 252 512 Q 259 212 193 121 Q 186 112 179 103 Q 166 90 174 66 Q 184 35 200 21 Q 213 11 228 27 Q 280 90 437 220 Q 455 232 456 242 Q 459 249 451 248 Q 439 247 309 170 Q 297 164 294 168 Q 285 172 287 195 Q 300 583 307 625 Q 307 628 307 630 L 303 649 Z" fill="lightgray" class="stroke step1"/>
    <path d="M 555 438 Q 619 457 693 476 Q 748 492 757 501 Q 766 511 760 519 Q 751 532 720 538 Q 687 542 656 527 Q 599 505 540 483 L 497 470 Q 430 454 356 441 Q 317 432 346 415 Q 394 396 471 416 Q 489 422 511 426 L 555 438 Z" fill="lightgray" class="hide"/>
    <path d="M 511 426 Q 574 237 699 101 Q 744 50 801 11 Q 862 -26 899 -33 Q 927 -30 922 6 Q 912 42 920 206 Q 920 219 914 221 Q 908 222 904 208 Q 888 171 875 133 Q 856 84 839 85 Q 814 86 761 131 Q 706 174 657 246 Q 585 351 555 438 L 540 483 Q 516 574 534 637 Q 540 659 496 684 Q 490 688 484 690 C 458 705 421 699 436 673 Q 458 645 467 596 Q 480 529 497 470 L 511 426 Z" fill="lightgray" class="hide"/></g><g transform="scale(1, -1) translate(0, -900)">
    <style type="text/css">
        .origin {display:none;}
        .hide {display:none;}
        .stroke {fill: #000000;}
        
.step1 {transform: translateX(1024px);}
.step2 {transform: translateX(2048px);}
.step3 {transform: translateX(3072px);}
.step4 {transform: translateX(4096px);}
.step5 {transform: translateX(5120px);}
.step6 {transform: translateX(6144px);}
.step7 {transform: translateX(7168px);}
.step8 {transform: translateX(8192px);}
.step9 {transform: translateX(9216px);}
.step10 {transform: translateX(10240px);}
.step11 {transform: translateX(11264px);}
.step12 {transform: translateX(12288px);}
.step13 {transform: translateX(13312px);}
.step14 {transform: translateX(14336px);}
.step15 {transform: translateX(15360px);}
.step16 {transform: translateX(16384px);}
.step17 {transform: translateX(17408px);}
.step18 {transform: translateX(18432px);}
.step19 {transform: translateX(19456px);}
.step20 {transform: translateX(20480px);}
.step21 {transform: translateX(21504px);}
.step22 {transform: translateX(22528px);}
.step23 {transform: translateX(23552px);}
.step24 {transform: translateX(24576px);}
.step25 {transform: translateX(25600px);}
.step26 {transform: translateX(26624px);}
.step27 {transform: translateX(27648px);}
.step28 {transform: translateX(28672px);}
.step29 {transform: translateX(29696px);}
    </style>

    <path d="M 484 690 Q 610 747 649 755 Q 668 756 671 764 Q 675 776 662 787 Q 640 803 592 822 Q 576 829 562 828 Q 553 824 553 812 Q 553 764 303 649 C 276 636 278 622 307 630 Q 364 645 436 673 L 484 690 Z" fill="lightgray" class="stroke step2"/>
    <path d="M 303 649 Q 296 664 237 680 Q 218 683 212 677 Q 205 670 217 650 Q 245 610 252 512 Q 259 212 193 121 Q 186 112 179 103 Q 166 90 174 66 Q 184 35 200 21 Q 213 11 228 27 Q 280 90 437 220 Q 455 232 456 242 Q 459 249 451 248 Q 439 247 309 170 Q 297 164 294 168 Q 285 172 287 195 Q 300 583 307 625 Q 307 628 307 630 L 303 649 Z" fill="lightgray" class="stroke step2"/>
    <path d="M 555 438 Q 619 457 693 476 Q 748 492 757 501 Q 766 511 760 519 Q 751 532 720 538 Q 687 542 656 527 Q 599 505 540 483 L 497 470 Q 430 454 356 441 Q 317 432 346 415 Q 394 396 471 416 Q 489 422 511 426 L 555 438 Z" fill="lightgray" class="stroke step2"/>
    <path d="M 511 426 Q 574 237 699 101 Q 744 50 801 11 Q 862 -26 899 -33 Q 927 -30 922 6 Q 912 42 920 206 Q 920 219 914 221 Q 908 222 904 208 Q 888 171 875 133 Q 856 84 839 85 Q 814 86 761 131 Q 706 174 657 246 Q 585 351 555 438 L 540 483 Q 516 574 534 637 Q 540 659 496 684 Q 490 688 484 690 C 458 705 421 699 436 673 Q 458 645 467 596 Q 480 529 497 470 L 511 426 Z" fill="lightgray" class="hide"/></g><g transform="scale(1, -1) translate(0, -900)">
    <style type="text/css">
        .origin {display:none;}
        .hide {display:none;}
        .stroke {fill: #000000;}
        
.step1 {transform: translateX(1024px);}
.step2 {transform: translateX(2048px);}
.step3 {transform: translateX(3072px);}
.step4 {transform: translateX(4096px);}
.step5 {transform: translateX(5120px);}
.step6 {transform: translateX(6144px);}
.step7 {transform: translateX(7168px);}
.step8 {transform: translateX(8192px);}
.step9 {transform: translateX(9216px);}
.step10 {transform: translateX(10240px);}
.step11 {transform: translateX(11264px);}
.step12 {transform: translateX(12288px);}
.step13 {transform: translateX(13312px);}
.step14 {transform: translateX(14336px);}
.step15 {transform: translateX(15360px);}
.step16 {transform: translateX(16384px);}
.step17 {transform: translateX(17408px);}
.step18 {transform: translateX(18432px);}
.step19 {transform: translateX(19456px);}
.step20 {transform: translateX(20480px);}
.step21 {transform: translateX(21504px);}
.step22 {transform: translateX(22528px);}
.step23 {transform: translateX(23552px);}
.step24 {transform: translateX(24576px);}
.step25 {transform: translateX(25600px);}
.step26 {transform: translateX(26624px);}
.step27 {transform: translateX(27648px);}
.step28 {transform: translateX(28672px);}
.step29 {transform: translateX(29696px);}
    </style>

    <path d="M 484 690 Q 610 747 649 755 Q 668 756 671 764 Q 675 776 662 787 Q 640 803 592 822 Q 576 829 562 828 Q 553 824 553 812 Q 553 764 303 649 C 276 636 278 622 307 630 Q 364 645 436 673 L 484 690 Z" fill="lightgray" class="stroke step3"/>
    <path d="M 303 649 Q 296 664 237 680 Q 218 683 212 677 Q 205 670 217 650 Q 245 610 252 512 Q 259 212 193 121 Q 186 112 179 103 Q 166 90 174 66 Q 184 35 200 21 Q 213 11 228 27 Q 280 90 437 220 Q 455 232 456 242 Q 459 249 451 248 Q 439 247 309 170 Q 297 164 294 168 Q 285 172 287 195 Q 300 583 307 625 Q 307 628 307 630 L 303 649 Z" fill="lightgray" class="stroke step3"/>
    <path d="M 555 438 Q 619 457 693 476 Q 748 492 757 501 Q 766 511 760 519 Q 751 532 720 538 Q 687 542 656 527 Q 599 505 540 483 L 497 470 Q 430 454 356 441 Q 317 432 346 415 Q 394 396 471 416 Q 489 422 511 426 L 555 438 Z" fill="lightgray" class="stroke step3"/>
    <path d="M 511 426 Q 574 237 699 101 Q 744 50 801 11 Q 862 -26 899 -33 Q 927 -30 922 6 Q 912 42 920 206 Q 920 219 914 221 Q 908 222 904 208 Q 888 171 875 133 Q 856 84 839 85 Q 814 86 761 131 Q 706 174 657 246 Q 585 351 555 438 L 540 483 Q 516 574 534 637 Q 540 659 496 684 Q 490 688 484 690 C 458 705 421 699 436 673 Q 458 645 467 596 Q 480 529 497 470 L 511 426 Z" fill="lightgray" class="stroke step3"/></g></svg>