<svg version="1.1" viewBox="0 0 9216 1024" xmlns="http://www.w3.org/2000/svg">
  
  <g transform="scale(1, -1) translate(0, -900)" class="origin">
    <style type="text/css">
        .origin {display:none;}
        .hide {display:none;}
        .stroke {fill: #000000;}
        
.step1 {transform: translateX(1024px);}
.step2 {transform: translateX(2048px);}
.step3 {transform: translateX(3072px);}
.step4 {transform: translateX(4096px);}
.step5 {transform: translateX(5120px);}
.step6 {transform: translateX(6144px);}
.step7 {transform: translateX(7168px);}
.step8 {transform: translateX(8192px);}
.step9 {transform: translateX(9216px);}
.step10 {transform: translateX(10240px);}
.step11 {transform: translateX(11264px);}
.step12 {transform: translateX(12288px);}
.step13 {transform: translateX(13312px);}
.step14 {transform: translateX(14336px);}
.step15 {transform: translateX(15360px);}
.step16 {transform: translateX(16384px);}
.step17 {transform: translateX(17408px);}
.step18 {transform: translateX(18432px);}
.step19 {transform: translateX(19456px);}
.step20 {transform: translateX(20480px);}
.step21 {transform: translateX(21504px);}
.step22 {transform: translateX(22528px);}
.step23 {transform: translateX(23552px);}
.step24 {transform: translateX(24576px);}
.step25 {transform: translateX(25600px);}
.step26 {transform: translateX(26624px);}
.step27 {transform: translateX(27648px);}
.step28 {transform: translateX(28672px);}
.step29 {transform: translateX(29696px);}
    </style>

    <path d="M 202 713 Q 233 689 265 661 Q 281 648 297 649 Q 307 650 313 664 Q 317 680 306 711 Q 294 744 195 763 Q 179 767 172 763 Q 166 759 169 745 Q 173 735 202 713 Z" fill="lightgray"/>
    <path d="M 109 513 Q 152 455 188 436 Q 204 432 215 445 Q 222 458 221 476 Q 209 528 127 552 L 126 553 Q 108 560 98 556 Q 91 555 93 542 Q 94 529 109 513 Z" fill="lightgray"/>
    <path d="M 103 150 Q 90 147 91 129 Q 104 48 136 30 Q 142 23 153 24 Q 162 25 164 51 Q 176 111 311 391 Q 320 407 319 414 Q 318 424 309 418 Q 294 409 153 199 Q 137 174 103 150 Z" fill="lightgray"/>
    <path d="M 372 588 Q 353 601 330 608 Q 323 612 316 606 Q 307 600 317 587 Q 374 473 366 213 Q 363 141 406 108 L 408 107 Q 427 100 430 135 Q 431 145 431 154 L 427 196 Q 408 325 407 547 C 407 567 398 572 372 588 Z" fill="lightgray"/>
    <path d="M 714 169 Q 726 141 750 94 Q 760 75 771 76 Q 789 80 799 108 Q 844 199 848 320 Q 855 396 862 484 Q 868 539 894 572 Q 913 594 899 609 Q 874 634 822 657 Q 801 667 764 655 Q 611 604 372 588 C 342 586 377 544 407 547 Q 416 546 425 548 Q 546 572 738 600 Q 772 606 786 590 Q 798 571 799 548 Q 798 388 766 230 Q 763 202 751 200 Q 747 196 722 210 C 693 219 702 196 714 169 Z" fill="lightgray"/>
    <path d="M 515 463 Q 505 467 478 472 Q 468 475 464 470 Q 460 464 467 450 Q 489 408 505 340 Q 509 319 521 306 Q 537 287 542 301 Q 545 310 544 324 L 540 354 Q 530 418 528 438 C 526 459 526 459 515 463 Z" fill="lightgray"/>
    <path d="M 664 366 Q 683 420 703 435 Q 724 457 704 470 Q 688 480 665 498 Q 647 510 606 486 Q 579 477 515 463 C 486 457 498 436 528 438 Q 535 438 545 440 Q 630 458 637 448 Q 640 444 620 371 C 612 342 654 338 664 366 Z" fill="lightgray"/>
    <path d="M 544 324 Q 550 324 557 325 Q 594 332 674 338 Q 683 339 684 346 Q 684 353 664 366 C 652 374 650 374 620 371 Q 619 372 617 371 Q 575 361 540 354 C 511 348 514 323 544 324 Z" fill="lightgray"/>
    <path d="M 431 154 Q 444 151 459 153 Q 541 166 714 169 C 744 170 745 191 722 210 Q 698 234 651 225 Q 525 203 427 196 C 397 194 401 159 431 154 Z" fill="lightgray"/></g>
<g transform="scale(1, -1) translate(0, -900)">
    <style type="text/css">
        .origin {display:none;}
        .hide {display:none;}
        .stroke {fill: #000000;}
        
.step1 {transform: translateX(1024px);}
.step2 {transform: translateX(2048px);}
.step3 {transform: translateX(3072px);}
.step4 {transform: translateX(4096px);}
.step5 {transform: translateX(5120px);}
.step6 {transform: translateX(6144px);}
.step7 {transform: translateX(7168px);}
.step8 {transform: translateX(8192px);}
.step9 {transform: translateX(9216px);}
.step10 {transform: translateX(10240px);}
.step11 {transform: translateX(11264px);}
.step12 {transform: translateX(12288px);}
.step13 {transform: translateX(13312px);}
.step14 {transform: translateX(14336px);}
.step15 {transform: translateX(15360px);}
.step16 {transform: translateX(16384px);}
.step17 {transform: translateX(17408px);}
.step18 {transform: translateX(18432px);}
.step19 {transform: translateX(19456px);}
.step20 {transform: translateX(20480px);}
.step21 {transform: translateX(21504px);}
.step22 {transform: translateX(22528px);}
.step23 {transform: translateX(23552px);}
.step24 {transform: translateX(24576px);}
.step25 {transform: translateX(25600px);}
.step26 {transform: translateX(26624px);}
.step27 {transform: translateX(27648px);}
.step28 {transform: translateX(28672px);}
.step29 {transform: translateX(29696px);}
    </style>

    <path d="M 202 713 Q 233 689 265 661 Q 281 648 297 649 Q 307 650 313 664 Q 317 680 306 711 Q 294 744 195 763 Q 179 767 172 763 Q 166 759 169 745 Q 173 735 202 713 Z" fill="lightgray" class="stroke step0"/>
    <path d="M 109 513 Q 152 455 188 436 Q 204 432 215 445 Q 222 458 221 476 Q 209 528 127 552 L 126 553 Q 108 560 98 556 Q 91 555 93 542 Q 94 529 109 513 Z" fill="lightgray" class="hide"/>
    <path d="M 103 150 Q 90 147 91 129 Q 104 48 136 30 Q 142 23 153 24 Q 162 25 164 51 Q 176 111 311 391 Q 320 407 319 414 Q 318 424 309 418 Q 294 409 153 199 Q 137 174 103 150 Z" fill="lightgray" class="hide"/>
    <path d="M 372 588 Q 353 601 330 608 Q 323 612 316 606 Q 307 600 317 587 Q 374 473 366 213 Q 363 141 406 108 L 408 107 Q 427 100 430 135 Q 431 145 431 154 L 427 196 Q 408 325 407 547 C 407 567 398 572 372 588 Z" fill="lightgray" class="hide"/>
    <path d="M 714 169 Q 726 141 750 94 Q 760 75 771 76 Q 789 80 799 108 Q 844 199 848 320 Q 855 396 862 484 Q 868 539 894 572 Q 913 594 899 609 Q 874 634 822 657 Q 801 667 764 655 Q 611 604 372 588 C 342 586 377 544 407 547 Q 416 546 425 548 Q 546 572 738 600 Q 772 606 786 590 Q 798 571 799 548 Q 798 388 766 230 Q 763 202 751 200 Q 747 196 722 210 C 693 219 702 196 714 169 Z" fill="lightgray" class="hide"/>
    <path d="M 515 463 Q 505 467 478 472 Q 468 475 464 470 Q 460 464 467 450 Q 489 408 505 340 Q 509 319 521 306 Q 537 287 542 301 Q 545 310 544 324 L 540 354 Q 530 418 528 438 C 526 459 526 459 515 463 Z" fill="lightgray" class="hide"/>
    <path d="M 664 366 Q 683 420 703 435 Q 724 457 704 470 Q 688 480 665 498 Q 647 510 606 486 Q 579 477 515 463 C 486 457 498 436 528 438 Q 535 438 545 440 Q 630 458 637 448 Q 640 444 620 371 C 612 342 654 338 664 366 Z" fill="lightgray" class="hide"/>
    <path d="M 544 324 Q 550 324 557 325 Q 594 332 674 338 Q 683 339 684 346 Q 684 353 664 366 C 652 374 650 374 620 371 Q 619 372 617 371 Q 575 361 540 354 C 511 348 514 323 544 324 Z" fill="lightgray" class="hide"/>
    <path d="M 431 154 Q 444 151 459 153 Q 541 166 714 169 C 744 170 745 191 722 210 Q 698 234 651 225 Q 525 203 427 196 C 397 194 401 159 431 154 Z" fill="lightgray" class="hide"/></g><g transform="scale(1, -1) translate(0, -900)">
    <style type="text/css">
        .origin {display:none;}
        .hide {display:none;}
        .stroke {fill: #000000;}
        
.step1 {transform: translateX(1024px);}
.step2 {transform: translateX(2048px);}
.step3 {transform: translateX(3072px);}
.step4 {transform: translateX(4096px);}
.step5 {transform: translateX(5120px);}
.step6 {transform: translateX(6144px);}
.step7 {transform: translateX(7168px);}
.step8 {transform: translateX(8192px);}
.step9 {transform: translateX(9216px);}
.step10 {transform: translateX(10240px);}
.step11 {transform: translateX(11264px);}
.step12 {transform: translateX(12288px);}
.step13 {transform: translateX(13312px);}
.step14 {transform: translateX(14336px);}
.step15 {transform: translateX(15360px);}
.step16 {transform: translateX(16384px);}
.step17 {transform: translateX(17408px);}
.step18 {transform: translateX(18432px);}
.step19 {transform: translateX(19456px);}
.step20 {transform: translateX(20480px);}
.step21 {transform: translateX(21504px);}
.step22 {transform: translateX(22528px);}
.step23 {transform: translateX(23552px);}
.step24 {transform: translateX(24576px);}
.step25 {transform: translateX(25600px);}
.step26 {transform: translateX(26624px);}
.step27 {transform: translateX(27648px);}
.step28 {transform: translateX(28672px);}
.step29 {transform: translateX(29696px);}
    </style>

    <path d="M 202 713 Q 233 689 265 661 Q 281 648 297 649 Q 307 650 313 664 Q 317 680 306 711 Q 294 744 195 763 Q 179 767 172 763 Q 166 759 169 745 Q 173 735 202 713 Z" fill="lightgray" class="stroke step1"/>
    <path d="M 109 513 Q 152 455 188 436 Q 204 432 215 445 Q 222 458 221 476 Q 209 528 127 552 L 126 553 Q 108 560 98 556 Q 91 555 93 542 Q 94 529 109 513 Z" fill="lightgray" class="stroke step1"/>
    <path d="M 103 150 Q 90 147 91 129 Q 104 48 136 30 Q 142 23 153 24 Q 162 25 164 51 Q 176 111 311 391 Q 320 407 319 414 Q 318 424 309 418 Q 294 409 153 199 Q 137 174 103 150 Z" fill="lightgray" class="hide"/>
    <path d="M 372 588 Q 353 601 330 608 Q 323 612 316 606 Q 307 600 317 587 Q 374 473 366 213 Q 363 141 406 108 L 408 107 Q 427 100 430 135 Q 431 145 431 154 L 427 196 Q 408 325 407 547 C 407 567 398 572 372 588 Z" fill="lightgray" class="hide"/>
    <path d="M 714 169 Q 726 141 750 94 Q 760 75 771 76 Q 789 80 799 108 Q 844 199 848 320 Q 855 396 862 484 Q 868 539 894 572 Q 913 594 899 609 Q 874 634 822 657 Q 801 667 764 655 Q 611 604 372 588 C 342 586 377 544 407 547 Q 416 546 425 548 Q 546 572 738 600 Q 772 606 786 590 Q 798 571 799 548 Q 798 388 766 230 Q 763 202 751 200 Q 747 196 722 210 C 693 219 702 196 714 169 Z" fill="lightgray" class="hide"/>
    <path d="M 515 463 Q 505 467 478 472 Q 468 475 464 470 Q 460 464 467 450 Q 489 408 505 340 Q 509 319 521 306 Q 537 287 542 301 Q 545 310 544 324 L 540 354 Q 530 418 528 438 C 526 459 526 459 515 463 Z" fill="lightgray" class="hide"/>
    <path d="M 664 366 Q 683 420 703 435 Q 724 457 704 470 Q 688 480 665 498 Q 647 510 606 486 Q 579 477 515 463 C 486 457 498 436 528 438 Q 535 438 545 440 Q 630 458 637 448 Q 640 444 620 371 C 612 342 654 338 664 366 Z" fill="lightgray" class="hide"/>
    <path d="M 544 324 Q 550 324 557 325 Q 594 332 674 338 Q 683 339 684 346 Q 684 353 664 366 C 652 374 650 374 620 371 Q 619 372 617 371 Q 575 361 540 354 C 511 348 514 323 544 324 Z" fill="lightgray" class="hide"/>
    <path d="M 431 154 Q 444 151 459 153 Q 541 166 714 169 C 744 170 745 191 722 210 Q 698 234 651 225 Q 525 203 427 196 C 397 194 401 159 431 154 Z" fill="lightgray" class="hide"/></g><g transform="scale(1, -1) translate(0, -900)">
    <style type="text/css">
        .origin {display:none;}
        .hide {display:none;}
        .stroke {fill: #000000;}
        
.step1 {transform: translateX(1024px);}
.step2 {transform: translateX(2048px);}
.step3 {transform: translateX(3072px);}
.step4 {transform: translateX(4096px);}
.step5 {transform: translateX(5120px);}
.step6 {transform: translateX(6144px);}
.step7 {transform: translateX(7168px);}
.step8 {transform: translateX(8192px);}
.step9 {transform: translateX(9216px);}
.step10 {transform: translateX(10240px);}
.step11 {transform: translateX(11264px);}
.step12 {transform: translateX(12288px);}
.step13 {transform: translateX(13312px);}
.step14 {transform: translateX(14336px);}
.step15 {transform: translateX(15360px);}
.step16 {transform: translateX(16384px);}
.step17 {transform: translateX(17408px);}
.step18 {transform: translateX(18432px);}
.step19 {transform: translateX(19456px);}
.step20 {transform: translateX(20480px);}
.step21 {transform: translateX(21504px);}
.step22 {transform: translateX(22528px);}
.step23 {transform: translateX(23552px);}
.step24 {transform: translateX(24576px);}
.step25 {transform: translateX(25600px);}
.step26 {transform: translateX(26624px);}
.step27 {transform: translateX(27648px);}
.step28 {transform: translateX(28672px);}
.step29 {transform: translateX(29696px);}
    </style>

    <path d="M 202 713 Q 233 689 265 661 Q 281 648 297 649 Q 307 650 313 664 Q 317 680 306 711 Q 294 744 195 763 Q 179 767 172 763 Q 166 759 169 745 Q 173 735 202 713 Z" fill="lightgray" class="stroke step2"/>
    <path d="M 109 513 Q 152 455 188 436 Q 204 432 215 445 Q 222 458 221 476 Q 209 528 127 552 L 126 553 Q 108 560 98 556 Q 91 555 93 542 Q 94 529 109 513 Z" fill="lightgray" class="stroke step2"/>
    <path d="M 103 150 Q 90 147 91 129 Q 104 48 136 30 Q 142 23 153 24 Q 162 25 164 51 Q 176 111 311 391 Q 320 407 319 414 Q 318 424 309 418 Q 294 409 153 199 Q 137 174 103 150 Z" fill="lightgray" class="stroke step2"/>
    <path d="M 372 588 Q 353 601 330 608 Q 323 612 316 606 Q 307 600 317 587 Q 374 473 366 213 Q 363 141 406 108 L 408 107 Q 427 100 430 135 Q 431 145 431 154 L 427 196 Q 408 325 407 547 C 407 567 398 572 372 588 Z" fill="lightgray" class="hide"/>
    <path d="M 714 169 Q 726 141 750 94 Q 760 75 771 76 Q 789 80 799 108 Q 844 199 848 320 Q 855 396 862 484 Q 868 539 894 572 Q 913 594 899 609 Q 874 634 822 657 Q 801 667 764 655 Q 611 604 372 588 C 342 586 377 544 407 547 Q 416 546 425 548 Q 546 572 738 600 Q 772 606 786 590 Q 798 571 799 548 Q 798 388 766 230 Q 763 202 751 200 Q 747 196 722 210 C 693 219 702 196 714 169 Z" fill="lightgray" class="hide"/>
    <path d="M 515 463 Q 505 467 478 472 Q 468 475 464 470 Q 460 464 467 450 Q 489 408 505 340 Q 509 319 521 306 Q 537 287 542 301 Q 545 310 544 324 L 540 354 Q 530 418 528 438 C 526 459 526 459 515 463 Z" fill="lightgray" class="hide"/>
    <path d="M 664 366 Q 683 420 703 435 Q 724 457 704 470 Q 688 480 665 498 Q 647 510 606 486 Q 579 477 515 463 C 486 457 498 436 528 438 Q 535 438 545 440 Q 630 458 637 448 Q 640 444 620 371 C 612 342 654 338 664 366 Z" fill="lightgray" class="hide"/>
    <path d="M 544 324 Q 550 324 557 325 Q 594 332 674 338 Q 683 339 684 346 Q 684 353 664 366 C 652 374 650 374 620 371 Q 619 372 617 371 Q 575 361 540 354 C 511 348 514 323 544 324 Z" fill="lightgray" class="hide"/>
    <path d="M 431 154 Q 444 151 459 153 Q 541 166 714 169 C 744 170 745 191 722 210 Q 698 234 651 225 Q 525 203 427 196 C 397 194 401 159 431 154 Z" fill="lightgray" class="hide"/></g><g transform="scale(1, -1) translate(0, -900)">
    <style type="text/css">
        .origin {display:none;}
        .hide {display:none;}
        .stroke {fill: #000000;}
        
.step1 {transform: translateX(1024px);}
.step2 {transform: translateX(2048px);}
.step3 {transform: translateX(3072px);}
.step4 {transform: translateX(4096px);}
.step5 {transform: translateX(5120px);}
.step6 {transform: translateX(6144px);}
.step7 {transform: translateX(7168px);}
.step8 {transform: translateX(8192px);}
.step9 {transform: translateX(9216px);}
.step10 {transform: translateX(10240px);}
.step11 {transform: translateX(11264px);}
.step12 {transform: translateX(12288px);}
.step13 {transform: translateX(13312px);}
.step14 {transform: translateX(14336px);}
.step15 {transform: translateX(15360px);}
.step16 {transform: translateX(16384px);}
.step17 {transform: translateX(17408px);}
.step18 {transform: translateX(18432px);}
.step19 {transform: translateX(19456px);}
.step20 {transform: translateX(20480px);}
.step21 {transform: translateX(21504px);}
.step22 {transform: translateX(22528px);}
.step23 {transform: translateX(23552px);}
.step24 {transform: translateX(24576px);}
.step25 {transform: translateX(25600px);}
.step26 {transform: translateX(26624px);}
.step27 {transform: translateX(27648px);}
.step28 {transform: translateX(28672px);}
.step29 {transform: translateX(29696px);}
    </style>

    <path d="M 202 713 Q 233 689 265 661 Q 281 648 297 649 Q 307 650 313 664 Q 317 680 306 711 Q 294 744 195 763 Q 179 767 172 763 Q 166 759 169 745 Q 173 735 202 713 Z" fill="lightgray" class="stroke step3"/>
    <path d="M 109 513 Q 152 455 188 436 Q 204 432 215 445 Q 222 458 221 476 Q 209 528 127 552 L 126 553 Q 108 560 98 556 Q 91 555 93 542 Q 94 529 109 513 Z" fill="lightgray" class="stroke step3"/>
    <path d="M 103 150 Q 90 147 91 129 Q 104 48 136 30 Q 142 23 153 24 Q 162 25 164 51 Q 176 111 311 391 Q 320 407 319 414 Q 318 424 309 418 Q 294 409 153 199 Q 137 174 103 150 Z" fill="lightgray" class="stroke step3"/>
    <path d="M 372 588 Q 353 601 330 608 Q 323 612 316 606 Q 307 600 317 587 Q 374 473 366 213 Q 363 141 406 108 L 408 107 Q 427 100 430 135 Q 431 145 431 154 L 427 196 Q 408 325 407 547 C 407 567 398 572 372 588 Z" fill="lightgray" class="stroke step3"/>
    <path d="M 714 169 Q 726 141 750 94 Q 760 75 771 76 Q 789 80 799 108 Q 844 199 848 320 Q 855 396 862 484 Q 868 539 894 572 Q 913 594 899 609 Q 874 634 822 657 Q 801 667 764 655 Q 611 604 372 588 C 342 586 377 544 407 547 Q 416 546 425 548 Q 546 572 738 600 Q 772 606 786 590 Q 798 571 799 548 Q 798 388 766 230 Q 763 202 751 200 Q 747 196 722 210 C 693 219 702 196 714 169 Z" fill="lightgray" class="hide"/>
    <path d="M 515 463 Q 505 467 478 472 Q 468 475 464 470 Q 460 464 467 450 Q 489 408 505 340 Q 509 319 521 306 Q 537 287 542 301 Q 545 310 544 324 L 540 354 Q 530 418 528 438 C 526 459 526 459 515 463 Z" fill="lightgray" class="hide"/>
    <path d="M 664 366 Q 683 420 703 435 Q 724 457 704 470 Q 688 480 665 498 Q 647 510 606 486 Q 579 477 515 463 C 486 457 498 436 528 438 Q 535 438 545 440 Q 630 458 637 448 Q 640 444 620 371 C 612 342 654 338 664 366 Z" fill="lightgray" class="hide"/>
    <path d="M 544 324 Q 550 324 557 325 Q 594 332 674 338 Q 683 339 684 346 Q 684 353 664 366 C 652 374 650 374 620 371 Q 619 372 617 371 Q 575 361 540 354 C 511 348 514 323 544 324 Z" fill="lightgray" class="hide"/>
    <path d="M 431 154 Q 444 151 459 153 Q 541 166 714 169 C 744 170 745 191 722 210 Q 698 234 651 225 Q 525 203 427 196 C 397 194 401 159 431 154 Z" fill="lightgray" class="hide"/></g><g transform="scale(1, -1) translate(0, -900)">
    <style type="text/css">
        .origin {display:none;}
        .hide {display:none;}
        .stroke {fill: #000000;}
        
.step1 {transform: translateX(1024px);}
.step2 {transform: translateX(2048px);}
.step3 {transform: translateX(3072px);}
.step4 {transform: translateX(4096px);}
.step5 {transform: translateX(5120px);}
.step6 {transform: translateX(6144px);}
.step7 {transform: translateX(7168px);}
.step8 {transform: translateX(8192px);}
.step9 {transform: translateX(9216px);}
.step10 {transform: translateX(10240px);}
.step11 {transform: translateX(11264px);}
.step12 {transform: translateX(12288px);}
.step13 {transform: translateX(13312px);}
.step14 {transform: translateX(14336px);}
.step15 {transform: translateX(15360px);}
.step16 {transform: translateX(16384px);}
.step17 {transform: translateX(17408px);}
.step18 {transform: translateX(18432px);}
.step19 {transform: translateX(19456px);}
.step20 {transform: translateX(20480px);}
.step21 {transform: translateX(21504px);}
.step22 {transform: translateX(22528px);}
.step23 {transform: translateX(23552px);}
.step24 {transform: translateX(24576px);}
.step25 {transform: translateX(25600px);}
.step26 {transform: translateX(26624px);}
.step27 {transform: translateX(27648px);}
.step28 {transform: translateX(28672px);}
.step29 {transform: translateX(29696px);}
    </style>

    <path d="M 202 713 Q 233 689 265 661 Q 281 648 297 649 Q 307 650 313 664 Q 317 680 306 711 Q 294 744 195 763 Q 179 767 172 763 Q 166 759 169 745 Q 173 735 202 713 Z" fill="lightgray" class="stroke step4"/>
    <path d="M 109 513 Q 152 455 188 436 Q 204 432 215 445 Q 222 458 221 476 Q 209 528 127 552 L 126 553 Q 108 560 98 556 Q 91 555 93 542 Q 94 529 109 513 Z" fill="lightgray" class="stroke step4"/>
    <path d="M 103 150 Q 90 147 91 129 Q 104 48 136 30 Q 142 23 153 24 Q 162 25 164 51 Q 176 111 311 391 Q 320 407 319 414 Q 318 424 309 418 Q 294 409 153 199 Q 137 174 103 150 Z" fill="lightgray" class="stroke step4"/>
    <path d="M 372 588 Q 353 601 330 608 Q 323 612 316 606 Q 307 600 317 587 Q 374 473 366 213 Q 363 141 406 108 L 408 107 Q 427 100 430 135 Q 431 145 431 154 L 427 196 Q 408 325 407 547 C 407 567 398 572 372 588 Z" fill="lightgray" class="stroke step4"/>
    <path d="M 714 169 Q 726 141 750 94 Q 760 75 771 76 Q 789 80 799 108 Q 844 199 848 320 Q 855 396 862 484 Q 868 539 894 572 Q 913 594 899 609 Q 874 634 822 657 Q 801 667 764 655 Q 611 604 372 588 C 342 586 377 544 407 547 Q 416 546 425 548 Q 546 572 738 600 Q 772 606 786 590 Q 798 571 799 548 Q 798 388 766 230 Q 763 202 751 200 Q 747 196 722 210 C 693 219 702 196 714 169 Z" fill="lightgray" class="stroke step4"/>
    <path d="M 515 463 Q 505 467 478 472 Q 468 475 464 470 Q 460 464 467 450 Q 489 408 505 340 Q 509 319 521 306 Q 537 287 542 301 Q 545 310 544 324 L 540 354 Q 530 418 528 438 C 526 459 526 459 515 463 Z" fill="lightgray" class="hide"/>
    <path d="M 664 366 Q 683 420 703 435 Q 724 457 704 470 Q 688 480 665 498 Q 647 510 606 486 Q 579 477 515 463 C 486 457 498 436 528 438 Q 535 438 545 440 Q 630 458 637 448 Q 640 444 620 371 C 612 342 654 338 664 366 Z" fill="lightgray" class="hide"/>
    <path d="M 544 324 Q 550 324 557 325 Q 594 332 674 338 Q 683 339 684 346 Q 684 353 664 366 C 652 374 650 374 620 371 Q 619 372 617 371 Q 575 361 540 354 C 511 348 514 323 544 324 Z" fill="lightgray" class="hide"/>
    <path d="M 431 154 Q 444 151 459 153 Q 541 166 714 169 C 744 170 745 191 722 210 Q 698 234 651 225 Q 525 203 427 196 C 397 194 401 159 431 154 Z" fill="lightgray" class="hide"/></g><g transform="scale(1, -1) translate(0, -900)">
    <style type="text/css">
        .origin {display:none;}
        .hide {display:none;}
        .stroke {fill: #000000;}
        
.step1 {transform: translateX(1024px);}
.step2 {transform: translateX(2048px);}
.step3 {transform: translateX(3072px);}
.step4 {transform: translateX(4096px);}
.step5 {transform: translateX(5120px);}
.step6 {transform: translateX(6144px);}
.step7 {transform: translateX(7168px);}
.step8 {transform: translateX(8192px);}
.step9 {transform: translateX(9216px);}
.step10 {transform: translateX(10240px);}
.step11 {transform: translateX(11264px);}
.step12 {transform: translateX(12288px);}
.step13 {transform: translateX(13312px);}
.step14 {transform: translateX(14336px);}
.step15 {transform: translateX(15360px);}
.step16 {transform: translateX(16384px);}
.step17 {transform: translateX(17408px);}
.step18 {transform: translateX(18432px);}
.step19 {transform: translateX(19456px);}
.step20 {transform: translateX(20480px);}
.step21 {transform: translateX(21504px);}
.step22 {transform: translateX(22528px);}
.step23 {transform: translateX(23552px);}
.step24 {transform: translateX(24576px);}
.step25 {transform: translateX(25600px);}
.step26 {transform: translateX(26624px);}
.step27 {transform: translateX(27648px);}
.step28 {transform: translateX(28672px);}
.step29 {transform: translateX(29696px);}
    </style>

    <path d="M 202 713 Q 233 689 265 661 Q 281 648 297 649 Q 307 650 313 664 Q 317 680 306 711 Q 294 744 195 763 Q 179 767 172 763 Q 166 759 169 745 Q 173 735 202 713 Z" fill="lightgray" class="stroke step5"/>
    <path d="M 109 513 Q 152 455 188 436 Q 204 432 215 445 Q 222 458 221 476 Q 209 528 127 552 L 126 553 Q 108 560 98 556 Q 91 555 93 542 Q 94 529 109 513 Z" fill="lightgray" class="stroke step5"/>
    <path d="M 103 150 Q 90 147 91 129 Q 104 48 136 30 Q 142 23 153 24 Q 162 25 164 51 Q 176 111 311 391 Q 320 407 319 414 Q 318 424 309 418 Q 294 409 153 199 Q 137 174 103 150 Z" fill="lightgray" class="stroke step5"/>
    <path d="M 372 588 Q 353 601 330 608 Q 323 612 316 606 Q 307 600 317 587 Q 374 473 366 213 Q 363 141 406 108 L 408 107 Q 427 100 430 135 Q 431 145 431 154 L 427 196 Q 408 325 407 547 C 407 567 398 572 372 588 Z" fill="lightgray" class="stroke step5"/>
    <path d="M 714 169 Q 726 141 750 94 Q 760 75 771 76 Q 789 80 799 108 Q 844 199 848 320 Q 855 396 862 484 Q 868 539 894 572 Q 913 594 899 609 Q 874 634 822 657 Q 801 667 764 655 Q 611 604 372 588 C 342 586 377 544 407 547 Q 416 546 425 548 Q 546 572 738 600 Q 772 606 786 590 Q 798 571 799 548 Q 798 388 766 230 Q 763 202 751 200 Q 747 196 722 210 C 693 219 702 196 714 169 Z" fill="lightgray" class="stroke step5"/>
    <path d="M 515 463 Q 505 467 478 472 Q 468 475 464 470 Q 460 464 467 450 Q 489 408 505 340 Q 509 319 521 306 Q 537 287 542 301 Q 545 310 544 324 L 540 354 Q 530 418 528 438 C 526 459 526 459 515 463 Z" fill="lightgray" class="stroke step5"/>
    <path d="M 664 366 Q 683 420 703 435 Q 724 457 704 470 Q 688 480 665 498 Q 647 510 606 486 Q 579 477 515 463 C 486 457 498 436 528 438 Q 535 438 545 440 Q 630 458 637 448 Q 640 444 620 371 C 612 342 654 338 664 366 Z" fill="lightgray" class="hide"/>
    <path d="M 544 324 Q 550 324 557 325 Q 594 332 674 338 Q 683 339 684 346 Q 684 353 664 366 C 652 374 650 374 620 371 Q 619 372 617 371 Q 575 361 540 354 C 511 348 514 323 544 324 Z" fill="lightgray" class="hide"/>
    <path d="M 431 154 Q 444 151 459 153 Q 541 166 714 169 C 744 170 745 191 722 210 Q 698 234 651 225 Q 525 203 427 196 C 397 194 401 159 431 154 Z" fill="lightgray" class="hide"/></g><g transform="scale(1, -1) translate(0, -900)">
    <style type="text/css">
        .origin {display:none;}
        .hide {display:none;}
        .stroke {fill: #000000;}
        
.step1 {transform: translateX(1024px);}
.step2 {transform: translateX(2048px);}
.step3 {transform: translateX(3072px);}
.step4 {transform: translateX(4096px);}
.step5 {transform: translateX(5120px);}
.step6 {transform: translateX(6144px);}
.step7 {transform: translateX(7168px);}
.step8 {transform: translateX(8192px);}
.step9 {transform: translateX(9216px);}
.step10 {transform: translateX(10240px);}
.step11 {transform: translateX(11264px);}
.step12 {transform: translateX(12288px);}
.step13 {transform: translateX(13312px);}
.step14 {transform: translateX(14336px);}
.step15 {transform: translateX(15360px);}
.step16 {transform: translateX(16384px);}
.step17 {transform: translateX(17408px);}
.step18 {transform: translateX(18432px);}
.step19 {transform: translateX(19456px);}
.step20 {transform: translateX(20480px);}
.step21 {transform: translateX(21504px);}
.step22 {transform: translateX(22528px);}
.step23 {transform: translateX(23552px);}
.step24 {transform: translateX(24576px);}
.step25 {transform: translateX(25600px);}
.step26 {transform: translateX(26624px);}
.step27 {transform: translateX(27648px);}
.step28 {transform: translateX(28672px);}
.step29 {transform: translateX(29696px);}
    </style>

    <path d="M 202 713 Q 233 689 265 661 Q 281 648 297 649 Q 307 650 313 664 Q 317 680 306 711 Q 294 744 195 763 Q 179 767 172 763 Q 166 759 169 745 Q 173 735 202 713 Z" fill="lightgray" class="stroke step6"/>
    <path d="M 109 513 Q 152 455 188 436 Q 204 432 215 445 Q 222 458 221 476 Q 209 528 127 552 L 126 553 Q 108 560 98 556 Q 91 555 93 542 Q 94 529 109 513 Z" fill="lightgray" class="stroke step6"/>
    <path d="M 103 150 Q 90 147 91 129 Q 104 48 136 30 Q 142 23 153 24 Q 162 25 164 51 Q 176 111 311 391 Q 320 407 319 414 Q 318 424 309 418 Q 294 409 153 199 Q 137 174 103 150 Z" fill="lightgray" class="stroke step6"/>
    <path d="M 372 588 Q 353 601 330 608 Q 323 612 316 606 Q 307 600 317 587 Q 374 473 366 213 Q 363 141 406 108 L 408 107 Q 427 100 430 135 Q 431 145 431 154 L 427 196 Q 408 325 407 547 C 407 567 398 572 372 588 Z" fill="lightgray" class="stroke step6"/>
    <path d="M 714 169 Q 726 141 750 94 Q 760 75 771 76 Q 789 80 799 108 Q 844 199 848 320 Q 855 396 862 484 Q 868 539 894 572 Q 913 594 899 609 Q 874 634 822 657 Q 801 667 764 655 Q 611 604 372 588 C 342 586 377 544 407 547 Q 416 546 425 548 Q 546 572 738 600 Q 772 606 786 590 Q 798 571 799 548 Q 798 388 766 230 Q 763 202 751 200 Q 747 196 722 210 C 693 219 702 196 714 169 Z" fill="lightgray" class="stroke step6"/>
    <path d="M 515 463 Q 505 467 478 472 Q 468 475 464 470 Q 460 464 467 450 Q 489 408 505 340 Q 509 319 521 306 Q 537 287 542 301 Q 545 310 544 324 L 540 354 Q 530 418 528 438 C 526 459 526 459 515 463 Z" fill="lightgray" class="stroke step6"/>
    <path d="M 664 366 Q 683 420 703 435 Q 724 457 704 470 Q 688 480 665 498 Q 647 510 606 486 Q 579 477 515 463 C 486 457 498 436 528 438 Q 535 438 545 440 Q 630 458 637 448 Q 640 444 620 371 C 612 342 654 338 664 366 Z" fill="lightgray" class="stroke step6"/>
    <path d="M 544 324 Q 550 324 557 325 Q 594 332 674 338 Q 683 339 684 346 Q 684 353 664 366 C 652 374 650 374 620 371 Q 619 372 617 371 Q 575 361 540 354 C 511 348 514 323 544 324 Z" fill="lightgray" class="hide"/>
    <path d="M 431 154 Q 444 151 459 153 Q 541 166 714 169 C 744 170 745 191 722 210 Q 698 234 651 225 Q 525 203 427 196 C 397 194 401 159 431 154 Z" fill="lightgray" class="hide"/></g><g transform="scale(1, -1) translate(0, -900)">
    <style type="text/css">
        .origin {display:none;}
        .hide {display:none;}
        .stroke {fill: #000000;}
        
.step1 {transform: translateX(1024px);}
.step2 {transform: translateX(2048px);}
.step3 {transform: translateX(3072px);}
.step4 {transform: translateX(4096px);}
.step5 {transform: translateX(5120px);}
.step6 {transform: translateX(6144px);}
.step7 {transform: translateX(7168px);}
.step8 {transform: translateX(8192px);}
.step9 {transform: translateX(9216px);}
.step10 {transform: translateX(10240px);}
.step11 {transform: translateX(11264px);}
.step12 {transform: translateX(12288px);}
.step13 {transform: translateX(13312px);}
.step14 {transform: translateX(14336px);}
.step15 {transform: translateX(15360px);}
.step16 {transform: translateX(16384px);}
.step17 {transform: translateX(17408px);}
.step18 {transform: translateX(18432px);}
.step19 {transform: translateX(19456px);}
.step20 {transform: translateX(20480px);}
.step21 {transform: translateX(21504px);}
.step22 {transform: translateX(22528px);}
.step23 {transform: translateX(23552px);}
.step24 {transform: translateX(24576px);}
.step25 {transform: translateX(25600px);}
.step26 {transform: translateX(26624px);}
.step27 {transform: translateX(27648px);}
.step28 {transform: translateX(28672px);}
.step29 {transform: translateX(29696px);}
    </style>

    <path d="M 202 713 Q 233 689 265 661 Q 281 648 297 649 Q 307 650 313 664 Q 317 680 306 711 Q 294 744 195 763 Q 179 767 172 763 Q 166 759 169 745 Q 173 735 202 713 Z" fill="lightgray" class="stroke step7"/>
    <path d="M 109 513 Q 152 455 188 436 Q 204 432 215 445 Q 222 458 221 476 Q 209 528 127 552 L 126 553 Q 108 560 98 556 Q 91 555 93 542 Q 94 529 109 513 Z" fill="lightgray" class="stroke step7"/>
    <path d="M 103 150 Q 90 147 91 129 Q 104 48 136 30 Q 142 23 153 24 Q 162 25 164 51 Q 176 111 311 391 Q 320 407 319 414 Q 318 424 309 418 Q 294 409 153 199 Q 137 174 103 150 Z" fill="lightgray" class="stroke step7"/>
    <path d="M 372 588 Q 353 601 330 608 Q 323 612 316 606 Q 307 600 317 587 Q 374 473 366 213 Q 363 141 406 108 L 408 107 Q 427 100 430 135 Q 431 145 431 154 L 427 196 Q 408 325 407 547 C 407 567 398 572 372 588 Z" fill="lightgray" class="stroke step7"/>
    <path d="M 714 169 Q 726 141 750 94 Q 760 75 771 76 Q 789 80 799 108 Q 844 199 848 320 Q 855 396 862 484 Q 868 539 894 572 Q 913 594 899 609 Q 874 634 822 657 Q 801 667 764 655 Q 611 604 372 588 C 342 586 377 544 407 547 Q 416 546 425 548 Q 546 572 738 600 Q 772 606 786 590 Q 798 571 799 548 Q 798 388 766 230 Q 763 202 751 200 Q 747 196 722 210 C 693 219 702 196 714 169 Z" fill="lightgray" class="stroke step7"/>
    <path d="M 515 463 Q 505 467 478 472 Q 468 475 464 470 Q 460 464 467 450 Q 489 408 505 340 Q 509 319 521 306 Q 537 287 542 301 Q 545 310 544 324 L 540 354 Q 530 418 528 438 C 526 459 526 459 515 463 Z" fill="lightgray" class="stroke step7"/>
    <path d="M 664 366 Q 683 420 703 435 Q 724 457 704 470 Q 688 480 665 498 Q 647 510 606 486 Q 579 477 515 463 C 486 457 498 436 528 438 Q 535 438 545 440 Q 630 458 637 448 Q 640 444 620 371 C 612 342 654 338 664 366 Z" fill="lightgray" class="stroke step7"/>
    <path d="M 544 324 Q 550 324 557 325 Q 594 332 674 338 Q 683 339 684 346 Q 684 353 664 366 C 652 374 650 374 620 371 Q 619 372 617 371 Q 575 361 540 354 C 511 348 514 323 544 324 Z" fill="lightgray" class="stroke step7"/>
    <path d="M 431 154 Q 444 151 459 153 Q 541 166 714 169 C 744 170 745 191 722 210 Q 698 234 651 225 Q 525 203 427 196 C 397 194 401 159 431 154 Z" fill="lightgray" class="hide"/></g><g transform="scale(1, -1) translate(0, -900)">
    <style type="text/css">
        .origin {display:none;}
        .hide {display:none;}
        .stroke {fill: #000000;}
        
.step1 {transform: translateX(1024px);}
.step2 {transform: translateX(2048px);}
.step3 {transform: translateX(3072px);}
.step4 {transform: translateX(4096px);}
.step5 {transform: translateX(5120px);}
.step6 {transform: translateX(6144px);}
.step7 {transform: translateX(7168px);}
.step8 {transform: translateX(8192px);}
.step9 {transform: translateX(9216px);}
.step10 {transform: translateX(10240px);}
.step11 {transform: translateX(11264px);}
.step12 {transform: translateX(12288px);}
.step13 {transform: translateX(13312px);}
.step14 {transform: translateX(14336px);}
.step15 {transform: translateX(15360px);}
.step16 {transform: translateX(16384px);}
.step17 {transform: translateX(17408px);}
.step18 {transform: translateX(18432px);}
.step19 {transform: translateX(19456px);}
.step20 {transform: translateX(20480px);}
.step21 {transform: translateX(21504px);}
.step22 {transform: translateX(22528px);}
.step23 {transform: translateX(23552px);}
.step24 {transform: translateX(24576px);}
.step25 {transform: translateX(25600px);}
.step26 {transform: translateX(26624px);}
.step27 {transform: translateX(27648px);}
.step28 {transform: translateX(28672px);}
.step29 {transform: translateX(29696px);}
    </style>

    <path d="M 202 713 Q 233 689 265 661 Q 281 648 297 649 Q 307 650 313 664 Q 317 680 306 711 Q 294 744 195 763 Q 179 767 172 763 Q 166 759 169 745 Q 173 735 202 713 Z" fill="lightgray" class="stroke step8"/>
    <path d="M 109 513 Q 152 455 188 436 Q 204 432 215 445 Q 222 458 221 476 Q 209 528 127 552 L 126 553 Q 108 560 98 556 Q 91 555 93 542 Q 94 529 109 513 Z" fill="lightgray" class="stroke step8"/>
    <path d="M 103 150 Q 90 147 91 129 Q 104 48 136 30 Q 142 23 153 24 Q 162 25 164 51 Q 176 111 311 391 Q 320 407 319 414 Q 318 424 309 418 Q 294 409 153 199 Q 137 174 103 150 Z" fill="lightgray" class="stroke step8"/>
    <path d="M 372 588 Q 353 601 330 608 Q 323 612 316 606 Q 307 600 317 587 Q 374 473 366 213 Q 363 141 406 108 L 408 107 Q 427 100 430 135 Q 431 145 431 154 L 427 196 Q 408 325 407 547 C 407 567 398 572 372 588 Z" fill="lightgray" class="stroke step8"/>
    <path d="M 714 169 Q 726 141 750 94 Q 760 75 771 76 Q 789 80 799 108 Q 844 199 848 320 Q 855 396 862 484 Q 868 539 894 572 Q 913 594 899 609 Q 874 634 822 657 Q 801 667 764 655 Q 611 604 372 588 C 342 586 377 544 407 547 Q 416 546 425 548 Q 546 572 738 600 Q 772 606 786 590 Q 798 571 799 548 Q 798 388 766 230 Q 763 202 751 200 Q 747 196 722 210 C 693 219 702 196 714 169 Z" fill="lightgray" class="stroke step8"/>
    <path d="M 515 463 Q 505 467 478 472 Q 468 475 464 470 Q 460 464 467 450 Q 489 408 505 340 Q 509 319 521 306 Q 537 287 542 301 Q 545 310 544 324 L 540 354 Q 530 418 528 438 C 526 459 526 459 515 463 Z" fill="lightgray" class="stroke step8"/>
    <path d="M 664 366 Q 683 420 703 435 Q 724 457 704 470 Q 688 480 665 498 Q 647 510 606 486 Q 579 477 515 463 C 486 457 498 436 528 438 Q 535 438 545 440 Q 630 458 637 448 Q 640 444 620 371 C 612 342 654 338 664 366 Z" fill="lightgray" class="stroke step8"/>
    <path d="M 544 324 Q 550 324 557 325 Q 594 332 674 338 Q 683 339 684 346 Q 684 353 664 366 C 652 374 650 374 620 371 Q 619 372 617 371 Q 575 361 540 354 C 511 348 514 323 544 324 Z" fill="lightgray" class="stroke step8"/>
    <path d="M 431 154 Q 444 151 459 153 Q 541 166 714 169 C 744 170 745 191 722 210 Q 698 234 651 225 Q 525 203 427 196 C 397 194 401 159 431 154 Z" fill="lightgray" class="stroke step8"/></g></svg>