<svg version="1.1" viewBox="0 0 9216 1024" xmlns="http://www.w3.org/2000/svg">
  
  <g transform="scale(1, -1) translate(0, -900)" class="origin">
    <style type="text/css">
        .origin {display:none;}
        .hide {display:none;}
        .stroke {fill: #000000;}
        
.step1 {transform: translateX(1024px);}
.step2 {transform: translateX(2048px);}
.step3 {transform: translateX(3072px);}
.step4 {transform: translateX(4096px);}
.step5 {transform: translateX(5120px);}
.step6 {transform: translateX(6144px);}
.step7 {transform: translateX(7168px);}
.step8 {transform: translateX(8192px);}
.step9 {transform: translateX(9216px);}
.step10 {transform: translateX(10240px);}
.step11 {transform: translateX(11264px);}
.step12 {transform: translateX(12288px);}
.step13 {transform: translateX(13312px);}
.step14 {transform: translateX(14336px);}
.step15 {transform: translateX(15360px);}
.step16 {transform: translateX(16384px);}
.step17 {transform: translateX(17408px);}
.step18 {transform: translateX(18432px);}
.step19 {transform: translateX(19456px);}
.step20 {transform: translateX(20480px);}
.step21 {transform: translateX(21504px);}
.step22 {transform: translateX(22528px);}
.step23 {transform: translateX(23552px);}
.step24 {transform: translateX(24576px);}
.step25 {transform: translateX(25600px);}
.step26 {transform: translateX(26624px);}
.step27 {transform: translateX(27648px);}
.step28 {transform: translateX(28672px);}
.step29 {transform: translateX(29696px);}
    </style>

    <path d="M 248 722 Q 279 700 313 671 Q 329 658 345 661 Q 357 662 361 676 Q 364 692 353 723 Q 338 756 239 772 Q 223 775 216 771 Q 212 767 213 753 Q 217 743 248 722 Z" fill="lightgray"/>
    <path d="M 136 538 Q 191 478 225 465 Q 241 462 251 477 Q 257 490 254 508 Q 242 553 151 579 Q 150 580 149 580 Q 131 584 121 581 Q 114 580 118 566 Q 119 553 136 538 Z" fill="lightgray"/>
    <path d="M 123 154 Q 111 150 113 133 Q 129 61 164 40 Q 171 33 181 37 Q 188 38 189 63 Q 196 120 289 364 Q 296 380 295 386 Q 294 396 285 389 Q 272 380 163 197 Q 150 175 123 154 Z" fill="lightgray"/>
    <path d="M 402 523 Q 390 527 360 532 Q 348 533 345 529 Q 339 522 348 507 Q 379 449 401 354 Q 405 326 423 307 Q 442 285 447 302 Q 448 311 449 322 L 446 355 Q 439 379 417 490 C 411 519 411 520 402 523 Z" fill="lightgray"/>
    <path d="M 752 402 Q 780 492 815 517 Q 833 536 818 554 Q 802 567 749 593 Q 730 600 708 592 Q 653 571 601 557 L 555 547 Q 480 534 402 523 C 372 519 388 483 417 490 Q 424 491 438 495 Q 496 508 556 518 L 600 527 Q 705 552 720 538 Q 735 520 702 404 C 694 375 743 373 752 402 Z" fill="lightgray"/>
    <path d="M 597 345 Q 669 357 768 366 Q 778 367 779 375 Q 779 384 752 402 C 738 412 731 411 702 404 Q 648 392 598 381 L 556 372 Q 498 362 446 355 C 416 351 419 322 449 322 Q 456 321 467 323 Q 501 332 556 340 L 597 345 Z" fill="lightgray"/>
    <path d="M 594 190 Q 595 269 597 345 L 598 381 Q 599 456 600 527 L 601 557 Q 601 645 623 748 Q 626 760 604 775 Q 567 794 540 798 Q 522 802 514 792 Q 507 783 515 768 Q 549 717 550 683 Q 553 617 555 547 L 556 518 Q 557 448 556 372 L 556 340 Q 555 264 550 181 C 548 151 594 160 594 190 Z" fill="lightgray"/>
    <path d="M 735 221 Q 668 206 594 190 L 550 181 Q 478 168 402 152 Q 377 148 336 152 Q 323 152 319 141 Q 315 128 324 118 Q 346 99 378 76 Q 388 72 401 79 Q 464 113 613 155 Q 718 186 748 198 C 776 208 764 228 735 221 Z" fill="lightgray"/>
    <path d="M 748 198 Q 812 72 820 67 Q 827 63 837 70 Q 853 79 853 122 Q 853 176 718 296 Q 711 303 706 292 Q 702 280 708 268 Q 721 246 735 221 L 748 198 Z" fill="lightgray"/></g>
<g transform="scale(1, -1) translate(0, -900)">
    <style type="text/css">
        .origin {display:none;}
        .hide {display:none;}
        .stroke {fill: #000000;}
        
.step1 {transform: translateX(1024px);}
.step2 {transform: translateX(2048px);}
.step3 {transform: translateX(3072px);}
.step4 {transform: translateX(4096px);}
.step5 {transform: translateX(5120px);}
.step6 {transform: translateX(6144px);}
.step7 {transform: translateX(7168px);}
.step8 {transform: translateX(8192px);}
.step9 {transform: translateX(9216px);}
.step10 {transform: translateX(10240px);}
.step11 {transform: translateX(11264px);}
.step12 {transform: translateX(12288px);}
.step13 {transform: translateX(13312px);}
.step14 {transform: translateX(14336px);}
.step15 {transform: translateX(15360px);}
.step16 {transform: translateX(16384px);}
.step17 {transform: translateX(17408px);}
.step18 {transform: translateX(18432px);}
.step19 {transform: translateX(19456px);}
.step20 {transform: translateX(20480px);}
.step21 {transform: translateX(21504px);}
.step22 {transform: translateX(22528px);}
.step23 {transform: translateX(23552px);}
.step24 {transform: translateX(24576px);}
.step25 {transform: translateX(25600px);}
.step26 {transform: translateX(26624px);}
.step27 {transform: translateX(27648px);}
.step28 {transform: translateX(28672px);}
.step29 {transform: translateX(29696px);}
    </style>

    <path d="M 248 722 Q 279 700 313 671 Q 329 658 345 661 Q 357 662 361 676 Q 364 692 353 723 Q 338 756 239 772 Q 223 775 216 771 Q 212 767 213 753 Q 217 743 248 722 Z" fill="lightgray" class="stroke step0"/>
    <path d="M 136 538 Q 191 478 225 465 Q 241 462 251 477 Q 257 490 254 508 Q 242 553 151 579 Q 150 580 149 580 Q 131 584 121 581 Q 114 580 118 566 Q 119 553 136 538 Z" fill="lightgray" class="hide"/>
    <path d="M 123 154 Q 111 150 113 133 Q 129 61 164 40 Q 171 33 181 37 Q 188 38 189 63 Q 196 120 289 364 Q 296 380 295 386 Q 294 396 285 389 Q 272 380 163 197 Q 150 175 123 154 Z" fill="lightgray" class="hide"/>
    <path d="M 402 523 Q 390 527 360 532 Q 348 533 345 529 Q 339 522 348 507 Q 379 449 401 354 Q 405 326 423 307 Q 442 285 447 302 Q 448 311 449 322 L 446 355 Q 439 379 417 490 C 411 519 411 520 402 523 Z" fill="lightgray" class="hide"/>
    <path d="M 752 402 Q 780 492 815 517 Q 833 536 818 554 Q 802 567 749 593 Q 730 600 708 592 Q 653 571 601 557 L 555 547 Q 480 534 402 523 C 372 519 388 483 417 490 Q 424 491 438 495 Q 496 508 556 518 L 600 527 Q 705 552 720 538 Q 735 520 702 404 C 694 375 743 373 752 402 Z" fill="lightgray" class="hide"/>
    <path d="M 597 345 Q 669 357 768 366 Q 778 367 779 375 Q 779 384 752 402 C 738 412 731 411 702 404 Q 648 392 598 381 L 556 372 Q 498 362 446 355 C 416 351 419 322 449 322 Q 456 321 467 323 Q 501 332 556 340 L 597 345 Z" fill="lightgray" class="hide"/>
    <path d="M 594 190 Q 595 269 597 345 L 598 381 Q 599 456 600 527 L 601 557 Q 601 645 623 748 Q 626 760 604 775 Q 567 794 540 798 Q 522 802 514 792 Q 507 783 515 768 Q 549 717 550 683 Q 553 617 555 547 L 556 518 Q 557 448 556 372 L 556 340 Q 555 264 550 181 C 548 151 594 160 594 190 Z" fill="lightgray" class="hide"/>
    <path d="M 735 221 Q 668 206 594 190 L 550 181 Q 478 168 402 152 Q 377 148 336 152 Q 323 152 319 141 Q 315 128 324 118 Q 346 99 378 76 Q 388 72 401 79 Q 464 113 613 155 Q 718 186 748 198 C 776 208 764 228 735 221 Z" fill="lightgray" class="hide"/>
    <path d="M 748 198 Q 812 72 820 67 Q 827 63 837 70 Q 853 79 853 122 Q 853 176 718 296 Q 711 303 706 292 Q 702 280 708 268 Q 721 246 735 221 L 748 198 Z" fill="lightgray" class="hide"/></g><g transform="scale(1, -1) translate(0, -900)">
    <style type="text/css">
        .origin {display:none;}
        .hide {display:none;}
        .stroke {fill: #000000;}
        
.step1 {transform: translateX(1024px);}
.step2 {transform: translateX(2048px);}
.step3 {transform: translateX(3072px);}
.step4 {transform: translateX(4096px);}
.step5 {transform: translateX(5120px);}
.step6 {transform: translateX(6144px);}
.step7 {transform: translateX(7168px);}
.step8 {transform: translateX(8192px);}
.step9 {transform: translateX(9216px);}
.step10 {transform: translateX(10240px);}
.step11 {transform: translateX(11264px);}
.step12 {transform: translateX(12288px);}
.step13 {transform: translateX(13312px);}
.step14 {transform: translateX(14336px);}
.step15 {transform: translateX(15360px);}
.step16 {transform: translateX(16384px);}
.step17 {transform: translateX(17408px);}
.step18 {transform: translateX(18432px);}
.step19 {transform: translateX(19456px);}
.step20 {transform: translateX(20480px);}
.step21 {transform: translateX(21504px);}
.step22 {transform: translateX(22528px);}
.step23 {transform: translateX(23552px);}
.step24 {transform: translateX(24576px);}
.step25 {transform: translateX(25600px);}
.step26 {transform: translateX(26624px);}
.step27 {transform: translateX(27648px);}
.step28 {transform: translateX(28672px);}
.step29 {transform: translateX(29696px);}
    </style>

    <path d="M 248 722 Q 279 700 313 671 Q 329 658 345 661 Q 357 662 361 676 Q 364 692 353 723 Q 338 756 239 772 Q 223 775 216 771 Q 212 767 213 753 Q 217 743 248 722 Z" fill="lightgray" class="stroke step1"/>
    <path d="M 136 538 Q 191 478 225 465 Q 241 462 251 477 Q 257 490 254 508 Q 242 553 151 579 Q 150 580 149 580 Q 131 584 121 581 Q 114 580 118 566 Q 119 553 136 538 Z" fill="lightgray" class="stroke step1"/>
    <path d="M 123 154 Q 111 150 113 133 Q 129 61 164 40 Q 171 33 181 37 Q 188 38 189 63 Q 196 120 289 364 Q 296 380 295 386 Q 294 396 285 389 Q 272 380 163 197 Q 150 175 123 154 Z" fill="lightgray" class="hide"/>
    <path d="M 402 523 Q 390 527 360 532 Q 348 533 345 529 Q 339 522 348 507 Q 379 449 401 354 Q 405 326 423 307 Q 442 285 447 302 Q 448 311 449 322 L 446 355 Q 439 379 417 490 C 411 519 411 520 402 523 Z" fill="lightgray" class="hide"/>
    <path d="M 752 402 Q 780 492 815 517 Q 833 536 818 554 Q 802 567 749 593 Q 730 600 708 592 Q 653 571 601 557 L 555 547 Q 480 534 402 523 C 372 519 388 483 417 490 Q 424 491 438 495 Q 496 508 556 518 L 600 527 Q 705 552 720 538 Q 735 520 702 404 C 694 375 743 373 752 402 Z" fill="lightgray" class="hide"/>
    <path d="M 597 345 Q 669 357 768 366 Q 778 367 779 375 Q 779 384 752 402 C 738 412 731 411 702 404 Q 648 392 598 381 L 556 372 Q 498 362 446 355 C 416 351 419 322 449 322 Q 456 321 467 323 Q 501 332 556 340 L 597 345 Z" fill="lightgray" class="hide"/>
    <path d="M 594 190 Q 595 269 597 345 L 598 381 Q 599 456 600 527 L 601 557 Q 601 645 623 748 Q 626 760 604 775 Q 567 794 540 798 Q 522 802 514 792 Q 507 783 515 768 Q 549 717 550 683 Q 553 617 555 547 L 556 518 Q 557 448 556 372 L 556 340 Q 555 264 550 181 C 548 151 594 160 594 190 Z" fill="lightgray" class="hide"/>
    <path d="M 735 221 Q 668 206 594 190 L 550 181 Q 478 168 402 152 Q 377 148 336 152 Q 323 152 319 141 Q 315 128 324 118 Q 346 99 378 76 Q 388 72 401 79 Q 464 113 613 155 Q 718 186 748 198 C 776 208 764 228 735 221 Z" fill="lightgray" class="hide"/>
    <path d="M 748 198 Q 812 72 820 67 Q 827 63 837 70 Q 853 79 853 122 Q 853 176 718 296 Q 711 303 706 292 Q 702 280 708 268 Q 721 246 735 221 L 748 198 Z" fill="lightgray" class="hide"/></g><g transform="scale(1, -1) translate(0, -900)">
    <style type="text/css">
        .origin {display:none;}
        .hide {display:none;}
        .stroke {fill: #000000;}
        
.step1 {transform: translateX(1024px);}
.step2 {transform: translateX(2048px);}
.step3 {transform: translateX(3072px);}
.step4 {transform: translateX(4096px);}
.step5 {transform: translateX(5120px);}
.step6 {transform: translateX(6144px);}
.step7 {transform: translateX(7168px);}
.step8 {transform: translateX(8192px);}
.step9 {transform: translateX(9216px);}
.step10 {transform: translateX(10240px);}
.step11 {transform: translateX(11264px);}
.step12 {transform: translateX(12288px);}
.step13 {transform: translateX(13312px);}
.step14 {transform: translateX(14336px);}
.step15 {transform: translateX(15360px);}
.step16 {transform: translateX(16384px);}
.step17 {transform: translateX(17408px);}
.step18 {transform: translateX(18432px);}
.step19 {transform: translateX(19456px);}
.step20 {transform: translateX(20480px);}
.step21 {transform: translateX(21504px);}
.step22 {transform: translateX(22528px);}
.step23 {transform: translateX(23552px);}
.step24 {transform: translateX(24576px);}
.step25 {transform: translateX(25600px);}
.step26 {transform: translateX(26624px);}
.step27 {transform: translateX(27648px);}
.step28 {transform: translateX(28672px);}
.step29 {transform: translateX(29696px);}
    </style>

    <path d="M 248 722 Q 279 700 313 671 Q 329 658 345 661 Q 357 662 361 676 Q 364 692 353 723 Q 338 756 239 772 Q 223 775 216 771 Q 212 767 213 753 Q 217 743 248 722 Z" fill="lightgray" class="stroke step2"/>
    <path d="M 136 538 Q 191 478 225 465 Q 241 462 251 477 Q 257 490 254 508 Q 242 553 151 579 Q 150 580 149 580 Q 131 584 121 581 Q 114 580 118 566 Q 119 553 136 538 Z" fill="lightgray" class="stroke step2"/>
    <path d="M 123 154 Q 111 150 113 133 Q 129 61 164 40 Q 171 33 181 37 Q 188 38 189 63 Q 196 120 289 364 Q 296 380 295 386 Q 294 396 285 389 Q 272 380 163 197 Q 150 175 123 154 Z" fill="lightgray" class="stroke step2"/>
    <path d="M 402 523 Q 390 527 360 532 Q 348 533 345 529 Q 339 522 348 507 Q 379 449 401 354 Q 405 326 423 307 Q 442 285 447 302 Q 448 311 449 322 L 446 355 Q 439 379 417 490 C 411 519 411 520 402 523 Z" fill="lightgray" class="hide"/>
    <path d="M 752 402 Q 780 492 815 517 Q 833 536 818 554 Q 802 567 749 593 Q 730 600 708 592 Q 653 571 601 557 L 555 547 Q 480 534 402 523 C 372 519 388 483 417 490 Q 424 491 438 495 Q 496 508 556 518 L 600 527 Q 705 552 720 538 Q 735 520 702 404 C 694 375 743 373 752 402 Z" fill="lightgray" class="hide"/>
    <path d="M 597 345 Q 669 357 768 366 Q 778 367 779 375 Q 779 384 752 402 C 738 412 731 411 702 404 Q 648 392 598 381 L 556 372 Q 498 362 446 355 C 416 351 419 322 449 322 Q 456 321 467 323 Q 501 332 556 340 L 597 345 Z" fill="lightgray" class="hide"/>
    <path d="M 594 190 Q 595 269 597 345 L 598 381 Q 599 456 600 527 L 601 557 Q 601 645 623 748 Q 626 760 604 775 Q 567 794 540 798 Q 522 802 514 792 Q 507 783 515 768 Q 549 717 550 683 Q 553 617 555 547 L 556 518 Q 557 448 556 372 L 556 340 Q 555 264 550 181 C 548 151 594 160 594 190 Z" fill="lightgray" class="hide"/>
    <path d="M 735 221 Q 668 206 594 190 L 550 181 Q 478 168 402 152 Q 377 148 336 152 Q 323 152 319 141 Q 315 128 324 118 Q 346 99 378 76 Q 388 72 401 79 Q 464 113 613 155 Q 718 186 748 198 C 776 208 764 228 735 221 Z" fill="lightgray" class="hide"/>
    <path d="M 748 198 Q 812 72 820 67 Q 827 63 837 70 Q 853 79 853 122 Q 853 176 718 296 Q 711 303 706 292 Q 702 280 708 268 Q 721 246 735 221 L 748 198 Z" fill="lightgray" class="hide"/></g><g transform="scale(1, -1) translate(0, -900)">
    <style type="text/css">
        .origin {display:none;}
        .hide {display:none;}
        .stroke {fill: #000000;}
        
.step1 {transform: translateX(1024px);}
.step2 {transform: translateX(2048px);}
.step3 {transform: translateX(3072px);}
.step4 {transform: translateX(4096px);}
.step5 {transform: translateX(5120px);}
.step6 {transform: translateX(6144px);}
.step7 {transform: translateX(7168px);}
.step8 {transform: translateX(8192px);}
.step9 {transform: translateX(9216px);}
.step10 {transform: translateX(10240px);}
.step11 {transform: translateX(11264px);}
.step12 {transform: translateX(12288px);}
.step13 {transform: translateX(13312px);}
.step14 {transform: translateX(14336px);}
.step15 {transform: translateX(15360px);}
.step16 {transform: translateX(16384px);}
.step17 {transform: translateX(17408px);}
.step18 {transform: translateX(18432px);}
.step19 {transform: translateX(19456px);}
.step20 {transform: translateX(20480px);}
.step21 {transform: translateX(21504px);}
.step22 {transform: translateX(22528px);}
.step23 {transform: translateX(23552px);}
.step24 {transform: translateX(24576px);}
.step25 {transform: translateX(25600px);}
.step26 {transform: translateX(26624px);}
.step27 {transform: translateX(27648px);}
.step28 {transform: translateX(28672px);}
.step29 {transform: translateX(29696px);}
    </style>

    <path d="M 248 722 Q 279 700 313 671 Q 329 658 345 661 Q 357 662 361 676 Q 364 692 353 723 Q 338 756 239 772 Q 223 775 216 771 Q 212 767 213 753 Q 217 743 248 722 Z" fill="lightgray" class="stroke step3"/>
    <path d="M 136 538 Q 191 478 225 465 Q 241 462 251 477 Q 257 490 254 508 Q 242 553 151 579 Q 150 580 149 580 Q 131 584 121 581 Q 114 580 118 566 Q 119 553 136 538 Z" fill="lightgray" class="stroke step3"/>
    <path d="M 123 154 Q 111 150 113 133 Q 129 61 164 40 Q 171 33 181 37 Q 188 38 189 63 Q 196 120 289 364 Q 296 380 295 386 Q 294 396 285 389 Q 272 380 163 197 Q 150 175 123 154 Z" fill="lightgray" class="stroke step3"/>
    <path d="M 402 523 Q 390 527 360 532 Q 348 533 345 529 Q 339 522 348 507 Q 379 449 401 354 Q 405 326 423 307 Q 442 285 447 302 Q 448 311 449 322 L 446 355 Q 439 379 417 490 C 411 519 411 520 402 523 Z" fill="lightgray" class="stroke step3"/>
    <path d="M 752 402 Q 780 492 815 517 Q 833 536 818 554 Q 802 567 749 593 Q 730 600 708 592 Q 653 571 601 557 L 555 547 Q 480 534 402 523 C 372 519 388 483 417 490 Q 424 491 438 495 Q 496 508 556 518 L 600 527 Q 705 552 720 538 Q 735 520 702 404 C 694 375 743 373 752 402 Z" fill="lightgray" class="hide"/>
    <path d="M 597 345 Q 669 357 768 366 Q 778 367 779 375 Q 779 384 752 402 C 738 412 731 411 702 404 Q 648 392 598 381 L 556 372 Q 498 362 446 355 C 416 351 419 322 449 322 Q 456 321 467 323 Q 501 332 556 340 L 597 345 Z" fill="lightgray" class="hide"/>
    <path d="M 594 190 Q 595 269 597 345 L 598 381 Q 599 456 600 527 L 601 557 Q 601 645 623 748 Q 626 760 604 775 Q 567 794 540 798 Q 522 802 514 792 Q 507 783 515 768 Q 549 717 550 683 Q 553 617 555 547 L 556 518 Q 557 448 556 372 L 556 340 Q 555 264 550 181 C 548 151 594 160 594 190 Z" fill="lightgray" class="hide"/>
    <path d="M 735 221 Q 668 206 594 190 L 550 181 Q 478 168 402 152 Q 377 148 336 152 Q 323 152 319 141 Q 315 128 324 118 Q 346 99 378 76 Q 388 72 401 79 Q 464 113 613 155 Q 718 186 748 198 C 776 208 764 228 735 221 Z" fill="lightgray" class="hide"/>
    <path d="M 748 198 Q 812 72 820 67 Q 827 63 837 70 Q 853 79 853 122 Q 853 176 718 296 Q 711 303 706 292 Q 702 280 708 268 Q 721 246 735 221 L 748 198 Z" fill="lightgray" class="hide"/></g><g transform="scale(1, -1) translate(0, -900)">
    <style type="text/css">
        .origin {display:none;}
        .hide {display:none;}
        .stroke {fill: #000000;}
        
.step1 {transform: translateX(1024px);}
.step2 {transform: translateX(2048px);}
.step3 {transform: translateX(3072px);}
.step4 {transform: translateX(4096px);}
.step5 {transform: translateX(5120px);}
.step6 {transform: translateX(6144px);}
.step7 {transform: translateX(7168px);}
.step8 {transform: translateX(8192px);}
.step9 {transform: translateX(9216px);}
.step10 {transform: translateX(10240px);}
.step11 {transform: translateX(11264px);}
.step12 {transform: translateX(12288px);}
.step13 {transform: translateX(13312px);}
.step14 {transform: translateX(14336px);}
.step15 {transform: translateX(15360px);}
.step16 {transform: translateX(16384px);}
.step17 {transform: translateX(17408px);}
.step18 {transform: translateX(18432px);}
.step19 {transform: translateX(19456px);}
.step20 {transform: translateX(20480px);}
.step21 {transform: translateX(21504px);}
.step22 {transform: translateX(22528px);}
.step23 {transform: translateX(23552px);}
.step24 {transform: translateX(24576px);}
.step25 {transform: translateX(25600px);}
.step26 {transform: translateX(26624px);}
.step27 {transform: translateX(27648px);}
.step28 {transform: translateX(28672px);}
.step29 {transform: translateX(29696px);}
    </style>

    <path d="M 248 722 Q 279 700 313 671 Q 329 658 345 661 Q 357 662 361 676 Q 364 692 353 723 Q 338 756 239 772 Q 223 775 216 771 Q 212 767 213 753 Q 217 743 248 722 Z" fill="lightgray" class="stroke step4"/>
    <path d="M 136 538 Q 191 478 225 465 Q 241 462 251 477 Q 257 490 254 508 Q 242 553 151 579 Q 150 580 149 580 Q 131 584 121 581 Q 114 580 118 566 Q 119 553 136 538 Z" fill="lightgray" class="stroke step4"/>
    <path d="M 123 154 Q 111 150 113 133 Q 129 61 164 40 Q 171 33 181 37 Q 188 38 189 63 Q 196 120 289 364 Q 296 380 295 386 Q 294 396 285 389 Q 272 380 163 197 Q 150 175 123 154 Z" fill="lightgray" class="stroke step4"/>
    <path d="M 402 523 Q 390 527 360 532 Q 348 533 345 529 Q 339 522 348 507 Q 379 449 401 354 Q 405 326 423 307 Q 442 285 447 302 Q 448 311 449 322 L 446 355 Q 439 379 417 490 C 411 519 411 520 402 523 Z" fill="lightgray" class="stroke step4"/>
    <path d="M 752 402 Q 780 492 815 517 Q 833 536 818 554 Q 802 567 749 593 Q 730 600 708 592 Q 653 571 601 557 L 555 547 Q 480 534 402 523 C 372 519 388 483 417 490 Q 424 491 438 495 Q 496 508 556 518 L 600 527 Q 705 552 720 538 Q 735 520 702 404 C 694 375 743 373 752 402 Z" fill="lightgray" class="stroke step4"/>
    <path d="M 597 345 Q 669 357 768 366 Q 778 367 779 375 Q 779 384 752 402 C 738 412 731 411 702 404 Q 648 392 598 381 L 556 372 Q 498 362 446 355 C 416 351 419 322 449 322 Q 456 321 467 323 Q 501 332 556 340 L 597 345 Z" fill="lightgray" class="hide"/>
    <path d="M 594 190 Q 595 269 597 345 L 598 381 Q 599 456 600 527 L 601 557 Q 601 645 623 748 Q 626 760 604 775 Q 567 794 540 798 Q 522 802 514 792 Q 507 783 515 768 Q 549 717 550 683 Q 553 617 555 547 L 556 518 Q 557 448 556 372 L 556 340 Q 555 264 550 181 C 548 151 594 160 594 190 Z" fill="lightgray" class="hide"/>
    <path d="M 735 221 Q 668 206 594 190 L 550 181 Q 478 168 402 152 Q 377 148 336 152 Q 323 152 319 141 Q 315 128 324 118 Q 346 99 378 76 Q 388 72 401 79 Q 464 113 613 155 Q 718 186 748 198 C 776 208 764 228 735 221 Z" fill="lightgray" class="hide"/>
    <path d="M 748 198 Q 812 72 820 67 Q 827 63 837 70 Q 853 79 853 122 Q 853 176 718 296 Q 711 303 706 292 Q 702 280 708 268 Q 721 246 735 221 L 748 198 Z" fill="lightgray" class="hide"/></g><g transform="scale(1, -1) translate(0, -900)">
    <style type="text/css">
        .origin {display:none;}
        .hide {display:none;}
        .stroke {fill: #000000;}
        
.step1 {transform: translateX(1024px);}
.step2 {transform: translateX(2048px);}
.step3 {transform: translateX(3072px);}
.step4 {transform: translateX(4096px);}
.step5 {transform: translateX(5120px);}
.step6 {transform: translateX(6144px);}
.step7 {transform: translateX(7168px);}
.step8 {transform: translateX(8192px);}
.step9 {transform: translateX(9216px);}
.step10 {transform: translateX(10240px);}
.step11 {transform: translateX(11264px);}
.step12 {transform: translateX(12288px);}
.step13 {transform: translateX(13312px);}
.step14 {transform: translateX(14336px);}
.step15 {transform: translateX(15360px);}
.step16 {transform: translateX(16384px);}
.step17 {transform: translateX(17408px);}
.step18 {transform: translateX(18432px);}
.step19 {transform: translateX(19456px);}
.step20 {transform: translateX(20480px);}
.step21 {transform: translateX(21504px);}
.step22 {transform: translateX(22528px);}
.step23 {transform: translateX(23552px);}
.step24 {transform: translateX(24576px);}
.step25 {transform: translateX(25600px);}
.step26 {transform: translateX(26624px);}
.step27 {transform: translateX(27648px);}
.step28 {transform: translateX(28672px);}
.step29 {transform: translateX(29696px);}
    </style>

    <path d="M 248 722 Q 279 700 313 671 Q 329 658 345 661 Q 357 662 361 676 Q 364 692 353 723 Q 338 756 239 772 Q 223 775 216 771 Q 212 767 213 753 Q 217 743 248 722 Z" fill="lightgray" class="stroke step5"/>
    <path d="M 136 538 Q 191 478 225 465 Q 241 462 251 477 Q 257 490 254 508 Q 242 553 151 579 Q 150 580 149 580 Q 131 584 121 581 Q 114 580 118 566 Q 119 553 136 538 Z" fill="lightgray" class="stroke step5"/>
    <path d="M 123 154 Q 111 150 113 133 Q 129 61 164 40 Q 171 33 181 37 Q 188 38 189 63 Q 196 120 289 364 Q 296 380 295 386 Q 294 396 285 389 Q 272 380 163 197 Q 150 175 123 154 Z" fill="lightgray" class="stroke step5"/>
    <path d="M 402 523 Q 390 527 360 532 Q 348 533 345 529 Q 339 522 348 507 Q 379 449 401 354 Q 405 326 423 307 Q 442 285 447 302 Q 448 311 449 322 L 446 355 Q 439 379 417 490 C 411 519 411 520 402 523 Z" fill="lightgray" class="stroke step5"/>
    <path d="M 752 402 Q 780 492 815 517 Q 833 536 818 554 Q 802 567 749 593 Q 730 600 708 592 Q 653 571 601 557 L 555 547 Q 480 534 402 523 C 372 519 388 483 417 490 Q 424 491 438 495 Q 496 508 556 518 L 600 527 Q 705 552 720 538 Q 735 520 702 404 C 694 375 743 373 752 402 Z" fill="lightgray" class="stroke step5"/>
    <path d="M 597 345 Q 669 357 768 366 Q 778 367 779 375 Q 779 384 752 402 C 738 412 731 411 702 404 Q 648 392 598 381 L 556 372 Q 498 362 446 355 C 416 351 419 322 449 322 Q 456 321 467 323 Q 501 332 556 340 L 597 345 Z" fill="lightgray" class="stroke step5"/>
    <path d="M 594 190 Q 595 269 597 345 L 598 381 Q 599 456 600 527 L 601 557 Q 601 645 623 748 Q 626 760 604 775 Q 567 794 540 798 Q 522 802 514 792 Q 507 783 515 768 Q 549 717 550 683 Q 553 617 555 547 L 556 518 Q 557 448 556 372 L 556 340 Q 555 264 550 181 C 548 151 594 160 594 190 Z" fill="lightgray" class="hide"/>
    <path d="M 735 221 Q 668 206 594 190 L 550 181 Q 478 168 402 152 Q 377 148 336 152 Q 323 152 319 141 Q 315 128 324 118 Q 346 99 378 76 Q 388 72 401 79 Q 464 113 613 155 Q 718 186 748 198 C 776 208 764 228 735 221 Z" fill="lightgray" class="hide"/>
    <path d="M 748 198 Q 812 72 820 67 Q 827 63 837 70 Q 853 79 853 122 Q 853 176 718 296 Q 711 303 706 292 Q 702 280 708 268 Q 721 246 735 221 L 748 198 Z" fill="lightgray" class="hide"/></g><g transform="scale(1, -1) translate(0, -900)">
    <style type="text/css">
        .origin {display:none;}
        .hide {display:none;}
        .stroke {fill: #000000;}
        
.step1 {transform: translateX(1024px);}
.step2 {transform: translateX(2048px);}
.step3 {transform: translateX(3072px);}
.step4 {transform: translateX(4096px);}
.step5 {transform: translateX(5120px);}
.step6 {transform: translateX(6144px);}
.step7 {transform: translateX(7168px);}
.step8 {transform: translateX(8192px);}
.step9 {transform: translateX(9216px);}
.step10 {transform: translateX(10240px);}
.step11 {transform: translateX(11264px);}
.step12 {transform: translateX(12288px);}
.step13 {transform: translateX(13312px);}
.step14 {transform: translateX(14336px);}
.step15 {transform: translateX(15360px);}
.step16 {transform: translateX(16384px);}
.step17 {transform: translateX(17408px);}
.step18 {transform: translateX(18432px);}
.step19 {transform: translateX(19456px);}
.step20 {transform: translateX(20480px);}
.step21 {transform: translateX(21504px);}
.step22 {transform: translateX(22528px);}
.step23 {transform: translateX(23552px);}
.step24 {transform: translateX(24576px);}
.step25 {transform: translateX(25600px);}
.step26 {transform: translateX(26624px);}
.step27 {transform: translateX(27648px);}
.step28 {transform: translateX(28672px);}
.step29 {transform: translateX(29696px);}
    </style>

    <path d="M 248 722 Q 279 700 313 671 Q 329 658 345 661 Q 357 662 361 676 Q 364 692 353 723 Q 338 756 239 772 Q 223 775 216 771 Q 212 767 213 753 Q 217 743 248 722 Z" fill="lightgray" class="stroke step6"/>
    <path d="M 136 538 Q 191 478 225 465 Q 241 462 251 477 Q 257 490 254 508 Q 242 553 151 579 Q 150 580 149 580 Q 131 584 121 581 Q 114 580 118 566 Q 119 553 136 538 Z" fill="lightgray" class="stroke step6"/>
    <path d="M 123 154 Q 111 150 113 133 Q 129 61 164 40 Q 171 33 181 37 Q 188 38 189 63 Q 196 120 289 364 Q 296 380 295 386 Q 294 396 285 389 Q 272 380 163 197 Q 150 175 123 154 Z" fill="lightgray" class="stroke step6"/>
    <path d="M 402 523 Q 390 527 360 532 Q 348 533 345 529 Q 339 522 348 507 Q 379 449 401 354 Q 405 326 423 307 Q 442 285 447 302 Q 448 311 449 322 L 446 355 Q 439 379 417 490 C 411 519 411 520 402 523 Z" fill="lightgray" class="stroke step6"/>
    <path d="M 752 402 Q 780 492 815 517 Q 833 536 818 554 Q 802 567 749 593 Q 730 600 708 592 Q 653 571 601 557 L 555 547 Q 480 534 402 523 C 372 519 388 483 417 490 Q 424 491 438 495 Q 496 508 556 518 L 600 527 Q 705 552 720 538 Q 735 520 702 404 C 694 375 743 373 752 402 Z" fill="lightgray" class="stroke step6"/>
    <path d="M 597 345 Q 669 357 768 366 Q 778 367 779 375 Q 779 384 752 402 C 738 412 731 411 702 404 Q 648 392 598 381 L 556 372 Q 498 362 446 355 C 416 351 419 322 449 322 Q 456 321 467 323 Q 501 332 556 340 L 597 345 Z" fill="lightgray" class="stroke step6"/>
    <path d="M 594 190 Q 595 269 597 345 L 598 381 Q 599 456 600 527 L 601 557 Q 601 645 623 748 Q 626 760 604 775 Q 567 794 540 798 Q 522 802 514 792 Q 507 783 515 768 Q 549 717 550 683 Q 553 617 555 547 L 556 518 Q 557 448 556 372 L 556 340 Q 555 264 550 181 C 548 151 594 160 594 190 Z" fill="lightgray" class="stroke step6"/>
    <path d="M 735 221 Q 668 206 594 190 L 550 181 Q 478 168 402 152 Q 377 148 336 152 Q 323 152 319 141 Q 315 128 324 118 Q 346 99 378 76 Q 388 72 401 79 Q 464 113 613 155 Q 718 186 748 198 C 776 208 764 228 735 221 Z" fill="lightgray" class="hide"/>
    <path d="M 748 198 Q 812 72 820 67 Q 827 63 837 70 Q 853 79 853 122 Q 853 176 718 296 Q 711 303 706 292 Q 702 280 708 268 Q 721 246 735 221 L 748 198 Z" fill="lightgray" class="hide"/></g><g transform="scale(1, -1) translate(0, -900)">
    <style type="text/css">
        .origin {display:none;}
        .hide {display:none;}
        .stroke {fill: #000000;}
        
.step1 {transform: translateX(1024px);}
.step2 {transform: translateX(2048px);}
.step3 {transform: translateX(3072px);}
.step4 {transform: translateX(4096px);}
.step5 {transform: translateX(5120px);}
.step6 {transform: translateX(6144px);}
.step7 {transform: translateX(7168px);}
.step8 {transform: translateX(8192px);}
.step9 {transform: translateX(9216px);}
.step10 {transform: translateX(10240px);}
.step11 {transform: translateX(11264px);}
.step12 {transform: translateX(12288px);}
.step13 {transform: translateX(13312px);}
.step14 {transform: translateX(14336px);}
.step15 {transform: translateX(15360px);}
.step16 {transform: translateX(16384px);}
.step17 {transform: translateX(17408px);}
.step18 {transform: translateX(18432px);}
.step19 {transform: translateX(19456px);}
.step20 {transform: translateX(20480px);}
.step21 {transform: translateX(21504px);}
.step22 {transform: translateX(22528px);}
.step23 {transform: translateX(23552px);}
.step24 {transform: translateX(24576px);}
.step25 {transform: translateX(25600px);}
.step26 {transform: translateX(26624px);}
.step27 {transform: translateX(27648px);}
.step28 {transform: translateX(28672px);}
.step29 {transform: translateX(29696px);}
    </style>

    <path d="M 248 722 Q 279 700 313 671 Q 329 658 345 661 Q 357 662 361 676 Q 364 692 353 723 Q 338 756 239 772 Q 223 775 216 771 Q 212 767 213 753 Q 217 743 248 722 Z" fill="lightgray" class="stroke step7"/>
    <path d="M 136 538 Q 191 478 225 465 Q 241 462 251 477 Q 257 490 254 508 Q 242 553 151 579 Q 150 580 149 580 Q 131 584 121 581 Q 114 580 118 566 Q 119 553 136 538 Z" fill="lightgray" class="stroke step7"/>
    <path d="M 123 154 Q 111 150 113 133 Q 129 61 164 40 Q 171 33 181 37 Q 188 38 189 63 Q 196 120 289 364 Q 296 380 295 386 Q 294 396 285 389 Q 272 380 163 197 Q 150 175 123 154 Z" fill="lightgray" class="stroke step7"/>
    <path d="M 402 523 Q 390 527 360 532 Q 348 533 345 529 Q 339 522 348 507 Q 379 449 401 354 Q 405 326 423 307 Q 442 285 447 302 Q 448 311 449 322 L 446 355 Q 439 379 417 490 C 411 519 411 520 402 523 Z" fill="lightgray" class="stroke step7"/>
    <path d="M 752 402 Q 780 492 815 517 Q 833 536 818 554 Q 802 567 749 593 Q 730 600 708 592 Q 653 571 601 557 L 555 547 Q 480 534 402 523 C 372 519 388 483 417 490 Q 424 491 438 495 Q 496 508 556 518 L 600 527 Q 705 552 720 538 Q 735 520 702 404 C 694 375 743 373 752 402 Z" fill="lightgray" class="stroke step7"/>
    <path d="M 597 345 Q 669 357 768 366 Q 778 367 779 375 Q 779 384 752 402 C 738 412 731 411 702 404 Q 648 392 598 381 L 556 372 Q 498 362 446 355 C 416 351 419 322 449 322 Q 456 321 467 323 Q 501 332 556 340 L 597 345 Z" fill="lightgray" class="stroke step7"/>
    <path d="M 594 190 Q 595 269 597 345 L 598 381 Q 599 456 600 527 L 601 557 Q 601 645 623 748 Q 626 760 604 775 Q 567 794 540 798 Q 522 802 514 792 Q 507 783 515 768 Q 549 717 550 683 Q 553 617 555 547 L 556 518 Q 557 448 556 372 L 556 340 Q 555 264 550 181 C 548 151 594 160 594 190 Z" fill="lightgray" class="stroke step7"/>
    <path d="M 735 221 Q 668 206 594 190 L 550 181 Q 478 168 402 152 Q 377 148 336 152 Q 323 152 319 141 Q 315 128 324 118 Q 346 99 378 76 Q 388 72 401 79 Q 464 113 613 155 Q 718 186 748 198 C 776 208 764 228 735 221 Z" fill="lightgray" class="stroke step7"/>
    <path d="M 748 198 Q 812 72 820 67 Q 827 63 837 70 Q 853 79 853 122 Q 853 176 718 296 Q 711 303 706 292 Q 702 280 708 268 Q 721 246 735 221 L 748 198 Z" fill="lightgray" class="hide"/></g><g transform="scale(1, -1) translate(0, -900)">
    <style type="text/css">
        .origin {display:none;}
        .hide {display:none;}
        .stroke {fill: #000000;}
        
.step1 {transform: translateX(1024px);}
.step2 {transform: translateX(2048px);}
.step3 {transform: translateX(3072px);}
.step4 {transform: translateX(4096px);}
.step5 {transform: translateX(5120px);}
.step6 {transform: translateX(6144px);}
.step7 {transform: translateX(7168px);}
.step8 {transform: translateX(8192px);}
.step9 {transform: translateX(9216px);}
.step10 {transform: translateX(10240px);}
.step11 {transform: translateX(11264px);}
.step12 {transform: translateX(12288px);}
.step13 {transform: translateX(13312px);}
.step14 {transform: translateX(14336px);}
.step15 {transform: translateX(15360px);}
.step16 {transform: translateX(16384px);}
.step17 {transform: translateX(17408px);}
.step18 {transform: translateX(18432px);}
.step19 {transform: translateX(19456px);}
.step20 {transform: translateX(20480px);}
.step21 {transform: translateX(21504px);}
.step22 {transform: translateX(22528px);}
.step23 {transform: translateX(23552px);}
.step24 {transform: translateX(24576px);}
.step25 {transform: translateX(25600px);}
.step26 {transform: translateX(26624px);}
.step27 {transform: translateX(27648px);}
.step28 {transform: translateX(28672px);}
.step29 {transform: translateX(29696px);}
    </style>

    <path d="M 248 722 Q 279 700 313 671 Q 329 658 345 661 Q 357 662 361 676 Q 364 692 353 723 Q 338 756 239 772 Q 223 775 216 771 Q 212 767 213 753 Q 217 743 248 722 Z" fill="lightgray" class="stroke step8"/>
    <path d="M 136 538 Q 191 478 225 465 Q 241 462 251 477 Q 257 490 254 508 Q 242 553 151 579 Q 150 580 149 580 Q 131 584 121 581 Q 114 580 118 566 Q 119 553 136 538 Z" fill="lightgray" class="stroke step8"/>
    <path d="M 123 154 Q 111 150 113 133 Q 129 61 164 40 Q 171 33 181 37 Q 188 38 189 63 Q 196 120 289 364 Q 296 380 295 386 Q 294 396 285 389 Q 272 380 163 197 Q 150 175 123 154 Z" fill="lightgray" class="stroke step8"/>
    <path d="M 402 523 Q 390 527 360 532 Q 348 533 345 529 Q 339 522 348 507 Q 379 449 401 354 Q 405 326 423 307 Q 442 285 447 302 Q 448 311 449 322 L 446 355 Q 439 379 417 490 C 411 519 411 520 402 523 Z" fill="lightgray" class="stroke step8"/>
    <path d="M 752 402 Q 780 492 815 517 Q 833 536 818 554 Q 802 567 749 593 Q 730 600 708 592 Q 653 571 601 557 L 555 547 Q 480 534 402 523 C 372 519 388 483 417 490 Q 424 491 438 495 Q 496 508 556 518 L 600 527 Q 705 552 720 538 Q 735 520 702 404 C 694 375 743 373 752 402 Z" fill="lightgray" class="stroke step8"/>
    <path d="M 597 345 Q 669 357 768 366 Q 778 367 779 375 Q 779 384 752 402 C 738 412 731 411 702 404 Q 648 392 598 381 L 556 372 Q 498 362 446 355 C 416 351 419 322 449 322 Q 456 321 467 323 Q 501 332 556 340 L 597 345 Z" fill="lightgray" class="stroke step8"/>
    <path d="M 594 190 Q 595 269 597 345 L 598 381 Q 599 456 600 527 L 601 557 Q 601 645 623 748 Q 626 760 604 775 Q 567 794 540 798 Q 522 802 514 792 Q 507 783 515 768 Q 549 717 550 683 Q 553 617 555 547 L 556 518 Q 557 448 556 372 L 556 340 Q 555 264 550 181 C 548 151 594 160 594 190 Z" fill="lightgray" class="stroke step8"/>
    <path d="M 735 221 Q 668 206 594 190 L 550 181 Q 478 168 402 152 Q 377 148 336 152 Q 323 152 319 141 Q 315 128 324 118 Q 346 99 378 76 Q 388 72 401 79 Q 464 113 613 155 Q 718 186 748 198 C 776 208 764 228 735 221 Z" fill="lightgray" class="stroke step8"/>
    <path d="M 748 198 Q 812 72 820 67 Q 827 63 837 70 Q 853 79 853 122 Q 853 176 718 296 Q 711 303 706 292 Q 702 280 708 268 Q 721 246 735 221 L 748 198 Z" fill="lightgray" class="stroke step8"/></g></svg>