<svg version="1.1" viewBox="0 0 9216 1024" xmlns="http://www.w3.org/2000/svg">
  
  <g transform="scale(1, -1) translate(0, -900)" class="origin">
    <style type="text/css">
        .origin {display:none;}
        .hide {display:none;}
        .stroke {fill: #000000;}
        
.step1 {transform: translateX(1024px);}
.step2 {transform: translateX(2048px);}
.step3 {transform: translateX(3072px);}
.step4 {transform: translateX(4096px);}
.step5 {transform: translateX(5120px);}
.step6 {transform: translateX(6144px);}
.step7 {transform: translateX(7168px);}
.step8 {transform: translateX(8192px);}
.step9 {transform: translateX(9216px);}
.step10 {transform: translateX(10240px);}
.step11 {transform: translateX(11264px);}
.step12 {transform: translateX(12288px);}
.step13 {transform: translateX(13312px);}
.step14 {transform: translateX(14336px);}
.step15 {transform: translateX(15360px);}
.step16 {transform: translateX(16384px);}
.step17 {transform: translateX(17408px);}
.step18 {transform: translateX(18432px);}
.step19 {transform: translateX(19456px);}
.step20 {transform: translateX(20480px);}
.step21 {transform: translateX(21504px);}
.step22 {transform: translateX(22528px);}
.step23 {transform: translateX(23552px);}
.step24 {transform: translateX(24576px);}
.step25 {transform: translateX(25600px);}
.step26 {transform: translateX(26624px);}
.step27 {transform: translateX(27648px);}
.step28 {transform: translateX(28672px);}
.step29 {transform: translateX(29696px);}
    </style>

    <path d="M 212 718 Q 216 709 230 695 Q 269 661 302 623 Q 318 608 335 608 Q 350 608 355 627 Q 359 645 351 674 Q 345 699 286 722 Q 240 740 220 738 Q 218 738 217 737 Q 211 734 212 718 Z" fill="lightgray"/>
    <path d="M 134 484 Q 182 429 221 416 Q 245 416 251 439 Q 253 450 250 464 Q 235 507 171 521 Q 127 531 118 527 Q 111 526 114 512 Q 116 499 134 484 Z" fill="lightgray"/>
    <path d="M 131 126 Q 119 122 122 104 Q 139 25 173 8 Q 180 1 192 4 Q 198 6 200 32 Q 206 76 314 365 Q 321 380 319 388 Q 319 398 310 390 Q 298 384 175 174 Q 163 151 131 126 Z" fill="lightgray"/>
    <path d="M 562 806 Q 564 798 586 782 Q 655 733 669 723 Q 688 705 706 714 Q 712 719 715 727 Q 719 742 708 770 Q 698 794 631 812 Q 582 826 564 821 Q 561 817 562 806 Z" fill="lightgray"/>
    <path d="M 745 645 Q 750 647 817 659 Q 857 666 865 673 Q 876 680 870 690 Q 862 703 831 710 Q 801 716 694 686 Q 541 661 492 655 Q 453 652 480 632 Q 517 612 602 622 L 715 641 L 745 645 Z" fill="lightgray"/>
    <path d="M 520 564 Q 562 487 585 478 Q 596 474 607 490 Q 615 512 600 533 Q 592 545 578 553 Q 543 581 529 587 Q 522 590 517 580 Q 515 574 520 564 Z" fill="lightgray"/>
    <path d="M 715 474 Q 723 486 762 555 Q 775 578 786 591 Q 799 604 790 612 Q 778 629 745 645 C 718 658 707 664 715 641 Q 715 640 719 630 Q 729 592 690 490 Q 686 479 684 467 C 678 438 699 449 715 474 Z" fill="lightgray"/>
    <path d="M 515 402 Q 522 402 567 410 Q 666 426 867 445 Q 878 443 889 456 Q 890 468 866 478 Q 835 503 745 480 Q 734 479 715 474 L 684 467 Q 600 455 543 451 Q 524 451 497 447 C 467 443 485 399 515 402 Z" fill="lightgray"/>
    <path d="M 497 447 Q 458 466 446 465 Q 425 462 441 441 Q 468 397 440 227 Q 431 188 406 134 Q 376 73 305 20 Q 275 -3 296 -3 Q 331 -6 396 53 Q 476 130 502 316 L 514 395 Q 514 400 515 402 C 519 432 520 436 497 447 Z" fill="lightgray"/></g>
<g transform="scale(1, -1) translate(0, -900)">
    <style type="text/css">
        .origin {display:none;}
        .hide {display:none;}
        .stroke {fill: #000000;}
        
.step1 {transform: translateX(1024px);}
.step2 {transform: translateX(2048px);}
.step3 {transform: translateX(3072px);}
.step4 {transform: translateX(4096px);}
.step5 {transform: translateX(5120px);}
.step6 {transform: translateX(6144px);}
.step7 {transform: translateX(7168px);}
.step8 {transform: translateX(8192px);}
.step9 {transform: translateX(9216px);}
.step10 {transform: translateX(10240px);}
.step11 {transform: translateX(11264px);}
.step12 {transform: translateX(12288px);}
.step13 {transform: translateX(13312px);}
.step14 {transform: translateX(14336px);}
.step15 {transform: translateX(15360px);}
.step16 {transform: translateX(16384px);}
.step17 {transform: translateX(17408px);}
.step18 {transform: translateX(18432px);}
.step19 {transform: translateX(19456px);}
.step20 {transform: translateX(20480px);}
.step21 {transform: translateX(21504px);}
.step22 {transform: translateX(22528px);}
.step23 {transform: translateX(23552px);}
.step24 {transform: translateX(24576px);}
.step25 {transform: translateX(25600px);}
.step26 {transform: translateX(26624px);}
.step27 {transform: translateX(27648px);}
.step28 {transform: translateX(28672px);}
.step29 {transform: translateX(29696px);}
    </style>

    <path d="M 212 718 Q 216 709 230 695 Q 269 661 302 623 Q 318 608 335 608 Q 350 608 355 627 Q 359 645 351 674 Q 345 699 286 722 Q 240 740 220 738 Q 218 738 217 737 Q 211 734 212 718 Z" fill="lightgray" class="stroke step0"/>
    <path d="M 134 484 Q 182 429 221 416 Q 245 416 251 439 Q 253 450 250 464 Q 235 507 171 521 Q 127 531 118 527 Q 111 526 114 512 Q 116 499 134 484 Z" fill="lightgray" class="hide"/>
    <path d="M 131 126 Q 119 122 122 104 Q 139 25 173 8 Q 180 1 192 4 Q 198 6 200 32 Q 206 76 314 365 Q 321 380 319 388 Q 319 398 310 390 Q 298 384 175 174 Q 163 151 131 126 Z" fill="lightgray" class="hide"/>
    <path d="M 562 806 Q 564 798 586 782 Q 655 733 669 723 Q 688 705 706 714 Q 712 719 715 727 Q 719 742 708 770 Q 698 794 631 812 Q 582 826 564 821 Q 561 817 562 806 Z" fill="lightgray" class="hide"/>
    <path d="M 745 645 Q 750 647 817 659 Q 857 666 865 673 Q 876 680 870 690 Q 862 703 831 710 Q 801 716 694 686 Q 541 661 492 655 Q 453 652 480 632 Q 517 612 602 622 L 715 641 L 745 645 Z" fill="lightgray" class="hide"/>
    <path d="M 520 564 Q 562 487 585 478 Q 596 474 607 490 Q 615 512 600 533 Q 592 545 578 553 Q 543 581 529 587 Q 522 590 517 580 Q 515 574 520 564 Z" fill="lightgray" class="hide"/>
    <path d="M 715 474 Q 723 486 762 555 Q 775 578 786 591 Q 799 604 790 612 Q 778 629 745 645 C 718 658 707 664 715 641 Q 715 640 719 630 Q 729 592 690 490 Q 686 479 684 467 C 678 438 699 449 715 474 Z" fill="lightgray" class="hide"/>
    <path d="M 515 402 Q 522 402 567 410 Q 666 426 867 445 Q 878 443 889 456 Q 890 468 866 478 Q 835 503 745 480 Q 734 479 715 474 L 684 467 Q 600 455 543 451 Q 524 451 497 447 C 467 443 485 399 515 402 Z" fill="lightgray" class="hide"/>
    <path d="M 497 447 Q 458 466 446 465 Q 425 462 441 441 Q 468 397 440 227 Q 431 188 406 134 Q 376 73 305 20 Q 275 -3 296 -3 Q 331 -6 396 53 Q 476 130 502 316 L 514 395 Q 514 400 515 402 C 519 432 520 436 497 447 Z" fill="lightgray" class="hide"/></g><g transform="scale(1, -1) translate(0, -900)">
    <style type="text/css">
        .origin {display:none;}
        .hide {display:none;}
        .stroke {fill: #000000;}
        
.step1 {transform: translateX(1024px);}
.step2 {transform: translateX(2048px);}
.step3 {transform: translateX(3072px);}
.step4 {transform: translateX(4096px);}
.step5 {transform: translateX(5120px);}
.step6 {transform: translateX(6144px);}
.step7 {transform: translateX(7168px);}
.step8 {transform: translateX(8192px);}
.step9 {transform: translateX(9216px);}
.step10 {transform: translateX(10240px);}
.step11 {transform: translateX(11264px);}
.step12 {transform: translateX(12288px);}
.step13 {transform: translateX(13312px);}
.step14 {transform: translateX(14336px);}
.step15 {transform: translateX(15360px);}
.step16 {transform: translateX(16384px);}
.step17 {transform: translateX(17408px);}
.step18 {transform: translateX(18432px);}
.step19 {transform: translateX(19456px);}
.step20 {transform: translateX(20480px);}
.step21 {transform: translateX(21504px);}
.step22 {transform: translateX(22528px);}
.step23 {transform: translateX(23552px);}
.step24 {transform: translateX(24576px);}
.step25 {transform: translateX(25600px);}
.step26 {transform: translateX(26624px);}
.step27 {transform: translateX(27648px);}
.step28 {transform: translateX(28672px);}
.step29 {transform: translateX(29696px);}
    </style>

    <path d="M 212 718 Q 216 709 230 695 Q 269 661 302 623 Q 318 608 335 608 Q 350 608 355 627 Q 359 645 351 674 Q 345 699 286 722 Q 240 740 220 738 Q 218 738 217 737 Q 211 734 212 718 Z" fill="lightgray" class="stroke step1"/>
    <path d="M 134 484 Q 182 429 221 416 Q 245 416 251 439 Q 253 450 250 464 Q 235 507 171 521 Q 127 531 118 527 Q 111 526 114 512 Q 116 499 134 484 Z" fill="lightgray" class="stroke step1"/>
    <path d="M 131 126 Q 119 122 122 104 Q 139 25 173 8 Q 180 1 192 4 Q 198 6 200 32 Q 206 76 314 365 Q 321 380 319 388 Q 319 398 310 390 Q 298 384 175 174 Q 163 151 131 126 Z" fill="lightgray" class="hide"/>
    <path d="M 562 806 Q 564 798 586 782 Q 655 733 669 723 Q 688 705 706 714 Q 712 719 715 727 Q 719 742 708 770 Q 698 794 631 812 Q 582 826 564 821 Q 561 817 562 806 Z" fill="lightgray" class="hide"/>
    <path d="M 745 645 Q 750 647 817 659 Q 857 666 865 673 Q 876 680 870 690 Q 862 703 831 710 Q 801 716 694 686 Q 541 661 492 655 Q 453 652 480 632 Q 517 612 602 622 L 715 641 L 745 645 Z" fill="lightgray" class="hide"/>
    <path d="M 520 564 Q 562 487 585 478 Q 596 474 607 490 Q 615 512 600 533 Q 592 545 578 553 Q 543 581 529 587 Q 522 590 517 580 Q 515 574 520 564 Z" fill="lightgray" class="hide"/>
    <path d="M 715 474 Q 723 486 762 555 Q 775 578 786 591 Q 799 604 790 612 Q 778 629 745 645 C 718 658 707 664 715 641 Q 715 640 719 630 Q 729 592 690 490 Q 686 479 684 467 C 678 438 699 449 715 474 Z" fill="lightgray" class="hide"/>
    <path d="M 515 402 Q 522 402 567 410 Q 666 426 867 445 Q 878 443 889 456 Q 890 468 866 478 Q 835 503 745 480 Q 734 479 715 474 L 684 467 Q 600 455 543 451 Q 524 451 497 447 C 467 443 485 399 515 402 Z" fill="lightgray" class="hide"/>
    <path d="M 497 447 Q 458 466 446 465 Q 425 462 441 441 Q 468 397 440 227 Q 431 188 406 134 Q 376 73 305 20 Q 275 -3 296 -3 Q 331 -6 396 53 Q 476 130 502 316 L 514 395 Q 514 400 515 402 C 519 432 520 436 497 447 Z" fill="lightgray" class="hide"/></g><g transform="scale(1, -1) translate(0, -900)">
    <style type="text/css">
        .origin {display:none;}
        .hide {display:none;}
        .stroke {fill: #000000;}
        
.step1 {transform: translateX(1024px);}
.step2 {transform: translateX(2048px);}
.step3 {transform: translateX(3072px);}
.step4 {transform: translateX(4096px);}
.step5 {transform: translateX(5120px);}
.step6 {transform: translateX(6144px);}
.step7 {transform: translateX(7168px);}
.step8 {transform: translateX(8192px);}
.step9 {transform: translateX(9216px);}
.step10 {transform: translateX(10240px);}
.step11 {transform: translateX(11264px);}
.step12 {transform: translateX(12288px);}
.step13 {transform: translateX(13312px);}
.step14 {transform: translateX(14336px);}
.step15 {transform: translateX(15360px);}
.step16 {transform: translateX(16384px);}
.step17 {transform: translateX(17408px);}
.step18 {transform: translateX(18432px);}
.step19 {transform: translateX(19456px);}
.step20 {transform: translateX(20480px);}
.step21 {transform: translateX(21504px);}
.step22 {transform: translateX(22528px);}
.step23 {transform: translateX(23552px);}
.step24 {transform: translateX(24576px);}
.step25 {transform: translateX(25600px);}
.step26 {transform: translateX(26624px);}
.step27 {transform: translateX(27648px);}
.step28 {transform: translateX(28672px);}
.step29 {transform: translateX(29696px);}
    </style>

    <path d="M 212 718 Q 216 709 230 695 Q 269 661 302 623 Q 318 608 335 608 Q 350 608 355 627 Q 359 645 351 674 Q 345 699 286 722 Q 240 740 220 738 Q 218 738 217 737 Q 211 734 212 718 Z" fill="lightgray" class="stroke step2"/>
    <path d="M 134 484 Q 182 429 221 416 Q 245 416 251 439 Q 253 450 250 464 Q 235 507 171 521 Q 127 531 118 527 Q 111 526 114 512 Q 116 499 134 484 Z" fill="lightgray" class="stroke step2"/>
    <path d="M 131 126 Q 119 122 122 104 Q 139 25 173 8 Q 180 1 192 4 Q 198 6 200 32 Q 206 76 314 365 Q 321 380 319 388 Q 319 398 310 390 Q 298 384 175 174 Q 163 151 131 126 Z" fill="lightgray" class="stroke step2"/>
    <path d="M 562 806 Q 564 798 586 782 Q 655 733 669 723 Q 688 705 706 714 Q 712 719 715 727 Q 719 742 708 770 Q 698 794 631 812 Q 582 826 564 821 Q 561 817 562 806 Z" fill="lightgray" class="hide"/>
    <path d="M 745 645 Q 750 647 817 659 Q 857 666 865 673 Q 876 680 870 690 Q 862 703 831 710 Q 801 716 694 686 Q 541 661 492 655 Q 453 652 480 632 Q 517 612 602 622 L 715 641 L 745 645 Z" fill="lightgray" class="hide"/>
    <path d="M 520 564 Q 562 487 585 478 Q 596 474 607 490 Q 615 512 600 533 Q 592 545 578 553 Q 543 581 529 587 Q 522 590 517 580 Q 515 574 520 564 Z" fill="lightgray" class="hide"/>
    <path d="M 715 474 Q 723 486 762 555 Q 775 578 786 591 Q 799 604 790 612 Q 778 629 745 645 C 718 658 707 664 715 641 Q 715 640 719 630 Q 729 592 690 490 Q 686 479 684 467 C 678 438 699 449 715 474 Z" fill="lightgray" class="hide"/>
    <path d="M 515 402 Q 522 402 567 410 Q 666 426 867 445 Q 878 443 889 456 Q 890 468 866 478 Q 835 503 745 480 Q 734 479 715 474 L 684 467 Q 600 455 543 451 Q 524 451 497 447 C 467 443 485 399 515 402 Z" fill="lightgray" class="hide"/>
    <path d="M 497 447 Q 458 466 446 465 Q 425 462 441 441 Q 468 397 440 227 Q 431 188 406 134 Q 376 73 305 20 Q 275 -3 296 -3 Q 331 -6 396 53 Q 476 130 502 316 L 514 395 Q 514 400 515 402 C 519 432 520 436 497 447 Z" fill="lightgray" class="hide"/></g><g transform="scale(1, -1) translate(0, -900)">
    <style type="text/css">
        .origin {display:none;}
        .hide {display:none;}
        .stroke {fill: #000000;}
        
.step1 {transform: translateX(1024px);}
.step2 {transform: translateX(2048px);}
.step3 {transform: translateX(3072px);}
.step4 {transform: translateX(4096px);}
.step5 {transform: translateX(5120px);}
.step6 {transform: translateX(6144px);}
.step7 {transform: translateX(7168px);}
.step8 {transform: translateX(8192px);}
.step9 {transform: translateX(9216px);}
.step10 {transform: translateX(10240px);}
.step11 {transform: translateX(11264px);}
.step12 {transform: translateX(12288px);}
.step13 {transform: translateX(13312px);}
.step14 {transform: translateX(14336px);}
.step15 {transform: translateX(15360px);}
.step16 {transform: translateX(16384px);}
.step17 {transform: translateX(17408px);}
.step18 {transform: translateX(18432px);}
.step19 {transform: translateX(19456px);}
.step20 {transform: translateX(20480px);}
.step21 {transform: translateX(21504px);}
.step22 {transform: translateX(22528px);}
.step23 {transform: translateX(23552px);}
.step24 {transform: translateX(24576px);}
.step25 {transform: translateX(25600px);}
.step26 {transform: translateX(26624px);}
.step27 {transform: translateX(27648px);}
.step28 {transform: translateX(28672px);}
.step29 {transform: translateX(29696px);}
    </style>

    <path d="M 212 718 Q 216 709 230 695 Q 269 661 302 623 Q 318 608 335 608 Q 350 608 355 627 Q 359 645 351 674 Q 345 699 286 722 Q 240 740 220 738 Q 218 738 217 737 Q 211 734 212 718 Z" fill="lightgray" class="stroke step3"/>
    <path d="M 134 484 Q 182 429 221 416 Q 245 416 251 439 Q 253 450 250 464 Q 235 507 171 521 Q 127 531 118 527 Q 111 526 114 512 Q 116 499 134 484 Z" fill="lightgray" class="stroke step3"/>
    <path d="M 131 126 Q 119 122 122 104 Q 139 25 173 8 Q 180 1 192 4 Q 198 6 200 32 Q 206 76 314 365 Q 321 380 319 388 Q 319 398 310 390 Q 298 384 175 174 Q 163 151 131 126 Z" fill="lightgray" class="stroke step3"/>
    <path d="M 562 806 Q 564 798 586 782 Q 655 733 669 723 Q 688 705 706 714 Q 712 719 715 727 Q 719 742 708 770 Q 698 794 631 812 Q 582 826 564 821 Q 561 817 562 806 Z" fill="lightgray" class="stroke step3"/>
    <path d="M 745 645 Q 750 647 817 659 Q 857 666 865 673 Q 876 680 870 690 Q 862 703 831 710 Q 801 716 694 686 Q 541 661 492 655 Q 453 652 480 632 Q 517 612 602 622 L 715 641 L 745 645 Z" fill="lightgray" class="hide"/>
    <path d="M 520 564 Q 562 487 585 478 Q 596 474 607 490 Q 615 512 600 533 Q 592 545 578 553 Q 543 581 529 587 Q 522 590 517 580 Q 515 574 520 564 Z" fill="lightgray" class="hide"/>
    <path d="M 715 474 Q 723 486 762 555 Q 775 578 786 591 Q 799 604 790 612 Q 778 629 745 645 C 718 658 707 664 715 641 Q 715 640 719 630 Q 729 592 690 490 Q 686 479 684 467 C 678 438 699 449 715 474 Z" fill="lightgray" class="hide"/>
    <path d="M 515 402 Q 522 402 567 410 Q 666 426 867 445 Q 878 443 889 456 Q 890 468 866 478 Q 835 503 745 480 Q 734 479 715 474 L 684 467 Q 600 455 543 451 Q 524 451 497 447 C 467 443 485 399 515 402 Z" fill="lightgray" class="hide"/>
    <path d="M 497 447 Q 458 466 446 465 Q 425 462 441 441 Q 468 397 440 227 Q 431 188 406 134 Q 376 73 305 20 Q 275 -3 296 -3 Q 331 -6 396 53 Q 476 130 502 316 L 514 395 Q 514 400 515 402 C 519 432 520 436 497 447 Z" fill="lightgray" class="hide"/></g><g transform="scale(1, -1) translate(0, -900)">
    <style type="text/css">
        .origin {display:none;}
        .hide {display:none;}
        .stroke {fill: #000000;}
        
.step1 {transform: translateX(1024px);}
.step2 {transform: translateX(2048px);}
.step3 {transform: translateX(3072px);}
.step4 {transform: translateX(4096px);}
.step5 {transform: translateX(5120px);}
.step6 {transform: translateX(6144px);}
.step7 {transform: translateX(7168px);}
.step8 {transform: translateX(8192px);}
.step9 {transform: translateX(9216px);}
.step10 {transform: translateX(10240px);}
.step11 {transform: translateX(11264px);}
.step12 {transform: translateX(12288px);}
.step13 {transform: translateX(13312px);}
.step14 {transform: translateX(14336px);}
.step15 {transform: translateX(15360px);}
.step16 {transform: translateX(16384px);}
.step17 {transform: translateX(17408px);}
.step18 {transform: translateX(18432px);}
.step19 {transform: translateX(19456px);}
.step20 {transform: translateX(20480px);}
.step21 {transform: translateX(21504px);}
.step22 {transform: translateX(22528px);}
.step23 {transform: translateX(23552px);}
.step24 {transform: translateX(24576px);}
.step25 {transform: translateX(25600px);}
.step26 {transform: translateX(26624px);}
.step27 {transform: translateX(27648px);}
.step28 {transform: translateX(28672px);}
.step29 {transform: translateX(29696px);}
    </style>

    <path d="M 212 718 Q 216 709 230 695 Q 269 661 302 623 Q 318 608 335 608 Q 350 608 355 627 Q 359 645 351 674 Q 345 699 286 722 Q 240 740 220 738 Q 218 738 217 737 Q 211 734 212 718 Z" fill="lightgray" class="stroke step4"/>
    <path d="M 134 484 Q 182 429 221 416 Q 245 416 251 439 Q 253 450 250 464 Q 235 507 171 521 Q 127 531 118 527 Q 111 526 114 512 Q 116 499 134 484 Z" fill="lightgray" class="stroke step4"/>
    <path d="M 131 126 Q 119 122 122 104 Q 139 25 173 8 Q 180 1 192 4 Q 198 6 200 32 Q 206 76 314 365 Q 321 380 319 388 Q 319 398 310 390 Q 298 384 175 174 Q 163 151 131 126 Z" fill="lightgray" class="stroke step4"/>
    <path d="M 562 806 Q 564 798 586 782 Q 655 733 669 723 Q 688 705 706 714 Q 712 719 715 727 Q 719 742 708 770 Q 698 794 631 812 Q 582 826 564 821 Q 561 817 562 806 Z" fill="lightgray" class="stroke step4"/>
    <path d="M 745 645 Q 750 647 817 659 Q 857 666 865 673 Q 876 680 870 690 Q 862 703 831 710 Q 801 716 694 686 Q 541 661 492 655 Q 453 652 480 632 Q 517 612 602 622 L 715 641 L 745 645 Z" fill="lightgray" class="stroke step4"/>
    <path d="M 520 564 Q 562 487 585 478 Q 596 474 607 490 Q 615 512 600 533 Q 592 545 578 553 Q 543 581 529 587 Q 522 590 517 580 Q 515 574 520 564 Z" fill="lightgray" class="hide"/>
    <path d="M 715 474 Q 723 486 762 555 Q 775 578 786 591 Q 799 604 790 612 Q 778 629 745 645 C 718 658 707 664 715 641 Q 715 640 719 630 Q 729 592 690 490 Q 686 479 684 467 C 678 438 699 449 715 474 Z" fill="lightgray" class="hide"/>
    <path d="M 515 402 Q 522 402 567 410 Q 666 426 867 445 Q 878 443 889 456 Q 890 468 866 478 Q 835 503 745 480 Q 734 479 715 474 L 684 467 Q 600 455 543 451 Q 524 451 497 447 C 467 443 485 399 515 402 Z" fill="lightgray" class="hide"/>
    <path d="M 497 447 Q 458 466 446 465 Q 425 462 441 441 Q 468 397 440 227 Q 431 188 406 134 Q 376 73 305 20 Q 275 -3 296 -3 Q 331 -6 396 53 Q 476 130 502 316 L 514 395 Q 514 400 515 402 C 519 432 520 436 497 447 Z" fill="lightgray" class="hide"/></g><g transform="scale(1, -1) translate(0, -900)">
    <style type="text/css">
        .origin {display:none;}
        .hide {display:none;}
        .stroke {fill: #000000;}
        
.step1 {transform: translateX(1024px);}
.step2 {transform: translateX(2048px);}
.step3 {transform: translateX(3072px);}
.step4 {transform: translateX(4096px);}
.step5 {transform: translateX(5120px);}
.step6 {transform: translateX(6144px);}
.step7 {transform: translateX(7168px);}
.step8 {transform: translateX(8192px);}
.step9 {transform: translateX(9216px);}
.step10 {transform: translateX(10240px);}
.step11 {transform: translateX(11264px);}
.step12 {transform: translateX(12288px);}
.step13 {transform: translateX(13312px);}
.step14 {transform: translateX(14336px);}
.step15 {transform: translateX(15360px);}
.step16 {transform: translateX(16384px);}
.step17 {transform: translateX(17408px);}
.step18 {transform: translateX(18432px);}
.step19 {transform: translateX(19456px);}
.step20 {transform: translateX(20480px);}
.step21 {transform: translateX(21504px);}
.step22 {transform: translateX(22528px);}
.step23 {transform: translateX(23552px);}
.step24 {transform: translateX(24576px);}
.step25 {transform: translateX(25600px);}
.step26 {transform: translateX(26624px);}
.step27 {transform: translateX(27648px);}
.step28 {transform: translateX(28672px);}
.step29 {transform: translateX(29696px);}
    </style>

    <path d="M 212 718 Q 216 709 230 695 Q 269 661 302 623 Q 318 608 335 608 Q 350 608 355 627 Q 359 645 351 674 Q 345 699 286 722 Q 240 740 220 738 Q 218 738 217 737 Q 211 734 212 718 Z" fill="lightgray" class="stroke step5"/>
    <path d="M 134 484 Q 182 429 221 416 Q 245 416 251 439 Q 253 450 250 464 Q 235 507 171 521 Q 127 531 118 527 Q 111 526 114 512 Q 116 499 134 484 Z" fill="lightgray" class="stroke step5"/>
    <path d="M 131 126 Q 119 122 122 104 Q 139 25 173 8 Q 180 1 192 4 Q 198 6 200 32 Q 206 76 314 365 Q 321 380 319 388 Q 319 398 310 390 Q 298 384 175 174 Q 163 151 131 126 Z" fill="lightgray" class="stroke step5"/>
    <path d="M 562 806 Q 564 798 586 782 Q 655 733 669 723 Q 688 705 706 714 Q 712 719 715 727 Q 719 742 708 770 Q 698 794 631 812 Q 582 826 564 821 Q 561 817 562 806 Z" fill="lightgray" class="stroke step5"/>
    <path d="M 745 645 Q 750 647 817 659 Q 857 666 865 673 Q 876 680 870 690 Q 862 703 831 710 Q 801 716 694 686 Q 541 661 492 655 Q 453 652 480 632 Q 517 612 602 622 L 715 641 L 745 645 Z" fill="lightgray" class="stroke step5"/>
    <path d="M 520 564 Q 562 487 585 478 Q 596 474 607 490 Q 615 512 600 533 Q 592 545 578 553 Q 543 581 529 587 Q 522 590 517 580 Q 515 574 520 564 Z" fill="lightgray" class="stroke step5"/>
    <path d="M 715 474 Q 723 486 762 555 Q 775 578 786 591 Q 799 604 790 612 Q 778 629 745 645 C 718 658 707 664 715 641 Q 715 640 719 630 Q 729 592 690 490 Q 686 479 684 467 C 678 438 699 449 715 474 Z" fill="lightgray" class="hide"/>
    <path d="M 515 402 Q 522 402 567 410 Q 666 426 867 445 Q 878 443 889 456 Q 890 468 866 478 Q 835 503 745 480 Q 734 479 715 474 L 684 467 Q 600 455 543 451 Q 524 451 497 447 C 467 443 485 399 515 402 Z" fill="lightgray" class="hide"/>
    <path d="M 497 447 Q 458 466 446 465 Q 425 462 441 441 Q 468 397 440 227 Q 431 188 406 134 Q 376 73 305 20 Q 275 -3 296 -3 Q 331 -6 396 53 Q 476 130 502 316 L 514 395 Q 514 400 515 402 C 519 432 520 436 497 447 Z" fill="lightgray" class="hide"/></g><g transform="scale(1, -1) translate(0, -900)">
    <style type="text/css">
        .origin {display:none;}
        .hide {display:none;}
        .stroke {fill: #000000;}
        
.step1 {transform: translateX(1024px);}
.step2 {transform: translateX(2048px);}
.step3 {transform: translateX(3072px);}
.step4 {transform: translateX(4096px);}
.step5 {transform: translateX(5120px);}
.step6 {transform: translateX(6144px);}
.step7 {transform: translateX(7168px);}
.step8 {transform: translateX(8192px);}
.step9 {transform: translateX(9216px);}
.step10 {transform: translateX(10240px);}
.step11 {transform: translateX(11264px);}
.step12 {transform: translateX(12288px);}
.step13 {transform: translateX(13312px);}
.step14 {transform: translateX(14336px);}
.step15 {transform: translateX(15360px);}
.step16 {transform: translateX(16384px);}
.step17 {transform: translateX(17408px);}
.step18 {transform: translateX(18432px);}
.step19 {transform: translateX(19456px);}
.step20 {transform: translateX(20480px);}
.step21 {transform: translateX(21504px);}
.step22 {transform: translateX(22528px);}
.step23 {transform: translateX(23552px);}
.step24 {transform: translateX(24576px);}
.step25 {transform: translateX(25600px);}
.step26 {transform: translateX(26624px);}
.step27 {transform: translateX(27648px);}
.step28 {transform: translateX(28672px);}
.step29 {transform: translateX(29696px);}
    </style>

    <path d="M 212 718 Q 216 709 230 695 Q 269 661 302 623 Q 318 608 335 608 Q 350 608 355 627 Q 359 645 351 674 Q 345 699 286 722 Q 240 740 220 738 Q 218 738 217 737 Q 211 734 212 718 Z" fill="lightgray" class="stroke step6"/>
    <path d="M 134 484 Q 182 429 221 416 Q 245 416 251 439 Q 253 450 250 464 Q 235 507 171 521 Q 127 531 118 527 Q 111 526 114 512 Q 116 499 134 484 Z" fill="lightgray" class="stroke step6"/>
    <path d="M 131 126 Q 119 122 122 104 Q 139 25 173 8 Q 180 1 192 4 Q 198 6 200 32 Q 206 76 314 365 Q 321 380 319 388 Q 319 398 310 390 Q 298 384 175 174 Q 163 151 131 126 Z" fill="lightgray" class="stroke step6"/>
    <path d="M 562 806 Q 564 798 586 782 Q 655 733 669 723 Q 688 705 706 714 Q 712 719 715 727 Q 719 742 708 770 Q 698 794 631 812 Q 582 826 564 821 Q 561 817 562 806 Z" fill="lightgray" class="stroke step6"/>
    <path d="M 745 645 Q 750 647 817 659 Q 857 666 865 673 Q 876 680 870 690 Q 862 703 831 710 Q 801 716 694 686 Q 541 661 492 655 Q 453 652 480 632 Q 517 612 602 622 L 715 641 L 745 645 Z" fill="lightgray" class="stroke step6"/>
    <path d="M 520 564 Q 562 487 585 478 Q 596 474 607 490 Q 615 512 600 533 Q 592 545 578 553 Q 543 581 529 587 Q 522 590 517 580 Q 515 574 520 564 Z" fill="lightgray" class="stroke step6"/>
    <path d="M 715 474 Q 723 486 762 555 Q 775 578 786 591 Q 799 604 790 612 Q 778 629 745 645 C 718 658 707 664 715 641 Q 715 640 719 630 Q 729 592 690 490 Q 686 479 684 467 C 678 438 699 449 715 474 Z" fill="lightgray" class="stroke step6"/>
    <path d="M 515 402 Q 522 402 567 410 Q 666 426 867 445 Q 878 443 889 456 Q 890 468 866 478 Q 835 503 745 480 Q 734 479 715 474 L 684 467 Q 600 455 543 451 Q 524 451 497 447 C 467 443 485 399 515 402 Z" fill="lightgray" class="hide"/>
    <path d="M 497 447 Q 458 466 446 465 Q 425 462 441 441 Q 468 397 440 227 Q 431 188 406 134 Q 376 73 305 20 Q 275 -3 296 -3 Q 331 -6 396 53 Q 476 130 502 316 L 514 395 Q 514 400 515 402 C 519 432 520 436 497 447 Z" fill="lightgray" class="hide"/></g><g transform="scale(1, -1) translate(0, -900)">
    <style type="text/css">
        .origin {display:none;}
        .hide {display:none;}
        .stroke {fill: #000000;}
        
.step1 {transform: translateX(1024px);}
.step2 {transform: translateX(2048px);}
.step3 {transform: translateX(3072px);}
.step4 {transform: translateX(4096px);}
.step5 {transform: translateX(5120px);}
.step6 {transform: translateX(6144px);}
.step7 {transform: translateX(7168px);}
.step8 {transform: translateX(8192px);}
.step9 {transform: translateX(9216px);}
.step10 {transform: translateX(10240px);}
.step11 {transform: translateX(11264px);}
.step12 {transform: translateX(12288px);}
.step13 {transform: translateX(13312px);}
.step14 {transform: translateX(14336px);}
.step15 {transform: translateX(15360px);}
.step16 {transform: translateX(16384px);}
.step17 {transform: translateX(17408px);}
.step18 {transform: translateX(18432px);}
.step19 {transform: translateX(19456px);}
.step20 {transform: translateX(20480px);}
.step21 {transform: translateX(21504px);}
.step22 {transform: translateX(22528px);}
.step23 {transform: translateX(23552px);}
.step24 {transform: translateX(24576px);}
.step25 {transform: translateX(25600px);}
.step26 {transform: translateX(26624px);}
.step27 {transform: translateX(27648px);}
.step28 {transform: translateX(28672px);}
.step29 {transform: translateX(29696px);}
    </style>

    <path d="M 212 718 Q 216 709 230 695 Q 269 661 302 623 Q 318 608 335 608 Q 350 608 355 627 Q 359 645 351 674 Q 345 699 286 722 Q 240 740 220 738 Q 218 738 217 737 Q 211 734 212 718 Z" fill="lightgray" class="stroke step7"/>
    <path d="M 134 484 Q 182 429 221 416 Q 245 416 251 439 Q 253 450 250 464 Q 235 507 171 521 Q 127 531 118 527 Q 111 526 114 512 Q 116 499 134 484 Z" fill="lightgray" class="stroke step7"/>
    <path d="M 131 126 Q 119 122 122 104 Q 139 25 173 8 Q 180 1 192 4 Q 198 6 200 32 Q 206 76 314 365 Q 321 380 319 388 Q 319 398 310 390 Q 298 384 175 174 Q 163 151 131 126 Z" fill="lightgray" class="stroke step7"/>
    <path d="M 562 806 Q 564 798 586 782 Q 655 733 669 723 Q 688 705 706 714 Q 712 719 715 727 Q 719 742 708 770 Q 698 794 631 812 Q 582 826 564 821 Q 561 817 562 806 Z" fill="lightgray" class="stroke step7"/>
    <path d="M 745 645 Q 750 647 817 659 Q 857 666 865 673 Q 876 680 870 690 Q 862 703 831 710 Q 801 716 694 686 Q 541 661 492 655 Q 453 652 480 632 Q 517 612 602 622 L 715 641 L 745 645 Z" fill="lightgray" class="stroke step7"/>
    <path d="M 520 564 Q 562 487 585 478 Q 596 474 607 490 Q 615 512 600 533 Q 592 545 578 553 Q 543 581 529 587 Q 522 590 517 580 Q 515 574 520 564 Z" fill="lightgray" class="stroke step7"/>
    <path d="M 715 474 Q 723 486 762 555 Q 775 578 786 591 Q 799 604 790 612 Q 778 629 745 645 C 718 658 707 664 715 641 Q 715 640 719 630 Q 729 592 690 490 Q 686 479 684 467 C 678 438 699 449 715 474 Z" fill="lightgray" class="stroke step7"/>
    <path d="M 515 402 Q 522 402 567 410 Q 666 426 867 445 Q 878 443 889 456 Q 890 468 866 478 Q 835 503 745 480 Q 734 479 715 474 L 684 467 Q 600 455 543 451 Q 524 451 497 447 C 467 443 485 399 515 402 Z" fill="lightgray" class="stroke step7"/>
    <path d="M 497 447 Q 458 466 446 465 Q 425 462 441 441 Q 468 397 440 227 Q 431 188 406 134 Q 376 73 305 20 Q 275 -3 296 -3 Q 331 -6 396 53 Q 476 130 502 316 L 514 395 Q 514 400 515 402 C 519 432 520 436 497 447 Z" fill="lightgray" class="hide"/></g><g transform="scale(1, -1) translate(0, -900)">
    <style type="text/css">
        .origin {display:none;}
        .hide {display:none;}
        .stroke {fill: #000000;}
        
.step1 {transform: translateX(1024px);}
.step2 {transform: translateX(2048px);}
.step3 {transform: translateX(3072px);}
.step4 {transform: translateX(4096px);}
.step5 {transform: translateX(5120px);}
.step6 {transform: translateX(6144px);}
.step7 {transform: translateX(7168px);}
.step8 {transform: translateX(8192px);}
.step9 {transform: translateX(9216px);}
.step10 {transform: translateX(10240px);}
.step11 {transform: translateX(11264px);}
.step12 {transform: translateX(12288px);}
.step13 {transform: translateX(13312px);}
.step14 {transform: translateX(14336px);}
.step15 {transform: translateX(15360px);}
.step16 {transform: translateX(16384px);}
.step17 {transform: translateX(17408px);}
.step18 {transform: translateX(18432px);}
.step19 {transform: translateX(19456px);}
.step20 {transform: translateX(20480px);}
.step21 {transform: translateX(21504px);}
.step22 {transform: translateX(22528px);}
.step23 {transform: translateX(23552px);}
.step24 {transform: translateX(24576px);}
.step25 {transform: translateX(25600px);}
.step26 {transform: translateX(26624px);}
.step27 {transform: translateX(27648px);}
.step28 {transform: translateX(28672px);}
.step29 {transform: translateX(29696px);}
    </style>

    <path d="M 212 718 Q 216 709 230 695 Q 269 661 302 623 Q 318 608 335 608 Q 350 608 355 627 Q 359 645 351 674 Q 345 699 286 722 Q 240 740 220 738 Q 218 738 217 737 Q 211 734 212 718 Z" fill="lightgray" class="stroke step8"/>
    <path d="M 134 484 Q 182 429 221 416 Q 245 416 251 439 Q 253 450 250 464 Q 235 507 171 521 Q 127 531 118 527 Q 111 526 114 512 Q 116 499 134 484 Z" fill="lightgray" class="stroke step8"/>
    <path d="M 131 126 Q 119 122 122 104 Q 139 25 173 8 Q 180 1 192 4 Q 198 6 200 32 Q 206 76 314 365 Q 321 380 319 388 Q 319 398 310 390 Q 298 384 175 174 Q 163 151 131 126 Z" fill="lightgray" class="stroke step8"/>
    <path d="M 562 806 Q 564 798 586 782 Q 655 733 669 723 Q 688 705 706 714 Q 712 719 715 727 Q 719 742 708 770 Q 698 794 631 812 Q 582 826 564 821 Q 561 817 562 806 Z" fill="lightgray" class="stroke step8"/>
    <path d="M 745 645 Q 750 647 817 659 Q 857 666 865 673 Q 876 680 870 690 Q 862 703 831 710 Q 801 716 694 686 Q 541 661 492 655 Q 453 652 480 632 Q 517 612 602 622 L 715 641 L 745 645 Z" fill="lightgray" class="stroke step8"/>
    <path d="M 520 564 Q 562 487 585 478 Q 596 474 607 490 Q 615 512 600 533 Q 592 545 578 553 Q 543 581 529 587 Q 522 590 517 580 Q 515 574 520 564 Z" fill="lightgray" class="stroke step8"/>
    <path d="M 715 474 Q 723 486 762 555 Q 775 578 786 591 Q 799 604 790 612 Q 778 629 745 645 C 718 658 707 664 715 641 Q 715 640 719 630 Q 729 592 690 490 Q 686 479 684 467 C 678 438 699 449 715 474 Z" fill="lightgray" class="stroke step8"/>
    <path d="M 515 402 Q 522 402 567 410 Q 666 426 867 445 Q 878 443 889 456 Q 890 468 866 478 Q 835 503 745 480 Q 734 479 715 474 L 684 467 Q 600 455 543 451 Q 524 451 497 447 C 467 443 485 399 515 402 Z" fill="lightgray" class="stroke step8"/>
    <path d="M 497 447 Q 458 466 446 465 Q 425 462 441 441 Q 468 397 440 227 Q 431 188 406 134 Q 376 73 305 20 Q 275 -3 296 -3 Q 331 -6 396 53 Q 476 130 502 316 L 514 395 Q 514 400 515 402 C 519 432 520 436 497 447 Z" fill="lightgray" class="stroke step8"/></g></svg>