<svg version="1.1" viewBox="0 0 14336 1024" xmlns="http://www.w3.org/2000/svg">
  
  <g transform="scale(1, -1) translate(0, -900)" class="origin">
    <style type="text/css">
        .origin {display:none;}
        .hide {display:none;}
        .stroke {fill: #000000;}
        
.step1 {transform: translateX(1024px);}
.step2 {transform: translateX(2048px);}
.step3 {transform: translateX(3072px);}
.step4 {transform: translateX(4096px);}
.step5 {transform: translateX(5120px);}
.step6 {transform: translateX(6144px);}
.step7 {transform: translateX(7168px);}
.step8 {transform: translateX(8192px);}
.step9 {transform: translateX(9216px);}
.step10 {transform: translateX(10240px);}
.step11 {transform: translateX(11264px);}
.step12 {transform: translateX(12288px);}
.step13 {transform: translateX(13312px);}
.step14 {transform: translateX(14336px);}
.step15 {transform: translateX(15360px);}
.step16 {transform: translateX(16384px);}
.step17 {transform: translateX(17408px);}
.step18 {transform: translateX(18432px);}
.step19 {transform: translateX(19456px);}
.step20 {transform: translateX(20480px);}
.step21 {transform: translateX(21504px);}
.step22 {transform: translateX(22528px);}
.step23 {transform: translateX(23552px);}
.step24 {transform: translateX(24576px);}
.step25 {transform: translateX(25600px);}
.step26 {transform: translateX(26624px);}
.step27 {transform: translateX(27648px);}
.step28 {transform: translateX(28672px);}
.step29 {transform: translateX(29696px);}
    </style>

    <path d="M 195 691 Q 216 672 237 648 Q 250 635 268 634 Q 278 635 285 649 Q 289 664 281 695 Q 277 713 249 725 Q 182 749 168 743 Q 162 739 164 726 Q 168 714 195 691 Z" fill="lightgray"/>
    <path d="M 116 494 Q 152 443 181 425 Q 196 421 207 433 Q 214 446 213 463 Q 209 488 193 503 Q 148 537 117 537 Q 110 538 106 536 Q 99 535 101 523 Q 101 510 116 494 Z" fill="lightgray"/>
    <path d="M 118 145 Q 108 141 111 124 Q 133 55 167 40 Q 174 34 184 38 Q 191 39 190 64 Q 191 118 252 345 Q 256 361 256 367 Q 255 376 246 369 Q 236 360 150 186 Q 141 167 118 145 Z" fill="lightgray"/>
    <path d="M 475 653 Q 509 666 547 678 Q 571 687 574 690 Q 581 699 576 706 Q 569 716 541 719 Q 531 719 478 702 L 431 683 Q 398 671 360 663 Q 327 653 353 641 Q 389 629 432 639 L 475 653 Z" fill="lightgray"/>
    <path d="M 319 542 Q 309 546 290 548 Q 280 549 276 545 Q 272 539 279 526 Q 307 472 325 385 Q 329 360 345 342 Q 361 323 366 337 L 368 351 L 367 379 Q 366 386 364 395 Q 345 486 340 514 C 336 537 336 537 319 542 Z" fill="lightgray"/>
    <path d="M 520 383 Q 535 361 549 354 Q 559 347 572 366 Q 584 385 609 496 Q 616 524 636 546 Q 646 556 637 569 Q 624 582 585 605 Q 569 611 515 594 Q 488 591 473 583 L 433 572 Q 415 568 399 563 Q 354 550 319 542 C 290 535 313 501 340 514 Q 346 521 432 543 L 473 553 Q 536 574 555 564 Q 567 555 563 539 Q 542 419 527 408 C 515 389 515 389 520 383 Z" fill="lightgray"/>
    <path d="M 472 471 Q 491 477 510 480 Q 532 486 522 497 Q 504 516 473 510 L 431 498 Q 428 498 426 496 Q 402 483 381 473 Q 365 467 386 456 Q 393 452 405 455 Q 417 459 430 461 L 472 471 Z" fill="lightgray"/>
    <path d="M 471 374 Q 493 380 520 383 C 550 387 552 391 527 408 Q 506 424 473 413 Q 472 413 471 412 L 428 397 Q 395 387 367 379 C 338 371 338 352 368 351 Q 375 350 385 353 Q 401 360 428 365 L 471 374 Z" fill="lightgray"/>
    <path d="M 470 271 Q 528 289 607 304 Q 623 307 623 314 Q 623 327 605 334 Q 580 343 558 337 Q 507 324 470 311 L 427 299 Q 310 272 266 265 Q 254 264 252 255 Q 249 245 264 235 Q 307 211 347 229 Q 389 247 424 257 L 470 271 Z" fill="lightgray"/>
    <path d="M 424 257 Q 418 193 402 132 Q 392 95 416 33 Q 423 17 431 13 Q 437 6 444 15 Q 451 19 461 39 Q 471 64 470 94 Q 469 122 470 271 L 470 311 Q 470 341 471 374 L 471 412 Q 471 440 472 471 L 473 510 Q 473 532 473 553 L 473 583 Q 474 610 475 653 L 478 702 Q 482 751 494 790 Q 503 805 499 818 Q 492 828 439 861 Q 415 877 395 862 Q 391 858 397 842 Q 430 793 431 743 Q 431 715 431 683 L 432 639 Q 432 606 433 572 L 432 543 Q 431 521 431 498 L 430 461 Q 429 430 428 397 L 428 365 Q 427 334 427 299 L 424 257 Z" fill="lightgray"/>
    <path d="M 725 570 Q 762 589 789 604 Q 865 652 889 658 Q 913 665 904 686 Q 891 705 866 723 Q 842 739 829 738 Q 816 738 818 724 Q 819 691 755 633 Q 733 612 708 589 C 686 569 698 556 725 570 Z" fill="lightgray"/>
    <path d="M 719 474 Q 722 546 725 560 Q 726 566 725 570 C 726 581 726 581 708 589 Q 663 611 649 608 Q 630 604 646 583 Q 682 526 660 336 Q 651 291 631 237 Q 610 179 534 102 Q 521 89 518 83 Q 517 76 528 77 Q 567 80 626 147 Q 702 240 716 420 Q 716 436 718 452 L 719 474 Z" fill="lightgray"/>
    <path d="M 844 453 Q 979 486 983 489 Q 992 496 987 505 Q 980 515 952 522 Q 925 528 850 501 Q 775 482 724 476 Q 721 476 719 474 C 690 466 691 464 718 452 Q 743 439 786 441 L 844 453 Z" fill="lightgray"/>
    <path d="M 786 441 Q 799 422 806 355 Q 809 -42 823 -65 Q 823 -66 826 -69 Q 832 -76 839 -74 Q 855 -64 859 -7 Q 866 51 864 110 Q 861 159 864 352 Q 865 373 867 384 Q 870 402 872 416 Q 875 432 861 442 Q 851 449 844 453 C 819 469 773 468 786 441 Z" fill="lightgray"/></g>
<g transform="scale(1, -1) translate(0, -900)">
    <style type="text/css">
        .origin {display:none;}
        .hide {display:none;}
        .stroke {fill: #000000;}
        
.step1 {transform: translateX(1024px);}
.step2 {transform: translateX(2048px);}
.step3 {transform: translateX(3072px);}
.step4 {transform: translateX(4096px);}
.step5 {transform: translateX(5120px);}
.step6 {transform: translateX(6144px);}
.step7 {transform: translateX(7168px);}
.step8 {transform: translateX(8192px);}
.step9 {transform: translateX(9216px);}
.step10 {transform: translateX(10240px);}
.step11 {transform: translateX(11264px);}
.step12 {transform: translateX(12288px);}
.step13 {transform: translateX(13312px);}
.step14 {transform: translateX(14336px);}
.step15 {transform: translateX(15360px);}
.step16 {transform: translateX(16384px);}
.step17 {transform: translateX(17408px);}
.step18 {transform: translateX(18432px);}
.step19 {transform: translateX(19456px);}
.step20 {transform: translateX(20480px);}
.step21 {transform: translateX(21504px);}
.step22 {transform: translateX(22528px);}
.step23 {transform: translateX(23552px);}
.step24 {transform: translateX(24576px);}
.step25 {transform: translateX(25600px);}
.step26 {transform: translateX(26624px);}
.step27 {transform: translateX(27648px);}
.step28 {transform: translateX(28672px);}
.step29 {transform: translateX(29696px);}
    </style>

    <path d="M 195 691 Q 216 672 237 648 Q 250 635 268 634 Q 278 635 285 649 Q 289 664 281 695 Q 277 713 249 725 Q 182 749 168 743 Q 162 739 164 726 Q 168 714 195 691 Z" fill="lightgray" class="stroke step0"/>
    <path d="M 116 494 Q 152 443 181 425 Q 196 421 207 433 Q 214 446 213 463 Q 209 488 193 503 Q 148 537 117 537 Q 110 538 106 536 Q 99 535 101 523 Q 101 510 116 494 Z" fill="lightgray" class="hide"/>
    <path d="M 118 145 Q 108 141 111 124 Q 133 55 167 40 Q 174 34 184 38 Q 191 39 190 64 Q 191 118 252 345 Q 256 361 256 367 Q 255 376 246 369 Q 236 360 150 186 Q 141 167 118 145 Z" fill="lightgray" class="hide"/>
    <path d="M 475 653 Q 509 666 547 678 Q 571 687 574 690 Q 581 699 576 706 Q 569 716 541 719 Q 531 719 478 702 L 431 683 Q 398 671 360 663 Q 327 653 353 641 Q 389 629 432 639 L 475 653 Z" fill="lightgray" class="hide"/>
    <path d="M 319 542 Q 309 546 290 548 Q 280 549 276 545 Q 272 539 279 526 Q 307 472 325 385 Q 329 360 345 342 Q 361 323 366 337 L 368 351 L 367 379 Q 366 386 364 395 Q 345 486 340 514 C 336 537 336 537 319 542 Z" fill="lightgray" class="hide"/>
    <path d="M 520 383 Q 535 361 549 354 Q 559 347 572 366 Q 584 385 609 496 Q 616 524 636 546 Q 646 556 637 569 Q 624 582 585 605 Q 569 611 515 594 Q 488 591 473 583 L 433 572 Q 415 568 399 563 Q 354 550 319 542 C 290 535 313 501 340 514 Q 346 521 432 543 L 473 553 Q 536 574 555 564 Q 567 555 563 539 Q 542 419 527 408 C 515 389 515 389 520 383 Z" fill="lightgray" class="hide"/>
    <path d="M 472 471 Q 491 477 510 480 Q 532 486 522 497 Q 504 516 473 510 L 431 498 Q 428 498 426 496 Q 402 483 381 473 Q 365 467 386 456 Q 393 452 405 455 Q 417 459 430 461 L 472 471 Z" fill="lightgray" class="hide"/>
    <path d="M 471 374 Q 493 380 520 383 C 550 387 552 391 527 408 Q 506 424 473 413 Q 472 413 471 412 L 428 397 Q 395 387 367 379 C 338 371 338 352 368 351 Q 375 350 385 353 Q 401 360 428 365 L 471 374 Z" fill="lightgray" class="hide"/>
    <path d="M 470 271 Q 528 289 607 304 Q 623 307 623 314 Q 623 327 605 334 Q 580 343 558 337 Q 507 324 470 311 L 427 299 Q 310 272 266 265 Q 254 264 252 255 Q 249 245 264 235 Q 307 211 347 229 Q 389 247 424 257 L 470 271 Z" fill="lightgray" class="hide"/>
    <path d="M 424 257 Q 418 193 402 132 Q 392 95 416 33 Q 423 17 431 13 Q 437 6 444 15 Q 451 19 461 39 Q 471 64 470 94 Q 469 122 470 271 L 470 311 Q 470 341 471 374 L 471 412 Q 471 440 472 471 L 473 510 Q 473 532 473 553 L 473 583 Q 474 610 475 653 L 478 702 Q 482 751 494 790 Q 503 805 499 818 Q 492 828 439 861 Q 415 877 395 862 Q 391 858 397 842 Q 430 793 431 743 Q 431 715 431 683 L 432 639 Q 432 606 433 572 L 432 543 Q 431 521 431 498 L 430 461 Q 429 430 428 397 L 428 365 Q 427 334 427 299 L 424 257 Z" fill="lightgray" class="hide"/>
    <path d="M 725 570 Q 762 589 789 604 Q 865 652 889 658 Q 913 665 904 686 Q 891 705 866 723 Q 842 739 829 738 Q 816 738 818 724 Q 819 691 755 633 Q 733 612 708 589 C 686 569 698 556 725 570 Z" fill="lightgray" class="hide"/>
    <path d="M 719 474 Q 722 546 725 560 Q 726 566 725 570 C 726 581 726 581 708 589 Q 663 611 649 608 Q 630 604 646 583 Q 682 526 660 336 Q 651 291 631 237 Q 610 179 534 102 Q 521 89 518 83 Q 517 76 528 77 Q 567 80 626 147 Q 702 240 716 420 Q 716 436 718 452 L 719 474 Z" fill="lightgray" class="hide"/>
    <path d="M 844 453 Q 979 486 983 489 Q 992 496 987 505 Q 980 515 952 522 Q 925 528 850 501 Q 775 482 724 476 Q 721 476 719 474 C 690 466 691 464 718 452 Q 743 439 786 441 L 844 453 Z" fill="lightgray" class="hide"/>
    <path d="M 786 441 Q 799 422 806 355 Q 809 -42 823 -65 Q 823 -66 826 -69 Q 832 -76 839 -74 Q 855 -64 859 -7 Q 866 51 864 110 Q 861 159 864 352 Q 865 373 867 384 Q 870 402 872 416 Q 875 432 861 442 Q 851 449 844 453 C 819 469 773 468 786 441 Z" fill="lightgray" class="hide"/></g><g transform="scale(1, -1) translate(0, -900)">
    <style type="text/css">
        .origin {display:none;}
        .hide {display:none;}
        .stroke {fill: #000000;}
        
.step1 {transform: translateX(1024px);}
.step2 {transform: translateX(2048px);}
.step3 {transform: translateX(3072px);}
.step4 {transform: translateX(4096px);}
.step5 {transform: translateX(5120px);}
.step6 {transform: translateX(6144px);}
.step7 {transform: translateX(7168px);}
.step8 {transform: translateX(8192px);}
.step9 {transform: translateX(9216px);}
.step10 {transform: translateX(10240px);}
.step11 {transform: translateX(11264px);}
.step12 {transform: translateX(12288px);}
.step13 {transform: translateX(13312px);}
.step14 {transform: translateX(14336px);}
.step15 {transform: translateX(15360px);}
.step16 {transform: translateX(16384px);}
.step17 {transform: translateX(17408px);}
.step18 {transform: translateX(18432px);}
.step19 {transform: translateX(19456px);}
.step20 {transform: translateX(20480px);}
.step21 {transform: translateX(21504px);}
.step22 {transform: translateX(22528px);}
.step23 {transform: translateX(23552px);}
.step24 {transform: translateX(24576px);}
.step25 {transform: translateX(25600px);}
.step26 {transform: translateX(26624px);}
.step27 {transform: translateX(27648px);}
.step28 {transform: translateX(28672px);}
.step29 {transform: translateX(29696px);}
    </style>

    <path d="M 195 691 Q 216 672 237 648 Q 250 635 268 634 Q 278 635 285 649 Q 289 664 281 695 Q 277 713 249 725 Q 182 749 168 743 Q 162 739 164 726 Q 168 714 195 691 Z" fill="lightgray" class="stroke step1"/>
    <path d="M 116 494 Q 152 443 181 425 Q 196 421 207 433 Q 214 446 213 463 Q 209 488 193 503 Q 148 537 117 537 Q 110 538 106 536 Q 99 535 101 523 Q 101 510 116 494 Z" fill="lightgray" class="stroke step1"/>
    <path d="M 118 145 Q 108 141 111 124 Q 133 55 167 40 Q 174 34 184 38 Q 191 39 190 64 Q 191 118 252 345 Q 256 361 256 367 Q 255 376 246 369 Q 236 360 150 186 Q 141 167 118 145 Z" fill="lightgray" class="hide"/>
    <path d="M 475 653 Q 509 666 547 678 Q 571 687 574 690 Q 581 699 576 706 Q 569 716 541 719 Q 531 719 478 702 L 431 683 Q 398 671 360 663 Q 327 653 353 641 Q 389 629 432 639 L 475 653 Z" fill="lightgray" class="hide"/>
    <path d="M 319 542 Q 309 546 290 548 Q 280 549 276 545 Q 272 539 279 526 Q 307 472 325 385 Q 329 360 345 342 Q 361 323 366 337 L 368 351 L 367 379 Q 366 386 364 395 Q 345 486 340 514 C 336 537 336 537 319 542 Z" fill="lightgray" class="hide"/>
    <path d="M 520 383 Q 535 361 549 354 Q 559 347 572 366 Q 584 385 609 496 Q 616 524 636 546 Q 646 556 637 569 Q 624 582 585 605 Q 569 611 515 594 Q 488 591 473 583 L 433 572 Q 415 568 399 563 Q 354 550 319 542 C 290 535 313 501 340 514 Q 346 521 432 543 L 473 553 Q 536 574 555 564 Q 567 555 563 539 Q 542 419 527 408 C 515 389 515 389 520 383 Z" fill="lightgray" class="hide"/>
    <path d="M 472 471 Q 491 477 510 480 Q 532 486 522 497 Q 504 516 473 510 L 431 498 Q 428 498 426 496 Q 402 483 381 473 Q 365 467 386 456 Q 393 452 405 455 Q 417 459 430 461 L 472 471 Z" fill="lightgray" class="hide"/>
    <path d="M 471 374 Q 493 380 520 383 C 550 387 552 391 527 408 Q 506 424 473 413 Q 472 413 471 412 L 428 397 Q 395 387 367 379 C 338 371 338 352 368 351 Q 375 350 385 353 Q 401 360 428 365 L 471 374 Z" fill="lightgray" class="hide"/>
    <path d="M 470 271 Q 528 289 607 304 Q 623 307 623 314 Q 623 327 605 334 Q 580 343 558 337 Q 507 324 470 311 L 427 299 Q 310 272 266 265 Q 254 264 252 255 Q 249 245 264 235 Q 307 211 347 229 Q 389 247 424 257 L 470 271 Z" fill="lightgray" class="hide"/>
    <path d="M 424 257 Q 418 193 402 132 Q 392 95 416 33 Q 423 17 431 13 Q 437 6 444 15 Q 451 19 461 39 Q 471 64 470 94 Q 469 122 470 271 L 470 311 Q 470 341 471 374 L 471 412 Q 471 440 472 471 L 473 510 Q 473 532 473 553 L 473 583 Q 474 610 475 653 L 478 702 Q 482 751 494 790 Q 503 805 499 818 Q 492 828 439 861 Q 415 877 395 862 Q 391 858 397 842 Q 430 793 431 743 Q 431 715 431 683 L 432 639 Q 432 606 433 572 L 432 543 Q 431 521 431 498 L 430 461 Q 429 430 428 397 L 428 365 Q 427 334 427 299 L 424 257 Z" fill="lightgray" class="hide"/>
    <path d="M 725 570 Q 762 589 789 604 Q 865 652 889 658 Q 913 665 904 686 Q 891 705 866 723 Q 842 739 829 738 Q 816 738 818 724 Q 819 691 755 633 Q 733 612 708 589 C 686 569 698 556 725 570 Z" fill="lightgray" class="hide"/>
    <path d="M 719 474 Q 722 546 725 560 Q 726 566 725 570 C 726 581 726 581 708 589 Q 663 611 649 608 Q 630 604 646 583 Q 682 526 660 336 Q 651 291 631 237 Q 610 179 534 102 Q 521 89 518 83 Q 517 76 528 77 Q 567 80 626 147 Q 702 240 716 420 Q 716 436 718 452 L 719 474 Z" fill="lightgray" class="hide"/>
    <path d="M 844 453 Q 979 486 983 489 Q 992 496 987 505 Q 980 515 952 522 Q 925 528 850 501 Q 775 482 724 476 Q 721 476 719 474 C 690 466 691 464 718 452 Q 743 439 786 441 L 844 453 Z" fill="lightgray" class="hide"/>
    <path d="M 786 441 Q 799 422 806 355 Q 809 -42 823 -65 Q 823 -66 826 -69 Q 832 -76 839 -74 Q 855 -64 859 -7 Q 866 51 864 110 Q 861 159 864 352 Q 865 373 867 384 Q 870 402 872 416 Q 875 432 861 442 Q 851 449 844 453 C 819 469 773 468 786 441 Z" fill="lightgray" class="hide"/></g><g transform="scale(1, -1) translate(0, -900)">
    <style type="text/css">
        .origin {display:none;}
        .hide {display:none;}
        .stroke {fill: #000000;}
        
.step1 {transform: translateX(1024px);}
.step2 {transform: translateX(2048px);}
.step3 {transform: translateX(3072px);}
.step4 {transform: translateX(4096px);}
.step5 {transform: translateX(5120px);}
.step6 {transform: translateX(6144px);}
.step7 {transform: translateX(7168px);}
.step8 {transform: translateX(8192px);}
.step9 {transform: translateX(9216px);}
.step10 {transform: translateX(10240px);}
.step11 {transform: translateX(11264px);}
.step12 {transform: translateX(12288px);}
.step13 {transform: translateX(13312px);}
.step14 {transform: translateX(14336px);}
.step15 {transform: translateX(15360px);}
.step16 {transform: translateX(16384px);}
.step17 {transform: translateX(17408px);}
.step18 {transform: translateX(18432px);}
.step19 {transform: translateX(19456px);}
.step20 {transform: translateX(20480px);}
.step21 {transform: translateX(21504px);}
.step22 {transform: translateX(22528px);}
.step23 {transform: translateX(23552px);}
.step24 {transform: translateX(24576px);}
.step25 {transform: translateX(25600px);}
.step26 {transform: translateX(26624px);}
.step27 {transform: translateX(27648px);}
.step28 {transform: translateX(28672px);}
.step29 {transform: translateX(29696px);}
    </style>

    <path d="M 195 691 Q 216 672 237 648 Q 250 635 268 634 Q 278 635 285 649 Q 289 664 281 695 Q 277 713 249 725 Q 182 749 168 743 Q 162 739 164 726 Q 168 714 195 691 Z" fill="lightgray" class="stroke step2"/>
    <path d="M 116 494 Q 152 443 181 425 Q 196 421 207 433 Q 214 446 213 463 Q 209 488 193 503 Q 148 537 117 537 Q 110 538 106 536 Q 99 535 101 523 Q 101 510 116 494 Z" fill="lightgray" class="stroke step2"/>
    <path d="M 118 145 Q 108 141 111 124 Q 133 55 167 40 Q 174 34 184 38 Q 191 39 190 64 Q 191 118 252 345 Q 256 361 256 367 Q 255 376 246 369 Q 236 360 150 186 Q 141 167 118 145 Z" fill="lightgray" class="stroke step2"/>
    <path d="M 475 653 Q 509 666 547 678 Q 571 687 574 690 Q 581 699 576 706 Q 569 716 541 719 Q 531 719 478 702 L 431 683 Q 398 671 360 663 Q 327 653 353 641 Q 389 629 432 639 L 475 653 Z" fill="lightgray" class="hide"/>
    <path d="M 319 542 Q 309 546 290 548 Q 280 549 276 545 Q 272 539 279 526 Q 307 472 325 385 Q 329 360 345 342 Q 361 323 366 337 L 368 351 L 367 379 Q 366 386 364 395 Q 345 486 340 514 C 336 537 336 537 319 542 Z" fill="lightgray" class="hide"/>
    <path d="M 520 383 Q 535 361 549 354 Q 559 347 572 366 Q 584 385 609 496 Q 616 524 636 546 Q 646 556 637 569 Q 624 582 585 605 Q 569 611 515 594 Q 488 591 473 583 L 433 572 Q 415 568 399 563 Q 354 550 319 542 C 290 535 313 501 340 514 Q 346 521 432 543 L 473 553 Q 536 574 555 564 Q 567 555 563 539 Q 542 419 527 408 C 515 389 515 389 520 383 Z" fill="lightgray" class="hide"/>
    <path d="M 472 471 Q 491 477 510 480 Q 532 486 522 497 Q 504 516 473 510 L 431 498 Q 428 498 426 496 Q 402 483 381 473 Q 365 467 386 456 Q 393 452 405 455 Q 417 459 430 461 L 472 471 Z" fill="lightgray" class="hide"/>
    <path d="M 471 374 Q 493 380 520 383 C 550 387 552 391 527 408 Q 506 424 473 413 Q 472 413 471 412 L 428 397 Q 395 387 367 379 C 338 371 338 352 368 351 Q 375 350 385 353 Q 401 360 428 365 L 471 374 Z" fill="lightgray" class="hide"/>
    <path d="M 470 271 Q 528 289 607 304 Q 623 307 623 314 Q 623 327 605 334 Q 580 343 558 337 Q 507 324 470 311 L 427 299 Q 310 272 266 265 Q 254 264 252 255 Q 249 245 264 235 Q 307 211 347 229 Q 389 247 424 257 L 470 271 Z" fill="lightgray" class="hide"/>
    <path d="M 424 257 Q 418 193 402 132 Q 392 95 416 33 Q 423 17 431 13 Q 437 6 444 15 Q 451 19 461 39 Q 471 64 470 94 Q 469 122 470 271 L 470 311 Q 470 341 471 374 L 471 412 Q 471 440 472 471 L 473 510 Q 473 532 473 553 L 473 583 Q 474 610 475 653 L 478 702 Q 482 751 494 790 Q 503 805 499 818 Q 492 828 439 861 Q 415 877 395 862 Q 391 858 397 842 Q 430 793 431 743 Q 431 715 431 683 L 432 639 Q 432 606 433 572 L 432 543 Q 431 521 431 498 L 430 461 Q 429 430 428 397 L 428 365 Q 427 334 427 299 L 424 257 Z" fill="lightgray" class="hide"/>
    <path d="M 725 570 Q 762 589 789 604 Q 865 652 889 658 Q 913 665 904 686 Q 891 705 866 723 Q 842 739 829 738 Q 816 738 818 724 Q 819 691 755 633 Q 733 612 708 589 C 686 569 698 556 725 570 Z" fill="lightgray" class="hide"/>
    <path d="M 719 474 Q 722 546 725 560 Q 726 566 725 570 C 726 581 726 581 708 589 Q 663 611 649 608 Q 630 604 646 583 Q 682 526 660 336 Q 651 291 631 237 Q 610 179 534 102 Q 521 89 518 83 Q 517 76 528 77 Q 567 80 626 147 Q 702 240 716 420 Q 716 436 718 452 L 719 474 Z" fill="lightgray" class="hide"/>
    <path d="M 844 453 Q 979 486 983 489 Q 992 496 987 505 Q 980 515 952 522 Q 925 528 850 501 Q 775 482 724 476 Q 721 476 719 474 C 690 466 691 464 718 452 Q 743 439 786 441 L 844 453 Z" fill="lightgray" class="hide"/>
    <path d="M 786 441 Q 799 422 806 355 Q 809 -42 823 -65 Q 823 -66 826 -69 Q 832 -76 839 -74 Q 855 -64 859 -7 Q 866 51 864 110 Q 861 159 864 352 Q 865 373 867 384 Q 870 402 872 416 Q 875 432 861 442 Q 851 449 844 453 C 819 469 773 468 786 441 Z" fill="lightgray" class="hide"/></g><g transform="scale(1, -1) translate(0, -900)">
    <style type="text/css">
        .origin {display:none;}
        .hide {display:none;}
        .stroke {fill: #000000;}
        
.step1 {transform: translateX(1024px);}
.step2 {transform: translateX(2048px);}
.step3 {transform: translateX(3072px);}
.step4 {transform: translateX(4096px);}
.step5 {transform: translateX(5120px);}
.step6 {transform: translateX(6144px);}
.step7 {transform: translateX(7168px);}
.step8 {transform: translateX(8192px);}
.step9 {transform: translateX(9216px);}
.step10 {transform: translateX(10240px);}
.step11 {transform: translateX(11264px);}
.step12 {transform: translateX(12288px);}
.step13 {transform: translateX(13312px);}
.step14 {transform: translateX(14336px);}
.step15 {transform: translateX(15360px);}
.step16 {transform: translateX(16384px);}
.step17 {transform: translateX(17408px);}
.step18 {transform: translateX(18432px);}
.step19 {transform: translateX(19456px);}
.step20 {transform: translateX(20480px);}
.step21 {transform: translateX(21504px);}
.step22 {transform: translateX(22528px);}
.step23 {transform: translateX(23552px);}
.step24 {transform: translateX(24576px);}
.step25 {transform: translateX(25600px);}
.step26 {transform: translateX(26624px);}
.step27 {transform: translateX(27648px);}
.step28 {transform: translateX(28672px);}
.step29 {transform: translateX(29696px);}
    </style>

    <path d="M 195 691 Q 216 672 237 648 Q 250 635 268 634 Q 278 635 285 649 Q 289 664 281 695 Q 277 713 249 725 Q 182 749 168 743 Q 162 739 164 726 Q 168 714 195 691 Z" fill="lightgray" class="stroke step3"/>
    <path d="M 116 494 Q 152 443 181 425 Q 196 421 207 433 Q 214 446 213 463 Q 209 488 193 503 Q 148 537 117 537 Q 110 538 106 536 Q 99 535 101 523 Q 101 510 116 494 Z" fill="lightgray" class="stroke step3"/>
    <path d="M 118 145 Q 108 141 111 124 Q 133 55 167 40 Q 174 34 184 38 Q 191 39 190 64 Q 191 118 252 345 Q 256 361 256 367 Q 255 376 246 369 Q 236 360 150 186 Q 141 167 118 145 Z" fill="lightgray" class="stroke step3"/>
    <path d="M 475 653 Q 509 666 547 678 Q 571 687 574 690 Q 581 699 576 706 Q 569 716 541 719 Q 531 719 478 702 L 431 683 Q 398 671 360 663 Q 327 653 353 641 Q 389 629 432 639 L 475 653 Z" fill="lightgray" class="stroke step3"/>
    <path d="M 319 542 Q 309 546 290 548 Q 280 549 276 545 Q 272 539 279 526 Q 307 472 325 385 Q 329 360 345 342 Q 361 323 366 337 L 368 351 L 367 379 Q 366 386 364 395 Q 345 486 340 514 C 336 537 336 537 319 542 Z" fill="lightgray" class="hide"/>
    <path d="M 520 383 Q 535 361 549 354 Q 559 347 572 366 Q 584 385 609 496 Q 616 524 636 546 Q 646 556 637 569 Q 624 582 585 605 Q 569 611 515 594 Q 488 591 473 583 L 433 572 Q 415 568 399 563 Q 354 550 319 542 C 290 535 313 501 340 514 Q 346 521 432 543 L 473 553 Q 536 574 555 564 Q 567 555 563 539 Q 542 419 527 408 C 515 389 515 389 520 383 Z" fill="lightgray" class="hide"/>
    <path d="M 472 471 Q 491 477 510 480 Q 532 486 522 497 Q 504 516 473 510 L 431 498 Q 428 498 426 496 Q 402 483 381 473 Q 365 467 386 456 Q 393 452 405 455 Q 417 459 430 461 L 472 471 Z" fill="lightgray" class="hide"/>
    <path d="M 471 374 Q 493 380 520 383 C 550 387 552 391 527 408 Q 506 424 473 413 Q 472 413 471 412 L 428 397 Q 395 387 367 379 C 338 371 338 352 368 351 Q 375 350 385 353 Q 401 360 428 365 L 471 374 Z" fill="lightgray" class="hide"/>
    <path d="M 470 271 Q 528 289 607 304 Q 623 307 623 314 Q 623 327 605 334 Q 580 343 558 337 Q 507 324 470 311 L 427 299 Q 310 272 266 265 Q 254 264 252 255 Q 249 245 264 235 Q 307 211 347 229 Q 389 247 424 257 L 470 271 Z" fill="lightgray" class="hide"/>
    <path d="M 424 257 Q 418 193 402 132 Q 392 95 416 33 Q 423 17 431 13 Q 437 6 444 15 Q 451 19 461 39 Q 471 64 470 94 Q 469 122 470 271 L 470 311 Q 470 341 471 374 L 471 412 Q 471 440 472 471 L 473 510 Q 473 532 473 553 L 473 583 Q 474 610 475 653 L 478 702 Q 482 751 494 790 Q 503 805 499 818 Q 492 828 439 861 Q 415 877 395 862 Q 391 858 397 842 Q 430 793 431 743 Q 431 715 431 683 L 432 639 Q 432 606 433 572 L 432 543 Q 431 521 431 498 L 430 461 Q 429 430 428 397 L 428 365 Q 427 334 427 299 L 424 257 Z" fill="lightgray" class="hide"/>
    <path d="M 725 570 Q 762 589 789 604 Q 865 652 889 658 Q 913 665 904 686 Q 891 705 866 723 Q 842 739 829 738 Q 816 738 818 724 Q 819 691 755 633 Q 733 612 708 589 C 686 569 698 556 725 570 Z" fill="lightgray" class="hide"/>
    <path d="M 719 474 Q 722 546 725 560 Q 726 566 725 570 C 726 581 726 581 708 589 Q 663 611 649 608 Q 630 604 646 583 Q 682 526 660 336 Q 651 291 631 237 Q 610 179 534 102 Q 521 89 518 83 Q 517 76 528 77 Q 567 80 626 147 Q 702 240 716 420 Q 716 436 718 452 L 719 474 Z" fill="lightgray" class="hide"/>
    <path d="M 844 453 Q 979 486 983 489 Q 992 496 987 505 Q 980 515 952 522 Q 925 528 850 501 Q 775 482 724 476 Q 721 476 719 474 C 690 466 691 464 718 452 Q 743 439 786 441 L 844 453 Z" fill="lightgray" class="hide"/>
    <path d="M 786 441 Q 799 422 806 355 Q 809 -42 823 -65 Q 823 -66 826 -69 Q 832 -76 839 -74 Q 855 -64 859 -7 Q 866 51 864 110 Q 861 159 864 352 Q 865 373 867 384 Q 870 402 872 416 Q 875 432 861 442 Q 851 449 844 453 C 819 469 773 468 786 441 Z" fill="lightgray" class="hide"/></g><g transform="scale(1, -1) translate(0, -900)">
    <style type="text/css">
        .origin {display:none;}
        .hide {display:none;}
        .stroke {fill: #000000;}
        
.step1 {transform: translateX(1024px);}
.step2 {transform: translateX(2048px);}
.step3 {transform: translateX(3072px);}
.step4 {transform: translateX(4096px);}
.step5 {transform: translateX(5120px);}
.step6 {transform: translateX(6144px);}
.step7 {transform: translateX(7168px);}
.step8 {transform: translateX(8192px);}
.step9 {transform: translateX(9216px);}
.step10 {transform: translateX(10240px);}
.step11 {transform: translateX(11264px);}
.step12 {transform: translateX(12288px);}
.step13 {transform: translateX(13312px);}
.step14 {transform: translateX(14336px);}
.step15 {transform: translateX(15360px);}
.step16 {transform: translateX(16384px);}
.step17 {transform: translateX(17408px);}
.step18 {transform: translateX(18432px);}
.step19 {transform: translateX(19456px);}
.step20 {transform: translateX(20480px);}
.step21 {transform: translateX(21504px);}
.step22 {transform: translateX(22528px);}
.step23 {transform: translateX(23552px);}
.step24 {transform: translateX(24576px);}
.step25 {transform: translateX(25600px);}
.step26 {transform: translateX(26624px);}
.step27 {transform: translateX(27648px);}
.step28 {transform: translateX(28672px);}
.step29 {transform: translateX(29696px);}
    </style>

    <path d="M 195 691 Q 216 672 237 648 Q 250 635 268 634 Q 278 635 285 649 Q 289 664 281 695 Q 277 713 249 725 Q 182 749 168 743 Q 162 739 164 726 Q 168 714 195 691 Z" fill="lightgray" class="stroke step4"/>
    <path d="M 116 494 Q 152 443 181 425 Q 196 421 207 433 Q 214 446 213 463 Q 209 488 193 503 Q 148 537 117 537 Q 110 538 106 536 Q 99 535 101 523 Q 101 510 116 494 Z" fill="lightgray" class="stroke step4"/>
    <path d="M 118 145 Q 108 141 111 124 Q 133 55 167 40 Q 174 34 184 38 Q 191 39 190 64 Q 191 118 252 345 Q 256 361 256 367 Q 255 376 246 369 Q 236 360 150 186 Q 141 167 118 145 Z" fill="lightgray" class="stroke step4"/>
    <path d="M 475 653 Q 509 666 547 678 Q 571 687 574 690 Q 581 699 576 706 Q 569 716 541 719 Q 531 719 478 702 L 431 683 Q 398 671 360 663 Q 327 653 353 641 Q 389 629 432 639 L 475 653 Z" fill="lightgray" class="stroke step4"/>
    <path d="M 319 542 Q 309 546 290 548 Q 280 549 276 545 Q 272 539 279 526 Q 307 472 325 385 Q 329 360 345 342 Q 361 323 366 337 L 368 351 L 367 379 Q 366 386 364 395 Q 345 486 340 514 C 336 537 336 537 319 542 Z" fill="lightgray" class="stroke step4"/>
    <path d="M 520 383 Q 535 361 549 354 Q 559 347 572 366 Q 584 385 609 496 Q 616 524 636 546 Q 646 556 637 569 Q 624 582 585 605 Q 569 611 515 594 Q 488 591 473 583 L 433 572 Q 415 568 399 563 Q 354 550 319 542 C 290 535 313 501 340 514 Q 346 521 432 543 L 473 553 Q 536 574 555 564 Q 567 555 563 539 Q 542 419 527 408 C 515 389 515 389 520 383 Z" fill="lightgray" class="hide"/>
    <path d="M 472 471 Q 491 477 510 480 Q 532 486 522 497 Q 504 516 473 510 L 431 498 Q 428 498 426 496 Q 402 483 381 473 Q 365 467 386 456 Q 393 452 405 455 Q 417 459 430 461 L 472 471 Z" fill="lightgray" class="hide"/>
    <path d="M 471 374 Q 493 380 520 383 C 550 387 552 391 527 408 Q 506 424 473 413 Q 472 413 471 412 L 428 397 Q 395 387 367 379 C 338 371 338 352 368 351 Q 375 350 385 353 Q 401 360 428 365 L 471 374 Z" fill="lightgray" class="hide"/>
    <path d="M 470 271 Q 528 289 607 304 Q 623 307 623 314 Q 623 327 605 334 Q 580 343 558 337 Q 507 324 470 311 L 427 299 Q 310 272 266 265 Q 254 264 252 255 Q 249 245 264 235 Q 307 211 347 229 Q 389 247 424 257 L 470 271 Z" fill="lightgray" class="hide"/>
    <path d="M 424 257 Q 418 193 402 132 Q 392 95 416 33 Q 423 17 431 13 Q 437 6 444 15 Q 451 19 461 39 Q 471 64 470 94 Q 469 122 470 271 L 470 311 Q 470 341 471 374 L 471 412 Q 471 440 472 471 L 473 510 Q 473 532 473 553 L 473 583 Q 474 610 475 653 L 478 702 Q 482 751 494 790 Q 503 805 499 818 Q 492 828 439 861 Q 415 877 395 862 Q 391 858 397 842 Q 430 793 431 743 Q 431 715 431 683 L 432 639 Q 432 606 433 572 L 432 543 Q 431 521 431 498 L 430 461 Q 429 430 428 397 L 428 365 Q 427 334 427 299 L 424 257 Z" fill="lightgray" class="hide"/>
    <path d="M 725 570 Q 762 589 789 604 Q 865 652 889 658 Q 913 665 904 686 Q 891 705 866 723 Q 842 739 829 738 Q 816 738 818 724 Q 819 691 755 633 Q 733 612 708 589 C 686 569 698 556 725 570 Z" fill="lightgray" class="hide"/>
    <path d="M 719 474 Q 722 546 725 560 Q 726 566 725 570 C 726 581 726 581 708 589 Q 663 611 649 608 Q 630 604 646 583 Q 682 526 660 336 Q 651 291 631 237 Q 610 179 534 102 Q 521 89 518 83 Q 517 76 528 77 Q 567 80 626 147 Q 702 240 716 420 Q 716 436 718 452 L 719 474 Z" fill="lightgray" class="hide"/>
    <path d="M 844 453 Q 979 486 983 489 Q 992 496 987 505 Q 980 515 952 522 Q 925 528 850 501 Q 775 482 724 476 Q 721 476 719 474 C 690 466 691 464 718 452 Q 743 439 786 441 L 844 453 Z" fill="lightgray" class="hide"/>
    <path d="M 786 441 Q 799 422 806 355 Q 809 -42 823 -65 Q 823 -66 826 -69 Q 832 -76 839 -74 Q 855 -64 859 -7 Q 866 51 864 110 Q 861 159 864 352 Q 865 373 867 384 Q 870 402 872 416 Q 875 432 861 442 Q 851 449 844 453 C 819 469 773 468 786 441 Z" fill="lightgray" class="hide"/></g><g transform="scale(1, -1) translate(0, -900)">
    <style type="text/css">
        .origin {display:none;}
        .hide {display:none;}
        .stroke {fill: #000000;}
        
.step1 {transform: translateX(1024px);}
.step2 {transform: translateX(2048px);}
.step3 {transform: translateX(3072px);}
.step4 {transform: translateX(4096px);}
.step5 {transform: translateX(5120px);}
.step6 {transform: translateX(6144px);}
.step7 {transform: translateX(7168px);}
.step8 {transform: translateX(8192px);}
.step9 {transform: translateX(9216px);}
.step10 {transform: translateX(10240px);}
.step11 {transform: translateX(11264px);}
.step12 {transform: translateX(12288px);}
.step13 {transform: translateX(13312px);}
.step14 {transform: translateX(14336px);}
.step15 {transform: translateX(15360px);}
.step16 {transform: translateX(16384px);}
.step17 {transform: translateX(17408px);}
.step18 {transform: translateX(18432px);}
.step19 {transform: translateX(19456px);}
.step20 {transform: translateX(20480px);}
.step21 {transform: translateX(21504px);}
.step22 {transform: translateX(22528px);}
.step23 {transform: translateX(23552px);}
.step24 {transform: translateX(24576px);}
.step25 {transform: translateX(25600px);}
.step26 {transform: translateX(26624px);}
.step27 {transform: translateX(27648px);}
.step28 {transform: translateX(28672px);}
.step29 {transform: translateX(29696px);}
    </style>

    <path d="M 195 691 Q 216 672 237 648 Q 250 635 268 634 Q 278 635 285 649 Q 289 664 281 695 Q 277 713 249 725 Q 182 749 168 743 Q 162 739 164 726 Q 168 714 195 691 Z" fill="lightgray" class="stroke step5"/>
    <path d="M 116 494 Q 152 443 181 425 Q 196 421 207 433 Q 214 446 213 463 Q 209 488 193 503 Q 148 537 117 537 Q 110 538 106 536 Q 99 535 101 523 Q 101 510 116 494 Z" fill="lightgray" class="stroke step5"/>
    <path d="M 118 145 Q 108 141 111 124 Q 133 55 167 40 Q 174 34 184 38 Q 191 39 190 64 Q 191 118 252 345 Q 256 361 256 367 Q 255 376 246 369 Q 236 360 150 186 Q 141 167 118 145 Z" fill="lightgray" class="stroke step5"/>
    <path d="M 475 653 Q 509 666 547 678 Q 571 687 574 690 Q 581 699 576 706 Q 569 716 541 719 Q 531 719 478 702 L 431 683 Q 398 671 360 663 Q 327 653 353 641 Q 389 629 432 639 L 475 653 Z" fill="lightgray" class="stroke step5"/>
    <path d="M 319 542 Q 309 546 290 548 Q 280 549 276 545 Q 272 539 279 526 Q 307 472 325 385 Q 329 360 345 342 Q 361 323 366 337 L 368 351 L 367 379 Q 366 386 364 395 Q 345 486 340 514 C 336 537 336 537 319 542 Z" fill="lightgray" class="stroke step5"/>
    <path d="M 520 383 Q 535 361 549 354 Q 559 347 572 366 Q 584 385 609 496 Q 616 524 636 546 Q 646 556 637 569 Q 624 582 585 605 Q 569 611 515 594 Q 488 591 473 583 L 433 572 Q 415 568 399 563 Q 354 550 319 542 C 290 535 313 501 340 514 Q 346 521 432 543 L 473 553 Q 536 574 555 564 Q 567 555 563 539 Q 542 419 527 408 C 515 389 515 389 520 383 Z" fill="lightgray" class="stroke step5"/>
    <path d="M 472 471 Q 491 477 510 480 Q 532 486 522 497 Q 504 516 473 510 L 431 498 Q 428 498 426 496 Q 402 483 381 473 Q 365 467 386 456 Q 393 452 405 455 Q 417 459 430 461 L 472 471 Z" fill="lightgray" class="hide"/>
    <path d="M 471 374 Q 493 380 520 383 C 550 387 552 391 527 408 Q 506 424 473 413 Q 472 413 471 412 L 428 397 Q 395 387 367 379 C 338 371 338 352 368 351 Q 375 350 385 353 Q 401 360 428 365 L 471 374 Z" fill="lightgray" class="hide"/>
    <path d="M 470 271 Q 528 289 607 304 Q 623 307 623 314 Q 623 327 605 334 Q 580 343 558 337 Q 507 324 470 311 L 427 299 Q 310 272 266 265 Q 254 264 252 255 Q 249 245 264 235 Q 307 211 347 229 Q 389 247 424 257 L 470 271 Z" fill="lightgray" class="hide"/>
    <path d="M 424 257 Q 418 193 402 132 Q 392 95 416 33 Q 423 17 431 13 Q 437 6 444 15 Q 451 19 461 39 Q 471 64 470 94 Q 469 122 470 271 L 470 311 Q 470 341 471 374 L 471 412 Q 471 440 472 471 L 473 510 Q 473 532 473 553 L 473 583 Q 474 610 475 653 L 478 702 Q 482 751 494 790 Q 503 805 499 818 Q 492 828 439 861 Q 415 877 395 862 Q 391 858 397 842 Q 430 793 431 743 Q 431 715 431 683 L 432 639 Q 432 606 433 572 L 432 543 Q 431 521 431 498 L 430 461 Q 429 430 428 397 L 428 365 Q 427 334 427 299 L 424 257 Z" fill="lightgray" class="hide"/>
    <path d="M 725 570 Q 762 589 789 604 Q 865 652 889 658 Q 913 665 904 686 Q 891 705 866 723 Q 842 739 829 738 Q 816 738 818 724 Q 819 691 755 633 Q 733 612 708 589 C 686 569 698 556 725 570 Z" fill="lightgray" class="hide"/>
    <path d="M 719 474 Q 722 546 725 560 Q 726 566 725 570 C 726 581 726 581 708 589 Q 663 611 649 608 Q 630 604 646 583 Q 682 526 660 336 Q 651 291 631 237 Q 610 179 534 102 Q 521 89 518 83 Q 517 76 528 77 Q 567 80 626 147 Q 702 240 716 420 Q 716 436 718 452 L 719 474 Z" fill="lightgray" class="hide"/>
    <path d="M 844 453 Q 979 486 983 489 Q 992 496 987 505 Q 980 515 952 522 Q 925 528 850 501 Q 775 482 724 476 Q 721 476 719 474 C 690 466 691 464 718 452 Q 743 439 786 441 L 844 453 Z" fill="lightgray" class="hide"/>
    <path d="M 786 441 Q 799 422 806 355 Q 809 -42 823 -65 Q 823 -66 826 -69 Q 832 -76 839 -74 Q 855 -64 859 -7 Q 866 51 864 110 Q 861 159 864 352 Q 865 373 867 384 Q 870 402 872 416 Q 875 432 861 442 Q 851 449 844 453 C 819 469 773 468 786 441 Z" fill="lightgray" class="hide"/></g><g transform="scale(1, -1) translate(0, -900)">
    <style type="text/css">
        .origin {display:none;}
        .hide {display:none;}
        .stroke {fill: #000000;}
        
.step1 {transform: translateX(1024px);}
.step2 {transform: translateX(2048px);}
.step3 {transform: translateX(3072px);}
.step4 {transform: translateX(4096px);}
.step5 {transform: translateX(5120px);}
.step6 {transform: translateX(6144px);}
.step7 {transform: translateX(7168px);}
.step8 {transform: translateX(8192px);}
.step9 {transform: translateX(9216px);}
.step10 {transform: translateX(10240px);}
.step11 {transform: translateX(11264px);}
.step12 {transform: translateX(12288px);}
.step13 {transform: translateX(13312px);}
.step14 {transform: translateX(14336px);}
.step15 {transform: translateX(15360px);}
.step16 {transform: translateX(16384px);}
.step17 {transform: translateX(17408px);}
.step18 {transform: translateX(18432px);}
.step19 {transform: translateX(19456px);}
.step20 {transform: translateX(20480px);}
.step21 {transform: translateX(21504px);}
.step22 {transform: translateX(22528px);}
.step23 {transform: translateX(23552px);}
.step24 {transform: translateX(24576px);}
.step25 {transform: translateX(25600px);}
.step26 {transform: translateX(26624px);}
.step27 {transform: translateX(27648px);}
.step28 {transform: translateX(28672px);}
.step29 {transform: translateX(29696px);}
    </style>

    <path d="M 195 691 Q 216 672 237 648 Q 250 635 268 634 Q 278 635 285 649 Q 289 664 281 695 Q 277 713 249 725 Q 182 749 168 743 Q 162 739 164 726 Q 168 714 195 691 Z" fill="lightgray" class="stroke step6"/>
    <path d="M 116 494 Q 152 443 181 425 Q 196 421 207 433 Q 214 446 213 463 Q 209 488 193 503 Q 148 537 117 537 Q 110 538 106 536 Q 99 535 101 523 Q 101 510 116 494 Z" fill="lightgray" class="stroke step6"/>
    <path d="M 118 145 Q 108 141 111 124 Q 133 55 167 40 Q 174 34 184 38 Q 191 39 190 64 Q 191 118 252 345 Q 256 361 256 367 Q 255 376 246 369 Q 236 360 150 186 Q 141 167 118 145 Z" fill="lightgray" class="stroke step6"/>
    <path d="M 475 653 Q 509 666 547 678 Q 571 687 574 690 Q 581 699 576 706 Q 569 716 541 719 Q 531 719 478 702 L 431 683 Q 398 671 360 663 Q 327 653 353 641 Q 389 629 432 639 L 475 653 Z" fill="lightgray" class="stroke step6"/>
    <path d="M 319 542 Q 309 546 290 548 Q 280 549 276 545 Q 272 539 279 526 Q 307 472 325 385 Q 329 360 345 342 Q 361 323 366 337 L 368 351 L 367 379 Q 366 386 364 395 Q 345 486 340 514 C 336 537 336 537 319 542 Z" fill="lightgray" class="stroke step6"/>
    <path d="M 520 383 Q 535 361 549 354 Q 559 347 572 366 Q 584 385 609 496 Q 616 524 636 546 Q 646 556 637 569 Q 624 582 585 605 Q 569 611 515 594 Q 488 591 473 583 L 433 572 Q 415 568 399 563 Q 354 550 319 542 C 290 535 313 501 340 514 Q 346 521 432 543 L 473 553 Q 536 574 555 564 Q 567 555 563 539 Q 542 419 527 408 C 515 389 515 389 520 383 Z" fill="lightgray" class="stroke step6"/>
    <path d="M 472 471 Q 491 477 510 480 Q 532 486 522 497 Q 504 516 473 510 L 431 498 Q 428 498 426 496 Q 402 483 381 473 Q 365 467 386 456 Q 393 452 405 455 Q 417 459 430 461 L 472 471 Z" fill="lightgray" class="stroke step6"/>
    <path d="M 471 374 Q 493 380 520 383 C 550 387 552 391 527 408 Q 506 424 473 413 Q 472 413 471 412 L 428 397 Q 395 387 367 379 C 338 371 338 352 368 351 Q 375 350 385 353 Q 401 360 428 365 L 471 374 Z" fill="lightgray" class="hide"/>
    <path d="M 470 271 Q 528 289 607 304 Q 623 307 623 314 Q 623 327 605 334 Q 580 343 558 337 Q 507 324 470 311 L 427 299 Q 310 272 266 265 Q 254 264 252 255 Q 249 245 264 235 Q 307 211 347 229 Q 389 247 424 257 L 470 271 Z" fill="lightgray" class="hide"/>
    <path d="M 424 257 Q 418 193 402 132 Q 392 95 416 33 Q 423 17 431 13 Q 437 6 444 15 Q 451 19 461 39 Q 471 64 470 94 Q 469 122 470 271 L 470 311 Q 470 341 471 374 L 471 412 Q 471 440 472 471 L 473 510 Q 473 532 473 553 L 473 583 Q 474 610 475 653 L 478 702 Q 482 751 494 790 Q 503 805 499 818 Q 492 828 439 861 Q 415 877 395 862 Q 391 858 397 842 Q 430 793 431 743 Q 431 715 431 683 L 432 639 Q 432 606 433 572 L 432 543 Q 431 521 431 498 L 430 461 Q 429 430 428 397 L 428 365 Q 427 334 427 299 L 424 257 Z" fill="lightgray" class="hide"/>
    <path d="M 725 570 Q 762 589 789 604 Q 865 652 889 658 Q 913 665 904 686 Q 891 705 866 723 Q 842 739 829 738 Q 816 738 818 724 Q 819 691 755 633 Q 733 612 708 589 C 686 569 698 556 725 570 Z" fill="lightgray" class="hide"/>
    <path d="M 719 474 Q 722 546 725 560 Q 726 566 725 570 C 726 581 726 581 708 589 Q 663 611 649 608 Q 630 604 646 583 Q 682 526 660 336 Q 651 291 631 237 Q 610 179 534 102 Q 521 89 518 83 Q 517 76 528 77 Q 567 80 626 147 Q 702 240 716 420 Q 716 436 718 452 L 719 474 Z" fill="lightgray" class="hide"/>
    <path d="M 844 453 Q 979 486 983 489 Q 992 496 987 505 Q 980 515 952 522 Q 925 528 850 501 Q 775 482 724 476 Q 721 476 719 474 C 690 466 691 464 718 452 Q 743 439 786 441 L 844 453 Z" fill="lightgray" class="hide"/>
    <path d="M 786 441 Q 799 422 806 355 Q 809 -42 823 -65 Q 823 -66 826 -69 Q 832 -76 839 -74 Q 855 -64 859 -7 Q 866 51 864 110 Q 861 159 864 352 Q 865 373 867 384 Q 870 402 872 416 Q 875 432 861 442 Q 851 449 844 453 C 819 469 773 468 786 441 Z" fill="lightgray" class="hide"/></g><g transform="scale(1, -1) translate(0, -900)">
    <style type="text/css">
        .origin {display:none;}
        .hide {display:none;}
        .stroke {fill: #000000;}
        
.step1 {transform: translateX(1024px);}
.step2 {transform: translateX(2048px);}
.step3 {transform: translateX(3072px);}
.step4 {transform: translateX(4096px);}
.step5 {transform: translateX(5120px);}
.step6 {transform: translateX(6144px);}
.step7 {transform: translateX(7168px);}
.step8 {transform: translateX(8192px);}
.step9 {transform: translateX(9216px);}
.step10 {transform: translateX(10240px);}
.step11 {transform: translateX(11264px);}
.step12 {transform: translateX(12288px);}
.step13 {transform: translateX(13312px);}
.step14 {transform: translateX(14336px);}
.step15 {transform: translateX(15360px);}
.step16 {transform: translateX(16384px);}
.step17 {transform: translateX(17408px);}
.step18 {transform: translateX(18432px);}
.step19 {transform: translateX(19456px);}
.step20 {transform: translateX(20480px);}
.step21 {transform: translateX(21504px);}
.step22 {transform: translateX(22528px);}
.step23 {transform: translateX(23552px);}
.step24 {transform: translateX(24576px);}
.step25 {transform: translateX(25600px);}
.step26 {transform: translateX(26624px);}
.step27 {transform: translateX(27648px);}
.step28 {transform: translateX(28672px);}
.step29 {transform: translateX(29696px);}
    </style>

    <path d="M 195 691 Q 216 672 237 648 Q 250 635 268 634 Q 278 635 285 649 Q 289 664 281 695 Q 277 713 249 725 Q 182 749 168 743 Q 162 739 164 726 Q 168 714 195 691 Z" fill="lightgray" class="stroke step7"/>
    <path d="M 116 494 Q 152 443 181 425 Q 196 421 207 433 Q 214 446 213 463 Q 209 488 193 503 Q 148 537 117 537 Q 110 538 106 536 Q 99 535 101 523 Q 101 510 116 494 Z" fill="lightgray" class="stroke step7"/>
    <path d="M 118 145 Q 108 141 111 124 Q 133 55 167 40 Q 174 34 184 38 Q 191 39 190 64 Q 191 118 252 345 Q 256 361 256 367 Q 255 376 246 369 Q 236 360 150 186 Q 141 167 118 145 Z" fill="lightgray" class="stroke step7"/>
    <path d="M 475 653 Q 509 666 547 678 Q 571 687 574 690 Q 581 699 576 706 Q 569 716 541 719 Q 531 719 478 702 L 431 683 Q 398 671 360 663 Q 327 653 353 641 Q 389 629 432 639 L 475 653 Z" fill="lightgray" class="stroke step7"/>
    <path d="M 319 542 Q 309 546 290 548 Q 280 549 276 545 Q 272 539 279 526 Q 307 472 325 385 Q 329 360 345 342 Q 361 323 366 337 L 368 351 L 367 379 Q 366 386 364 395 Q 345 486 340 514 C 336 537 336 537 319 542 Z" fill="lightgray" class="stroke step7"/>
    <path d="M 520 383 Q 535 361 549 354 Q 559 347 572 366 Q 584 385 609 496 Q 616 524 636 546 Q 646 556 637 569 Q 624 582 585 605 Q 569 611 515 594 Q 488 591 473 583 L 433 572 Q 415 568 399 563 Q 354 550 319 542 C 290 535 313 501 340 514 Q 346 521 432 543 L 473 553 Q 536 574 555 564 Q 567 555 563 539 Q 542 419 527 408 C 515 389 515 389 520 383 Z" fill="lightgray" class="stroke step7"/>
    <path d="M 472 471 Q 491 477 510 480 Q 532 486 522 497 Q 504 516 473 510 L 431 498 Q 428 498 426 496 Q 402 483 381 473 Q 365 467 386 456 Q 393 452 405 455 Q 417 459 430 461 L 472 471 Z" fill="lightgray" class="stroke step7"/>
    <path d="M 471 374 Q 493 380 520 383 C 550 387 552 391 527 408 Q 506 424 473 413 Q 472 413 471 412 L 428 397 Q 395 387 367 379 C 338 371 338 352 368 351 Q 375 350 385 353 Q 401 360 428 365 L 471 374 Z" fill="lightgray" class="stroke step7"/>
    <path d="M 470 271 Q 528 289 607 304 Q 623 307 623 314 Q 623 327 605 334 Q 580 343 558 337 Q 507 324 470 311 L 427 299 Q 310 272 266 265 Q 254 264 252 255 Q 249 245 264 235 Q 307 211 347 229 Q 389 247 424 257 L 470 271 Z" fill="lightgray" class="hide"/>
    <path d="M 424 257 Q 418 193 402 132 Q 392 95 416 33 Q 423 17 431 13 Q 437 6 444 15 Q 451 19 461 39 Q 471 64 470 94 Q 469 122 470 271 L 470 311 Q 470 341 471 374 L 471 412 Q 471 440 472 471 L 473 510 Q 473 532 473 553 L 473 583 Q 474 610 475 653 L 478 702 Q 482 751 494 790 Q 503 805 499 818 Q 492 828 439 861 Q 415 877 395 862 Q 391 858 397 842 Q 430 793 431 743 Q 431 715 431 683 L 432 639 Q 432 606 433 572 L 432 543 Q 431 521 431 498 L 430 461 Q 429 430 428 397 L 428 365 Q 427 334 427 299 L 424 257 Z" fill="lightgray" class="hide"/>
    <path d="M 725 570 Q 762 589 789 604 Q 865 652 889 658 Q 913 665 904 686 Q 891 705 866 723 Q 842 739 829 738 Q 816 738 818 724 Q 819 691 755 633 Q 733 612 708 589 C 686 569 698 556 725 570 Z" fill="lightgray" class="hide"/>
    <path d="M 719 474 Q 722 546 725 560 Q 726 566 725 570 C 726 581 726 581 708 589 Q 663 611 649 608 Q 630 604 646 583 Q 682 526 660 336 Q 651 291 631 237 Q 610 179 534 102 Q 521 89 518 83 Q 517 76 528 77 Q 567 80 626 147 Q 702 240 716 420 Q 716 436 718 452 L 719 474 Z" fill="lightgray" class="hide"/>
    <path d="M 844 453 Q 979 486 983 489 Q 992 496 987 505 Q 980 515 952 522 Q 925 528 850 501 Q 775 482 724 476 Q 721 476 719 474 C 690 466 691 464 718 452 Q 743 439 786 441 L 844 453 Z" fill="lightgray" class="hide"/>
    <path d="M 786 441 Q 799 422 806 355 Q 809 -42 823 -65 Q 823 -66 826 -69 Q 832 -76 839 -74 Q 855 -64 859 -7 Q 866 51 864 110 Q 861 159 864 352 Q 865 373 867 384 Q 870 402 872 416 Q 875 432 861 442 Q 851 449 844 453 C 819 469 773 468 786 441 Z" fill="lightgray" class="hide"/></g><g transform="scale(1, -1) translate(0, -900)">
    <style type="text/css">
        .origin {display:none;}
        .hide {display:none;}
        .stroke {fill: #000000;}
        
.step1 {transform: translateX(1024px);}
.step2 {transform: translateX(2048px);}
.step3 {transform: translateX(3072px);}
.step4 {transform: translateX(4096px);}
.step5 {transform: translateX(5120px);}
.step6 {transform: translateX(6144px);}
.step7 {transform: translateX(7168px);}
.step8 {transform: translateX(8192px);}
.step9 {transform: translateX(9216px);}
.step10 {transform: translateX(10240px);}
.step11 {transform: translateX(11264px);}
.step12 {transform: translateX(12288px);}
.step13 {transform: translateX(13312px);}
.step14 {transform: translateX(14336px);}
.step15 {transform: translateX(15360px);}
.step16 {transform: translateX(16384px);}
.step17 {transform: translateX(17408px);}
.step18 {transform: translateX(18432px);}
.step19 {transform: translateX(19456px);}
.step20 {transform: translateX(20480px);}
.step21 {transform: translateX(21504px);}
.step22 {transform: translateX(22528px);}
.step23 {transform: translateX(23552px);}
.step24 {transform: translateX(24576px);}
.step25 {transform: translateX(25600px);}
.step26 {transform: translateX(26624px);}
.step27 {transform: translateX(27648px);}
.step28 {transform: translateX(28672px);}
.step29 {transform: translateX(29696px);}
    </style>

    <path d="M 195 691 Q 216 672 237 648 Q 250 635 268 634 Q 278 635 285 649 Q 289 664 281 695 Q 277 713 249 725 Q 182 749 168 743 Q 162 739 164 726 Q 168 714 195 691 Z" fill="lightgray" class="stroke step8"/>
    <path d="M 116 494 Q 152 443 181 425 Q 196 421 207 433 Q 214 446 213 463 Q 209 488 193 503 Q 148 537 117 537 Q 110 538 106 536 Q 99 535 101 523 Q 101 510 116 494 Z" fill="lightgray" class="stroke step8"/>
    <path d="M 118 145 Q 108 141 111 124 Q 133 55 167 40 Q 174 34 184 38 Q 191 39 190 64 Q 191 118 252 345 Q 256 361 256 367 Q 255 376 246 369 Q 236 360 150 186 Q 141 167 118 145 Z" fill="lightgray" class="stroke step8"/>
    <path d="M 475 653 Q 509 666 547 678 Q 571 687 574 690 Q 581 699 576 706 Q 569 716 541 719 Q 531 719 478 702 L 431 683 Q 398 671 360 663 Q 327 653 353 641 Q 389 629 432 639 L 475 653 Z" fill="lightgray" class="stroke step8"/>
    <path d="M 319 542 Q 309 546 290 548 Q 280 549 276 545 Q 272 539 279 526 Q 307 472 325 385 Q 329 360 345 342 Q 361 323 366 337 L 368 351 L 367 379 Q 366 386 364 395 Q 345 486 340 514 C 336 537 336 537 319 542 Z" fill="lightgray" class="stroke step8"/>
    <path d="M 520 383 Q 535 361 549 354 Q 559 347 572 366 Q 584 385 609 496 Q 616 524 636 546 Q 646 556 637 569 Q 624 582 585 605 Q 569 611 515 594 Q 488 591 473 583 L 433 572 Q 415 568 399 563 Q 354 550 319 542 C 290 535 313 501 340 514 Q 346 521 432 543 L 473 553 Q 536 574 555 564 Q 567 555 563 539 Q 542 419 527 408 C 515 389 515 389 520 383 Z" fill="lightgray" class="stroke step8"/>
    <path d="M 472 471 Q 491 477 510 480 Q 532 486 522 497 Q 504 516 473 510 L 431 498 Q 428 498 426 496 Q 402 483 381 473 Q 365 467 386 456 Q 393 452 405 455 Q 417 459 430 461 L 472 471 Z" fill="lightgray" class="stroke step8"/>
    <path d="M 471 374 Q 493 380 520 383 C 550 387 552 391 527 408 Q 506 424 473 413 Q 472 413 471 412 L 428 397 Q 395 387 367 379 C 338 371 338 352 368 351 Q 375 350 385 353 Q 401 360 428 365 L 471 374 Z" fill="lightgray" class="stroke step8"/>
    <path d="M 470 271 Q 528 289 607 304 Q 623 307 623 314 Q 623 327 605 334 Q 580 343 558 337 Q 507 324 470 311 L 427 299 Q 310 272 266 265 Q 254 264 252 255 Q 249 245 264 235 Q 307 211 347 229 Q 389 247 424 257 L 470 271 Z" fill="lightgray" class="stroke step8"/>
    <path d="M 424 257 Q 418 193 402 132 Q 392 95 416 33 Q 423 17 431 13 Q 437 6 444 15 Q 451 19 461 39 Q 471 64 470 94 Q 469 122 470 271 L 470 311 Q 470 341 471 374 L 471 412 Q 471 440 472 471 L 473 510 Q 473 532 473 553 L 473 583 Q 474 610 475 653 L 478 702 Q 482 751 494 790 Q 503 805 499 818 Q 492 828 439 861 Q 415 877 395 862 Q 391 858 397 842 Q 430 793 431 743 Q 431 715 431 683 L 432 639 Q 432 606 433 572 L 432 543 Q 431 521 431 498 L 430 461 Q 429 430 428 397 L 428 365 Q 427 334 427 299 L 424 257 Z" fill="lightgray" class="hide"/>
    <path d="M 725 570 Q 762 589 789 604 Q 865 652 889 658 Q 913 665 904 686 Q 891 705 866 723 Q 842 739 829 738 Q 816 738 818 724 Q 819 691 755 633 Q 733 612 708 589 C 686 569 698 556 725 570 Z" fill="lightgray" class="hide"/>
    <path d="M 719 474 Q 722 546 725 560 Q 726 566 725 570 C 726 581 726 581 708 589 Q 663 611 649 608 Q 630 604 646 583 Q 682 526 660 336 Q 651 291 631 237 Q 610 179 534 102 Q 521 89 518 83 Q 517 76 528 77 Q 567 80 626 147 Q 702 240 716 420 Q 716 436 718 452 L 719 474 Z" fill="lightgray" class="hide"/>
    <path d="M 844 453 Q 979 486 983 489 Q 992 496 987 505 Q 980 515 952 522 Q 925 528 850 501 Q 775 482 724 476 Q 721 476 719 474 C 690 466 691 464 718 452 Q 743 439 786 441 L 844 453 Z" fill="lightgray" class="hide"/>
    <path d="M 786 441 Q 799 422 806 355 Q 809 -42 823 -65 Q 823 -66 826 -69 Q 832 -76 839 -74 Q 855 -64 859 -7 Q 866 51 864 110 Q 861 159 864 352 Q 865 373 867 384 Q 870 402 872 416 Q 875 432 861 442 Q 851 449 844 453 C 819 469 773 468 786 441 Z" fill="lightgray" class="hide"/></g><g transform="scale(1, -1) translate(0, -900)">
    <style type="text/css">
        .origin {display:none;}
        .hide {display:none;}
        .stroke {fill: #000000;}
        
.step1 {transform: translateX(1024px);}
.step2 {transform: translateX(2048px);}
.step3 {transform: translateX(3072px);}
.step4 {transform: translateX(4096px);}
.step5 {transform: translateX(5120px);}
.step6 {transform: translateX(6144px);}
.step7 {transform: translateX(7168px);}
.step8 {transform: translateX(8192px);}
.step9 {transform: translateX(9216px);}
.step10 {transform: translateX(10240px);}
.step11 {transform: translateX(11264px);}
.step12 {transform: translateX(12288px);}
.step13 {transform: translateX(13312px);}
.step14 {transform: translateX(14336px);}
.step15 {transform: translateX(15360px);}
.step16 {transform: translateX(16384px);}
.step17 {transform: translateX(17408px);}
.step18 {transform: translateX(18432px);}
.step19 {transform: translateX(19456px);}
.step20 {transform: translateX(20480px);}
.step21 {transform: translateX(21504px);}
.step22 {transform: translateX(22528px);}
.step23 {transform: translateX(23552px);}
.step24 {transform: translateX(24576px);}
.step25 {transform: translateX(25600px);}
.step26 {transform: translateX(26624px);}
.step27 {transform: translateX(27648px);}
.step28 {transform: translateX(28672px);}
.step29 {transform: translateX(29696px);}
    </style>

    <path d="M 195 691 Q 216 672 237 648 Q 250 635 268 634 Q 278 635 285 649 Q 289 664 281 695 Q 277 713 249 725 Q 182 749 168 743 Q 162 739 164 726 Q 168 714 195 691 Z" fill="lightgray" class="stroke step9"/>
    <path d="M 116 494 Q 152 443 181 425 Q 196 421 207 433 Q 214 446 213 463 Q 209 488 193 503 Q 148 537 117 537 Q 110 538 106 536 Q 99 535 101 523 Q 101 510 116 494 Z" fill="lightgray" class="stroke step9"/>
    <path d="M 118 145 Q 108 141 111 124 Q 133 55 167 40 Q 174 34 184 38 Q 191 39 190 64 Q 191 118 252 345 Q 256 361 256 367 Q 255 376 246 369 Q 236 360 150 186 Q 141 167 118 145 Z" fill="lightgray" class="stroke step9"/>
    <path d="M 475 653 Q 509 666 547 678 Q 571 687 574 690 Q 581 699 576 706 Q 569 716 541 719 Q 531 719 478 702 L 431 683 Q 398 671 360 663 Q 327 653 353 641 Q 389 629 432 639 L 475 653 Z" fill="lightgray" class="stroke step9"/>
    <path d="M 319 542 Q 309 546 290 548 Q 280 549 276 545 Q 272 539 279 526 Q 307 472 325 385 Q 329 360 345 342 Q 361 323 366 337 L 368 351 L 367 379 Q 366 386 364 395 Q 345 486 340 514 C 336 537 336 537 319 542 Z" fill="lightgray" class="stroke step9"/>
    <path d="M 520 383 Q 535 361 549 354 Q 559 347 572 366 Q 584 385 609 496 Q 616 524 636 546 Q 646 556 637 569 Q 624 582 585 605 Q 569 611 515 594 Q 488 591 473 583 L 433 572 Q 415 568 399 563 Q 354 550 319 542 C 290 535 313 501 340 514 Q 346 521 432 543 L 473 553 Q 536 574 555 564 Q 567 555 563 539 Q 542 419 527 408 C 515 389 515 389 520 383 Z" fill="lightgray" class="stroke step9"/>
    <path d="M 472 471 Q 491 477 510 480 Q 532 486 522 497 Q 504 516 473 510 L 431 498 Q 428 498 426 496 Q 402 483 381 473 Q 365 467 386 456 Q 393 452 405 455 Q 417 459 430 461 L 472 471 Z" fill="lightgray" class="stroke step9"/>
    <path d="M 471 374 Q 493 380 520 383 C 550 387 552 391 527 408 Q 506 424 473 413 Q 472 413 471 412 L 428 397 Q 395 387 367 379 C 338 371 338 352 368 351 Q 375 350 385 353 Q 401 360 428 365 L 471 374 Z" fill="lightgray" class="stroke step9"/>
    <path d="M 470 271 Q 528 289 607 304 Q 623 307 623 314 Q 623 327 605 334 Q 580 343 558 337 Q 507 324 470 311 L 427 299 Q 310 272 266 265 Q 254 264 252 255 Q 249 245 264 235 Q 307 211 347 229 Q 389 247 424 257 L 470 271 Z" fill="lightgray" class="stroke step9"/>
    <path d="M 424 257 Q 418 193 402 132 Q 392 95 416 33 Q 423 17 431 13 Q 437 6 444 15 Q 451 19 461 39 Q 471 64 470 94 Q 469 122 470 271 L 470 311 Q 470 341 471 374 L 471 412 Q 471 440 472 471 L 473 510 Q 473 532 473 553 L 473 583 Q 474 610 475 653 L 478 702 Q 482 751 494 790 Q 503 805 499 818 Q 492 828 439 861 Q 415 877 395 862 Q 391 858 397 842 Q 430 793 431 743 Q 431 715 431 683 L 432 639 Q 432 606 433 572 L 432 543 Q 431 521 431 498 L 430 461 Q 429 430 428 397 L 428 365 Q 427 334 427 299 L 424 257 Z" fill="lightgray" class="stroke step9"/>
    <path d="M 725 570 Q 762 589 789 604 Q 865 652 889 658 Q 913 665 904 686 Q 891 705 866 723 Q 842 739 829 738 Q 816 738 818 724 Q 819 691 755 633 Q 733 612 708 589 C 686 569 698 556 725 570 Z" fill="lightgray" class="hide"/>
    <path d="M 719 474 Q 722 546 725 560 Q 726 566 725 570 C 726 581 726 581 708 589 Q 663 611 649 608 Q 630 604 646 583 Q 682 526 660 336 Q 651 291 631 237 Q 610 179 534 102 Q 521 89 518 83 Q 517 76 528 77 Q 567 80 626 147 Q 702 240 716 420 Q 716 436 718 452 L 719 474 Z" fill="lightgray" class="hide"/>
    <path d="M 844 453 Q 979 486 983 489 Q 992 496 987 505 Q 980 515 952 522 Q 925 528 850 501 Q 775 482 724 476 Q 721 476 719 474 C 690 466 691 464 718 452 Q 743 439 786 441 L 844 453 Z" fill="lightgray" class="hide"/>
    <path d="M 786 441 Q 799 422 806 355 Q 809 -42 823 -65 Q 823 -66 826 -69 Q 832 -76 839 -74 Q 855 -64 859 -7 Q 866 51 864 110 Q 861 159 864 352 Q 865 373 867 384 Q 870 402 872 416 Q 875 432 861 442 Q 851 449 844 453 C 819 469 773 468 786 441 Z" fill="lightgray" class="hide"/></g><g transform="scale(1, -1) translate(0, -900)">
    <style type="text/css">
        .origin {display:none;}
        .hide {display:none;}
        .stroke {fill: #000000;}
        
.step1 {transform: translateX(1024px);}
.step2 {transform: translateX(2048px);}
.step3 {transform: translateX(3072px);}
.step4 {transform: translateX(4096px);}
.step5 {transform: translateX(5120px);}
.step6 {transform: translateX(6144px);}
.step7 {transform: translateX(7168px);}
.step8 {transform: translateX(8192px);}
.step9 {transform: translateX(9216px);}
.step10 {transform: translateX(10240px);}
.step11 {transform: translateX(11264px);}
.step12 {transform: translateX(12288px);}
.step13 {transform: translateX(13312px);}
.step14 {transform: translateX(14336px);}
.step15 {transform: translateX(15360px);}
.step16 {transform: translateX(16384px);}
.step17 {transform: translateX(17408px);}
.step18 {transform: translateX(18432px);}
.step19 {transform: translateX(19456px);}
.step20 {transform: translateX(20480px);}
.step21 {transform: translateX(21504px);}
.step22 {transform: translateX(22528px);}
.step23 {transform: translateX(23552px);}
.step24 {transform: translateX(24576px);}
.step25 {transform: translateX(25600px);}
.step26 {transform: translateX(26624px);}
.step27 {transform: translateX(27648px);}
.step28 {transform: translateX(28672px);}
.step29 {transform: translateX(29696px);}
    </style>

    <path d="M 195 691 Q 216 672 237 648 Q 250 635 268 634 Q 278 635 285 649 Q 289 664 281 695 Q 277 713 249 725 Q 182 749 168 743 Q 162 739 164 726 Q 168 714 195 691 Z" fill="lightgray" class="stroke step10"/>
    <path d="M 116 494 Q 152 443 181 425 Q 196 421 207 433 Q 214 446 213 463 Q 209 488 193 503 Q 148 537 117 537 Q 110 538 106 536 Q 99 535 101 523 Q 101 510 116 494 Z" fill="lightgray" class="stroke step10"/>
    <path d="M 118 145 Q 108 141 111 124 Q 133 55 167 40 Q 174 34 184 38 Q 191 39 190 64 Q 191 118 252 345 Q 256 361 256 367 Q 255 376 246 369 Q 236 360 150 186 Q 141 167 118 145 Z" fill="lightgray" class="stroke step10"/>
    <path d="M 475 653 Q 509 666 547 678 Q 571 687 574 690 Q 581 699 576 706 Q 569 716 541 719 Q 531 719 478 702 L 431 683 Q 398 671 360 663 Q 327 653 353 641 Q 389 629 432 639 L 475 653 Z" fill="lightgray" class="stroke step10"/>
    <path d="M 319 542 Q 309 546 290 548 Q 280 549 276 545 Q 272 539 279 526 Q 307 472 325 385 Q 329 360 345 342 Q 361 323 366 337 L 368 351 L 367 379 Q 366 386 364 395 Q 345 486 340 514 C 336 537 336 537 319 542 Z" fill="lightgray" class="stroke step10"/>
    <path d="M 520 383 Q 535 361 549 354 Q 559 347 572 366 Q 584 385 609 496 Q 616 524 636 546 Q 646 556 637 569 Q 624 582 585 605 Q 569 611 515 594 Q 488 591 473 583 L 433 572 Q 415 568 399 563 Q 354 550 319 542 C 290 535 313 501 340 514 Q 346 521 432 543 L 473 553 Q 536 574 555 564 Q 567 555 563 539 Q 542 419 527 408 C 515 389 515 389 520 383 Z" fill="lightgray" class="stroke step10"/>
    <path d="M 472 471 Q 491 477 510 480 Q 532 486 522 497 Q 504 516 473 510 L 431 498 Q 428 498 426 496 Q 402 483 381 473 Q 365 467 386 456 Q 393 452 405 455 Q 417 459 430 461 L 472 471 Z" fill="lightgray" class="stroke step10"/>
    <path d="M 471 374 Q 493 380 520 383 C 550 387 552 391 527 408 Q 506 424 473 413 Q 472 413 471 412 L 428 397 Q 395 387 367 379 C 338 371 338 352 368 351 Q 375 350 385 353 Q 401 360 428 365 L 471 374 Z" fill="lightgray" class="stroke step10"/>
    <path d="M 470 271 Q 528 289 607 304 Q 623 307 623 314 Q 623 327 605 334 Q 580 343 558 337 Q 507 324 470 311 L 427 299 Q 310 272 266 265 Q 254 264 252 255 Q 249 245 264 235 Q 307 211 347 229 Q 389 247 424 257 L 470 271 Z" fill="lightgray" class="stroke step10"/>
    <path d="M 424 257 Q 418 193 402 132 Q 392 95 416 33 Q 423 17 431 13 Q 437 6 444 15 Q 451 19 461 39 Q 471 64 470 94 Q 469 122 470 271 L 470 311 Q 470 341 471 374 L 471 412 Q 471 440 472 471 L 473 510 Q 473 532 473 553 L 473 583 Q 474 610 475 653 L 478 702 Q 482 751 494 790 Q 503 805 499 818 Q 492 828 439 861 Q 415 877 395 862 Q 391 858 397 842 Q 430 793 431 743 Q 431 715 431 683 L 432 639 Q 432 606 433 572 L 432 543 Q 431 521 431 498 L 430 461 Q 429 430 428 397 L 428 365 Q 427 334 427 299 L 424 257 Z" fill="lightgray" class="stroke step10"/>
    <path d="M 725 570 Q 762 589 789 604 Q 865 652 889 658 Q 913 665 904 686 Q 891 705 866 723 Q 842 739 829 738 Q 816 738 818 724 Q 819 691 755 633 Q 733 612 708 589 C 686 569 698 556 725 570 Z" fill="lightgray" class="stroke step10"/>
    <path d="M 719 474 Q 722 546 725 560 Q 726 566 725 570 C 726 581 726 581 708 589 Q 663 611 649 608 Q 630 604 646 583 Q 682 526 660 336 Q 651 291 631 237 Q 610 179 534 102 Q 521 89 518 83 Q 517 76 528 77 Q 567 80 626 147 Q 702 240 716 420 Q 716 436 718 452 L 719 474 Z" fill="lightgray" class="hide"/>
    <path d="M 844 453 Q 979 486 983 489 Q 992 496 987 505 Q 980 515 952 522 Q 925 528 850 501 Q 775 482 724 476 Q 721 476 719 474 C 690 466 691 464 718 452 Q 743 439 786 441 L 844 453 Z" fill="lightgray" class="hide"/>
    <path d="M 786 441 Q 799 422 806 355 Q 809 -42 823 -65 Q 823 -66 826 -69 Q 832 -76 839 -74 Q 855 -64 859 -7 Q 866 51 864 110 Q 861 159 864 352 Q 865 373 867 384 Q 870 402 872 416 Q 875 432 861 442 Q 851 449 844 453 C 819 469 773 468 786 441 Z" fill="lightgray" class="hide"/></g><g transform="scale(1, -1) translate(0, -900)">
    <style type="text/css">
        .origin {display:none;}
        .hide {display:none;}
        .stroke {fill: #000000;}
        
.step1 {transform: translateX(1024px);}
.step2 {transform: translateX(2048px);}
.step3 {transform: translateX(3072px);}
.step4 {transform: translateX(4096px);}
.step5 {transform: translateX(5120px);}
.step6 {transform: translateX(6144px);}
.step7 {transform: translateX(7168px);}
.step8 {transform: translateX(8192px);}
.step9 {transform: translateX(9216px);}
.step10 {transform: translateX(10240px);}
.step11 {transform: translateX(11264px);}
.step12 {transform: translateX(12288px);}
.step13 {transform: translateX(13312px);}
.step14 {transform: translateX(14336px);}
.step15 {transform: translateX(15360px);}
.step16 {transform: translateX(16384px);}
.step17 {transform: translateX(17408px);}
.step18 {transform: translateX(18432px);}
.step19 {transform: translateX(19456px);}
.step20 {transform: translateX(20480px);}
.step21 {transform: translateX(21504px);}
.step22 {transform: translateX(22528px);}
.step23 {transform: translateX(23552px);}
.step24 {transform: translateX(24576px);}
.step25 {transform: translateX(25600px);}
.step26 {transform: translateX(26624px);}
.step27 {transform: translateX(27648px);}
.step28 {transform: translateX(28672px);}
.step29 {transform: translateX(29696px);}
    </style>

    <path d="M 195 691 Q 216 672 237 648 Q 250 635 268 634 Q 278 635 285 649 Q 289 664 281 695 Q 277 713 249 725 Q 182 749 168 743 Q 162 739 164 726 Q 168 714 195 691 Z" fill="lightgray" class="stroke step11"/>
    <path d="M 116 494 Q 152 443 181 425 Q 196 421 207 433 Q 214 446 213 463 Q 209 488 193 503 Q 148 537 117 537 Q 110 538 106 536 Q 99 535 101 523 Q 101 510 116 494 Z" fill="lightgray" class="stroke step11"/>
    <path d="M 118 145 Q 108 141 111 124 Q 133 55 167 40 Q 174 34 184 38 Q 191 39 190 64 Q 191 118 252 345 Q 256 361 256 367 Q 255 376 246 369 Q 236 360 150 186 Q 141 167 118 145 Z" fill="lightgray" class="stroke step11"/>
    <path d="M 475 653 Q 509 666 547 678 Q 571 687 574 690 Q 581 699 576 706 Q 569 716 541 719 Q 531 719 478 702 L 431 683 Q 398 671 360 663 Q 327 653 353 641 Q 389 629 432 639 L 475 653 Z" fill="lightgray" class="stroke step11"/>
    <path d="M 319 542 Q 309 546 290 548 Q 280 549 276 545 Q 272 539 279 526 Q 307 472 325 385 Q 329 360 345 342 Q 361 323 366 337 L 368 351 L 367 379 Q 366 386 364 395 Q 345 486 340 514 C 336 537 336 537 319 542 Z" fill="lightgray" class="stroke step11"/>
    <path d="M 520 383 Q 535 361 549 354 Q 559 347 572 366 Q 584 385 609 496 Q 616 524 636 546 Q 646 556 637 569 Q 624 582 585 605 Q 569 611 515 594 Q 488 591 473 583 L 433 572 Q 415 568 399 563 Q 354 550 319 542 C 290 535 313 501 340 514 Q 346 521 432 543 L 473 553 Q 536 574 555 564 Q 567 555 563 539 Q 542 419 527 408 C 515 389 515 389 520 383 Z" fill="lightgray" class="stroke step11"/>
    <path d="M 472 471 Q 491 477 510 480 Q 532 486 522 497 Q 504 516 473 510 L 431 498 Q 428 498 426 496 Q 402 483 381 473 Q 365 467 386 456 Q 393 452 405 455 Q 417 459 430 461 L 472 471 Z" fill="lightgray" class="stroke step11"/>
    <path d="M 471 374 Q 493 380 520 383 C 550 387 552 391 527 408 Q 506 424 473 413 Q 472 413 471 412 L 428 397 Q 395 387 367 379 C 338 371 338 352 368 351 Q 375 350 385 353 Q 401 360 428 365 L 471 374 Z" fill="lightgray" class="stroke step11"/>
    <path d="M 470 271 Q 528 289 607 304 Q 623 307 623 314 Q 623 327 605 334 Q 580 343 558 337 Q 507 324 470 311 L 427 299 Q 310 272 266 265 Q 254 264 252 255 Q 249 245 264 235 Q 307 211 347 229 Q 389 247 424 257 L 470 271 Z" fill="lightgray" class="stroke step11"/>
    <path d="M 424 257 Q 418 193 402 132 Q 392 95 416 33 Q 423 17 431 13 Q 437 6 444 15 Q 451 19 461 39 Q 471 64 470 94 Q 469 122 470 271 L 470 311 Q 470 341 471 374 L 471 412 Q 471 440 472 471 L 473 510 Q 473 532 473 553 L 473 583 Q 474 610 475 653 L 478 702 Q 482 751 494 790 Q 503 805 499 818 Q 492 828 439 861 Q 415 877 395 862 Q 391 858 397 842 Q 430 793 431 743 Q 431 715 431 683 L 432 639 Q 432 606 433 572 L 432 543 Q 431 521 431 498 L 430 461 Q 429 430 428 397 L 428 365 Q 427 334 427 299 L 424 257 Z" fill="lightgray" class="stroke step11"/>
    <path d="M 725 570 Q 762 589 789 604 Q 865 652 889 658 Q 913 665 904 686 Q 891 705 866 723 Q 842 739 829 738 Q 816 738 818 724 Q 819 691 755 633 Q 733 612 708 589 C 686 569 698 556 725 570 Z" fill="lightgray" class="stroke step11"/>
    <path d="M 719 474 Q 722 546 725 560 Q 726 566 725 570 C 726 581 726 581 708 589 Q 663 611 649 608 Q 630 604 646 583 Q 682 526 660 336 Q 651 291 631 237 Q 610 179 534 102 Q 521 89 518 83 Q 517 76 528 77 Q 567 80 626 147 Q 702 240 716 420 Q 716 436 718 452 L 719 474 Z" fill="lightgray" class="stroke step11"/>
    <path d="M 844 453 Q 979 486 983 489 Q 992 496 987 505 Q 980 515 952 522 Q 925 528 850 501 Q 775 482 724 476 Q 721 476 719 474 C 690 466 691 464 718 452 Q 743 439 786 441 L 844 453 Z" fill="lightgray" class="hide"/>
    <path d="M 786 441 Q 799 422 806 355 Q 809 -42 823 -65 Q 823 -66 826 -69 Q 832 -76 839 -74 Q 855 -64 859 -7 Q 866 51 864 110 Q 861 159 864 352 Q 865 373 867 384 Q 870 402 872 416 Q 875 432 861 442 Q 851 449 844 453 C 819 469 773 468 786 441 Z" fill="lightgray" class="hide"/></g><g transform="scale(1, -1) translate(0, -900)">
    <style type="text/css">
        .origin {display:none;}
        .hide {display:none;}
        .stroke {fill: #000000;}
        
.step1 {transform: translateX(1024px);}
.step2 {transform: translateX(2048px);}
.step3 {transform: translateX(3072px);}
.step4 {transform: translateX(4096px);}
.step5 {transform: translateX(5120px);}
.step6 {transform: translateX(6144px);}
.step7 {transform: translateX(7168px);}
.step8 {transform: translateX(8192px);}
.step9 {transform: translateX(9216px);}
.step10 {transform: translateX(10240px);}
.step11 {transform: translateX(11264px);}
.step12 {transform: translateX(12288px);}
.step13 {transform: translateX(13312px);}
.step14 {transform: translateX(14336px);}
.step15 {transform: translateX(15360px);}
.step16 {transform: translateX(16384px);}
.step17 {transform: translateX(17408px);}
.step18 {transform: translateX(18432px);}
.step19 {transform: translateX(19456px);}
.step20 {transform: translateX(20480px);}
.step21 {transform: translateX(21504px);}
.step22 {transform: translateX(22528px);}
.step23 {transform: translateX(23552px);}
.step24 {transform: translateX(24576px);}
.step25 {transform: translateX(25600px);}
.step26 {transform: translateX(26624px);}
.step27 {transform: translateX(27648px);}
.step28 {transform: translateX(28672px);}
.step29 {transform: translateX(29696px);}
    </style>

    <path d="M 195 691 Q 216 672 237 648 Q 250 635 268 634 Q 278 635 285 649 Q 289 664 281 695 Q 277 713 249 725 Q 182 749 168 743 Q 162 739 164 726 Q 168 714 195 691 Z" fill="lightgray" class="stroke step12"/>
    <path d="M 116 494 Q 152 443 181 425 Q 196 421 207 433 Q 214 446 213 463 Q 209 488 193 503 Q 148 537 117 537 Q 110 538 106 536 Q 99 535 101 523 Q 101 510 116 494 Z" fill="lightgray" class="stroke step12"/>
    <path d="M 118 145 Q 108 141 111 124 Q 133 55 167 40 Q 174 34 184 38 Q 191 39 190 64 Q 191 118 252 345 Q 256 361 256 367 Q 255 376 246 369 Q 236 360 150 186 Q 141 167 118 145 Z" fill="lightgray" class="stroke step12"/>
    <path d="M 475 653 Q 509 666 547 678 Q 571 687 574 690 Q 581 699 576 706 Q 569 716 541 719 Q 531 719 478 702 L 431 683 Q 398 671 360 663 Q 327 653 353 641 Q 389 629 432 639 L 475 653 Z" fill="lightgray" class="stroke step12"/>
    <path d="M 319 542 Q 309 546 290 548 Q 280 549 276 545 Q 272 539 279 526 Q 307 472 325 385 Q 329 360 345 342 Q 361 323 366 337 L 368 351 L 367 379 Q 366 386 364 395 Q 345 486 340 514 C 336 537 336 537 319 542 Z" fill="lightgray" class="stroke step12"/>
    <path d="M 520 383 Q 535 361 549 354 Q 559 347 572 366 Q 584 385 609 496 Q 616 524 636 546 Q 646 556 637 569 Q 624 582 585 605 Q 569 611 515 594 Q 488 591 473 583 L 433 572 Q 415 568 399 563 Q 354 550 319 542 C 290 535 313 501 340 514 Q 346 521 432 543 L 473 553 Q 536 574 555 564 Q 567 555 563 539 Q 542 419 527 408 C 515 389 515 389 520 383 Z" fill="lightgray" class="stroke step12"/>
    <path d="M 472 471 Q 491 477 510 480 Q 532 486 522 497 Q 504 516 473 510 L 431 498 Q 428 498 426 496 Q 402 483 381 473 Q 365 467 386 456 Q 393 452 405 455 Q 417 459 430 461 L 472 471 Z" fill="lightgray" class="stroke step12"/>
    <path d="M 471 374 Q 493 380 520 383 C 550 387 552 391 527 408 Q 506 424 473 413 Q 472 413 471 412 L 428 397 Q 395 387 367 379 C 338 371 338 352 368 351 Q 375 350 385 353 Q 401 360 428 365 L 471 374 Z" fill="lightgray" class="stroke step12"/>
    <path d="M 470 271 Q 528 289 607 304 Q 623 307 623 314 Q 623 327 605 334 Q 580 343 558 337 Q 507 324 470 311 L 427 299 Q 310 272 266 265 Q 254 264 252 255 Q 249 245 264 235 Q 307 211 347 229 Q 389 247 424 257 L 470 271 Z" fill="lightgray" class="stroke step12"/>
    <path d="M 424 257 Q 418 193 402 132 Q 392 95 416 33 Q 423 17 431 13 Q 437 6 444 15 Q 451 19 461 39 Q 471 64 470 94 Q 469 122 470 271 L 470 311 Q 470 341 471 374 L 471 412 Q 471 440 472 471 L 473 510 Q 473 532 473 553 L 473 583 Q 474 610 475 653 L 478 702 Q 482 751 494 790 Q 503 805 499 818 Q 492 828 439 861 Q 415 877 395 862 Q 391 858 397 842 Q 430 793 431 743 Q 431 715 431 683 L 432 639 Q 432 606 433 572 L 432 543 Q 431 521 431 498 L 430 461 Q 429 430 428 397 L 428 365 Q 427 334 427 299 L 424 257 Z" fill="lightgray" class="stroke step12"/>
    <path d="M 725 570 Q 762 589 789 604 Q 865 652 889 658 Q 913 665 904 686 Q 891 705 866 723 Q 842 739 829 738 Q 816 738 818 724 Q 819 691 755 633 Q 733 612 708 589 C 686 569 698 556 725 570 Z" fill="lightgray" class="stroke step12"/>
    <path d="M 719 474 Q 722 546 725 560 Q 726 566 725 570 C 726 581 726 581 708 589 Q 663 611 649 608 Q 630 604 646 583 Q 682 526 660 336 Q 651 291 631 237 Q 610 179 534 102 Q 521 89 518 83 Q 517 76 528 77 Q 567 80 626 147 Q 702 240 716 420 Q 716 436 718 452 L 719 474 Z" fill="lightgray" class="stroke step12"/>
    <path d="M 844 453 Q 979 486 983 489 Q 992 496 987 505 Q 980 515 952 522 Q 925 528 850 501 Q 775 482 724 476 Q 721 476 719 474 C 690 466 691 464 718 452 Q 743 439 786 441 L 844 453 Z" fill="lightgray" class="stroke step12"/>
    <path d="M 786 441 Q 799 422 806 355 Q 809 -42 823 -65 Q 823 -66 826 -69 Q 832 -76 839 -74 Q 855 -64 859 -7 Q 866 51 864 110 Q 861 159 864 352 Q 865 373 867 384 Q 870 402 872 416 Q 875 432 861 442 Q 851 449 844 453 C 819 469 773 468 786 441 Z" fill="lightgray" class="hide"/></g><g transform="scale(1, -1) translate(0, -900)">
    <style type="text/css">
        .origin {display:none;}
        .hide {display:none;}
        .stroke {fill: #000000;}
        
.step1 {transform: translateX(1024px);}
.step2 {transform: translateX(2048px);}
.step3 {transform: translateX(3072px);}
.step4 {transform: translateX(4096px);}
.step5 {transform: translateX(5120px);}
.step6 {transform: translateX(6144px);}
.step7 {transform: translateX(7168px);}
.step8 {transform: translateX(8192px);}
.step9 {transform: translateX(9216px);}
.step10 {transform: translateX(10240px);}
.step11 {transform: translateX(11264px);}
.step12 {transform: translateX(12288px);}
.step13 {transform: translateX(13312px);}
.step14 {transform: translateX(14336px);}
.step15 {transform: translateX(15360px);}
.step16 {transform: translateX(16384px);}
.step17 {transform: translateX(17408px);}
.step18 {transform: translateX(18432px);}
.step19 {transform: translateX(19456px);}
.step20 {transform: translateX(20480px);}
.step21 {transform: translateX(21504px);}
.step22 {transform: translateX(22528px);}
.step23 {transform: translateX(23552px);}
.step24 {transform: translateX(24576px);}
.step25 {transform: translateX(25600px);}
.step26 {transform: translateX(26624px);}
.step27 {transform: translateX(27648px);}
.step28 {transform: translateX(28672px);}
.step29 {transform: translateX(29696px);}
    </style>

    <path d="M 195 691 Q 216 672 237 648 Q 250 635 268 634 Q 278 635 285 649 Q 289 664 281 695 Q 277 713 249 725 Q 182 749 168 743 Q 162 739 164 726 Q 168 714 195 691 Z" fill="lightgray" class="stroke step13"/>
    <path d="M 116 494 Q 152 443 181 425 Q 196 421 207 433 Q 214 446 213 463 Q 209 488 193 503 Q 148 537 117 537 Q 110 538 106 536 Q 99 535 101 523 Q 101 510 116 494 Z" fill="lightgray" class="stroke step13"/>
    <path d="M 118 145 Q 108 141 111 124 Q 133 55 167 40 Q 174 34 184 38 Q 191 39 190 64 Q 191 118 252 345 Q 256 361 256 367 Q 255 376 246 369 Q 236 360 150 186 Q 141 167 118 145 Z" fill="lightgray" class="stroke step13"/>
    <path d="M 475 653 Q 509 666 547 678 Q 571 687 574 690 Q 581 699 576 706 Q 569 716 541 719 Q 531 719 478 702 L 431 683 Q 398 671 360 663 Q 327 653 353 641 Q 389 629 432 639 L 475 653 Z" fill="lightgray" class="stroke step13"/>
    <path d="M 319 542 Q 309 546 290 548 Q 280 549 276 545 Q 272 539 279 526 Q 307 472 325 385 Q 329 360 345 342 Q 361 323 366 337 L 368 351 L 367 379 Q 366 386 364 395 Q 345 486 340 514 C 336 537 336 537 319 542 Z" fill="lightgray" class="stroke step13"/>
    <path d="M 520 383 Q 535 361 549 354 Q 559 347 572 366 Q 584 385 609 496 Q 616 524 636 546 Q 646 556 637 569 Q 624 582 585 605 Q 569 611 515 594 Q 488 591 473 583 L 433 572 Q 415 568 399 563 Q 354 550 319 542 C 290 535 313 501 340 514 Q 346 521 432 543 L 473 553 Q 536 574 555 564 Q 567 555 563 539 Q 542 419 527 408 C 515 389 515 389 520 383 Z" fill="lightgray" class="stroke step13"/>
    <path d="M 472 471 Q 491 477 510 480 Q 532 486 522 497 Q 504 516 473 510 L 431 498 Q 428 498 426 496 Q 402 483 381 473 Q 365 467 386 456 Q 393 452 405 455 Q 417 459 430 461 L 472 471 Z" fill="lightgray" class="stroke step13"/>
    <path d="M 471 374 Q 493 380 520 383 C 550 387 552 391 527 408 Q 506 424 473 413 Q 472 413 471 412 L 428 397 Q 395 387 367 379 C 338 371 338 352 368 351 Q 375 350 385 353 Q 401 360 428 365 L 471 374 Z" fill="lightgray" class="stroke step13"/>
    <path d="M 470 271 Q 528 289 607 304 Q 623 307 623 314 Q 623 327 605 334 Q 580 343 558 337 Q 507 324 470 311 L 427 299 Q 310 272 266 265 Q 254 264 252 255 Q 249 245 264 235 Q 307 211 347 229 Q 389 247 424 257 L 470 271 Z" fill="lightgray" class="stroke step13"/>
    <path d="M 424 257 Q 418 193 402 132 Q 392 95 416 33 Q 423 17 431 13 Q 437 6 444 15 Q 451 19 461 39 Q 471 64 470 94 Q 469 122 470 271 L 470 311 Q 470 341 471 374 L 471 412 Q 471 440 472 471 L 473 510 Q 473 532 473 553 L 473 583 Q 474 610 475 653 L 478 702 Q 482 751 494 790 Q 503 805 499 818 Q 492 828 439 861 Q 415 877 395 862 Q 391 858 397 842 Q 430 793 431 743 Q 431 715 431 683 L 432 639 Q 432 606 433 572 L 432 543 Q 431 521 431 498 L 430 461 Q 429 430 428 397 L 428 365 Q 427 334 427 299 L 424 257 Z" fill="lightgray" class="stroke step13"/>
    <path d="M 725 570 Q 762 589 789 604 Q 865 652 889 658 Q 913 665 904 686 Q 891 705 866 723 Q 842 739 829 738 Q 816 738 818 724 Q 819 691 755 633 Q 733 612 708 589 C 686 569 698 556 725 570 Z" fill="lightgray" class="stroke step13"/>
    <path d="M 719 474 Q 722 546 725 560 Q 726 566 725 570 C 726 581 726 581 708 589 Q 663 611 649 608 Q 630 604 646 583 Q 682 526 660 336 Q 651 291 631 237 Q 610 179 534 102 Q 521 89 518 83 Q 517 76 528 77 Q 567 80 626 147 Q 702 240 716 420 Q 716 436 718 452 L 719 474 Z" fill="lightgray" class="stroke step13"/>
    <path d="M 844 453 Q 979 486 983 489 Q 992 496 987 505 Q 980 515 952 522 Q 925 528 850 501 Q 775 482 724 476 Q 721 476 719 474 C 690 466 691 464 718 452 Q 743 439 786 441 L 844 453 Z" fill="lightgray" class="stroke step13"/>
    <path d="M 786 441 Q 799 422 806 355 Q 809 -42 823 -65 Q 823 -66 826 -69 Q 832 -76 839 -74 Q 855 -64 859 -7 Q 866 51 864 110 Q 861 159 864 352 Q 865 373 867 384 Q 870 402 872 416 Q 875 432 861 442 Q 851 449 844 453 C 819 469 773 468 786 441 Z" fill="lightgray" class="stroke step13"/></g></svg>