<svg version="1.1" viewBox="0 0 8192 1024" xmlns="http://www.w3.org/2000/svg">
  
  <g transform="scale(1, -1) translate(0, -900)" class="origin">
    <style type="text/css">
        .origin {display:none;}
        .hide {display:none;}
        .stroke {fill: #000000;}
        
.step1 {transform: translateX(1024px);}
.step2 {transform: translateX(2048px);}
.step3 {transform: translateX(3072px);}
.step4 {transform: translateX(4096px);}
.step5 {transform: translateX(5120px);}
.step6 {transform: translateX(6144px);}
.step7 {transform: translateX(7168px);}
.step8 {transform: translateX(8192px);}
.step9 {transform: translateX(9216px);}
.step10 {transform: translateX(10240px);}
.step11 {transform: translateX(11264px);}
.step12 {transform: translateX(12288px);}
.step13 {transform: translateX(13312px);}
.step14 {transform: translateX(14336px);}
.step15 {transform: translateX(15360px);}
.step16 {transform: translateX(16384px);}
.step17 {transform: translateX(17408px);}
.step18 {transform: translateX(18432px);}
.step19 {transform: translateX(19456px);}
.step20 {transform: translateX(20480px);}
.step21 {transform: translateX(21504px);}
.step22 {transform: translateX(22528px);}
.step23 {transform: translateX(23552px);}
.step24 {transform: translateX(24576px);}
.step25 {transform: translateX(25600px);}
.step26 {transform: translateX(26624px);}
.step27 {transform: translateX(27648px);}
.step28 {transform: translateX(28672px);}
.step29 {transform: translateX(29696px);}
    </style>

    <path d="M 156 545 Q 146 487 127 430 Q 115 393 141 362 Q 154 346 172 364 Q 190 386 196 422 Q 203 462 197 493 Q 194 527 180 551 Q 173 558 167 558 Q 158 554 156 545 Z" fill="lightgray"/>
    <path d="M 315 494 Q 366 515 419 540 Q 438 552 462 557 Q 481 563 475 580 Q 466 598 445 614 Q 426 630 414 630 Q 402 630 404 618 Q 404 597 329 530 Q 323 526 317 519 C 297 497 287 483 315 494 Z" fill="lightgray"/>
    <path d="M 300 303 Q 309 373 315 494 L 317 519 Q 318 642 344 706 Q 351 721 339 732 Q 317 751 275 763 Q 250 769 240 762 Q 230 755 238 742 Q 299 649 252 309 Q 228 186 150 104 Q 126 83 99 60 Q 87 51 88 47 Q 89 43 101 44 Q 114 40 146 56 Q 254 102 290 251 Q 293 264 295 278 L 300 303 Z" fill="lightgray"/>
    <path d="M 295 278 Q 302 269 318 254 Q 349 223 382 187 Q 394 174 409 173 Q 419 173 425 185 Q 431 198 425 228 Q 418 264 317 300 Q 307 304 300 303 C 274 303 276 301 295 278 Z" fill="lightgray"/>
    <path d="M 556 542 Q 592 602 628 687 Q 644 729 660 751 Q 667 763 661 776 Q 654 788 622 806 Q 592 819 573 817 Q 554 811 567 791 Q 612 724 450 432 Q 441 420 440 414 Q 439 402 452 407 Q 479 417 541 518 L 556 542 Z" fill="lightgray"/>
    <path d="M 541 518 Q 560 502 581 510 Q 645 535 717 551 Q 754 561 767 558 Q 777 545 770 538 Q 770 535 739 468 Q 732 458 737 453 Q 741 447 752 459 Q 843 523 883 538 Q 892 539 893 548 Q 893 561 865 574 Q 795 611 781 604 Q 696 568 556 542 C 527 536 516 534 541 518 Z" fill="lightgray"/>
    <path d="M 612 323 Q 627 398 639 417 Q 649 436 632 446 Q 581 483 556 474 Q 543 470 549 454 Q 579 394 538 259 Q 502 148 391 74 Q 379 65 368 56 Q 355 47 367 44 Q 427 44 498 108 Q 577 172 604 288 L 612 323 Z" fill="lightgray"/>
    <path d="M 604 288 Q 674 170 765 43 Q 783 22 813 21 Q 919 18 953 22 Q 963 23 964 29 Q 965 33 952 43 Q 805 110 724 197 Q 670 251 612 323 C 593 346 589 314 604 288 Z" fill="lightgray"/></g>
<g transform="scale(1, -1) translate(0, -900)">
    <style type="text/css">
        .origin {display:none;}
        .hide {display:none;}
        .stroke {fill: #000000;}
        
.step1 {transform: translateX(1024px);}
.step2 {transform: translateX(2048px);}
.step3 {transform: translateX(3072px);}
.step4 {transform: translateX(4096px);}
.step5 {transform: translateX(5120px);}
.step6 {transform: translateX(6144px);}
.step7 {transform: translateX(7168px);}
.step8 {transform: translateX(8192px);}
.step9 {transform: translateX(9216px);}
.step10 {transform: translateX(10240px);}
.step11 {transform: translateX(11264px);}
.step12 {transform: translateX(12288px);}
.step13 {transform: translateX(13312px);}
.step14 {transform: translateX(14336px);}
.step15 {transform: translateX(15360px);}
.step16 {transform: translateX(16384px);}
.step17 {transform: translateX(17408px);}
.step18 {transform: translateX(18432px);}
.step19 {transform: translateX(19456px);}
.step20 {transform: translateX(20480px);}
.step21 {transform: translateX(21504px);}
.step22 {transform: translateX(22528px);}
.step23 {transform: translateX(23552px);}
.step24 {transform: translateX(24576px);}
.step25 {transform: translateX(25600px);}
.step26 {transform: translateX(26624px);}
.step27 {transform: translateX(27648px);}
.step28 {transform: translateX(28672px);}
.step29 {transform: translateX(29696px);}
    </style>

    <path d="M 156 545 Q 146 487 127 430 Q 115 393 141 362 Q 154 346 172 364 Q 190 386 196 422 Q 203 462 197 493 Q 194 527 180 551 Q 173 558 167 558 Q 158 554 156 545 Z" fill="lightgray" class="stroke step0"/>
    <path d="M 315 494 Q 366 515 419 540 Q 438 552 462 557 Q 481 563 475 580 Q 466 598 445 614 Q 426 630 414 630 Q 402 630 404 618 Q 404 597 329 530 Q 323 526 317 519 C 297 497 287 483 315 494 Z" fill="lightgray" class="hide"/>
    <path d="M 300 303 Q 309 373 315 494 L 317 519 Q 318 642 344 706 Q 351 721 339 732 Q 317 751 275 763 Q 250 769 240 762 Q 230 755 238 742 Q 299 649 252 309 Q 228 186 150 104 Q 126 83 99 60 Q 87 51 88 47 Q 89 43 101 44 Q 114 40 146 56 Q 254 102 290 251 Q 293 264 295 278 L 300 303 Z" fill="lightgray" class="hide"/>
    <path d="M 295 278 Q 302 269 318 254 Q 349 223 382 187 Q 394 174 409 173 Q 419 173 425 185 Q 431 198 425 228 Q 418 264 317 300 Q 307 304 300 303 C 274 303 276 301 295 278 Z" fill="lightgray" class="hide"/>
    <path d="M 556 542 Q 592 602 628 687 Q 644 729 660 751 Q 667 763 661 776 Q 654 788 622 806 Q 592 819 573 817 Q 554 811 567 791 Q 612 724 450 432 Q 441 420 440 414 Q 439 402 452 407 Q 479 417 541 518 L 556 542 Z" fill="lightgray" class="hide"/>
    <path d="M 541 518 Q 560 502 581 510 Q 645 535 717 551 Q 754 561 767 558 Q 777 545 770 538 Q 770 535 739 468 Q 732 458 737 453 Q 741 447 752 459 Q 843 523 883 538 Q 892 539 893 548 Q 893 561 865 574 Q 795 611 781 604 Q 696 568 556 542 C 527 536 516 534 541 518 Z" fill="lightgray" class="hide"/>
    <path d="M 612 323 Q 627 398 639 417 Q 649 436 632 446 Q 581 483 556 474 Q 543 470 549 454 Q 579 394 538 259 Q 502 148 391 74 Q 379 65 368 56 Q 355 47 367 44 Q 427 44 498 108 Q 577 172 604 288 L 612 323 Z" fill="lightgray" class="hide"/>
    <path d="M 604 288 Q 674 170 765 43 Q 783 22 813 21 Q 919 18 953 22 Q 963 23 964 29 Q 965 33 952 43 Q 805 110 724 197 Q 670 251 612 323 C 593 346 589 314 604 288 Z" fill="lightgray" class="hide"/></g><g transform="scale(1, -1) translate(0, -900)">
    <style type="text/css">
        .origin {display:none;}
        .hide {display:none;}
        .stroke {fill: #000000;}
        
.step1 {transform: translateX(1024px);}
.step2 {transform: translateX(2048px);}
.step3 {transform: translateX(3072px);}
.step4 {transform: translateX(4096px);}
.step5 {transform: translateX(5120px);}
.step6 {transform: translateX(6144px);}
.step7 {transform: translateX(7168px);}
.step8 {transform: translateX(8192px);}
.step9 {transform: translateX(9216px);}
.step10 {transform: translateX(10240px);}
.step11 {transform: translateX(11264px);}
.step12 {transform: translateX(12288px);}
.step13 {transform: translateX(13312px);}
.step14 {transform: translateX(14336px);}
.step15 {transform: translateX(15360px);}
.step16 {transform: translateX(16384px);}
.step17 {transform: translateX(17408px);}
.step18 {transform: translateX(18432px);}
.step19 {transform: translateX(19456px);}
.step20 {transform: translateX(20480px);}
.step21 {transform: translateX(21504px);}
.step22 {transform: translateX(22528px);}
.step23 {transform: translateX(23552px);}
.step24 {transform: translateX(24576px);}
.step25 {transform: translateX(25600px);}
.step26 {transform: translateX(26624px);}
.step27 {transform: translateX(27648px);}
.step28 {transform: translateX(28672px);}
.step29 {transform: translateX(29696px);}
    </style>

    <path d="M 156 545 Q 146 487 127 430 Q 115 393 141 362 Q 154 346 172 364 Q 190 386 196 422 Q 203 462 197 493 Q 194 527 180 551 Q 173 558 167 558 Q 158 554 156 545 Z" fill="lightgray" class="stroke step1"/>
    <path d="M 315 494 Q 366 515 419 540 Q 438 552 462 557 Q 481 563 475 580 Q 466 598 445 614 Q 426 630 414 630 Q 402 630 404 618 Q 404 597 329 530 Q 323 526 317 519 C 297 497 287 483 315 494 Z" fill="lightgray" class="stroke step1"/>
    <path d="M 300 303 Q 309 373 315 494 L 317 519 Q 318 642 344 706 Q 351 721 339 732 Q 317 751 275 763 Q 250 769 240 762 Q 230 755 238 742 Q 299 649 252 309 Q 228 186 150 104 Q 126 83 99 60 Q 87 51 88 47 Q 89 43 101 44 Q 114 40 146 56 Q 254 102 290 251 Q 293 264 295 278 L 300 303 Z" fill="lightgray" class="hide"/>
    <path d="M 295 278 Q 302 269 318 254 Q 349 223 382 187 Q 394 174 409 173 Q 419 173 425 185 Q 431 198 425 228 Q 418 264 317 300 Q 307 304 300 303 C 274 303 276 301 295 278 Z" fill="lightgray" class="hide"/>
    <path d="M 556 542 Q 592 602 628 687 Q 644 729 660 751 Q 667 763 661 776 Q 654 788 622 806 Q 592 819 573 817 Q 554 811 567 791 Q 612 724 450 432 Q 441 420 440 414 Q 439 402 452 407 Q 479 417 541 518 L 556 542 Z" fill="lightgray" class="hide"/>
    <path d="M 541 518 Q 560 502 581 510 Q 645 535 717 551 Q 754 561 767 558 Q 777 545 770 538 Q 770 535 739 468 Q 732 458 737 453 Q 741 447 752 459 Q 843 523 883 538 Q 892 539 893 548 Q 893 561 865 574 Q 795 611 781 604 Q 696 568 556 542 C 527 536 516 534 541 518 Z" fill="lightgray" class="hide"/>
    <path d="M 612 323 Q 627 398 639 417 Q 649 436 632 446 Q 581 483 556 474 Q 543 470 549 454 Q 579 394 538 259 Q 502 148 391 74 Q 379 65 368 56 Q 355 47 367 44 Q 427 44 498 108 Q 577 172 604 288 L 612 323 Z" fill="lightgray" class="hide"/>
    <path d="M 604 288 Q 674 170 765 43 Q 783 22 813 21 Q 919 18 953 22 Q 963 23 964 29 Q 965 33 952 43 Q 805 110 724 197 Q 670 251 612 323 C 593 346 589 314 604 288 Z" fill="lightgray" class="hide"/></g><g transform="scale(1, -1) translate(0, -900)">
    <style type="text/css">
        .origin {display:none;}
        .hide {display:none;}
        .stroke {fill: #000000;}
        
.step1 {transform: translateX(1024px);}
.step2 {transform: translateX(2048px);}
.step3 {transform: translateX(3072px);}
.step4 {transform: translateX(4096px);}
.step5 {transform: translateX(5120px);}
.step6 {transform: translateX(6144px);}
.step7 {transform: translateX(7168px);}
.step8 {transform: translateX(8192px);}
.step9 {transform: translateX(9216px);}
.step10 {transform: translateX(10240px);}
.step11 {transform: translateX(11264px);}
.step12 {transform: translateX(12288px);}
.step13 {transform: translateX(13312px);}
.step14 {transform: translateX(14336px);}
.step15 {transform: translateX(15360px);}
.step16 {transform: translateX(16384px);}
.step17 {transform: translateX(17408px);}
.step18 {transform: translateX(18432px);}
.step19 {transform: translateX(19456px);}
.step20 {transform: translateX(20480px);}
.step21 {transform: translateX(21504px);}
.step22 {transform: translateX(22528px);}
.step23 {transform: translateX(23552px);}
.step24 {transform: translateX(24576px);}
.step25 {transform: translateX(25600px);}
.step26 {transform: translateX(26624px);}
.step27 {transform: translateX(27648px);}
.step28 {transform: translateX(28672px);}
.step29 {transform: translateX(29696px);}
    </style>

    <path d="M 156 545 Q 146 487 127 430 Q 115 393 141 362 Q 154 346 172 364 Q 190 386 196 422 Q 203 462 197 493 Q 194 527 180 551 Q 173 558 167 558 Q 158 554 156 545 Z" fill="lightgray" class="stroke step2"/>
    <path d="M 315 494 Q 366 515 419 540 Q 438 552 462 557 Q 481 563 475 580 Q 466 598 445 614 Q 426 630 414 630 Q 402 630 404 618 Q 404 597 329 530 Q 323 526 317 519 C 297 497 287 483 315 494 Z" fill="lightgray" class="stroke step2"/>
    <path d="M 300 303 Q 309 373 315 494 L 317 519 Q 318 642 344 706 Q 351 721 339 732 Q 317 751 275 763 Q 250 769 240 762 Q 230 755 238 742 Q 299 649 252 309 Q 228 186 150 104 Q 126 83 99 60 Q 87 51 88 47 Q 89 43 101 44 Q 114 40 146 56 Q 254 102 290 251 Q 293 264 295 278 L 300 303 Z" fill="lightgray" class="stroke step2"/>
    <path d="M 295 278 Q 302 269 318 254 Q 349 223 382 187 Q 394 174 409 173 Q 419 173 425 185 Q 431 198 425 228 Q 418 264 317 300 Q 307 304 300 303 C 274 303 276 301 295 278 Z" fill="lightgray" class="hide"/>
    <path d="M 556 542 Q 592 602 628 687 Q 644 729 660 751 Q 667 763 661 776 Q 654 788 622 806 Q 592 819 573 817 Q 554 811 567 791 Q 612 724 450 432 Q 441 420 440 414 Q 439 402 452 407 Q 479 417 541 518 L 556 542 Z" fill="lightgray" class="hide"/>
    <path d="M 541 518 Q 560 502 581 510 Q 645 535 717 551 Q 754 561 767 558 Q 777 545 770 538 Q 770 535 739 468 Q 732 458 737 453 Q 741 447 752 459 Q 843 523 883 538 Q 892 539 893 548 Q 893 561 865 574 Q 795 611 781 604 Q 696 568 556 542 C 527 536 516 534 541 518 Z" fill="lightgray" class="hide"/>
    <path d="M 612 323 Q 627 398 639 417 Q 649 436 632 446 Q 581 483 556 474 Q 543 470 549 454 Q 579 394 538 259 Q 502 148 391 74 Q 379 65 368 56 Q 355 47 367 44 Q 427 44 498 108 Q 577 172 604 288 L 612 323 Z" fill="lightgray" class="hide"/>
    <path d="M 604 288 Q 674 170 765 43 Q 783 22 813 21 Q 919 18 953 22 Q 963 23 964 29 Q 965 33 952 43 Q 805 110 724 197 Q 670 251 612 323 C 593 346 589 314 604 288 Z" fill="lightgray" class="hide"/></g><g transform="scale(1, -1) translate(0, -900)">
    <style type="text/css">
        .origin {display:none;}
        .hide {display:none;}
        .stroke {fill: #000000;}
        
.step1 {transform: translateX(1024px);}
.step2 {transform: translateX(2048px);}
.step3 {transform: translateX(3072px);}
.step4 {transform: translateX(4096px);}
.step5 {transform: translateX(5120px);}
.step6 {transform: translateX(6144px);}
.step7 {transform: translateX(7168px);}
.step8 {transform: translateX(8192px);}
.step9 {transform: translateX(9216px);}
.step10 {transform: translateX(10240px);}
.step11 {transform: translateX(11264px);}
.step12 {transform: translateX(12288px);}
.step13 {transform: translateX(13312px);}
.step14 {transform: translateX(14336px);}
.step15 {transform: translateX(15360px);}
.step16 {transform: translateX(16384px);}
.step17 {transform: translateX(17408px);}
.step18 {transform: translateX(18432px);}
.step19 {transform: translateX(19456px);}
.step20 {transform: translateX(20480px);}
.step21 {transform: translateX(21504px);}
.step22 {transform: translateX(22528px);}
.step23 {transform: translateX(23552px);}
.step24 {transform: translateX(24576px);}
.step25 {transform: translateX(25600px);}
.step26 {transform: translateX(26624px);}
.step27 {transform: translateX(27648px);}
.step28 {transform: translateX(28672px);}
.step29 {transform: translateX(29696px);}
    </style>

    <path d="M 156 545 Q 146 487 127 430 Q 115 393 141 362 Q 154 346 172 364 Q 190 386 196 422 Q 203 462 197 493 Q 194 527 180 551 Q 173 558 167 558 Q 158 554 156 545 Z" fill="lightgray" class="stroke step3"/>
    <path d="M 315 494 Q 366 515 419 540 Q 438 552 462 557 Q 481 563 475 580 Q 466 598 445 614 Q 426 630 414 630 Q 402 630 404 618 Q 404 597 329 530 Q 323 526 317 519 C 297 497 287 483 315 494 Z" fill="lightgray" class="stroke step3"/>
    <path d="M 300 303 Q 309 373 315 494 L 317 519 Q 318 642 344 706 Q 351 721 339 732 Q 317 751 275 763 Q 250 769 240 762 Q 230 755 238 742 Q 299 649 252 309 Q 228 186 150 104 Q 126 83 99 60 Q 87 51 88 47 Q 89 43 101 44 Q 114 40 146 56 Q 254 102 290 251 Q 293 264 295 278 L 300 303 Z" fill="lightgray" class="stroke step3"/>
    <path d="M 295 278 Q 302 269 318 254 Q 349 223 382 187 Q 394 174 409 173 Q 419 173 425 185 Q 431 198 425 228 Q 418 264 317 300 Q 307 304 300 303 C 274 303 276 301 295 278 Z" fill="lightgray" class="stroke step3"/>
    <path d="M 556 542 Q 592 602 628 687 Q 644 729 660 751 Q 667 763 661 776 Q 654 788 622 806 Q 592 819 573 817 Q 554 811 567 791 Q 612 724 450 432 Q 441 420 440 414 Q 439 402 452 407 Q 479 417 541 518 L 556 542 Z" fill="lightgray" class="hide"/>
    <path d="M 541 518 Q 560 502 581 510 Q 645 535 717 551 Q 754 561 767 558 Q 777 545 770 538 Q 770 535 739 468 Q 732 458 737 453 Q 741 447 752 459 Q 843 523 883 538 Q 892 539 893 548 Q 893 561 865 574 Q 795 611 781 604 Q 696 568 556 542 C 527 536 516 534 541 518 Z" fill="lightgray" class="hide"/>
    <path d="M 612 323 Q 627 398 639 417 Q 649 436 632 446 Q 581 483 556 474 Q 543 470 549 454 Q 579 394 538 259 Q 502 148 391 74 Q 379 65 368 56 Q 355 47 367 44 Q 427 44 498 108 Q 577 172 604 288 L 612 323 Z" fill="lightgray" class="hide"/>
    <path d="M 604 288 Q 674 170 765 43 Q 783 22 813 21 Q 919 18 953 22 Q 963 23 964 29 Q 965 33 952 43 Q 805 110 724 197 Q 670 251 612 323 C 593 346 589 314 604 288 Z" fill="lightgray" class="hide"/></g><g transform="scale(1, -1) translate(0, -900)">
    <style type="text/css">
        .origin {display:none;}
        .hide {display:none;}
        .stroke {fill: #000000;}
        
.step1 {transform: translateX(1024px);}
.step2 {transform: translateX(2048px);}
.step3 {transform: translateX(3072px);}
.step4 {transform: translateX(4096px);}
.step5 {transform: translateX(5120px);}
.step6 {transform: translateX(6144px);}
.step7 {transform: translateX(7168px);}
.step8 {transform: translateX(8192px);}
.step9 {transform: translateX(9216px);}
.step10 {transform: translateX(10240px);}
.step11 {transform: translateX(11264px);}
.step12 {transform: translateX(12288px);}
.step13 {transform: translateX(13312px);}
.step14 {transform: translateX(14336px);}
.step15 {transform: translateX(15360px);}
.step16 {transform: translateX(16384px);}
.step17 {transform: translateX(17408px);}
.step18 {transform: translateX(18432px);}
.step19 {transform: translateX(19456px);}
.step20 {transform: translateX(20480px);}
.step21 {transform: translateX(21504px);}
.step22 {transform: translateX(22528px);}
.step23 {transform: translateX(23552px);}
.step24 {transform: translateX(24576px);}
.step25 {transform: translateX(25600px);}
.step26 {transform: translateX(26624px);}
.step27 {transform: translateX(27648px);}
.step28 {transform: translateX(28672px);}
.step29 {transform: translateX(29696px);}
    </style>

    <path d="M 156 545 Q 146 487 127 430 Q 115 393 141 362 Q 154 346 172 364 Q 190 386 196 422 Q 203 462 197 493 Q 194 527 180 551 Q 173 558 167 558 Q 158 554 156 545 Z" fill="lightgray" class="stroke step4"/>
    <path d="M 315 494 Q 366 515 419 540 Q 438 552 462 557 Q 481 563 475 580 Q 466 598 445 614 Q 426 630 414 630 Q 402 630 404 618 Q 404 597 329 530 Q 323 526 317 519 C 297 497 287 483 315 494 Z" fill="lightgray" class="stroke step4"/>
    <path d="M 300 303 Q 309 373 315 494 L 317 519 Q 318 642 344 706 Q 351 721 339 732 Q 317 751 275 763 Q 250 769 240 762 Q 230 755 238 742 Q 299 649 252 309 Q 228 186 150 104 Q 126 83 99 60 Q 87 51 88 47 Q 89 43 101 44 Q 114 40 146 56 Q 254 102 290 251 Q 293 264 295 278 L 300 303 Z" fill="lightgray" class="stroke step4"/>
    <path d="M 295 278 Q 302 269 318 254 Q 349 223 382 187 Q 394 174 409 173 Q 419 173 425 185 Q 431 198 425 228 Q 418 264 317 300 Q 307 304 300 303 C 274 303 276 301 295 278 Z" fill="lightgray" class="stroke step4"/>
    <path d="M 556 542 Q 592 602 628 687 Q 644 729 660 751 Q 667 763 661 776 Q 654 788 622 806 Q 592 819 573 817 Q 554 811 567 791 Q 612 724 450 432 Q 441 420 440 414 Q 439 402 452 407 Q 479 417 541 518 L 556 542 Z" fill="lightgray" class="stroke step4"/>
    <path d="M 541 518 Q 560 502 581 510 Q 645 535 717 551 Q 754 561 767 558 Q 777 545 770 538 Q 770 535 739 468 Q 732 458 737 453 Q 741 447 752 459 Q 843 523 883 538 Q 892 539 893 548 Q 893 561 865 574 Q 795 611 781 604 Q 696 568 556 542 C 527 536 516 534 541 518 Z" fill="lightgray" class="hide"/>
    <path d="M 612 323 Q 627 398 639 417 Q 649 436 632 446 Q 581 483 556 474 Q 543 470 549 454 Q 579 394 538 259 Q 502 148 391 74 Q 379 65 368 56 Q 355 47 367 44 Q 427 44 498 108 Q 577 172 604 288 L 612 323 Z" fill="lightgray" class="hide"/>
    <path d="M 604 288 Q 674 170 765 43 Q 783 22 813 21 Q 919 18 953 22 Q 963 23 964 29 Q 965 33 952 43 Q 805 110 724 197 Q 670 251 612 323 C 593 346 589 314 604 288 Z" fill="lightgray" class="hide"/></g><g transform="scale(1, -1) translate(0, -900)">
    <style type="text/css">
        .origin {display:none;}
        .hide {display:none;}
        .stroke {fill: #000000;}
        
.step1 {transform: translateX(1024px);}
.step2 {transform: translateX(2048px);}
.step3 {transform: translateX(3072px);}
.step4 {transform: translateX(4096px);}
.step5 {transform: translateX(5120px);}
.step6 {transform: translateX(6144px);}
.step7 {transform: translateX(7168px);}
.step8 {transform: translateX(8192px);}
.step9 {transform: translateX(9216px);}
.step10 {transform: translateX(10240px);}
.step11 {transform: translateX(11264px);}
.step12 {transform: translateX(12288px);}
.step13 {transform: translateX(13312px);}
.step14 {transform: translateX(14336px);}
.step15 {transform: translateX(15360px);}
.step16 {transform: translateX(16384px);}
.step17 {transform: translateX(17408px);}
.step18 {transform: translateX(18432px);}
.step19 {transform: translateX(19456px);}
.step20 {transform: translateX(20480px);}
.step21 {transform: translateX(21504px);}
.step22 {transform: translateX(22528px);}
.step23 {transform: translateX(23552px);}
.step24 {transform: translateX(24576px);}
.step25 {transform: translateX(25600px);}
.step26 {transform: translateX(26624px);}
.step27 {transform: translateX(27648px);}
.step28 {transform: translateX(28672px);}
.step29 {transform: translateX(29696px);}
    </style>

    <path d="M 156 545 Q 146 487 127 430 Q 115 393 141 362 Q 154 346 172 364 Q 190 386 196 422 Q 203 462 197 493 Q 194 527 180 551 Q 173 558 167 558 Q 158 554 156 545 Z" fill="lightgray" class="stroke step5"/>
    <path d="M 315 494 Q 366 515 419 540 Q 438 552 462 557 Q 481 563 475 580 Q 466 598 445 614 Q 426 630 414 630 Q 402 630 404 618 Q 404 597 329 530 Q 323 526 317 519 C 297 497 287 483 315 494 Z" fill="lightgray" class="stroke step5"/>
    <path d="M 300 303 Q 309 373 315 494 L 317 519 Q 318 642 344 706 Q 351 721 339 732 Q 317 751 275 763 Q 250 769 240 762 Q 230 755 238 742 Q 299 649 252 309 Q 228 186 150 104 Q 126 83 99 60 Q 87 51 88 47 Q 89 43 101 44 Q 114 40 146 56 Q 254 102 290 251 Q 293 264 295 278 L 300 303 Z" fill="lightgray" class="stroke step5"/>
    <path d="M 295 278 Q 302 269 318 254 Q 349 223 382 187 Q 394 174 409 173 Q 419 173 425 185 Q 431 198 425 228 Q 418 264 317 300 Q 307 304 300 303 C 274 303 276 301 295 278 Z" fill="lightgray" class="stroke step5"/>
    <path d="M 556 542 Q 592 602 628 687 Q 644 729 660 751 Q 667 763 661 776 Q 654 788 622 806 Q 592 819 573 817 Q 554 811 567 791 Q 612 724 450 432 Q 441 420 440 414 Q 439 402 452 407 Q 479 417 541 518 L 556 542 Z" fill="lightgray" class="stroke step5"/>
    <path d="M 541 518 Q 560 502 581 510 Q 645 535 717 551 Q 754 561 767 558 Q 777 545 770 538 Q 770 535 739 468 Q 732 458 737 453 Q 741 447 752 459 Q 843 523 883 538 Q 892 539 893 548 Q 893 561 865 574 Q 795 611 781 604 Q 696 568 556 542 C 527 536 516 534 541 518 Z" fill="lightgray" class="stroke step5"/>
    <path d="M 612 323 Q 627 398 639 417 Q 649 436 632 446 Q 581 483 556 474 Q 543 470 549 454 Q 579 394 538 259 Q 502 148 391 74 Q 379 65 368 56 Q 355 47 367 44 Q 427 44 498 108 Q 577 172 604 288 L 612 323 Z" fill="lightgray" class="hide"/>
    <path d="M 604 288 Q 674 170 765 43 Q 783 22 813 21 Q 919 18 953 22 Q 963 23 964 29 Q 965 33 952 43 Q 805 110 724 197 Q 670 251 612 323 C 593 346 589 314 604 288 Z" fill="lightgray" class="hide"/></g><g transform="scale(1, -1) translate(0, -900)">
    <style type="text/css">
        .origin {display:none;}
        .hide {display:none;}
        .stroke {fill: #000000;}
        
.step1 {transform: translateX(1024px);}
.step2 {transform: translateX(2048px);}
.step3 {transform: translateX(3072px);}
.step4 {transform: translateX(4096px);}
.step5 {transform: translateX(5120px);}
.step6 {transform: translateX(6144px);}
.step7 {transform: translateX(7168px);}
.step8 {transform: translateX(8192px);}
.step9 {transform: translateX(9216px);}
.step10 {transform: translateX(10240px);}
.step11 {transform: translateX(11264px);}
.step12 {transform: translateX(12288px);}
.step13 {transform: translateX(13312px);}
.step14 {transform: translateX(14336px);}
.step15 {transform: translateX(15360px);}
.step16 {transform: translateX(16384px);}
.step17 {transform: translateX(17408px);}
.step18 {transform: translateX(18432px);}
.step19 {transform: translateX(19456px);}
.step20 {transform: translateX(20480px);}
.step21 {transform: translateX(21504px);}
.step22 {transform: translateX(22528px);}
.step23 {transform: translateX(23552px);}
.step24 {transform: translateX(24576px);}
.step25 {transform: translateX(25600px);}
.step26 {transform: translateX(26624px);}
.step27 {transform: translateX(27648px);}
.step28 {transform: translateX(28672px);}
.step29 {transform: translateX(29696px);}
    </style>

    <path d="M 156 545 Q 146 487 127 430 Q 115 393 141 362 Q 154 346 172 364 Q 190 386 196 422 Q 203 462 197 493 Q 194 527 180 551 Q 173 558 167 558 Q 158 554 156 545 Z" fill="lightgray" class="stroke step6"/>
    <path d="M 315 494 Q 366 515 419 540 Q 438 552 462 557 Q 481 563 475 580 Q 466 598 445 614 Q 426 630 414 630 Q 402 630 404 618 Q 404 597 329 530 Q 323 526 317 519 C 297 497 287 483 315 494 Z" fill="lightgray" class="stroke step6"/>
    <path d="M 300 303 Q 309 373 315 494 L 317 519 Q 318 642 344 706 Q 351 721 339 732 Q 317 751 275 763 Q 250 769 240 762 Q 230 755 238 742 Q 299 649 252 309 Q 228 186 150 104 Q 126 83 99 60 Q 87 51 88 47 Q 89 43 101 44 Q 114 40 146 56 Q 254 102 290 251 Q 293 264 295 278 L 300 303 Z" fill="lightgray" class="stroke step6"/>
    <path d="M 295 278 Q 302 269 318 254 Q 349 223 382 187 Q 394 174 409 173 Q 419 173 425 185 Q 431 198 425 228 Q 418 264 317 300 Q 307 304 300 303 C 274 303 276 301 295 278 Z" fill="lightgray" class="stroke step6"/>
    <path d="M 556 542 Q 592 602 628 687 Q 644 729 660 751 Q 667 763 661 776 Q 654 788 622 806 Q 592 819 573 817 Q 554 811 567 791 Q 612 724 450 432 Q 441 420 440 414 Q 439 402 452 407 Q 479 417 541 518 L 556 542 Z" fill="lightgray" class="stroke step6"/>
    <path d="M 541 518 Q 560 502 581 510 Q 645 535 717 551 Q 754 561 767 558 Q 777 545 770 538 Q 770 535 739 468 Q 732 458 737 453 Q 741 447 752 459 Q 843 523 883 538 Q 892 539 893 548 Q 893 561 865 574 Q 795 611 781 604 Q 696 568 556 542 C 527 536 516 534 541 518 Z" fill="lightgray" class="stroke step6"/>
    <path d="M 612 323 Q 627 398 639 417 Q 649 436 632 446 Q 581 483 556 474 Q 543 470 549 454 Q 579 394 538 259 Q 502 148 391 74 Q 379 65 368 56 Q 355 47 367 44 Q 427 44 498 108 Q 577 172 604 288 L 612 323 Z" fill="lightgray" class="stroke step6"/>
    <path d="M 604 288 Q 674 170 765 43 Q 783 22 813 21 Q 919 18 953 22 Q 963 23 964 29 Q 965 33 952 43 Q 805 110 724 197 Q 670 251 612 323 C 593 346 589 314 604 288 Z" fill="lightgray" class="hide"/></g><g transform="scale(1, -1) translate(0, -900)">
    <style type="text/css">
        .origin {display:none;}
        .hide {display:none;}
        .stroke {fill: #000000;}
        
.step1 {transform: translateX(1024px);}
.step2 {transform: translateX(2048px);}
.step3 {transform: translateX(3072px);}
.step4 {transform: translateX(4096px);}
.step5 {transform: translateX(5120px);}
.step6 {transform: translateX(6144px);}
.step7 {transform: translateX(7168px);}
.step8 {transform: translateX(8192px);}
.step9 {transform: translateX(9216px);}
.step10 {transform: translateX(10240px);}
.step11 {transform: translateX(11264px);}
.step12 {transform: translateX(12288px);}
.step13 {transform: translateX(13312px);}
.step14 {transform: translateX(14336px);}
.step15 {transform: translateX(15360px);}
.step16 {transform: translateX(16384px);}
.step17 {transform: translateX(17408px);}
.step18 {transform: translateX(18432px);}
.step19 {transform: translateX(19456px);}
.step20 {transform: translateX(20480px);}
.step21 {transform: translateX(21504px);}
.step22 {transform: translateX(22528px);}
.step23 {transform: translateX(23552px);}
.step24 {transform: translateX(24576px);}
.step25 {transform: translateX(25600px);}
.step26 {transform: translateX(26624px);}
.step27 {transform: translateX(27648px);}
.step28 {transform: translateX(28672px);}
.step29 {transform: translateX(29696px);}
    </style>

    <path d="M 156 545 Q 146 487 127 430 Q 115 393 141 362 Q 154 346 172 364 Q 190 386 196 422 Q 203 462 197 493 Q 194 527 180 551 Q 173 558 167 558 Q 158 554 156 545 Z" fill="lightgray" class="stroke step7"/>
    <path d="M 315 494 Q 366 515 419 540 Q 438 552 462 557 Q 481 563 475 580 Q 466 598 445 614 Q 426 630 414 630 Q 402 630 404 618 Q 404 597 329 530 Q 323 526 317 519 C 297 497 287 483 315 494 Z" fill="lightgray" class="stroke step7"/>
    <path d="M 300 303 Q 309 373 315 494 L 317 519 Q 318 642 344 706 Q 351 721 339 732 Q 317 751 275 763 Q 250 769 240 762 Q 230 755 238 742 Q 299 649 252 309 Q 228 186 150 104 Q 126 83 99 60 Q 87 51 88 47 Q 89 43 101 44 Q 114 40 146 56 Q 254 102 290 251 Q 293 264 295 278 L 300 303 Z" fill="lightgray" class="stroke step7"/>
    <path d="M 295 278 Q 302 269 318 254 Q 349 223 382 187 Q 394 174 409 173 Q 419 173 425 185 Q 431 198 425 228 Q 418 264 317 300 Q 307 304 300 303 C 274 303 276 301 295 278 Z" fill="lightgray" class="stroke step7"/>
    <path d="M 556 542 Q 592 602 628 687 Q 644 729 660 751 Q 667 763 661 776 Q 654 788 622 806 Q 592 819 573 817 Q 554 811 567 791 Q 612 724 450 432 Q 441 420 440 414 Q 439 402 452 407 Q 479 417 541 518 L 556 542 Z" fill="lightgray" class="stroke step7"/>
    <path d="M 541 518 Q 560 502 581 510 Q 645 535 717 551 Q 754 561 767 558 Q 777 545 770 538 Q 770 535 739 468 Q 732 458 737 453 Q 741 447 752 459 Q 843 523 883 538 Q 892 539 893 548 Q 893 561 865 574 Q 795 611 781 604 Q 696 568 556 542 C 527 536 516 534 541 518 Z" fill="lightgray" class="stroke step7"/>
    <path d="M 612 323 Q 627 398 639 417 Q 649 436 632 446 Q 581 483 556 474 Q 543 470 549 454 Q 579 394 538 259 Q 502 148 391 74 Q 379 65 368 56 Q 355 47 367 44 Q 427 44 498 108 Q 577 172 604 288 L 612 323 Z" fill="lightgray" class="stroke step7"/>
    <path d="M 604 288 Q 674 170 765 43 Q 783 22 813 21 Q 919 18 953 22 Q 963 23 964 29 Q 965 33 952 43 Q 805 110 724 197 Q 670 251 612 323 C 593 346 589 314 604 288 Z" fill="lightgray" class="stroke step7"/></g></svg>