<svg version="1.1" viewBox="0 0 9216 1024" xmlns="http://www.w3.org/2000/svg">
  
  <g transform="scale(1, -1) translate(0, -900)" class="origin">
    <style type="text/css">
        .origin {display:none;}
        .hide {display:none;}
        .stroke {fill: #000000;}
        
.step1 {transform: translateX(1024px);}
.step2 {transform: translateX(2048px);}
.step3 {transform: translateX(3072px);}
.step4 {transform: translateX(4096px);}
.step5 {transform: translateX(5120px);}
.step6 {transform: translateX(6144px);}
.step7 {transform: translateX(7168px);}
.step8 {transform: translateX(8192px);}
.step9 {transform: translateX(9216px);}
.step10 {transform: translateX(10240px);}
.step11 {transform: translateX(11264px);}
.step12 {transform: translateX(12288px);}
.step13 {transform: translateX(13312px);}
.step14 {transform: translateX(14336px);}
.step15 {transform: translateX(15360px);}
.step16 {transform: translateX(16384px);}
.step17 {transform: translateX(17408px);}
.step18 {transform: translateX(18432px);}
.step19 {transform: translateX(19456px);}
.step20 {transform: translateX(20480px);}
.step21 {transform: translateX(21504px);}
.step22 {transform: translateX(22528px);}
.step23 {transform: translateX(23552px);}
.step24 {transform: translateX(24576px);}
.step25 {transform: translateX(25600px);}
.step26 {transform: translateX(26624px);}
.step27 {transform: translateX(27648px);}
.step28 {transform: translateX(28672px);}
.step29 {transform: translateX(29696px);}
    </style>

    <path d="M 111 535 Q 121 480 123 423 Q 123 387 156 368 Q 172 358 182 380 Q 201 437 162 503 Q 149 531 130 548 Q 121 552 116 549 Q 110 545 111 535 Z" fill="lightgray"/>
    <path d="M 308 491 Q 371 525 392 539 Q 408 552 431 560 Q 450 567 441 583 Q 431 599 409 612 Q 388 625 377 624 Q 367 623 369 611 Q 369 592 309 520 C 290 497 282 477 308 491 Z" fill="lightgray"/>
    <path d="M 297 305 Q 297 317 308 491 L 309 520 Q 310 632 336 706 Q 343 721 332 732 Q 308 751 267 762 Q 240 769 232 762 Q 222 755 230 741 Q 288 654 248 304 Q 227 184 165 120 Q 132 89 81 56 Q 68 47 68 43 Q 69 39 82 39 Q 95 35 130 50 Q 244 89 284 227 Q 288 249 293 273 L 297 305 Z" fill="lightgray"/>
    <path d="M 293 273 Q 294 272 299 268 Q 326 243 354 213 Q 364 203 377 203 Q 384 203 389 213 Q 393 223 388 247 Q 382 277 297 305 C 269 314 270 292 293 273 Z" fill="lightgray"/>
    <path d="M 633 582 Q 843 625 850 632 Q 860 641 855 650 Q 848 663 815 672 Q 784 678 681 646 Q 588 622 496 614 Q 454 607 484 588 Q 520 567 563 570 L 633 582 Z" fill="lightgray"/>
    <path d="M 552 347 Q 586 414 632 520 Q 639 539 646 547 Q 653 554 650 563 Q 646 573 633 582 C 611 603 559 600 563 570 Q 579 504 506 355 L 488 320 Q 434 227 307 80 Q 300 73 311 72 Q 399 111 506 267 L 552 347 Z" fill="lightgray"/>
    <path d="M 506 355 Q 502 356 498 357 Q 485 361 481 355 Q 474 348 483 331 Q 484 327 488 320 L 506 267 Q 521 216 532 149 Q 535 115 554 93 Q 573 68 580 86 Q 584 99 584 121 L 581 159 Q 563 274 559 310 L 506 355 Z" fill="lightgray"/>
    <path d="M 801 187 Q 828 289 865 318 Q 884 339 867 359 Q 783 419 726 390 Q 657 365 552 347 C 519 341 524 305 559 310 Q 574 311 734 342 Q 752 346 759 339 Q 771 329 768 305 Q 758 242 746 191 C 739 162 793 158 801 187 Z" fill="lightgray"/>
    <path d="M 584 121 Q 594 120 606 122 Q 673 135 818 146 Q 830 147 831 157 Q 831 166 801 187 C 784 199 775 197 746 191 L 745 191 Q 654 169 581 159 C 551 155 554 122 584 121 Z" fill="lightgray"/></g>
<g transform="scale(1, -1) translate(0, -900)">
    <style type="text/css">
        .origin {display:none;}
        .hide {display:none;}
        .stroke {fill: #000000;}
        
.step1 {transform: translateX(1024px);}
.step2 {transform: translateX(2048px);}
.step3 {transform: translateX(3072px);}
.step4 {transform: translateX(4096px);}
.step5 {transform: translateX(5120px);}
.step6 {transform: translateX(6144px);}
.step7 {transform: translateX(7168px);}
.step8 {transform: translateX(8192px);}
.step9 {transform: translateX(9216px);}
.step10 {transform: translateX(10240px);}
.step11 {transform: translateX(11264px);}
.step12 {transform: translateX(12288px);}
.step13 {transform: translateX(13312px);}
.step14 {transform: translateX(14336px);}
.step15 {transform: translateX(15360px);}
.step16 {transform: translateX(16384px);}
.step17 {transform: translateX(17408px);}
.step18 {transform: translateX(18432px);}
.step19 {transform: translateX(19456px);}
.step20 {transform: translateX(20480px);}
.step21 {transform: translateX(21504px);}
.step22 {transform: translateX(22528px);}
.step23 {transform: translateX(23552px);}
.step24 {transform: translateX(24576px);}
.step25 {transform: translateX(25600px);}
.step26 {transform: translateX(26624px);}
.step27 {transform: translateX(27648px);}
.step28 {transform: translateX(28672px);}
.step29 {transform: translateX(29696px);}
    </style>

    <path d="M 111 535 Q 121 480 123 423 Q 123 387 156 368 Q 172 358 182 380 Q 201 437 162 503 Q 149 531 130 548 Q 121 552 116 549 Q 110 545 111 535 Z" fill="lightgray" class="stroke step0"/>
    <path d="M 308 491 Q 371 525 392 539 Q 408 552 431 560 Q 450 567 441 583 Q 431 599 409 612 Q 388 625 377 624 Q 367 623 369 611 Q 369 592 309 520 C 290 497 282 477 308 491 Z" fill="lightgray" class="hide"/>
    <path d="M 297 305 Q 297 317 308 491 L 309 520 Q 310 632 336 706 Q 343 721 332 732 Q 308 751 267 762 Q 240 769 232 762 Q 222 755 230 741 Q 288 654 248 304 Q 227 184 165 120 Q 132 89 81 56 Q 68 47 68 43 Q 69 39 82 39 Q 95 35 130 50 Q 244 89 284 227 Q 288 249 293 273 L 297 305 Z" fill="lightgray" class="hide"/>
    <path d="M 293 273 Q 294 272 299 268 Q 326 243 354 213 Q 364 203 377 203 Q 384 203 389 213 Q 393 223 388 247 Q 382 277 297 305 C 269 314 270 292 293 273 Z" fill="lightgray" class="hide"/>
    <path d="M 633 582 Q 843 625 850 632 Q 860 641 855 650 Q 848 663 815 672 Q 784 678 681 646 Q 588 622 496 614 Q 454 607 484 588 Q 520 567 563 570 L 633 582 Z" fill="lightgray" class="hide"/>
    <path d="M 552 347 Q 586 414 632 520 Q 639 539 646 547 Q 653 554 650 563 Q 646 573 633 582 C 611 603 559 600 563 570 Q 579 504 506 355 L 488 320 Q 434 227 307 80 Q 300 73 311 72 Q 399 111 506 267 L 552 347 Z" fill="lightgray" class="hide"/>
    <path d="M 506 355 Q 502 356 498 357 Q 485 361 481 355 Q 474 348 483 331 Q 484 327 488 320 L 506 267 Q 521 216 532 149 Q 535 115 554 93 Q 573 68 580 86 Q 584 99 584 121 L 581 159 Q 563 274 559 310 L 506 355 Z" fill="lightgray" class="hide"/>
    <path d="M 801 187 Q 828 289 865 318 Q 884 339 867 359 Q 783 419 726 390 Q 657 365 552 347 C 519 341 524 305 559 310 Q 574 311 734 342 Q 752 346 759 339 Q 771 329 768 305 Q 758 242 746 191 C 739 162 793 158 801 187 Z" fill="lightgray" class="hide"/>
    <path d="M 584 121 Q 594 120 606 122 Q 673 135 818 146 Q 830 147 831 157 Q 831 166 801 187 C 784 199 775 197 746 191 L 745 191 Q 654 169 581 159 C 551 155 554 122 584 121 Z" fill="lightgray" class="hide"/></g><g transform="scale(1, -1) translate(0, -900)">
    <style type="text/css">
        .origin {display:none;}
        .hide {display:none;}
        .stroke {fill: #000000;}
        
.step1 {transform: translateX(1024px);}
.step2 {transform: translateX(2048px);}
.step3 {transform: translateX(3072px);}
.step4 {transform: translateX(4096px);}
.step5 {transform: translateX(5120px);}
.step6 {transform: translateX(6144px);}
.step7 {transform: translateX(7168px);}
.step8 {transform: translateX(8192px);}
.step9 {transform: translateX(9216px);}
.step10 {transform: translateX(10240px);}
.step11 {transform: translateX(11264px);}
.step12 {transform: translateX(12288px);}
.step13 {transform: translateX(13312px);}
.step14 {transform: translateX(14336px);}
.step15 {transform: translateX(15360px);}
.step16 {transform: translateX(16384px);}
.step17 {transform: translateX(17408px);}
.step18 {transform: translateX(18432px);}
.step19 {transform: translateX(19456px);}
.step20 {transform: translateX(20480px);}
.step21 {transform: translateX(21504px);}
.step22 {transform: translateX(22528px);}
.step23 {transform: translateX(23552px);}
.step24 {transform: translateX(24576px);}
.step25 {transform: translateX(25600px);}
.step26 {transform: translateX(26624px);}
.step27 {transform: translateX(27648px);}
.step28 {transform: translateX(28672px);}
.step29 {transform: translateX(29696px);}
    </style>

    <path d="M 111 535 Q 121 480 123 423 Q 123 387 156 368 Q 172 358 182 380 Q 201 437 162 503 Q 149 531 130 548 Q 121 552 116 549 Q 110 545 111 535 Z" fill="lightgray" class="stroke step1"/>
    <path d="M 308 491 Q 371 525 392 539 Q 408 552 431 560 Q 450 567 441 583 Q 431 599 409 612 Q 388 625 377 624 Q 367 623 369 611 Q 369 592 309 520 C 290 497 282 477 308 491 Z" fill="lightgray" class="stroke step1"/>
    <path d="M 297 305 Q 297 317 308 491 L 309 520 Q 310 632 336 706 Q 343 721 332 732 Q 308 751 267 762 Q 240 769 232 762 Q 222 755 230 741 Q 288 654 248 304 Q 227 184 165 120 Q 132 89 81 56 Q 68 47 68 43 Q 69 39 82 39 Q 95 35 130 50 Q 244 89 284 227 Q 288 249 293 273 L 297 305 Z" fill="lightgray" class="hide"/>
    <path d="M 293 273 Q 294 272 299 268 Q 326 243 354 213 Q 364 203 377 203 Q 384 203 389 213 Q 393 223 388 247 Q 382 277 297 305 C 269 314 270 292 293 273 Z" fill="lightgray" class="hide"/>
    <path d="M 633 582 Q 843 625 850 632 Q 860 641 855 650 Q 848 663 815 672 Q 784 678 681 646 Q 588 622 496 614 Q 454 607 484 588 Q 520 567 563 570 L 633 582 Z" fill="lightgray" class="hide"/>
    <path d="M 552 347 Q 586 414 632 520 Q 639 539 646 547 Q 653 554 650 563 Q 646 573 633 582 C 611 603 559 600 563 570 Q 579 504 506 355 L 488 320 Q 434 227 307 80 Q 300 73 311 72 Q 399 111 506 267 L 552 347 Z" fill="lightgray" class="hide"/>
    <path d="M 506 355 Q 502 356 498 357 Q 485 361 481 355 Q 474 348 483 331 Q 484 327 488 320 L 506 267 Q 521 216 532 149 Q 535 115 554 93 Q 573 68 580 86 Q 584 99 584 121 L 581 159 Q 563 274 559 310 L 506 355 Z" fill="lightgray" class="hide"/>
    <path d="M 801 187 Q 828 289 865 318 Q 884 339 867 359 Q 783 419 726 390 Q 657 365 552 347 C 519 341 524 305 559 310 Q 574 311 734 342 Q 752 346 759 339 Q 771 329 768 305 Q 758 242 746 191 C 739 162 793 158 801 187 Z" fill="lightgray" class="hide"/>
    <path d="M 584 121 Q 594 120 606 122 Q 673 135 818 146 Q 830 147 831 157 Q 831 166 801 187 C 784 199 775 197 746 191 L 745 191 Q 654 169 581 159 C 551 155 554 122 584 121 Z" fill="lightgray" class="hide"/></g><g transform="scale(1, -1) translate(0, -900)">
    <style type="text/css">
        .origin {display:none;}
        .hide {display:none;}
        .stroke {fill: #000000;}
        
.step1 {transform: translateX(1024px);}
.step2 {transform: translateX(2048px);}
.step3 {transform: translateX(3072px);}
.step4 {transform: translateX(4096px);}
.step5 {transform: translateX(5120px);}
.step6 {transform: translateX(6144px);}
.step7 {transform: translateX(7168px);}
.step8 {transform: translateX(8192px);}
.step9 {transform: translateX(9216px);}
.step10 {transform: translateX(10240px);}
.step11 {transform: translateX(11264px);}
.step12 {transform: translateX(12288px);}
.step13 {transform: translateX(13312px);}
.step14 {transform: translateX(14336px);}
.step15 {transform: translateX(15360px);}
.step16 {transform: translateX(16384px);}
.step17 {transform: translateX(17408px);}
.step18 {transform: translateX(18432px);}
.step19 {transform: translateX(19456px);}
.step20 {transform: translateX(20480px);}
.step21 {transform: translateX(21504px);}
.step22 {transform: translateX(22528px);}
.step23 {transform: translateX(23552px);}
.step24 {transform: translateX(24576px);}
.step25 {transform: translateX(25600px);}
.step26 {transform: translateX(26624px);}
.step27 {transform: translateX(27648px);}
.step28 {transform: translateX(28672px);}
.step29 {transform: translateX(29696px);}
    </style>

    <path d="M 111 535 Q 121 480 123 423 Q 123 387 156 368 Q 172 358 182 380 Q 201 437 162 503 Q 149 531 130 548 Q 121 552 116 549 Q 110 545 111 535 Z" fill="lightgray" class="stroke step2"/>
    <path d="M 308 491 Q 371 525 392 539 Q 408 552 431 560 Q 450 567 441 583 Q 431 599 409 612 Q 388 625 377 624 Q 367 623 369 611 Q 369 592 309 520 C 290 497 282 477 308 491 Z" fill="lightgray" class="stroke step2"/>
    <path d="M 297 305 Q 297 317 308 491 L 309 520 Q 310 632 336 706 Q 343 721 332 732 Q 308 751 267 762 Q 240 769 232 762 Q 222 755 230 741 Q 288 654 248 304 Q 227 184 165 120 Q 132 89 81 56 Q 68 47 68 43 Q 69 39 82 39 Q 95 35 130 50 Q 244 89 284 227 Q 288 249 293 273 L 297 305 Z" fill="lightgray" class="stroke step2"/>
    <path d="M 293 273 Q 294 272 299 268 Q 326 243 354 213 Q 364 203 377 203 Q 384 203 389 213 Q 393 223 388 247 Q 382 277 297 305 C 269 314 270 292 293 273 Z" fill="lightgray" class="hide"/>
    <path d="M 633 582 Q 843 625 850 632 Q 860 641 855 650 Q 848 663 815 672 Q 784 678 681 646 Q 588 622 496 614 Q 454 607 484 588 Q 520 567 563 570 L 633 582 Z" fill="lightgray" class="hide"/>
    <path d="M 552 347 Q 586 414 632 520 Q 639 539 646 547 Q 653 554 650 563 Q 646 573 633 582 C 611 603 559 600 563 570 Q 579 504 506 355 L 488 320 Q 434 227 307 80 Q 300 73 311 72 Q 399 111 506 267 L 552 347 Z" fill="lightgray" class="hide"/>
    <path d="M 506 355 Q 502 356 498 357 Q 485 361 481 355 Q 474 348 483 331 Q 484 327 488 320 L 506 267 Q 521 216 532 149 Q 535 115 554 93 Q 573 68 580 86 Q 584 99 584 121 L 581 159 Q 563 274 559 310 L 506 355 Z" fill="lightgray" class="hide"/>
    <path d="M 801 187 Q 828 289 865 318 Q 884 339 867 359 Q 783 419 726 390 Q 657 365 552 347 C 519 341 524 305 559 310 Q 574 311 734 342 Q 752 346 759 339 Q 771 329 768 305 Q 758 242 746 191 C 739 162 793 158 801 187 Z" fill="lightgray" class="hide"/>
    <path d="M 584 121 Q 594 120 606 122 Q 673 135 818 146 Q 830 147 831 157 Q 831 166 801 187 C 784 199 775 197 746 191 L 745 191 Q 654 169 581 159 C 551 155 554 122 584 121 Z" fill="lightgray" class="hide"/></g><g transform="scale(1, -1) translate(0, -900)">
    <style type="text/css">
        .origin {display:none;}
        .hide {display:none;}
        .stroke {fill: #000000;}
        
.step1 {transform: translateX(1024px);}
.step2 {transform: translateX(2048px);}
.step3 {transform: translateX(3072px);}
.step4 {transform: translateX(4096px);}
.step5 {transform: translateX(5120px);}
.step6 {transform: translateX(6144px);}
.step7 {transform: translateX(7168px);}
.step8 {transform: translateX(8192px);}
.step9 {transform: translateX(9216px);}
.step10 {transform: translateX(10240px);}
.step11 {transform: translateX(11264px);}
.step12 {transform: translateX(12288px);}
.step13 {transform: translateX(13312px);}
.step14 {transform: translateX(14336px);}
.step15 {transform: translateX(15360px);}
.step16 {transform: translateX(16384px);}
.step17 {transform: translateX(17408px);}
.step18 {transform: translateX(18432px);}
.step19 {transform: translateX(19456px);}
.step20 {transform: translateX(20480px);}
.step21 {transform: translateX(21504px);}
.step22 {transform: translateX(22528px);}
.step23 {transform: translateX(23552px);}
.step24 {transform: translateX(24576px);}
.step25 {transform: translateX(25600px);}
.step26 {transform: translateX(26624px);}
.step27 {transform: translateX(27648px);}
.step28 {transform: translateX(28672px);}
.step29 {transform: translateX(29696px);}
    </style>

    <path d="M 111 535 Q 121 480 123 423 Q 123 387 156 368 Q 172 358 182 380 Q 201 437 162 503 Q 149 531 130 548 Q 121 552 116 549 Q 110 545 111 535 Z" fill="lightgray" class="stroke step3"/>
    <path d="M 308 491 Q 371 525 392 539 Q 408 552 431 560 Q 450 567 441 583 Q 431 599 409 612 Q 388 625 377 624 Q 367 623 369 611 Q 369 592 309 520 C 290 497 282 477 308 491 Z" fill="lightgray" class="stroke step3"/>
    <path d="M 297 305 Q 297 317 308 491 L 309 520 Q 310 632 336 706 Q 343 721 332 732 Q 308 751 267 762 Q 240 769 232 762 Q 222 755 230 741 Q 288 654 248 304 Q 227 184 165 120 Q 132 89 81 56 Q 68 47 68 43 Q 69 39 82 39 Q 95 35 130 50 Q 244 89 284 227 Q 288 249 293 273 L 297 305 Z" fill="lightgray" class="stroke step3"/>
    <path d="M 293 273 Q 294 272 299 268 Q 326 243 354 213 Q 364 203 377 203 Q 384 203 389 213 Q 393 223 388 247 Q 382 277 297 305 C 269 314 270 292 293 273 Z" fill="lightgray" class="stroke step3"/>
    <path d="M 633 582 Q 843 625 850 632 Q 860 641 855 650 Q 848 663 815 672 Q 784 678 681 646 Q 588 622 496 614 Q 454 607 484 588 Q 520 567 563 570 L 633 582 Z" fill="lightgray" class="hide"/>
    <path d="M 552 347 Q 586 414 632 520 Q 639 539 646 547 Q 653 554 650 563 Q 646 573 633 582 C 611 603 559 600 563 570 Q 579 504 506 355 L 488 320 Q 434 227 307 80 Q 300 73 311 72 Q 399 111 506 267 L 552 347 Z" fill="lightgray" class="hide"/>
    <path d="M 506 355 Q 502 356 498 357 Q 485 361 481 355 Q 474 348 483 331 Q 484 327 488 320 L 506 267 Q 521 216 532 149 Q 535 115 554 93 Q 573 68 580 86 Q 584 99 584 121 L 581 159 Q 563 274 559 310 L 506 355 Z" fill="lightgray" class="hide"/>
    <path d="M 801 187 Q 828 289 865 318 Q 884 339 867 359 Q 783 419 726 390 Q 657 365 552 347 C 519 341 524 305 559 310 Q 574 311 734 342 Q 752 346 759 339 Q 771 329 768 305 Q 758 242 746 191 C 739 162 793 158 801 187 Z" fill="lightgray" class="hide"/>
    <path d="M 584 121 Q 594 120 606 122 Q 673 135 818 146 Q 830 147 831 157 Q 831 166 801 187 C 784 199 775 197 746 191 L 745 191 Q 654 169 581 159 C 551 155 554 122 584 121 Z" fill="lightgray" class="hide"/></g><g transform="scale(1, -1) translate(0, -900)">
    <style type="text/css">
        .origin {display:none;}
        .hide {display:none;}
        .stroke {fill: #000000;}
        
.step1 {transform: translateX(1024px);}
.step2 {transform: translateX(2048px);}
.step3 {transform: translateX(3072px);}
.step4 {transform: translateX(4096px);}
.step5 {transform: translateX(5120px);}
.step6 {transform: translateX(6144px);}
.step7 {transform: translateX(7168px);}
.step8 {transform: translateX(8192px);}
.step9 {transform: translateX(9216px);}
.step10 {transform: translateX(10240px);}
.step11 {transform: translateX(11264px);}
.step12 {transform: translateX(12288px);}
.step13 {transform: translateX(13312px);}
.step14 {transform: translateX(14336px);}
.step15 {transform: translateX(15360px);}
.step16 {transform: translateX(16384px);}
.step17 {transform: translateX(17408px);}
.step18 {transform: translateX(18432px);}
.step19 {transform: translateX(19456px);}
.step20 {transform: translateX(20480px);}
.step21 {transform: translateX(21504px);}
.step22 {transform: translateX(22528px);}
.step23 {transform: translateX(23552px);}
.step24 {transform: translateX(24576px);}
.step25 {transform: translateX(25600px);}
.step26 {transform: translateX(26624px);}
.step27 {transform: translateX(27648px);}
.step28 {transform: translateX(28672px);}
.step29 {transform: translateX(29696px);}
    </style>

    <path d="M 111 535 Q 121 480 123 423 Q 123 387 156 368 Q 172 358 182 380 Q 201 437 162 503 Q 149 531 130 548 Q 121 552 116 549 Q 110 545 111 535 Z" fill="lightgray" class="stroke step4"/>
    <path d="M 308 491 Q 371 525 392 539 Q 408 552 431 560 Q 450 567 441 583 Q 431 599 409 612 Q 388 625 377 624 Q 367 623 369 611 Q 369 592 309 520 C 290 497 282 477 308 491 Z" fill="lightgray" class="stroke step4"/>
    <path d="M 297 305 Q 297 317 308 491 L 309 520 Q 310 632 336 706 Q 343 721 332 732 Q 308 751 267 762 Q 240 769 232 762 Q 222 755 230 741 Q 288 654 248 304 Q 227 184 165 120 Q 132 89 81 56 Q 68 47 68 43 Q 69 39 82 39 Q 95 35 130 50 Q 244 89 284 227 Q 288 249 293 273 L 297 305 Z" fill="lightgray" class="stroke step4"/>
    <path d="M 293 273 Q 294 272 299 268 Q 326 243 354 213 Q 364 203 377 203 Q 384 203 389 213 Q 393 223 388 247 Q 382 277 297 305 C 269 314 270 292 293 273 Z" fill="lightgray" class="stroke step4"/>
    <path d="M 633 582 Q 843 625 850 632 Q 860 641 855 650 Q 848 663 815 672 Q 784 678 681 646 Q 588 622 496 614 Q 454 607 484 588 Q 520 567 563 570 L 633 582 Z" fill="lightgray" class="stroke step4"/>
    <path d="M 552 347 Q 586 414 632 520 Q 639 539 646 547 Q 653 554 650 563 Q 646 573 633 582 C 611 603 559 600 563 570 Q 579 504 506 355 L 488 320 Q 434 227 307 80 Q 300 73 311 72 Q 399 111 506 267 L 552 347 Z" fill="lightgray" class="hide"/>
    <path d="M 506 355 Q 502 356 498 357 Q 485 361 481 355 Q 474 348 483 331 Q 484 327 488 320 L 506 267 Q 521 216 532 149 Q 535 115 554 93 Q 573 68 580 86 Q 584 99 584 121 L 581 159 Q 563 274 559 310 L 506 355 Z" fill="lightgray" class="hide"/>
    <path d="M 801 187 Q 828 289 865 318 Q 884 339 867 359 Q 783 419 726 390 Q 657 365 552 347 C 519 341 524 305 559 310 Q 574 311 734 342 Q 752 346 759 339 Q 771 329 768 305 Q 758 242 746 191 C 739 162 793 158 801 187 Z" fill="lightgray" class="hide"/>
    <path d="M 584 121 Q 594 120 606 122 Q 673 135 818 146 Q 830 147 831 157 Q 831 166 801 187 C 784 199 775 197 746 191 L 745 191 Q 654 169 581 159 C 551 155 554 122 584 121 Z" fill="lightgray" class="hide"/></g><g transform="scale(1, -1) translate(0, -900)">
    <style type="text/css">
        .origin {display:none;}
        .hide {display:none;}
        .stroke {fill: #000000;}
        
.step1 {transform: translateX(1024px);}
.step2 {transform: translateX(2048px);}
.step3 {transform: translateX(3072px);}
.step4 {transform: translateX(4096px);}
.step5 {transform: translateX(5120px);}
.step6 {transform: translateX(6144px);}
.step7 {transform: translateX(7168px);}
.step8 {transform: translateX(8192px);}
.step9 {transform: translateX(9216px);}
.step10 {transform: translateX(10240px);}
.step11 {transform: translateX(11264px);}
.step12 {transform: translateX(12288px);}
.step13 {transform: translateX(13312px);}
.step14 {transform: translateX(14336px);}
.step15 {transform: translateX(15360px);}
.step16 {transform: translateX(16384px);}
.step17 {transform: translateX(17408px);}
.step18 {transform: translateX(18432px);}
.step19 {transform: translateX(19456px);}
.step20 {transform: translateX(20480px);}
.step21 {transform: translateX(21504px);}
.step22 {transform: translateX(22528px);}
.step23 {transform: translateX(23552px);}
.step24 {transform: translateX(24576px);}
.step25 {transform: translateX(25600px);}
.step26 {transform: translateX(26624px);}
.step27 {transform: translateX(27648px);}
.step28 {transform: translateX(28672px);}
.step29 {transform: translateX(29696px);}
    </style>

    <path d="M 111 535 Q 121 480 123 423 Q 123 387 156 368 Q 172 358 182 380 Q 201 437 162 503 Q 149 531 130 548 Q 121 552 116 549 Q 110 545 111 535 Z" fill="lightgray" class="stroke step5"/>
    <path d="M 308 491 Q 371 525 392 539 Q 408 552 431 560 Q 450 567 441 583 Q 431 599 409 612 Q 388 625 377 624 Q 367 623 369 611 Q 369 592 309 520 C 290 497 282 477 308 491 Z" fill="lightgray" class="stroke step5"/>
    <path d="M 297 305 Q 297 317 308 491 L 309 520 Q 310 632 336 706 Q 343 721 332 732 Q 308 751 267 762 Q 240 769 232 762 Q 222 755 230 741 Q 288 654 248 304 Q 227 184 165 120 Q 132 89 81 56 Q 68 47 68 43 Q 69 39 82 39 Q 95 35 130 50 Q 244 89 284 227 Q 288 249 293 273 L 297 305 Z" fill="lightgray" class="stroke step5"/>
    <path d="M 293 273 Q 294 272 299 268 Q 326 243 354 213 Q 364 203 377 203 Q 384 203 389 213 Q 393 223 388 247 Q 382 277 297 305 C 269 314 270 292 293 273 Z" fill="lightgray" class="stroke step5"/>
    <path d="M 633 582 Q 843 625 850 632 Q 860 641 855 650 Q 848 663 815 672 Q 784 678 681 646 Q 588 622 496 614 Q 454 607 484 588 Q 520 567 563 570 L 633 582 Z" fill="lightgray" class="stroke step5"/>
    <path d="M 552 347 Q 586 414 632 520 Q 639 539 646 547 Q 653 554 650 563 Q 646 573 633 582 C 611 603 559 600 563 570 Q 579 504 506 355 L 488 320 Q 434 227 307 80 Q 300 73 311 72 Q 399 111 506 267 L 552 347 Z" fill="lightgray" class="stroke step5"/>
    <path d="M 506 355 Q 502 356 498 357 Q 485 361 481 355 Q 474 348 483 331 Q 484 327 488 320 L 506 267 Q 521 216 532 149 Q 535 115 554 93 Q 573 68 580 86 Q 584 99 584 121 L 581 159 Q 563 274 559 310 L 506 355 Z" fill="lightgray" class="hide"/>
    <path d="M 801 187 Q 828 289 865 318 Q 884 339 867 359 Q 783 419 726 390 Q 657 365 552 347 C 519 341 524 305 559 310 Q 574 311 734 342 Q 752 346 759 339 Q 771 329 768 305 Q 758 242 746 191 C 739 162 793 158 801 187 Z" fill="lightgray" class="hide"/>
    <path d="M 584 121 Q 594 120 606 122 Q 673 135 818 146 Q 830 147 831 157 Q 831 166 801 187 C 784 199 775 197 746 191 L 745 191 Q 654 169 581 159 C 551 155 554 122 584 121 Z" fill="lightgray" class="hide"/></g><g transform="scale(1, -1) translate(0, -900)">
    <style type="text/css">
        .origin {display:none;}
        .hide {display:none;}
        .stroke {fill: #000000;}
        
.step1 {transform: translateX(1024px);}
.step2 {transform: translateX(2048px);}
.step3 {transform: translateX(3072px);}
.step4 {transform: translateX(4096px);}
.step5 {transform: translateX(5120px);}
.step6 {transform: translateX(6144px);}
.step7 {transform: translateX(7168px);}
.step8 {transform: translateX(8192px);}
.step9 {transform: translateX(9216px);}
.step10 {transform: translateX(10240px);}
.step11 {transform: translateX(11264px);}
.step12 {transform: translateX(12288px);}
.step13 {transform: translateX(13312px);}
.step14 {transform: translateX(14336px);}
.step15 {transform: translateX(15360px);}
.step16 {transform: translateX(16384px);}
.step17 {transform: translateX(17408px);}
.step18 {transform: translateX(18432px);}
.step19 {transform: translateX(19456px);}
.step20 {transform: translateX(20480px);}
.step21 {transform: translateX(21504px);}
.step22 {transform: translateX(22528px);}
.step23 {transform: translateX(23552px);}
.step24 {transform: translateX(24576px);}
.step25 {transform: translateX(25600px);}
.step26 {transform: translateX(26624px);}
.step27 {transform: translateX(27648px);}
.step28 {transform: translateX(28672px);}
.step29 {transform: translateX(29696px);}
    </style>

    <path d="M 111 535 Q 121 480 123 423 Q 123 387 156 368 Q 172 358 182 380 Q 201 437 162 503 Q 149 531 130 548 Q 121 552 116 549 Q 110 545 111 535 Z" fill="lightgray" class="stroke step6"/>
    <path d="M 308 491 Q 371 525 392 539 Q 408 552 431 560 Q 450 567 441 583 Q 431 599 409 612 Q 388 625 377 624 Q 367 623 369 611 Q 369 592 309 520 C 290 497 282 477 308 491 Z" fill="lightgray" class="stroke step6"/>
    <path d="M 297 305 Q 297 317 308 491 L 309 520 Q 310 632 336 706 Q 343 721 332 732 Q 308 751 267 762 Q 240 769 232 762 Q 222 755 230 741 Q 288 654 248 304 Q 227 184 165 120 Q 132 89 81 56 Q 68 47 68 43 Q 69 39 82 39 Q 95 35 130 50 Q 244 89 284 227 Q 288 249 293 273 L 297 305 Z" fill="lightgray" class="stroke step6"/>
    <path d="M 293 273 Q 294 272 299 268 Q 326 243 354 213 Q 364 203 377 203 Q 384 203 389 213 Q 393 223 388 247 Q 382 277 297 305 C 269 314 270 292 293 273 Z" fill="lightgray" class="stroke step6"/>
    <path d="M 633 582 Q 843 625 850 632 Q 860 641 855 650 Q 848 663 815 672 Q 784 678 681 646 Q 588 622 496 614 Q 454 607 484 588 Q 520 567 563 570 L 633 582 Z" fill="lightgray" class="stroke step6"/>
    <path d="M 552 347 Q 586 414 632 520 Q 639 539 646 547 Q 653 554 650 563 Q 646 573 633 582 C 611 603 559 600 563 570 Q 579 504 506 355 L 488 320 Q 434 227 307 80 Q 300 73 311 72 Q 399 111 506 267 L 552 347 Z" fill="lightgray" class="stroke step6"/>
    <path d="M 506 355 Q 502 356 498 357 Q 485 361 481 355 Q 474 348 483 331 Q 484 327 488 320 L 506 267 Q 521 216 532 149 Q 535 115 554 93 Q 573 68 580 86 Q 584 99 584 121 L 581 159 Q 563 274 559 310 L 506 355 Z" fill="lightgray" class="stroke step6"/>
    <path d="M 801 187 Q 828 289 865 318 Q 884 339 867 359 Q 783 419 726 390 Q 657 365 552 347 C 519 341 524 305 559 310 Q 574 311 734 342 Q 752 346 759 339 Q 771 329 768 305 Q 758 242 746 191 C 739 162 793 158 801 187 Z" fill="lightgray" class="hide"/>
    <path d="M 584 121 Q 594 120 606 122 Q 673 135 818 146 Q 830 147 831 157 Q 831 166 801 187 C 784 199 775 197 746 191 L 745 191 Q 654 169 581 159 C 551 155 554 122 584 121 Z" fill="lightgray" class="hide"/></g><g transform="scale(1, -1) translate(0, -900)">
    <style type="text/css">
        .origin {display:none;}
        .hide {display:none;}
        .stroke {fill: #000000;}
        
.step1 {transform: translateX(1024px);}
.step2 {transform: translateX(2048px);}
.step3 {transform: translateX(3072px);}
.step4 {transform: translateX(4096px);}
.step5 {transform: translateX(5120px);}
.step6 {transform: translateX(6144px);}
.step7 {transform: translateX(7168px);}
.step8 {transform: translateX(8192px);}
.step9 {transform: translateX(9216px);}
.step10 {transform: translateX(10240px);}
.step11 {transform: translateX(11264px);}
.step12 {transform: translateX(12288px);}
.step13 {transform: translateX(13312px);}
.step14 {transform: translateX(14336px);}
.step15 {transform: translateX(15360px);}
.step16 {transform: translateX(16384px);}
.step17 {transform: translateX(17408px);}
.step18 {transform: translateX(18432px);}
.step19 {transform: translateX(19456px);}
.step20 {transform: translateX(20480px);}
.step21 {transform: translateX(21504px);}
.step22 {transform: translateX(22528px);}
.step23 {transform: translateX(23552px);}
.step24 {transform: translateX(24576px);}
.step25 {transform: translateX(25600px);}
.step26 {transform: translateX(26624px);}
.step27 {transform: translateX(27648px);}
.step28 {transform: translateX(28672px);}
.step29 {transform: translateX(29696px);}
    </style>

    <path d="M 111 535 Q 121 480 123 423 Q 123 387 156 368 Q 172 358 182 380 Q 201 437 162 503 Q 149 531 130 548 Q 121 552 116 549 Q 110 545 111 535 Z" fill="lightgray" class="stroke step7"/>
    <path d="M 308 491 Q 371 525 392 539 Q 408 552 431 560 Q 450 567 441 583 Q 431 599 409 612 Q 388 625 377 624 Q 367 623 369 611 Q 369 592 309 520 C 290 497 282 477 308 491 Z" fill="lightgray" class="stroke step7"/>
    <path d="M 297 305 Q 297 317 308 491 L 309 520 Q 310 632 336 706 Q 343 721 332 732 Q 308 751 267 762 Q 240 769 232 762 Q 222 755 230 741 Q 288 654 248 304 Q 227 184 165 120 Q 132 89 81 56 Q 68 47 68 43 Q 69 39 82 39 Q 95 35 130 50 Q 244 89 284 227 Q 288 249 293 273 L 297 305 Z" fill="lightgray" class="stroke step7"/>
    <path d="M 293 273 Q 294 272 299 268 Q 326 243 354 213 Q 364 203 377 203 Q 384 203 389 213 Q 393 223 388 247 Q 382 277 297 305 C 269 314 270 292 293 273 Z" fill="lightgray" class="stroke step7"/>
    <path d="M 633 582 Q 843 625 850 632 Q 860 641 855 650 Q 848 663 815 672 Q 784 678 681 646 Q 588 622 496 614 Q 454 607 484 588 Q 520 567 563 570 L 633 582 Z" fill="lightgray" class="stroke step7"/>
    <path d="M 552 347 Q 586 414 632 520 Q 639 539 646 547 Q 653 554 650 563 Q 646 573 633 582 C 611 603 559 600 563 570 Q 579 504 506 355 L 488 320 Q 434 227 307 80 Q 300 73 311 72 Q 399 111 506 267 L 552 347 Z" fill="lightgray" class="stroke step7"/>
    <path d="M 506 355 Q 502 356 498 357 Q 485 361 481 355 Q 474 348 483 331 Q 484 327 488 320 L 506 267 Q 521 216 532 149 Q 535 115 554 93 Q 573 68 580 86 Q 584 99 584 121 L 581 159 Q 563 274 559 310 L 506 355 Z" fill="lightgray" class="stroke step7"/>
    <path d="M 801 187 Q 828 289 865 318 Q 884 339 867 359 Q 783 419 726 390 Q 657 365 552 347 C 519 341 524 305 559 310 Q 574 311 734 342 Q 752 346 759 339 Q 771 329 768 305 Q 758 242 746 191 C 739 162 793 158 801 187 Z" fill="lightgray" class="stroke step7"/>
    <path d="M 584 121 Q 594 120 606 122 Q 673 135 818 146 Q 830 147 831 157 Q 831 166 801 187 C 784 199 775 197 746 191 L 745 191 Q 654 169 581 159 C 551 155 554 122 584 121 Z" fill="lightgray" class="hide"/></g><g transform="scale(1, -1) translate(0, -900)">
    <style type="text/css">
        .origin {display:none;}
        .hide {display:none;}
        .stroke {fill: #000000;}
        
.step1 {transform: translateX(1024px);}
.step2 {transform: translateX(2048px);}
.step3 {transform: translateX(3072px);}
.step4 {transform: translateX(4096px);}
.step5 {transform: translateX(5120px);}
.step6 {transform: translateX(6144px);}
.step7 {transform: translateX(7168px);}
.step8 {transform: translateX(8192px);}
.step9 {transform: translateX(9216px);}
.step10 {transform: translateX(10240px);}
.step11 {transform: translateX(11264px);}
.step12 {transform: translateX(12288px);}
.step13 {transform: translateX(13312px);}
.step14 {transform: translateX(14336px);}
.step15 {transform: translateX(15360px);}
.step16 {transform: translateX(16384px);}
.step17 {transform: translateX(17408px);}
.step18 {transform: translateX(18432px);}
.step19 {transform: translateX(19456px);}
.step20 {transform: translateX(20480px);}
.step21 {transform: translateX(21504px);}
.step22 {transform: translateX(22528px);}
.step23 {transform: translateX(23552px);}
.step24 {transform: translateX(24576px);}
.step25 {transform: translateX(25600px);}
.step26 {transform: translateX(26624px);}
.step27 {transform: translateX(27648px);}
.step28 {transform: translateX(28672px);}
.step29 {transform: translateX(29696px);}
    </style>

    <path d="M 111 535 Q 121 480 123 423 Q 123 387 156 368 Q 172 358 182 380 Q 201 437 162 503 Q 149 531 130 548 Q 121 552 116 549 Q 110 545 111 535 Z" fill="lightgray" class="stroke step8"/>
    <path d="M 308 491 Q 371 525 392 539 Q 408 552 431 560 Q 450 567 441 583 Q 431 599 409 612 Q 388 625 377 624 Q 367 623 369 611 Q 369 592 309 520 C 290 497 282 477 308 491 Z" fill="lightgray" class="stroke step8"/>
    <path d="M 297 305 Q 297 317 308 491 L 309 520 Q 310 632 336 706 Q 343 721 332 732 Q 308 751 267 762 Q 240 769 232 762 Q 222 755 230 741 Q 288 654 248 304 Q 227 184 165 120 Q 132 89 81 56 Q 68 47 68 43 Q 69 39 82 39 Q 95 35 130 50 Q 244 89 284 227 Q 288 249 293 273 L 297 305 Z" fill="lightgray" class="stroke step8"/>
    <path d="M 293 273 Q 294 272 299 268 Q 326 243 354 213 Q 364 203 377 203 Q 384 203 389 213 Q 393 223 388 247 Q 382 277 297 305 C 269 314 270 292 293 273 Z" fill="lightgray" class="stroke step8"/>
    <path d="M 633 582 Q 843 625 850 632 Q 860 641 855 650 Q 848 663 815 672 Q 784 678 681 646 Q 588 622 496 614 Q 454 607 484 588 Q 520 567 563 570 L 633 582 Z" fill="lightgray" class="stroke step8"/>
    <path d="M 552 347 Q 586 414 632 520 Q 639 539 646 547 Q 653 554 650 563 Q 646 573 633 582 C 611 603 559 600 563 570 Q 579 504 506 355 L 488 320 Q 434 227 307 80 Q 300 73 311 72 Q 399 111 506 267 L 552 347 Z" fill="lightgray" class="stroke step8"/>
    <path d="M 506 355 Q 502 356 498 357 Q 485 361 481 355 Q 474 348 483 331 Q 484 327 488 320 L 506 267 Q 521 216 532 149 Q 535 115 554 93 Q 573 68 580 86 Q 584 99 584 121 L 581 159 Q 563 274 559 310 L 506 355 Z" fill="lightgray" class="stroke step8"/>
    <path d="M 801 187 Q 828 289 865 318 Q 884 339 867 359 Q 783 419 726 390 Q 657 365 552 347 C 519 341 524 305 559 310 Q 574 311 734 342 Q 752 346 759 339 Q 771 329 768 305 Q 758 242 746 191 C 739 162 793 158 801 187 Z" fill="lightgray" class="stroke step8"/>
    <path d="M 584 121 Q 594 120 606 122 Q 673 135 818 146 Q 830 147 831 157 Q 831 166 801 187 C 784 199 775 197 746 191 L 745 191 Q 654 169 581 159 C 551 155 554 122 584 121 Z" fill="lightgray" class="stroke step8"/></g></svg>