<svg version="1.1" viewBox="0 0 4096 1024" xmlns="http://www.w3.org/2000/svg">
  
  <g transform="scale(1, -1) translate(0, -900)" class="origin">
    <style type="text/css">
        .origin {display:none;}
        .hide {display:none;}
        .stroke {fill: #000000;}
        
.step1 {transform: translateX(1024px);}
.step2 {transform: translateX(2048px);}
.step3 {transform: translateX(3072px);}
.step4 {transform: translateX(4096px);}
.step5 {transform: translateX(5120px);}
.step6 {transform: translateX(6144px);}
.step7 {transform: translateX(7168px);}
.step8 {transform: translateX(8192px);}
.step9 {transform: translateX(9216px);}
.step10 {transform: translateX(10240px);}
.step11 {transform: translateX(11264px);}
.step12 {transform: translateX(12288px);}
.step13 {transform: translateX(13312px);}
.step14 {transform: translateX(14336px);}
.step15 {transform: translateX(15360px);}
.step16 {transform: translateX(16384px);}
.step17 {transform: translateX(17408px);}
.step18 {transform: translateX(18432px);}
.step19 {transform: translateX(19456px);}
.step20 {transform: translateX(20480px);}
.step21 {transform: translateX(21504px);}
.step22 {transform: translateX(22528px);}
.step23 {transform: translateX(23552px);}
.step24 {transform: translateX(24576px);}
.step25 {transform: translateX(25600px);}
.step26 {transform: translateX(26624px);}
.step27 {transform: translateX(27648px);}
.step28 {transform: translateX(28672px);}
.step29 {transform: translateX(29696px);}
    </style>

    <path d="M 343 575 Q 344 576 345 577 Q 369 617 390 649 Q 400 662 385 678 Q 337 711 311 706 Q 299 703 303 688 Q 321 615 236 498 Q 227 494 197 449 Q 188 433 204 438 Q 220 441 242 458 Q 297 501 331 554 L 343 575 Z" fill="lightgray"/>
    <path d="M 559 559 Q 736 596 742 601 Q 752 610 747 619 Q 740 632 708 640 Q 677 647 643 635 Q 601 622 561 610 L 504 597 Q 431 582 347 576 Q 343 576 343 575 C 313 571 310 571 331 554 Q 364 521 441 537 Q 471 543 503 548 L 559 559 Z" fill="lightgray"/>
    <path d="M 556 343 Q 676 356 843 356 Q 877 356 906 357 Q 931 357 936 368 Q 943 381 923 399 Q 853 451 786 429 Q 692 411 556 387 L 501 379 Q 326 354 119 327 Q 94 324 113 303 Q 129 287 152 281 Q 177 274 197 280 Q 318 314 455 331 Q 476 335 501 337 L 556 343 Z" fill="lightgray"/>
    <path d="M 501 337 Q 491 -35 512 -68 Q 527 -84 536 -62 Q 557 -14 556 343 L 556 387 Q 557 486 559 559 L 561 610 Q 564 746 584 778 Q 593 799 573 815 Q 548 834 503 847 Q 482 853 469 838 Q 459 829 472 817 Q 503 790 505 753 Q 505 692 504 597 L 503 548 Q 502 458 501 379 L 501 337 Z" fill="lightgray"/></g>
<g transform="scale(1, -1) translate(0, -900)">
    <style type="text/css">
        .origin {display:none;}
        .hide {display:none;}
        .stroke {fill: #000000;}
        
.step1 {transform: translateX(1024px);}
.step2 {transform: translateX(2048px);}
.step3 {transform: translateX(3072px);}
.step4 {transform: translateX(4096px);}
.step5 {transform: translateX(5120px);}
.step6 {transform: translateX(6144px);}
.step7 {transform: translateX(7168px);}
.step8 {transform: translateX(8192px);}
.step9 {transform: translateX(9216px);}
.step10 {transform: translateX(10240px);}
.step11 {transform: translateX(11264px);}
.step12 {transform: translateX(12288px);}
.step13 {transform: translateX(13312px);}
.step14 {transform: translateX(14336px);}
.step15 {transform: translateX(15360px);}
.step16 {transform: translateX(16384px);}
.step17 {transform: translateX(17408px);}
.step18 {transform: translateX(18432px);}
.step19 {transform: translateX(19456px);}
.step20 {transform: translateX(20480px);}
.step21 {transform: translateX(21504px);}
.step22 {transform: translateX(22528px);}
.step23 {transform: translateX(23552px);}
.step24 {transform: translateX(24576px);}
.step25 {transform: translateX(25600px);}
.step26 {transform: translateX(26624px);}
.step27 {transform: translateX(27648px);}
.step28 {transform: translateX(28672px);}
.step29 {transform: translateX(29696px);}
    </style>

    <path d="M 343 575 Q 344 576 345 577 Q 369 617 390 649 Q 400 662 385 678 Q 337 711 311 706 Q 299 703 303 688 Q 321 615 236 498 Q 227 494 197 449 Q 188 433 204 438 Q 220 441 242 458 Q 297 501 331 554 L 343 575 Z" fill="lightgray" class="stroke step0"/>
    <path d="M 559 559 Q 736 596 742 601 Q 752 610 747 619 Q 740 632 708 640 Q 677 647 643 635 Q 601 622 561 610 L 504 597 Q 431 582 347 576 Q 343 576 343 575 C 313 571 310 571 331 554 Q 364 521 441 537 Q 471 543 503 548 L 559 559 Z" fill="lightgray" class="hide"/>
    <path d="M 556 343 Q 676 356 843 356 Q 877 356 906 357 Q 931 357 936 368 Q 943 381 923 399 Q 853 451 786 429 Q 692 411 556 387 L 501 379 Q 326 354 119 327 Q 94 324 113 303 Q 129 287 152 281 Q 177 274 197 280 Q 318 314 455 331 Q 476 335 501 337 L 556 343 Z" fill="lightgray" class="hide"/>
    <path d="M 501 337 Q 491 -35 512 -68 Q 527 -84 536 -62 Q 557 -14 556 343 L 556 387 Q 557 486 559 559 L 561 610 Q 564 746 584 778 Q 593 799 573 815 Q 548 834 503 847 Q 482 853 469 838 Q 459 829 472 817 Q 503 790 505 753 Q 505 692 504 597 L 503 548 Q 502 458 501 379 L 501 337 Z" fill="lightgray" class="hide"/></g><g transform="scale(1, -1) translate(0, -900)">
    <style type="text/css">
        .origin {display:none;}
        .hide {display:none;}
        .stroke {fill: #000000;}
        
.step1 {transform: translateX(1024px);}
.step2 {transform: translateX(2048px);}
.step3 {transform: translateX(3072px);}
.step4 {transform: translateX(4096px);}
.step5 {transform: translateX(5120px);}
.step6 {transform: translateX(6144px);}
.step7 {transform: translateX(7168px);}
.step8 {transform: translateX(8192px);}
.step9 {transform: translateX(9216px);}
.step10 {transform: translateX(10240px);}
.step11 {transform: translateX(11264px);}
.step12 {transform: translateX(12288px);}
.step13 {transform: translateX(13312px);}
.step14 {transform: translateX(14336px);}
.step15 {transform: translateX(15360px);}
.step16 {transform: translateX(16384px);}
.step17 {transform: translateX(17408px);}
.step18 {transform: translateX(18432px);}
.step19 {transform: translateX(19456px);}
.step20 {transform: translateX(20480px);}
.step21 {transform: translateX(21504px);}
.step22 {transform: translateX(22528px);}
.step23 {transform: translateX(23552px);}
.step24 {transform: translateX(24576px);}
.step25 {transform: translateX(25600px);}
.step26 {transform: translateX(26624px);}
.step27 {transform: translateX(27648px);}
.step28 {transform: translateX(28672px);}
.step29 {transform: translateX(29696px);}
    </style>

    <path d="M 343 575 Q 344 576 345 577 Q 369 617 390 649 Q 400 662 385 678 Q 337 711 311 706 Q 299 703 303 688 Q 321 615 236 498 Q 227 494 197 449 Q 188 433 204 438 Q 220 441 242 458 Q 297 501 331 554 L 343 575 Z" fill="lightgray" class="stroke step1"/>
    <path d="M 559 559 Q 736 596 742 601 Q 752 610 747 619 Q 740 632 708 640 Q 677 647 643 635 Q 601 622 561 610 L 504 597 Q 431 582 347 576 Q 343 576 343 575 C 313 571 310 571 331 554 Q 364 521 441 537 Q 471 543 503 548 L 559 559 Z" fill="lightgray" class="stroke step1"/>
    <path d="M 556 343 Q 676 356 843 356 Q 877 356 906 357 Q 931 357 936 368 Q 943 381 923 399 Q 853 451 786 429 Q 692 411 556 387 L 501 379 Q 326 354 119 327 Q 94 324 113 303 Q 129 287 152 281 Q 177 274 197 280 Q 318 314 455 331 Q 476 335 501 337 L 556 343 Z" fill="lightgray" class="hide"/>
    <path d="M 501 337 Q 491 -35 512 -68 Q 527 -84 536 -62 Q 557 -14 556 343 L 556 387 Q 557 486 559 559 L 561 610 Q 564 746 584 778 Q 593 799 573 815 Q 548 834 503 847 Q 482 853 469 838 Q 459 829 472 817 Q 503 790 505 753 Q 505 692 504 597 L 503 548 Q 502 458 501 379 L 501 337 Z" fill="lightgray" class="hide"/></g><g transform="scale(1, -1) translate(0, -900)">
    <style type="text/css">
        .origin {display:none;}
        .hide {display:none;}
        .stroke {fill: #000000;}
        
.step1 {transform: translateX(1024px);}
.step2 {transform: translateX(2048px);}
.step3 {transform: translateX(3072px);}
.step4 {transform: translateX(4096px);}
.step5 {transform: translateX(5120px);}
.step6 {transform: translateX(6144px);}
.step7 {transform: translateX(7168px);}
.step8 {transform: translateX(8192px);}
.step9 {transform: translateX(9216px);}
.step10 {transform: translateX(10240px);}
.step11 {transform: translateX(11264px);}
.step12 {transform: translateX(12288px);}
.step13 {transform: translateX(13312px);}
.step14 {transform: translateX(14336px);}
.step15 {transform: translateX(15360px);}
.step16 {transform: translateX(16384px);}
.step17 {transform: translateX(17408px);}
.step18 {transform: translateX(18432px);}
.step19 {transform: translateX(19456px);}
.step20 {transform: translateX(20480px);}
.step21 {transform: translateX(21504px);}
.step22 {transform: translateX(22528px);}
.step23 {transform: translateX(23552px);}
.step24 {transform: translateX(24576px);}
.step25 {transform: translateX(25600px);}
.step26 {transform: translateX(26624px);}
.step27 {transform: translateX(27648px);}
.step28 {transform: translateX(28672px);}
.step29 {transform: translateX(29696px);}
    </style>

    <path d="M 343 575 Q 344 576 345 577 Q 369 617 390 649 Q 400 662 385 678 Q 337 711 311 706 Q 299 703 303 688 Q 321 615 236 498 Q 227 494 197 449 Q 188 433 204 438 Q 220 441 242 458 Q 297 501 331 554 L 343 575 Z" fill="lightgray" class="stroke step2"/>
    <path d="M 559 559 Q 736 596 742 601 Q 752 610 747 619 Q 740 632 708 640 Q 677 647 643 635 Q 601 622 561 610 L 504 597 Q 431 582 347 576 Q 343 576 343 575 C 313 571 310 571 331 554 Q 364 521 441 537 Q 471 543 503 548 L 559 559 Z" fill="lightgray" class="stroke step2"/>
    <path d="M 556 343 Q 676 356 843 356 Q 877 356 906 357 Q 931 357 936 368 Q 943 381 923 399 Q 853 451 786 429 Q 692 411 556 387 L 501 379 Q 326 354 119 327 Q 94 324 113 303 Q 129 287 152 281 Q 177 274 197 280 Q 318 314 455 331 Q 476 335 501 337 L 556 343 Z" fill="lightgray" class="stroke step2"/>
    <path d="M 501 337 Q 491 -35 512 -68 Q 527 -84 536 -62 Q 557 -14 556 343 L 556 387 Q 557 486 559 559 L 561 610 Q 564 746 584 778 Q 593 799 573 815 Q 548 834 503 847 Q 482 853 469 838 Q 459 829 472 817 Q 503 790 505 753 Q 505 692 504 597 L 503 548 Q 502 458 501 379 L 501 337 Z" fill="lightgray" class="hide"/></g><g transform="scale(1, -1) translate(0, -900)">
    <style type="text/css">
        .origin {display:none;}
        .hide {display:none;}
        .stroke {fill: #000000;}
        
.step1 {transform: translateX(1024px);}
.step2 {transform: translateX(2048px);}
.step3 {transform: translateX(3072px);}
.step4 {transform: translateX(4096px);}
.step5 {transform: translateX(5120px);}
.step6 {transform: translateX(6144px);}
.step7 {transform: translateX(7168px);}
.step8 {transform: translateX(8192px);}
.step9 {transform: translateX(9216px);}
.step10 {transform: translateX(10240px);}
.step11 {transform: translateX(11264px);}
.step12 {transform: translateX(12288px);}
.step13 {transform: translateX(13312px);}
.step14 {transform: translateX(14336px);}
.step15 {transform: translateX(15360px);}
.step16 {transform: translateX(16384px);}
.step17 {transform: translateX(17408px);}
.step18 {transform: translateX(18432px);}
.step19 {transform: translateX(19456px);}
.step20 {transform: translateX(20480px);}
.step21 {transform: translateX(21504px);}
.step22 {transform: translateX(22528px);}
.step23 {transform: translateX(23552px);}
.step24 {transform: translateX(24576px);}
.step25 {transform: translateX(25600px);}
.step26 {transform: translateX(26624px);}
.step27 {transform: translateX(27648px);}
.step28 {transform: translateX(28672px);}
.step29 {transform: translateX(29696px);}
    </style>

    <path d="M 343 575 Q 344 576 345 577 Q 369 617 390 649 Q 400 662 385 678 Q 337 711 311 706 Q 299 703 303 688 Q 321 615 236 498 Q 227 494 197 449 Q 188 433 204 438 Q 220 441 242 458 Q 297 501 331 554 L 343 575 Z" fill="lightgray" class="stroke step3"/>
    <path d="M 559 559 Q 736 596 742 601 Q 752 610 747 619 Q 740 632 708 640 Q 677 647 643 635 Q 601 622 561 610 L 504 597 Q 431 582 347 576 Q 343 576 343 575 C 313 571 310 571 331 554 Q 364 521 441 537 Q 471 543 503 548 L 559 559 Z" fill="lightgray" class="stroke step3"/>
    <path d="M 556 343 Q 676 356 843 356 Q 877 356 906 357 Q 931 357 936 368 Q 943 381 923 399 Q 853 451 786 429 Q 692 411 556 387 L 501 379 Q 326 354 119 327 Q 94 324 113 303 Q 129 287 152 281 Q 177 274 197 280 Q 318 314 455 331 Q 476 335 501 337 L 556 343 Z" fill="lightgray" class="stroke step3"/>
    <path d="M 501 337 Q 491 -35 512 -68 Q 527 -84 536 -62 Q 557 -14 556 343 L 556 387 Q 557 486 559 559 L 561 610 Q 564 746 584 778 Q 593 799 573 815 Q 548 834 503 847 Q 482 853 469 838 Q 459 829 472 817 Q 503 790 505 753 Q 505 692 504 597 L 503 548 Q 502 458 501 379 L 501 337 Z" fill="lightgray" class="stroke step3"/></g></svg>