<svg version="1.1" viewBox="0 0 4096 1024" xmlns="http://www.w3.org/2000/svg">
  
  <g transform="scale(1, -1) translate(0, -900)" class="origin">
    <style type="text/css">
        .origin {display:none;}
        .hide {display:none;}
        .stroke {fill: #000000;}
        
.step1 {transform: translateX(1024px);}
.step2 {transform: translateX(2048px);}
.step3 {transform: translateX(3072px);}
.step4 {transform: translateX(4096px);}
.step5 {transform: translateX(5120px);}
.step6 {transform: translateX(6144px);}
.step7 {transform: translateX(7168px);}
.step8 {transform: translateX(8192px);}
.step9 {transform: translateX(9216px);}
.step10 {transform: translateX(10240px);}
.step11 {transform: translateX(11264px);}
.step12 {transform: translateX(12288px);}
.step13 {transform: translateX(13312px);}
.step14 {transform: translateX(14336px);}
.step15 {transform: translateX(15360px);}
.step16 {transform: translateX(16384px);}
.step17 {transform: translateX(17408px);}
.step18 {transform: translateX(18432px);}
.step19 {transform: translateX(19456px);}
.step20 {transform: translateX(20480px);}
.step21 {transform: translateX(21504px);}
.step22 {transform: translateX(22528px);}
.step23 {transform: translateX(23552px);}
.step24 {transform: translateX(24576px);}
.step25 {transform: translateX(25600px);}
.step26 {transform: translateX(26624px);}
.step27 {transform: translateX(27648px);}
.step28 {transform: translateX(28672px);}
.step29 {transform: translateX(29696px);}
    </style>

    <path d="M 508 463 Q 578 478 751 497 Q 764 496 776 511 Q 777 526 749 539 Q 706 564 635 543 Q 578 530 519 516 Q 516 516 514 514 L 454 502 Q 388 492 214 471 Q 178 467 205 446 Q 247 413 281 421 Q 356 437 447 453 L 508 463 Z" fill="lightgray"/>
    <path d="M 505 450 Q 506 457 508 463 L 514 514 Q 524 700 544 757 Q 551 770 540 779 Q 521 797 480 813 Q 456 823 438 818 Q 416 809 434 790 Q 465 757 465 723 Q 465 599 454 502 L 447 453 Q 423 321 389 256 Q 338 178 318 159 Q 224 84 166 49 Q 139 40 134 30 Q 130 23 147 22 Q 163 21 227 46 Q 273 62 340 111 Q 448 190 492 380 Q 493 390 497 400 L 505 450 Z" fill="lightgray"/>
    <path d="M 497 400 Q 519 355 582 253 Q 661 124 722 50 Q 749 13 778 12 Q 866 12 942 10 Q 975 9 975 17 Q 978 26 943 44 Q 766 123 722 172 Q 593 305 505 450 C 489 476 483 427 497 400 Z" fill="lightgray"/>
    <path d="M 697 676 Q 728 654 761 628 Q 779 615 796 618 Q 809 619 812 636 Q 816 654 801 686 Q 788 716 684 729 Q 666 732 660 727 Q 654 723 658 708 Q 664 695 697 676 Z" fill="lightgray"/></g>
<g transform="scale(1, -1) translate(0, -900)">
    <style type="text/css">
        .origin {display:none;}
        .hide {display:none;}
        .stroke {fill: #000000;}
        
.step1 {transform: translateX(1024px);}
.step2 {transform: translateX(2048px);}
.step3 {transform: translateX(3072px);}
.step4 {transform: translateX(4096px);}
.step5 {transform: translateX(5120px);}
.step6 {transform: translateX(6144px);}
.step7 {transform: translateX(7168px);}
.step8 {transform: translateX(8192px);}
.step9 {transform: translateX(9216px);}
.step10 {transform: translateX(10240px);}
.step11 {transform: translateX(11264px);}
.step12 {transform: translateX(12288px);}
.step13 {transform: translateX(13312px);}
.step14 {transform: translateX(14336px);}
.step15 {transform: translateX(15360px);}
.step16 {transform: translateX(16384px);}
.step17 {transform: translateX(17408px);}
.step18 {transform: translateX(18432px);}
.step19 {transform: translateX(19456px);}
.step20 {transform: translateX(20480px);}
.step21 {transform: translateX(21504px);}
.step22 {transform: translateX(22528px);}
.step23 {transform: translateX(23552px);}
.step24 {transform: translateX(24576px);}
.step25 {transform: translateX(25600px);}
.step26 {transform: translateX(26624px);}
.step27 {transform: translateX(27648px);}
.step28 {transform: translateX(28672px);}
.step29 {transform: translateX(29696px);}
    </style>

    <path d="M 508 463 Q 578 478 751 497 Q 764 496 776 511 Q 777 526 749 539 Q 706 564 635 543 Q 578 530 519 516 Q 516 516 514 514 L 454 502 Q 388 492 214 471 Q 178 467 205 446 Q 247 413 281 421 Q 356 437 447 453 L 508 463 Z" fill="lightgray" class="stroke step0"/>
    <path d="M 505 450 Q 506 457 508 463 L 514 514 Q 524 700 544 757 Q 551 770 540 779 Q 521 797 480 813 Q 456 823 438 818 Q 416 809 434 790 Q 465 757 465 723 Q 465 599 454 502 L 447 453 Q 423 321 389 256 Q 338 178 318 159 Q 224 84 166 49 Q 139 40 134 30 Q 130 23 147 22 Q 163 21 227 46 Q 273 62 340 111 Q 448 190 492 380 Q 493 390 497 400 L 505 450 Z" fill="lightgray" class="hide"/>
    <path d="M 497 400 Q 519 355 582 253 Q 661 124 722 50 Q 749 13 778 12 Q 866 12 942 10 Q 975 9 975 17 Q 978 26 943 44 Q 766 123 722 172 Q 593 305 505 450 C 489 476 483 427 497 400 Z" fill="lightgray" class="hide"/>
    <path d="M 697 676 Q 728 654 761 628 Q 779 615 796 618 Q 809 619 812 636 Q 816 654 801 686 Q 788 716 684 729 Q 666 732 660 727 Q 654 723 658 708 Q 664 695 697 676 Z" fill="lightgray" class="hide"/></g><g transform="scale(1, -1) translate(0, -900)">
    <style type="text/css">
        .origin {display:none;}
        .hide {display:none;}
        .stroke {fill: #000000;}
        
.step1 {transform: translateX(1024px);}
.step2 {transform: translateX(2048px);}
.step3 {transform: translateX(3072px);}
.step4 {transform: translateX(4096px);}
.step5 {transform: translateX(5120px);}
.step6 {transform: translateX(6144px);}
.step7 {transform: translateX(7168px);}
.step8 {transform: translateX(8192px);}
.step9 {transform: translateX(9216px);}
.step10 {transform: translateX(10240px);}
.step11 {transform: translateX(11264px);}
.step12 {transform: translateX(12288px);}
.step13 {transform: translateX(13312px);}
.step14 {transform: translateX(14336px);}
.step15 {transform: translateX(15360px);}
.step16 {transform: translateX(16384px);}
.step17 {transform: translateX(17408px);}
.step18 {transform: translateX(18432px);}
.step19 {transform: translateX(19456px);}
.step20 {transform: translateX(20480px);}
.step21 {transform: translateX(21504px);}
.step22 {transform: translateX(22528px);}
.step23 {transform: translateX(23552px);}
.step24 {transform: translateX(24576px);}
.step25 {transform: translateX(25600px);}
.step26 {transform: translateX(26624px);}
.step27 {transform: translateX(27648px);}
.step28 {transform: translateX(28672px);}
.step29 {transform: translateX(29696px);}
    </style>

    <path d="M 508 463 Q 578 478 751 497 Q 764 496 776 511 Q 777 526 749 539 Q 706 564 635 543 Q 578 530 519 516 Q 516 516 514 514 L 454 502 Q 388 492 214 471 Q 178 467 205 446 Q 247 413 281 421 Q 356 437 447 453 L 508 463 Z" fill="lightgray" class="stroke step1"/>
    <path d="M 505 450 Q 506 457 508 463 L 514 514 Q 524 700 544 757 Q 551 770 540 779 Q 521 797 480 813 Q 456 823 438 818 Q 416 809 434 790 Q 465 757 465 723 Q 465 599 454 502 L 447 453 Q 423 321 389 256 Q 338 178 318 159 Q 224 84 166 49 Q 139 40 134 30 Q 130 23 147 22 Q 163 21 227 46 Q 273 62 340 111 Q 448 190 492 380 Q 493 390 497 400 L 505 450 Z" fill="lightgray" class="stroke step1"/>
    <path d="M 497 400 Q 519 355 582 253 Q 661 124 722 50 Q 749 13 778 12 Q 866 12 942 10 Q 975 9 975 17 Q 978 26 943 44 Q 766 123 722 172 Q 593 305 505 450 C 489 476 483 427 497 400 Z" fill="lightgray" class="hide"/>
    <path d="M 697 676 Q 728 654 761 628 Q 779 615 796 618 Q 809 619 812 636 Q 816 654 801 686 Q 788 716 684 729 Q 666 732 660 727 Q 654 723 658 708 Q 664 695 697 676 Z" fill="lightgray" class="hide"/></g><g transform="scale(1, -1) translate(0, -900)">
    <style type="text/css">
        .origin {display:none;}
        .hide {display:none;}
        .stroke {fill: #000000;}
        
.step1 {transform: translateX(1024px);}
.step2 {transform: translateX(2048px);}
.step3 {transform: translateX(3072px);}
.step4 {transform: translateX(4096px);}
.step5 {transform: translateX(5120px);}
.step6 {transform: translateX(6144px);}
.step7 {transform: translateX(7168px);}
.step8 {transform: translateX(8192px);}
.step9 {transform: translateX(9216px);}
.step10 {transform: translateX(10240px);}
.step11 {transform: translateX(11264px);}
.step12 {transform: translateX(12288px);}
.step13 {transform: translateX(13312px);}
.step14 {transform: translateX(14336px);}
.step15 {transform: translateX(15360px);}
.step16 {transform: translateX(16384px);}
.step17 {transform: translateX(17408px);}
.step18 {transform: translateX(18432px);}
.step19 {transform: translateX(19456px);}
.step20 {transform: translateX(20480px);}
.step21 {transform: translateX(21504px);}
.step22 {transform: translateX(22528px);}
.step23 {transform: translateX(23552px);}
.step24 {transform: translateX(24576px);}
.step25 {transform: translateX(25600px);}
.step26 {transform: translateX(26624px);}
.step27 {transform: translateX(27648px);}
.step28 {transform: translateX(28672px);}
.step29 {transform: translateX(29696px);}
    </style>

    <path d="M 508 463 Q 578 478 751 497 Q 764 496 776 511 Q 777 526 749 539 Q 706 564 635 543 Q 578 530 519 516 Q 516 516 514 514 L 454 502 Q 388 492 214 471 Q 178 467 205 446 Q 247 413 281 421 Q 356 437 447 453 L 508 463 Z" fill="lightgray" class="stroke step2"/>
    <path d="M 505 450 Q 506 457 508 463 L 514 514 Q 524 700 544 757 Q 551 770 540 779 Q 521 797 480 813 Q 456 823 438 818 Q 416 809 434 790 Q 465 757 465 723 Q 465 599 454 502 L 447 453 Q 423 321 389 256 Q 338 178 318 159 Q 224 84 166 49 Q 139 40 134 30 Q 130 23 147 22 Q 163 21 227 46 Q 273 62 340 111 Q 448 190 492 380 Q 493 390 497 400 L 505 450 Z" fill="lightgray" class="stroke step2"/>
    <path d="M 497 400 Q 519 355 582 253 Q 661 124 722 50 Q 749 13 778 12 Q 866 12 942 10 Q 975 9 975 17 Q 978 26 943 44 Q 766 123 722 172 Q 593 305 505 450 C 489 476 483 427 497 400 Z" fill="lightgray" class="stroke step2"/>
    <path d="M 697 676 Q 728 654 761 628 Q 779 615 796 618 Q 809 619 812 636 Q 816 654 801 686 Q 788 716 684 729 Q 666 732 660 727 Q 654 723 658 708 Q 664 695 697 676 Z" fill="lightgray" class="hide"/></g><g transform="scale(1, -1) translate(0, -900)">
    <style type="text/css">
        .origin {display:none;}
        .hide {display:none;}
        .stroke {fill: #000000;}
        
.step1 {transform: translateX(1024px);}
.step2 {transform: translateX(2048px);}
.step3 {transform: translateX(3072px);}
.step4 {transform: translateX(4096px);}
.step5 {transform: translateX(5120px);}
.step6 {transform: translateX(6144px);}
.step7 {transform: translateX(7168px);}
.step8 {transform: translateX(8192px);}
.step9 {transform: translateX(9216px);}
.step10 {transform: translateX(10240px);}
.step11 {transform: translateX(11264px);}
.step12 {transform: translateX(12288px);}
.step13 {transform: translateX(13312px);}
.step14 {transform: translateX(14336px);}
.step15 {transform: translateX(15360px);}
.step16 {transform: translateX(16384px);}
.step17 {transform: translateX(17408px);}
.step18 {transform: translateX(18432px);}
.step19 {transform: translateX(19456px);}
.step20 {transform: translateX(20480px);}
.step21 {transform: translateX(21504px);}
.step22 {transform: translateX(22528px);}
.step23 {transform: translateX(23552px);}
.step24 {transform: translateX(24576px);}
.step25 {transform: translateX(25600px);}
.step26 {transform: translateX(26624px);}
.step27 {transform: translateX(27648px);}
.step28 {transform: translateX(28672px);}
.step29 {transform: translateX(29696px);}
    </style>

    <path d="M 508 463 Q 578 478 751 497 Q 764 496 776 511 Q 777 526 749 539 Q 706 564 635 543 Q 578 530 519 516 Q 516 516 514 514 L 454 502 Q 388 492 214 471 Q 178 467 205 446 Q 247 413 281 421 Q 356 437 447 453 L 508 463 Z" fill="lightgray" class="stroke step3"/>
    <path d="M 505 450 Q 506 457 508 463 L 514 514 Q 524 700 544 757 Q 551 770 540 779 Q 521 797 480 813 Q 456 823 438 818 Q 416 809 434 790 Q 465 757 465 723 Q 465 599 454 502 L 447 453 Q 423 321 389 256 Q 338 178 318 159 Q 224 84 166 49 Q 139 40 134 30 Q 130 23 147 22 Q 163 21 227 46 Q 273 62 340 111 Q 448 190 492 380 Q 493 390 497 400 L 505 450 Z" fill="lightgray" class="stroke step3"/>
    <path d="M 497 400 Q 519 355 582 253 Q 661 124 722 50 Q 749 13 778 12 Q 866 12 942 10 Q 975 9 975 17 Q 978 26 943 44 Q 766 123 722 172 Q 593 305 505 450 C 489 476 483 427 497 400 Z" fill="lightgray" class="stroke step3"/>
    <path d="M 697 676 Q 728 654 761 628 Q 779 615 796 618 Q 809 619 812 636 Q 816 654 801 686 Q 788 716 684 729 Q 666 732 660 727 Q 654 723 658 708 Q 664 695 697 676 Z" fill="lightgray" class="stroke step3"/></g></svg>