<svg version="1.1" viewBox="0 0 11264 1024" xmlns="http://www.w3.org/2000/svg">
  
  <g transform="scale(1, -1) translate(0, -900)" class="origin">
    <style type="text/css">
        .origin {display:none;}
        .hide {display:none;}
        .stroke {fill: #000000;}
        
.step1 {transform: translateX(1024px);}
.step2 {transform: translateX(2048px);}
.step3 {transform: translateX(3072px);}
.step4 {transform: translateX(4096px);}
.step5 {transform: translateX(5120px);}
.step6 {transform: translateX(6144px);}
.step7 {transform: translateX(7168px);}
.step8 {transform: translateX(8192px);}
.step9 {transform: translateX(9216px);}
.step10 {transform: translateX(10240px);}
.step11 {transform: translateX(11264px);}
.step12 {transform: translateX(12288px);}
.step13 {transform: translateX(13312px);}
.step14 {transform: translateX(14336px);}
.step15 {transform: translateX(15360px);}
.step16 {transform: translateX(16384px);}
.step17 {transform: translateX(17408px);}
.step18 {transform: translateX(18432px);}
.step19 {transform: translateX(19456px);}
.step20 {transform: translateX(20480px);}
.step21 {transform: translateX(21504px);}
.step22 {transform: translateX(22528px);}
.step23 {transform: translateX(23552px);}
.step24 {transform: translateX(24576px);}
.step25 {transform: translateX(25600px);}
.step26 {transform: translateX(26624px);}
.step27 {transform: translateX(27648px);}
.step28 {transform: translateX(28672px);}
.step29 {transform: translateX(29696px);}
    </style>

    <path d="M 314 596 Q 327 614 339 631 Q 376 683 409 726 Q 421 739 407 755 Q 364 794 337 792 Q 325 791 327 775 Q 328 712 281 635 L 251 594 Q 218 549 178 514 Q 141 483 122 465 Q 112 449 129 453 Q 183 456 279 556 L 314 596 Z" fill="lightgray"/>
    <path d="M 322 409 Q 344 280 298 121 Q 295 118 295 113 Q 288 97 279 95 Q 263 94 222 107 Q 191 119 186 112 Q 182 106 192 93 Q 232 54 258 19 Q 277 -11 288 -10 Q 297 -11 314 7 Q 393 89 375 363 Q 374 370 374 376 Q 362 521 314 596 L 281 635 Q 227 683 168 704 Q 153 711 150 699 Q 147 684 156 664 Q 166 645 186 643 Q 219 631 251 594 L 279 556 Q 297 526 306 489 L 322 409 Z" fill="lightgray"/>
    <path d="M 306 489 Q 270 416 224 351 Q 175 285 64 167 Q 57 157 69 155 Q 91 151 207 261 Q 265 316 321 407 Q 321 408 322 409 C 337 435 319 516 306 489 Z" fill="lightgray"/>
    <path d="M 755 590 Q 812 602 912 596 Q 927 595 932 605 Q 936 615 923 630 Q 877 669 781 644 Q 775 644 770 642 L 713 630 Q 647 620 573 606 L 523 598 Q 465 591 402 582 Q 374 578 394 563 Q 436 539 494 550 Q 510 556 530 559 L 574 569 Q 596 576 705 586 L 755 590 Z" fill="lightgray"/>
    <path d="M 573 606 Q 572 631 572 654 Q 575 673 555 681 Q 515 702 494 696 Q 476 689 490 668 Q 512 635 523 598 L 530 559 Q 536 522 539 488 Q 543 466 556 452 Q 569 440 574 452 Q 581 471 578 494 Q 577 534 574 569 L 573 606 Z" fill="lightgray"/>
    <path d="M 770 642 Q 776 679 805 745 Q 818 763 806 773 Q 791 789 752 805 Q 733 814 714 803 Q 704 796 713 783 Q 728 753 726 716 Q 722 679 713 630 L 705 586 Q 681 487 685 464 Q 688 448 704 462 Q 722 480 755 590 L 770 642 Z" fill="lightgray"/>
    <path d="M 461 378 Q 442 390 422 396 Q 415 399 410 393 Q 401 387 411 376 Q 450 304 455 141 Q 458 72 495 48 L 496 47 Q 512 41 515 73 Q 515 77 515 82 L 513 111 Q 512 127 507 145 Q 495 289 493 341 C 492 360 487 363 461 378 Z" fill="lightgray"/>
    <path d="M 749 104 Q 759 79 784 29 Q 793 11 803 12 Q 819 15 828 41 Q 859 102 875 291 Q 879 340 903 370 Q 919 391 908 404 Q 886 426 838 446 Q 819 456 787 444 Q 661 399 461 378 C 431 375 464 333 493 341 Q 508 347 607 364 L 648 372 Q 702 385 766 395 Q 794 401 807 387 Q 832 341 795 144 Q 794 126 786 124 Q 785 123 777 124 C 752 107 749 104 749 104 Z" fill="lightgray"/>
    <path d="M 665 232 Q 702 239 737 242 Q 762 246 753 260 Q 743 276 715 280 Q 696 284 667 277 L 618 264 Q 573 252 536 242 Q 518 238 540 222 Q 549 215 569 218 Q 594 222 619 225 L 665 232 Z" fill="lightgray"/>
    <path d="M 660 134 Q 661 186 665 232 L 667 277 Q 673 355 661 361 Q 654 368 648 372 C 624 390 600 393 607 364 Q 614 336 618 270 Q 617 269 618 264 L 619 225 Q 619 185 620 127 C 621 97 659 104 660 134 Z" fill="lightgray"/>
    <path d="M 515 82 Q 522 82 531 82 Q 655 97 749 104 C 779 106 792 107 777 124 Q 768 137 748 142 Q 712 149 660 134 L 620 127 Q 563 120 513 111 C 483 106 485 82 515 82 Z" fill="lightgray"/></g>
<g transform="scale(1, -1) translate(0, -900)">
    <style type="text/css">
        .origin {display:none;}
        .hide {display:none;}
        .stroke {fill: #000000;}
        
.step1 {transform: translateX(1024px);}
.step2 {transform: translateX(2048px);}
.step3 {transform: translateX(3072px);}
.step4 {transform: translateX(4096px);}
.step5 {transform: translateX(5120px);}
.step6 {transform: translateX(6144px);}
.step7 {transform: translateX(7168px);}
.step8 {transform: translateX(8192px);}
.step9 {transform: translateX(9216px);}
.step10 {transform: translateX(10240px);}
.step11 {transform: translateX(11264px);}
.step12 {transform: translateX(12288px);}
.step13 {transform: translateX(13312px);}
.step14 {transform: translateX(14336px);}
.step15 {transform: translateX(15360px);}
.step16 {transform: translateX(16384px);}
.step17 {transform: translateX(17408px);}
.step18 {transform: translateX(18432px);}
.step19 {transform: translateX(19456px);}
.step20 {transform: translateX(20480px);}
.step21 {transform: translateX(21504px);}
.step22 {transform: translateX(22528px);}
.step23 {transform: translateX(23552px);}
.step24 {transform: translateX(24576px);}
.step25 {transform: translateX(25600px);}
.step26 {transform: translateX(26624px);}
.step27 {transform: translateX(27648px);}
.step28 {transform: translateX(28672px);}
.step29 {transform: translateX(29696px);}
    </style>

    <path d="M 314 596 Q 327 614 339 631 Q 376 683 409 726 Q 421 739 407 755 Q 364 794 337 792 Q 325 791 327 775 Q 328 712 281 635 L 251 594 Q 218 549 178 514 Q 141 483 122 465 Q 112 449 129 453 Q 183 456 279 556 L 314 596 Z" fill="lightgray" class="stroke step0"/>
    <path d="M 322 409 Q 344 280 298 121 Q 295 118 295 113 Q 288 97 279 95 Q 263 94 222 107 Q 191 119 186 112 Q 182 106 192 93 Q 232 54 258 19 Q 277 -11 288 -10 Q 297 -11 314 7 Q 393 89 375 363 Q 374 370 374 376 Q 362 521 314 596 L 281 635 Q 227 683 168 704 Q 153 711 150 699 Q 147 684 156 664 Q 166 645 186 643 Q 219 631 251 594 L 279 556 Q 297 526 306 489 L 322 409 Z" fill="lightgray" class="hide"/>
    <path d="M 306 489 Q 270 416 224 351 Q 175 285 64 167 Q 57 157 69 155 Q 91 151 207 261 Q 265 316 321 407 Q 321 408 322 409 C 337 435 319 516 306 489 Z" fill="lightgray" class="hide"/>
    <path d="M 755 590 Q 812 602 912 596 Q 927 595 932 605 Q 936 615 923 630 Q 877 669 781 644 Q 775 644 770 642 L 713 630 Q 647 620 573 606 L 523 598 Q 465 591 402 582 Q 374 578 394 563 Q 436 539 494 550 Q 510 556 530 559 L 574 569 Q 596 576 705 586 L 755 590 Z" fill="lightgray" class="hide"/>
    <path d="M 573 606 Q 572 631 572 654 Q 575 673 555 681 Q 515 702 494 696 Q 476 689 490 668 Q 512 635 523 598 L 530 559 Q 536 522 539 488 Q 543 466 556 452 Q 569 440 574 452 Q 581 471 578 494 Q 577 534 574 569 L 573 606 Z" fill="lightgray" class="hide"/>
    <path d="M 770 642 Q 776 679 805 745 Q 818 763 806 773 Q 791 789 752 805 Q 733 814 714 803 Q 704 796 713 783 Q 728 753 726 716 Q 722 679 713 630 L 705 586 Q 681 487 685 464 Q 688 448 704 462 Q 722 480 755 590 L 770 642 Z" fill="lightgray" class="hide"/>
    <path d="M 461 378 Q 442 390 422 396 Q 415 399 410 393 Q 401 387 411 376 Q 450 304 455 141 Q 458 72 495 48 L 496 47 Q 512 41 515 73 Q 515 77 515 82 L 513 111 Q 512 127 507 145 Q 495 289 493 341 C 492 360 487 363 461 378 Z" fill="lightgray" class="hide"/>
    <path d="M 749 104 Q 759 79 784 29 Q 793 11 803 12 Q 819 15 828 41 Q 859 102 875 291 Q 879 340 903 370 Q 919 391 908 404 Q 886 426 838 446 Q 819 456 787 444 Q 661 399 461 378 C 431 375 464 333 493 341 Q 508 347 607 364 L 648 372 Q 702 385 766 395 Q 794 401 807 387 Q 832 341 795 144 Q 794 126 786 124 Q 785 123 777 124 C 752 107 749 104 749 104 Z" fill="lightgray" class="hide"/>
    <path d="M 665 232 Q 702 239 737 242 Q 762 246 753 260 Q 743 276 715 280 Q 696 284 667 277 L 618 264 Q 573 252 536 242 Q 518 238 540 222 Q 549 215 569 218 Q 594 222 619 225 L 665 232 Z" fill="lightgray" class="hide"/>
    <path d="M 660 134 Q 661 186 665 232 L 667 277 Q 673 355 661 361 Q 654 368 648 372 C 624 390 600 393 607 364 Q 614 336 618 270 Q 617 269 618 264 L 619 225 Q 619 185 620 127 C 621 97 659 104 660 134 Z" fill="lightgray" class="hide"/>
    <path d="M 515 82 Q 522 82 531 82 Q 655 97 749 104 C 779 106 792 107 777 124 Q 768 137 748 142 Q 712 149 660 134 L 620 127 Q 563 120 513 111 C 483 106 485 82 515 82 Z" fill="lightgray" class="hide"/></g><g transform="scale(1, -1) translate(0, -900)">
    <style type="text/css">
        .origin {display:none;}
        .hide {display:none;}
        .stroke {fill: #000000;}
        
.step1 {transform: translateX(1024px);}
.step2 {transform: translateX(2048px);}
.step3 {transform: translateX(3072px);}
.step4 {transform: translateX(4096px);}
.step5 {transform: translateX(5120px);}
.step6 {transform: translateX(6144px);}
.step7 {transform: translateX(7168px);}
.step8 {transform: translateX(8192px);}
.step9 {transform: translateX(9216px);}
.step10 {transform: translateX(10240px);}
.step11 {transform: translateX(11264px);}
.step12 {transform: translateX(12288px);}
.step13 {transform: translateX(13312px);}
.step14 {transform: translateX(14336px);}
.step15 {transform: translateX(15360px);}
.step16 {transform: translateX(16384px);}
.step17 {transform: translateX(17408px);}
.step18 {transform: translateX(18432px);}
.step19 {transform: translateX(19456px);}
.step20 {transform: translateX(20480px);}
.step21 {transform: translateX(21504px);}
.step22 {transform: translateX(22528px);}
.step23 {transform: translateX(23552px);}
.step24 {transform: translateX(24576px);}
.step25 {transform: translateX(25600px);}
.step26 {transform: translateX(26624px);}
.step27 {transform: translateX(27648px);}
.step28 {transform: translateX(28672px);}
.step29 {transform: translateX(29696px);}
    </style>

    <path d="M 314 596 Q 327 614 339 631 Q 376 683 409 726 Q 421 739 407 755 Q 364 794 337 792 Q 325 791 327 775 Q 328 712 281 635 L 251 594 Q 218 549 178 514 Q 141 483 122 465 Q 112 449 129 453 Q 183 456 279 556 L 314 596 Z" fill="lightgray" class="stroke step1"/>
    <path d="M 322 409 Q 344 280 298 121 Q 295 118 295 113 Q 288 97 279 95 Q 263 94 222 107 Q 191 119 186 112 Q 182 106 192 93 Q 232 54 258 19 Q 277 -11 288 -10 Q 297 -11 314 7 Q 393 89 375 363 Q 374 370 374 376 Q 362 521 314 596 L 281 635 Q 227 683 168 704 Q 153 711 150 699 Q 147 684 156 664 Q 166 645 186 643 Q 219 631 251 594 L 279 556 Q 297 526 306 489 L 322 409 Z" fill="lightgray" class="stroke step1"/>
    <path d="M 306 489 Q 270 416 224 351 Q 175 285 64 167 Q 57 157 69 155 Q 91 151 207 261 Q 265 316 321 407 Q 321 408 322 409 C 337 435 319 516 306 489 Z" fill="lightgray" class="hide"/>
    <path d="M 755 590 Q 812 602 912 596 Q 927 595 932 605 Q 936 615 923 630 Q 877 669 781 644 Q 775 644 770 642 L 713 630 Q 647 620 573 606 L 523 598 Q 465 591 402 582 Q 374 578 394 563 Q 436 539 494 550 Q 510 556 530 559 L 574 569 Q 596 576 705 586 L 755 590 Z" fill="lightgray" class="hide"/>
    <path d="M 573 606 Q 572 631 572 654 Q 575 673 555 681 Q 515 702 494 696 Q 476 689 490 668 Q 512 635 523 598 L 530 559 Q 536 522 539 488 Q 543 466 556 452 Q 569 440 574 452 Q 581 471 578 494 Q 577 534 574 569 L 573 606 Z" fill="lightgray" class="hide"/>
    <path d="M 770 642 Q 776 679 805 745 Q 818 763 806 773 Q 791 789 752 805 Q 733 814 714 803 Q 704 796 713 783 Q 728 753 726 716 Q 722 679 713 630 L 705 586 Q 681 487 685 464 Q 688 448 704 462 Q 722 480 755 590 L 770 642 Z" fill="lightgray" class="hide"/>
    <path d="M 461 378 Q 442 390 422 396 Q 415 399 410 393 Q 401 387 411 376 Q 450 304 455 141 Q 458 72 495 48 L 496 47 Q 512 41 515 73 Q 515 77 515 82 L 513 111 Q 512 127 507 145 Q 495 289 493 341 C 492 360 487 363 461 378 Z" fill="lightgray" class="hide"/>
    <path d="M 749 104 Q 759 79 784 29 Q 793 11 803 12 Q 819 15 828 41 Q 859 102 875 291 Q 879 340 903 370 Q 919 391 908 404 Q 886 426 838 446 Q 819 456 787 444 Q 661 399 461 378 C 431 375 464 333 493 341 Q 508 347 607 364 L 648 372 Q 702 385 766 395 Q 794 401 807 387 Q 832 341 795 144 Q 794 126 786 124 Q 785 123 777 124 C 752 107 749 104 749 104 Z" fill="lightgray" class="hide"/>
    <path d="M 665 232 Q 702 239 737 242 Q 762 246 753 260 Q 743 276 715 280 Q 696 284 667 277 L 618 264 Q 573 252 536 242 Q 518 238 540 222 Q 549 215 569 218 Q 594 222 619 225 L 665 232 Z" fill="lightgray" class="hide"/>
    <path d="M 660 134 Q 661 186 665 232 L 667 277 Q 673 355 661 361 Q 654 368 648 372 C 624 390 600 393 607 364 Q 614 336 618 270 Q 617 269 618 264 L 619 225 Q 619 185 620 127 C 621 97 659 104 660 134 Z" fill="lightgray" class="hide"/>
    <path d="M 515 82 Q 522 82 531 82 Q 655 97 749 104 C 779 106 792 107 777 124 Q 768 137 748 142 Q 712 149 660 134 L 620 127 Q 563 120 513 111 C 483 106 485 82 515 82 Z" fill="lightgray" class="hide"/></g><g transform="scale(1, -1) translate(0, -900)">
    <style type="text/css">
        .origin {display:none;}
        .hide {display:none;}
        .stroke {fill: #000000;}
        
.step1 {transform: translateX(1024px);}
.step2 {transform: translateX(2048px);}
.step3 {transform: translateX(3072px);}
.step4 {transform: translateX(4096px);}
.step5 {transform: translateX(5120px);}
.step6 {transform: translateX(6144px);}
.step7 {transform: translateX(7168px);}
.step8 {transform: translateX(8192px);}
.step9 {transform: translateX(9216px);}
.step10 {transform: translateX(10240px);}
.step11 {transform: translateX(11264px);}
.step12 {transform: translateX(12288px);}
.step13 {transform: translateX(13312px);}
.step14 {transform: translateX(14336px);}
.step15 {transform: translateX(15360px);}
.step16 {transform: translateX(16384px);}
.step17 {transform: translateX(17408px);}
.step18 {transform: translateX(18432px);}
.step19 {transform: translateX(19456px);}
.step20 {transform: translateX(20480px);}
.step21 {transform: translateX(21504px);}
.step22 {transform: translateX(22528px);}
.step23 {transform: translateX(23552px);}
.step24 {transform: translateX(24576px);}
.step25 {transform: translateX(25600px);}
.step26 {transform: translateX(26624px);}
.step27 {transform: translateX(27648px);}
.step28 {transform: translateX(28672px);}
.step29 {transform: translateX(29696px);}
    </style>

    <path d="M 314 596 Q 327 614 339 631 Q 376 683 409 726 Q 421 739 407 755 Q 364 794 337 792 Q 325 791 327 775 Q 328 712 281 635 L 251 594 Q 218 549 178 514 Q 141 483 122 465 Q 112 449 129 453 Q 183 456 279 556 L 314 596 Z" fill="lightgray" class="stroke step2"/>
    <path d="M 322 409 Q 344 280 298 121 Q 295 118 295 113 Q 288 97 279 95 Q 263 94 222 107 Q 191 119 186 112 Q 182 106 192 93 Q 232 54 258 19 Q 277 -11 288 -10 Q 297 -11 314 7 Q 393 89 375 363 Q 374 370 374 376 Q 362 521 314 596 L 281 635 Q 227 683 168 704 Q 153 711 150 699 Q 147 684 156 664 Q 166 645 186 643 Q 219 631 251 594 L 279 556 Q 297 526 306 489 L 322 409 Z" fill="lightgray" class="stroke step2"/>
    <path d="M 306 489 Q 270 416 224 351 Q 175 285 64 167 Q 57 157 69 155 Q 91 151 207 261 Q 265 316 321 407 Q 321 408 322 409 C 337 435 319 516 306 489 Z" fill="lightgray" class="stroke step2"/>
    <path d="M 755 590 Q 812 602 912 596 Q 927 595 932 605 Q 936 615 923 630 Q 877 669 781 644 Q 775 644 770 642 L 713 630 Q 647 620 573 606 L 523 598 Q 465 591 402 582 Q 374 578 394 563 Q 436 539 494 550 Q 510 556 530 559 L 574 569 Q 596 576 705 586 L 755 590 Z" fill="lightgray" class="hide"/>
    <path d="M 573 606 Q 572 631 572 654 Q 575 673 555 681 Q 515 702 494 696 Q 476 689 490 668 Q 512 635 523 598 L 530 559 Q 536 522 539 488 Q 543 466 556 452 Q 569 440 574 452 Q 581 471 578 494 Q 577 534 574 569 L 573 606 Z" fill="lightgray" class="hide"/>
    <path d="M 770 642 Q 776 679 805 745 Q 818 763 806 773 Q 791 789 752 805 Q 733 814 714 803 Q 704 796 713 783 Q 728 753 726 716 Q 722 679 713 630 L 705 586 Q 681 487 685 464 Q 688 448 704 462 Q 722 480 755 590 L 770 642 Z" fill="lightgray" class="hide"/>
    <path d="M 461 378 Q 442 390 422 396 Q 415 399 410 393 Q 401 387 411 376 Q 450 304 455 141 Q 458 72 495 48 L 496 47 Q 512 41 515 73 Q 515 77 515 82 L 513 111 Q 512 127 507 145 Q 495 289 493 341 C 492 360 487 363 461 378 Z" fill="lightgray" class="hide"/>
    <path d="M 749 104 Q 759 79 784 29 Q 793 11 803 12 Q 819 15 828 41 Q 859 102 875 291 Q 879 340 903 370 Q 919 391 908 404 Q 886 426 838 446 Q 819 456 787 444 Q 661 399 461 378 C 431 375 464 333 493 341 Q 508 347 607 364 L 648 372 Q 702 385 766 395 Q 794 401 807 387 Q 832 341 795 144 Q 794 126 786 124 Q 785 123 777 124 C 752 107 749 104 749 104 Z" fill="lightgray" class="hide"/>
    <path d="M 665 232 Q 702 239 737 242 Q 762 246 753 260 Q 743 276 715 280 Q 696 284 667 277 L 618 264 Q 573 252 536 242 Q 518 238 540 222 Q 549 215 569 218 Q 594 222 619 225 L 665 232 Z" fill="lightgray" class="hide"/>
    <path d="M 660 134 Q 661 186 665 232 L 667 277 Q 673 355 661 361 Q 654 368 648 372 C 624 390 600 393 607 364 Q 614 336 618 270 Q 617 269 618 264 L 619 225 Q 619 185 620 127 C 621 97 659 104 660 134 Z" fill="lightgray" class="hide"/>
    <path d="M 515 82 Q 522 82 531 82 Q 655 97 749 104 C 779 106 792 107 777 124 Q 768 137 748 142 Q 712 149 660 134 L 620 127 Q 563 120 513 111 C 483 106 485 82 515 82 Z" fill="lightgray" class="hide"/></g><g transform="scale(1, -1) translate(0, -900)">
    <style type="text/css">
        .origin {display:none;}
        .hide {display:none;}
        .stroke {fill: #000000;}
        
.step1 {transform: translateX(1024px);}
.step2 {transform: translateX(2048px);}
.step3 {transform: translateX(3072px);}
.step4 {transform: translateX(4096px);}
.step5 {transform: translateX(5120px);}
.step6 {transform: translateX(6144px);}
.step7 {transform: translateX(7168px);}
.step8 {transform: translateX(8192px);}
.step9 {transform: translateX(9216px);}
.step10 {transform: translateX(10240px);}
.step11 {transform: translateX(11264px);}
.step12 {transform: translateX(12288px);}
.step13 {transform: translateX(13312px);}
.step14 {transform: translateX(14336px);}
.step15 {transform: translateX(15360px);}
.step16 {transform: translateX(16384px);}
.step17 {transform: translateX(17408px);}
.step18 {transform: translateX(18432px);}
.step19 {transform: translateX(19456px);}
.step20 {transform: translateX(20480px);}
.step21 {transform: translateX(21504px);}
.step22 {transform: translateX(22528px);}
.step23 {transform: translateX(23552px);}
.step24 {transform: translateX(24576px);}
.step25 {transform: translateX(25600px);}
.step26 {transform: translateX(26624px);}
.step27 {transform: translateX(27648px);}
.step28 {transform: translateX(28672px);}
.step29 {transform: translateX(29696px);}
    </style>

    <path d="M 314 596 Q 327 614 339 631 Q 376 683 409 726 Q 421 739 407 755 Q 364 794 337 792 Q 325 791 327 775 Q 328 712 281 635 L 251 594 Q 218 549 178 514 Q 141 483 122 465 Q 112 449 129 453 Q 183 456 279 556 L 314 596 Z" fill="lightgray" class="stroke step3"/>
    <path d="M 322 409 Q 344 280 298 121 Q 295 118 295 113 Q 288 97 279 95 Q 263 94 222 107 Q 191 119 186 112 Q 182 106 192 93 Q 232 54 258 19 Q 277 -11 288 -10 Q 297 -11 314 7 Q 393 89 375 363 Q 374 370 374 376 Q 362 521 314 596 L 281 635 Q 227 683 168 704 Q 153 711 150 699 Q 147 684 156 664 Q 166 645 186 643 Q 219 631 251 594 L 279 556 Q 297 526 306 489 L 322 409 Z" fill="lightgray" class="stroke step3"/>
    <path d="M 306 489 Q 270 416 224 351 Q 175 285 64 167 Q 57 157 69 155 Q 91 151 207 261 Q 265 316 321 407 Q 321 408 322 409 C 337 435 319 516 306 489 Z" fill="lightgray" class="stroke step3"/>
    <path d="M 755 590 Q 812 602 912 596 Q 927 595 932 605 Q 936 615 923 630 Q 877 669 781 644 Q 775 644 770 642 L 713 630 Q 647 620 573 606 L 523 598 Q 465 591 402 582 Q 374 578 394 563 Q 436 539 494 550 Q 510 556 530 559 L 574 569 Q 596 576 705 586 L 755 590 Z" fill="lightgray" class="stroke step3"/>
    <path d="M 573 606 Q 572 631 572 654 Q 575 673 555 681 Q 515 702 494 696 Q 476 689 490 668 Q 512 635 523 598 L 530 559 Q 536 522 539 488 Q 543 466 556 452 Q 569 440 574 452 Q 581 471 578 494 Q 577 534 574 569 L 573 606 Z" fill="lightgray" class="hide"/>
    <path d="M 770 642 Q 776 679 805 745 Q 818 763 806 773 Q 791 789 752 805 Q 733 814 714 803 Q 704 796 713 783 Q 728 753 726 716 Q 722 679 713 630 L 705 586 Q 681 487 685 464 Q 688 448 704 462 Q 722 480 755 590 L 770 642 Z" fill="lightgray" class="hide"/>
    <path d="M 461 378 Q 442 390 422 396 Q 415 399 410 393 Q 401 387 411 376 Q 450 304 455 141 Q 458 72 495 48 L 496 47 Q 512 41 515 73 Q 515 77 515 82 L 513 111 Q 512 127 507 145 Q 495 289 493 341 C 492 360 487 363 461 378 Z" fill="lightgray" class="hide"/>
    <path d="M 749 104 Q 759 79 784 29 Q 793 11 803 12 Q 819 15 828 41 Q 859 102 875 291 Q 879 340 903 370 Q 919 391 908 404 Q 886 426 838 446 Q 819 456 787 444 Q 661 399 461 378 C 431 375 464 333 493 341 Q 508 347 607 364 L 648 372 Q 702 385 766 395 Q 794 401 807 387 Q 832 341 795 144 Q 794 126 786 124 Q 785 123 777 124 C 752 107 749 104 749 104 Z" fill="lightgray" class="hide"/>
    <path d="M 665 232 Q 702 239 737 242 Q 762 246 753 260 Q 743 276 715 280 Q 696 284 667 277 L 618 264 Q 573 252 536 242 Q 518 238 540 222 Q 549 215 569 218 Q 594 222 619 225 L 665 232 Z" fill="lightgray" class="hide"/>
    <path d="M 660 134 Q 661 186 665 232 L 667 277 Q 673 355 661 361 Q 654 368 648 372 C 624 390 600 393 607 364 Q 614 336 618 270 Q 617 269 618 264 L 619 225 Q 619 185 620 127 C 621 97 659 104 660 134 Z" fill="lightgray" class="hide"/>
    <path d="M 515 82 Q 522 82 531 82 Q 655 97 749 104 C 779 106 792 107 777 124 Q 768 137 748 142 Q 712 149 660 134 L 620 127 Q 563 120 513 111 C 483 106 485 82 515 82 Z" fill="lightgray" class="hide"/></g><g transform="scale(1, -1) translate(0, -900)">
    <style type="text/css">
        .origin {display:none;}
        .hide {display:none;}
        .stroke {fill: #000000;}
        
.step1 {transform: translateX(1024px);}
.step2 {transform: translateX(2048px);}
.step3 {transform: translateX(3072px);}
.step4 {transform: translateX(4096px);}
.step5 {transform: translateX(5120px);}
.step6 {transform: translateX(6144px);}
.step7 {transform: translateX(7168px);}
.step8 {transform: translateX(8192px);}
.step9 {transform: translateX(9216px);}
.step10 {transform: translateX(10240px);}
.step11 {transform: translateX(11264px);}
.step12 {transform: translateX(12288px);}
.step13 {transform: translateX(13312px);}
.step14 {transform: translateX(14336px);}
.step15 {transform: translateX(15360px);}
.step16 {transform: translateX(16384px);}
.step17 {transform: translateX(17408px);}
.step18 {transform: translateX(18432px);}
.step19 {transform: translateX(19456px);}
.step20 {transform: translateX(20480px);}
.step21 {transform: translateX(21504px);}
.step22 {transform: translateX(22528px);}
.step23 {transform: translateX(23552px);}
.step24 {transform: translateX(24576px);}
.step25 {transform: translateX(25600px);}
.step26 {transform: translateX(26624px);}
.step27 {transform: translateX(27648px);}
.step28 {transform: translateX(28672px);}
.step29 {transform: translateX(29696px);}
    </style>

    <path d="M 314 596 Q 327 614 339 631 Q 376 683 409 726 Q 421 739 407 755 Q 364 794 337 792 Q 325 791 327 775 Q 328 712 281 635 L 251 594 Q 218 549 178 514 Q 141 483 122 465 Q 112 449 129 453 Q 183 456 279 556 L 314 596 Z" fill="lightgray" class="stroke step4"/>
    <path d="M 322 409 Q 344 280 298 121 Q 295 118 295 113 Q 288 97 279 95 Q 263 94 222 107 Q 191 119 186 112 Q 182 106 192 93 Q 232 54 258 19 Q 277 -11 288 -10 Q 297 -11 314 7 Q 393 89 375 363 Q 374 370 374 376 Q 362 521 314 596 L 281 635 Q 227 683 168 704 Q 153 711 150 699 Q 147 684 156 664 Q 166 645 186 643 Q 219 631 251 594 L 279 556 Q 297 526 306 489 L 322 409 Z" fill="lightgray" class="stroke step4"/>
    <path d="M 306 489 Q 270 416 224 351 Q 175 285 64 167 Q 57 157 69 155 Q 91 151 207 261 Q 265 316 321 407 Q 321 408 322 409 C 337 435 319 516 306 489 Z" fill="lightgray" class="stroke step4"/>
    <path d="M 755 590 Q 812 602 912 596 Q 927 595 932 605 Q 936 615 923 630 Q 877 669 781 644 Q 775 644 770 642 L 713 630 Q 647 620 573 606 L 523 598 Q 465 591 402 582 Q 374 578 394 563 Q 436 539 494 550 Q 510 556 530 559 L 574 569 Q 596 576 705 586 L 755 590 Z" fill="lightgray" class="stroke step4"/>
    <path d="M 573 606 Q 572 631 572 654 Q 575 673 555 681 Q 515 702 494 696 Q 476 689 490 668 Q 512 635 523 598 L 530 559 Q 536 522 539 488 Q 543 466 556 452 Q 569 440 574 452 Q 581 471 578 494 Q 577 534 574 569 L 573 606 Z" fill="lightgray" class="stroke step4"/>
    <path d="M 770 642 Q 776 679 805 745 Q 818 763 806 773 Q 791 789 752 805 Q 733 814 714 803 Q 704 796 713 783 Q 728 753 726 716 Q 722 679 713 630 L 705 586 Q 681 487 685 464 Q 688 448 704 462 Q 722 480 755 590 L 770 642 Z" fill="lightgray" class="hide"/>
    <path d="M 461 378 Q 442 390 422 396 Q 415 399 410 393 Q 401 387 411 376 Q 450 304 455 141 Q 458 72 495 48 L 496 47 Q 512 41 515 73 Q 515 77 515 82 L 513 111 Q 512 127 507 145 Q 495 289 493 341 C 492 360 487 363 461 378 Z" fill="lightgray" class="hide"/>
    <path d="M 749 104 Q 759 79 784 29 Q 793 11 803 12 Q 819 15 828 41 Q 859 102 875 291 Q 879 340 903 370 Q 919 391 908 404 Q 886 426 838 446 Q 819 456 787 444 Q 661 399 461 378 C 431 375 464 333 493 341 Q 508 347 607 364 L 648 372 Q 702 385 766 395 Q 794 401 807 387 Q 832 341 795 144 Q 794 126 786 124 Q 785 123 777 124 C 752 107 749 104 749 104 Z" fill="lightgray" class="hide"/>
    <path d="M 665 232 Q 702 239 737 242 Q 762 246 753 260 Q 743 276 715 280 Q 696 284 667 277 L 618 264 Q 573 252 536 242 Q 518 238 540 222 Q 549 215 569 218 Q 594 222 619 225 L 665 232 Z" fill="lightgray" class="hide"/>
    <path d="M 660 134 Q 661 186 665 232 L 667 277 Q 673 355 661 361 Q 654 368 648 372 C 624 390 600 393 607 364 Q 614 336 618 270 Q 617 269 618 264 L 619 225 Q 619 185 620 127 C 621 97 659 104 660 134 Z" fill="lightgray" class="hide"/>
    <path d="M 515 82 Q 522 82 531 82 Q 655 97 749 104 C 779 106 792 107 777 124 Q 768 137 748 142 Q 712 149 660 134 L 620 127 Q 563 120 513 111 C 483 106 485 82 515 82 Z" fill="lightgray" class="hide"/></g><g transform="scale(1, -1) translate(0, -900)">
    <style type="text/css">
        .origin {display:none;}
        .hide {display:none;}
        .stroke {fill: #000000;}
        
.step1 {transform: translateX(1024px);}
.step2 {transform: translateX(2048px);}
.step3 {transform: translateX(3072px);}
.step4 {transform: translateX(4096px);}
.step5 {transform: translateX(5120px);}
.step6 {transform: translateX(6144px);}
.step7 {transform: translateX(7168px);}
.step8 {transform: translateX(8192px);}
.step9 {transform: translateX(9216px);}
.step10 {transform: translateX(10240px);}
.step11 {transform: translateX(11264px);}
.step12 {transform: translateX(12288px);}
.step13 {transform: translateX(13312px);}
.step14 {transform: translateX(14336px);}
.step15 {transform: translateX(15360px);}
.step16 {transform: translateX(16384px);}
.step17 {transform: translateX(17408px);}
.step18 {transform: translateX(18432px);}
.step19 {transform: translateX(19456px);}
.step20 {transform: translateX(20480px);}
.step21 {transform: translateX(21504px);}
.step22 {transform: translateX(22528px);}
.step23 {transform: translateX(23552px);}
.step24 {transform: translateX(24576px);}
.step25 {transform: translateX(25600px);}
.step26 {transform: translateX(26624px);}
.step27 {transform: translateX(27648px);}
.step28 {transform: translateX(28672px);}
.step29 {transform: translateX(29696px);}
    </style>

    <path d="M 314 596 Q 327 614 339 631 Q 376 683 409 726 Q 421 739 407 755 Q 364 794 337 792 Q 325 791 327 775 Q 328 712 281 635 L 251 594 Q 218 549 178 514 Q 141 483 122 465 Q 112 449 129 453 Q 183 456 279 556 L 314 596 Z" fill="lightgray" class="stroke step5"/>
    <path d="M 322 409 Q 344 280 298 121 Q 295 118 295 113 Q 288 97 279 95 Q 263 94 222 107 Q 191 119 186 112 Q 182 106 192 93 Q 232 54 258 19 Q 277 -11 288 -10 Q 297 -11 314 7 Q 393 89 375 363 Q 374 370 374 376 Q 362 521 314 596 L 281 635 Q 227 683 168 704 Q 153 711 150 699 Q 147 684 156 664 Q 166 645 186 643 Q 219 631 251 594 L 279 556 Q 297 526 306 489 L 322 409 Z" fill="lightgray" class="stroke step5"/>
    <path d="M 306 489 Q 270 416 224 351 Q 175 285 64 167 Q 57 157 69 155 Q 91 151 207 261 Q 265 316 321 407 Q 321 408 322 409 C 337 435 319 516 306 489 Z" fill="lightgray" class="stroke step5"/>
    <path d="M 755 590 Q 812 602 912 596 Q 927 595 932 605 Q 936 615 923 630 Q 877 669 781 644 Q 775 644 770 642 L 713 630 Q 647 620 573 606 L 523 598 Q 465 591 402 582 Q 374 578 394 563 Q 436 539 494 550 Q 510 556 530 559 L 574 569 Q 596 576 705 586 L 755 590 Z" fill="lightgray" class="stroke step5"/>
    <path d="M 573 606 Q 572 631 572 654 Q 575 673 555 681 Q 515 702 494 696 Q 476 689 490 668 Q 512 635 523 598 L 530 559 Q 536 522 539 488 Q 543 466 556 452 Q 569 440 574 452 Q 581 471 578 494 Q 577 534 574 569 L 573 606 Z" fill="lightgray" class="stroke step5"/>
    <path d="M 770 642 Q 776 679 805 745 Q 818 763 806 773 Q 791 789 752 805 Q 733 814 714 803 Q 704 796 713 783 Q 728 753 726 716 Q 722 679 713 630 L 705 586 Q 681 487 685 464 Q 688 448 704 462 Q 722 480 755 590 L 770 642 Z" fill="lightgray" class="stroke step5"/>
    <path d="M 461 378 Q 442 390 422 396 Q 415 399 410 393 Q 401 387 411 376 Q 450 304 455 141 Q 458 72 495 48 L 496 47 Q 512 41 515 73 Q 515 77 515 82 L 513 111 Q 512 127 507 145 Q 495 289 493 341 C 492 360 487 363 461 378 Z" fill="lightgray" class="hide"/>
    <path d="M 749 104 Q 759 79 784 29 Q 793 11 803 12 Q 819 15 828 41 Q 859 102 875 291 Q 879 340 903 370 Q 919 391 908 404 Q 886 426 838 446 Q 819 456 787 444 Q 661 399 461 378 C 431 375 464 333 493 341 Q 508 347 607 364 L 648 372 Q 702 385 766 395 Q 794 401 807 387 Q 832 341 795 144 Q 794 126 786 124 Q 785 123 777 124 C 752 107 749 104 749 104 Z" fill="lightgray" class="hide"/>
    <path d="M 665 232 Q 702 239 737 242 Q 762 246 753 260 Q 743 276 715 280 Q 696 284 667 277 L 618 264 Q 573 252 536 242 Q 518 238 540 222 Q 549 215 569 218 Q 594 222 619 225 L 665 232 Z" fill="lightgray" class="hide"/>
    <path d="M 660 134 Q 661 186 665 232 L 667 277 Q 673 355 661 361 Q 654 368 648 372 C 624 390 600 393 607 364 Q 614 336 618 270 Q 617 269 618 264 L 619 225 Q 619 185 620 127 C 621 97 659 104 660 134 Z" fill="lightgray" class="hide"/>
    <path d="M 515 82 Q 522 82 531 82 Q 655 97 749 104 C 779 106 792 107 777 124 Q 768 137 748 142 Q 712 149 660 134 L 620 127 Q 563 120 513 111 C 483 106 485 82 515 82 Z" fill="lightgray" class="hide"/></g><g transform="scale(1, -1) translate(0, -900)">
    <style type="text/css">
        .origin {display:none;}
        .hide {display:none;}
        .stroke {fill: #000000;}
        
.step1 {transform: translateX(1024px);}
.step2 {transform: translateX(2048px);}
.step3 {transform: translateX(3072px);}
.step4 {transform: translateX(4096px);}
.step5 {transform: translateX(5120px);}
.step6 {transform: translateX(6144px);}
.step7 {transform: translateX(7168px);}
.step8 {transform: translateX(8192px);}
.step9 {transform: translateX(9216px);}
.step10 {transform: translateX(10240px);}
.step11 {transform: translateX(11264px);}
.step12 {transform: translateX(12288px);}
.step13 {transform: translateX(13312px);}
.step14 {transform: translateX(14336px);}
.step15 {transform: translateX(15360px);}
.step16 {transform: translateX(16384px);}
.step17 {transform: translateX(17408px);}
.step18 {transform: translateX(18432px);}
.step19 {transform: translateX(19456px);}
.step20 {transform: translateX(20480px);}
.step21 {transform: translateX(21504px);}
.step22 {transform: translateX(22528px);}
.step23 {transform: translateX(23552px);}
.step24 {transform: translateX(24576px);}
.step25 {transform: translateX(25600px);}
.step26 {transform: translateX(26624px);}
.step27 {transform: translateX(27648px);}
.step28 {transform: translateX(28672px);}
.step29 {transform: translateX(29696px);}
    </style>

    <path d="M 314 596 Q 327 614 339 631 Q 376 683 409 726 Q 421 739 407 755 Q 364 794 337 792 Q 325 791 327 775 Q 328 712 281 635 L 251 594 Q 218 549 178 514 Q 141 483 122 465 Q 112 449 129 453 Q 183 456 279 556 L 314 596 Z" fill="lightgray" class="stroke step6"/>
    <path d="M 322 409 Q 344 280 298 121 Q 295 118 295 113 Q 288 97 279 95 Q 263 94 222 107 Q 191 119 186 112 Q 182 106 192 93 Q 232 54 258 19 Q 277 -11 288 -10 Q 297 -11 314 7 Q 393 89 375 363 Q 374 370 374 376 Q 362 521 314 596 L 281 635 Q 227 683 168 704 Q 153 711 150 699 Q 147 684 156 664 Q 166 645 186 643 Q 219 631 251 594 L 279 556 Q 297 526 306 489 L 322 409 Z" fill="lightgray" class="stroke step6"/>
    <path d="M 306 489 Q 270 416 224 351 Q 175 285 64 167 Q 57 157 69 155 Q 91 151 207 261 Q 265 316 321 407 Q 321 408 322 409 C 337 435 319 516 306 489 Z" fill="lightgray" class="stroke step6"/>
    <path d="M 755 590 Q 812 602 912 596 Q 927 595 932 605 Q 936 615 923 630 Q 877 669 781 644 Q 775 644 770 642 L 713 630 Q 647 620 573 606 L 523 598 Q 465 591 402 582 Q 374 578 394 563 Q 436 539 494 550 Q 510 556 530 559 L 574 569 Q 596 576 705 586 L 755 590 Z" fill="lightgray" class="stroke step6"/>
    <path d="M 573 606 Q 572 631 572 654 Q 575 673 555 681 Q 515 702 494 696 Q 476 689 490 668 Q 512 635 523 598 L 530 559 Q 536 522 539 488 Q 543 466 556 452 Q 569 440 574 452 Q 581 471 578 494 Q 577 534 574 569 L 573 606 Z" fill="lightgray" class="stroke step6"/>
    <path d="M 770 642 Q 776 679 805 745 Q 818 763 806 773 Q 791 789 752 805 Q 733 814 714 803 Q 704 796 713 783 Q 728 753 726 716 Q 722 679 713 630 L 705 586 Q 681 487 685 464 Q 688 448 704 462 Q 722 480 755 590 L 770 642 Z" fill="lightgray" class="stroke step6"/>
    <path d="M 461 378 Q 442 390 422 396 Q 415 399 410 393 Q 401 387 411 376 Q 450 304 455 141 Q 458 72 495 48 L 496 47 Q 512 41 515 73 Q 515 77 515 82 L 513 111 Q 512 127 507 145 Q 495 289 493 341 C 492 360 487 363 461 378 Z" fill="lightgray" class="stroke step6"/>
    <path d="M 749 104 Q 759 79 784 29 Q 793 11 803 12 Q 819 15 828 41 Q 859 102 875 291 Q 879 340 903 370 Q 919 391 908 404 Q 886 426 838 446 Q 819 456 787 444 Q 661 399 461 378 C 431 375 464 333 493 341 Q 508 347 607 364 L 648 372 Q 702 385 766 395 Q 794 401 807 387 Q 832 341 795 144 Q 794 126 786 124 Q 785 123 777 124 C 752 107 749 104 749 104 Z" fill="lightgray" class="hide"/>
    <path d="M 665 232 Q 702 239 737 242 Q 762 246 753 260 Q 743 276 715 280 Q 696 284 667 277 L 618 264 Q 573 252 536 242 Q 518 238 540 222 Q 549 215 569 218 Q 594 222 619 225 L 665 232 Z" fill="lightgray" class="hide"/>
    <path d="M 660 134 Q 661 186 665 232 L 667 277 Q 673 355 661 361 Q 654 368 648 372 C 624 390 600 393 607 364 Q 614 336 618 270 Q 617 269 618 264 L 619 225 Q 619 185 620 127 C 621 97 659 104 660 134 Z" fill="lightgray" class="hide"/>
    <path d="M 515 82 Q 522 82 531 82 Q 655 97 749 104 C 779 106 792 107 777 124 Q 768 137 748 142 Q 712 149 660 134 L 620 127 Q 563 120 513 111 C 483 106 485 82 515 82 Z" fill="lightgray" class="hide"/></g><g transform="scale(1, -1) translate(0, -900)">
    <style type="text/css">
        .origin {display:none;}
        .hide {display:none;}
        .stroke {fill: #000000;}
        
.step1 {transform: translateX(1024px);}
.step2 {transform: translateX(2048px);}
.step3 {transform: translateX(3072px);}
.step4 {transform: translateX(4096px);}
.step5 {transform: translateX(5120px);}
.step6 {transform: translateX(6144px);}
.step7 {transform: translateX(7168px);}
.step8 {transform: translateX(8192px);}
.step9 {transform: translateX(9216px);}
.step10 {transform: translateX(10240px);}
.step11 {transform: translateX(11264px);}
.step12 {transform: translateX(12288px);}
.step13 {transform: translateX(13312px);}
.step14 {transform: translateX(14336px);}
.step15 {transform: translateX(15360px);}
.step16 {transform: translateX(16384px);}
.step17 {transform: translateX(17408px);}
.step18 {transform: translateX(18432px);}
.step19 {transform: translateX(19456px);}
.step20 {transform: translateX(20480px);}
.step21 {transform: translateX(21504px);}
.step22 {transform: translateX(22528px);}
.step23 {transform: translateX(23552px);}
.step24 {transform: translateX(24576px);}
.step25 {transform: translateX(25600px);}
.step26 {transform: translateX(26624px);}
.step27 {transform: translateX(27648px);}
.step28 {transform: translateX(28672px);}
.step29 {transform: translateX(29696px);}
    </style>

    <path d="M 314 596 Q 327 614 339 631 Q 376 683 409 726 Q 421 739 407 755 Q 364 794 337 792 Q 325 791 327 775 Q 328 712 281 635 L 251 594 Q 218 549 178 514 Q 141 483 122 465 Q 112 449 129 453 Q 183 456 279 556 L 314 596 Z" fill="lightgray" class="stroke step7"/>
    <path d="M 322 409 Q 344 280 298 121 Q 295 118 295 113 Q 288 97 279 95 Q 263 94 222 107 Q 191 119 186 112 Q 182 106 192 93 Q 232 54 258 19 Q 277 -11 288 -10 Q 297 -11 314 7 Q 393 89 375 363 Q 374 370 374 376 Q 362 521 314 596 L 281 635 Q 227 683 168 704 Q 153 711 150 699 Q 147 684 156 664 Q 166 645 186 643 Q 219 631 251 594 L 279 556 Q 297 526 306 489 L 322 409 Z" fill="lightgray" class="stroke step7"/>
    <path d="M 306 489 Q 270 416 224 351 Q 175 285 64 167 Q 57 157 69 155 Q 91 151 207 261 Q 265 316 321 407 Q 321 408 322 409 C 337 435 319 516 306 489 Z" fill="lightgray" class="stroke step7"/>
    <path d="M 755 590 Q 812 602 912 596 Q 927 595 932 605 Q 936 615 923 630 Q 877 669 781 644 Q 775 644 770 642 L 713 630 Q 647 620 573 606 L 523 598 Q 465 591 402 582 Q 374 578 394 563 Q 436 539 494 550 Q 510 556 530 559 L 574 569 Q 596 576 705 586 L 755 590 Z" fill="lightgray" class="stroke step7"/>
    <path d="M 573 606 Q 572 631 572 654 Q 575 673 555 681 Q 515 702 494 696 Q 476 689 490 668 Q 512 635 523 598 L 530 559 Q 536 522 539 488 Q 543 466 556 452 Q 569 440 574 452 Q 581 471 578 494 Q 577 534 574 569 L 573 606 Z" fill="lightgray" class="stroke step7"/>
    <path d="M 770 642 Q 776 679 805 745 Q 818 763 806 773 Q 791 789 752 805 Q 733 814 714 803 Q 704 796 713 783 Q 728 753 726 716 Q 722 679 713 630 L 705 586 Q 681 487 685 464 Q 688 448 704 462 Q 722 480 755 590 L 770 642 Z" fill="lightgray" class="stroke step7"/>
    <path d="M 461 378 Q 442 390 422 396 Q 415 399 410 393 Q 401 387 411 376 Q 450 304 455 141 Q 458 72 495 48 L 496 47 Q 512 41 515 73 Q 515 77 515 82 L 513 111 Q 512 127 507 145 Q 495 289 493 341 C 492 360 487 363 461 378 Z" fill="lightgray" class="stroke step7"/>
    <path d="M 749 104 Q 759 79 784 29 Q 793 11 803 12 Q 819 15 828 41 Q 859 102 875 291 Q 879 340 903 370 Q 919 391 908 404 Q 886 426 838 446 Q 819 456 787 444 Q 661 399 461 378 C 431 375 464 333 493 341 Q 508 347 607 364 L 648 372 Q 702 385 766 395 Q 794 401 807 387 Q 832 341 795 144 Q 794 126 786 124 Q 785 123 777 124 C 752 107 749 104 749 104 Z" fill="lightgray" class="stroke step7"/>
    <path d="M 665 232 Q 702 239 737 242 Q 762 246 753 260 Q 743 276 715 280 Q 696 284 667 277 L 618 264 Q 573 252 536 242 Q 518 238 540 222 Q 549 215 569 218 Q 594 222 619 225 L 665 232 Z" fill="lightgray" class="hide"/>
    <path d="M 660 134 Q 661 186 665 232 L 667 277 Q 673 355 661 361 Q 654 368 648 372 C 624 390 600 393 607 364 Q 614 336 618 270 Q 617 269 618 264 L 619 225 Q 619 185 620 127 C 621 97 659 104 660 134 Z" fill="lightgray" class="hide"/>
    <path d="M 515 82 Q 522 82 531 82 Q 655 97 749 104 C 779 106 792 107 777 124 Q 768 137 748 142 Q 712 149 660 134 L 620 127 Q 563 120 513 111 C 483 106 485 82 515 82 Z" fill="lightgray" class="hide"/></g><g transform="scale(1, -1) translate(0, -900)">
    <style type="text/css">
        .origin {display:none;}
        .hide {display:none;}
        .stroke {fill: #000000;}
        
.step1 {transform: translateX(1024px);}
.step2 {transform: translateX(2048px);}
.step3 {transform: translateX(3072px);}
.step4 {transform: translateX(4096px);}
.step5 {transform: translateX(5120px);}
.step6 {transform: translateX(6144px);}
.step7 {transform: translateX(7168px);}
.step8 {transform: translateX(8192px);}
.step9 {transform: translateX(9216px);}
.step10 {transform: translateX(10240px);}
.step11 {transform: translateX(11264px);}
.step12 {transform: translateX(12288px);}
.step13 {transform: translateX(13312px);}
.step14 {transform: translateX(14336px);}
.step15 {transform: translateX(15360px);}
.step16 {transform: translateX(16384px);}
.step17 {transform: translateX(17408px);}
.step18 {transform: translateX(18432px);}
.step19 {transform: translateX(19456px);}
.step20 {transform: translateX(20480px);}
.step21 {transform: translateX(21504px);}
.step22 {transform: translateX(22528px);}
.step23 {transform: translateX(23552px);}
.step24 {transform: translateX(24576px);}
.step25 {transform: translateX(25600px);}
.step26 {transform: translateX(26624px);}
.step27 {transform: translateX(27648px);}
.step28 {transform: translateX(28672px);}
.step29 {transform: translateX(29696px);}
    </style>

    <path d="M 314 596 Q 327 614 339 631 Q 376 683 409 726 Q 421 739 407 755 Q 364 794 337 792 Q 325 791 327 775 Q 328 712 281 635 L 251 594 Q 218 549 178 514 Q 141 483 122 465 Q 112 449 129 453 Q 183 456 279 556 L 314 596 Z" fill="lightgray" class="stroke step8"/>
    <path d="M 322 409 Q 344 280 298 121 Q 295 118 295 113 Q 288 97 279 95 Q 263 94 222 107 Q 191 119 186 112 Q 182 106 192 93 Q 232 54 258 19 Q 277 -11 288 -10 Q 297 -11 314 7 Q 393 89 375 363 Q 374 370 374 376 Q 362 521 314 596 L 281 635 Q 227 683 168 704 Q 153 711 150 699 Q 147 684 156 664 Q 166 645 186 643 Q 219 631 251 594 L 279 556 Q 297 526 306 489 L 322 409 Z" fill="lightgray" class="stroke step8"/>
    <path d="M 306 489 Q 270 416 224 351 Q 175 285 64 167 Q 57 157 69 155 Q 91 151 207 261 Q 265 316 321 407 Q 321 408 322 409 C 337 435 319 516 306 489 Z" fill="lightgray" class="stroke step8"/>
    <path d="M 755 590 Q 812 602 912 596 Q 927 595 932 605 Q 936 615 923 630 Q 877 669 781 644 Q 775 644 770 642 L 713 630 Q 647 620 573 606 L 523 598 Q 465 591 402 582 Q 374 578 394 563 Q 436 539 494 550 Q 510 556 530 559 L 574 569 Q 596 576 705 586 L 755 590 Z" fill="lightgray" class="stroke step8"/>
    <path d="M 573 606 Q 572 631 572 654 Q 575 673 555 681 Q 515 702 494 696 Q 476 689 490 668 Q 512 635 523 598 L 530 559 Q 536 522 539 488 Q 543 466 556 452 Q 569 440 574 452 Q 581 471 578 494 Q 577 534 574 569 L 573 606 Z" fill="lightgray" class="stroke step8"/>
    <path d="M 770 642 Q 776 679 805 745 Q 818 763 806 773 Q 791 789 752 805 Q 733 814 714 803 Q 704 796 713 783 Q 728 753 726 716 Q 722 679 713 630 L 705 586 Q 681 487 685 464 Q 688 448 704 462 Q 722 480 755 590 L 770 642 Z" fill="lightgray" class="stroke step8"/>
    <path d="M 461 378 Q 442 390 422 396 Q 415 399 410 393 Q 401 387 411 376 Q 450 304 455 141 Q 458 72 495 48 L 496 47 Q 512 41 515 73 Q 515 77 515 82 L 513 111 Q 512 127 507 145 Q 495 289 493 341 C 492 360 487 363 461 378 Z" fill="lightgray" class="stroke step8"/>
    <path d="M 749 104 Q 759 79 784 29 Q 793 11 803 12 Q 819 15 828 41 Q 859 102 875 291 Q 879 340 903 370 Q 919 391 908 404 Q 886 426 838 446 Q 819 456 787 444 Q 661 399 461 378 C 431 375 464 333 493 341 Q 508 347 607 364 L 648 372 Q 702 385 766 395 Q 794 401 807 387 Q 832 341 795 144 Q 794 126 786 124 Q 785 123 777 124 C 752 107 749 104 749 104 Z" fill="lightgray" class="stroke step8"/>
    <path d="M 665 232 Q 702 239 737 242 Q 762 246 753 260 Q 743 276 715 280 Q 696 284 667 277 L 618 264 Q 573 252 536 242 Q 518 238 540 222 Q 549 215 569 218 Q 594 222 619 225 L 665 232 Z" fill="lightgray" class="stroke step8"/>
    <path d="M 660 134 Q 661 186 665 232 L 667 277 Q 673 355 661 361 Q 654 368 648 372 C 624 390 600 393 607 364 Q 614 336 618 270 Q 617 269 618 264 L 619 225 Q 619 185 620 127 C 621 97 659 104 660 134 Z" fill="lightgray" class="hide"/>
    <path d="M 515 82 Q 522 82 531 82 Q 655 97 749 104 C 779 106 792 107 777 124 Q 768 137 748 142 Q 712 149 660 134 L 620 127 Q 563 120 513 111 C 483 106 485 82 515 82 Z" fill="lightgray" class="hide"/></g><g transform="scale(1, -1) translate(0, -900)">
    <style type="text/css">
        .origin {display:none;}
        .hide {display:none;}
        .stroke {fill: #000000;}
        
.step1 {transform: translateX(1024px);}
.step2 {transform: translateX(2048px);}
.step3 {transform: translateX(3072px);}
.step4 {transform: translateX(4096px);}
.step5 {transform: translateX(5120px);}
.step6 {transform: translateX(6144px);}
.step7 {transform: translateX(7168px);}
.step8 {transform: translateX(8192px);}
.step9 {transform: translateX(9216px);}
.step10 {transform: translateX(10240px);}
.step11 {transform: translateX(11264px);}
.step12 {transform: translateX(12288px);}
.step13 {transform: translateX(13312px);}
.step14 {transform: translateX(14336px);}
.step15 {transform: translateX(15360px);}
.step16 {transform: translateX(16384px);}
.step17 {transform: translateX(17408px);}
.step18 {transform: translateX(18432px);}
.step19 {transform: translateX(19456px);}
.step20 {transform: translateX(20480px);}
.step21 {transform: translateX(21504px);}
.step22 {transform: translateX(22528px);}
.step23 {transform: translateX(23552px);}
.step24 {transform: translateX(24576px);}
.step25 {transform: translateX(25600px);}
.step26 {transform: translateX(26624px);}
.step27 {transform: translateX(27648px);}
.step28 {transform: translateX(28672px);}
.step29 {transform: translateX(29696px);}
    </style>

    <path d="M 314 596 Q 327 614 339 631 Q 376 683 409 726 Q 421 739 407 755 Q 364 794 337 792 Q 325 791 327 775 Q 328 712 281 635 L 251 594 Q 218 549 178 514 Q 141 483 122 465 Q 112 449 129 453 Q 183 456 279 556 L 314 596 Z" fill="lightgray" class="stroke step9"/>
    <path d="M 322 409 Q 344 280 298 121 Q 295 118 295 113 Q 288 97 279 95 Q 263 94 222 107 Q 191 119 186 112 Q 182 106 192 93 Q 232 54 258 19 Q 277 -11 288 -10 Q 297 -11 314 7 Q 393 89 375 363 Q 374 370 374 376 Q 362 521 314 596 L 281 635 Q 227 683 168 704 Q 153 711 150 699 Q 147 684 156 664 Q 166 645 186 643 Q 219 631 251 594 L 279 556 Q 297 526 306 489 L 322 409 Z" fill="lightgray" class="stroke step9"/>
    <path d="M 306 489 Q 270 416 224 351 Q 175 285 64 167 Q 57 157 69 155 Q 91 151 207 261 Q 265 316 321 407 Q 321 408 322 409 C 337 435 319 516 306 489 Z" fill="lightgray" class="stroke step9"/>
    <path d="M 755 590 Q 812 602 912 596 Q 927 595 932 605 Q 936 615 923 630 Q 877 669 781 644 Q 775 644 770 642 L 713 630 Q 647 620 573 606 L 523 598 Q 465 591 402 582 Q 374 578 394 563 Q 436 539 494 550 Q 510 556 530 559 L 574 569 Q 596 576 705 586 L 755 590 Z" fill="lightgray" class="stroke step9"/>
    <path d="M 573 606 Q 572 631 572 654 Q 575 673 555 681 Q 515 702 494 696 Q 476 689 490 668 Q 512 635 523 598 L 530 559 Q 536 522 539 488 Q 543 466 556 452 Q 569 440 574 452 Q 581 471 578 494 Q 577 534 574 569 L 573 606 Z" fill="lightgray" class="stroke step9"/>
    <path d="M 770 642 Q 776 679 805 745 Q 818 763 806 773 Q 791 789 752 805 Q 733 814 714 803 Q 704 796 713 783 Q 728 753 726 716 Q 722 679 713 630 L 705 586 Q 681 487 685 464 Q 688 448 704 462 Q 722 480 755 590 L 770 642 Z" fill="lightgray" class="stroke step9"/>
    <path d="M 461 378 Q 442 390 422 396 Q 415 399 410 393 Q 401 387 411 376 Q 450 304 455 141 Q 458 72 495 48 L 496 47 Q 512 41 515 73 Q 515 77 515 82 L 513 111 Q 512 127 507 145 Q 495 289 493 341 C 492 360 487 363 461 378 Z" fill="lightgray" class="stroke step9"/>
    <path d="M 749 104 Q 759 79 784 29 Q 793 11 803 12 Q 819 15 828 41 Q 859 102 875 291 Q 879 340 903 370 Q 919 391 908 404 Q 886 426 838 446 Q 819 456 787 444 Q 661 399 461 378 C 431 375 464 333 493 341 Q 508 347 607 364 L 648 372 Q 702 385 766 395 Q 794 401 807 387 Q 832 341 795 144 Q 794 126 786 124 Q 785 123 777 124 C 752 107 749 104 749 104 Z" fill="lightgray" class="stroke step9"/>
    <path d="M 665 232 Q 702 239 737 242 Q 762 246 753 260 Q 743 276 715 280 Q 696 284 667 277 L 618 264 Q 573 252 536 242 Q 518 238 540 222 Q 549 215 569 218 Q 594 222 619 225 L 665 232 Z" fill="lightgray" class="stroke step9"/>
    <path d="M 660 134 Q 661 186 665 232 L 667 277 Q 673 355 661 361 Q 654 368 648 372 C 624 390 600 393 607 364 Q 614 336 618 270 Q 617 269 618 264 L 619 225 Q 619 185 620 127 C 621 97 659 104 660 134 Z" fill="lightgray" class="stroke step9"/>
    <path d="M 515 82 Q 522 82 531 82 Q 655 97 749 104 C 779 106 792 107 777 124 Q 768 137 748 142 Q 712 149 660 134 L 620 127 Q 563 120 513 111 C 483 106 485 82 515 82 Z" fill="lightgray" class="hide"/></g><g transform="scale(1, -1) translate(0, -900)">
    <style type="text/css">
        .origin {display:none;}
        .hide {display:none;}
        .stroke {fill: #000000;}
        
.step1 {transform: translateX(1024px);}
.step2 {transform: translateX(2048px);}
.step3 {transform: translateX(3072px);}
.step4 {transform: translateX(4096px);}
.step5 {transform: translateX(5120px);}
.step6 {transform: translateX(6144px);}
.step7 {transform: translateX(7168px);}
.step8 {transform: translateX(8192px);}
.step9 {transform: translateX(9216px);}
.step10 {transform: translateX(10240px);}
.step11 {transform: translateX(11264px);}
.step12 {transform: translateX(12288px);}
.step13 {transform: translateX(13312px);}
.step14 {transform: translateX(14336px);}
.step15 {transform: translateX(15360px);}
.step16 {transform: translateX(16384px);}
.step17 {transform: translateX(17408px);}
.step18 {transform: translateX(18432px);}
.step19 {transform: translateX(19456px);}
.step20 {transform: translateX(20480px);}
.step21 {transform: translateX(21504px);}
.step22 {transform: translateX(22528px);}
.step23 {transform: translateX(23552px);}
.step24 {transform: translateX(24576px);}
.step25 {transform: translateX(25600px);}
.step26 {transform: translateX(26624px);}
.step27 {transform: translateX(27648px);}
.step28 {transform: translateX(28672px);}
.step29 {transform: translateX(29696px);}
    </style>

    <path d="M 314 596 Q 327 614 339 631 Q 376 683 409 726 Q 421 739 407 755 Q 364 794 337 792 Q 325 791 327 775 Q 328 712 281 635 L 251 594 Q 218 549 178 514 Q 141 483 122 465 Q 112 449 129 453 Q 183 456 279 556 L 314 596 Z" fill="lightgray" class="stroke step10"/>
    <path d="M 322 409 Q 344 280 298 121 Q 295 118 295 113 Q 288 97 279 95 Q 263 94 222 107 Q 191 119 186 112 Q 182 106 192 93 Q 232 54 258 19 Q 277 -11 288 -10 Q 297 -11 314 7 Q 393 89 375 363 Q 374 370 374 376 Q 362 521 314 596 L 281 635 Q 227 683 168 704 Q 153 711 150 699 Q 147 684 156 664 Q 166 645 186 643 Q 219 631 251 594 L 279 556 Q 297 526 306 489 L 322 409 Z" fill="lightgray" class="stroke step10"/>
    <path d="M 306 489 Q 270 416 224 351 Q 175 285 64 167 Q 57 157 69 155 Q 91 151 207 261 Q 265 316 321 407 Q 321 408 322 409 C 337 435 319 516 306 489 Z" fill="lightgray" class="stroke step10"/>
    <path d="M 755 590 Q 812 602 912 596 Q 927 595 932 605 Q 936 615 923 630 Q 877 669 781 644 Q 775 644 770 642 L 713 630 Q 647 620 573 606 L 523 598 Q 465 591 402 582 Q 374 578 394 563 Q 436 539 494 550 Q 510 556 530 559 L 574 569 Q 596 576 705 586 L 755 590 Z" fill="lightgray" class="stroke step10"/>
    <path d="M 573 606 Q 572 631 572 654 Q 575 673 555 681 Q 515 702 494 696 Q 476 689 490 668 Q 512 635 523 598 L 530 559 Q 536 522 539 488 Q 543 466 556 452 Q 569 440 574 452 Q 581 471 578 494 Q 577 534 574 569 L 573 606 Z" fill="lightgray" class="stroke step10"/>
    <path d="M 770 642 Q 776 679 805 745 Q 818 763 806 773 Q 791 789 752 805 Q 733 814 714 803 Q 704 796 713 783 Q 728 753 726 716 Q 722 679 713 630 L 705 586 Q 681 487 685 464 Q 688 448 704 462 Q 722 480 755 590 L 770 642 Z" fill="lightgray" class="stroke step10"/>
    <path d="M 461 378 Q 442 390 422 396 Q 415 399 410 393 Q 401 387 411 376 Q 450 304 455 141 Q 458 72 495 48 L 496 47 Q 512 41 515 73 Q 515 77 515 82 L 513 111 Q 512 127 507 145 Q 495 289 493 341 C 492 360 487 363 461 378 Z" fill="lightgray" class="stroke step10"/>
    <path d="M 749 104 Q 759 79 784 29 Q 793 11 803 12 Q 819 15 828 41 Q 859 102 875 291 Q 879 340 903 370 Q 919 391 908 404 Q 886 426 838 446 Q 819 456 787 444 Q 661 399 461 378 C 431 375 464 333 493 341 Q 508 347 607 364 L 648 372 Q 702 385 766 395 Q 794 401 807 387 Q 832 341 795 144 Q 794 126 786 124 Q 785 123 777 124 C 752 107 749 104 749 104 Z" fill="lightgray" class="stroke step10"/>
    <path d="M 665 232 Q 702 239 737 242 Q 762 246 753 260 Q 743 276 715 280 Q 696 284 667 277 L 618 264 Q 573 252 536 242 Q 518 238 540 222 Q 549 215 569 218 Q 594 222 619 225 L 665 232 Z" fill="lightgray" class="stroke step10"/>
    <path d="M 660 134 Q 661 186 665 232 L 667 277 Q 673 355 661 361 Q 654 368 648 372 C 624 390 600 393 607 364 Q 614 336 618 270 Q 617 269 618 264 L 619 225 Q 619 185 620 127 C 621 97 659 104 660 134 Z" fill="lightgray" class="stroke step10"/>
    <path d="M 515 82 Q 522 82 531 82 Q 655 97 749 104 C 779 106 792 107 777 124 Q 768 137 748 142 Q 712 149 660 134 L 620 127 Q 563 120 513 111 C 483 106 485 82 515 82 Z" fill="lightgray" class="stroke step10"/></g></svg>