<svg version="1.1" viewBox="0 0 12288 1024" xmlns="http://www.w3.org/2000/svg">
  
  <g transform="scale(1, -1) translate(0, -900)" class="origin">
    <style type="text/css">
        .origin {display:none;}
        .hide {display:none;}
        .stroke {fill: #000000;}
        
.step1 {transform: translateX(1024px);}
.step2 {transform: translateX(2048px);}
.step3 {transform: translateX(3072px);}
.step4 {transform: translateX(4096px);}
.step5 {transform: translateX(5120px);}
.step6 {transform: translateX(6144px);}
.step7 {transform: translateX(7168px);}
.step8 {transform: translateX(8192px);}
.step9 {transform: translateX(9216px);}
.step10 {transform: translateX(10240px);}
.step11 {transform: translateX(11264px);}
.step12 {transform: translateX(12288px);}
.step13 {transform: translateX(13312px);}
.step14 {transform: translateX(14336px);}
.step15 {transform: translateX(15360px);}
.step16 {transform: translateX(16384px);}
.step17 {transform: translateX(17408px);}
.step18 {transform: translateX(18432px);}
.step19 {transform: translateX(19456px);}
.step20 {transform: translateX(20480px);}
.step21 {transform: translateX(21504px);}
.step22 {transform: translateX(22528px);}
.step23 {transform: translateX(23552px);}
.step24 {transform: translateX(24576px);}
.step25 {transform: translateX(25600px);}
.step26 {transform: translateX(26624px);}
.step27 {transform: translateX(27648px);}
.step28 {transform: translateX(28672px);}
.step29 {transform: translateX(29696px);}
    </style>

    <path d="M 295 582 Q 307 597 319 612 Q 353 658 386 697 Q 398 707 385 724 Q 346 763 321 761 Q 311 760 311 745 Q 311 691 275 634 L 245 592 Q 242 591 241 587 Q 208 544 167 511 Q 133 484 114 468 Q 104 453 120 457 Q 168 460 258 543 L 295 582 Z" fill="lightgray"/>
    <path d="M 278 396 Q 281 225 255 132 Q 249 116 241 115 Q 226 111 183 115 Q 153 122 149 116 Q 146 110 157 99 Q 199 69 227 40 Q 243 18 252 19 Q 259 16 276 35 Q 363 153 311 514 Q 304 551 295 582 L 275 634 Q 239 695 172 722 Q 159 729 155 717 Q 152 704 159 686 Q 168 668 185 665 Q 224 649 245 592 L 258 543 Q 265 509 270 472 L 278 396 Z" fill="lightgray"/>
    <path d="M 270 472 Q 204 364 57 222 Q 50 213 61 210 Q 79 207 186 294 Q 232 334 278 396 C 296 420 286 497 270 472 Z" fill="lightgray"/>
    <path d="M 423 506 Q 487 605 525 681 Q 541 721 559 742 Q 566 752 561 765 Q 555 777 527 795 Q 500 808 482 807 Q 466 803 475 783 Q 487 762 480 726 Q 441 597 339 437 Q 332 427 329 421 Q 328 411 340 414 Q 352 417 399 473 L 423 506 Z" fill="lightgray"/>
    <path d="M 399 473 Q 400 467 405 461 Q 432 398 414 218 Q 407 166 394 111 Q 382 62 417 21 L 418 19 Q 434 4 446 29 Q 459 68 459 111 Q 459 369 467 427 Q 474 452 465 462 Q 432 501 423 506 C 400 526 386 500 399 473 Z" fill="lightgray"/>
    <path d="M 773 613 Q 794 662 816 677 Q 829 693 817 709 Q 748 757 701 729 Q 647 710 596 699 Q 583 698 584 689 Q 587 683 602 679 Q 614 676 708 694 Q 730 700 735 696 Q 742 689 739 674 Q 730 634 720 600 C 712 571 761 586 773 613 Z" fill="lightgray"/>
    <path d="M 720 600 Q 711 599 704 597 Q 665 590 516 566 Q 491 562 510 547 Q 543 525 565 530 Q 689 560 856 582 Q 865 581 873 592 Q 874 602 854 612 Q 827 631 773 613 L 720 600 Z" fill="lightgray"/>
    <path d="M 602 424 Q 636 481 637 482 Q 630 501 599 508 Q 583 512 575 510 Q 569 507 571 498 Q 580 485 564 444 Q 552 410 508 353 Q 502 349 510 347 Q 558 363 592 412 L 602 424 Z" fill="lightgray"/>
    <path d="M 677 396 Q 689 402 806 431 Q 833 438 837 442 Q 844 449 840 457 Q 833 467 805 473 Q 777 477 751 464 Q 721 452 689 442 Q 652 432 610 427 Q 604 426 602 424 C 585 417 585 417 592 412 Q 601 403 638 395 L 677 396 Z" fill="lightgray"/>
    <path d="M 697 280 Q 764 293 871 295 Q 917 295 924 304 Q 928 314 914 324 Q 862 360 817 340 Q 769 330 699 315 L 645 305 Q 570 293 485 279 Q 469 276 482 263 Q 509 239 539 248 Q 585 263 639 271 L 697 280 Z" fill="lightgray"/>
    <path d="M 699 315 Q 703 337 713 354 Q 722 369 708 377 Q 693 389 681 395 Q 680 396 677 396 C 650 408 633 416 638 395 Q 637 392 640 386 Q 644 377 645 305 L 639 271 Q 612 153 488 69 Q 476 62 487 59 Q 529 55 595 108 Q 664 162 684 257 L 699 315 Z" fill="lightgray"/>
    <path d="M 684 257 Q 735 166 803 66 Q 816 50 841 48 Q 923 45 951 48 Q 958 49 960 53 Q 961 57 951 64 Q 837 121 761 205 Q 730 239 697 280 C 678 303 668 285 684 257 Z" fill="lightgray"/></g>
<g transform="scale(1, -1) translate(0, -900)">
    <style type="text/css">
        .origin {display:none;}
        .hide {display:none;}
        .stroke {fill: #000000;}
        
.step1 {transform: translateX(1024px);}
.step2 {transform: translateX(2048px);}
.step3 {transform: translateX(3072px);}
.step4 {transform: translateX(4096px);}
.step5 {transform: translateX(5120px);}
.step6 {transform: translateX(6144px);}
.step7 {transform: translateX(7168px);}
.step8 {transform: translateX(8192px);}
.step9 {transform: translateX(9216px);}
.step10 {transform: translateX(10240px);}
.step11 {transform: translateX(11264px);}
.step12 {transform: translateX(12288px);}
.step13 {transform: translateX(13312px);}
.step14 {transform: translateX(14336px);}
.step15 {transform: translateX(15360px);}
.step16 {transform: translateX(16384px);}
.step17 {transform: translateX(17408px);}
.step18 {transform: translateX(18432px);}
.step19 {transform: translateX(19456px);}
.step20 {transform: translateX(20480px);}
.step21 {transform: translateX(21504px);}
.step22 {transform: translateX(22528px);}
.step23 {transform: translateX(23552px);}
.step24 {transform: translateX(24576px);}
.step25 {transform: translateX(25600px);}
.step26 {transform: translateX(26624px);}
.step27 {transform: translateX(27648px);}
.step28 {transform: translateX(28672px);}
.step29 {transform: translateX(29696px);}
    </style>

    <path d="M 295 582 Q 307 597 319 612 Q 353 658 386 697 Q 398 707 385 724 Q 346 763 321 761 Q 311 760 311 745 Q 311 691 275 634 L 245 592 Q 242 591 241 587 Q 208 544 167 511 Q 133 484 114 468 Q 104 453 120 457 Q 168 460 258 543 L 295 582 Z" fill="lightgray" class="stroke step0"/>
    <path d="M 278 396 Q 281 225 255 132 Q 249 116 241 115 Q 226 111 183 115 Q 153 122 149 116 Q 146 110 157 99 Q 199 69 227 40 Q 243 18 252 19 Q 259 16 276 35 Q 363 153 311 514 Q 304 551 295 582 L 275 634 Q 239 695 172 722 Q 159 729 155 717 Q 152 704 159 686 Q 168 668 185 665 Q 224 649 245 592 L 258 543 Q 265 509 270 472 L 278 396 Z" fill="lightgray" class="hide"/>
    <path d="M 270 472 Q 204 364 57 222 Q 50 213 61 210 Q 79 207 186 294 Q 232 334 278 396 C 296 420 286 497 270 472 Z" fill="lightgray" class="hide"/>
    <path d="M 423 506 Q 487 605 525 681 Q 541 721 559 742 Q 566 752 561 765 Q 555 777 527 795 Q 500 808 482 807 Q 466 803 475 783 Q 487 762 480 726 Q 441 597 339 437 Q 332 427 329 421 Q 328 411 340 414 Q 352 417 399 473 L 423 506 Z" fill="lightgray" class="hide"/>
    <path d="M 399 473 Q 400 467 405 461 Q 432 398 414 218 Q 407 166 394 111 Q 382 62 417 21 L 418 19 Q 434 4 446 29 Q 459 68 459 111 Q 459 369 467 427 Q 474 452 465 462 Q 432 501 423 506 C 400 526 386 500 399 473 Z" fill="lightgray" class="hide"/>
    <path d="M 773 613 Q 794 662 816 677 Q 829 693 817 709 Q 748 757 701 729 Q 647 710 596 699 Q 583 698 584 689 Q 587 683 602 679 Q 614 676 708 694 Q 730 700 735 696 Q 742 689 739 674 Q 730 634 720 600 C 712 571 761 586 773 613 Z" fill="lightgray" class="hide"/>
    <path d="M 720 600 Q 711 599 704 597 Q 665 590 516 566 Q 491 562 510 547 Q 543 525 565 530 Q 689 560 856 582 Q 865 581 873 592 Q 874 602 854 612 Q 827 631 773 613 L 720 600 Z" fill="lightgray" class="hide"/>
    <path d="M 602 424 Q 636 481 637 482 Q 630 501 599 508 Q 583 512 575 510 Q 569 507 571 498 Q 580 485 564 444 Q 552 410 508 353 Q 502 349 510 347 Q 558 363 592 412 L 602 424 Z" fill="lightgray" class="hide"/>
    <path d="M 677 396 Q 689 402 806 431 Q 833 438 837 442 Q 844 449 840 457 Q 833 467 805 473 Q 777 477 751 464 Q 721 452 689 442 Q 652 432 610 427 Q 604 426 602 424 C 585 417 585 417 592 412 Q 601 403 638 395 L 677 396 Z" fill="lightgray" class="hide"/>
    <path d="M 697 280 Q 764 293 871 295 Q 917 295 924 304 Q 928 314 914 324 Q 862 360 817 340 Q 769 330 699 315 L 645 305 Q 570 293 485 279 Q 469 276 482 263 Q 509 239 539 248 Q 585 263 639 271 L 697 280 Z" fill="lightgray" class="hide"/>
    <path d="M 699 315 Q 703 337 713 354 Q 722 369 708 377 Q 693 389 681 395 Q 680 396 677 396 C 650 408 633 416 638 395 Q 637 392 640 386 Q 644 377 645 305 L 639 271 Q 612 153 488 69 Q 476 62 487 59 Q 529 55 595 108 Q 664 162 684 257 L 699 315 Z" fill="lightgray" class="hide"/>
    <path d="M 684 257 Q 735 166 803 66 Q 816 50 841 48 Q 923 45 951 48 Q 958 49 960 53 Q 961 57 951 64 Q 837 121 761 205 Q 730 239 697 280 C 678 303 668 285 684 257 Z" fill="lightgray" class="hide"/></g><g transform="scale(1, -1) translate(0, -900)">
    <style type="text/css">
        .origin {display:none;}
        .hide {display:none;}
        .stroke {fill: #000000;}
        
.step1 {transform: translateX(1024px);}
.step2 {transform: translateX(2048px);}
.step3 {transform: translateX(3072px);}
.step4 {transform: translateX(4096px);}
.step5 {transform: translateX(5120px);}
.step6 {transform: translateX(6144px);}
.step7 {transform: translateX(7168px);}
.step8 {transform: translateX(8192px);}
.step9 {transform: translateX(9216px);}
.step10 {transform: translateX(10240px);}
.step11 {transform: translateX(11264px);}
.step12 {transform: translateX(12288px);}
.step13 {transform: translateX(13312px);}
.step14 {transform: translateX(14336px);}
.step15 {transform: translateX(15360px);}
.step16 {transform: translateX(16384px);}
.step17 {transform: translateX(17408px);}
.step18 {transform: translateX(18432px);}
.step19 {transform: translateX(19456px);}
.step20 {transform: translateX(20480px);}
.step21 {transform: translateX(21504px);}
.step22 {transform: translateX(22528px);}
.step23 {transform: translateX(23552px);}
.step24 {transform: translateX(24576px);}
.step25 {transform: translateX(25600px);}
.step26 {transform: translateX(26624px);}
.step27 {transform: translateX(27648px);}
.step28 {transform: translateX(28672px);}
.step29 {transform: translateX(29696px);}
    </style>

    <path d="M 295 582 Q 307 597 319 612 Q 353 658 386 697 Q 398 707 385 724 Q 346 763 321 761 Q 311 760 311 745 Q 311 691 275 634 L 245 592 Q 242 591 241 587 Q 208 544 167 511 Q 133 484 114 468 Q 104 453 120 457 Q 168 460 258 543 L 295 582 Z" fill="lightgray" class="stroke step1"/>
    <path d="M 278 396 Q 281 225 255 132 Q 249 116 241 115 Q 226 111 183 115 Q 153 122 149 116 Q 146 110 157 99 Q 199 69 227 40 Q 243 18 252 19 Q 259 16 276 35 Q 363 153 311 514 Q 304 551 295 582 L 275 634 Q 239 695 172 722 Q 159 729 155 717 Q 152 704 159 686 Q 168 668 185 665 Q 224 649 245 592 L 258 543 Q 265 509 270 472 L 278 396 Z" fill="lightgray" class="stroke step1"/>
    <path d="M 270 472 Q 204 364 57 222 Q 50 213 61 210 Q 79 207 186 294 Q 232 334 278 396 C 296 420 286 497 270 472 Z" fill="lightgray" class="hide"/>
    <path d="M 423 506 Q 487 605 525 681 Q 541 721 559 742 Q 566 752 561 765 Q 555 777 527 795 Q 500 808 482 807 Q 466 803 475 783 Q 487 762 480 726 Q 441 597 339 437 Q 332 427 329 421 Q 328 411 340 414 Q 352 417 399 473 L 423 506 Z" fill="lightgray" class="hide"/>
    <path d="M 399 473 Q 400 467 405 461 Q 432 398 414 218 Q 407 166 394 111 Q 382 62 417 21 L 418 19 Q 434 4 446 29 Q 459 68 459 111 Q 459 369 467 427 Q 474 452 465 462 Q 432 501 423 506 C 400 526 386 500 399 473 Z" fill="lightgray" class="hide"/>
    <path d="M 773 613 Q 794 662 816 677 Q 829 693 817 709 Q 748 757 701 729 Q 647 710 596 699 Q 583 698 584 689 Q 587 683 602 679 Q 614 676 708 694 Q 730 700 735 696 Q 742 689 739 674 Q 730 634 720 600 C 712 571 761 586 773 613 Z" fill="lightgray" class="hide"/>
    <path d="M 720 600 Q 711 599 704 597 Q 665 590 516 566 Q 491 562 510 547 Q 543 525 565 530 Q 689 560 856 582 Q 865 581 873 592 Q 874 602 854 612 Q 827 631 773 613 L 720 600 Z" fill="lightgray" class="hide"/>
    <path d="M 602 424 Q 636 481 637 482 Q 630 501 599 508 Q 583 512 575 510 Q 569 507 571 498 Q 580 485 564 444 Q 552 410 508 353 Q 502 349 510 347 Q 558 363 592 412 L 602 424 Z" fill="lightgray" class="hide"/>
    <path d="M 677 396 Q 689 402 806 431 Q 833 438 837 442 Q 844 449 840 457 Q 833 467 805 473 Q 777 477 751 464 Q 721 452 689 442 Q 652 432 610 427 Q 604 426 602 424 C 585 417 585 417 592 412 Q 601 403 638 395 L 677 396 Z" fill="lightgray" class="hide"/>
    <path d="M 697 280 Q 764 293 871 295 Q 917 295 924 304 Q 928 314 914 324 Q 862 360 817 340 Q 769 330 699 315 L 645 305 Q 570 293 485 279 Q 469 276 482 263 Q 509 239 539 248 Q 585 263 639 271 L 697 280 Z" fill="lightgray" class="hide"/>
    <path d="M 699 315 Q 703 337 713 354 Q 722 369 708 377 Q 693 389 681 395 Q 680 396 677 396 C 650 408 633 416 638 395 Q 637 392 640 386 Q 644 377 645 305 L 639 271 Q 612 153 488 69 Q 476 62 487 59 Q 529 55 595 108 Q 664 162 684 257 L 699 315 Z" fill="lightgray" class="hide"/>
    <path d="M 684 257 Q 735 166 803 66 Q 816 50 841 48 Q 923 45 951 48 Q 958 49 960 53 Q 961 57 951 64 Q 837 121 761 205 Q 730 239 697 280 C 678 303 668 285 684 257 Z" fill="lightgray" class="hide"/></g><g transform="scale(1, -1) translate(0, -900)">
    <style type="text/css">
        .origin {display:none;}
        .hide {display:none;}
        .stroke {fill: #000000;}
        
.step1 {transform: translateX(1024px);}
.step2 {transform: translateX(2048px);}
.step3 {transform: translateX(3072px);}
.step4 {transform: translateX(4096px);}
.step5 {transform: translateX(5120px);}
.step6 {transform: translateX(6144px);}
.step7 {transform: translateX(7168px);}
.step8 {transform: translateX(8192px);}
.step9 {transform: translateX(9216px);}
.step10 {transform: translateX(10240px);}
.step11 {transform: translateX(11264px);}
.step12 {transform: translateX(12288px);}
.step13 {transform: translateX(13312px);}
.step14 {transform: translateX(14336px);}
.step15 {transform: translateX(15360px);}
.step16 {transform: translateX(16384px);}
.step17 {transform: translateX(17408px);}
.step18 {transform: translateX(18432px);}
.step19 {transform: translateX(19456px);}
.step20 {transform: translateX(20480px);}
.step21 {transform: translateX(21504px);}
.step22 {transform: translateX(22528px);}
.step23 {transform: translateX(23552px);}
.step24 {transform: translateX(24576px);}
.step25 {transform: translateX(25600px);}
.step26 {transform: translateX(26624px);}
.step27 {transform: translateX(27648px);}
.step28 {transform: translateX(28672px);}
.step29 {transform: translateX(29696px);}
    </style>

    <path d="M 295 582 Q 307 597 319 612 Q 353 658 386 697 Q 398 707 385 724 Q 346 763 321 761 Q 311 760 311 745 Q 311 691 275 634 L 245 592 Q 242 591 241 587 Q 208 544 167 511 Q 133 484 114 468 Q 104 453 120 457 Q 168 460 258 543 L 295 582 Z" fill="lightgray" class="stroke step2"/>
    <path d="M 278 396 Q 281 225 255 132 Q 249 116 241 115 Q 226 111 183 115 Q 153 122 149 116 Q 146 110 157 99 Q 199 69 227 40 Q 243 18 252 19 Q 259 16 276 35 Q 363 153 311 514 Q 304 551 295 582 L 275 634 Q 239 695 172 722 Q 159 729 155 717 Q 152 704 159 686 Q 168 668 185 665 Q 224 649 245 592 L 258 543 Q 265 509 270 472 L 278 396 Z" fill="lightgray" class="stroke step2"/>
    <path d="M 270 472 Q 204 364 57 222 Q 50 213 61 210 Q 79 207 186 294 Q 232 334 278 396 C 296 420 286 497 270 472 Z" fill="lightgray" class="stroke step2"/>
    <path d="M 423 506 Q 487 605 525 681 Q 541 721 559 742 Q 566 752 561 765 Q 555 777 527 795 Q 500 808 482 807 Q 466 803 475 783 Q 487 762 480 726 Q 441 597 339 437 Q 332 427 329 421 Q 328 411 340 414 Q 352 417 399 473 L 423 506 Z" fill="lightgray" class="hide"/>
    <path d="M 399 473 Q 400 467 405 461 Q 432 398 414 218 Q 407 166 394 111 Q 382 62 417 21 L 418 19 Q 434 4 446 29 Q 459 68 459 111 Q 459 369 467 427 Q 474 452 465 462 Q 432 501 423 506 C 400 526 386 500 399 473 Z" fill="lightgray" class="hide"/>
    <path d="M 773 613 Q 794 662 816 677 Q 829 693 817 709 Q 748 757 701 729 Q 647 710 596 699 Q 583 698 584 689 Q 587 683 602 679 Q 614 676 708 694 Q 730 700 735 696 Q 742 689 739 674 Q 730 634 720 600 C 712 571 761 586 773 613 Z" fill="lightgray" class="hide"/>
    <path d="M 720 600 Q 711 599 704 597 Q 665 590 516 566 Q 491 562 510 547 Q 543 525 565 530 Q 689 560 856 582 Q 865 581 873 592 Q 874 602 854 612 Q 827 631 773 613 L 720 600 Z" fill="lightgray" class="hide"/>
    <path d="M 602 424 Q 636 481 637 482 Q 630 501 599 508 Q 583 512 575 510 Q 569 507 571 498 Q 580 485 564 444 Q 552 410 508 353 Q 502 349 510 347 Q 558 363 592 412 L 602 424 Z" fill="lightgray" class="hide"/>
    <path d="M 677 396 Q 689 402 806 431 Q 833 438 837 442 Q 844 449 840 457 Q 833 467 805 473 Q 777 477 751 464 Q 721 452 689 442 Q 652 432 610 427 Q 604 426 602 424 C 585 417 585 417 592 412 Q 601 403 638 395 L 677 396 Z" fill="lightgray" class="hide"/>
    <path d="M 697 280 Q 764 293 871 295 Q 917 295 924 304 Q 928 314 914 324 Q 862 360 817 340 Q 769 330 699 315 L 645 305 Q 570 293 485 279 Q 469 276 482 263 Q 509 239 539 248 Q 585 263 639 271 L 697 280 Z" fill="lightgray" class="hide"/>
    <path d="M 699 315 Q 703 337 713 354 Q 722 369 708 377 Q 693 389 681 395 Q 680 396 677 396 C 650 408 633 416 638 395 Q 637 392 640 386 Q 644 377 645 305 L 639 271 Q 612 153 488 69 Q 476 62 487 59 Q 529 55 595 108 Q 664 162 684 257 L 699 315 Z" fill="lightgray" class="hide"/>
    <path d="M 684 257 Q 735 166 803 66 Q 816 50 841 48 Q 923 45 951 48 Q 958 49 960 53 Q 961 57 951 64 Q 837 121 761 205 Q 730 239 697 280 C 678 303 668 285 684 257 Z" fill="lightgray" class="hide"/></g><g transform="scale(1, -1) translate(0, -900)">
    <style type="text/css">
        .origin {display:none;}
        .hide {display:none;}
        .stroke {fill: #000000;}
        
.step1 {transform: translateX(1024px);}
.step2 {transform: translateX(2048px);}
.step3 {transform: translateX(3072px);}
.step4 {transform: translateX(4096px);}
.step5 {transform: translateX(5120px);}
.step6 {transform: translateX(6144px);}
.step7 {transform: translateX(7168px);}
.step8 {transform: translateX(8192px);}
.step9 {transform: translateX(9216px);}
.step10 {transform: translateX(10240px);}
.step11 {transform: translateX(11264px);}
.step12 {transform: translateX(12288px);}
.step13 {transform: translateX(13312px);}
.step14 {transform: translateX(14336px);}
.step15 {transform: translateX(15360px);}
.step16 {transform: translateX(16384px);}
.step17 {transform: translateX(17408px);}
.step18 {transform: translateX(18432px);}
.step19 {transform: translateX(19456px);}
.step20 {transform: translateX(20480px);}
.step21 {transform: translateX(21504px);}
.step22 {transform: translateX(22528px);}
.step23 {transform: translateX(23552px);}
.step24 {transform: translateX(24576px);}
.step25 {transform: translateX(25600px);}
.step26 {transform: translateX(26624px);}
.step27 {transform: translateX(27648px);}
.step28 {transform: translateX(28672px);}
.step29 {transform: translateX(29696px);}
    </style>

    <path d="M 295 582 Q 307 597 319 612 Q 353 658 386 697 Q 398 707 385 724 Q 346 763 321 761 Q 311 760 311 745 Q 311 691 275 634 L 245 592 Q 242 591 241 587 Q 208 544 167 511 Q 133 484 114 468 Q 104 453 120 457 Q 168 460 258 543 L 295 582 Z" fill="lightgray" class="stroke step3"/>
    <path d="M 278 396 Q 281 225 255 132 Q 249 116 241 115 Q 226 111 183 115 Q 153 122 149 116 Q 146 110 157 99 Q 199 69 227 40 Q 243 18 252 19 Q 259 16 276 35 Q 363 153 311 514 Q 304 551 295 582 L 275 634 Q 239 695 172 722 Q 159 729 155 717 Q 152 704 159 686 Q 168 668 185 665 Q 224 649 245 592 L 258 543 Q 265 509 270 472 L 278 396 Z" fill="lightgray" class="stroke step3"/>
    <path d="M 270 472 Q 204 364 57 222 Q 50 213 61 210 Q 79 207 186 294 Q 232 334 278 396 C 296 420 286 497 270 472 Z" fill="lightgray" class="stroke step3"/>
    <path d="M 423 506 Q 487 605 525 681 Q 541 721 559 742 Q 566 752 561 765 Q 555 777 527 795 Q 500 808 482 807 Q 466 803 475 783 Q 487 762 480 726 Q 441 597 339 437 Q 332 427 329 421 Q 328 411 340 414 Q 352 417 399 473 L 423 506 Z" fill="lightgray" class="stroke step3"/>
    <path d="M 399 473 Q 400 467 405 461 Q 432 398 414 218 Q 407 166 394 111 Q 382 62 417 21 L 418 19 Q 434 4 446 29 Q 459 68 459 111 Q 459 369 467 427 Q 474 452 465 462 Q 432 501 423 506 C 400 526 386 500 399 473 Z" fill="lightgray" class="hide"/>
    <path d="M 773 613 Q 794 662 816 677 Q 829 693 817 709 Q 748 757 701 729 Q 647 710 596 699 Q 583 698 584 689 Q 587 683 602 679 Q 614 676 708 694 Q 730 700 735 696 Q 742 689 739 674 Q 730 634 720 600 C 712 571 761 586 773 613 Z" fill="lightgray" class="hide"/>
    <path d="M 720 600 Q 711 599 704 597 Q 665 590 516 566 Q 491 562 510 547 Q 543 525 565 530 Q 689 560 856 582 Q 865 581 873 592 Q 874 602 854 612 Q 827 631 773 613 L 720 600 Z" fill="lightgray" class="hide"/>
    <path d="M 602 424 Q 636 481 637 482 Q 630 501 599 508 Q 583 512 575 510 Q 569 507 571 498 Q 580 485 564 444 Q 552 410 508 353 Q 502 349 510 347 Q 558 363 592 412 L 602 424 Z" fill="lightgray" class="hide"/>
    <path d="M 677 396 Q 689 402 806 431 Q 833 438 837 442 Q 844 449 840 457 Q 833 467 805 473 Q 777 477 751 464 Q 721 452 689 442 Q 652 432 610 427 Q 604 426 602 424 C 585 417 585 417 592 412 Q 601 403 638 395 L 677 396 Z" fill="lightgray" class="hide"/>
    <path d="M 697 280 Q 764 293 871 295 Q 917 295 924 304 Q 928 314 914 324 Q 862 360 817 340 Q 769 330 699 315 L 645 305 Q 570 293 485 279 Q 469 276 482 263 Q 509 239 539 248 Q 585 263 639 271 L 697 280 Z" fill="lightgray" class="hide"/>
    <path d="M 699 315 Q 703 337 713 354 Q 722 369 708 377 Q 693 389 681 395 Q 680 396 677 396 C 650 408 633 416 638 395 Q 637 392 640 386 Q 644 377 645 305 L 639 271 Q 612 153 488 69 Q 476 62 487 59 Q 529 55 595 108 Q 664 162 684 257 L 699 315 Z" fill="lightgray" class="hide"/>
    <path d="M 684 257 Q 735 166 803 66 Q 816 50 841 48 Q 923 45 951 48 Q 958 49 960 53 Q 961 57 951 64 Q 837 121 761 205 Q 730 239 697 280 C 678 303 668 285 684 257 Z" fill="lightgray" class="hide"/></g><g transform="scale(1, -1) translate(0, -900)">
    <style type="text/css">
        .origin {display:none;}
        .hide {display:none;}
        .stroke {fill: #000000;}
        
.step1 {transform: translateX(1024px);}
.step2 {transform: translateX(2048px);}
.step3 {transform: translateX(3072px);}
.step4 {transform: translateX(4096px);}
.step5 {transform: translateX(5120px);}
.step6 {transform: translateX(6144px);}
.step7 {transform: translateX(7168px);}
.step8 {transform: translateX(8192px);}
.step9 {transform: translateX(9216px);}
.step10 {transform: translateX(10240px);}
.step11 {transform: translateX(11264px);}
.step12 {transform: translateX(12288px);}
.step13 {transform: translateX(13312px);}
.step14 {transform: translateX(14336px);}
.step15 {transform: translateX(15360px);}
.step16 {transform: translateX(16384px);}
.step17 {transform: translateX(17408px);}
.step18 {transform: translateX(18432px);}
.step19 {transform: translateX(19456px);}
.step20 {transform: translateX(20480px);}
.step21 {transform: translateX(21504px);}
.step22 {transform: translateX(22528px);}
.step23 {transform: translateX(23552px);}
.step24 {transform: translateX(24576px);}
.step25 {transform: translateX(25600px);}
.step26 {transform: translateX(26624px);}
.step27 {transform: translateX(27648px);}
.step28 {transform: translateX(28672px);}
.step29 {transform: translateX(29696px);}
    </style>

    <path d="M 295 582 Q 307 597 319 612 Q 353 658 386 697 Q 398 707 385 724 Q 346 763 321 761 Q 311 760 311 745 Q 311 691 275 634 L 245 592 Q 242 591 241 587 Q 208 544 167 511 Q 133 484 114 468 Q 104 453 120 457 Q 168 460 258 543 L 295 582 Z" fill="lightgray" class="stroke step4"/>
    <path d="M 278 396 Q 281 225 255 132 Q 249 116 241 115 Q 226 111 183 115 Q 153 122 149 116 Q 146 110 157 99 Q 199 69 227 40 Q 243 18 252 19 Q 259 16 276 35 Q 363 153 311 514 Q 304 551 295 582 L 275 634 Q 239 695 172 722 Q 159 729 155 717 Q 152 704 159 686 Q 168 668 185 665 Q 224 649 245 592 L 258 543 Q 265 509 270 472 L 278 396 Z" fill="lightgray" class="stroke step4"/>
    <path d="M 270 472 Q 204 364 57 222 Q 50 213 61 210 Q 79 207 186 294 Q 232 334 278 396 C 296 420 286 497 270 472 Z" fill="lightgray" class="stroke step4"/>
    <path d="M 423 506 Q 487 605 525 681 Q 541 721 559 742 Q 566 752 561 765 Q 555 777 527 795 Q 500 808 482 807 Q 466 803 475 783 Q 487 762 480 726 Q 441 597 339 437 Q 332 427 329 421 Q 328 411 340 414 Q 352 417 399 473 L 423 506 Z" fill="lightgray" class="stroke step4"/>
    <path d="M 399 473 Q 400 467 405 461 Q 432 398 414 218 Q 407 166 394 111 Q 382 62 417 21 L 418 19 Q 434 4 446 29 Q 459 68 459 111 Q 459 369 467 427 Q 474 452 465 462 Q 432 501 423 506 C 400 526 386 500 399 473 Z" fill="lightgray" class="stroke step4"/>
    <path d="M 773 613 Q 794 662 816 677 Q 829 693 817 709 Q 748 757 701 729 Q 647 710 596 699 Q 583 698 584 689 Q 587 683 602 679 Q 614 676 708 694 Q 730 700 735 696 Q 742 689 739 674 Q 730 634 720 600 C 712 571 761 586 773 613 Z" fill="lightgray" class="hide"/>
    <path d="M 720 600 Q 711 599 704 597 Q 665 590 516 566 Q 491 562 510 547 Q 543 525 565 530 Q 689 560 856 582 Q 865 581 873 592 Q 874 602 854 612 Q 827 631 773 613 L 720 600 Z" fill="lightgray" class="hide"/>
    <path d="M 602 424 Q 636 481 637 482 Q 630 501 599 508 Q 583 512 575 510 Q 569 507 571 498 Q 580 485 564 444 Q 552 410 508 353 Q 502 349 510 347 Q 558 363 592 412 L 602 424 Z" fill="lightgray" class="hide"/>
    <path d="M 677 396 Q 689 402 806 431 Q 833 438 837 442 Q 844 449 840 457 Q 833 467 805 473 Q 777 477 751 464 Q 721 452 689 442 Q 652 432 610 427 Q 604 426 602 424 C 585 417 585 417 592 412 Q 601 403 638 395 L 677 396 Z" fill="lightgray" class="hide"/>
    <path d="M 697 280 Q 764 293 871 295 Q 917 295 924 304 Q 928 314 914 324 Q 862 360 817 340 Q 769 330 699 315 L 645 305 Q 570 293 485 279 Q 469 276 482 263 Q 509 239 539 248 Q 585 263 639 271 L 697 280 Z" fill="lightgray" class="hide"/>
    <path d="M 699 315 Q 703 337 713 354 Q 722 369 708 377 Q 693 389 681 395 Q 680 396 677 396 C 650 408 633 416 638 395 Q 637 392 640 386 Q 644 377 645 305 L 639 271 Q 612 153 488 69 Q 476 62 487 59 Q 529 55 595 108 Q 664 162 684 257 L 699 315 Z" fill="lightgray" class="hide"/>
    <path d="M 684 257 Q 735 166 803 66 Q 816 50 841 48 Q 923 45 951 48 Q 958 49 960 53 Q 961 57 951 64 Q 837 121 761 205 Q 730 239 697 280 C 678 303 668 285 684 257 Z" fill="lightgray" class="hide"/></g><g transform="scale(1, -1) translate(0, -900)">
    <style type="text/css">
        .origin {display:none;}
        .hide {display:none;}
        .stroke {fill: #000000;}
        
.step1 {transform: translateX(1024px);}
.step2 {transform: translateX(2048px);}
.step3 {transform: translateX(3072px);}
.step4 {transform: translateX(4096px);}
.step5 {transform: translateX(5120px);}
.step6 {transform: translateX(6144px);}
.step7 {transform: translateX(7168px);}
.step8 {transform: translateX(8192px);}
.step9 {transform: translateX(9216px);}
.step10 {transform: translateX(10240px);}
.step11 {transform: translateX(11264px);}
.step12 {transform: translateX(12288px);}
.step13 {transform: translateX(13312px);}
.step14 {transform: translateX(14336px);}
.step15 {transform: translateX(15360px);}
.step16 {transform: translateX(16384px);}
.step17 {transform: translateX(17408px);}
.step18 {transform: translateX(18432px);}
.step19 {transform: translateX(19456px);}
.step20 {transform: translateX(20480px);}
.step21 {transform: translateX(21504px);}
.step22 {transform: translateX(22528px);}
.step23 {transform: translateX(23552px);}
.step24 {transform: translateX(24576px);}
.step25 {transform: translateX(25600px);}
.step26 {transform: translateX(26624px);}
.step27 {transform: translateX(27648px);}
.step28 {transform: translateX(28672px);}
.step29 {transform: translateX(29696px);}
    </style>

    <path d="M 295 582 Q 307 597 319 612 Q 353 658 386 697 Q 398 707 385 724 Q 346 763 321 761 Q 311 760 311 745 Q 311 691 275 634 L 245 592 Q 242 591 241 587 Q 208 544 167 511 Q 133 484 114 468 Q 104 453 120 457 Q 168 460 258 543 L 295 582 Z" fill="lightgray" class="stroke step5"/>
    <path d="M 278 396 Q 281 225 255 132 Q 249 116 241 115 Q 226 111 183 115 Q 153 122 149 116 Q 146 110 157 99 Q 199 69 227 40 Q 243 18 252 19 Q 259 16 276 35 Q 363 153 311 514 Q 304 551 295 582 L 275 634 Q 239 695 172 722 Q 159 729 155 717 Q 152 704 159 686 Q 168 668 185 665 Q 224 649 245 592 L 258 543 Q 265 509 270 472 L 278 396 Z" fill="lightgray" class="stroke step5"/>
    <path d="M 270 472 Q 204 364 57 222 Q 50 213 61 210 Q 79 207 186 294 Q 232 334 278 396 C 296 420 286 497 270 472 Z" fill="lightgray" class="stroke step5"/>
    <path d="M 423 506 Q 487 605 525 681 Q 541 721 559 742 Q 566 752 561 765 Q 555 777 527 795 Q 500 808 482 807 Q 466 803 475 783 Q 487 762 480 726 Q 441 597 339 437 Q 332 427 329 421 Q 328 411 340 414 Q 352 417 399 473 L 423 506 Z" fill="lightgray" class="stroke step5"/>
    <path d="M 399 473 Q 400 467 405 461 Q 432 398 414 218 Q 407 166 394 111 Q 382 62 417 21 L 418 19 Q 434 4 446 29 Q 459 68 459 111 Q 459 369 467 427 Q 474 452 465 462 Q 432 501 423 506 C 400 526 386 500 399 473 Z" fill="lightgray" class="stroke step5"/>
    <path d="M 773 613 Q 794 662 816 677 Q 829 693 817 709 Q 748 757 701 729 Q 647 710 596 699 Q 583 698 584 689 Q 587 683 602 679 Q 614 676 708 694 Q 730 700 735 696 Q 742 689 739 674 Q 730 634 720 600 C 712 571 761 586 773 613 Z" fill="lightgray" class="stroke step5"/>
    <path d="M 720 600 Q 711 599 704 597 Q 665 590 516 566 Q 491 562 510 547 Q 543 525 565 530 Q 689 560 856 582 Q 865 581 873 592 Q 874 602 854 612 Q 827 631 773 613 L 720 600 Z" fill="lightgray" class="hide"/>
    <path d="M 602 424 Q 636 481 637 482 Q 630 501 599 508 Q 583 512 575 510 Q 569 507 571 498 Q 580 485 564 444 Q 552 410 508 353 Q 502 349 510 347 Q 558 363 592 412 L 602 424 Z" fill="lightgray" class="hide"/>
    <path d="M 677 396 Q 689 402 806 431 Q 833 438 837 442 Q 844 449 840 457 Q 833 467 805 473 Q 777 477 751 464 Q 721 452 689 442 Q 652 432 610 427 Q 604 426 602 424 C 585 417 585 417 592 412 Q 601 403 638 395 L 677 396 Z" fill="lightgray" class="hide"/>
    <path d="M 697 280 Q 764 293 871 295 Q 917 295 924 304 Q 928 314 914 324 Q 862 360 817 340 Q 769 330 699 315 L 645 305 Q 570 293 485 279 Q 469 276 482 263 Q 509 239 539 248 Q 585 263 639 271 L 697 280 Z" fill="lightgray" class="hide"/>
    <path d="M 699 315 Q 703 337 713 354 Q 722 369 708 377 Q 693 389 681 395 Q 680 396 677 396 C 650 408 633 416 638 395 Q 637 392 640 386 Q 644 377 645 305 L 639 271 Q 612 153 488 69 Q 476 62 487 59 Q 529 55 595 108 Q 664 162 684 257 L 699 315 Z" fill="lightgray" class="hide"/>
    <path d="M 684 257 Q 735 166 803 66 Q 816 50 841 48 Q 923 45 951 48 Q 958 49 960 53 Q 961 57 951 64 Q 837 121 761 205 Q 730 239 697 280 C 678 303 668 285 684 257 Z" fill="lightgray" class="hide"/></g><g transform="scale(1, -1) translate(0, -900)">
    <style type="text/css">
        .origin {display:none;}
        .hide {display:none;}
        .stroke {fill: #000000;}
        
.step1 {transform: translateX(1024px);}
.step2 {transform: translateX(2048px);}
.step3 {transform: translateX(3072px);}
.step4 {transform: translateX(4096px);}
.step5 {transform: translateX(5120px);}
.step6 {transform: translateX(6144px);}
.step7 {transform: translateX(7168px);}
.step8 {transform: translateX(8192px);}
.step9 {transform: translateX(9216px);}
.step10 {transform: translateX(10240px);}
.step11 {transform: translateX(11264px);}
.step12 {transform: translateX(12288px);}
.step13 {transform: translateX(13312px);}
.step14 {transform: translateX(14336px);}
.step15 {transform: translateX(15360px);}
.step16 {transform: translateX(16384px);}
.step17 {transform: translateX(17408px);}
.step18 {transform: translateX(18432px);}
.step19 {transform: translateX(19456px);}
.step20 {transform: translateX(20480px);}
.step21 {transform: translateX(21504px);}
.step22 {transform: translateX(22528px);}
.step23 {transform: translateX(23552px);}
.step24 {transform: translateX(24576px);}
.step25 {transform: translateX(25600px);}
.step26 {transform: translateX(26624px);}
.step27 {transform: translateX(27648px);}
.step28 {transform: translateX(28672px);}
.step29 {transform: translateX(29696px);}
    </style>

    <path d="M 295 582 Q 307 597 319 612 Q 353 658 386 697 Q 398 707 385 724 Q 346 763 321 761 Q 311 760 311 745 Q 311 691 275 634 L 245 592 Q 242 591 241 587 Q 208 544 167 511 Q 133 484 114 468 Q 104 453 120 457 Q 168 460 258 543 L 295 582 Z" fill="lightgray" class="stroke step6"/>
    <path d="M 278 396 Q 281 225 255 132 Q 249 116 241 115 Q 226 111 183 115 Q 153 122 149 116 Q 146 110 157 99 Q 199 69 227 40 Q 243 18 252 19 Q 259 16 276 35 Q 363 153 311 514 Q 304 551 295 582 L 275 634 Q 239 695 172 722 Q 159 729 155 717 Q 152 704 159 686 Q 168 668 185 665 Q 224 649 245 592 L 258 543 Q 265 509 270 472 L 278 396 Z" fill="lightgray" class="stroke step6"/>
    <path d="M 270 472 Q 204 364 57 222 Q 50 213 61 210 Q 79 207 186 294 Q 232 334 278 396 C 296 420 286 497 270 472 Z" fill="lightgray" class="stroke step6"/>
    <path d="M 423 506 Q 487 605 525 681 Q 541 721 559 742 Q 566 752 561 765 Q 555 777 527 795 Q 500 808 482 807 Q 466 803 475 783 Q 487 762 480 726 Q 441 597 339 437 Q 332 427 329 421 Q 328 411 340 414 Q 352 417 399 473 L 423 506 Z" fill="lightgray" class="stroke step6"/>
    <path d="M 399 473 Q 400 467 405 461 Q 432 398 414 218 Q 407 166 394 111 Q 382 62 417 21 L 418 19 Q 434 4 446 29 Q 459 68 459 111 Q 459 369 467 427 Q 474 452 465 462 Q 432 501 423 506 C 400 526 386 500 399 473 Z" fill="lightgray" class="stroke step6"/>
    <path d="M 773 613 Q 794 662 816 677 Q 829 693 817 709 Q 748 757 701 729 Q 647 710 596 699 Q 583 698 584 689 Q 587 683 602 679 Q 614 676 708 694 Q 730 700 735 696 Q 742 689 739 674 Q 730 634 720 600 C 712 571 761 586 773 613 Z" fill="lightgray" class="stroke step6"/>
    <path d="M 720 600 Q 711 599 704 597 Q 665 590 516 566 Q 491 562 510 547 Q 543 525 565 530 Q 689 560 856 582 Q 865 581 873 592 Q 874 602 854 612 Q 827 631 773 613 L 720 600 Z" fill="lightgray" class="stroke step6"/>
    <path d="M 602 424 Q 636 481 637 482 Q 630 501 599 508 Q 583 512 575 510 Q 569 507 571 498 Q 580 485 564 444 Q 552 410 508 353 Q 502 349 510 347 Q 558 363 592 412 L 602 424 Z" fill="lightgray" class="hide"/>
    <path d="M 677 396 Q 689 402 806 431 Q 833 438 837 442 Q 844 449 840 457 Q 833 467 805 473 Q 777 477 751 464 Q 721 452 689 442 Q 652 432 610 427 Q 604 426 602 424 C 585 417 585 417 592 412 Q 601 403 638 395 L 677 396 Z" fill="lightgray" class="hide"/>
    <path d="M 697 280 Q 764 293 871 295 Q 917 295 924 304 Q 928 314 914 324 Q 862 360 817 340 Q 769 330 699 315 L 645 305 Q 570 293 485 279 Q 469 276 482 263 Q 509 239 539 248 Q 585 263 639 271 L 697 280 Z" fill="lightgray" class="hide"/>
    <path d="M 699 315 Q 703 337 713 354 Q 722 369 708 377 Q 693 389 681 395 Q 680 396 677 396 C 650 408 633 416 638 395 Q 637 392 640 386 Q 644 377 645 305 L 639 271 Q 612 153 488 69 Q 476 62 487 59 Q 529 55 595 108 Q 664 162 684 257 L 699 315 Z" fill="lightgray" class="hide"/>
    <path d="M 684 257 Q 735 166 803 66 Q 816 50 841 48 Q 923 45 951 48 Q 958 49 960 53 Q 961 57 951 64 Q 837 121 761 205 Q 730 239 697 280 C 678 303 668 285 684 257 Z" fill="lightgray" class="hide"/></g><g transform="scale(1, -1) translate(0, -900)">
    <style type="text/css">
        .origin {display:none;}
        .hide {display:none;}
        .stroke {fill: #000000;}
        
.step1 {transform: translateX(1024px);}
.step2 {transform: translateX(2048px);}
.step3 {transform: translateX(3072px);}
.step4 {transform: translateX(4096px);}
.step5 {transform: translateX(5120px);}
.step6 {transform: translateX(6144px);}
.step7 {transform: translateX(7168px);}
.step8 {transform: translateX(8192px);}
.step9 {transform: translateX(9216px);}
.step10 {transform: translateX(10240px);}
.step11 {transform: translateX(11264px);}
.step12 {transform: translateX(12288px);}
.step13 {transform: translateX(13312px);}
.step14 {transform: translateX(14336px);}
.step15 {transform: translateX(15360px);}
.step16 {transform: translateX(16384px);}
.step17 {transform: translateX(17408px);}
.step18 {transform: translateX(18432px);}
.step19 {transform: translateX(19456px);}
.step20 {transform: translateX(20480px);}
.step21 {transform: translateX(21504px);}
.step22 {transform: translateX(22528px);}
.step23 {transform: translateX(23552px);}
.step24 {transform: translateX(24576px);}
.step25 {transform: translateX(25600px);}
.step26 {transform: translateX(26624px);}
.step27 {transform: translateX(27648px);}
.step28 {transform: translateX(28672px);}
.step29 {transform: translateX(29696px);}
    </style>

    <path d="M 295 582 Q 307 597 319 612 Q 353 658 386 697 Q 398 707 385 724 Q 346 763 321 761 Q 311 760 311 745 Q 311 691 275 634 L 245 592 Q 242 591 241 587 Q 208 544 167 511 Q 133 484 114 468 Q 104 453 120 457 Q 168 460 258 543 L 295 582 Z" fill="lightgray" class="stroke step7"/>
    <path d="M 278 396 Q 281 225 255 132 Q 249 116 241 115 Q 226 111 183 115 Q 153 122 149 116 Q 146 110 157 99 Q 199 69 227 40 Q 243 18 252 19 Q 259 16 276 35 Q 363 153 311 514 Q 304 551 295 582 L 275 634 Q 239 695 172 722 Q 159 729 155 717 Q 152 704 159 686 Q 168 668 185 665 Q 224 649 245 592 L 258 543 Q 265 509 270 472 L 278 396 Z" fill="lightgray" class="stroke step7"/>
    <path d="M 270 472 Q 204 364 57 222 Q 50 213 61 210 Q 79 207 186 294 Q 232 334 278 396 C 296 420 286 497 270 472 Z" fill="lightgray" class="stroke step7"/>
    <path d="M 423 506 Q 487 605 525 681 Q 541 721 559 742 Q 566 752 561 765 Q 555 777 527 795 Q 500 808 482 807 Q 466 803 475 783 Q 487 762 480 726 Q 441 597 339 437 Q 332 427 329 421 Q 328 411 340 414 Q 352 417 399 473 L 423 506 Z" fill="lightgray" class="stroke step7"/>
    <path d="M 399 473 Q 400 467 405 461 Q 432 398 414 218 Q 407 166 394 111 Q 382 62 417 21 L 418 19 Q 434 4 446 29 Q 459 68 459 111 Q 459 369 467 427 Q 474 452 465 462 Q 432 501 423 506 C 400 526 386 500 399 473 Z" fill="lightgray" class="stroke step7"/>
    <path d="M 773 613 Q 794 662 816 677 Q 829 693 817 709 Q 748 757 701 729 Q 647 710 596 699 Q 583 698 584 689 Q 587 683 602 679 Q 614 676 708 694 Q 730 700 735 696 Q 742 689 739 674 Q 730 634 720 600 C 712 571 761 586 773 613 Z" fill="lightgray" class="stroke step7"/>
    <path d="M 720 600 Q 711 599 704 597 Q 665 590 516 566 Q 491 562 510 547 Q 543 525 565 530 Q 689 560 856 582 Q 865 581 873 592 Q 874 602 854 612 Q 827 631 773 613 L 720 600 Z" fill="lightgray" class="stroke step7"/>
    <path d="M 602 424 Q 636 481 637 482 Q 630 501 599 508 Q 583 512 575 510 Q 569 507 571 498 Q 580 485 564 444 Q 552 410 508 353 Q 502 349 510 347 Q 558 363 592 412 L 602 424 Z" fill="lightgray" class="stroke step7"/>
    <path d="M 677 396 Q 689 402 806 431 Q 833 438 837 442 Q 844 449 840 457 Q 833 467 805 473 Q 777 477 751 464 Q 721 452 689 442 Q 652 432 610 427 Q 604 426 602 424 C 585 417 585 417 592 412 Q 601 403 638 395 L 677 396 Z" fill="lightgray" class="hide"/>
    <path d="M 697 280 Q 764 293 871 295 Q 917 295 924 304 Q 928 314 914 324 Q 862 360 817 340 Q 769 330 699 315 L 645 305 Q 570 293 485 279 Q 469 276 482 263 Q 509 239 539 248 Q 585 263 639 271 L 697 280 Z" fill="lightgray" class="hide"/>
    <path d="M 699 315 Q 703 337 713 354 Q 722 369 708 377 Q 693 389 681 395 Q 680 396 677 396 C 650 408 633 416 638 395 Q 637 392 640 386 Q 644 377 645 305 L 639 271 Q 612 153 488 69 Q 476 62 487 59 Q 529 55 595 108 Q 664 162 684 257 L 699 315 Z" fill="lightgray" class="hide"/>
    <path d="M 684 257 Q 735 166 803 66 Q 816 50 841 48 Q 923 45 951 48 Q 958 49 960 53 Q 961 57 951 64 Q 837 121 761 205 Q 730 239 697 280 C 678 303 668 285 684 257 Z" fill="lightgray" class="hide"/></g><g transform="scale(1, -1) translate(0, -900)">
    <style type="text/css">
        .origin {display:none;}
        .hide {display:none;}
        .stroke {fill: #000000;}
        
.step1 {transform: translateX(1024px);}
.step2 {transform: translateX(2048px);}
.step3 {transform: translateX(3072px);}
.step4 {transform: translateX(4096px);}
.step5 {transform: translateX(5120px);}
.step6 {transform: translateX(6144px);}
.step7 {transform: translateX(7168px);}
.step8 {transform: translateX(8192px);}
.step9 {transform: translateX(9216px);}
.step10 {transform: translateX(10240px);}
.step11 {transform: translateX(11264px);}
.step12 {transform: translateX(12288px);}
.step13 {transform: translateX(13312px);}
.step14 {transform: translateX(14336px);}
.step15 {transform: translateX(15360px);}
.step16 {transform: translateX(16384px);}
.step17 {transform: translateX(17408px);}
.step18 {transform: translateX(18432px);}
.step19 {transform: translateX(19456px);}
.step20 {transform: translateX(20480px);}
.step21 {transform: translateX(21504px);}
.step22 {transform: translateX(22528px);}
.step23 {transform: translateX(23552px);}
.step24 {transform: translateX(24576px);}
.step25 {transform: translateX(25600px);}
.step26 {transform: translateX(26624px);}
.step27 {transform: translateX(27648px);}
.step28 {transform: translateX(28672px);}
.step29 {transform: translateX(29696px);}
    </style>

    <path d="M 295 582 Q 307 597 319 612 Q 353 658 386 697 Q 398 707 385 724 Q 346 763 321 761 Q 311 760 311 745 Q 311 691 275 634 L 245 592 Q 242 591 241 587 Q 208 544 167 511 Q 133 484 114 468 Q 104 453 120 457 Q 168 460 258 543 L 295 582 Z" fill="lightgray" class="stroke step8"/>
    <path d="M 278 396 Q 281 225 255 132 Q 249 116 241 115 Q 226 111 183 115 Q 153 122 149 116 Q 146 110 157 99 Q 199 69 227 40 Q 243 18 252 19 Q 259 16 276 35 Q 363 153 311 514 Q 304 551 295 582 L 275 634 Q 239 695 172 722 Q 159 729 155 717 Q 152 704 159 686 Q 168 668 185 665 Q 224 649 245 592 L 258 543 Q 265 509 270 472 L 278 396 Z" fill="lightgray" class="stroke step8"/>
    <path d="M 270 472 Q 204 364 57 222 Q 50 213 61 210 Q 79 207 186 294 Q 232 334 278 396 C 296 420 286 497 270 472 Z" fill="lightgray" class="stroke step8"/>
    <path d="M 423 506 Q 487 605 525 681 Q 541 721 559 742 Q 566 752 561 765 Q 555 777 527 795 Q 500 808 482 807 Q 466 803 475 783 Q 487 762 480 726 Q 441 597 339 437 Q 332 427 329 421 Q 328 411 340 414 Q 352 417 399 473 L 423 506 Z" fill="lightgray" class="stroke step8"/>
    <path d="M 399 473 Q 400 467 405 461 Q 432 398 414 218 Q 407 166 394 111 Q 382 62 417 21 L 418 19 Q 434 4 446 29 Q 459 68 459 111 Q 459 369 467 427 Q 474 452 465 462 Q 432 501 423 506 C 400 526 386 500 399 473 Z" fill="lightgray" class="stroke step8"/>
    <path d="M 773 613 Q 794 662 816 677 Q 829 693 817 709 Q 748 757 701 729 Q 647 710 596 699 Q 583 698 584 689 Q 587 683 602 679 Q 614 676 708 694 Q 730 700 735 696 Q 742 689 739 674 Q 730 634 720 600 C 712 571 761 586 773 613 Z" fill="lightgray" class="stroke step8"/>
    <path d="M 720 600 Q 711 599 704 597 Q 665 590 516 566 Q 491 562 510 547 Q 543 525 565 530 Q 689 560 856 582 Q 865 581 873 592 Q 874 602 854 612 Q 827 631 773 613 L 720 600 Z" fill="lightgray" class="stroke step8"/>
    <path d="M 602 424 Q 636 481 637 482 Q 630 501 599 508 Q 583 512 575 510 Q 569 507 571 498 Q 580 485 564 444 Q 552 410 508 353 Q 502 349 510 347 Q 558 363 592 412 L 602 424 Z" fill="lightgray" class="stroke step8"/>
    <path d="M 677 396 Q 689 402 806 431 Q 833 438 837 442 Q 844 449 840 457 Q 833 467 805 473 Q 777 477 751 464 Q 721 452 689 442 Q 652 432 610 427 Q 604 426 602 424 C 585 417 585 417 592 412 Q 601 403 638 395 L 677 396 Z" fill="lightgray" class="stroke step8"/>
    <path d="M 697 280 Q 764 293 871 295 Q 917 295 924 304 Q 928 314 914 324 Q 862 360 817 340 Q 769 330 699 315 L 645 305 Q 570 293 485 279 Q 469 276 482 263 Q 509 239 539 248 Q 585 263 639 271 L 697 280 Z" fill="lightgray" class="hide"/>
    <path d="M 699 315 Q 703 337 713 354 Q 722 369 708 377 Q 693 389 681 395 Q 680 396 677 396 C 650 408 633 416 638 395 Q 637 392 640 386 Q 644 377 645 305 L 639 271 Q 612 153 488 69 Q 476 62 487 59 Q 529 55 595 108 Q 664 162 684 257 L 699 315 Z" fill="lightgray" class="hide"/>
    <path d="M 684 257 Q 735 166 803 66 Q 816 50 841 48 Q 923 45 951 48 Q 958 49 960 53 Q 961 57 951 64 Q 837 121 761 205 Q 730 239 697 280 C 678 303 668 285 684 257 Z" fill="lightgray" class="hide"/></g><g transform="scale(1, -1) translate(0, -900)">
    <style type="text/css">
        .origin {display:none;}
        .hide {display:none;}
        .stroke {fill: #000000;}
        
.step1 {transform: translateX(1024px);}
.step2 {transform: translateX(2048px);}
.step3 {transform: translateX(3072px);}
.step4 {transform: translateX(4096px);}
.step5 {transform: translateX(5120px);}
.step6 {transform: translateX(6144px);}
.step7 {transform: translateX(7168px);}
.step8 {transform: translateX(8192px);}
.step9 {transform: translateX(9216px);}
.step10 {transform: translateX(10240px);}
.step11 {transform: translateX(11264px);}
.step12 {transform: translateX(12288px);}
.step13 {transform: translateX(13312px);}
.step14 {transform: translateX(14336px);}
.step15 {transform: translateX(15360px);}
.step16 {transform: translateX(16384px);}
.step17 {transform: translateX(17408px);}
.step18 {transform: translateX(18432px);}
.step19 {transform: translateX(19456px);}
.step20 {transform: translateX(20480px);}
.step21 {transform: translateX(21504px);}
.step22 {transform: translateX(22528px);}
.step23 {transform: translateX(23552px);}
.step24 {transform: translateX(24576px);}
.step25 {transform: translateX(25600px);}
.step26 {transform: translateX(26624px);}
.step27 {transform: translateX(27648px);}
.step28 {transform: translateX(28672px);}
.step29 {transform: translateX(29696px);}
    </style>

    <path d="M 295 582 Q 307 597 319 612 Q 353 658 386 697 Q 398 707 385 724 Q 346 763 321 761 Q 311 760 311 745 Q 311 691 275 634 L 245 592 Q 242 591 241 587 Q 208 544 167 511 Q 133 484 114 468 Q 104 453 120 457 Q 168 460 258 543 L 295 582 Z" fill="lightgray" class="stroke step9"/>
    <path d="M 278 396 Q 281 225 255 132 Q 249 116 241 115 Q 226 111 183 115 Q 153 122 149 116 Q 146 110 157 99 Q 199 69 227 40 Q 243 18 252 19 Q 259 16 276 35 Q 363 153 311 514 Q 304 551 295 582 L 275 634 Q 239 695 172 722 Q 159 729 155 717 Q 152 704 159 686 Q 168 668 185 665 Q 224 649 245 592 L 258 543 Q 265 509 270 472 L 278 396 Z" fill="lightgray" class="stroke step9"/>
    <path d="M 270 472 Q 204 364 57 222 Q 50 213 61 210 Q 79 207 186 294 Q 232 334 278 396 C 296 420 286 497 270 472 Z" fill="lightgray" class="stroke step9"/>
    <path d="M 423 506 Q 487 605 525 681 Q 541 721 559 742 Q 566 752 561 765 Q 555 777 527 795 Q 500 808 482 807 Q 466 803 475 783 Q 487 762 480 726 Q 441 597 339 437 Q 332 427 329 421 Q 328 411 340 414 Q 352 417 399 473 L 423 506 Z" fill="lightgray" class="stroke step9"/>
    <path d="M 399 473 Q 400 467 405 461 Q 432 398 414 218 Q 407 166 394 111 Q 382 62 417 21 L 418 19 Q 434 4 446 29 Q 459 68 459 111 Q 459 369 467 427 Q 474 452 465 462 Q 432 501 423 506 C 400 526 386 500 399 473 Z" fill="lightgray" class="stroke step9"/>
    <path d="M 773 613 Q 794 662 816 677 Q 829 693 817 709 Q 748 757 701 729 Q 647 710 596 699 Q 583 698 584 689 Q 587 683 602 679 Q 614 676 708 694 Q 730 700 735 696 Q 742 689 739 674 Q 730 634 720 600 C 712 571 761 586 773 613 Z" fill="lightgray" class="stroke step9"/>
    <path d="M 720 600 Q 711 599 704 597 Q 665 590 516 566 Q 491 562 510 547 Q 543 525 565 530 Q 689 560 856 582 Q 865 581 873 592 Q 874 602 854 612 Q 827 631 773 613 L 720 600 Z" fill="lightgray" class="stroke step9"/>
    <path d="M 602 424 Q 636 481 637 482 Q 630 501 599 508 Q 583 512 575 510 Q 569 507 571 498 Q 580 485 564 444 Q 552 410 508 353 Q 502 349 510 347 Q 558 363 592 412 L 602 424 Z" fill="lightgray" class="stroke step9"/>
    <path d="M 677 396 Q 689 402 806 431 Q 833 438 837 442 Q 844 449 840 457 Q 833 467 805 473 Q 777 477 751 464 Q 721 452 689 442 Q 652 432 610 427 Q 604 426 602 424 C 585 417 585 417 592 412 Q 601 403 638 395 L 677 396 Z" fill="lightgray" class="stroke step9"/>
    <path d="M 697 280 Q 764 293 871 295 Q 917 295 924 304 Q 928 314 914 324 Q 862 360 817 340 Q 769 330 699 315 L 645 305 Q 570 293 485 279 Q 469 276 482 263 Q 509 239 539 248 Q 585 263 639 271 L 697 280 Z" fill="lightgray" class="stroke step9"/>
    <path d="M 699 315 Q 703 337 713 354 Q 722 369 708 377 Q 693 389 681 395 Q 680 396 677 396 C 650 408 633 416 638 395 Q 637 392 640 386 Q 644 377 645 305 L 639 271 Q 612 153 488 69 Q 476 62 487 59 Q 529 55 595 108 Q 664 162 684 257 L 699 315 Z" fill="lightgray" class="hide"/>
    <path d="M 684 257 Q 735 166 803 66 Q 816 50 841 48 Q 923 45 951 48 Q 958 49 960 53 Q 961 57 951 64 Q 837 121 761 205 Q 730 239 697 280 C 678 303 668 285 684 257 Z" fill="lightgray" class="hide"/></g><g transform="scale(1, -1) translate(0, -900)">
    <style type="text/css">
        .origin {display:none;}
        .hide {display:none;}
        .stroke {fill: #000000;}
        
.step1 {transform: translateX(1024px);}
.step2 {transform: translateX(2048px);}
.step3 {transform: translateX(3072px);}
.step4 {transform: translateX(4096px);}
.step5 {transform: translateX(5120px);}
.step6 {transform: translateX(6144px);}
.step7 {transform: translateX(7168px);}
.step8 {transform: translateX(8192px);}
.step9 {transform: translateX(9216px);}
.step10 {transform: translateX(10240px);}
.step11 {transform: translateX(11264px);}
.step12 {transform: translateX(12288px);}
.step13 {transform: translateX(13312px);}
.step14 {transform: translateX(14336px);}
.step15 {transform: translateX(15360px);}
.step16 {transform: translateX(16384px);}
.step17 {transform: translateX(17408px);}
.step18 {transform: translateX(18432px);}
.step19 {transform: translateX(19456px);}
.step20 {transform: translateX(20480px);}
.step21 {transform: translateX(21504px);}
.step22 {transform: translateX(22528px);}
.step23 {transform: translateX(23552px);}
.step24 {transform: translateX(24576px);}
.step25 {transform: translateX(25600px);}
.step26 {transform: translateX(26624px);}
.step27 {transform: translateX(27648px);}
.step28 {transform: translateX(28672px);}
.step29 {transform: translateX(29696px);}
    </style>

    <path d="M 295 582 Q 307 597 319 612 Q 353 658 386 697 Q 398 707 385 724 Q 346 763 321 761 Q 311 760 311 745 Q 311 691 275 634 L 245 592 Q 242 591 241 587 Q 208 544 167 511 Q 133 484 114 468 Q 104 453 120 457 Q 168 460 258 543 L 295 582 Z" fill="lightgray" class="stroke step10"/>
    <path d="M 278 396 Q 281 225 255 132 Q 249 116 241 115 Q 226 111 183 115 Q 153 122 149 116 Q 146 110 157 99 Q 199 69 227 40 Q 243 18 252 19 Q 259 16 276 35 Q 363 153 311 514 Q 304 551 295 582 L 275 634 Q 239 695 172 722 Q 159 729 155 717 Q 152 704 159 686 Q 168 668 185 665 Q 224 649 245 592 L 258 543 Q 265 509 270 472 L 278 396 Z" fill="lightgray" class="stroke step10"/>
    <path d="M 270 472 Q 204 364 57 222 Q 50 213 61 210 Q 79 207 186 294 Q 232 334 278 396 C 296 420 286 497 270 472 Z" fill="lightgray" class="stroke step10"/>
    <path d="M 423 506 Q 487 605 525 681 Q 541 721 559 742 Q 566 752 561 765 Q 555 777 527 795 Q 500 808 482 807 Q 466 803 475 783 Q 487 762 480 726 Q 441 597 339 437 Q 332 427 329 421 Q 328 411 340 414 Q 352 417 399 473 L 423 506 Z" fill="lightgray" class="stroke step10"/>
    <path d="M 399 473 Q 400 467 405 461 Q 432 398 414 218 Q 407 166 394 111 Q 382 62 417 21 L 418 19 Q 434 4 446 29 Q 459 68 459 111 Q 459 369 467 427 Q 474 452 465 462 Q 432 501 423 506 C 400 526 386 500 399 473 Z" fill="lightgray" class="stroke step10"/>
    <path d="M 773 613 Q 794 662 816 677 Q 829 693 817 709 Q 748 757 701 729 Q 647 710 596 699 Q 583 698 584 689 Q 587 683 602 679 Q 614 676 708 694 Q 730 700 735 696 Q 742 689 739 674 Q 730 634 720 600 C 712 571 761 586 773 613 Z" fill="lightgray" class="stroke step10"/>
    <path d="M 720 600 Q 711 599 704 597 Q 665 590 516 566 Q 491 562 510 547 Q 543 525 565 530 Q 689 560 856 582 Q 865 581 873 592 Q 874 602 854 612 Q 827 631 773 613 L 720 600 Z" fill="lightgray" class="stroke step10"/>
    <path d="M 602 424 Q 636 481 637 482 Q 630 501 599 508 Q 583 512 575 510 Q 569 507 571 498 Q 580 485 564 444 Q 552 410 508 353 Q 502 349 510 347 Q 558 363 592 412 L 602 424 Z" fill="lightgray" class="stroke step10"/>
    <path d="M 677 396 Q 689 402 806 431 Q 833 438 837 442 Q 844 449 840 457 Q 833 467 805 473 Q 777 477 751 464 Q 721 452 689 442 Q 652 432 610 427 Q 604 426 602 424 C 585 417 585 417 592 412 Q 601 403 638 395 L 677 396 Z" fill="lightgray" class="stroke step10"/>
    <path d="M 697 280 Q 764 293 871 295 Q 917 295 924 304 Q 928 314 914 324 Q 862 360 817 340 Q 769 330 699 315 L 645 305 Q 570 293 485 279 Q 469 276 482 263 Q 509 239 539 248 Q 585 263 639 271 L 697 280 Z" fill="lightgray" class="stroke step10"/>
    <path d="M 699 315 Q 703 337 713 354 Q 722 369 708 377 Q 693 389 681 395 Q 680 396 677 396 C 650 408 633 416 638 395 Q 637 392 640 386 Q 644 377 645 305 L 639 271 Q 612 153 488 69 Q 476 62 487 59 Q 529 55 595 108 Q 664 162 684 257 L 699 315 Z" fill="lightgray" class="stroke step10"/>
    <path d="M 684 257 Q 735 166 803 66 Q 816 50 841 48 Q 923 45 951 48 Q 958 49 960 53 Q 961 57 951 64 Q 837 121 761 205 Q 730 239 697 280 C 678 303 668 285 684 257 Z" fill="lightgray" class="hide"/></g><g transform="scale(1, -1) translate(0, -900)">
    <style type="text/css">
        .origin {display:none;}
        .hide {display:none;}
        .stroke {fill: #000000;}
        
.step1 {transform: translateX(1024px);}
.step2 {transform: translateX(2048px);}
.step3 {transform: translateX(3072px);}
.step4 {transform: translateX(4096px);}
.step5 {transform: translateX(5120px);}
.step6 {transform: translateX(6144px);}
.step7 {transform: translateX(7168px);}
.step8 {transform: translateX(8192px);}
.step9 {transform: translateX(9216px);}
.step10 {transform: translateX(10240px);}
.step11 {transform: translateX(11264px);}
.step12 {transform: translateX(12288px);}
.step13 {transform: translateX(13312px);}
.step14 {transform: translateX(14336px);}
.step15 {transform: translateX(15360px);}
.step16 {transform: translateX(16384px);}
.step17 {transform: translateX(17408px);}
.step18 {transform: translateX(18432px);}
.step19 {transform: translateX(19456px);}
.step20 {transform: translateX(20480px);}
.step21 {transform: translateX(21504px);}
.step22 {transform: translateX(22528px);}
.step23 {transform: translateX(23552px);}
.step24 {transform: translateX(24576px);}
.step25 {transform: translateX(25600px);}
.step26 {transform: translateX(26624px);}
.step27 {transform: translateX(27648px);}
.step28 {transform: translateX(28672px);}
.step29 {transform: translateX(29696px);}
    </style>

    <path d="M 295 582 Q 307 597 319 612 Q 353 658 386 697 Q 398 707 385 724 Q 346 763 321 761 Q 311 760 311 745 Q 311 691 275 634 L 245 592 Q 242 591 241 587 Q 208 544 167 511 Q 133 484 114 468 Q 104 453 120 457 Q 168 460 258 543 L 295 582 Z" fill="lightgray" class="stroke step11"/>
    <path d="M 278 396 Q 281 225 255 132 Q 249 116 241 115 Q 226 111 183 115 Q 153 122 149 116 Q 146 110 157 99 Q 199 69 227 40 Q 243 18 252 19 Q 259 16 276 35 Q 363 153 311 514 Q 304 551 295 582 L 275 634 Q 239 695 172 722 Q 159 729 155 717 Q 152 704 159 686 Q 168 668 185 665 Q 224 649 245 592 L 258 543 Q 265 509 270 472 L 278 396 Z" fill="lightgray" class="stroke step11"/>
    <path d="M 270 472 Q 204 364 57 222 Q 50 213 61 210 Q 79 207 186 294 Q 232 334 278 396 C 296 420 286 497 270 472 Z" fill="lightgray" class="stroke step11"/>
    <path d="M 423 506 Q 487 605 525 681 Q 541 721 559 742 Q 566 752 561 765 Q 555 777 527 795 Q 500 808 482 807 Q 466 803 475 783 Q 487 762 480 726 Q 441 597 339 437 Q 332 427 329 421 Q 328 411 340 414 Q 352 417 399 473 L 423 506 Z" fill="lightgray" class="stroke step11"/>
    <path d="M 399 473 Q 400 467 405 461 Q 432 398 414 218 Q 407 166 394 111 Q 382 62 417 21 L 418 19 Q 434 4 446 29 Q 459 68 459 111 Q 459 369 467 427 Q 474 452 465 462 Q 432 501 423 506 C 400 526 386 500 399 473 Z" fill="lightgray" class="stroke step11"/>
    <path d="M 773 613 Q 794 662 816 677 Q 829 693 817 709 Q 748 757 701 729 Q 647 710 596 699 Q 583 698 584 689 Q 587 683 602 679 Q 614 676 708 694 Q 730 700 735 696 Q 742 689 739 674 Q 730 634 720 600 C 712 571 761 586 773 613 Z" fill="lightgray" class="stroke step11"/>
    <path d="M 720 600 Q 711 599 704 597 Q 665 590 516 566 Q 491 562 510 547 Q 543 525 565 530 Q 689 560 856 582 Q 865 581 873 592 Q 874 602 854 612 Q 827 631 773 613 L 720 600 Z" fill="lightgray" class="stroke step11"/>
    <path d="M 602 424 Q 636 481 637 482 Q 630 501 599 508 Q 583 512 575 510 Q 569 507 571 498 Q 580 485 564 444 Q 552 410 508 353 Q 502 349 510 347 Q 558 363 592 412 L 602 424 Z" fill="lightgray" class="stroke step11"/>
    <path d="M 677 396 Q 689 402 806 431 Q 833 438 837 442 Q 844 449 840 457 Q 833 467 805 473 Q 777 477 751 464 Q 721 452 689 442 Q 652 432 610 427 Q 604 426 602 424 C 585 417 585 417 592 412 Q 601 403 638 395 L 677 396 Z" fill="lightgray" class="stroke step11"/>
    <path d="M 697 280 Q 764 293 871 295 Q 917 295 924 304 Q 928 314 914 324 Q 862 360 817 340 Q 769 330 699 315 L 645 305 Q 570 293 485 279 Q 469 276 482 263 Q 509 239 539 248 Q 585 263 639 271 L 697 280 Z" fill="lightgray" class="stroke step11"/>
    <path d="M 699 315 Q 703 337 713 354 Q 722 369 708 377 Q 693 389 681 395 Q 680 396 677 396 C 650 408 633 416 638 395 Q 637 392 640 386 Q 644 377 645 305 L 639 271 Q 612 153 488 69 Q 476 62 487 59 Q 529 55 595 108 Q 664 162 684 257 L 699 315 Z" fill="lightgray" class="stroke step11"/>
    <path d="M 684 257 Q 735 166 803 66 Q 816 50 841 48 Q 923 45 951 48 Q 958 49 960 53 Q 961 57 951 64 Q 837 121 761 205 Q 730 239 697 280 C 678 303 668 285 684 257 Z" fill="lightgray" class="stroke step11"/></g></svg>