<svg version="1.1" viewBox="0 0 11264 1024" xmlns="http://www.w3.org/2000/svg">
  
  <g transform="scale(1, -1) translate(0, -900)" class="origin">
    <style type="text/css">
        .origin {display:none;}
        .hide {display:none;}
        .stroke {fill: #000000;}
        
.step1 {transform: translateX(1024px);}
.step2 {transform: translateX(2048px);}
.step3 {transform: translateX(3072px);}
.step4 {transform: translateX(4096px);}
.step5 {transform: translateX(5120px);}
.step6 {transform: translateX(6144px);}
.step7 {transform: translateX(7168px);}
.step8 {transform: translateX(8192px);}
.step9 {transform: translateX(9216px);}
.step10 {transform: translateX(10240px);}
.step11 {transform: translateX(11264px);}
.step12 {transform: translateX(12288px);}
.step13 {transform: translateX(13312px);}
.step14 {transform: translateX(14336px);}
.step15 {transform: translateX(15360px);}
.step16 {transform: translateX(16384px);}
.step17 {transform: translateX(17408px);}
.step18 {transform: translateX(18432px);}
.step19 {transform: translateX(19456px);}
.step20 {transform: translateX(20480px);}
.step21 {transform: translateX(21504px);}
.step22 {transform: translateX(22528px);}
.step23 {transform: translateX(23552px);}
.step24 {transform: translateX(24576px);}
.step25 {transform: translateX(25600px);}
.step26 {transform: translateX(26624px);}
.step27 {transform: translateX(27648px);}
.step28 {transform: translateX(28672px);}
.step29 {transform: translateX(29696px);}
    </style>

    <path d="M 276 640 Q 319 653 367 663 Q 395 670 400 675 Q 409 684 404 692 Q 395 704 366 710 Q 336 714 265 687 Q 201 669 152 663 Q 115 654 142 639 Q 179 620 232 629 L 276 640 Z" fill="lightgray"/>
    <path d="M 290 431 Q 374 459 378 462 Q 385 471 380 478 Q 373 488 345 491 Q 317 494 291 480 L 246 461 Q 165 439 149 435 Q 116 426 141 413 Q 183 395 243 417 L 245 417 L 290 431 Z" fill="lightgray"/>
    <path d="M 285 265 Q 286 353 290 431 L 291 480 Q 294 624 295 625 L 294 626 Q 284 635 276 640 C 252 658 222 657 232 629 Q 245 608 246 461 L 245 417 Q 244 350 244 251 C 244 221 285 235 285 265 Z" fill="lightgray"/>
    <path d="M 244 251 Q 193 235 141 217 Q 125 211 95 211 Q 82 210 81 198 Q 80 185 90 178 Q 112 163 147 146 Q 157 143 168 152 Q 204 182 352 258 Q 374 270 389 283 Q 402 290 402 300 Q 396 306 384 302 Q 336 284 285 265 L 244 251 Z" fill="lightgray"/>
    <path d="M 652 547 Q 659 650 663 743 Q 666 776 676 807 Q 679 817 660 831 Q 629 847 606 851 Q 591 854 584 846 Q 577 839 585 825 Q 604 800 604 783 Q 614 668 613 534 C 613 504 650 517 652 547 Z" fill="lightgray"/>
    <path d="M 458 670 Q 492 619 520 602 Q 533 598 543 609 Q 550 619 550 636 Q 543 675 492 695 Q 461 710 450 707 Q 444 707 445 695 Q 445 685 458 670 Z" fill="lightgray"/>
    <path d="M 771 729 Q 753 699 703 638 Q 693 622 710 625 Q 752 646 775 662 Q 850 710 854 710 Q 875 720 864 737 Q 825 785 791 780 Q 778 779 782 765 Q 785 747 771 729 Z" fill="lightgray"/>
    <path d="M 522 518 Q 503 533 480 541 Q 473 542 467 536 Q 463 532 470 522 Q 503 444 475 284 Q 472 266 465 245 Q 458 223 462 207 Q 469 179 479 167 Q 489 155 497 167 Q 521 195 522 291 Q 522 435 531 492 C 533 510 533 510 522 518 Z" fill="lightgray"/>
    <path d="M 741 236 Q 734 214 747 193 Q 760 165 770 166 Q 783 167 798 199 Q 811 224 811 244 Q 781 446 814 505 Q 823 526 819 534 Q 791 556 745 575 Q 730 579 708 571 Q 683 558 652 547 L 613 534 Q 562 524 522 518 C 492 513 502 486 531 492 Q 532 492 636 514 Q 711 536 728 525 Q 738 504 743 446 Q 750 271 741 236 Z" fill="lightgray"/>
    <path d="M 606 373 Q 613 171 543 89 Q 528 76 509 61 Q 475 36 397 3 Q 385 0 382 -3 Q 378 -7 391 -11 Q 473 -17 574 56 Q 584 66 594 76 Q 645 137 653 301 Q 657 373 667 401 Q 671 411 663 417 Q 615 456 584 446 Q 568 439 581 424 Q 606 399 606 373 Z" fill="lightgray"/>
    <path d="M 712 107 Q 764 52 828 -26 Q 844 -48 859 -54 Q 869 -55 877 -45 Q 890 -32 881 15 Q 871 75 723 136 Q 719 139 715 139 Q 706 146 703 133 Q 702 118 712 107 Z" fill="lightgray"/></g>
<g transform="scale(1, -1) translate(0, -900)">
    <style type="text/css">
        .origin {display:none;}
        .hide {display:none;}
        .stroke {fill: #000000;}
        
.step1 {transform: translateX(1024px);}
.step2 {transform: translateX(2048px);}
.step3 {transform: translateX(3072px);}
.step4 {transform: translateX(4096px);}
.step5 {transform: translateX(5120px);}
.step6 {transform: translateX(6144px);}
.step7 {transform: translateX(7168px);}
.step8 {transform: translateX(8192px);}
.step9 {transform: translateX(9216px);}
.step10 {transform: translateX(10240px);}
.step11 {transform: translateX(11264px);}
.step12 {transform: translateX(12288px);}
.step13 {transform: translateX(13312px);}
.step14 {transform: translateX(14336px);}
.step15 {transform: translateX(15360px);}
.step16 {transform: translateX(16384px);}
.step17 {transform: translateX(17408px);}
.step18 {transform: translateX(18432px);}
.step19 {transform: translateX(19456px);}
.step20 {transform: translateX(20480px);}
.step21 {transform: translateX(21504px);}
.step22 {transform: translateX(22528px);}
.step23 {transform: translateX(23552px);}
.step24 {transform: translateX(24576px);}
.step25 {transform: translateX(25600px);}
.step26 {transform: translateX(26624px);}
.step27 {transform: translateX(27648px);}
.step28 {transform: translateX(28672px);}
.step29 {transform: translateX(29696px);}
    </style>

    <path d="M 276 640 Q 319 653 367 663 Q 395 670 400 675 Q 409 684 404 692 Q 395 704 366 710 Q 336 714 265 687 Q 201 669 152 663 Q 115 654 142 639 Q 179 620 232 629 L 276 640 Z" fill="lightgray" class="stroke step0"/>
    <path d="M 290 431 Q 374 459 378 462 Q 385 471 380 478 Q 373 488 345 491 Q 317 494 291 480 L 246 461 Q 165 439 149 435 Q 116 426 141 413 Q 183 395 243 417 L 245 417 L 290 431 Z" fill="lightgray" class="hide"/>
    <path d="M 285 265 Q 286 353 290 431 L 291 480 Q 294 624 295 625 L 294 626 Q 284 635 276 640 C 252 658 222 657 232 629 Q 245 608 246 461 L 245 417 Q 244 350 244 251 C 244 221 285 235 285 265 Z" fill="lightgray" class="hide"/>
    <path d="M 244 251 Q 193 235 141 217 Q 125 211 95 211 Q 82 210 81 198 Q 80 185 90 178 Q 112 163 147 146 Q 157 143 168 152 Q 204 182 352 258 Q 374 270 389 283 Q 402 290 402 300 Q 396 306 384 302 Q 336 284 285 265 L 244 251 Z" fill="lightgray" class="hide"/>
    <path d="M 652 547 Q 659 650 663 743 Q 666 776 676 807 Q 679 817 660 831 Q 629 847 606 851 Q 591 854 584 846 Q 577 839 585 825 Q 604 800 604 783 Q 614 668 613 534 C 613 504 650 517 652 547 Z" fill="lightgray" class="hide"/>
    <path d="M 458 670 Q 492 619 520 602 Q 533 598 543 609 Q 550 619 550 636 Q 543 675 492 695 Q 461 710 450 707 Q 444 707 445 695 Q 445 685 458 670 Z" fill="lightgray" class="hide"/>
    <path d="M 771 729 Q 753 699 703 638 Q 693 622 710 625 Q 752 646 775 662 Q 850 710 854 710 Q 875 720 864 737 Q 825 785 791 780 Q 778 779 782 765 Q 785 747 771 729 Z" fill="lightgray" class="hide"/>
    <path d="M 522 518 Q 503 533 480 541 Q 473 542 467 536 Q 463 532 470 522 Q 503 444 475 284 Q 472 266 465 245 Q 458 223 462 207 Q 469 179 479 167 Q 489 155 497 167 Q 521 195 522 291 Q 522 435 531 492 C 533 510 533 510 522 518 Z" fill="lightgray" class="hide"/>
    <path d="M 741 236 Q 734 214 747 193 Q 760 165 770 166 Q 783 167 798 199 Q 811 224 811 244 Q 781 446 814 505 Q 823 526 819 534 Q 791 556 745 575 Q 730 579 708 571 Q 683 558 652 547 L 613 534 Q 562 524 522 518 C 492 513 502 486 531 492 Q 532 492 636 514 Q 711 536 728 525 Q 738 504 743 446 Q 750 271 741 236 Z" fill="lightgray" class="hide"/>
    <path d="M 606 373 Q 613 171 543 89 Q 528 76 509 61 Q 475 36 397 3 Q 385 0 382 -3 Q 378 -7 391 -11 Q 473 -17 574 56 Q 584 66 594 76 Q 645 137 653 301 Q 657 373 667 401 Q 671 411 663 417 Q 615 456 584 446 Q 568 439 581 424 Q 606 399 606 373 Z" fill="lightgray" class="hide"/>
    <path d="M 712 107 Q 764 52 828 -26 Q 844 -48 859 -54 Q 869 -55 877 -45 Q 890 -32 881 15 Q 871 75 723 136 Q 719 139 715 139 Q 706 146 703 133 Q 702 118 712 107 Z" fill="lightgray" class="hide"/></g><g transform="scale(1, -1) translate(0, -900)">
    <style type="text/css">
        .origin {display:none;}
        .hide {display:none;}
        .stroke {fill: #000000;}
        
.step1 {transform: translateX(1024px);}
.step2 {transform: translateX(2048px);}
.step3 {transform: translateX(3072px);}
.step4 {transform: translateX(4096px);}
.step5 {transform: translateX(5120px);}
.step6 {transform: translateX(6144px);}
.step7 {transform: translateX(7168px);}
.step8 {transform: translateX(8192px);}
.step9 {transform: translateX(9216px);}
.step10 {transform: translateX(10240px);}
.step11 {transform: translateX(11264px);}
.step12 {transform: translateX(12288px);}
.step13 {transform: translateX(13312px);}
.step14 {transform: translateX(14336px);}
.step15 {transform: translateX(15360px);}
.step16 {transform: translateX(16384px);}
.step17 {transform: translateX(17408px);}
.step18 {transform: translateX(18432px);}
.step19 {transform: translateX(19456px);}
.step20 {transform: translateX(20480px);}
.step21 {transform: translateX(21504px);}
.step22 {transform: translateX(22528px);}
.step23 {transform: translateX(23552px);}
.step24 {transform: translateX(24576px);}
.step25 {transform: translateX(25600px);}
.step26 {transform: translateX(26624px);}
.step27 {transform: translateX(27648px);}
.step28 {transform: translateX(28672px);}
.step29 {transform: translateX(29696px);}
    </style>

    <path d="M 276 640 Q 319 653 367 663 Q 395 670 400 675 Q 409 684 404 692 Q 395 704 366 710 Q 336 714 265 687 Q 201 669 152 663 Q 115 654 142 639 Q 179 620 232 629 L 276 640 Z" fill="lightgray" class="stroke step1"/>
    <path d="M 290 431 Q 374 459 378 462 Q 385 471 380 478 Q 373 488 345 491 Q 317 494 291 480 L 246 461 Q 165 439 149 435 Q 116 426 141 413 Q 183 395 243 417 L 245 417 L 290 431 Z" fill="lightgray" class="stroke step1"/>
    <path d="M 285 265 Q 286 353 290 431 L 291 480 Q 294 624 295 625 L 294 626 Q 284 635 276 640 C 252 658 222 657 232 629 Q 245 608 246 461 L 245 417 Q 244 350 244 251 C 244 221 285 235 285 265 Z" fill="lightgray" class="hide"/>
    <path d="M 244 251 Q 193 235 141 217 Q 125 211 95 211 Q 82 210 81 198 Q 80 185 90 178 Q 112 163 147 146 Q 157 143 168 152 Q 204 182 352 258 Q 374 270 389 283 Q 402 290 402 300 Q 396 306 384 302 Q 336 284 285 265 L 244 251 Z" fill="lightgray" class="hide"/>
    <path d="M 652 547 Q 659 650 663 743 Q 666 776 676 807 Q 679 817 660 831 Q 629 847 606 851 Q 591 854 584 846 Q 577 839 585 825 Q 604 800 604 783 Q 614 668 613 534 C 613 504 650 517 652 547 Z" fill="lightgray" class="hide"/>
    <path d="M 458 670 Q 492 619 520 602 Q 533 598 543 609 Q 550 619 550 636 Q 543 675 492 695 Q 461 710 450 707 Q 444 707 445 695 Q 445 685 458 670 Z" fill="lightgray" class="hide"/>
    <path d="M 771 729 Q 753 699 703 638 Q 693 622 710 625 Q 752 646 775 662 Q 850 710 854 710 Q 875 720 864 737 Q 825 785 791 780 Q 778 779 782 765 Q 785 747 771 729 Z" fill="lightgray" class="hide"/>
    <path d="M 522 518 Q 503 533 480 541 Q 473 542 467 536 Q 463 532 470 522 Q 503 444 475 284 Q 472 266 465 245 Q 458 223 462 207 Q 469 179 479 167 Q 489 155 497 167 Q 521 195 522 291 Q 522 435 531 492 C 533 510 533 510 522 518 Z" fill="lightgray" class="hide"/>
    <path d="M 741 236 Q 734 214 747 193 Q 760 165 770 166 Q 783 167 798 199 Q 811 224 811 244 Q 781 446 814 505 Q 823 526 819 534 Q 791 556 745 575 Q 730 579 708 571 Q 683 558 652 547 L 613 534 Q 562 524 522 518 C 492 513 502 486 531 492 Q 532 492 636 514 Q 711 536 728 525 Q 738 504 743 446 Q 750 271 741 236 Z" fill="lightgray" class="hide"/>
    <path d="M 606 373 Q 613 171 543 89 Q 528 76 509 61 Q 475 36 397 3 Q 385 0 382 -3 Q 378 -7 391 -11 Q 473 -17 574 56 Q 584 66 594 76 Q 645 137 653 301 Q 657 373 667 401 Q 671 411 663 417 Q 615 456 584 446 Q 568 439 581 424 Q 606 399 606 373 Z" fill="lightgray" class="hide"/>
    <path d="M 712 107 Q 764 52 828 -26 Q 844 -48 859 -54 Q 869 -55 877 -45 Q 890 -32 881 15 Q 871 75 723 136 Q 719 139 715 139 Q 706 146 703 133 Q 702 118 712 107 Z" fill="lightgray" class="hide"/></g><g transform="scale(1, -1) translate(0, -900)">
    <style type="text/css">
        .origin {display:none;}
        .hide {display:none;}
        .stroke {fill: #000000;}
        
.step1 {transform: translateX(1024px);}
.step2 {transform: translateX(2048px);}
.step3 {transform: translateX(3072px);}
.step4 {transform: translateX(4096px);}
.step5 {transform: translateX(5120px);}
.step6 {transform: translateX(6144px);}
.step7 {transform: translateX(7168px);}
.step8 {transform: translateX(8192px);}
.step9 {transform: translateX(9216px);}
.step10 {transform: translateX(10240px);}
.step11 {transform: translateX(11264px);}
.step12 {transform: translateX(12288px);}
.step13 {transform: translateX(13312px);}
.step14 {transform: translateX(14336px);}
.step15 {transform: translateX(15360px);}
.step16 {transform: translateX(16384px);}
.step17 {transform: translateX(17408px);}
.step18 {transform: translateX(18432px);}
.step19 {transform: translateX(19456px);}
.step20 {transform: translateX(20480px);}
.step21 {transform: translateX(21504px);}
.step22 {transform: translateX(22528px);}
.step23 {transform: translateX(23552px);}
.step24 {transform: translateX(24576px);}
.step25 {transform: translateX(25600px);}
.step26 {transform: translateX(26624px);}
.step27 {transform: translateX(27648px);}
.step28 {transform: translateX(28672px);}
.step29 {transform: translateX(29696px);}
    </style>

    <path d="M 276 640 Q 319 653 367 663 Q 395 670 400 675 Q 409 684 404 692 Q 395 704 366 710 Q 336 714 265 687 Q 201 669 152 663 Q 115 654 142 639 Q 179 620 232 629 L 276 640 Z" fill="lightgray" class="stroke step2"/>
    <path d="M 290 431 Q 374 459 378 462 Q 385 471 380 478 Q 373 488 345 491 Q 317 494 291 480 L 246 461 Q 165 439 149 435 Q 116 426 141 413 Q 183 395 243 417 L 245 417 L 290 431 Z" fill="lightgray" class="stroke step2"/>
    <path d="M 285 265 Q 286 353 290 431 L 291 480 Q 294 624 295 625 L 294 626 Q 284 635 276 640 C 252 658 222 657 232 629 Q 245 608 246 461 L 245 417 Q 244 350 244 251 C 244 221 285 235 285 265 Z" fill="lightgray" class="stroke step2"/>
    <path d="M 244 251 Q 193 235 141 217 Q 125 211 95 211 Q 82 210 81 198 Q 80 185 90 178 Q 112 163 147 146 Q 157 143 168 152 Q 204 182 352 258 Q 374 270 389 283 Q 402 290 402 300 Q 396 306 384 302 Q 336 284 285 265 L 244 251 Z" fill="lightgray" class="hide"/>
    <path d="M 652 547 Q 659 650 663 743 Q 666 776 676 807 Q 679 817 660 831 Q 629 847 606 851 Q 591 854 584 846 Q 577 839 585 825 Q 604 800 604 783 Q 614 668 613 534 C 613 504 650 517 652 547 Z" fill="lightgray" class="hide"/>
    <path d="M 458 670 Q 492 619 520 602 Q 533 598 543 609 Q 550 619 550 636 Q 543 675 492 695 Q 461 710 450 707 Q 444 707 445 695 Q 445 685 458 670 Z" fill="lightgray" class="hide"/>
    <path d="M 771 729 Q 753 699 703 638 Q 693 622 710 625 Q 752 646 775 662 Q 850 710 854 710 Q 875 720 864 737 Q 825 785 791 780 Q 778 779 782 765 Q 785 747 771 729 Z" fill="lightgray" class="hide"/>
    <path d="M 522 518 Q 503 533 480 541 Q 473 542 467 536 Q 463 532 470 522 Q 503 444 475 284 Q 472 266 465 245 Q 458 223 462 207 Q 469 179 479 167 Q 489 155 497 167 Q 521 195 522 291 Q 522 435 531 492 C 533 510 533 510 522 518 Z" fill="lightgray" class="hide"/>
    <path d="M 741 236 Q 734 214 747 193 Q 760 165 770 166 Q 783 167 798 199 Q 811 224 811 244 Q 781 446 814 505 Q 823 526 819 534 Q 791 556 745 575 Q 730 579 708 571 Q 683 558 652 547 L 613 534 Q 562 524 522 518 C 492 513 502 486 531 492 Q 532 492 636 514 Q 711 536 728 525 Q 738 504 743 446 Q 750 271 741 236 Z" fill="lightgray" class="hide"/>
    <path d="M 606 373 Q 613 171 543 89 Q 528 76 509 61 Q 475 36 397 3 Q 385 0 382 -3 Q 378 -7 391 -11 Q 473 -17 574 56 Q 584 66 594 76 Q 645 137 653 301 Q 657 373 667 401 Q 671 411 663 417 Q 615 456 584 446 Q 568 439 581 424 Q 606 399 606 373 Z" fill="lightgray" class="hide"/>
    <path d="M 712 107 Q 764 52 828 -26 Q 844 -48 859 -54 Q 869 -55 877 -45 Q 890 -32 881 15 Q 871 75 723 136 Q 719 139 715 139 Q 706 146 703 133 Q 702 118 712 107 Z" fill="lightgray" class="hide"/></g><g transform="scale(1, -1) translate(0, -900)">
    <style type="text/css">
        .origin {display:none;}
        .hide {display:none;}
        .stroke {fill: #000000;}
        
.step1 {transform: translateX(1024px);}
.step2 {transform: translateX(2048px);}
.step3 {transform: translateX(3072px);}
.step4 {transform: translateX(4096px);}
.step5 {transform: translateX(5120px);}
.step6 {transform: translateX(6144px);}
.step7 {transform: translateX(7168px);}
.step8 {transform: translateX(8192px);}
.step9 {transform: translateX(9216px);}
.step10 {transform: translateX(10240px);}
.step11 {transform: translateX(11264px);}
.step12 {transform: translateX(12288px);}
.step13 {transform: translateX(13312px);}
.step14 {transform: translateX(14336px);}
.step15 {transform: translateX(15360px);}
.step16 {transform: translateX(16384px);}
.step17 {transform: translateX(17408px);}
.step18 {transform: translateX(18432px);}
.step19 {transform: translateX(19456px);}
.step20 {transform: translateX(20480px);}
.step21 {transform: translateX(21504px);}
.step22 {transform: translateX(22528px);}
.step23 {transform: translateX(23552px);}
.step24 {transform: translateX(24576px);}
.step25 {transform: translateX(25600px);}
.step26 {transform: translateX(26624px);}
.step27 {transform: translateX(27648px);}
.step28 {transform: translateX(28672px);}
.step29 {transform: translateX(29696px);}
    </style>

    <path d="M 276 640 Q 319 653 367 663 Q 395 670 400 675 Q 409 684 404 692 Q 395 704 366 710 Q 336 714 265 687 Q 201 669 152 663 Q 115 654 142 639 Q 179 620 232 629 L 276 640 Z" fill="lightgray" class="stroke step3"/>
    <path d="M 290 431 Q 374 459 378 462 Q 385 471 380 478 Q 373 488 345 491 Q 317 494 291 480 L 246 461 Q 165 439 149 435 Q 116 426 141 413 Q 183 395 243 417 L 245 417 L 290 431 Z" fill="lightgray" class="stroke step3"/>
    <path d="M 285 265 Q 286 353 290 431 L 291 480 Q 294 624 295 625 L 294 626 Q 284 635 276 640 C 252 658 222 657 232 629 Q 245 608 246 461 L 245 417 Q 244 350 244 251 C 244 221 285 235 285 265 Z" fill="lightgray" class="stroke step3"/>
    <path d="M 244 251 Q 193 235 141 217 Q 125 211 95 211 Q 82 210 81 198 Q 80 185 90 178 Q 112 163 147 146 Q 157 143 168 152 Q 204 182 352 258 Q 374 270 389 283 Q 402 290 402 300 Q 396 306 384 302 Q 336 284 285 265 L 244 251 Z" fill="lightgray" class="stroke step3"/>
    <path d="M 652 547 Q 659 650 663 743 Q 666 776 676 807 Q 679 817 660 831 Q 629 847 606 851 Q 591 854 584 846 Q 577 839 585 825 Q 604 800 604 783 Q 614 668 613 534 C 613 504 650 517 652 547 Z" fill="lightgray" class="hide"/>
    <path d="M 458 670 Q 492 619 520 602 Q 533 598 543 609 Q 550 619 550 636 Q 543 675 492 695 Q 461 710 450 707 Q 444 707 445 695 Q 445 685 458 670 Z" fill="lightgray" class="hide"/>
    <path d="M 771 729 Q 753 699 703 638 Q 693 622 710 625 Q 752 646 775 662 Q 850 710 854 710 Q 875 720 864 737 Q 825 785 791 780 Q 778 779 782 765 Q 785 747 771 729 Z" fill="lightgray" class="hide"/>
    <path d="M 522 518 Q 503 533 480 541 Q 473 542 467 536 Q 463 532 470 522 Q 503 444 475 284 Q 472 266 465 245 Q 458 223 462 207 Q 469 179 479 167 Q 489 155 497 167 Q 521 195 522 291 Q 522 435 531 492 C 533 510 533 510 522 518 Z" fill="lightgray" class="hide"/>
    <path d="M 741 236 Q 734 214 747 193 Q 760 165 770 166 Q 783 167 798 199 Q 811 224 811 244 Q 781 446 814 505 Q 823 526 819 534 Q 791 556 745 575 Q 730 579 708 571 Q 683 558 652 547 L 613 534 Q 562 524 522 518 C 492 513 502 486 531 492 Q 532 492 636 514 Q 711 536 728 525 Q 738 504 743 446 Q 750 271 741 236 Z" fill="lightgray" class="hide"/>
    <path d="M 606 373 Q 613 171 543 89 Q 528 76 509 61 Q 475 36 397 3 Q 385 0 382 -3 Q 378 -7 391 -11 Q 473 -17 574 56 Q 584 66 594 76 Q 645 137 653 301 Q 657 373 667 401 Q 671 411 663 417 Q 615 456 584 446 Q 568 439 581 424 Q 606 399 606 373 Z" fill="lightgray" class="hide"/>
    <path d="M 712 107 Q 764 52 828 -26 Q 844 -48 859 -54 Q 869 -55 877 -45 Q 890 -32 881 15 Q 871 75 723 136 Q 719 139 715 139 Q 706 146 703 133 Q 702 118 712 107 Z" fill="lightgray" class="hide"/></g><g transform="scale(1, -1) translate(0, -900)">
    <style type="text/css">
        .origin {display:none;}
        .hide {display:none;}
        .stroke {fill: #000000;}
        
.step1 {transform: translateX(1024px);}
.step2 {transform: translateX(2048px);}
.step3 {transform: translateX(3072px);}
.step4 {transform: translateX(4096px);}
.step5 {transform: translateX(5120px);}
.step6 {transform: translateX(6144px);}
.step7 {transform: translateX(7168px);}
.step8 {transform: translateX(8192px);}
.step9 {transform: translateX(9216px);}
.step10 {transform: translateX(10240px);}
.step11 {transform: translateX(11264px);}
.step12 {transform: translateX(12288px);}
.step13 {transform: translateX(13312px);}
.step14 {transform: translateX(14336px);}
.step15 {transform: translateX(15360px);}
.step16 {transform: translateX(16384px);}
.step17 {transform: translateX(17408px);}
.step18 {transform: translateX(18432px);}
.step19 {transform: translateX(19456px);}
.step20 {transform: translateX(20480px);}
.step21 {transform: translateX(21504px);}
.step22 {transform: translateX(22528px);}
.step23 {transform: translateX(23552px);}
.step24 {transform: translateX(24576px);}
.step25 {transform: translateX(25600px);}
.step26 {transform: translateX(26624px);}
.step27 {transform: translateX(27648px);}
.step28 {transform: translateX(28672px);}
.step29 {transform: translateX(29696px);}
    </style>

    <path d="M 276 640 Q 319 653 367 663 Q 395 670 400 675 Q 409 684 404 692 Q 395 704 366 710 Q 336 714 265 687 Q 201 669 152 663 Q 115 654 142 639 Q 179 620 232 629 L 276 640 Z" fill="lightgray" class="stroke step4"/>
    <path d="M 290 431 Q 374 459 378 462 Q 385 471 380 478 Q 373 488 345 491 Q 317 494 291 480 L 246 461 Q 165 439 149 435 Q 116 426 141 413 Q 183 395 243 417 L 245 417 L 290 431 Z" fill="lightgray" class="stroke step4"/>
    <path d="M 285 265 Q 286 353 290 431 L 291 480 Q 294 624 295 625 L 294 626 Q 284 635 276 640 C 252 658 222 657 232 629 Q 245 608 246 461 L 245 417 Q 244 350 244 251 C 244 221 285 235 285 265 Z" fill="lightgray" class="stroke step4"/>
    <path d="M 244 251 Q 193 235 141 217 Q 125 211 95 211 Q 82 210 81 198 Q 80 185 90 178 Q 112 163 147 146 Q 157 143 168 152 Q 204 182 352 258 Q 374 270 389 283 Q 402 290 402 300 Q 396 306 384 302 Q 336 284 285 265 L 244 251 Z" fill="lightgray" class="stroke step4"/>
    <path d="M 652 547 Q 659 650 663 743 Q 666 776 676 807 Q 679 817 660 831 Q 629 847 606 851 Q 591 854 584 846 Q 577 839 585 825 Q 604 800 604 783 Q 614 668 613 534 C 613 504 650 517 652 547 Z" fill="lightgray" class="stroke step4"/>
    <path d="M 458 670 Q 492 619 520 602 Q 533 598 543 609 Q 550 619 550 636 Q 543 675 492 695 Q 461 710 450 707 Q 444 707 445 695 Q 445 685 458 670 Z" fill="lightgray" class="hide"/>
    <path d="M 771 729 Q 753 699 703 638 Q 693 622 710 625 Q 752 646 775 662 Q 850 710 854 710 Q 875 720 864 737 Q 825 785 791 780 Q 778 779 782 765 Q 785 747 771 729 Z" fill="lightgray" class="hide"/>
    <path d="M 522 518 Q 503 533 480 541 Q 473 542 467 536 Q 463 532 470 522 Q 503 444 475 284 Q 472 266 465 245 Q 458 223 462 207 Q 469 179 479 167 Q 489 155 497 167 Q 521 195 522 291 Q 522 435 531 492 C 533 510 533 510 522 518 Z" fill="lightgray" class="hide"/>
    <path d="M 741 236 Q 734 214 747 193 Q 760 165 770 166 Q 783 167 798 199 Q 811 224 811 244 Q 781 446 814 505 Q 823 526 819 534 Q 791 556 745 575 Q 730 579 708 571 Q 683 558 652 547 L 613 534 Q 562 524 522 518 C 492 513 502 486 531 492 Q 532 492 636 514 Q 711 536 728 525 Q 738 504 743 446 Q 750 271 741 236 Z" fill="lightgray" class="hide"/>
    <path d="M 606 373 Q 613 171 543 89 Q 528 76 509 61 Q 475 36 397 3 Q 385 0 382 -3 Q 378 -7 391 -11 Q 473 -17 574 56 Q 584 66 594 76 Q 645 137 653 301 Q 657 373 667 401 Q 671 411 663 417 Q 615 456 584 446 Q 568 439 581 424 Q 606 399 606 373 Z" fill="lightgray" class="hide"/>
    <path d="M 712 107 Q 764 52 828 -26 Q 844 -48 859 -54 Q 869 -55 877 -45 Q 890 -32 881 15 Q 871 75 723 136 Q 719 139 715 139 Q 706 146 703 133 Q 702 118 712 107 Z" fill="lightgray" class="hide"/></g><g transform="scale(1, -1) translate(0, -900)">
    <style type="text/css">
        .origin {display:none;}
        .hide {display:none;}
        .stroke {fill: #000000;}
        
.step1 {transform: translateX(1024px);}
.step2 {transform: translateX(2048px);}
.step3 {transform: translateX(3072px);}
.step4 {transform: translateX(4096px);}
.step5 {transform: translateX(5120px);}
.step6 {transform: translateX(6144px);}
.step7 {transform: translateX(7168px);}
.step8 {transform: translateX(8192px);}
.step9 {transform: translateX(9216px);}
.step10 {transform: translateX(10240px);}
.step11 {transform: translateX(11264px);}
.step12 {transform: translateX(12288px);}
.step13 {transform: translateX(13312px);}
.step14 {transform: translateX(14336px);}
.step15 {transform: translateX(15360px);}
.step16 {transform: translateX(16384px);}
.step17 {transform: translateX(17408px);}
.step18 {transform: translateX(18432px);}
.step19 {transform: translateX(19456px);}
.step20 {transform: translateX(20480px);}
.step21 {transform: translateX(21504px);}
.step22 {transform: translateX(22528px);}
.step23 {transform: translateX(23552px);}
.step24 {transform: translateX(24576px);}
.step25 {transform: translateX(25600px);}
.step26 {transform: translateX(26624px);}
.step27 {transform: translateX(27648px);}
.step28 {transform: translateX(28672px);}
.step29 {transform: translateX(29696px);}
    </style>

    <path d="M 276 640 Q 319 653 367 663 Q 395 670 400 675 Q 409 684 404 692 Q 395 704 366 710 Q 336 714 265 687 Q 201 669 152 663 Q 115 654 142 639 Q 179 620 232 629 L 276 640 Z" fill="lightgray" class="stroke step5"/>
    <path d="M 290 431 Q 374 459 378 462 Q 385 471 380 478 Q 373 488 345 491 Q 317 494 291 480 L 246 461 Q 165 439 149 435 Q 116 426 141 413 Q 183 395 243 417 L 245 417 L 290 431 Z" fill="lightgray" class="stroke step5"/>
    <path d="M 285 265 Q 286 353 290 431 L 291 480 Q 294 624 295 625 L 294 626 Q 284 635 276 640 C 252 658 222 657 232 629 Q 245 608 246 461 L 245 417 Q 244 350 244 251 C 244 221 285 235 285 265 Z" fill="lightgray" class="stroke step5"/>
    <path d="M 244 251 Q 193 235 141 217 Q 125 211 95 211 Q 82 210 81 198 Q 80 185 90 178 Q 112 163 147 146 Q 157 143 168 152 Q 204 182 352 258 Q 374 270 389 283 Q 402 290 402 300 Q 396 306 384 302 Q 336 284 285 265 L 244 251 Z" fill="lightgray" class="stroke step5"/>
    <path d="M 652 547 Q 659 650 663 743 Q 666 776 676 807 Q 679 817 660 831 Q 629 847 606 851 Q 591 854 584 846 Q 577 839 585 825 Q 604 800 604 783 Q 614 668 613 534 C 613 504 650 517 652 547 Z" fill="lightgray" class="stroke step5"/>
    <path d="M 458 670 Q 492 619 520 602 Q 533 598 543 609 Q 550 619 550 636 Q 543 675 492 695 Q 461 710 450 707 Q 444 707 445 695 Q 445 685 458 670 Z" fill="lightgray" class="stroke step5"/>
    <path d="M 771 729 Q 753 699 703 638 Q 693 622 710 625 Q 752 646 775 662 Q 850 710 854 710 Q 875 720 864 737 Q 825 785 791 780 Q 778 779 782 765 Q 785 747 771 729 Z" fill="lightgray" class="hide"/>
    <path d="M 522 518 Q 503 533 480 541 Q 473 542 467 536 Q 463 532 470 522 Q 503 444 475 284 Q 472 266 465 245 Q 458 223 462 207 Q 469 179 479 167 Q 489 155 497 167 Q 521 195 522 291 Q 522 435 531 492 C 533 510 533 510 522 518 Z" fill="lightgray" class="hide"/>
    <path d="M 741 236 Q 734 214 747 193 Q 760 165 770 166 Q 783 167 798 199 Q 811 224 811 244 Q 781 446 814 505 Q 823 526 819 534 Q 791 556 745 575 Q 730 579 708 571 Q 683 558 652 547 L 613 534 Q 562 524 522 518 C 492 513 502 486 531 492 Q 532 492 636 514 Q 711 536 728 525 Q 738 504 743 446 Q 750 271 741 236 Z" fill="lightgray" class="hide"/>
    <path d="M 606 373 Q 613 171 543 89 Q 528 76 509 61 Q 475 36 397 3 Q 385 0 382 -3 Q 378 -7 391 -11 Q 473 -17 574 56 Q 584 66 594 76 Q 645 137 653 301 Q 657 373 667 401 Q 671 411 663 417 Q 615 456 584 446 Q 568 439 581 424 Q 606 399 606 373 Z" fill="lightgray" class="hide"/>
    <path d="M 712 107 Q 764 52 828 -26 Q 844 -48 859 -54 Q 869 -55 877 -45 Q 890 -32 881 15 Q 871 75 723 136 Q 719 139 715 139 Q 706 146 703 133 Q 702 118 712 107 Z" fill="lightgray" class="hide"/></g><g transform="scale(1, -1) translate(0, -900)">
    <style type="text/css">
        .origin {display:none;}
        .hide {display:none;}
        .stroke {fill: #000000;}
        
.step1 {transform: translateX(1024px);}
.step2 {transform: translateX(2048px);}
.step3 {transform: translateX(3072px);}
.step4 {transform: translateX(4096px);}
.step5 {transform: translateX(5120px);}
.step6 {transform: translateX(6144px);}
.step7 {transform: translateX(7168px);}
.step8 {transform: translateX(8192px);}
.step9 {transform: translateX(9216px);}
.step10 {transform: translateX(10240px);}
.step11 {transform: translateX(11264px);}
.step12 {transform: translateX(12288px);}
.step13 {transform: translateX(13312px);}
.step14 {transform: translateX(14336px);}
.step15 {transform: translateX(15360px);}
.step16 {transform: translateX(16384px);}
.step17 {transform: translateX(17408px);}
.step18 {transform: translateX(18432px);}
.step19 {transform: translateX(19456px);}
.step20 {transform: translateX(20480px);}
.step21 {transform: translateX(21504px);}
.step22 {transform: translateX(22528px);}
.step23 {transform: translateX(23552px);}
.step24 {transform: translateX(24576px);}
.step25 {transform: translateX(25600px);}
.step26 {transform: translateX(26624px);}
.step27 {transform: translateX(27648px);}
.step28 {transform: translateX(28672px);}
.step29 {transform: translateX(29696px);}
    </style>

    <path d="M 276 640 Q 319 653 367 663 Q 395 670 400 675 Q 409 684 404 692 Q 395 704 366 710 Q 336 714 265 687 Q 201 669 152 663 Q 115 654 142 639 Q 179 620 232 629 L 276 640 Z" fill="lightgray" class="stroke step6"/>
    <path d="M 290 431 Q 374 459 378 462 Q 385 471 380 478 Q 373 488 345 491 Q 317 494 291 480 L 246 461 Q 165 439 149 435 Q 116 426 141 413 Q 183 395 243 417 L 245 417 L 290 431 Z" fill="lightgray" class="stroke step6"/>
    <path d="M 285 265 Q 286 353 290 431 L 291 480 Q 294 624 295 625 L 294 626 Q 284 635 276 640 C 252 658 222 657 232 629 Q 245 608 246 461 L 245 417 Q 244 350 244 251 C 244 221 285 235 285 265 Z" fill="lightgray" class="stroke step6"/>
    <path d="M 244 251 Q 193 235 141 217 Q 125 211 95 211 Q 82 210 81 198 Q 80 185 90 178 Q 112 163 147 146 Q 157 143 168 152 Q 204 182 352 258 Q 374 270 389 283 Q 402 290 402 300 Q 396 306 384 302 Q 336 284 285 265 L 244 251 Z" fill="lightgray" class="stroke step6"/>
    <path d="M 652 547 Q 659 650 663 743 Q 666 776 676 807 Q 679 817 660 831 Q 629 847 606 851 Q 591 854 584 846 Q 577 839 585 825 Q 604 800 604 783 Q 614 668 613 534 C 613 504 650 517 652 547 Z" fill="lightgray" class="stroke step6"/>
    <path d="M 458 670 Q 492 619 520 602 Q 533 598 543 609 Q 550 619 550 636 Q 543 675 492 695 Q 461 710 450 707 Q 444 707 445 695 Q 445 685 458 670 Z" fill="lightgray" class="stroke step6"/>
    <path d="M 771 729 Q 753 699 703 638 Q 693 622 710 625 Q 752 646 775 662 Q 850 710 854 710 Q 875 720 864 737 Q 825 785 791 780 Q 778 779 782 765 Q 785 747 771 729 Z" fill="lightgray" class="stroke step6"/>
    <path d="M 522 518 Q 503 533 480 541 Q 473 542 467 536 Q 463 532 470 522 Q 503 444 475 284 Q 472 266 465 245 Q 458 223 462 207 Q 469 179 479 167 Q 489 155 497 167 Q 521 195 522 291 Q 522 435 531 492 C 533 510 533 510 522 518 Z" fill="lightgray" class="hide"/>
    <path d="M 741 236 Q 734 214 747 193 Q 760 165 770 166 Q 783 167 798 199 Q 811 224 811 244 Q 781 446 814 505 Q 823 526 819 534 Q 791 556 745 575 Q 730 579 708 571 Q 683 558 652 547 L 613 534 Q 562 524 522 518 C 492 513 502 486 531 492 Q 532 492 636 514 Q 711 536 728 525 Q 738 504 743 446 Q 750 271 741 236 Z" fill="lightgray" class="hide"/>
    <path d="M 606 373 Q 613 171 543 89 Q 528 76 509 61 Q 475 36 397 3 Q 385 0 382 -3 Q 378 -7 391 -11 Q 473 -17 574 56 Q 584 66 594 76 Q 645 137 653 301 Q 657 373 667 401 Q 671 411 663 417 Q 615 456 584 446 Q 568 439 581 424 Q 606 399 606 373 Z" fill="lightgray" class="hide"/>
    <path d="M 712 107 Q 764 52 828 -26 Q 844 -48 859 -54 Q 869 -55 877 -45 Q 890 -32 881 15 Q 871 75 723 136 Q 719 139 715 139 Q 706 146 703 133 Q 702 118 712 107 Z" fill="lightgray" class="hide"/></g><g transform="scale(1, -1) translate(0, -900)">
    <style type="text/css">
        .origin {display:none;}
        .hide {display:none;}
        .stroke {fill: #000000;}
        
.step1 {transform: translateX(1024px);}
.step2 {transform: translateX(2048px);}
.step3 {transform: translateX(3072px);}
.step4 {transform: translateX(4096px);}
.step5 {transform: translateX(5120px);}
.step6 {transform: translateX(6144px);}
.step7 {transform: translateX(7168px);}
.step8 {transform: translateX(8192px);}
.step9 {transform: translateX(9216px);}
.step10 {transform: translateX(10240px);}
.step11 {transform: translateX(11264px);}
.step12 {transform: translateX(12288px);}
.step13 {transform: translateX(13312px);}
.step14 {transform: translateX(14336px);}
.step15 {transform: translateX(15360px);}
.step16 {transform: translateX(16384px);}
.step17 {transform: translateX(17408px);}
.step18 {transform: translateX(18432px);}
.step19 {transform: translateX(19456px);}
.step20 {transform: translateX(20480px);}
.step21 {transform: translateX(21504px);}
.step22 {transform: translateX(22528px);}
.step23 {transform: translateX(23552px);}
.step24 {transform: translateX(24576px);}
.step25 {transform: translateX(25600px);}
.step26 {transform: translateX(26624px);}
.step27 {transform: translateX(27648px);}
.step28 {transform: translateX(28672px);}
.step29 {transform: translateX(29696px);}
    </style>

    <path d="M 276 640 Q 319 653 367 663 Q 395 670 400 675 Q 409 684 404 692 Q 395 704 366 710 Q 336 714 265 687 Q 201 669 152 663 Q 115 654 142 639 Q 179 620 232 629 L 276 640 Z" fill="lightgray" class="stroke step7"/>
    <path d="M 290 431 Q 374 459 378 462 Q 385 471 380 478 Q 373 488 345 491 Q 317 494 291 480 L 246 461 Q 165 439 149 435 Q 116 426 141 413 Q 183 395 243 417 L 245 417 L 290 431 Z" fill="lightgray" class="stroke step7"/>
    <path d="M 285 265 Q 286 353 290 431 L 291 480 Q 294 624 295 625 L 294 626 Q 284 635 276 640 C 252 658 222 657 232 629 Q 245 608 246 461 L 245 417 Q 244 350 244 251 C 244 221 285 235 285 265 Z" fill="lightgray" class="stroke step7"/>
    <path d="M 244 251 Q 193 235 141 217 Q 125 211 95 211 Q 82 210 81 198 Q 80 185 90 178 Q 112 163 147 146 Q 157 143 168 152 Q 204 182 352 258 Q 374 270 389 283 Q 402 290 402 300 Q 396 306 384 302 Q 336 284 285 265 L 244 251 Z" fill="lightgray" class="stroke step7"/>
    <path d="M 652 547 Q 659 650 663 743 Q 666 776 676 807 Q 679 817 660 831 Q 629 847 606 851 Q 591 854 584 846 Q 577 839 585 825 Q 604 800 604 783 Q 614 668 613 534 C 613 504 650 517 652 547 Z" fill="lightgray" class="stroke step7"/>
    <path d="M 458 670 Q 492 619 520 602 Q 533 598 543 609 Q 550 619 550 636 Q 543 675 492 695 Q 461 710 450 707 Q 444 707 445 695 Q 445 685 458 670 Z" fill="lightgray" class="stroke step7"/>
    <path d="M 771 729 Q 753 699 703 638 Q 693 622 710 625 Q 752 646 775 662 Q 850 710 854 710 Q 875 720 864 737 Q 825 785 791 780 Q 778 779 782 765 Q 785 747 771 729 Z" fill="lightgray" class="stroke step7"/>
    <path d="M 522 518 Q 503 533 480 541 Q 473 542 467 536 Q 463 532 470 522 Q 503 444 475 284 Q 472 266 465 245 Q 458 223 462 207 Q 469 179 479 167 Q 489 155 497 167 Q 521 195 522 291 Q 522 435 531 492 C 533 510 533 510 522 518 Z" fill="lightgray" class="stroke step7"/>
    <path d="M 741 236 Q 734 214 747 193 Q 760 165 770 166 Q 783 167 798 199 Q 811 224 811 244 Q 781 446 814 505 Q 823 526 819 534 Q 791 556 745 575 Q 730 579 708 571 Q 683 558 652 547 L 613 534 Q 562 524 522 518 C 492 513 502 486 531 492 Q 532 492 636 514 Q 711 536 728 525 Q 738 504 743 446 Q 750 271 741 236 Z" fill="lightgray" class="hide"/>
    <path d="M 606 373 Q 613 171 543 89 Q 528 76 509 61 Q 475 36 397 3 Q 385 0 382 -3 Q 378 -7 391 -11 Q 473 -17 574 56 Q 584 66 594 76 Q 645 137 653 301 Q 657 373 667 401 Q 671 411 663 417 Q 615 456 584 446 Q 568 439 581 424 Q 606 399 606 373 Z" fill="lightgray" class="hide"/>
    <path d="M 712 107 Q 764 52 828 -26 Q 844 -48 859 -54 Q 869 -55 877 -45 Q 890 -32 881 15 Q 871 75 723 136 Q 719 139 715 139 Q 706 146 703 133 Q 702 118 712 107 Z" fill="lightgray" class="hide"/></g><g transform="scale(1, -1) translate(0, -900)">
    <style type="text/css">
        .origin {display:none;}
        .hide {display:none;}
        .stroke {fill: #000000;}
        
.step1 {transform: translateX(1024px);}
.step2 {transform: translateX(2048px);}
.step3 {transform: translateX(3072px);}
.step4 {transform: translateX(4096px);}
.step5 {transform: translateX(5120px);}
.step6 {transform: translateX(6144px);}
.step7 {transform: translateX(7168px);}
.step8 {transform: translateX(8192px);}
.step9 {transform: translateX(9216px);}
.step10 {transform: translateX(10240px);}
.step11 {transform: translateX(11264px);}
.step12 {transform: translateX(12288px);}
.step13 {transform: translateX(13312px);}
.step14 {transform: translateX(14336px);}
.step15 {transform: translateX(15360px);}
.step16 {transform: translateX(16384px);}
.step17 {transform: translateX(17408px);}
.step18 {transform: translateX(18432px);}
.step19 {transform: translateX(19456px);}
.step20 {transform: translateX(20480px);}
.step21 {transform: translateX(21504px);}
.step22 {transform: translateX(22528px);}
.step23 {transform: translateX(23552px);}
.step24 {transform: translateX(24576px);}
.step25 {transform: translateX(25600px);}
.step26 {transform: translateX(26624px);}
.step27 {transform: translateX(27648px);}
.step28 {transform: translateX(28672px);}
.step29 {transform: translateX(29696px);}
    </style>

    <path d="M 276 640 Q 319 653 367 663 Q 395 670 400 675 Q 409 684 404 692 Q 395 704 366 710 Q 336 714 265 687 Q 201 669 152 663 Q 115 654 142 639 Q 179 620 232 629 L 276 640 Z" fill="lightgray" class="stroke step8"/>
    <path d="M 290 431 Q 374 459 378 462 Q 385 471 380 478 Q 373 488 345 491 Q 317 494 291 480 L 246 461 Q 165 439 149 435 Q 116 426 141 413 Q 183 395 243 417 L 245 417 L 290 431 Z" fill="lightgray" class="stroke step8"/>
    <path d="M 285 265 Q 286 353 290 431 L 291 480 Q 294 624 295 625 L 294 626 Q 284 635 276 640 C 252 658 222 657 232 629 Q 245 608 246 461 L 245 417 Q 244 350 244 251 C 244 221 285 235 285 265 Z" fill="lightgray" class="stroke step8"/>
    <path d="M 244 251 Q 193 235 141 217 Q 125 211 95 211 Q 82 210 81 198 Q 80 185 90 178 Q 112 163 147 146 Q 157 143 168 152 Q 204 182 352 258 Q 374 270 389 283 Q 402 290 402 300 Q 396 306 384 302 Q 336 284 285 265 L 244 251 Z" fill="lightgray" class="stroke step8"/>
    <path d="M 652 547 Q 659 650 663 743 Q 666 776 676 807 Q 679 817 660 831 Q 629 847 606 851 Q 591 854 584 846 Q 577 839 585 825 Q 604 800 604 783 Q 614 668 613 534 C 613 504 650 517 652 547 Z" fill="lightgray" class="stroke step8"/>
    <path d="M 458 670 Q 492 619 520 602 Q 533 598 543 609 Q 550 619 550 636 Q 543 675 492 695 Q 461 710 450 707 Q 444 707 445 695 Q 445 685 458 670 Z" fill="lightgray" class="stroke step8"/>
    <path d="M 771 729 Q 753 699 703 638 Q 693 622 710 625 Q 752 646 775 662 Q 850 710 854 710 Q 875 720 864 737 Q 825 785 791 780 Q 778 779 782 765 Q 785 747 771 729 Z" fill="lightgray" class="stroke step8"/>
    <path d="M 522 518 Q 503 533 480 541 Q 473 542 467 536 Q 463 532 470 522 Q 503 444 475 284 Q 472 266 465 245 Q 458 223 462 207 Q 469 179 479 167 Q 489 155 497 167 Q 521 195 522 291 Q 522 435 531 492 C 533 510 533 510 522 518 Z" fill="lightgray" class="stroke step8"/>
    <path d="M 741 236 Q 734 214 747 193 Q 760 165 770 166 Q 783 167 798 199 Q 811 224 811 244 Q 781 446 814 505 Q 823 526 819 534 Q 791 556 745 575 Q 730 579 708 571 Q 683 558 652 547 L 613 534 Q 562 524 522 518 C 492 513 502 486 531 492 Q 532 492 636 514 Q 711 536 728 525 Q 738 504 743 446 Q 750 271 741 236 Z" fill="lightgray" class="stroke step8"/>
    <path d="M 606 373 Q 613 171 543 89 Q 528 76 509 61 Q 475 36 397 3 Q 385 0 382 -3 Q 378 -7 391 -11 Q 473 -17 574 56 Q 584 66 594 76 Q 645 137 653 301 Q 657 373 667 401 Q 671 411 663 417 Q 615 456 584 446 Q 568 439 581 424 Q 606 399 606 373 Z" fill="lightgray" class="hide"/>
    <path d="M 712 107 Q 764 52 828 -26 Q 844 -48 859 -54 Q 869 -55 877 -45 Q 890 -32 881 15 Q 871 75 723 136 Q 719 139 715 139 Q 706 146 703 133 Q 702 118 712 107 Z" fill="lightgray" class="hide"/></g><g transform="scale(1, -1) translate(0, -900)">
    <style type="text/css">
        .origin {display:none;}
        .hide {display:none;}
        .stroke {fill: #000000;}
        
.step1 {transform: translateX(1024px);}
.step2 {transform: translateX(2048px);}
.step3 {transform: translateX(3072px);}
.step4 {transform: translateX(4096px);}
.step5 {transform: translateX(5120px);}
.step6 {transform: translateX(6144px);}
.step7 {transform: translateX(7168px);}
.step8 {transform: translateX(8192px);}
.step9 {transform: translateX(9216px);}
.step10 {transform: translateX(10240px);}
.step11 {transform: translateX(11264px);}
.step12 {transform: translateX(12288px);}
.step13 {transform: translateX(13312px);}
.step14 {transform: translateX(14336px);}
.step15 {transform: translateX(15360px);}
.step16 {transform: translateX(16384px);}
.step17 {transform: translateX(17408px);}
.step18 {transform: translateX(18432px);}
.step19 {transform: translateX(19456px);}
.step20 {transform: translateX(20480px);}
.step21 {transform: translateX(21504px);}
.step22 {transform: translateX(22528px);}
.step23 {transform: translateX(23552px);}
.step24 {transform: translateX(24576px);}
.step25 {transform: translateX(25600px);}
.step26 {transform: translateX(26624px);}
.step27 {transform: translateX(27648px);}
.step28 {transform: translateX(28672px);}
.step29 {transform: translateX(29696px);}
    </style>

    <path d="M 276 640 Q 319 653 367 663 Q 395 670 400 675 Q 409 684 404 692 Q 395 704 366 710 Q 336 714 265 687 Q 201 669 152 663 Q 115 654 142 639 Q 179 620 232 629 L 276 640 Z" fill="lightgray" class="stroke step9"/>
    <path d="M 290 431 Q 374 459 378 462 Q 385 471 380 478 Q 373 488 345 491 Q 317 494 291 480 L 246 461 Q 165 439 149 435 Q 116 426 141 413 Q 183 395 243 417 L 245 417 L 290 431 Z" fill="lightgray" class="stroke step9"/>
    <path d="M 285 265 Q 286 353 290 431 L 291 480 Q 294 624 295 625 L 294 626 Q 284 635 276 640 C 252 658 222 657 232 629 Q 245 608 246 461 L 245 417 Q 244 350 244 251 C 244 221 285 235 285 265 Z" fill="lightgray" class="stroke step9"/>
    <path d="M 244 251 Q 193 235 141 217 Q 125 211 95 211 Q 82 210 81 198 Q 80 185 90 178 Q 112 163 147 146 Q 157 143 168 152 Q 204 182 352 258 Q 374 270 389 283 Q 402 290 402 300 Q 396 306 384 302 Q 336 284 285 265 L 244 251 Z" fill="lightgray" class="stroke step9"/>
    <path d="M 652 547 Q 659 650 663 743 Q 666 776 676 807 Q 679 817 660 831 Q 629 847 606 851 Q 591 854 584 846 Q 577 839 585 825 Q 604 800 604 783 Q 614 668 613 534 C 613 504 650 517 652 547 Z" fill="lightgray" class="stroke step9"/>
    <path d="M 458 670 Q 492 619 520 602 Q 533 598 543 609 Q 550 619 550 636 Q 543 675 492 695 Q 461 710 450 707 Q 444 707 445 695 Q 445 685 458 670 Z" fill="lightgray" class="stroke step9"/>
    <path d="M 771 729 Q 753 699 703 638 Q 693 622 710 625 Q 752 646 775 662 Q 850 710 854 710 Q 875 720 864 737 Q 825 785 791 780 Q 778 779 782 765 Q 785 747 771 729 Z" fill="lightgray" class="stroke step9"/>
    <path d="M 522 518 Q 503 533 480 541 Q 473 542 467 536 Q 463 532 470 522 Q 503 444 475 284 Q 472 266 465 245 Q 458 223 462 207 Q 469 179 479 167 Q 489 155 497 167 Q 521 195 522 291 Q 522 435 531 492 C 533 510 533 510 522 518 Z" fill="lightgray" class="stroke step9"/>
    <path d="M 741 236 Q 734 214 747 193 Q 760 165 770 166 Q 783 167 798 199 Q 811 224 811 244 Q 781 446 814 505 Q 823 526 819 534 Q 791 556 745 575 Q 730 579 708 571 Q 683 558 652 547 L 613 534 Q 562 524 522 518 C 492 513 502 486 531 492 Q 532 492 636 514 Q 711 536 728 525 Q 738 504 743 446 Q 750 271 741 236 Z" fill="lightgray" class="stroke step9"/>
    <path d="M 606 373 Q 613 171 543 89 Q 528 76 509 61 Q 475 36 397 3 Q 385 0 382 -3 Q 378 -7 391 -11 Q 473 -17 574 56 Q 584 66 594 76 Q 645 137 653 301 Q 657 373 667 401 Q 671 411 663 417 Q 615 456 584 446 Q 568 439 581 424 Q 606 399 606 373 Z" fill="lightgray" class="stroke step9"/>
    <path d="M 712 107 Q 764 52 828 -26 Q 844 -48 859 -54 Q 869 -55 877 -45 Q 890 -32 881 15 Q 871 75 723 136 Q 719 139 715 139 Q 706 146 703 133 Q 702 118 712 107 Z" fill="lightgray" class="hide"/></g><g transform="scale(1, -1) translate(0, -900)">
    <style type="text/css">
        .origin {display:none;}
        .hide {display:none;}
        .stroke {fill: #000000;}
        
.step1 {transform: translateX(1024px);}
.step2 {transform: translateX(2048px);}
.step3 {transform: translateX(3072px);}
.step4 {transform: translateX(4096px);}
.step5 {transform: translateX(5120px);}
.step6 {transform: translateX(6144px);}
.step7 {transform: translateX(7168px);}
.step8 {transform: translateX(8192px);}
.step9 {transform: translateX(9216px);}
.step10 {transform: translateX(10240px);}
.step11 {transform: translateX(11264px);}
.step12 {transform: translateX(12288px);}
.step13 {transform: translateX(13312px);}
.step14 {transform: translateX(14336px);}
.step15 {transform: translateX(15360px);}
.step16 {transform: translateX(16384px);}
.step17 {transform: translateX(17408px);}
.step18 {transform: translateX(18432px);}
.step19 {transform: translateX(19456px);}
.step20 {transform: translateX(20480px);}
.step21 {transform: translateX(21504px);}
.step22 {transform: translateX(22528px);}
.step23 {transform: translateX(23552px);}
.step24 {transform: translateX(24576px);}
.step25 {transform: translateX(25600px);}
.step26 {transform: translateX(26624px);}
.step27 {transform: translateX(27648px);}
.step28 {transform: translateX(28672px);}
.step29 {transform: translateX(29696px);}
    </style>

    <path d="M 276 640 Q 319 653 367 663 Q 395 670 400 675 Q 409 684 404 692 Q 395 704 366 710 Q 336 714 265 687 Q 201 669 152 663 Q 115 654 142 639 Q 179 620 232 629 L 276 640 Z" fill="lightgray" class="stroke step10"/>
    <path d="M 290 431 Q 374 459 378 462 Q 385 471 380 478 Q 373 488 345 491 Q 317 494 291 480 L 246 461 Q 165 439 149 435 Q 116 426 141 413 Q 183 395 243 417 L 245 417 L 290 431 Z" fill="lightgray" class="stroke step10"/>
    <path d="M 285 265 Q 286 353 290 431 L 291 480 Q 294 624 295 625 L 294 626 Q 284 635 276 640 C 252 658 222 657 232 629 Q 245 608 246 461 L 245 417 Q 244 350 244 251 C 244 221 285 235 285 265 Z" fill="lightgray" class="stroke step10"/>
    <path d="M 244 251 Q 193 235 141 217 Q 125 211 95 211 Q 82 210 81 198 Q 80 185 90 178 Q 112 163 147 146 Q 157 143 168 152 Q 204 182 352 258 Q 374 270 389 283 Q 402 290 402 300 Q 396 306 384 302 Q 336 284 285 265 L 244 251 Z" fill="lightgray" class="stroke step10"/>
    <path d="M 652 547 Q 659 650 663 743 Q 666 776 676 807 Q 679 817 660 831 Q 629 847 606 851 Q 591 854 584 846 Q 577 839 585 825 Q 604 800 604 783 Q 614 668 613 534 C 613 504 650 517 652 547 Z" fill="lightgray" class="stroke step10"/>
    <path d="M 458 670 Q 492 619 520 602 Q 533 598 543 609 Q 550 619 550 636 Q 543 675 492 695 Q 461 710 450 707 Q 444 707 445 695 Q 445 685 458 670 Z" fill="lightgray" class="stroke step10"/>
    <path d="M 771 729 Q 753 699 703 638 Q 693 622 710 625 Q 752 646 775 662 Q 850 710 854 710 Q 875 720 864 737 Q 825 785 791 780 Q 778 779 782 765 Q 785 747 771 729 Z" fill="lightgray" class="stroke step10"/>
    <path d="M 522 518 Q 503 533 480 541 Q 473 542 467 536 Q 463 532 470 522 Q 503 444 475 284 Q 472 266 465 245 Q 458 223 462 207 Q 469 179 479 167 Q 489 155 497 167 Q 521 195 522 291 Q 522 435 531 492 C 533 510 533 510 522 518 Z" fill="lightgray" class="stroke step10"/>
    <path d="M 741 236 Q 734 214 747 193 Q 760 165 770 166 Q 783 167 798 199 Q 811 224 811 244 Q 781 446 814 505 Q 823 526 819 534 Q 791 556 745 575 Q 730 579 708 571 Q 683 558 652 547 L 613 534 Q 562 524 522 518 C 492 513 502 486 531 492 Q 532 492 636 514 Q 711 536 728 525 Q 738 504 743 446 Q 750 271 741 236 Z" fill="lightgray" class="stroke step10"/>
    <path d="M 606 373 Q 613 171 543 89 Q 528 76 509 61 Q 475 36 397 3 Q 385 0 382 -3 Q 378 -7 391 -11 Q 473 -17 574 56 Q 584 66 594 76 Q 645 137 653 301 Q 657 373 667 401 Q 671 411 663 417 Q 615 456 584 446 Q 568 439 581 424 Q 606 399 606 373 Z" fill="lightgray" class="stroke step10"/>
    <path d="M 712 107 Q 764 52 828 -26 Q 844 -48 859 -54 Q 869 -55 877 -45 Q 890 -32 881 15 Q 871 75 723 136 Q 719 139 715 139 Q 706 146 703 133 Q 702 118 712 107 Z" fill="lightgray" class="stroke step10"/></g></svg>