<svg version="1.1" viewBox="0 0 13312 1024" xmlns="http://www.w3.org/2000/svg">
  
  <g transform="scale(1, -1) translate(0, -900)" class="origin">
    <style type="text/css">
        .origin {display:none;}
        .hide {display:none;}
        .stroke {fill: #000000;}
        
.step1 {transform: translateX(1024px);}
.step2 {transform: translateX(2048px);}
.step3 {transform: translateX(3072px);}
.step4 {transform: translateX(4096px);}
.step5 {transform: translateX(5120px);}
.step6 {transform: translateX(6144px);}
.step7 {transform: translateX(7168px);}
.step8 {transform: translateX(8192px);}
.step9 {transform: translateX(9216px);}
.step10 {transform: translateX(10240px);}
.step11 {transform: translateX(11264px);}
.step12 {transform: translateX(12288px);}
.step13 {transform: translateX(13312px);}
.step14 {transform: translateX(14336px);}
.step15 {transform: translateX(15360px);}
.step16 {transform: translateX(16384px);}
.step17 {transform: translateX(17408px);}
.step18 {transform: translateX(18432px);}
.step19 {transform: translateX(19456px);}
.step20 {transform: translateX(20480px);}
.step21 {transform: translateX(21504px);}
.step22 {transform: translateX(22528px);}
.step23 {transform: translateX(23552px);}
.step24 {transform: translateX(24576px);}
.step25 {transform: translateX(25600px);}
.step26 {transform: translateX(26624px);}
.step27 {transform: translateX(27648px);}
.step28 {transform: translateX(28672px);}
.step29 {transform: translateX(29696px);}
    </style>

    <path d="M 259 640 Q 307 656 358 670 Q 383 677 386 681 Q 395 691 389 700 Q 379 712 348 716 Q 314 719 284 703 Q 256 691 227 682 Q 194 672 154 665 Q 117 655 146 639 Q 176 627 221 630 L 259 640 Z" fill="lightgray"/>
    <path d="M 291 438 Q 316 447 347 454 Q 372 461 377 466 Q 384 473 380 482 Q 373 492 345 496 Q 317 500 292 486 L 244 468 Q 237 467 230 464 Q 196 454 153 447 Q 120 438 146 425 Q 186 406 235 423 Q 238 424 245 425 L 291 438 Z" fill="lightgray"/>
    <path d="M 290 269 Q 291 360 291 438 L 292 486 Q 292 537 294 589 Q 301 607 291 616 Q 275 632 259 640 C 233 655 208 657 221 630 Q 239 600 243 497 Q 243 485 244 468 L 245 425 Q 245 358 247 252 C 248 222 290 239 290 269 Z" fill="lightgray"/>
    <path d="M 247 252 Q 118 207 90 205 Q 75 202 75 191 Q 74 176 85 168 Q 112 152 150 134 Q 162 131 174 142 Q 201 167 356 259 Q 378 271 393 286 Q 406 295 406 305 Q 399 311 386 307 Q 340 289 290 269 L 247 252 Z" fill="lightgray"/>
    <path d="M 462 741 Q 450 748 416 752 Q 404 756 401 750 Q 394 744 403 728 Q 434 664 454 557 Q 457 524 476 503 Q 494 481 499 497 Q 506 521 498 567 Q 479 667 473 704 C 468 734 467 739 462 741 Z" fill="lightgray"/>
    <path d="M 473 704 Q 482 703 490 705 Q 565 727 734 748 Q 765 751 775 745 Q 785 739 780 709 Q 761 595 750 573 Q 743 554 749 536 Q 755 520 768 521 Q 783 522 791 539 Q 803 552 825 625 Q 841 680 881 714 Q 902 730 884 748 Q 865 766 810 794 Q 792 804 736 789 Q 688 788 462 741 C 433 735 443 701 473 704 Z" fill="lightgray"/>
    <path d="M 531 640 Q 515 636 534 623 Q 543 616 560 619 Q 642 632 703 641 Q 725 645 717 657 Q 707 670 683 675 Q 662 678 531 640 Z" fill="lightgray"/>
    <path d="M 535 543 Q 519 540 538 527 Q 545 520 562 523 Q 644 536 703 543 Q 724 546 717 557 Q 707 570 685 575 Q 664 578 627 568 Q 578 555 535 543 Z" fill="lightgray"/>
    <path d="M 519 421 Q 510 430 491 437 Q 482 441 472 437 Q 465 433 470 421 Q 471 414 475 406 Q 499 361 484 180 Q 472 81 472 79 Q 481 52 495 37 Q 504 25 514 36 Q 523 49 524 64 L 527 95 Q 527 104 528 182 L 528 210 Q 529 250 530 280 L 531 308 Q 531 383 535 389 C 538 407 538 407 519 421 Z" fill="lightgray"/>
    <path d="M 689 79 Q 719 42 740 5 Q 750 -14 760 -13 Q 776 -12 793 22 Q 811 59 808 106 Q 801 194 795 357 Q 794 388 810 410 Q 819 423 810 432 Q 791 451 739 475 Q 721 484 706 475 Q 654 448 519 421 C 490 415 505 384 535 389 Q 559 392 694 424 Q 716 428 727 421 Q 754 394 736 117 Q 735 114 735 110 Q 731 94 716 97 C 690 82 687 81 689 79 Z" fill="lightgray"/>
    <path d="M 530 280 Q 531 280 536 280 Q 615 295 675 303 Q 697 307 689 320 Q 679 335 653 339 Q 613 342 531 308 C 503 297 500 280 530 280 Z" fill="lightgray"/>
    <path d="M 528 182 Q 531 182 536 182 Q 620 194 682 200 Q 704 203 697 216 Q 687 231 661 236 Q 627 242 528 210 C 499 201 498 182 528 182 Z" fill="lightgray"/>
    <path d="M 524 64 Q 617 73 689 79 C 719 82 727 82 716 97 Q 706 113 682 118 Q 655 124 527 95 C 498 88 494 61 524 64 Z" fill="lightgray"/></g>
<g transform="scale(1, -1) translate(0, -900)">
    <style type="text/css">
        .origin {display:none;}
        .hide {display:none;}
        .stroke {fill: #000000;}
        
.step1 {transform: translateX(1024px);}
.step2 {transform: translateX(2048px);}
.step3 {transform: translateX(3072px);}
.step4 {transform: translateX(4096px);}
.step5 {transform: translateX(5120px);}
.step6 {transform: translateX(6144px);}
.step7 {transform: translateX(7168px);}
.step8 {transform: translateX(8192px);}
.step9 {transform: translateX(9216px);}
.step10 {transform: translateX(10240px);}
.step11 {transform: translateX(11264px);}
.step12 {transform: translateX(12288px);}
.step13 {transform: translateX(13312px);}
.step14 {transform: translateX(14336px);}
.step15 {transform: translateX(15360px);}
.step16 {transform: translateX(16384px);}
.step17 {transform: translateX(17408px);}
.step18 {transform: translateX(18432px);}
.step19 {transform: translateX(19456px);}
.step20 {transform: translateX(20480px);}
.step21 {transform: translateX(21504px);}
.step22 {transform: translateX(22528px);}
.step23 {transform: translateX(23552px);}
.step24 {transform: translateX(24576px);}
.step25 {transform: translateX(25600px);}
.step26 {transform: translateX(26624px);}
.step27 {transform: translateX(27648px);}
.step28 {transform: translateX(28672px);}
.step29 {transform: translateX(29696px);}
    </style>

    <path d="M 259 640 Q 307 656 358 670 Q 383 677 386 681 Q 395 691 389 700 Q 379 712 348 716 Q 314 719 284 703 Q 256 691 227 682 Q 194 672 154 665 Q 117 655 146 639 Q 176 627 221 630 L 259 640 Z" fill="lightgray" class="stroke step0"/>
    <path d="M 291 438 Q 316 447 347 454 Q 372 461 377 466 Q 384 473 380 482 Q 373 492 345 496 Q 317 500 292 486 L 244 468 Q 237 467 230 464 Q 196 454 153 447 Q 120 438 146 425 Q 186 406 235 423 Q 238 424 245 425 L 291 438 Z" fill="lightgray" class="hide"/>
    <path d="M 290 269 Q 291 360 291 438 L 292 486 Q 292 537 294 589 Q 301 607 291 616 Q 275 632 259 640 C 233 655 208 657 221 630 Q 239 600 243 497 Q 243 485 244 468 L 245 425 Q 245 358 247 252 C 248 222 290 239 290 269 Z" fill="lightgray" class="hide"/>
    <path d="M 247 252 Q 118 207 90 205 Q 75 202 75 191 Q 74 176 85 168 Q 112 152 150 134 Q 162 131 174 142 Q 201 167 356 259 Q 378 271 393 286 Q 406 295 406 305 Q 399 311 386 307 Q 340 289 290 269 L 247 252 Z" fill="lightgray" class="hide"/>
    <path d="M 462 741 Q 450 748 416 752 Q 404 756 401 750 Q 394 744 403 728 Q 434 664 454 557 Q 457 524 476 503 Q 494 481 499 497 Q 506 521 498 567 Q 479 667 473 704 C 468 734 467 739 462 741 Z" fill="lightgray" class="hide"/>
    <path d="M 473 704 Q 482 703 490 705 Q 565 727 734 748 Q 765 751 775 745 Q 785 739 780 709 Q 761 595 750 573 Q 743 554 749 536 Q 755 520 768 521 Q 783 522 791 539 Q 803 552 825 625 Q 841 680 881 714 Q 902 730 884 748 Q 865 766 810 794 Q 792 804 736 789 Q 688 788 462 741 C 433 735 443 701 473 704 Z" fill="lightgray" class="hide"/>
    <path d="M 531 640 Q 515 636 534 623 Q 543 616 560 619 Q 642 632 703 641 Q 725 645 717 657 Q 707 670 683 675 Q 662 678 531 640 Z" fill="lightgray" class="hide"/>
    <path d="M 535 543 Q 519 540 538 527 Q 545 520 562 523 Q 644 536 703 543 Q 724 546 717 557 Q 707 570 685 575 Q 664 578 627 568 Q 578 555 535 543 Z" fill="lightgray" class="hide"/>
    <path d="M 519 421 Q 510 430 491 437 Q 482 441 472 437 Q 465 433 470 421 Q 471 414 475 406 Q 499 361 484 180 Q 472 81 472 79 Q 481 52 495 37 Q 504 25 514 36 Q 523 49 524 64 L 527 95 Q 527 104 528 182 L 528 210 Q 529 250 530 280 L 531 308 Q 531 383 535 389 C 538 407 538 407 519 421 Z" fill="lightgray" class="hide"/>
    <path d="M 689 79 Q 719 42 740 5 Q 750 -14 760 -13 Q 776 -12 793 22 Q 811 59 808 106 Q 801 194 795 357 Q 794 388 810 410 Q 819 423 810 432 Q 791 451 739 475 Q 721 484 706 475 Q 654 448 519 421 C 490 415 505 384 535 389 Q 559 392 694 424 Q 716 428 727 421 Q 754 394 736 117 Q 735 114 735 110 Q 731 94 716 97 C 690 82 687 81 689 79 Z" fill="lightgray" class="hide"/>
    <path d="M 530 280 Q 531 280 536 280 Q 615 295 675 303 Q 697 307 689 320 Q 679 335 653 339 Q 613 342 531 308 C 503 297 500 280 530 280 Z" fill="lightgray" class="hide"/>
    <path d="M 528 182 Q 531 182 536 182 Q 620 194 682 200 Q 704 203 697 216 Q 687 231 661 236 Q 627 242 528 210 C 499 201 498 182 528 182 Z" fill="lightgray" class="hide"/>
    <path d="M 524 64 Q 617 73 689 79 C 719 82 727 82 716 97 Q 706 113 682 118 Q 655 124 527 95 C 498 88 494 61 524 64 Z" fill="lightgray" class="hide"/></g><g transform="scale(1, -1) translate(0, -900)">
    <style type="text/css">
        .origin {display:none;}
        .hide {display:none;}
        .stroke {fill: #000000;}
        
.step1 {transform: translateX(1024px);}
.step2 {transform: translateX(2048px);}
.step3 {transform: translateX(3072px);}
.step4 {transform: translateX(4096px);}
.step5 {transform: translateX(5120px);}
.step6 {transform: translateX(6144px);}
.step7 {transform: translateX(7168px);}
.step8 {transform: translateX(8192px);}
.step9 {transform: translateX(9216px);}
.step10 {transform: translateX(10240px);}
.step11 {transform: translateX(11264px);}
.step12 {transform: translateX(12288px);}
.step13 {transform: translateX(13312px);}
.step14 {transform: translateX(14336px);}
.step15 {transform: translateX(15360px);}
.step16 {transform: translateX(16384px);}
.step17 {transform: translateX(17408px);}
.step18 {transform: translateX(18432px);}
.step19 {transform: translateX(19456px);}
.step20 {transform: translateX(20480px);}
.step21 {transform: translateX(21504px);}
.step22 {transform: translateX(22528px);}
.step23 {transform: translateX(23552px);}
.step24 {transform: translateX(24576px);}
.step25 {transform: translateX(25600px);}
.step26 {transform: translateX(26624px);}
.step27 {transform: translateX(27648px);}
.step28 {transform: translateX(28672px);}
.step29 {transform: translateX(29696px);}
    </style>

    <path d="M 259 640 Q 307 656 358 670 Q 383 677 386 681 Q 395 691 389 700 Q 379 712 348 716 Q 314 719 284 703 Q 256 691 227 682 Q 194 672 154 665 Q 117 655 146 639 Q 176 627 221 630 L 259 640 Z" fill="lightgray" class="stroke step1"/>
    <path d="M 291 438 Q 316 447 347 454 Q 372 461 377 466 Q 384 473 380 482 Q 373 492 345 496 Q 317 500 292 486 L 244 468 Q 237 467 230 464 Q 196 454 153 447 Q 120 438 146 425 Q 186 406 235 423 Q 238 424 245 425 L 291 438 Z" fill="lightgray" class="stroke step1"/>
    <path d="M 290 269 Q 291 360 291 438 L 292 486 Q 292 537 294 589 Q 301 607 291 616 Q 275 632 259 640 C 233 655 208 657 221 630 Q 239 600 243 497 Q 243 485 244 468 L 245 425 Q 245 358 247 252 C 248 222 290 239 290 269 Z" fill="lightgray" class="hide"/>
    <path d="M 247 252 Q 118 207 90 205 Q 75 202 75 191 Q 74 176 85 168 Q 112 152 150 134 Q 162 131 174 142 Q 201 167 356 259 Q 378 271 393 286 Q 406 295 406 305 Q 399 311 386 307 Q 340 289 290 269 L 247 252 Z" fill="lightgray" class="hide"/>
    <path d="M 462 741 Q 450 748 416 752 Q 404 756 401 750 Q 394 744 403 728 Q 434 664 454 557 Q 457 524 476 503 Q 494 481 499 497 Q 506 521 498 567 Q 479 667 473 704 C 468 734 467 739 462 741 Z" fill="lightgray" class="hide"/>
    <path d="M 473 704 Q 482 703 490 705 Q 565 727 734 748 Q 765 751 775 745 Q 785 739 780 709 Q 761 595 750 573 Q 743 554 749 536 Q 755 520 768 521 Q 783 522 791 539 Q 803 552 825 625 Q 841 680 881 714 Q 902 730 884 748 Q 865 766 810 794 Q 792 804 736 789 Q 688 788 462 741 C 433 735 443 701 473 704 Z" fill="lightgray" class="hide"/>
    <path d="M 531 640 Q 515 636 534 623 Q 543 616 560 619 Q 642 632 703 641 Q 725 645 717 657 Q 707 670 683 675 Q 662 678 531 640 Z" fill="lightgray" class="hide"/>
    <path d="M 535 543 Q 519 540 538 527 Q 545 520 562 523 Q 644 536 703 543 Q 724 546 717 557 Q 707 570 685 575 Q 664 578 627 568 Q 578 555 535 543 Z" fill="lightgray" class="hide"/>
    <path d="M 519 421 Q 510 430 491 437 Q 482 441 472 437 Q 465 433 470 421 Q 471 414 475 406 Q 499 361 484 180 Q 472 81 472 79 Q 481 52 495 37 Q 504 25 514 36 Q 523 49 524 64 L 527 95 Q 527 104 528 182 L 528 210 Q 529 250 530 280 L 531 308 Q 531 383 535 389 C 538 407 538 407 519 421 Z" fill="lightgray" class="hide"/>
    <path d="M 689 79 Q 719 42 740 5 Q 750 -14 760 -13 Q 776 -12 793 22 Q 811 59 808 106 Q 801 194 795 357 Q 794 388 810 410 Q 819 423 810 432 Q 791 451 739 475 Q 721 484 706 475 Q 654 448 519 421 C 490 415 505 384 535 389 Q 559 392 694 424 Q 716 428 727 421 Q 754 394 736 117 Q 735 114 735 110 Q 731 94 716 97 C 690 82 687 81 689 79 Z" fill="lightgray" class="hide"/>
    <path d="M 530 280 Q 531 280 536 280 Q 615 295 675 303 Q 697 307 689 320 Q 679 335 653 339 Q 613 342 531 308 C 503 297 500 280 530 280 Z" fill="lightgray" class="hide"/>
    <path d="M 528 182 Q 531 182 536 182 Q 620 194 682 200 Q 704 203 697 216 Q 687 231 661 236 Q 627 242 528 210 C 499 201 498 182 528 182 Z" fill="lightgray" class="hide"/>
    <path d="M 524 64 Q 617 73 689 79 C 719 82 727 82 716 97 Q 706 113 682 118 Q 655 124 527 95 C 498 88 494 61 524 64 Z" fill="lightgray" class="hide"/></g><g transform="scale(1, -1) translate(0, -900)">
    <style type="text/css">
        .origin {display:none;}
        .hide {display:none;}
        .stroke {fill: #000000;}
        
.step1 {transform: translateX(1024px);}
.step2 {transform: translateX(2048px);}
.step3 {transform: translateX(3072px);}
.step4 {transform: translateX(4096px);}
.step5 {transform: translateX(5120px);}
.step6 {transform: translateX(6144px);}
.step7 {transform: translateX(7168px);}
.step8 {transform: translateX(8192px);}
.step9 {transform: translateX(9216px);}
.step10 {transform: translateX(10240px);}
.step11 {transform: translateX(11264px);}
.step12 {transform: translateX(12288px);}
.step13 {transform: translateX(13312px);}
.step14 {transform: translateX(14336px);}
.step15 {transform: translateX(15360px);}
.step16 {transform: translateX(16384px);}
.step17 {transform: translateX(17408px);}
.step18 {transform: translateX(18432px);}
.step19 {transform: translateX(19456px);}
.step20 {transform: translateX(20480px);}
.step21 {transform: translateX(21504px);}
.step22 {transform: translateX(22528px);}
.step23 {transform: translateX(23552px);}
.step24 {transform: translateX(24576px);}
.step25 {transform: translateX(25600px);}
.step26 {transform: translateX(26624px);}
.step27 {transform: translateX(27648px);}
.step28 {transform: translateX(28672px);}
.step29 {transform: translateX(29696px);}
    </style>

    <path d="M 259 640 Q 307 656 358 670 Q 383 677 386 681 Q 395 691 389 700 Q 379 712 348 716 Q 314 719 284 703 Q 256 691 227 682 Q 194 672 154 665 Q 117 655 146 639 Q 176 627 221 630 L 259 640 Z" fill="lightgray" class="stroke step2"/>
    <path d="M 291 438 Q 316 447 347 454 Q 372 461 377 466 Q 384 473 380 482 Q 373 492 345 496 Q 317 500 292 486 L 244 468 Q 237 467 230 464 Q 196 454 153 447 Q 120 438 146 425 Q 186 406 235 423 Q 238 424 245 425 L 291 438 Z" fill="lightgray" class="stroke step2"/>
    <path d="M 290 269 Q 291 360 291 438 L 292 486 Q 292 537 294 589 Q 301 607 291 616 Q 275 632 259 640 C 233 655 208 657 221 630 Q 239 600 243 497 Q 243 485 244 468 L 245 425 Q 245 358 247 252 C 248 222 290 239 290 269 Z" fill="lightgray" class="stroke step2"/>
    <path d="M 247 252 Q 118 207 90 205 Q 75 202 75 191 Q 74 176 85 168 Q 112 152 150 134 Q 162 131 174 142 Q 201 167 356 259 Q 378 271 393 286 Q 406 295 406 305 Q 399 311 386 307 Q 340 289 290 269 L 247 252 Z" fill="lightgray" class="hide"/>
    <path d="M 462 741 Q 450 748 416 752 Q 404 756 401 750 Q 394 744 403 728 Q 434 664 454 557 Q 457 524 476 503 Q 494 481 499 497 Q 506 521 498 567 Q 479 667 473 704 C 468 734 467 739 462 741 Z" fill="lightgray" class="hide"/>
    <path d="M 473 704 Q 482 703 490 705 Q 565 727 734 748 Q 765 751 775 745 Q 785 739 780 709 Q 761 595 750 573 Q 743 554 749 536 Q 755 520 768 521 Q 783 522 791 539 Q 803 552 825 625 Q 841 680 881 714 Q 902 730 884 748 Q 865 766 810 794 Q 792 804 736 789 Q 688 788 462 741 C 433 735 443 701 473 704 Z" fill="lightgray" class="hide"/>
    <path d="M 531 640 Q 515 636 534 623 Q 543 616 560 619 Q 642 632 703 641 Q 725 645 717 657 Q 707 670 683 675 Q 662 678 531 640 Z" fill="lightgray" class="hide"/>
    <path d="M 535 543 Q 519 540 538 527 Q 545 520 562 523 Q 644 536 703 543 Q 724 546 717 557 Q 707 570 685 575 Q 664 578 627 568 Q 578 555 535 543 Z" fill="lightgray" class="hide"/>
    <path d="M 519 421 Q 510 430 491 437 Q 482 441 472 437 Q 465 433 470 421 Q 471 414 475 406 Q 499 361 484 180 Q 472 81 472 79 Q 481 52 495 37 Q 504 25 514 36 Q 523 49 524 64 L 527 95 Q 527 104 528 182 L 528 210 Q 529 250 530 280 L 531 308 Q 531 383 535 389 C 538 407 538 407 519 421 Z" fill="lightgray" class="hide"/>
    <path d="M 689 79 Q 719 42 740 5 Q 750 -14 760 -13 Q 776 -12 793 22 Q 811 59 808 106 Q 801 194 795 357 Q 794 388 810 410 Q 819 423 810 432 Q 791 451 739 475 Q 721 484 706 475 Q 654 448 519 421 C 490 415 505 384 535 389 Q 559 392 694 424 Q 716 428 727 421 Q 754 394 736 117 Q 735 114 735 110 Q 731 94 716 97 C 690 82 687 81 689 79 Z" fill="lightgray" class="hide"/>
    <path d="M 530 280 Q 531 280 536 280 Q 615 295 675 303 Q 697 307 689 320 Q 679 335 653 339 Q 613 342 531 308 C 503 297 500 280 530 280 Z" fill="lightgray" class="hide"/>
    <path d="M 528 182 Q 531 182 536 182 Q 620 194 682 200 Q 704 203 697 216 Q 687 231 661 236 Q 627 242 528 210 C 499 201 498 182 528 182 Z" fill="lightgray" class="hide"/>
    <path d="M 524 64 Q 617 73 689 79 C 719 82 727 82 716 97 Q 706 113 682 118 Q 655 124 527 95 C 498 88 494 61 524 64 Z" fill="lightgray" class="hide"/></g><g transform="scale(1, -1) translate(0, -900)">
    <style type="text/css">
        .origin {display:none;}
        .hide {display:none;}
        .stroke {fill: #000000;}
        
.step1 {transform: translateX(1024px);}
.step2 {transform: translateX(2048px);}
.step3 {transform: translateX(3072px);}
.step4 {transform: translateX(4096px);}
.step5 {transform: translateX(5120px);}
.step6 {transform: translateX(6144px);}
.step7 {transform: translateX(7168px);}
.step8 {transform: translateX(8192px);}
.step9 {transform: translateX(9216px);}
.step10 {transform: translateX(10240px);}
.step11 {transform: translateX(11264px);}
.step12 {transform: translateX(12288px);}
.step13 {transform: translateX(13312px);}
.step14 {transform: translateX(14336px);}
.step15 {transform: translateX(15360px);}
.step16 {transform: translateX(16384px);}
.step17 {transform: translateX(17408px);}
.step18 {transform: translateX(18432px);}
.step19 {transform: translateX(19456px);}
.step20 {transform: translateX(20480px);}
.step21 {transform: translateX(21504px);}
.step22 {transform: translateX(22528px);}
.step23 {transform: translateX(23552px);}
.step24 {transform: translateX(24576px);}
.step25 {transform: translateX(25600px);}
.step26 {transform: translateX(26624px);}
.step27 {transform: translateX(27648px);}
.step28 {transform: translateX(28672px);}
.step29 {transform: translateX(29696px);}
    </style>

    <path d="M 259 640 Q 307 656 358 670 Q 383 677 386 681 Q 395 691 389 700 Q 379 712 348 716 Q 314 719 284 703 Q 256 691 227 682 Q 194 672 154 665 Q 117 655 146 639 Q 176 627 221 630 L 259 640 Z" fill="lightgray" class="stroke step3"/>
    <path d="M 291 438 Q 316 447 347 454 Q 372 461 377 466 Q 384 473 380 482 Q 373 492 345 496 Q 317 500 292 486 L 244 468 Q 237 467 230 464 Q 196 454 153 447 Q 120 438 146 425 Q 186 406 235 423 Q 238 424 245 425 L 291 438 Z" fill="lightgray" class="stroke step3"/>
    <path d="M 290 269 Q 291 360 291 438 L 292 486 Q 292 537 294 589 Q 301 607 291 616 Q 275 632 259 640 C 233 655 208 657 221 630 Q 239 600 243 497 Q 243 485 244 468 L 245 425 Q 245 358 247 252 C 248 222 290 239 290 269 Z" fill="lightgray" class="stroke step3"/>
    <path d="M 247 252 Q 118 207 90 205 Q 75 202 75 191 Q 74 176 85 168 Q 112 152 150 134 Q 162 131 174 142 Q 201 167 356 259 Q 378 271 393 286 Q 406 295 406 305 Q 399 311 386 307 Q 340 289 290 269 L 247 252 Z" fill="lightgray" class="stroke step3"/>
    <path d="M 462 741 Q 450 748 416 752 Q 404 756 401 750 Q 394 744 403 728 Q 434 664 454 557 Q 457 524 476 503 Q 494 481 499 497 Q 506 521 498 567 Q 479 667 473 704 C 468 734 467 739 462 741 Z" fill="lightgray" class="hide"/>
    <path d="M 473 704 Q 482 703 490 705 Q 565 727 734 748 Q 765 751 775 745 Q 785 739 780 709 Q 761 595 750 573 Q 743 554 749 536 Q 755 520 768 521 Q 783 522 791 539 Q 803 552 825 625 Q 841 680 881 714 Q 902 730 884 748 Q 865 766 810 794 Q 792 804 736 789 Q 688 788 462 741 C 433 735 443 701 473 704 Z" fill="lightgray" class="hide"/>
    <path d="M 531 640 Q 515 636 534 623 Q 543 616 560 619 Q 642 632 703 641 Q 725 645 717 657 Q 707 670 683 675 Q 662 678 531 640 Z" fill="lightgray" class="hide"/>
    <path d="M 535 543 Q 519 540 538 527 Q 545 520 562 523 Q 644 536 703 543 Q 724 546 717 557 Q 707 570 685 575 Q 664 578 627 568 Q 578 555 535 543 Z" fill="lightgray" class="hide"/>
    <path d="M 519 421 Q 510 430 491 437 Q 482 441 472 437 Q 465 433 470 421 Q 471 414 475 406 Q 499 361 484 180 Q 472 81 472 79 Q 481 52 495 37 Q 504 25 514 36 Q 523 49 524 64 L 527 95 Q 527 104 528 182 L 528 210 Q 529 250 530 280 L 531 308 Q 531 383 535 389 C 538 407 538 407 519 421 Z" fill="lightgray" class="hide"/>
    <path d="M 689 79 Q 719 42 740 5 Q 750 -14 760 -13 Q 776 -12 793 22 Q 811 59 808 106 Q 801 194 795 357 Q 794 388 810 410 Q 819 423 810 432 Q 791 451 739 475 Q 721 484 706 475 Q 654 448 519 421 C 490 415 505 384 535 389 Q 559 392 694 424 Q 716 428 727 421 Q 754 394 736 117 Q 735 114 735 110 Q 731 94 716 97 C 690 82 687 81 689 79 Z" fill="lightgray" class="hide"/>
    <path d="M 530 280 Q 531 280 536 280 Q 615 295 675 303 Q 697 307 689 320 Q 679 335 653 339 Q 613 342 531 308 C 503 297 500 280 530 280 Z" fill="lightgray" class="hide"/>
    <path d="M 528 182 Q 531 182 536 182 Q 620 194 682 200 Q 704 203 697 216 Q 687 231 661 236 Q 627 242 528 210 C 499 201 498 182 528 182 Z" fill="lightgray" class="hide"/>
    <path d="M 524 64 Q 617 73 689 79 C 719 82 727 82 716 97 Q 706 113 682 118 Q 655 124 527 95 C 498 88 494 61 524 64 Z" fill="lightgray" class="hide"/></g><g transform="scale(1, -1) translate(0, -900)">
    <style type="text/css">
        .origin {display:none;}
        .hide {display:none;}
        .stroke {fill: #000000;}
        
.step1 {transform: translateX(1024px);}
.step2 {transform: translateX(2048px);}
.step3 {transform: translateX(3072px);}
.step4 {transform: translateX(4096px);}
.step5 {transform: translateX(5120px);}
.step6 {transform: translateX(6144px);}
.step7 {transform: translateX(7168px);}
.step8 {transform: translateX(8192px);}
.step9 {transform: translateX(9216px);}
.step10 {transform: translateX(10240px);}
.step11 {transform: translateX(11264px);}
.step12 {transform: translateX(12288px);}
.step13 {transform: translateX(13312px);}
.step14 {transform: translateX(14336px);}
.step15 {transform: translateX(15360px);}
.step16 {transform: translateX(16384px);}
.step17 {transform: translateX(17408px);}
.step18 {transform: translateX(18432px);}
.step19 {transform: translateX(19456px);}
.step20 {transform: translateX(20480px);}
.step21 {transform: translateX(21504px);}
.step22 {transform: translateX(22528px);}
.step23 {transform: translateX(23552px);}
.step24 {transform: translateX(24576px);}
.step25 {transform: translateX(25600px);}
.step26 {transform: translateX(26624px);}
.step27 {transform: translateX(27648px);}
.step28 {transform: translateX(28672px);}
.step29 {transform: translateX(29696px);}
    </style>

    <path d="M 259 640 Q 307 656 358 670 Q 383 677 386 681 Q 395 691 389 700 Q 379 712 348 716 Q 314 719 284 703 Q 256 691 227 682 Q 194 672 154 665 Q 117 655 146 639 Q 176 627 221 630 L 259 640 Z" fill="lightgray" class="stroke step4"/>
    <path d="M 291 438 Q 316 447 347 454 Q 372 461 377 466 Q 384 473 380 482 Q 373 492 345 496 Q 317 500 292 486 L 244 468 Q 237 467 230 464 Q 196 454 153 447 Q 120 438 146 425 Q 186 406 235 423 Q 238 424 245 425 L 291 438 Z" fill="lightgray" class="stroke step4"/>
    <path d="M 290 269 Q 291 360 291 438 L 292 486 Q 292 537 294 589 Q 301 607 291 616 Q 275 632 259 640 C 233 655 208 657 221 630 Q 239 600 243 497 Q 243 485 244 468 L 245 425 Q 245 358 247 252 C 248 222 290 239 290 269 Z" fill="lightgray" class="stroke step4"/>
    <path d="M 247 252 Q 118 207 90 205 Q 75 202 75 191 Q 74 176 85 168 Q 112 152 150 134 Q 162 131 174 142 Q 201 167 356 259 Q 378 271 393 286 Q 406 295 406 305 Q 399 311 386 307 Q 340 289 290 269 L 247 252 Z" fill="lightgray" class="stroke step4"/>
    <path d="M 462 741 Q 450 748 416 752 Q 404 756 401 750 Q 394 744 403 728 Q 434 664 454 557 Q 457 524 476 503 Q 494 481 499 497 Q 506 521 498 567 Q 479 667 473 704 C 468 734 467 739 462 741 Z" fill="lightgray" class="stroke step4"/>
    <path d="M 473 704 Q 482 703 490 705 Q 565 727 734 748 Q 765 751 775 745 Q 785 739 780 709 Q 761 595 750 573 Q 743 554 749 536 Q 755 520 768 521 Q 783 522 791 539 Q 803 552 825 625 Q 841 680 881 714 Q 902 730 884 748 Q 865 766 810 794 Q 792 804 736 789 Q 688 788 462 741 C 433 735 443 701 473 704 Z" fill="lightgray" class="hide"/>
    <path d="M 531 640 Q 515 636 534 623 Q 543 616 560 619 Q 642 632 703 641 Q 725 645 717 657 Q 707 670 683 675 Q 662 678 531 640 Z" fill="lightgray" class="hide"/>
    <path d="M 535 543 Q 519 540 538 527 Q 545 520 562 523 Q 644 536 703 543 Q 724 546 717 557 Q 707 570 685 575 Q 664 578 627 568 Q 578 555 535 543 Z" fill="lightgray" class="hide"/>
    <path d="M 519 421 Q 510 430 491 437 Q 482 441 472 437 Q 465 433 470 421 Q 471 414 475 406 Q 499 361 484 180 Q 472 81 472 79 Q 481 52 495 37 Q 504 25 514 36 Q 523 49 524 64 L 527 95 Q 527 104 528 182 L 528 210 Q 529 250 530 280 L 531 308 Q 531 383 535 389 C 538 407 538 407 519 421 Z" fill="lightgray" class="hide"/>
    <path d="M 689 79 Q 719 42 740 5 Q 750 -14 760 -13 Q 776 -12 793 22 Q 811 59 808 106 Q 801 194 795 357 Q 794 388 810 410 Q 819 423 810 432 Q 791 451 739 475 Q 721 484 706 475 Q 654 448 519 421 C 490 415 505 384 535 389 Q 559 392 694 424 Q 716 428 727 421 Q 754 394 736 117 Q 735 114 735 110 Q 731 94 716 97 C 690 82 687 81 689 79 Z" fill="lightgray" class="hide"/>
    <path d="M 530 280 Q 531 280 536 280 Q 615 295 675 303 Q 697 307 689 320 Q 679 335 653 339 Q 613 342 531 308 C 503 297 500 280 530 280 Z" fill="lightgray" class="hide"/>
    <path d="M 528 182 Q 531 182 536 182 Q 620 194 682 200 Q 704 203 697 216 Q 687 231 661 236 Q 627 242 528 210 C 499 201 498 182 528 182 Z" fill="lightgray" class="hide"/>
    <path d="M 524 64 Q 617 73 689 79 C 719 82 727 82 716 97 Q 706 113 682 118 Q 655 124 527 95 C 498 88 494 61 524 64 Z" fill="lightgray" class="hide"/></g><g transform="scale(1, -1) translate(0, -900)">
    <style type="text/css">
        .origin {display:none;}
        .hide {display:none;}
        .stroke {fill: #000000;}
        
.step1 {transform: translateX(1024px);}
.step2 {transform: translateX(2048px);}
.step3 {transform: translateX(3072px);}
.step4 {transform: translateX(4096px);}
.step5 {transform: translateX(5120px);}
.step6 {transform: translateX(6144px);}
.step7 {transform: translateX(7168px);}
.step8 {transform: translateX(8192px);}
.step9 {transform: translateX(9216px);}
.step10 {transform: translateX(10240px);}
.step11 {transform: translateX(11264px);}
.step12 {transform: translateX(12288px);}
.step13 {transform: translateX(13312px);}
.step14 {transform: translateX(14336px);}
.step15 {transform: translateX(15360px);}
.step16 {transform: translateX(16384px);}
.step17 {transform: translateX(17408px);}
.step18 {transform: translateX(18432px);}
.step19 {transform: translateX(19456px);}
.step20 {transform: translateX(20480px);}
.step21 {transform: translateX(21504px);}
.step22 {transform: translateX(22528px);}
.step23 {transform: translateX(23552px);}
.step24 {transform: translateX(24576px);}
.step25 {transform: translateX(25600px);}
.step26 {transform: translateX(26624px);}
.step27 {transform: translateX(27648px);}
.step28 {transform: translateX(28672px);}
.step29 {transform: translateX(29696px);}
    </style>

    <path d="M 259 640 Q 307 656 358 670 Q 383 677 386 681 Q 395 691 389 700 Q 379 712 348 716 Q 314 719 284 703 Q 256 691 227 682 Q 194 672 154 665 Q 117 655 146 639 Q 176 627 221 630 L 259 640 Z" fill="lightgray" class="stroke step5"/>
    <path d="M 291 438 Q 316 447 347 454 Q 372 461 377 466 Q 384 473 380 482 Q 373 492 345 496 Q 317 500 292 486 L 244 468 Q 237 467 230 464 Q 196 454 153 447 Q 120 438 146 425 Q 186 406 235 423 Q 238 424 245 425 L 291 438 Z" fill="lightgray" class="stroke step5"/>
    <path d="M 290 269 Q 291 360 291 438 L 292 486 Q 292 537 294 589 Q 301 607 291 616 Q 275 632 259 640 C 233 655 208 657 221 630 Q 239 600 243 497 Q 243 485 244 468 L 245 425 Q 245 358 247 252 C 248 222 290 239 290 269 Z" fill="lightgray" class="stroke step5"/>
    <path d="M 247 252 Q 118 207 90 205 Q 75 202 75 191 Q 74 176 85 168 Q 112 152 150 134 Q 162 131 174 142 Q 201 167 356 259 Q 378 271 393 286 Q 406 295 406 305 Q 399 311 386 307 Q 340 289 290 269 L 247 252 Z" fill="lightgray" class="stroke step5"/>
    <path d="M 462 741 Q 450 748 416 752 Q 404 756 401 750 Q 394 744 403 728 Q 434 664 454 557 Q 457 524 476 503 Q 494 481 499 497 Q 506 521 498 567 Q 479 667 473 704 C 468 734 467 739 462 741 Z" fill="lightgray" class="stroke step5"/>
    <path d="M 473 704 Q 482 703 490 705 Q 565 727 734 748 Q 765 751 775 745 Q 785 739 780 709 Q 761 595 750 573 Q 743 554 749 536 Q 755 520 768 521 Q 783 522 791 539 Q 803 552 825 625 Q 841 680 881 714 Q 902 730 884 748 Q 865 766 810 794 Q 792 804 736 789 Q 688 788 462 741 C 433 735 443 701 473 704 Z" fill="lightgray" class="stroke step5"/>
    <path d="M 531 640 Q 515 636 534 623 Q 543 616 560 619 Q 642 632 703 641 Q 725 645 717 657 Q 707 670 683 675 Q 662 678 531 640 Z" fill="lightgray" class="hide"/>
    <path d="M 535 543 Q 519 540 538 527 Q 545 520 562 523 Q 644 536 703 543 Q 724 546 717 557 Q 707 570 685 575 Q 664 578 627 568 Q 578 555 535 543 Z" fill="lightgray" class="hide"/>
    <path d="M 519 421 Q 510 430 491 437 Q 482 441 472 437 Q 465 433 470 421 Q 471 414 475 406 Q 499 361 484 180 Q 472 81 472 79 Q 481 52 495 37 Q 504 25 514 36 Q 523 49 524 64 L 527 95 Q 527 104 528 182 L 528 210 Q 529 250 530 280 L 531 308 Q 531 383 535 389 C 538 407 538 407 519 421 Z" fill="lightgray" class="hide"/>
    <path d="M 689 79 Q 719 42 740 5 Q 750 -14 760 -13 Q 776 -12 793 22 Q 811 59 808 106 Q 801 194 795 357 Q 794 388 810 410 Q 819 423 810 432 Q 791 451 739 475 Q 721 484 706 475 Q 654 448 519 421 C 490 415 505 384 535 389 Q 559 392 694 424 Q 716 428 727 421 Q 754 394 736 117 Q 735 114 735 110 Q 731 94 716 97 C 690 82 687 81 689 79 Z" fill="lightgray" class="hide"/>
    <path d="M 530 280 Q 531 280 536 280 Q 615 295 675 303 Q 697 307 689 320 Q 679 335 653 339 Q 613 342 531 308 C 503 297 500 280 530 280 Z" fill="lightgray" class="hide"/>
    <path d="M 528 182 Q 531 182 536 182 Q 620 194 682 200 Q 704 203 697 216 Q 687 231 661 236 Q 627 242 528 210 C 499 201 498 182 528 182 Z" fill="lightgray" class="hide"/>
    <path d="M 524 64 Q 617 73 689 79 C 719 82 727 82 716 97 Q 706 113 682 118 Q 655 124 527 95 C 498 88 494 61 524 64 Z" fill="lightgray" class="hide"/></g><g transform="scale(1, -1) translate(0, -900)">
    <style type="text/css">
        .origin {display:none;}
        .hide {display:none;}
        .stroke {fill: #000000;}
        
.step1 {transform: translateX(1024px);}
.step2 {transform: translateX(2048px);}
.step3 {transform: translateX(3072px);}
.step4 {transform: translateX(4096px);}
.step5 {transform: translateX(5120px);}
.step6 {transform: translateX(6144px);}
.step7 {transform: translateX(7168px);}
.step8 {transform: translateX(8192px);}
.step9 {transform: translateX(9216px);}
.step10 {transform: translateX(10240px);}
.step11 {transform: translateX(11264px);}
.step12 {transform: translateX(12288px);}
.step13 {transform: translateX(13312px);}
.step14 {transform: translateX(14336px);}
.step15 {transform: translateX(15360px);}
.step16 {transform: translateX(16384px);}
.step17 {transform: translateX(17408px);}
.step18 {transform: translateX(18432px);}
.step19 {transform: translateX(19456px);}
.step20 {transform: translateX(20480px);}
.step21 {transform: translateX(21504px);}
.step22 {transform: translateX(22528px);}
.step23 {transform: translateX(23552px);}
.step24 {transform: translateX(24576px);}
.step25 {transform: translateX(25600px);}
.step26 {transform: translateX(26624px);}
.step27 {transform: translateX(27648px);}
.step28 {transform: translateX(28672px);}
.step29 {transform: translateX(29696px);}
    </style>

    <path d="M 259 640 Q 307 656 358 670 Q 383 677 386 681 Q 395 691 389 700 Q 379 712 348 716 Q 314 719 284 703 Q 256 691 227 682 Q 194 672 154 665 Q 117 655 146 639 Q 176 627 221 630 L 259 640 Z" fill="lightgray" class="stroke step6"/>
    <path d="M 291 438 Q 316 447 347 454 Q 372 461 377 466 Q 384 473 380 482 Q 373 492 345 496 Q 317 500 292 486 L 244 468 Q 237 467 230 464 Q 196 454 153 447 Q 120 438 146 425 Q 186 406 235 423 Q 238 424 245 425 L 291 438 Z" fill="lightgray" class="stroke step6"/>
    <path d="M 290 269 Q 291 360 291 438 L 292 486 Q 292 537 294 589 Q 301 607 291 616 Q 275 632 259 640 C 233 655 208 657 221 630 Q 239 600 243 497 Q 243 485 244 468 L 245 425 Q 245 358 247 252 C 248 222 290 239 290 269 Z" fill="lightgray" class="stroke step6"/>
    <path d="M 247 252 Q 118 207 90 205 Q 75 202 75 191 Q 74 176 85 168 Q 112 152 150 134 Q 162 131 174 142 Q 201 167 356 259 Q 378 271 393 286 Q 406 295 406 305 Q 399 311 386 307 Q 340 289 290 269 L 247 252 Z" fill="lightgray" class="stroke step6"/>
    <path d="M 462 741 Q 450 748 416 752 Q 404 756 401 750 Q 394 744 403 728 Q 434 664 454 557 Q 457 524 476 503 Q 494 481 499 497 Q 506 521 498 567 Q 479 667 473 704 C 468 734 467 739 462 741 Z" fill="lightgray" class="stroke step6"/>
    <path d="M 473 704 Q 482 703 490 705 Q 565 727 734 748 Q 765 751 775 745 Q 785 739 780 709 Q 761 595 750 573 Q 743 554 749 536 Q 755 520 768 521 Q 783 522 791 539 Q 803 552 825 625 Q 841 680 881 714 Q 902 730 884 748 Q 865 766 810 794 Q 792 804 736 789 Q 688 788 462 741 C 433 735 443 701 473 704 Z" fill="lightgray" class="stroke step6"/>
    <path d="M 531 640 Q 515 636 534 623 Q 543 616 560 619 Q 642 632 703 641 Q 725 645 717 657 Q 707 670 683 675 Q 662 678 531 640 Z" fill="lightgray" class="stroke step6"/>
    <path d="M 535 543 Q 519 540 538 527 Q 545 520 562 523 Q 644 536 703 543 Q 724 546 717 557 Q 707 570 685 575 Q 664 578 627 568 Q 578 555 535 543 Z" fill="lightgray" class="hide"/>
    <path d="M 519 421 Q 510 430 491 437 Q 482 441 472 437 Q 465 433 470 421 Q 471 414 475 406 Q 499 361 484 180 Q 472 81 472 79 Q 481 52 495 37 Q 504 25 514 36 Q 523 49 524 64 L 527 95 Q 527 104 528 182 L 528 210 Q 529 250 530 280 L 531 308 Q 531 383 535 389 C 538 407 538 407 519 421 Z" fill="lightgray" class="hide"/>
    <path d="M 689 79 Q 719 42 740 5 Q 750 -14 760 -13 Q 776 -12 793 22 Q 811 59 808 106 Q 801 194 795 357 Q 794 388 810 410 Q 819 423 810 432 Q 791 451 739 475 Q 721 484 706 475 Q 654 448 519 421 C 490 415 505 384 535 389 Q 559 392 694 424 Q 716 428 727 421 Q 754 394 736 117 Q 735 114 735 110 Q 731 94 716 97 C 690 82 687 81 689 79 Z" fill="lightgray" class="hide"/>
    <path d="M 530 280 Q 531 280 536 280 Q 615 295 675 303 Q 697 307 689 320 Q 679 335 653 339 Q 613 342 531 308 C 503 297 500 280 530 280 Z" fill="lightgray" class="hide"/>
    <path d="M 528 182 Q 531 182 536 182 Q 620 194 682 200 Q 704 203 697 216 Q 687 231 661 236 Q 627 242 528 210 C 499 201 498 182 528 182 Z" fill="lightgray" class="hide"/>
    <path d="M 524 64 Q 617 73 689 79 C 719 82 727 82 716 97 Q 706 113 682 118 Q 655 124 527 95 C 498 88 494 61 524 64 Z" fill="lightgray" class="hide"/></g><g transform="scale(1, -1) translate(0, -900)">
    <style type="text/css">
        .origin {display:none;}
        .hide {display:none;}
        .stroke {fill: #000000;}
        
.step1 {transform: translateX(1024px);}
.step2 {transform: translateX(2048px);}
.step3 {transform: translateX(3072px);}
.step4 {transform: translateX(4096px);}
.step5 {transform: translateX(5120px);}
.step6 {transform: translateX(6144px);}
.step7 {transform: translateX(7168px);}
.step8 {transform: translateX(8192px);}
.step9 {transform: translateX(9216px);}
.step10 {transform: translateX(10240px);}
.step11 {transform: translateX(11264px);}
.step12 {transform: translateX(12288px);}
.step13 {transform: translateX(13312px);}
.step14 {transform: translateX(14336px);}
.step15 {transform: translateX(15360px);}
.step16 {transform: translateX(16384px);}
.step17 {transform: translateX(17408px);}
.step18 {transform: translateX(18432px);}
.step19 {transform: translateX(19456px);}
.step20 {transform: translateX(20480px);}
.step21 {transform: translateX(21504px);}
.step22 {transform: translateX(22528px);}
.step23 {transform: translateX(23552px);}
.step24 {transform: translateX(24576px);}
.step25 {transform: translateX(25600px);}
.step26 {transform: translateX(26624px);}
.step27 {transform: translateX(27648px);}
.step28 {transform: translateX(28672px);}
.step29 {transform: translateX(29696px);}
    </style>

    <path d="M 259 640 Q 307 656 358 670 Q 383 677 386 681 Q 395 691 389 700 Q 379 712 348 716 Q 314 719 284 703 Q 256 691 227 682 Q 194 672 154 665 Q 117 655 146 639 Q 176 627 221 630 L 259 640 Z" fill="lightgray" class="stroke step7"/>
    <path d="M 291 438 Q 316 447 347 454 Q 372 461 377 466 Q 384 473 380 482 Q 373 492 345 496 Q 317 500 292 486 L 244 468 Q 237 467 230 464 Q 196 454 153 447 Q 120 438 146 425 Q 186 406 235 423 Q 238 424 245 425 L 291 438 Z" fill="lightgray" class="stroke step7"/>
    <path d="M 290 269 Q 291 360 291 438 L 292 486 Q 292 537 294 589 Q 301 607 291 616 Q 275 632 259 640 C 233 655 208 657 221 630 Q 239 600 243 497 Q 243 485 244 468 L 245 425 Q 245 358 247 252 C 248 222 290 239 290 269 Z" fill="lightgray" class="stroke step7"/>
    <path d="M 247 252 Q 118 207 90 205 Q 75 202 75 191 Q 74 176 85 168 Q 112 152 150 134 Q 162 131 174 142 Q 201 167 356 259 Q 378 271 393 286 Q 406 295 406 305 Q 399 311 386 307 Q 340 289 290 269 L 247 252 Z" fill="lightgray" class="stroke step7"/>
    <path d="M 462 741 Q 450 748 416 752 Q 404 756 401 750 Q 394 744 403 728 Q 434 664 454 557 Q 457 524 476 503 Q 494 481 499 497 Q 506 521 498 567 Q 479 667 473 704 C 468 734 467 739 462 741 Z" fill="lightgray" class="stroke step7"/>
    <path d="M 473 704 Q 482 703 490 705 Q 565 727 734 748 Q 765 751 775 745 Q 785 739 780 709 Q 761 595 750 573 Q 743 554 749 536 Q 755 520 768 521 Q 783 522 791 539 Q 803 552 825 625 Q 841 680 881 714 Q 902 730 884 748 Q 865 766 810 794 Q 792 804 736 789 Q 688 788 462 741 C 433 735 443 701 473 704 Z" fill="lightgray" class="stroke step7"/>
    <path d="M 531 640 Q 515 636 534 623 Q 543 616 560 619 Q 642 632 703 641 Q 725 645 717 657 Q 707 670 683 675 Q 662 678 531 640 Z" fill="lightgray" class="stroke step7"/>
    <path d="M 535 543 Q 519 540 538 527 Q 545 520 562 523 Q 644 536 703 543 Q 724 546 717 557 Q 707 570 685 575 Q 664 578 627 568 Q 578 555 535 543 Z" fill="lightgray" class="stroke step7"/>
    <path d="M 519 421 Q 510 430 491 437 Q 482 441 472 437 Q 465 433 470 421 Q 471 414 475 406 Q 499 361 484 180 Q 472 81 472 79 Q 481 52 495 37 Q 504 25 514 36 Q 523 49 524 64 L 527 95 Q 527 104 528 182 L 528 210 Q 529 250 530 280 L 531 308 Q 531 383 535 389 C 538 407 538 407 519 421 Z" fill="lightgray" class="hide"/>
    <path d="M 689 79 Q 719 42 740 5 Q 750 -14 760 -13 Q 776 -12 793 22 Q 811 59 808 106 Q 801 194 795 357 Q 794 388 810 410 Q 819 423 810 432 Q 791 451 739 475 Q 721 484 706 475 Q 654 448 519 421 C 490 415 505 384 535 389 Q 559 392 694 424 Q 716 428 727 421 Q 754 394 736 117 Q 735 114 735 110 Q 731 94 716 97 C 690 82 687 81 689 79 Z" fill="lightgray" class="hide"/>
    <path d="M 530 280 Q 531 280 536 280 Q 615 295 675 303 Q 697 307 689 320 Q 679 335 653 339 Q 613 342 531 308 C 503 297 500 280 530 280 Z" fill="lightgray" class="hide"/>
    <path d="M 528 182 Q 531 182 536 182 Q 620 194 682 200 Q 704 203 697 216 Q 687 231 661 236 Q 627 242 528 210 C 499 201 498 182 528 182 Z" fill="lightgray" class="hide"/>
    <path d="M 524 64 Q 617 73 689 79 C 719 82 727 82 716 97 Q 706 113 682 118 Q 655 124 527 95 C 498 88 494 61 524 64 Z" fill="lightgray" class="hide"/></g><g transform="scale(1, -1) translate(0, -900)">
    <style type="text/css">
        .origin {display:none;}
        .hide {display:none;}
        .stroke {fill: #000000;}
        
.step1 {transform: translateX(1024px);}
.step2 {transform: translateX(2048px);}
.step3 {transform: translateX(3072px);}
.step4 {transform: translateX(4096px);}
.step5 {transform: translateX(5120px);}
.step6 {transform: translateX(6144px);}
.step7 {transform: translateX(7168px);}
.step8 {transform: translateX(8192px);}
.step9 {transform: translateX(9216px);}
.step10 {transform: translateX(10240px);}
.step11 {transform: translateX(11264px);}
.step12 {transform: translateX(12288px);}
.step13 {transform: translateX(13312px);}
.step14 {transform: translateX(14336px);}
.step15 {transform: translateX(15360px);}
.step16 {transform: translateX(16384px);}
.step17 {transform: translateX(17408px);}
.step18 {transform: translateX(18432px);}
.step19 {transform: translateX(19456px);}
.step20 {transform: translateX(20480px);}
.step21 {transform: translateX(21504px);}
.step22 {transform: translateX(22528px);}
.step23 {transform: translateX(23552px);}
.step24 {transform: translateX(24576px);}
.step25 {transform: translateX(25600px);}
.step26 {transform: translateX(26624px);}
.step27 {transform: translateX(27648px);}
.step28 {transform: translateX(28672px);}
.step29 {transform: translateX(29696px);}
    </style>

    <path d="M 259 640 Q 307 656 358 670 Q 383 677 386 681 Q 395 691 389 700 Q 379 712 348 716 Q 314 719 284 703 Q 256 691 227 682 Q 194 672 154 665 Q 117 655 146 639 Q 176 627 221 630 L 259 640 Z" fill="lightgray" class="stroke step8"/>
    <path d="M 291 438 Q 316 447 347 454 Q 372 461 377 466 Q 384 473 380 482 Q 373 492 345 496 Q 317 500 292 486 L 244 468 Q 237 467 230 464 Q 196 454 153 447 Q 120 438 146 425 Q 186 406 235 423 Q 238 424 245 425 L 291 438 Z" fill="lightgray" class="stroke step8"/>
    <path d="M 290 269 Q 291 360 291 438 L 292 486 Q 292 537 294 589 Q 301 607 291 616 Q 275 632 259 640 C 233 655 208 657 221 630 Q 239 600 243 497 Q 243 485 244 468 L 245 425 Q 245 358 247 252 C 248 222 290 239 290 269 Z" fill="lightgray" class="stroke step8"/>
    <path d="M 247 252 Q 118 207 90 205 Q 75 202 75 191 Q 74 176 85 168 Q 112 152 150 134 Q 162 131 174 142 Q 201 167 356 259 Q 378 271 393 286 Q 406 295 406 305 Q 399 311 386 307 Q 340 289 290 269 L 247 252 Z" fill="lightgray" class="stroke step8"/>
    <path d="M 462 741 Q 450 748 416 752 Q 404 756 401 750 Q 394 744 403 728 Q 434 664 454 557 Q 457 524 476 503 Q 494 481 499 497 Q 506 521 498 567 Q 479 667 473 704 C 468 734 467 739 462 741 Z" fill="lightgray" class="stroke step8"/>
    <path d="M 473 704 Q 482 703 490 705 Q 565 727 734 748 Q 765 751 775 745 Q 785 739 780 709 Q 761 595 750 573 Q 743 554 749 536 Q 755 520 768 521 Q 783 522 791 539 Q 803 552 825 625 Q 841 680 881 714 Q 902 730 884 748 Q 865 766 810 794 Q 792 804 736 789 Q 688 788 462 741 C 433 735 443 701 473 704 Z" fill="lightgray" class="stroke step8"/>
    <path d="M 531 640 Q 515 636 534 623 Q 543 616 560 619 Q 642 632 703 641 Q 725 645 717 657 Q 707 670 683 675 Q 662 678 531 640 Z" fill="lightgray" class="stroke step8"/>
    <path d="M 535 543 Q 519 540 538 527 Q 545 520 562 523 Q 644 536 703 543 Q 724 546 717 557 Q 707 570 685 575 Q 664 578 627 568 Q 578 555 535 543 Z" fill="lightgray" class="stroke step8"/>
    <path d="M 519 421 Q 510 430 491 437 Q 482 441 472 437 Q 465 433 470 421 Q 471 414 475 406 Q 499 361 484 180 Q 472 81 472 79 Q 481 52 495 37 Q 504 25 514 36 Q 523 49 524 64 L 527 95 Q 527 104 528 182 L 528 210 Q 529 250 530 280 L 531 308 Q 531 383 535 389 C 538 407 538 407 519 421 Z" fill="lightgray" class="stroke step8"/>
    <path d="M 689 79 Q 719 42 740 5 Q 750 -14 760 -13 Q 776 -12 793 22 Q 811 59 808 106 Q 801 194 795 357 Q 794 388 810 410 Q 819 423 810 432 Q 791 451 739 475 Q 721 484 706 475 Q 654 448 519 421 C 490 415 505 384 535 389 Q 559 392 694 424 Q 716 428 727 421 Q 754 394 736 117 Q 735 114 735 110 Q 731 94 716 97 C 690 82 687 81 689 79 Z" fill="lightgray" class="hide"/>
    <path d="M 530 280 Q 531 280 536 280 Q 615 295 675 303 Q 697 307 689 320 Q 679 335 653 339 Q 613 342 531 308 C 503 297 500 280 530 280 Z" fill="lightgray" class="hide"/>
    <path d="M 528 182 Q 531 182 536 182 Q 620 194 682 200 Q 704 203 697 216 Q 687 231 661 236 Q 627 242 528 210 C 499 201 498 182 528 182 Z" fill="lightgray" class="hide"/>
    <path d="M 524 64 Q 617 73 689 79 C 719 82 727 82 716 97 Q 706 113 682 118 Q 655 124 527 95 C 498 88 494 61 524 64 Z" fill="lightgray" class="hide"/></g><g transform="scale(1, -1) translate(0, -900)">
    <style type="text/css">
        .origin {display:none;}
        .hide {display:none;}
        .stroke {fill: #000000;}
        
.step1 {transform: translateX(1024px);}
.step2 {transform: translateX(2048px);}
.step3 {transform: translateX(3072px);}
.step4 {transform: translateX(4096px);}
.step5 {transform: translateX(5120px);}
.step6 {transform: translateX(6144px);}
.step7 {transform: translateX(7168px);}
.step8 {transform: translateX(8192px);}
.step9 {transform: translateX(9216px);}
.step10 {transform: translateX(10240px);}
.step11 {transform: translateX(11264px);}
.step12 {transform: translateX(12288px);}
.step13 {transform: translateX(13312px);}
.step14 {transform: translateX(14336px);}
.step15 {transform: translateX(15360px);}
.step16 {transform: translateX(16384px);}
.step17 {transform: translateX(17408px);}
.step18 {transform: translateX(18432px);}
.step19 {transform: translateX(19456px);}
.step20 {transform: translateX(20480px);}
.step21 {transform: translateX(21504px);}
.step22 {transform: translateX(22528px);}
.step23 {transform: translateX(23552px);}
.step24 {transform: translateX(24576px);}
.step25 {transform: translateX(25600px);}
.step26 {transform: translateX(26624px);}
.step27 {transform: translateX(27648px);}
.step28 {transform: translateX(28672px);}
.step29 {transform: translateX(29696px);}
    </style>

    <path d="M 259 640 Q 307 656 358 670 Q 383 677 386 681 Q 395 691 389 700 Q 379 712 348 716 Q 314 719 284 703 Q 256 691 227 682 Q 194 672 154 665 Q 117 655 146 639 Q 176 627 221 630 L 259 640 Z" fill="lightgray" class="stroke step9"/>
    <path d="M 291 438 Q 316 447 347 454 Q 372 461 377 466 Q 384 473 380 482 Q 373 492 345 496 Q 317 500 292 486 L 244 468 Q 237 467 230 464 Q 196 454 153 447 Q 120 438 146 425 Q 186 406 235 423 Q 238 424 245 425 L 291 438 Z" fill="lightgray" class="stroke step9"/>
    <path d="M 290 269 Q 291 360 291 438 L 292 486 Q 292 537 294 589 Q 301 607 291 616 Q 275 632 259 640 C 233 655 208 657 221 630 Q 239 600 243 497 Q 243 485 244 468 L 245 425 Q 245 358 247 252 C 248 222 290 239 290 269 Z" fill="lightgray" class="stroke step9"/>
    <path d="M 247 252 Q 118 207 90 205 Q 75 202 75 191 Q 74 176 85 168 Q 112 152 150 134 Q 162 131 174 142 Q 201 167 356 259 Q 378 271 393 286 Q 406 295 406 305 Q 399 311 386 307 Q 340 289 290 269 L 247 252 Z" fill="lightgray" class="stroke step9"/>
    <path d="M 462 741 Q 450 748 416 752 Q 404 756 401 750 Q 394 744 403 728 Q 434 664 454 557 Q 457 524 476 503 Q 494 481 499 497 Q 506 521 498 567 Q 479 667 473 704 C 468 734 467 739 462 741 Z" fill="lightgray" class="stroke step9"/>
    <path d="M 473 704 Q 482 703 490 705 Q 565 727 734 748 Q 765 751 775 745 Q 785 739 780 709 Q 761 595 750 573 Q 743 554 749 536 Q 755 520 768 521 Q 783 522 791 539 Q 803 552 825 625 Q 841 680 881 714 Q 902 730 884 748 Q 865 766 810 794 Q 792 804 736 789 Q 688 788 462 741 C 433 735 443 701 473 704 Z" fill="lightgray" class="stroke step9"/>
    <path d="M 531 640 Q 515 636 534 623 Q 543 616 560 619 Q 642 632 703 641 Q 725 645 717 657 Q 707 670 683 675 Q 662 678 531 640 Z" fill="lightgray" class="stroke step9"/>
    <path d="M 535 543 Q 519 540 538 527 Q 545 520 562 523 Q 644 536 703 543 Q 724 546 717 557 Q 707 570 685 575 Q 664 578 627 568 Q 578 555 535 543 Z" fill="lightgray" class="stroke step9"/>
    <path d="M 519 421 Q 510 430 491 437 Q 482 441 472 437 Q 465 433 470 421 Q 471 414 475 406 Q 499 361 484 180 Q 472 81 472 79 Q 481 52 495 37 Q 504 25 514 36 Q 523 49 524 64 L 527 95 Q 527 104 528 182 L 528 210 Q 529 250 530 280 L 531 308 Q 531 383 535 389 C 538 407 538 407 519 421 Z" fill="lightgray" class="stroke step9"/>
    <path d="M 689 79 Q 719 42 740 5 Q 750 -14 760 -13 Q 776 -12 793 22 Q 811 59 808 106 Q 801 194 795 357 Q 794 388 810 410 Q 819 423 810 432 Q 791 451 739 475 Q 721 484 706 475 Q 654 448 519 421 C 490 415 505 384 535 389 Q 559 392 694 424 Q 716 428 727 421 Q 754 394 736 117 Q 735 114 735 110 Q 731 94 716 97 C 690 82 687 81 689 79 Z" fill="lightgray" class="stroke step9"/>
    <path d="M 530 280 Q 531 280 536 280 Q 615 295 675 303 Q 697 307 689 320 Q 679 335 653 339 Q 613 342 531 308 C 503 297 500 280 530 280 Z" fill="lightgray" class="hide"/>
    <path d="M 528 182 Q 531 182 536 182 Q 620 194 682 200 Q 704 203 697 216 Q 687 231 661 236 Q 627 242 528 210 C 499 201 498 182 528 182 Z" fill="lightgray" class="hide"/>
    <path d="M 524 64 Q 617 73 689 79 C 719 82 727 82 716 97 Q 706 113 682 118 Q 655 124 527 95 C 498 88 494 61 524 64 Z" fill="lightgray" class="hide"/></g><g transform="scale(1, -1) translate(0, -900)">
    <style type="text/css">
        .origin {display:none;}
        .hide {display:none;}
        .stroke {fill: #000000;}
        
.step1 {transform: translateX(1024px);}
.step2 {transform: translateX(2048px);}
.step3 {transform: translateX(3072px);}
.step4 {transform: translateX(4096px);}
.step5 {transform: translateX(5120px);}
.step6 {transform: translateX(6144px);}
.step7 {transform: translateX(7168px);}
.step8 {transform: translateX(8192px);}
.step9 {transform: translateX(9216px);}
.step10 {transform: translateX(10240px);}
.step11 {transform: translateX(11264px);}
.step12 {transform: translateX(12288px);}
.step13 {transform: translateX(13312px);}
.step14 {transform: translateX(14336px);}
.step15 {transform: translateX(15360px);}
.step16 {transform: translateX(16384px);}
.step17 {transform: translateX(17408px);}
.step18 {transform: translateX(18432px);}
.step19 {transform: translateX(19456px);}
.step20 {transform: translateX(20480px);}
.step21 {transform: translateX(21504px);}
.step22 {transform: translateX(22528px);}
.step23 {transform: translateX(23552px);}
.step24 {transform: translateX(24576px);}
.step25 {transform: translateX(25600px);}
.step26 {transform: translateX(26624px);}
.step27 {transform: translateX(27648px);}
.step28 {transform: translateX(28672px);}
.step29 {transform: translateX(29696px);}
    </style>

    <path d="M 259 640 Q 307 656 358 670 Q 383 677 386 681 Q 395 691 389 700 Q 379 712 348 716 Q 314 719 284 703 Q 256 691 227 682 Q 194 672 154 665 Q 117 655 146 639 Q 176 627 221 630 L 259 640 Z" fill="lightgray" class="stroke step10"/>
    <path d="M 291 438 Q 316 447 347 454 Q 372 461 377 466 Q 384 473 380 482 Q 373 492 345 496 Q 317 500 292 486 L 244 468 Q 237 467 230 464 Q 196 454 153 447 Q 120 438 146 425 Q 186 406 235 423 Q 238 424 245 425 L 291 438 Z" fill="lightgray" class="stroke step10"/>
    <path d="M 290 269 Q 291 360 291 438 L 292 486 Q 292 537 294 589 Q 301 607 291 616 Q 275 632 259 640 C 233 655 208 657 221 630 Q 239 600 243 497 Q 243 485 244 468 L 245 425 Q 245 358 247 252 C 248 222 290 239 290 269 Z" fill="lightgray" class="stroke step10"/>
    <path d="M 247 252 Q 118 207 90 205 Q 75 202 75 191 Q 74 176 85 168 Q 112 152 150 134 Q 162 131 174 142 Q 201 167 356 259 Q 378 271 393 286 Q 406 295 406 305 Q 399 311 386 307 Q 340 289 290 269 L 247 252 Z" fill="lightgray" class="stroke step10"/>
    <path d="M 462 741 Q 450 748 416 752 Q 404 756 401 750 Q 394 744 403 728 Q 434 664 454 557 Q 457 524 476 503 Q 494 481 499 497 Q 506 521 498 567 Q 479 667 473 704 C 468 734 467 739 462 741 Z" fill="lightgray" class="stroke step10"/>
    <path d="M 473 704 Q 482 703 490 705 Q 565 727 734 748 Q 765 751 775 745 Q 785 739 780 709 Q 761 595 750 573 Q 743 554 749 536 Q 755 520 768 521 Q 783 522 791 539 Q 803 552 825 625 Q 841 680 881 714 Q 902 730 884 748 Q 865 766 810 794 Q 792 804 736 789 Q 688 788 462 741 C 433 735 443 701 473 704 Z" fill="lightgray" class="stroke step10"/>
    <path d="M 531 640 Q 515 636 534 623 Q 543 616 560 619 Q 642 632 703 641 Q 725 645 717 657 Q 707 670 683 675 Q 662 678 531 640 Z" fill="lightgray" class="stroke step10"/>
    <path d="M 535 543 Q 519 540 538 527 Q 545 520 562 523 Q 644 536 703 543 Q 724 546 717 557 Q 707 570 685 575 Q 664 578 627 568 Q 578 555 535 543 Z" fill="lightgray" class="stroke step10"/>
    <path d="M 519 421 Q 510 430 491 437 Q 482 441 472 437 Q 465 433 470 421 Q 471 414 475 406 Q 499 361 484 180 Q 472 81 472 79 Q 481 52 495 37 Q 504 25 514 36 Q 523 49 524 64 L 527 95 Q 527 104 528 182 L 528 210 Q 529 250 530 280 L 531 308 Q 531 383 535 389 C 538 407 538 407 519 421 Z" fill="lightgray" class="stroke step10"/>
    <path d="M 689 79 Q 719 42 740 5 Q 750 -14 760 -13 Q 776 -12 793 22 Q 811 59 808 106 Q 801 194 795 357 Q 794 388 810 410 Q 819 423 810 432 Q 791 451 739 475 Q 721 484 706 475 Q 654 448 519 421 C 490 415 505 384 535 389 Q 559 392 694 424 Q 716 428 727 421 Q 754 394 736 117 Q 735 114 735 110 Q 731 94 716 97 C 690 82 687 81 689 79 Z" fill="lightgray" class="stroke step10"/>
    <path d="M 530 280 Q 531 280 536 280 Q 615 295 675 303 Q 697 307 689 320 Q 679 335 653 339 Q 613 342 531 308 C 503 297 500 280 530 280 Z" fill="lightgray" class="stroke step10"/>
    <path d="M 528 182 Q 531 182 536 182 Q 620 194 682 200 Q 704 203 697 216 Q 687 231 661 236 Q 627 242 528 210 C 499 201 498 182 528 182 Z" fill="lightgray" class="hide"/>
    <path d="M 524 64 Q 617 73 689 79 C 719 82 727 82 716 97 Q 706 113 682 118 Q 655 124 527 95 C 498 88 494 61 524 64 Z" fill="lightgray" class="hide"/></g><g transform="scale(1, -1) translate(0, -900)">
    <style type="text/css">
        .origin {display:none;}
        .hide {display:none;}
        .stroke {fill: #000000;}
        
.step1 {transform: translateX(1024px);}
.step2 {transform: translateX(2048px);}
.step3 {transform: translateX(3072px);}
.step4 {transform: translateX(4096px);}
.step5 {transform: translateX(5120px);}
.step6 {transform: translateX(6144px);}
.step7 {transform: translateX(7168px);}
.step8 {transform: translateX(8192px);}
.step9 {transform: translateX(9216px);}
.step10 {transform: translateX(10240px);}
.step11 {transform: translateX(11264px);}
.step12 {transform: translateX(12288px);}
.step13 {transform: translateX(13312px);}
.step14 {transform: translateX(14336px);}
.step15 {transform: translateX(15360px);}
.step16 {transform: translateX(16384px);}
.step17 {transform: translateX(17408px);}
.step18 {transform: translateX(18432px);}
.step19 {transform: translateX(19456px);}
.step20 {transform: translateX(20480px);}
.step21 {transform: translateX(21504px);}
.step22 {transform: translateX(22528px);}
.step23 {transform: translateX(23552px);}
.step24 {transform: translateX(24576px);}
.step25 {transform: translateX(25600px);}
.step26 {transform: translateX(26624px);}
.step27 {transform: translateX(27648px);}
.step28 {transform: translateX(28672px);}
.step29 {transform: translateX(29696px);}
    </style>

    <path d="M 259 640 Q 307 656 358 670 Q 383 677 386 681 Q 395 691 389 700 Q 379 712 348 716 Q 314 719 284 703 Q 256 691 227 682 Q 194 672 154 665 Q 117 655 146 639 Q 176 627 221 630 L 259 640 Z" fill="lightgray" class="stroke step11"/>
    <path d="M 291 438 Q 316 447 347 454 Q 372 461 377 466 Q 384 473 380 482 Q 373 492 345 496 Q 317 500 292 486 L 244 468 Q 237 467 230 464 Q 196 454 153 447 Q 120 438 146 425 Q 186 406 235 423 Q 238 424 245 425 L 291 438 Z" fill="lightgray" class="stroke step11"/>
    <path d="M 290 269 Q 291 360 291 438 L 292 486 Q 292 537 294 589 Q 301 607 291 616 Q 275 632 259 640 C 233 655 208 657 221 630 Q 239 600 243 497 Q 243 485 244 468 L 245 425 Q 245 358 247 252 C 248 222 290 239 290 269 Z" fill="lightgray" class="stroke step11"/>
    <path d="M 247 252 Q 118 207 90 205 Q 75 202 75 191 Q 74 176 85 168 Q 112 152 150 134 Q 162 131 174 142 Q 201 167 356 259 Q 378 271 393 286 Q 406 295 406 305 Q 399 311 386 307 Q 340 289 290 269 L 247 252 Z" fill="lightgray" class="stroke step11"/>
    <path d="M 462 741 Q 450 748 416 752 Q 404 756 401 750 Q 394 744 403 728 Q 434 664 454 557 Q 457 524 476 503 Q 494 481 499 497 Q 506 521 498 567 Q 479 667 473 704 C 468 734 467 739 462 741 Z" fill="lightgray" class="stroke step11"/>
    <path d="M 473 704 Q 482 703 490 705 Q 565 727 734 748 Q 765 751 775 745 Q 785 739 780 709 Q 761 595 750 573 Q 743 554 749 536 Q 755 520 768 521 Q 783 522 791 539 Q 803 552 825 625 Q 841 680 881 714 Q 902 730 884 748 Q 865 766 810 794 Q 792 804 736 789 Q 688 788 462 741 C 433 735 443 701 473 704 Z" fill="lightgray" class="stroke step11"/>
    <path d="M 531 640 Q 515 636 534 623 Q 543 616 560 619 Q 642 632 703 641 Q 725 645 717 657 Q 707 670 683 675 Q 662 678 531 640 Z" fill="lightgray" class="stroke step11"/>
    <path d="M 535 543 Q 519 540 538 527 Q 545 520 562 523 Q 644 536 703 543 Q 724 546 717 557 Q 707 570 685 575 Q 664 578 627 568 Q 578 555 535 543 Z" fill="lightgray" class="stroke step11"/>
    <path d="M 519 421 Q 510 430 491 437 Q 482 441 472 437 Q 465 433 470 421 Q 471 414 475 406 Q 499 361 484 180 Q 472 81 472 79 Q 481 52 495 37 Q 504 25 514 36 Q 523 49 524 64 L 527 95 Q 527 104 528 182 L 528 210 Q 529 250 530 280 L 531 308 Q 531 383 535 389 C 538 407 538 407 519 421 Z" fill="lightgray" class="stroke step11"/>
    <path d="M 689 79 Q 719 42 740 5 Q 750 -14 760 -13 Q 776 -12 793 22 Q 811 59 808 106 Q 801 194 795 357 Q 794 388 810 410 Q 819 423 810 432 Q 791 451 739 475 Q 721 484 706 475 Q 654 448 519 421 C 490 415 505 384 535 389 Q 559 392 694 424 Q 716 428 727 421 Q 754 394 736 117 Q 735 114 735 110 Q 731 94 716 97 C 690 82 687 81 689 79 Z" fill="lightgray" class="stroke step11"/>
    <path d="M 530 280 Q 531 280 536 280 Q 615 295 675 303 Q 697 307 689 320 Q 679 335 653 339 Q 613 342 531 308 C 503 297 500 280 530 280 Z" fill="lightgray" class="stroke step11"/>
    <path d="M 528 182 Q 531 182 536 182 Q 620 194 682 200 Q 704 203 697 216 Q 687 231 661 236 Q 627 242 528 210 C 499 201 498 182 528 182 Z" fill="lightgray" class="stroke step11"/>
    <path d="M 524 64 Q 617 73 689 79 C 719 82 727 82 716 97 Q 706 113 682 118 Q 655 124 527 95 C 498 88 494 61 524 64 Z" fill="lightgray" class="hide"/></g><g transform="scale(1, -1) translate(0, -900)">
    <style type="text/css">
        .origin {display:none;}
        .hide {display:none;}
        .stroke {fill: #000000;}
        
.step1 {transform: translateX(1024px);}
.step2 {transform: translateX(2048px);}
.step3 {transform: translateX(3072px);}
.step4 {transform: translateX(4096px);}
.step5 {transform: translateX(5120px);}
.step6 {transform: translateX(6144px);}
.step7 {transform: translateX(7168px);}
.step8 {transform: translateX(8192px);}
.step9 {transform: translateX(9216px);}
.step10 {transform: translateX(10240px);}
.step11 {transform: translateX(11264px);}
.step12 {transform: translateX(12288px);}
.step13 {transform: translateX(13312px);}
.step14 {transform: translateX(14336px);}
.step15 {transform: translateX(15360px);}
.step16 {transform: translateX(16384px);}
.step17 {transform: translateX(17408px);}
.step18 {transform: translateX(18432px);}
.step19 {transform: translateX(19456px);}
.step20 {transform: translateX(20480px);}
.step21 {transform: translateX(21504px);}
.step22 {transform: translateX(22528px);}
.step23 {transform: translateX(23552px);}
.step24 {transform: translateX(24576px);}
.step25 {transform: translateX(25600px);}
.step26 {transform: translateX(26624px);}
.step27 {transform: translateX(27648px);}
.step28 {transform: translateX(28672px);}
.step29 {transform: translateX(29696px);}
    </style>

    <path d="M 259 640 Q 307 656 358 670 Q 383 677 386 681 Q 395 691 389 700 Q 379 712 348 716 Q 314 719 284 703 Q 256 691 227 682 Q 194 672 154 665 Q 117 655 146 639 Q 176 627 221 630 L 259 640 Z" fill="lightgray" class="stroke step12"/>
    <path d="M 291 438 Q 316 447 347 454 Q 372 461 377 466 Q 384 473 380 482 Q 373 492 345 496 Q 317 500 292 486 L 244 468 Q 237 467 230 464 Q 196 454 153 447 Q 120 438 146 425 Q 186 406 235 423 Q 238 424 245 425 L 291 438 Z" fill="lightgray" class="stroke step12"/>
    <path d="M 290 269 Q 291 360 291 438 L 292 486 Q 292 537 294 589 Q 301 607 291 616 Q 275 632 259 640 C 233 655 208 657 221 630 Q 239 600 243 497 Q 243 485 244 468 L 245 425 Q 245 358 247 252 C 248 222 290 239 290 269 Z" fill="lightgray" class="stroke step12"/>
    <path d="M 247 252 Q 118 207 90 205 Q 75 202 75 191 Q 74 176 85 168 Q 112 152 150 134 Q 162 131 174 142 Q 201 167 356 259 Q 378 271 393 286 Q 406 295 406 305 Q 399 311 386 307 Q 340 289 290 269 L 247 252 Z" fill="lightgray" class="stroke step12"/>
    <path d="M 462 741 Q 450 748 416 752 Q 404 756 401 750 Q 394 744 403 728 Q 434 664 454 557 Q 457 524 476 503 Q 494 481 499 497 Q 506 521 498 567 Q 479 667 473 704 C 468 734 467 739 462 741 Z" fill="lightgray" class="stroke step12"/>
    <path d="M 473 704 Q 482 703 490 705 Q 565 727 734 748 Q 765 751 775 745 Q 785 739 780 709 Q 761 595 750 573 Q 743 554 749 536 Q 755 520 768 521 Q 783 522 791 539 Q 803 552 825 625 Q 841 680 881 714 Q 902 730 884 748 Q 865 766 810 794 Q 792 804 736 789 Q 688 788 462 741 C 433 735 443 701 473 704 Z" fill="lightgray" class="stroke step12"/>
    <path d="M 531 640 Q 515 636 534 623 Q 543 616 560 619 Q 642 632 703 641 Q 725 645 717 657 Q 707 670 683 675 Q 662 678 531 640 Z" fill="lightgray" class="stroke step12"/>
    <path d="M 535 543 Q 519 540 538 527 Q 545 520 562 523 Q 644 536 703 543 Q 724 546 717 557 Q 707 570 685 575 Q 664 578 627 568 Q 578 555 535 543 Z" fill="lightgray" class="stroke step12"/>
    <path d="M 519 421 Q 510 430 491 437 Q 482 441 472 437 Q 465 433 470 421 Q 471 414 475 406 Q 499 361 484 180 Q 472 81 472 79 Q 481 52 495 37 Q 504 25 514 36 Q 523 49 524 64 L 527 95 Q 527 104 528 182 L 528 210 Q 529 250 530 280 L 531 308 Q 531 383 535 389 C 538 407 538 407 519 421 Z" fill="lightgray" class="stroke step12"/>
    <path d="M 689 79 Q 719 42 740 5 Q 750 -14 760 -13 Q 776 -12 793 22 Q 811 59 808 106 Q 801 194 795 357 Q 794 388 810 410 Q 819 423 810 432 Q 791 451 739 475 Q 721 484 706 475 Q 654 448 519 421 C 490 415 505 384 535 389 Q 559 392 694 424 Q 716 428 727 421 Q 754 394 736 117 Q 735 114 735 110 Q 731 94 716 97 C 690 82 687 81 689 79 Z" fill="lightgray" class="stroke step12"/>
    <path d="M 530 280 Q 531 280 536 280 Q 615 295 675 303 Q 697 307 689 320 Q 679 335 653 339 Q 613 342 531 308 C 503 297 500 280 530 280 Z" fill="lightgray" class="stroke step12"/>
    <path d="M 528 182 Q 531 182 536 182 Q 620 194 682 200 Q 704 203 697 216 Q 687 231 661 236 Q 627 242 528 210 C 499 201 498 182 528 182 Z" fill="lightgray" class="stroke step12"/>
    <path d="M 524 64 Q 617 73 689 79 C 719 82 727 82 716 97 Q 706 113 682 118 Q 655 124 527 95 C 498 88 494 61 524 64 Z" fill="lightgray" class="stroke step12"/></g></svg>