<svg version="1.1" viewBox="0 0 9216 1024" xmlns="http://www.w3.org/2000/svg">
  
  <g transform="scale(1, -1) translate(0, -900)" class="origin">
    <style type="text/css">
        .origin {display:none;}
        .hide {display:none;}
        .stroke {fill: #000000;}
        
.step1 {transform: translateX(1024px);}
.step2 {transform: translateX(2048px);}
.step3 {transform: translateX(3072px);}
.step4 {transform: translateX(4096px);}
.step5 {transform: translateX(5120px);}
.step6 {transform: translateX(6144px);}
.step7 {transform: translateX(7168px);}
.step8 {transform: translateX(8192px);}
.step9 {transform: translateX(9216px);}
.step10 {transform: translateX(10240px);}
.step11 {transform: translateX(11264px);}
.step12 {transform: translateX(12288px);}
.step13 {transform: translateX(13312px);}
.step14 {transform: translateX(14336px);}
.step15 {transform: translateX(15360px);}
.step16 {transform: translateX(16384px);}
.step17 {transform: translateX(17408px);}
.step18 {transform: translateX(18432px);}
.step19 {transform: translateX(19456px);}
.step20 {transform: translateX(20480px);}
.step21 {transform: translateX(21504px);}
.step22 {transform: translateX(22528px);}
.step23 {transform: translateX(23552px);}
.step24 {transform: translateX(24576px);}
.step25 {transform: translateX(25600px);}
.step26 {transform: translateX(26624px);}
.step27 {transform: translateX(27648px);}
.step28 {transform: translateX(28672px);}
.step29 {transform: translateX(29696px);}
    </style>

    <path d="M 494 839 Q 482 842 478 835 Q 474 828 482 816 Q 542 726 578 718 Q 585 715 592 718 Q 596 722 602 739 Q 606 755 602 772 Q 596 799 526 828 Q 504 837 494 839 Z" fill="lightgray"/>
    <path d="M 353 604 Q 389 598 466 609 Q 731 664 758 673 Q 765 677 770 679 Q 780 686 775 696 Q 768 708 738 716 Q 714 720 619 691 Q 460 649 343 638 C 313 635 323 607 353 604 Z" fill="lightgray"/>
    <path d="M 259 339 Q 226 203 147 70 Q 105 0 104 -2 Q 101 -12 112 -11 Q 149 -5 231 129 Q 241 148 252 169 Q 315 313 340 526 Q 343 568 353 604 C 359 627 359 627 343 638 Q 330 650 308 659 Q 289 669 276 665 Q 264 658 271 645 Q 305 584 266 369 Q 265 368 265 364 L 259 339 Z" fill="lightgray"/>
    <path d="M 122 532 Q 144 466 172 438 Q 185 429 199 438 Q 209 448 214 465 Q 214 516 148 564 Q 135 574 124 575 Q 117 576 115 563 Q 114 551 122 532 Z" fill="lightgray"/>
    <path d="M 265 364 Q 262 365 260 364 Q 94 279 57 275 Q 45 271 46 262 Q 46 249 56 244 Q 78 234 111 222 Q 121 221 130 231 Q 140 246 259 339 C 283 357 295 369 265 364 Z" fill="lightgray"/>
    <path d="M 729 364 Q 759 440 789 459 Q 805 477 792 495 Q 719 555 663 523 Q 572 486 430 464 C 400 459 411 434 441 435 Q 457 434 479 441 Q 507 448 538 454 L 573 462 Q 616 474 665 484 Q 689 491 699 481 Q 706 474 703 456 Q 693 410 679 373 C 669 345 718 336 729 364 Z" fill="lightgray"/>
    <path d="M 538 454 Q 542 445 545 339 C 546 309 583 319 587 349 Q 599 436 598 438 L 597 439 Q 585 452 573 462 C 550 481 531 483 538 454 Z" fill="lightgray"/>
    <path d="M 423 289 Q 436 280 459 284 Q 547 308 740 331 Q 750 332 752 342 Q 752 349 729 364 L 679 373 Q 672 373 669 371 Q 626 359 587 349 L 545 339 Q 479 327 426 317 C 397 311 396 302 423 289 Z" fill="lightgray"/>
    <path d="M 937 113 Q 925 140 912 219 Q 913 235 905 242 Q 899 246 893 227 Q 856 145 834 120 Q 815 95 754 78 Q 612 42 497 89 Q 451 111 439 140 Q 418 183 423 289 L 426 317 Q 430 372 441 434 L 441 435 C 444 455 444 455 430 464 Q 418 476 398 483 Q 385 487 377 482 Q 370 478 376 460 Q 389 423 386 385 Q 374 178 391 121 Q 398 87 430 57 Q 526 -24 750 1 Q 781 7 814 15 Q 872 31 927 72 Q 949 85 937 113 Z" fill="lightgray"/></g>
<g transform="scale(1, -1) translate(0, -900)">
    <style type="text/css">
        .origin {display:none;}
        .hide {display:none;}
        .stroke {fill: #000000;}
        
.step1 {transform: translateX(1024px);}
.step2 {transform: translateX(2048px);}
.step3 {transform: translateX(3072px);}
.step4 {transform: translateX(4096px);}
.step5 {transform: translateX(5120px);}
.step6 {transform: translateX(6144px);}
.step7 {transform: translateX(7168px);}
.step8 {transform: translateX(8192px);}
.step9 {transform: translateX(9216px);}
.step10 {transform: translateX(10240px);}
.step11 {transform: translateX(11264px);}
.step12 {transform: translateX(12288px);}
.step13 {transform: translateX(13312px);}
.step14 {transform: translateX(14336px);}
.step15 {transform: translateX(15360px);}
.step16 {transform: translateX(16384px);}
.step17 {transform: translateX(17408px);}
.step18 {transform: translateX(18432px);}
.step19 {transform: translateX(19456px);}
.step20 {transform: translateX(20480px);}
.step21 {transform: translateX(21504px);}
.step22 {transform: translateX(22528px);}
.step23 {transform: translateX(23552px);}
.step24 {transform: translateX(24576px);}
.step25 {transform: translateX(25600px);}
.step26 {transform: translateX(26624px);}
.step27 {transform: translateX(27648px);}
.step28 {transform: translateX(28672px);}
.step29 {transform: translateX(29696px);}
    </style>

    <path d="M 494 839 Q 482 842 478 835 Q 474 828 482 816 Q 542 726 578 718 Q 585 715 592 718 Q 596 722 602 739 Q 606 755 602 772 Q 596 799 526 828 Q 504 837 494 839 Z" fill="lightgray" class="stroke step0"/>
    <path d="M 353 604 Q 389 598 466 609 Q 731 664 758 673 Q 765 677 770 679 Q 780 686 775 696 Q 768 708 738 716 Q 714 720 619 691 Q 460 649 343 638 C 313 635 323 607 353 604 Z" fill="lightgray" class="hide"/>
    <path d="M 259 339 Q 226 203 147 70 Q 105 0 104 -2 Q 101 -12 112 -11 Q 149 -5 231 129 Q 241 148 252 169 Q 315 313 340 526 Q 343 568 353 604 C 359 627 359 627 343 638 Q 330 650 308 659 Q 289 669 276 665 Q 264 658 271 645 Q 305 584 266 369 Q 265 368 265 364 L 259 339 Z" fill="lightgray" class="hide"/>
    <path d="M 122 532 Q 144 466 172 438 Q 185 429 199 438 Q 209 448 214 465 Q 214 516 148 564 Q 135 574 124 575 Q 117 576 115 563 Q 114 551 122 532 Z" fill="lightgray" class="hide"/>
    <path d="M 265 364 Q 262 365 260 364 Q 94 279 57 275 Q 45 271 46 262 Q 46 249 56 244 Q 78 234 111 222 Q 121 221 130 231 Q 140 246 259 339 C 283 357 295 369 265 364 Z" fill="lightgray" class="hide"/>
    <path d="M 729 364 Q 759 440 789 459 Q 805 477 792 495 Q 719 555 663 523 Q 572 486 430 464 C 400 459 411 434 441 435 Q 457 434 479 441 Q 507 448 538 454 L 573 462 Q 616 474 665 484 Q 689 491 699 481 Q 706 474 703 456 Q 693 410 679 373 C 669 345 718 336 729 364 Z" fill="lightgray" class="hide"/>
    <path d="M 538 454 Q 542 445 545 339 C 546 309 583 319 587 349 Q 599 436 598 438 L 597 439 Q 585 452 573 462 C 550 481 531 483 538 454 Z" fill="lightgray" class="hide"/>
    <path d="M 423 289 Q 436 280 459 284 Q 547 308 740 331 Q 750 332 752 342 Q 752 349 729 364 L 679 373 Q 672 373 669 371 Q 626 359 587 349 L 545 339 Q 479 327 426 317 C 397 311 396 302 423 289 Z" fill="lightgray" class="hide"/>
    <path d="M 937 113 Q 925 140 912 219 Q 913 235 905 242 Q 899 246 893 227 Q 856 145 834 120 Q 815 95 754 78 Q 612 42 497 89 Q 451 111 439 140 Q 418 183 423 289 L 426 317 Q 430 372 441 434 L 441 435 C 444 455 444 455 430 464 Q 418 476 398 483 Q 385 487 377 482 Q 370 478 376 460 Q 389 423 386 385 Q 374 178 391 121 Q 398 87 430 57 Q 526 -24 750 1 Q 781 7 814 15 Q 872 31 927 72 Q 949 85 937 113 Z" fill="lightgray" class="hide"/></g><g transform="scale(1, -1) translate(0, -900)">
    <style type="text/css">
        .origin {display:none;}
        .hide {display:none;}
        .stroke {fill: #000000;}
        
.step1 {transform: translateX(1024px);}
.step2 {transform: translateX(2048px);}
.step3 {transform: translateX(3072px);}
.step4 {transform: translateX(4096px);}
.step5 {transform: translateX(5120px);}
.step6 {transform: translateX(6144px);}
.step7 {transform: translateX(7168px);}
.step8 {transform: translateX(8192px);}
.step9 {transform: translateX(9216px);}
.step10 {transform: translateX(10240px);}
.step11 {transform: translateX(11264px);}
.step12 {transform: translateX(12288px);}
.step13 {transform: translateX(13312px);}
.step14 {transform: translateX(14336px);}
.step15 {transform: translateX(15360px);}
.step16 {transform: translateX(16384px);}
.step17 {transform: translateX(17408px);}
.step18 {transform: translateX(18432px);}
.step19 {transform: translateX(19456px);}
.step20 {transform: translateX(20480px);}
.step21 {transform: translateX(21504px);}
.step22 {transform: translateX(22528px);}
.step23 {transform: translateX(23552px);}
.step24 {transform: translateX(24576px);}
.step25 {transform: translateX(25600px);}
.step26 {transform: translateX(26624px);}
.step27 {transform: translateX(27648px);}
.step28 {transform: translateX(28672px);}
.step29 {transform: translateX(29696px);}
    </style>

    <path d="M 494 839 Q 482 842 478 835 Q 474 828 482 816 Q 542 726 578 718 Q 585 715 592 718 Q 596 722 602 739 Q 606 755 602 772 Q 596 799 526 828 Q 504 837 494 839 Z" fill="lightgray" class="stroke step1"/>
    <path d="M 353 604 Q 389 598 466 609 Q 731 664 758 673 Q 765 677 770 679 Q 780 686 775 696 Q 768 708 738 716 Q 714 720 619 691 Q 460 649 343 638 C 313 635 323 607 353 604 Z" fill="lightgray" class="stroke step1"/>
    <path d="M 259 339 Q 226 203 147 70 Q 105 0 104 -2 Q 101 -12 112 -11 Q 149 -5 231 129 Q 241 148 252 169 Q 315 313 340 526 Q 343 568 353 604 C 359 627 359 627 343 638 Q 330 650 308 659 Q 289 669 276 665 Q 264 658 271 645 Q 305 584 266 369 Q 265 368 265 364 L 259 339 Z" fill="lightgray" class="hide"/>
    <path d="M 122 532 Q 144 466 172 438 Q 185 429 199 438 Q 209 448 214 465 Q 214 516 148 564 Q 135 574 124 575 Q 117 576 115 563 Q 114 551 122 532 Z" fill="lightgray" class="hide"/>
    <path d="M 265 364 Q 262 365 260 364 Q 94 279 57 275 Q 45 271 46 262 Q 46 249 56 244 Q 78 234 111 222 Q 121 221 130 231 Q 140 246 259 339 C 283 357 295 369 265 364 Z" fill="lightgray" class="hide"/>
    <path d="M 729 364 Q 759 440 789 459 Q 805 477 792 495 Q 719 555 663 523 Q 572 486 430 464 C 400 459 411 434 441 435 Q 457 434 479 441 Q 507 448 538 454 L 573 462 Q 616 474 665 484 Q 689 491 699 481 Q 706 474 703 456 Q 693 410 679 373 C 669 345 718 336 729 364 Z" fill="lightgray" class="hide"/>
    <path d="M 538 454 Q 542 445 545 339 C 546 309 583 319 587 349 Q 599 436 598 438 L 597 439 Q 585 452 573 462 C 550 481 531 483 538 454 Z" fill="lightgray" class="hide"/>
    <path d="M 423 289 Q 436 280 459 284 Q 547 308 740 331 Q 750 332 752 342 Q 752 349 729 364 L 679 373 Q 672 373 669 371 Q 626 359 587 349 L 545 339 Q 479 327 426 317 C 397 311 396 302 423 289 Z" fill="lightgray" class="hide"/>
    <path d="M 937 113 Q 925 140 912 219 Q 913 235 905 242 Q 899 246 893 227 Q 856 145 834 120 Q 815 95 754 78 Q 612 42 497 89 Q 451 111 439 140 Q 418 183 423 289 L 426 317 Q 430 372 441 434 L 441 435 C 444 455 444 455 430 464 Q 418 476 398 483 Q 385 487 377 482 Q 370 478 376 460 Q 389 423 386 385 Q 374 178 391 121 Q 398 87 430 57 Q 526 -24 750 1 Q 781 7 814 15 Q 872 31 927 72 Q 949 85 937 113 Z" fill="lightgray" class="hide"/></g><g transform="scale(1, -1) translate(0, -900)">
    <style type="text/css">
        .origin {display:none;}
        .hide {display:none;}
        .stroke {fill: #000000;}
        
.step1 {transform: translateX(1024px);}
.step2 {transform: translateX(2048px);}
.step3 {transform: translateX(3072px);}
.step4 {transform: translateX(4096px);}
.step5 {transform: translateX(5120px);}
.step6 {transform: translateX(6144px);}
.step7 {transform: translateX(7168px);}
.step8 {transform: translateX(8192px);}
.step9 {transform: translateX(9216px);}
.step10 {transform: translateX(10240px);}
.step11 {transform: translateX(11264px);}
.step12 {transform: translateX(12288px);}
.step13 {transform: translateX(13312px);}
.step14 {transform: translateX(14336px);}
.step15 {transform: translateX(15360px);}
.step16 {transform: translateX(16384px);}
.step17 {transform: translateX(17408px);}
.step18 {transform: translateX(18432px);}
.step19 {transform: translateX(19456px);}
.step20 {transform: translateX(20480px);}
.step21 {transform: translateX(21504px);}
.step22 {transform: translateX(22528px);}
.step23 {transform: translateX(23552px);}
.step24 {transform: translateX(24576px);}
.step25 {transform: translateX(25600px);}
.step26 {transform: translateX(26624px);}
.step27 {transform: translateX(27648px);}
.step28 {transform: translateX(28672px);}
.step29 {transform: translateX(29696px);}
    </style>

    <path d="M 494 839 Q 482 842 478 835 Q 474 828 482 816 Q 542 726 578 718 Q 585 715 592 718 Q 596 722 602 739 Q 606 755 602 772 Q 596 799 526 828 Q 504 837 494 839 Z" fill="lightgray" class="stroke step2"/>
    <path d="M 353 604 Q 389 598 466 609 Q 731 664 758 673 Q 765 677 770 679 Q 780 686 775 696 Q 768 708 738 716 Q 714 720 619 691 Q 460 649 343 638 C 313 635 323 607 353 604 Z" fill="lightgray" class="stroke step2"/>
    <path d="M 259 339 Q 226 203 147 70 Q 105 0 104 -2 Q 101 -12 112 -11 Q 149 -5 231 129 Q 241 148 252 169 Q 315 313 340 526 Q 343 568 353 604 C 359 627 359 627 343 638 Q 330 650 308 659 Q 289 669 276 665 Q 264 658 271 645 Q 305 584 266 369 Q 265 368 265 364 L 259 339 Z" fill="lightgray" class="stroke step2"/>
    <path d="M 122 532 Q 144 466 172 438 Q 185 429 199 438 Q 209 448 214 465 Q 214 516 148 564 Q 135 574 124 575 Q 117 576 115 563 Q 114 551 122 532 Z" fill="lightgray" class="hide"/>
    <path d="M 265 364 Q 262 365 260 364 Q 94 279 57 275 Q 45 271 46 262 Q 46 249 56 244 Q 78 234 111 222 Q 121 221 130 231 Q 140 246 259 339 C 283 357 295 369 265 364 Z" fill="lightgray" class="hide"/>
    <path d="M 729 364 Q 759 440 789 459 Q 805 477 792 495 Q 719 555 663 523 Q 572 486 430 464 C 400 459 411 434 441 435 Q 457 434 479 441 Q 507 448 538 454 L 573 462 Q 616 474 665 484 Q 689 491 699 481 Q 706 474 703 456 Q 693 410 679 373 C 669 345 718 336 729 364 Z" fill="lightgray" class="hide"/>
    <path d="M 538 454 Q 542 445 545 339 C 546 309 583 319 587 349 Q 599 436 598 438 L 597 439 Q 585 452 573 462 C 550 481 531 483 538 454 Z" fill="lightgray" class="hide"/>
    <path d="M 423 289 Q 436 280 459 284 Q 547 308 740 331 Q 750 332 752 342 Q 752 349 729 364 L 679 373 Q 672 373 669 371 Q 626 359 587 349 L 545 339 Q 479 327 426 317 C 397 311 396 302 423 289 Z" fill="lightgray" class="hide"/>
    <path d="M 937 113 Q 925 140 912 219 Q 913 235 905 242 Q 899 246 893 227 Q 856 145 834 120 Q 815 95 754 78 Q 612 42 497 89 Q 451 111 439 140 Q 418 183 423 289 L 426 317 Q 430 372 441 434 L 441 435 C 444 455 444 455 430 464 Q 418 476 398 483 Q 385 487 377 482 Q 370 478 376 460 Q 389 423 386 385 Q 374 178 391 121 Q 398 87 430 57 Q 526 -24 750 1 Q 781 7 814 15 Q 872 31 927 72 Q 949 85 937 113 Z" fill="lightgray" class="hide"/></g><g transform="scale(1, -1) translate(0, -900)">
    <style type="text/css">
        .origin {display:none;}
        .hide {display:none;}
        .stroke {fill: #000000;}
        
.step1 {transform: translateX(1024px);}
.step2 {transform: translateX(2048px);}
.step3 {transform: translateX(3072px);}
.step4 {transform: translateX(4096px);}
.step5 {transform: translateX(5120px);}
.step6 {transform: translateX(6144px);}
.step7 {transform: translateX(7168px);}
.step8 {transform: translateX(8192px);}
.step9 {transform: translateX(9216px);}
.step10 {transform: translateX(10240px);}
.step11 {transform: translateX(11264px);}
.step12 {transform: translateX(12288px);}
.step13 {transform: translateX(13312px);}
.step14 {transform: translateX(14336px);}
.step15 {transform: translateX(15360px);}
.step16 {transform: translateX(16384px);}
.step17 {transform: translateX(17408px);}
.step18 {transform: translateX(18432px);}
.step19 {transform: translateX(19456px);}
.step20 {transform: translateX(20480px);}
.step21 {transform: translateX(21504px);}
.step22 {transform: translateX(22528px);}
.step23 {transform: translateX(23552px);}
.step24 {transform: translateX(24576px);}
.step25 {transform: translateX(25600px);}
.step26 {transform: translateX(26624px);}
.step27 {transform: translateX(27648px);}
.step28 {transform: translateX(28672px);}
.step29 {transform: translateX(29696px);}
    </style>

    <path d="M 494 839 Q 482 842 478 835 Q 474 828 482 816 Q 542 726 578 718 Q 585 715 592 718 Q 596 722 602 739 Q 606 755 602 772 Q 596 799 526 828 Q 504 837 494 839 Z" fill="lightgray" class="stroke step3"/>
    <path d="M 353 604 Q 389 598 466 609 Q 731 664 758 673 Q 765 677 770 679 Q 780 686 775 696 Q 768 708 738 716 Q 714 720 619 691 Q 460 649 343 638 C 313 635 323 607 353 604 Z" fill="lightgray" class="stroke step3"/>
    <path d="M 259 339 Q 226 203 147 70 Q 105 0 104 -2 Q 101 -12 112 -11 Q 149 -5 231 129 Q 241 148 252 169 Q 315 313 340 526 Q 343 568 353 604 C 359 627 359 627 343 638 Q 330 650 308 659 Q 289 669 276 665 Q 264 658 271 645 Q 305 584 266 369 Q 265 368 265 364 L 259 339 Z" fill="lightgray" class="stroke step3"/>
    <path d="M 122 532 Q 144 466 172 438 Q 185 429 199 438 Q 209 448 214 465 Q 214 516 148 564 Q 135 574 124 575 Q 117 576 115 563 Q 114 551 122 532 Z" fill="lightgray" class="stroke step3"/>
    <path d="M 265 364 Q 262 365 260 364 Q 94 279 57 275 Q 45 271 46 262 Q 46 249 56 244 Q 78 234 111 222 Q 121 221 130 231 Q 140 246 259 339 C 283 357 295 369 265 364 Z" fill="lightgray" class="hide"/>
    <path d="M 729 364 Q 759 440 789 459 Q 805 477 792 495 Q 719 555 663 523 Q 572 486 430 464 C 400 459 411 434 441 435 Q 457 434 479 441 Q 507 448 538 454 L 573 462 Q 616 474 665 484 Q 689 491 699 481 Q 706 474 703 456 Q 693 410 679 373 C 669 345 718 336 729 364 Z" fill="lightgray" class="hide"/>
    <path d="M 538 454 Q 542 445 545 339 C 546 309 583 319 587 349 Q 599 436 598 438 L 597 439 Q 585 452 573 462 C 550 481 531 483 538 454 Z" fill="lightgray" class="hide"/>
    <path d="M 423 289 Q 436 280 459 284 Q 547 308 740 331 Q 750 332 752 342 Q 752 349 729 364 L 679 373 Q 672 373 669 371 Q 626 359 587 349 L 545 339 Q 479 327 426 317 C 397 311 396 302 423 289 Z" fill="lightgray" class="hide"/>
    <path d="M 937 113 Q 925 140 912 219 Q 913 235 905 242 Q 899 246 893 227 Q 856 145 834 120 Q 815 95 754 78 Q 612 42 497 89 Q 451 111 439 140 Q 418 183 423 289 L 426 317 Q 430 372 441 434 L 441 435 C 444 455 444 455 430 464 Q 418 476 398 483 Q 385 487 377 482 Q 370 478 376 460 Q 389 423 386 385 Q 374 178 391 121 Q 398 87 430 57 Q 526 -24 750 1 Q 781 7 814 15 Q 872 31 927 72 Q 949 85 937 113 Z" fill="lightgray" class="hide"/></g><g transform="scale(1, -1) translate(0, -900)">
    <style type="text/css">
        .origin {display:none;}
        .hide {display:none;}
        .stroke {fill: #000000;}
        
.step1 {transform: translateX(1024px);}
.step2 {transform: translateX(2048px);}
.step3 {transform: translateX(3072px);}
.step4 {transform: translateX(4096px);}
.step5 {transform: translateX(5120px);}
.step6 {transform: translateX(6144px);}
.step7 {transform: translateX(7168px);}
.step8 {transform: translateX(8192px);}
.step9 {transform: translateX(9216px);}
.step10 {transform: translateX(10240px);}
.step11 {transform: translateX(11264px);}
.step12 {transform: translateX(12288px);}
.step13 {transform: translateX(13312px);}
.step14 {transform: translateX(14336px);}
.step15 {transform: translateX(15360px);}
.step16 {transform: translateX(16384px);}
.step17 {transform: translateX(17408px);}
.step18 {transform: translateX(18432px);}
.step19 {transform: translateX(19456px);}
.step20 {transform: translateX(20480px);}
.step21 {transform: translateX(21504px);}
.step22 {transform: translateX(22528px);}
.step23 {transform: translateX(23552px);}
.step24 {transform: translateX(24576px);}
.step25 {transform: translateX(25600px);}
.step26 {transform: translateX(26624px);}
.step27 {transform: translateX(27648px);}
.step28 {transform: translateX(28672px);}
.step29 {transform: translateX(29696px);}
    </style>

    <path d="M 494 839 Q 482 842 478 835 Q 474 828 482 816 Q 542 726 578 718 Q 585 715 592 718 Q 596 722 602 739 Q 606 755 602 772 Q 596 799 526 828 Q 504 837 494 839 Z" fill="lightgray" class="stroke step4"/>
    <path d="M 353 604 Q 389 598 466 609 Q 731 664 758 673 Q 765 677 770 679 Q 780 686 775 696 Q 768 708 738 716 Q 714 720 619 691 Q 460 649 343 638 C 313 635 323 607 353 604 Z" fill="lightgray" class="stroke step4"/>
    <path d="M 259 339 Q 226 203 147 70 Q 105 0 104 -2 Q 101 -12 112 -11 Q 149 -5 231 129 Q 241 148 252 169 Q 315 313 340 526 Q 343 568 353 604 C 359 627 359 627 343 638 Q 330 650 308 659 Q 289 669 276 665 Q 264 658 271 645 Q 305 584 266 369 Q 265 368 265 364 L 259 339 Z" fill="lightgray" class="stroke step4"/>
    <path d="M 122 532 Q 144 466 172 438 Q 185 429 199 438 Q 209 448 214 465 Q 214 516 148 564 Q 135 574 124 575 Q 117 576 115 563 Q 114 551 122 532 Z" fill="lightgray" class="stroke step4"/>
    <path d="M 265 364 Q 262 365 260 364 Q 94 279 57 275 Q 45 271 46 262 Q 46 249 56 244 Q 78 234 111 222 Q 121 221 130 231 Q 140 246 259 339 C 283 357 295 369 265 364 Z" fill="lightgray" class="stroke step4"/>
    <path d="M 729 364 Q 759 440 789 459 Q 805 477 792 495 Q 719 555 663 523 Q 572 486 430 464 C 400 459 411 434 441 435 Q 457 434 479 441 Q 507 448 538 454 L 573 462 Q 616 474 665 484 Q 689 491 699 481 Q 706 474 703 456 Q 693 410 679 373 C 669 345 718 336 729 364 Z" fill="lightgray" class="hide"/>
    <path d="M 538 454 Q 542 445 545 339 C 546 309 583 319 587 349 Q 599 436 598 438 L 597 439 Q 585 452 573 462 C 550 481 531 483 538 454 Z" fill="lightgray" class="hide"/>
    <path d="M 423 289 Q 436 280 459 284 Q 547 308 740 331 Q 750 332 752 342 Q 752 349 729 364 L 679 373 Q 672 373 669 371 Q 626 359 587 349 L 545 339 Q 479 327 426 317 C 397 311 396 302 423 289 Z" fill="lightgray" class="hide"/>
    <path d="M 937 113 Q 925 140 912 219 Q 913 235 905 242 Q 899 246 893 227 Q 856 145 834 120 Q 815 95 754 78 Q 612 42 497 89 Q 451 111 439 140 Q 418 183 423 289 L 426 317 Q 430 372 441 434 L 441 435 C 444 455 444 455 430 464 Q 418 476 398 483 Q 385 487 377 482 Q 370 478 376 460 Q 389 423 386 385 Q 374 178 391 121 Q 398 87 430 57 Q 526 -24 750 1 Q 781 7 814 15 Q 872 31 927 72 Q 949 85 937 113 Z" fill="lightgray" class="hide"/></g><g transform="scale(1, -1) translate(0, -900)">
    <style type="text/css">
        .origin {display:none;}
        .hide {display:none;}
        .stroke {fill: #000000;}
        
.step1 {transform: translateX(1024px);}
.step2 {transform: translateX(2048px);}
.step3 {transform: translateX(3072px);}
.step4 {transform: translateX(4096px);}
.step5 {transform: translateX(5120px);}
.step6 {transform: translateX(6144px);}
.step7 {transform: translateX(7168px);}
.step8 {transform: translateX(8192px);}
.step9 {transform: translateX(9216px);}
.step10 {transform: translateX(10240px);}
.step11 {transform: translateX(11264px);}
.step12 {transform: translateX(12288px);}
.step13 {transform: translateX(13312px);}
.step14 {transform: translateX(14336px);}
.step15 {transform: translateX(15360px);}
.step16 {transform: translateX(16384px);}
.step17 {transform: translateX(17408px);}
.step18 {transform: translateX(18432px);}
.step19 {transform: translateX(19456px);}
.step20 {transform: translateX(20480px);}
.step21 {transform: translateX(21504px);}
.step22 {transform: translateX(22528px);}
.step23 {transform: translateX(23552px);}
.step24 {transform: translateX(24576px);}
.step25 {transform: translateX(25600px);}
.step26 {transform: translateX(26624px);}
.step27 {transform: translateX(27648px);}
.step28 {transform: translateX(28672px);}
.step29 {transform: translateX(29696px);}
    </style>

    <path d="M 494 839 Q 482 842 478 835 Q 474 828 482 816 Q 542 726 578 718 Q 585 715 592 718 Q 596 722 602 739 Q 606 755 602 772 Q 596 799 526 828 Q 504 837 494 839 Z" fill="lightgray" class="stroke step5"/>
    <path d="M 353 604 Q 389 598 466 609 Q 731 664 758 673 Q 765 677 770 679 Q 780 686 775 696 Q 768 708 738 716 Q 714 720 619 691 Q 460 649 343 638 C 313 635 323 607 353 604 Z" fill="lightgray" class="stroke step5"/>
    <path d="M 259 339 Q 226 203 147 70 Q 105 0 104 -2 Q 101 -12 112 -11 Q 149 -5 231 129 Q 241 148 252 169 Q 315 313 340 526 Q 343 568 353 604 C 359 627 359 627 343 638 Q 330 650 308 659 Q 289 669 276 665 Q 264 658 271 645 Q 305 584 266 369 Q 265 368 265 364 L 259 339 Z" fill="lightgray" class="stroke step5"/>
    <path d="M 122 532 Q 144 466 172 438 Q 185 429 199 438 Q 209 448 214 465 Q 214 516 148 564 Q 135 574 124 575 Q 117 576 115 563 Q 114 551 122 532 Z" fill="lightgray" class="stroke step5"/>
    <path d="M 265 364 Q 262 365 260 364 Q 94 279 57 275 Q 45 271 46 262 Q 46 249 56 244 Q 78 234 111 222 Q 121 221 130 231 Q 140 246 259 339 C 283 357 295 369 265 364 Z" fill="lightgray" class="stroke step5"/>
    <path d="M 729 364 Q 759 440 789 459 Q 805 477 792 495 Q 719 555 663 523 Q 572 486 430 464 C 400 459 411 434 441 435 Q 457 434 479 441 Q 507 448 538 454 L 573 462 Q 616 474 665 484 Q 689 491 699 481 Q 706 474 703 456 Q 693 410 679 373 C 669 345 718 336 729 364 Z" fill="lightgray" class="stroke step5"/>
    <path d="M 538 454 Q 542 445 545 339 C 546 309 583 319 587 349 Q 599 436 598 438 L 597 439 Q 585 452 573 462 C 550 481 531 483 538 454 Z" fill="lightgray" class="hide"/>
    <path d="M 423 289 Q 436 280 459 284 Q 547 308 740 331 Q 750 332 752 342 Q 752 349 729 364 L 679 373 Q 672 373 669 371 Q 626 359 587 349 L 545 339 Q 479 327 426 317 C 397 311 396 302 423 289 Z" fill="lightgray" class="hide"/>
    <path d="M 937 113 Q 925 140 912 219 Q 913 235 905 242 Q 899 246 893 227 Q 856 145 834 120 Q 815 95 754 78 Q 612 42 497 89 Q 451 111 439 140 Q 418 183 423 289 L 426 317 Q 430 372 441 434 L 441 435 C 444 455 444 455 430 464 Q 418 476 398 483 Q 385 487 377 482 Q 370 478 376 460 Q 389 423 386 385 Q 374 178 391 121 Q 398 87 430 57 Q 526 -24 750 1 Q 781 7 814 15 Q 872 31 927 72 Q 949 85 937 113 Z" fill="lightgray" class="hide"/></g><g transform="scale(1, -1) translate(0, -900)">
    <style type="text/css">
        .origin {display:none;}
        .hide {display:none;}
        .stroke {fill: #000000;}
        
.step1 {transform: translateX(1024px);}
.step2 {transform: translateX(2048px);}
.step3 {transform: translateX(3072px);}
.step4 {transform: translateX(4096px);}
.step5 {transform: translateX(5120px);}
.step6 {transform: translateX(6144px);}
.step7 {transform: translateX(7168px);}
.step8 {transform: translateX(8192px);}
.step9 {transform: translateX(9216px);}
.step10 {transform: translateX(10240px);}
.step11 {transform: translateX(11264px);}
.step12 {transform: translateX(12288px);}
.step13 {transform: translateX(13312px);}
.step14 {transform: translateX(14336px);}
.step15 {transform: translateX(15360px);}
.step16 {transform: translateX(16384px);}
.step17 {transform: translateX(17408px);}
.step18 {transform: translateX(18432px);}
.step19 {transform: translateX(19456px);}
.step20 {transform: translateX(20480px);}
.step21 {transform: translateX(21504px);}
.step22 {transform: translateX(22528px);}
.step23 {transform: translateX(23552px);}
.step24 {transform: translateX(24576px);}
.step25 {transform: translateX(25600px);}
.step26 {transform: translateX(26624px);}
.step27 {transform: translateX(27648px);}
.step28 {transform: translateX(28672px);}
.step29 {transform: translateX(29696px);}
    </style>

    <path d="M 494 839 Q 482 842 478 835 Q 474 828 482 816 Q 542 726 578 718 Q 585 715 592 718 Q 596 722 602 739 Q 606 755 602 772 Q 596 799 526 828 Q 504 837 494 839 Z" fill="lightgray" class="stroke step6"/>
    <path d="M 353 604 Q 389 598 466 609 Q 731 664 758 673 Q 765 677 770 679 Q 780 686 775 696 Q 768 708 738 716 Q 714 720 619 691 Q 460 649 343 638 C 313 635 323 607 353 604 Z" fill="lightgray" class="stroke step6"/>
    <path d="M 259 339 Q 226 203 147 70 Q 105 0 104 -2 Q 101 -12 112 -11 Q 149 -5 231 129 Q 241 148 252 169 Q 315 313 340 526 Q 343 568 353 604 C 359 627 359 627 343 638 Q 330 650 308 659 Q 289 669 276 665 Q 264 658 271 645 Q 305 584 266 369 Q 265 368 265 364 L 259 339 Z" fill="lightgray" class="stroke step6"/>
    <path d="M 122 532 Q 144 466 172 438 Q 185 429 199 438 Q 209 448 214 465 Q 214 516 148 564 Q 135 574 124 575 Q 117 576 115 563 Q 114 551 122 532 Z" fill="lightgray" class="stroke step6"/>
    <path d="M 265 364 Q 262 365 260 364 Q 94 279 57 275 Q 45 271 46 262 Q 46 249 56 244 Q 78 234 111 222 Q 121 221 130 231 Q 140 246 259 339 C 283 357 295 369 265 364 Z" fill="lightgray" class="stroke step6"/>
    <path d="M 729 364 Q 759 440 789 459 Q 805 477 792 495 Q 719 555 663 523 Q 572 486 430 464 C 400 459 411 434 441 435 Q 457 434 479 441 Q 507 448 538 454 L 573 462 Q 616 474 665 484 Q 689 491 699 481 Q 706 474 703 456 Q 693 410 679 373 C 669 345 718 336 729 364 Z" fill="lightgray" class="stroke step6"/>
    <path d="M 538 454 Q 542 445 545 339 C 546 309 583 319 587 349 Q 599 436 598 438 L 597 439 Q 585 452 573 462 C 550 481 531 483 538 454 Z" fill="lightgray" class="stroke step6"/>
    <path d="M 423 289 Q 436 280 459 284 Q 547 308 740 331 Q 750 332 752 342 Q 752 349 729 364 L 679 373 Q 672 373 669 371 Q 626 359 587 349 L 545 339 Q 479 327 426 317 C 397 311 396 302 423 289 Z" fill="lightgray" class="hide"/>
    <path d="M 937 113 Q 925 140 912 219 Q 913 235 905 242 Q 899 246 893 227 Q 856 145 834 120 Q 815 95 754 78 Q 612 42 497 89 Q 451 111 439 140 Q 418 183 423 289 L 426 317 Q 430 372 441 434 L 441 435 C 444 455 444 455 430 464 Q 418 476 398 483 Q 385 487 377 482 Q 370 478 376 460 Q 389 423 386 385 Q 374 178 391 121 Q 398 87 430 57 Q 526 -24 750 1 Q 781 7 814 15 Q 872 31 927 72 Q 949 85 937 113 Z" fill="lightgray" class="hide"/></g><g transform="scale(1, -1) translate(0, -900)">
    <style type="text/css">
        .origin {display:none;}
        .hide {display:none;}
        .stroke {fill: #000000;}
        
.step1 {transform: translateX(1024px);}
.step2 {transform: translateX(2048px);}
.step3 {transform: translateX(3072px);}
.step4 {transform: translateX(4096px);}
.step5 {transform: translateX(5120px);}
.step6 {transform: translateX(6144px);}
.step7 {transform: translateX(7168px);}
.step8 {transform: translateX(8192px);}
.step9 {transform: translateX(9216px);}
.step10 {transform: translateX(10240px);}
.step11 {transform: translateX(11264px);}
.step12 {transform: translateX(12288px);}
.step13 {transform: translateX(13312px);}
.step14 {transform: translateX(14336px);}
.step15 {transform: translateX(15360px);}
.step16 {transform: translateX(16384px);}
.step17 {transform: translateX(17408px);}
.step18 {transform: translateX(18432px);}
.step19 {transform: translateX(19456px);}
.step20 {transform: translateX(20480px);}
.step21 {transform: translateX(21504px);}
.step22 {transform: translateX(22528px);}
.step23 {transform: translateX(23552px);}
.step24 {transform: translateX(24576px);}
.step25 {transform: translateX(25600px);}
.step26 {transform: translateX(26624px);}
.step27 {transform: translateX(27648px);}
.step28 {transform: translateX(28672px);}
.step29 {transform: translateX(29696px);}
    </style>

    <path d="M 494 839 Q 482 842 478 835 Q 474 828 482 816 Q 542 726 578 718 Q 585 715 592 718 Q 596 722 602 739 Q 606 755 602 772 Q 596 799 526 828 Q 504 837 494 839 Z" fill="lightgray" class="stroke step7"/>
    <path d="M 353 604 Q 389 598 466 609 Q 731 664 758 673 Q 765 677 770 679 Q 780 686 775 696 Q 768 708 738 716 Q 714 720 619 691 Q 460 649 343 638 C 313 635 323 607 353 604 Z" fill="lightgray" class="stroke step7"/>
    <path d="M 259 339 Q 226 203 147 70 Q 105 0 104 -2 Q 101 -12 112 -11 Q 149 -5 231 129 Q 241 148 252 169 Q 315 313 340 526 Q 343 568 353 604 C 359 627 359 627 343 638 Q 330 650 308 659 Q 289 669 276 665 Q 264 658 271 645 Q 305 584 266 369 Q 265 368 265 364 L 259 339 Z" fill="lightgray" class="stroke step7"/>
    <path d="M 122 532 Q 144 466 172 438 Q 185 429 199 438 Q 209 448 214 465 Q 214 516 148 564 Q 135 574 124 575 Q 117 576 115 563 Q 114 551 122 532 Z" fill="lightgray" class="stroke step7"/>
    <path d="M 265 364 Q 262 365 260 364 Q 94 279 57 275 Q 45 271 46 262 Q 46 249 56 244 Q 78 234 111 222 Q 121 221 130 231 Q 140 246 259 339 C 283 357 295 369 265 364 Z" fill="lightgray" class="stroke step7"/>
    <path d="M 729 364 Q 759 440 789 459 Q 805 477 792 495 Q 719 555 663 523 Q 572 486 430 464 C 400 459 411 434 441 435 Q 457 434 479 441 Q 507 448 538 454 L 573 462 Q 616 474 665 484 Q 689 491 699 481 Q 706 474 703 456 Q 693 410 679 373 C 669 345 718 336 729 364 Z" fill="lightgray" class="stroke step7"/>
    <path d="M 538 454 Q 542 445 545 339 C 546 309 583 319 587 349 Q 599 436 598 438 L 597 439 Q 585 452 573 462 C 550 481 531 483 538 454 Z" fill="lightgray" class="stroke step7"/>
    <path d="M 423 289 Q 436 280 459 284 Q 547 308 740 331 Q 750 332 752 342 Q 752 349 729 364 L 679 373 Q 672 373 669 371 Q 626 359 587 349 L 545 339 Q 479 327 426 317 C 397 311 396 302 423 289 Z" fill="lightgray" class="stroke step7"/>
    <path d="M 937 113 Q 925 140 912 219 Q 913 235 905 242 Q 899 246 893 227 Q 856 145 834 120 Q 815 95 754 78 Q 612 42 497 89 Q 451 111 439 140 Q 418 183 423 289 L 426 317 Q 430 372 441 434 L 441 435 C 444 455 444 455 430 464 Q 418 476 398 483 Q 385 487 377 482 Q 370 478 376 460 Q 389 423 386 385 Q 374 178 391 121 Q 398 87 430 57 Q 526 -24 750 1 Q 781 7 814 15 Q 872 31 927 72 Q 949 85 937 113 Z" fill="lightgray" class="hide"/></g><g transform="scale(1, -1) translate(0, -900)">
    <style type="text/css">
        .origin {display:none;}
        .hide {display:none;}
        .stroke {fill: #000000;}
        
.step1 {transform: translateX(1024px);}
.step2 {transform: translateX(2048px);}
.step3 {transform: translateX(3072px);}
.step4 {transform: translateX(4096px);}
.step5 {transform: translateX(5120px);}
.step6 {transform: translateX(6144px);}
.step7 {transform: translateX(7168px);}
.step8 {transform: translateX(8192px);}
.step9 {transform: translateX(9216px);}
.step10 {transform: translateX(10240px);}
.step11 {transform: translateX(11264px);}
.step12 {transform: translateX(12288px);}
.step13 {transform: translateX(13312px);}
.step14 {transform: translateX(14336px);}
.step15 {transform: translateX(15360px);}
.step16 {transform: translateX(16384px);}
.step17 {transform: translateX(17408px);}
.step18 {transform: translateX(18432px);}
.step19 {transform: translateX(19456px);}
.step20 {transform: translateX(20480px);}
.step21 {transform: translateX(21504px);}
.step22 {transform: translateX(22528px);}
.step23 {transform: translateX(23552px);}
.step24 {transform: translateX(24576px);}
.step25 {transform: translateX(25600px);}
.step26 {transform: translateX(26624px);}
.step27 {transform: translateX(27648px);}
.step28 {transform: translateX(28672px);}
.step29 {transform: translateX(29696px);}
    </style>

    <path d="M 494 839 Q 482 842 478 835 Q 474 828 482 816 Q 542 726 578 718 Q 585 715 592 718 Q 596 722 602 739 Q 606 755 602 772 Q 596 799 526 828 Q 504 837 494 839 Z" fill="lightgray" class="stroke step8"/>
    <path d="M 353 604 Q 389 598 466 609 Q 731 664 758 673 Q 765 677 770 679 Q 780 686 775 696 Q 768 708 738 716 Q 714 720 619 691 Q 460 649 343 638 C 313 635 323 607 353 604 Z" fill="lightgray" class="stroke step8"/>
    <path d="M 259 339 Q 226 203 147 70 Q 105 0 104 -2 Q 101 -12 112 -11 Q 149 -5 231 129 Q 241 148 252 169 Q 315 313 340 526 Q 343 568 353 604 C 359 627 359 627 343 638 Q 330 650 308 659 Q 289 669 276 665 Q 264 658 271 645 Q 305 584 266 369 Q 265 368 265 364 L 259 339 Z" fill="lightgray" class="stroke step8"/>
    <path d="M 122 532 Q 144 466 172 438 Q 185 429 199 438 Q 209 448 214 465 Q 214 516 148 564 Q 135 574 124 575 Q 117 576 115 563 Q 114 551 122 532 Z" fill="lightgray" class="stroke step8"/>
    <path d="M 265 364 Q 262 365 260 364 Q 94 279 57 275 Q 45 271 46 262 Q 46 249 56 244 Q 78 234 111 222 Q 121 221 130 231 Q 140 246 259 339 C 283 357 295 369 265 364 Z" fill="lightgray" class="stroke step8"/>
    <path d="M 729 364 Q 759 440 789 459 Q 805 477 792 495 Q 719 555 663 523 Q 572 486 430 464 C 400 459 411 434 441 435 Q 457 434 479 441 Q 507 448 538 454 L 573 462 Q 616 474 665 484 Q 689 491 699 481 Q 706 474 703 456 Q 693 410 679 373 C 669 345 718 336 729 364 Z" fill="lightgray" class="stroke step8"/>
    <path d="M 538 454 Q 542 445 545 339 C 546 309 583 319 587 349 Q 599 436 598 438 L 597 439 Q 585 452 573 462 C 550 481 531 483 538 454 Z" fill="lightgray" class="stroke step8"/>
    <path d="M 423 289 Q 436 280 459 284 Q 547 308 740 331 Q 750 332 752 342 Q 752 349 729 364 L 679 373 Q 672 373 669 371 Q 626 359 587 349 L 545 339 Q 479 327 426 317 C 397 311 396 302 423 289 Z" fill="lightgray" class="stroke step8"/>
    <path d="M 937 113 Q 925 140 912 219 Q 913 235 905 242 Q 899 246 893 227 Q 856 145 834 120 Q 815 95 754 78 Q 612 42 497 89 Q 451 111 439 140 Q 418 183 423 289 L 426 317 Q 430 372 441 434 L 441 435 C 444 455 444 455 430 464 Q 418 476 398 483 Q 385 487 377 482 Q 370 478 376 460 Q 389 423 386 385 Q 374 178 391 121 Q 398 87 430 57 Q 526 -24 750 1 Q 781 7 814 15 Q 872 31 927 72 Q 949 85 937 113 Z" fill="lightgray" class="stroke step8"/></g></svg>