<svg version="1.1" viewBox="0 0 4096 1024" xmlns="http://www.w3.org/2000/svg">
  
  <g transform="scale(1, -1) translate(0, -900)" class="origin">
    <style type="text/css">
        .origin {display:none;}
        .hide {display:none;}
        .stroke {fill: #000000;}
        
.step1 {transform: translateX(1024px);}
.step2 {transform: translateX(2048px);}
.step3 {transform: translateX(3072px);}
.step4 {transform: translateX(4096px);}
.step5 {transform: translateX(5120px);}
.step6 {transform: translateX(6144px);}
.step7 {transform: translateX(7168px);}
.step8 {transform: translateX(8192px);}
.step9 {transform: translateX(9216px);}
.step10 {transform: translateX(10240px);}
.step11 {transform: translateX(11264px);}
.step12 {transform: translateX(12288px);}
.step13 {transform: translateX(13312px);}
.step14 {transform: translateX(14336px);}
.step15 {transform: translateX(15360px);}
.step16 {transform: translateX(16384px);}
.step17 {transform: translateX(17408px);}
.step18 {transform: translateX(18432px);}
.step19 {transform: translateX(19456px);}
.step20 {transform: translateX(20480px);}
.step21 {transform: translateX(21504px);}
.step22 {transform: translateX(22528px);}
.step23 {transform: translateX(23552px);}
.step24 {transform: translateX(24576px);}
.step25 {transform: translateX(25600px);}
.step26 {transform: translateX(26624px);}
.step27 {transform: translateX(27648px);}
.step28 {transform: translateX(28672px);}
.step29 {transform: translateX(29696px);}
    </style>

    <path d="M 470 762 Q 498 738 527 710 Q 542 697 559 697 Q 571 698 576 712 Q 582 728 571 761 Q 559 795 464 815 Q 448 819 440 815 Q 434 811 436 797 Q 440 784 470 762 Z" fill="lightgray"/>
    <path d="M 499 505 Q 421 346 252 177 Q 236 165 240 161 Q 243 158 257 164 Q 347 209 451 340 L 474 371 Q 501 411 531 457 Q 565 515 613 553 Q 629 566 615 581 Q 593 596 562 605 Q 538 614 521 600 Q 440 537 284 518 Q 271 519 269 511 Q 268 501 282 491 Q 322 466 340 470 Q 352 473 483 537 Q 499 546 505 538 Q 511 529 499 505 Z" fill="lightgray"/>
    <path d="M 451 340 Q 491 274 453 81 Q 434 12 471 -33 Q 471 -34 474 -36 Q 490 -52 502 -26 Q 517 14 516 59 Q 517 246 524 287 Q 531 314 522 324 Q 483 366 474 371 C 451 390 437 367 451 340 Z" fill="lightgray"/>
    <path d="M 569 355 Q 600 327 634 293 Q 644 281 659 281 Q 668 281 673 293 Q 677 306 671 331 Q 667 353 635 371 Q 565 404 548 399 Q 544 395 544 384 Q 547 374 569 355 Z" fill="lightgray"/></g>
<g transform="scale(1, -1) translate(0, -900)">
    <style type="text/css">
        .origin {display:none;}
        .hide {display:none;}
        .stroke {fill: #000000;}
        
.step1 {transform: translateX(1024px);}
.step2 {transform: translateX(2048px);}
.step3 {transform: translateX(3072px);}
.step4 {transform: translateX(4096px);}
.step5 {transform: translateX(5120px);}
.step6 {transform: translateX(6144px);}
.step7 {transform: translateX(7168px);}
.step8 {transform: translateX(8192px);}
.step9 {transform: translateX(9216px);}
.step10 {transform: translateX(10240px);}
.step11 {transform: translateX(11264px);}
.step12 {transform: translateX(12288px);}
.step13 {transform: translateX(13312px);}
.step14 {transform: translateX(14336px);}
.step15 {transform: translateX(15360px);}
.step16 {transform: translateX(16384px);}
.step17 {transform: translateX(17408px);}
.step18 {transform: translateX(18432px);}
.step19 {transform: translateX(19456px);}
.step20 {transform: translateX(20480px);}
.step21 {transform: translateX(21504px);}
.step22 {transform: translateX(22528px);}
.step23 {transform: translateX(23552px);}
.step24 {transform: translateX(24576px);}
.step25 {transform: translateX(25600px);}
.step26 {transform: translateX(26624px);}
.step27 {transform: translateX(27648px);}
.step28 {transform: translateX(28672px);}
.step29 {transform: translateX(29696px);}
    </style>

    <path d="M 470 762 Q 498 738 527 710 Q 542 697 559 697 Q 571 698 576 712 Q 582 728 571 761 Q 559 795 464 815 Q 448 819 440 815 Q 434 811 436 797 Q 440 784 470 762 Z" fill="lightgray" class="stroke step0"/>
    <path d="M 499 505 Q 421 346 252 177 Q 236 165 240 161 Q 243 158 257 164 Q 347 209 451 340 L 474 371 Q 501 411 531 457 Q 565 515 613 553 Q 629 566 615 581 Q 593 596 562 605 Q 538 614 521 600 Q 440 537 284 518 Q 271 519 269 511 Q 268 501 282 491 Q 322 466 340 470 Q 352 473 483 537 Q 499 546 505 538 Q 511 529 499 505 Z" fill="lightgray" class="hide"/>
    <path d="M 451 340 Q 491 274 453 81 Q 434 12 471 -33 Q 471 -34 474 -36 Q 490 -52 502 -26 Q 517 14 516 59 Q 517 246 524 287 Q 531 314 522 324 Q 483 366 474 371 C 451 390 437 367 451 340 Z" fill="lightgray" class="hide"/>
    <path d="M 569 355 Q 600 327 634 293 Q 644 281 659 281 Q 668 281 673 293 Q 677 306 671 331 Q 667 353 635 371 Q 565 404 548 399 Q 544 395 544 384 Q 547 374 569 355 Z" fill="lightgray" class="hide"/></g><g transform="scale(1, -1) translate(0, -900)">
    <style type="text/css">
        .origin {display:none;}
        .hide {display:none;}
        .stroke {fill: #000000;}
        
.step1 {transform: translateX(1024px);}
.step2 {transform: translateX(2048px);}
.step3 {transform: translateX(3072px);}
.step4 {transform: translateX(4096px);}
.step5 {transform: translateX(5120px);}
.step6 {transform: translateX(6144px);}
.step7 {transform: translateX(7168px);}
.step8 {transform: translateX(8192px);}
.step9 {transform: translateX(9216px);}
.step10 {transform: translateX(10240px);}
.step11 {transform: translateX(11264px);}
.step12 {transform: translateX(12288px);}
.step13 {transform: translateX(13312px);}
.step14 {transform: translateX(14336px);}
.step15 {transform: translateX(15360px);}
.step16 {transform: translateX(16384px);}
.step17 {transform: translateX(17408px);}
.step18 {transform: translateX(18432px);}
.step19 {transform: translateX(19456px);}
.step20 {transform: translateX(20480px);}
.step21 {transform: translateX(21504px);}
.step22 {transform: translateX(22528px);}
.step23 {transform: translateX(23552px);}
.step24 {transform: translateX(24576px);}
.step25 {transform: translateX(25600px);}
.step26 {transform: translateX(26624px);}
.step27 {transform: translateX(27648px);}
.step28 {transform: translateX(28672px);}
.step29 {transform: translateX(29696px);}
    </style>

    <path d="M 470 762 Q 498 738 527 710 Q 542 697 559 697 Q 571 698 576 712 Q 582 728 571 761 Q 559 795 464 815 Q 448 819 440 815 Q 434 811 436 797 Q 440 784 470 762 Z" fill="lightgray" class="stroke step1"/>
    <path d="M 499 505 Q 421 346 252 177 Q 236 165 240 161 Q 243 158 257 164 Q 347 209 451 340 L 474 371 Q 501 411 531 457 Q 565 515 613 553 Q 629 566 615 581 Q 593 596 562 605 Q 538 614 521 600 Q 440 537 284 518 Q 271 519 269 511 Q 268 501 282 491 Q 322 466 340 470 Q 352 473 483 537 Q 499 546 505 538 Q 511 529 499 505 Z" fill="lightgray" class="stroke step1"/>
    <path d="M 451 340 Q 491 274 453 81 Q 434 12 471 -33 Q 471 -34 474 -36 Q 490 -52 502 -26 Q 517 14 516 59 Q 517 246 524 287 Q 531 314 522 324 Q 483 366 474 371 C 451 390 437 367 451 340 Z" fill="lightgray" class="hide"/>
    <path d="M 569 355 Q 600 327 634 293 Q 644 281 659 281 Q 668 281 673 293 Q 677 306 671 331 Q 667 353 635 371 Q 565 404 548 399 Q 544 395 544 384 Q 547 374 569 355 Z" fill="lightgray" class="hide"/></g><g transform="scale(1, -1) translate(0, -900)">
    <style type="text/css">
        .origin {display:none;}
        .hide {display:none;}
        .stroke {fill: #000000;}
        
.step1 {transform: translateX(1024px);}
.step2 {transform: translateX(2048px);}
.step3 {transform: translateX(3072px);}
.step4 {transform: translateX(4096px);}
.step5 {transform: translateX(5120px);}
.step6 {transform: translateX(6144px);}
.step7 {transform: translateX(7168px);}
.step8 {transform: translateX(8192px);}
.step9 {transform: translateX(9216px);}
.step10 {transform: translateX(10240px);}
.step11 {transform: translateX(11264px);}
.step12 {transform: translateX(12288px);}
.step13 {transform: translateX(13312px);}
.step14 {transform: translateX(14336px);}
.step15 {transform: translateX(15360px);}
.step16 {transform: translateX(16384px);}
.step17 {transform: translateX(17408px);}
.step18 {transform: translateX(18432px);}
.step19 {transform: translateX(19456px);}
.step20 {transform: translateX(20480px);}
.step21 {transform: translateX(21504px);}
.step22 {transform: translateX(22528px);}
.step23 {transform: translateX(23552px);}
.step24 {transform: translateX(24576px);}
.step25 {transform: translateX(25600px);}
.step26 {transform: translateX(26624px);}
.step27 {transform: translateX(27648px);}
.step28 {transform: translateX(28672px);}
.step29 {transform: translateX(29696px);}
    </style>

    <path d="M 470 762 Q 498 738 527 710 Q 542 697 559 697 Q 571 698 576 712 Q 582 728 571 761 Q 559 795 464 815 Q 448 819 440 815 Q 434 811 436 797 Q 440 784 470 762 Z" fill="lightgray" class="stroke step2"/>
    <path d="M 499 505 Q 421 346 252 177 Q 236 165 240 161 Q 243 158 257 164 Q 347 209 451 340 L 474 371 Q 501 411 531 457 Q 565 515 613 553 Q 629 566 615 581 Q 593 596 562 605 Q 538 614 521 600 Q 440 537 284 518 Q 271 519 269 511 Q 268 501 282 491 Q 322 466 340 470 Q 352 473 483 537 Q 499 546 505 538 Q 511 529 499 505 Z" fill="lightgray" class="stroke step2"/>
    <path d="M 451 340 Q 491 274 453 81 Q 434 12 471 -33 Q 471 -34 474 -36 Q 490 -52 502 -26 Q 517 14 516 59 Q 517 246 524 287 Q 531 314 522 324 Q 483 366 474 371 C 451 390 437 367 451 340 Z" fill="lightgray" class="stroke step2"/>
    <path d="M 569 355 Q 600 327 634 293 Q 644 281 659 281 Q 668 281 673 293 Q 677 306 671 331 Q 667 353 635 371 Q 565 404 548 399 Q 544 395 544 384 Q 547 374 569 355 Z" fill="lightgray" class="hide"/></g><g transform="scale(1, -1) translate(0, -900)">
    <style type="text/css">
        .origin {display:none;}
        .hide {display:none;}
        .stroke {fill: #000000;}
        
.step1 {transform: translateX(1024px);}
.step2 {transform: translateX(2048px);}
.step3 {transform: translateX(3072px);}
.step4 {transform: translateX(4096px);}
.step5 {transform: translateX(5120px);}
.step6 {transform: translateX(6144px);}
.step7 {transform: translateX(7168px);}
.step8 {transform: translateX(8192px);}
.step9 {transform: translateX(9216px);}
.step10 {transform: translateX(10240px);}
.step11 {transform: translateX(11264px);}
.step12 {transform: translateX(12288px);}
.step13 {transform: translateX(13312px);}
.step14 {transform: translateX(14336px);}
.step15 {transform: translateX(15360px);}
.step16 {transform: translateX(16384px);}
.step17 {transform: translateX(17408px);}
.step18 {transform: translateX(18432px);}
.step19 {transform: translateX(19456px);}
.step20 {transform: translateX(20480px);}
.step21 {transform: translateX(21504px);}
.step22 {transform: translateX(22528px);}
.step23 {transform: translateX(23552px);}
.step24 {transform: translateX(24576px);}
.step25 {transform: translateX(25600px);}
.step26 {transform: translateX(26624px);}
.step27 {transform: translateX(27648px);}
.step28 {transform: translateX(28672px);}
.step29 {transform: translateX(29696px);}
    </style>

    <path d="M 470 762 Q 498 738 527 710 Q 542 697 559 697 Q 571 698 576 712 Q 582 728 571 761 Q 559 795 464 815 Q 448 819 440 815 Q 434 811 436 797 Q 440 784 470 762 Z" fill="lightgray" class="stroke step3"/>
    <path d="M 499 505 Q 421 346 252 177 Q 236 165 240 161 Q 243 158 257 164 Q 347 209 451 340 L 474 371 Q 501 411 531 457 Q 565 515 613 553 Q 629 566 615 581 Q 593 596 562 605 Q 538 614 521 600 Q 440 537 284 518 Q 271 519 269 511 Q 268 501 282 491 Q 322 466 340 470 Q 352 473 483 537 Q 499 546 505 538 Q 511 529 499 505 Z" fill="lightgray" class="stroke step3"/>
    <path d="M 451 340 Q 491 274 453 81 Q 434 12 471 -33 Q 471 -34 474 -36 Q 490 -52 502 -26 Q 517 14 516 59 Q 517 246 524 287 Q 531 314 522 324 Q 483 366 474 371 C 451 390 437 367 451 340 Z" fill="lightgray" class="stroke step3"/>
    <path d="M 569 355 Q 600 327 634 293 Q 644 281 659 281 Q 668 281 673 293 Q 677 306 671 331 Q 667 353 635 371 Q 565 404 548 399 Q 544 395 544 384 Q 547 374 569 355 Z" fill="lightgray" class="stroke step3"/></g></svg>