<svg version="1.1" viewBox="0 0 16384 1024" xmlns="http://www.w3.org/2000/svg">
  
  <g transform="scale(1, -1) translate(0, -900)" class="origin">
    <style type="text/css">
        .origin {display:none;}
        .hide {display:none;}
        .stroke {fill: #000000;}
        
.step1 {transform: translateX(1024px);}
.step2 {transform: translateX(2048px);}
.step3 {transform: translateX(3072px);}
.step4 {transform: translateX(4096px);}
.step5 {transform: translateX(5120px);}
.step6 {transform: translateX(6144px);}
.step7 {transform: translateX(7168px);}
.step8 {transform: translateX(8192px);}
.step9 {transform: translateX(9216px);}
.step10 {transform: translateX(10240px);}
.step11 {transform: translateX(11264px);}
.step12 {transform: translateX(12288px);}
.step13 {transform: translateX(13312px);}
.step14 {transform: translateX(14336px);}
.step15 {transform: translateX(15360px);}
.step16 {transform: translateX(16384px);}
.step17 {transform: translateX(17408px);}
.step18 {transform: translateX(18432px);}
.step19 {transform: translateX(19456px);}
.step20 {transform: translateX(20480px);}
.step21 {transform: translateX(21504px);}
.step22 {transform: translateX(22528px);}
.step23 {transform: translateX(23552px);}
.step24 {transform: translateX(24576px);}
.step25 {transform: translateX(25600px);}
.step26 {transform: translateX(26624px);}
.step27 {transform: translateX(27648px);}
.step28 {transform: translateX(28672px);}
.step29 {transform: translateX(29696px);}
    </style>

    <path d="M 280 686 Q 313 735 336 752 Q 343 761 341 772 Q 338 784 315 804 Q 294 820 278 822 Q 262 822 268 803 Q 280 773 215 677 Q 185 634 143 586 Q 134 577 132 572 Q 128 563 140 565 Q 164 568 252 656 Q 258 663 267 671 L 280 686 Z" fill="lightgray"/>
    <path d="M 323 534 Q 342 553 377 593 Q 416 638 454 663 Q 470 672 460 685 Q 448 697 414 717 Q 399 723 385 714 Q 378 711 315 693 Q 299 689 280 686 C 250 681 246 680 267 671 Q 282 659 356 670 Q 363 671 365 670 Q 369 666 363 656 Q 326 578 301 542 L 293 528 C 278 502 302 513 323 534 Z" fill="lightgray"/>
    <path d="M 149 497 Q 139 501 118 504 Q 108 507 104 502 Q 100 496 107 482 Q 135 421 153 320 Q 156 290 173 270 Q 189 251 194 265 Q 195 272 197 279 L 196 306 Q 195 318 193 331 Q 172 439 168 470 C 165 492 165 492 149 497 Z" fill="lightgray"/>
    <path d="M 347 308 Q 365 278 381 270 Q 391 263 405 282 Q 420 306 449 435 Q 458 463 479 486 Q 491 496 480 510 Q 467 525 428 549 Q 409 558 396 553 Q 369 544 330 536 Q 326 536 323 534 L 293 528 Q 268 525 149 497 C 120 490 139 462 168 470 Q 202 480 250 491 L 283 498 Q 373 519 393 508 Q 406 498 402 478 Q 375 334 357 326 C 345 310 345 310 347 308 Z" fill="lightgray"/>
    <path d="M 302 395 Q 324 401 345 403 Q 364 407 357 418 Q 347 430 327 432 Q 317 433 305 430 L 260 418 Q 229 408 201 399 Q 188 395 205 383 Q 211 380 261 388 L 302 395 Z" fill="lightgray"/>
    <path d="M 299 332 Q 300 366 302 395 L 305 430 Q 305 448 307 457 Q 313 475 283 498 C 260 517 235 517 250 491 Q 251 487 255 484 Q 256 478 260 418 L 261 388 Q 261 361 262 321 C 263 291 298 302 299 332 Z" fill="lightgray"/>
    <path d="M 197 279 Q 197 280 199 280 Q 245 293 347 308 C 374 312 374 312 357 326 Q 353 330 342 336 Q 324 345 299 332 L 262 321 Q 225 314 196 306 C 167 298 169 269 197 279 Z" fill="lightgray"/>
    <path d="M 71 215 Q 58 170 47 125 Q 37 103 47 81 Q 51 68 65 58 Q 72 51 84 54 Q 91 57 95 68 Q 99 83 100 207 Q 97 225 92 231 Q 88 235 82 234 Q 78 230 71 215 Z" fill="lightgray"/>
    <path d="M 154 192 Q 166 165 178 134 Q 182 122 192 118 Q 199 115 206 121 Q 213 128 217 150 Q 218 174 166 223 Q 157 230 153 230 Q 149 229 145 221 Q 144 214 154 192 Z" fill="lightgray"/>
    <path d="M 259 205 Q 272 183 284 158 Q 290 148 301 144 Q 308 143 314 149 Q 320 158 321 179 Q 321 201 266 237 Q 257 243 252 242 Q 248 241 246 232 Q 246 225 259 205 Z" fill="lightgray"/>
    <path d="M 352 226 Q 379 178 397 176 Q 407 173 414 187 Q 415 197 411 213 Q 405 225 390 231 Q 368 244 358 246 Q 351 247 349 239 Q 348 233 352 226 Z" fill="lightgray"/>
    <path d="M 652 645 Q 748 702 780 712 Q 796 715 799 723 Q 800 733 788 743 Q 766 755 722 765 Q 706 769 694 767 Q 687 763 688 751 Q 689 711 519 599 Q 515 590 522 588 Q 571 609 622 630 L 652 645 Z" fill="lightgray"/>
    <path d="M 679 479 Q 701 485 862 505 Q 878 506 882 515 Q 886 525 871 535 Q 813 568 767 545 Q 730 535 680 519 L 637 507 Q 577 494 512 476 Q 496 472 510 459 Q 523 449 539 446 Q 558 443 571 449 Q 593 458 621 465 L 679 479 Z" fill="lightgray"/>
    <path d="M 636 375 Q 636 180 613 80 Q 595 67 626 3 Q 635 -24 656 -38 Q 668 -39 673 -26 Q 685 5 682 37 Q 676 218 677 373 L 678 417 Q 678 451 679 479 L 680 519 Q 681 574 688 603 Q 689 616 683 622 Q 667 637 652 645 C 627 661 614 659 622 630 Q 631 612 637 507 L 636 375 Z" fill="lightgray"/>
    <path d="M 621 465 Q 579 315 408 134 Q 402 128 397 122 Q 387 109 396 109 Q 405 106 415 113 Q 535 183 631 365 Q 632 371 636 375 C 695 492 630 494 621 465 Z" fill="lightgray"/>
    <path d="M 677 373 Q 734 283 806 186 Q 822 167 851 165 Q 950 164 981 167 Q 991 168 992 173 Q 993 177 980 185 Q 839 251 769 322 Q 724 365 678 417 C 658 439 661 398 677 373 Z" fill="lightgray"/></g>
<g transform="scale(1, -1) translate(0, -900)">
    <style type="text/css">
        .origin {display:none;}
        .hide {display:none;}
        .stroke {fill: #000000;}
        
.step1 {transform: translateX(1024px);}
.step2 {transform: translateX(2048px);}
.step3 {transform: translateX(3072px);}
.step4 {transform: translateX(4096px);}
.step5 {transform: translateX(5120px);}
.step6 {transform: translateX(6144px);}
.step7 {transform: translateX(7168px);}
.step8 {transform: translateX(8192px);}
.step9 {transform: translateX(9216px);}
.step10 {transform: translateX(10240px);}
.step11 {transform: translateX(11264px);}
.step12 {transform: translateX(12288px);}
.step13 {transform: translateX(13312px);}
.step14 {transform: translateX(14336px);}
.step15 {transform: translateX(15360px);}
.step16 {transform: translateX(16384px);}
.step17 {transform: translateX(17408px);}
.step18 {transform: translateX(18432px);}
.step19 {transform: translateX(19456px);}
.step20 {transform: translateX(20480px);}
.step21 {transform: translateX(21504px);}
.step22 {transform: translateX(22528px);}
.step23 {transform: translateX(23552px);}
.step24 {transform: translateX(24576px);}
.step25 {transform: translateX(25600px);}
.step26 {transform: translateX(26624px);}
.step27 {transform: translateX(27648px);}
.step28 {transform: translateX(28672px);}
.step29 {transform: translateX(29696px);}
    </style>

    <path d="M 280 686 Q 313 735 336 752 Q 343 761 341 772 Q 338 784 315 804 Q 294 820 278 822 Q 262 822 268 803 Q 280 773 215 677 Q 185 634 143 586 Q 134 577 132 572 Q 128 563 140 565 Q 164 568 252 656 Q 258 663 267 671 L 280 686 Z" fill="lightgray" class="stroke step0"/>
    <path d="M 323 534 Q 342 553 377 593 Q 416 638 454 663 Q 470 672 460 685 Q 448 697 414 717 Q 399 723 385 714 Q 378 711 315 693 Q 299 689 280 686 C 250 681 246 680 267 671 Q 282 659 356 670 Q 363 671 365 670 Q 369 666 363 656 Q 326 578 301 542 L 293 528 C 278 502 302 513 323 534 Z" fill="lightgray" class="hide"/>
    <path d="M 149 497 Q 139 501 118 504 Q 108 507 104 502 Q 100 496 107 482 Q 135 421 153 320 Q 156 290 173 270 Q 189 251 194 265 Q 195 272 197 279 L 196 306 Q 195 318 193 331 Q 172 439 168 470 C 165 492 165 492 149 497 Z" fill="lightgray" class="hide"/>
    <path d="M 347 308 Q 365 278 381 270 Q 391 263 405 282 Q 420 306 449 435 Q 458 463 479 486 Q 491 496 480 510 Q 467 525 428 549 Q 409 558 396 553 Q 369 544 330 536 Q 326 536 323 534 L 293 528 Q 268 525 149 497 C 120 490 139 462 168 470 Q 202 480 250 491 L 283 498 Q 373 519 393 508 Q 406 498 402 478 Q 375 334 357 326 C 345 310 345 310 347 308 Z" fill="lightgray" class="hide"/>
    <path d="M 302 395 Q 324 401 345 403 Q 364 407 357 418 Q 347 430 327 432 Q 317 433 305 430 L 260 418 Q 229 408 201 399 Q 188 395 205 383 Q 211 380 261 388 L 302 395 Z" fill="lightgray" class="hide"/>
    <path d="M 299 332 Q 300 366 302 395 L 305 430 Q 305 448 307 457 Q 313 475 283 498 C 260 517 235 517 250 491 Q 251 487 255 484 Q 256 478 260 418 L 261 388 Q 261 361 262 321 C 263 291 298 302 299 332 Z" fill="lightgray" class="hide"/>
    <path d="M 197 279 Q 197 280 199 280 Q 245 293 347 308 C 374 312 374 312 357 326 Q 353 330 342 336 Q 324 345 299 332 L 262 321 Q 225 314 196 306 C 167 298 169 269 197 279 Z" fill="lightgray" class="hide"/>
    <path d="M 71 215 Q 58 170 47 125 Q 37 103 47 81 Q 51 68 65 58 Q 72 51 84 54 Q 91 57 95 68 Q 99 83 100 207 Q 97 225 92 231 Q 88 235 82 234 Q 78 230 71 215 Z" fill="lightgray" class="hide"/>
    <path d="M 154 192 Q 166 165 178 134 Q 182 122 192 118 Q 199 115 206 121 Q 213 128 217 150 Q 218 174 166 223 Q 157 230 153 230 Q 149 229 145 221 Q 144 214 154 192 Z" fill="lightgray" class="hide"/>
    <path d="M 259 205 Q 272 183 284 158 Q 290 148 301 144 Q 308 143 314 149 Q 320 158 321 179 Q 321 201 266 237 Q 257 243 252 242 Q 248 241 246 232 Q 246 225 259 205 Z" fill="lightgray" class="hide"/>
    <path d="M 352 226 Q 379 178 397 176 Q 407 173 414 187 Q 415 197 411 213 Q 405 225 390 231 Q 368 244 358 246 Q 351 247 349 239 Q 348 233 352 226 Z" fill="lightgray" class="hide"/>
    <path d="M 652 645 Q 748 702 780 712 Q 796 715 799 723 Q 800 733 788 743 Q 766 755 722 765 Q 706 769 694 767 Q 687 763 688 751 Q 689 711 519 599 Q 515 590 522 588 Q 571 609 622 630 L 652 645 Z" fill="lightgray" class="hide"/>
    <path d="M 679 479 Q 701 485 862 505 Q 878 506 882 515 Q 886 525 871 535 Q 813 568 767 545 Q 730 535 680 519 L 637 507 Q 577 494 512 476 Q 496 472 510 459 Q 523 449 539 446 Q 558 443 571 449 Q 593 458 621 465 L 679 479 Z" fill="lightgray" class="hide"/>
    <path d="M 636 375 Q 636 180 613 80 Q 595 67 626 3 Q 635 -24 656 -38 Q 668 -39 673 -26 Q 685 5 682 37 Q 676 218 677 373 L 678 417 Q 678 451 679 479 L 680 519 Q 681 574 688 603 Q 689 616 683 622 Q 667 637 652 645 C 627 661 614 659 622 630 Q 631 612 637 507 L 636 375 Z" fill="lightgray" class="hide"/>
    <path d="M 621 465 Q 579 315 408 134 Q 402 128 397 122 Q 387 109 396 109 Q 405 106 415 113 Q 535 183 631 365 Q 632 371 636 375 C 695 492 630 494 621 465 Z" fill="lightgray" class="hide"/>
    <path d="M 677 373 Q 734 283 806 186 Q 822 167 851 165 Q 950 164 981 167 Q 991 168 992 173 Q 993 177 980 185 Q 839 251 769 322 Q 724 365 678 417 C 658 439 661 398 677 373 Z" fill="lightgray" class="hide"/></g><g transform="scale(1, -1) translate(0, -900)">
    <style type="text/css">
        .origin {display:none;}
        .hide {display:none;}
        .stroke {fill: #000000;}
        
.step1 {transform: translateX(1024px);}
.step2 {transform: translateX(2048px);}
.step3 {transform: translateX(3072px);}
.step4 {transform: translateX(4096px);}
.step5 {transform: translateX(5120px);}
.step6 {transform: translateX(6144px);}
.step7 {transform: translateX(7168px);}
.step8 {transform: translateX(8192px);}
.step9 {transform: translateX(9216px);}
.step10 {transform: translateX(10240px);}
.step11 {transform: translateX(11264px);}
.step12 {transform: translateX(12288px);}
.step13 {transform: translateX(13312px);}
.step14 {transform: translateX(14336px);}
.step15 {transform: translateX(15360px);}
.step16 {transform: translateX(16384px);}
.step17 {transform: translateX(17408px);}
.step18 {transform: translateX(18432px);}
.step19 {transform: translateX(19456px);}
.step20 {transform: translateX(20480px);}
.step21 {transform: translateX(21504px);}
.step22 {transform: translateX(22528px);}
.step23 {transform: translateX(23552px);}
.step24 {transform: translateX(24576px);}
.step25 {transform: translateX(25600px);}
.step26 {transform: translateX(26624px);}
.step27 {transform: translateX(27648px);}
.step28 {transform: translateX(28672px);}
.step29 {transform: translateX(29696px);}
    </style>

    <path d="M 280 686 Q 313 735 336 752 Q 343 761 341 772 Q 338 784 315 804 Q 294 820 278 822 Q 262 822 268 803 Q 280 773 215 677 Q 185 634 143 586 Q 134 577 132 572 Q 128 563 140 565 Q 164 568 252 656 Q 258 663 267 671 L 280 686 Z" fill="lightgray" class="stroke step1"/>
    <path d="M 323 534 Q 342 553 377 593 Q 416 638 454 663 Q 470 672 460 685 Q 448 697 414 717 Q 399 723 385 714 Q 378 711 315 693 Q 299 689 280 686 C 250 681 246 680 267 671 Q 282 659 356 670 Q 363 671 365 670 Q 369 666 363 656 Q 326 578 301 542 L 293 528 C 278 502 302 513 323 534 Z" fill="lightgray" class="stroke step1"/>
    <path d="M 149 497 Q 139 501 118 504 Q 108 507 104 502 Q 100 496 107 482 Q 135 421 153 320 Q 156 290 173 270 Q 189 251 194 265 Q 195 272 197 279 L 196 306 Q 195 318 193 331 Q 172 439 168 470 C 165 492 165 492 149 497 Z" fill="lightgray" class="hide"/>
    <path d="M 347 308 Q 365 278 381 270 Q 391 263 405 282 Q 420 306 449 435 Q 458 463 479 486 Q 491 496 480 510 Q 467 525 428 549 Q 409 558 396 553 Q 369 544 330 536 Q 326 536 323 534 L 293 528 Q 268 525 149 497 C 120 490 139 462 168 470 Q 202 480 250 491 L 283 498 Q 373 519 393 508 Q 406 498 402 478 Q 375 334 357 326 C 345 310 345 310 347 308 Z" fill="lightgray" class="hide"/>
    <path d="M 302 395 Q 324 401 345 403 Q 364 407 357 418 Q 347 430 327 432 Q 317 433 305 430 L 260 418 Q 229 408 201 399 Q 188 395 205 383 Q 211 380 261 388 L 302 395 Z" fill="lightgray" class="hide"/>
    <path d="M 299 332 Q 300 366 302 395 L 305 430 Q 305 448 307 457 Q 313 475 283 498 C 260 517 235 517 250 491 Q 251 487 255 484 Q 256 478 260 418 L 261 388 Q 261 361 262 321 C 263 291 298 302 299 332 Z" fill="lightgray" class="hide"/>
    <path d="M 197 279 Q 197 280 199 280 Q 245 293 347 308 C 374 312 374 312 357 326 Q 353 330 342 336 Q 324 345 299 332 L 262 321 Q 225 314 196 306 C 167 298 169 269 197 279 Z" fill="lightgray" class="hide"/>
    <path d="M 71 215 Q 58 170 47 125 Q 37 103 47 81 Q 51 68 65 58 Q 72 51 84 54 Q 91 57 95 68 Q 99 83 100 207 Q 97 225 92 231 Q 88 235 82 234 Q 78 230 71 215 Z" fill="lightgray" class="hide"/>
    <path d="M 154 192 Q 166 165 178 134 Q 182 122 192 118 Q 199 115 206 121 Q 213 128 217 150 Q 218 174 166 223 Q 157 230 153 230 Q 149 229 145 221 Q 144 214 154 192 Z" fill="lightgray" class="hide"/>
    <path d="M 259 205 Q 272 183 284 158 Q 290 148 301 144 Q 308 143 314 149 Q 320 158 321 179 Q 321 201 266 237 Q 257 243 252 242 Q 248 241 246 232 Q 246 225 259 205 Z" fill="lightgray" class="hide"/>
    <path d="M 352 226 Q 379 178 397 176 Q 407 173 414 187 Q 415 197 411 213 Q 405 225 390 231 Q 368 244 358 246 Q 351 247 349 239 Q 348 233 352 226 Z" fill="lightgray" class="hide"/>
    <path d="M 652 645 Q 748 702 780 712 Q 796 715 799 723 Q 800 733 788 743 Q 766 755 722 765 Q 706 769 694 767 Q 687 763 688 751 Q 689 711 519 599 Q 515 590 522 588 Q 571 609 622 630 L 652 645 Z" fill="lightgray" class="hide"/>
    <path d="M 679 479 Q 701 485 862 505 Q 878 506 882 515 Q 886 525 871 535 Q 813 568 767 545 Q 730 535 680 519 L 637 507 Q 577 494 512 476 Q 496 472 510 459 Q 523 449 539 446 Q 558 443 571 449 Q 593 458 621 465 L 679 479 Z" fill="lightgray" class="hide"/>
    <path d="M 636 375 Q 636 180 613 80 Q 595 67 626 3 Q 635 -24 656 -38 Q 668 -39 673 -26 Q 685 5 682 37 Q 676 218 677 373 L 678 417 Q 678 451 679 479 L 680 519 Q 681 574 688 603 Q 689 616 683 622 Q 667 637 652 645 C 627 661 614 659 622 630 Q 631 612 637 507 L 636 375 Z" fill="lightgray" class="hide"/>
    <path d="M 621 465 Q 579 315 408 134 Q 402 128 397 122 Q 387 109 396 109 Q 405 106 415 113 Q 535 183 631 365 Q 632 371 636 375 C 695 492 630 494 621 465 Z" fill="lightgray" class="hide"/>
    <path d="M 677 373 Q 734 283 806 186 Q 822 167 851 165 Q 950 164 981 167 Q 991 168 992 173 Q 993 177 980 185 Q 839 251 769 322 Q 724 365 678 417 C 658 439 661 398 677 373 Z" fill="lightgray" class="hide"/></g><g transform="scale(1, -1) translate(0, -900)">
    <style type="text/css">
        .origin {display:none;}
        .hide {display:none;}
        .stroke {fill: #000000;}
        
.step1 {transform: translateX(1024px);}
.step2 {transform: translateX(2048px);}
.step3 {transform: translateX(3072px);}
.step4 {transform: translateX(4096px);}
.step5 {transform: translateX(5120px);}
.step6 {transform: translateX(6144px);}
.step7 {transform: translateX(7168px);}
.step8 {transform: translateX(8192px);}
.step9 {transform: translateX(9216px);}
.step10 {transform: translateX(10240px);}
.step11 {transform: translateX(11264px);}
.step12 {transform: translateX(12288px);}
.step13 {transform: translateX(13312px);}
.step14 {transform: translateX(14336px);}
.step15 {transform: translateX(15360px);}
.step16 {transform: translateX(16384px);}
.step17 {transform: translateX(17408px);}
.step18 {transform: translateX(18432px);}
.step19 {transform: translateX(19456px);}
.step20 {transform: translateX(20480px);}
.step21 {transform: translateX(21504px);}
.step22 {transform: translateX(22528px);}
.step23 {transform: translateX(23552px);}
.step24 {transform: translateX(24576px);}
.step25 {transform: translateX(25600px);}
.step26 {transform: translateX(26624px);}
.step27 {transform: translateX(27648px);}
.step28 {transform: translateX(28672px);}
.step29 {transform: translateX(29696px);}
    </style>

    <path d="M 280 686 Q 313 735 336 752 Q 343 761 341 772 Q 338 784 315 804 Q 294 820 278 822 Q 262 822 268 803 Q 280 773 215 677 Q 185 634 143 586 Q 134 577 132 572 Q 128 563 140 565 Q 164 568 252 656 Q 258 663 267 671 L 280 686 Z" fill="lightgray" class="stroke step2"/>
    <path d="M 323 534 Q 342 553 377 593 Q 416 638 454 663 Q 470 672 460 685 Q 448 697 414 717 Q 399 723 385 714 Q 378 711 315 693 Q 299 689 280 686 C 250 681 246 680 267 671 Q 282 659 356 670 Q 363 671 365 670 Q 369 666 363 656 Q 326 578 301 542 L 293 528 C 278 502 302 513 323 534 Z" fill="lightgray" class="stroke step2"/>
    <path d="M 149 497 Q 139 501 118 504 Q 108 507 104 502 Q 100 496 107 482 Q 135 421 153 320 Q 156 290 173 270 Q 189 251 194 265 Q 195 272 197 279 L 196 306 Q 195 318 193 331 Q 172 439 168 470 C 165 492 165 492 149 497 Z" fill="lightgray" class="stroke step2"/>
    <path d="M 347 308 Q 365 278 381 270 Q 391 263 405 282 Q 420 306 449 435 Q 458 463 479 486 Q 491 496 480 510 Q 467 525 428 549 Q 409 558 396 553 Q 369 544 330 536 Q 326 536 323 534 L 293 528 Q 268 525 149 497 C 120 490 139 462 168 470 Q 202 480 250 491 L 283 498 Q 373 519 393 508 Q 406 498 402 478 Q 375 334 357 326 C 345 310 345 310 347 308 Z" fill="lightgray" class="hide"/>
    <path d="M 302 395 Q 324 401 345 403 Q 364 407 357 418 Q 347 430 327 432 Q 317 433 305 430 L 260 418 Q 229 408 201 399 Q 188 395 205 383 Q 211 380 261 388 L 302 395 Z" fill="lightgray" class="hide"/>
    <path d="M 299 332 Q 300 366 302 395 L 305 430 Q 305 448 307 457 Q 313 475 283 498 C 260 517 235 517 250 491 Q 251 487 255 484 Q 256 478 260 418 L 261 388 Q 261 361 262 321 C 263 291 298 302 299 332 Z" fill="lightgray" class="hide"/>
    <path d="M 197 279 Q 197 280 199 280 Q 245 293 347 308 C 374 312 374 312 357 326 Q 353 330 342 336 Q 324 345 299 332 L 262 321 Q 225 314 196 306 C 167 298 169 269 197 279 Z" fill="lightgray" class="hide"/>
    <path d="M 71 215 Q 58 170 47 125 Q 37 103 47 81 Q 51 68 65 58 Q 72 51 84 54 Q 91 57 95 68 Q 99 83 100 207 Q 97 225 92 231 Q 88 235 82 234 Q 78 230 71 215 Z" fill="lightgray" class="hide"/>
    <path d="M 154 192 Q 166 165 178 134 Q 182 122 192 118 Q 199 115 206 121 Q 213 128 217 150 Q 218 174 166 223 Q 157 230 153 230 Q 149 229 145 221 Q 144 214 154 192 Z" fill="lightgray" class="hide"/>
    <path d="M 259 205 Q 272 183 284 158 Q 290 148 301 144 Q 308 143 314 149 Q 320 158 321 179 Q 321 201 266 237 Q 257 243 252 242 Q 248 241 246 232 Q 246 225 259 205 Z" fill="lightgray" class="hide"/>
    <path d="M 352 226 Q 379 178 397 176 Q 407 173 414 187 Q 415 197 411 213 Q 405 225 390 231 Q 368 244 358 246 Q 351 247 349 239 Q 348 233 352 226 Z" fill="lightgray" class="hide"/>
    <path d="M 652 645 Q 748 702 780 712 Q 796 715 799 723 Q 800 733 788 743 Q 766 755 722 765 Q 706 769 694 767 Q 687 763 688 751 Q 689 711 519 599 Q 515 590 522 588 Q 571 609 622 630 L 652 645 Z" fill="lightgray" class="hide"/>
    <path d="M 679 479 Q 701 485 862 505 Q 878 506 882 515 Q 886 525 871 535 Q 813 568 767 545 Q 730 535 680 519 L 637 507 Q 577 494 512 476 Q 496 472 510 459 Q 523 449 539 446 Q 558 443 571 449 Q 593 458 621 465 L 679 479 Z" fill="lightgray" class="hide"/>
    <path d="M 636 375 Q 636 180 613 80 Q 595 67 626 3 Q 635 -24 656 -38 Q 668 -39 673 -26 Q 685 5 682 37 Q 676 218 677 373 L 678 417 Q 678 451 679 479 L 680 519 Q 681 574 688 603 Q 689 616 683 622 Q 667 637 652 645 C 627 661 614 659 622 630 Q 631 612 637 507 L 636 375 Z" fill="lightgray" class="hide"/>
    <path d="M 621 465 Q 579 315 408 134 Q 402 128 397 122 Q 387 109 396 109 Q 405 106 415 113 Q 535 183 631 365 Q 632 371 636 375 C 695 492 630 494 621 465 Z" fill="lightgray" class="hide"/>
    <path d="M 677 373 Q 734 283 806 186 Q 822 167 851 165 Q 950 164 981 167 Q 991 168 992 173 Q 993 177 980 185 Q 839 251 769 322 Q 724 365 678 417 C 658 439 661 398 677 373 Z" fill="lightgray" class="hide"/></g><g transform="scale(1, -1) translate(0, -900)">
    <style type="text/css">
        .origin {display:none;}
        .hide {display:none;}
        .stroke {fill: #000000;}
        
.step1 {transform: translateX(1024px);}
.step2 {transform: translateX(2048px);}
.step3 {transform: translateX(3072px);}
.step4 {transform: translateX(4096px);}
.step5 {transform: translateX(5120px);}
.step6 {transform: translateX(6144px);}
.step7 {transform: translateX(7168px);}
.step8 {transform: translateX(8192px);}
.step9 {transform: translateX(9216px);}
.step10 {transform: translateX(10240px);}
.step11 {transform: translateX(11264px);}
.step12 {transform: translateX(12288px);}
.step13 {transform: translateX(13312px);}
.step14 {transform: translateX(14336px);}
.step15 {transform: translateX(15360px);}
.step16 {transform: translateX(16384px);}
.step17 {transform: translateX(17408px);}
.step18 {transform: translateX(18432px);}
.step19 {transform: translateX(19456px);}
.step20 {transform: translateX(20480px);}
.step21 {transform: translateX(21504px);}
.step22 {transform: translateX(22528px);}
.step23 {transform: translateX(23552px);}
.step24 {transform: translateX(24576px);}
.step25 {transform: translateX(25600px);}
.step26 {transform: translateX(26624px);}
.step27 {transform: translateX(27648px);}
.step28 {transform: translateX(28672px);}
.step29 {transform: translateX(29696px);}
    </style>

    <path d="M 280 686 Q 313 735 336 752 Q 343 761 341 772 Q 338 784 315 804 Q 294 820 278 822 Q 262 822 268 803 Q 280 773 215 677 Q 185 634 143 586 Q 134 577 132 572 Q 128 563 140 565 Q 164 568 252 656 Q 258 663 267 671 L 280 686 Z" fill="lightgray" class="stroke step3"/>
    <path d="M 323 534 Q 342 553 377 593 Q 416 638 454 663 Q 470 672 460 685 Q 448 697 414 717 Q 399 723 385 714 Q 378 711 315 693 Q 299 689 280 686 C 250 681 246 680 267 671 Q 282 659 356 670 Q 363 671 365 670 Q 369 666 363 656 Q 326 578 301 542 L 293 528 C 278 502 302 513 323 534 Z" fill="lightgray" class="stroke step3"/>
    <path d="M 149 497 Q 139 501 118 504 Q 108 507 104 502 Q 100 496 107 482 Q 135 421 153 320 Q 156 290 173 270 Q 189 251 194 265 Q 195 272 197 279 L 196 306 Q 195 318 193 331 Q 172 439 168 470 C 165 492 165 492 149 497 Z" fill="lightgray" class="stroke step3"/>
    <path d="M 347 308 Q 365 278 381 270 Q 391 263 405 282 Q 420 306 449 435 Q 458 463 479 486 Q 491 496 480 510 Q 467 525 428 549 Q 409 558 396 553 Q 369 544 330 536 Q 326 536 323 534 L 293 528 Q 268 525 149 497 C 120 490 139 462 168 470 Q 202 480 250 491 L 283 498 Q 373 519 393 508 Q 406 498 402 478 Q 375 334 357 326 C 345 310 345 310 347 308 Z" fill="lightgray" class="stroke step3"/>
    <path d="M 302 395 Q 324 401 345 403 Q 364 407 357 418 Q 347 430 327 432 Q 317 433 305 430 L 260 418 Q 229 408 201 399 Q 188 395 205 383 Q 211 380 261 388 L 302 395 Z" fill="lightgray" class="hide"/>
    <path d="M 299 332 Q 300 366 302 395 L 305 430 Q 305 448 307 457 Q 313 475 283 498 C 260 517 235 517 250 491 Q 251 487 255 484 Q 256 478 260 418 L 261 388 Q 261 361 262 321 C 263 291 298 302 299 332 Z" fill="lightgray" class="hide"/>
    <path d="M 197 279 Q 197 280 199 280 Q 245 293 347 308 C 374 312 374 312 357 326 Q 353 330 342 336 Q 324 345 299 332 L 262 321 Q 225 314 196 306 C 167 298 169 269 197 279 Z" fill="lightgray" class="hide"/>
    <path d="M 71 215 Q 58 170 47 125 Q 37 103 47 81 Q 51 68 65 58 Q 72 51 84 54 Q 91 57 95 68 Q 99 83 100 207 Q 97 225 92 231 Q 88 235 82 234 Q 78 230 71 215 Z" fill="lightgray" class="hide"/>
    <path d="M 154 192 Q 166 165 178 134 Q 182 122 192 118 Q 199 115 206 121 Q 213 128 217 150 Q 218 174 166 223 Q 157 230 153 230 Q 149 229 145 221 Q 144 214 154 192 Z" fill="lightgray" class="hide"/>
    <path d="M 259 205 Q 272 183 284 158 Q 290 148 301 144 Q 308 143 314 149 Q 320 158 321 179 Q 321 201 266 237 Q 257 243 252 242 Q 248 241 246 232 Q 246 225 259 205 Z" fill="lightgray" class="hide"/>
    <path d="M 352 226 Q 379 178 397 176 Q 407 173 414 187 Q 415 197 411 213 Q 405 225 390 231 Q 368 244 358 246 Q 351 247 349 239 Q 348 233 352 226 Z" fill="lightgray" class="hide"/>
    <path d="M 652 645 Q 748 702 780 712 Q 796 715 799 723 Q 800 733 788 743 Q 766 755 722 765 Q 706 769 694 767 Q 687 763 688 751 Q 689 711 519 599 Q 515 590 522 588 Q 571 609 622 630 L 652 645 Z" fill="lightgray" class="hide"/>
    <path d="M 679 479 Q 701 485 862 505 Q 878 506 882 515 Q 886 525 871 535 Q 813 568 767 545 Q 730 535 680 519 L 637 507 Q 577 494 512 476 Q 496 472 510 459 Q 523 449 539 446 Q 558 443 571 449 Q 593 458 621 465 L 679 479 Z" fill="lightgray" class="hide"/>
    <path d="M 636 375 Q 636 180 613 80 Q 595 67 626 3 Q 635 -24 656 -38 Q 668 -39 673 -26 Q 685 5 682 37 Q 676 218 677 373 L 678 417 Q 678 451 679 479 L 680 519 Q 681 574 688 603 Q 689 616 683 622 Q 667 637 652 645 C 627 661 614 659 622 630 Q 631 612 637 507 L 636 375 Z" fill="lightgray" class="hide"/>
    <path d="M 621 465 Q 579 315 408 134 Q 402 128 397 122 Q 387 109 396 109 Q 405 106 415 113 Q 535 183 631 365 Q 632 371 636 375 C 695 492 630 494 621 465 Z" fill="lightgray" class="hide"/>
    <path d="M 677 373 Q 734 283 806 186 Q 822 167 851 165 Q 950 164 981 167 Q 991 168 992 173 Q 993 177 980 185 Q 839 251 769 322 Q 724 365 678 417 C 658 439 661 398 677 373 Z" fill="lightgray" class="hide"/></g><g transform="scale(1, -1) translate(0, -900)">
    <style type="text/css">
        .origin {display:none;}
        .hide {display:none;}
        .stroke {fill: #000000;}
        
.step1 {transform: translateX(1024px);}
.step2 {transform: translateX(2048px);}
.step3 {transform: translateX(3072px);}
.step4 {transform: translateX(4096px);}
.step5 {transform: translateX(5120px);}
.step6 {transform: translateX(6144px);}
.step7 {transform: translateX(7168px);}
.step8 {transform: translateX(8192px);}
.step9 {transform: translateX(9216px);}
.step10 {transform: translateX(10240px);}
.step11 {transform: translateX(11264px);}
.step12 {transform: translateX(12288px);}
.step13 {transform: translateX(13312px);}
.step14 {transform: translateX(14336px);}
.step15 {transform: translateX(15360px);}
.step16 {transform: translateX(16384px);}
.step17 {transform: translateX(17408px);}
.step18 {transform: translateX(18432px);}
.step19 {transform: translateX(19456px);}
.step20 {transform: translateX(20480px);}
.step21 {transform: translateX(21504px);}
.step22 {transform: translateX(22528px);}
.step23 {transform: translateX(23552px);}
.step24 {transform: translateX(24576px);}
.step25 {transform: translateX(25600px);}
.step26 {transform: translateX(26624px);}
.step27 {transform: translateX(27648px);}
.step28 {transform: translateX(28672px);}
.step29 {transform: translateX(29696px);}
    </style>

    <path d="M 280 686 Q 313 735 336 752 Q 343 761 341 772 Q 338 784 315 804 Q 294 820 278 822 Q 262 822 268 803 Q 280 773 215 677 Q 185 634 143 586 Q 134 577 132 572 Q 128 563 140 565 Q 164 568 252 656 Q 258 663 267 671 L 280 686 Z" fill="lightgray" class="stroke step4"/>
    <path d="M 323 534 Q 342 553 377 593 Q 416 638 454 663 Q 470 672 460 685 Q 448 697 414 717 Q 399 723 385 714 Q 378 711 315 693 Q 299 689 280 686 C 250 681 246 680 267 671 Q 282 659 356 670 Q 363 671 365 670 Q 369 666 363 656 Q 326 578 301 542 L 293 528 C 278 502 302 513 323 534 Z" fill="lightgray" class="stroke step4"/>
    <path d="M 149 497 Q 139 501 118 504 Q 108 507 104 502 Q 100 496 107 482 Q 135 421 153 320 Q 156 290 173 270 Q 189 251 194 265 Q 195 272 197 279 L 196 306 Q 195 318 193 331 Q 172 439 168 470 C 165 492 165 492 149 497 Z" fill="lightgray" class="stroke step4"/>
    <path d="M 347 308 Q 365 278 381 270 Q 391 263 405 282 Q 420 306 449 435 Q 458 463 479 486 Q 491 496 480 510 Q 467 525 428 549 Q 409 558 396 553 Q 369 544 330 536 Q 326 536 323 534 L 293 528 Q 268 525 149 497 C 120 490 139 462 168 470 Q 202 480 250 491 L 283 498 Q 373 519 393 508 Q 406 498 402 478 Q 375 334 357 326 C 345 310 345 310 347 308 Z" fill="lightgray" class="stroke step4"/>
    <path d="M 302 395 Q 324 401 345 403 Q 364 407 357 418 Q 347 430 327 432 Q 317 433 305 430 L 260 418 Q 229 408 201 399 Q 188 395 205 383 Q 211 380 261 388 L 302 395 Z" fill="lightgray" class="stroke step4"/>
    <path d="M 299 332 Q 300 366 302 395 L 305 430 Q 305 448 307 457 Q 313 475 283 498 C 260 517 235 517 250 491 Q 251 487 255 484 Q 256 478 260 418 L 261 388 Q 261 361 262 321 C 263 291 298 302 299 332 Z" fill="lightgray" class="hide"/>
    <path d="M 197 279 Q 197 280 199 280 Q 245 293 347 308 C 374 312 374 312 357 326 Q 353 330 342 336 Q 324 345 299 332 L 262 321 Q 225 314 196 306 C 167 298 169 269 197 279 Z" fill="lightgray" class="hide"/>
    <path d="M 71 215 Q 58 170 47 125 Q 37 103 47 81 Q 51 68 65 58 Q 72 51 84 54 Q 91 57 95 68 Q 99 83 100 207 Q 97 225 92 231 Q 88 235 82 234 Q 78 230 71 215 Z" fill="lightgray" class="hide"/>
    <path d="M 154 192 Q 166 165 178 134 Q 182 122 192 118 Q 199 115 206 121 Q 213 128 217 150 Q 218 174 166 223 Q 157 230 153 230 Q 149 229 145 221 Q 144 214 154 192 Z" fill="lightgray" class="hide"/>
    <path d="M 259 205 Q 272 183 284 158 Q 290 148 301 144 Q 308 143 314 149 Q 320 158 321 179 Q 321 201 266 237 Q 257 243 252 242 Q 248 241 246 232 Q 246 225 259 205 Z" fill="lightgray" class="hide"/>
    <path d="M 352 226 Q 379 178 397 176 Q 407 173 414 187 Q 415 197 411 213 Q 405 225 390 231 Q 368 244 358 246 Q 351 247 349 239 Q 348 233 352 226 Z" fill="lightgray" class="hide"/>
    <path d="M 652 645 Q 748 702 780 712 Q 796 715 799 723 Q 800 733 788 743 Q 766 755 722 765 Q 706 769 694 767 Q 687 763 688 751 Q 689 711 519 599 Q 515 590 522 588 Q 571 609 622 630 L 652 645 Z" fill="lightgray" class="hide"/>
    <path d="M 679 479 Q 701 485 862 505 Q 878 506 882 515 Q 886 525 871 535 Q 813 568 767 545 Q 730 535 680 519 L 637 507 Q 577 494 512 476 Q 496 472 510 459 Q 523 449 539 446 Q 558 443 571 449 Q 593 458 621 465 L 679 479 Z" fill="lightgray" class="hide"/>
    <path d="M 636 375 Q 636 180 613 80 Q 595 67 626 3 Q 635 -24 656 -38 Q 668 -39 673 -26 Q 685 5 682 37 Q 676 218 677 373 L 678 417 Q 678 451 679 479 L 680 519 Q 681 574 688 603 Q 689 616 683 622 Q 667 637 652 645 C 627 661 614 659 622 630 Q 631 612 637 507 L 636 375 Z" fill="lightgray" class="hide"/>
    <path d="M 621 465 Q 579 315 408 134 Q 402 128 397 122 Q 387 109 396 109 Q 405 106 415 113 Q 535 183 631 365 Q 632 371 636 375 C 695 492 630 494 621 465 Z" fill="lightgray" class="hide"/>
    <path d="M 677 373 Q 734 283 806 186 Q 822 167 851 165 Q 950 164 981 167 Q 991 168 992 173 Q 993 177 980 185 Q 839 251 769 322 Q 724 365 678 417 C 658 439 661 398 677 373 Z" fill="lightgray" class="hide"/></g><g transform="scale(1, -1) translate(0, -900)">
    <style type="text/css">
        .origin {display:none;}
        .hide {display:none;}
        .stroke {fill: #000000;}
        
.step1 {transform: translateX(1024px);}
.step2 {transform: translateX(2048px);}
.step3 {transform: translateX(3072px);}
.step4 {transform: translateX(4096px);}
.step5 {transform: translateX(5120px);}
.step6 {transform: translateX(6144px);}
.step7 {transform: translateX(7168px);}
.step8 {transform: translateX(8192px);}
.step9 {transform: translateX(9216px);}
.step10 {transform: translateX(10240px);}
.step11 {transform: translateX(11264px);}
.step12 {transform: translateX(12288px);}
.step13 {transform: translateX(13312px);}
.step14 {transform: translateX(14336px);}
.step15 {transform: translateX(15360px);}
.step16 {transform: translateX(16384px);}
.step17 {transform: translateX(17408px);}
.step18 {transform: translateX(18432px);}
.step19 {transform: translateX(19456px);}
.step20 {transform: translateX(20480px);}
.step21 {transform: translateX(21504px);}
.step22 {transform: translateX(22528px);}
.step23 {transform: translateX(23552px);}
.step24 {transform: translateX(24576px);}
.step25 {transform: translateX(25600px);}
.step26 {transform: translateX(26624px);}
.step27 {transform: translateX(27648px);}
.step28 {transform: translateX(28672px);}
.step29 {transform: translateX(29696px);}
    </style>

    <path d="M 280 686 Q 313 735 336 752 Q 343 761 341 772 Q 338 784 315 804 Q 294 820 278 822 Q 262 822 268 803 Q 280 773 215 677 Q 185 634 143 586 Q 134 577 132 572 Q 128 563 140 565 Q 164 568 252 656 Q 258 663 267 671 L 280 686 Z" fill="lightgray" class="stroke step5"/>
    <path d="M 323 534 Q 342 553 377 593 Q 416 638 454 663 Q 470 672 460 685 Q 448 697 414 717 Q 399 723 385 714 Q 378 711 315 693 Q 299 689 280 686 C 250 681 246 680 267 671 Q 282 659 356 670 Q 363 671 365 670 Q 369 666 363 656 Q 326 578 301 542 L 293 528 C 278 502 302 513 323 534 Z" fill="lightgray" class="stroke step5"/>
    <path d="M 149 497 Q 139 501 118 504 Q 108 507 104 502 Q 100 496 107 482 Q 135 421 153 320 Q 156 290 173 270 Q 189 251 194 265 Q 195 272 197 279 L 196 306 Q 195 318 193 331 Q 172 439 168 470 C 165 492 165 492 149 497 Z" fill="lightgray" class="stroke step5"/>
    <path d="M 347 308 Q 365 278 381 270 Q 391 263 405 282 Q 420 306 449 435 Q 458 463 479 486 Q 491 496 480 510 Q 467 525 428 549 Q 409 558 396 553 Q 369 544 330 536 Q 326 536 323 534 L 293 528 Q 268 525 149 497 C 120 490 139 462 168 470 Q 202 480 250 491 L 283 498 Q 373 519 393 508 Q 406 498 402 478 Q 375 334 357 326 C 345 310 345 310 347 308 Z" fill="lightgray" class="stroke step5"/>
    <path d="M 302 395 Q 324 401 345 403 Q 364 407 357 418 Q 347 430 327 432 Q 317 433 305 430 L 260 418 Q 229 408 201 399 Q 188 395 205 383 Q 211 380 261 388 L 302 395 Z" fill="lightgray" class="stroke step5"/>
    <path d="M 299 332 Q 300 366 302 395 L 305 430 Q 305 448 307 457 Q 313 475 283 498 C 260 517 235 517 250 491 Q 251 487 255 484 Q 256 478 260 418 L 261 388 Q 261 361 262 321 C 263 291 298 302 299 332 Z" fill="lightgray" class="stroke step5"/>
    <path d="M 197 279 Q 197 280 199 280 Q 245 293 347 308 C 374 312 374 312 357 326 Q 353 330 342 336 Q 324 345 299 332 L 262 321 Q 225 314 196 306 C 167 298 169 269 197 279 Z" fill="lightgray" class="hide"/>
    <path d="M 71 215 Q 58 170 47 125 Q 37 103 47 81 Q 51 68 65 58 Q 72 51 84 54 Q 91 57 95 68 Q 99 83 100 207 Q 97 225 92 231 Q 88 235 82 234 Q 78 230 71 215 Z" fill="lightgray" class="hide"/>
    <path d="M 154 192 Q 166 165 178 134 Q 182 122 192 118 Q 199 115 206 121 Q 213 128 217 150 Q 218 174 166 223 Q 157 230 153 230 Q 149 229 145 221 Q 144 214 154 192 Z" fill="lightgray" class="hide"/>
    <path d="M 259 205 Q 272 183 284 158 Q 290 148 301 144 Q 308 143 314 149 Q 320 158 321 179 Q 321 201 266 237 Q 257 243 252 242 Q 248 241 246 232 Q 246 225 259 205 Z" fill="lightgray" class="hide"/>
    <path d="M 352 226 Q 379 178 397 176 Q 407 173 414 187 Q 415 197 411 213 Q 405 225 390 231 Q 368 244 358 246 Q 351 247 349 239 Q 348 233 352 226 Z" fill="lightgray" class="hide"/>
    <path d="M 652 645 Q 748 702 780 712 Q 796 715 799 723 Q 800 733 788 743 Q 766 755 722 765 Q 706 769 694 767 Q 687 763 688 751 Q 689 711 519 599 Q 515 590 522 588 Q 571 609 622 630 L 652 645 Z" fill="lightgray" class="hide"/>
    <path d="M 679 479 Q 701 485 862 505 Q 878 506 882 515 Q 886 525 871 535 Q 813 568 767 545 Q 730 535 680 519 L 637 507 Q 577 494 512 476 Q 496 472 510 459 Q 523 449 539 446 Q 558 443 571 449 Q 593 458 621 465 L 679 479 Z" fill="lightgray" class="hide"/>
    <path d="M 636 375 Q 636 180 613 80 Q 595 67 626 3 Q 635 -24 656 -38 Q 668 -39 673 -26 Q 685 5 682 37 Q 676 218 677 373 L 678 417 Q 678 451 679 479 L 680 519 Q 681 574 688 603 Q 689 616 683 622 Q 667 637 652 645 C 627 661 614 659 622 630 Q 631 612 637 507 L 636 375 Z" fill="lightgray" class="hide"/>
    <path d="M 621 465 Q 579 315 408 134 Q 402 128 397 122 Q 387 109 396 109 Q 405 106 415 113 Q 535 183 631 365 Q 632 371 636 375 C 695 492 630 494 621 465 Z" fill="lightgray" class="hide"/>
    <path d="M 677 373 Q 734 283 806 186 Q 822 167 851 165 Q 950 164 981 167 Q 991 168 992 173 Q 993 177 980 185 Q 839 251 769 322 Q 724 365 678 417 C 658 439 661 398 677 373 Z" fill="lightgray" class="hide"/></g><g transform="scale(1, -1) translate(0, -900)">
    <style type="text/css">
        .origin {display:none;}
        .hide {display:none;}
        .stroke {fill: #000000;}
        
.step1 {transform: translateX(1024px);}
.step2 {transform: translateX(2048px);}
.step3 {transform: translateX(3072px);}
.step4 {transform: translateX(4096px);}
.step5 {transform: translateX(5120px);}
.step6 {transform: translateX(6144px);}
.step7 {transform: translateX(7168px);}
.step8 {transform: translateX(8192px);}
.step9 {transform: translateX(9216px);}
.step10 {transform: translateX(10240px);}
.step11 {transform: translateX(11264px);}
.step12 {transform: translateX(12288px);}
.step13 {transform: translateX(13312px);}
.step14 {transform: translateX(14336px);}
.step15 {transform: translateX(15360px);}
.step16 {transform: translateX(16384px);}
.step17 {transform: translateX(17408px);}
.step18 {transform: translateX(18432px);}
.step19 {transform: translateX(19456px);}
.step20 {transform: translateX(20480px);}
.step21 {transform: translateX(21504px);}
.step22 {transform: translateX(22528px);}
.step23 {transform: translateX(23552px);}
.step24 {transform: translateX(24576px);}
.step25 {transform: translateX(25600px);}
.step26 {transform: translateX(26624px);}
.step27 {transform: translateX(27648px);}
.step28 {transform: translateX(28672px);}
.step29 {transform: translateX(29696px);}
    </style>

    <path d="M 280 686 Q 313 735 336 752 Q 343 761 341 772 Q 338 784 315 804 Q 294 820 278 822 Q 262 822 268 803 Q 280 773 215 677 Q 185 634 143 586 Q 134 577 132 572 Q 128 563 140 565 Q 164 568 252 656 Q 258 663 267 671 L 280 686 Z" fill="lightgray" class="stroke step6"/>
    <path d="M 323 534 Q 342 553 377 593 Q 416 638 454 663 Q 470 672 460 685 Q 448 697 414 717 Q 399 723 385 714 Q 378 711 315 693 Q 299 689 280 686 C 250 681 246 680 267 671 Q 282 659 356 670 Q 363 671 365 670 Q 369 666 363 656 Q 326 578 301 542 L 293 528 C 278 502 302 513 323 534 Z" fill="lightgray" class="stroke step6"/>
    <path d="M 149 497 Q 139 501 118 504 Q 108 507 104 502 Q 100 496 107 482 Q 135 421 153 320 Q 156 290 173 270 Q 189 251 194 265 Q 195 272 197 279 L 196 306 Q 195 318 193 331 Q 172 439 168 470 C 165 492 165 492 149 497 Z" fill="lightgray" class="stroke step6"/>
    <path d="M 347 308 Q 365 278 381 270 Q 391 263 405 282 Q 420 306 449 435 Q 458 463 479 486 Q 491 496 480 510 Q 467 525 428 549 Q 409 558 396 553 Q 369 544 330 536 Q 326 536 323 534 L 293 528 Q 268 525 149 497 C 120 490 139 462 168 470 Q 202 480 250 491 L 283 498 Q 373 519 393 508 Q 406 498 402 478 Q 375 334 357 326 C 345 310 345 310 347 308 Z" fill="lightgray" class="stroke step6"/>
    <path d="M 302 395 Q 324 401 345 403 Q 364 407 357 418 Q 347 430 327 432 Q 317 433 305 430 L 260 418 Q 229 408 201 399 Q 188 395 205 383 Q 211 380 261 388 L 302 395 Z" fill="lightgray" class="stroke step6"/>
    <path d="M 299 332 Q 300 366 302 395 L 305 430 Q 305 448 307 457 Q 313 475 283 498 C 260 517 235 517 250 491 Q 251 487 255 484 Q 256 478 260 418 L 261 388 Q 261 361 262 321 C 263 291 298 302 299 332 Z" fill="lightgray" class="stroke step6"/>
    <path d="M 197 279 Q 197 280 199 280 Q 245 293 347 308 C 374 312 374 312 357 326 Q 353 330 342 336 Q 324 345 299 332 L 262 321 Q 225 314 196 306 C 167 298 169 269 197 279 Z" fill="lightgray" class="stroke step6"/>
    <path d="M 71 215 Q 58 170 47 125 Q 37 103 47 81 Q 51 68 65 58 Q 72 51 84 54 Q 91 57 95 68 Q 99 83 100 207 Q 97 225 92 231 Q 88 235 82 234 Q 78 230 71 215 Z" fill="lightgray" class="hide"/>
    <path d="M 154 192 Q 166 165 178 134 Q 182 122 192 118 Q 199 115 206 121 Q 213 128 217 150 Q 218 174 166 223 Q 157 230 153 230 Q 149 229 145 221 Q 144 214 154 192 Z" fill="lightgray" class="hide"/>
    <path d="M 259 205 Q 272 183 284 158 Q 290 148 301 144 Q 308 143 314 149 Q 320 158 321 179 Q 321 201 266 237 Q 257 243 252 242 Q 248 241 246 232 Q 246 225 259 205 Z" fill="lightgray" class="hide"/>
    <path d="M 352 226 Q 379 178 397 176 Q 407 173 414 187 Q 415 197 411 213 Q 405 225 390 231 Q 368 244 358 246 Q 351 247 349 239 Q 348 233 352 226 Z" fill="lightgray" class="hide"/>
    <path d="M 652 645 Q 748 702 780 712 Q 796 715 799 723 Q 800 733 788 743 Q 766 755 722 765 Q 706 769 694 767 Q 687 763 688 751 Q 689 711 519 599 Q 515 590 522 588 Q 571 609 622 630 L 652 645 Z" fill="lightgray" class="hide"/>
    <path d="M 679 479 Q 701 485 862 505 Q 878 506 882 515 Q 886 525 871 535 Q 813 568 767 545 Q 730 535 680 519 L 637 507 Q 577 494 512 476 Q 496 472 510 459 Q 523 449 539 446 Q 558 443 571 449 Q 593 458 621 465 L 679 479 Z" fill="lightgray" class="hide"/>
    <path d="M 636 375 Q 636 180 613 80 Q 595 67 626 3 Q 635 -24 656 -38 Q 668 -39 673 -26 Q 685 5 682 37 Q 676 218 677 373 L 678 417 Q 678 451 679 479 L 680 519 Q 681 574 688 603 Q 689 616 683 622 Q 667 637 652 645 C 627 661 614 659 622 630 Q 631 612 637 507 L 636 375 Z" fill="lightgray" class="hide"/>
    <path d="M 621 465 Q 579 315 408 134 Q 402 128 397 122 Q 387 109 396 109 Q 405 106 415 113 Q 535 183 631 365 Q 632 371 636 375 C 695 492 630 494 621 465 Z" fill="lightgray" class="hide"/>
    <path d="M 677 373 Q 734 283 806 186 Q 822 167 851 165 Q 950 164 981 167 Q 991 168 992 173 Q 993 177 980 185 Q 839 251 769 322 Q 724 365 678 417 C 658 439 661 398 677 373 Z" fill="lightgray" class="hide"/></g><g transform="scale(1, -1) translate(0, -900)">
    <style type="text/css">
        .origin {display:none;}
        .hide {display:none;}
        .stroke {fill: #000000;}
        
.step1 {transform: translateX(1024px);}
.step2 {transform: translateX(2048px);}
.step3 {transform: translateX(3072px);}
.step4 {transform: translateX(4096px);}
.step5 {transform: translateX(5120px);}
.step6 {transform: translateX(6144px);}
.step7 {transform: translateX(7168px);}
.step8 {transform: translateX(8192px);}
.step9 {transform: translateX(9216px);}
.step10 {transform: translateX(10240px);}
.step11 {transform: translateX(11264px);}
.step12 {transform: translateX(12288px);}
.step13 {transform: translateX(13312px);}
.step14 {transform: translateX(14336px);}
.step15 {transform: translateX(15360px);}
.step16 {transform: translateX(16384px);}
.step17 {transform: translateX(17408px);}
.step18 {transform: translateX(18432px);}
.step19 {transform: translateX(19456px);}
.step20 {transform: translateX(20480px);}
.step21 {transform: translateX(21504px);}
.step22 {transform: translateX(22528px);}
.step23 {transform: translateX(23552px);}
.step24 {transform: translateX(24576px);}
.step25 {transform: translateX(25600px);}
.step26 {transform: translateX(26624px);}
.step27 {transform: translateX(27648px);}
.step28 {transform: translateX(28672px);}
.step29 {transform: translateX(29696px);}
    </style>

    <path d="M 280 686 Q 313 735 336 752 Q 343 761 341 772 Q 338 784 315 804 Q 294 820 278 822 Q 262 822 268 803 Q 280 773 215 677 Q 185 634 143 586 Q 134 577 132 572 Q 128 563 140 565 Q 164 568 252 656 Q 258 663 267 671 L 280 686 Z" fill="lightgray" class="stroke step7"/>
    <path d="M 323 534 Q 342 553 377 593 Q 416 638 454 663 Q 470 672 460 685 Q 448 697 414 717 Q 399 723 385 714 Q 378 711 315 693 Q 299 689 280 686 C 250 681 246 680 267 671 Q 282 659 356 670 Q 363 671 365 670 Q 369 666 363 656 Q 326 578 301 542 L 293 528 C 278 502 302 513 323 534 Z" fill="lightgray" class="stroke step7"/>
    <path d="M 149 497 Q 139 501 118 504 Q 108 507 104 502 Q 100 496 107 482 Q 135 421 153 320 Q 156 290 173 270 Q 189 251 194 265 Q 195 272 197 279 L 196 306 Q 195 318 193 331 Q 172 439 168 470 C 165 492 165 492 149 497 Z" fill="lightgray" class="stroke step7"/>
    <path d="M 347 308 Q 365 278 381 270 Q 391 263 405 282 Q 420 306 449 435 Q 458 463 479 486 Q 491 496 480 510 Q 467 525 428 549 Q 409 558 396 553 Q 369 544 330 536 Q 326 536 323 534 L 293 528 Q 268 525 149 497 C 120 490 139 462 168 470 Q 202 480 250 491 L 283 498 Q 373 519 393 508 Q 406 498 402 478 Q 375 334 357 326 C 345 310 345 310 347 308 Z" fill="lightgray" class="stroke step7"/>
    <path d="M 302 395 Q 324 401 345 403 Q 364 407 357 418 Q 347 430 327 432 Q 317 433 305 430 L 260 418 Q 229 408 201 399 Q 188 395 205 383 Q 211 380 261 388 L 302 395 Z" fill="lightgray" class="stroke step7"/>
    <path d="M 299 332 Q 300 366 302 395 L 305 430 Q 305 448 307 457 Q 313 475 283 498 C 260 517 235 517 250 491 Q 251 487 255 484 Q 256 478 260 418 L 261 388 Q 261 361 262 321 C 263 291 298 302 299 332 Z" fill="lightgray" class="stroke step7"/>
    <path d="M 197 279 Q 197 280 199 280 Q 245 293 347 308 C 374 312 374 312 357 326 Q 353 330 342 336 Q 324 345 299 332 L 262 321 Q 225 314 196 306 C 167 298 169 269 197 279 Z" fill="lightgray" class="stroke step7"/>
    <path d="M 71 215 Q 58 170 47 125 Q 37 103 47 81 Q 51 68 65 58 Q 72 51 84 54 Q 91 57 95 68 Q 99 83 100 207 Q 97 225 92 231 Q 88 235 82 234 Q 78 230 71 215 Z" fill="lightgray" class="stroke step7"/>
    <path d="M 154 192 Q 166 165 178 134 Q 182 122 192 118 Q 199 115 206 121 Q 213 128 217 150 Q 218 174 166 223 Q 157 230 153 230 Q 149 229 145 221 Q 144 214 154 192 Z" fill="lightgray" class="hide"/>
    <path d="M 259 205 Q 272 183 284 158 Q 290 148 301 144 Q 308 143 314 149 Q 320 158 321 179 Q 321 201 266 237 Q 257 243 252 242 Q 248 241 246 232 Q 246 225 259 205 Z" fill="lightgray" class="hide"/>
    <path d="M 352 226 Q 379 178 397 176 Q 407 173 414 187 Q 415 197 411 213 Q 405 225 390 231 Q 368 244 358 246 Q 351 247 349 239 Q 348 233 352 226 Z" fill="lightgray" class="hide"/>
    <path d="M 652 645 Q 748 702 780 712 Q 796 715 799 723 Q 800 733 788 743 Q 766 755 722 765 Q 706 769 694 767 Q 687 763 688 751 Q 689 711 519 599 Q 515 590 522 588 Q 571 609 622 630 L 652 645 Z" fill="lightgray" class="hide"/>
    <path d="M 679 479 Q 701 485 862 505 Q 878 506 882 515 Q 886 525 871 535 Q 813 568 767 545 Q 730 535 680 519 L 637 507 Q 577 494 512 476 Q 496 472 510 459 Q 523 449 539 446 Q 558 443 571 449 Q 593 458 621 465 L 679 479 Z" fill="lightgray" class="hide"/>
    <path d="M 636 375 Q 636 180 613 80 Q 595 67 626 3 Q 635 -24 656 -38 Q 668 -39 673 -26 Q 685 5 682 37 Q 676 218 677 373 L 678 417 Q 678 451 679 479 L 680 519 Q 681 574 688 603 Q 689 616 683 622 Q 667 637 652 645 C 627 661 614 659 622 630 Q 631 612 637 507 L 636 375 Z" fill="lightgray" class="hide"/>
    <path d="M 621 465 Q 579 315 408 134 Q 402 128 397 122 Q 387 109 396 109 Q 405 106 415 113 Q 535 183 631 365 Q 632 371 636 375 C 695 492 630 494 621 465 Z" fill="lightgray" class="hide"/>
    <path d="M 677 373 Q 734 283 806 186 Q 822 167 851 165 Q 950 164 981 167 Q 991 168 992 173 Q 993 177 980 185 Q 839 251 769 322 Q 724 365 678 417 C 658 439 661 398 677 373 Z" fill="lightgray" class="hide"/></g><g transform="scale(1, -1) translate(0, -900)">
    <style type="text/css">
        .origin {display:none;}
        .hide {display:none;}
        .stroke {fill: #000000;}
        
.step1 {transform: translateX(1024px);}
.step2 {transform: translateX(2048px);}
.step3 {transform: translateX(3072px);}
.step4 {transform: translateX(4096px);}
.step5 {transform: translateX(5120px);}
.step6 {transform: translateX(6144px);}
.step7 {transform: translateX(7168px);}
.step8 {transform: translateX(8192px);}
.step9 {transform: translateX(9216px);}
.step10 {transform: translateX(10240px);}
.step11 {transform: translateX(11264px);}
.step12 {transform: translateX(12288px);}
.step13 {transform: translateX(13312px);}
.step14 {transform: translateX(14336px);}
.step15 {transform: translateX(15360px);}
.step16 {transform: translateX(16384px);}
.step17 {transform: translateX(17408px);}
.step18 {transform: translateX(18432px);}
.step19 {transform: translateX(19456px);}
.step20 {transform: translateX(20480px);}
.step21 {transform: translateX(21504px);}
.step22 {transform: translateX(22528px);}
.step23 {transform: translateX(23552px);}
.step24 {transform: translateX(24576px);}
.step25 {transform: translateX(25600px);}
.step26 {transform: translateX(26624px);}
.step27 {transform: translateX(27648px);}
.step28 {transform: translateX(28672px);}
.step29 {transform: translateX(29696px);}
    </style>

    <path d="M 280 686 Q 313 735 336 752 Q 343 761 341 772 Q 338 784 315 804 Q 294 820 278 822 Q 262 822 268 803 Q 280 773 215 677 Q 185 634 143 586 Q 134 577 132 572 Q 128 563 140 565 Q 164 568 252 656 Q 258 663 267 671 L 280 686 Z" fill="lightgray" class="stroke step8"/>
    <path d="M 323 534 Q 342 553 377 593 Q 416 638 454 663 Q 470 672 460 685 Q 448 697 414 717 Q 399 723 385 714 Q 378 711 315 693 Q 299 689 280 686 C 250 681 246 680 267 671 Q 282 659 356 670 Q 363 671 365 670 Q 369 666 363 656 Q 326 578 301 542 L 293 528 C 278 502 302 513 323 534 Z" fill="lightgray" class="stroke step8"/>
    <path d="M 149 497 Q 139 501 118 504 Q 108 507 104 502 Q 100 496 107 482 Q 135 421 153 320 Q 156 290 173 270 Q 189 251 194 265 Q 195 272 197 279 L 196 306 Q 195 318 193 331 Q 172 439 168 470 C 165 492 165 492 149 497 Z" fill="lightgray" class="stroke step8"/>
    <path d="M 347 308 Q 365 278 381 270 Q 391 263 405 282 Q 420 306 449 435 Q 458 463 479 486 Q 491 496 480 510 Q 467 525 428 549 Q 409 558 396 553 Q 369 544 330 536 Q 326 536 323 534 L 293 528 Q 268 525 149 497 C 120 490 139 462 168 470 Q 202 480 250 491 L 283 498 Q 373 519 393 508 Q 406 498 402 478 Q 375 334 357 326 C 345 310 345 310 347 308 Z" fill="lightgray" class="stroke step8"/>
    <path d="M 302 395 Q 324 401 345 403 Q 364 407 357 418 Q 347 430 327 432 Q 317 433 305 430 L 260 418 Q 229 408 201 399 Q 188 395 205 383 Q 211 380 261 388 L 302 395 Z" fill="lightgray" class="stroke step8"/>
    <path d="M 299 332 Q 300 366 302 395 L 305 430 Q 305 448 307 457 Q 313 475 283 498 C 260 517 235 517 250 491 Q 251 487 255 484 Q 256 478 260 418 L 261 388 Q 261 361 262 321 C 263 291 298 302 299 332 Z" fill="lightgray" class="stroke step8"/>
    <path d="M 197 279 Q 197 280 199 280 Q 245 293 347 308 C 374 312 374 312 357 326 Q 353 330 342 336 Q 324 345 299 332 L 262 321 Q 225 314 196 306 C 167 298 169 269 197 279 Z" fill="lightgray" class="stroke step8"/>
    <path d="M 71 215 Q 58 170 47 125 Q 37 103 47 81 Q 51 68 65 58 Q 72 51 84 54 Q 91 57 95 68 Q 99 83 100 207 Q 97 225 92 231 Q 88 235 82 234 Q 78 230 71 215 Z" fill="lightgray" class="stroke step8"/>
    <path d="M 154 192 Q 166 165 178 134 Q 182 122 192 118 Q 199 115 206 121 Q 213 128 217 150 Q 218 174 166 223 Q 157 230 153 230 Q 149 229 145 221 Q 144 214 154 192 Z" fill="lightgray" class="stroke step8"/>
    <path d="M 259 205 Q 272 183 284 158 Q 290 148 301 144 Q 308 143 314 149 Q 320 158 321 179 Q 321 201 266 237 Q 257 243 252 242 Q 248 241 246 232 Q 246 225 259 205 Z" fill="lightgray" class="hide"/>
    <path d="M 352 226 Q 379 178 397 176 Q 407 173 414 187 Q 415 197 411 213 Q 405 225 390 231 Q 368 244 358 246 Q 351 247 349 239 Q 348 233 352 226 Z" fill="lightgray" class="hide"/>
    <path d="M 652 645 Q 748 702 780 712 Q 796 715 799 723 Q 800 733 788 743 Q 766 755 722 765 Q 706 769 694 767 Q 687 763 688 751 Q 689 711 519 599 Q 515 590 522 588 Q 571 609 622 630 L 652 645 Z" fill="lightgray" class="hide"/>
    <path d="M 679 479 Q 701 485 862 505 Q 878 506 882 515 Q 886 525 871 535 Q 813 568 767 545 Q 730 535 680 519 L 637 507 Q 577 494 512 476 Q 496 472 510 459 Q 523 449 539 446 Q 558 443 571 449 Q 593 458 621 465 L 679 479 Z" fill="lightgray" class="hide"/>
    <path d="M 636 375 Q 636 180 613 80 Q 595 67 626 3 Q 635 -24 656 -38 Q 668 -39 673 -26 Q 685 5 682 37 Q 676 218 677 373 L 678 417 Q 678 451 679 479 L 680 519 Q 681 574 688 603 Q 689 616 683 622 Q 667 637 652 645 C 627 661 614 659 622 630 Q 631 612 637 507 L 636 375 Z" fill="lightgray" class="hide"/>
    <path d="M 621 465 Q 579 315 408 134 Q 402 128 397 122 Q 387 109 396 109 Q 405 106 415 113 Q 535 183 631 365 Q 632 371 636 375 C 695 492 630 494 621 465 Z" fill="lightgray" class="hide"/>
    <path d="M 677 373 Q 734 283 806 186 Q 822 167 851 165 Q 950 164 981 167 Q 991 168 992 173 Q 993 177 980 185 Q 839 251 769 322 Q 724 365 678 417 C 658 439 661 398 677 373 Z" fill="lightgray" class="hide"/></g><g transform="scale(1, -1) translate(0, -900)">
    <style type="text/css">
        .origin {display:none;}
        .hide {display:none;}
        .stroke {fill: #000000;}
        
.step1 {transform: translateX(1024px);}
.step2 {transform: translateX(2048px);}
.step3 {transform: translateX(3072px);}
.step4 {transform: translateX(4096px);}
.step5 {transform: translateX(5120px);}
.step6 {transform: translateX(6144px);}
.step7 {transform: translateX(7168px);}
.step8 {transform: translateX(8192px);}
.step9 {transform: translateX(9216px);}
.step10 {transform: translateX(10240px);}
.step11 {transform: translateX(11264px);}
.step12 {transform: translateX(12288px);}
.step13 {transform: translateX(13312px);}
.step14 {transform: translateX(14336px);}
.step15 {transform: translateX(15360px);}
.step16 {transform: translateX(16384px);}
.step17 {transform: translateX(17408px);}
.step18 {transform: translateX(18432px);}
.step19 {transform: translateX(19456px);}
.step20 {transform: translateX(20480px);}
.step21 {transform: translateX(21504px);}
.step22 {transform: translateX(22528px);}
.step23 {transform: translateX(23552px);}
.step24 {transform: translateX(24576px);}
.step25 {transform: translateX(25600px);}
.step26 {transform: translateX(26624px);}
.step27 {transform: translateX(27648px);}
.step28 {transform: translateX(28672px);}
.step29 {transform: translateX(29696px);}
    </style>

    <path d="M 280 686 Q 313 735 336 752 Q 343 761 341 772 Q 338 784 315 804 Q 294 820 278 822 Q 262 822 268 803 Q 280 773 215 677 Q 185 634 143 586 Q 134 577 132 572 Q 128 563 140 565 Q 164 568 252 656 Q 258 663 267 671 L 280 686 Z" fill="lightgray" class="stroke step9"/>
    <path d="M 323 534 Q 342 553 377 593 Q 416 638 454 663 Q 470 672 460 685 Q 448 697 414 717 Q 399 723 385 714 Q 378 711 315 693 Q 299 689 280 686 C 250 681 246 680 267 671 Q 282 659 356 670 Q 363 671 365 670 Q 369 666 363 656 Q 326 578 301 542 L 293 528 C 278 502 302 513 323 534 Z" fill="lightgray" class="stroke step9"/>
    <path d="M 149 497 Q 139 501 118 504 Q 108 507 104 502 Q 100 496 107 482 Q 135 421 153 320 Q 156 290 173 270 Q 189 251 194 265 Q 195 272 197 279 L 196 306 Q 195 318 193 331 Q 172 439 168 470 C 165 492 165 492 149 497 Z" fill="lightgray" class="stroke step9"/>
    <path d="M 347 308 Q 365 278 381 270 Q 391 263 405 282 Q 420 306 449 435 Q 458 463 479 486 Q 491 496 480 510 Q 467 525 428 549 Q 409 558 396 553 Q 369 544 330 536 Q 326 536 323 534 L 293 528 Q 268 525 149 497 C 120 490 139 462 168 470 Q 202 480 250 491 L 283 498 Q 373 519 393 508 Q 406 498 402 478 Q 375 334 357 326 C 345 310 345 310 347 308 Z" fill="lightgray" class="stroke step9"/>
    <path d="M 302 395 Q 324 401 345 403 Q 364 407 357 418 Q 347 430 327 432 Q 317 433 305 430 L 260 418 Q 229 408 201 399 Q 188 395 205 383 Q 211 380 261 388 L 302 395 Z" fill="lightgray" class="stroke step9"/>
    <path d="M 299 332 Q 300 366 302 395 L 305 430 Q 305 448 307 457 Q 313 475 283 498 C 260 517 235 517 250 491 Q 251 487 255 484 Q 256 478 260 418 L 261 388 Q 261 361 262 321 C 263 291 298 302 299 332 Z" fill="lightgray" class="stroke step9"/>
    <path d="M 197 279 Q 197 280 199 280 Q 245 293 347 308 C 374 312 374 312 357 326 Q 353 330 342 336 Q 324 345 299 332 L 262 321 Q 225 314 196 306 C 167 298 169 269 197 279 Z" fill="lightgray" class="stroke step9"/>
    <path d="M 71 215 Q 58 170 47 125 Q 37 103 47 81 Q 51 68 65 58 Q 72 51 84 54 Q 91 57 95 68 Q 99 83 100 207 Q 97 225 92 231 Q 88 235 82 234 Q 78 230 71 215 Z" fill="lightgray" class="stroke step9"/>
    <path d="M 154 192 Q 166 165 178 134 Q 182 122 192 118 Q 199 115 206 121 Q 213 128 217 150 Q 218 174 166 223 Q 157 230 153 230 Q 149 229 145 221 Q 144 214 154 192 Z" fill="lightgray" class="stroke step9"/>
    <path d="M 259 205 Q 272 183 284 158 Q 290 148 301 144 Q 308 143 314 149 Q 320 158 321 179 Q 321 201 266 237 Q 257 243 252 242 Q 248 241 246 232 Q 246 225 259 205 Z" fill="lightgray" class="stroke step9"/>
    <path d="M 352 226 Q 379 178 397 176 Q 407 173 414 187 Q 415 197 411 213 Q 405 225 390 231 Q 368 244 358 246 Q 351 247 349 239 Q 348 233 352 226 Z" fill="lightgray" class="hide"/>
    <path d="M 652 645 Q 748 702 780 712 Q 796 715 799 723 Q 800 733 788 743 Q 766 755 722 765 Q 706 769 694 767 Q 687 763 688 751 Q 689 711 519 599 Q 515 590 522 588 Q 571 609 622 630 L 652 645 Z" fill="lightgray" class="hide"/>
    <path d="M 679 479 Q 701 485 862 505 Q 878 506 882 515 Q 886 525 871 535 Q 813 568 767 545 Q 730 535 680 519 L 637 507 Q 577 494 512 476 Q 496 472 510 459 Q 523 449 539 446 Q 558 443 571 449 Q 593 458 621 465 L 679 479 Z" fill="lightgray" class="hide"/>
    <path d="M 636 375 Q 636 180 613 80 Q 595 67 626 3 Q 635 -24 656 -38 Q 668 -39 673 -26 Q 685 5 682 37 Q 676 218 677 373 L 678 417 Q 678 451 679 479 L 680 519 Q 681 574 688 603 Q 689 616 683 622 Q 667 637 652 645 C 627 661 614 659 622 630 Q 631 612 637 507 L 636 375 Z" fill="lightgray" class="hide"/>
    <path d="M 621 465 Q 579 315 408 134 Q 402 128 397 122 Q 387 109 396 109 Q 405 106 415 113 Q 535 183 631 365 Q 632 371 636 375 C 695 492 630 494 621 465 Z" fill="lightgray" class="hide"/>
    <path d="M 677 373 Q 734 283 806 186 Q 822 167 851 165 Q 950 164 981 167 Q 991 168 992 173 Q 993 177 980 185 Q 839 251 769 322 Q 724 365 678 417 C 658 439 661 398 677 373 Z" fill="lightgray" class="hide"/></g><g transform="scale(1, -1) translate(0, -900)">
    <style type="text/css">
        .origin {display:none;}
        .hide {display:none;}
        .stroke {fill: #000000;}
        
.step1 {transform: translateX(1024px);}
.step2 {transform: translateX(2048px);}
.step3 {transform: translateX(3072px);}
.step4 {transform: translateX(4096px);}
.step5 {transform: translateX(5120px);}
.step6 {transform: translateX(6144px);}
.step7 {transform: translateX(7168px);}
.step8 {transform: translateX(8192px);}
.step9 {transform: translateX(9216px);}
.step10 {transform: translateX(10240px);}
.step11 {transform: translateX(11264px);}
.step12 {transform: translateX(12288px);}
.step13 {transform: translateX(13312px);}
.step14 {transform: translateX(14336px);}
.step15 {transform: translateX(15360px);}
.step16 {transform: translateX(16384px);}
.step17 {transform: translateX(17408px);}
.step18 {transform: translateX(18432px);}
.step19 {transform: translateX(19456px);}
.step20 {transform: translateX(20480px);}
.step21 {transform: translateX(21504px);}
.step22 {transform: translateX(22528px);}
.step23 {transform: translateX(23552px);}
.step24 {transform: translateX(24576px);}
.step25 {transform: translateX(25600px);}
.step26 {transform: translateX(26624px);}
.step27 {transform: translateX(27648px);}
.step28 {transform: translateX(28672px);}
.step29 {transform: translateX(29696px);}
    </style>

    <path d="M 280 686 Q 313 735 336 752 Q 343 761 341 772 Q 338 784 315 804 Q 294 820 278 822 Q 262 822 268 803 Q 280 773 215 677 Q 185 634 143 586 Q 134 577 132 572 Q 128 563 140 565 Q 164 568 252 656 Q 258 663 267 671 L 280 686 Z" fill="lightgray" class="stroke step10"/>
    <path d="M 323 534 Q 342 553 377 593 Q 416 638 454 663 Q 470 672 460 685 Q 448 697 414 717 Q 399 723 385 714 Q 378 711 315 693 Q 299 689 280 686 C 250 681 246 680 267 671 Q 282 659 356 670 Q 363 671 365 670 Q 369 666 363 656 Q 326 578 301 542 L 293 528 C 278 502 302 513 323 534 Z" fill="lightgray" class="stroke step10"/>
    <path d="M 149 497 Q 139 501 118 504 Q 108 507 104 502 Q 100 496 107 482 Q 135 421 153 320 Q 156 290 173 270 Q 189 251 194 265 Q 195 272 197 279 L 196 306 Q 195 318 193 331 Q 172 439 168 470 C 165 492 165 492 149 497 Z" fill="lightgray" class="stroke step10"/>
    <path d="M 347 308 Q 365 278 381 270 Q 391 263 405 282 Q 420 306 449 435 Q 458 463 479 486 Q 491 496 480 510 Q 467 525 428 549 Q 409 558 396 553 Q 369 544 330 536 Q 326 536 323 534 L 293 528 Q 268 525 149 497 C 120 490 139 462 168 470 Q 202 480 250 491 L 283 498 Q 373 519 393 508 Q 406 498 402 478 Q 375 334 357 326 C 345 310 345 310 347 308 Z" fill="lightgray" class="stroke step10"/>
    <path d="M 302 395 Q 324 401 345 403 Q 364 407 357 418 Q 347 430 327 432 Q 317 433 305 430 L 260 418 Q 229 408 201 399 Q 188 395 205 383 Q 211 380 261 388 L 302 395 Z" fill="lightgray" class="stroke step10"/>
    <path d="M 299 332 Q 300 366 302 395 L 305 430 Q 305 448 307 457 Q 313 475 283 498 C 260 517 235 517 250 491 Q 251 487 255 484 Q 256 478 260 418 L 261 388 Q 261 361 262 321 C 263 291 298 302 299 332 Z" fill="lightgray" class="stroke step10"/>
    <path d="M 197 279 Q 197 280 199 280 Q 245 293 347 308 C 374 312 374 312 357 326 Q 353 330 342 336 Q 324 345 299 332 L 262 321 Q 225 314 196 306 C 167 298 169 269 197 279 Z" fill="lightgray" class="stroke step10"/>
    <path d="M 71 215 Q 58 170 47 125 Q 37 103 47 81 Q 51 68 65 58 Q 72 51 84 54 Q 91 57 95 68 Q 99 83 100 207 Q 97 225 92 231 Q 88 235 82 234 Q 78 230 71 215 Z" fill="lightgray" class="stroke step10"/>
    <path d="M 154 192 Q 166 165 178 134 Q 182 122 192 118 Q 199 115 206 121 Q 213 128 217 150 Q 218 174 166 223 Q 157 230 153 230 Q 149 229 145 221 Q 144 214 154 192 Z" fill="lightgray" class="stroke step10"/>
    <path d="M 259 205 Q 272 183 284 158 Q 290 148 301 144 Q 308 143 314 149 Q 320 158 321 179 Q 321 201 266 237 Q 257 243 252 242 Q 248 241 246 232 Q 246 225 259 205 Z" fill="lightgray" class="stroke step10"/>
    <path d="M 352 226 Q 379 178 397 176 Q 407 173 414 187 Q 415 197 411 213 Q 405 225 390 231 Q 368 244 358 246 Q 351 247 349 239 Q 348 233 352 226 Z" fill="lightgray" class="stroke step10"/>
    <path d="M 652 645 Q 748 702 780 712 Q 796 715 799 723 Q 800 733 788 743 Q 766 755 722 765 Q 706 769 694 767 Q 687 763 688 751 Q 689 711 519 599 Q 515 590 522 588 Q 571 609 622 630 L 652 645 Z" fill="lightgray" class="hide"/>
    <path d="M 679 479 Q 701 485 862 505 Q 878 506 882 515 Q 886 525 871 535 Q 813 568 767 545 Q 730 535 680 519 L 637 507 Q 577 494 512 476 Q 496 472 510 459 Q 523 449 539 446 Q 558 443 571 449 Q 593 458 621 465 L 679 479 Z" fill="lightgray" class="hide"/>
    <path d="M 636 375 Q 636 180 613 80 Q 595 67 626 3 Q 635 -24 656 -38 Q 668 -39 673 -26 Q 685 5 682 37 Q 676 218 677 373 L 678 417 Q 678 451 679 479 L 680 519 Q 681 574 688 603 Q 689 616 683 622 Q 667 637 652 645 C 627 661 614 659 622 630 Q 631 612 637 507 L 636 375 Z" fill="lightgray" class="hide"/>
    <path d="M 621 465 Q 579 315 408 134 Q 402 128 397 122 Q 387 109 396 109 Q 405 106 415 113 Q 535 183 631 365 Q 632 371 636 375 C 695 492 630 494 621 465 Z" fill="lightgray" class="hide"/>
    <path d="M 677 373 Q 734 283 806 186 Q 822 167 851 165 Q 950 164 981 167 Q 991 168 992 173 Q 993 177 980 185 Q 839 251 769 322 Q 724 365 678 417 C 658 439 661 398 677 373 Z" fill="lightgray" class="hide"/></g><g transform="scale(1, -1) translate(0, -900)">
    <style type="text/css">
        .origin {display:none;}
        .hide {display:none;}
        .stroke {fill: #000000;}
        
.step1 {transform: translateX(1024px);}
.step2 {transform: translateX(2048px);}
.step3 {transform: translateX(3072px);}
.step4 {transform: translateX(4096px);}
.step5 {transform: translateX(5120px);}
.step6 {transform: translateX(6144px);}
.step7 {transform: translateX(7168px);}
.step8 {transform: translateX(8192px);}
.step9 {transform: translateX(9216px);}
.step10 {transform: translateX(10240px);}
.step11 {transform: translateX(11264px);}
.step12 {transform: translateX(12288px);}
.step13 {transform: translateX(13312px);}
.step14 {transform: translateX(14336px);}
.step15 {transform: translateX(15360px);}
.step16 {transform: translateX(16384px);}
.step17 {transform: translateX(17408px);}
.step18 {transform: translateX(18432px);}
.step19 {transform: translateX(19456px);}
.step20 {transform: translateX(20480px);}
.step21 {transform: translateX(21504px);}
.step22 {transform: translateX(22528px);}
.step23 {transform: translateX(23552px);}
.step24 {transform: translateX(24576px);}
.step25 {transform: translateX(25600px);}
.step26 {transform: translateX(26624px);}
.step27 {transform: translateX(27648px);}
.step28 {transform: translateX(28672px);}
.step29 {transform: translateX(29696px);}
    </style>

    <path d="M 280 686 Q 313 735 336 752 Q 343 761 341 772 Q 338 784 315 804 Q 294 820 278 822 Q 262 822 268 803 Q 280 773 215 677 Q 185 634 143 586 Q 134 577 132 572 Q 128 563 140 565 Q 164 568 252 656 Q 258 663 267 671 L 280 686 Z" fill="lightgray" class="stroke step11"/>
    <path d="M 323 534 Q 342 553 377 593 Q 416 638 454 663 Q 470 672 460 685 Q 448 697 414 717 Q 399 723 385 714 Q 378 711 315 693 Q 299 689 280 686 C 250 681 246 680 267 671 Q 282 659 356 670 Q 363 671 365 670 Q 369 666 363 656 Q 326 578 301 542 L 293 528 C 278 502 302 513 323 534 Z" fill="lightgray" class="stroke step11"/>
    <path d="M 149 497 Q 139 501 118 504 Q 108 507 104 502 Q 100 496 107 482 Q 135 421 153 320 Q 156 290 173 270 Q 189 251 194 265 Q 195 272 197 279 L 196 306 Q 195 318 193 331 Q 172 439 168 470 C 165 492 165 492 149 497 Z" fill="lightgray" class="stroke step11"/>
    <path d="M 347 308 Q 365 278 381 270 Q 391 263 405 282 Q 420 306 449 435 Q 458 463 479 486 Q 491 496 480 510 Q 467 525 428 549 Q 409 558 396 553 Q 369 544 330 536 Q 326 536 323 534 L 293 528 Q 268 525 149 497 C 120 490 139 462 168 470 Q 202 480 250 491 L 283 498 Q 373 519 393 508 Q 406 498 402 478 Q 375 334 357 326 C 345 310 345 310 347 308 Z" fill="lightgray" class="stroke step11"/>
    <path d="M 302 395 Q 324 401 345 403 Q 364 407 357 418 Q 347 430 327 432 Q 317 433 305 430 L 260 418 Q 229 408 201 399 Q 188 395 205 383 Q 211 380 261 388 L 302 395 Z" fill="lightgray" class="stroke step11"/>
    <path d="M 299 332 Q 300 366 302 395 L 305 430 Q 305 448 307 457 Q 313 475 283 498 C 260 517 235 517 250 491 Q 251 487 255 484 Q 256 478 260 418 L 261 388 Q 261 361 262 321 C 263 291 298 302 299 332 Z" fill="lightgray" class="stroke step11"/>
    <path d="M 197 279 Q 197 280 199 280 Q 245 293 347 308 C 374 312 374 312 357 326 Q 353 330 342 336 Q 324 345 299 332 L 262 321 Q 225 314 196 306 C 167 298 169 269 197 279 Z" fill="lightgray" class="stroke step11"/>
    <path d="M 71 215 Q 58 170 47 125 Q 37 103 47 81 Q 51 68 65 58 Q 72 51 84 54 Q 91 57 95 68 Q 99 83 100 207 Q 97 225 92 231 Q 88 235 82 234 Q 78 230 71 215 Z" fill="lightgray" class="stroke step11"/>
    <path d="M 154 192 Q 166 165 178 134 Q 182 122 192 118 Q 199 115 206 121 Q 213 128 217 150 Q 218 174 166 223 Q 157 230 153 230 Q 149 229 145 221 Q 144 214 154 192 Z" fill="lightgray" class="stroke step11"/>
    <path d="M 259 205 Q 272 183 284 158 Q 290 148 301 144 Q 308 143 314 149 Q 320 158 321 179 Q 321 201 266 237 Q 257 243 252 242 Q 248 241 246 232 Q 246 225 259 205 Z" fill="lightgray" class="stroke step11"/>
    <path d="M 352 226 Q 379 178 397 176 Q 407 173 414 187 Q 415 197 411 213 Q 405 225 390 231 Q 368 244 358 246 Q 351 247 349 239 Q 348 233 352 226 Z" fill="lightgray" class="stroke step11"/>
    <path d="M 652 645 Q 748 702 780 712 Q 796 715 799 723 Q 800 733 788 743 Q 766 755 722 765 Q 706 769 694 767 Q 687 763 688 751 Q 689 711 519 599 Q 515 590 522 588 Q 571 609 622 630 L 652 645 Z" fill="lightgray" class="stroke step11"/>
    <path d="M 679 479 Q 701 485 862 505 Q 878 506 882 515 Q 886 525 871 535 Q 813 568 767 545 Q 730 535 680 519 L 637 507 Q 577 494 512 476 Q 496 472 510 459 Q 523 449 539 446 Q 558 443 571 449 Q 593 458 621 465 L 679 479 Z" fill="lightgray" class="hide"/>
    <path d="M 636 375 Q 636 180 613 80 Q 595 67 626 3 Q 635 -24 656 -38 Q 668 -39 673 -26 Q 685 5 682 37 Q 676 218 677 373 L 678 417 Q 678 451 679 479 L 680 519 Q 681 574 688 603 Q 689 616 683 622 Q 667 637 652 645 C 627 661 614 659 622 630 Q 631 612 637 507 L 636 375 Z" fill="lightgray" class="hide"/>
    <path d="M 621 465 Q 579 315 408 134 Q 402 128 397 122 Q 387 109 396 109 Q 405 106 415 113 Q 535 183 631 365 Q 632 371 636 375 C 695 492 630 494 621 465 Z" fill="lightgray" class="hide"/>
    <path d="M 677 373 Q 734 283 806 186 Q 822 167 851 165 Q 950 164 981 167 Q 991 168 992 173 Q 993 177 980 185 Q 839 251 769 322 Q 724 365 678 417 C 658 439 661 398 677 373 Z" fill="lightgray" class="hide"/></g><g transform="scale(1, -1) translate(0, -900)">
    <style type="text/css">
        .origin {display:none;}
        .hide {display:none;}
        .stroke {fill: #000000;}
        
.step1 {transform: translateX(1024px);}
.step2 {transform: translateX(2048px);}
.step3 {transform: translateX(3072px);}
.step4 {transform: translateX(4096px);}
.step5 {transform: translateX(5120px);}
.step6 {transform: translateX(6144px);}
.step7 {transform: translateX(7168px);}
.step8 {transform: translateX(8192px);}
.step9 {transform: translateX(9216px);}
.step10 {transform: translateX(10240px);}
.step11 {transform: translateX(11264px);}
.step12 {transform: translateX(12288px);}
.step13 {transform: translateX(13312px);}
.step14 {transform: translateX(14336px);}
.step15 {transform: translateX(15360px);}
.step16 {transform: translateX(16384px);}
.step17 {transform: translateX(17408px);}
.step18 {transform: translateX(18432px);}
.step19 {transform: translateX(19456px);}
.step20 {transform: translateX(20480px);}
.step21 {transform: translateX(21504px);}
.step22 {transform: translateX(22528px);}
.step23 {transform: translateX(23552px);}
.step24 {transform: translateX(24576px);}
.step25 {transform: translateX(25600px);}
.step26 {transform: translateX(26624px);}
.step27 {transform: translateX(27648px);}
.step28 {transform: translateX(28672px);}
.step29 {transform: translateX(29696px);}
    </style>

    <path d="M 280 686 Q 313 735 336 752 Q 343 761 341 772 Q 338 784 315 804 Q 294 820 278 822 Q 262 822 268 803 Q 280 773 215 677 Q 185 634 143 586 Q 134 577 132 572 Q 128 563 140 565 Q 164 568 252 656 Q 258 663 267 671 L 280 686 Z" fill="lightgray" class="stroke step12"/>
    <path d="M 323 534 Q 342 553 377 593 Q 416 638 454 663 Q 470 672 460 685 Q 448 697 414 717 Q 399 723 385 714 Q 378 711 315 693 Q 299 689 280 686 C 250 681 246 680 267 671 Q 282 659 356 670 Q 363 671 365 670 Q 369 666 363 656 Q 326 578 301 542 L 293 528 C 278 502 302 513 323 534 Z" fill="lightgray" class="stroke step12"/>
    <path d="M 149 497 Q 139 501 118 504 Q 108 507 104 502 Q 100 496 107 482 Q 135 421 153 320 Q 156 290 173 270 Q 189 251 194 265 Q 195 272 197 279 L 196 306 Q 195 318 193 331 Q 172 439 168 470 C 165 492 165 492 149 497 Z" fill="lightgray" class="stroke step12"/>
    <path d="M 347 308 Q 365 278 381 270 Q 391 263 405 282 Q 420 306 449 435 Q 458 463 479 486 Q 491 496 480 510 Q 467 525 428 549 Q 409 558 396 553 Q 369 544 330 536 Q 326 536 323 534 L 293 528 Q 268 525 149 497 C 120 490 139 462 168 470 Q 202 480 250 491 L 283 498 Q 373 519 393 508 Q 406 498 402 478 Q 375 334 357 326 C 345 310 345 310 347 308 Z" fill="lightgray" class="stroke step12"/>
    <path d="M 302 395 Q 324 401 345 403 Q 364 407 357 418 Q 347 430 327 432 Q 317 433 305 430 L 260 418 Q 229 408 201 399 Q 188 395 205 383 Q 211 380 261 388 L 302 395 Z" fill="lightgray" class="stroke step12"/>
    <path d="M 299 332 Q 300 366 302 395 L 305 430 Q 305 448 307 457 Q 313 475 283 498 C 260 517 235 517 250 491 Q 251 487 255 484 Q 256 478 260 418 L 261 388 Q 261 361 262 321 C 263 291 298 302 299 332 Z" fill="lightgray" class="stroke step12"/>
    <path d="M 197 279 Q 197 280 199 280 Q 245 293 347 308 C 374 312 374 312 357 326 Q 353 330 342 336 Q 324 345 299 332 L 262 321 Q 225 314 196 306 C 167 298 169 269 197 279 Z" fill="lightgray" class="stroke step12"/>
    <path d="M 71 215 Q 58 170 47 125 Q 37 103 47 81 Q 51 68 65 58 Q 72 51 84 54 Q 91 57 95 68 Q 99 83 100 207 Q 97 225 92 231 Q 88 235 82 234 Q 78 230 71 215 Z" fill="lightgray" class="stroke step12"/>
    <path d="M 154 192 Q 166 165 178 134 Q 182 122 192 118 Q 199 115 206 121 Q 213 128 217 150 Q 218 174 166 223 Q 157 230 153 230 Q 149 229 145 221 Q 144 214 154 192 Z" fill="lightgray" class="stroke step12"/>
    <path d="M 259 205 Q 272 183 284 158 Q 290 148 301 144 Q 308 143 314 149 Q 320 158 321 179 Q 321 201 266 237 Q 257 243 252 242 Q 248 241 246 232 Q 246 225 259 205 Z" fill="lightgray" class="stroke step12"/>
    <path d="M 352 226 Q 379 178 397 176 Q 407 173 414 187 Q 415 197 411 213 Q 405 225 390 231 Q 368 244 358 246 Q 351 247 349 239 Q 348 233 352 226 Z" fill="lightgray" class="stroke step12"/>
    <path d="M 652 645 Q 748 702 780 712 Q 796 715 799 723 Q 800 733 788 743 Q 766 755 722 765 Q 706 769 694 767 Q 687 763 688 751 Q 689 711 519 599 Q 515 590 522 588 Q 571 609 622 630 L 652 645 Z" fill="lightgray" class="stroke step12"/>
    <path d="M 679 479 Q 701 485 862 505 Q 878 506 882 515 Q 886 525 871 535 Q 813 568 767 545 Q 730 535 680 519 L 637 507 Q 577 494 512 476 Q 496 472 510 459 Q 523 449 539 446 Q 558 443 571 449 Q 593 458 621 465 L 679 479 Z" fill="lightgray" class="stroke step12"/>
    <path d="M 636 375 Q 636 180 613 80 Q 595 67 626 3 Q 635 -24 656 -38 Q 668 -39 673 -26 Q 685 5 682 37 Q 676 218 677 373 L 678 417 Q 678 451 679 479 L 680 519 Q 681 574 688 603 Q 689 616 683 622 Q 667 637 652 645 C 627 661 614 659 622 630 Q 631 612 637 507 L 636 375 Z" fill="lightgray" class="hide"/>
    <path d="M 621 465 Q 579 315 408 134 Q 402 128 397 122 Q 387 109 396 109 Q 405 106 415 113 Q 535 183 631 365 Q 632 371 636 375 C 695 492 630 494 621 465 Z" fill="lightgray" class="hide"/>
    <path d="M 677 373 Q 734 283 806 186 Q 822 167 851 165 Q 950 164 981 167 Q 991 168 992 173 Q 993 177 980 185 Q 839 251 769 322 Q 724 365 678 417 C 658 439 661 398 677 373 Z" fill="lightgray" class="hide"/></g><g transform="scale(1, -1) translate(0, -900)">
    <style type="text/css">
        .origin {display:none;}
        .hide {display:none;}
        .stroke {fill: #000000;}
        
.step1 {transform: translateX(1024px);}
.step2 {transform: translateX(2048px);}
.step3 {transform: translateX(3072px);}
.step4 {transform: translateX(4096px);}
.step5 {transform: translateX(5120px);}
.step6 {transform: translateX(6144px);}
.step7 {transform: translateX(7168px);}
.step8 {transform: translateX(8192px);}
.step9 {transform: translateX(9216px);}
.step10 {transform: translateX(10240px);}
.step11 {transform: translateX(11264px);}
.step12 {transform: translateX(12288px);}
.step13 {transform: translateX(13312px);}
.step14 {transform: translateX(14336px);}
.step15 {transform: translateX(15360px);}
.step16 {transform: translateX(16384px);}
.step17 {transform: translateX(17408px);}
.step18 {transform: translateX(18432px);}
.step19 {transform: translateX(19456px);}
.step20 {transform: translateX(20480px);}
.step21 {transform: translateX(21504px);}
.step22 {transform: translateX(22528px);}
.step23 {transform: translateX(23552px);}
.step24 {transform: translateX(24576px);}
.step25 {transform: translateX(25600px);}
.step26 {transform: translateX(26624px);}
.step27 {transform: translateX(27648px);}
.step28 {transform: translateX(28672px);}
.step29 {transform: translateX(29696px);}
    </style>

    <path d="M 280 686 Q 313 735 336 752 Q 343 761 341 772 Q 338 784 315 804 Q 294 820 278 822 Q 262 822 268 803 Q 280 773 215 677 Q 185 634 143 586 Q 134 577 132 572 Q 128 563 140 565 Q 164 568 252 656 Q 258 663 267 671 L 280 686 Z" fill="lightgray" class="stroke step13"/>
    <path d="M 323 534 Q 342 553 377 593 Q 416 638 454 663 Q 470 672 460 685 Q 448 697 414 717 Q 399 723 385 714 Q 378 711 315 693 Q 299 689 280 686 C 250 681 246 680 267 671 Q 282 659 356 670 Q 363 671 365 670 Q 369 666 363 656 Q 326 578 301 542 L 293 528 C 278 502 302 513 323 534 Z" fill="lightgray" class="stroke step13"/>
    <path d="M 149 497 Q 139 501 118 504 Q 108 507 104 502 Q 100 496 107 482 Q 135 421 153 320 Q 156 290 173 270 Q 189 251 194 265 Q 195 272 197 279 L 196 306 Q 195 318 193 331 Q 172 439 168 470 C 165 492 165 492 149 497 Z" fill="lightgray" class="stroke step13"/>
    <path d="M 347 308 Q 365 278 381 270 Q 391 263 405 282 Q 420 306 449 435 Q 458 463 479 486 Q 491 496 480 510 Q 467 525 428 549 Q 409 558 396 553 Q 369 544 330 536 Q 326 536 323 534 L 293 528 Q 268 525 149 497 C 120 490 139 462 168 470 Q 202 480 250 491 L 283 498 Q 373 519 393 508 Q 406 498 402 478 Q 375 334 357 326 C 345 310 345 310 347 308 Z" fill="lightgray" class="stroke step13"/>
    <path d="M 302 395 Q 324 401 345 403 Q 364 407 357 418 Q 347 430 327 432 Q 317 433 305 430 L 260 418 Q 229 408 201 399 Q 188 395 205 383 Q 211 380 261 388 L 302 395 Z" fill="lightgray" class="stroke step13"/>
    <path d="M 299 332 Q 300 366 302 395 L 305 430 Q 305 448 307 457 Q 313 475 283 498 C 260 517 235 517 250 491 Q 251 487 255 484 Q 256 478 260 418 L 261 388 Q 261 361 262 321 C 263 291 298 302 299 332 Z" fill="lightgray" class="stroke step13"/>
    <path d="M 197 279 Q 197 280 199 280 Q 245 293 347 308 C 374 312 374 312 357 326 Q 353 330 342 336 Q 324 345 299 332 L 262 321 Q 225 314 196 306 C 167 298 169 269 197 279 Z" fill="lightgray" class="stroke step13"/>
    <path d="M 71 215 Q 58 170 47 125 Q 37 103 47 81 Q 51 68 65 58 Q 72 51 84 54 Q 91 57 95 68 Q 99 83 100 207 Q 97 225 92 231 Q 88 235 82 234 Q 78 230 71 215 Z" fill="lightgray" class="stroke step13"/>
    <path d="M 154 192 Q 166 165 178 134 Q 182 122 192 118 Q 199 115 206 121 Q 213 128 217 150 Q 218 174 166 223 Q 157 230 153 230 Q 149 229 145 221 Q 144 214 154 192 Z" fill="lightgray" class="stroke step13"/>
    <path d="M 259 205 Q 272 183 284 158 Q 290 148 301 144 Q 308 143 314 149 Q 320 158 321 179 Q 321 201 266 237 Q 257 243 252 242 Q 248 241 246 232 Q 246 225 259 205 Z" fill="lightgray" class="stroke step13"/>
    <path d="M 352 226 Q 379 178 397 176 Q 407 173 414 187 Q 415 197 411 213 Q 405 225 390 231 Q 368 244 358 246 Q 351 247 349 239 Q 348 233 352 226 Z" fill="lightgray" class="stroke step13"/>
    <path d="M 652 645 Q 748 702 780 712 Q 796 715 799 723 Q 800 733 788 743 Q 766 755 722 765 Q 706 769 694 767 Q 687 763 688 751 Q 689 711 519 599 Q 515 590 522 588 Q 571 609 622 630 L 652 645 Z" fill="lightgray" class="stroke step13"/>
    <path d="M 679 479 Q 701 485 862 505 Q 878 506 882 515 Q 886 525 871 535 Q 813 568 767 545 Q 730 535 680 519 L 637 507 Q 577 494 512 476 Q 496 472 510 459 Q 523 449 539 446 Q 558 443 571 449 Q 593 458 621 465 L 679 479 Z" fill="lightgray" class="stroke step13"/>
    <path d="M 636 375 Q 636 180 613 80 Q 595 67 626 3 Q 635 -24 656 -38 Q 668 -39 673 -26 Q 685 5 682 37 Q 676 218 677 373 L 678 417 Q 678 451 679 479 L 680 519 Q 681 574 688 603 Q 689 616 683 622 Q 667 637 652 645 C 627 661 614 659 622 630 Q 631 612 637 507 L 636 375 Z" fill="lightgray" class="stroke step13"/>
    <path d="M 621 465 Q 579 315 408 134 Q 402 128 397 122 Q 387 109 396 109 Q 405 106 415 113 Q 535 183 631 365 Q 632 371 636 375 C 695 492 630 494 621 465 Z" fill="lightgray" class="hide"/>
    <path d="M 677 373 Q 734 283 806 186 Q 822 167 851 165 Q 950 164 981 167 Q 991 168 992 173 Q 993 177 980 185 Q 839 251 769 322 Q 724 365 678 417 C 658 439 661 398 677 373 Z" fill="lightgray" class="hide"/></g><g transform="scale(1, -1) translate(0, -900)">
    <style type="text/css">
        .origin {display:none;}
        .hide {display:none;}
        .stroke {fill: #000000;}
        
.step1 {transform: translateX(1024px);}
.step2 {transform: translateX(2048px);}
.step3 {transform: translateX(3072px);}
.step4 {transform: translateX(4096px);}
.step5 {transform: translateX(5120px);}
.step6 {transform: translateX(6144px);}
.step7 {transform: translateX(7168px);}
.step8 {transform: translateX(8192px);}
.step9 {transform: translateX(9216px);}
.step10 {transform: translateX(10240px);}
.step11 {transform: translateX(11264px);}
.step12 {transform: translateX(12288px);}
.step13 {transform: translateX(13312px);}
.step14 {transform: translateX(14336px);}
.step15 {transform: translateX(15360px);}
.step16 {transform: translateX(16384px);}
.step17 {transform: translateX(17408px);}
.step18 {transform: translateX(18432px);}
.step19 {transform: translateX(19456px);}
.step20 {transform: translateX(20480px);}
.step21 {transform: translateX(21504px);}
.step22 {transform: translateX(22528px);}
.step23 {transform: translateX(23552px);}
.step24 {transform: translateX(24576px);}
.step25 {transform: translateX(25600px);}
.step26 {transform: translateX(26624px);}
.step27 {transform: translateX(27648px);}
.step28 {transform: translateX(28672px);}
.step29 {transform: translateX(29696px);}
    </style>

    <path d="M 280 686 Q 313 735 336 752 Q 343 761 341 772 Q 338 784 315 804 Q 294 820 278 822 Q 262 822 268 803 Q 280 773 215 677 Q 185 634 143 586 Q 134 577 132 572 Q 128 563 140 565 Q 164 568 252 656 Q 258 663 267 671 L 280 686 Z" fill="lightgray" class="stroke step14"/>
    <path d="M 323 534 Q 342 553 377 593 Q 416 638 454 663 Q 470 672 460 685 Q 448 697 414 717 Q 399 723 385 714 Q 378 711 315 693 Q 299 689 280 686 C 250 681 246 680 267 671 Q 282 659 356 670 Q 363 671 365 670 Q 369 666 363 656 Q 326 578 301 542 L 293 528 C 278 502 302 513 323 534 Z" fill="lightgray" class="stroke step14"/>
    <path d="M 149 497 Q 139 501 118 504 Q 108 507 104 502 Q 100 496 107 482 Q 135 421 153 320 Q 156 290 173 270 Q 189 251 194 265 Q 195 272 197 279 L 196 306 Q 195 318 193 331 Q 172 439 168 470 C 165 492 165 492 149 497 Z" fill="lightgray" class="stroke step14"/>
    <path d="M 347 308 Q 365 278 381 270 Q 391 263 405 282 Q 420 306 449 435 Q 458 463 479 486 Q 491 496 480 510 Q 467 525 428 549 Q 409 558 396 553 Q 369 544 330 536 Q 326 536 323 534 L 293 528 Q 268 525 149 497 C 120 490 139 462 168 470 Q 202 480 250 491 L 283 498 Q 373 519 393 508 Q 406 498 402 478 Q 375 334 357 326 C 345 310 345 310 347 308 Z" fill="lightgray" class="stroke step14"/>
    <path d="M 302 395 Q 324 401 345 403 Q 364 407 357 418 Q 347 430 327 432 Q 317 433 305 430 L 260 418 Q 229 408 201 399 Q 188 395 205 383 Q 211 380 261 388 L 302 395 Z" fill="lightgray" class="stroke step14"/>
    <path d="M 299 332 Q 300 366 302 395 L 305 430 Q 305 448 307 457 Q 313 475 283 498 C 260 517 235 517 250 491 Q 251 487 255 484 Q 256 478 260 418 L 261 388 Q 261 361 262 321 C 263 291 298 302 299 332 Z" fill="lightgray" class="stroke step14"/>
    <path d="M 197 279 Q 197 280 199 280 Q 245 293 347 308 C 374 312 374 312 357 326 Q 353 330 342 336 Q 324 345 299 332 L 262 321 Q 225 314 196 306 C 167 298 169 269 197 279 Z" fill="lightgray" class="stroke step14"/>
    <path d="M 71 215 Q 58 170 47 125 Q 37 103 47 81 Q 51 68 65 58 Q 72 51 84 54 Q 91 57 95 68 Q 99 83 100 207 Q 97 225 92 231 Q 88 235 82 234 Q 78 230 71 215 Z" fill="lightgray" class="stroke step14"/>
    <path d="M 154 192 Q 166 165 178 134 Q 182 122 192 118 Q 199 115 206 121 Q 213 128 217 150 Q 218 174 166 223 Q 157 230 153 230 Q 149 229 145 221 Q 144 214 154 192 Z" fill="lightgray" class="stroke step14"/>
    <path d="M 259 205 Q 272 183 284 158 Q 290 148 301 144 Q 308 143 314 149 Q 320 158 321 179 Q 321 201 266 237 Q 257 243 252 242 Q 248 241 246 232 Q 246 225 259 205 Z" fill="lightgray" class="stroke step14"/>
    <path d="M 352 226 Q 379 178 397 176 Q 407 173 414 187 Q 415 197 411 213 Q 405 225 390 231 Q 368 244 358 246 Q 351 247 349 239 Q 348 233 352 226 Z" fill="lightgray" class="stroke step14"/>
    <path d="M 652 645 Q 748 702 780 712 Q 796 715 799 723 Q 800 733 788 743 Q 766 755 722 765 Q 706 769 694 767 Q 687 763 688 751 Q 689 711 519 599 Q 515 590 522 588 Q 571 609 622 630 L 652 645 Z" fill="lightgray" class="stroke step14"/>
    <path d="M 679 479 Q 701 485 862 505 Q 878 506 882 515 Q 886 525 871 535 Q 813 568 767 545 Q 730 535 680 519 L 637 507 Q 577 494 512 476 Q 496 472 510 459 Q 523 449 539 446 Q 558 443 571 449 Q 593 458 621 465 L 679 479 Z" fill="lightgray" class="stroke step14"/>
    <path d="M 636 375 Q 636 180 613 80 Q 595 67 626 3 Q 635 -24 656 -38 Q 668 -39 673 -26 Q 685 5 682 37 Q 676 218 677 373 L 678 417 Q 678 451 679 479 L 680 519 Q 681 574 688 603 Q 689 616 683 622 Q 667 637 652 645 C 627 661 614 659 622 630 Q 631 612 637 507 L 636 375 Z" fill="lightgray" class="stroke step14"/>
    <path d="M 621 465 Q 579 315 408 134 Q 402 128 397 122 Q 387 109 396 109 Q 405 106 415 113 Q 535 183 631 365 Q 632 371 636 375 C 695 492 630 494 621 465 Z" fill="lightgray" class="stroke step14"/>
    <path d="M 677 373 Q 734 283 806 186 Q 822 167 851 165 Q 950 164 981 167 Q 991 168 992 173 Q 993 177 980 185 Q 839 251 769 322 Q 724 365 678 417 C 658 439 661 398 677 373 Z" fill="lightgray" class="hide"/></g><g transform="scale(1, -1) translate(0, -900)">
    <style type="text/css">
        .origin {display:none;}
        .hide {display:none;}
        .stroke {fill: #000000;}
        
.step1 {transform: translateX(1024px);}
.step2 {transform: translateX(2048px);}
.step3 {transform: translateX(3072px);}
.step4 {transform: translateX(4096px);}
.step5 {transform: translateX(5120px);}
.step6 {transform: translateX(6144px);}
.step7 {transform: translateX(7168px);}
.step8 {transform: translateX(8192px);}
.step9 {transform: translateX(9216px);}
.step10 {transform: translateX(10240px);}
.step11 {transform: translateX(11264px);}
.step12 {transform: translateX(12288px);}
.step13 {transform: translateX(13312px);}
.step14 {transform: translateX(14336px);}
.step15 {transform: translateX(15360px);}
.step16 {transform: translateX(16384px);}
.step17 {transform: translateX(17408px);}
.step18 {transform: translateX(18432px);}
.step19 {transform: translateX(19456px);}
.step20 {transform: translateX(20480px);}
.step21 {transform: translateX(21504px);}
.step22 {transform: translateX(22528px);}
.step23 {transform: translateX(23552px);}
.step24 {transform: translateX(24576px);}
.step25 {transform: translateX(25600px);}
.step26 {transform: translateX(26624px);}
.step27 {transform: translateX(27648px);}
.step28 {transform: translateX(28672px);}
.step29 {transform: translateX(29696px);}
    </style>

    <path d="M 280 686 Q 313 735 336 752 Q 343 761 341 772 Q 338 784 315 804 Q 294 820 278 822 Q 262 822 268 803 Q 280 773 215 677 Q 185 634 143 586 Q 134 577 132 572 Q 128 563 140 565 Q 164 568 252 656 Q 258 663 267 671 L 280 686 Z" fill="lightgray" class="stroke step15"/>
    <path d="M 323 534 Q 342 553 377 593 Q 416 638 454 663 Q 470 672 460 685 Q 448 697 414 717 Q 399 723 385 714 Q 378 711 315 693 Q 299 689 280 686 C 250 681 246 680 267 671 Q 282 659 356 670 Q 363 671 365 670 Q 369 666 363 656 Q 326 578 301 542 L 293 528 C 278 502 302 513 323 534 Z" fill="lightgray" class="stroke step15"/>
    <path d="M 149 497 Q 139 501 118 504 Q 108 507 104 502 Q 100 496 107 482 Q 135 421 153 320 Q 156 290 173 270 Q 189 251 194 265 Q 195 272 197 279 L 196 306 Q 195 318 193 331 Q 172 439 168 470 C 165 492 165 492 149 497 Z" fill="lightgray" class="stroke step15"/>
    <path d="M 347 308 Q 365 278 381 270 Q 391 263 405 282 Q 420 306 449 435 Q 458 463 479 486 Q 491 496 480 510 Q 467 525 428 549 Q 409 558 396 553 Q 369 544 330 536 Q 326 536 323 534 L 293 528 Q 268 525 149 497 C 120 490 139 462 168 470 Q 202 480 250 491 L 283 498 Q 373 519 393 508 Q 406 498 402 478 Q 375 334 357 326 C 345 310 345 310 347 308 Z" fill="lightgray" class="stroke step15"/>
    <path d="M 302 395 Q 324 401 345 403 Q 364 407 357 418 Q 347 430 327 432 Q 317 433 305 430 L 260 418 Q 229 408 201 399 Q 188 395 205 383 Q 211 380 261 388 L 302 395 Z" fill="lightgray" class="stroke step15"/>
    <path d="M 299 332 Q 300 366 302 395 L 305 430 Q 305 448 307 457 Q 313 475 283 498 C 260 517 235 517 250 491 Q 251 487 255 484 Q 256 478 260 418 L 261 388 Q 261 361 262 321 C 263 291 298 302 299 332 Z" fill="lightgray" class="stroke step15"/>
    <path d="M 197 279 Q 197 280 199 280 Q 245 293 347 308 C 374 312 374 312 357 326 Q 353 330 342 336 Q 324 345 299 332 L 262 321 Q 225 314 196 306 C 167 298 169 269 197 279 Z" fill="lightgray" class="stroke step15"/>
    <path d="M 71 215 Q 58 170 47 125 Q 37 103 47 81 Q 51 68 65 58 Q 72 51 84 54 Q 91 57 95 68 Q 99 83 100 207 Q 97 225 92 231 Q 88 235 82 234 Q 78 230 71 215 Z" fill="lightgray" class="stroke step15"/>
    <path d="M 154 192 Q 166 165 178 134 Q 182 122 192 118 Q 199 115 206 121 Q 213 128 217 150 Q 218 174 166 223 Q 157 230 153 230 Q 149 229 145 221 Q 144 214 154 192 Z" fill="lightgray" class="stroke step15"/>
    <path d="M 259 205 Q 272 183 284 158 Q 290 148 301 144 Q 308 143 314 149 Q 320 158 321 179 Q 321 201 266 237 Q 257 243 252 242 Q 248 241 246 232 Q 246 225 259 205 Z" fill="lightgray" class="stroke step15"/>
    <path d="M 352 226 Q 379 178 397 176 Q 407 173 414 187 Q 415 197 411 213 Q 405 225 390 231 Q 368 244 358 246 Q 351 247 349 239 Q 348 233 352 226 Z" fill="lightgray" class="stroke step15"/>
    <path d="M 652 645 Q 748 702 780 712 Q 796 715 799 723 Q 800 733 788 743 Q 766 755 722 765 Q 706 769 694 767 Q 687 763 688 751 Q 689 711 519 599 Q 515 590 522 588 Q 571 609 622 630 L 652 645 Z" fill="lightgray" class="stroke step15"/>
    <path d="M 679 479 Q 701 485 862 505 Q 878 506 882 515 Q 886 525 871 535 Q 813 568 767 545 Q 730 535 680 519 L 637 507 Q 577 494 512 476 Q 496 472 510 459 Q 523 449 539 446 Q 558 443 571 449 Q 593 458 621 465 L 679 479 Z" fill="lightgray" class="stroke step15"/>
    <path d="M 636 375 Q 636 180 613 80 Q 595 67 626 3 Q 635 -24 656 -38 Q 668 -39 673 -26 Q 685 5 682 37 Q 676 218 677 373 L 678 417 Q 678 451 679 479 L 680 519 Q 681 574 688 603 Q 689 616 683 622 Q 667 637 652 645 C 627 661 614 659 622 630 Q 631 612 637 507 L 636 375 Z" fill="lightgray" class="stroke step15"/>
    <path d="M 621 465 Q 579 315 408 134 Q 402 128 397 122 Q 387 109 396 109 Q 405 106 415 113 Q 535 183 631 365 Q 632 371 636 375 C 695 492 630 494 621 465 Z" fill="lightgray" class="stroke step15"/>
    <path d="M 677 373 Q 734 283 806 186 Q 822 167 851 165 Q 950 164 981 167 Q 991 168 992 173 Q 993 177 980 185 Q 839 251 769 322 Q 724 365 678 417 C 658 439 661 398 677 373 Z" fill="lightgray" class="stroke step15"/></g></svg>