<svg version="1.1" viewBox="0 0 14336 1024" xmlns="http://www.w3.org/2000/svg">
  
  <g transform="scale(1, -1) translate(0, -900)" class="origin">
    <style type="text/css">
        .origin {display:none;}
        .hide {display:none;}
        .stroke {fill: #000000;}
        
.step1 {transform: translateX(1024px);}
.step2 {transform: translateX(2048px);}
.step3 {transform: translateX(3072px);}
.step4 {transform: translateX(4096px);}
.step5 {transform: translateX(5120px);}
.step6 {transform: translateX(6144px);}
.step7 {transform: translateX(7168px);}
.step8 {transform: translateX(8192px);}
.step9 {transform: translateX(9216px);}
.step10 {transform: translateX(10240px);}
.step11 {transform: translateX(11264px);}
.step12 {transform: translateX(12288px);}
.step13 {transform: translateX(13312px);}
.step14 {transform: translateX(14336px);}
.step15 {transform: translateX(15360px);}
.step16 {transform: translateX(16384px);}
.step17 {transform: translateX(17408px);}
.step18 {transform: translateX(18432px);}
.step19 {transform: translateX(19456px);}
.step20 {transform: translateX(20480px);}
.step21 {transform: translateX(21504px);}
.step22 {transform: translateX(22528px);}
.step23 {transform: translateX(23552px);}
.step24 {transform: translateX(24576px);}
.step25 {transform: translateX(25600px);}
.step26 {transform: translateX(26624px);}
.step27 {transform: translateX(27648px);}
.step28 {transform: translateX(28672px);}
.step29 {transform: translateX(29696px);}
    </style>

    <path d="M 145 624 Q 164 564 187 542 Q 199 535 212 542 Q 222 551 225 566 Q 228 588 217 606 Q 208 621 169 652 Q 157 662 148 662 Q 142 663 140 652 Q 137 642 145 624 Z" fill="lightgray"/>
    <path d="M 385 670 Q 372 642 346 595 Q 342 588 347 583 Q 354 583 359 588 Q 417 642 445 663 Q 458 669 454 677 Q 447 689 430 701 Q 412 713 394 712 Q 384 711 386 695 Q 390 685 385 670 Z" fill="lightgray"/>
    <path d="M 314 459 Q 348 469 392 477 Q 407 480 406 487 Q 407 499 390 505 Q 363 517 315 500 L 273 488 Q 135 452 82 443 Q 70 442 68 434 Q 67 424 80 415 Q 113 396 160 410 Q 203 428 241 438 L 314 459 Z" fill="lightgray"/>
    <path d="M 312 375 Q 312 415 314 459 L 315 500 Q 315 683 336 761 Q 345 774 342 788 Q 335 797 283 829 Q 261 845 242 831 Q 236 827 243 812 Q 273 767 274 691 Q 274 519 273 488 L 269 378 Q 265 243 255 195 Q 237 107 251 68 Q 252 61 257 53 Q 264 37 271 33 Q 277 27 284 35 Q 291 39 301 58 Q 311 82 310 111 Q 309 144 312 346 L 312 375 Z" fill="lightgray"/>
    <path d="M 241 438 Q 192 296 41 138 Q 31 125 40 125 Q 49 122 59 129 Q 162 189 247 337 Q 257 358 269 378 C 318 461 256 480 241 438 Z" fill="lightgray"/>
    <path d="M 312 346 Q 325 337 363 305 Q 373 295 386 297 Q 393 298 397 308 Q 400 320 392 343 Q 383 362 317 375 Q 314 376 312 375 C 282 372 288 363 312 346 Z" fill="lightgray"/>
    <path d="M 602 769 Q 624 750 649 725 Q 664 712 681 713 Q 691 714 697 728 Q 701 744 691 775 Q 679 802 595 819 Q 579 822 572 819 Q 566 815 569 801 Q 573 791 602 769 Z" fill="lightgray"/>
    <path d="M 516 607 Q 504 631 486 644 Q 482 648 477 644 Q 471 640 471 629 Q 472 596 446 536 Q 436 518 436 500 Q 440 481 449 466 Q 456 454 462 462 Q 474 465 491 511 Q 507 556 515 571 Q 518 575 520 580 C 525 590 525 590 516 607 Z" fill="lightgray"/>
    <path d="M 520 580 Q 544 568 592 584 Q 673 615 784 628 Q 797 631 804 630 Q 817 623 816 617 Q 816 613 810 601 Q 776 538 781 533 Q 788 529 803 539 Q 855 570 899 580 Q 933 590 933 598 Q 932 608 866 657 Q 839 678 742 651 Q 735 651 585 620 Q 552 613 518 608 Q 517 608 516 607 C 487 601 491 589 520 580 Z" fill="lightgray"/>
    <path d="M 551 463 Q 514 453 542 439 Q 581 423 653 439 Q 689 448 727 458 Q 746 464 749 467 Q 758 476 752 484 Q 745 496 714 501 Q 690 504 611 475 Q 581 468 551 463 Z" fill="lightgray"/>
    <path d="M 656 308 Q 729 320 850 322 Q 898 322 904 331 Q 908 343 893 355 Q 835 394 776 372 Q 725 363 655 348 Q 570 333 467 317 Q 448 314 462 299 Q 475 286 493 282 Q 512 278 527 282 Q 567 295 613 301 L 656 308 Z" fill="lightgray"/>
    <path d="M 613 301 Q 626 265 627 153 Q 627 95 622 82 Q 618 72 598 77 Q 570 86 541 94 Q 529 95 527 89 Q 524 82 535 72 Q 596 14 617 -20 Q 630 -35 643 -33 Q 653 -29 667 5 Q 686 39 684 103 Q 681 197 682 232 Q 689 274 671 295 Q 662 302 656 308 C 634 328 605 330 613 301 Z" fill="lightgray"/>
    <path d="M 466 240 Q 445 192 417 150 Q 399 120 414 91 Q 421 76 439 87 Q 484 118 488 189 Q 492 217 487 240 Q 483 247 477 248 Q 470 247 466 240 Z" fill="lightgray"/>
    <path d="M 755 215 Q 804 176 865 118 Q 881 100 897 97 Q 906 96 913 107 Q 923 120 908 163 Q 896 202 824 225 Q 778 240 754 245 Q 744 249 743 237 Q 744 224 755 215 Z" fill="lightgray"/></g>
<g transform="scale(1, -1) translate(0, -900)">
    <style type="text/css">
        .origin {display:none;}
        .hide {display:none;}
        .stroke {fill: #000000;}
        
.step1 {transform: translateX(1024px);}
.step2 {transform: translateX(2048px);}
.step3 {transform: translateX(3072px);}
.step4 {transform: translateX(4096px);}
.step5 {transform: translateX(5120px);}
.step6 {transform: translateX(6144px);}
.step7 {transform: translateX(7168px);}
.step8 {transform: translateX(8192px);}
.step9 {transform: translateX(9216px);}
.step10 {transform: translateX(10240px);}
.step11 {transform: translateX(11264px);}
.step12 {transform: translateX(12288px);}
.step13 {transform: translateX(13312px);}
.step14 {transform: translateX(14336px);}
.step15 {transform: translateX(15360px);}
.step16 {transform: translateX(16384px);}
.step17 {transform: translateX(17408px);}
.step18 {transform: translateX(18432px);}
.step19 {transform: translateX(19456px);}
.step20 {transform: translateX(20480px);}
.step21 {transform: translateX(21504px);}
.step22 {transform: translateX(22528px);}
.step23 {transform: translateX(23552px);}
.step24 {transform: translateX(24576px);}
.step25 {transform: translateX(25600px);}
.step26 {transform: translateX(26624px);}
.step27 {transform: translateX(27648px);}
.step28 {transform: translateX(28672px);}
.step29 {transform: translateX(29696px);}
    </style>

    <path d="M 145 624 Q 164 564 187 542 Q 199 535 212 542 Q 222 551 225 566 Q 228 588 217 606 Q 208 621 169 652 Q 157 662 148 662 Q 142 663 140 652 Q 137 642 145 624 Z" fill="lightgray" class="stroke step0"/>
    <path d="M 385 670 Q 372 642 346 595 Q 342 588 347 583 Q 354 583 359 588 Q 417 642 445 663 Q 458 669 454 677 Q 447 689 430 701 Q 412 713 394 712 Q 384 711 386 695 Q 390 685 385 670 Z" fill="lightgray" class="hide"/>
    <path d="M 314 459 Q 348 469 392 477 Q 407 480 406 487 Q 407 499 390 505 Q 363 517 315 500 L 273 488 Q 135 452 82 443 Q 70 442 68 434 Q 67 424 80 415 Q 113 396 160 410 Q 203 428 241 438 L 314 459 Z" fill="lightgray" class="hide"/>
    <path d="M 312 375 Q 312 415 314 459 L 315 500 Q 315 683 336 761 Q 345 774 342 788 Q 335 797 283 829 Q 261 845 242 831 Q 236 827 243 812 Q 273 767 274 691 Q 274 519 273 488 L 269 378 Q 265 243 255 195 Q 237 107 251 68 Q 252 61 257 53 Q 264 37 271 33 Q 277 27 284 35 Q 291 39 301 58 Q 311 82 310 111 Q 309 144 312 346 L 312 375 Z" fill="lightgray" class="hide"/>
    <path d="M 241 438 Q 192 296 41 138 Q 31 125 40 125 Q 49 122 59 129 Q 162 189 247 337 Q 257 358 269 378 C 318 461 256 480 241 438 Z" fill="lightgray" class="hide"/>
    <path d="M 312 346 Q 325 337 363 305 Q 373 295 386 297 Q 393 298 397 308 Q 400 320 392 343 Q 383 362 317 375 Q 314 376 312 375 C 282 372 288 363 312 346 Z" fill="lightgray" class="hide"/>
    <path d="M 602 769 Q 624 750 649 725 Q 664 712 681 713 Q 691 714 697 728 Q 701 744 691 775 Q 679 802 595 819 Q 579 822 572 819 Q 566 815 569 801 Q 573 791 602 769 Z" fill="lightgray" class="hide"/>
    <path d="M 516 607 Q 504 631 486 644 Q 482 648 477 644 Q 471 640 471 629 Q 472 596 446 536 Q 436 518 436 500 Q 440 481 449 466 Q 456 454 462 462 Q 474 465 491 511 Q 507 556 515 571 Q 518 575 520 580 C 525 590 525 590 516 607 Z" fill="lightgray" class="hide"/>
    <path d="M 520 580 Q 544 568 592 584 Q 673 615 784 628 Q 797 631 804 630 Q 817 623 816 617 Q 816 613 810 601 Q 776 538 781 533 Q 788 529 803 539 Q 855 570 899 580 Q 933 590 933 598 Q 932 608 866 657 Q 839 678 742 651 Q 735 651 585 620 Q 552 613 518 608 Q 517 608 516 607 C 487 601 491 589 520 580 Z" fill="lightgray" class="hide"/>
    <path d="M 551 463 Q 514 453 542 439 Q 581 423 653 439 Q 689 448 727 458 Q 746 464 749 467 Q 758 476 752 484 Q 745 496 714 501 Q 690 504 611 475 Q 581 468 551 463 Z" fill="lightgray" class="hide"/>
    <path d="M 656 308 Q 729 320 850 322 Q 898 322 904 331 Q 908 343 893 355 Q 835 394 776 372 Q 725 363 655 348 Q 570 333 467 317 Q 448 314 462 299 Q 475 286 493 282 Q 512 278 527 282 Q 567 295 613 301 L 656 308 Z" fill="lightgray" class="hide"/>
    <path d="M 613 301 Q 626 265 627 153 Q 627 95 622 82 Q 618 72 598 77 Q 570 86 541 94 Q 529 95 527 89 Q 524 82 535 72 Q 596 14 617 -20 Q 630 -35 643 -33 Q 653 -29 667 5 Q 686 39 684 103 Q 681 197 682 232 Q 689 274 671 295 Q 662 302 656 308 C 634 328 605 330 613 301 Z" fill="lightgray" class="hide"/>
    <path d="M 466 240 Q 445 192 417 150 Q 399 120 414 91 Q 421 76 439 87 Q 484 118 488 189 Q 492 217 487 240 Q 483 247 477 248 Q 470 247 466 240 Z" fill="lightgray" class="hide"/>
    <path d="M 755 215 Q 804 176 865 118 Q 881 100 897 97 Q 906 96 913 107 Q 923 120 908 163 Q 896 202 824 225 Q 778 240 754 245 Q 744 249 743 237 Q 744 224 755 215 Z" fill="lightgray" class="hide"/></g><g transform="scale(1, -1) translate(0, -900)">
    <style type="text/css">
        .origin {display:none;}
        .hide {display:none;}
        .stroke {fill: #000000;}
        
.step1 {transform: translateX(1024px);}
.step2 {transform: translateX(2048px);}
.step3 {transform: translateX(3072px);}
.step4 {transform: translateX(4096px);}
.step5 {transform: translateX(5120px);}
.step6 {transform: translateX(6144px);}
.step7 {transform: translateX(7168px);}
.step8 {transform: translateX(8192px);}
.step9 {transform: translateX(9216px);}
.step10 {transform: translateX(10240px);}
.step11 {transform: translateX(11264px);}
.step12 {transform: translateX(12288px);}
.step13 {transform: translateX(13312px);}
.step14 {transform: translateX(14336px);}
.step15 {transform: translateX(15360px);}
.step16 {transform: translateX(16384px);}
.step17 {transform: translateX(17408px);}
.step18 {transform: translateX(18432px);}
.step19 {transform: translateX(19456px);}
.step20 {transform: translateX(20480px);}
.step21 {transform: translateX(21504px);}
.step22 {transform: translateX(22528px);}
.step23 {transform: translateX(23552px);}
.step24 {transform: translateX(24576px);}
.step25 {transform: translateX(25600px);}
.step26 {transform: translateX(26624px);}
.step27 {transform: translateX(27648px);}
.step28 {transform: translateX(28672px);}
.step29 {transform: translateX(29696px);}
    </style>

    <path d="M 145 624 Q 164 564 187 542 Q 199 535 212 542 Q 222 551 225 566 Q 228 588 217 606 Q 208 621 169 652 Q 157 662 148 662 Q 142 663 140 652 Q 137 642 145 624 Z" fill="lightgray" class="stroke step1"/>
    <path d="M 385 670 Q 372 642 346 595 Q 342 588 347 583 Q 354 583 359 588 Q 417 642 445 663 Q 458 669 454 677 Q 447 689 430 701 Q 412 713 394 712 Q 384 711 386 695 Q 390 685 385 670 Z" fill="lightgray" class="stroke step1"/>
    <path d="M 314 459 Q 348 469 392 477 Q 407 480 406 487 Q 407 499 390 505 Q 363 517 315 500 L 273 488 Q 135 452 82 443 Q 70 442 68 434 Q 67 424 80 415 Q 113 396 160 410 Q 203 428 241 438 L 314 459 Z" fill="lightgray" class="hide"/>
    <path d="M 312 375 Q 312 415 314 459 L 315 500 Q 315 683 336 761 Q 345 774 342 788 Q 335 797 283 829 Q 261 845 242 831 Q 236 827 243 812 Q 273 767 274 691 Q 274 519 273 488 L 269 378 Q 265 243 255 195 Q 237 107 251 68 Q 252 61 257 53 Q 264 37 271 33 Q 277 27 284 35 Q 291 39 301 58 Q 311 82 310 111 Q 309 144 312 346 L 312 375 Z" fill="lightgray" class="hide"/>
    <path d="M 241 438 Q 192 296 41 138 Q 31 125 40 125 Q 49 122 59 129 Q 162 189 247 337 Q 257 358 269 378 C 318 461 256 480 241 438 Z" fill="lightgray" class="hide"/>
    <path d="M 312 346 Q 325 337 363 305 Q 373 295 386 297 Q 393 298 397 308 Q 400 320 392 343 Q 383 362 317 375 Q 314 376 312 375 C 282 372 288 363 312 346 Z" fill="lightgray" class="hide"/>
    <path d="M 602 769 Q 624 750 649 725 Q 664 712 681 713 Q 691 714 697 728 Q 701 744 691 775 Q 679 802 595 819 Q 579 822 572 819 Q 566 815 569 801 Q 573 791 602 769 Z" fill="lightgray" class="hide"/>
    <path d="M 516 607 Q 504 631 486 644 Q 482 648 477 644 Q 471 640 471 629 Q 472 596 446 536 Q 436 518 436 500 Q 440 481 449 466 Q 456 454 462 462 Q 474 465 491 511 Q 507 556 515 571 Q 518 575 520 580 C 525 590 525 590 516 607 Z" fill="lightgray" class="hide"/>
    <path d="M 520 580 Q 544 568 592 584 Q 673 615 784 628 Q 797 631 804 630 Q 817 623 816 617 Q 816 613 810 601 Q 776 538 781 533 Q 788 529 803 539 Q 855 570 899 580 Q 933 590 933 598 Q 932 608 866 657 Q 839 678 742 651 Q 735 651 585 620 Q 552 613 518 608 Q 517 608 516 607 C 487 601 491 589 520 580 Z" fill="lightgray" class="hide"/>
    <path d="M 551 463 Q 514 453 542 439 Q 581 423 653 439 Q 689 448 727 458 Q 746 464 749 467 Q 758 476 752 484 Q 745 496 714 501 Q 690 504 611 475 Q 581 468 551 463 Z" fill="lightgray" class="hide"/>
    <path d="M 656 308 Q 729 320 850 322 Q 898 322 904 331 Q 908 343 893 355 Q 835 394 776 372 Q 725 363 655 348 Q 570 333 467 317 Q 448 314 462 299 Q 475 286 493 282 Q 512 278 527 282 Q 567 295 613 301 L 656 308 Z" fill="lightgray" class="hide"/>
    <path d="M 613 301 Q 626 265 627 153 Q 627 95 622 82 Q 618 72 598 77 Q 570 86 541 94 Q 529 95 527 89 Q 524 82 535 72 Q 596 14 617 -20 Q 630 -35 643 -33 Q 653 -29 667 5 Q 686 39 684 103 Q 681 197 682 232 Q 689 274 671 295 Q 662 302 656 308 C 634 328 605 330 613 301 Z" fill="lightgray" class="hide"/>
    <path d="M 466 240 Q 445 192 417 150 Q 399 120 414 91 Q 421 76 439 87 Q 484 118 488 189 Q 492 217 487 240 Q 483 247 477 248 Q 470 247 466 240 Z" fill="lightgray" class="hide"/>
    <path d="M 755 215 Q 804 176 865 118 Q 881 100 897 97 Q 906 96 913 107 Q 923 120 908 163 Q 896 202 824 225 Q 778 240 754 245 Q 744 249 743 237 Q 744 224 755 215 Z" fill="lightgray" class="hide"/></g><g transform="scale(1, -1) translate(0, -900)">
    <style type="text/css">
        .origin {display:none;}
        .hide {display:none;}
        .stroke {fill: #000000;}
        
.step1 {transform: translateX(1024px);}
.step2 {transform: translateX(2048px);}
.step3 {transform: translateX(3072px);}
.step4 {transform: translateX(4096px);}
.step5 {transform: translateX(5120px);}
.step6 {transform: translateX(6144px);}
.step7 {transform: translateX(7168px);}
.step8 {transform: translateX(8192px);}
.step9 {transform: translateX(9216px);}
.step10 {transform: translateX(10240px);}
.step11 {transform: translateX(11264px);}
.step12 {transform: translateX(12288px);}
.step13 {transform: translateX(13312px);}
.step14 {transform: translateX(14336px);}
.step15 {transform: translateX(15360px);}
.step16 {transform: translateX(16384px);}
.step17 {transform: translateX(17408px);}
.step18 {transform: translateX(18432px);}
.step19 {transform: translateX(19456px);}
.step20 {transform: translateX(20480px);}
.step21 {transform: translateX(21504px);}
.step22 {transform: translateX(22528px);}
.step23 {transform: translateX(23552px);}
.step24 {transform: translateX(24576px);}
.step25 {transform: translateX(25600px);}
.step26 {transform: translateX(26624px);}
.step27 {transform: translateX(27648px);}
.step28 {transform: translateX(28672px);}
.step29 {transform: translateX(29696px);}
    </style>

    <path d="M 145 624 Q 164 564 187 542 Q 199 535 212 542 Q 222 551 225 566 Q 228 588 217 606 Q 208 621 169 652 Q 157 662 148 662 Q 142 663 140 652 Q 137 642 145 624 Z" fill="lightgray" class="stroke step2"/>
    <path d="M 385 670 Q 372 642 346 595 Q 342 588 347 583 Q 354 583 359 588 Q 417 642 445 663 Q 458 669 454 677 Q 447 689 430 701 Q 412 713 394 712 Q 384 711 386 695 Q 390 685 385 670 Z" fill="lightgray" class="stroke step2"/>
    <path d="M 314 459 Q 348 469 392 477 Q 407 480 406 487 Q 407 499 390 505 Q 363 517 315 500 L 273 488 Q 135 452 82 443 Q 70 442 68 434 Q 67 424 80 415 Q 113 396 160 410 Q 203 428 241 438 L 314 459 Z" fill="lightgray" class="stroke step2"/>
    <path d="M 312 375 Q 312 415 314 459 L 315 500 Q 315 683 336 761 Q 345 774 342 788 Q 335 797 283 829 Q 261 845 242 831 Q 236 827 243 812 Q 273 767 274 691 Q 274 519 273 488 L 269 378 Q 265 243 255 195 Q 237 107 251 68 Q 252 61 257 53 Q 264 37 271 33 Q 277 27 284 35 Q 291 39 301 58 Q 311 82 310 111 Q 309 144 312 346 L 312 375 Z" fill="lightgray" class="hide"/>
    <path d="M 241 438 Q 192 296 41 138 Q 31 125 40 125 Q 49 122 59 129 Q 162 189 247 337 Q 257 358 269 378 C 318 461 256 480 241 438 Z" fill="lightgray" class="hide"/>
    <path d="M 312 346 Q 325 337 363 305 Q 373 295 386 297 Q 393 298 397 308 Q 400 320 392 343 Q 383 362 317 375 Q 314 376 312 375 C 282 372 288 363 312 346 Z" fill="lightgray" class="hide"/>
    <path d="M 602 769 Q 624 750 649 725 Q 664 712 681 713 Q 691 714 697 728 Q 701 744 691 775 Q 679 802 595 819 Q 579 822 572 819 Q 566 815 569 801 Q 573 791 602 769 Z" fill="lightgray" class="hide"/>
    <path d="M 516 607 Q 504 631 486 644 Q 482 648 477 644 Q 471 640 471 629 Q 472 596 446 536 Q 436 518 436 500 Q 440 481 449 466 Q 456 454 462 462 Q 474 465 491 511 Q 507 556 515 571 Q 518 575 520 580 C 525 590 525 590 516 607 Z" fill="lightgray" class="hide"/>
    <path d="M 520 580 Q 544 568 592 584 Q 673 615 784 628 Q 797 631 804 630 Q 817 623 816 617 Q 816 613 810 601 Q 776 538 781 533 Q 788 529 803 539 Q 855 570 899 580 Q 933 590 933 598 Q 932 608 866 657 Q 839 678 742 651 Q 735 651 585 620 Q 552 613 518 608 Q 517 608 516 607 C 487 601 491 589 520 580 Z" fill="lightgray" class="hide"/>
    <path d="M 551 463 Q 514 453 542 439 Q 581 423 653 439 Q 689 448 727 458 Q 746 464 749 467 Q 758 476 752 484 Q 745 496 714 501 Q 690 504 611 475 Q 581 468 551 463 Z" fill="lightgray" class="hide"/>
    <path d="M 656 308 Q 729 320 850 322 Q 898 322 904 331 Q 908 343 893 355 Q 835 394 776 372 Q 725 363 655 348 Q 570 333 467 317 Q 448 314 462 299 Q 475 286 493 282 Q 512 278 527 282 Q 567 295 613 301 L 656 308 Z" fill="lightgray" class="hide"/>
    <path d="M 613 301 Q 626 265 627 153 Q 627 95 622 82 Q 618 72 598 77 Q 570 86 541 94 Q 529 95 527 89 Q 524 82 535 72 Q 596 14 617 -20 Q 630 -35 643 -33 Q 653 -29 667 5 Q 686 39 684 103 Q 681 197 682 232 Q 689 274 671 295 Q 662 302 656 308 C 634 328 605 330 613 301 Z" fill="lightgray" class="hide"/>
    <path d="M 466 240 Q 445 192 417 150 Q 399 120 414 91 Q 421 76 439 87 Q 484 118 488 189 Q 492 217 487 240 Q 483 247 477 248 Q 470 247 466 240 Z" fill="lightgray" class="hide"/>
    <path d="M 755 215 Q 804 176 865 118 Q 881 100 897 97 Q 906 96 913 107 Q 923 120 908 163 Q 896 202 824 225 Q 778 240 754 245 Q 744 249 743 237 Q 744 224 755 215 Z" fill="lightgray" class="hide"/></g><g transform="scale(1, -1) translate(0, -900)">
    <style type="text/css">
        .origin {display:none;}
        .hide {display:none;}
        .stroke {fill: #000000;}
        
.step1 {transform: translateX(1024px);}
.step2 {transform: translateX(2048px);}
.step3 {transform: translateX(3072px);}
.step4 {transform: translateX(4096px);}
.step5 {transform: translateX(5120px);}
.step6 {transform: translateX(6144px);}
.step7 {transform: translateX(7168px);}
.step8 {transform: translateX(8192px);}
.step9 {transform: translateX(9216px);}
.step10 {transform: translateX(10240px);}
.step11 {transform: translateX(11264px);}
.step12 {transform: translateX(12288px);}
.step13 {transform: translateX(13312px);}
.step14 {transform: translateX(14336px);}
.step15 {transform: translateX(15360px);}
.step16 {transform: translateX(16384px);}
.step17 {transform: translateX(17408px);}
.step18 {transform: translateX(18432px);}
.step19 {transform: translateX(19456px);}
.step20 {transform: translateX(20480px);}
.step21 {transform: translateX(21504px);}
.step22 {transform: translateX(22528px);}
.step23 {transform: translateX(23552px);}
.step24 {transform: translateX(24576px);}
.step25 {transform: translateX(25600px);}
.step26 {transform: translateX(26624px);}
.step27 {transform: translateX(27648px);}
.step28 {transform: translateX(28672px);}
.step29 {transform: translateX(29696px);}
    </style>

    <path d="M 145 624 Q 164 564 187 542 Q 199 535 212 542 Q 222 551 225 566 Q 228 588 217 606 Q 208 621 169 652 Q 157 662 148 662 Q 142 663 140 652 Q 137 642 145 624 Z" fill="lightgray" class="stroke step3"/>
    <path d="M 385 670 Q 372 642 346 595 Q 342 588 347 583 Q 354 583 359 588 Q 417 642 445 663 Q 458 669 454 677 Q 447 689 430 701 Q 412 713 394 712 Q 384 711 386 695 Q 390 685 385 670 Z" fill="lightgray" class="stroke step3"/>
    <path d="M 314 459 Q 348 469 392 477 Q 407 480 406 487 Q 407 499 390 505 Q 363 517 315 500 L 273 488 Q 135 452 82 443 Q 70 442 68 434 Q 67 424 80 415 Q 113 396 160 410 Q 203 428 241 438 L 314 459 Z" fill="lightgray" class="stroke step3"/>
    <path d="M 312 375 Q 312 415 314 459 L 315 500 Q 315 683 336 761 Q 345 774 342 788 Q 335 797 283 829 Q 261 845 242 831 Q 236 827 243 812 Q 273 767 274 691 Q 274 519 273 488 L 269 378 Q 265 243 255 195 Q 237 107 251 68 Q 252 61 257 53 Q 264 37 271 33 Q 277 27 284 35 Q 291 39 301 58 Q 311 82 310 111 Q 309 144 312 346 L 312 375 Z" fill="lightgray" class="stroke step3"/>
    <path d="M 241 438 Q 192 296 41 138 Q 31 125 40 125 Q 49 122 59 129 Q 162 189 247 337 Q 257 358 269 378 C 318 461 256 480 241 438 Z" fill="lightgray" class="hide"/>
    <path d="M 312 346 Q 325 337 363 305 Q 373 295 386 297 Q 393 298 397 308 Q 400 320 392 343 Q 383 362 317 375 Q 314 376 312 375 C 282 372 288 363 312 346 Z" fill="lightgray" class="hide"/>
    <path d="M 602 769 Q 624 750 649 725 Q 664 712 681 713 Q 691 714 697 728 Q 701 744 691 775 Q 679 802 595 819 Q 579 822 572 819 Q 566 815 569 801 Q 573 791 602 769 Z" fill="lightgray" class="hide"/>
    <path d="M 516 607 Q 504 631 486 644 Q 482 648 477 644 Q 471 640 471 629 Q 472 596 446 536 Q 436 518 436 500 Q 440 481 449 466 Q 456 454 462 462 Q 474 465 491 511 Q 507 556 515 571 Q 518 575 520 580 C 525 590 525 590 516 607 Z" fill="lightgray" class="hide"/>
    <path d="M 520 580 Q 544 568 592 584 Q 673 615 784 628 Q 797 631 804 630 Q 817 623 816 617 Q 816 613 810 601 Q 776 538 781 533 Q 788 529 803 539 Q 855 570 899 580 Q 933 590 933 598 Q 932 608 866 657 Q 839 678 742 651 Q 735 651 585 620 Q 552 613 518 608 Q 517 608 516 607 C 487 601 491 589 520 580 Z" fill="lightgray" class="hide"/>
    <path d="M 551 463 Q 514 453 542 439 Q 581 423 653 439 Q 689 448 727 458 Q 746 464 749 467 Q 758 476 752 484 Q 745 496 714 501 Q 690 504 611 475 Q 581 468 551 463 Z" fill="lightgray" class="hide"/>
    <path d="M 656 308 Q 729 320 850 322 Q 898 322 904 331 Q 908 343 893 355 Q 835 394 776 372 Q 725 363 655 348 Q 570 333 467 317 Q 448 314 462 299 Q 475 286 493 282 Q 512 278 527 282 Q 567 295 613 301 L 656 308 Z" fill="lightgray" class="hide"/>
    <path d="M 613 301 Q 626 265 627 153 Q 627 95 622 82 Q 618 72 598 77 Q 570 86 541 94 Q 529 95 527 89 Q 524 82 535 72 Q 596 14 617 -20 Q 630 -35 643 -33 Q 653 -29 667 5 Q 686 39 684 103 Q 681 197 682 232 Q 689 274 671 295 Q 662 302 656 308 C 634 328 605 330 613 301 Z" fill="lightgray" class="hide"/>
    <path d="M 466 240 Q 445 192 417 150 Q 399 120 414 91 Q 421 76 439 87 Q 484 118 488 189 Q 492 217 487 240 Q 483 247 477 248 Q 470 247 466 240 Z" fill="lightgray" class="hide"/>
    <path d="M 755 215 Q 804 176 865 118 Q 881 100 897 97 Q 906 96 913 107 Q 923 120 908 163 Q 896 202 824 225 Q 778 240 754 245 Q 744 249 743 237 Q 744 224 755 215 Z" fill="lightgray" class="hide"/></g><g transform="scale(1, -1) translate(0, -900)">
    <style type="text/css">
        .origin {display:none;}
        .hide {display:none;}
        .stroke {fill: #000000;}
        
.step1 {transform: translateX(1024px);}
.step2 {transform: translateX(2048px);}
.step3 {transform: translateX(3072px);}
.step4 {transform: translateX(4096px);}
.step5 {transform: translateX(5120px);}
.step6 {transform: translateX(6144px);}
.step7 {transform: translateX(7168px);}
.step8 {transform: translateX(8192px);}
.step9 {transform: translateX(9216px);}
.step10 {transform: translateX(10240px);}
.step11 {transform: translateX(11264px);}
.step12 {transform: translateX(12288px);}
.step13 {transform: translateX(13312px);}
.step14 {transform: translateX(14336px);}
.step15 {transform: translateX(15360px);}
.step16 {transform: translateX(16384px);}
.step17 {transform: translateX(17408px);}
.step18 {transform: translateX(18432px);}
.step19 {transform: translateX(19456px);}
.step20 {transform: translateX(20480px);}
.step21 {transform: translateX(21504px);}
.step22 {transform: translateX(22528px);}
.step23 {transform: translateX(23552px);}
.step24 {transform: translateX(24576px);}
.step25 {transform: translateX(25600px);}
.step26 {transform: translateX(26624px);}
.step27 {transform: translateX(27648px);}
.step28 {transform: translateX(28672px);}
.step29 {transform: translateX(29696px);}
    </style>

    <path d="M 145 624 Q 164 564 187 542 Q 199 535 212 542 Q 222 551 225 566 Q 228 588 217 606 Q 208 621 169 652 Q 157 662 148 662 Q 142 663 140 652 Q 137 642 145 624 Z" fill="lightgray" class="stroke step4"/>
    <path d="M 385 670 Q 372 642 346 595 Q 342 588 347 583 Q 354 583 359 588 Q 417 642 445 663 Q 458 669 454 677 Q 447 689 430 701 Q 412 713 394 712 Q 384 711 386 695 Q 390 685 385 670 Z" fill="lightgray" class="stroke step4"/>
    <path d="M 314 459 Q 348 469 392 477 Q 407 480 406 487 Q 407 499 390 505 Q 363 517 315 500 L 273 488 Q 135 452 82 443 Q 70 442 68 434 Q 67 424 80 415 Q 113 396 160 410 Q 203 428 241 438 L 314 459 Z" fill="lightgray" class="stroke step4"/>
    <path d="M 312 375 Q 312 415 314 459 L 315 500 Q 315 683 336 761 Q 345 774 342 788 Q 335 797 283 829 Q 261 845 242 831 Q 236 827 243 812 Q 273 767 274 691 Q 274 519 273 488 L 269 378 Q 265 243 255 195 Q 237 107 251 68 Q 252 61 257 53 Q 264 37 271 33 Q 277 27 284 35 Q 291 39 301 58 Q 311 82 310 111 Q 309 144 312 346 L 312 375 Z" fill="lightgray" class="stroke step4"/>
    <path d="M 241 438 Q 192 296 41 138 Q 31 125 40 125 Q 49 122 59 129 Q 162 189 247 337 Q 257 358 269 378 C 318 461 256 480 241 438 Z" fill="lightgray" class="stroke step4"/>
    <path d="M 312 346 Q 325 337 363 305 Q 373 295 386 297 Q 393 298 397 308 Q 400 320 392 343 Q 383 362 317 375 Q 314 376 312 375 C 282 372 288 363 312 346 Z" fill="lightgray" class="hide"/>
    <path d="M 602 769 Q 624 750 649 725 Q 664 712 681 713 Q 691 714 697 728 Q 701 744 691 775 Q 679 802 595 819 Q 579 822 572 819 Q 566 815 569 801 Q 573 791 602 769 Z" fill="lightgray" class="hide"/>
    <path d="M 516 607 Q 504 631 486 644 Q 482 648 477 644 Q 471 640 471 629 Q 472 596 446 536 Q 436 518 436 500 Q 440 481 449 466 Q 456 454 462 462 Q 474 465 491 511 Q 507 556 515 571 Q 518 575 520 580 C 525 590 525 590 516 607 Z" fill="lightgray" class="hide"/>
    <path d="M 520 580 Q 544 568 592 584 Q 673 615 784 628 Q 797 631 804 630 Q 817 623 816 617 Q 816 613 810 601 Q 776 538 781 533 Q 788 529 803 539 Q 855 570 899 580 Q 933 590 933 598 Q 932 608 866 657 Q 839 678 742 651 Q 735 651 585 620 Q 552 613 518 608 Q 517 608 516 607 C 487 601 491 589 520 580 Z" fill="lightgray" class="hide"/>
    <path d="M 551 463 Q 514 453 542 439 Q 581 423 653 439 Q 689 448 727 458 Q 746 464 749 467 Q 758 476 752 484 Q 745 496 714 501 Q 690 504 611 475 Q 581 468 551 463 Z" fill="lightgray" class="hide"/>
    <path d="M 656 308 Q 729 320 850 322 Q 898 322 904 331 Q 908 343 893 355 Q 835 394 776 372 Q 725 363 655 348 Q 570 333 467 317 Q 448 314 462 299 Q 475 286 493 282 Q 512 278 527 282 Q 567 295 613 301 L 656 308 Z" fill="lightgray" class="hide"/>
    <path d="M 613 301 Q 626 265 627 153 Q 627 95 622 82 Q 618 72 598 77 Q 570 86 541 94 Q 529 95 527 89 Q 524 82 535 72 Q 596 14 617 -20 Q 630 -35 643 -33 Q 653 -29 667 5 Q 686 39 684 103 Q 681 197 682 232 Q 689 274 671 295 Q 662 302 656 308 C 634 328 605 330 613 301 Z" fill="lightgray" class="hide"/>
    <path d="M 466 240 Q 445 192 417 150 Q 399 120 414 91 Q 421 76 439 87 Q 484 118 488 189 Q 492 217 487 240 Q 483 247 477 248 Q 470 247 466 240 Z" fill="lightgray" class="hide"/>
    <path d="M 755 215 Q 804 176 865 118 Q 881 100 897 97 Q 906 96 913 107 Q 923 120 908 163 Q 896 202 824 225 Q 778 240 754 245 Q 744 249 743 237 Q 744 224 755 215 Z" fill="lightgray" class="hide"/></g><g transform="scale(1, -1) translate(0, -900)">
    <style type="text/css">
        .origin {display:none;}
        .hide {display:none;}
        .stroke {fill: #000000;}
        
.step1 {transform: translateX(1024px);}
.step2 {transform: translateX(2048px);}
.step3 {transform: translateX(3072px);}
.step4 {transform: translateX(4096px);}
.step5 {transform: translateX(5120px);}
.step6 {transform: translateX(6144px);}
.step7 {transform: translateX(7168px);}
.step8 {transform: translateX(8192px);}
.step9 {transform: translateX(9216px);}
.step10 {transform: translateX(10240px);}
.step11 {transform: translateX(11264px);}
.step12 {transform: translateX(12288px);}
.step13 {transform: translateX(13312px);}
.step14 {transform: translateX(14336px);}
.step15 {transform: translateX(15360px);}
.step16 {transform: translateX(16384px);}
.step17 {transform: translateX(17408px);}
.step18 {transform: translateX(18432px);}
.step19 {transform: translateX(19456px);}
.step20 {transform: translateX(20480px);}
.step21 {transform: translateX(21504px);}
.step22 {transform: translateX(22528px);}
.step23 {transform: translateX(23552px);}
.step24 {transform: translateX(24576px);}
.step25 {transform: translateX(25600px);}
.step26 {transform: translateX(26624px);}
.step27 {transform: translateX(27648px);}
.step28 {transform: translateX(28672px);}
.step29 {transform: translateX(29696px);}
    </style>

    <path d="M 145 624 Q 164 564 187 542 Q 199 535 212 542 Q 222 551 225 566 Q 228 588 217 606 Q 208 621 169 652 Q 157 662 148 662 Q 142 663 140 652 Q 137 642 145 624 Z" fill="lightgray" class="stroke step5"/>
    <path d="M 385 670 Q 372 642 346 595 Q 342 588 347 583 Q 354 583 359 588 Q 417 642 445 663 Q 458 669 454 677 Q 447 689 430 701 Q 412 713 394 712 Q 384 711 386 695 Q 390 685 385 670 Z" fill="lightgray" class="stroke step5"/>
    <path d="M 314 459 Q 348 469 392 477 Q 407 480 406 487 Q 407 499 390 505 Q 363 517 315 500 L 273 488 Q 135 452 82 443 Q 70 442 68 434 Q 67 424 80 415 Q 113 396 160 410 Q 203 428 241 438 L 314 459 Z" fill="lightgray" class="stroke step5"/>
    <path d="M 312 375 Q 312 415 314 459 L 315 500 Q 315 683 336 761 Q 345 774 342 788 Q 335 797 283 829 Q 261 845 242 831 Q 236 827 243 812 Q 273 767 274 691 Q 274 519 273 488 L 269 378 Q 265 243 255 195 Q 237 107 251 68 Q 252 61 257 53 Q 264 37 271 33 Q 277 27 284 35 Q 291 39 301 58 Q 311 82 310 111 Q 309 144 312 346 L 312 375 Z" fill="lightgray" class="stroke step5"/>
    <path d="M 241 438 Q 192 296 41 138 Q 31 125 40 125 Q 49 122 59 129 Q 162 189 247 337 Q 257 358 269 378 C 318 461 256 480 241 438 Z" fill="lightgray" class="stroke step5"/>
    <path d="M 312 346 Q 325 337 363 305 Q 373 295 386 297 Q 393 298 397 308 Q 400 320 392 343 Q 383 362 317 375 Q 314 376 312 375 C 282 372 288 363 312 346 Z" fill="lightgray" class="stroke step5"/>
    <path d="M 602 769 Q 624 750 649 725 Q 664 712 681 713 Q 691 714 697 728 Q 701 744 691 775 Q 679 802 595 819 Q 579 822 572 819 Q 566 815 569 801 Q 573 791 602 769 Z" fill="lightgray" class="hide"/>
    <path d="M 516 607 Q 504 631 486 644 Q 482 648 477 644 Q 471 640 471 629 Q 472 596 446 536 Q 436 518 436 500 Q 440 481 449 466 Q 456 454 462 462 Q 474 465 491 511 Q 507 556 515 571 Q 518 575 520 580 C 525 590 525 590 516 607 Z" fill="lightgray" class="hide"/>
    <path d="M 520 580 Q 544 568 592 584 Q 673 615 784 628 Q 797 631 804 630 Q 817 623 816 617 Q 816 613 810 601 Q 776 538 781 533 Q 788 529 803 539 Q 855 570 899 580 Q 933 590 933 598 Q 932 608 866 657 Q 839 678 742 651 Q 735 651 585 620 Q 552 613 518 608 Q 517 608 516 607 C 487 601 491 589 520 580 Z" fill="lightgray" class="hide"/>
    <path d="M 551 463 Q 514 453 542 439 Q 581 423 653 439 Q 689 448 727 458 Q 746 464 749 467 Q 758 476 752 484 Q 745 496 714 501 Q 690 504 611 475 Q 581 468 551 463 Z" fill="lightgray" class="hide"/>
    <path d="M 656 308 Q 729 320 850 322 Q 898 322 904 331 Q 908 343 893 355 Q 835 394 776 372 Q 725 363 655 348 Q 570 333 467 317 Q 448 314 462 299 Q 475 286 493 282 Q 512 278 527 282 Q 567 295 613 301 L 656 308 Z" fill="lightgray" class="hide"/>
    <path d="M 613 301 Q 626 265 627 153 Q 627 95 622 82 Q 618 72 598 77 Q 570 86 541 94 Q 529 95 527 89 Q 524 82 535 72 Q 596 14 617 -20 Q 630 -35 643 -33 Q 653 -29 667 5 Q 686 39 684 103 Q 681 197 682 232 Q 689 274 671 295 Q 662 302 656 308 C 634 328 605 330 613 301 Z" fill="lightgray" class="hide"/>
    <path d="M 466 240 Q 445 192 417 150 Q 399 120 414 91 Q 421 76 439 87 Q 484 118 488 189 Q 492 217 487 240 Q 483 247 477 248 Q 470 247 466 240 Z" fill="lightgray" class="hide"/>
    <path d="M 755 215 Q 804 176 865 118 Q 881 100 897 97 Q 906 96 913 107 Q 923 120 908 163 Q 896 202 824 225 Q 778 240 754 245 Q 744 249 743 237 Q 744 224 755 215 Z" fill="lightgray" class="hide"/></g><g transform="scale(1, -1) translate(0, -900)">
    <style type="text/css">
        .origin {display:none;}
        .hide {display:none;}
        .stroke {fill: #000000;}
        
.step1 {transform: translateX(1024px);}
.step2 {transform: translateX(2048px);}
.step3 {transform: translateX(3072px);}
.step4 {transform: translateX(4096px);}
.step5 {transform: translateX(5120px);}
.step6 {transform: translateX(6144px);}
.step7 {transform: translateX(7168px);}
.step8 {transform: translateX(8192px);}
.step9 {transform: translateX(9216px);}
.step10 {transform: translateX(10240px);}
.step11 {transform: translateX(11264px);}
.step12 {transform: translateX(12288px);}
.step13 {transform: translateX(13312px);}
.step14 {transform: translateX(14336px);}
.step15 {transform: translateX(15360px);}
.step16 {transform: translateX(16384px);}
.step17 {transform: translateX(17408px);}
.step18 {transform: translateX(18432px);}
.step19 {transform: translateX(19456px);}
.step20 {transform: translateX(20480px);}
.step21 {transform: translateX(21504px);}
.step22 {transform: translateX(22528px);}
.step23 {transform: translateX(23552px);}
.step24 {transform: translateX(24576px);}
.step25 {transform: translateX(25600px);}
.step26 {transform: translateX(26624px);}
.step27 {transform: translateX(27648px);}
.step28 {transform: translateX(28672px);}
.step29 {transform: translateX(29696px);}
    </style>

    <path d="M 145 624 Q 164 564 187 542 Q 199 535 212 542 Q 222 551 225 566 Q 228 588 217 606 Q 208 621 169 652 Q 157 662 148 662 Q 142 663 140 652 Q 137 642 145 624 Z" fill="lightgray" class="stroke step6"/>
    <path d="M 385 670 Q 372 642 346 595 Q 342 588 347 583 Q 354 583 359 588 Q 417 642 445 663 Q 458 669 454 677 Q 447 689 430 701 Q 412 713 394 712 Q 384 711 386 695 Q 390 685 385 670 Z" fill="lightgray" class="stroke step6"/>
    <path d="M 314 459 Q 348 469 392 477 Q 407 480 406 487 Q 407 499 390 505 Q 363 517 315 500 L 273 488 Q 135 452 82 443 Q 70 442 68 434 Q 67 424 80 415 Q 113 396 160 410 Q 203 428 241 438 L 314 459 Z" fill="lightgray" class="stroke step6"/>
    <path d="M 312 375 Q 312 415 314 459 L 315 500 Q 315 683 336 761 Q 345 774 342 788 Q 335 797 283 829 Q 261 845 242 831 Q 236 827 243 812 Q 273 767 274 691 Q 274 519 273 488 L 269 378 Q 265 243 255 195 Q 237 107 251 68 Q 252 61 257 53 Q 264 37 271 33 Q 277 27 284 35 Q 291 39 301 58 Q 311 82 310 111 Q 309 144 312 346 L 312 375 Z" fill="lightgray" class="stroke step6"/>
    <path d="M 241 438 Q 192 296 41 138 Q 31 125 40 125 Q 49 122 59 129 Q 162 189 247 337 Q 257 358 269 378 C 318 461 256 480 241 438 Z" fill="lightgray" class="stroke step6"/>
    <path d="M 312 346 Q 325 337 363 305 Q 373 295 386 297 Q 393 298 397 308 Q 400 320 392 343 Q 383 362 317 375 Q 314 376 312 375 C 282 372 288 363 312 346 Z" fill="lightgray" class="stroke step6"/>
    <path d="M 602 769 Q 624 750 649 725 Q 664 712 681 713 Q 691 714 697 728 Q 701 744 691 775 Q 679 802 595 819 Q 579 822 572 819 Q 566 815 569 801 Q 573 791 602 769 Z" fill="lightgray" class="stroke step6"/>
    <path d="M 516 607 Q 504 631 486 644 Q 482 648 477 644 Q 471 640 471 629 Q 472 596 446 536 Q 436 518 436 500 Q 440 481 449 466 Q 456 454 462 462 Q 474 465 491 511 Q 507 556 515 571 Q 518 575 520 580 C 525 590 525 590 516 607 Z" fill="lightgray" class="hide"/>
    <path d="M 520 580 Q 544 568 592 584 Q 673 615 784 628 Q 797 631 804 630 Q 817 623 816 617 Q 816 613 810 601 Q 776 538 781 533 Q 788 529 803 539 Q 855 570 899 580 Q 933 590 933 598 Q 932 608 866 657 Q 839 678 742 651 Q 735 651 585 620 Q 552 613 518 608 Q 517 608 516 607 C 487 601 491 589 520 580 Z" fill="lightgray" class="hide"/>
    <path d="M 551 463 Q 514 453 542 439 Q 581 423 653 439 Q 689 448 727 458 Q 746 464 749 467 Q 758 476 752 484 Q 745 496 714 501 Q 690 504 611 475 Q 581 468 551 463 Z" fill="lightgray" class="hide"/>
    <path d="M 656 308 Q 729 320 850 322 Q 898 322 904 331 Q 908 343 893 355 Q 835 394 776 372 Q 725 363 655 348 Q 570 333 467 317 Q 448 314 462 299 Q 475 286 493 282 Q 512 278 527 282 Q 567 295 613 301 L 656 308 Z" fill="lightgray" class="hide"/>
    <path d="M 613 301 Q 626 265 627 153 Q 627 95 622 82 Q 618 72 598 77 Q 570 86 541 94 Q 529 95 527 89 Q 524 82 535 72 Q 596 14 617 -20 Q 630 -35 643 -33 Q 653 -29 667 5 Q 686 39 684 103 Q 681 197 682 232 Q 689 274 671 295 Q 662 302 656 308 C 634 328 605 330 613 301 Z" fill="lightgray" class="hide"/>
    <path d="M 466 240 Q 445 192 417 150 Q 399 120 414 91 Q 421 76 439 87 Q 484 118 488 189 Q 492 217 487 240 Q 483 247 477 248 Q 470 247 466 240 Z" fill="lightgray" class="hide"/>
    <path d="M 755 215 Q 804 176 865 118 Q 881 100 897 97 Q 906 96 913 107 Q 923 120 908 163 Q 896 202 824 225 Q 778 240 754 245 Q 744 249 743 237 Q 744 224 755 215 Z" fill="lightgray" class="hide"/></g><g transform="scale(1, -1) translate(0, -900)">
    <style type="text/css">
        .origin {display:none;}
        .hide {display:none;}
        .stroke {fill: #000000;}
        
.step1 {transform: translateX(1024px);}
.step2 {transform: translateX(2048px);}
.step3 {transform: translateX(3072px);}
.step4 {transform: translateX(4096px);}
.step5 {transform: translateX(5120px);}
.step6 {transform: translateX(6144px);}
.step7 {transform: translateX(7168px);}
.step8 {transform: translateX(8192px);}
.step9 {transform: translateX(9216px);}
.step10 {transform: translateX(10240px);}
.step11 {transform: translateX(11264px);}
.step12 {transform: translateX(12288px);}
.step13 {transform: translateX(13312px);}
.step14 {transform: translateX(14336px);}
.step15 {transform: translateX(15360px);}
.step16 {transform: translateX(16384px);}
.step17 {transform: translateX(17408px);}
.step18 {transform: translateX(18432px);}
.step19 {transform: translateX(19456px);}
.step20 {transform: translateX(20480px);}
.step21 {transform: translateX(21504px);}
.step22 {transform: translateX(22528px);}
.step23 {transform: translateX(23552px);}
.step24 {transform: translateX(24576px);}
.step25 {transform: translateX(25600px);}
.step26 {transform: translateX(26624px);}
.step27 {transform: translateX(27648px);}
.step28 {transform: translateX(28672px);}
.step29 {transform: translateX(29696px);}
    </style>

    <path d="M 145 624 Q 164 564 187 542 Q 199 535 212 542 Q 222 551 225 566 Q 228 588 217 606 Q 208 621 169 652 Q 157 662 148 662 Q 142 663 140 652 Q 137 642 145 624 Z" fill="lightgray" class="stroke step7"/>
    <path d="M 385 670 Q 372 642 346 595 Q 342 588 347 583 Q 354 583 359 588 Q 417 642 445 663 Q 458 669 454 677 Q 447 689 430 701 Q 412 713 394 712 Q 384 711 386 695 Q 390 685 385 670 Z" fill="lightgray" class="stroke step7"/>
    <path d="M 314 459 Q 348 469 392 477 Q 407 480 406 487 Q 407 499 390 505 Q 363 517 315 500 L 273 488 Q 135 452 82 443 Q 70 442 68 434 Q 67 424 80 415 Q 113 396 160 410 Q 203 428 241 438 L 314 459 Z" fill="lightgray" class="stroke step7"/>
    <path d="M 312 375 Q 312 415 314 459 L 315 500 Q 315 683 336 761 Q 345 774 342 788 Q 335 797 283 829 Q 261 845 242 831 Q 236 827 243 812 Q 273 767 274 691 Q 274 519 273 488 L 269 378 Q 265 243 255 195 Q 237 107 251 68 Q 252 61 257 53 Q 264 37 271 33 Q 277 27 284 35 Q 291 39 301 58 Q 311 82 310 111 Q 309 144 312 346 L 312 375 Z" fill="lightgray" class="stroke step7"/>
    <path d="M 241 438 Q 192 296 41 138 Q 31 125 40 125 Q 49 122 59 129 Q 162 189 247 337 Q 257 358 269 378 C 318 461 256 480 241 438 Z" fill="lightgray" class="stroke step7"/>
    <path d="M 312 346 Q 325 337 363 305 Q 373 295 386 297 Q 393 298 397 308 Q 400 320 392 343 Q 383 362 317 375 Q 314 376 312 375 C 282 372 288 363 312 346 Z" fill="lightgray" class="stroke step7"/>
    <path d="M 602 769 Q 624 750 649 725 Q 664 712 681 713 Q 691 714 697 728 Q 701 744 691 775 Q 679 802 595 819 Q 579 822 572 819 Q 566 815 569 801 Q 573 791 602 769 Z" fill="lightgray" class="stroke step7"/>
    <path d="M 516 607 Q 504 631 486 644 Q 482 648 477 644 Q 471 640 471 629 Q 472 596 446 536 Q 436 518 436 500 Q 440 481 449 466 Q 456 454 462 462 Q 474 465 491 511 Q 507 556 515 571 Q 518 575 520 580 C 525 590 525 590 516 607 Z" fill="lightgray" class="stroke step7"/>
    <path d="M 520 580 Q 544 568 592 584 Q 673 615 784 628 Q 797 631 804 630 Q 817 623 816 617 Q 816 613 810 601 Q 776 538 781 533 Q 788 529 803 539 Q 855 570 899 580 Q 933 590 933 598 Q 932 608 866 657 Q 839 678 742 651 Q 735 651 585 620 Q 552 613 518 608 Q 517 608 516 607 C 487 601 491 589 520 580 Z" fill="lightgray" class="hide"/>
    <path d="M 551 463 Q 514 453 542 439 Q 581 423 653 439 Q 689 448 727 458 Q 746 464 749 467 Q 758 476 752 484 Q 745 496 714 501 Q 690 504 611 475 Q 581 468 551 463 Z" fill="lightgray" class="hide"/>
    <path d="M 656 308 Q 729 320 850 322 Q 898 322 904 331 Q 908 343 893 355 Q 835 394 776 372 Q 725 363 655 348 Q 570 333 467 317 Q 448 314 462 299 Q 475 286 493 282 Q 512 278 527 282 Q 567 295 613 301 L 656 308 Z" fill="lightgray" class="hide"/>
    <path d="M 613 301 Q 626 265 627 153 Q 627 95 622 82 Q 618 72 598 77 Q 570 86 541 94 Q 529 95 527 89 Q 524 82 535 72 Q 596 14 617 -20 Q 630 -35 643 -33 Q 653 -29 667 5 Q 686 39 684 103 Q 681 197 682 232 Q 689 274 671 295 Q 662 302 656 308 C 634 328 605 330 613 301 Z" fill="lightgray" class="hide"/>
    <path d="M 466 240 Q 445 192 417 150 Q 399 120 414 91 Q 421 76 439 87 Q 484 118 488 189 Q 492 217 487 240 Q 483 247 477 248 Q 470 247 466 240 Z" fill="lightgray" class="hide"/>
    <path d="M 755 215 Q 804 176 865 118 Q 881 100 897 97 Q 906 96 913 107 Q 923 120 908 163 Q 896 202 824 225 Q 778 240 754 245 Q 744 249 743 237 Q 744 224 755 215 Z" fill="lightgray" class="hide"/></g><g transform="scale(1, -1) translate(0, -900)">
    <style type="text/css">
        .origin {display:none;}
        .hide {display:none;}
        .stroke {fill: #000000;}
        
.step1 {transform: translateX(1024px);}
.step2 {transform: translateX(2048px);}
.step3 {transform: translateX(3072px);}
.step4 {transform: translateX(4096px);}
.step5 {transform: translateX(5120px);}
.step6 {transform: translateX(6144px);}
.step7 {transform: translateX(7168px);}
.step8 {transform: translateX(8192px);}
.step9 {transform: translateX(9216px);}
.step10 {transform: translateX(10240px);}
.step11 {transform: translateX(11264px);}
.step12 {transform: translateX(12288px);}
.step13 {transform: translateX(13312px);}
.step14 {transform: translateX(14336px);}
.step15 {transform: translateX(15360px);}
.step16 {transform: translateX(16384px);}
.step17 {transform: translateX(17408px);}
.step18 {transform: translateX(18432px);}
.step19 {transform: translateX(19456px);}
.step20 {transform: translateX(20480px);}
.step21 {transform: translateX(21504px);}
.step22 {transform: translateX(22528px);}
.step23 {transform: translateX(23552px);}
.step24 {transform: translateX(24576px);}
.step25 {transform: translateX(25600px);}
.step26 {transform: translateX(26624px);}
.step27 {transform: translateX(27648px);}
.step28 {transform: translateX(28672px);}
.step29 {transform: translateX(29696px);}
    </style>

    <path d="M 145 624 Q 164 564 187 542 Q 199 535 212 542 Q 222 551 225 566 Q 228 588 217 606 Q 208 621 169 652 Q 157 662 148 662 Q 142 663 140 652 Q 137 642 145 624 Z" fill="lightgray" class="stroke step8"/>
    <path d="M 385 670 Q 372 642 346 595 Q 342 588 347 583 Q 354 583 359 588 Q 417 642 445 663 Q 458 669 454 677 Q 447 689 430 701 Q 412 713 394 712 Q 384 711 386 695 Q 390 685 385 670 Z" fill="lightgray" class="stroke step8"/>
    <path d="M 314 459 Q 348 469 392 477 Q 407 480 406 487 Q 407 499 390 505 Q 363 517 315 500 L 273 488 Q 135 452 82 443 Q 70 442 68 434 Q 67 424 80 415 Q 113 396 160 410 Q 203 428 241 438 L 314 459 Z" fill="lightgray" class="stroke step8"/>
    <path d="M 312 375 Q 312 415 314 459 L 315 500 Q 315 683 336 761 Q 345 774 342 788 Q 335 797 283 829 Q 261 845 242 831 Q 236 827 243 812 Q 273 767 274 691 Q 274 519 273 488 L 269 378 Q 265 243 255 195 Q 237 107 251 68 Q 252 61 257 53 Q 264 37 271 33 Q 277 27 284 35 Q 291 39 301 58 Q 311 82 310 111 Q 309 144 312 346 L 312 375 Z" fill="lightgray" class="stroke step8"/>
    <path d="M 241 438 Q 192 296 41 138 Q 31 125 40 125 Q 49 122 59 129 Q 162 189 247 337 Q 257 358 269 378 C 318 461 256 480 241 438 Z" fill="lightgray" class="stroke step8"/>
    <path d="M 312 346 Q 325 337 363 305 Q 373 295 386 297 Q 393 298 397 308 Q 400 320 392 343 Q 383 362 317 375 Q 314 376 312 375 C 282 372 288 363 312 346 Z" fill="lightgray" class="stroke step8"/>
    <path d="M 602 769 Q 624 750 649 725 Q 664 712 681 713 Q 691 714 697 728 Q 701 744 691 775 Q 679 802 595 819 Q 579 822 572 819 Q 566 815 569 801 Q 573 791 602 769 Z" fill="lightgray" class="stroke step8"/>
    <path d="M 516 607 Q 504 631 486 644 Q 482 648 477 644 Q 471 640 471 629 Q 472 596 446 536 Q 436 518 436 500 Q 440 481 449 466 Q 456 454 462 462 Q 474 465 491 511 Q 507 556 515 571 Q 518 575 520 580 C 525 590 525 590 516 607 Z" fill="lightgray" class="stroke step8"/>
    <path d="M 520 580 Q 544 568 592 584 Q 673 615 784 628 Q 797 631 804 630 Q 817 623 816 617 Q 816 613 810 601 Q 776 538 781 533 Q 788 529 803 539 Q 855 570 899 580 Q 933 590 933 598 Q 932 608 866 657 Q 839 678 742 651 Q 735 651 585 620 Q 552 613 518 608 Q 517 608 516 607 C 487 601 491 589 520 580 Z" fill="lightgray" class="stroke step8"/>
    <path d="M 551 463 Q 514 453 542 439 Q 581 423 653 439 Q 689 448 727 458 Q 746 464 749 467 Q 758 476 752 484 Q 745 496 714 501 Q 690 504 611 475 Q 581 468 551 463 Z" fill="lightgray" class="hide"/>
    <path d="M 656 308 Q 729 320 850 322 Q 898 322 904 331 Q 908 343 893 355 Q 835 394 776 372 Q 725 363 655 348 Q 570 333 467 317 Q 448 314 462 299 Q 475 286 493 282 Q 512 278 527 282 Q 567 295 613 301 L 656 308 Z" fill="lightgray" class="hide"/>
    <path d="M 613 301 Q 626 265 627 153 Q 627 95 622 82 Q 618 72 598 77 Q 570 86 541 94 Q 529 95 527 89 Q 524 82 535 72 Q 596 14 617 -20 Q 630 -35 643 -33 Q 653 -29 667 5 Q 686 39 684 103 Q 681 197 682 232 Q 689 274 671 295 Q 662 302 656 308 C 634 328 605 330 613 301 Z" fill="lightgray" class="hide"/>
    <path d="M 466 240 Q 445 192 417 150 Q 399 120 414 91 Q 421 76 439 87 Q 484 118 488 189 Q 492 217 487 240 Q 483 247 477 248 Q 470 247 466 240 Z" fill="lightgray" class="hide"/>
    <path d="M 755 215 Q 804 176 865 118 Q 881 100 897 97 Q 906 96 913 107 Q 923 120 908 163 Q 896 202 824 225 Q 778 240 754 245 Q 744 249 743 237 Q 744 224 755 215 Z" fill="lightgray" class="hide"/></g><g transform="scale(1, -1) translate(0, -900)">
    <style type="text/css">
        .origin {display:none;}
        .hide {display:none;}
        .stroke {fill: #000000;}
        
.step1 {transform: translateX(1024px);}
.step2 {transform: translateX(2048px);}
.step3 {transform: translateX(3072px);}
.step4 {transform: translateX(4096px);}
.step5 {transform: translateX(5120px);}
.step6 {transform: translateX(6144px);}
.step7 {transform: translateX(7168px);}
.step8 {transform: translateX(8192px);}
.step9 {transform: translateX(9216px);}
.step10 {transform: translateX(10240px);}
.step11 {transform: translateX(11264px);}
.step12 {transform: translateX(12288px);}
.step13 {transform: translateX(13312px);}
.step14 {transform: translateX(14336px);}
.step15 {transform: translateX(15360px);}
.step16 {transform: translateX(16384px);}
.step17 {transform: translateX(17408px);}
.step18 {transform: translateX(18432px);}
.step19 {transform: translateX(19456px);}
.step20 {transform: translateX(20480px);}
.step21 {transform: translateX(21504px);}
.step22 {transform: translateX(22528px);}
.step23 {transform: translateX(23552px);}
.step24 {transform: translateX(24576px);}
.step25 {transform: translateX(25600px);}
.step26 {transform: translateX(26624px);}
.step27 {transform: translateX(27648px);}
.step28 {transform: translateX(28672px);}
.step29 {transform: translateX(29696px);}
    </style>

    <path d="M 145 624 Q 164 564 187 542 Q 199 535 212 542 Q 222 551 225 566 Q 228 588 217 606 Q 208 621 169 652 Q 157 662 148 662 Q 142 663 140 652 Q 137 642 145 624 Z" fill="lightgray" class="stroke step9"/>
    <path d="M 385 670 Q 372 642 346 595 Q 342 588 347 583 Q 354 583 359 588 Q 417 642 445 663 Q 458 669 454 677 Q 447 689 430 701 Q 412 713 394 712 Q 384 711 386 695 Q 390 685 385 670 Z" fill="lightgray" class="stroke step9"/>
    <path d="M 314 459 Q 348 469 392 477 Q 407 480 406 487 Q 407 499 390 505 Q 363 517 315 500 L 273 488 Q 135 452 82 443 Q 70 442 68 434 Q 67 424 80 415 Q 113 396 160 410 Q 203 428 241 438 L 314 459 Z" fill="lightgray" class="stroke step9"/>
    <path d="M 312 375 Q 312 415 314 459 L 315 500 Q 315 683 336 761 Q 345 774 342 788 Q 335 797 283 829 Q 261 845 242 831 Q 236 827 243 812 Q 273 767 274 691 Q 274 519 273 488 L 269 378 Q 265 243 255 195 Q 237 107 251 68 Q 252 61 257 53 Q 264 37 271 33 Q 277 27 284 35 Q 291 39 301 58 Q 311 82 310 111 Q 309 144 312 346 L 312 375 Z" fill="lightgray" class="stroke step9"/>
    <path d="M 241 438 Q 192 296 41 138 Q 31 125 40 125 Q 49 122 59 129 Q 162 189 247 337 Q 257 358 269 378 C 318 461 256 480 241 438 Z" fill="lightgray" class="stroke step9"/>
    <path d="M 312 346 Q 325 337 363 305 Q 373 295 386 297 Q 393 298 397 308 Q 400 320 392 343 Q 383 362 317 375 Q 314 376 312 375 C 282 372 288 363 312 346 Z" fill="lightgray" class="stroke step9"/>
    <path d="M 602 769 Q 624 750 649 725 Q 664 712 681 713 Q 691 714 697 728 Q 701 744 691 775 Q 679 802 595 819 Q 579 822 572 819 Q 566 815 569 801 Q 573 791 602 769 Z" fill="lightgray" class="stroke step9"/>
    <path d="M 516 607 Q 504 631 486 644 Q 482 648 477 644 Q 471 640 471 629 Q 472 596 446 536 Q 436 518 436 500 Q 440 481 449 466 Q 456 454 462 462 Q 474 465 491 511 Q 507 556 515 571 Q 518 575 520 580 C 525 590 525 590 516 607 Z" fill="lightgray" class="stroke step9"/>
    <path d="M 520 580 Q 544 568 592 584 Q 673 615 784 628 Q 797 631 804 630 Q 817 623 816 617 Q 816 613 810 601 Q 776 538 781 533 Q 788 529 803 539 Q 855 570 899 580 Q 933 590 933 598 Q 932 608 866 657 Q 839 678 742 651 Q 735 651 585 620 Q 552 613 518 608 Q 517 608 516 607 C 487 601 491 589 520 580 Z" fill="lightgray" class="stroke step9"/>
    <path d="M 551 463 Q 514 453 542 439 Q 581 423 653 439 Q 689 448 727 458 Q 746 464 749 467 Q 758 476 752 484 Q 745 496 714 501 Q 690 504 611 475 Q 581 468 551 463 Z" fill="lightgray" class="stroke step9"/>
    <path d="M 656 308 Q 729 320 850 322 Q 898 322 904 331 Q 908 343 893 355 Q 835 394 776 372 Q 725 363 655 348 Q 570 333 467 317 Q 448 314 462 299 Q 475 286 493 282 Q 512 278 527 282 Q 567 295 613 301 L 656 308 Z" fill="lightgray" class="hide"/>
    <path d="M 613 301 Q 626 265 627 153 Q 627 95 622 82 Q 618 72 598 77 Q 570 86 541 94 Q 529 95 527 89 Q 524 82 535 72 Q 596 14 617 -20 Q 630 -35 643 -33 Q 653 -29 667 5 Q 686 39 684 103 Q 681 197 682 232 Q 689 274 671 295 Q 662 302 656 308 C 634 328 605 330 613 301 Z" fill="lightgray" class="hide"/>
    <path d="M 466 240 Q 445 192 417 150 Q 399 120 414 91 Q 421 76 439 87 Q 484 118 488 189 Q 492 217 487 240 Q 483 247 477 248 Q 470 247 466 240 Z" fill="lightgray" class="hide"/>
    <path d="M 755 215 Q 804 176 865 118 Q 881 100 897 97 Q 906 96 913 107 Q 923 120 908 163 Q 896 202 824 225 Q 778 240 754 245 Q 744 249 743 237 Q 744 224 755 215 Z" fill="lightgray" class="hide"/></g><g transform="scale(1, -1) translate(0, -900)">
    <style type="text/css">
        .origin {display:none;}
        .hide {display:none;}
        .stroke {fill: #000000;}
        
.step1 {transform: translateX(1024px);}
.step2 {transform: translateX(2048px);}
.step3 {transform: translateX(3072px);}
.step4 {transform: translateX(4096px);}
.step5 {transform: translateX(5120px);}
.step6 {transform: translateX(6144px);}
.step7 {transform: translateX(7168px);}
.step8 {transform: translateX(8192px);}
.step9 {transform: translateX(9216px);}
.step10 {transform: translateX(10240px);}
.step11 {transform: translateX(11264px);}
.step12 {transform: translateX(12288px);}
.step13 {transform: translateX(13312px);}
.step14 {transform: translateX(14336px);}
.step15 {transform: translateX(15360px);}
.step16 {transform: translateX(16384px);}
.step17 {transform: translateX(17408px);}
.step18 {transform: translateX(18432px);}
.step19 {transform: translateX(19456px);}
.step20 {transform: translateX(20480px);}
.step21 {transform: translateX(21504px);}
.step22 {transform: translateX(22528px);}
.step23 {transform: translateX(23552px);}
.step24 {transform: translateX(24576px);}
.step25 {transform: translateX(25600px);}
.step26 {transform: translateX(26624px);}
.step27 {transform: translateX(27648px);}
.step28 {transform: translateX(28672px);}
.step29 {transform: translateX(29696px);}
    </style>

    <path d="M 145 624 Q 164 564 187 542 Q 199 535 212 542 Q 222 551 225 566 Q 228 588 217 606 Q 208 621 169 652 Q 157 662 148 662 Q 142 663 140 652 Q 137 642 145 624 Z" fill="lightgray" class="stroke step10"/>
    <path d="M 385 670 Q 372 642 346 595 Q 342 588 347 583 Q 354 583 359 588 Q 417 642 445 663 Q 458 669 454 677 Q 447 689 430 701 Q 412 713 394 712 Q 384 711 386 695 Q 390 685 385 670 Z" fill="lightgray" class="stroke step10"/>
    <path d="M 314 459 Q 348 469 392 477 Q 407 480 406 487 Q 407 499 390 505 Q 363 517 315 500 L 273 488 Q 135 452 82 443 Q 70 442 68 434 Q 67 424 80 415 Q 113 396 160 410 Q 203 428 241 438 L 314 459 Z" fill="lightgray" class="stroke step10"/>
    <path d="M 312 375 Q 312 415 314 459 L 315 500 Q 315 683 336 761 Q 345 774 342 788 Q 335 797 283 829 Q 261 845 242 831 Q 236 827 243 812 Q 273 767 274 691 Q 274 519 273 488 L 269 378 Q 265 243 255 195 Q 237 107 251 68 Q 252 61 257 53 Q 264 37 271 33 Q 277 27 284 35 Q 291 39 301 58 Q 311 82 310 111 Q 309 144 312 346 L 312 375 Z" fill="lightgray" class="stroke step10"/>
    <path d="M 241 438 Q 192 296 41 138 Q 31 125 40 125 Q 49 122 59 129 Q 162 189 247 337 Q 257 358 269 378 C 318 461 256 480 241 438 Z" fill="lightgray" class="stroke step10"/>
    <path d="M 312 346 Q 325 337 363 305 Q 373 295 386 297 Q 393 298 397 308 Q 400 320 392 343 Q 383 362 317 375 Q 314 376 312 375 C 282 372 288 363 312 346 Z" fill="lightgray" class="stroke step10"/>
    <path d="M 602 769 Q 624 750 649 725 Q 664 712 681 713 Q 691 714 697 728 Q 701 744 691 775 Q 679 802 595 819 Q 579 822 572 819 Q 566 815 569 801 Q 573 791 602 769 Z" fill="lightgray" class="stroke step10"/>
    <path d="M 516 607 Q 504 631 486 644 Q 482 648 477 644 Q 471 640 471 629 Q 472 596 446 536 Q 436 518 436 500 Q 440 481 449 466 Q 456 454 462 462 Q 474 465 491 511 Q 507 556 515 571 Q 518 575 520 580 C 525 590 525 590 516 607 Z" fill="lightgray" class="stroke step10"/>
    <path d="M 520 580 Q 544 568 592 584 Q 673 615 784 628 Q 797 631 804 630 Q 817 623 816 617 Q 816 613 810 601 Q 776 538 781 533 Q 788 529 803 539 Q 855 570 899 580 Q 933 590 933 598 Q 932 608 866 657 Q 839 678 742 651 Q 735 651 585 620 Q 552 613 518 608 Q 517 608 516 607 C 487 601 491 589 520 580 Z" fill="lightgray" class="stroke step10"/>
    <path d="M 551 463 Q 514 453 542 439 Q 581 423 653 439 Q 689 448 727 458 Q 746 464 749 467 Q 758 476 752 484 Q 745 496 714 501 Q 690 504 611 475 Q 581 468 551 463 Z" fill="lightgray" class="stroke step10"/>
    <path d="M 656 308 Q 729 320 850 322 Q 898 322 904 331 Q 908 343 893 355 Q 835 394 776 372 Q 725 363 655 348 Q 570 333 467 317 Q 448 314 462 299 Q 475 286 493 282 Q 512 278 527 282 Q 567 295 613 301 L 656 308 Z" fill="lightgray" class="stroke step10"/>
    <path d="M 613 301 Q 626 265 627 153 Q 627 95 622 82 Q 618 72 598 77 Q 570 86 541 94 Q 529 95 527 89 Q 524 82 535 72 Q 596 14 617 -20 Q 630 -35 643 -33 Q 653 -29 667 5 Q 686 39 684 103 Q 681 197 682 232 Q 689 274 671 295 Q 662 302 656 308 C 634 328 605 330 613 301 Z" fill="lightgray" class="hide"/>
    <path d="M 466 240 Q 445 192 417 150 Q 399 120 414 91 Q 421 76 439 87 Q 484 118 488 189 Q 492 217 487 240 Q 483 247 477 248 Q 470 247 466 240 Z" fill="lightgray" class="hide"/>
    <path d="M 755 215 Q 804 176 865 118 Q 881 100 897 97 Q 906 96 913 107 Q 923 120 908 163 Q 896 202 824 225 Q 778 240 754 245 Q 744 249 743 237 Q 744 224 755 215 Z" fill="lightgray" class="hide"/></g><g transform="scale(1, -1) translate(0, -900)">
    <style type="text/css">
        .origin {display:none;}
        .hide {display:none;}
        .stroke {fill: #000000;}
        
.step1 {transform: translateX(1024px);}
.step2 {transform: translateX(2048px);}
.step3 {transform: translateX(3072px);}
.step4 {transform: translateX(4096px);}
.step5 {transform: translateX(5120px);}
.step6 {transform: translateX(6144px);}
.step7 {transform: translateX(7168px);}
.step8 {transform: translateX(8192px);}
.step9 {transform: translateX(9216px);}
.step10 {transform: translateX(10240px);}
.step11 {transform: translateX(11264px);}
.step12 {transform: translateX(12288px);}
.step13 {transform: translateX(13312px);}
.step14 {transform: translateX(14336px);}
.step15 {transform: translateX(15360px);}
.step16 {transform: translateX(16384px);}
.step17 {transform: translateX(17408px);}
.step18 {transform: translateX(18432px);}
.step19 {transform: translateX(19456px);}
.step20 {transform: translateX(20480px);}
.step21 {transform: translateX(21504px);}
.step22 {transform: translateX(22528px);}
.step23 {transform: translateX(23552px);}
.step24 {transform: translateX(24576px);}
.step25 {transform: translateX(25600px);}
.step26 {transform: translateX(26624px);}
.step27 {transform: translateX(27648px);}
.step28 {transform: translateX(28672px);}
.step29 {transform: translateX(29696px);}
    </style>

    <path d="M 145 624 Q 164 564 187 542 Q 199 535 212 542 Q 222 551 225 566 Q 228 588 217 606 Q 208 621 169 652 Q 157 662 148 662 Q 142 663 140 652 Q 137 642 145 624 Z" fill="lightgray" class="stroke step11"/>
    <path d="M 385 670 Q 372 642 346 595 Q 342 588 347 583 Q 354 583 359 588 Q 417 642 445 663 Q 458 669 454 677 Q 447 689 430 701 Q 412 713 394 712 Q 384 711 386 695 Q 390 685 385 670 Z" fill="lightgray" class="stroke step11"/>
    <path d="M 314 459 Q 348 469 392 477 Q 407 480 406 487 Q 407 499 390 505 Q 363 517 315 500 L 273 488 Q 135 452 82 443 Q 70 442 68 434 Q 67 424 80 415 Q 113 396 160 410 Q 203 428 241 438 L 314 459 Z" fill="lightgray" class="stroke step11"/>
    <path d="M 312 375 Q 312 415 314 459 L 315 500 Q 315 683 336 761 Q 345 774 342 788 Q 335 797 283 829 Q 261 845 242 831 Q 236 827 243 812 Q 273 767 274 691 Q 274 519 273 488 L 269 378 Q 265 243 255 195 Q 237 107 251 68 Q 252 61 257 53 Q 264 37 271 33 Q 277 27 284 35 Q 291 39 301 58 Q 311 82 310 111 Q 309 144 312 346 L 312 375 Z" fill="lightgray" class="stroke step11"/>
    <path d="M 241 438 Q 192 296 41 138 Q 31 125 40 125 Q 49 122 59 129 Q 162 189 247 337 Q 257 358 269 378 C 318 461 256 480 241 438 Z" fill="lightgray" class="stroke step11"/>
    <path d="M 312 346 Q 325 337 363 305 Q 373 295 386 297 Q 393 298 397 308 Q 400 320 392 343 Q 383 362 317 375 Q 314 376 312 375 C 282 372 288 363 312 346 Z" fill="lightgray" class="stroke step11"/>
    <path d="M 602 769 Q 624 750 649 725 Q 664 712 681 713 Q 691 714 697 728 Q 701 744 691 775 Q 679 802 595 819 Q 579 822 572 819 Q 566 815 569 801 Q 573 791 602 769 Z" fill="lightgray" class="stroke step11"/>
    <path d="M 516 607 Q 504 631 486 644 Q 482 648 477 644 Q 471 640 471 629 Q 472 596 446 536 Q 436 518 436 500 Q 440 481 449 466 Q 456 454 462 462 Q 474 465 491 511 Q 507 556 515 571 Q 518 575 520 580 C 525 590 525 590 516 607 Z" fill="lightgray" class="stroke step11"/>
    <path d="M 520 580 Q 544 568 592 584 Q 673 615 784 628 Q 797 631 804 630 Q 817 623 816 617 Q 816 613 810 601 Q 776 538 781 533 Q 788 529 803 539 Q 855 570 899 580 Q 933 590 933 598 Q 932 608 866 657 Q 839 678 742 651 Q 735 651 585 620 Q 552 613 518 608 Q 517 608 516 607 C 487 601 491 589 520 580 Z" fill="lightgray" class="stroke step11"/>
    <path d="M 551 463 Q 514 453 542 439 Q 581 423 653 439 Q 689 448 727 458 Q 746 464 749 467 Q 758 476 752 484 Q 745 496 714 501 Q 690 504 611 475 Q 581 468 551 463 Z" fill="lightgray" class="stroke step11"/>
    <path d="M 656 308 Q 729 320 850 322 Q 898 322 904 331 Q 908 343 893 355 Q 835 394 776 372 Q 725 363 655 348 Q 570 333 467 317 Q 448 314 462 299 Q 475 286 493 282 Q 512 278 527 282 Q 567 295 613 301 L 656 308 Z" fill="lightgray" class="stroke step11"/>
    <path d="M 613 301 Q 626 265 627 153 Q 627 95 622 82 Q 618 72 598 77 Q 570 86 541 94 Q 529 95 527 89 Q 524 82 535 72 Q 596 14 617 -20 Q 630 -35 643 -33 Q 653 -29 667 5 Q 686 39 684 103 Q 681 197 682 232 Q 689 274 671 295 Q 662 302 656 308 C 634 328 605 330 613 301 Z" fill="lightgray" class="stroke step11"/>
    <path d="M 466 240 Q 445 192 417 150 Q 399 120 414 91 Q 421 76 439 87 Q 484 118 488 189 Q 492 217 487 240 Q 483 247 477 248 Q 470 247 466 240 Z" fill="lightgray" class="hide"/>
    <path d="M 755 215 Q 804 176 865 118 Q 881 100 897 97 Q 906 96 913 107 Q 923 120 908 163 Q 896 202 824 225 Q 778 240 754 245 Q 744 249 743 237 Q 744 224 755 215 Z" fill="lightgray" class="hide"/></g><g transform="scale(1, -1) translate(0, -900)">
    <style type="text/css">
        .origin {display:none;}
        .hide {display:none;}
        .stroke {fill: #000000;}
        
.step1 {transform: translateX(1024px);}
.step2 {transform: translateX(2048px);}
.step3 {transform: translateX(3072px);}
.step4 {transform: translateX(4096px);}
.step5 {transform: translateX(5120px);}
.step6 {transform: translateX(6144px);}
.step7 {transform: translateX(7168px);}
.step8 {transform: translateX(8192px);}
.step9 {transform: translateX(9216px);}
.step10 {transform: translateX(10240px);}
.step11 {transform: translateX(11264px);}
.step12 {transform: translateX(12288px);}
.step13 {transform: translateX(13312px);}
.step14 {transform: translateX(14336px);}
.step15 {transform: translateX(15360px);}
.step16 {transform: translateX(16384px);}
.step17 {transform: translateX(17408px);}
.step18 {transform: translateX(18432px);}
.step19 {transform: translateX(19456px);}
.step20 {transform: translateX(20480px);}
.step21 {transform: translateX(21504px);}
.step22 {transform: translateX(22528px);}
.step23 {transform: translateX(23552px);}
.step24 {transform: translateX(24576px);}
.step25 {transform: translateX(25600px);}
.step26 {transform: translateX(26624px);}
.step27 {transform: translateX(27648px);}
.step28 {transform: translateX(28672px);}
.step29 {transform: translateX(29696px);}
    </style>

    <path d="M 145 624 Q 164 564 187 542 Q 199 535 212 542 Q 222 551 225 566 Q 228 588 217 606 Q 208 621 169 652 Q 157 662 148 662 Q 142 663 140 652 Q 137 642 145 624 Z" fill="lightgray" class="stroke step12"/>
    <path d="M 385 670 Q 372 642 346 595 Q 342 588 347 583 Q 354 583 359 588 Q 417 642 445 663 Q 458 669 454 677 Q 447 689 430 701 Q 412 713 394 712 Q 384 711 386 695 Q 390 685 385 670 Z" fill="lightgray" class="stroke step12"/>
    <path d="M 314 459 Q 348 469 392 477 Q 407 480 406 487 Q 407 499 390 505 Q 363 517 315 500 L 273 488 Q 135 452 82 443 Q 70 442 68 434 Q 67 424 80 415 Q 113 396 160 410 Q 203 428 241 438 L 314 459 Z" fill="lightgray" class="stroke step12"/>
    <path d="M 312 375 Q 312 415 314 459 L 315 500 Q 315 683 336 761 Q 345 774 342 788 Q 335 797 283 829 Q 261 845 242 831 Q 236 827 243 812 Q 273 767 274 691 Q 274 519 273 488 L 269 378 Q 265 243 255 195 Q 237 107 251 68 Q 252 61 257 53 Q 264 37 271 33 Q 277 27 284 35 Q 291 39 301 58 Q 311 82 310 111 Q 309 144 312 346 L 312 375 Z" fill="lightgray" class="stroke step12"/>
    <path d="M 241 438 Q 192 296 41 138 Q 31 125 40 125 Q 49 122 59 129 Q 162 189 247 337 Q 257 358 269 378 C 318 461 256 480 241 438 Z" fill="lightgray" class="stroke step12"/>
    <path d="M 312 346 Q 325 337 363 305 Q 373 295 386 297 Q 393 298 397 308 Q 400 320 392 343 Q 383 362 317 375 Q 314 376 312 375 C 282 372 288 363 312 346 Z" fill="lightgray" class="stroke step12"/>
    <path d="M 602 769 Q 624 750 649 725 Q 664 712 681 713 Q 691 714 697 728 Q 701 744 691 775 Q 679 802 595 819 Q 579 822 572 819 Q 566 815 569 801 Q 573 791 602 769 Z" fill="lightgray" class="stroke step12"/>
    <path d="M 516 607 Q 504 631 486 644 Q 482 648 477 644 Q 471 640 471 629 Q 472 596 446 536 Q 436 518 436 500 Q 440 481 449 466 Q 456 454 462 462 Q 474 465 491 511 Q 507 556 515 571 Q 518 575 520 580 C 525 590 525 590 516 607 Z" fill="lightgray" class="stroke step12"/>
    <path d="M 520 580 Q 544 568 592 584 Q 673 615 784 628 Q 797 631 804 630 Q 817 623 816 617 Q 816 613 810 601 Q 776 538 781 533 Q 788 529 803 539 Q 855 570 899 580 Q 933 590 933 598 Q 932 608 866 657 Q 839 678 742 651 Q 735 651 585 620 Q 552 613 518 608 Q 517 608 516 607 C 487 601 491 589 520 580 Z" fill="lightgray" class="stroke step12"/>
    <path d="M 551 463 Q 514 453 542 439 Q 581 423 653 439 Q 689 448 727 458 Q 746 464 749 467 Q 758 476 752 484 Q 745 496 714 501 Q 690 504 611 475 Q 581 468 551 463 Z" fill="lightgray" class="stroke step12"/>
    <path d="M 656 308 Q 729 320 850 322 Q 898 322 904 331 Q 908 343 893 355 Q 835 394 776 372 Q 725 363 655 348 Q 570 333 467 317 Q 448 314 462 299 Q 475 286 493 282 Q 512 278 527 282 Q 567 295 613 301 L 656 308 Z" fill="lightgray" class="stroke step12"/>
    <path d="M 613 301 Q 626 265 627 153 Q 627 95 622 82 Q 618 72 598 77 Q 570 86 541 94 Q 529 95 527 89 Q 524 82 535 72 Q 596 14 617 -20 Q 630 -35 643 -33 Q 653 -29 667 5 Q 686 39 684 103 Q 681 197 682 232 Q 689 274 671 295 Q 662 302 656 308 C 634 328 605 330 613 301 Z" fill="lightgray" class="stroke step12"/>
    <path d="M 466 240 Q 445 192 417 150 Q 399 120 414 91 Q 421 76 439 87 Q 484 118 488 189 Q 492 217 487 240 Q 483 247 477 248 Q 470 247 466 240 Z" fill="lightgray" class="stroke step12"/>
    <path d="M 755 215 Q 804 176 865 118 Q 881 100 897 97 Q 906 96 913 107 Q 923 120 908 163 Q 896 202 824 225 Q 778 240 754 245 Q 744 249 743 237 Q 744 224 755 215 Z" fill="lightgray" class="hide"/></g><g transform="scale(1, -1) translate(0, -900)">
    <style type="text/css">
        .origin {display:none;}
        .hide {display:none;}
        .stroke {fill: #000000;}
        
.step1 {transform: translateX(1024px);}
.step2 {transform: translateX(2048px);}
.step3 {transform: translateX(3072px);}
.step4 {transform: translateX(4096px);}
.step5 {transform: translateX(5120px);}
.step6 {transform: translateX(6144px);}
.step7 {transform: translateX(7168px);}
.step8 {transform: translateX(8192px);}
.step9 {transform: translateX(9216px);}
.step10 {transform: translateX(10240px);}
.step11 {transform: translateX(11264px);}
.step12 {transform: translateX(12288px);}
.step13 {transform: translateX(13312px);}
.step14 {transform: translateX(14336px);}
.step15 {transform: translateX(15360px);}
.step16 {transform: translateX(16384px);}
.step17 {transform: translateX(17408px);}
.step18 {transform: translateX(18432px);}
.step19 {transform: translateX(19456px);}
.step20 {transform: translateX(20480px);}
.step21 {transform: translateX(21504px);}
.step22 {transform: translateX(22528px);}
.step23 {transform: translateX(23552px);}
.step24 {transform: translateX(24576px);}
.step25 {transform: translateX(25600px);}
.step26 {transform: translateX(26624px);}
.step27 {transform: translateX(27648px);}
.step28 {transform: translateX(28672px);}
.step29 {transform: translateX(29696px);}
    </style>

    <path d="M 145 624 Q 164 564 187 542 Q 199 535 212 542 Q 222 551 225 566 Q 228 588 217 606 Q 208 621 169 652 Q 157 662 148 662 Q 142 663 140 652 Q 137 642 145 624 Z" fill="lightgray" class="stroke step13"/>
    <path d="M 385 670 Q 372 642 346 595 Q 342 588 347 583 Q 354 583 359 588 Q 417 642 445 663 Q 458 669 454 677 Q 447 689 430 701 Q 412 713 394 712 Q 384 711 386 695 Q 390 685 385 670 Z" fill="lightgray" class="stroke step13"/>
    <path d="M 314 459 Q 348 469 392 477 Q 407 480 406 487 Q 407 499 390 505 Q 363 517 315 500 L 273 488 Q 135 452 82 443 Q 70 442 68 434 Q 67 424 80 415 Q 113 396 160 410 Q 203 428 241 438 L 314 459 Z" fill="lightgray" class="stroke step13"/>
    <path d="M 312 375 Q 312 415 314 459 L 315 500 Q 315 683 336 761 Q 345 774 342 788 Q 335 797 283 829 Q 261 845 242 831 Q 236 827 243 812 Q 273 767 274 691 Q 274 519 273 488 L 269 378 Q 265 243 255 195 Q 237 107 251 68 Q 252 61 257 53 Q 264 37 271 33 Q 277 27 284 35 Q 291 39 301 58 Q 311 82 310 111 Q 309 144 312 346 L 312 375 Z" fill="lightgray" class="stroke step13"/>
    <path d="M 241 438 Q 192 296 41 138 Q 31 125 40 125 Q 49 122 59 129 Q 162 189 247 337 Q 257 358 269 378 C 318 461 256 480 241 438 Z" fill="lightgray" class="stroke step13"/>
    <path d="M 312 346 Q 325 337 363 305 Q 373 295 386 297 Q 393 298 397 308 Q 400 320 392 343 Q 383 362 317 375 Q 314 376 312 375 C 282 372 288 363 312 346 Z" fill="lightgray" class="stroke step13"/>
    <path d="M 602 769 Q 624 750 649 725 Q 664 712 681 713 Q 691 714 697 728 Q 701 744 691 775 Q 679 802 595 819 Q 579 822 572 819 Q 566 815 569 801 Q 573 791 602 769 Z" fill="lightgray" class="stroke step13"/>
    <path d="M 516 607 Q 504 631 486 644 Q 482 648 477 644 Q 471 640 471 629 Q 472 596 446 536 Q 436 518 436 500 Q 440 481 449 466 Q 456 454 462 462 Q 474 465 491 511 Q 507 556 515 571 Q 518 575 520 580 C 525 590 525 590 516 607 Z" fill="lightgray" class="stroke step13"/>
    <path d="M 520 580 Q 544 568 592 584 Q 673 615 784 628 Q 797 631 804 630 Q 817 623 816 617 Q 816 613 810 601 Q 776 538 781 533 Q 788 529 803 539 Q 855 570 899 580 Q 933 590 933 598 Q 932 608 866 657 Q 839 678 742 651 Q 735 651 585 620 Q 552 613 518 608 Q 517 608 516 607 C 487 601 491 589 520 580 Z" fill="lightgray" class="stroke step13"/>
    <path d="M 551 463 Q 514 453 542 439 Q 581 423 653 439 Q 689 448 727 458 Q 746 464 749 467 Q 758 476 752 484 Q 745 496 714 501 Q 690 504 611 475 Q 581 468 551 463 Z" fill="lightgray" class="stroke step13"/>
    <path d="M 656 308 Q 729 320 850 322 Q 898 322 904 331 Q 908 343 893 355 Q 835 394 776 372 Q 725 363 655 348 Q 570 333 467 317 Q 448 314 462 299 Q 475 286 493 282 Q 512 278 527 282 Q 567 295 613 301 L 656 308 Z" fill="lightgray" class="stroke step13"/>
    <path d="M 613 301 Q 626 265 627 153 Q 627 95 622 82 Q 618 72 598 77 Q 570 86 541 94 Q 529 95 527 89 Q 524 82 535 72 Q 596 14 617 -20 Q 630 -35 643 -33 Q 653 -29 667 5 Q 686 39 684 103 Q 681 197 682 232 Q 689 274 671 295 Q 662 302 656 308 C 634 328 605 330 613 301 Z" fill="lightgray" class="stroke step13"/>
    <path d="M 466 240 Q 445 192 417 150 Q 399 120 414 91 Q 421 76 439 87 Q 484 118 488 189 Q 492 217 487 240 Q 483 247 477 248 Q 470 247 466 240 Z" fill="lightgray" class="stroke step13"/>
    <path d="M 755 215 Q 804 176 865 118 Q 881 100 897 97 Q 906 96 913 107 Q 923 120 908 163 Q 896 202 824 225 Q 778 240 754 245 Q 744 249 743 237 Q 744 224 755 215 Z" fill="lightgray" class="stroke step13"/></g></svg>