<svg version="1.1" viewBox="0 0 7168 1024" xmlns="http://www.w3.org/2000/svg">
  
  <g transform="scale(1, -1) translate(0, -900)" class="origin">
    <style type="text/css">
        .origin {display:none;}
        .hide {display:none;}
        .stroke {fill: #000000;}
        
.step1 {transform: translateX(1024px);}
.step2 {transform: translateX(2048px);}
.step3 {transform: translateX(3072px);}
.step4 {transform: translateX(4096px);}
.step5 {transform: translateX(5120px);}
.step6 {transform: translateX(6144px);}
.step7 {transform: translateX(7168px);}
.step8 {transform: translateX(8192px);}
.step9 {transform: translateX(9216px);}
.step10 {transform: translateX(10240px);}
.step11 {transform: translateX(11264px);}
.step12 {transform: translateX(12288px);}
.step13 {transform: translateX(13312px);}
.step14 {transform: translateX(14336px);}
.step15 {transform: translateX(15360px);}
.step16 {transform: translateX(16384px);}
.step17 {transform: translateX(17408px);}
.step18 {transform: translateX(18432px);}
.step19 {transform: translateX(19456px);}
.step20 {transform: translateX(20480px);}
.step21 {transform: translateX(21504px);}
.step22 {transform: translateX(22528px);}
.step23 {transform: translateX(23552px);}
.step24 {transform: translateX(24576px);}
.step25 {transform: translateX(25600px);}
.step26 {transform: translateX(26624px);}
.step27 {transform: translateX(27648px);}
.step28 {transform: translateX(28672px);}
.step29 {transform: translateX(29696px);}
    </style>

    <path d="M 300 458 Q 296 459 293 458 Q 241 458 196 459 Q 159 459 178 482 Q 245 594 309 679 Q 324 697 321 705 Q 318 720 278 751 Q 262 764 242 761 Q 230 758 237 742 Q 255 699 169 540 Q 150 503 111 468 Q 92 453 93 441 Q 97 422 112 403 Q 122 393 136 399 Q 158 411 284 434 C 314 439 330 458 300 458 Z" fill="lightgray"/>
    <path d="M 284 434 Q 176 284 152 273 Q 139 263 142 250 Q 143 237 170 219 Q 180 207 195 220 Q 264 271 359 307 Q 378 313 379 321 Q 382 331 362 327 Q 305 314 236 290 Q 214 281 228 301 Q 270 361 370 483 Q 397 520 422 541 Q 434 551 428 561 Q 418 580 385 598 Q 369 608 359 605 Q 349 601 352 586 Q 355 549 300 458 L 284 434 Z" fill="lightgray"/>
    <path d="M 115 119 Q 102 115 102 105 Q 101 92 112 85 Q 137 73 172 59 Q 182 58 193 68 Q 212 90 334 174 Q 350 186 362 198 Q 374 208 373 217 Q 366 221 355 217 Q 162 123 115 119 Z" fill="lightgray"/>
    <path d="M 623 529 Q 741 568 746 571 Q 753 580 748 588 Q 741 600 709 604 Q 684 607 626 582 L 576 562 Q 533 550 482 539 Q 445 529 474 515 Q 519 494 575 514 L 623 529 Z" fill="lightgray"/>
    <path d="M 615 288 Q 678 312 712 314 C 742 317 748 355 719 348 Q 664 336 616 322 L 565 306 Q 523 294 490 279 Q 477 275 479 292 Q 483 323 486 355 Q 490 376 480 388 Q 450 421 427 417 Q 418 413 425 397 Q 444 357 438 315 Q 434 276 418 259 Q 403 243 410 231 Q 420 218 436 210 Q 449 204 457 212 Q 472 234 564 268 L 615 288 Z" fill="lightgray"/>
    <path d="M 712 314 Q 713 286 720 267 Q 727 249 741 259 Q 769 283 785 365 Q 810 417 814 420 Q 824 433 816 449 Q 800 468 769 492 Q 757 501 744 496 Q 735 493 736 480 Q 745 465 742 409 Q 733 372 719 348 L 712 314 Z" fill="lightgray"/>
    <path d="M 971 82 Q 947 134 930 227 Q 927 242 921 248 Q 912 255 910 239 Q 900 184 889 142 Q 885 114 860 95 Q 833 70 720 72 Q 654 78 637 111 Q 615 159 615 288 L 616 322 Q 617 442 623 529 L 626 582 Q 630 688 644 738 Q 653 759 623 781 Q 598 797 578 809 Q 560 821 543 810 Q 531 804 552 776 Q 576 742 576 697 Q 577 654 576 562 L 575 514 Q 568 348 565 306 L 564 268 Q 561 117 614 53 Q 660 7 823 15 Q 896 19 950 44 Q 984 56 971 82 Z" fill="lightgray"/></g>
<g transform="scale(1, -1) translate(0, -900)">
    <style type="text/css">
        .origin {display:none;}
        .hide {display:none;}
        .stroke {fill: #000000;}
        
.step1 {transform: translateX(1024px);}
.step2 {transform: translateX(2048px);}
.step3 {transform: translateX(3072px);}
.step4 {transform: translateX(4096px);}
.step5 {transform: translateX(5120px);}
.step6 {transform: translateX(6144px);}
.step7 {transform: translateX(7168px);}
.step8 {transform: translateX(8192px);}
.step9 {transform: translateX(9216px);}
.step10 {transform: translateX(10240px);}
.step11 {transform: translateX(11264px);}
.step12 {transform: translateX(12288px);}
.step13 {transform: translateX(13312px);}
.step14 {transform: translateX(14336px);}
.step15 {transform: translateX(15360px);}
.step16 {transform: translateX(16384px);}
.step17 {transform: translateX(17408px);}
.step18 {transform: translateX(18432px);}
.step19 {transform: translateX(19456px);}
.step20 {transform: translateX(20480px);}
.step21 {transform: translateX(21504px);}
.step22 {transform: translateX(22528px);}
.step23 {transform: translateX(23552px);}
.step24 {transform: translateX(24576px);}
.step25 {transform: translateX(25600px);}
.step26 {transform: translateX(26624px);}
.step27 {transform: translateX(27648px);}
.step28 {transform: translateX(28672px);}
.step29 {transform: translateX(29696px);}
    </style>

    <path d="M 300 458 Q 296 459 293 458 Q 241 458 196 459 Q 159 459 178 482 Q 245 594 309 679 Q 324 697 321 705 Q 318 720 278 751 Q 262 764 242 761 Q 230 758 237 742 Q 255 699 169 540 Q 150 503 111 468 Q 92 453 93 441 Q 97 422 112 403 Q 122 393 136 399 Q 158 411 284 434 C 314 439 330 458 300 458 Z" fill="lightgray" class="stroke step0"/>
    <path d="M 284 434 Q 176 284 152 273 Q 139 263 142 250 Q 143 237 170 219 Q 180 207 195 220 Q 264 271 359 307 Q 378 313 379 321 Q 382 331 362 327 Q 305 314 236 290 Q 214 281 228 301 Q 270 361 370 483 Q 397 520 422 541 Q 434 551 428 561 Q 418 580 385 598 Q 369 608 359 605 Q 349 601 352 586 Q 355 549 300 458 L 284 434 Z" fill="lightgray" class="hide"/>
    <path d="M 115 119 Q 102 115 102 105 Q 101 92 112 85 Q 137 73 172 59 Q 182 58 193 68 Q 212 90 334 174 Q 350 186 362 198 Q 374 208 373 217 Q 366 221 355 217 Q 162 123 115 119 Z" fill="lightgray" class="hide"/>
    <path d="M 623 529 Q 741 568 746 571 Q 753 580 748 588 Q 741 600 709 604 Q 684 607 626 582 L 576 562 Q 533 550 482 539 Q 445 529 474 515 Q 519 494 575 514 L 623 529 Z" fill="lightgray" class="hide"/>
    <path d="M 615 288 Q 678 312 712 314 C 742 317 748 355 719 348 Q 664 336 616 322 L 565 306 Q 523 294 490 279 Q 477 275 479 292 Q 483 323 486 355 Q 490 376 480 388 Q 450 421 427 417 Q 418 413 425 397 Q 444 357 438 315 Q 434 276 418 259 Q 403 243 410 231 Q 420 218 436 210 Q 449 204 457 212 Q 472 234 564 268 L 615 288 Z" fill="lightgray" class="hide"/>
    <path d="M 712 314 Q 713 286 720 267 Q 727 249 741 259 Q 769 283 785 365 Q 810 417 814 420 Q 824 433 816 449 Q 800 468 769 492 Q 757 501 744 496 Q 735 493 736 480 Q 745 465 742 409 Q 733 372 719 348 L 712 314 Z" fill="lightgray" class="hide"/>
    <path d="M 971 82 Q 947 134 930 227 Q 927 242 921 248 Q 912 255 910 239 Q 900 184 889 142 Q 885 114 860 95 Q 833 70 720 72 Q 654 78 637 111 Q 615 159 615 288 L 616 322 Q 617 442 623 529 L 626 582 Q 630 688 644 738 Q 653 759 623 781 Q 598 797 578 809 Q 560 821 543 810 Q 531 804 552 776 Q 576 742 576 697 Q 577 654 576 562 L 575 514 Q 568 348 565 306 L 564 268 Q 561 117 614 53 Q 660 7 823 15 Q 896 19 950 44 Q 984 56 971 82 Z" fill="lightgray" class="hide"/></g><g transform="scale(1, -1) translate(0, -900)">
    <style type="text/css">
        .origin {display:none;}
        .hide {display:none;}
        .stroke {fill: #000000;}
        
.step1 {transform: translateX(1024px);}
.step2 {transform: translateX(2048px);}
.step3 {transform: translateX(3072px);}
.step4 {transform: translateX(4096px);}
.step5 {transform: translateX(5120px);}
.step6 {transform: translateX(6144px);}
.step7 {transform: translateX(7168px);}
.step8 {transform: translateX(8192px);}
.step9 {transform: translateX(9216px);}
.step10 {transform: translateX(10240px);}
.step11 {transform: translateX(11264px);}
.step12 {transform: translateX(12288px);}
.step13 {transform: translateX(13312px);}
.step14 {transform: translateX(14336px);}
.step15 {transform: translateX(15360px);}
.step16 {transform: translateX(16384px);}
.step17 {transform: translateX(17408px);}
.step18 {transform: translateX(18432px);}
.step19 {transform: translateX(19456px);}
.step20 {transform: translateX(20480px);}
.step21 {transform: translateX(21504px);}
.step22 {transform: translateX(22528px);}
.step23 {transform: translateX(23552px);}
.step24 {transform: translateX(24576px);}
.step25 {transform: translateX(25600px);}
.step26 {transform: translateX(26624px);}
.step27 {transform: translateX(27648px);}
.step28 {transform: translateX(28672px);}
.step29 {transform: translateX(29696px);}
    </style>

    <path d="M 300 458 Q 296 459 293 458 Q 241 458 196 459 Q 159 459 178 482 Q 245 594 309 679 Q 324 697 321 705 Q 318 720 278 751 Q 262 764 242 761 Q 230 758 237 742 Q 255 699 169 540 Q 150 503 111 468 Q 92 453 93 441 Q 97 422 112 403 Q 122 393 136 399 Q 158 411 284 434 C 314 439 330 458 300 458 Z" fill="lightgray" class="stroke step1"/>
    <path d="M 284 434 Q 176 284 152 273 Q 139 263 142 250 Q 143 237 170 219 Q 180 207 195 220 Q 264 271 359 307 Q 378 313 379 321 Q 382 331 362 327 Q 305 314 236 290 Q 214 281 228 301 Q 270 361 370 483 Q 397 520 422 541 Q 434 551 428 561 Q 418 580 385 598 Q 369 608 359 605 Q 349 601 352 586 Q 355 549 300 458 L 284 434 Z" fill="lightgray" class="stroke step1"/>
    <path d="M 115 119 Q 102 115 102 105 Q 101 92 112 85 Q 137 73 172 59 Q 182 58 193 68 Q 212 90 334 174 Q 350 186 362 198 Q 374 208 373 217 Q 366 221 355 217 Q 162 123 115 119 Z" fill="lightgray" class="hide"/>
    <path d="M 623 529 Q 741 568 746 571 Q 753 580 748 588 Q 741 600 709 604 Q 684 607 626 582 L 576 562 Q 533 550 482 539 Q 445 529 474 515 Q 519 494 575 514 L 623 529 Z" fill="lightgray" class="hide"/>
    <path d="M 615 288 Q 678 312 712 314 C 742 317 748 355 719 348 Q 664 336 616 322 L 565 306 Q 523 294 490 279 Q 477 275 479 292 Q 483 323 486 355 Q 490 376 480 388 Q 450 421 427 417 Q 418 413 425 397 Q 444 357 438 315 Q 434 276 418 259 Q 403 243 410 231 Q 420 218 436 210 Q 449 204 457 212 Q 472 234 564 268 L 615 288 Z" fill="lightgray" class="hide"/>
    <path d="M 712 314 Q 713 286 720 267 Q 727 249 741 259 Q 769 283 785 365 Q 810 417 814 420 Q 824 433 816 449 Q 800 468 769 492 Q 757 501 744 496 Q 735 493 736 480 Q 745 465 742 409 Q 733 372 719 348 L 712 314 Z" fill="lightgray" class="hide"/>
    <path d="M 971 82 Q 947 134 930 227 Q 927 242 921 248 Q 912 255 910 239 Q 900 184 889 142 Q 885 114 860 95 Q 833 70 720 72 Q 654 78 637 111 Q 615 159 615 288 L 616 322 Q 617 442 623 529 L 626 582 Q 630 688 644 738 Q 653 759 623 781 Q 598 797 578 809 Q 560 821 543 810 Q 531 804 552 776 Q 576 742 576 697 Q 577 654 576 562 L 575 514 Q 568 348 565 306 L 564 268 Q 561 117 614 53 Q 660 7 823 15 Q 896 19 950 44 Q 984 56 971 82 Z" fill="lightgray" class="hide"/></g><g transform="scale(1, -1) translate(0, -900)">
    <style type="text/css">
        .origin {display:none;}
        .hide {display:none;}
        .stroke {fill: #000000;}
        
.step1 {transform: translateX(1024px);}
.step2 {transform: translateX(2048px);}
.step3 {transform: translateX(3072px);}
.step4 {transform: translateX(4096px);}
.step5 {transform: translateX(5120px);}
.step6 {transform: translateX(6144px);}
.step7 {transform: translateX(7168px);}
.step8 {transform: translateX(8192px);}
.step9 {transform: translateX(9216px);}
.step10 {transform: translateX(10240px);}
.step11 {transform: translateX(11264px);}
.step12 {transform: translateX(12288px);}
.step13 {transform: translateX(13312px);}
.step14 {transform: translateX(14336px);}
.step15 {transform: translateX(15360px);}
.step16 {transform: translateX(16384px);}
.step17 {transform: translateX(17408px);}
.step18 {transform: translateX(18432px);}
.step19 {transform: translateX(19456px);}
.step20 {transform: translateX(20480px);}
.step21 {transform: translateX(21504px);}
.step22 {transform: translateX(22528px);}
.step23 {transform: translateX(23552px);}
.step24 {transform: translateX(24576px);}
.step25 {transform: translateX(25600px);}
.step26 {transform: translateX(26624px);}
.step27 {transform: translateX(27648px);}
.step28 {transform: translateX(28672px);}
.step29 {transform: translateX(29696px);}
    </style>

    <path d="M 300 458 Q 296 459 293 458 Q 241 458 196 459 Q 159 459 178 482 Q 245 594 309 679 Q 324 697 321 705 Q 318 720 278 751 Q 262 764 242 761 Q 230 758 237 742 Q 255 699 169 540 Q 150 503 111 468 Q 92 453 93 441 Q 97 422 112 403 Q 122 393 136 399 Q 158 411 284 434 C 314 439 330 458 300 458 Z" fill="lightgray" class="stroke step2"/>
    <path d="M 284 434 Q 176 284 152 273 Q 139 263 142 250 Q 143 237 170 219 Q 180 207 195 220 Q 264 271 359 307 Q 378 313 379 321 Q 382 331 362 327 Q 305 314 236 290 Q 214 281 228 301 Q 270 361 370 483 Q 397 520 422 541 Q 434 551 428 561 Q 418 580 385 598 Q 369 608 359 605 Q 349 601 352 586 Q 355 549 300 458 L 284 434 Z" fill="lightgray" class="stroke step2"/>
    <path d="M 115 119 Q 102 115 102 105 Q 101 92 112 85 Q 137 73 172 59 Q 182 58 193 68 Q 212 90 334 174 Q 350 186 362 198 Q 374 208 373 217 Q 366 221 355 217 Q 162 123 115 119 Z" fill="lightgray" class="stroke step2"/>
    <path d="M 623 529 Q 741 568 746 571 Q 753 580 748 588 Q 741 600 709 604 Q 684 607 626 582 L 576 562 Q 533 550 482 539 Q 445 529 474 515 Q 519 494 575 514 L 623 529 Z" fill="lightgray" class="hide"/>
    <path d="M 615 288 Q 678 312 712 314 C 742 317 748 355 719 348 Q 664 336 616 322 L 565 306 Q 523 294 490 279 Q 477 275 479 292 Q 483 323 486 355 Q 490 376 480 388 Q 450 421 427 417 Q 418 413 425 397 Q 444 357 438 315 Q 434 276 418 259 Q 403 243 410 231 Q 420 218 436 210 Q 449 204 457 212 Q 472 234 564 268 L 615 288 Z" fill="lightgray" class="hide"/>
    <path d="M 712 314 Q 713 286 720 267 Q 727 249 741 259 Q 769 283 785 365 Q 810 417 814 420 Q 824 433 816 449 Q 800 468 769 492 Q 757 501 744 496 Q 735 493 736 480 Q 745 465 742 409 Q 733 372 719 348 L 712 314 Z" fill="lightgray" class="hide"/>
    <path d="M 971 82 Q 947 134 930 227 Q 927 242 921 248 Q 912 255 910 239 Q 900 184 889 142 Q 885 114 860 95 Q 833 70 720 72 Q 654 78 637 111 Q 615 159 615 288 L 616 322 Q 617 442 623 529 L 626 582 Q 630 688 644 738 Q 653 759 623 781 Q 598 797 578 809 Q 560 821 543 810 Q 531 804 552 776 Q 576 742 576 697 Q 577 654 576 562 L 575 514 Q 568 348 565 306 L 564 268 Q 561 117 614 53 Q 660 7 823 15 Q 896 19 950 44 Q 984 56 971 82 Z" fill="lightgray" class="hide"/></g><g transform="scale(1, -1) translate(0, -900)">
    <style type="text/css">
        .origin {display:none;}
        .hide {display:none;}
        .stroke {fill: #000000;}
        
.step1 {transform: translateX(1024px);}
.step2 {transform: translateX(2048px);}
.step3 {transform: translateX(3072px);}
.step4 {transform: translateX(4096px);}
.step5 {transform: translateX(5120px);}
.step6 {transform: translateX(6144px);}
.step7 {transform: translateX(7168px);}
.step8 {transform: translateX(8192px);}
.step9 {transform: translateX(9216px);}
.step10 {transform: translateX(10240px);}
.step11 {transform: translateX(11264px);}
.step12 {transform: translateX(12288px);}
.step13 {transform: translateX(13312px);}
.step14 {transform: translateX(14336px);}
.step15 {transform: translateX(15360px);}
.step16 {transform: translateX(16384px);}
.step17 {transform: translateX(17408px);}
.step18 {transform: translateX(18432px);}
.step19 {transform: translateX(19456px);}
.step20 {transform: translateX(20480px);}
.step21 {transform: translateX(21504px);}
.step22 {transform: translateX(22528px);}
.step23 {transform: translateX(23552px);}
.step24 {transform: translateX(24576px);}
.step25 {transform: translateX(25600px);}
.step26 {transform: translateX(26624px);}
.step27 {transform: translateX(27648px);}
.step28 {transform: translateX(28672px);}
.step29 {transform: translateX(29696px);}
    </style>

    <path d="M 300 458 Q 296 459 293 458 Q 241 458 196 459 Q 159 459 178 482 Q 245 594 309 679 Q 324 697 321 705 Q 318 720 278 751 Q 262 764 242 761 Q 230 758 237 742 Q 255 699 169 540 Q 150 503 111 468 Q 92 453 93 441 Q 97 422 112 403 Q 122 393 136 399 Q 158 411 284 434 C 314 439 330 458 300 458 Z" fill="lightgray" class="stroke step3"/>
    <path d="M 284 434 Q 176 284 152 273 Q 139 263 142 250 Q 143 237 170 219 Q 180 207 195 220 Q 264 271 359 307 Q 378 313 379 321 Q 382 331 362 327 Q 305 314 236 290 Q 214 281 228 301 Q 270 361 370 483 Q 397 520 422 541 Q 434 551 428 561 Q 418 580 385 598 Q 369 608 359 605 Q 349 601 352 586 Q 355 549 300 458 L 284 434 Z" fill="lightgray" class="stroke step3"/>
    <path d="M 115 119 Q 102 115 102 105 Q 101 92 112 85 Q 137 73 172 59 Q 182 58 193 68 Q 212 90 334 174 Q 350 186 362 198 Q 374 208 373 217 Q 366 221 355 217 Q 162 123 115 119 Z" fill="lightgray" class="stroke step3"/>
    <path d="M 623 529 Q 741 568 746 571 Q 753 580 748 588 Q 741 600 709 604 Q 684 607 626 582 L 576 562 Q 533 550 482 539 Q 445 529 474 515 Q 519 494 575 514 L 623 529 Z" fill="lightgray" class="stroke step3"/>
    <path d="M 615 288 Q 678 312 712 314 C 742 317 748 355 719 348 Q 664 336 616 322 L 565 306 Q 523 294 490 279 Q 477 275 479 292 Q 483 323 486 355 Q 490 376 480 388 Q 450 421 427 417 Q 418 413 425 397 Q 444 357 438 315 Q 434 276 418 259 Q 403 243 410 231 Q 420 218 436 210 Q 449 204 457 212 Q 472 234 564 268 L 615 288 Z" fill="lightgray" class="hide"/>
    <path d="M 712 314 Q 713 286 720 267 Q 727 249 741 259 Q 769 283 785 365 Q 810 417 814 420 Q 824 433 816 449 Q 800 468 769 492 Q 757 501 744 496 Q 735 493 736 480 Q 745 465 742 409 Q 733 372 719 348 L 712 314 Z" fill="lightgray" class="hide"/>
    <path d="M 971 82 Q 947 134 930 227 Q 927 242 921 248 Q 912 255 910 239 Q 900 184 889 142 Q 885 114 860 95 Q 833 70 720 72 Q 654 78 637 111 Q 615 159 615 288 L 616 322 Q 617 442 623 529 L 626 582 Q 630 688 644 738 Q 653 759 623 781 Q 598 797 578 809 Q 560 821 543 810 Q 531 804 552 776 Q 576 742 576 697 Q 577 654 576 562 L 575 514 Q 568 348 565 306 L 564 268 Q 561 117 614 53 Q 660 7 823 15 Q 896 19 950 44 Q 984 56 971 82 Z" fill="lightgray" class="hide"/></g><g transform="scale(1, -1) translate(0, -900)">
    <style type="text/css">
        .origin {display:none;}
        .hide {display:none;}
        .stroke {fill: #000000;}
        
.step1 {transform: translateX(1024px);}
.step2 {transform: translateX(2048px);}
.step3 {transform: translateX(3072px);}
.step4 {transform: translateX(4096px);}
.step5 {transform: translateX(5120px);}
.step6 {transform: translateX(6144px);}
.step7 {transform: translateX(7168px);}
.step8 {transform: translateX(8192px);}
.step9 {transform: translateX(9216px);}
.step10 {transform: translateX(10240px);}
.step11 {transform: translateX(11264px);}
.step12 {transform: translateX(12288px);}
.step13 {transform: translateX(13312px);}
.step14 {transform: translateX(14336px);}
.step15 {transform: translateX(15360px);}
.step16 {transform: translateX(16384px);}
.step17 {transform: translateX(17408px);}
.step18 {transform: translateX(18432px);}
.step19 {transform: translateX(19456px);}
.step20 {transform: translateX(20480px);}
.step21 {transform: translateX(21504px);}
.step22 {transform: translateX(22528px);}
.step23 {transform: translateX(23552px);}
.step24 {transform: translateX(24576px);}
.step25 {transform: translateX(25600px);}
.step26 {transform: translateX(26624px);}
.step27 {transform: translateX(27648px);}
.step28 {transform: translateX(28672px);}
.step29 {transform: translateX(29696px);}
    </style>

    <path d="M 300 458 Q 296 459 293 458 Q 241 458 196 459 Q 159 459 178 482 Q 245 594 309 679 Q 324 697 321 705 Q 318 720 278 751 Q 262 764 242 761 Q 230 758 237 742 Q 255 699 169 540 Q 150 503 111 468 Q 92 453 93 441 Q 97 422 112 403 Q 122 393 136 399 Q 158 411 284 434 C 314 439 330 458 300 458 Z" fill="lightgray" class="stroke step4"/>
    <path d="M 284 434 Q 176 284 152 273 Q 139 263 142 250 Q 143 237 170 219 Q 180 207 195 220 Q 264 271 359 307 Q 378 313 379 321 Q 382 331 362 327 Q 305 314 236 290 Q 214 281 228 301 Q 270 361 370 483 Q 397 520 422 541 Q 434 551 428 561 Q 418 580 385 598 Q 369 608 359 605 Q 349 601 352 586 Q 355 549 300 458 L 284 434 Z" fill="lightgray" class="stroke step4"/>
    <path d="M 115 119 Q 102 115 102 105 Q 101 92 112 85 Q 137 73 172 59 Q 182 58 193 68 Q 212 90 334 174 Q 350 186 362 198 Q 374 208 373 217 Q 366 221 355 217 Q 162 123 115 119 Z" fill="lightgray" class="stroke step4"/>
    <path d="M 623 529 Q 741 568 746 571 Q 753 580 748 588 Q 741 600 709 604 Q 684 607 626 582 L 576 562 Q 533 550 482 539 Q 445 529 474 515 Q 519 494 575 514 L 623 529 Z" fill="lightgray" class="stroke step4"/>
    <path d="M 615 288 Q 678 312 712 314 C 742 317 748 355 719 348 Q 664 336 616 322 L 565 306 Q 523 294 490 279 Q 477 275 479 292 Q 483 323 486 355 Q 490 376 480 388 Q 450 421 427 417 Q 418 413 425 397 Q 444 357 438 315 Q 434 276 418 259 Q 403 243 410 231 Q 420 218 436 210 Q 449 204 457 212 Q 472 234 564 268 L 615 288 Z" fill="lightgray" class="stroke step4"/>
    <path d="M 712 314 Q 713 286 720 267 Q 727 249 741 259 Q 769 283 785 365 Q 810 417 814 420 Q 824 433 816 449 Q 800 468 769 492 Q 757 501 744 496 Q 735 493 736 480 Q 745 465 742 409 Q 733 372 719 348 L 712 314 Z" fill="lightgray" class="hide"/>
    <path d="M 971 82 Q 947 134 930 227 Q 927 242 921 248 Q 912 255 910 239 Q 900 184 889 142 Q 885 114 860 95 Q 833 70 720 72 Q 654 78 637 111 Q 615 159 615 288 L 616 322 Q 617 442 623 529 L 626 582 Q 630 688 644 738 Q 653 759 623 781 Q 598 797 578 809 Q 560 821 543 810 Q 531 804 552 776 Q 576 742 576 697 Q 577 654 576 562 L 575 514 Q 568 348 565 306 L 564 268 Q 561 117 614 53 Q 660 7 823 15 Q 896 19 950 44 Q 984 56 971 82 Z" fill="lightgray" class="hide"/></g><g transform="scale(1, -1) translate(0, -900)">
    <style type="text/css">
        .origin {display:none;}
        .hide {display:none;}
        .stroke {fill: #000000;}
        
.step1 {transform: translateX(1024px);}
.step2 {transform: translateX(2048px);}
.step3 {transform: translateX(3072px);}
.step4 {transform: translateX(4096px);}
.step5 {transform: translateX(5120px);}
.step6 {transform: translateX(6144px);}
.step7 {transform: translateX(7168px);}
.step8 {transform: translateX(8192px);}
.step9 {transform: translateX(9216px);}
.step10 {transform: translateX(10240px);}
.step11 {transform: translateX(11264px);}
.step12 {transform: translateX(12288px);}
.step13 {transform: translateX(13312px);}
.step14 {transform: translateX(14336px);}
.step15 {transform: translateX(15360px);}
.step16 {transform: translateX(16384px);}
.step17 {transform: translateX(17408px);}
.step18 {transform: translateX(18432px);}
.step19 {transform: translateX(19456px);}
.step20 {transform: translateX(20480px);}
.step21 {transform: translateX(21504px);}
.step22 {transform: translateX(22528px);}
.step23 {transform: translateX(23552px);}
.step24 {transform: translateX(24576px);}
.step25 {transform: translateX(25600px);}
.step26 {transform: translateX(26624px);}
.step27 {transform: translateX(27648px);}
.step28 {transform: translateX(28672px);}
.step29 {transform: translateX(29696px);}
    </style>

    <path d="M 300 458 Q 296 459 293 458 Q 241 458 196 459 Q 159 459 178 482 Q 245 594 309 679 Q 324 697 321 705 Q 318 720 278 751 Q 262 764 242 761 Q 230 758 237 742 Q 255 699 169 540 Q 150 503 111 468 Q 92 453 93 441 Q 97 422 112 403 Q 122 393 136 399 Q 158 411 284 434 C 314 439 330 458 300 458 Z" fill="lightgray" class="stroke step5"/>
    <path d="M 284 434 Q 176 284 152 273 Q 139 263 142 250 Q 143 237 170 219 Q 180 207 195 220 Q 264 271 359 307 Q 378 313 379 321 Q 382 331 362 327 Q 305 314 236 290 Q 214 281 228 301 Q 270 361 370 483 Q 397 520 422 541 Q 434 551 428 561 Q 418 580 385 598 Q 369 608 359 605 Q 349 601 352 586 Q 355 549 300 458 L 284 434 Z" fill="lightgray" class="stroke step5"/>
    <path d="M 115 119 Q 102 115 102 105 Q 101 92 112 85 Q 137 73 172 59 Q 182 58 193 68 Q 212 90 334 174 Q 350 186 362 198 Q 374 208 373 217 Q 366 221 355 217 Q 162 123 115 119 Z" fill="lightgray" class="stroke step5"/>
    <path d="M 623 529 Q 741 568 746 571 Q 753 580 748 588 Q 741 600 709 604 Q 684 607 626 582 L 576 562 Q 533 550 482 539 Q 445 529 474 515 Q 519 494 575 514 L 623 529 Z" fill="lightgray" class="stroke step5"/>
    <path d="M 615 288 Q 678 312 712 314 C 742 317 748 355 719 348 Q 664 336 616 322 L 565 306 Q 523 294 490 279 Q 477 275 479 292 Q 483 323 486 355 Q 490 376 480 388 Q 450 421 427 417 Q 418 413 425 397 Q 444 357 438 315 Q 434 276 418 259 Q 403 243 410 231 Q 420 218 436 210 Q 449 204 457 212 Q 472 234 564 268 L 615 288 Z" fill="lightgray" class="stroke step5"/>
    <path d="M 712 314 Q 713 286 720 267 Q 727 249 741 259 Q 769 283 785 365 Q 810 417 814 420 Q 824 433 816 449 Q 800 468 769 492 Q 757 501 744 496 Q 735 493 736 480 Q 745 465 742 409 Q 733 372 719 348 L 712 314 Z" fill="lightgray" class="stroke step5"/>
    <path d="M 971 82 Q 947 134 930 227 Q 927 242 921 248 Q 912 255 910 239 Q 900 184 889 142 Q 885 114 860 95 Q 833 70 720 72 Q 654 78 637 111 Q 615 159 615 288 L 616 322 Q 617 442 623 529 L 626 582 Q 630 688 644 738 Q 653 759 623 781 Q 598 797 578 809 Q 560 821 543 810 Q 531 804 552 776 Q 576 742 576 697 Q 577 654 576 562 L 575 514 Q 568 348 565 306 L 564 268 Q 561 117 614 53 Q 660 7 823 15 Q 896 19 950 44 Q 984 56 971 82 Z" fill="lightgray" class="hide"/></g><g transform="scale(1, -1) translate(0, -900)">
    <style type="text/css">
        .origin {display:none;}
        .hide {display:none;}
        .stroke {fill: #000000;}
        
.step1 {transform: translateX(1024px);}
.step2 {transform: translateX(2048px);}
.step3 {transform: translateX(3072px);}
.step4 {transform: translateX(4096px);}
.step5 {transform: translateX(5120px);}
.step6 {transform: translateX(6144px);}
.step7 {transform: translateX(7168px);}
.step8 {transform: translateX(8192px);}
.step9 {transform: translateX(9216px);}
.step10 {transform: translateX(10240px);}
.step11 {transform: translateX(11264px);}
.step12 {transform: translateX(12288px);}
.step13 {transform: translateX(13312px);}
.step14 {transform: translateX(14336px);}
.step15 {transform: translateX(15360px);}
.step16 {transform: translateX(16384px);}
.step17 {transform: translateX(17408px);}
.step18 {transform: translateX(18432px);}
.step19 {transform: translateX(19456px);}
.step20 {transform: translateX(20480px);}
.step21 {transform: translateX(21504px);}
.step22 {transform: translateX(22528px);}
.step23 {transform: translateX(23552px);}
.step24 {transform: translateX(24576px);}
.step25 {transform: translateX(25600px);}
.step26 {transform: translateX(26624px);}
.step27 {transform: translateX(27648px);}
.step28 {transform: translateX(28672px);}
.step29 {transform: translateX(29696px);}
    </style>

    <path d="M 300 458 Q 296 459 293 458 Q 241 458 196 459 Q 159 459 178 482 Q 245 594 309 679 Q 324 697 321 705 Q 318 720 278 751 Q 262 764 242 761 Q 230 758 237 742 Q 255 699 169 540 Q 150 503 111 468 Q 92 453 93 441 Q 97 422 112 403 Q 122 393 136 399 Q 158 411 284 434 C 314 439 330 458 300 458 Z" fill="lightgray" class="stroke step6"/>
    <path d="M 284 434 Q 176 284 152 273 Q 139 263 142 250 Q 143 237 170 219 Q 180 207 195 220 Q 264 271 359 307 Q 378 313 379 321 Q 382 331 362 327 Q 305 314 236 290 Q 214 281 228 301 Q 270 361 370 483 Q 397 520 422 541 Q 434 551 428 561 Q 418 580 385 598 Q 369 608 359 605 Q 349 601 352 586 Q 355 549 300 458 L 284 434 Z" fill="lightgray" class="stroke step6"/>
    <path d="M 115 119 Q 102 115 102 105 Q 101 92 112 85 Q 137 73 172 59 Q 182 58 193 68 Q 212 90 334 174 Q 350 186 362 198 Q 374 208 373 217 Q 366 221 355 217 Q 162 123 115 119 Z" fill="lightgray" class="stroke step6"/>
    <path d="M 623 529 Q 741 568 746 571 Q 753 580 748 588 Q 741 600 709 604 Q 684 607 626 582 L 576 562 Q 533 550 482 539 Q 445 529 474 515 Q 519 494 575 514 L 623 529 Z" fill="lightgray" class="stroke step6"/>
    <path d="M 615 288 Q 678 312 712 314 C 742 317 748 355 719 348 Q 664 336 616 322 L 565 306 Q 523 294 490 279 Q 477 275 479 292 Q 483 323 486 355 Q 490 376 480 388 Q 450 421 427 417 Q 418 413 425 397 Q 444 357 438 315 Q 434 276 418 259 Q 403 243 410 231 Q 420 218 436 210 Q 449 204 457 212 Q 472 234 564 268 L 615 288 Z" fill="lightgray" class="stroke step6"/>
    <path d="M 712 314 Q 713 286 720 267 Q 727 249 741 259 Q 769 283 785 365 Q 810 417 814 420 Q 824 433 816 449 Q 800 468 769 492 Q 757 501 744 496 Q 735 493 736 480 Q 745 465 742 409 Q 733 372 719 348 L 712 314 Z" fill="lightgray" class="stroke step6"/>
    <path d="M 971 82 Q 947 134 930 227 Q 927 242 921 248 Q 912 255 910 239 Q 900 184 889 142 Q 885 114 860 95 Q 833 70 720 72 Q 654 78 637 111 Q 615 159 615 288 L 616 322 Q 617 442 623 529 L 626 582 Q 630 688 644 738 Q 653 759 623 781 Q 598 797 578 809 Q 560 821 543 810 Q 531 804 552 776 Q 576 742 576 697 Q 577 654 576 562 L 575 514 Q 568 348 565 306 L 564 268 Q 561 117 614 53 Q 660 7 823 15 Q 896 19 950 44 Q 984 56 971 82 Z" fill="lightgray" class="stroke step6"/></g></svg>