<svg version="1.1" viewBox="0 0 7168 1024" xmlns="http://www.w3.org/2000/svg">
  
  <g transform="scale(1, -1) translate(0, -900)" class="origin">
    <style type="text/css">
        .origin {display:none;}
        .hide {display:none;}
        .stroke {fill: #000000;}
        
.step1 {transform: translateX(1024px);}
.step2 {transform: translateX(2048px);}
.step3 {transform: translateX(3072px);}
.step4 {transform: translateX(4096px);}
.step5 {transform: translateX(5120px);}
.step6 {transform: translateX(6144px);}
.step7 {transform: translateX(7168px);}
.step8 {transform: translateX(8192px);}
.step9 {transform: translateX(9216px);}
.step10 {transform: translateX(10240px);}
.step11 {transform: translateX(11264px);}
.step12 {transform: translateX(12288px);}
.step13 {transform: translateX(13312px);}
.step14 {transform: translateX(14336px);}
.step15 {transform: translateX(15360px);}
.step16 {transform: translateX(16384px);}
.step17 {transform: translateX(17408px);}
.step18 {transform: translateX(18432px);}
.step19 {transform: translateX(19456px);}
.step20 {transform: translateX(20480px);}
.step21 {transform: translateX(21504px);}
.step22 {transform: translateX(22528px);}
.step23 {transform: translateX(23552px);}
.step24 {transform: translateX(24576px);}
.step25 {transform: translateX(25600px);}
.step26 {transform: translateX(26624px);}
.step27 {transform: translateX(27648px);}
.step28 {transform: translateX(28672px);}
.step29 {transform: translateX(29696px);}
    </style>

    <path d="M 325 481 Q 321 482 317 482 Q 266 482 224 483 Q 188 483 207 504 Q 280 625 352 714 Q 367 732 364 740 Q 363 755 322 788 Q 306 801 287 799 Q 275 795 281 780 Q 302 728 183 537 Q 165 516 140 493 Q 121 478 122 466 Q 126 447 140 428 Q 150 416 164 423 Q 189 436 272 453 Q 294 454 309 459 C 338 466 355 479 325 481 Z" fill="lightgray"/>
    <path d="M 309 459 Q 207 315 179 302 Q 164 293 168 279 Q 169 266 196 245 Q 206 232 222 245 Q 279 287 377 323 Q 396 327 399 337 Q 402 347 381 344 Q 330 335 268 317 Q 240 307 258 330 Q 402 525 454 567 Q 467 577 461 588 Q 451 607 416 627 Q 400 637 390 634 Q 380 630 381 614 Q 384 572 325 481 L 309 459 Z" fill="lightgray"/>
    <path d="M 125 133 Q 112 130 111 119 Q 110 106 121 98 Q 146 85 182 68 Q 192 67 204 76 Q 216 89 388 195 Q 410 208 425 222 Q 438 232 437 241 Q 430 247 343 210 Q 163 135 125 133 Z" fill="lightgray"/>
    <path d="M 650 676 Q 669 713 686 732 Q 696 744 690 757 Q 684 770 654 791 Q 626 807 606 806 Q 587 803 597 781 Q 613 753 603 726 Q 552 572 417 384 Q 407 372 405 366 Q 402 354 417 358 Q 474 376 618 614 Q 627 633 638 651 L 650 676 Z" fill="lightgray"/>
    <path d="M 638 651 Q 705 539 794 419 Q 810 398 841 398 Q 941 395 973 399 Q 983 400 984 405 Q 985 409 972 418 Q 824 487 763 553 Q 709 608 650 676 C 630 699 623 677 638 651 Z" fill="lightgray"/>
    <path d="M 543 222 Q 544 223 547 223 Q 698 305 771 333 Q 790 334 788 346 Q 785 364 770 386 Q 754 408 732 415 Q 717 418 714 398 Q 714 383 702 369 Q 647 320 546 246 C 522 228 515 211 543 222 Z" fill="lightgray"/>
    <path d="M 546 246 Q 550 292 561 343 Q 567 362 555 372 Q 542 385 518 395 Q 505 399 496 395 Q 489 391 494 373 Q 507 333 503 293 Q 490 131 503 86 Q 507 61 529 40 Q 616 -29 787 1 Q 796 4 807 5 Q 849 17 890 45 Q 909 61 896 88 Q 881 119 861 217 Q 860 233 853 238 Q 846 241 842 223 Q 817 120 799 87 Q 763 48 660 57 Q 620 58 588 73 Q 560 86 552 105 Q 537 136 543 222 L 546 246 Z" fill="lightgray"/></g>
<g transform="scale(1, -1) translate(0, -900)">
    <style type="text/css">
        .origin {display:none;}
        .hide {display:none;}
        .stroke {fill: #000000;}
        
.step1 {transform: translateX(1024px);}
.step2 {transform: translateX(2048px);}
.step3 {transform: translateX(3072px);}
.step4 {transform: translateX(4096px);}
.step5 {transform: translateX(5120px);}
.step6 {transform: translateX(6144px);}
.step7 {transform: translateX(7168px);}
.step8 {transform: translateX(8192px);}
.step9 {transform: translateX(9216px);}
.step10 {transform: translateX(10240px);}
.step11 {transform: translateX(11264px);}
.step12 {transform: translateX(12288px);}
.step13 {transform: translateX(13312px);}
.step14 {transform: translateX(14336px);}
.step15 {transform: translateX(15360px);}
.step16 {transform: translateX(16384px);}
.step17 {transform: translateX(17408px);}
.step18 {transform: translateX(18432px);}
.step19 {transform: translateX(19456px);}
.step20 {transform: translateX(20480px);}
.step21 {transform: translateX(21504px);}
.step22 {transform: translateX(22528px);}
.step23 {transform: translateX(23552px);}
.step24 {transform: translateX(24576px);}
.step25 {transform: translateX(25600px);}
.step26 {transform: translateX(26624px);}
.step27 {transform: translateX(27648px);}
.step28 {transform: translateX(28672px);}
.step29 {transform: translateX(29696px);}
    </style>

    <path d="M 325 481 Q 321 482 317 482 Q 266 482 224 483 Q 188 483 207 504 Q 280 625 352 714 Q 367 732 364 740 Q 363 755 322 788 Q 306 801 287 799 Q 275 795 281 780 Q 302 728 183 537 Q 165 516 140 493 Q 121 478 122 466 Q 126 447 140 428 Q 150 416 164 423 Q 189 436 272 453 Q 294 454 309 459 C 338 466 355 479 325 481 Z" fill="lightgray" class="stroke step0"/>
    <path d="M 309 459 Q 207 315 179 302 Q 164 293 168 279 Q 169 266 196 245 Q 206 232 222 245 Q 279 287 377 323 Q 396 327 399 337 Q 402 347 381 344 Q 330 335 268 317 Q 240 307 258 330 Q 402 525 454 567 Q 467 577 461 588 Q 451 607 416 627 Q 400 637 390 634 Q 380 630 381 614 Q 384 572 325 481 L 309 459 Z" fill="lightgray" class="hide"/>
    <path d="M 125 133 Q 112 130 111 119 Q 110 106 121 98 Q 146 85 182 68 Q 192 67 204 76 Q 216 89 388 195 Q 410 208 425 222 Q 438 232 437 241 Q 430 247 343 210 Q 163 135 125 133 Z" fill="lightgray" class="hide"/>
    <path d="M 650 676 Q 669 713 686 732 Q 696 744 690 757 Q 684 770 654 791 Q 626 807 606 806 Q 587 803 597 781 Q 613 753 603 726 Q 552 572 417 384 Q 407 372 405 366 Q 402 354 417 358 Q 474 376 618 614 Q 627 633 638 651 L 650 676 Z" fill="lightgray" class="hide"/>
    <path d="M 638 651 Q 705 539 794 419 Q 810 398 841 398 Q 941 395 973 399 Q 983 400 984 405 Q 985 409 972 418 Q 824 487 763 553 Q 709 608 650 676 C 630 699 623 677 638 651 Z" fill="lightgray" class="hide"/>
    <path d="M 543 222 Q 544 223 547 223 Q 698 305 771 333 Q 790 334 788 346 Q 785 364 770 386 Q 754 408 732 415 Q 717 418 714 398 Q 714 383 702 369 Q 647 320 546 246 C 522 228 515 211 543 222 Z" fill="lightgray" class="hide"/>
    <path d="M 546 246 Q 550 292 561 343 Q 567 362 555 372 Q 542 385 518 395 Q 505 399 496 395 Q 489 391 494 373 Q 507 333 503 293 Q 490 131 503 86 Q 507 61 529 40 Q 616 -29 787 1 Q 796 4 807 5 Q 849 17 890 45 Q 909 61 896 88 Q 881 119 861 217 Q 860 233 853 238 Q 846 241 842 223 Q 817 120 799 87 Q 763 48 660 57 Q 620 58 588 73 Q 560 86 552 105 Q 537 136 543 222 L 546 246 Z" fill="lightgray" class="hide"/></g><g transform="scale(1, -1) translate(0, -900)">
    <style type="text/css">
        .origin {display:none;}
        .hide {display:none;}
        .stroke {fill: #000000;}
        
.step1 {transform: translateX(1024px);}
.step2 {transform: translateX(2048px);}
.step3 {transform: translateX(3072px);}
.step4 {transform: translateX(4096px);}
.step5 {transform: translateX(5120px);}
.step6 {transform: translateX(6144px);}
.step7 {transform: translateX(7168px);}
.step8 {transform: translateX(8192px);}
.step9 {transform: translateX(9216px);}
.step10 {transform: translateX(10240px);}
.step11 {transform: translateX(11264px);}
.step12 {transform: translateX(12288px);}
.step13 {transform: translateX(13312px);}
.step14 {transform: translateX(14336px);}
.step15 {transform: translateX(15360px);}
.step16 {transform: translateX(16384px);}
.step17 {transform: translateX(17408px);}
.step18 {transform: translateX(18432px);}
.step19 {transform: translateX(19456px);}
.step20 {transform: translateX(20480px);}
.step21 {transform: translateX(21504px);}
.step22 {transform: translateX(22528px);}
.step23 {transform: translateX(23552px);}
.step24 {transform: translateX(24576px);}
.step25 {transform: translateX(25600px);}
.step26 {transform: translateX(26624px);}
.step27 {transform: translateX(27648px);}
.step28 {transform: translateX(28672px);}
.step29 {transform: translateX(29696px);}
    </style>

    <path d="M 325 481 Q 321 482 317 482 Q 266 482 224 483 Q 188 483 207 504 Q 280 625 352 714 Q 367 732 364 740 Q 363 755 322 788 Q 306 801 287 799 Q 275 795 281 780 Q 302 728 183 537 Q 165 516 140 493 Q 121 478 122 466 Q 126 447 140 428 Q 150 416 164 423 Q 189 436 272 453 Q 294 454 309 459 C 338 466 355 479 325 481 Z" fill="lightgray" class="stroke step1"/>
    <path d="M 309 459 Q 207 315 179 302 Q 164 293 168 279 Q 169 266 196 245 Q 206 232 222 245 Q 279 287 377 323 Q 396 327 399 337 Q 402 347 381 344 Q 330 335 268 317 Q 240 307 258 330 Q 402 525 454 567 Q 467 577 461 588 Q 451 607 416 627 Q 400 637 390 634 Q 380 630 381 614 Q 384 572 325 481 L 309 459 Z" fill="lightgray" class="stroke step1"/>
    <path d="M 125 133 Q 112 130 111 119 Q 110 106 121 98 Q 146 85 182 68 Q 192 67 204 76 Q 216 89 388 195 Q 410 208 425 222 Q 438 232 437 241 Q 430 247 343 210 Q 163 135 125 133 Z" fill="lightgray" class="hide"/>
    <path d="M 650 676 Q 669 713 686 732 Q 696 744 690 757 Q 684 770 654 791 Q 626 807 606 806 Q 587 803 597 781 Q 613 753 603 726 Q 552 572 417 384 Q 407 372 405 366 Q 402 354 417 358 Q 474 376 618 614 Q 627 633 638 651 L 650 676 Z" fill="lightgray" class="hide"/>
    <path d="M 638 651 Q 705 539 794 419 Q 810 398 841 398 Q 941 395 973 399 Q 983 400 984 405 Q 985 409 972 418 Q 824 487 763 553 Q 709 608 650 676 C 630 699 623 677 638 651 Z" fill="lightgray" class="hide"/>
    <path d="M 543 222 Q 544 223 547 223 Q 698 305 771 333 Q 790 334 788 346 Q 785 364 770 386 Q 754 408 732 415 Q 717 418 714 398 Q 714 383 702 369 Q 647 320 546 246 C 522 228 515 211 543 222 Z" fill="lightgray" class="hide"/>
    <path d="M 546 246 Q 550 292 561 343 Q 567 362 555 372 Q 542 385 518 395 Q 505 399 496 395 Q 489 391 494 373 Q 507 333 503 293 Q 490 131 503 86 Q 507 61 529 40 Q 616 -29 787 1 Q 796 4 807 5 Q 849 17 890 45 Q 909 61 896 88 Q 881 119 861 217 Q 860 233 853 238 Q 846 241 842 223 Q 817 120 799 87 Q 763 48 660 57 Q 620 58 588 73 Q 560 86 552 105 Q 537 136 543 222 L 546 246 Z" fill="lightgray" class="hide"/></g><g transform="scale(1, -1) translate(0, -900)">
    <style type="text/css">
        .origin {display:none;}
        .hide {display:none;}
        .stroke {fill: #000000;}
        
.step1 {transform: translateX(1024px);}
.step2 {transform: translateX(2048px);}
.step3 {transform: translateX(3072px);}
.step4 {transform: translateX(4096px);}
.step5 {transform: translateX(5120px);}
.step6 {transform: translateX(6144px);}
.step7 {transform: translateX(7168px);}
.step8 {transform: translateX(8192px);}
.step9 {transform: translateX(9216px);}
.step10 {transform: translateX(10240px);}
.step11 {transform: translateX(11264px);}
.step12 {transform: translateX(12288px);}
.step13 {transform: translateX(13312px);}
.step14 {transform: translateX(14336px);}
.step15 {transform: translateX(15360px);}
.step16 {transform: translateX(16384px);}
.step17 {transform: translateX(17408px);}
.step18 {transform: translateX(18432px);}
.step19 {transform: translateX(19456px);}
.step20 {transform: translateX(20480px);}
.step21 {transform: translateX(21504px);}
.step22 {transform: translateX(22528px);}
.step23 {transform: translateX(23552px);}
.step24 {transform: translateX(24576px);}
.step25 {transform: translateX(25600px);}
.step26 {transform: translateX(26624px);}
.step27 {transform: translateX(27648px);}
.step28 {transform: translateX(28672px);}
.step29 {transform: translateX(29696px);}
    </style>

    <path d="M 325 481 Q 321 482 317 482 Q 266 482 224 483 Q 188 483 207 504 Q 280 625 352 714 Q 367 732 364 740 Q 363 755 322 788 Q 306 801 287 799 Q 275 795 281 780 Q 302 728 183 537 Q 165 516 140 493 Q 121 478 122 466 Q 126 447 140 428 Q 150 416 164 423 Q 189 436 272 453 Q 294 454 309 459 C 338 466 355 479 325 481 Z" fill="lightgray" class="stroke step2"/>
    <path d="M 309 459 Q 207 315 179 302 Q 164 293 168 279 Q 169 266 196 245 Q 206 232 222 245 Q 279 287 377 323 Q 396 327 399 337 Q 402 347 381 344 Q 330 335 268 317 Q 240 307 258 330 Q 402 525 454 567 Q 467 577 461 588 Q 451 607 416 627 Q 400 637 390 634 Q 380 630 381 614 Q 384 572 325 481 L 309 459 Z" fill="lightgray" class="stroke step2"/>
    <path d="M 125 133 Q 112 130 111 119 Q 110 106 121 98 Q 146 85 182 68 Q 192 67 204 76 Q 216 89 388 195 Q 410 208 425 222 Q 438 232 437 241 Q 430 247 343 210 Q 163 135 125 133 Z" fill="lightgray" class="stroke step2"/>
    <path d="M 650 676 Q 669 713 686 732 Q 696 744 690 757 Q 684 770 654 791 Q 626 807 606 806 Q 587 803 597 781 Q 613 753 603 726 Q 552 572 417 384 Q 407 372 405 366 Q 402 354 417 358 Q 474 376 618 614 Q 627 633 638 651 L 650 676 Z" fill="lightgray" class="hide"/>
    <path d="M 638 651 Q 705 539 794 419 Q 810 398 841 398 Q 941 395 973 399 Q 983 400 984 405 Q 985 409 972 418 Q 824 487 763 553 Q 709 608 650 676 C 630 699 623 677 638 651 Z" fill="lightgray" class="hide"/>
    <path d="M 543 222 Q 544 223 547 223 Q 698 305 771 333 Q 790 334 788 346 Q 785 364 770 386 Q 754 408 732 415 Q 717 418 714 398 Q 714 383 702 369 Q 647 320 546 246 C 522 228 515 211 543 222 Z" fill="lightgray" class="hide"/>
    <path d="M 546 246 Q 550 292 561 343 Q 567 362 555 372 Q 542 385 518 395 Q 505 399 496 395 Q 489 391 494 373 Q 507 333 503 293 Q 490 131 503 86 Q 507 61 529 40 Q 616 -29 787 1 Q 796 4 807 5 Q 849 17 890 45 Q 909 61 896 88 Q 881 119 861 217 Q 860 233 853 238 Q 846 241 842 223 Q 817 120 799 87 Q 763 48 660 57 Q 620 58 588 73 Q 560 86 552 105 Q 537 136 543 222 L 546 246 Z" fill="lightgray" class="hide"/></g><g transform="scale(1, -1) translate(0, -900)">
    <style type="text/css">
        .origin {display:none;}
        .hide {display:none;}
        .stroke {fill: #000000;}
        
.step1 {transform: translateX(1024px);}
.step2 {transform: translateX(2048px);}
.step3 {transform: translateX(3072px);}
.step4 {transform: translateX(4096px);}
.step5 {transform: translateX(5120px);}
.step6 {transform: translateX(6144px);}
.step7 {transform: translateX(7168px);}
.step8 {transform: translateX(8192px);}
.step9 {transform: translateX(9216px);}
.step10 {transform: translateX(10240px);}
.step11 {transform: translateX(11264px);}
.step12 {transform: translateX(12288px);}
.step13 {transform: translateX(13312px);}
.step14 {transform: translateX(14336px);}
.step15 {transform: translateX(15360px);}
.step16 {transform: translateX(16384px);}
.step17 {transform: translateX(17408px);}
.step18 {transform: translateX(18432px);}
.step19 {transform: translateX(19456px);}
.step20 {transform: translateX(20480px);}
.step21 {transform: translateX(21504px);}
.step22 {transform: translateX(22528px);}
.step23 {transform: translateX(23552px);}
.step24 {transform: translateX(24576px);}
.step25 {transform: translateX(25600px);}
.step26 {transform: translateX(26624px);}
.step27 {transform: translateX(27648px);}
.step28 {transform: translateX(28672px);}
.step29 {transform: translateX(29696px);}
    </style>

    <path d="M 325 481 Q 321 482 317 482 Q 266 482 224 483 Q 188 483 207 504 Q 280 625 352 714 Q 367 732 364 740 Q 363 755 322 788 Q 306 801 287 799 Q 275 795 281 780 Q 302 728 183 537 Q 165 516 140 493 Q 121 478 122 466 Q 126 447 140 428 Q 150 416 164 423 Q 189 436 272 453 Q 294 454 309 459 C 338 466 355 479 325 481 Z" fill="lightgray" class="stroke step3"/>
    <path d="M 309 459 Q 207 315 179 302 Q 164 293 168 279 Q 169 266 196 245 Q 206 232 222 245 Q 279 287 377 323 Q 396 327 399 337 Q 402 347 381 344 Q 330 335 268 317 Q 240 307 258 330 Q 402 525 454 567 Q 467 577 461 588 Q 451 607 416 627 Q 400 637 390 634 Q 380 630 381 614 Q 384 572 325 481 L 309 459 Z" fill="lightgray" class="stroke step3"/>
    <path d="M 125 133 Q 112 130 111 119 Q 110 106 121 98 Q 146 85 182 68 Q 192 67 204 76 Q 216 89 388 195 Q 410 208 425 222 Q 438 232 437 241 Q 430 247 343 210 Q 163 135 125 133 Z" fill="lightgray" class="stroke step3"/>
    <path d="M 650 676 Q 669 713 686 732 Q 696 744 690 757 Q 684 770 654 791 Q 626 807 606 806 Q 587 803 597 781 Q 613 753 603 726 Q 552 572 417 384 Q 407 372 405 366 Q 402 354 417 358 Q 474 376 618 614 Q 627 633 638 651 L 650 676 Z" fill="lightgray" class="stroke step3"/>
    <path d="M 638 651 Q 705 539 794 419 Q 810 398 841 398 Q 941 395 973 399 Q 983 400 984 405 Q 985 409 972 418 Q 824 487 763 553 Q 709 608 650 676 C 630 699 623 677 638 651 Z" fill="lightgray" class="hide"/>
    <path d="M 543 222 Q 544 223 547 223 Q 698 305 771 333 Q 790 334 788 346 Q 785 364 770 386 Q 754 408 732 415 Q 717 418 714 398 Q 714 383 702 369 Q 647 320 546 246 C 522 228 515 211 543 222 Z" fill="lightgray" class="hide"/>
    <path d="M 546 246 Q 550 292 561 343 Q 567 362 555 372 Q 542 385 518 395 Q 505 399 496 395 Q 489 391 494 373 Q 507 333 503 293 Q 490 131 503 86 Q 507 61 529 40 Q 616 -29 787 1 Q 796 4 807 5 Q 849 17 890 45 Q 909 61 896 88 Q 881 119 861 217 Q 860 233 853 238 Q 846 241 842 223 Q 817 120 799 87 Q 763 48 660 57 Q 620 58 588 73 Q 560 86 552 105 Q 537 136 543 222 L 546 246 Z" fill="lightgray" class="hide"/></g><g transform="scale(1, -1) translate(0, -900)">
    <style type="text/css">
        .origin {display:none;}
        .hide {display:none;}
        .stroke {fill: #000000;}
        
.step1 {transform: translateX(1024px);}
.step2 {transform: translateX(2048px);}
.step3 {transform: translateX(3072px);}
.step4 {transform: translateX(4096px);}
.step5 {transform: translateX(5120px);}
.step6 {transform: translateX(6144px);}
.step7 {transform: translateX(7168px);}
.step8 {transform: translateX(8192px);}
.step9 {transform: translateX(9216px);}
.step10 {transform: translateX(10240px);}
.step11 {transform: translateX(11264px);}
.step12 {transform: translateX(12288px);}
.step13 {transform: translateX(13312px);}
.step14 {transform: translateX(14336px);}
.step15 {transform: translateX(15360px);}
.step16 {transform: translateX(16384px);}
.step17 {transform: translateX(17408px);}
.step18 {transform: translateX(18432px);}
.step19 {transform: translateX(19456px);}
.step20 {transform: translateX(20480px);}
.step21 {transform: translateX(21504px);}
.step22 {transform: translateX(22528px);}
.step23 {transform: translateX(23552px);}
.step24 {transform: translateX(24576px);}
.step25 {transform: translateX(25600px);}
.step26 {transform: translateX(26624px);}
.step27 {transform: translateX(27648px);}
.step28 {transform: translateX(28672px);}
.step29 {transform: translateX(29696px);}
    </style>

    <path d="M 325 481 Q 321 482 317 482 Q 266 482 224 483 Q 188 483 207 504 Q 280 625 352 714 Q 367 732 364 740 Q 363 755 322 788 Q 306 801 287 799 Q 275 795 281 780 Q 302 728 183 537 Q 165 516 140 493 Q 121 478 122 466 Q 126 447 140 428 Q 150 416 164 423 Q 189 436 272 453 Q 294 454 309 459 C 338 466 355 479 325 481 Z" fill="lightgray" class="stroke step4"/>
    <path d="M 309 459 Q 207 315 179 302 Q 164 293 168 279 Q 169 266 196 245 Q 206 232 222 245 Q 279 287 377 323 Q 396 327 399 337 Q 402 347 381 344 Q 330 335 268 317 Q 240 307 258 330 Q 402 525 454 567 Q 467 577 461 588 Q 451 607 416 627 Q 400 637 390 634 Q 380 630 381 614 Q 384 572 325 481 L 309 459 Z" fill="lightgray" class="stroke step4"/>
    <path d="M 125 133 Q 112 130 111 119 Q 110 106 121 98 Q 146 85 182 68 Q 192 67 204 76 Q 216 89 388 195 Q 410 208 425 222 Q 438 232 437 241 Q 430 247 343 210 Q 163 135 125 133 Z" fill="lightgray" class="stroke step4"/>
    <path d="M 650 676 Q 669 713 686 732 Q 696 744 690 757 Q 684 770 654 791 Q 626 807 606 806 Q 587 803 597 781 Q 613 753 603 726 Q 552 572 417 384 Q 407 372 405 366 Q 402 354 417 358 Q 474 376 618 614 Q 627 633 638 651 L 650 676 Z" fill="lightgray" class="stroke step4"/>
    <path d="M 638 651 Q 705 539 794 419 Q 810 398 841 398 Q 941 395 973 399 Q 983 400 984 405 Q 985 409 972 418 Q 824 487 763 553 Q 709 608 650 676 C 630 699 623 677 638 651 Z" fill="lightgray" class="stroke step4"/>
    <path d="M 543 222 Q 544 223 547 223 Q 698 305 771 333 Q 790 334 788 346 Q 785 364 770 386 Q 754 408 732 415 Q 717 418 714 398 Q 714 383 702 369 Q 647 320 546 246 C 522 228 515 211 543 222 Z" fill="lightgray" class="hide"/>
    <path d="M 546 246 Q 550 292 561 343 Q 567 362 555 372 Q 542 385 518 395 Q 505 399 496 395 Q 489 391 494 373 Q 507 333 503 293 Q 490 131 503 86 Q 507 61 529 40 Q 616 -29 787 1 Q 796 4 807 5 Q 849 17 890 45 Q 909 61 896 88 Q 881 119 861 217 Q 860 233 853 238 Q 846 241 842 223 Q 817 120 799 87 Q 763 48 660 57 Q 620 58 588 73 Q 560 86 552 105 Q 537 136 543 222 L 546 246 Z" fill="lightgray" class="hide"/></g><g transform="scale(1, -1) translate(0, -900)">
    <style type="text/css">
        .origin {display:none;}
        .hide {display:none;}
        .stroke {fill: #000000;}
        
.step1 {transform: translateX(1024px);}
.step2 {transform: translateX(2048px);}
.step3 {transform: translateX(3072px);}
.step4 {transform: translateX(4096px);}
.step5 {transform: translateX(5120px);}
.step6 {transform: translateX(6144px);}
.step7 {transform: translateX(7168px);}
.step8 {transform: translateX(8192px);}
.step9 {transform: translateX(9216px);}
.step10 {transform: translateX(10240px);}
.step11 {transform: translateX(11264px);}
.step12 {transform: translateX(12288px);}
.step13 {transform: translateX(13312px);}
.step14 {transform: translateX(14336px);}
.step15 {transform: translateX(15360px);}
.step16 {transform: translateX(16384px);}
.step17 {transform: translateX(17408px);}
.step18 {transform: translateX(18432px);}
.step19 {transform: translateX(19456px);}
.step20 {transform: translateX(20480px);}
.step21 {transform: translateX(21504px);}
.step22 {transform: translateX(22528px);}
.step23 {transform: translateX(23552px);}
.step24 {transform: translateX(24576px);}
.step25 {transform: translateX(25600px);}
.step26 {transform: translateX(26624px);}
.step27 {transform: translateX(27648px);}
.step28 {transform: translateX(28672px);}
.step29 {transform: translateX(29696px);}
    </style>

    <path d="M 325 481 Q 321 482 317 482 Q 266 482 224 483 Q 188 483 207 504 Q 280 625 352 714 Q 367 732 364 740 Q 363 755 322 788 Q 306 801 287 799 Q 275 795 281 780 Q 302 728 183 537 Q 165 516 140 493 Q 121 478 122 466 Q 126 447 140 428 Q 150 416 164 423 Q 189 436 272 453 Q 294 454 309 459 C 338 466 355 479 325 481 Z" fill="lightgray" class="stroke step5"/>
    <path d="M 309 459 Q 207 315 179 302 Q 164 293 168 279 Q 169 266 196 245 Q 206 232 222 245 Q 279 287 377 323 Q 396 327 399 337 Q 402 347 381 344 Q 330 335 268 317 Q 240 307 258 330 Q 402 525 454 567 Q 467 577 461 588 Q 451 607 416 627 Q 400 637 390 634 Q 380 630 381 614 Q 384 572 325 481 L 309 459 Z" fill="lightgray" class="stroke step5"/>
    <path d="M 125 133 Q 112 130 111 119 Q 110 106 121 98 Q 146 85 182 68 Q 192 67 204 76 Q 216 89 388 195 Q 410 208 425 222 Q 438 232 437 241 Q 430 247 343 210 Q 163 135 125 133 Z" fill="lightgray" class="stroke step5"/>
    <path d="M 650 676 Q 669 713 686 732 Q 696 744 690 757 Q 684 770 654 791 Q 626 807 606 806 Q 587 803 597 781 Q 613 753 603 726 Q 552 572 417 384 Q 407 372 405 366 Q 402 354 417 358 Q 474 376 618 614 Q 627 633 638 651 L 650 676 Z" fill="lightgray" class="stroke step5"/>
    <path d="M 638 651 Q 705 539 794 419 Q 810 398 841 398 Q 941 395 973 399 Q 983 400 984 405 Q 985 409 972 418 Q 824 487 763 553 Q 709 608 650 676 C 630 699 623 677 638 651 Z" fill="lightgray" class="stroke step5"/>
    <path d="M 543 222 Q 544 223 547 223 Q 698 305 771 333 Q 790 334 788 346 Q 785 364 770 386 Q 754 408 732 415 Q 717 418 714 398 Q 714 383 702 369 Q 647 320 546 246 C 522 228 515 211 543 222 Z" fill="lightgray" class="stroke step5"/>
    <path d="M 546 246 Q 550 292 561 343 Q 567 362 555 372 Q 542 385 518 395 Q 505 399 496 395 Q 489 391 494 373 Q 507 333 503 293 Q 490 131 503 86 Q 507 61 529 40 Q 616 -29 787 1 Q 796 4 807 5 Q 849 17 890 45 Q 909 61 896 88 Q 881 119 861 217 Q 860 233 853 238 Q 846 241 842 223 Q 817 120 799 87 Q 763 48 660 57 Q 620 58 588 73 Q 560 86 552 105 Q 537 136 543 222 L 546 246 Z" fill="lightgray" class="hide"/></g><g transform="scale(1, -1) translate(0, -900)">
    <style type="text/css">
        .origin {display:none;}
        .hide {display:none;}
        .stroke {fill: #000000;}
        
.step1 {transform: translateX(1024px);}
.step2 {transform: translateX(2048px);}
.step3 {transform: translateX(3072px);}
.step4 {transform: translateX(4096px);}
.step5 {transform: translateX(5120px);}
.step6 {transform: translateX(6144px);}
.step7 {transform: translateX(7168px);}
.step8 {transform: translateX(8192px);}
.step9 {transform: translateX(9216px);}
.step10 {transform: translateX(10240px);}
.step11 {transform: translateX(11264px);}
.step12 {transform: translateX(12288px);}
.step13 {transform: translateX(13312px);}
.step14 {transform: translateX(14336px);}
.step15 {transform: translateX(15360px);}
.step16 {transform: translateX(16384px);}
.step17 {transform: translateX(17408px);}
.step18 {transform: translateX(18432px);}
.step19 {transform: translateX(19456px);}
.step20 {transform: translateX(20480px);}
.step21 {transform: translateX(21504px);}
.step22 {transform: translateX(22528px);}
.step23 {transform: translateX(23552px);}
.step24 {transform: translateX(24576px);}
.step25 {transform: translateX(25600px);}
.step26 {transform: translateX(26624px);}
.step27 {transform: translateX(27648px);}
.step28 {transform: translateX(28672px);}
.step29 {transform: translateX(29696px);}
    </style>

    <path d="M 325 481 Q 321 482 317 482 Q 266 482 224 483 Q 188 483 207 504 Q 280 625 352 714 Q 367 732 364 740 Q 363 755 322 788 Q 306 801 287 799 Q 275 795 281 780 Q 302 728 183 537 Q 165 516 140 493 Q 121 478 122 466 Q 126 447 140 428 Q 150 416 164 423 Q 189 436 272 453 Q 294 454 309 459 C 338 466 355 479 325 481 Z" fill="lightgray" class="stroke step6"/>
    <path d="M 309 459 Q 207 315 179 302 Q 164 293 168 279 Q 169 266 196 245 Q 206 232 222 245 Q 279 287 377 323 Q 396 327 399 337 Q 402 347 381 344 Q 330 335 268 317 Q 240 307 258 330 Q 402 525 454 567 Q 467 577 461 588 Q 451 607 416 627 Q 400 637 390 634 Q 380 630 381 614 Q 384 572 325 481 L 309 459 Z" fill="lightgray" class="stroke step6"/>
    <path d="M 125 133 Q 112 130 111 119 Q 110 106 121 98 Q 146 85 182 68 Q 192 67 204 76 Q 216 89 388 195 Q 410 208 425 222 Q 438 232 437 241 Q 430 247 343 210 Q 163 135 125 133 Z" fill="lightgray" class="stroke step6"/>
    <path d="M 650 676 Q 669 713 686 732 Q 696 744 690 757 Q 684 770 654 791 Q 626 807 606 806 Q 587 803 597 781 Q 613 753 603 726 Q 552 572 417 384 Q 407 372 405 366 Q 402 354 417 358 Q 474 376 618 614 Q 627 633 638 651 L 650 676 Z" fill="lightgray" class="stroke step6"/>
    <path d="M 638 651 Q 705 539 794 419 Q 810 398 841 398 Q 941 395 973 399 Q 983 400 984 405 Q 985 409 972 418 Q 824 487 763 553 Q 709 608 650 676 C 630 699 623 677 638 651 Z" fill="lightgray" class="stroke step6"/>
    <path d="M 543 222 Q 544 223 547 223 Q 698 305 771 333 Q 790 334 788 346 Q 785 364 770 386 Q 754 408 732 415 Q 717 418 714 398 Q 714 383 702 369 Q 647 320 546 246 C 522 228 515 211 543 222 Z" fill="lightgray" class="stroke step6"/>
    <path d="M 546 246 Q 550 292 561 343 Q 567 362 555 372 Q 542 385 518 395 Q 505 399 496 395 Q 489 391 494 373 Q 507 333 503 293 Q 490 131 503 86 Q 507 61 529 40 Q 616 -29 787 1 Q 796 4 807 5 Q 849 17 890 45 Q 909 61 896 88 Q 881 119 861 217 Q 860 233 853 238 Q 846 241 842 223 Q 817 120 799 87 Q 763 48 660 57 Q 620 58 588 73 Q 560 86 552 105 Q 537 136 543 222 L 546 246 Z" fill="lightgray" class="stroke step6"/></g></svg>