<svg version="1.1" viewBox="0 0 4096 1024" xmlns="http://www.w3.org/2000/svg">
  
  <g transform="scale(1, -1) translate(0, -900)" class="origin">
    <style type="text/css">
        .origin {display:none;}
        .hide {display:none;}
        .stroke {fill: #000000;}
        
.step1 {transform: translateX(1024px);}
.step2 {transform: translateX(2048px);}
.step3 {transform: translateX(3072px);}
.step4 {transform: translateX(4096px);}
.step5 {transform: translateX(5120px);}
.step6 {transform: translateX(6144px);}
.step7 {transform: translateX(7168px);}
.step8 {transform: translateX(8192px);}
.step9 {transform: translateX(9216px);}
.step10 {transform: translateX(10240px);}
.step11 {transform: translateX(11264px);}
.step12 {transform: translateX(12288px);}
.step13 {transform: translateX(13312px);}
.step14 {transform: translateX(14336px);}
.step15 {transform: translateX(15360px);}
.step16 {transform: translateX(16384px);}
.step17 {transform: translateX(17408px);}
.step18 {transform: translateX(18432px);}
.step19 {transform: translateX(19456px);}
.step20 {transform: translateX(20480px);}
.step21 {transform: translateX(21504px);}
.step22 {transform: translateX(22528px);}
.step23 {transform: translateX(23552px);}
.step24 {transform: translateX(24576px);}
.step25 {transform: translateX(25600px);}
.step26 {transform: translateX(26624px);}
.step27 {transform: translateX(27648px);}
.step28 {transform: translateX(28672px);}
.step29 {transform: translateX(29696px);}
    </style>

    <path d="M 246 686 Q 221 708 194 715 Q 183 718 176 708 Q 172 702 180 690 Q 209 621 208 553 Q 209 478 202 423 Q 198 382 182 326 Q 174 298 178 278 Q 189 241 201 227 Q 214 213 223 227 Q 257 270 259 552 L 259 641 C 259 671 259 676 246 686 Z" fill="lightgray"/>
    <path d="M 259 641 Q 270 640 283 643 Q 468 686 694 716 Q 721 722 735 708 Q 757 698 756 632 Q 755 559 759 399 Q 759 363 745 351 Q 729 342 663 367 Q 645 372 645 361 Q 645 353 660 344 Q 715 288 747 245 Q 768 221 784 223 Q 798 227 811 260 Q 831 310 833 386 Q 819 469 819 612 Q 819 643 827 666 L 838 697 Q 844 711 835 722 Q 827 733 808 747 Q 759 778 723 771 Q 548 717 246 686 C 216 683 229 637 259 641 Z" fill="lightgray"/>
    <path d="M 472 470 Q 416 403 329 338 Q 321 331 327 328 Q 355 318 447 384 Q 484 410 512 443 L 543 486 Q 563 514 578 549 Q 602 598 617 621 Q 625 629 621 639 Q 614 649 586 667 Q 566 680 555.5 677 Q 545 674 545 661 Q 549 598 498 506 L 472 470 Z" fill="lightgray"/>
    <path d="M 356 548 Q 356 545 357 543 Q 359 537 376 526 Q 449 484 472 470 L 512 443 Q 552 419 592 389 Q 605 380 615 378 Q 617 378 619 380 Q 637 392 616 431 Q 604 456 543 486 L 498 506 Q 485 517 363 557 Q 356 557 356 548 Z" fill="lightgray"/></g>
<g transform="scale(1, -1) translate(0, -900)">
    <style type="text/css">
        .origin {display:none;}
        .hide {display:none;}
        .stroke {fill: #000000;}
        
.step1 {transform: translateX(1024px);}
.step2 {transform: translateX(2048px);}
.step3 {transform: translateX(3072px);}
.step4 {transform: translateX(4096px);}
.step5 {transform: translateX(5120px);}
.step6 {transform: translateX(6144px);}
.step7 {transform: translateX(7168px);}
.step8 {transform: translateX(8192px);}
.step9 {transform: translateX(9216px);}
.step10 {transform: translateX(10240px);}
.step11 {transform: translateX(11264px);}
.step12 {transform: translateX(12288px);}
.step13 {transform: translateX(13312px);}
.step14 {transform: translateX(14336px);}
.step15 {transform: translateX(15360px);}
.step16 {transform: translateX(16384px);}
.step17 {transform: translateX(17408px);}
.step18 {transform: translateX(18432px);}
.step19 {transform: translateX(19456px);}
.step20 {transform: translateX(20480px);}
.step21 {transform: translateX(21504px);}
.step22 {transform: translateX(22528px);}
.step23 {transform: translateX(23552px);}
.step24 {transform: translateX(24576px);}
.step25 {transform: translateX(25600px);}
.step26 {transform: translateX(26624px);}
.step27 {transform: translateX(27648px);}
.step28 {transform: translateX(28672px);}
.step29 {transform: translateX(29696px);}
    </style>

    <path d="M 246 686 Q 221 708 194 715 Q 183 718 176 708 Q 172 702 180 690 Q 209 621 208 553 Q 209 478 202 423 Q 198 382 182 326 Q 174 298 178 278 Q 189 241 201 227 Q 214 213 223 227 Q 257 270 259 552 L 259 641 C 259 671 259 676 246 686 Z" fill="lightgray" class="stroke step0"/>
    <path d="M 259 641 Q 270 640 283 643 Q 468 686 694 716 Q 721 722 735 708 Q 757 698 756 632 Q 755 559 759 399 Q 759 363 745 351 Q 729 342 663 367 Q 645 372 645 361 Q 645 353 660 344 Q 715 288 747 245 Q 768 221 784 223 Q 798 227 811 260 Q 831 310 833 386 Q 819 469 819 612 Q 819 643 827 666 L 838 697 Q 844 711 835 722 Q 827 733 808 747 Q 759 778 723 771 Q 548 717 246 686 C 216 683 229 637 259 641 Z" fill="lightgray" class="hide"/>
    <path d="M 472 470 Q 416 403 329 338 Q 321 331 327 328 Q 355 318 447 384 Q 484 410 512 443 L 543 486 Q 563 514 578 549 Q 602 598 617 621 Q 625 629 621 639 Q 614 649 586 667 Q 566 680 555.5 677 Q 545 674 545 661 Q 549 598 498 506 L 472 470 Z" fill="lightgray" class="hide"/>
    <path d="M 356 548 Q 356 545 357 543 Q 359 537 376 526 Q 449 484 472 470 L 512 443 Q 552 419 592 389 Q 605 380 615 378 Q 617 378 619 380 Q 637 392 616 431 Q 604 456 543 486 L 498 506 Q 485 517 363 557 Q 356 557 356 548 Z" fill="lightgray" class="hide"/></g><g transform="scale(1, -1) translate(0, -900)">
    <style type="text/css">
        .origin {display:none;}
        .hide {display:none;}
        .stroke {fill: #000000;}
        
.step1 {transform: translateX(1024px);}
.step2 {transform: translateX(2048px);}
.step3 {transform: translateX(3072px);}
.step4 {transform: translateX(4096px);}
.step5 {transform: translateX(5120px);}
.step6 {transform: translateX(6144px);}
.step7 {transform: translateX(7168px);}
.step8 {transform: translateX(8192px);}
.step9 {transform: translateX(9216px);}
.step10 {transform: translateX(10240px);}
.step11 {transform: translateX(11264px);}
.step12 {transform: translateX(12288px);}
.step13 {transform: translateX(13312px);}
.step14 {transform: translateX(14336px);}
.step15 {transform: translateX(15360px);}
.step16 {transform: translateX(16384px);}
.step17 {transform: translateX(17408px);}
.step18 {transform: translateX(18432px);}
.step19 {transform: translateX(19456px);}
.step20 {transform: translateX(20480px);}
.step21 {transform: translateX(21504px);}
.step22 {transform: translateX(22528px);}
.step23 {transform: translateX(23552px);}
.step24 {transform: translateX(24576px);}
.step25 {transform: translateX(25600px);}
.step26 {transform: translateX(26624px);}
.step27 {transform: translateX(27648px);}
.step28 {transform: translateX(28672px);}
.step29 {transform: translateX(29696px);}
    </style>

    <path d="M 246 686 Q 221 708 194 715 Q 183 718 176 708 Q 172 702 180 690 Q 209 621 208 553 Q 209 478 202 423 Q 198 382 182 326 Q 174 298 178 278 Q 189 241 201 227 Q 214 213 223 227 Q 257 270 259 552 L 259 641 C 259 671 259 676 246 686 Z" fill="lightgray" class="stroke step1"/>
    <path d="M 259 641 Q 270 640 283 643 Q 468 686 694 716 Q 721 722 735 708 Q 757 698 756 632 Q 755 559 759 399 Q 759 363 745 351 Q 729 342 663 367 Q 645 372 645 361 Q 645 353 660 344 Q 715 288 747 245 Q 768 221 784 223 Q 798 227 811 260 Q 831 310 833 386 Q 819 469 819 612 Q 819 643 827 666 L 838 697 Q 844 711 835 722 Q 827 733 808 747 Q 759 778 723 771 Q 548 717 246 686 C 216 683 229 637 259 641 Z" fill="lightgray" class="stroke step1"/>
    <path d="M 472 470 Q 416 403 329 338 Q 321 331 327 328 Q 355 318 447 384 Q 484 410 512 443 L 543 486 Q 563 514 578 549 Q 602 598 617 621 Q 625 629 621 639 Q 614 649 586 667 Q 566 680 555.5 677 Q 545 674 545 661 Q 549 598 498 506 L 472 470 Z" fill="lightgray" class="hide"/>
    <path d="M 356 548 Q 356 545 357 543 Q 359 537 376 526 Q 449 484 472 470 L 512 443 Q 552 419 592 389 Q 605 380 615 378 Q 617 378 619 380 Q 637 392 616 431 Q 604 456 543 486 L 498 506 Q 485 517 363 557 Q 356 557 356 548 Z" fill="lightgray" class="hide"/></g><g transform="scale(1, -1) translate(0, -900)">
    <style type="text/css">
        .origin {display:none;}
        .hide {display:none;}
        .stroke {fill: #000000;}
        
.step1 {transform: translateX(1024px);}
.step2 {transform: translateX(2048px);}
.step3 {transform: translateX(3072px);}
.step4 {transform: translateX(4096px);}
.step5 {transform: translateX(5120px);}
.step6 {transform: translateX(6144px);}
.step7 {transform: translateX(7168px);}
.step8 {transform: translateX(8192px);}
.step9 {transform: translateX(9216px);}
.step10 {transform: translateX(10240px);}
.step11 {transform: translateX(11264px);}
.step12 {transform: translateX(12288px);}
.step13 {transform: translateX(13312px);}
.step14 {transform: translateX(14336px);}
.step15 {transform: translateX(15360px);}
.step16 {transform: translateX(16384px);}
.step17 {transform: translateX(17408px);}
.step18 {transform: translateX(18432px);}
.step19 {transform: translateX(19456px);}
.step20 {transform: translateX(20480px);}
.step21 {transform: translateX(21504px);}
.step22 {transform: translateX(22528px);}
.step23 {transform: translateX(23552px);}
.step24 {transform: translateX(24576px);}
.step25 {transform: translateX(25600px);}
.step26 {transform: translateX(26624px);}
.step27 {transform: translateX(27648px);}
.step28 {transform: translateX(28672px);}
.step29 {transform: translateX(29696px);}
    </style>

    <path d="M 246 686 Q 221 708 194 715 Q 183 718 176 708 Q 172 702 180 690 Q 209 621 208 553 Q 209 478 202 423 Q 198 382 182 326 Q 174 298 178 278 Q 189 241 201 227 Q 214 213 223 227 Q 257 270 259 552 L 259 641 C 259 671 259 676 246 686 Z" fill="lightgray" class="stroke step2"/>
    <path d="M 259 641 Q 270 640 283 643 Q 468 686 694 716 Q 721 722 735 708 Q 757 698 756 632 Q 755 559 759 399 Q 759 363 745 351 Q 729 342 663 367 Q 645 372 645 361 Q 645 353 660 344 Q 715 288 747 245 Q 768 221 784 223 Q 798 227 811 260 Q 831 310 833 386 Q 819 469 819 612 Q 819 643 827 666 L 838 697 Q 844 711 835 722 Q 827 733 808 747 Q 759 778 723 771 Q 548 717 246 686 C 216 683 229 637 259 641 Z" fill="lightgray" class="stroke step2"/>
    <path d="M 472 470 Q 416 403 329 338 Q 321 331 327 328 Q 355 318 447 384 Q 484 410 512 443 L 543 486 Q 563 514 578 549 Q 602 598 617 621 Q 625 629 621 639 Q 614 649 586 667 Q 566 680 555.5 677 Q 545 674 545 661 Q 549 598 498 506 L 472 470 Z" fill="lightgray" class="stroke step2"/>
    <path d="M 356 548 Q 356 545 357 543 Q 359 537 376 526 Q 449 484 472 470 L 512 443 Q 552 419 592 389 Q 605 380 615 378 Q 617 378 619 380 Q 637 392 616 431 Q 604 456 543 486 L 498 506 Q 485 517 363 557 Q 356 557 356 548 Z" fill="lightgray" class="hide"/></g><g transform="scale(1, -1) translate(0, -900)">
    <style type="text/css">
        .origin {display:none;}
        .hide {display:none;}
        .stroke {fill: #000000;}
        
.step1 {transform: translateX(1024px);}
.step2 {transform: translateX(2048px);}
.step3 {transform: translateX(3072px);}
.step4 {transform: translateX(4096px);}
.step5 {transform: translateX(5120px);}
.step6 {transform: translateX(6144px);}
.step7 {transform: translateX(7168px);}
.step8 {transform: translateX(8192px);}
.step9 {transform: translateX(9216px);}
.step10 {transform: translateX(10240px);}
.step11 {transform: translateX(11264px);}
.step12 {transform: translateX(12288px);}
.step13 {transform: translateX(13312px);}
.step14 {transform: translateX(14336px);}
.step15 {transform: translateX(15360px);}
.step16 {transform: translateX(16384px);}
.step17 {transform: translateX(17408px);}
.step18 {transform: translateX(18432px);}
.step19 {transform: translateX(19456px);}
.step20 {transform: translateX(20480px);}
.step21 {transform: translateX(21504px);}
.step22 {transform: translateX(22528px);}
.step23 {transform: translateX(23552px);}
.step24 {transform: translateX(24576px);}
.step25 {transform: translateX(25600px);}
.step26 {transform: translateX(26624px);}
.step27 {transform: translateX(27648px);}
.step28 {transform: translateX(28672px);}
.step29 {transform: translateX(29696px);}
    </style>

    <path d="M 246 686 Q 221 708 194 715 Q 183 718 176 708 Q 172 702 180 690 Q 209 621 208 553 Q 209 478 202 423 Q 198 382 182 326 Q 174 298 178 278 Q 189 241 201 227 Q 214 213 223 227 Q 257 270 259 552 L 259 641 C 259 671 259 676 246 686 Z" fill="lightgray" class="stroke step3"/>
    <path d="M 259 641 Q 270 640 283 643 Q 468 686 694 716 Q 721 722 735 708 Q 757 698 756 632 Q 755 559 759 399 Q 759 363 745 351 Q 729 342 663 367 Q 645 372 645 361 Q 645 353 660 344 Q 715 288 747 245 Q 768 221 784 223 Q 798 227 811 260 Q 831 310 833 386 Q 819 469 819 612 Q 819 643 827 666 L 838 697 Q 844 711 835 722 Q 827 733 808 747 Q 759 778 723 771 Q 548 717 246 686 C 216 683 229 637 259 641 Z" fill="lightgray" class="stroke step3"/>
    <path d="M 472 470 Q 416 403 329 338 Q 321 331 327 328 Q 355 318 447 384 Q 484 410 512 443 L 543 486 Q 563 514 578 549 Q 602 598 617 621 Q 625 629 621 639 Q 614 649 586 667 Q 566 680 555.5 677 Q 545 674 545 661 Q 549 598 498 506 L 472 470 Z" fill="lightgray" class="stroke step3"/>
    <path d="M 356 548 Q 356 545 357 543 Q 359 537 376 526 Q 449 484 472 470 L 512 443 Q 552 419 592 389 Q 605 380 615 378 Q 617 378 619 380 Q 637 392 616 431 Q 604 456 543 486 L 498 506 Q 485 517 363 557 Q 356 557 356 548 Z" fill="lightgray" class="stroke step3"/></g></svg>