<svg version="1.1" viewBox="0 0 15360 1024" xmlns="http://www.w3.org/2000/svg">
  
  <g transform="scale(1, -1) translate(0, -900)" class="origin">
    <style type="text/css">
        .origin {display:none;}
        .hide {display:none;}
        .stroke {fill: #000000;}
        
.step1 {transform: translateX(1024px);}
.step2 {transform: translateX(2048px);}
.step3 {transform: translateX(3072px);}
.step4 {transform: translateX(4096px);}
.step5 {transform: translateX(5120px);}
.step6 {transform: translateX(6144px);}
.step7 {transform: translateX(7168px);}
.step8 {transform: translateX(8192px);}
.step9 {transform: translateX(9216px);}
.step10 {transform: translateX(10240px);}
.step11 {transform: translateX(11264px);}
.step12 {transform: translateX(12288px);}
.step13 {transform: translateX(13312px);}
.step14 {transform: translateX(14336px);}
.step15 {transform: translateX(15360px);}
.step16 {transform: translateX(16384px);}
.step17 {transform: translateX(17408px);}
.step18 {transform: translateX(18432px);}
.step19 {transform: translateX(19456px);}
.step20 {transform: translateX(20480px);}
.step21 {transform: translateX(21504px);}
.step22 {transform: translateX(22528px);}
.step23 {transform: translateX(23552px);}
.step24 {transform: translateX(24576px);}
.step25 {transform: translateX(25600px);}
.step26 {transform: translateX(26624px);}
.step27 {transform: translateX(27648px);}
.step28 {transform: translateX(28672px);}
.step29 {transform: translateX(29696px);}
    </style>

    <path d="M 359 618 Q 455 648 456 649 Q 465 656 460 665 Q 453 675 424 681 Q 394 684 363 671 L 314 653 Q 250 635 187 625 Q 153 618 178 602 Q 218 584 284 600 Q 297 603 315 607 L 359 618 Z" fill="lightgray"/>
    <path d="M 356 495 Q 378 502 405 509 Q 433 518 437 522 Q 444 529 440 538 Q 433 548 405 552 Q 380 556 357 545 L 315 528 Q 219 504 201 499 Q 168 490 194 477 Q 234 458 283 475 Q 296 479 314 483 L 356 495 Z" fill="lightgray"/>
    <path d="M 354 383 Q 405 395 466 404 Q 482 407 482 414 Q 483 426 465 434 Q 440 444 418 439 Q 382 430 354 422 L 311 411 Q 170 380 96 369 Q 83 368 81 360 Q 78 350 93 339 Q 132 315 169 328 Q 239 353 289 367 L 354 383 Z" fill="lightgray"/>
    <path d="M 353 348 Q 353 366 354 383 L 354 422 Q 354 456 356 495 L 357 545 Q 357 591 359 618 L 363 671 Q 367 708 377 738 Q 386 753 383 766 Q 376 776 322 809 Q 300 825 279 811 Q 275 807 281 791 Q 312 740 314 653 L 315 607 Q 315 568 315 528 L 314 483 Q 313 449 311 411 L 308 293 Q 308 185 282 97 Q 272 60 296 -2 Q 303 -20 311 -23 Q 317 -30 324 -21 Q 351 -5 351 58 Q 350 94 352 316 L 353 348 Z" fill="lightgray"/>
    <path d="M 289 367 Q 244 250 118 128 Q 105 116 90 102 Q 80 90 88 89 Q 97 85 107 91 Q 215 140 308 293 C 366 387 300 395 289 367 Z" fill="lightgray"/>
    <path d="M 352 316 Q 395 265 413 262 Q 423 261 429 275 Q 430 285 424 301 Q 408 331 353 348 C 324 357 333 339 352 316 Z" fill="lightgray"/>
    <path d="M 528 672 Q 573 627 585 626 Q 592 626 597 637 Q 601 647 595 671 Q 588 692 525 709 Q 513 713 508 711 Q 504 707 505 698 Q 506 689 528 672 Z" fill="lightgray"/>
    <path d="M 782 732 Q 761 707 720 667 Q 716 661 719 655 Q 725 654 731 656 Q 804 695 839 708 Q 854 711 851 720 Q 848 733 834 750 Q 821 766 803 770 Q 791 771 790 755 Q 791 745 782 732 Z" fill="lightgray"/>
    <path d="M 681 558 Q 726 570 845 582 Q 855 581 865 594 Q 866 606 843 616 Q 813 637 731 613 Q 707 609 684 602 Q 680 601 677 600 L 642 593 Q 567 583 488 573 Q 460 569 482 552 Q 513 525 543 533 Q 571 540 606 545 L 681 558 Z" fill="lightgray"/>
    <path d="M 677 600 Q 680 729 707 783 Q 713 792 702 805 Q 650 847 621 837 Q 608 833 614 818 Q 642 772 641 698 Q 642 641 642 593 L 639 508 Q 636 441 629 410 Q 628 395 634 379 Q 640 370 645 358 Q 655 343 669 351 Q 684 366 677 466 Q 677 497 675 529 L 677 600 Z" fill="lightgray"/>
    <path d="M 606 545 Q 579 472 461 379 Q 446 367 460 366 Q 517 362 607 465 Q 608 468 611 469 Q 627 490 639 508 C 673 558 624 591 606 545 Z" fill="lightgray"/>
    <path d="M 675 529 Q 721 462 775 400 Q 793 379 824 376 Q 882 369 944 376 Q 960 377 961 381 Q 962 387 951 392 Q 819 449 800 462 Q 779 472 681 558 C 658 578 653 561 675 529 Z" fill="lightgray"/>
    <path d="M 669 69 Q 717 36 784 -22 Q 808 -43 825 -42 Q 844 -43 845 -24 Q 846 -5 820 39 Q 808 64 701 109 L 655 128 Q 615 144 587 152 Q 565 156 576 178 Q 589 209 599 230 L 618 271 Q 619 275 621 277 Q 628 301 639 316 Q 646 323 644 332 Q 638 345 601 369 Q 591 378 581 373 Q 568 370 576 355 Q 586 334 579 311 Q 573 287 567 265 L 554 224 Q 544 196 531 175 Q 522 159 525 146 Q 528 137 544 134 Q 607 115 627 95 L 669 69 Z" fill="lightgray"/>
    <path d="M 627 95 Q 557 44 460 17 Q 442 8 463 6 Q 583 -1 669 69 L 701 109 Q 740 190 746 204 Q 746 213 757 242 C 767 270 773 287 767 292 Q 755 305 733 311 Q 714 321 695 316 Q 682 312 689 297 Q 693 290 695 281 L 698 240 Q 697 221 688 198 Q 679 159 655 128 L 627 95 Z" fill="lightgray"/>
    <path d="M 757 242 Q 809 245 873 243 Q 892 242 910 242 Q 929 241 934 250 Q 940 260 924 274 Q 869 316 816 301 Q 794 298 767 292 L 695 281 Q 659 280 618 271 L 567 265 Q 498 258 424 249 Q 405 248 419 231 Q 432 218 449 212 Q 470 206 485 210 Q 516 219 554 224 L 599 230 Q 626 236 698 240 L 757 242 Z" fill="lightgray"/></g>
<g transform="scale(1, -1) translate(0, -900)">
    <style type="text/css">
        .origin {display:none;}
        .hide {display:none;}
        .stroke {fill: #000000;}
        
.step1 {transform: translateX(1024px);}
.step2 {transform: translateX(2048px);}
.step3 {transform: translateX(3072px);}
.step4 {transform: translateX(4096px);}
.step5 {transform: translateX(5120px);}
.step6 {transform: translateX(6144px);}
.step7 {transform: translateX(7168px);}
.step8 {transform: translateX(8192px);}
.step9 {transform: translateX(9216px);}
.step10 {transform: translateX(10240px);}
.step11 {transform: translateX(11264px);}
.step12 {transform: translateX(12288px);}
.step13 {transform: translateX(13312px);}
.step14 {transform: translateX(14336px);}
.step15 {transform: translateX(15360px);}
.step16 {transform: translateX(16384px);}
.step17 {transform: translateX(17408px);}
.step18 {transform: translateX(18432px);}
.step19 {transform: translateX(19456px);}
.step20 {transform: translateX(20480px);}
.step21 {transform: translateX(21504px);}
.step22 {transform: translateX(22528px);}
.step23 {transform: translateX(23552px);}
.step24 {transform: translateX(24576px);}
.step25 {transform: translateX(25600px);}
.step26 {transform: translateX(26624px);}
.step27 {transform: translateX(27648px);}
.step28 {transform: translateX(28672px);}
.step29 {transform: translateX(29696px);}
    </style>

    <path d="M 359 618 Q 455 648 456 649 Q 465 656 460 665 Q 453 675 424 681 Q 394 684 363 671 L 314 653 Q 250 635 187 625 Q 153 618 178 602 Q 218 584 284 600 Q 297 603 315 607 L 359 618 Z" fill="lightgray" class="stroke step0"/>
    <path d="M 356 495 Q 378 502 405 509 Q 433 518 437 522 Q 444 529 440 538 Q 433 548 405 552 Q 380 556 357 545 L 315 528 Q 219 504 201 499 Q 168 490 194 477 Q 234 458 283 475 Q 296 479 314 483 L 356 495 Z" fill="lightgray" class="hide"/>
    <path d="M 354 383 Q 405 395 466 404 Q 482 407 482 414 Q 483 426 465 434 Q 440 444 418 439 Q 382 430 354 422 L 311 411 Q 170 380 96 369 Q 83 368 81 360 Q 78 350 93 339 Q 132 315 169 328 Q 239 353 289 367 L 354 383 Z" fill="lightgray" class="hide"/>
    <path d="M 353 348 Q 353 366 354 383 L 354 422 Q 354 456 356 495 L 357 545 Q 357 591 359 618 L 363 671 Q 367 708 377 738 Q 386 753 383 766 Q 376 776 322 809 Q 300 825 279 811 Q 275 807 281 791 Q 312 740 314 653 L 315 607 Q 315 568 315 528 L 314 483 Q 313 449 311 411 L 308 293 Q 308 185 282 97 Q 272 60 296 -2 Q 303 -20 311 -23 Q 317 -30 324 -21 Q 351 -5 351 58 Q 350 94 352 316 L 353 348 Z" fill="lightgray" class="hide"/>
    <path d="M 289 367 Q 244 250 118 128 Q 105 116 90 102 Q 80 90 88 89 Q 97 85 107 91 Q 215 140 308 293 C 366 387 300 395 289 367 Z" fill="lightgray" class="hide"/>
    <path d="M 352 316 Q 395 265 413 262 Q 423 261 429 275 Q 430 285 424 301 Q 408 331 353 348 C 324 357 333 339 352 316 Z" fill="lightgray" class="hide"/>
    <path d="M 528 672 Q 573 627 585 626 Q 592 626 597 637 Q 601 647 595 671 Q 588 692 525 709 Q 513 713 508 711 Q 504 707 505 698 Q 506 689 528 672 Z" fill="lightgray" class="hide"/>
    <path d="M 782 732 Q 761 707 720 667 Q 716 661 719 655 Q 725 654 731 656 Q 804 695 839 708 Q 854 711 851 720 Q 848 733 834 750 Q 821 766 803 770 Q 791 771 790 755 Q 791 745 782 732 Z" fill="lightgray" class="hide"/>
    <path d="M 681 558 Q 726 570 845 582 Q 855 581 865 594 Q 866 606 843 616 Q 813 637 731 613 Q 707 609 684 602 Q 680 601 677 600 L 642 593 Q 567 583 488 573 Q 460 569 482 552 Q 513 525 543 533 Q 571 540 606 545 L 681 558 Z" fill="lightgray" class="hide"/>
    <path d="M 677 600 Q 680 729 707 783 Q 713 792 702 805 Q 650 847 621 837 Q 608 833 614 818 Q 642 772 641 698 Q 642 641 642 593 L 639 508 Q 636 441 629 410 Q 628 395 634 379 Q 640 370 645 358 Q 655 343 669 351 Q 684 366 677 466 Q 677 497 675 529 L 677 600 Z" fill="lightgray" class="hide"/>
    <path d="M 606 545 Q 579 472 461 379 Q 446 367 460 366 Q 517 362 607 465 Q 608 468 611 469 Q 627 490 639 508 C 673 558 624 591 606 545 Z" fill="lightgray" class="hide"/>
    <path d="M 675 529 Q 721 462 775 400 Q 793 379 824 376 Q 882 369 944 376 Q 960 377 961 381 Q 962 387 951 392 Q 819 449 800 462 Q 779 472 681 558 C 658 578 653 561 675 529 Z" fill="lightgray" class="hide"/>
    <path d="M 669 69 Q 717 36 784 -22 Q 808 -43 825 -42 Q 844 -43 845 -24 Q 846 -5 820 39 Q 808 64 701 109 L 655 128 Q 615 144 587 152 Q 565 156 576 178 Q 589 209 599 230 L 618 271 Q 619 275 621 277 Q 628 301 639 316 Q 646 323 644 332 Q 638 345 601 369 Q 591 378 581 373 Q 568 370 576 355 Q 586 334 579 311 Q 573 287 567 265 L 554 224 Q 544 196 531 175 Q 522 159 525 146 Q 528 137 544 134 Q 607 115 627 95 L 669 69 Z" fill="lightgray" class="hide"/>
    <path d="M 627 95 Q 557 44 460 17 Q 442 8 463 6 Q 583 -1 669 69 L 701 109 Q 740 190 746 204 Q 746 213 757 242 C 767 270 773 287 767 292 Q 755 305 733 311 Q 714 321 695 316 Q 682 312 689 297 Q 693 290 695 281 L 698 240 Q 697 221 688 198 Q 679 159 655 128 L 627 95 Z" fill="lightgray" class="hide"/>
    <path d="M 757 242 Q 809 245 873 243 Q 892 242 910 242 Q 929 241 934 250 Q 940 260 924 274 Q 869 316 816 301 Q 794 298 767 292 L 695 281 Q 659 280 618 271 L 567 265 Q 498 258 424 249 Q 405 248 419 231 Q 432 218 449 212 Q 470 206 485 210 Q 516 219 554 224 L 599 230 Q 626 236 698 240 L 757 242 Z" fill="lightgray" class="hide"/></g><g transform="scale(1, -1) translate(0, -900)">
    <style type="text/css">
        .origin {display:none;}
        .hide {display:none;}
        .stroke {fill: #000000;}
        
.step1 {transform: translateX(1024px);}
.step2 {transform: translateX(2048px);}
.step3 {transform: translateX(3072px);}
.step4 {transform: translateX(4096px);}
.step5 {transform: translateX(5120px);}
.step6 {transform: translateX(6144px);}
.step7 {transform: translateX(7168px);}
.step8 {transform: translateX(8192px);}
.step9 {transform: translateX(9216px);}
.step10 {transform: translateX(10240px);}
.step11 {transform: translateX(11264px);}
.step12 {transform: translateX(12288px);}
.step13 {transform: translateX(13312px);}
.step14 {transform: translateX(14336px);}
.step15 {transform: translateX(15360px);}
.step16 {transform: translateX(16384px);}
.step17 {transform: translateX(17408px);}
.step18 {transform: translateX(18432px);}
.step19 {transform: translateX(19456px);}
.step20 {transform: translateX(20480px);}
.step21 {transform: translateX(21504px);}
.step22 {transform: translateX(22528px);}
.step23 {transform: translateX(23552px);}
.step24 {transform: translateX(24576px);}
.step25 {transform: translateX(25600px);}
.step26 {transform: translateX(26624px);}
.step27 {transform: translateX(27648px);}
.step28 {transform: translateX(28672px);}
.step29 {transform: translateX(29696px);}
    </style>

    <path d="M 359 618 Q 455 648 456 649 Q 465 656 460 665 Q 453 675 424 681 Q 394 684 363 671 L 314 653 Q 250 635 187 625 Q 153 618 178 602 Q 218 584 284 600 Q 297 603 315 607 L 359 618 Z" fill="lightgray" class="stroke step1"/>
    <path d="M 356 495 Q 378 502 405 509 Q 433 518 437 522 Q 444 529 440 538 Q 433 548 405 552 Q 380 556 357 545 L 315 528 Q 219 504 201 499 Q 168 490 194 477 Q 234 458 283 475 Q 296 479 314 483 L 356 495 Z" fill="lightgray" class="stroke step1"/>
    <path d="M 354 383 Q 405 395 466 404 Q 482 407 482 414 Q 483 426 465 434 Q 440 444 418 439 Q 382 430 354 422 L 311 411 Q 170 380 96 369 Q 83 368 81 360 Q 78 350 93 339 Q 132 315 169 328 Q 239 353 289 367 L 354 383 Z" fill="lightgray" class="hide"/>
    <path d="M 353 348 Q 353 366 354 383 L 354 422 Q 354 456 356 495 L 357 545 Q 357 591 359 618 L 363 671 Q 367 708 377 738 Q 386 753 383 766 Q 376 776 322 809 Q 300 825 279 811 Q 275 807 281 791 Q 312 740 314 653 L 315 607 Q 315 568 315 528 L 314 483 Q 313 449 311 411 L 308 293 Q 308 185 282 97 Q 272 60 296 -2 Q 303 -20 311 -23 Q 317 -30 324 -21 Q 351 -5 351 58 Q 350 94 352 316 L 353 348 Z" fill="lightgray" class="hide"/>
    <path d="M 289 367 Q 244 250 118 128 Q 105 116 90 102 Q 80 90 88 89 Q 97 85 107 91 Q 215 140 308 293 C 366 387 300 395 289 367 Z" fill="lightgray" class="hide"/>
    <path d="M 352 316 Q 395 265 413 262 Q 423 261 429 275 Q 430 285 424 301 Q 408 331 353 348 C 324 357 333 339 352 316 Z" fill="lightgray" class="hide"/>
    <path d="M 528 672 Q 573 627 585 626 Q 592 626 597 637 Q 601 647 595 671 Q 588 692 525 709 Q 513 713 508 711 Q 504 707 505 698 Q 506 689 528 672 Z" fill="lightgray" class="hide"/>
    <path d="M 782 732 Q 761 707 720 667 Q 716 661 719 655 Q 725 654 731 656 Q 804 695 839 708 Q 854 711 851 720 Q 848 733 834 750 Q 821 766 803 770 Q 791 771 790 755 Q 791 745 782 732 Z" fill="lightgray" class="hide"/>
    <path d="M 681 558 Q 726 570 845 582 Q 855 581 865 594 Q 866 606 843 616 Q 813 637 731 613 Q 707 609 684 602 Q 680 601 677 600 L 642 593 Q 567 583 488 573 Q 460 569 482 552 Q 513 525 543 533 Q 571 540 606 545 L 681 558 Z" fill="lightgray" class="hide"/>
    <path d="M 677 600 Q 680 729 707 783 Q 713 792 702 805 Q 650 847 621 837 Q 608 833 614 818 Q 642 772 641 698 Q 642 641 642 593 L 639 508 Q 636 441 629 410 Q 628 395 634 379 Q 640 370 645 358 Q 655 343 669 351 Q 684 366 677 466 Q 677 497 675 529 L 677 600 Z" fill="lightgray" class="hide"/>
    <path d="M 606 545 Q 579 472 461 379 Q 446 367 460 366 Q 517 362 607 465 Q 608 468 611 469 Q 627 490 639 508 C 673 558 624 591 606 545 Z" fill="lightgray" class="hide"/>
    <path d="M 675 529 Q 721 462 775 400 Q 793 379 824 376 Q 882 369 944 376 Q 960 377 961 381 Q 962 387 951 392 Q 819 449 800 462 Q 779 472 681 558 C 658 578 653 561 675 529 Z" fill="lightgray" class="hide"/>
    <path d="M 669 69 Q 717 36 784 -22 Q 808 -43 825 -42 Q 844 -43 845 -24 Q 846 -5 820 39 Q 808 64 701 109 L 655 128 Q 615 144 587 152 Q 565 156 576 178 Q 589 209 599 230 L 618 271 Q 619 275 621 277 Q 628 301 639 316 Q 646 323 644 332 Q 638 345 601 369 Q 591 378 581 373 Q 568 370 576 355 Q 586 334 579 311 Q 573 287 567 265 L 554 224 Q 544 196 531 175 Q 522 159 525 146 Q 528 137 544 134 Q 607 115 627 95 L 669 69 Z" fill="lightgray" class="hide"/>
    <path d="M 627 95 Q 557 44 460 17 Q 442 8 463 6 Q 583 -1 669 69 L 701 109 Q 740 190 746 204 Q 746 213 757 242 C 767 270 773 287 767 292 Q 755 305 733 311 Q 714 321 695 316 Q 682 312 689 297 Q 693 290 695 281 L 698 240 Q 697 221 688 198 Q 679 159 655 128 L 627 95 Z" fill="lightgray" class="hide"/>
    <path d="M 757 242 Q 809 245 873 243 Q 892 242 910 242 Q 929 241 934 250 Q 940 260 924 274 Q 869 316 816 301 Q 794 298 767 292 L 695 281 Q 659 280 618 271 L 567 265 Q 498 258 424 249 Q 405 248 419 231 Q 432 218 449 212 Q 470 206 485 210 Q 516 219 554 224 L 599 230 Q 626 236 698 240 L 757 242 Z" fill="lightgray" class="hide"/></g><g transform="scale(1, -1) translate(0, -900)">
    <style type="text/css">
        .origin {display:none;}
        .hide {display:none;}
        .stroke {fill: #000000;}
        
.step1 {transform: translateX(1024px);}
.step2 {transform: translateX(2048px);}
.step3 {transform: translateX(3072px);}
.step4 {transform: translateX(4096px);}
.step5 {transform: translateX(5120px);}
.step6 {transform: translateX(6144px);}
.step7 {transform: translateX(7168px);}
.step8 {transform: translateX(8192px);}
.step9 {transform: translateX(9216px);}
.step10 {transform: translateX(10240px);}
.step11 {transform: translateX(11264px);}
.step12 {transform: translateX(12288px);}
.step13 {transform: translateX(13312px);}
.step14 {transform: translateX(14336px);}
.step15 {transform: translateX(15360px);}
.step16 {transform: translateX(16384px);}
.step17 {transform: translateX(17408px);}
.step18 {transform: translateX(18432px);}
.step19 {transform: translateX(19456px);}
.step20 {transform: translateX(20480px);}
.step21 {transform: translateX(21504px);}
.step22 {transform: translateX(22528px);}
.step23 {transform: translateX(23552px);}
.step24 {transform: translateX(24576px);}
.step25 {transform: translateX(25600px);}
.step26 {transform: translateX(26624px);}
.step27 {transform: translateX(27648px);}
.step28 {transform: translateX(28672px);}
.step29 {transform: translateX(29696px);}
    </style>

    <path d="M 359 618 Q 455 648 456 649 Q 465 656 460 665 Q 453 675 424 681 Q 394 684 363 671 L 314 653 Q 250 635 187 625 Q 153 618 178 602 Q 218 584 284 600 Q 297 603 315 607 L 359 618 Z" fill="lightgray" class="stroke step2"/>
    <path d="M 356 495 Q 378 502 405 509 Q 433 518 437 522 Q 444 529 440 538 Q 433 548 405 552 Q 380 556 357 545 L 315 528 Q 219 504 201 499 Q 168 490 194 477 Q 234 458 283 475 Q 296 479 314 483 L 356 495 Z" fill="lightgray" class="stroke step2"/>
    <path d="M 354 383 Q 405 395 466 404 Q 482 407 482 414 Q 483 426 465 434 Q 440 444 418 439 Q 382 430 354 422 L 311 411 Q 170 380 96 369 Q 83 368 81 360 Q 78 350 93 339 Q 132 315 169 328 Q 239 353 289 367 L 354 383 Z" fill="lightgray" class="stroke step2"/>
    <path d="M 353 348 Q 353 366 354 383 L 354 422 Q 354 456 356 495 L 357 545 Q 357 591 359 618 L 363 671 Q 367 708 377 738 Q 386 753 383 766 Q 376 776 322 809 Q 300 825 279 811 Q 275 807 281 791 Q 312 740 314 653 L 315 607 Q 315 568 315 528 L 314 483 Q 313 449 311 411 L 308 293 Q 308 185 282 97 Q 272 60 296 -2 Q 303 -20 311 -23 Q 317 -30 324 -21 Q 351 -5 351 58 Q 350 94 352 316 L 353 348 Z" fill="lightgray" class="hide"/>
    <path d="M 289 367 Q 244 250 118 128 Q 105 116 90 102 Q 80 90 88 89 Q 97 85 107 91 Q 215 140 308 293 C 366 387 300 395 289 367 Z" fill="lightgray" class="hide"/>
    <path d="M 352 316 Q 395 265 413 262 Q 423 261 429 275 Q 430 285 424 301 Q 408 331 353 348 C 324 357 333 339 352 316 Z" fill="lightgray" class="hide"/>
    <path d="M 528 672 Q 573 627 585 626 Q 592 626 597 637 Q 601 647 595 671 Q 588 692 525 709 Q 513 713 508 711 Q 504 707 505 698 Q 506 689 528 672 Z" fill="lightgray" class="hide"/>
    <path d="M 782 732 Q 761 707 720 667 Q 716 661 719 655 Q 725 654 731 656 Q 804 695 839 708 Q 854 711 851 720 Q 848 733 834 750 Q 821 766 803 770 Q 791 771 790 755 Q 791 745 782 732 Z" fill="lightgray" class="hide"/>
    <path d="M 681 558 Q 726 570 845 582 Q 855 581 865 594 Q 866 606 843 616 Q 813 637 731 613 Q 707 609 684 602 Q 680 601 677 600 L 642 593 Q 567 583 488 573 Q 460 569 482 552 Q 513 525 543 533 Q 571 540 606 545 L 681 558 Z" fill="lightgray" class="hide"/>
    <path d="M 677 600 Q 680 729 707 783 Q 713 792 702 805 Q 650 847 621 837 Q 608 833 614 818 Q 642 772 641 698 Q 642 641 642 593 L 639 508 Q 636 441 629 410 Q 628 395 634 379 Q 640 370 645 358 Q 655 343 669 351 Q 684 366 677 466 Q 677 497 675 529 L 677 600 Z" fill="lightgray" class="hide"/>
    <path d="M 606 545 Q 579 472 461 379 Q 446 367 460 366 Q 517 362 607 465 Q 608 468 611 469 Q 627 490 639 508 C 673 558 624 591 606 545 Z" fill="lightgray" class="hide"/>
    <path d="M 675 529 Q 721 462 775 400 Q 793 379 824 376 Q 882 369 944 376 Q 960 377 961 381 Q 962 387 951 392 Q 819 449 800 462 Q 779 472 681 558 C 658 578 653 561 675 529 Z" fill="lightgray" class="hide"/>
    <path d="M 669 69 Q 717 36 784 -22 Q 808 -43 825 -42 Q 844 -43 845 -24 Q 846 -5 820 39 Q 808 64 701 109 L 655 128 Q 615 144 587 152 Q 565 156 576 178 Q 589 209 599 230 L 618 271 Q 619 275 621 277 Q 628 301 639 316 Q 646 323 644 332 Q 638 345 601 369 Q 591 378 581 373 Q 568 370 576 355 Q 586 334 579 311 Q 573 287 567 265 L 554 224 Q 544 196 531 175 Q 522 159 525 146 Q 528 137 544 134 Q 607 115 627 95 L 669 69 Z" fill="lightgray" class="hide"/>
    <path d="M 627 95 Q 557 44 460 17 Q 442 8 463 6 Q 583 -1 669 69 L 701 109 Q 740 190 746 204 Q 746 213 757 242 C 767 270 773 287 767 292 Q 755 305 733 311 Q 714 321 695 316 Q 682 312 689 297 Q 693 290 695 281 L 698 240 Q 697 221 688 198 Q 679 159 655 128 L 627 95 Z" fill="lightgray" class="hide"/>
    <path d="M 757 242 Q 809 245 873 243 Q 892 242 910 242 Q 929 241 934 250 Q 940 260 924 274 Q 869 316 816 301 Q 794 298 767 292 L 695 281 Q 659 280 618 271 L 567 265 Q 498 258 424 249 Q 405 248 419 231 Q 432 218 449 212 Q 470 206 485 210 Q 516 219 554 224 L 599 230 Q 626 236 698 240 L 757 242 Z" fill="lightgray" class="hide"/></g><g transform="scale(1, -1) translate(0, -900)">
    <style type="text/css">
        .origin {display:none;}
        .hide {display:none;}
        .stroke {fill: #000000;}
        
.step1 {transform: translateX(1024px);}
.step2 {transform: translateX(2048px);}
.step3 {transform: translateX(3072px);}
.step4 {transform: translateX(4096px);}
.step5 {transform: translateX(5120px);}
.step6 {transform: translateX(6144px);}
.step7 {transform: translateX(7168px);}
.step8 {transform: translateX(8192px);}
.step9 {transform: translateX(9216px);}
.step10 {transform: translateX(10240px);}
.step11 {transform: translateX(11264px);}
.step12 {transform: translateX(12288px);}
.step13 {transform: translateX(13312px);}
.step14 {transform: translateX(14336px);}
.step15 {transform: translateX(15360px);}
.step16 {transform: translateX(16384px);}
.step17 {transform: translateX(17408px);}
.step18 {transform: translateX(18432px);}
.step19 {transform: translateX(19456px);}
.step20 {transform: translateX(20480px);}
.step21 {transform: translateX(21504px);}
.step22 {transform: translateX(22528px);}
.step23 {transform: translateX(23552px);}
.step24 {transform: translateX(24576px);}
.step25 {transform: translateX(25600px);}
.step26 {transform: translateX(26624px);}
.step27 {transform: translateX(27648px);}
.step28 {transform: translateX(28672px);}
.step29 {transform: translateX(29696px);}
    </style>

    <path d="M 359 618 Q 455 648 456 649 Q 465 656 460 665 Q 453 675 424 681 Q 394 684 363 671 L 314 653 Q 250 635 187 625 Q 153 618 178 602 Q 218 584 284 600 Q 297 603 315 607 L 359 618 Z" fill="lightgray" class="stroke step3"/>
    <path d="M 356 495 Q 378 502 405 509 Q 433 518 437 522 Q 444 529 440 538 Q 433 548 405 552 Q 380 556 357 545 L 315 528 Q 219 504 201 499 Q 168 490 194 477 Q 234 458 283 475 Q 296 479 314 483 L 356 495 Z" fill="lightgray" class="stroke step3"/>
    <path d="M 354 383 Q 405 395 466 404 Q 482 407 482 414 Q 483 426 465 434 Q 440 444 418 439 Q 382 430 354 422 L 311 411 Q 170 380 96 369 Q 83 368 81 360 Q 78 350 93 339 Q 132 315 169 328 Q 239 353 289 367 L 354 383 Z" fill="lightgray" class="stroke step3"/>
    <path d="M 353 348 Q 353 366 354 383 L 354 422 Q 354 456 356 495 L 357 545 Q 357 591 359 618 L 363 671 Q 367 708 377 738 Q 386 753 383 766 Q 376 776 322 809 Q 300 825 279 811 Q 275 807 281 791 Q 312 740 314 653 L 315 607 Q 315 568 315 528 L 314 483 Q 313 449 311 411 L 308 293 Q 308 185 282 97 Q 272 60 296 -2 Q 303 -20 311 -23 Q 317 -30 324 -21 Q 351 -5 351 58 Q 350 94 352 316 L 353 348 Z" fill="lightgray" class="stroke step3"/>
    <path d="M 289 367 Q 244 250 118 128 Q 105 116 90 102 Q 80 90 88 89 Q 97 85 107 91 Q 215 140 308 293 C 366 387 300 395 289 367 Z" fill="lightgray" class="hide"/>
    <path d="M 352 316 Q 395 265 413 262 Q 423 261 429 275 Q 430 285 424 301 Q 408 331 353 348 C 324 357 333 339 352 316 Z" fill="lightgray" class="hide"/>
    <path d="M 528 672 Q 573 627 585 626 Q 592 626 597 637 Q 601 647 595 671 Q 588 692 525 709 Q 513 713 508 711 Q 504 707 505 698 Q 506 689 528 672 Z" fill="lightgray" class="hide"/>
    <path d="M 782 732 Q 761 707 720 667 Q 716 661 719 655 Q 725 654 731 656 Q 804 695 839 708 Q 854 711 851 720 Q 848 733 834 750 Q 821 766 803 770 Q 791 771 790 755 Q 791 745 782 732 Z" fill="lightgray" class="hide"/>
    <path d="M 681 558 Q 726 570 845 582 Q 855 581 865 594 Q 866 606 843 616 Q 813 637 731 613 Q 707 609 684 602 Q 680 601 677 600 L 642 593 Q 567 583 488 573 Q 460 569 482 552 Q 513 525 543 533 Q 571 540 606 545 L 681 558 Z" fill="lightgray" class="hide"/>
    <path d="M 677 600 Q 680 729 707 783 Q 713 792 702 805 Q 650 847 621 837 Q 608 833 614 818 Q 642 772 641 698 Q 642 641 642 593 L 639 508 Q 636 441 629 410 Q 628 395 634 379 Q 640 370 645 358 Q 655 343 669 351 Q 684 366 677 466 Q 677 497 675 529 L 677 600 Z" fill="lightgray" class="hide"/>
    <path d="M 606 545 Q 579 472 461 379 Q 446 367 460 366 Q 517 362 607 465 Q 608 468 611 469 Q 627 490 639 508 C 673 558 624 591 606 545 Z" fill="lightgray" class="hide"/>
    <path d="M 675 529 Q 721 462 775 400 Q 793 379 824 376 Q 882 369 944 376 Q 960 377 961 381 Q 962 387 951 392 Q 819 449 800 462 Q 779 472 681 558 C 658 578 653 561 675 529 Z" fill="lightgray" class="hide"/>
    <path d="M 669 69 Q 717 36 784 -22 Q 808 -43 825 -42 Q 844 -43 845 -24 Q 846 -5 820 39 Q 808 64 701 109 L 655 128 Q 615 144 587 152 Q 565 156 576 178 Q 589 209 599 230 L 618 271 Q 619 275 621 277 Q 628 301 639 316 Q 646 323 644 332 Q 638 345 601 369 Q 591 378 581 373 Q 568 370 576 355 Q 586 334 579 311 Q 573 287 567 265 L 554 224 Q 544 196 531 175 Q 522 159 525 146 Q 528 137 544 134 Q 607 115 627 95 L 669 69 Z" fill="lightgray" class="hide"/>
    <path d="M 627 95 Q 557 44 460 17 Q 442 8 463 6 Q 583 -1 669 69 L 701 109 Q 740 190 746 204 Q 746 213 757 242 C 767 270 773 287 767 292 Q 755 305 733 311 Q 714 321 695 316 Q 682 312 689 297 Q 693 290 695 281 L 698 240 Q 697 221 688 198 Q 679 159 655 128 L 627 95 Z" fill="lightgray" class="hide"/>
    <path d="M 757 242 Q 809 245 873 243 Q 892 242 910 242 Q 929 241 934 250 Q 940 260 924 274 Q 869 316 816 301 Q 794 298 767 292 L 695 281 Q 659 280 618 271 L 567 265 Q 498 258 424 249 Q 405 248 419 231 Q 432 218 449 212 Q 470 206 485 210 Q 516 219 554 224 L 599 230 Q 626 236 698 240 L 757 242 Z" fill="lightgray" class="hide"/></g><g transform="scale(1, -1) translate(0, -900)">
    <style type="text/css">
        .origin {display:none;}
        .hide {display:none;}
        .stroke {fill: #000000;}
        
.step1 {transform: translateX(1024px);}
.step2 {transform: translateX(2048px);}
.step3 {transform: translateX(3072px);}
.step4 {transform: translateX(4096px);}
.step5 {transform: translateX(5120px);}
.step6 {transform: translateX(6144px);}
.step7 {transform: translateX(7168px);}
.step8 {transform: translateX(8192px);}
.step9 {transform: translateX(9216px);}
.step10 {transform: translateX(10240px);}
.step11 {transform: translateX(11264px);}
.step12 {transform: translateX(12288px);}
.step13 {transform: translateX(13312px);}
.step14 {transform: translateX(14336px);}
.step15 {transform: translateX(15360px);}
.step16 {transform: translateX(16384px);}
.step17 {transform: translateX(17408px);}
.step18 {transform: translateX(18432px);}
.step19 {transform: translateX(19456px);}
.step20 {transform: translateX(20480px);}
.step21 {transform: translateX(21504px);}
.step22 {transform: translateX(22528px);}
.step23 {transform: translateX(23552px);}
.step24 {transform: translateX(24576px);}
.step25 {transform: translateX(25600px);}
.step26 {transform: translateX(26624px);}
.step27 {transform: translateX(27648px);}
.step28 {transform: translateX(28672px);}
.step29 {transform: translateX(29696px);}
    </style>

    <path d="M 359 618 Q 455 648 456 649 Q 465 656 460 665 Q 453 675 424 681 Q 394 684 363 671 L 314 653 Q 250 635 187 625 Q 153 618 178 602 Q 218 584 284 600 Q 297 603 315 607 L 359 618 Z" fill="lightgray" class="stroke step4"/>
    <path d="M 356 495 Q 378 502 405 509 Q 433 518 437 522 Q 444 529 440 538 Q 433 548 405 552 Q 380 556 357 545 L 315 528 Q 219 504 201 499 Q 168 490 194 477 Q 234 458 283 475 Q 296 479 314 483 L 356 495 Z" fill="lightgray" class="stroke step4"/>
    <path d="M 354 383 Q 405 395 466 404 Q 482 407 482 414 Q 483 426 465 434 Q 440 444 418 439 Q 382 430 354 422 L 311 411 Q 170 380 96 369 Q 83 368 81 360 Q 78 350 93 339 Q 132 315 169 328 Q 239 353 289 367 L 354 383 Z" fill="lightgray" class="stroke step4"/>
    <path d="M 353 348 Q 353 366 354 383 L 354 422 Q 354 456 356 495 L 357 545 Q 357 591 359 618 L 363 671 Q 367 708 377 738 Q 386 753 383 766 Q 376 776 322 809 Q 300 825 279 811 Q 275 807 281 791 Q 312 740 314 653 L 315 607 Q 315 568 315 528 L 314 483 Q 313 449 311 411 L 308 293 Q 308 185 282 97 Q 272 60 296 -2 Q 303 -20 311 -23 Q 317 -30 324 -21 Q 351 -5 351 58 Q 350 94 352 316 L 353 348 Z" fill="lightgray" class="stroke step4"/>
    <path d="M 289 367 Q 244 250 118 128 Q 105 116 90 102 Q 80 90 88 89 Q 97 85 107 91 Q 215 140 308 293 C 366 387 300 395 289 367 Z" fill="lightgray" class="stroke step4"/>
    <path d="M 352 316 Q 395 265 413 262 Q 423 261 429 275 Q 430 285 424 301 Q 408 331 353 348 C 324 357 333 339 352 316 Z" fill="lightgray" class="hide"/>
    <path d="M 528 672 Q 573 627 585 626 Q 592 626 597 637 Q 601 647 595 671 Q 588 692 525 709 Q 513 713 508 711 Q 504 707 505 698 Q 506 689 528 672 Z" fill="lightgray" class="hide"/>
    <path d="M 782 732 Q 761 707 720 667 Q 716 661 719 655 Q 725 654 731 656 Q 804 695 839 708 Q 854 711 851 720 Q 848 733 834 750 Q 821 766 803 770 Q 791 771 790 755 Q 791 745 782 732 Z" fill="lightgray" class="hide"/>
    <path d="M 681 558 Q 726 570 845 582 Q 855 581 865 594 Q 866 606 843 616 Q 813 637 731 613 Q 707 609 684 602 Q 680 601 677 600 L 642 593 Q 567 583 488 573 Q 460 569 482 552 Q 513 525 543 533 Q 571 540 606 545 L 681 558 Z" fill="lightgray" class="hide"/>
    <path d="M 677 600 Q 680 729 707 783 Q 713 792 702 805 Q 650 847 621 837 Q 608 833 614 818 Q 642 772 641 698 Q 642 641 642 593 L 639 508 Q 636 441 629 410 Q 628 395 634 379 Q 640 370 645 358 Q 655 343 669 351 Q 684 366 677 466 Q 677 497 675 529 L 677 600 Z" fill="lightgray" class="hide"/>
    <path d="M 606 545 Q 579 472 461 379 Q 446 367 460 366 Q 517 362 607 465 Q 608 468 611 469 Q 627 490 639 508 C 673 558 624 591 606 545 Z" fill="lightgray" class="hide"/>
    <path d="M 675 529 Q 721 462 775 400 Q 793 379 824 376 Q 882 369 944 376 Q 960 377 961 381 Q 962 387 951 392 Q 819 449 800 462 Q 779 472 681 558 C 658 578 653 561 675 529 Z" fill="lightgray" class="hide"/>
    <path d="M 669 69 Q 717 36 784 -22 Q 808 -43 825 -42 Q 844 -43 845 -24 Q 846 -5 820 39 Q 808 64 701 109 L 655 128 Q 615 144 587 152 Q 565 156 576 178 Q 589 209 599 230 L 618 271 Q 619 275 621 277 Q 628 301 639 316 Q 646 323 644 332 Q 638 345 601 369 Q 591 378 581 373 Q 568 370 576 355 Q 586 334 579 311 Q 573 287 567 265 L 554 224 Q 544 196 531 175 Q 522 159 525 146 Q 528 137 544 134 Q 607 115 627 95 L 669 69 Z" fill="lightgray" class="hide"/>
    <path d="M 627 95 Q 557 44 460 17 Q 442 8 463 6 Q 583 -1 669 69 L 701 109 Q 740 190 746 204 Q 746 213 757 242 C 767 270 773 287 767 292 Q 755 305 733 311 Q 714 321 695 316 Q 682 312 689 297 Q 693 290 695 281 L 698 240 Q 697 221 688 198 Q 679 159 655 128 L 627 95 Z" fill="lightgray" class="hide"/>
    <path d="M 757 242 Q 809 245 873 243 Q 892 242 910 242 Q 929 241 934 250 Q 940 260 924 274 Q 869 316 816 301 Q 794 298 767 292 L 695 281 Q 659 280 618 271 L 567 265 Q 498 258 424 249 Q 405 248 419 231 Q 432 218 449 212 Q 470 206 485 210 Q 516 219 554 224 L 599 230 Q 626 236 698 240 L 757 242 Z" fill="lightgray" class="hide"/></g><g transform="scale(1, -1) translate(0, -900)">
    <style type="text/css">
        .origin {display:none;}
        .hide {display:none;}
        .stroke {fill: #000000;}
        
.step1 {transform: translateX(1024px);}
.step2 {transform: translateX(2048px);}
.step3 {transform: translateX(3072px);}
.step4 {transform: translateX(4096px);}
.step5 {transform: translateX(5120px);}
.step6 {transform: translateX(6144px);}
.step7 {transform: translateX(7168px);}
.step8 {transform: translateX(8192px);}
.step9 {transform: translateX(9216px);}
.step10 {transform: translateX(10240px);}
.step11 {transform: translateX(11264px);}
.step12 {transform: translateX(12288px);}
.step13 {transform: translateX(13312px);}
.step14 {transform: translateX(14336px);}
.step15 {transform: translateX(15360px);}
.step16 {transform: translateX(16384px);}
.step17 {transform: translateX(17408px);}
.step18 {transform: translateX(18432px);}
.step19 {transform: translateX(19456px);}
.step20 {transform: translateX(20480px);}
.step21 {transform: translateX(21504px);}
.step22 {transform: translateX(22528px);}
.step23 {transform: translateX(23552px);}
.step24 {transform: translateX(24576px);}
.step25 {transform: translateX(25600px);}
.step26 {transform: translateX(26624px);}
.step27 {transform: translateX(27648px);}
.step28 {transform: translateX(28672px);}
.step29 {transform: translateX(29696px);}
    </style>

    <path d="M 359 618 Q 455 648 456 649 Q 465 656 460 665 Q 453 675 424 681 Q 394 684 363 671 L 314 653 Q 250 635 187 625 Q 153 618 178 602 Q 218 584 284 600 Q 297 603 315 607 L 359 618 Z" fill="lightgray" class="stroke step5"/>
    <path d="M 356 495 Q 378 502 405 509 Q 433 518 437 522 Q 444 529 440 538 Q 433 548 405 552 Q 380 556 357 545 L 315 528 Q 219 504 201 499 Q 168 490 194 477 Q 234 458 283 475 Q 296 479 314 483 L 356 495 Z" fill="lightgray" class="stroke step5"/>
    <path d="M 354 383 Q 405 395 466 404 Q 482 407 482 414 Q 483 426 465 434 Q 440 444 418 439 Q 382 430 354 422 L 311 411 Q 170 380 96 369 Q 83 368 81 360 Q 78 350 93 339 Q 132 315 169 328 Q 239 353 289 367 L 354 383 Z" fill="lightgray" class="stroke step5"/>
    <path d="M 353 348 Q 353 366 354 383 L 354 422 Q 354 456 356 495 L 357 545 Q 357 591 359 618 L 363 671 Q 367 708 377 738 Q 386 753 383 766 Q 376 776 322 809 Q 300 825 279 811 Q 275 807 281 791 Q 312 740 314 653 L 315 607 Q 315 568 315 528 L 314 483 Q 313 449 311 411 L 308 293 Q 308 185 282 97 Q 272 60 296 -2 Q 303 -20 311 -23 Q 317 -30 324 -21 Q 351 -5 351 58 Q 350 94 352 316 L 353 348 Z" fill="lightgray" class="stroke step5"/>
    <path d="M 289 367 Q 244 250 118 128 Q 105 116 90 102 Q 80 90 88 89 Q 97 85 107 91 Q 215 140 308 293 C 366 387 300 395 289 367 Z" fill="lightgray" class="stroke step5"/>
    <path d="M 352 316 Q 395 265 413 262 Q 423 261 429 275 Q 430 285 424 301 Q 408 331 353 348 C 324 357 333 339 352 316 Z" fill="lightgray" class="stroke step5"/>
    <path d="M 528 672 Q 573 627 585 626 Q 592 626 597 637 Q 601 647 595 671 Q 588 692 525 709 Q 513 713 508 711 Q 504 707 505 698 Q 506 689 528 672 Z" fill="lightgray" class="hide"/>
    <path d="M 782 732 Q 761 707 720 667 Q 716 661 719 655 Q 725 654 731 656 Q 804 695 839 708 Q 854 711 851 720 Q 848 733 834 750 Q 821 766 803 770 Q 791 771 790 755 Q 791 745 782 732 Z" fill="lightgray" class="hide"/>
    <path d="M 681 558 Q 726 570 845 582 Q 855 581 865 594 Q 866 606 843 616 Q 813 637 731 613 Q 707 609 684 602 Q 680 601 677 600 L 642 593 Q 567 583 488 573 Q 460 569 482 552 Q 513 525 543 533 Q 571 540 606 545 L 681 558 Z" fill="lightgray" class="hide"/>
    <path d="M 677 600 Q 680 729 707 783 Q 713 792 702 805 Q 650 847 621 837 Q 608 833 614 818 Q 642 772 641 698 Q 642 641 642 593 L 639 508 Q 636 441 629 410 Q 628 395 634 379 Q 640 370 645 358 Q 655 343 669 351 Q 684 366 677 466 Q 677 497 675 529 L 677 600 Z" fill="lightgray" class="hide"/>
    <path d="M 606 545 Q 579 472 461 379 Q 446 367 460 366 Q 517 362 607 465 Q 608 468 611 469 Q 627 490 639 508 C 673 558 624 591 606 545 Z" fill="lightgray" class="hide"/>
    <path d="M 675 529 Q 721 462 775 400 Q 793 379 824 376 Q 882 369 944 376 Q 960 377 961 381 Q 962 387 951 392 Q 819 449 800 462 Q 779 472 681 558 C 658 578 653 561 675 529 Z" fill="lightgray" class="hide"/>
    <path d="M 669 69 Q 717 36 784 -22 Q 808 -43 825 -42 Q 844 -43 845 -24 Q 846 -5 820 39 Q 808 64 701 109 L 655 128 Q 615 144 587 152 Q 565 156 576 178 Q 589 209 599 230 L 618 271 Q 619 275 621 277 Q 628 301 639 316 Q 646 323 644 332 Q 638 345 601 369 Q 591 378 581 373 Q 568 370 576 355 Q 586 334 579 311 Q 573 287 567 265 L 554 224 Q 544 196 531 175 Q 522 159 525 146 Q 528 137 544 134 Q 607 115 627 95 L 669 69 Z" fill="lightgray" class="hide"/>
    <path d="M 627 95 Q 557 44 460 17 Q 442 8 463 6 Q 583 -1 669 69 L 701 109 Q 740 190 746 204 Q 746 213 757 242 C 767 270 773 287 767 292 Q 755 305 733 311 Q 714 321 695 316 Q 682 312 689 297 Q 693 290 695 281 L 698 240 Q 697 221 688 198 Q 679 159 655 128 L 627 95 Z" fill="lightgray" class="hide"/>
    <path d="M 757 242 Q 809 245 873 243 Q 892 242 910 242 Q 929 241 934 250 Q 940 260 924 274 Q 869 316 816 301 Q 794 298 767 292 L 695 281 Q 659 280 618 271 L 567 265 Q 498 258 424 249 Q 405 248 419 231 Q 432 218 449 212 Q 470 206 485 210 Q 516 219 554 224 L 599 230 Q 626 236 698 240 L 757 242 Z" fill="lightgray" class="hide"/></g><g transform="scale(1, -1) translate(0, -900)">
    <style type="text/css">
        .origin {display:none;}
        .hide {display:none;}
        .stroke {fill: #000000;}
        
.step1 {transform: translateX(1024px);}
.step2 {transform: translateX(2048px);}
.step3 {transform: translateX(3072px);}
.step4 {transform: translateX(4096px);}
.step5 {transform: translateX(5120px);}
.step6 {transform: translateX(6144px);}
.step7 {transform: translateX(7168px);}
.step8 {transform: translateX(8192px);}
.step9 {transform: translateX(9216px);}
.step10 {transform: translateX(10240px);}
.step11 {transform: translateX(11264px);}
.step12 {transform: translateX(12288px);}
.step13 {transform: translateX(13312px);}
.step14 {transform: translateX(14336px);}
.step15 {transform: translateX(15360px);}
.step16 {transform: translateX(16384px);}
.step17 {transform: translateX(17408px);}
.step18 {transform: translateX(18432px);}
.step19 {transform: translateX(19456px);}
.step20 {transform: translateX(20480px);}
.step21 {transform: translateX(21504px);}
.step22 {transform: translateX(22528px);}
.step23 {transform: translateX(23552px);}
.step24 {transform: translateX(24576px);}
.step25 {transform: translateX(25600px);}
.step26 {transform: translateX(26624px);}
.step27 {transform: translateX(27648px);}
.step28 {transform: translateX(28672px);}
.step29 {transform: translateX(29696px);}
    </style>

    <path d="M 359 618 Q 455 648 456 649 Q 465 656 460 665 Q 453 675 424 681 Q 394 684 363 671 L 314 653 Q 250 635 187 625 Q 153 618 178 602 Q 218 584 284 600 Q 297 603 315 607 L 359 618 Z" fill="lightgray" class="stroke step6"/>
    <path d="M 356 495 Q 378 502 405 509 Q 433 518 437 522 Q 444 529 440 538 Q 433 548 405 552 Q 380 556 357 545 L 315 528 Q 219 504 201 499 Q 168 490 194 477 Q 234 458 283 475 Q 296 479 314 483 L 356 495 Z" fill="lightgray" class="stroke step6"/>
    <path d="M 354 383 Q 405 395 466 404 Q 482 407 482 414 Q 483 426 465 434 Q 440 444 418 439 Q 382 430 354 422 L 311 411 Q 170 380 96 369 Q 83 368 81 360 Q 78 350 93 339 Q 132 315 169 328 Q 239 353 289 367 L 354 383 Z" fill="lightgray" class="stroke step6"/>
    <path d="M 353 348 Q 353 366 354 383 L 354 422 Q 354 456 356 495 L 357 545 Q 357 591 359 618 L 363 671 Q 367 708 377 738 Q 386 753 383 766 Q 376 776 322 809 Q 300 825 279 811 Q 275 807 281 791 Q 312 740 314 653 L 315 607 Q 315 568 315 528 L 314 483 Q 313 449 311 411 L 308 293 Q 308 185 282 97 Q 272 60 296 -2 Q 303 -20 311 -23 Q 317 -30 324 -21 Q 351 -5 351 58 Q 350 94 352 316 L 353 348 Z" fill="lightgray" class="stroke step6"/>
    <path d="M 289 367 Q 244 250 118 128 Q 105 116 90 102 Q 80 90 88 89 Q 97 85 107 91 Q 215 140 308 293 C 366 387 300 395 289 367 Z" fill="lightgray" class="stroke step6"/>
    <path d="M 352 316 Q 395 265 413 262 Q 423 261 429 275 Q 430 285 424 301 Q 408 331 353 348 C 324 357 333 339 352 316 Z" fill="lightgray" class="stroke step6"/>
    <path d="M 528 672 Q 573 627 585 626 Q 592 626 597 637 Q 601 647 595 671 Q 588 692 525 709 Q 513 713 508 711 Q 504 707 505 698 Q 506 689 528 672 Z" fill="lightgray" class="stroke step6"/>
    <path d="M 782 732 Q 761 707 720 667 Q 716 661 719 655 Q 725 654 731 656 Q 804 695 839 708 Q 854 711 851 720 Q 848 733 834 750 Q 821 766 803 770 Q 791 771 790 755 Q 791 745 782 732 Z" fill="lightgray" class="hide"/>
    <path d="M 681 558 Q 726 570 845 582 Q 855 581 865 594 Q 866 606 843 616 Q 813 637 731 613 Q 707 609 684 602 Q 680 601 677 600 L 642 593 Q 567 583 488 573 Q 460 569 482 552 Q 513 525 543 533 Q 571 540 606 545 L 681 558 Z" fill="lightgray" class="hide"/>
    <path d="M 677 600 Q 680 729 707 783 Q 713 792 702 805 Q 650 847 621 837 Q 608 833 614 818 Q 642 772 641 698 Q 642 641 642 593 L 639 508 Q 636 441 629 410 Q 628 395 634 379 Q 640 370 645 358 Q 655 343 669 351 Q 684 366 677 466 Q 677 497 675 529 L 677 600 Z" fill="lightgray" class="hide"/>
    <path d="M 606 545 Q 579 472 461 379 Q 446 367 460 366 Q 517 362 607 465 Q 608 468 611 469 Q 627 490 639 508 C 673 558 624 591 606 545 Z" fill="lightgray" class="hide"/>
    <path d="M 675 529 Q 721 462 775 400 Q 793 379 824 376 Q 882 369 944 376 Q 960 377 961 381 Q 962 387 951 392 Q 819 449 800 462 Q 779 472 681 558 C 658 578 653 561 675 529 Z" fill="lightgray" class="hide"/>
    <path d="M 669 69 Q 717 36 784 -22 Q 808 -43 825 -42 Q 844 -43 845 -24 Q 846 -5 820 39 Q 808 64 701 109 L 655 128 Q 615 144 587 152 Q 565 156 576 178 Q 589 209 599 230 L 618 271 Q 619 275 621 277 Q 628 301 639 316 Q 646 323 644 332 Q 638 345 601 369 Q 591 378 581 373 Q 568 370 576 355 Q 586 334 579 311 Q 573 287 567 265 L 554 224 Q 544 196 531 175 Q 522 159 525 146 Q 528 137 544 134 Q 607 115 627 95 L 669 69 Z" fill="lightgray" class="hide"/>
    <path d="M 627 95 Q 557 44 460 17 Q 442 8 463 6 Q 583 -1 669 69 L 701 109 Q 740 190 746 204 Q 746 213 757 242 C 767 270 773 287 767 292 Q 755 305 733 311 Q 714 321 695 316 Q 682 312 689 297 Q 693 290 695 281 L 698 240 Q 697 221 688 198 Q 679 159 655 128 L 627 95 Z" fill="lightgray" class="hide"/>
    <path d="M 757 242 Q 809 245 873 243 Q 892 242 910 242 Q 929 241 934 250 Q 940 260 924 274 Q 869 316 816 301 Q 794 298 767 292 L 695 281 Q 659 280 618 271 L 567 265 Q 498 258 424 249 Q 405 248 419 231 Q 432 218 449 212 Q 470 206 485 210 Q 516 219 554 224 L 599 230 Q 626 236 698 240 L 757 242 Z" fill="lightgray" class="hide"/></g><g transform="scale(1, -1) translate(0, -900)">
    <style type="text/css">
        .origin {display:none;}
        .hide {display:none;}
        .stroke {fill: #000000;}
        
.step1 {transform: translateX(1024px);}
.step2 {transform: translateX(2048px);}
.step3 {transform: translateX(3072px);}
.step4 {transform: translateX(4096px);}
.step5 {transform: translateX(5120px);}
.step6 {transform: translateX(6144px);}
.step7 {transform: translateX(7168px);}
.step8 {transform: translateX(8192px);}
.step9 {transform: translateX(9216px);}
.step10 {transform: translateX(10240px);}
.step11 {transform: translateX(11264px);}
.step12 {transform: translateX(12288px);}
.step13 {transform: translateX(13312px);}
.step14 {transform: translateX(14336px);}
.step15 {transform: translateX(15360px);}
.step16 {transform: translateX(16384px);}
.step17 {transform: translateX(17408px);}
.step18 {transform: translateX(18432px);}
.step19 {transform: translateX(19456px);}
.step20 {transform: translateX(20480px);}
.step21 {transform: translateX(21504px);}
.step22 {transform: translateX(22528px);}
.step23 {transform: translateX(23552px);}
.step24 {transform: translateX(24576px);}
.step25 {transform: translateX(25600px);}
.step26 {transform: translateX(26624px);}
.step27 {transform: translateX(27648px);}
.step28 {transform: translateX(28672px);}
.step29 {transform: translateX(29696px);}
    </style>

    <path d="M 359 618 Q 455 648 456 649 Q 465 656 460 665 Q 453 675 424 681 Q 394 684 363 671 L 314 653 Q 250 635 187 625 Q 153 618 178 602 Q 218 584 284 600 Q 297 603 315 607 L 359 618 Z" fill="lightgray" class="stroke step7"/>
    <path d="M 356 495 Q 378 502 405 509 Q 433 518 437 522 Q 444 529 440 538 Q 433 548 405 552 Q 380 556 357 545 L 315 528 Q 219 504 201 499 Q 168 490 194 477 Q 234 458 283 475 Q 296 479 314 483 L 356 495 Z" fill="lightgray" class="stroke step7"/>
    <path d="M 354 383 Q 405 395 466 404 Q 482 407 482 414 Q 483 426 465 434 Q 440 444 418 439 Q 382 430 354 422 L 311 411 Q 170 380 96 369 Q 83 368 81 360 Q 78 350 93 339 Q 132 315 169 328 Q 239 353 289 367 L 354 383 Z" fill="lightgray" class="stroke step7"/>
    <path d="M 353 348 Q 353 366 354 383 L 354 422 Q 354 456 356 495 L 357 545 Q 357 591 359 618 L 363 671 Q 367 708 377 738 Q 386 753 383 766 Q 376 776 322 809 Q 300 825 279 811 Q 275 807 281 791 Q 312 740 314 653 L 315 607 Q 315 568 315 528 L 314 483 Q 313 449 311 411 L 308 293 Q 308 185 282 97 Q 272 60 296 -2 Q 303 -20 311 -23 Q 317 -30 324 -21 Q 351 -5 351 58 Q 350 94 352 316 L 353 348 Z" fill="lightgray" class="stroke step7"/>
    <path d="M 289 367 Q 244 250 118 128 Q 105 116 90 102 Q 80 90 88 89 Q 97 85 107 91 Q 215 140 308 293 C 366 387 300 395 289 367 Z" fill="lightgray" class="stroke step7"/>
    <path d="M 352 316 Q 395 265 413 262 Q 423 261 429 275 Q 430 285 424 301 Q 408 331 353 348 C 324 357 333 339 352 316 Z" fill="lightgray" class="stroke step7"/>
    <path d="M 528 672 Q 573 627 585 626 Q 592 626 597 637 Q 601 647 595 671 Q 588 692 525 709 Q 513 713 508 711 Q 504 707 505 698 Q 506 689 528 672 Z" fill="lightgray" class="stroke step7"/>
    <path d="M 782 732 Q 761 707 720 667 Q 716 661 719 655 Q 725 654 731 656 Q 804 695 839 708 Q 854 711 851 720 Q 848 733 834 750 Q 821 766 803 770 Q 791 771 790 755 Q 791 745 782 732 Z" fill="lightgray" class="stroke step7"/>
    <path d="M 681 558 Q 726 570 845 582 Q 855 581 865 594 Q 866 606 843 616 Q 813 637 731 613 Q 707 609 684 602 Q 680 601 677 600 L 642 593 Q 567 583 488 573 Q 460 569 482 552 Q 513 525 543 533 Q 571 540 606 545 L 681 558 Z" fill="lightgray" class="hide"/>
    <path d="M 677 600 Q 680 729 707 783 Q 713 792 702 805 Q 650 847 621 837 Q 608 833 614 818 Q 642 772 641 698 Q 642 641 642 593 L 639 508 Q 636 441 629 410 Q 628 395 634 379 Q 640 370 645 358 Q 655 343 669 351 Q 684 366 677 466 Q 677 497 675 529 L 677 600 Z" fill="lightgray" class="hide"/>
    <path d="M 606 545 Q 579 472 461 379 Q 446 367 460 366 Q 517 362 607 465 Q 608 468 611 469 Q 627 490 639 508 C 673 558 624 591 606 545 Z" fill="lightgray" class="hide"/>
    <path d="M 675 529 Q 721 462 775 400 Q 793 379 824 376 Q 882 369 944 376 Q 960 377 961 381 Q 962 387 951 392 Q 819 449 800 462 Q 779 472 681 558 C 658 578 653 561 675 529 Z" fill="lightgray" class="hide"/>
    <path d="M 669 69 Q 717 36 784 -22 Q 808 -43 825 -42 Q 844 -43 845 -24 Q 846 -5 820 39 Q 808 64 701 109 L 655 128 Q 615 144 587 152 Q 565 156 576 178 Q 589 209 599 230 L 618 271 Q 619 275 621 277 Q 628 301 639 316 Q 646 323 644 332 Q 638 345 601 369 Q 591 378 581 373 Q 568 370 576 355 Q 586 334 579 311 Q 573 287 567 265 L 554 224 Q 544 196 531 175 Q 522 159 525 146 Q 528 137 544 134 Q 607 115 627 95 L 669 69 Z" fill="lightgray" class="hide"/>
    <path d="M 627 95 Q 557 44 460 17 Q 442 8 463 6 Q 583 -1 669 69 L 701 109 Q 740 190 746 204 Q 746 213 757 242 C 767 270 773 287 767 292 Q 755 305 733 311 Q 714 321 695 316 Q 682 312 689 297 Q 693 290 695 281 L 698 240 Q 697 221 688 198 Q 679 159 655 128 L 627 95 Z" fill="lightgray" class="hide"/>
    <path d="M 757 242 Q 809 245 873 243 Q 892 242 910 242 Q 929 241 934 250 Q 940 260 924 274 Q 869 316 816 301 Q 794 298 767 292 L 695 281 Q 659 280 618 271 L 567 265 Q 498 258 424 249 Q 405 248 419 231 Q 432 218 449 212 Q 470 206 485 210 Q 516 219 554 224 L 599 230 Q 626 236 698 240 L 757 242 Z" fill="lightgray" class="hide"/></g><g transform="scale(1, -1) translate(0, -900)">
    <style type="text/css">
        .origin {display:none;}
        .hide {display:none;}
        .stroke {fill: #000000;}
        
.step1 {transform: translateX(1024px);}
.step2 {transform: translateX(2048px);}
.step3 {transform: translateX(3072px);}
.step4 {transform: translateX(4096px);}
.step5 {transform: translateX(5120px);}
.step6 {transform: translateX(6144px);}
.step7 {transform: translateX(7168px);}
.step8 {transform: translateX(8192px);}
.step9 {transform: translateX(9216px);}
.step10 {transform: translateX(10240px);}
.step11 {transform: translateX(11264px);}
.step12 {transform: translateX(12288px);}
.step13 {transform: translateX(13312px);}
.step14 {transform: translateX(14336px);}
.step15 {transform: translateX(15360px);}
.step16 {transform: translateX(16384px);}
.step17 {transform: translateX(17408px);}
.step18 {transform: translateX(18432px);}
.step19 {transform: translateX(19456px);}
.step20 {transform: translateX(20480px);}
.step21 {transform: translateX(21504px);}
.step22 {transform: translateX(22528px);}
.step23 {transform: translateX(23552px);}
.step24 {transform: translateX(24576px);}
.step25 {transform: translateX(25600px);}
.step26 {transform: translateX(26624px);}
.step27 {transform: translateX(27648px);}
.step28 {transform: translateX(28672px);}
.step29 {transform: translateX(29696px);}
    </style>

    <path d="M 359 618 Q 455 648 456 649 Q 465 656 460 665 Q 453 675 424 681 Q 394 684 363 671 L 314 653 Q 250 635 187 625 Q 153 618 178 602 Q 218 584 284 600 Q 297 603 315 607 L 359 618 Z" fill="lightgray" class="stroke step8"/>
    <path d="M 356 495 Q 378 502 405 509 Q 433 518 437 522 Q 444 529 440 538 Q 433 548 405 552 Q 380 556 357 545 L 315 528 Q 219 504 201 499 Q 168 490 194 477 Q 234 458 283 475 Q 296 479 314 483 L 356 495 Z" fill="lightgray" class="stroke step8"/>
    <path d="M 354 383 Q 405 395 466 404 Q 482 407 482 414 Q 483 426 465 434 Q 440 444 418 439 Q 382 430 354 422 L 311 411 Q 170 380 96 369 Q 83 368 81 360 Q 78 350 93 339 Q 132 315 169 328 Q 239 353 289 367 L 354 383 Z" fill="lightgray" class="stroke step8"/>
    <path d="M 353 348 Q 353 366 354 383 L 354 422 Q 354 456 356 495 L 357 545 Q 357 591 359 618 L 363 671 Q 367 708 377 738 Q 386 753 383 766 Q 376 776 322 809 Q 300 825 279 811 Q 275 807 281 791 Q 312 740 314 653 L 315 607 Q 315 568 315 528 L 314 483 Q 313 449 311 411 L 308 293 Q 308 185 282 97 Q 272 60 296 -2 Q 303 -20 311 -23 Q 317 -30 324 -21 Q 351 -5 351 58 Q 350 94 352 316 L 353 348 Z" fill="lightgray" class="stroke step8"/>
    <path d="M 289 367 Q 244 250 118 128 Q 105 116 90 102 Q 80 90 88 89 Q 97 85 107 91 Q 215 140 308 293 C 366 387 300 395 289 367 Z" fill="lightgray" class="stroke step8"/>
    <path d="M 352 316 Q 395 265 413 262 Q 423 261 429 275 Q 430 285 424 301 Q 408 331 353 348 C 324 357 333 339 352 316 Z" fill="lightgray" class="stroke step8"/>
    <path d="M 528 672 Q 573 627 585 626 Q 592 626 597 637 Q 601 647 595 671 Q 588 692 525 709 Q 513 713 508 711 Q 504 707 505 698 Q 506 689 528 672 Z" fill="lightgray" class="stroke step8"/>
    <path d="M 782 732 Q 761 707 720 667 Q 716 661 719 655 Q 725 654 731 656 Q 804 695 839 708 Q 854 711 851 720 Q 848 733 834 750 Q 821 766 803 770 Q 791 771 790 755 Q 791 745 782 732 Z" fill="lightgray" class="stroke step8"/>
    <path d="M 681 558 Q 726 570 845 582 Q 855 581 865 594 Q 866 606 843 616 Q 813 637 731 613 Q 707 609 684 602 Q 680 601 677 600 L 642 593 Q 567 583 488 573 Q 460 569 482 552 Q 513 525 543 533 Q 571 540 606 545 L 681 558 Z" fill="lightgray" class="stroke step8"/>
    <path d="M 677 600 Q 680 729 707 783 Q 713 792 702 805 Q 650 847 621 837 Q 608 833 614 818 Q 642 772 641 698 Q 642 641 642 593 L 639 508 Q 636 441 629 410 Q 628 395 634 379 Q 640 370 645 358 Q 655 343 669 351 Q 684 366 677 466 Q 677 497 675 529 L 677 600 Z" fill="lightgray" class="hide"/>
    <path d="M 606 545 Q 579 472 461 379 Q 446 367 460 366 Q 517 362 607 465 Q 608 468 611 469 Q 627 490 639 508 C 673 558 624 591 606 545 Z" fill="lightgray" class="hide"/>
    <path d="M 675 529 Q 721 462 775 400 Q 793 379 824 376 Q 882 369 944 376 Q 960 377 961 381 Q 962 387 951 392 Q 819 449 800 462 Q 779 472 681 558 C 658 578 653 561 675 529 Z" fill="lightgray" class="hide"/>
    <path d="M 669 69 Q 717 36 784 -22 Q 808 -43 825 -42 Q 844 -43 845 -24 Q 846 -5 820 39 Q 808 64 701 109 L 655 128 Q 615 144 587 152 Q 565 156 576 178 Q 589 209 599 230 L 618 271 Q 619 275 621 277 Q 628 301 639 316 Q 646 323 644 332 Q 638 345 601 369 Q 591 378 581 373 Q 568 370 576 355 Q 586 334 579 311 Q 573 287 567 265 L 554 224 Q 544 196 531 175 Q 522 159 525 146 Q 528 137 544 134 Q 607 115 627 95 L 669 69 Z" fill="lightgray" class="hide"/>
    <path d="M 627 95 Q 557 44 460 17 Q 442 8 463 6 Q 583 -1 669 69 L 701 109 Q 740 190 746 204 Q 746 213 757 242 C 767 270 773 287 767 292 Q 755 305 733 311 Q 714 321 695 316 Q 682 312 689 297 Q 693 290 695 281 L 698 240 Q 697 221 688 198 Q 679 159 655 128 L 627 95 Z" fill="lightgray" class="hide"/>
    <path d="M 757 242 Q 809 245 873 243 Q 892 242 910 242 Q 929 241 934 250 Q 940 260 924 274 Q 869 316 816 301 Q 794 298 767 292 L 695 281 Q 659 280 618 271 L 567 265 Q 498 258 424 249 Q 405 248 419 231 Q 432 218 449 212 Q 470 206 485 210 Q 516 219 554 224 L 599 230 Q 626 236 698 240 L 757 242 Z" fill="lightgray" class="hide"/></g><g transform="scale(1, -1) translate(0, -900)">
    <style type="text/css">
        .origin {display:none;}
        .hide {display:none;}
        .stroke {fill: #000000;}
        
.step1 {transform: translateX(1024px);}
.step2 {transform: translateX(2048px);}
.step3 {transform: translateX(3072px);}
.step4 {transform: translateX(4096px);}
.step5 {transform: translateX(5120px);}
.step6 {transform: translateX(6144px);}
.step7 {transform: translateX(7168px);}
.step8 {transform: translateX(8192px);}
.step9 {transform: translateX(9216px);}
.step10 {transform: translateX(10240px);}
.step11 {transform: translateX(11264px);}
.step12 {transform: translateX(12288px);}
.step13 {transform: translateX(13312px);}
.step14 {transform: translateX(14336px);}
.step15 {transform: translateX(15360px);}
.step16 {transform: translateX(16384px);}
.step17 {transform: translateX(17408px);}
.step18 {transform: translateX(18432px);}
.step19 {transform: translateX(19456px);}
.step20 {transform: translateX(20480px);}
.step21 {transform: translateX(21504px);}
.step22 {transform: translateX(22528px);}
.step23 {transform: translateX(23552px);}
.step24 {transform: translateX(24576px);}
.step25 {transform: translateX(25600px);}
.step26 {transform: translateX(26624px);}
.step27 {transform: translateX(27648px);}
.step28 {transform: translateX(28672px);}
.step29 {transform: translateX(29696px);}
    </style>

    <path d="M 359 618 Q 455 648 456 649 Q 465 656 460 665 Q 453 675 424 681 Q 394 684 363 671 L 314 653 Q 250 635 187 625 Q 153 618 178 602 Q 218 584 284 600 Q 297 603 315 607 L 359 618 Z" fill="lightgray" class="stroke step9"/>
    <path d="M 356 495 Q 378 502 405 509 Q 433 518 437 522 Q 444 529 440 538 Q 433 548 405 552 Q 380 556 357 545 L 315 528 Q 219 504 201 499 Q 168 490 194 477 Q 234 458 283 475 Q 296 479 314 483 L 356 495 Z" fill="lightgray" class="stroke step9"/>
    <path d="M 354 383 Q 405 395 466 404 Q 482 407 482 414 Q 483 426 465 434 Q 440 444 418 439 Q 382 430 354 422 L 311 411 Q 170 380 96 369 Q 83 368 81 360 Q 78 350 93 339 Q 132 315 169 328 Q 239 353 289 367 L 354 383 Z" fill="lightgray" class="stroke step9"/>
    <path d="M 353 348 Q 353 366 354 383 L 354 422 Q 354 456 356 495 L 357 545 Q 357 591 359 618 L 363 671 Q 367 708 377 738 Q 386 753 383 766 Q 376 776 322 809 Q 300 825 279 811 Q 275 807 281 791 Q 312 740 314 653 L 315 607 Q 315 568 315 528 L 314 483 Q 313 449 311 411 L 308 293 Q 308 185 282 97 Q 272 60 296 -2 Q 303 -20 311 -23 Q 317 -30 324 -21 Q 351 -5 351 58 Q 350 94 352 316 L 353 348 Z" fill="lightgray" class="stroke step9"/>
    <path d="M 289 367 Q 244 250 118 128 Q 105 116 90 102 Q 80 90 88 89 Q 97 85 107 91 Q 215 140 308 293 C 366 387 300 395 289 367 Z" fill="lightgray" class="stroke step9"/>
    <path d="M 352 316 Q 395 265 413 262 Q 423 261 429 275 Q 430 285 424 301 Q 408 331 353 348 C 324 357 333 339 352 316 Z" fill="lightgray" class="stroke step9"/>
    <path d="M 528 672 Q 573 627 585 626 Q 592 626 597 637 Q 601 647 595 671 Q 588 692 525 709 Q 513 713 508 711 Q 504 707 505 698 Q 506 689 528 672 Z" fill="lightgray" class="stroke step9"/>
    <path d="M 782 732 Q 761 707 720 667 Q 716 661 719 655 Q 725 654 731 656 Q 804 695 839 708 Q 854 711 851 720 Q 848 733 834 750 Q 821 766 803 770 Q 791 771 790 755 Q 791 745 782 732 Z" fill="lightgray" class="stroke step9"/>
    <path d="M 681 558 Q 726 570 845 582 Q 855 581 865 594 Q 866 606 843 616 Q 813 637 731 613 Q 707 609 684 602 Q 680 601 677 600 L 642 593 Q 567 583 488 573 Q 460 569 482 552 Q 513 525 543 533 Q 571 540 606 545 L 681 558 Z" fill="lightgray" class="stroke step9"/>
    <path d="M 677 600 Q 680 729 707 783 Q 713 792 702 805 Q 650 847 621 837 Q 608 833 614 818 Q 642 772 641 698 Q 642 641 642 593 L 639 508 Q 636 441 629 410 Q 628 395 634 379 Q 640 370 645 358 Q 655 343 669 351 Q 684 366 677 466 Q 677 497 675 529 L 677 600 Z" fill="lightgray" class="stroke step9"/>
    <path d="M 606 545 Q 579 472 461 379 Q 446 367 460 366 Q 517 362 607 465 Q 608 468 611 469 Q 627 490 639 508 C 673 558 624 591 606 545 Z" fill="lightgray" class="hide"/>
    <path d="M 675 529 Q 721 462 775 400 Q 793 379 824 376 Q 882 369 944 376 Q 960 377 961 381 Q 962 387 951 392 Q 819 449 800 462 Q 779 472 681 558 C 658 578 653 561 675 529 Z" fill="lightgray" class="hide"/>
    <path d="M 669 69 Q 717 36 784 -22 Q 808 -43 825 -42 Q 844 -43 845 -24 Q 846 -5 820 39 Q 808 64 701 109 L 655 128 Q 615 144 587 152 Q 565 156 576 178 Q 589 209 599 230 L 618 271 Q 619 275 621 277 Q 628 301 639 316 Q 646 323 644 332 Q 638 345 601 369 Q 591 378 581 373 Q 568 370 576 355 Q 586 334 579 311 Q 573 287 567 265 L 554 224 Q 544 196 531 175 Q 522 159 525 146 Q 528 137 544 134 Q 607 115 627 95 L 669 69 Z" fill="lightgray" class="hide"/>
    <path d="M 627 95 Q 557 44 460 17 Q 442 8 463 6 Q 583 -1 669 69 L 701 109 Q 740 190 746 204 Q 746 213 757 242 C 767 270 773 287 767 292 Q 755 305 733 311 Q 714 321 695 316 Q 682 312 689 297 Q 693 290 695 281 L 698 240 Q 697 221 688 198 Q 679 159 655 128 L 627 95 Z" fill="lightgray" class="hide"/>
    <path d="M 757 242 Q 809 245 873 243 Q 892 242 910 242 Q 929 241 934 250 Q 940 260 924 274 Q 869 316 816 301 Q 794 298 767 292 L 695 281 Q 659 280 618 271 L 567 265 Q 498 258 424 249 Q 405 248 419 231 Q 432 218 449 212 Q 470 206 485 210 Q 516 219 554 224 L 599 230 Q 626 236 698 240 L 757 242 Z" fill="lightgray" class="hide"/></g><g transform="scale(1, -1) translate(0, -900)">
    <style type="text/css">
        .origin {display:none;}
        .hide {display:none;}
        .stroke {fill: #000000;}
        
.step1 {transform: translateX(1024px);}
.step2 {transform: translateX(2048px);}
.step3 {transform: translateX(3072px);}
.step4 {transform: translateX(4096px);}
.step5 {transform: translateX(5120px);}
.step6 {transform: translateX(6144px);}
.step7 {transform: translateX(7168px);}
.step8 {transform: translateX(8192px);}
.step9 {transform: translateX(9216px);}
.step10 {transform: translateX(10240px);}
.step11 {transform: translateX(11264px);}
.step12 {transform: translateX(12288px);}
.step13 {transform: translateX(13312px);}
.step14 {transform: translateX(14336px);}
.step15 {transform: translateX(15360px);}
.step16 {transform: translateX(16384px);}
.step17 {transform: translateX(17408px);}
.step18 {transform: translateX(18432px);}
.step19 {transform: translateX(19456px);}
.step20 {transform: translateX(20480px);}
.step21 {transform: translateX(21504px);}
.step22 {transform: translateX(22528px);}
.step23 {transform: translateX(23552px);}
.step24 {transform: translateX(24576px);}
.step25 {transform: translateX(25600px);}
.step26 {transform: translateX(26624px);}
.step27 {transform: translateX(27648px);}
.step28 {transform: translateX(28672px);}
.step29 {transform: translateX(29696px);}
    </style>

    <path d="M 359 618 Q 455 648 456 649 Q 465 656 460 665 Q 453 675 424 681 Q 394 684 363 671 L 314 653 Q 250 635 187 625 Q 153 618 178 602 Q 218 584 284 600 Q 297 603 315 607 L 359 618 Z" fill="lightgray" class="stroke step10"/>
    <path d="M 356 495 Q 378 502 405 509 Q 433 518 437 522 Q 444 529 440 538 Q 433 548 405 552 Q 380 556 357 545 L 315 528 Q 219 504 201 499 Q 168 490 194 477 Q 234 458 283 475 Q 296 479 314 483 L 356 495 Z" fill="lightgray" class="stroke step10"/>
    <path d="M 354 383 Q 405 395 466 404 Q 482 407 482 414 Q 483 426 465 434 Q 440 444 418 439 Q 382 430 354 422 L 311 411 Q 170 380 96 369 Q 83 368 81 360 Q 78 350 93 339 Q 132 315 169 328 Q 239 353 289 367 L 354 383 Z" fill="lightgray" class="stroke step10"/>
    <path d="M 353 348 Q 353 366 354 383 L 354 422 Q 354 456 356 495 L 357 545 Q 357 591 359 618 L 363 671 Q 367 708 377 738 Q 386 753 383 766 Q 376 776 322 809 Q 300 825 279 811 Q 275 807 281 791 Q 312 740 314 653 L 315 607 Q 315 568 315 528 L 314 483 Q 313 449 311 411 L 308 293 Q 308 185 282 97 Q 272 60 296 -2 Q 303 -20 311 -23 Q 317 -30 324 -21 Q 351 -5 351 58 Q 350 94 352 316 L 353 348 Z" fill="lightgray" class="stroke step10"/>
    <path d="M 289 367 Q 244 250 118 128 Q 105 116 90 102 Q 80 90 88 89 Q 97 85 107 91 Q 215 140 308 293 C 366 387 300 395 289 367 Z" fill="lightgray" class="stroke step10"/>
    <path d="M 352 316 Q 395 265 413 262 Q 423 261 429 275 Q 430 285 424 301 Q 408 331 353 348 C 324 357 333 339 352 316 Z" fill="lightgray" class="stroke step10"/>
    <path d="M 528 672 Q 573 627 585 626 Q 592 626 597 637 Q 601 647 595 671 Q 588 692 525 709 Q 513 713 508 711 Q 504 707 505 698 Q 506 689 528 672 Z" fill="lightgray" class="stroke step10"/>
    <path d="M 782 732 Q 761 707 720 667 Q 716 661 719 655 Q 725 654 731 656 Q 804 695 839 708 Q 854 711 851 720 Q 848 733 834 750 Q 821 766 803 770 Q 791 771 790 755 Q 791 745 782 732 Z" fill="lightgray" class="stroke step10"/>
    <path d="M 681 558 Q 726 570 845 582 Q 855 581 865 594 Q 866 606 843 616 Q 813 637 731 613 Q 707 609 684 602 Q 680 601 677 600 L 642 593 Q 567 583 488 573 Q 460 569 482 552 Q 513 525 543 533 Q 571 540 606 545 L 681 558 Z" fill="lightgray" class="stroke step10"/>
    <path d="M 677 600 Q 680 729 707 783 Q 713 792 702 805 Q 650 847 621 837 Q 608 833 614 818 Q 642 772 641 698 Q 642 641 642 593 L 639 508 Q 636 441 629 410 Q 628 395 634 379 Q 640 370 645 358 Q 655 343 669 351 Q 684 366 677 466 Q 677 497 675 529 L 677 600 Z" fill="lightgray" class="stroke step10"/>
    <path d="M 606 545 Q 579 472 461 379 Q 446 367 460 366 Q 517 362 607 465 Q 608 468 611 469 Q 627 490 639 508 C 673 558 624 591 606 545 Z" fill="lightgray" class="stroke step10"/>
    <path d="M 675 529 Q 721 462 775 400 Q 793 379 824 376 Q 882 369 944 376 Q 960 377 961 381 Q 962 387 951 392 Q 819 449 800 462 Q 779 472 681 558 C 658 578 653 561 675 529 Z" fill="lightgray" class="hide"/>
    <path d="M 669 69 Q 717 36 784 -22 Q 808 -43 825 -42 Q 844 -43 845 -24 Q 846 -5 820 39 Q 808 64 701 109 L 655 128 Q 615 144 587 152 Q 565 156 576 178 Q 589 209 599 230 L 618 271 Q 619 275 621 277 Q 628 301 639 316 Q 646 323 644 332 Q 638 345 601 369 Q 591 378 581 373 Q 568 370 576 355 Q 586 334 579 311 Q 573 287 567 265 L 554 224 Q 544 196 531 175 Q 522 159 525 146 Q 528 137 544 134 Q 607 115 627 95 L 669 69 Z" fill="lightgray" class="hide"/>
    <path d="M 627 95 Q 557 44 460 17 Q 442 8 463 6 Q 583 -1 669 69 L 701 109 Q 740 190 746 204 Q 746 213 757 242 C 767 270 773 287 767 292 Q 755 305 733 311 Q 714 321 695 316 Q 682 312 689 297 Q 693 290 695 281 L 698 240 Q 697 221 688 198 Q 679 159 655 128 L 627 95 Z" fill="lightgray" class="hide"/>
    <path d="M 757 242 Q 809 245 873 243 Q 892 242 910 242 Q 929 241 934 250 Q 940 260 924 274 Q 869 316 816 301 Q 794 298 767 292 L 695 281 Q 659 280 618 271 L 567 265 Q 498 258 424 249 Q 405 248 419 231 Q 432 218 449 212 Q 470 206 485 210 Q 516 219 554 224 L 599 230 Q 626 236 698 240 L 757 242 Z" fill="lightgray" class="hide"/></g><g transform="scale(1, -1) translate(0, -900)">
    <style type="text/css">
        .origin {display:none;}
        .hide {display:none;}
        .stroke {fill: #000000;}
        
.step1 {transform: translateX(1024px);}
.step2 {transform: translateX(2048px);}
.step3 {transform: translateX(3072px);}
.step4 {transform: translateX(4096px);}
.step5 {transform: translateX(5120px);}
.step6 {transform: translateX(6144px);}
.step7 {transform: translateX(7168px);}
.step8 {transform: translateX(8192px);}
.step9 {transform: translateX(9216px);}
.step10 {transform: translateX(10240px);}
.step11 {transform: translateX(11264px);}
.step12 {transform: translateX(12288px);}
.step13 {transform: translateX(13312px);}
.step14 {transform: translateX(14336px);}
.step15 {transform: translateX(15360px);}
.step16 {transform: translateX(16384px);}
.step17 {transform: translateX(17408px);}
.step18 {transform: translateX(18432px);}
.step19 {transform: translateX(19456px);}
.step20 {transform: translateX(20480px);}
.step21 {transform: translateX(21504px);}
.step22 {transform: translateX(22528px);}
.step23 {transform: translateX(23552px);}
.step24 {transform: translateX(24576px);}
.step25 {transform: translateX(25600px);}
.step26 {transform: translateX(26624px);}
.step27 {transform: translateX(27648px);}
.step28 {transform: translateX(28672px);}
.step29 {transform: translateX(29696px);}
    </style>

    <path d="M 359 618 Q 455 648 456 649 Q 465 656 460 665 Q 453 675 424 681 Q 394 684 363 671 L 314 653 Q 250 635 187 625 Q 153 618 178 602 Q 218 584 284 600 Q 297 603 315 607 L 359 618 Z" fill="lightgray" class="stroke step11"/>
    <path d="M 356 495 Q 378 502 405 509 Q 433 518 437 522 Q 444 529 440 538 Q 433 548 405 552 Q 380 556 357 545 L 315 528 Q 219 504 201 499 Q 168 490 194 477 Q 234 458 283 475 Q 296 479 314 483 L 356 495 Z" fill="lightgray" class="stroke step11"/>
    <path d="M 354 383 Q 405 395 466 404 Q 482 407 482 414 Q 483 426 465 434 Q 440 444 418 439 Q 382 430 354 422 L 311 411 Q 170 380 96 369 Q 83 368 81 360 Q 78 350 93 339 Q 132 315 169 328 Q 239 353 289 367 L 354 383 Z" fill="lightgray" class="stroke step11"/>
    <path d="M 353 348 Q 353 366 354 383 L 354 422 Q 354 456 356 495 L 357 545 Q 357 591 359 618 L 363 671 Q 367 708 377 738 Q 386 753 383 766 Q 376 776 322 809 Q 300 825 279 811 Q 275 807 281 791 Q 312 740 314 653 L 315 607 Q 315 568 315 528 L 314 483 Q 313 449 311 411 L 308 293 Q 308 185 282 97 Q 272 60 296 -2 Q 303 -20 311 -23 Q 317 -30 324 -21 Q 351 -5 351 58 Q 350 94 352 316 L 353 348 Z" fill="lightgray" class="stroke step11"/>
    <path d="M 289 367 Q 244 250 118 128 Q 105 116 90 102 Q 80 90 88 89 Q 97 85 107 91 Q 215 140 308 293 C 366 387 300 395 289 367 Z" fill="lightgray" class="stroke step11"/>
    <path d="M 352 316 Q 395 265 413 262 Q 423 261 429 275 Q 430 285 424 301 Q 408 331 353 348 C 324 357 333 339 352 316 Z" fill="lightgray" class="stroke step11"/>
    <path d="M 528 672 Q 573 627 585 626 Q 592 626 597 637 Q 601 647 595 671 Q 588 692 525 709 Q 513 713 508 711 Q 504 707 505 698 Q 506 689 528 672 Z" fill="lightgray" class="stroke step11"/>
    <path d="M 782 732 Q 761 707 720 667 Q 716 661 719 655 Q 725 654 731 656 Q 804 695 839 708 Q 854 711 851 720 Q 848 733 834 750 Q 821 766 803 770 Q 791 771 790 755 Q 791 745 782 732 Z" fill="lightgray" class="stroke step11"/>
    <path d="M 681 558 Q 726 570 845 582 Q 855 581 865 594 Q 866 606 843 616 Q 813 637 731 613 Q 707 609 684 602 Q 680 601 677 600 L 642 593 Q 567 583 488 573 Q 460 569 482 552 Q 513 525 543 533 Q 571 540 606 545 L 681 558 Z" fill="lightgray" class="stroke step11"/>
    <path d="M 677 600 Q 680 729 707 783 Q 713 792 702 805 Q 650 847 621 837 Q 608 833 614 818 Q 642 772 641 698 Q 642 641 642 593 L 639 508 Q 636 441 629 410 Q 628 395 634 379 Q 640 370 645 358 Q 655 343 669 351 Q 684 366 677 466 Q 677 497 675 529 L 677 600 Z" fill="lightgray" class="stroke step11"/>
    <path d="M 606 545 Q 579 472 461 379 Q 446 367 460 366 Q 517 362 607 465 Q 608 468 611 469 Q 627 490 639 508 C 673 558 624 591 606 545 Z" fill="lightgray" class="stroke step11"/>
    <path d="M 675 529 Q 721 462 775 400 Q 793 379 824 376 Q 882 369 944 376 Q 960 377 961 381 Q 962 387 951 392 Q 819 449 800 462 Q 779 472 681 558 C 658 578 653 561 675 529 Z" fill="lightgray" class="stroke step11"/>
    <path d="M 669 69 Q 717 36 784 -22 Q 808 -43 825 -42 Q 844 -43 845 -24 Q 846 -5 820 39 Q 808 64 701 109 L 655 128 Q 615 144 587 152 Q 565 156 576 178 Q 589 209 599 230 L 618 271 Q 619 275 621 277 Q 628 301 639 316 Q 646 323 644 332 Q 638 345 601 369 Q 591 378 581 373 Q 568 370 576 355 Q 586 334 579 311 Q 573 287 567 265 L 554 224 Q 544 196 531 175 Q 522 159 525 146 Q 528 137 544 134 Q 607 115 627 95 L 669 69 Z" fill="lightgray" class="hide"/>
    <path d="M 627 95 Q 557 44 460 17 Q 442 8 463 6 Q 583 -1 669 69 L 701 109 Q 740 190 746 204 Q 746 213 757 242 C 767 270 773 287 767 292 Q 755 305 733 311 Q 714 321 695 316 Q 682 312 689 297 Q 693 290 695 281 L 698 240 Q 697 221 688 198 Q 679 159 655 128 L 627 95 Z" fill="lightgray" class="hide"/>
    <path d="M 757 242 Q 809 245 873 243 Q 892 242 910 242 Q 929 241 934 250 Q 940 260 924 274 Q 869 316 816 301 Q 794 298 767 292 L 695 281 Q 659 280 618 271 L 567 265 Q 498 258 424 249 Q 405 248 419 231 Q 432 218 449 212 Q 470 206 485 210 Q 516 219 554 224 L 599 230 Q 626 236 698 240 L 757 242 Z" fill="lightgray" class="hide"/></g><g transform="scale(1, -1) translate(0, -900)">
    <style type="text/css">
        .origin {display:none;}
        .hide {display:none;}
        .stroke {fill: #000000;}
        
.step1 {transform: translateX(1024px);}
.step2 {transform: translateX(2048px);}
.step3 {transform: translateX(3072px);}
.step4 {transform: translateX(4096px);}
.step5 {transform: translateX(5120px);}
.step6 {transform: translateX(6144px);}
.step7 {transform: translateX(7168px);}
.step8 {transform: translateX(8192px);}
.step9 {transform: translateX(9216px);}
.step10 {transform: translateX(10240px);}
.step11 {transform: translateX(11264px);}
.step12 {transform: translateX(12288px);}
.step13 {transform: translateX(13312px);}
.step14 {transform: translateX(14336px);}
.step15 {transform: translateX(15360px);}
.step16 {transform: translateX(16384px);}
.step17 {transform: translateX(17408px);}
.step18 {transform: translateX(18432px);}
.step19 {transform: translateX(19456px);}
.step20 {transform: translateX(20480px);}
.step21 {transform: translateX(21504px);}
.step22 {transform: translateX(22528px);}
.step23 {transform: translateX(23552px);}
.step24 {transform: translateX(24576px);}
.step25 {transform: translateX(25600px);}
.step26 {transform: translateX(26624px);}
.step27 {transform: translateX(27648px);}
.step28 {transform: translateX(28672px);}
.step29 {transform: translateX(29696px);}
    </style>

    <path d="M 359 618 Q 455 648 456 649 Q 465 656 460 665 Q 453 675 424 681 Q 394 684 363 671 L 314 653 Q 250 635 187 625 Q 153 618 178 602 Q 218 584 284 600 Q 297 603 315 607 L 359 618 Z" fill="lightgray" class="stroke step12"/>
    <path d="M 356 495 Q 378 502 405 509 Q 433 518 437 522 Q 444 529 440 538 Q 433 548 405 552 Q 380 556 357 545 L 315 528 Q 219 504 201 499 Q 168 490 194 477 Q 234 458 283 475 Q 296 479 314 483 L 356 495 Z" fill="lightgray" class="stroke step12"/>
    <path d="M 354 383 Q 405 395 466 404 Q 482 407 482 414 Q 483 426 465 434 Q 440 444 418 439 Q 382 430 354 422 L 311 411 Q 170 380 96 369 Q 83 368 81 360 Q 78 350 93 339 Q 132 315 169 328 Q 239 353 289 367 L 354 383 Z" fill="lightgray" class="stroke step12"/>
    <path d="M 353 348 Q 353 366 354 383 L 354 422 Q 354 456 356 495 L 357 545 Q 357 591 359 618 L 363 671 Q 367 708 377 738 Q 386 753 383 766 Q 376 776 322 809 Q 300 825 279 811 Q 275 807 281 791 Q 312 740 314 653 L 315 607 Q 315 568 315 528 L 314 483 Q 313 449 311 411 L 308 293 Q 308 185 282 97 Q 272 60 296 -2 Q 303 -20 311 -23 Q 317 -30 324 -21 Q 351 -5 351 58 Q 350 94 352 316 L 353 348 Z" fill="lightgray" class="stroke step12"/>
    <path d="M 289 367 Q 244 250 118 128 Q 105 116 90 102 Q 80 90 88 89 Q 97 85 107 91 Q 215 140 308 293 C 366 387 300 395 289 367 Z" fill="lightgray" class="stroke step12"/>
    <path d="M 352 316 Q 395 265 413 262 Q 423 261 429 275 Q 430 285 424 301 Q 408 331 353 348 C 324 357 333 339 352 316 Z" fill="lightgray" class="stroke step12"/>
    <path d="M 528 672 Q 573 627 585 626 Q 592 626 597 637 Q 601 647 595 671 Q 588 692 525 709 Q 513 713 508 711 Q 504 707 505 698 Q 506 689 528 672 Z" fill="lightgray" class="stroke step12"/>
    <path d="M 782 732 Q 761 707 720 667 Q 716 661 719 655 Q 725 654 731 656 Q 804 695 839 708 Q 854 711 851 720 Q 848 733 834 750 Q 821 766 803 770 Q 791 771 790 755 Q 791 745 782 732 Z" fill="lightgray" class="stroke step12"/>
    <path d="M 681 558 Q 726 570 845 582 Q 855 581 865 594 Q 866 606 843 616 Q 813 637 731 613 Q 707 609 684 602 Q 680 601 677 600 L 642 593 Q 567 583 488 573 Q 460 569 482 552 Q 513 525 543 533 Q 571 540 606 545 L 681 558 Z" fill="lightgray" class="stroke step12"/>
    <path d="M 677 600 Q 680 729 707 783 Q 713 792 702 805 Q 650 847 621 837 Q 608 833 614 818 Q 642 772 641 698 Q 642 641 642 593 L 639 508 Q 636 441 629 410 Q 628 395 634 379 Q 640 370 645 358 Q 655 343 669 351 Q 684 366 677 466 Q 677 497 675 529 L 677 600 Z" fill="lightgray" class="stroke step12"/>
    <path d="M 606 545 Q 579 472 461 379 Q 446 367 460 366 Q 517 362 607 465 Q 608 468 611 469 Q 627 490 639 508 C 673 558 624 591 606 545 Z" fill="lightgray" class="stroke step12"/>
    <path d="M 675 529 Q 721 462 775 400 Q 793 379 824 376 Q 882 369 944 376 Q 960 377 961 381 Q 962 387 951 392 Q 819 449 800 462 Q 779 472 681 558 C 658 578 653 561 675 529 Z" fill="lightgray" class="stroke step12"/>
    <path d="M 669 69 Q 717 36 784 -22 Q 808 -43 825 -42 Q 844 -43 845 -24 Q 846 -5 820 39 Q 808 64 701 109 L 655 128 Q 615 144 587 152 Q 565 156 576 178 Q 589 209 599 230 L 618 271 Q 619 275 621 277 Q 628 301 639 316 Q 646 323 644 332 Q 638 345 601 369 Q 591 378 581 373 Q 568 370 576 355 Q 586 334 579 311 Q 573 287 567 265 L 554 224 Q 544 196 531 175 Q 522 159 525 146 Q 528 137 544 134 Q 607 115 627 95 L 669 69 Z" fill="lightgray" class="stroke step12"/>
    <path d="M 627 95 Q 557 44 460 17 Q 442 8 463 6 Q 583 -1 669 69 L 701 109 Q 740 190 746 204 Q 746 213 757 242 C 767 270 773 287 767 292 Q 755 305 733 311 Q 714 321 695 316 Q 682 312 689 297 Q 693 290 695 281 L 698 240 Q 697 221 688 198 Q 679 159 655 128 L 627 95 Z" fill="lightgray" class="hide"/>
    <path d="M 757 242 Q 809 245 873 243 Q 892 242 910 242 Q 929 241 934 250 Q 940 260 924 274 Q 869 316 816 301 Q 794 298 767 292 L 695 281 Q 659 280 618 271 L 567 265 Q 498 258 424 249 Q 405 248 419 231 Q 432 218 449 212 Q 470 206 485 210 Q 516 219 554 224 L 599 230 Q 626 236 698 240 L 757 242 Z" fill="lightgray" class="hide"/></g><g transform="scale(1, -1) translate(0, -900)">
    <style type="text/css">
        .origin {display:none;}
        .hide {display:none;}
        .stroke {fill: #000000;}
        
.step1 {transform: translateX(1024px);}
.step2 {transform: translateX(2048px);}
.step3 {transform: translateX(3072px);}
.step4 {transform: translateX(4096px);}
.step5 {transform: translateX(5120px);}
.step6 {transform: translateX(6144px);}
.step7 {transform: translateX(7168px);}
.step8 {transform: translateX(8192px);}
.step9 {transform: translateX(9216px);}
.step10 {transform: translateX(10240px);}
.step11 {transform: translateX(11264px);}
.step12 {transform: translateX(12288px);}
.step13 {transform: translateX(13312px);}
.step14 {transform: translateX(14336px);}
.step15 {transform: translateX(15360px);}
.step16 {transform: translateX(16384px);}
.step17 {transform: translateX(17408px);}
.step18 {transform: translateX(18432px);}
.step19 {transform: translateX(19456px);}
.step20 {transform: translateX(20480px);}
.step21 {transform: translateX(21504px);}
.step22 {transform: translateX(22528px);}
.step23 {transform: translateX(23552px);}
.step24 {transform: translateX(24576px);}
.step25 {transform: translateX(25600px);}
.step26 {transform: translateX(26624px);}
.step27 {transform: translateX(27648px);}
.step28 {transform: translateX(28672px);}
.step29 {transform: translateX(29696px);}
    </style>

    <path d="M 359 618 Q 455 648 456 649 Q 465 656 460 665 Q 453 675 424 681 Q 394 684 363 671 L 314 653 Q 250 635 187 625 Q 153 618 178 602 Q 218 584 284 600 Q 297 603 315 607 L 359 618 Z" fill="lightgray" class="stroke step13"/>
    <path d="M 356 495 Q 378 502 405 509 Q 433 518 437 522 Q 444 529 440 538 Q 433 548 405 552 Q 380 556 357 545 L 315 528 Q 219 504 201 499 Q 168 490 194 477 Q 234 458 283 475 Q 296 479 314 483 L 356 495 Z" fill="lightgray" class="stroke step13"/>
    <path d="M 354 383 Q 405 395 466 404 Q 482 407 482 414 Q 483 426 465 434 Q 440 444 418 439 Q 382 430 354 422 L 311 411 Q 170 380 96 369 Q 83 368 81 360 Q 78 350 93 339 Q 132 315 169 328 Q 239 353 289 367 L 354 383 Z" fill="lightgray" class="stroke step13"/>
    <path d="M 353 348 Q 353 366 354 383 L 354 422 Q 354 456 356 495 L 357 545 Q 357 591 359 618 L 363 671 Q 367 708 377 738 Q 386 753 383 766 Q 376 776 322 809 Q 300 825 279 811 Q 275 807 281 791 Q 312 740 314 653 L 315 607 Q 315 568 315 528 L 314 483 Q 313 449 311 411 L 308 293 Q 308 185 282 97 Q 272 60 296 -2 Q 303 -20 311 -23 Q 317 -30 324 -21 Q 351 -5 351 58 Q 350 94 352 316 L 353 348 Z" fill="lightgray" class="stroke step13"/>
    <path d="M 289 367 Q 244 250 118 128 Q 105 116 90 102 Q 80 90 88 89 Q 97 85 107 91 Q 215 140 308 293 C 366 387 300 395 289 367 Z" fill="lightgray" class="stroke step13"/>
    <path d="M 352 316 Q 395 265 413 262 Q 423 261 429 275 Q 430 285 424 301 Q 408 331 353 348 C 324 357 333 339 352 316 Z" fill="lightgray" class="stroke step13"/>
    <path d="M 528 672 Q 573 627 585 626 Q 592 626 597 637 Q 601 647 595 671 Q 588 692 525 709 Q 513 713 508 711 Q 504 707 505 698 Q 506 689 528 672 Z" fill="lightgray" class="stroke step13"/>
    <path d="M 782 732 Q 761 707 720 667 Q 716 661 719 655 Q 725 654 731 656 Q 804 695 839 708 Q 854 711 851 720 Q 848 733 834 750 Q 821 766 803 770 Q 791 771 790 755 Q 791 745 782 732 Z" fill="lightgray" class="stroke step13"/>
    <path d="M 681 558 Q 726 570 845 582 Q 855 581 865 594 Q 866 606 843 616 Q 813 637 731 613 Q 707 609 684 602 Q 680 601 677 600 L 642 593 Q 567 583 488 573 Q 460 569 482 552 Q 513 525 543 533 Q 571 540 606 545 L 681 558 Z" fill="lightgray" class="stroke step13"/>
    <path d="M 677 600 Q 680 729 707 783 Q 713 792 702 805 Q 650 847 621 837 Q 608 833 614 818 Q 642 772 641 698 Q 642 641 642 593 L 639 508 Q 636 441 629 410 Q 628 395 634 379 Q 640 370 645 358 Q 655 343 669 351 Q 684 366 677 466 Q 677 497 675 529 L 677 600 Z" fill="lightgray" class="stroke step13"/>
    <path d="M 606 545 Q 579 472 461 379 Q 446 367 460 366 Q 517 362 607 465 Q 608 468 611 469 Q 627 490 639 508 C 673 558 624 591 606 545 Z" fill="lightgray" class="stroke step13"/>
    <path d="M 675 529 Q 721 462 775 400 Q 793 379 824 376 Q 882 369 944 376 Q 960 377 961 381 Q 962 387 951 392 Q 819 449 800 462 Q 779 472 681 558 C 658 578 653 561 675 529 Z" fill="lightgray" class="stroke step13"/>
    <path d="M 669 69 Q 717 36 784 -22 Q 808 -43 825 -42 Q 844 -43 845 -24 Q 846 -5 820 39 Q 808 64 701 109 L 655 128 Q 615 144 587 152 Q 565 156 576 178 Q 589 209 599 230 L 618 271 Q 619 275 621 277 Q 628 301 639 316 Q 646 323 644 332 Q 638 345 601 369 Q 591 378 581 373 Q 568 370 576 355 Q 586 334 579 311 Q 573 287 567 265 L 554 224 Q 544 196 531 175 Q 522 159 525 146 Q 528 137 544 134 Q 607 115 627 95 L 669 69 Z" fill="lightgray" class="stroke step13"/>
    <path d="M 627 95 Q 557 44 460 17 Q 442 8 463 6 Q 583 -1 669 69 L 701 109 Q 740 190 746 204 Q 746 213 757 242 C 767 270 773 287 767 292 Q 755 305 733 311 Q 714 321 695 316 Q 682 312 689 297 Q 693 290 695 281 L 698 240 Q 697 221 688 198 Q 679 159 655 128 L 627 95 Z" fill="lightgray" class="stroke step13"/>
    <path d="M 757 242 Q 809 245 873 243 Q 892 242 910 242 Q 929 241 934 250 Q 940 260 924 274 Q 869 316 816 301 Q 794 298 767 292 L 695 281 Q 659 280 618 271 L 567 265 Q 498 258 424 249 Q 405 248 419 231 Q 432 218 449 212 Q 470 206 485 210 Q 516 219 554 224 L 599 230 Q 626 236 698 240 L 757 242 Z" fill="lightgray" class="hide"/></g><g transform="scale(1, -1) translate(0, -900)">
    <style type="text/css">
        .origin {display:none;}
        .hide {display:none;}
        .stroke {fill: #000000;}
        
.step1 {transform: translateX(1024px);}
.step2 {transform: translateX(2048px);}
.step3 {transform: translateX(3072px);}
.step4 {transform: translateX(4096px);}
.step5 {transform: translateX(5120px);}
.step6 {transform: translateX(6144px);}
.step7 {transform: translateX(7168px);}
.step8 {transform: translateX(8192px);}
.step9 {transform: translateX(9216px);}
.step10 {transform: translateX(10240px);}
.step11 {transform: translateX(11264px);}
.step12 {transform: translateX(12288px);}
.step13 {transform: translateX(13312px);}
.step14 {transform: translateX(14336px);}
.step15 {transform: translateX(15360px);}
.step16 {transform: translateX(16384px);}
.step17 {transform: translateX(17408px);}
.step18 {transform: translateX(18432px);}
.step19 {transform: translateX(19456px);}
.step20 {transform: translateX(20480px);}
.step21 {transform: translateX(21504px);}
.step22 {transform: translateX(22528px);}
.step23 {transform: translateX(23552px);}
.step24 {transform: translateX(24576px);}
.step25 {transform: translateX(25600px);}
.step26 {transform: translateX(26624px);}
.step27 {transform: translateX(27648px);}
.step28 {transform: translateX(28672px);}
.step29 {transform: translateX(29696px);}
    </style>

    <path d="M 359 618 Q 455 648 456 649 Q 465 656 460 665 Q 453 675 424 681 Q 394 684 363 671 L 314 653 Q 250 635 187 625 Q 153 618 178 602 Q 218 584 284 600 Q 297 603 315 607 L 359 618 Z" fill="lightgray" class="stroke step14"/>
    <path d="M 356 495 Q 378 502 405 509 Q 433 518 437 522 Q 444 529 440 538 Q 433 548 405 552 Q 380 556 357 545 L 315 528 Q 219 504 201 499 Q 168 490 194 477 Q 234 458 283 475 Q 296 479 314 483 L 356 495 Z" fill="lightgray" class="stroke step14"/>
    <path d="M 354 383 Q 405 395 466 404 Q 482 407 482 414 Q 483 426 465 434 Q 440 444 418 439 Q 382 430 354 422 L 311 411 Q 170 380 96 369 Q 83 368 81 360 Q 78 350 93 339 Q 132 315 169 328 Q 239 353 289 367 L 354 383 Z" fill="lightgray" class="stroke step14"/>
    <path d="M 353 348 Q 353 366 354 383 L 354 422 Q 354 456 356 495 L 357 545 Q 357 591 359 618 L 363 671 Q 367 708 377 738 Q 386 753 383 766 Q 376 776 322 809 Q 300 825 279 811 Q 275 807 281 791 Q 312 740 314 653 L 315 607 Q 315 568 315 528 L 314 483 Q 313 449 311 411 L 308 293 Q 308 185 282 97 Q 272 60 296 -2 Q 303 -20 311 -23 Q 317 -30 324 -21 Q 351 -5 351 58 Q 350 94 352 316 L 353 348 Z" fill="lightgray" class="stroke step14"/>
    <path d="M 289 367 Q 244 250 118 128 Q 105 116 90 102 Q 80 90 88 89 Q 97 85 107 91 Q 215 140 308 293 C 366 387 300 395 289 367 Z" fill="lightgray" class="stroke step14"/>
    <path d="M 352 316 Q 395 265 413 262 Q 423 261 429 275 Q 430 285 424 301 Q 408 331 353 348 C 324 357 333 339 352 316 Z" fill="lightgray" class="stroke step14"/>
    <path d="M 528 672 Q 573 627 585 626 Q 592 626 597 637 Q 601 647 595 671 Q 588 692 525 709 Q 513 713 508 711 Q 504 707 505 698 Q 506 689 528 672 Z" fill="lightgray" class="stroke step14"/>
    <path d="M 782 732 Q 761 707 720 667 Q 716 661 719 655 Q 725 654 731 656 Q 804 695 839 708 Q 854 711 851 720 Q 848 733 834 750 Q 821 766 803 770 Q 791 771 790 755 Q 791 745 782 732 Z" fill="lightgray" class="stroke step14"/>
    <path d="M 681 558 Q 726 570 845 582 Q 855 581 865 594 Q 866 606 843 616 Q 813 637 731 613 Q 707 609 684 602 Q 680 601 677 600 L 642 593 Q 567 583 488 573 Q 460 569 482 552 Q 513 525 543 533 Q 571 540 606 545 L 681 558 Z" fill="lightgray" class="stroke step14"/>
    <path d="M 677 600 Q 680 729 707 783 Q 713 792 702 805 Q 650 847 621 837 Q 608 833 614 818 Q 642 772 641 698 Q 642 641 642 593 L 639 508 Q 636 441 629 410 Q 628 395 634 379 Q 640 370 645 358 Q 655 343 669 351 Q 684 366 677 466 Q 677 497 675 529 L 677 600 Z" fill="lightgray" class="stroke step14"/>
    <path d="M 606 545 Q 579 472 461 379 Q 446 367 460 366 Q 517 362 607 465 Q 608 468 611 469 Q 627 490 639 508 C 673 558 624 591 606 545 Z" fill="lightgray" class="stroke step14"/>
    <path d="M 675 529 Q 721 462 775 400 Q 793 379 824 376 Q 882 369 944 376 Q 960 377 961 381 Q 962 387 951 392 Q 819 449 800 462 Q 779 472 681 558 C 658 578 653 561 675 529 Z" fill="lightgray" class="stroke step14"/>
    <path d="M 669 69 Q 717 36 784 -22 Q 808 -43 825 -42 Q 844 -43 845 -24 Q 846 -5 820 39 Q 808 64 701 109 L 655 128 Q 615 144 587 152 Q 565 156 576 178 Q 589 209 599 230 L 618 271 Q 619 275 621 277 Q 628 301 639 316 Q 646 323 644 332 Q 638 345 601 369 Q 591 378 581 373 Q 568 370 576 355 Q 586 334 579 311 Q 573 287 567 265 L 554 224 Q 544 196 531 175 Q 522 159 525 146 Q 528 137 544 134 Q 607 115 627 95 L 669 69 Z" fill="lightgray" class="stroke step14"/>
    <path d="M 627 95 Q 557 44 460 17 Q 442 8 463 6 Q 583 -1 669 69 L 701 109 Q 740 190 746 204 Q 746 213 757 242 C 767 270 773 287 767 292 Q 755 305 733 311 Q 714 321 695 316 Q 682 312 689 297 Q 693 290 695 281 L 698 240 Q 697 221 688 198 Q 679 159 655 128 L 627 95 Z" fill="lightgray" class="stroke step14"/>
    <path d="M 757 242 Q 809 245 873 243 Q 892 242 910 242 Q 929 241 934 250 Q 940 260 924 274 Q 869 316 816 301 Q 794 298 767 292 L 695 281 Q 659 280 618 271 L 567 265 Q 498 258 424 249 Q 405 248 419 231 Q 432 218 449 212 Q 470 206 485 210 Q 516 219 554 224 L 599 230 Q 626 236 698 240 L 757 242 Z" fill="lightgray" class="stroke step14"/></g></svg>