<svg version="1.1" viewBox="0 0 10240 1024" xmlns="http://www.w3.org/2000/svg">
  
  <g transform="scale(1, -1) translate(0, -900)" class="origin">
    <style type="text/css">
        .origin {display:none;}
        .hide {display:none;}
        .stroke {fill: #000000;}
        
.step1 {transform: translateX(1024px);}
.step2 {transform: translateX(2048px);}
.step3 {transform: translateX(3072px);}
.step4 {transform: translateX(4096px);}
.step5 {transform: translateX(5120px);}
.step6 {transform: translateX(6144px);}
.step7 {transform: translateX(7168px);}
.step8 {transform: translateX(8192px);}
.step9 {transform: translateX(9216px);}
.step10 {transform: translateX(10240px);}
.step11 {transform: translateX(11264px);}
.step12 {transform: translateX(12288px);}
.step13 {transform: translateX(13312px);}
.step14 {transform: translateX(14336px);}
.step15 {transform: translateX(15360px);}
.step16 {transform: translateX(16384px);}
.step17 {transform: translateX(17408px);}
.step18 {transform: translateX(18432px);}
.step19 {transform: translateX(19456px);}
.step20 {transform: translateX(20480px);}
.step21 {transform: translateX(21504px);}
.step22 {transform: translateX(22528px);}
.step23 {transform: translateX(23552px);}
.step24 {transform: translateX(24576px);}
.step25 {transform: translateX(25600px);}
.step26 {transform: translateX(26624px);}
.step27 {transform: translateX(27648px);}
.step28 {transform: translateX(28672px);}
.step29 {transform: translateX(29696px);}
    </style>

    <path d="M 361 693 Q 380 699 401 702 Q 447 712 455 719 Q 464 726 459 736 Q 452 748 422 756 Q 400 760 288 728 Q 195 706 114 698 Q 77 692 103 674 Q 119 665 142 660 Q 146 660 151 658 C 177 652 177 652 201 661 Q 201 662 203 663 Q 264 676 329 687 L 361 693 Z" fill="lightgray"/>
    <path d="M 151 658 Q 172 622 172 577 Q 173 540 171 216 C 171 186 215 202 215 232 Q 216 298 218 358 L 219 393 Q 220 448 222 500 L 222 535 Q 223 556 224 575 Q 227 636 224 641 Q 214 651 201 661 C 178 680 137 685 151 658 Z" fill="lightgray"/>
    <path d="M 389 298 Q 390 428 390 568 Q 389 647 392 658 Q 395 670 386 677 Q 377 684 361 693 C 335 709 322 716 329 687 Q 347 651 339 278 L 337 241 Q 328 46 339 22 Q 343 13 351 3 Q 364 -12 373 6 Q 400 58 393 103 Q 390 142 389 265 L 389 298 Z" fill="lightgray"/>
    <path d="M 222 500 Q 268 510 305 516 Q 327 522 318 533 Q 306 546 282 548 Q 260 549 222 535 C 194 525 193 494 222 500 Z" fill="lightgray"/>
    <path d="M 218 358 Q 267 368 305 374 Q 327 381 318 393 Q 306 406 280 408 Q 256 409 219 393 C 191 381 189 352 218 358 Z" fill="lightgray"/>
    <path d="M 389 265 Q 456 296 458 316 Q 452 322 440 318 Q 415 309 389 298 L 339 278 Q 278 256 215 232 L 171 216 Q 83 189 56 187 Q 43 186 41 175 Q 40 162 50 154 Q 72 138 107 122 Q 117 119 128 128 Q 173 164 337 241 L 389 265 Z" fill="lightgray"/>
    <path d="M 449 492 Q 468 417 488 393 Q 498 384 512 391 Q 522 398 528 413 Q 535 458 477 517 Q 465 529 456 530 Q 450 531 447 520 Q 443 510 449 492 Z" fill="lightgray"/>
    <path d="M 745 572 Q 733 551 687 491 Q 677 473 694 477 Q 727 492 788 524 Q 807 540 834 550 Q 856 560 846 579 Q 833 598 805 614 Q 780 629 767 626 Q 754 625 758 611 Q 761 592 745 572 Z" fill="lightgray"/>
    <path d="M 625 411 Q 626 429 628 446 Q 643 690 663 741 Q 670 756 659 768 Q 637 787 595 799 Q 568 806 560 798 Q 550 791 558 778 Q 613 690 570 363 Q 546 260 498 198 Q 465 164 413 128 Q 400 119 400 115 Q 401 111 414 111 Q 427 107 459 121 Q 568 160 605 297 Q 614 330 620 368 L 625 411 Z" fill="lightgray"/>
    <path d="M 620 368 Q 687 239 778 100 Q 794 76 828 74 Q 940 64 975 67 Q 985 68 989 73 Q 989 79 976 88 Q 844 155 793 207 Q 717 288 631 403 Q 628 407 625 411 C 607 435 606 395 620 368 Z" fill="lightgray"/></g>
<g transform="scale(1, -1) translate(0, -900)">
    <style type="text/css">
        .origin {display:none;}
        .hide {display:none;}
        .stroke {fill: #000000;}
        
.step1 {transform: translateX(1024px);}
.step2 {transform: translateX(2048px);}
.step3 {transform: translateX(3072px);}
.step4 {transform: translateX(4096px);}
.step5 {transform: translateX(5120px);}
.step6 {transform: translateX(6144px);}
.step7 {transform: translateX(7168px);}
.step8 {transform: translateX(8192px);}
.step9 {transform: translateX(9216px);}
.step10 {transform: translateX(10240px);}
.step11 {transform: translateX(11264px);}
.step12 {transform: translateX(12288px);}
.step13 {transform: translateX(13312px);}
.step14 {transform: translateX(14336px);}
.step15 {transform: translateX(15360px);}
.step16 {transform: translateX(16384px);}
.step17 {transform: translateX(17408px);}
.step18 {transform: translateX(18432px);}
.step19 {transform: translateX(19456px);}
.step20 {transform: translateX(20480px);}
.step21 {transform: translateX(21504px);}
.step22 {transform: translateX(22528px);}
.step23 {transform: translateX(23552px);}
.step24 {transform: translateX(24576px);}
.step25 {transform: translateX(25600px);}
.step26 {transform: translateX(26624px);}
.step27 {transform: translateX(27648px);}
.step28 {transform: translateX(28672px);}
.step29 {transform: translateX(29696px);}
    </style>

    <path d="M 361 693 Q 380 699 401 702 Q 447 712 455 719 Q 464 726 459 736 Q 452 748 422 756 Q 400 760 288 728 Q 195 706 114 698 Q 77 692 103 674 Q 119 665 142 660 Q 146 660 151 658 C 177 652 177 652 201 661 Q 201 662 203 663 Q 264 676 329 687 L 361 693 Z" fill="lightgray" class="stroke step0"/>
    <path d="M 151 658 Q 172 622 172 577 Q 173 540 171 216 C 171 186 215 202 215 232 Q 216 298 218 358 L 219 393 Q 220 448 222 500 L 222 535 Q 223 556 224 575 Q 227 636 224 641 Q 214 651 201 661 C 178 680 137 685 151 658 Z" fill="lightgray" class="hide"/>
    <path d="M 389 298 Q 390 428 390 568 Q 389 647 392 658 Q 395 670 386 677 Q 377 684 361 693 C 335 709 322 716 329 687 Q 347 651 339 278 L 337 241 Q 328 46 339 22 Q 343 13 351 3 Q 364 -12 373 6 Q 400 58 393 103 Q 390 142 389 265 L 389 298 Z" fill="lightgray" class="hide"/>
    <path d="M 222 500 Q 268 510 305 516 Q 327 522 318 533 Q 306 546 282 548 Q 260 549 222 535 C 194 525 193 494 222 500 Z" fill="lightgray" class="hide"/>
    <path d="M 218 358 Q 267 368 305 374 Q 327 381 318 393 Q 306 406 280 408 Q 256 409 219 393 C 191 381 189 352 218 358 Z" fill="lightgray" class="hide"/>
    <path d="M 389 265 Q 456 296 458 316 Q 452 322 440 318 Q 415 309 389 298 L 339 278 Q 278 256 215 232 L 171 216 Q 83 189 56 187 Q 43 186 41 175 Q 40 162 50 154 Q 72 138 107 122 Q 117 119 128 128 Q 173 164 337 241 L 389 265 Z" fill="lightgray" class="hide"/>
    <path d="M 449 492 Q 468 417 488 393 Q 498 384 512 391 Q 522 398 528 413 Q 535 458 477 517 Q 465 529 456 530 Q 450 531 447 520 Q 443 510 449 492 Z" fill="lightgray" class="hide"/>
    <path d="M 745 572 Q 733 551 687 491 Q 677 473 694 477 Q 727 492 788 524 Q 807 540 834 550 Q 856 560 846 579 Q 833 598 805 614 Q 780 629 767 626 Q 754 625 758 611 Q 761 592 745 572 Z" fill="lightgray" class="hide"/>
    <path d="M 625 411 Q 626 429 628 446 Q 643 690 663 741 Q 670 756 659 768 Q 637 787 595 799 Q 568 806 560 798 Q 550 791 558 778 Q 613 690 570 363 Q 546 260 498 198 Q 465 164 413 128 Q 400 119 400 115 Q 401 111 414 111 Q 427 107 459 121 Q 568 160 605 297 Q 614 330 620 368 L 625 411 Z" fill="lightgray" class="hide"/>
    <path d="M 620 368 Q 687 239 778 100 Q 794 76 828 74 Q 940 64 975 67 Q 985 68 989 73 Q 989 79 976 88 Q 844 155 793 207 Q 717 288 631 403 Q 628 407 625 411 C 607 435 606 395 620 368 Z" fill="lightgray" class="hide"/></g><g transform="scale(1, -1) translate(0, -900)">
    <style type="text/css">
        .origin {display:none;}
        .hide {display:none;}
        .stroke {fill: #000000;}
        
.step1 {transform: translateX(1024px);}
.step2 {transform: translateX(2048px);}
.step3 {transform: translateX(3072px);}
.step4 {transform: translateX(4096px);}
.step5 {transform: translateX(5120px);}
.step6 {transform: translateX(6144px);}
.step7 {transform: translateX(7168px);}
.step8 {transform: translateX(8192px);}
.step9 {transform: translateX(9216px);}
.step10 {transform: translateX(10240px);}
.step11 {transform: translateX(11264px);}
.step12 {transform: translateX(12288px);}
.step13 {transform: translateX(13312px);}
.step14 {transform: translateX(14336px);}
.step15 {transform: translateX(15360px);}
.step16 {transform: translateX(16384px);}
.step17 {transform: translateX(17408px);}
.step18 {transform: translateX(18432px);}
.step19 {transform: translateX(19456px);}
.step20 {transform: translateX(20480px);}
.step21 {transform: translateX(21504px);}
.step22 {transform: translateX(22528px);}
.step23 {transform: translateX(23552px);}
.step24 {transform: translateX(24576px);}
.step25 {transform: translateX(25600px);}
.step26 {transform: translateX(26624px);}
.step27 {transform: translateX(27648px);}
.step28 {transform: translateX(28672px);}
.step29 {transform: translateX(29696px);}
    </style>

    <path d="M 361 693 Q 380 699 401 702 Q 447 712 455 719 Q 464 726 459 736 Q 452 748 422 756 Q 400 760 288 728 Q 195 706 114 698 Q 77 692 103 674 Q 119 665 142 660 Q 146 660 151 658 C 177 652 177 652 201 661 Q 201 662 203 663 Q 264 676 329 687 L 361 693 Z" fill="lightgray" class="stroke step1"/>
    <path d="M 151 658 Q 172 622 172 577 Q 173 540 171 216 C 171 186 215 202 215 232 Q 216 298 218 358 L 219 393 Q 220 448 222 500 L 222 535 Q 223 556 224 575 Q 227 636 224 641 Q 214 651 201 661 C 178 680 137 685 151 658 Z" fill="lightgray" class="stroke step1"/>
    <path d="M 389 298 Q 390 428 390 568 Q 389 647 392 658 Q 395 670 386 677 Q 377 684 361 693 C 335 709 322 716 329 687 Q 347 651 339 278 L 337 241 Q 328 46 339 22 Q 343 13 351 3 Q 364 -12 373 6 Q 400 58 393 103 Q 390 142 389 265 L 389 298 Z" fill="lightgray" class="hide"/>
    <path d="M 222 500 Q 268 510 305 516 Q 327 522 318 533 Q 306 546 282 548 Q 260 549 222 535 C 194 525 193 494 222 500 Z" fill="lightgray" class="hide"/>
    <path d="M 218 358 Q 267 368 305 374 Q 327 381 318 393 Q 306 406 280 408 Q 256 409 219 393 C 191 381 189 352 218 358 Z" fill="lightgray" class="hide"/>
    <path d="M 389 265 Q 456 296 458 316 Q 452 322 440 318 Q 415 309 389 298 L 339 278 Q 278 256 215 232 L 171 216 Q 83 189 56 187 Q 43 186 41 175 Q 40 162 50 154 Q 72 138 107 122 Q 117 119 128 128 Q 173 164 337 241 L 389 265 Z" fill="lightgray" class="hide"/>
    <path d="M 449 492 Q 468 417 488 393 Q 498 384 512 391 Q 522 398 528 413 Q 535 458 477 517 Q 465 529 456 530 Q 450 531 447 520 Q 443 510 449 492 Z" fill="lightgray" class="hide"/>
    <path d="M 745 572 Q 733 551 687 491 Q 677 473 694 477 Q 727 492 788 524 Q 807 540 834 550 Q 856 560 846 579 Q 833 598 805 614 Q 780 629 767 626 Q 754 625 758 611 Q 761 592 745 572 Z" fill="lightgray" class="hide"/>
    <path d="M 625 411 Q 626 429 628 446 Q 643 690 663 741 Q 670 756 659 768 Q 637 787 595 799 Q 568 806 560 798 Q 550 791 558 778 Q 613 690 570 363 Q 546 260 498 198 Q 465 164 413 128 Q 400 119 400 115 Q 401 111 414 111 Q 427 107 459 121 Q 568 160 605 297 Q 614 330 620 368 L 625 411 Z" fill="lightgray" class="hide"/>
    <path d="M 620 368 Q 687 239 778 100 Q 794 76 828 74 Q 940 64 975 67 Q 985 68 989 73 Q 989 79 976 88 Q 844 155 793 207 Q 717 288 631 403 Q 628 407 625 411 C 607 435 606 395 620 368 Z" fill="lightgray" class="hide"/></g><g transform="scale(1, -1) translate(0, -900)">
    <style type="text/css">
        .origin {display:none;}
        .hide {display:none;}
        .stroke {fill: #000000;}
        
.step1 {transform: translateX(1024px);}
.step2 {transform: translateX(2048px);}
.step3 {transform: translateX(3072px);}
.step4 {transform: translateX(4096px);}
.step5 {transform: translateX(5120px);}
.step6 {transform: translateX(6144px);}
.step7 {transform: translateX(7168px);}
.step8 {transform: translateX(8192px);}
.step9 {transform: translateX(9216px);}
.step10 {transform: translateX(10240px);}
.step11 {transform: translateX(11264px);}
.step12 {transform: translateX(12288px);}
.step13 {transform: translateX(13312px);}
.step14 {transform: translateX(14336px);}
.step15 {transform: translateX(15360px);}
.step16 {transform: translateX(16384px);}
.step17 {transform: translateX(17408px);}
.step18 {transform: translateX(18432px);}
.step19 {transform: translateX(19456px);}
.step20 {transform: translateX(20480px);}
.step21 {transform: translateX(21504px);}
.step22 {transform: translateX(22528px);}
.step23 {transform: translateX(23552px);}
.step24 {transform: translateX(24576px);}
.step25 {transform: translateX(25600px);}
.step26 {transform: translateX(26624px);}
.step27 {transform: translateX(27648px);}
.step28 {transform: translateX(28672px);}
.step29 {transform: translateX(29696px);}
    </style>

    <path d="M 361 693 Q 380 699 401 702 Q 447 712 455 719 Q 464 726 459 736 Q 452 748 422 756 Q 400 760 288 728 Q 195 706 114 698 Q 77 692 103 674 Q 119 665 142 660 Q 146 660 151 658 C 177 652 177 652 201 661 Q 201 662 203 663 Q 264 676 329 687 L 361 693 Z" fill="lightgray" class="stroke step2"/>
    <path d="M 151 658 Q 172 622 172 577 Q 173 540 171 216 C 171 186 215 202 215 232 Q 216 298 218 358 L 219 393 Q 220 448 222 500 L 222 535 Q 223 556 224 575 Q 227 636 224 641 Q 214 651 201 661 C 178 680 137 685 151 658 Z" fill="lightgray" class="stroke step2"/>
    <path d="M 389 298 Q 390 428 390 568 Q 389 647 392 658 Q 395 670 386 677 Q 377 684 361 693 C 335 709 322 716 329 687 Q 347 651 339 278 L 337 241 Q 328 46 339 22 Q 343 13 351 3 Q 364 -12 373 6 Q 400 58 393 103 Q 390 142 389 265 L 389 298 Z" fill="lightgray" class="stroke step2"/>
    <path d="M 222 500 Q 268 510 305 516 Q 327 522 318 533 Q 306 546 282 548 Q 260 549 222 535 C 194 525 193 494 222 500 Z" fill="lightgray" class="hide"/>
    <path d="M 218 358 Q 267 368 305 374 Q 327 381 318 393 Q 306 406 280 408 Q 256 409 219 393 C 191 381 189 352 218 358 Z" fill="lightgray" class="hide"/>
    <path d="M 389 265 Q 456 296 458 316 Q 452 322 440 318 Q 415 309 389 298 L 339 278 Q 278 256 215 232 L 171 216 Q 83 189 56 187 Q 43 186 41 175 Q 40 162 50 154 Q 72 138 107 122 Q 117 119 128 128 Q 173 164 337 241 L 389 265 Z" fill="lightgray" class="hide"/>
    <path d="M 449 492 Q 468 417 488 393 Q 498 384 512 391 Q 522 398 528 413 Q 535 458 477 517 Q 465 529 456 530 Q 450 531 447 520 Q 443 510 449 492 Z" fill="lightgray" class="hide"/>
    <path d="M 745 572 Q 733 551 687 491 Q 677 473 694 477 Q 727 492 788 524 Q 807 540 834 550 Q 856 560 846 579 Q 833 598 805 614 Q 780 629 767 626 Q 754 625 758 611 Q 761 592 745 572 Z" fill="lightgray" class="hide"/>
    <path d="M 625 411 Q 626 429 628 446 Q 643 690 663 741 Q 670 756 659 768 Q 637 787 595 799 Q 568 806 560 798 Q 550 791 558 778 Q 613 690 570 363 Q 546 260 498 198 Q 465 164 413 128 Q 400 119 400 115 Q 401 111 414 111 Q 427 107 459 121 Q 568 160 605 297 Q 614 330 620 368 L 625 411 Z" fill="lightgray" class="hide"/>
    <path d="M 620 368 Q 687 239 778 100 Q 794 76 828 74 Q 940 64 975 67 Q 985 68 989 73 Q 989 79 976 88 Q 844 155 793 207 Q 717 288 631 403 Q 628 407 625 411 C 607 435 606 395 620 368 Z" fill="lightgray" class="hide"/></g><g transform="scale(1, -1) translate(0, -900)">
    <style type="text/css">
        .origin {display:none;}
        .hide {display:none;}
        .stroke {fill: #000000;}
        
.step1 {transform: translateX(1024px);}
.step2 {transform: translateX(2048px);}
.step3 {transform: translateX(3072px);}
.step4 {transform: translateX(4096px);}
.step5 {transform: translateX(5120px);}
.step6 {transform: translateX(6144px);}
.step7 {transform: translateX(7168px);}
.step8 {transform: translateX(8192px);}
.step9 {transform: translateX(9216px);}
.step10 {transform: translateX(10240px);}
.step11 {transform: translateX(11264px);}
.step12 {transform: translateX(12288px);}
.step13 {transform: translateX(13312px);}
.step14 {transform: translateX(14336px);}
.step15 {transform: translateX(15360px);}
.step16 {transform: translateX(16384px);}
.step17 {transform: translateX(17408px);}
.step18 {transform: translateX(18432px);}
.step19 {transform: translateX(19456px);}
.step20 {transform: translateX(20480px);}
.step21 {transform: translateX(21504px);}
.step22 {transform: translateX(22528px);}
.step23 {transform: translateX(23552px);}
.step24 {transform: translateX(24576px);}
.step25 {transform: translateX(25600px);}
.step26 {transform: translateX(26624px);}
.step27 {transform: translateX(27648px);}
.step28 {transform: translateX(28672px);}
.step29 {transform: translateX(29696px);}
    </style>

    <path d="M 361 693 Q 380 699 401 702 Q 447 712 455 719 Q 464 726 459 736 Q 452 748 422 756 Q 400 760 288 728 Q 195 706 114 698 Q 77 692 103 674 Q 119 665 142 660 Q 146 660 151 658 C 177 652 177 652 201 661 Q 201 662 203 663 Q 264 676 329 687 L 361 693 Z" fill="lightgray" class="stroke step3"/>
    <path d="M 151 658 Q 172 622 172 577 Q 173 540 171 216 C 171 186 215 202 215 232 Q 216 298 218 358 L 219 393 Q 220 448 222 500 L 222 535 Q 223 556 224 575 Q 227 636 224 641 Q 214 651 201 661 C 178 680 137 685 151 658 Z" fill="lightgray" class="stroke step3"/>
    <path d="M 389 298 Q 390 428 390 568 Q 389 647 392 658 Q 395 670 386 677 Q 377 684 361 693 C 335 709 322 716 329 687 Q 347 651 339 278 L 337 241 Q 328 46 339 22 Q 343 13 351 3 Q 364 -12 373 6 Q 400 58 393 103 Q 390 142 389 265 L 389 298 Z" fill="lightgray" class="stroke step3"/>
    <path d="M 222 500 Q 268 510 305 516 Q 327 522 318 533 Q 306 546 282 548 Q 260 549 222 535 C 194 525 193 494 222 500 Z" fill="lightgray" class="stroke step3"/>
    <path d="M 218 358 Q 267 368 305 374 Q 327 381 318 393 Q 306 406 280 408 Q 256 409 219 393 C 191 381 189 352 218 358 Z" fill="lightgray" class="hide"/>
    <path d="M 389 265 Q 456 296 458 316 Q 452 322 440 318 Q 415 309 389 298 L 339 278 Q 278 256 215 232 L 171 216 Q 83 189 56 187 Q 43 186 41 175 Q 40 162 50 154 Q 72 138 107 122 Q 117 119 128 128 Q 173 164 337 241 L 389 265 Z" fill="lightgray" class="hide"/>
    <path d="M 449 492 Q 468 417 488 393 Q 498 384 512 391 Q 522 398 528 413 Q 535 458 477 517 Q 465 529 456 530 Q 450 531 447 520 Q 443 510 449 492 Z" fill="lightgray" class="hide"/>
    <path d="M 745 572 Q 733 551 687 491 Q 677 473 694 477 Q 727 492 788 524 Q 807 540 834 550 Q 856 560 846 579 Q 833 598 805 614 Q 780 629 767 626 Q 754 625 758 611 Q 761 592 745 572 Z" fill="lightgray" class="hide"/>
    <path d="M 625 411 Q 626 429 628 446 Q 643 690 663 741 Q 670 756 659 768 Q 637 787 595 799 Q 568 806 560 798 Q 550 791 558 778 Q 613 690 570 363 Q 546 260 498 198 Q 465 164 413 128 Q 400 119 400 115 Q 401 111 414 111 Q 427 107 459 121 Q 568 160 605 297 Q 614 330 620 368 L 625 411 Z" fill="lightgray" class="hide"/>
    <path d="M 620 368 Q 687 239 778 100 Q 794 76 828 74 Q 940 64 975 67 Q 985 68 989 73 Q 989 79 976 88 Q 844 155 793 207 Q 717 288 631 403 Q 628 407 625 411 C 607 435 606 395 620 368 Z" fill="lightgray" class="hide"/></g><g transform="scale(1, -1) translate(0, -900)">
    <style type="text/css">
        .origin {display:none;}
        .hide {display:none;}
        .stroke {fill: #000000;}
        
.step1 {transform: translateX(1024px);}
.step2 {transform: translateX(2048px);}
.step3 {transform: translateX(3072px);}
.step4 {transform: translateX(4096px);}
.step5 {transform: translateX(5120px);}
.step6 {transform: translateX(6144px);}
.step7 {transform: translateX(7168px);}
.step8 {transform: translateX(8192px);}
.step9 {transform: translateX(9216px);}
.step10 {transform: translateX(10240px);}
.step11 {transform: translateX(11264px);}
.step12 {transform: translateX(12288px);}
.step13 {transform: translateX(13312px);}
.step14 {transform: translateX(14336px);}
.step15 {transform: translateX(15360px);}
.step16 {transform: translateX(16384px);}
.step17 {transform: translateX(17408px);}
.step18 {transform: translateX(18432px);}
.step19 {transform: translateX(19456px);}
.step20 {transform: translateX(20480px);}
.step21 {transform: translateX(21504px);}
.step22 {transform: translateX(22528px);}
.step23 {transform: translateX(23552px);}
.step24 {transform: translateX(24576px);}
.step25 {transform: translateX(25600px);}
.step26 {transform: translateX(26624px);}
.step27 {transform: translateX(27648px);}
.step28 {transform: translateX(28672px);}
.step29 {transform: translateX(29696px);}
    </style>

    <path d="M 361 693 Q 380 699 401 702 Q 447 712 455 719 Q 464 726 459 736 Q 452 748 422 756 Q 400 760 288 728 Q 195 706 114 698 Q 77 692 103 674 Q 119 665 142 660 Q 146 660 151 658 C 177 652 177 652 201 661 Q 201 662 203 663 Q 264 676 329 687 L 361 693 Z" fill="lightgray" class="stroke step4"/>
    <path d="M 151 658 Q 172 622 172 577 Q 173 540 171 216 C 171 186 215 202 215 232 Q 216 298 218 358 L 219 393 Q 220 448 222 500 L 222 535 Q 223 556 224 575 Q 227 636 224 641 Q 214 651 201 661 C 178 680 137 685 151 658 Z" fill="lightgray" class="stroke step4"/>
    <path d="M 389 298 Q 390 428 390 568 Q 389 647 392 658 Q 395 670 386 677 Q 377 684 361 693 C 335 709 322 716 329 687 Q 347 651 339 278 L 337 241 Q 328 46 339 22 Q 343 13 351 3 Q 364 -12 373 6 Q 400 58 393 103 Q 390 142 389 265 L 389 298 Z" fill="lightgray" class="stroke step4"/>
    <path d="M 222 500 Q 268 510 305 516 Q 327 522 318 533 Q 306 546 282 548 Q 260 549 222 535 C 194 525 193 494 222 500 Z" fill="lightgray" class="stroke step4"/>
    <path d="M 218 358 Q 267 368 305 374 Q 327 381 318 393 Q 306 406 280 408 Q 256 409 219 393 C 191 381 189 352 218 358 Z" fill="lightgray" class="stroke step4"/>
    <path d="M 389 265 Q 456 296 458 316 Q 452 322 440 318 Q 415 309 389 298 L 339 278 Q 278 256 215 232 L 171 216 Q 83 189 56 187 Q 43 186 41 175 Q 40 162 50 154 Q 72 138 107 122 Q 117 119 128 128 Q 173 164 337 241 L 389 265 Z" fill="lightgray" class="hide"/>
    <path d="M 449 492 Q 468 417 488 393 Q 498 384 512 391 Q 522 398 528 413 Q 535 458 477 517 Q 465 529 456 530 Q 450 531 447 520 Q 443 510 449 492 Z" fill="lightgray" class="hide"/>
    <path d="M 745 572 Q 733 551 687 491 Q 677 473 694 477 Q 727 492 788 524 Q 807 540 834 550 Q 856 560 846 579 Q 833 598 805 614 Q 780 629 767 626 Q 754 625 758 611 Q 761 592 745 572 Z" fill="lightgray" class="hide"/>
    <path d="M 625 411 Q 626 429 628 446 Q 643 690 663 741 Q 670 756 659 768 Q 637 787 595 799 Q 568 806 560 798 Q 550 791 558 778 Q 613 690 570 363 Q 546 260 498 198 Q 465 164 413 128 Q 400 119 400 115 Q 401 111 414 111 Q 427 107 459 121 Q 568 160 605 297 Q 614 330 620 368 L 625 411 Z" fill="lightgray" class="hide"/>
    <path d="M 620 368 Q 687 239 778 100 Q 794 76 828 74 Q 940 64 975 67 Q 985 68 989 73 Q 989 79 976 88 Q 844 155 793 207 Q 717 288 631 403 Q 628 407 625 411 C 607 435 606 395 620 368 Z" fill="lightgray" class="hide"/></g><g transform="scale(1, -1) translate(0, -900)">
    <style type="text/css">
        .origin {display:none;}
        .hide {display:none;}
        .stroke {fill: #000000;}
        
.step1 {transform: translateX(1024px);}
.step2 {transform: translateX(2048px);}
.step3 {transform: translateX(3072px);}
.step4 {transform: translateX(4096px);}
.step5 {transform: translateX(5120px);}
.step6 {transform: translateX(6144px);}
.step7 {transform: translateX(7168px);}
.step8 {transform: translateX(8192px);}
.step9 {transform: translateX(9216px);}
.step10 {transform: translateX(10240px);}
.step11 {transform: translateX(11264px);}
.step12 {transform: translateX(12288px);}
.step13 {transform: translateX(13312px);}
.step14 {transform: translateX(14336px);}
.step15 {transform: translateX(15360px);}
.step16 {transform: translateX(16384px);}
.step17 {transform: translateX(17408px);}
.step18 {transform: translateX(18432px);}
.step19 {transform: translateX(19456px);}
.step20 {transform: translateX(20480px);}
.step21 {transform: translateX(21504px);}
.step22 {transform: translateX(22528px);}
.step23 {transform: translateX(23552px);}
.step24 {transform: translateX(24576px);}
.step25 {transform: translateX(25600px);}
.step26 {transform: translateX(26624px);}
.step27 {transform: translateX(27648px);}
.step28 {transform: translateX(28672px);}
.step29 {transform: translateX(29696px);}
    </style>

    <path d="M 361 693 Q 380 699 401 702 Q 447 712 455 719 Q 464 726 459 736 Q 452 748 422 756 Q 400 760 288 728 Q 195 706 114 698 Q 77 692 103 674 Q 119 665 142 660 Q 146 660 151 658 C 177 652 177 652 201 661 Q 201 662 203 663 Q 264 676 329 687 L 361 693 Z" fill="lightgray" class="stroke step5"/>
    <path d="M 151 658 Q 172 622 172 577 Q 173 540 171 216 C 171 186 215 202 215 232 Q 216 298 218 358 L 219 393 Q 220 448 222 500 L 222 535 Q 223 556 224 575 Q 227 636 224 641 Q 214 651 201 661 C 178 680 137 685 151 658 Z" fill="lightgray" class="stroke step5"/>
    <path d="M 389 298 Q 390 428 390 568 Q 389 647 392 658 Q 395 670 386 677 Q 377 684 361 693 C 335 709 322 716 329 687 Q 347 651 339 278 L 337 241 Q 328 46 339 22 Q 343 13 351 3 Q 364 -12 373 6 Q 400 58 393 103 Q 390 142 389 265 L 389 298 Z" fill="lightgray" class="stroke step5"/>
    <path d="M 222 500 Q 268 510 305 516 Q 327 522 318 533 Q 306 546 282 548 Q 260 549 222 535 C 194 525 193 494 222 500 Z" fill="lightgray" class="stroke step5"/>
    <path d="M 218 358 Q 267 368 305 374 Q 327 381 318 393 Q 306 406 280 408 Q 256 409 219 393 C 191 381 189 352 218 358 Z" fill="lightgray" class="stroke step5"/>
    <path d="M 389 265 Q 456 296 458 316 Q 452 322 440 318 Q 415 309 389 298 L 339 278 Q 278 256 215 232 L 171 216 Q 83 189 56 187 Q 43 186 41 175 Q 40 162 50 154 Q 72 138 107 122 Q 117 119 128 128 Q 173 164 337 241 L 389 265 Z" fill="lightgray" class="stroke step5"/>
    <path d="M 449 492 Q 468 417 488 393 Q 498 384 512 391 Q 522 398 528 413 Q 535 458 477 517 Q 465 529 456 530 Q 450 531 447 520 Q 443 510 449 492 Z" fill="lightgray" class="hide"/>
    <path d="M 745 572 Q 733 551 687 491 Q 677 473 694 477 Q 727 492 788 524 Q 807 540 834 550 Q 856 560 846 579 Q 833 598 805 614 Q 780 629 767 626 Q 754 625 758 611 Q 761 592 745 572 Z" fill="lightgray" class="hide"/>
    <path d="M 625 411 Q 626 429 628 446 Q 643 690 663 741 Q 670 756 659 768 Q 637 787 595 799 Q 568 806 560 798 Q 550 791 558 778 Q 613 690 570 363 Q 546 260 498 198 Q 465 164 413 128 Q 400 119 400 115 Q 401 111 414 111 Q 427 107 459 121 Q 568 160 605 297 Q 614 330 620 368 L 625 411 Z" fill="lightgray" class="hide"/>
    <path d="M 620 368 Q 687 239 778 100 Q 794 76 828 74 Q 940 64 975 67 Q 985 68 989 73 Q 989 79 976 88 Q 844 155 793 207 Q 717 288 631 403 Q 628 407 625 411 C 607 435 606 395 620 368 Z" fill="lightgray" class="hide"/></g><g transform="scale(1, -1) translate(0, -900)">
    <style type="text/css">
        .origin {display:none;}
        .hide {display:none;}
        .stroke {fill: #000000;}
        
.step1 {transform: translateX(1024px);}
.step2 {transform: translateX(2048px);}
.step3 {transform: translateX(3072px);}
.step4 {transform: translateX(4096px);}
.step5 {transform: translateX(5120px);}
.step6 {transform: translateX(6144px);}
.step7 {transform: translateX(7168px);}
.step8 {transform: translateX(8192px);}
.step9 {transform: translateX(9216px);}
.step10 {transform: translateX(10240px);}
.step11 {transform: translateX(11264px);}
.step12 {transform: translateX(12288px);}
.step13 {transform: translateX(13312px);}
.step14 {transform: translateX(14336px);}
.step15 {transform: translateX(15360px);}
.step16 {transform: translateX(16384px);}
.step17 {transform: translateX(17408px);}
.step18 {transform: translateX(18432px);}
.step19 {transform: translateX(19456px);}
.step20 {transform: translateX(20480px);}
.step21 {transform: translateX(21504px);}
.step22 {transform: translateX(22528px);}
.step23 {transform: translateX(23552px);}
.step24 {transform: translateX(24576px);}
.step25 {transform: translateX(25600px);}
.step26 {transform: translateX(26624px);}
.step27 {transform: translateX(27648px);}
.step28 {transform: translateX(28672px);}
.step29 {transform: translateX(29696px);}
    </style>

    <path d="M 361 693 Q 380 699 401 702 Q 447 712 455 719 Q 464 726 459 736 Q 452 748 422 756 Q 400 760 288 728 Q 195 706 114 698 Q 77 692 103 674 Q 119 665 142 660 Q 146 660 151 658 C 177 652 177 652 201 661 Q 201 662 203 663 Q 264 676 329 687 L 361 693 Z" fill="lightgray" class="stroke step6"/>
    <path d="M 151 658 Q 172 622 172 577 Q 173 540 171 216 C 171 186 215 202 215 232 Q 216 298 218 358 L 219 393 Q 220 448 222 500 L 222 535 Q 223 556 224 575 Q 227 636 224 641 Q 214 651 201 661 C 178 680 137 685 151 658 Z" fill="lightgray" class="stroke step6"/>
    <path d="M 389 298 Q 390 428 390 568 Q 389 647 392 658 Q 395 670 386 677 Q 377 684 361 693 C 335 709 322 716 329 687 Q 347 651 339 278 L 337 241 Q 328 46 339 22 Q 343 13 351 3 Q 364 -12 373 6 Q 400 58 393 103 Q 390 142 389 265 L 389 298 Z" fill="lightgray" class="stroke step6"/>
    <path d="M 222 500 Q 268 510 305 516 Q 327 522 318 533 Q 306 546 282 548 Q 260 549 222 535 C 194 525 193 494 222 500 Z" fill="lightgray" class="stroke step6"/>
    <path d="M 218 358 Q 267 368 305 374 Q 327 381 318 393 Q 306 406 280 408 Q 256 409 219 393 C 191 381 189 352 218 358 Z" fill="lightgray" class="stroke step6"/>
    <path d="M 389 265 Q 456 296 458 316 Q 452 322 440 318 Q 415 309 389 298 L 339 278 Q 278 256 215 232 L 171 216 Q 83 189 56 187 Q 43 186 41 175 Q 40 162 50 154 Q 72 138 107 122 Q 117 119 128 128 Q 173 164 337 241 L 389 265 Z" fill="lightgray" class="stroke step6"/>
    <path d="M 449 492 Q 468 417 488 393 Q 498 384 512 391 Q 522 398 528 413 Q 535 458 477 517 Q 465 529 456 530 Q 450 531 447 520 Q 443 510 449 492 Z" fill="lightgray" class="stroke step6"/>
    <path d="M 745 572 Q 733 551 687 491 Q 677 473 694 477 Q 727 492 788 524 Q 807 540 834 550 Q 856 560 846 579 Q 833 598 805 614 Q 780 629 767 626 Q 754 625 758 611 Q 761 592 745 572 Z" fill="lightgray" class="hide"/>
    <path d="M 625 411 Q 626 429 628 446 Q 643 690 663 741 Q 670 756 659 768 Q 637 787 595 799 Q 568 806 560 798 Q 550 791 558 778 Q 613 690 570 363 Q 546 260 498 198 Q 465 164 413 128 Q 400 119 400 115 Q 401 111 414 111 Q 427 107 459 121 Q 568 160 605 297 Q 614 330 620 368 L 625 411 Z" fill="lightgray" class="hide"/>
    <path d="M 620 368 Q 687 239 778 100 Q 794 76 828 74 Q 940 64 975 67 Q 985 68 989 73 Q 989 79 976 88 Q 844 155 793 207 Q 717 288 631 403 Q 628 407 625 411 C 607 435 606 395 620 368 Z" fill="lightgray" class="hide"/></g><g transform="scale(1, -1) translate(0, -900)">
    <style type="text/css">
        .origin {display:none;}
        .hide {display:none;}
        .stroke {fill: #000000;}
        
.step1 {transform: translateX(1024px);}
.step2 {transform: translateX(2048px);}
.step3 {transform: translateX(3072px);}
.step4 {transform: translateX(4096px);}
.step5 {transform: translateX(5120px);}
.step6 {transform: translateX(6144px);}
.step7 {transform: translateX(7168px);}
.step8 {transform: translateX(8192px);}
.step9 {transform: translateX(9216px);}
.step10 {transform: translateX(10240px);}
.step11 {transform: translateX(11264px);}
.step12 {transform: translateX(12288px);}
.step13 {transform: translateX(13312px);}
.step14 {transform: translateX(14336px);}
.step15 {transform: translateX(15360px);}
.step16 {transform: translateX(16384px);}
.step17 {transform: translateX(17408px);}
.step18 {transform: translateX(18432px);}
.step19 {transform: translateX(19456px);}
.step20 {transform: translateX(20480px);}
.step21 {transform: translateX(21504px);}
.step22 {transform: translateX(22528px);}
.step23 {transform: translateX(23552px);}
.step24 {transform: translateX(24576px);}
.step25 {transform: translateX(25600px);}
.step26 {transform: translateX(26624px);}
.step27 {transform: translateX(27648px);}
.step28 {transform: translateX(28672px);}
.step29 {transform: translateX(29696px);}
    </style>

    <path d="M 361 693 Q 380 699 401 702 Q 447 712 455 719 Q 464 726 459 736 Q 452 748 422 756 Q 400 760 288 728 Q 195 706 114 698 Q 77 692 103 674 Q 119 665 142 660 Q 146 660 151 658 C 177 652 177 652 201 661 Q 201 662 203 663 Q 264 676 329 687 L 361 693 Z" fill="lightgray" class="stroke step7"/>
    <path d="M 151 658 Q 172 622 172 577 Q 173 540 171 216 C 171 186 215 202 215 232 Q 216 298 218 358 L 219 393 Q 220 448 222 500 L 222 535 Q 223 556 224 575 Q 227 636 224 641 Q 214 651 201 661 C 178 680 137 685 151 658 Z" fill="lightgray" class="stroke step7"/>
    <path d="M 389 298 Q 390 428 390 568 Q 389 647 392 658 Q 395 670 386 677 Q 377 684 361 693 C 335 709 322 716 329 687 Q 347 651 339 278 L 337 241 Q 328 46 339 22 Q 343 13 351 3 Q 364 -12 373 6 Q 400 58 393 103 Q 390 142 389 265 L 389 298 Z" fill="lightgray" class="stroke step7"/>
    <path d="M 222 500 Q 268 510 305 516 Q 327 522 318 533 Q 306 546 282 548 Q 260 549 222 535 C 194 525 193 494 222 500 Z" fill="lightgray" class="stroke step7"/>
    <path d="M 218 358 Q 267 368 305 374 Q 327 381 318 393 Q 306 406 280 408 Q 256 409 219 393 C 191 381 189 352 218 358 Z" fill="lightgray" class="stroke step7"/>
    <path d="M 389 265 Q 456 296 458 316 Q 452 322 440 318 Q 415 309 389 298 L 339 278 Q 278 256 215 232 L 171 216 Q 83 189 56 187 Q 43 186 41 175 Q 40 162 50 154 Q 72 138 107 122 Q 117 119 128 128 Q 173 164 337 241 L 389 265 Z" fill="lightgray" class="stroke step7"/>
    <path d="M 449 492 Q 468 417 488 393 Q 498 384 512 391 Q 522 398 528 413 Q 535 458 477 517 Q 465 529 456 530 Q 450 531 447 520 Q 443 510 449 492 Z" fill="lightgray" class="stroke step7"/>
    <path d="M 745 572 Q 733 551 687 491 Q 677 473 694 477 Q 727 492 788 524 Q 807 540 834 550 Q 856 560 846 579 Q 833 598 805 614 Q 780 629 767 626 Q 754 625 758 611 Q 761 592 745 572 Z" fill="lightgray" class="stroke step7"/>
    <path d="M 625 411 Q 626 429 628 446 Q 643 690 663 741 Q 670 756 659 768 Q 637 787 595 799 Q 568 806 560 798 Q 550 791 558 778 Q 613 690 570 363 Q 546 260 498 198 Q 465 164 413 128 Q 400 119 400 115 Q 401 111 414 111 Q 427 107 459 121 Q 568 160 605 297 Q 614 330 620 368 L 625 411 Z" fill="lightgray" class="hide"/>
    <path d="M 620 368 Q 687 239 778 100 Q 794 76 828 74 Q 940 64 975 67 Q 985 68 989 73 Q 989 79 976 88 Q 844 155 793 207 Q 717 288 631 403 Q 628 407 625 411 C 607 435 606 395 620 368 Z" fill="lightgray" class="hide"/></g><g transform="scale(1, -1) translate(0, -900)">
    <style type="text/css">
        .origin {display:none;}
        .hide {display:none;}
        .stroke {fill: #000000;}
        
.step1 {transform: translateX(1024px);}
.step2 {transform: translateX(2048px);}
.step3 {transform: translateX(3072px);}
.step4 {transform: translateX(4096px);}
.step5 {transform: translateX(5120px);}
.step6 {transform: translateX(6144px);}
.step7 {transform: translateX(7168px);}
.step8 {transform: translateX(8192px);}
.step9 {transform: translateX(9216px);}
.step10 {transform: translateX(10240px);}
.step11 {transform: translateX(11264px);}
.step12 {transform: translateX(12288px);}
.step13 {transform: translateX(13312px);}
.step14 {transform: translateX(14336px);}
.step15 {transform: translateX(15360px);}
.step16 {transform: translateX(16384px);}
.step17 {transform: translateX(17408px);}
.step18 {transform: translateX(18432px);}
.step19 {transform: translateX(19456px);}
.step20 {transform: translateX(20480px);}
.step21 {transform: translateX(21504px);}
.step22 {transform: translateX(22528px);}
.step23 {transform: translateX(23552px);}
.step24 {transform: translateX(24576px);}
.step25 {transform: translateX(25600px);}
.step26 {transform: translateX(26624px);}
.step27 {transform: translateX(27648px);}
.step28 {transform: translateX(28672px);}
.step29 {transform: translateX(29696px);}
    </style>

    <path d="M 361 693 Q 380 699 401 702 Q 447 712 455 719 Q 464 726 459 736 Q 452 748 422 756 Q 400 760 288 728 Q 195 706 114 698 Q 77 692 103 674 Q 119 665 142 660 Q 146 660 151 658 C 177 652 177 652 201 661 Q 201 662 203 663 Q 264 676 329 687 L 361 693 Z" fill="lightgray" class="stroke step8"/>
    <path d="M 151 658 Q 172 622 172 577 Q 173 540 171 216 C 171 186 215 202 215 232 Q 216 298 218 358 L 219 393 Q 220 448 222 500 L 222 535 Q 223 556 224 575 Q 227 636 224 641 Q 214 651 201 661 C 178 680 137 685 151 658 Z" fill="lightgray" class="stroke step8"/>
    <path d="M 389 298 Q 390 428 390 568 Q 389 647 392 658 Q 395 670 386 677 Q 377 684 361 693 C 335 709 322 716 329 687 Q 347 651 339 278 L 337 241 Q 328 46 339 22 Q 343 13 351 3 Q 364 -12 373 6 Q 400 58 393 103 Q 390 142 389 265 L 389 298 Z" fill="lightgray" class="stroke step8"/>
    <path d="M 222 500 Q 268 510 305 516 Q 327 522 318 533 Q 306 546 282 548 Q 260 549 222 535 C 194 525 193 494 222 500 Z" fill="lightgray" class="stroke step8"/>
    <path d="M 218 358 Q 267 368 305 374 Q 327 381 318 393 Q 306 406 280 408 Q 256 409 219 393 C 191 381 189 352 218 358 Z" fill="lightgray" class="stroke step8"/>
    <path d="M 389 265 Q 456 296 458 316 Q 452 322 440 318 Q 415 309 389 298 L 339 278 Q 278 256 215 232 L 171 216 Q 83 189 56 187 Q 43 186 41 175 Q 40 162 50 154 Q 72 138 107 122 Q 117 119 128 128 Q 173 164 337 241 L 389 265 Z" fill="lightgray" class="stroke step8"/>
    <path d="M 449 492 Q 468 417 488 393 Q 498 384 512 391 Q 522 398 528 413 Q 535 458 477 517 Q 465 529 456 530 Q 450 531 447 520 Q 443 510 449 492 Z" fill="lightgray" class="stroke step8"/>
    <path d="M 745 572 Q 733 551 687 491 Q 677 473 694 477 Q 727 492 788 524 Q 807 540 834 550 Q 856 560 846 579 Q 833 598 805 614 Q 780 629 767 626 Q 754 625 758 611 Q 761 592 745 572 Z" fill="lightgray" class="stroke step8"/>
    <path d="M 625 411 Q 626 429 628 446 Q 643 690 663 741 Q 670 756 659 768 Q 637 787 595 799 Q 568 806 560 798 Q 550 791 558 778 Q 613 690 570 363 Q 546 260 498 198 Q 465 164 413 128 Q 400 119 400 115 Q 401 111 414 111 Q 427 107 459 121 Q 568 160 605 297 Q 614 330 620 368 L 625 411 Z" fill="lightgray" class="stroke step8"/>
    <path d="M 620 368 Q 687 239 778 100 Q 794 76 828 74 Q 940 64 975 67 Q 985 68 989 73 Q 989 79 976 88 Q 844 155 793 207 Q 717 288 631 403 Q 628 407 625 411 C 607 435 606 395 620 368 Z" fill="lightgray" class="hide"/></g><g transform="scale(1, -1) translate(0, -900)">
    <style type="text/css">
        .origin {display:none;}
        .hide {display:none;}
        .stroke {fill: #000000;}
        
.step1 {transform: translateX(1024px);}
.step2 {transform: translateX(2048px);}
.step3 {transform: translateX(3072px);}
.step4 {transform: translateX(4096px);}
.step5 {transform: translateX(5120px);}
.step6 {transform: translateX(6144px);}
.step7 {transform: translateX(7168px);}
.step8 {transform: translateX(8192px);}
.step9 {transform: translateX(9216px);}
.step10 {transform: translateX(10240px);}
.step11 {transform: translateX(11264px);}
.step12 {transform: translateX(12288px);}
.step13 {transform: translateX(13312px);}
.step14 {transform: translateX(14336px);}
.step15 {transform: translateX(15360px);}
.step16 {transform: translateX(16384px);}
.step17 {transform: translateX(17408px);}
.step18 {transform: translateX(18432px);}
.step19 {transform: translateX(19456px);}
.step20 {transform: translateX(20480px);}
.step21 {transform: translateX(21504px);}
.step22 {transform: translateX(22528px);}
.step23 {transform: translateX(23552px);}
.step24 {transform: translateX(24576px);}
.step25 {transform: translateX(25600px);}
.step26 {transform: translateX(26624px);}
.step27 {transform: translateX(27648px);}
.step28 {transform: translateX(28672px);}
.step29 {transform: translateX(29696px);}
    </style>

    <path d="M 361 693 Q 380 699 401 702 Q 447 712 455 719 Q 464 726 459 736 Q 452 748 422 756 Q 400 760 288 728 Q 195 706 114 698 Q 77 692 103 674 Q 119 665 142 660 Q 146 660 151 658 C 177 652 177 652 201 661 Q 201 662 203 663 Q 264 676 329 687 L 361 693 Z" fill="lightgray" class="stroke step9"/>
    <path d="M 151 658 Q 172 622 172 577 Q 173 540 171 216 C 171 186 215 202 215 232 Q 216 298 218 358 L 219 393 Q 220 448 222 500 L 222 535 Q 223 556 224 575 Q 227 636 224 641 Q 214 651 201 661 C 178 680 137 685 151 658 Z" fill="lightgray" class="stroke step9"/>
    <path d="M 389 298 Q 390 428 390 568 Q 389 647 392 658 Q 395 670 386 677 Q 377 684 361 693 C 335 709 322 716 329 687 Q 347 651 339 278 L 337 241 Q 328 46 339 22 Q 343 13 351 3 Q 364 -12 373 6 Q 400 58 393 103 Q 390 142 389 265 L 389 298 Z" fill="lightgray" class="stroke step9"/>
    <path d="M 222 500 Q 268 510 305 516 Q 327 522 318 533 Q 306 546 282 548 Q 260 549 222 535 C 194 525 193 494 222 500 Z" fill="lightgray" class="stroke step9"/>
    <path d="M 218 358 Q 267 368 305 374 Q 327 381 318 393 Q 306 406 280 408 Q 256 409 219 393 C 191 381 189 352 218 358 Z" fill="lightgray" class="stroke step9"/>
    <path d="M 389 265 Q 456 296 458 316 Q 452 322 440 318 Q 415 309 389 298 L 339 278 Q 278 256 215 232 L 171 216 Q 83 189 56 187 Q 43 186 41 175 Q 40 162 50 154 Q 72 138 107 122 Q 117 119 128 128 Q 173 164 337 241 L 389 265 Z" fill="lightgray" class="stroke step9"/>
    <path d="M 449 492 Q 468 417 488 393 Q 498 384 512 391 Q 522 398 528 413 Q 535 458 477 517 Q 465 529 456 530 Q 450 531 447 520 Q 443 510 449 492 Z" fill="lightgray" class="stroke step9"/>
    <path d="M 745 572 Q 733 551 687 491 Q 677 473 694 477 Q 727 492 788 524 Q 807 540 834 550 Q 856 560 846 579 Q 833 598 805 614 Q 780 629 767 626 Q 754 625 758 611 Q 761 592 745 572 Z" fill="lightgray" class="stroke step9"/>
    <path d="M 625 411 Q 626 429 628 446 Q 643 690 663 741 Q 670 756 659 768 Q 637 787 595 799 Q 568 806 560 798 Q 550 791 558 778 Q 613 690 570 363 Q 546 260 498 198 Q 465 164 413 128 Q 400 119 400 115 Q 401 111 414 111 Q 427 107 459 121 Q 568 160 605 297 Q 614 330 620 368 L 625 411 Z" fill="lightgray" class="stroke step9"/>
    <path d="M 620 368 Q 687 239 778 100 Q 794 76 828 74 Q 940 64 975 67 Q 985 68 989 73 Q 989 79 976 88 Q 844 155 793 207 Q 717 288 631 403 Q 628 407 625 411 C 607 435 606 395 620 368 Z" fill="lightgray" class="stroke step9"/></g></svg>