<svg version="1.1" viewBox="0 0 7168 1024" xmlns="http://www.w3.org/2000/svg">
  
  <g transform="scale(1, -1) translate(0, -900)" class="origin">
    <style type="text/css">
        .origin {display:none;}
        .hide {display:none;}
        .stroke {fill: #000000;}
        
.step1 {transform: translateX(1024px);}
.step2 {transform: translateX(2048px);}
.step3 {transform: translateX(3072px);}
.step4 {transform: translateX(4096px);}
.step5 {transform: translateX(5120px);}
.step6 {transform: translateX(6144px);}
.step7 {transform: translateX(7168px);}
.step8 {transform: translateX(8192px);}
.step9 {transform: translateX(9216px);}
.step10 {transform: translateX(10240px);}
.step11 {transform: translateX(11264px);}
.step12 {transform: translateX(12288px);}
.step13 {transform: translateX(13312px);}
.step14 {transform: translateX(14336px);}
.step15 {transform: translateX(15360px);}
.step16 {transform: translateX(16384px);}
.step17 {transform: translateX(17408px);}
.step18 {transform: translateX(18432px);}
.step19 {transform: translateX(19456px);}
.step20 {transform: translateX(20480px);}
.step21 {transform: translateX(21504px);}
.step22 {transform: translateX(22528px);}
.step23 {transform: translateX(23552px);}
.step24 {transform: translateX(24576px);}
.step25 {transform: translateX(25600px);}
.step26 {transform: translateX(26624px);}
.step27 {transform: translateX(27648px);}
.step28 {transform: translateX(28672px);}
.step29 {transform: translateX(29696px);}
    </style>

    <path d="M 370 754 L 368 756 Q 355 763 314 768 Q 301 771 297 765 Q 290 758 301 741 Q 332 681 355 581 Q 359 551 378 532 Q 399 508 403 526 Q 407 538 406 554 L 402 589 Q 384 685 378 720 C 373 750 372 753 370 754 Z" fill="lightgray"/>
    <path d="M 690 605 Q 732 692 769 711 Q 790 730 775 751 Q 759 767 703 801 Q 684 811 659 805 Q 550 769 370 754 C 340 751 348 716 378 720 Q 384 720 630 754 Q 658 760 668 748 Q 680 730 633 620 C 621 592 677 578 690 605 Z" fill="lightgray"/>
    <path d="M 406 554 Q 407 554 410 553 Q 422 549 437 551 Q 519 564 696 570 Q 708 571 710 581 Q 711 588 690 605 C 667 624 663 624 633 620 Q 627 620 625 619 Q 501 595 402 589 C 372 587 377 562 406 554 Z" fill="lightgray"/>
    <path d="M 388 220 Q 392 272 399 311 L 402 339 Q 408 397 413 419 Q 413 422 413 424 L 407 452 Q 386 479 347 480 Q 332 476 337 463 Q 383 343 319 145 Q 292 79 292 77 Q 292 38 310 12 Q 317 -3 328 2 Q 370 32 385 188 L 388 220 Z" fill="lightgray"/>
    <path d="M 413 424 Q 426 424 445 428 Q 626 464 654 451 Q 667 444 667 412 Q 677 225 664 78 Q 663 48 645 43 Q 632 42 567 65 Q 554 69 554 61 Q 554 51 570 40 Q 610 0 640 -39 Q 656 -60 676 -59 Q 694 -55 718 -4 Q 746 48 744 103 Q 737 233 731 351 Q 728 399 749 436 Q 762 452 747 468 Q 728 487 686 503 Q 667 513 616 493 Q 513 469 407 452 C 377 447 383 421 413 424 Z" fill="lightgray"/>
    <path d="M 399 311 Q 405 310 572 328 Q 599 332 589 347 Q 577 363 547 370 Q 508 376 402 339 C 374 329 369 310 399 311 Z" fill="lightgray"/>
    <path d="M 385 188 Q 389 187 402 188 Q 511 201 591 208 Q 619 212 609 227 Q 597 245 568 251 Q 534 257 388 220 C 359 213 355 190 385 188 Z" fill="lightgray"/></g>
<g transform="scale(1, -1) translate(0, -900)">
    <style type="text/css">
        .origin {display:none;}
        .hide {display:none;}
        .stroke {fill: #000000;}
        
.step1 {transform: translateX(1024px);}
.step2 {transform: translateX(2048px);}
.step3 {transform: translateX(3072px);}
.step4 {transform: translateX(4096px);}
.step5 {transform: translateX(5120px);}
.step6 {transform: translateX(6144px);}
.step7 {transform: translateX(7168px);}
.step8 {transform: translateX(8192px);}
.step9 {transform: translateX(9216px);}
.step10 {transform: translateX(10240px);}
.step11 {transform: translateX(11264px);}
.step12 {transform: translateX(12288px);}
.step13 {transform: translateX(13312px);}
.step14 {transform: translateX(14336px);}
.step15 {transform: translateX(15360px);}
.step16 {transform: translateX(16384px);}
.step17 {transform: translateX(17408px);}
.step18 {transform: translateX(18432px);}
.step19 {transform: translateX(19456px);}
.step20 {transform: translateX(20480px);}
.step21 {transform: translateX(21504px);}
.step22 {transform: translateX(22528px);}
.step23 {transform: translateX(23552px);}
.step24 {transform: translateX(24576px);}
.step25 {transform: translateX(25600px);}
.step26 {transform: translateX(26624px);}
.step27 {transform: translateX(27648px);}
.step28 {transform: translateX(28672px);}
.step29 {transform: translateX(29696px);}
    </style>

    <path d="M 370 754 L 368 756 Q 355 763 314 768 Q 301 771 297 765 Q 290 758 301 741 Q 332 681 355 581 Q 359 551 378 532 Q 399 508 403 526 Q 407 538 406 554 L 402 589 Q 384 685 378 720 C 373 750 372 753 370 754 Z" fill="lightgray" class="stroke step0"/>
    <path d="M 690 605 Q 732 692 769 711 Q 790 730 775 751 Q 759 767 703 801 Q 684 811 659 805 Q 550 769 370 754 C 340 751 348 716 378 720 Q 384 720 630 754 Q 658 760 668 748 Q 680 730 633 620 C 621 592 677 578 690 605 Z" fill="lightgray" class="hide"/>
    <path d="M 406 554 Q 407 554 410 553 Q 422 549 437 551 Q 519 564 696 570 Q 708 571 710 581 Q 711 588 690 605 C 667 624 663 624 633 620 Q 627 620 625 619 Q 501 595 402 589 C 372 587 377 562 406 554 Z" fill="lightgray" class="hide"/>
    <path d="M 388 220 Q 392 272 399 311 L 402 339 Q 408 397 413 419 Q 413 422 413 424 L 407 452 Q 386 479 347 480 Q 332 476 337 463 Q 383 343 319 145 Q 292 79 292 77 Q 292 38 310 12 Q 317 -3 328 2 Q 370 32 385 188 L 388 220 Z" fill="lightgray" class="hide"/>
    <path d="M 413 424 Q 426 424 445 428 Q 626 464 654 451 Q 667 444 667 412 Q 677 225 664 78 Q 663 48 645 43 Q 632 42 567 65 Q 554 69 554 61 Q 554 51 570 40 Q 610 0 640 -39 Q 656 -60 676 -59 Q 694 -55 718 -4 Q 746 48 744 103 Q 737 233 731 351 Q 728 399 749 436 Q 762 452 747 468 Q 728 487 686 503 Q 667 513 616 493 Q 513 469 407 452 C 377 447 383 421 413 424 Z" fill="lightgray" class="hide"/>
    <path d="M 399 311 Q 405 310 572 328 Q 599 332 589 347 Q 577 363 547 370 Q 508 376 402 339 C 374 329 369 310 399 311 Z" fill="lightgray" class="hide"/>
    <path d="M 385 188 Q 389 187 402 188 Q 511 201 591 208 Q 619 212 609 227 Q 597 245 568 251 Q 534 257 388 220 C 359 213 355 190 385 188 Z" fill="lightgray" class="hide"/></g><g transform="scale(1, -1) translate(0, -900)">
    <style type="text/css">
        .origin {display:none;}
        .hide {display:none;}
        .stroke {fill: #000000;}
        
.step1 {transform: translateX(1024px);}
.step2 {transform: translateX(2048px);}
.step3 {transform: translateX(3072px);}
.step4 {transform: translateX(4096px);}
.step5 {transform: translateX(5120px);}
.step6 {transform: translateX(6144px);}
.step7 {transform: translateX(7168px);}
.step8 {transform: translateX(8192px);}
.step9 {transform: translateX(9216px);}
.step10 {transform: translateX(10240px);}
.step11 {transform: translateX(11264px);}
.step12 {transform: translateX(12288px);}
.step13 {transform: translateX(13312px);}
.step14 {transform: translateX(14336px);}
.step15 {transform: translateX(15360px);}
.step16 {transform: translateX(16384px);}
.step17 {transform: translateX(17408px);}
.step18 {transform: translateX(18432px);}
.step19 {transform: translateX(19456px);}
.step20 {transform: translateX(20480px);}
.step21 {transform: translateX(21504px);}
.step22 {transform: translateX(22528px);}
.step23 {transform: translateX(23552px);}
.step24 {transform: translateX(24576px);}
.step25 {transform: translateX(25600px);}
.step26 {transform: translateX(26624px);}
.step27 {transform: translateX(27648px);}
.step28 {transform: translateX(28672px);}
.step29 {transform: translateX(29696px);}
    </style>

    <path d="M 370 754 L 368 756 Q 355 763 314 768 Q 301 771 297 765 Q 290 758 301 741 Q 332 681 355 581 Q 359 551 378 532 Q 399 508 403 526 Q 407 538 406 554 L 402 589 Q 384 685 378 720 C 373 750 372 753 370 754 Z" fill="lightgray" class="stroke step1"/>
    <path d="M 690 605 Q 732 692 769 711 Q 790 730 775 751 Q 759 767 703 801 Q 684 811 659 805 Q 550 769 370 754 C 340 751 348 716 378 720 Q 384 720 630 754 Q 658 760 668 748 Q 680 730 633 620 C 621 592 677 578 690 605 Z" fill="lightgray" class="stroke step1"/>
    <path d="M 406 554 Q 407 554 410 553 Q 422 549 437 551 Q 519 564 696 570 Q 708 571 710 581 Q 711 588 690 605 C 667 624 663 624 633 620 Q 627 620 625 619 Q 501 595 402 589 C 372 587 377 562 406 554 Z" fill="lightgray" class="hide"/>
    <path d="M 388 220 Q 392 272 399 311 L 402 339 Q 408 397 413 419 Q 413 422 413 424 L 407 452 Q 386 479 347 480 Q 332 476 337 463 Q 383 343 319 145 Q 292 79 292 77 Q 292 38 310 12 Q 317 -3 328 2 Q 370 32 385 188 L 388 220 Z" fill="lightgray" class="hide"/>
    <path d="M 413 424 Q 426 424 445 428 Q 626 464 654 451 Q 667 444 667 412 Q 677 225 664 78 Q 663 48 645 43 Q 632 42 567 65 Q 554 69 554 61 Q 554 51 570 40 Q 610 0 640 -39 Q 656 -60 676 -59 Q 694 -55 718 -4 Q 746 48 744 103 Q 737 233 731 351 Q 728 399 749 436 Q 762 452 747 468 Q 728 487 686 503 Q 667 513 616 493 Q 513 469 407 452 C 377 447 383 421 413 424 Z" fill="lightgray" class="hide"/>
    <path d="M 399 311 Q 405 310 572 328 Q 599 332 589 347 Q 577 363 547 370 Q 508 376 402 339 C 374 329 369 310 399 311 Z" fill="lightgray" class="hide"/>
    <path d="M 385 188 Q 389 187 402 188 Q 511 201 591 208 Q 619 212 609 227 Q 597 245 568 251 Q 534 257 388 220 C 359 213 355 190 385 188 Z" fill="lightgray" class="hide"/></g><g transform="scale(1, -1) translate(0, -900)">
    <style type="text/css">
        .origin {display:none;}
        .hide {display:none;}
        .stroke {fill: #000000;}
        
.step1 {transform: translateX(1024px);}
.step2 {transform: translateX(2048px);}
.step3 {transform: translateX(3072px);}
.step4 {transform: translateX(4096px);}
.step5 {transform: translateX(5120px);}
.step6 {transform: translateX(6144px);}
.step7 {transform: translateX(7168px);}
.step8 {transform: translateX(8192px);}
.step9 {transform: translateX(9216px);}
.step10 {transform: translateX(10240px);}
.step11 {transform: translateX(11264px);}
.step12 {transform: translateX(12288px);}
.step13 {transform: translateX(13312px);}
.step14 {transform: translateX(14336px);}
.step15 {transform: translateX(15360px);}
.step16 {transform: translateX(16384px);}
.step17 {transform: translateX(17408px);}
.step18 {transform: translateX(18432px);}
.step19 {transform: translateX(19456px);}
.step20 {transform: translateX(20480px);}
.step21 {transform: translateX(21504px);}
.step22 {transform: translateX(22528px);}
.step23 {transform: translateX(23552px);}
.step24 {transform: translateX(24576px);}
.step25 {transform: translateX(25600px);}
.step26 {transform: translateX(26624px);}
.step27 {transform: translateX(27648px);}
.step28 {transform: translateX(28672px);}
.step29 {transform: translateX(29696px);}
    </style>

    <path d="M 370 754 L 368 756 Q 355 763 314 768 Q 301 771 297 765 Q 290 758 301 741 Q 332 681 355 581 Q 359 551 378 532 Q 399 508 403 526 Q 407 538 406 554 L 402 589 Q 384 685 378 720 C 373 750 372 753 370 754 Z" fill="lightgray" class="stroke step2"/>
    <path d="M 690 605 Q 732 692 769 711 Q 790 730 775 751 Q 759 767 703 801 Q 684 811 659 805 Q 550 769 370 754 C 340 751 348 716 378 720 Q 384 720 630 754 Q 658 760 668 748 Q 680 730 633 620 C 621 592 677 578 690 605 Z" fill="lightgray" class="stroke step2"/>
    <path d="M 406 554 Q 407 554 410 553 Q 422 549 437 551 Q 519 564 696 570 Q 708 571 710 581 Q 711 588 690 605 C 667 624 663 624 633 620 Q 627 620 625 619 Q 501 595 402 589 C 372 587 377 562 406 554 Z" fill="lightgray" class="stroke step2"/>
    <path d="M 388 220 Q 392 272 399 311 L 402 339 Q 408 397 413 419 Q 413 422 413 424 L 407 452 Q 386 479 347 480 Q 332 476 337 463 Q 383 343 319 145 Q 292 79 292 77 Q 292 38 310 12 Q 317 -3 328 2 Q 370 32 385 188 L 388 220 Z" fill="lightgray" class="hide"/>
    <path d="M 413 424 Q 426 424 445 428 Q 626 464 654 451 Q 667 444 667 412 Q 677 225 664 78 Q 663 48 645 43 Q 632 42 567 65 Q 554 69 554 61 Q 554 51 570 40 Q 610 0 640 -39 Q 656 -60 676 -59 Q 694 -55 718 -4 Q 746 48 744 103 Q 737 233 731 351 Q 728 399 749 436 Q 762 452 747 468 Q 728 487 686 503 Q 667 513 616 493 Q 513 469 407 452 C 377 447 383 421 413 424 Z" fill="lightgray" class="hide"/>
    <path d="M 399 311 Q 405 310 572 328 Q 599 332 589 347 Q 577 363 547 370 Q 508 376 402 339 C 374 329 369 310 399 311 Z" fill="lightgray" class="hide"/>
    <path d="M 385 188 Q 389 187 402 188 Q 511 201 591 208 Q 619 212 609 227 Q 597 245 568 251 Q 534 257 388 220 C 359 213 355 190 385 188 Z" fill="lightgray" class="hide"/></g><g transform="scale(1, -1) translate(0, -900)">
    <style type="text/css">
        .origin {display:none;}
        .hide {display:none;}
        .stroke {fill: #000000;}
        
.step1 {transform: translateX(1024px);}
.step2 {transform: translateX(2048px);}
.step3 {transform: translateX(3072px);}
.step4 {transform: translateX(4096px);}
.step5 {transform: translateX(5120px);}
.step6 {transform: translateX(6144px);}
.step7 {transform: translateX(7168px);}
.step8 {transform: translateX(8192px);}
.step9 {transform: translateX(9216px);}
.step10 {transform: translateX(10240px);}
.step11 {transform: translateX(11264px);}
.step12 {transform: translateX(12288px);}
.step13 {transform: translateX(13312px);}
.step14 {transform: translateX(14336px);}
.step15 {transform: translateX(15360px);}
.step16 {transform: translateX(16384px);}
.step17 {transform: translateX(17408px);}
.step18 {transform: translateX(18432px);}
.step19 {transform: translateX(19456px);}
.step20 {transform: translateX(20480px);}
.step21 {transform: translateX(21504px);}
.step22 {transform: translateX(22528px);}
.step23 {transform: translateX(23552px);}
.step24 {transform: translateX(24576px);}
.step25 {transform: translateX(25600px);}
.step26 {transform: translateX(26624px);}
.step27 {transform: translateX(27648px);}
.step28 {transform: translateX(28672px);}
.step29 {transform: translateX(29696px);}
    </style>

    <path d="M 370 754 L 368 756 Q 355 763 314 768 Q 301 771 297 765 Q 290 758 301 741 Q 332 681 355 581 Q 359 551 378 532 Q 399 508 403 526 Q 407 538 406 554 L 402 589 Q 384 685 378 720 C 373 750 372 753 370 754 Z" fill="lightgray" class="stroke step3"/>
    <path d="M 690 605 Q 732 692 769 711 Q 790 730 775 751 Q 759 767 703 801 Q 684 811 659 805 Q 550 769 370 754 C 340 751 348 716 378 720 Q 384 720 630 754 Q 658 760 668 748 Q 680 730 633 620 C 621 592 677 578 690 605 Z" fill="lightgray" class="stroke step3"/>
    <path d="M 406 554 Q 407 554 410 553 Q 422 549 437 551 Q 519 564 696 570 Q 708 571 710 581 Q 711 588 690 605 C 667 624 663 624 633 620 Q 627 620 625 619 Q 501 595 402 589 C 372 587 377 562 406 554 Z" fill="lightgray" class="stroke step3"/>
    <path d="M 388 220 Q 392 272 399 311 L 402 339 Q 408 397 413 419 Q 413 422 413 424 L 407 452 Q 386 479 347 480 Q 332 476 337 463 Q 383 343 319 145 Q 292 79 292 77 Q 292 38 310 12 Q 317 -3 328 2 Q 370 32 385 188 L 388 220 Z" fill="lightgray" class="stroke step3"/>
    <path d="M 413 424 Q 426 424 445 428 Q 626 464 654 451 Q 667 444 667 412 Q 677 225 664 78 Q 663 48 645 43 Q 632 42 567 65 Q 554 69 554 61 Q 554 51 570 40 Q 610 0 640 -39 Q 656 -60 676 -59 Q 694 -55 718 -4 Q 746 48 744 103 Q 737 233 731 351 Q 728 399 749 436 Q 762 452 747 468 Q 728 487 686 503 Q 667 513 616 493 Q 513 469 407 452 C 377 447 383 421 413 424 Z" fill="lightgray" class="hide"/>
    <path d="M 399 311 Q 405 310 572 328 Q 599 332 589 347 Q 577 363 547 370 Q 508 376 402 339 C 374 329 369 310 399 311 Z" fill="lightgray" class="hide"/>
    <path d="M 385 188 Q 389 187 402 188 Q 511 201 591 208 Q 619 212 609 227 Q 597 245 568 251 Q 534 257 388 220 C 359 213 355 190 385 188 Z" fill="lightgray" class="hide"/></g><g transform="scale(1, -1) translate(0, -900)">
    <style type="text/css">
        .origin {display:none;}
        .hide {display:none;}
        .stroke {fill: #000000;}
        
.step1 {transform: translateX(1024px);}
.step2 {transform: translateX(2048px);}
.step3 {transform: translateX(3072px);}
.step4 {transform: translateX(4096px);}
.step5 {transform: translateX(5120px);}
.step6 {transform: translateX(6144px);}
.step7 {transform: translateX(7168px);}
.step8 {transform: translateX(8192px);}
.step9 {transform: translateX(9216px);}
.step10 {transform: translateX(10240px);}
.step11 {transform: translateX(11264px);}
.step12 {transform: translateX(12288px);}
.step13 {transform: translateX(13312px);}
.step14 {transform: translateX(14336px);}
.step15 {transform: translateX(15360px);}
.step16 {transform: translateX(16384px);}
.step17 {transform: translateX(17408px);}
.step18 {transform: translateX(18432px);}
.step19 {transform: translateX(19456px);}
.step20 {transform: translateX(20480px);}
.step21 {transform: translateX(21504px);}
.step22 {transform: translateX(22528px);}
.step23 {transform: translateX(23552px);}
.step24 {transform: translateX(24576px);}
.step25 {transform: translateX(25600px);}
.step26 {transform: translateX(26624px);}
.step27 {transform: translateX(27648px);}
.step28 {transform: translateX(28672px);}
.step29 {transform: translateX(29696px);}
    </style>

    <path d="M 370 754 L 368 756 Q 355 763 314 768 Q 301 771 297 765 Q 290 758 301 741 Q 332 681 355 581 Q 359 551 378 532 Q 399 508 403 526 Q 407 538 406 554 L 402 589 Q 384 685 378 720 C 373 750 372 753 370 754 Z" fill="lightgray" class="stroke step4"/>
    <path d="M 690 605 Q 732 692 769 711 Q 790 730 775 751 Q 759 767 703 801 Q 684 811 659 805 Q 550 769 370 754 C 340 751 348 716 378 720 Q 384 720 630 754 Q 658 760 668 748 Q 680 730 633 620 C 621 592 677 578 690 605 Z" fill="lightgray" class="stroke step4"/>
    <path d="M 406 554 Q 407 554 410 553 Q 422 549 437 551 Q 519 564 696 570 Q 708 571 710 581 Q 711 588 690 605 C 667 624 663 624 633 620 Q 627 620 625 619 Q 501 595 402 589 C 372 587 377 562 406 554 Z" fill="lightgray" class="stroke step4"/>
    <path d="M 388 220 Q 392 272 399 311 L 402 339 Q 408 397 413 419 Q 413 422 413 424 L 407 452 Q 386 479 347 480 Q 332 476 337 463 Q 383 343 319 145 Q 292 79 292 77 Q 292 38 310 12 Q 317 -3 328 2 Q 370 32 385 188 L 388 220 Z" fill="lightgray" class="stroke step4"/>
    <path d="M 413 424 Q 426 424 445 428 Q 626 464 654 451 Q 667 444 667 412 Q 677 225 664 78 Q 663 48 645 43 Q 632 42 567 65 Q 554 69 554 61 Q 554 51 570 40 Q 610 0 640 -39 Q 656 -60 676 -59 Q 694 -55 718 -4 Q 746 48 744 103 Q 737 233 731 351 Q 728 399 749 436 Q 762 452 747 468 Q 728 487 686 503 Q 667 513 616 493 Q 513 469 407 452 C 377 447 383 421 413 424 Z" fill="lightgray" class="stroke step4"/>
    <path d="M 399 311 Q 405 310 572 328 Q 599 332 589 347 Q 577 363 547 370 Q 508 376 402 339 C 374 329 369 310 399 311 Z" fill="lightgray" class="hide"/>
    <path d="M 385 188 Q 389 187 402 188 Q 511 201 591 208 Q 619 212 609 227 Q 597 245 568 251 Q 534 257 388 220 C 359 213 355 190 385 188 Z" fill="lightgray" class="hide"/></g><g transform="scale(1, -1) translate(0, -900)">
    <style type="text/css">
        .origin {display:none;}
        .hide {display:none;}
        .stroke {fill: #000000;}
        
.step1 {transform: translateX(1024px);}
.step2 {transform: translateX(2048px);}
.step3 {transform: translateX(3072px);}
.step4 {transform: translateX(4096px);}
.step5 {transform: translateX(5120px);}
.step6 {transform: translateX(6144px);}
.step7 {transform: translateX(7168px);}
.step8 {transform: translateX(8192px);}
.step9 {transform: translateX(9216px);}
.step10 {transform: translateX(10240px);}
.step11 {transform: translateX(11264px);}
.step12 {transform: translateX(12288px);}
.step13 {transform: translateX(13312px);}
.step14 {transform: translateX(14336px);}
.step15 {transform: translateX(15360px);}
.step16 {transform: translateX(16384px);}
.step17 {transform: translateX(17408px);}
.step18 {transform: translateX(18432px);}
.step19 {transform: translateX(19456px);}
.step20 {transform: translateX(20480px);}
.step21 {transform: translateX(21504px);}
.step22 {transform: translateX(22528px);}
.step23 {transform: translateX(23552px);}
.step24 {transform: translateX(24576px);}
.step25 {transform: translateX(25600px);}
.step26 {transform: translateX(26624px);}
.step27 {transform: translateX(27648px);}
.step28 {transform: translateX(28672px);}
.step29 {transform: translateX(29696px);}
    </style>

    <path d="M 370 754 L 368 756 Q 355 763 314 768 Q 301 771 297 765 Q 290 758 301 741 Q 332 681 355 581 Q 359 551 378 532 Q 399 508 403 526 Q 407 538 406 554 L 402 589 Q 384 685 378 720 C 373 750 372 753 370 754 Z" fill="lightgray" class="stroke step5"/>
    <path d="M 690 605 Q 732 692 769 711 Q 790 730 775 751 Q 759 767 703 801 Q 684 811 659 805 Q 550 769 370 754 C 340 751 348 716 378 720 Q 384 720 630 754 Q 658 760 668 748 Q 680 730 633 620 C 621 592 677 578 690 605 Z" fill="lightgray" class="stroke step5"/>
    <path d="M 406 554 Q 407 554 410 553 Q 422 549 437 551 Q 519 564 696 570 Q 708 571 710 581 Q 711 588 690 605 C 667 624 663 624 633 620 Q 627 620 625 619 Q 501 595 402 589 C 372 587 377 562 406 554 Z" fill="lightgray" class="stroke step5"/>
    <path d="M 388 220 Q 392 272 399 311 L 402 339 Q 408 397 413 419 Q 413 422 413 424 L 407 452 Q 386 479 347 480 Q 332 476 337 463 Q 383 343 319 145 Q 292 79 292 77 Q 292 38 310 12 Q 317 -3 328 2 Q 370 32 385 188 L 388 220 Z" fill="lightgray" class="stroke step5"/>
    <path d="M 413 424 Q 426 424 445 428 Q 626 464 654 451 Q 667 444 667 412 Q 677 225 664 78 Q 663 48 645 43 Q 632 42 567 65 Q 554 69 554 61 Q 554 51 570 40 Q 610 0 640 -39 Q 656 -60 676 -59 Q 694 -55 718 -4 Q 746 48 744 103 Q 737 233 731 351 Q 728 399 749 436 Q 762 452 747 468 Q 728 487 686 503 Q 667 513 616 493 Q 513 469 407 452 C 377 447 383 421 413 424 Z" fill="lightgray" class="stroke step5"/>
    <path d="M 399 311 Q 405 310 572 328 Q 599 332 589 347 Q 577 363 547 370 Q 508 376 402 339 C 374 329 369 310 399 311 Z" fill="lightgray" class="stroke step5"/>
    <path d="M 385 188 Q 389 187 402 188 Q 511 201 591 208 Q 619 212 609 227 Q 597 245 568 251 Q 534 257 388 220 C 359 213 355 190 385 188 Z" fill="lightgray" class="hide"/></g><g transform="scale(1, -1) translate(0, -900)">
    <style type="text/css">
        .origin {display:none;}
        .hide {display:none;}
        .stroke {fill: #000000;}
        
.step1 {transform: translateX(1024px);}
.step2 {transform: translateX(2048px);}
.step3 {transform: translateX(3072px);}
.step4 {transform: translateX(4096px);}
.step5 {transform: translateX(5120px);}
.step6 {transform: translateX(6144px);}
.step7 {transform: translateX(7168px);}
.step8 {transform: translateX(8192px);}
.step9 {transform: translateX(9216px);}
.step10 {transform: translateX(10240px);}
.step11 {transform: translateX(11264px);}
.step12 {transform: translateX(12288px);}
.step13 {transform: translateX(13312px);}
.step14 {transform: translateX(14336px);}
.step15 {transform: translateX(15360px);}
.step16 {transform: translateX(16384px);}
.step17 {transform: translateX(17408px);}
.step18 {transform: translateX(18432px);}
.step19 {transform: translateX(19456px);}
.step20 {transform: translateX(20480px);}
.step21 {transform: translateX(21504px);}
.step22 {transform: translateX(22528px);}
.step23 {transform: translateX(23552px);}
.step24 {transform: translateX(24576px);}
.step25 {transform: translateX(25600px);}
.step26 {transform: translateX(26624px);}
.step27 {transform: translateX(27648px);}
.step28 {transform: translateX(28672px);}
.step29 {transform: translateX(29696px);}
    </style>

    <path d="M 370 754 L 368 756 Q 355 763 314 768 Q 301 771 297 765 Q 290 758 301 741 Q 332 681 355 581 Q 359 551 378 532 Q 399 508 403 526 Q 407 538 406 554 L 402 589 Q 384 685 378 720 C 373 750 372 753 370 754 Z" fill="lightgray" class="stroke step6"/>
    <path d="M 690 605 Q 732 692 769 711 Q 790 730 775 751 Q 759 767 703 801 Q 684 811 659 805 Q 550 769 370 754 C 340 751 348 716 378 720 Q 384 720 630 754 Q 658 760 668 748 Q 680 730 633 620 C 621 592 677 578 690 605 Z" fill="lightgray" class="stroke step6"/>
    <path d="M 406 554 Q 407 554 410 553 Q 422 549 437 551 Q 519 564 696 570 Q 708 571 710 581 Q 711 588 690 605 C 667 624 663 624 633 620 Q 627 620 625 619 Q 501 595 402 589 C 372 587 377 562 406 554 Z" fill="lightgray" class="stroke step6"/>
    <path d="M 388 220 Q 392 272 399 311 L 402 339 Q 408 397 413 419 Q 413 422 413 424 L 407 452 Q 386 479 347 480 Q 332 476 337 463 Q 383 343 319 145 Q 292 79 292 77 Q 292 38 310 12 Q 317 -3 328 2 Q 370 32 385 188 L 388 220 Z" fill="lightgray" class="stroke step6"/>
    <path d="M 413 424 Q 426 424 445 428 Q 626 464 654 451 Q 667 444 667 412 Q 677 225 664 78 Q 663 48 645 43 Q 632 42 567 65 Q 554 69 554 61 Q 554 51 570 40 Q 610 0 640 -39 Q 656 -60 676 -59 Q 694 -55 718 -4 Q 746 48 744 103 Q 737 233 731 351 Q 728 399 749 436 Q 762 452 747 468 Q 728 487 686 503 Q 667 513 616 493 Q 513 469 407 452 C 377 447 383 421 413 424 Z" fill="lightgray" class="stroke step6"/>
    <path d="M 399 311 Q 405 310 572 328 Q 599 332 589 347 Q 577 363 547 370 Q 508 376 402 339 C 374 329 369 310 399 311 Z" fill="lightgray" class="stroke step6"/>
    <path d="M 385 188 Q 389 187 402 188 Q 511 201 591 208 Q 619 212 609 227 Q 597 245 568 251 Q 534 257 388 220 C 359 213 355 190 385 188 Z" fill="lightgray" class="stroke step6"/></g></svg>