<svg version="1.1" viewBox="0 0 13312 1024" xmlns="http://www.w3.org/2000/svg">
  
  <g transform="scale(1, -1) translate(0, -900)" class="origin">
    <style type="text/css">
        .origin {display:none;}
        .hide {display:none;}
        .stroke {fill: #000000;}
        
.step1 {transform: translateX(1024px);}
.step2 {transform: translateX(2048px);}
.step3 {transform: translateX(3072px);}
.step4 {transform: translateX(4096px);}
.step5 {transform: translateX(5120px);}
.step6 {transform: translateX(6144px);}
.step7 {transform: translateX(7168px);}
.step8 {transform: translateX(8192px);}
.step9 {transform: translateX(9216px);}
.step10 {transform: translateX(10240px);}
.step11 {transform: translateX(11264px);}
.step12 {transform: translateX(12288px);}
.step13 {transform: translateX(13312px);}
.step14 {transform: translateX(14336px);}
.step15 {transform: translateX(15360px);}
.step16 {transform: translateX(16384px);}
.step17 {transform: translateX(17408px);}
.step18 {transform: translateX(18432px);}
.step19 {transform: translateX(19456px);}
.step20 {transform: translateX(20480px);}
.step21 {transform: translateX(21504px);}
.step22 {transform: translateX(22528px);}
.step23 {transform: translateX(23552px);}
.step24 {transform: translateX(24576px);}
.step25 {transform: translateX(25600px);}
.step26 {transform: translateX(26624px);}
.step27 {transform: translateX(27648px);}
.step28 {transform: translateX(28672px);}
.step29 {transform: translateX(29696px);}
    </style>

    <path d="M 205 367 Q 208 385 218 478 L 219 512 Q 222 563 222 629 Q 223 665 229 674 C 232 687 232 687 207 702 Q 174 726 153 717 Q 143 710 149 698 Q 165 677 173 624 Q 173 410 150 308 Q 147 296 144 282 Q 117 191 44 48 Q 40 42 39 36 Q 38 26 46 29 Q 88 44 154 189 Q 160 205 167 221 Q 186 275 198 334 L 205 367 Z" fill="lightgray"/>
    <path d="M 229 674 Q 229 675 283 691 Q 302 695 306 686 Q 321 641 326 356 Q 327 127 314 105 Q 308 101 242 115 Q 223 121 225 112 Q 277 69 307 35 Q 320 19 333 14 Q 342 11 349 20 Q 385 66 383 114 Q 370 300 365 601 Q 364 653 376 677 Q 386 695 375 704 Q 356 720 322 733 Q 306 740 292 733 Q 267 718 252 713 Q 236 707 207 702 C 178 696 201 665 229 674 Z" fill="lightgray"/>
    <path d="M 218 478 Q 255 485 285 488 Q 307 494 298 505 Q 286 518 262 520 Q 244 521 219 512 C 191 502 189 472 218 478 Z" fill="lightgray"/>
    <path d="M 198 334 Q 249 343 285 348 Q 307 354 298 365 Q 286 378 262 380 Q 240 381 205 367 C 177 356 168 329 198 334 Z" fill="lightgray"/>
    <path d="M 687 612 Q 747 622 796 630 Q 806 629 814 640 Q 814 650 794 660 Q 761 678 685 653 Q 682 653 681 652 L 640 641 Q 633 640 627 638 Q 576 626 407 598 Q 382 594 402 579 Q 433 557 457 563 Q 539 584 644 604 L 687 612 Z" fill="lightgray"/>
    <path d="M 445 520 Q 417 516 438 503 Q 468 485 511 498 Q 544 505 578 513 Q 594 517 596 519 Q 602 525 599 531 Q 593 540 571 545 Q 562 546 493 529 Q 469 525 445 520 Z" fill="lightgray"/>
    <path d="M 401 439 Q 382 435 398 425 Q 417 415 453 420 Q 565 450 619 458 Q 626 458 631 467 Q 631 474 616 480 Q 597 493 525 468 Q 521 468 517 466 Q 460 451 401 439 Z" fill="lightgray"/>
    <path d="M 444 378 Q 434 385 420 389 Q 414 390 410 385 Q 407 381 413 373 Q 440 297 417 188 Q 408 181 414 153 Q 421 131 429 122 Q 436 112 444 122 Q 459 146 460 245 Q 460 329 464 356 C 465 365 465 365 444 378 Z" fill="lightgray"/>
    <path d="M 595 179 Q 591 163 599 149 Q 609 130 614 131 Q 624 132 634 153 Q 644 169 643 184 Q 624 323 650 363 Q 657 373 652 381 Q 633 397 598 412 Q 588 416 571 410 Q 520 388 444 378 C 414 374 436 346 464 356 Q 501 371 565 377 Q 581 378 588 374 Q 595 361 598 320 Q 602 202 595 179 Z" fill="lightgray"/>
    <path d="M 509 286 Q 513 112 446 54 Q 424 33 375 6 Q 368 2 365 0 Q 362 -4 372 -5 Q 396 -8 464 32 Q 545 87 545 262 Q 546 283 554 306 Q 557 313 551 318 Q 539 328 516 337 Q 503 343 492 339 Q 480 335 490 323 Q 508 305 509 286 Z" fill="lightgray"/>
    <path d="M 580 90 Q 634 21 645 18 Q 652 17 658 25 Q 662 34 661 55 Q 660 74 636 93 Q 579 129 568 126 Q 564 125 563 115 Q 564 108 580 90 Z" fill="lightgray"/>
    <path d="M 644 604 Q 677 319 776 149 Q 818 71 880 16 Q 907 -6 921 -8 Q 934 -9 943 1 Q 950 10 944 52 Q 941 118 952 202 Q 956 229 947 231 Q 940 232 930 209 Q 900 109 880 108 Q 838 141 794 221 Q 725 353 687 612 L 681 652 Q 681 653 681 656 Q 677 699 680 733 Q 689 757 685 768 Q 681 777 658 791 Q 639 804 625 806 Q 613 806 613 805 Q 591 801 608 778 Q 614 777 637 674 Q 638 658 640 641 L 644 604 Z" fill="lightgray"/>
    <path d="M 744 765 Q 774 743 806 714 Q 818 704 832 704 Q 841 705 845 716 Q 849 729 840 755 Q 834 774 804 788 Q 734 812 720 807 Q 716 803 717 792 Q 721 782 744 765 Z" fill="lightgray"/></g>
<g transform="scale(1, -1) translate(0, -900)">
    <style type="text/css">
        .origin {display:none;}
        .hide {display:none;}
        .stroke {fill: #000000;}
        
.step1 {transform: translateX(1024px);}
.step2 {transform: translateX(2048px);}
.step3 {transform: translateX(3072px);}
.step4 {transform: translateX(4096px);}
.step5 {transform: translateX(5120px);}
.step6 {transform: translateX(6144px);}
.step7 {transform: translateX(7168px);}
.step8 {transform: translateX(8192px);}
.step9 {transform: translateX(9216px);}
.step10 {transform: translateX(10240px);}
.step11 {transform: translateX(11264px);}
.step12 {transform: translateX(12288px);}
.step13 {transform: translateX(13312px);}
.step14 {transform: translateX(14336px);}
.step15 {transform: translateX(15360px);}
.step16 {transform: translateX(16384px);}
.step17 {transform: translateX(17408px);}
.step18 {transform: translateX(18432px);}
.step19 {transform: translateX(19456px);}
.step20 {transform: translateX(20480px);}
.step21 {transform: translateX(21504px);}
.step22 {transform: translateX(22528px);}
.step23 {transform: translateX(23552px);}
.step24 {transform: translateX(24576px);}
.step25 {transform: translateX(25600px);}
.step26 {transform: translateX(26624px);}
.step27 {transform: translateX(27648px);}
.step28 {transform: translateX(28672px);}
.step29 {transform: translateX(29696px);}
    </style>

    <path d="M 205 367 Q 208 385 218 478 L 219 512 Q 222 563 222 629 Q 223 665 229 674 C 232 687 232 687 207 702 Q 174 726 153 717 Q 143 710 149 698 Q 165 677 173 624 Q 173 410 150 308 Q 147 296 144 282 Q 117 191 44 48 Q 40 42 39 36 Q 38 26 46 29 Q 88 44 154 189 Q 160 205 167 221 Q 186 275 198 334 L 205 367 Z" fill="lightgray" class="stroke step0"/>
    <path d="M 229 674 Q 229 675 283 691 Q 302 695 306 686 Q 321 641 326 356 Q 327 127 314 105 Q 308 101 242 115 Q 223 121 225 112 Q 277 69 307 35 Q 320 19 333 14 Q 342 11 349 20 Q 385 66 383 114 Q 370 300 365 601 Q 364 653 376 677 Q 386 695 375 704 Q 356 720 322 733 Q 306 740 292 733 Q 267 718 252 713 Q 236 707 207 702 C 178 696 201 665 229 674 Z" fill="lightgray" class="hide"/>
    <path d="M 218 478 Q 255 485 285 488 Q 307 494 298 505 Q 286 518 262 520 Q 244 521 219 512 C 191 502 189 472 218 478 Z" fill="lightgray" class="hide"/>
    <path d="M 198 334 Q 249 343 285 348 Q 307 354 298 365 Q 286 378 262 380 Q 240 381 205 367 C 177 356 168 329 198 334 Z" fill="lightgray" class="hide"/>
    <path d="M 687 612 Q 747 622 796 630 Q 806 629 814 640 Q 814 650 794 660 Q 761 678 685 653 Q 682 653 681 652 L 640 641 Q 633 640 627 638 Q 576 626 407 598 Q 382 594 402 579 Q 433 557 457 563 Q 539 584 644 604 L 687 612 Z" fill="lightgray" class="hide"/>
    <path d="M 445 520 Q 417 516 438 503 Q 468 485 511 498 Q 544 505 578 513 Q 594 517 596 519 Q 602 525 599 531 Q 593 540 571 545 Q 562 546 493 529 Q 469 525 445 520 Z" fill="lightgray" class="hide"/>
    <path d="M 401 439 Q 382 435 398 425 Q 417 415 453 420 Q 565 450 619 458 Q 626 458 631 467 Q 631 474 616 480 Q 597 493 525 468 Q 521 468 517 466 Q 460 451 401 439 Z" fill="lightgray" class="hide"/>
    <path d="M 444 378 Q 434 385 420 389 Q 414 390 410 385 Q 407 381 413 373 Q 440 297 417 188 Q 408 181 414 153 Q 421 131 429 122 Q 436 112 444 122 Q 459 146 460 245 Q 460 329 464 356 C 465 365 465 365 444 378 Z" fill="lightgray" class="hide"/>
    <path d="M 595 179 Q 591 163 599 149 Q 609 130 614 131 Q 624 132 634 153 Q 644 169 643 184 Q 624 323 650 363 Q 657 373 652 381 Q 633 397 598 412 Q 588 416 571 410 Q 520 388 444 378 C 414 374 436 346 464 356 Q 501 371 565 377 Q 581 378 588 374 Q 595 361 598 320 Q 602 202 595 179 Z" fill="lightgray" class="hide"/>
    <path d="M 509 286 Q 513 112 446 54 Q 424 33 375 6 Q 368 2 365 0 Q 362 -4 372 -5 Q 396 -8 464 32 Q 545 87 545 262 Q 546 283 554 306 Q 557 313 551 318 Q 539 328 516 337 Q 503 343 492 339 Q 480 335 490 323 Q 508 305 509 286 Z" fill="lightgray" class="hide"/>
    <path d="M 580 90 Q 634 21 645 18 Q 652 17 658 25 Q 662 34 661 55 Q 660 74 636 93 Q 579 129 568 126 Q 564 125 563 115 Q 564 108 580 90 Z" fill="lightgray" class="hide"/>
    <path d="M 644 604 Q 677 319 776 149 Q 818 71 880 16 Q 907 -6 921 -8 Q 934 -9 943 1 Q 950 10 944 52 Q 941 118 952 202 Q 956 229 947 231 Q 940 232 930 209 Q 900 109 880 108 Q 838 141 794 221 Q 725 353 687 612 L 681 652 Q 681 653 681 656 Q 677 699 680 733 Q 689 757 685 768 Q 681 777 658 791 Q 639 804 625 806 Q 613 806 613 805 Q 591 801 608 778 Q 614 777 637 674 Q 638 658 640 641 L 644 604 Z" fill="lightgray" class="hide"/>
    <path d="M 744 765 Q 774 743 806 714 Q 818 704 832 704 Q 841 705 845 716 Q 849 729 840 755 Q 834 774 804 788 Q 734 812 720 807 Q 716 803 717 792 Q 721 782 744 765 Z" fill="lightgray" class="hide"/></g><g transform="scale(1, -1) translate(0, -900)">
    <style type="text/css">
        .origin {display:none;}
        .hide {display:none;}
        .stroke {fill: #000000;}
        
.step1 {transform: translateX(1024px);}
.step2 {transform: translateX(2048px);}
.step3 {transform: translateX(3072px);}
.step4 {transform: translateX(4096px);}
.step5 {transform: translateX(5120px);}
.step6 {transform: translateX(6144px);}
.step7 {transform: translateX(7168px);}
.step8 {transform: translateX(8192px);}
.step9 {transform: translateX(9216px);}
.step10 {transform: translateX(10240px);}
.step11 {transform: translateX(11264px);}
.step12 {transform: translateX(12288px);}
.step13 {transform: translateX(13312px);}
.step14 {transform: translateX(14336px);}
.step15 {transform: translateX(15360px);}
.step16 {transform: translateX(16384px);}
.step17 {transform: translateX(17408px);}
.step18 {transform: translateX(18432px);}
.step19 {transform: translateX(19456px);}
.step20 {transform: translateX(20480px);}
.step21 {transform: translateX(21504px);}
.step22 {transform: translateX(22528px);}
.step23 {transform: translateX(23552px);}
.step24 {transform: translateX(24576px);}
.step25 {transform: translateX(25600px);}
.step26 {transform: translateX(26624px);}
.step27 {transform: translateX(27648px);}
.step28 {transform: translateX(28672px);}
.step29 {transform: translateX(29696px);}
    </style>

    <path d="M 205 367 Q 208 385 218 478 L 219 512 Q 222 563 222 629 Q 223 665 229 674 C 232 687 232 687 207 702 Q 174 726 153 717 Q 143 710 149 698 Q 165 677 173 624 Q 173 410 150 308 Q 147 296 144 282 Q 117 191 44 48 Q 40 42 39 36 Q 38 26 46 29 Q 88 44 154 189 Q 160 205 167 221 Q 186 275 198 334 L 205 367 Z" fill="lightgray" class="stroke step1"/>
    <path d="M 229 674 Q 229 675 283 691 Q 302 695 306 686 Q 321 641 326 356 Q 327 127 314 105 Q 308 101 242 115 Q 223 121 225 112 Q 277 69 307 35 Q 320 19 333 14 Q 342 11 349 20 Q 385 66 383 114 Q 370 300 365 601 Q 364 653 376 677 Q 386 695 375 704 Q 356 720 322 733 Q 306 740 292 733 Q 267 718 252 713 Q 236 707 207 702 C 178 696 201 665 229 674 Z" fill="lightgray" class="stroke step1"/>
    <path d="M 218 478 Q 255 485 285 488 Q 307 494 298 505 Q 286 518 262 520 Q 244 521 219 512 C 191 502 189 472 218 478 Z" fill="lightgray" class="hide"/>
    <path d="M 198 334 Q 249 343 285 348 Q 307 354 298 365 Q 286 378 262 380 Q 240 381 205 367 C 177 356 168 329 198 334 Z" fill="lightgray" class="hide"/>
    <path d="M 687 612 Q 747 622 796 630 Q 806 629 814 640 Q 814 650 794 660 Q 761 678 685 653 Q 682 653 681 652 L 640 641 Q 633 640 627 638 Q 576 626 407 598 Q 382 594 402 579 Q 433 557 457 563 Q 539 584 644 604 L 687 612 Z" fill="lightgray" class="hide"/>
    <path d="M 445 520 Q 417 516 438 503 Q 468 485 511 498 Q 544 505 578 513 Q 594 517 596 519 Q 602 525 599 531 Q 593 540 571 545 Q 562 546 493 529 Q 469 525 445 520 Z" fill="lightgray" class="hide"/>
    <path d="M 401 439 Q 382 435 398 425 Q 417 415 453 420 Q 565 450 619 458 Q 626 458 631 467 Q 631 474 616 480 Q 597 493 525 468 Q 521 468 517 466 Q 460 451 401 439 Z" fill="lightgray" class="hide"/>
    <path d="M 444 378 Q 434 385 420 389 Q 414 390 410 385 Q 407 381 413 373 Q 440 297 417 188 Q 408 181 414 153 Q 421 131 429 122 Q 436 112 444 122 Q 459 146 460 245 Q 460 329 464 356 C 465 365 465 365 444 378 Z" fill="lightgray" class="hide"/>
    <path d="M 595 179 Q 591 163 599 149 Q 609 130 614 131 Q 624 132 634 153 Q 644 169 643 184 Q 624 323 650 363 Q 657 373 652 381 Q 633 397 598 412 Q 588 416 571 410 Q 520 388 444 378 C 414 374 436 346 464 356 Q 501 371 565 377 Q 581 378 588 374 Q 595 361 598 320 Q 602 202 595 179 Z" fill="lightgray" class="hide"/>
    <path d="M 509 286 Q 513 112 446 54 Q 424 33 375 6 Q 368 2 365 0 Q 362 -4 372 -5 Q 396 -8 464 32 Q 545 87 545 262 Q 546 283 554 306 Q 557 313 551 318 Q 539 328 516 337 Q 503 343 492 339 Q 480 335 490 323 Q 508 305 509 286 Z" fill="lightgray" class="hide"/>
    <path d="M 580 90 Q 634 21 645 18 Q 652 17 658 25 Q 662 34 661 55 Q 660 74 636 93 Q 579 129 568 126 Q 564 125 563 115 Q 564 108 580 90 Z" fill="lightgray" class="hide"/>
    <path d="M 644 604 Q 677 319 776 149 Q 818 71 880 16 Q 907 -6 921 -8 Q 934 -9 943 1 Q 950 10 944 52 Q 941 118 952 202 Q 956 229 947 231 Q 940 232 930 209 Q 900 109 880 108 Q 838 141 794 221 Q 725 353 687 612 L 681 652 Q 681 653 681 656 Q 677 699 680 733 Q 689 757 685 768 Q 681 777 658 791 Q 639 804 625 806 Q 613 806 613 805 Q 591 801 608 778 Q 614 777 637 674 Q 638 658 640 641 L 644 604 Z" fill="lightgray" class="hide"/>
    <path d="M 744 765 Q 774 743 806 714 Q 818 704 832 704 Q 841 705 845 716 Q 849 729 840 755 Q 834 774 804 788 Q 734 812 720 807 Q 716 803 717 792 Q 721 782 744 765 Z" fill="lightgray" class="hide"/></g><g transform="scale(1, -1) translate(0, -900)">
    <style type="text/css">
        .origin {display:none;}
        .hide {display:none;}
        .stroke {fill: #000000;}
        
.step1 {transform: translateX(1024px);}
.step2 {transform: translateX(2048px);}
.step3 {transform: translateX(3072px);}
.step4 {transform: translateX(4096px);}
.step5 {transform: translateX(5120px);}
.step6 {transform: translateX(6144px);}
.step7 {transform: translateX(7168px);}
.step8 {transform: translateX(8192px);}
.step9 {transform: translateX(9216px);}
.step10 {transform: translateX(10240px);}
.step11 {transform: translateX(11264px);}
.step12 {transform: translateX(12288px);}
.step13 {transform: translateX(13312px);}
.step14 {transform: translateX(14336px);}
.step15 {transform: translateX(15360px);}
.step16 {transform: translateX(16384px);}
.step17 {transform: translateX(17408px);}
.step18 {transform: translateX(18432px);}
.step19 {transform: translateX(19456px);}
.step20 {transform: translateX(20480px);}
.step21 {transform: translateX(21504px);}
.step22 {transform: translateX(22528px);}
.step23 {transform: translateX(23552px);}
.step24 {transform: translateX(24576px);}
.step25 {transform: translateX(25600px);}
.step26 {transform: translateX(26624px);}
.step27 {transform: translateX(27648px);}
.step28 {transform: translateX(28672px);}
.step29 {transform: translateX(29696px);}
    </style>

    <path d="M 205 367 Q 208 385 218 478 L 219 512 Q 222 563 222 629 Q 223 665 229 674 C 232 687 232 687 207 702 Q 174 726 153 717 Q 143 710 149 698 Q 165 677 173 624 Q 173 410 150 308 Q 147 296 144 282 Q 117 191 44 48 Q 40 42 39 36 Q 38 26 46 29 Q 88 44 154 189 Q 160 205 167 221 Q 186 275 198 334 L 205 367 Z" fill="lightgray" class="stroke step2"/>
    <path d="M 229 674 Q 229 675 283 691 Q 302 695 306 686 Q 321 641 326 356 Q 327 127 314 105 Q 308 101 242 115 Q 223 121 225 112 Q 277 69 307 35 Q 320 19 333 14 Q 342 11 349 20 Q 385 66 383 114 Q 370 300 365 601 Q 364 653 376 677 Q 386 695 375 704 Q 356 720 322 733 Q 306 740 292 733 Q 267 718 252 713 Q 236 707 207 702 C 178 696 201 665 229 674 Z" fill="lightgray" class="stroke step2"/>
    <path d="M 218 478 Q 255 485 285 488 Q 307 494 298 505 Q 286 518 262 520 Q 244 521 219 512 C 191 502 189 472 218 478 Z" fill="lightgray" class="stroke step2"/>
    <path d="M 198 334 Q 249 343 285 348 Q 307 354 298 365 Q 286 378 262 380 Q 240 381 205 367 C 177 356 168 329 198 334 Z" fill="lightgray" class="hide"/>
    <path d="M 687 612 Q 747 622 796 630 Q 806 629 814 640 Q 814 650 794 660 Q 761 678 685 653 Q 682 653 681 652 L 640 641 Q 633 640 627 638 Q 576 626 407 598 Q 382 594 402 579 Q 433 557 457 563 Q 539 584 644 604 L 687 612 Z" fill="lightgray" class="hide"/>
    <path d="M 445 520 Q 417 516 438 503 Q 468 485 511 498 Q 544 505 578 513 Q 594 517 596 519 Q 602 525 599 531 Q 593 540 571 545 Q 562 546 493 529 Q 469 525 445 520 Z" fill="lightgray" class="hide"/>
    <path d="M 401 439 Q 382 435 398 425 Q 417 415 453 420 Q 565 450 619 458 Q 626 458 631 467 Q 631 474 616 480 Q 597 493 525 468 Q 521 468 517 466 Q 460 451 401 439 Z" fill="lightgray" class="hide"/>
    <path d="M 444 378 Q 434 385 420 389 Q 414 390 410 385 Q 407 381 413 373 Q 440 297 417 188 Q 408 181 414 153 Q 421 131 429 122 Q 436 112 444 122 Q 459 146 460 245 Q 460 329 464 356 C 465 365 465 365 444 378 Z" fill="lightgray" class="hide"/>
    <path d="M 595 179 Q 591 163 599 149 Q 609 130 614 131 Q 624 132 634 153 Q 644 169 643 184 Q 624 323 650 363 Q 657 373 652 381 Q 633 397 598 412 Q 588 416 571 410 Q 520 388 444 378 C 414 374 436 346 464 356 Q 501 371 565 377 Q 581 378 588 374 Q 595 361 598 320 Q 602 202 595 179 Z" fill="lightgray" class="hide"/>
    <path d="M 509 286 Q 513 112 446 54 Q 424 33 375 6 Q 368 2 365 0 Q 362 -4 372 -5 Q 396 -8 464 32 Q 545 87 545 262 Q 546 283 554 306 Q 557 313 551 318 Q 539 328 516 337 Q 503 343 492 339 Q 480 335 490 323 Q 508 305 509 286 Z" fill="lightgray" class="hide"/>
    <path d="M 580 90 Q 634 21 645 18 Q 652 17 658 25 Q 662 34 661 55 Q 660 74 636 93 Q 579 129 568 126 Q 564 125 563 115 Q 564 108 580 90 Z" fill="lightgray" class="hide"/>
    <path d="M 644 604 Q 677 319 776 149 Q 818 71 880 16 Q 907 -6 921 -8 Q 934 -9 943 1 Q 950 10 944 52 Q 941 118 952 202 Q 956 229 947 231 Q 940 232 930 209 Q 900 109 880 108 Q 838 141 794 221 Q 725 353 687 612 L 681 652 Q 681 653 681 656 Q 677 699 680 733 Q 689 757 685 768 Q 681 777 658 791 Q 639 804 625 806 Q 613 806 613 805 Q 591 801 608 778 Q 614 777 637 674 Q 638 658 640 641 L 644 604 Z" fill="lightgray" class="hide"/>
    <path d="M 744 765 Q 774 743 806 714 Q 818 704 832 704 Q 841 705 845 716 Q 849 729 840 755 Q 834 774 804 788 Q 734 812 720 807 Q 716 803 717 792 Q 721 782 744 765 Z" fill="lightgray" class="hide"/></g><g transform="scale(1, -1) translate(0, -900)">
    <style type="text/css">
        .origin {display:none;}
        .hide {display:none;}
        .stroke {fill: #000000;}
        
.step1 {transform: translateX(1024px);}
.step2 {transform: translateX(2048px);}
.step3 {transform: translateX(3072px);}
.step4 {transform: translateX(4096px);}
.step5 {transform: translateX(5120px);}
.step6 {transform: translateX(6144px);}
.step7 {transform: translateX(7168px);}
.step8 {transform: translateX(8192px);}
.step9 {transform: translateX(9216px);}
.step10 {transform: translateX(10240px);}
.step11 {transform: translateX(11264px);}
.step12 {transform: translateX(12288px);}
.step13 {transform: translateX(13312px);}
.step14 {transform: translateX(14336px);}
.step15 {transform: translateX(15360px);}
.step16 {transform: translateX(16384px);}
.step17 {transform: translateX(17408px);}
.step18 {transform: translateX(18432px);}
.step19 {transform: translateX(19456px);}
.step20 {transform: translateX(20480px);}
.step21 {transform: translateX(21504px);}
.step22 {transform: translateX(22528px);}
.step23 {transform: translateX(23552px);}
.step24 {transform: translateX(24576px);}
.step25 {transform: translateX(25600px);}
.step26 {transform: translateX(26624px);}
.step27 {transform: translateX(27648px);}
.step28 {transform: translateX(28672px);}
.step29 {transform: translateX(29696px);}
    </style>

    <path d="M 205 367 Q 208 385 218 478 L 219 512 Q 222 563 222 629 Q 223 665 229 674 C 232 687 232 687 207 702 Q 174 726 153 717 Q 143 710 149 698 Q 165 677 173 624 Q 173 410 150 308 Q 147 296 144 282 Q 117 191 44 48 Q 40 42 39 36 Q 38 26 46 29 Q 88 44 154 189 Q 160 205 167 221 Q 186 275 198 334 L 205 367 Z" fill="lightgray" class="stroke step3"/>
    <path d="M 229 674 Q 229 675 283 691 Q 302 695 306 686 Q 321 641 326 356 Q 327 127 314 105 Q 308 101 242 115 Q 223 121 225 112 Q 277 69 307 35 Q 320 19 333 14 Q 342 11 349 20 Q 385 66 383 114 Q 370 300 365 601 Q 364 653 376 677 Q 386 695 375 704 Q 356 720 322 733 Q 306 740 292 733 Q 267 718 252 713 Q 236 707 207 702 C 178 696 201 665 229 674 Z" fill="lightgray" class="stroke step3"/>
    <path d="M 218 478 Q 255 485 285 488 Q 307 494 298 505 Q 286 518 262 520 Q 244 521 219 512 C 191 502 189 472 218 478 Z" fill="lightgray" class="stroke step3"/>
    <path d="M 198 334 Q 249 343 285 348 Q 307 354 298 365 Q 286 378 262 380 Q 240 381 205 367 C 177 356 168 329 198 334 Z" fill="lightgray" class="stroke step3"/>
    <path d="M 687 612 Q 747 622 796 630 Q 806 629 814 640 Q 814 650 794 660 Q 761 678 685 653 Q 682 653 681 652 L 640 641 Q 633 640 627 638 Q 576 626 407 598 Q 382 594 402 579 Q 433 557 457 563 Q 539 584 644 604 L 687 612 Z" fill="lightgray" class="hide"/>
    <path d="M 445 520 Q 417 516 438 503 Q 468 485 511 498 Q 544 505 578 513 Q 594 517 596 519 Q 602 525 599 531 Q 593 540 571 545 Q 562 546 493 529 Q 469 525 445 520 Z" fill="lightgray" class="hide"/>
    <path d="M 401 439 Q 382 435 398 425 Q 417 415 453 420 Q 565 450 619 458 Q 626 458 631 467 Q 631 474 616 480 Q 597 493 525 468 Q 521 468 517 466 Q 460 451 401 439 Z" fill="lightgray" class="hide"/>
    <path d="M 444 378 Q 434 385 420 389 Q 414 390 410 385 Q 407 381 413 373 Q 440 297 417 188 Q 408 181 414 153 Q 421 131 429 122 Q 436 112 444 122 Q 459 146 460 245 Q 460 329 464 356 C 465 365 465 365 444 378 Z" fill="lightgray" class="hide"/>
    <path d="M 595 179 Q 591 163 599 149 Q 609 130 614 131 Q 624 132 634 153 Q 644 169 643 184 Q 624 323 650 363 Q 657 373 652 381 Q 633 397 598 412 Q 588 416 571 410 Q 520 388 444 378 C 414 374 436 346 464 356 Q 501 371 565 377 Q 581 378 588 374 Q 595 361 598 320 Q 602 202 595 179 Z" fill="lightgray" class="hide"/>
    <path d="M 509 286 Q 513 112 446 54 Q 424 33 375 6 Q 368 2 365 0 Q 362 -4 372 -5 Q 396 -8 464 32 Q 545 87 545 262 Q 546 283 554 306 Q 557 313 551 318 Q 539 328 516 337 Q 503 343 492 339 Q 480 335 490 323 Q 508 305 509 286 Z" fill="lightgray" class="hide"/>
    <path d="M 580 90 Q 634 21 645 18 Q 652 17 658 25 Q 662 34 661 55 Q 660 74 636 93 Q 579 129 568 126 Q 564 125 563 115 Q 564 108 580 90 Z" fill="lightgray" class="hide"/>
    <path d="M 644 604 Q 677 319 776 149 Q 818 71 880 16 Q 907 -6 921 -8 Q 934 -9 943 1 Q 950 10 944 52 Q 941 118 952 202 Q 956 229 947 231 Q 940 232 930 209 Q 900 109 880 108 Q 838 141 794 221 Q 725 353 687 612 L 681 652 Q 681 653 681 656 Q 677 699 680 733 Q 689 757 685 768 Q 681 777 658 791 Q 639 804 625 806 Q 613 806 613 805 Q 591 801 608 778 Q 614 777 637 674 Q 638 658 640 641 L 644 604 Z" fill="lightgray" class="hide"/>
    <path d="M 744 765 Q 774 743 806 714 Q 818 704 832 704 Q 841 705 845 716 Q 849 729 840 755 Q 834 774 804 788 Q 734 812 720 807 Q 716 803 717 792 Q 721 782 744 765 Z" fill="lightgray" class="hide"/></g><g transform="scale(1, -1) translate(0, -900)">
    <style type="text/css">
        .origin {display:none;}
        .hide {display:none;}
        .stroke {fill: #000000;}
        
.step1 {transform: translateX(1024px);}
.step2 {transform: translateX(2048px);}
.step3 {transform: translateX(3072px);}
.step4 {transform: translateX(4096px);}
.step5 {transform: translateX(5120px);}
.step6 {transform: translateX(6144px);}
.step7 {transform: translateX(7168px);}
.step8 {transform: translateX(8192px);}
.step9 {transform: translateX(9216px);}
.step10 {transform: translateX(10240px);}
.step11 {transform: translateX(11264px);}
.step12 {transform: translateX(12288px);}
.step13 {transform: translateX(13312px);}
.step14 {transform: translateX(14336px);}
.step15 {transform: translateX(15360px);}
.step16 {transform: translateX(16384px);}
.step17 {transform: translateX(17408px);}
.step18 {transform: translateX(18432px);}
.step19 {transform: translateX(19456px);}
.step20 {transform: translateX(20480px);}
.step21 {transform: translateX(21504px);}
.step22 {transform: translateX(22528px);}
.step23 {transform: translateX(23552px);}
.step24 {transform: translateX(24576px);}
.step25 {transform: translateX(25600px);}
.step26 {transform: translateX(26624px);}
.step27 {transform: translateX(27648px);}
.step28 {transform: translateX(28672px);}
.step29 {transform: translateX(29696px);}
    </style>

    <path d="M 205 367 Q 208 385 218 478 L 219 512 Q 222 563 222 629 Q 223 665 229 674 C 232 687 232 687 207 702 Q 174 726 153 717 Q 143 710 149 698 Q 165 677 173 624 Q 173 410 150 308 Q 147 296 144 282 Q 117 191 44 48 Q 40 42 39 36 Q 38 26 46 29 Q 88 44 154 189 Q 160 205 167 221 Q 186 275 198 334 L 205 367 Z" fill="lightgray" class="stroke step4"/>
    <path d="M 229 674 Q 229 675 283 691 Q 302 695 306 686 Q 321 641 326 356 Q 327 127 314 105 Q 308 101 242 115 Q 223 121 225 112 Q 277 69 307 35 Q 320 19 333 14 Q 342 11 349 20 Q 385 66 383 114 Q 370 300 365 601 Q 364 653 376 677 Q 386 695 375 704 Q 356 720 322 733 Q 306 740 292 733 Q 267 718 252 713 Q 236 707 207 702 C 178 696 201 665 229 674 Z" fill="lightgray" class="stroke step4"/>
    <path d="M 218 478 Q 255 485 285 488 Q 307 494 298 505 Q 286 518 262 520 Q 244 521 219 512 C 191 502 189 472 218 478 Z" fill="lightgray" class="stroke step4"/>
    <path d="M 198 334 Q 249 343 285 348 Q 307 354 298 365 Q 286 378 262 380 Q 240 381 205 367 C 177 356 168 329 198 334 Z" fill="lightgray" class="stroke step4"/>
    <path d="M 687 612 Q 747 622 796 630 Q 806 629 814 640 Q 814 650 794 660 Q 761 678 685 653 Q 682 653 681 652 L 640 641 Q 633 640 627 638 Q 576 626 407 598 Q 382 594 402 579 Q 433 557 457 563 Q 539 584 644 604 L 687 612 Z" fill="lightgray" class="stroke step4"/>
    <path d="M 445 520 Q 417 516 438 503 Q 468 485 511 498 Q 544 505 578 513 Q 594 517 596 519 Q 602 525 599 531 Q 593 540 571 545 Q 562 546 493 529 Q 469 525 445 520 Z" fill="lightgray" class="hide"/>
    <path d="M 401 439 Q 382 435 398 425 Q 417 415 453 420 Q 565 450 619 458 Q 626 458 631 467 Q 631 474 616 480 Q 597 493 525 468 Q 521 468 517 466 Q 460 451 401 439 Z" fill="lightgray" class="hide"/>
    <path d="M 444 378 Q 434 385 420 389 Q 414 390 410 385 Q 407 381 413 373 Q 440 297 417 188 Q 408 181 414 153 Q 421 131 429 122 Q 436 112 444 122 Q 459 146 460 245 Q 460 329 464 356 C 465 365 465 365 444 378 Z" fill="lightgray" class="hide"/>
    <path d="M 595 179 Q 591 163 599 149 Q 609 130 614 131 Q 624 132 634 153 Q 644 169 643 184 Q 624 323 650 363 Q 657 373 652 381 Q 633 397 598 412 Q 588 416 571 410 Q 520 388 444 378 C 414 374 436 346 464 356 Q 501 371 565 377 Q 581 378 588 374 Q 595 361 598 320 Q 602 202 595 179 Z" fill="lightgray" class="hide"/>
    <path d="M 509 286 Q 513 112 446 54 Q 424 33 375 6 Q 368 2 365 0 Q 362 -4 372 -5 Q 396 -8 464 32 Q 545 87 545 262 Q 546 283 554 306 Q 557 313 551 318 Q 539 328 516 337 Q 503 343 492 339 Q 480 335 490 323 Q 508 305 509 286 Z" fill="lightgray" class="hide"/>
    <path d="M 580 90 Q 634 21 645 18 Q 652 17 658 25 Q 662 34 661 55 Q 660 74 636 93 Q 579 129 568 126 Q 564 125 563 115 Q 564 108 580 90 Z" fill="lightgray" class="hide"/>
    <path d="M 644 604 Q 677 319 776 149 Q 818 71 880 16 Q 907 -6 921 -8 Q 934 -9 943 1 Q 950 10 944 52 Q 941 118 952 202 Q 956 229 947 231 Q 940 232 930 209 Q 900 109 880 108 Q 838 141 794 221 Q 725 353 687 612 L 681 652 Q 681 653 681 656 Q 677 699 680 733 Q 689 757 685 768 Q 681 777 658 791 Q 639 804 625 806 Q 613 806 613 805 Q 591 801 608 778 Q 614 777 637 674 Q 638 658 640 641 L 644 604 Z" fill="lightgray" class="hide"/>
    <path d="M 744 765 Q 774 743 806 714 Q 818 704 832 704 Q 841 705 845 716 Q 849 729 840 755 Q 834 774 804 788 Q 734 812 720 807 Q 716 803 717 792 Q 721 782 744 765 Z" fill="lightgray" class="hide"/></g><g transform="scale(1, -1) translate(0, -900)">
    <style type="text/css">
        .origin {display:none;}
        .hide {display:none;}
        .stroke {fill: #000000;}
        
.step1 {transform: translateX(1024px);}
.step2 {transform: translateX(2048px);}
.step3 {transform: translateX(3072px);}
.step4 {transform: translateX(4096px);}
.step5 {transform: translateX(5120px);}
.step6 {transform: translateX(6144px);}
.step7 {transform: translateX(7168px);}
.step8 {transform: translateX(8192px);}
.step9 {transform: translateX(9216px);}
.step10 {transform: translateX(10240px);}
.step11 {transform: translateX(11264px);}
.step12 {transform: translateX(12288px);}
.step13 {transform: translateX(13312px);}
.step14 {transform: translateX(14336px);}
.step15 {transform: translateX(15360px);}
.step16 {transform: translateX(16384px);}
.step17 {transform: translateX(17408px);}
.step18 {transform: translateX(18432px);}
.step19 {transform: translateX(19456px);}
.step20 {transform: translateX(20480px);}
.step21 {transform: translateX(21504px);}
.step22 {transform: translateX(22528px);}
.step23 {transform: translateX(23552px);}
.step24 {transform: translateX(24576px);}
.step25 {transform: translateX(25600px);}
.step26 {transform: translateX(26624px);}
.step27 {transform: translateX(27648px);}
.step28 {transform: translateX(28672px);}
.step29 {transform: translateX(29696px);}
    </style>

    <path d="M 205 367 Q 208 385 218 478 L 219 512 Q 222 563 222 629 Q 223 665 229 674 C 232 687 232 687 207 702 Q 174 726 153 717 Q 143 710 149 698 Q 165 677 173 624 Q 173 410 150 308 Q 147 296 144 282 Q 117 191 44 48 Q 40 42 39 36 Q 38 26 46 29 Q 88 44 154 189 Q 160 205 167 221 Q 186 275 198 334 L 205 367 Z" fill="lightgray" class="stroke step5"/>
    <path d="M 229 674 Q 229 675 283 691 Q 302 695 306 686 Q 321 641 326 356 Q 327 127 314 105 Q 308 101 242 115 Q 223 121 225 112 Q 277 69 307 35 Q 320 19 333 14 Q 342 11 349 20 Q 385 66 383 114 Q 370 300 365 601 Q 364 653 376 677 Q 386 695 375 704 Q 356 720 322 733 Q 306 740 292 733 Q 267 718 252 713 Q 236 707 207 702 C 178 696 201 665 229 674 Z" fill="lightgray" class="stroke step5"/>
    <path d="M 218 478 Q 255 485 285 488 Q 307 494 298 505 Q 286 518 262 520 Q 244 521 219 512 C 191 502 189 472 218 478 Z" fill="lightgray" class="stroke step5"/>
    <path d="M 198 334 Q 249 343 285 348 Q 307 354 298 365 Q 286 378 262 380 Q 240 381 205 367 C 177 356 168 329 198 334 Z" fill="lightgray" class="stroke step5"/>
    <path d="M 687 612 Q 747 622 796 630 Q 806 629 814 640 Q 814 650 794 660 Q 761 678 685 653 Q 682 653 681 652 L 640 641 Q 633 640 627 638 Q 576 626 407 598 Q 382 594 402 579 Q 433 557 457 563 Q 539 584 644 604 L 687 612 Z" fill="lightgray" class="stroke step5"/>
    <path d="M 445 520 Q 417 516 438 503 Q 468 485 511 498 Q 544 505 578 513 Q 594 517 596 519 Q 602 525 599 531 Q 593 540 571 545 Q 562 546 493 529 Q 469 525 445 520 Z" fill="lightgray" class="stroke step5"/>
    <path d="M 401 439 Q 382 435 398 425 Q 417 415 453 420 Q 565 450 619 458 Q 626 458 631 467 Q 631 474 616 480 Q 597 493 525 468 Q 521 468 517 466 Q 460 451 401 439 Z" fill="lightgray" class="hide"/>
    <path d="M 444 378 Q 434 385 420 389 Q 414 390 410 385 Q 407 381 413 373 Q 440 297 417 188 Q 408 181 414 153 Q 421 131 429 122 Q 436 112 444 122 Q 459 146 460 245 Q 460 329 464 356 C 465 365 465 365 444 378 Z" fill="lightgray" class="hide"/>
    <path d="M 595 179 Q 591 163 599 149 Q 609 130 614 131 Q 624 132 634 153 Q 644 169 643 184 Q 624 323 650 363 Q 657 373 652 381 Q 633 397 598 412 Q 588 416 571 410 Q 520 388 444 378 C 414 374 436 346 464 356 Q 501 371 565 377 Q 581 378 588 374 Q 595 361 598 320 Q 602 202 595 179 Z" fill="lightgray" class="hide"/>
    <path d="M 509 286 Q 513 112 446 54 Q 424 33 375 6 Q 368 2 365 0 Q 362 -4 372 -5 Q 396 -8 464 32 Q 545 87 545 262 Q 546 283 554 306 Q 557 313 551 318 Q 539 328 516 337 Q 503 343 492 339 Q 480 335 490 323 Q 508 305 509 286 Z" fill="lightgray" class="hide"/>
    <path d="M 580 90 Q 634 21 645 18 Q 652 17 658 25 Q 662 34 661 55 Q 660 74 636 93 Q 579 129 568 126 Q 564 125 563 115 Q 564 108 580 90 Z" fill="lightgray" class="hide"/>
    <path d="M 644 604 Q 677 319 776 149 Q 818 71 880 16 Q 907 -6 921 -8 Q 934 -9 943 1 Q 950 10 944 52 Q 941 118 952 202 Q 956 229 947 231 Q 940 232 930 209 Q 900 109 880 108 Q 838 141 794 221 Q 725 353 687 612 L 681 652 Q 681 653 681 656 Q 677 699 680 733 Q 689 757 685 768 Q 681 777 658 791 Q 639 804 625 806 Q 613 806 613 805 Q 591 801 608 778 Q 614 777 637 674 Q 638 658 640 641 L 644 604 Z" fill="lightgray" class="hide"/>
    <path d="M 744 765 Q 774 743 806 714 Q 818 704 832 704 Q 841 705 845 716 Q 849 729 840 755 Q 834 774 804 788 Q 734 812 720 807 Q 716 803 717 792 Q 721 782 744 765 Z" fill="lightgray" class="hide"/></g><g transform="scale(1, -1) translate(0, -900)">
    <style type="text/css">
        .origin {display:none;}
        .hide {display:none;}
        .stroke {fill: #000000;}
        
.step1 {transform: translateX(1024px);}
.step2 {transform: translateX(2048px);}
.step3 {transform: translateX(3072px);}
.step4 {transform: translateX(4096px);}
.step5 {transform: translateX(5120px);}
.step6 {transform: translateX(6144px);}
.step7 {transform: translateX(7168px);}
.step8 {transform: translateX(8192px);}
.step9 {transform: translateX(9216px);}
.step10 {transform: translateX(10240px);}
.step11 {transform: translateX(11264px);}
.step12 {transform: translateX(12288px);}
.step13 {transform: translateX(13312px);}
.step14 {transform: translateX(14336px);}
.step15 {transform: translateX(15360px);}
.step16 {transform: translateX(16384px);}
.step17 {transform: translateX(17408px);}
.step18 {transform: translateX(18432px);}
.step19 {transform: translateX(19456px);}
.step20 {transform: translateX(20480px);}
.step21 {transform: translateX(21504px);}
.step22 {transform: translateX(22528px);}
.step23 {transform: translateX(23552px);}
.step24 {transform: translateX(24576px);}
.step25 {transform: translateX(25600px);}
.step26 {transform: translateX(26624px);}
.step27 {transform: translateX(27648px);}
.step28 {transform: translateX(28672px);}
.step29 {transform: translateX(29696px);}
    </style>

    <path d="M 205 367 Q 208 385 218 478 L 219 512 Q 222 563 222 629 Q 223 665 229 674 C 232 687 232 687 207 702 Q 174 726 153 717 Q 143 710 149 698 Q 165 677 173 624 Q 173 410 150 308 Q 147 296 144 282 Q 117 191 44 48 Q 40 42 39 36 Q 38 26 46 29 Q 88 44 154 189 Q 160 205 167 221 Q 186 275 198 334 L 205 367 Z" fill="lightgray" class="stroke step6"/>
    <path d="M 229 674 Q 229 675 283 691 Q 302 695 306 686 Q 321 641 326 356 Q 327 127 314 105 Q 308 101 242 115 Q 223 121 225 112 Q 277 69 307 35 Q 320 19 333 14 Q 342 11 349 20 Q 385 66 383 114 Q 370 300 365 601 Q 364 653 376 677 Q 386 695 375 704 Q 356 720 322 733 Q 306 740 292 733 Q 267 718 252 713 Q 236 707 207 702 C 178 696 201 665 229 674 Z" fill="lightgray" class="stroke step6"/>
    <path d="M 218 478 Q 255 485 285 488 Q 307 494 298 505 Q 286 518 262 520 Q 244 521 219 512 C 191 502 189 472 218 478 Z" fill="lightgray" class="stroke step6"/>
    <path d="M 198 334 Q 249 343 285 348 Q 307 354 298 365 Q 286 378 262 380 Q 240 381 205 367 C 177 356 168 329 198 334 Z" fill="lightgray" class="stroke step6"/>
    <path d="M 687 612 Q 747 622 796 630 Q 806 629 814 640 Q 814 650 794 660 Q 761 678 685 653 Q 682 653 681 652 L 640 641 Q 633 640 627 638 Q 576 626 407 598 Q 382 594 402 579 Q 433 557 457 563 Q 539 584 644 604 L 687 612 Z" fill="lightgray" class="stroke step6"/>
    <path d="M 445 520 Q 417 516 438 503 Q 468 485 511 498 Q 544 505 578 513 Q 594 517 596 519 Q 602 525 599 531 Q 593 540 571 545 Q 562 546 493 529 Q 469 525 445 520 Z" fill="lightgray" class="stroke step6"/>
    <path d="M 401 439 Q 382 435 398 425 Q 417 415 453 420 Q 565 450 619 458 Q 626 458 631 467 Q 631 474 616 480 Q 597 493 525 468 Q 521 468 517 466 Q 460 451 401 439 Z" fill="lightgray" class="stroke step6"/>
    <path d="M 444 378 Q 434 385 420 389 Q 414 390 410 385 Q 407 381 413 373 Q 440 297 417 188 Q 408 181 414 153 Q 421 131 429 122 Q 436 112 444 122 Q 459 146 460 245 Q 460 329 464 356 C 465 365 465 365 444 378 Z" fill="lightgray" class="hide"/>
    <path d="M 595 179 Q 591 163 599 149 Q 609 130 614 131 Q 624 132 634 153 Q 644 169 643 184 Q 624 323 650 363 Q 657 373 652 381 Q 633 397 598 412 Q 588 416 571 410 Q 520 388 444 378 C 414 374 436 346 464 356 Q 501 371 565 377 Q 581 378 588 374 Q 595 361 598 320 Q 602 202 595 179 Z" fill="lightgray" class="hide"/>
    <path d="M 509 286 Q 513 112 446 54 Q 424 33 375 6 Q 368 2 365 0 Q 362 -4 372 -5 Q 396 -8 464 32 Q 545 87 545 262 Q 546 283 554 306 Q 557 313 551 318 Q 539 328 516 337 Q 503 343 492 339 Q 480 335 490 323 Q 508 305 509 286 Z" fill="lightgray" class="hide"/>
    <path d="M 580 90 Q 634 21 645 18 Q 652 17 658 25 Q 662 34 661 55 Q 660 74 636 93 Q 579 129 568 126 Q 564 125 563 115 Q 564 108 580 90 Z" fill="lightgray" class="hide"/>
    <path d="M 644 604 Q 677 319 776 149 Q 818 71 880 16 Q 907 -6 921 -8 Q 934 -9 943 1 Q 950 10 944 52 Q 941 118 952 202 Q 956 229 947 231 Q 940 232 930 209 Q 900 109 880 108 Q 838 141 794 221 Q 725 353 687 612 L 681 652 Q 681 653 681 656 Q 677 699 680 733 Q 689 757 685 768 Q 681 777 658 791 Q 639 804 625 806 Q 613 806 613 805 Q 591 801 608 778 Q 614 777 637 674 Q 638 658 640 641 L 644 604 Z" fill="lightgray" class="hide"/>
    <path d="M 744 765 Q 774 743 806 714 Q 818 704 832 704 Q 841 705 845 716 Q 849 729 840 755 Q 834 774 804 788 Q 734 812 720 807 Q 716 803 717 792 Q 721 782 744 765 Z" fill="lightgray" class="hide"/></g><g transform="scale(1, -1) translate(0, -900)">
    <style type="text/css">
        .origin {display:none;}
        .hide {display:none;}
        .stroke {fill: #000000;}
        
.step1 {transform: translateX(1024px);}
.step2 {transform: translateX(2048px);}
.step3 {transform: translateX(3072px);}
.step4 {transform: translateX(4096px);}
.step5 {transform: translateX(5120px);}
.step6 {transform: translateX(6144px);}
.step7 {transform: translateX(7168px);}
.step8 {transform: translateX(8192px);}
.step9 {transform: translateX(9216px);}
.step10 {transform: translateX(10240px);}
.step11 {transform: translateX(11264px);}
.step12 {transform: translateX(12288px);}
.step13 {transform: translateX(13312px);}
.step14 {transform: translateX(14336px);}
.step15 {transform: translateX(15360px);}
.step16 {transform: translateX(16384px);}
.step17 {transform: translateX(17408px);}
.step18 {transform: translateX(18432px);}
.step19 {transform: translateX(19456px);}
.step20 {transform: translateX(20480px);}
.step21 {transform: translateX(21504px);}
.step22 {transform: translateX(22528px);}
.step23 {transform: translateX(23552px);}
.step24 {transform: translateX(24576px);}
.step25 {transform: translateX(25600px);}
.step26 {transform: translateX(26624px);}
.step27 {transform: translateX(27648px);}
.step28 {transform: translateX(28672px);}
.step29 {transform: translateX(29696px);}
    </style>

    <path d="M 205 367 Q 208 385 218 478 L 219 512 Q 222 563 222 629 Q 223 665 229 674 C 232 687 232 687 207 702 Q 174 726 153 717 Q 143 710 149 698 Q 165 677 173 624 Q 173 410 150 308 Q 147 296 144 282 Q 117 191 44 48 Q 40 42 39 36 Q 38 26 46 29 Q 88 44 154 189 Q 160 205 167 221 Q 186 275 198 334 L 205 367 Z" fill="lightgray" class="stroke step7"/>
    <path d="M 229 674 Q 229 675 283 691 Q 302 695 306 686 Q 321 641 326 356 Q 327 127 314 105 Q 308 101 242 115 Q 223 121 225 112 Q 277 69 307 35 Q 320 19 333 14 Q 342 11 349 20 Q 385 66 383 114 Q 370 300 365 601 Q 364 653 376 677 Q 386 695 375 704 Q 356 720 322 733 Q 306 740 292 733 Q 267 718 252 713 Q 236 707 207 702 C 178 696 201 665 229 674 Z" fill="lightgray" class="stroke step7"/>
    <path d="M 218 478 Q 255 485 285 488 Q 307 494 298 505 Q 286 518 262 520 Q 244 521 219 512 C 191 502 189 472 218 478 Z" fill="lightgray" class="stroke step7"/>
    <path d="M 198 334 Q 249 343 285 348 Q 307 354 298 365 Q 286 378 262 380 Q 240 381 205 367 C 177 356 168 329 198 334 Z" fill="lightgray" class="stroke step7"/>
    <path d="M 687 612 Q 747 622 796 630 Q 806 629 814 640 Q 814 650 794 660 Q 761 678 685 653 Q 682 653 681 652 L 640 641 Q 633 640 627 638 Q 576 626 407 598 Q 382 594 402 579 Q 433 557 457 563 Q 539 584 644 604 L 687 612 Z" fill="lightgray" class="stroke step7"/>
    <path d="M 445 520 Q 417 516 438 503 Q 468 485 511 498 Q 544 505 578 513 Q 594 517 596 519 Q 602 525 599 531 Q 593 540 571 545 Q 562 546 493 529 Q 469 525 445 520 Z" fill="lightgray" class="stroke step7"/>
    <path d="M 401 439 Q 382 435 398 425 Q 417 415 453 420 Q 565 450 619 458 Q 626 458 631 467 Q 631 474 616 480 Q 597 493 525 468 Q 521 468 517 466 Q 460 451 401 439 Z" fill="lightgray" class="stroke step7"/>
    <path d="M 444 378 Q 434 385 420 389 Q 414 390 410 385 Q 407 381 413 373 Q 440 297 417 188 Q 408 181 414 153 Q 421 131 429 122 Q 436 112 444 122 Q 459 146 460 245 Q 460 329 464 356 C 465 365 465 365 444 378 Z" fill="lightgray" class="stroke step7"/>
    <path d="M 595 179 Q 591 163 599 149 Q 609 130 614 131 Q 624 132 634 153 Q 644 169 643 184 Q 624 323 650 363 Q 657 373 652 381 Q 633 397 598 412 Q 588 416 571 410 Q 520 388 444 378 C 414 374 436 346 464 356 Q 501 371 565 377 Q 581 378 588 374 Q 595 361 598 320 Q 602 202 595 179 Z" fill="lightgray" class="hide"/>
    <path d="M 509 286 Q 513 112 446 54 Q 424 33 375 6 Q 368 2 365 0 Q 362 -4 372 -5 Q 396 -8 464 32 Q 545 87 545 262 Q 546 283 554 306 Q 557 313 551 318 Q 539 328 516 337 Q 503 343 492 339 Q 480 335 490 323 Q 508 305 509 286 Z" fill="lightgray" class="hide"/>
    <path d="M 580 90 Q 634 21 645 18 Q 652 17 658 25 Q 662 34 661 55 Q 660 74 636 93 Q 579 129 568 126 Q 564 125 563 115 Q 564 108 580 90 Z" fill="lightgray" class="hide"/>
    <path d="M 644 604 Q 677 319 776 149 Q 818 71 880 16 Q 907 -6 921 -8 Q 934 -9 943 1 Q 950 10 944 52 Q 941 118 952 202 Q 956 229 947 231 Q 940 232 930 209 Q 900 109 880 108 Q 838 141 794 221 Q 725 353 687 612 L 681 652 Q 681 653 681 656 Q 677 699 680 733 Q 689 757 685 768 Q 681 777 658 791 Q 639 804 625 806 Q 613 806 613 805 Q 591 801 608 778 Q 614 777 637 674 Q 638 658 640 641 L 644 604 Z" fill="lightgray" class="hide"/>
    <path d="M 744 765 Q 774 743 806 714 Q 818 704 832 704 Q 841 705 845 716 Q 849 729 840 755 Q 834 774 804 788 Q 734 812 720 807 Q 716 803 717 792 Q 721 782 744 765 Z" fill="lightgray" class="hide"/></g><g transform="scale(1, -1) translate(0, -900)">
    <style type="text/css">
        .origin {display:none;}
        .hide {display:none;}
        .stroke {fill: #000000;}
        
.step1 {transform: translateX(1024px);}
.step2 {transform: translateX(2048px);}
.step3 {transform: translateX(3072px);}
.step4 {transform: translateX(4096px);}
.step5 {transform: translateX(5120px);}
.step6 {transform: translateX(6144px);}
.step7 {transform: translateX(7168px);}
.step8 {transform: translateX(8192px);}
.step9 {transform: translateX(9216px);}
.step10 {transform: translateX(10240px);}
.step11 {transform: translateX(11264px);}
.step12 {transform: translateX(12288px);}
.step13 {transform: translateX(13312px);}
.step14 {transform: translateX(14336px);}
.step15 {transform: translateX(15360px);}
.step16 {transform: translateX(16384px);}
.step17 {transform: translateX(17408px);}
.step18 {transform: translateX(18432px);}
.step19 {transform: translateX(19456px);}
.step20 {transform: translateX(20480px);}
.step21 {transform: translateX(21504px);}
.step22 {transform: translateX(22528px);}
.step23 {transform: translateX(23552px);}
.step24 {transform: translateX(24576px);}
.step25 {transform: translateX(25600px);}
.step26 {transform: translateX(26624px);}
.step27 {transform: translateX(27648px);}
.step28 {transform: translateX(28672px);}
.step29 {transform: translateX(29696px);}
    </style>

    <path d="M 205 367 Q 208 385 218 478 L 219 512 Q 222 563 222 629 Q 223 665 229 674 C 232 687 232 687 207 702 Q 174 726 153 717 Q 143 710 149 698 Q 165 677 173 624 Q 173 410 150 308 Q 147 296 144 282 Q 117 191 44 48 Q 40 42 39 36 Q 38 26 46 29 Q 88 44 154 189 Q 160 205 167 221 Q 186 275 198 334 L 205 367 Z" fill="lightgray" class="stroke step8"/>
    <path d="M 229 674 Q 229 675 283 691 Q 302 695 306 686 Q 321 641 326 356 Q 327 127 314 105 Q 308 101 242 115 Q 223 121 225 112 Q 277 69 307 35 Q 320 19 333 14 Q 342 11 349 20 Q 385 66 383 114 Q 370 300 365 601 Q 364 653 376 677 Q 386 695 375 704 Q 356 720 322 733 Q 306 740 292 733 Q 267 718 252 713 Q 236 707 207 702 C 178 696 201 665 229 674 Z" fill="lightgray" class="stroke step8"/>
    <path d="M 218 478 Q 255 485 285 488 Q 307 494 298 505 Q 286 518 262 520 Q 244 521 219 512 C 191 502 189 472 218 478 Z" fill="lightgray" class="stroke step8"/>
    <path d="M 198 334 Q 249 343 285 348 Q 307 354 298 365 Q 286 378 262 380 Q 240 381 205 367 C 177 356 168 329 198 334 Z" fill="lightgray" class="stroke step8"/>
    <path d="M 687 612 Q 747 622 796 630 Q 806 629 814 640 Q 814 650 794 660 Q 761 678 685 653 Q 682 653 681 652 L 640 641 Q 633 640 627 638 Q 576 626 407 598 Q 382 594 402 579 Q 433 557 457 563 Q 539 584 644 604 L 687 612 Z" fill="lightgray" class="stroke step8"/>
    <path d="M 445 520 Q 417 516 438 503 Q 468 485 511 498 Q 544 505 578 513 Q 594 517 596 519 Q 602 525 599 531 Q 593 540 571 545 Q 562 546 493 529 Q 469 525 445 520 Z" fill="lightgray" class="stroke step8"/>
    <path d="M 401 439 Q 382 435 398 425 Q 417 415 453 420 Q 565 450 619 458 Q 626 458 631 467 Q 631 474 616 480 Q 597 493 525 468 Q 521 468 517 466 Q 460 451 401 439 Z" fill="lightgray" class="stroke step8"/>
    <path d="M 444 378 Q 434 385 420 389 Q 414 390 410 385 Q 407 381 413 373 Q 440 297 417 188 Q 408 181 414 153 Q 421 131 429 122 Q 436 112 444 122 Q 459 146 460 245 Q 460 329 464 356 C 465 365 465 365 444 378 Z" fill="lightgray" class="stroke step8"/>
    <path d="M 595 179 Q 591 163 599 149 Q 609 130 614 131 Q 624 132 634 153 Q 644 169 643 184 Q 624 323 650 363 Q 657 373 652 381 Q 633 397 598 412 Q 588 416 571 410 Q 520 388 444 378 C 414 374 436 346 464 356 Q 501 371 565 377 Q 581 378 588 374 Q 595 361 598 320 Q 602 202 595 179 Z" fill="lightgray" class="stroke step8"/>
    <path d="M 509 286 Q 513 112 446 54 Q 424 33 375 6 Q 368 2 365 0 Q 362 -4 372 -5 Q 396 -8 464 32 Q 545 87 545 262 Q 546 283 554 306 Q 557 313 551 318 Q 539 328 516 337 Q 503 343 492 339 Q 480 335 490 323 Q 508 305 509 286 Z" fill="lightgray" class="hide"/>
    <path d="M 580 90 Q 634 21 645 18 Q 652 17 658 25 Q 662 34 661 55 Q 660 74 636 93 Q 579 129 568 126 Q 564 125 563 115 Q 564 108 580 90 Z" fill="lightgray" class="hide"/>
    <path d="M 644 604 Q 677 319 776 149 Q 818 71 880 16 Q 907 -6 921 -8 Q 934 -9 943 1 Q 950 10 944 52 Q 941 118 952 202 Q 956 229 947 231 Q 940 232 930 209 Q 900 109 880 108 Q 838 141 794 221 Q 725 353 687 612 L 681 652 Q 681 653 681 656 Q 677 699 680 733 Q 689 757 685 768 Q 681 777 658 791 Q 639 804 625 806 Q 613 806 613 805 Q 591 801 608 778 Q 614 777 637 674 Q 638 658 640 641 L 644 604 Z" fill="lightgray" class="hide"/>
    <path d="M 744 765 Q 774 743 806 714 Q 818 704 832 704 Q 841 705 845 716 Q 849 729 840 755 Q 834 774 804 788 Q 734 812 720 807 Q 716 803 717 792 Q 721 782 744 765 Z" fill="lightgray" class="hide"/></g><g transform="scale(1, -1) translate(0, -900)">
    <style type="text/css">
        .origin {display:none;}
        .hide {display:none;}
        .stroke {fill: #000000;}
        
.step1 {transform: translateX(1024px);}
.step2 {transform: translateX(2048px);}
.step3 {transform: translateX(3072px);}
.step4 {transform: translateX(4096px);}
.step5 {transform: translateX(5120px);}
.step6 {transform: translateX(6144px);}
.step7 {transform: translateX(7168px);}
.step8 {transform: translateX(8192px);}
.step9 {transform: translateX(9216px);}
.step10 {transform: translateX(10240px);}
.step11 {transform: translateX(11264px);}
.step12 {transform: translateX(12288px);}
.step13 {transform: translateX(13312px);}
.step14 {transform: translateX(14336px);}
.step15 {transform: translateX(15360px);}
.step16 {transform: translateX(16384px);}
.step17 {transform: translateX(17408px);}
.step18 {transform: translateX(18432px);}
.step19 {transform: translateX(19456px);}
.step20 {transform: translateX(20480px);}
.step21 {transform: translateX(21504px);}
.step22 {transform: translateX(22528px);}
.step23 {transform: translateX(23552px);}
.step24 {transform: translateX(24576px);}
.step25 {transform: translateX(25600px);}
.step26 {transform: translateX(26624px);}
.step27 {transform: translateX(27648px);}
.step28 {transform: translateX(28672px);}
.step29 {transform: translateX(29696px);}
    </style>

    <path d="M 205 367 Q 208 385 218 478 L 219 512 Q 222 563 222 629 Q 223 665 229 674 C 232 687 232 687 207 702 Q 174 726 153 717 Q 143 710 149 698 Q 165 677 173 624 Q 173 410 150 308 Q 147 296 144 282 Q 117 191 44 48 Q 40 42 39 36 Q 38 26 46 29 Q 88 44 154 189 Q 160 205 167 221 Q 186 275 198 334 L 205 367 Z" fill="lightgray" class="stroke step9"/>
    <path d="M 229 674 Q 229 675 283 691 Q 302 695 306 686 Q 321 641 326 356 Q 327 127 314 105 Q 308 101 242 115 Q 223 121 225 112 Q 277 69 307 35 Q 320 19 333 14 Q 342 11 349 20 Q 385 66 383 114 Q 370 300 365 601 Q 364 653 376 677 Q 386 695 375 704 Q 356 720 322 733 Q 306 740 292 733 Q 267 718 252 713 Q 236 707 207 702 C 178 696 201 665 229 674 Z" fill="lightgray" class="stroke step9"/>
    <path d="M 218 478 Q 255 485 285 488 Q 307 494 298 505 Q 286 518 262 520 Q 244 521 219 512 C 191 502 189 472 218 478 Z" fill="lightgray" class="stroke step9"/>
    <path d="M 198 334 Q 249 343 285 348 Q 307 354 298 365 Q 286 378 262 380 Q 240 381 205 367 C 177 356 168 329 198 334 Z" fill="lightgray" class="stroke step9"/>
    <path d="M 687 612 Q 747 622 796 630 Q 806 629 814 640 Q 814 650 794 660 Q 761 678 685 653 Q 682 653 681 652 L 640 641 Q 633 640 627 638 Q 576 626 407 598 Q 382 594 402 579 Q 433 557 457 563 Q 539 584 644 604 L 687 612 Z" fill="lightgray" class="stroke step9"/>
    <path d="M 445 520 Q 417 516 438 503 Q 468 485 511 498 Q 544 505 578 513 Q 594 517 596 519 Q 602 525 599 531 Q 593 540 571 545 Q 562 546 493 529 Q 469 525 445 520 Z" fill="lightgray" class="stroke step9"/>
    <path d="M 401 439 Q 382 435 398 425 Q 417 415 453 420 Q 565 450 619 458 Q 626 458 631 467 Q 631 474 616 480 Q 597 493 525 468 Q 521 468 517 466 Q 460 451 401 439 Z" fill="lightgray" class="stroke step9"/>
    <path d="M 444 378 Q 434 385 420 389 Q 414 390 410 385 Q 407 381 413 373 Q 440 297 417 188 Q 408 181 414 153 Q 421 131 429 122 Q 436 112 444 122 Q 459 146 460 245 Q 460 329 464 356 C 465 365 465 365 444 378 Z" fill="lightgray" class="stroke step9"/>
    <path d="M 595 179 Q 591 163 599 149 Q 609 130 614 131 Q 624 132 634 153 Q 644 169 643 184 Q 624 323 650 363 Q 657 373 652 381 Q 633 397 598 412 Q 588 416 571 410 Q 520 388 444 378 C 414 374 436 346 464 356 Q 501 371 565 377 Q 581 378 588 374 Q 595 361 598 320 Q 602 202 595 179 Z" fill="lightgray" class="stroke step9"/>
    <path d="M 509 286 Q 513 112 446 54 Q 424 33 375 6 Q 368 2 365 0 Q 362 -4 372 -5 Q 396 -8 464 32 Q 545 87 545 262 Q 546 283 554 306 Q 557 313 551 318 Q 539 328 516 337 Q 503 343 492 339 Q 480 335 490 323 Q 508 305 509 286 Z" fill="lightgray" class="stroke step9"/>
    <path d="M 580 90 Q 634 21 645 18 Q 652 17 658 25 Q 662 34 661 55 Q 660 74 636 93 Q 579 129 568 126 Q 564 125 563 115 Q 564 108 580 90 Z" fill="lightgray" class="hide"/>
    <path d="M 644 604 Q 677 319 776 149 Q 818 71 880 16 Q 907 -6 921 -8 Q 934 -9 943 1 Q 950 10 944 52 Q 941 118 952 202 Q 956 229 947 231 Q 940 232 930 209 Q 900 109 880 108 Q 838 141 794 221 Q 725 353 687 612 L 681 652 Q 681 653 681 656 Q 677 699 680 733 Q 689 757 685 768 Q 681 777 658 791 Q 639 804 625 806 Q 613 806 613 805 Q 591 801 608 778 Q 614 777 637 674 Q 638 658 640 641 L 644 604 Z" fill="lightgray" class="hide"/>
    <path d="M 744 765 Q 774 743 806 714 Q 818 704 832 704 Q 841 705 845 716 Q 849 729 840 755 Q 834 774 804 788 Q 734 812 720 807 Q 716 803 717 792 Q 721 782 744 765 Z" fill="lightgray" class="hide"/></g><g transform="scale(1, -1) translate(0, -900)">
    <style type="text/css">
        .origin {display:none;}
        .hide {display:none;}
        .stroke {fill: #000000;}
        
.step1 {transform: translateX(1024px);}
.step2 {transform: translateX(2048px);}
.step3 {transform: translateX(3072px);}
.step4 {transform: translateX(4096px);}
.step5 {transform: translateX(5120px);}
.step6 {transform: translateX(6144px);}
.step7 {transform: translateX(7168px);}
.step8 {transform: translateX(8192px);}
.step9 {transform: translateX(9216px);}
.step10 {transform: translateX(10240px);}
.step11 {transform: translateX(11264px);}
.step12 {transform: translateX(12288px);}
.step13 {transform: translateX(13312px);}
.step14 {transform: translateX(14336px);}
.step15 {transform: translateX(15360px);}
.step16 {transform: translateX(16384px);}
.step17 {transform: translateX(17408px);}
.step18 {transform: translateX(18432px);}
.step19 {transform: translateX(19456px);}
.step20 {transform: translateX(20480px);}
.step21 {transform: translateX(21504px);}
.step22 {transform: translateX(22528px);}
.step23 {transform: translateX(23552px);}
.step24 {transform: translateX(24576px);}
.step25 {transform: translateX(25600px);}
.step26 {transform: translateX(26624px);}
.step27 {transform: translateX(27648px);}
.step28 {transform: translateX(28672px);}
.step29 {transform: translateX(29696px);}
    </style>

    <path d="M 205 367 Q 208 385 218 478 L 219 512 Q 222 563 222 629 Q 223 665 229 674 C 232 687 232 687 207 702 Q 174 726 153 717 Q 143 710 149 698 Q 165 677 173 624 Q 173 410 150 308 Q 147 296 144 282 Q 117 191 44 48 Q 40 42 39 36 Q 38 26 46 29 Q 88 44 154 189 Q 160 205 167 221 Q 186 275 198 334 L 205 367 Z" fill="lightgray" class="stroke step10"/>
    <path d="M 229 674 Q 229 675 283 691 Q 302 695 306 686 Q 321 641 326 356 Q 327 127 314 105 Q 308 101 242 115 Q 223 121 225 112 Q 277 69 307 35 Q 320 19 333 14 Q 342 11 349 20 Q 385 66 383 114 Q 370 300 365 601 Q 364 653 376 677 Q 386 695 375 704 Q 356 720 322 733 Q 306 740 292 733 Q 267 718 252 713 Q 236 707 207 702 C 178 696 201 665 229 674 Z" fill="lightgray" class="stroke step10"/>
    <path d="M 218 478 Q 255 485 285 488 Q 307 494 298 505 Q 286 518 262 520 Q 244 521 219 512 C 191 502 189 472 218 478 Z" fill="lightgray" class="stroke step10"/>
    <path d="M 198 334 Q 249 343 285 348 Q 307 354 298 365 Q 286 378 262 380 Q 240 381 205 367 C 177 356 168 329 198 334 Z" fill="lightgray" class="stroke step10"/>
    <path d="M 687 612 Q 747 622 796 630 Q 806 629 814 640 Q 814 650 794 660 Q 761 678 685 653 Q 682 653 681 652 L 640 641 Q 633 640 627 638 Q 576 626 407 598 Q 382 594 402 579 Q 433 557 457 563 Q 539 584 644 604 L 687 612 Z" fill="lightgray" class="stroke step10"/>
    <path d="M 445 520 Q 417 516 438 503 Q 468 485 511 498 Q 544 505 578 513 Q 594 517 596 519 Q 602 525 599 531 Q 593 540 571 545 Q 562 546 493 529 Q 469 525 445 520 Z" fill="lightgray" class="stroke step10"/>
    <path d="M 401 439 Q 382 435 398 425 Q 417 415 453 420 Q 565 450 619 458 Q 626 458 631 467 Q 631 474 616 480 Q 597 493 525 468 Q 521 468 517 466 Q 460 451 401 439 Z" fill="lightgray" class="stroke step10"/>
    <path d="M 444 378 Q 434 385 420 389 Q 414 390 410 385 Q 407 381 413 373 Q 440 297 417 188 Q 408 181 414 153 Q 421 131 429 122 Q 436 112 444 122 Q 459 146 460 245 Q 460 329 464 356 C 465 365 465 365 444 378 Z" fill="lightgray" class="stroke step10"/>
    <path d="M 595 179 Q 591 163 599 149 Q 609 130 614 131 Q 624 132 634 153 Q 644 169 643 184 Q 624 323 650 363 Q 657 373 652 381 Q 633 397 598 412 Q 588 416 571 410 Q 520 388 444 378 C 414 374 436 346 464 356 Q 501 371 565 377 Q 581 378 588 374 Q 595 361 598 320 Q 602 202 595 179 Z" fill="lightgray" class="stroke step10"/>
    <path d="M 509 286 Q 513 112 446 54 Q 424 33 375 6 Q 368 2 365 0 Q 362 -4 372 -5 Q 396 -8 464 32 Q 545 87 545 262 Q 546 283 554 306 Q 557 313 551 318 Q 539 328 516 337 Q 503 343 492 339 Q 480 335 490 323 Q 508 305 509 286 Z" fill="lightgray" class="stroke step10"/>
    <path d="M 580 90 Q 634 21 645 18 Q 652 17 658 25 Q 662 34 661 55 Q 660 74 636 93 Q 579 129 568 126 Q 564 125 563 115 Q 564 108 580 90 Z" fill="lightgray" class="stroke step10"/>
    <path d="M 644 604 Q 677 319 776 149 Q 818 71 880 16 Q 907 -6 921 -8 Q 934 -9 943 1 Q 950 10 944 52 Q 941 118 952 202 Q 956 229 947 231 Q 940 232 930 209 Q 900 109 880 108 Q 838 141 794 221 Q 725 353 687 612 L 681 652 Q 681 653 681 656 Q 677 699 680 733 Q 689 757 685 768 Q 681 777 658 791 Q 639 804 625 806 Q 613 806 613 805 Q 591 801 608 778 Q 614 777 637 674 Q 638 658 640 641 L 644 604 Z" fill="lightgray" class="hide"/>
    <path d="M 744 765 Q 774 743 806 714 Q 818 704 832 704 Q 841 705 845 716 Q 849 729 840 755 Q 834 774 804 788 Q 734 812 720 807 Q 716 803 717 792 Q 721 782 744 765 Z" fill="lightgray" class="hide"/></g><g transform="scale(1, -1) translate(0, -900)">
    <style type="text/css">
        .origin {display:none;}
        .hide {display:none;}
        .stroke {fill: #000000;}
        
.step1 {transform: translateX(1024px);}
.step2 {transform: translateX(2048px);}
.step3 {transform: translateX(3072px);}
.step4 {transform: translateX(4096px);}
.step5 {transform: translateX(5120px);}
.step6 {transform: translateX(6144px);}
.step7 {transform: translateX(7168px);}
.step8 {transform: translateX(8192px);}
.step9 {transform: translateX(9216px);}
.step10 {transform: translateX(10240px);}
.step11 {transform: translateX(11264px);}
.step12 {transform: translateX(12288px);}
.step13 {transform: translateX(13312px);}
.step14 {transform: translateX(14336px);}
.step15 {transform: translateX(15360px);}
.step16 {transform: translateX(16384px);}
.step17 {transform: translateX(17408px);}
.step18 {transform: translateX(18432px);}
.step19 {transform: translateX(19456px);}
.step20 {transform: translateX(20480px);}
.step21 {transform: translateX(21504px);}
.step22 {transform: translateX(22528px);}
.step23 {transform: translateX(23552px);}
.step24 {transform: translateX(24576px);}
.step25 {transform: translateX(25600px);}
.step26 {transform: translateX(26624px);}
.step27 {transform: translateX(27648px);}
.step28 {transform: translateX(28672px);}
.step29 {transform: translateX(29696px);}
    </style>

    <path d="M 205 367 Q 208 385 218 478 L 219 512 Q 222 563 222 629 Q 223 665 229 674 C 232 687 232 687 207 702 Q 174 726 153 717 Q 143 710 149 698 Q 165 677 173 624 Q 173 410 150 308 Q 147 296 144 282 Q 117 191 44 48 Q 40 42 39 36 Q 38 26 46 29 Q 88 44 154 189 Q 160 205 167 221 Q 186 275 198 334 L 205 367 Z" fill="lightgray" class="stroke step11"/>
    <path d="M 229 674 Q 229 675 283 691 Q 302 695 306 686 Q 321 641 326 356 Q 327 127 314 105 Q 308 101 242 115 Q 223 121 225 112 Q 277 69 307 35 Q 320 19 333 14 Q 342 11 349 20 Q 385 66 383 114 Q 370 300 365 601 Q 364 653 376 677 Q 386 695 375 704 Q 356 720 322 733 Q 306 740 292 733 Q 267 718 252 713 Q 236 707 207 702 C 178 696 201 665 229 674 Z" fill="lightgray" class="stroke step11"/>
    <path d="M 218 478 Q 255 485 285 488 Q 307 494 298 505 Q 286 518 262 520 Q 244 521 219 512 C 191 502 189 472 218 478 Z" fill="lightgray" class="stroke step11"/>
    <path d="M 198 334 Q 249 343 285 348 Q 307 354 298 365 Q 286 378 262 380 Q 240 381 205 367 C 177 356 168 329 198 334 Z" fill="lightgray" class="stroke step11"/>
    <path d="M 687 612 Q 747 622 796 630 Q 806 629 814 640 Q 814 650 794 660 Q 761 678 685 653 Q 682 653 681 652 L 640 641 Q 633 640 627 638 Q 576 626 407 598 Q 382 594 402 579 Q 433 557 457 563 Q 539 584 644 604 L 687 612 Z" fill="lightgray" class="stroke step11"/>
    <path d="M 445 520 Q 417 516 438 503 Q 468 485 511 498 Q 544 505 578 513 Q 594 517 596 519 Q 602 525 599 531 Q 593 540 571 545 Q 562 546 493 529 Q 469 525 445 520 Z" fill="lightgray" class="stroke step11"/>
    <path d="M 401 439 Q 382 435 398 425 Q 417 415 453 420 Q 565 450 619 458 Q 626 458 631 467 Q 631 474 616 480 Q 597 493 525 468 Q 521 468 517 466 Q 460 451 401 439 Z" fill="lightgray" class="stroke step11"/>
    <path d="M 444 378 Q 434 385 420 389 Q 414 390 410 385 Q 407 381 413 373 Q 440 297 417 188 Q 408 181 414 153 Q 421 131 429 122 Q 436 112 444 122 Q 459 146 460 245 Q 460 329 464 356 C 465 365 465 365 444 378 Z" fill="lightgray" class="stroke step11"/>
    <path d="M 595 179 Q 591 163 599 149 Q 609 130 614 131 Q 624 132 634 153 Q 644 169 643 184 Q 624 323 650 363 Q 657 373 652 381 Q 633 397 598 412 Q 588 416 571 410 Q 520 388 444 378 C 414 374 436 346 464 356 Q 501 371 565 377 Q 581 378 588 374 Q 595 361 598 320 Q 602 202 595 179 Z" fill="lightgray" class="stroke step11"/>
    <path d="M 509 286 Q 513 112 446 54 Q 424 33 375 6 Q 368 2 365 0 Q 362 -4 372 -5 Q 396 -8 464 32 Q 545 87 545 262 Q 546 283 554 306 Q 557 313 551 318 Q 539 328 516 337 Q 503 343 492 339 Q 480 335 490 323 Q 508 305 509 286 Z" fill="lightgray" class="stroke step11"/>
    <path d="M 580 90 Q 634 21 645 18 Q 652 17 658 25 Q 662 34 661 55 Q 660 74 636 93 Q 579 129 568 126 Q 564 125 563 115 Q 564 108 580 90 Z" fill="lightgray" class="stroke step11"/>
    <path d="M 644 604 Q 677 319 776 149 Q 818 71 880 16 Q 907 -6 921 -8 Q 934 -9 943 1 Q 950 10 944 52 Q 941 118 952 202 Q 956 229 947 231 Q 940 232 930 209 Q 900 109 880 108 Q 838 141 794 221 Q 725 353 687 612 L 681 652 Q 681 653 681 656 Q 677 699 680 733 Q 689 757 685 768 Q 681 777 658 791 Q 639 804 625 806 Q 613 806 613 805 Q 591 801 608 778 Q 614 777 637 674 Q 638 658 640 641 L 644 604 Z" fill="lightgray" class="stroke step11"/>
    <path d="M 744 765 Q 774 743 806 714 Q 818 704 832 704 Q 841 705 845 716 Q 849 729 840 755 Q 834 774 804 788 Q 734 812 720 807 Q 716 803 717 792 Q 721 782 744 765 Z" fill="lightgray" class="hide"/></g><g transform="scale(1, -1) translate(0, -900)">
    <style type="text/css">
        .origin {display:none;}
        .hide {display:none;}
        .stroke {fill: #000000;}
        
.step1 {transform: translateX(1024px);}
.step2 {transform: translateX(2048px);}
.step3 {transform: translateX(3072px);}
.step4 {transform: translateX(4096px);}
.step5 {transform: translateX(5120px);}
.step6 {transform: translateX(6144px);}
.step7 {transform: translateX(7168px);}
.step8 {transform: translateX(8192px);}
.step9 {transform: translateX(9216px);}
.step10 {transform: translateX(10240px);}
.step11 {transform: translateX(11264px);}
.step12 {transform: translateX(12288px);}
.step13 {transform: translateX(13312px);}
.step14 {transform: translateX(14336px);}
.step15 {transform: translateX(15360px);}
.step16 {transform: translateX(16384px);}
.step17 {transform: translateX(17408px);}
.step18 {transform: translateX(18432px);}
.step19 {transform: translateX(19456px);}
.step20 {transform: translateX(20480px);}
.step21 {transform: translateX(21504px);}
.step22 {transform: translateX(22528px);}
.step23 {transform: translateX(23552px);}
.step24 {transform: translateX(24576px);}
.step25 {transform: translateX(25600px);}
.step26 {transform: translateX(26624px);}
.step27 {transform: translateX(27648px);}
.step28 {transform: translateX(28672px);}
.step29 {transform: translateX(29696px);}
    </style>

    <path d="M 205 367 Q 208 385 218 478 L 219 512 Q 222 563 222 629 Q 223 665 229 674 C 232 687 232 687 207 702 Q 174 726 153 717 Q 143 710 149 698 Q 165 677 173 624 Q 173 410 150 308 Q 147 296 144 282 Q 117 191 44 48 Q 40 42 39 36 Q 38 26 46 29 Q 88 44 154 189 Q 160 205 167 221 Q 186 275 198 334 L 205 367 Z" fill="lightgray" class="stroke step12"/>
    <path d="M 229 674 Q 229 675 283 691 Q 302 695 306 686 Q 321 641 326 356 Q 327 127 314 105 Q 308 101 242 115 Q 223 121 225 112 Q 277 69 307 35 Q 320 19 333 14 Q 342 11 349 20 Q 385 66 383 114 Q 370 300 365 601 Q 364 653 376 677 Q 386 695 375 704 Q 356 720 322 733 Q 306 740 292 733 Q 267 718 252 713 Q 236 707 207 702 C 178 696 201 665 229 674 Z" fill="lightgray" class="stroke step12"/>
    <path d="M 218 478 Q 255 485 285 488 Q 307 494 298 505 Q 286 518 262 520 Q 244 521 219 512 C 191 502 189 472 218 478 Z" fill="lightgray" class="stroke step12"/>
    <path d="M 198 334 Q 249 343 285 348 Q 307 354 298 365 Q 286 378 262 380 Q 240 381 205 367 C 177 356 168 329 198 334 Z" fill="lightgray" class="stroke step12"/>
    <path d="M 687 612 Q 747 622 796 630 Q 806 629 814 640 Q 814 650 794 660 Q 761 678 685 653 Q 682 653 681 652 L 640 641 Q 633 640 627 638 Q 576 626 407 598 Q 382 594 402 579 Q 433 557 457 563 Q 539 584 644 604 L 687 612 Z" fill="lightgray" class="stroke step12"/>
    <path d="M 445 520 Q 417 516 438 503 Q 468 485 511 498 Q 544 505 578 513 Q 594 517 596 519 Q 602 525 599 531 Q 593 540 571 545 Q 562 546 493 529 Q 469 525 445 520 Z" fill="lightgray" class="stroke step12"/>
    <path d="M 401 439 Q 382 435 398 425 Q 417 415 453 420 Q 565 450 619 458 Q 626 458 631 467 Q 631 474 616 480 Q 597 493 525 468 Q 521 468 517 466 Q 460 451 401 439 Z" fill="lightgray" class="stroke step12"/>
    <path d="M 444 378 Q 434 385 420 389 Q 414 390 410 385 Q 407 381 413 373 Q 440 297 417 188 Q 408 181 414 153 Q 421 131 429 122 Q 436 112 444 122 Q 459 146 460 245 Q 460 329 464 356 C 465 365 465 365 444 378 Z" fill="lightgray" class="stroke step12"/>
    <path d="M 595 179 Q 591 163 599 149 Q 609 130 614 131 Q 624 132 634 153 Q 644 169 643 184 Q 624 323 650 363 Q 657 373 652 381 Q 633 397 598 412 Q 588 416 571 410 Q 520 388 444 378 C 414 374 436 346 464 356 Q 501 371 565 377 Q 581 378 588 374 Q 595 361 598 320 Q 602 202 595 179 Z" fill="lightgray" class="stroke step12"/>
    <path d="M 509 286 Q 513 112 446 54 Q 424 33 375 6 Q 368 2 365 0 Q 362 -4 372 -5 Q 396 -8 464 32 Q 545 87 545 262 Q 546 283 554 306 Q 557 313 551 318 Q 539 328 516 337 Q 503 343 492 339 Q 480 335 490 323 Q 508 305 509 286 Z" fill="lightgray" class="stroke step12"/>
    <path d="M 580 90 Q 634 21 645 18 Q 652 17 658 25 Q 662 34 661 55 Q 660 74 636 93 Q 579 129 568 126 Q 564 125 563 115 Q 564 108 580 90 Z" fill="lightgray" class="stroke step12"/>
    <path d="M 644 604 Q 677 319 776 149 Q 818 71 880 16 Q 907 -6 921 -8 Q 934 -9 943 1 Q 950 10 944 52 Q 941 118 952 202 Q 956 229 947 231 Q 940 232 930 209 Q 900 109 880 108 Q 838 141 794 221 Q 725 353 687 612 L 681 652 Q 681 653 681 656 Q 677 699 680 733 Q 689 757 685 768 Q 681 777 658 791 Q 639 804 625 806 Q 613 806 613 805 Q 591 801 608 778 Q 614 777 637 674 Q 638 658 640 641 L 644 604 Z" fill="lightgray" class="stroke step12"/>
    <path d="M 744 765 Q 774 743 806 714 Q 818 704 832 704 Q 841 705 845 716 Q 849 729 840 755 Q 834 774 804 788 Q 734 812 720 807 Q 716 803 717 792 Q 721 782 744 765 Z" fill="lightgray" class="stroke step12"/></g></svg>