<svg version="1.1" viewBox="0 0 8192 1024" xmlns="http://www.w3.org/2000/svg">
  
  <g transform="scale(1, -1) translate(0, -900)" class="origin">
    <style type="text/css">
        .origin {display:none;}
        .hide {display:none;}
        .stroke {fill: #000000;}
        
.step1 {transform: translateX(1024px);}
.step2 {transform: translateX(2048px);}
.step3 {transform: translateX(3072px);}
.step4 {transform: translateX(4096px);}
.step5 {transform: translateX(5120px);}
.step6 {transform: translateX(6144px);}
.step7 {transform: translateX(7168px);}
.step8 {transform: translateX(8192px);}
.step9 {transform: translateX(9216px);}
.step10 {transform: translateX(10240px);}
.step11 {transform: translateX(11264px);}
.step12 {transform: translateX(12288px);}
.step13 {transform: translateX(13312px);}
.step14 {transform: translateX(14336px);}
.step15 {transform: translateX(15360px);}
.step16 {transform: translateX(16384px);}
.step17 {transform: translateX(17408px);}
.step18 {transform: translateX(18432px);}
.step19 {transform: translateX(19456px);}
.step20 {transform: translateX(20480px);}
.step21 {transform: translateX(21504px);}
.step22 {transform: translateX(22528px);}
.step23 {transform: translateX(23552px);}
.step24 {transform: translateX(24576px);}
.step25 {transform: translateX(25600px);}
.step26 {transform: translateX(26624px);}
.step27 {transform: translateX(27648px);}
.step28 {transform: translateX(28672px);}
.step29 {transform: translateX(29696px);}
    </style>

    <path d="M 355 694 Q 484 725 487 727 Q 496 734 491 744 Q 484 756 454 763 Q 424 769 330 737 Q 255 719 198 714 Q 194 714 191 712 C 162 705 174 687 204 682 Q 234 675 307 684 Q 313 685 320 686 L 355 694 Z" fill="lightgray"/>
    <path d="M 361 545 Q 370 593 376 631 Q 382 670 371 678 Q 362 688 355 694 C 333 714 312 715 320 686 Q 326 680 317 531 C 315 501 355 516 361 545 Z" fill="lightgray"/>
    <path d="M 437 421 Q 462 469 490 485 Q 506 501 494 518 Q 479 531 432 557 Q 416 564 361 545 L 317 531 Q 310 530 307 529 Q 250 516 192 507 C 162 502 162 492 191 484 Q 218 474 251 484 Q 398 514 406 506 Q 412 497 387 423 C 378 395 423 395 437 421 Z" fill="lightgray"/>
    <path d="M 356 373 Q 399 380 453 385 Q 463 386 464 395 Q 464 404 437 421 C 420 432 416 431 387 423 Q 281 392 194 379 Q 188 379 186 377 C 172 374 172 374 185 362 Q 200 344 237 352 Q 267 361 316 366 L 356 373 Z" fill="lightgray"/>
    <path d="M 358 199 Q 368 296 377 325 Q 386 346 356 373 C 334 394 305 394 316 366 Q 317 365 318 362 Q 321 350 313 190 C 312 160 355 169 358 199 Z" fill="lightgray"/>
    <path d="M 191 712 Q 181 721 159 732 Q 140 742 131 736 Q 124 729 131 714 Q 149 680 149 619 Q 152 412 130 222 Q 129 185 106 151 Q 97 136 106 117 Q 113 96 124 88 Q 134 81 150 93 Q 226 151 444 164 Q 466 165 466 176 Q 465 189 438 205 Q 422 217 358 199 L 313 190 Q 250 183 196 167 Q 187 164 184 167 Q 177 168 177 185 Q 181 269 185 362 L 186 377 Q 187 429 191 484 L 192 507 Q 195 651 204 682 C 207 701 207 701 191 712 Z" fill="lightgray"/>
    <path d="M 642 377 Q 666 467 683 616 Q 687 659 707 710 Q 714 723 704 732 Q 685 751 644 771 Q 620 783 601 777 Q 577 770 595 749 Q 626 713 624 679 Q 617 520 592 417 Q 552 230 437 93 Q 401 57 350 12 Q 337 5 334 -1 Q 330 -8 347 -8 Q 359 -8 407 21 Q 441 40 496 93 Q 574 168 632 342 L 642 377 Z" fill="lightgray"/>
    <path d="M 632 342 Q 642 329 650 311 Q 795 29 826 18 Q 880 6 967 12 Q 983 12 990 18 Q 994 24 985 30 Q 832 120 757 218 Q 709 278 653 363 Q 649 372 642 377 C 623 400 615 367 632 342 Z" fill="lightgray"/></g>
<g transform="scale(1, -1) translate(0, -900)">
    <style type="text/css">
        .origin {display:none;}
        .hide {display:none;}
        .stroke {fill: #000000;}
        
.step1 {transform: translateX(1024px);}
.step2 {transform: translateX(2048px);}
.step3 {transform: translateX(3072px);}
.step4 {transform: translateX(4096px);}
.step5 {transform: translateX(5120px);}
.step6 {transform: translateX(6144px);}
.step7 {transform: translateX(7168px);}
.step8 {transform: translateX(8192px);}
.step9 {transform: translateX(9216px);}
.step10 {transform: translateX(10240px);}
.step11 {transform: translateX(11264px);}
.step12 {transform: translateX(12288px);}
.step13 {transform: translateX(13312px);}
.step14 {transform: translateX(14336px);}
.step15 {transform: translateX(15360px);}
.step16 {transform: translateX(16384px);}
.step17 {transform: translateX(17408px);}
.step18 {transform: translateX(18432px);}
.step19 {transform: translateX(19456px);}
.step20 {transform: translateX(20480px);}
.step21 {transform: translateX(21504px);}
.step22 {transform: translateX(22528px);}
.step23 {transform: translateX(23552px);}
.step24 {transform: translateX(24576px);}
.step25 {transform: translateX(25600px);}
.step26 {transform: translateX(26624px);}
.step27 {transform: translateX(27648px);}
.step28 {transform: translateX(28672px);}
.step29 {transform: translateX(29696px);}
    </style>

    <path d="M 355 694 Q 484 725 487 727 Q 496 734 491 744 Q 484 756 454 763 Q 424 769 330 737 Q 255 719 198 714 Q 194 714 191 712 C 162 705 174 687 204 682 Q 234 675 307 684 Q 313 685 320 686 L 355 694 Z" fill="lightgray" class="stroke step0"/>
    <path d="M 361 545 Q 370 593 376 631 Q 382 670 371 678 Q 362 688 355 694 C 333 714 312 715 320 686 Q 326 680 317 531 C 315 501 355 516 361 545 Z" fill="lightgray" class="hide"/>
    <path d="M 437 421 Q 462 469 490 485 Q 506 501 494 518 Q 479 531 432 557 Q 416 564 361 545 L 317 531 Q 310 530 307 529 Q 250 516 192 507 C 162 502 162 492 191 484 Q 218 474 251 484 Q 398 514 406 506 Q 412 497 387 423 C 378 395 423 395 437 421 Z" fill="lightgray" class="hide"/>
    <path d="M 356 373 Q 399 380 453 385 Q 463 386 464 395 Q 464 404 437 421 C 420 432 416 431 387 423 Q 281 392 194 379 Q 188 379 186 377 C 172 374 172 374 185 362 Q 200 344 237 352 Q 267 361 316 366 L 356 373 Z" fill="lightgray" class="hide"/>
    <path d="M 358 199 Q 368 296 377 325 Q 386 346 356 373 C 334 394 305 394 316 366 Q 317 365 318 362 Q 321 350 313 190 C 312 160 355 169 358 199 Z" fill="lightgray" class="hide"/>
    <path d="M 191 712 Q 181 721 159 732 Q 140 742 131 736 Q 124 729 131 714 Q 149 680 149 619 Q 152 412 130 222 Q 129 185 106 151 Q 97 136 106 117 Q 113 96 124 88 Q 134 81 150 93 Q 226 151 444 164 Q 466 165 466 176 Q 465 189 438 205 Q 422 217 358 199 L 313 190 Q 250 183 196 167 Q 187 164 184 167 Q 177 168 177 185 Q 181 269 185 362 L 186 377 Q 187 429 191 484 L 192 507 Q 195 651 204 682 C 207 701 207 701 191 712 Z" fill="lightgray" class="hide"/>
    <path d="M 642 377 Q 666 467 683 616 Q 687 659 707 710 Q 714 723 704 732 Q 685 751 644 771 Q 620 783 601 777 Q 577 770 595 749 Q 626 713 624 679 Q 617 520 592 417 Q 552 230 437 93 Q 401 57 350 12 Q 337 5 334 -1 Q 330 -8 347 -8 Q 359 -8 407 21 Q 441 40 496 93 Q 574 168 632 342 L 642 377 Z" fill="lightgray" class="hide"/>
    <path d="M 632 342 Q 642 329 650 311 Q 795 29 826 18 Q 880 6 967 12 Q 983 12 990 18 Q 994 24 985 30 Q 832 120 757 218 Q 709 278 653 363 Q 649 372 642 377 C 623 400 615 367 632 342 Z" fill="lightgray" class="hide"/></g><g transform="scale(1, -1) translate(0, -900)">
    <style type="text/css">
        .origin {display:none;}
        .hide {display:none;}
        .stroke {fill: #000000;}
        
.step1 {transform: translateX(1024px);}
.step2 {transform: translateX(2048px);}
.step3 {transform: translateX(3072px);}
.step4 {transform: translateX(4096px);}
.step5 {transform: translateX(5120px);}
.step6 {transform: translateX(6144px);}
.step7 {transform: translateX(7168px);}
.step8 {transform: translateX(8192px);}
.step9 {transform: translateX(9216px);}
.step10 {transform: translateX(10240px);}
.step11 {transform: translateX(11264px);}
.step12 {transform: translateX(12288px);}
.step13 {transform: translateX(13312px);}
.step14 {transform: translateX(14336px);}
.step15 {transform: translateX(15360px);}
.step16 {transform: translateX(16384px);}
.step17 {transform: translateX(17408px);}
.step18 {transform: translateX(18432px);}
.step19 {transform: translateX(19456px);}
.step20 {transform: translateX(20480px);}
.step21 {transform: translateX(21504px);}
.step22 {transform: translateX(22528px);}
.step23 {transform: translateX(23552px);}
.step24 {transform: translateX(24576px);}
.step25 {transform: translateX(25600px);}
.step26 {transform: translateX(26624px);}
.step27 {transform: translateX(27648px);}
.step28 {transform: translateX(28672px);}
.step29 {transform: translateX(29696px);}
    </style>

    <path d="M 355 694 Q 484 725 487 727 Q 496 734 491 744 Q 484 756 454 763 Q 424 769 330 737 Q 255 719 198 714 Q 194 714 191 712 C 162 705 174 687 204 682 Q 234 675 307 684 Q 313 685 320 686 L 355 694 Z" fill="lightgray" class="stroke step1"/>
    <path d="M 361 545 Q 370 593 376 631 Q 382 670 371 678 Q 362 688 355 694 C 333 714 312 715 320 686 Q 326 680 317 531 C 315 501 355 516 361 545 Z" fill="lightgray" class="stroke step1"/>
    <path d="M 437 421 Q 462 469 490 485 Q 506 501 494 518 Q 479 531 432 557 Q 416 564 361 545 L 317 531 Q 310 530 307 529 Q 250 516 192 507 C 162 502 162 492 191 484 Q 218 474 251 484 Q 398 514 406 506 Q 412 497 387 423 C 378 395 423 395 437 421 Z" fill="lightgray" class="hide"/>
    <path d="M 356 373 Q 399 380 453 385 Q 463 386 464 395 Q 464 404 437 421 C 420 432 416 431 387 423 Q 281 392 194 379 Q 188 379 186 377 C 172 374 172 374 185 362 Q 200 344 237 352 Q 267 361 316 366 L 356 373 Z" fill="lightgray" class="hide"/>
    <path d="M 358 199 Q 368 296 377 325 Q 386 346 356 373 C 334 394 305 394 316 366 Q 317 365 318 362 Q 321 350 313 190 C 312 160 355 169 358 199 Z" fill="lightgray" class="hide"/>
    <path d="M 191 712 Q 181 721 159 732 Q 140 742 131 736 Q 124 729 131 714 Q 149 680 149 619 Q 152 412 130 222 Q 129 185 106 151 Q 97 136 106 117 Q 113 96 124 88 Q 134 81 150 93 Q 226 151 444 164 Q 466 165 466 176 Q 465 189 438 205 Q 422 217 358 199 L 313 190 Q 250 183 196 167 Q 187 164 184 167 Q 177 168 177 185 Q 181 269 185 362 L 186 377 Q 187 429 191 484 L 192 507 Q 195 651 204 682 C 207 701 207 701 191 712 Z" fill="lightgray" class="hide"/>
    <path d="M 642 377 Q 666 467 683 616 Q 687 659 707 710 Q 714 723 704 732 Q 685 751 644 771 Q 620 783 601 777 Q 577 770 595 749 Q 626 713 624 679 Q 617 520 592 417 Q 552 230 437 93 Q 401 57 350 12 Q 337 5 334 -1 Q 330 -8 347 -8 Q 359 -8 407 21 Q 441 40 496 93 Q 574 168 632 342 L 642 377 Z" fill="lightgray" class="hide"/>
    <path d="M 632 342 Q 642 329 650 311 Q 795 29 826 18 Q 880 6 967 12 Q 983 12 990 18 Q 994 24 985 30 Q 832 120 757 218 Q 709 278 653 363 Q 649 372 642 377 C 623 400 615 367 632 342 Z" fill="lightgray" class="hide"/></g><g transform="scale(1, -1) translate(0, -900)">
    <style type="text/css">
        .origin {display:none;}
        .hide {display:none;}
        .stroke {fill: #000000;}
        
.step1 {transform: translateX(1024px);}
.step2 {transform: translateX(2048px);}
.step3 {transform: translateX(3072px);}
.step4 {transform: translateX(4096px);}
.step5 {transform: translateX(5120px);}
.step6 {transform: translateX(6144px);}
.step7 {transform: translateX(7168px);}
.step8 {transform: translateX(8192px);}
.step9 {transform: translateX(9216px);}
.step10 {transform: translateX(10240px);}
.step11 {transform: translateX(11264px);}
.step12 {transform: translateX(12288px);}
.step13 {transform: translateX(13312px);}
.step14 {transform: translateX(14336px);}
.step15 {transform: translateX(15360px);}
.step16 {transform: translateX(16384px);}
.step17 {transform: translateX(17408px);}
.step18 {transform: translateX(18432px);}
.step19 {transform: translateX(19456px);}
.step20 {transform: translateX(20480px);}
.step21 {transform: translateX(21504px);}
.step22 {transform: translateX(22528px);}
.step23 {transform: translateX(23552px);}
.step24 {transform: translateX(24576px);}
.step25 {transform: translateX(25600px);}
.step26 {transform: translateX(26624px);}
.step27 {transform: translateX(27648px);}
.step28 {transform: translateX(28672px);}
.step29 {transform: translateX(29696px);}
    </style>

    <path d="M 355 694 Q 484 725 487 727 Q 496 734 491 744 Q 484 756 454 763 Q 424 769 330 737 Q 255 719 198 714 Q 194 714 191 712 C 162 705 174 687 204 682 Q 234 675 307 684 Q 313 685 320 686 L 355 694 Z" fill="lightgray" class="stroke step2"/>
    <path d="M 361 545 Q 370 593 376 631 Q 382 670 371 678 Q 362 688 355 694 C 333 714 312 715 320 686 Q 326 680 317 531 C 315 501 355 516 361 545 Z" fill="lightgray" class="stroke step2"/>
    <path d="M 437 421 Q 462 469 490 485 Q 506 501 494 518 Q 479 531 432 557 Q 416 564 361 545 L 317 531 Q 310 530 307 529 Q 250 516 192 507 C 162 502 162 492 191 484 Q 218 474 251 484 Q 398 514 406 506 Q 412 497 387 423 C 378 395 423 395 437 421 Z" fill="lightgray" class="stroke step2"/>
    <path d="M 356 373 Q 399 380 453 385 Q 463 386 464 395 Q 464 404 437 421 C 420 432 416 431 387 423 Q 281 392 194 379 Q 188 379 186 377 C 172 374 172 374 185 362 Q 200 344 237 352 Q 267 361 316 366 L 356 373 Z" fill="lightgray" class="hide"/>
    <path d="M 358 199 Q 368 296 377 325 Q 386 346 356 373 C 334 394 305 394 316 366 Q 317 365 318 362 Q 321 350 313 190 C 312 160 355 169 358 199 Z" fill="lightgray" class="hide"/>
    <path d="M 191 712 Q 181 721 159 732 Q 140 742 131 736 Q 124 729 131 714 Q 149 680 149 619 Q 152 412 130 222 Q 129 185 106 151 Q 97 136 106 117 Q 113 96 124 88 Q 134 81 150 93 Q 226 151 444 164 Q 466 165 466 176 Q 465 189 438 205 Q 422 217 358 199 L 313 190 Q 250 183 196 167 Q 187 164 184 167 Q 177 168 177 185 Q 181 269 185 362 L 186 377 Q 187 429 191 484 L 192 507 Q 195 651 204 682 C 207 701 207 701 191 712 Z" fill="lightgray" class="hide"/>
    <path d="M 642 377 Q 666 467 683 616 Q 687 659 707 710 Q 714 723 704 732 Q 685 751 644 771 Q 620 783 601 777 Q 577 770 595 749 Q 626 713 624 679 Q 617 520 592 417 Q 552 230 437 93 Q 401 57 350 12 Q 337 5 334 -1 Q 330 -8 347 -8 Q 359 -8 407 21 Q 441 40 496 93 Q 574 168 632 342 L 642 377 Z" fill="lightgray" class="hide"/>
    <path d="M 632 342 Q 642 329 650 311 Q 795 29 826 18 Q 880 6 967 12 Q 983 12 990 18 Q 994 24 985 30 Q 832 120 757 218 Q 709 278 653 363 Q 649 372 642 377 C 623 400 615 367 632 342 Z" fill="lightgray" class="hide"/></g><g transform="scale(1, -1) translate(0, -900)">
    <style type="text/css">
        .origin {display:none;}
        .hide {display:none;}
        .stroke {fill: #000000;}
        
.step1 {transform: translateX(1024px);}
.step2 {transform: translateX(2048px);}
.step3 {transform: translateX(3072px);}
.step4 {transform: translateX(4096px);}
.step5 {transform: translateX(5120px);}
.step6 {transform: translateX(6144px);}
.step7 {transform: translateX(7168px);}
.step8 {transform: translateX(8192px);}
.step9 {transform: translateX(9216px);}
.step10 {transform: translateX(10240px);}
.step11 {transform: translateX(11264px);}
.step12 {transform: translateX(12288px);}
.step13 {transform: translateX(13312px);}
.step14 {transform: translateX(14336px);}
.step15 {transform: translateX(15360px);}
.step16 {transform: translateX(16384px);}
.step17 {transform: translateX(17408px);}
.step18 {transform: translateX(18432px);}
.step19 {transform: translateX(19456px);}
.step20 {transform: translateX(20480px);}
.step21 {transform: translateX(21504px);}
.step22 {transform: translateX(22528px);}
.step23 {transform: translateX(23552px);}
.step24 {transform: translateX(24576px);}
.step25 {transform: translateX(25600px);}
.step26 {transform: translateX(26624px);}
.step27 {transform: translateX(27648px);}
.step28 {transform: translateX(28672px);}
.step29 {transform: translateX(29696px);}
    </style>

    <path d="M 355 694 Q 484 725 487 727 Q 496 734 491 744 Q 484 756 454 763 Q 424 769 330 737 Q 255 719 198 714 Q 194 714 191 712 C 162 705 174 687 204 682 Q 234 675 307 684 Q 313 685 320 686 L 355 694 Z" fill="lightgray" class="stroke step3"/>
    <path d="M 361 545 Q 370 593 376 631 Q 382 670 371 678 Q 362 688 355 694 C 333 714 312 715 320 686 Q 326 680 317 531 C 315 501 355 516 361 545 Z" fill="lightgray" class="stroke step3"/>
    <path d="M 437 421 Q 462 469 490 485 Q 506 501 494 518 Q 479 531 432 557 Q 416 564 361 545 L 317 531 Q 310 530 307 529 Q 250 516 192 507 C 162 502 162 492 191 484 Q 218 474 251 484 Q 398 514 406 506 Q 412 497 387 423 C 378 395 423 395 437 421 Z" fill="lightgray" class="stroke step3"/>
    <path d="M 356 373 Q 399 380 453 385 Q 463 386 464 395 Q 464 404 437 421 C 420 432 416 431 387 423 Q 281 392 194 379 Q 188 379 186 377 C 172 374 172 374 185 362 Q 200 344 237 352 Q 267 361 316 366 L 356 373 Z" fill="lightgray" class="stroke step3"/>
    <path d="M 358 199 Q 368 296 377 325 Q 386 346 356 373 C 334 394 305 394 316 366 Q 317 365 318 362 Q 321 350 313 190 C 312 160 355 169 358 199 Z" fill="lightgray" class="hide"/>
    <path d="M 191 712 Q 181 721 159 732 Q 140 742 131 736 Q 124 729 131 714 Q 149 680 149 619 Q 152 412 130 222 Q 129 185 106 151 Q 97 136 106 117 Q 113 96 124 88 Q 134 81 150 93 Q 226 151 444 164 Q 466 165 466 176 Q 465 189 438 205 Q 422 217 358 199 L 313 190 Q 250 183 196 167 Q 187 164 184 167 Q 177 168 177 185 Q 181 269 185 362 L 186 377 Q 187 429 191 484 L 192 507 Q 195 651 204 682 C 207 701 207 701 191 712 Z" fill="lightgray" class="hide"/>
    <path d="M 642 377 Q 666 467 683 616 Q 687 659 707 710 Q 714 723 704 732 Q 685 751 644 771 Q 620 783 601 777 Q 577 770 595 749 Q 626 713 624 679 Q 617 520 592 417 Q 552 230 437 93 Q 401 57 350 12 Q 337 5 334 -1 Q 330 -8 347 -8 Q 359 -8 407 21 Q 441 40 496 93 Q 574 168 632 342 L 642 377 Z" fill="lightgray" class="hide"/>
    <path d="M 632 342 Q 642 329 650 311 Q 795 29 826 18 Q 880 6 967 12 Q 983 12 990 18 Q 994 24 985 30 Q 832 120 757 218 Q 709 278 653 363 Q 649 372 642 377 C 623 400 615 367 632 342 Z" fill="lightgray" class="hide"/></g><g transform="scale(1, -1) translate(0, -900)">
    <style type="text/css">
        .origin {display:none;}
        .hide {display:none;}
        .stroke {fill: #000000;}
        
.step1 {transform: translateX(1024px);}
.step2 {transform: translateX(2048px);}
.step3 {transform: translateX(3072px);}
.step4 {transform: translateX(4096px);}
.step5 {transform: translateX(5120px);}
.step6 {transform: translateX(6144px);}
.step7 {transform: translateX(7168px);}
.step8 {transform: translateX(8192px);}
.step9 {transform: translateX(9216px);}
.step10 {transform: translateX(10240px);}
.step11 {transform: translateX(11264px);}
.step12 {transform: translateX(12288px);}
.step13 {transform: translateX(13312px);}
.step14 {transform: translateX(14336px);}
.step15 {transform: translateX(15360px);}
.step16 {transform: translateX(16384px);}
.step17 {transform: translateX(17408px);}
.step18 {transform: translateX(18432px);}
.step19 {transform: translateX(19456px);}
.step20 {transform: translateX(20480px);}
.step21 {transform: translateX(21504px);}
.step22 {transform: translateX(22528px);}
.step23 {transform: translateX(23552px);}
.step24 {transform: translateX(24576px);}
.step25 {transform: translateX(25600px);}
.step26 {transform: translateX(26624px);}
.step27 {transform: translateX(27648px);}
.step28 {transform: translateX(28672px);}
.step29 {transform: translateX(29696px);}
    </style>

    <path d="M 355 694 Q 484 725 487 727 Q 496 734 491 744 Q 484 756 454 763 Q 424 769 330 737 Q 255 719 198 714 Q 194 714 191 712 C 162 705 174 687 204 682 Q 234 675 307 684 Q 313 685 320 686 L 355 694 Z" fill="lightgray" class="stroke step4"/>
    <path d="M 361 545 Q 370 593 376 631 Q 382 670 371 678 Q 362 688 355 694 C 333 714 312 715 320 686 Q 326 680 317 531 C 315 501 355 516 361 545 Z" fill="lightgray" class="stroke step4"/>
    <path d="M 437 421 Q 462 469 490 485 Q 506 501 494 518 Q 479 531 432 557 Q 416 564 361 545 L 317 531 Q 310 530 307 529 Q 250 516 192 507 C 162 502 162 492 191 484 Q 218 474 251 484 Q 398 514 406 506 Q 412 497 387 423 C 378 395 423 395 437 421 Z" fill="lightgray" class="stroke step4"/>
    <path d="M 356 373 Q 399 380 453 385 Q 463 386 464 395 Q 464 404 437 421 C 420 432 416 431 387 423 Q 281 392 194 379 Q 188 379 186 377 C 172 374 172 374 185 362 Q 200 344 237 352 Q 267 361 316 366 L 356 373 Z" fill="lightgray" class="stroke step4"/>
    <path d="M 358 199 Q 368 296 377 325 Q 386 346 356 373 C 334 394 305 394 316 366 Q 317 365 318 362 Q 321 350 313 190 C 312 160 355 169 358 199 Z" fill="lightgray" class="stroke step4"/>
    <path d="M 191 712 Q 181 721 159 732 Q 140 742 131 736 Q 124 729 131 714 Q 149 680 149 619 Q 152 412 130 222 Q 129 185 106 151 Q 97 136 106 117 Q 113 96 124 88 Q 134 81 150 93 Q 226 151 444 164 Q 466 165 466 176 Q 465 189 438 205 Q 422 217 358 199 L 313 190 Q 250 183 196 167 Q 187 164 184 167 Q 177 168 177 185 Q 181 269 185 362 L 186 377 Q 187 429 191 484 L 192 507 Q 195 651 204 682 C 207 701 207 701 191 712 Z" fill="lightgray" class="hide"/>
    <path d="M 642 377 Q 666 467 683 616 Q 687 659 707 710 Q 714 723 704 732 Q 685 751 644 771 Q 620 783 601 777 Q 577 770 595 749 Q 626 713 624 679 Q 617 520 592 417 Q 552 230 437 93 Q 401 57 350 12 Q 337 5 334 -1 Q 330 -8 347 -8 Q 359 -8 407 21 Q 441 40 496 93 Q 574 168 632 342 L 642 377 Z" fill="lightgray" class="hide"/>
    <path d="M 632 342 Q 642 329 650 311 Q 795 29 826 18 Q 880 6 967 12 Q 983 12 990 18 Q 994 24 985 30 Q 832 120 757 218 Q 709 278 653 363 Q 649 372 642 377 C 623 400 615 367 632 342 Z" fill="lightgray" class="hide"/></g><g transform="scale(1, -1) translate(0, -900)">
    <style type="text/css">
        .origin {display:none;}
        .hide {display:none;}
        .stroke {fill: #000000;}
        
.step1 {transform: translateX(1024px);}
.step2 {transform: translateX(2048px);}
.step3 {transform: translateX(3072px);}
.step4 {transform: translateX(4096px);}
.step5 {transform: translateX(5120px);}
.step6 {transform: translateX(6144px);}
.step7 {transform: translateX(7168px);}
.step8 {transform: translateX(8192px);}
.step9 {transform: translateX(9216px);}
.step10 {transform: translateX(10240px);}
.step11 {transform: translateX(11264px);}
.step12 {transform: translateX(12288px);}
.step13 {transform: translateX(13312px);}
.step14 {transform: translateX(14336px);}
.step15 {transform: translateX(15360px);}
.step16 {transform: translateX(16384px);}
.step17 {transform: translateX(17408px);}
.step18 {transform: translateX(18432px);}
.step19 {transform: translateX(19456px);}
.step20 {transform: translateX(20480px);}
.step21 {transform: translateX(21504px);}
.step22 {transform: translateX(22528px);}
.step23 {transform: translateX(23552px);}
.step24 {transform: translateX(24576px);}
.step25 {transform: translateX(25600px);}
.step26 {transform: translateX(26624px);}
.step27 {transform: translateX(27648px);}
.step28 {transform: translateX(28672px);}
.step29 {transform: translateX(29696px);}
    </style>

    <path d="M 355 694 Q 484 725 487 727 Q 496 734 491 744 Q 484 756 454 763 Q 424 769 330 737 Q 255 719 198 714 Q 194 714 191 712 C 162 705 174 687 204 682 Q 234 675 307 684 Q 313 685 320 686 L 355 694 Z" fill="lightgray" class="stroke step5"/>
    <path d="M 361 545 Q 370 593 376 631 Q 382 670 371 678 Q 362 688 355 694 C 333 714 312 715 320 686 Q 326 680 317 531 C 315 501 355 516 361 545 Z" fill="lightgray" class="stroke step5"/>
    <path d="M 437 421 Q 462 469 490 485 Q 506 501 494 518 Q 479 531 432 557 Q 416 564 361 545 L 317 531 Q 310 530 307 529 Q 250 516 192 507 C 162 502 162 492 191 484 Q 218 474 251 484 Q 398 514 406 506 Q 412 497 387 423 C 378 395 423 395 437 421 Z" fill="lightgray" class="stroke step5"/>
    <path d="M 356 373 Q 399 380 453 385 Q 463 386 464 395 Q 464 404 437 421 C 420 432 416 431 387 423 Q 281 392 194 379 Q 188 379 186 377 C 172 374 172 374 185 362 Q 200 344 237 352 Q 267 361 316 366 L 356 373 Z" fill="lightgray" class="stroke step5"/>
    <path d="M 358 199 Q 368 296 377 325 Q 386 346 356 373 C 334 394 305 394 316 366 Q 317 365 318 362 Q 321 350 313 190 C 312 160 355 169 358 199 Z" fill="lightgray" class="stroke step5"/>
    <path d="M 191 712 Q 181 721 159 732 Q 140 742 131 736 Q 124 729 131 714 Q 149 680 149 619 Q 152 412 130 222 Q 129 185 106 151 Q 97 136 106 117 Q 113 96 124 88 Q 134 81 150 93 Q 226 151 444 164 Q 466 165 466 176 Q 465 189 438 205 Q 422 217 358 199 L 313 190 Q 250 183 196 167 Q 187 164 184 167 Q 177 168 177 185 Q 181 269 185 362 L 186 377 Q 187 429 191 484 L 192 507 Q 195 651 204 682 C 207 701 207 701 191 712 Z" fill="lightgray" class="stroke step5"/>
    <path d="M 642 377 Q 666 467 683 616 Q 687 659 707 710 Q 714 723 704 732 Q 685 751 644 771 Q 620 783 601 777 Q 577 770 595 749 Q 626 713 624 679 Q 617 520 592 417 Q 552 230 437 93 Q 401 57 350 12 Q 337 5 334 -1 Q 330 -8 347 -8 Q 359 -8 407 21 Q 441 40 496 93 Q 574 168 632 342 L 642 377 Z" fill="lightgray" class="hide"/>
    <path d="M 632 342 Q 642 329 650 311 Q 795 29 826 18 Q 880 6 967 12 Q 983 12 990 18 Q 994 24 985 30 Q 832 120 757 218 Q 709 278 653 363 Q 649 372 642 377 C 623 400 615 367 632 342 Z" fill="lightgray" class="hide"/></g><g transform="scale(1, -1) translate(0, -900)">
    <style type="text/css">
        .origin {display:none;}
        .hide {display:none;}
        .stroke {fill: #000000;}
        
.step1 {transform: translateX(1024px);}
.step2 {transform: translateX(2048px);}
.step3 {transform: translateX(3072px);}
.step4 {transform: translateX(4096px);}
.step5 {transform: translateX(5120px);}
.step6 {transform: translateX(6144px);}
.step7 {transform: translateX(7168px);}
.step8 {transform: translateX(8192px);}
.step9 {transform: translateX(9216px);}
.step10 {transform: translateX(10240px);}
.step11 {transform: translateX(11264px);}
.step12 {transform: translateX(12288px);}
.step13 {transform: translateX(13312px);}
.step14 {transform: translateX(14336px);}
.step15 {transform: translateX(15360px);}
.step16 {transform: translateX(16384px);}
.step17 {transform: translateX(17408px);}
.step18 {transform: translateX(18432px);}
.step19 {transform: translateX(19456px);}
.step20 {transform: translateX(20480px);}
.step21 {transform: translateX(21504px);}
.step22 {transform: translateX(22528px);}
.step23 {transform: translateX(23552px);}
.step24 {transform: translateX(24576px);}
.step25 {transform: translateX(25600px);}
.step26 {transform: translateX(26624px);}
.step27 {transform: translateX(27648px);}
.step28 {transform: translateX(28672px);}
.step29 {transform: translateX(29696px);}
    </style>

    <path d="M 355 694 Q 484 725 487 727 Q 496 734 491 744 Q 484 756 454 763 Q 424 769 330 737 Q 255 719 198 714 Q 194 714 191 712 C 162 705 174 687 204 682 Q 234 675 307 684 Q 313 685 320 686 L 355 694 Z" fill="lightgray" class="stroke step6"/>
    <path d="M 361 545 Q 370 593 376 631 Q 382 670 371 678 Q 362 688 355 694 C 333 714 312 715 320 686 Q 326 680 317 531 C 315 501 355 516 361 545 Z" fill="lightgray" class="stroke step6"/>
    <path d="M 437 421 Q 462 469 490 485 Q 506 501 494 518 Q 479 531 432 557 Q 416 564 361 545 L 317 531 Q 310 530 307 529 Q 250 516 192 507 C 162 502 162 492 191 484 Q 218 474 251 484 Q 398 514 406 506 Q 412 497 387 423 C 378 395 423 395 437 421 Z" fill="lightgray" class="stroke step6"/>
    <path d="M 356 373 Q 399 380 453 385 Q 463 386 464 395 Q 464 404 437 421 C 420 432 416 431 387 423 Q 281 392 194 379 Q 188 379 186 377 C 172 374 172 374 185 362 Q 200 344 237 352 Q 267 361 316 366 L 356 373 Z" fill="lightgray" class="stroke step6"/>
    <path d="M 358 199 Q 368 296 377 325 Q 386 346 356 373 C 334 394 305 394 316 366 Q 317 365 318 362 Q 321 350 313 190 C 312 160 355 169 358 199 Z" fill="lightgray" class="stroke step6"/>
    <path d="M 191 712 Q 181 721 159 732 Q 140 742 131 736 Q 124 729 131 714 Q 149 680 149 619 Q 152 412 130 222 Q 129 185 106 151 Q 97 136 106 117 Q 113 96 124 88 Q 134 81 150 93 Q 226 151 444 164 Q 466 165 466 176 Q 465 189 438 205 Q 422 217 358 199 L 313 190 Q 250 183 196 167 Q 187 164 184 167 Q 177 168 177 185 Q 181 269 185 362 L 186 377 Q 187 429 191 484 L 192 507 Q 195 651 204 682 C 207 701 207 701 191 712 Z" fill="lightgray" class="stroke step6"/>
    <path d="M 642 377 Q 666 467 683 616 Q 687 659 707 710 Q 714 723 704 732 Q 685 751 644 771 Q 620 783 601 777 Q 577 770 595 749 Q 626 713 624 679 Q 617 520 592 417 Q 552 230 437 93 Q 401 57 350 12 Q 337 5 334 -1 Q 330 -8 347 -8 Q 359 -8 407 21 Q 441 40 496 93 Q 574 168 632 342 L 642 377 Z" fill="lightgray" class="stroke step6"/>
    <path d="M 632 342 Q 642 329 650 311 Q 795 29 826 18 Q 880 6 967 12 Q 983 12 990 18 Q 994 24 985 30 Q 832 120 757 218 Q 709 278 653 363 Q 649 372 642 377 C 623 400 615 367 632 342 Z" fill="lightgray" class="hide"/></g><g transform="scale(1, -1) translate(0, -900)">
    <style type="text/css">
        .origin {display:none;}
        .hide {display:none;}
        .stroke {fill: #000000;}
        
.step1 {transform: translateX(1024px);}
.step2 {transform: translateX(2048px);}
.step3 {transform: translateX(3072px);}
.step4 {transform: translateX(4096px);}
.step5 {transform: translateX(5120px);}
.step6 {transform: translateX(6144px);}
.step7 {transform: translateX(7168px);}
.step8 {transform: translateX(8192px);}
.step9 {transform: translateX(9216px);}
.step10 {transform: translateX(10240px);}
.step11 {transform: translateX(11264px);}
.step12 {transform: translateX(12288px);}
.step13 {transform: translateX(13312px);}
.step14 {transform: translateX(14336px);}
.step15 {transform: translateX(15360px);}
.step16 {transform: translateX(16384px);}
.step17 {transform: translateX(17408px);}
.step18 {transform: translateX(18432px);}
.step19 {transform: translateX(19456px);}
.step20 {transform: translateX(20480px);}
.step21 {transform: translateX(21504px);}
.step22 {transform: translateX(22528px);}
.step23 {transform: translateX(23552px);}
.step24 {transform: translateX(24576px);}
.step25 {transform: translateX(25600px);}
.step26 {transform: translateX(26624px);}
.step27 {transform: translateX(27648px);}
.step28 {transform: translateX(28672px);}
.step29 {transform: translateX(29696px);}
    </style>

    <path d="M 355 694 Q 484 725 487 727 Q 496 734 491 744 Q 484 756 454 763 Q 424 769 330 737 Q 255 719 198 714 Q 194 714 191 712 C 162 705 174 687 204 682 Q 234 675 307 684 Q 313 685 320 686 L 355 694 Z" fill="lightgray" class="stroke step7"/>
    <path d="M 361 545 Q 370 593 376 631 Q 382 670 371 678 Q 362 688 355 694 C 333 714 312 715 320 686 Q 326 680 317 531 C 315 501 355 516 361 545 Z" fill="lightgray" class="stroke step7"/>
    <path d="M 437 421 Q 462 469 490 485 Q 506 501 494 518 Q 479 531 432 557 Q 416 564 361 545 L 317 531 Q 310 530 307 529 Q 250 516 192 507 C 162 502 162 492 191 484 Q 218 474 251 484 Q 398 514 406 506 Q 412 497 387 423 C 378 395 423 395 437 421 Z" fill="lightgray" class="stroke step7"/>
    <path d="M 356 373 Q 399 380 453 385 Q 463 386 464 395 Q 464 404 437 421 C 420 432 416 431 387 423 Q 281 392 194 379 Q 188 379 186 377 C 172 374 172 374 185 362 Q 200 344 237 352 Q 267 361 316 366 L 356 373 Z" fill="lightgray" class="stroke step7"/>
    <path d="M 358 199 Q 368 296 377 325 Q 386 346 356 373 C 334 394 305 394 316 366 Q 317 365 318 362 Q 321 350 313 190 C 312 160 355 169 358 199 Z" fill="lightgray" class="stroke step7"/>
    <path d="M 191 712 Q 181 721 159 732 Q 140 742 131 736 Q 124 729 131 714 Q 149 680 149 619 Q 152 412 130 222 Q 129 185 106 151 Q 97 136 106 117 Q 113 96 124 88 Q 134 81 150 93 Q 226 151 444 164 Q 466 165 466 176 Q 465 189 438 205 Q 422 217 358 199 L 313 190 Q 250 183 196 167 Q 187 164 184 167 Q 177 168 177 185 Q 181 269 185 362 L 186 377 Q 187 429 191 484 L 192 507 Q 195 651 204 682 C 207 701 207 701 191 712 Z" fill="lightgray" class="stroke step7"/>
    <path d="M 642 377 Q 666 467 683 616 Q 687 659 707 710 Q 714 723 704 732 Q 685 751 644 771 Q 620 783 601 777 Q 577 770 595 749 Q 626 713 624 679 Q 617 520 592 417 Q 552 230 437 93 Q 401 57 350 12 Q 337 5 334 -1 Q 330 -8 347 -8 Q 359 -8 407 21 Q 441 40 496 93 Q 574 168 632 342 L 642 377 Z" fill="lightgray" class="stroke step7"/>
    <path d="M 632 342 Q 642 329 650 311 Q 795 29 826 18 Q 880 6 967 12 Q 983 12 990 18 Q 994 24 985 30 Q 832 120 757 218 Q 709 278 653 363 Q 649 372 642 377 C 623 400 615 367 632 342 Z" fill="lightgray" class="stroke step7"/></g></svg>