<svg version="1.1" viewBox="0 0 10240 1024" xmlns="http://www.w3.org/2000/svg">
  
  <g transform="scale(1, -1) translate(0, -900)" class="origin">
    <style type="text/css">
        .origin {display:none;}
        .hide {display:none;}
        .stroke {fill: #000000;}
        
.step1 {transform: translateX(1024px);}
.step2 {transform: translateX(2048px);}
.step3 {transform: translateX(3072px);}
.step4 {transform: translateX(4096px);}
.step5 {transform: translateX(5120px);}
.step6 {transform: translateX(6144px);}
.step7 {transform: translateX(7168px);}
.step8 {transform: translateX(8192px);}
.step9 {transform: translateX(9216px);}
.step10 {transform: translateX(10240px);}
.step11 {transform: translateX(11264px);}
.step12 {transform: translateX(12288px);}
.step13 {transform: translateX(13312px);}
.step14 {transform: translateX(14336px);}
.step15 {transform: translateX(15360px);}
.step16 {transform: translateX(16384px);}
.step17 {transform: translateX(17408px);}
.step18 {transform: translateX(18432px);}
.step19 {transform: translateX(19456px);}
.step20 {transform: translateX(20480px);}
.step21 {transform: translateX(21504px);}
.step22 {transform: translateX(22528px);}
.step23 {transform: translateX(23552px);}
.step24 {transform: translateX(24576px);}
.step25 {transform: translateX(25600px);}
.step26 {transform: translateX(26624px);}
.step27 {transform: translateX(27648px);}
.step28 {transform: translateX(28672px);}
.step29 {transform: translateX(29696px);}
    </style>

    <path d="M 315 678 Q 483 714 487 717 Q 497 726 491 735 Q 484 748 452 756 Q 419 762 387 749 Q 345 736 300 724 Q 249 714 191 708 Q 151 701 179 683 Q 212 662 269 668 L 315 678 Z" fill="lightgray"/>
    <path d="M 322 462 Q 377 477 434 493 C 463 501 451 520 421 515 Q 336 502 246 477 Q 236 474 233 476 Q 232 480 237 488 Q 328 609 347 631 Q 359 640 352 652 Q 348 662 315 678 C 288 692 269 698 269 668 Q 269 623 264 609 Q 263 608 262 604 Q 222 513 151 464 Q 127 445 167 410 Q 167 409 170 407 Q 180 397 193 408 Q 227 438 288 451 L 322 462 Z" fill="lightgray"/>
    <path d="M 434 493 Q 455 472 458 470 Q 465 469 473 477 Q 480 487 481 513 Q 482 532 460 553 Q 403 596 392 594 Q 388 593 385 582 Q 385 576 421 515 L 434 493 Z" fill="lightgray"/>
    <path d="M 350 304 Q 446 329 452 334 Q 459 341 455 349 Q 448 359 421 365 Q 394 369 352 352 L 302 335 Q 293 334 285 330 Q 239 318 183 310 Q 150 303 174 289 Q 211 271 297 291 Q 300 292 303 292 L 350 304 Z" fill="lightgray"/>
    <path d="M 346 190 Q 347 251 350 304 L 352 352 Q 358 431 353 437 Q 337 453 322 462 C 297 478 280 480 288 451 Q 298 421 302 349 Q 301 343 302 335 L 303 292 Q 303 247 303 179 C 303 149 345 160 346 190 Z" fill="lightgray"/>
    <path d="M 303 179 Q 242 164 177 148 Q 158 142 124 144 Q 111 143 108 133 Q 105 120 115 110 Q 137 94 171 72 Q 181 68 195 77 Q 237 105 282 124 Q 352 151 422 179 Q 449 189 468 203 Q 481 210 482 220 Q 478 226 464 224 Q 407 208 346 190 L 303 179 Z" fill="lightgray"/>
    <path d="M 602 550 Q 636 611 670 695 Q 686 738 702 761 Q 709 774 702 787 Q 695 800 662 818 Q 631 831 611 828 Q 592 822 605 801 Q 623 777 617 752 Q 590 614 489 425 Q 482 412 480 406 Q 479 393 492 399 Q 522 411 585 521 L 602 550 Z" fill="lightgray"/>
    <path d="M 706 529 Q 745 538 864 553 Q 877 556 878 563 Q 879 575 856 590 Q 817 612 752 586 Q 713 574 683 567 Q 643 560 602 550 C 573 543 555 521 585 521 Q 595 521 656 519 L 706 529 Z" fill="lightgray"/>
    <path d="M 677 244 Q 695 283 733 417 Q 737 442 754 472 Q 761 482 753 492 Q 737 511 706 529 C 681 545 642 545 656 519 Q 675 492 676 442 Q 667 355 640 285 L 621 243 Q 558 144 416 89 Q 403 85 399 82 Q 393 76 409 72 Q 452 62 554 110 Q 614 138 652 198 L 677 244 Z" fill="lightgray"/>
    <path d="M 652 198 Q 739 69 782 63 Q 864 53 931 54 Q 967 54 964 64 Q 964 68 932 84 Q 764 162 728 194 Q 725 197 724 198 Q 700 220 677 244 L 640 285 Q 618 312 597 340 Q 566 380 533 384 Q 517 387 513 382 Q 510 376 524 365 Q 563 332 621 243 L 652 198 Z" fill="lightgray"/></g>
<g transform="scale(1, -1) translate(0, -900)">
    <style type="text/css">
        .origin {display:none;}
        .hide {display:none;}
        .stroke {fill: #000000;}
        
.step1 {transform: translateX(1024px);}
.step2 {transform: translateX(2048px);}
.step3 {transform: translateX(3072px);}
.step4 {transform: translateX(4096px);}
.step5 {transform: translateX(5120px);}
.step6 {transform: translateX(6144px);}
.step7 {transform: translateX(7168px);}
.step8 {transform: translateX(8192px);}
.step9 {transform: translateX(9216px);}
.step10 {transform: translateX(10240px);}
.step11 {transform: translateX(11264px);}
.step12 {transform: translateX(12288px);}
.step13 {transform: translateX(13312px);}
.step14 {transform: translateX(14336px);}
.step15 {transform: translateX(15360px);}
.step16 {transform: translateX(16384px);}
.step17 {transform: translateX(17408px);}
.step18 {transform: translateX(18432px);}
.step19 {transform: translateX(19456px);}
.step20 {transform: translateX(20480px);}
.step21 {transform: translateX(21504px);}
.step22 {transform: translateX(22528px);}
.step23 {transform: translateX(23552px);}
.step24 {transform: translateX(24576px);}
.step25 {transform: translateX(25600px);}
.step26 {transform: translateX(26624px);}
.step27 {transform: translateX(27648px);}
.step28 {transform: translateX(28672px);}
.step29 {transform: translateX(29696px);}
    </style>

    <path d="M 315 678 Q 483 714 487 717 Q 497 726 491 735 Q 484 748 452 756 Q 419 762 387 749 Q 345 736 300 724 Q 249 714 191 708 Q 151 701 179 683 Q 212 662 269 668 L 315 678 Z" fill="lightgray" class="stroke step0"/>
    <path d="M 322 462 Q 377 477 434 493 C 463 501 451 520 421 515 Q 336 502 246 477 Q 236 474 233 476 Q 232 480 237 488 Q 328 609 347 631 Q 359 640 352 652 Q 348 662 315 678 C 288 692 269 698 269 668 Q 269 623 264 609 Q 263 608 262 604 Q 222 513 151 464 Q 127 445 167 410 Q 167 409 170 407 Q 180 397 193 408 Q 227 438 288 451 L 322 462 Z" fill="lightgray" class="hide"/>
    <path d="M 434 493 Q 455 472 458 470 Q 465 469 473 477 Q 480 487 481 513 Q 482 532 460 553 Q 403 596 392 594 Q 388 593 385 582 Q 385 576 421 515 L 434 493 Z" fill="lightgray" class="hide"/>
    <path d="M 350 304 Q 446 329 452 334 Q 459 341 455 349 Q 448 359 421 365 Q 394 369 352 352 L 302 335 Q 293 334 285 330 Q 239 318 183 310 Q 150 303 174 289 Q 211 271 297 291 Q 300 292 303 292 L 350 304 Z" fill="lightgray" class="hide"/>
    <path d="M 346 190 Q 347 251 350 304 L 352 352 Q 358 431 353 437 Q 337 453 322 462 C 297 478 280 480 288 451 Q 298 421 302 349 Q 301 343 302 335 L 303 292 Q 303 247 303 179 C 303 149 345 160 346 190 Z" fill="lightgray" class="hide"/>
    <path d="M 303 179 Q 242 164 177 148 Q 158 142 124 144 Q 111 143 108 133 Q 105 120 115 110 Q 137 94 171 72 Q 181 68 195 77 Q 237 105 282 124 Q 352 151 422 179 Q 449 189 468 203 Q 481 210 482 220 Q 478 226 464 224 Q 407 208 346 190 L 303 179 Z" fill="lightgray" class="hide"/>
    <path d="M 602 550 Q 636 611 670 695 Q 686 738 702 761 Q 709 774 702 787 Q 695 800 662 818 Q 631 831 611 828 Q 592 822 605 801 Q 623 777 617 752 Q 590 614 489 425 Q 482 412 480 406 Q 479 393 492 399 Q 522 411 585 521 L 602 550 Z" fill="lightgray" class="hide"/>
    <path d="M 706 529 Q 745 538 864 553 Q 877 556 878 563 Q 879 575 856 590 Q 817 612 752 586 Q 713 574 683 567 Q 643 560 602 550 C 573 543 555 521 585 521 Q 595 521 656 519 L 706 529 Z" fill="lightgray" class="hide"/>
    <path d="M 677 244 Q 695 283 733 417 Q 737 442 754 472 Q 761 482 753 492 Q 737 511 706 529 C 681 545 642 545 656 519 Q 675 492 676 442 Q 667 355 640 285 L 621 243 Q 558 144 416 89 Q 403 85 399 82 Q 393 76 409 72 Q 452 62 554 110 Q 614 138 652 198 L 677 244 Z" fill="lightgray" class="hide"/>
    <path d="M 652 198 Q 739 69 782 63 Q 864 53 931 54 Q 967 54 964 64 Q 964 68 932 84 Q 764 162 728 194 Q 725 197 724 198 Q 700 220 677 244 L 640 285 Q 618 312 597 340 Q 566 380 533 384 Q 517 387 513 382 Q 510 376 524 365 Q 563 332 621 243 L 652 198 Z" fill="lightgray" class="hide"/></g><g transform="scale(1, -1) translate(0, -900)">
    <style type="text/css">
        .origin {display:none;}
        .hide {display:none;}
        .stroke {fill: #000000;}
        
.step1 {transform: translateX(1024px);}
.step2 {transform: translateX(2048px);}
.step3 {transform: translateX(3072px);}
.step4 {transform: translateX(4096px);}
.step5 {transform: translateX(5120px);}
.step6 {transform: translateX(6144px);}
.step7 {transform: translateX(7168px);}
.step8 {transform: translateX(8192px);}
.step9 {transform: translateX(9216px);}
.step10 {transform: translateX(10240px);}
.step11 {transform: translateX(11264px);}
.step12 {transform: translateX(12288px);}
.step13 {transform: translateX(13312px);}
.step14 {transform: translateX(14336px);}
.step15 {transform: translateX(15360px);}
.step16 {transform: translateX(16384px);}
.step17 {transform: translateX(17408px);}
.step18 {transform: translateX(18432px);}
.step19 {transform: translateX(19456px);}
.step20 {transform: translateX(20480px);}
.step21 {transform: translateX(21504px);}
.step22 {transform: translateX(22528px);}
.step23 {transform: translateX(23552px);}
.step24 {transform: translateX(24576px);}
.step25 {transform: translateX(25600px);}
.step26 {transform: translateX(26624px);}
.step27 {transform: translateX(27648px);}
.step28 {transform: translateX(28672px);}
.step29 {transform: translateX(29696px);}
    </style>

    <path d="M 315 678 Q 483 714 487 717 Q 497 726 491 735 Q 484 748 452 756 Q 419 762 387 749 Q 345 736 300 724 Q 249 714 191 708 Q 151 701 179 683 Q 212 662 269 668 L 315 678 Z" fill="lightgray" class="stroke step1"/>
    <path d="M 322 462 Q 377 477 434 493 C 463 501 451 520 421 515 Q 336 502 246 477 Q 236 474 233 476 Q 232 480 237 488 Q 328 609 347 631 Q 359 640 352 652 Q 348 662 315 678 C 288 692 269 698 269 668 Q 269 623 264 609 Q 263 608 262 604 Q 222 513 151 464 Q 127 445 167 410 Q 167 409 170 407 Q 180 397 193 408 Q 227 438 288 451 L 322 462 Z" fill="lightgray" class="stroke step1"/>
    <path d="M 434 493 Q 455 472 458 470 Q 465 469 473 477 Q 480 487 481 513 Q 482 532 460 553 Q 403 596 392 594 Q 388 593 385 582 Q 385 576 421 515 L 434 493 Z" fill="lightgray" class="hide"/>
    <path d="M 350 304 Q 446 329 452 334 Q 459 341 455 349 Q 448 359 421 365 Q 394 369 352 352 L 302 335 Q 293 334 285 330 Q 239 318 183 310 Q 150 303 174 289 Q 211 271 297 291 Q 300 292 303 292 L 350 304 Z" fill="lightgray" class="hide"/>
    <path d="M 346 190 Q 347 251 350 304 L 352 352 Q 358 431 353 437 Q 337 453 322 462 C 297 478 280 480 288 451 Q 298 421 302 349 Q 301 343 302 335 L 303 292 Q 303 247 303 179 C 303 149 345 160 346 190 Z" fill="lightgray" class="hide"/>
    <path d="M 303 179 Q 242 164 177 148 Q 158 142 124 144 Q 111 143 108 133 Q 105 120 115 110 Q 137 94 171 72 Q 181 68 195 77 Q 237 105 282 124 Q 352 151 422 179 Q 449 189 468 203 Q 481 210 482 220 Q 478 226 464 224 Q 407 208 346 190 L 303 179 Z" fill="lightgray" class="hide"/>
    <path d="M 602 550 Q 636 611 670 695 Q 686 738 702 761 Q 709 774 702 787 Q 695 800 662 818 Q 631 831 611 828 Q 592 822 605 801 Q 623 777 617 752 Q 590 614 489 425 Q 482 412 480 406 Q 479 393 492 399 Q 522 411 585 521 L 602 550 Z" fill="lightgray" class="hide"/>
    <path d="M 706 529 Q 745 538 864 553 Q 877 556 878 563 Q 879 575 856 590 Q 817 612 752 586 Q 713 574 683 567 Q 643 560 602 550 C 573 543 555 521 585 521 Q 595 521 656 519 L 706 529 Z" fill="lightgray" class="hide"/>
    <path d="M 677 244 Q 695 283 733 417 Q 737 442 754 472 Q 761 482 753 492 Q 737 511 706 529 C 681 545 642 545 656 519 Q 675 492 676 442 Q 667 355 640 285 L 621 243 Q 558 144 416 89 Q 403 85 399 82 Q 393 76 409 72 Q 452 62 554 110 Q 614 138 652 198 L 677 244 Z" fill="lightgray" class="hide"/>
    <path d="M 652 198 Q 739 69 782 63 Q 864 53 931 54 Q 967 54 964 64 Q 964 68 932 84 Q 764 162 728 194 Q 725 197 724 198 Q 700 220 677 244 L 640 285 Q 618 312 597 340 Q 566 380 533 384 Q 517 387 513 382 Q 510 376 524 365 Q 563 332 621 243 L 652 198 Z" fill="lightgray" class="hide"/></g><g transform="scale(1, -1) translate(0, -900)">
    <style type="text/css">
        .origin {display:none;}
        .hide {display:none;}
        .stroke {fill: #000000;}
        
.step1 {transform: translateX(1024px);}
.step2 {transform: translateX(2048px);}
.step3 {transform: translateX(3072px);}
.step4 {transform: translateX(4096px);}
.step5 {transform: translateX(5120px);}
.step6 {transform: translateX(6144px);}
.step7 {transform: translateX(7168px);}
.step8 {transform: translateX(8192px);}
.step9 {transform: translateX(9216px);}
.step10 {transform: translateX(10240px);}
.step11 {transform: translateX(11264px);}
.step12 {transform: translateX(12288px);}
.step13 {transform: translateX(13312px);}
.step14 {transform: translateX(14336px);}
.step15 {transform: translateX(15360px);}
.step16 {transform: translateX(16384px);}
.step17 {transform: translateX(17408px);}
.step18 {transform: translateX(18432px);}
.step19 {transform: translateX(19456px);}
.step20 {transform: translateX(20480px);}
.step21 {transform: translateX(21504px);}
.step22 {transform: translateX(22528px);}
.step23 {transform: translateX(23552px);}
.step24 {transform: translateX(24576px);}
.step25 {transform: translateX(25600px);}
.step26 {transform: translateX(26624px);}
.step27 {transform: translateX(27648px);}
.step28 {transform: translateX(28672px);}
.step29 {transform: translateX(29696px);}
    </style>

    <path d="M 315 678 Q 483 714 487 717 Q 497 726 491 735 Q 484 748 452 756 Q 419 762 387 749 Q 345 736 300 724 Q 249 714 191 708 Q 151 701 179 683 Q 212 662 269 668 L 315 678 Z" fill="lightgray" class="stroke step2"/>
    <path d="M 322 462 Q 377 477 434 493 C 463 501 451 520 421 515 Q 336 502 246 477 Q 236 474 233 476 Q 232 480 237 488 Q 328 609 347 631 Q 359 640 352 652 Q 348 662 315 678 C 288 692 269 698 269 668 Q 269 623 264 609 Q 263 608 262 604 Q 222 513 151 464 Q 127 445 167 410 Q 167 409 170 407 Q 180 397 193 408 Q 227 438 288 451 L 322 462 Z" fill="lightgray" class="stroke step2"/>
    <path d="M 434 493 Q 455 472 458 470 Q 465 469 473 477 Q 480 487 481 513 Q 482 532 460 553 Q 403 596 392 594 Q 388 593 385 582 Q 385 576 421 515 L 434 493 Z" fill="lightgray" class="stroke step2"/>
    <path d="M 350 304 Q 446 329 452 334 Q 459 341 455 349 Q 448 359 421 365 Q 394 369 352 352 L 302 335 Q 293 334 285 330 Q 239 318 183 310 Q 150 303 174 289 Q 211 271 297 291 Q 300 292 303 292 L 350 304 Z" fill="lightgray" class="hide"/>
    <path d="M 346 190 Q 347 251 350 304 L 352 352 Q 358 431 353 437 Q 337 453 322 462 C 297 478 280 480 288 451 Q 298 421 302 349 Q 301 343 302 335 L 303 292 Q 303 247 303 179 C 303 149 345 160 346 190 Z" fill="lightgray" class="hide"/>
    <path d="M 303 179 Q 242 164 177 148 Q 158 142 124 144 Q 111 143 108 133 Q 105 120 115 110 Q 137 94 171 72 Q 181 68 195 77 Q 237 105 282 124 Q 352 151 422 179 Q 449 189 468 203 Q 481 210 482 220 Q 478 226 464 224 Q 407 208 346 190 L 303 179 Z" fill="lightgray" class="hide"/>
    <path d="M 602 550 Q 636 611 670 695 Q 686 738 702 761 Q 709 774 702 787 Q 695 800 662 818 Q 631 831 611 828 Q 592 822 605 801 Q 623 777 617 752 Q 590 614 489 425 Q 482 412 480 406 Q 479 393 492 399 Q 522 411 585 521 L 602 550 Z" fill="lightgray" class="hide"/>
    <path d="M 706 529 Q 745 538 864 553 Q 877 556 878 563 Q 879 575 856 590 Q 817 612 752 586 Q 713 574 683 567 Q 643 560 602 550 C 573 543 555 521 585 521 Q 595 521 656 519 L 706 529 Z" fill="lightgray" class="hide"/>
    <path d="M 677 244 Q 695 283 733 417 Q 737 442 754 472 Q 761 482 753 492 Q 737 511 706 529 C 681 545 642 545 656 519 Q 675 492 676 442 Q 667 355 640 285 L 621 243 Q 558 144 416 89 Q 403 85 399 82 Q 393 76 409 72 Q 452 62 554 110 Q 614 138 652 198 L 677 244 Z" fill="lightgray" class="hide"/>
    <path d="M 652 198 Q 739 69 782 63 Q 864 53 931 54 Q 967 54 964 64 Q 964 68 932 84 Q 764 162 728 194 Q 725 197 724 198 Q 700 220 677 244 L 640 285 Q 618 312 597 340 Q 566 380 533 384 Q 517 387 513 382 Q 510 376 524 365 Q 563 332 621 243 L 652 198 Z" fill="lightgray" class="hide"/></g><g transform="scale(1, -1) translate(0, -900)">
    <style type="text/css">
        .origin {display:none;}
        .hide {display:none;}
        .stroke {fill: #000000;}
        
.step1 {transform: translateX(1024px);}
.step2 {transform: translateX(2048px);}
.step3 {transform: translateX(3072px);}
.step4 {transform: translateX(4096px);}
.step5 {transform: translateX(5120px);}
.step6 {transform: translateX(6144px);}
.step7 {transform: translateX(7168px);}
.step8 {transform: translateX(8192px);}
.step9 {transform: translateX(9216px);}
.step10 {transform: translateX(10240px);}
.step11 {transform: translateX(11264px);}
.step12 {transform: translateX(12288px);}
.step13 {transform: translateX(13312px);}
.step14 {transform: translateX(14336px);}
.step15 {transform: translateX(15360px);}
.step16 {transform: translateX(16384px);}
.step17 {transform: translateX(17408px);}
.step18 {transform: translateX(18432px);}
.step19 {transform: translateX(19456px);}
.step20 {transform: translateX(20480px);}
.step21 {transform: translateX(21504px);}
.step22 {transform: translateX(22528px);}
.step23 {transform: translateX(23552px);}
.step24 {transform: translateX(24576px);}
.step25 {transform: translateX(25600px);}
.step26 {transform: translateX(26624px);}
.step27 {transform: translateX(27648px);}
.step28 {transform: translateX(28672px);}
.step29 {transform: translateX(29696px);}
    </style>

    <path d="M 315 678 Q 483 714 487 717 Q 497 726 491 735 Q 484 748 452 756 Q 419 762 387 749 Q 345 736 300 724 Q 249 714 191 708 Q 151 701 179 683 Q 212 662 269 668 L 315 678 Z" fill="lightgray" class="stroke step3"/>
    <path d="M 322 462 Q 377 477 434 493 C 463 501 451 520 421 515 Q 336 502 246 477 Q 236 474 233 476 Q 232 480 237 488 Q 328 609 347 631 Q 359 640 352 652 Q 348 662 315 678 C 288 692 269 698 269 668 Q 269 623 264 609 Q 263 608 262 604 Q 222 513 151 464 Q 127 445 167 410 Q 167 409 170 407 Q 180 397 193 408 Q 227 438 288 451 L 322 462 Z" fill="lightgray" class="stroke step3"/>
    <path d="M 434 493 Q 455 472 458 470 Q 465 469 473 477 Q 480 487 481 513 Q 482 532 460 553 Q 403 596 392 594 Q 388 593 385 582 Q 385 576 421 515 L 434 493 Z" fill="lightgray" class="stroke step3"/>
    <path d="M 350 304 Q 446 329 452 334 Q 459 341 455 349 Q 448 359 421 365 Q 394 369 352 352 L 302 335 Q 293 334 285 330 Q 239 318 183 310 Q 150 303 174 289 Q 211 271 297 291 Q 300 292 303 292 L 350 304 Z" fill="lightgray" class="stroke step3"/>
    <path d="M 346 190 Q 347 251 350 304 L 352 352 Q 358 431 353 437 Q 337 453 322 462 C 297 478 280 480 288 451 Q 298 421 302 349 Q 301 343 302 335 L 303 292 Q 303 247 303 179 C 303 149 345 160 346 190 Z" fill="lightgray" class="hide"/>
    <path d="M 303 179 Q 242 164 177 148 Q 158 142 124 144 Q 111 143 108 133 Q 105 120 115 110 Q 137 94 171 72 Q 181 68 195 77 Q 237 105 282 124 Q 352 151 422 179 Q 449 189 468 203 Q 481 210 482 220 Q 478 226 464 224 Q 407 208 346 190 L 303 179 Z" fill="lightgray" class="hide"/>
    <path d="M 602 550 Q 636 611 670 695 Q 686 738 702 761 Q 709 774 702 787 Q 695 800 662 818 Q 631 831 611 828 Q 592 822 605 801 Q 623 777 617 752 Q 590 614 489 425 Q 482 412 480 406 Q 479 393 492 399 Q 522 411 585 521 L 602 550 Z" fill="lightgray" class="hide"/>
    <path d="M 706 529 Q 745 538 864 553 Q 877 556 878 563 Q 879 575 856 590 Q 817 612 752 586 Q 713 574 683 567 Q 643 560 602 550 C 573 543 555 521 585 521 Q 595 521 656 519 L 706 529 Z" fill="lightgray" class="hide"/>
    <path d="M 677 244 Q 695 283 733 417 Q 737 442 754 472 Q 761 482 753 492 Q 737 511 706 529 C 681 545 642 545 656 519 Q 675 492 676 442 Q 667 355 640 285 L 621 243 Q 558 144 416 89 Q 403 85 399 82 Q 393 76 409 72 Q 452 62 554 110 Q 614 138 652 198 L 677 244 Z" fill="lightgray" class="hide"/>
    <path d="M 652 198 Q 739 69 782 63 Q 864 53 931 54 Q 967 54 964 64 Q 964 68 932 84 Q 764 162 728 194 Q 725 197 724 198 Q 700 220 677 244 L 640 285 Q 618 312 597 340 Q 566 380 533 384 Q 517 387 513 382 Q 510 376 524 365 Q 563 332 621 243 L 652 198 Z" fill="lightgray" class="hide"/></g><g transform="scale(1, -1) translate(0, -900)">
    <style type="text/css">
        .origin {display:none;}
        .hide {display:none;}
        .stroke {fill: #000000;}
        
.step1 {transform: translateX(1024px);}
.step2 {transform: translateX(2048px);}
.step3 {transform: translateX(3072px);}
.step4 {transform: translateX(4096px);}
.step5 {transform: translateX(5120px);}
.step6 {transform: translateX(6144px);}
.step7 {transform: translateX(7168px);}
.step8 {transform: translateX(8192px);}
.step9 {transform: translateX(9216px);}
.step10 {transform: translateX(10240px);}
.step11 {transform: translateX(11264px);}
.step12 {transform: translateX(12288px);}
.step13 {transform: translateX(13312px);}
.step14 {transform: translateX(14336px);}
.step15 {transform: translateX(15360px);}
.step16 {transform: translateX(16384px);}
.step17 {transform: translateX(17408px);}
.step18 {transform: translateX(18432px);}
.step19 {transform: translateX(19456px);}
.step20 {transform: translateX(20480px);}
.step21 {transform: translateX(21504px);}
.step22 {transform: translateX(22528px);}
.step23 {transform: translateX(23552px);}
.step24 {transform: translateX(24576px);}
.step25 {transform: translateX(25600px);}
.step26 {transform: translateX(26624px);}
.step27 {transform: translateX(27648px);}
.step28 {transform: translateX(28672px);}
.step29 {transform: translateX(29696px);}
    </style>

    <path d="M 315 678 Q 483 714 487 717 Q 497 726 491 735 Q 484 748 452 756 Q 419 762 387 749 Q 345 736 300 724 Q 249 714 191 708 Q 151 701 179 683 Q 212 662 269 668 L 315 678 Z" fill="lightgray" class="stroke step4"/>
    <path d="M 322 462 Q 377 477 434 493 C 463 501 451 520 421 515 Q 336 502 246 477 Q 236 474 233 476 Q 232 480 237 488 Q 328 609 347 631 Q 359 640 352 652 Q 348 662 315 678 C 288 692 269 698 269 668 Q 269 623 264 609 Q 263 608 262 604 Q 222 513 151 464 Q 127 445 167 410 Q 167 409 170 407 Q 180 397 193 408 Q 227 438 288 451 L 322 462 Z" fill="lightgray" class="stroke step4"/>
    <path d="M 434 493 Q 455 472 458 470 Q 465 469 473 477 Q 480 487 481 513 Q 482 532 460 553 Q 403 596 392 594 Q 388 593 385 582 Q 385 576 421 515 L 434 493 Z" fill="lightgray" class="stroke step4"/>
    <path d="M 350 304 Q 446 329 452 334 Q 459 341 455 349 Q 448 359 421 365 Q 394 369 352 352 L 302 335 Q 293 334 285 330 Q 239 318 183 310 Q 150 303 174 289 Q 211 271 297 291 Q 300 292 303 292 L 350 304 Z" fill="lightgray" class="stroke step4"/>
    <path d="M 346 190 Q 347 251 350 304 L 352 352 Q 358 431 353 437 Q 337 453 322 462 C 297 478 280 480 288 451 Q 298 421 302 349 Q 301 343 302 335 L 303 292 Q 303 247 303 179 C 303 149 345 160 346 190 Z" fill="lightgray" class="stroke step4"/>
    <path d="M 303 179 Q 242 164 177 148 Q 158 142 124 144 Q 111 143 108 133 Q 105 120 115 110 Q 137 94 171 72 Q 181 68 195 77 Q 237 105 282 124 Q 352 151 422 179 Q 449 189 468 203 Q 481 210 482 220 Q 478 226 464 224 Q 407 208 346 190 L 303 179 Z" fill="lightgray" class="hide"/>
    <path d="M 602 550 Q 636 611 670 695 Q 686 738 702 761 Q 709 774 702 787 Q 695 800 662 818 Q 631 831 611 828 Q 592 822 605 801 Q 623 777 617 752 Q 590 614 489 425 Q 482 412 480 406 Q 479 393 492 399 Q 522 411 585 521 L 602 550 Z" fill="lightgray" class="hide"/>
    <path d="M 706 529 Q 745 538 864 553 Q 877 556 878 563 Q 879 575 856 590 Q 817 612 752 586 Q 713 574 683 567 Q 643 560 602 550 C 573 543 555 521 585 521 Q 595 521 656 519 L 706 529 Z" fill="lightgray" class="hide"/>
    <path d="M 677 244 Q 695 283 733 417 Q 737 442 754 472 Q 761 482 753 492 Q 737 511 706 529 C 681 545 642 545 656 519 Q 675 492 676 442 Q 667 355 640 285 L 621 243 Q 558 144 416 89 Q 403 85 399 82 Q 393 76 409 72 Q 452 62 554 110 Q 614 138 652 198 L 677 244 Z" fill="lightgray" class="hide"/>
    <path d="M 652 198 Q 739 69 782 63 Q 864 53 931 54 Q 967 54 964 64 Q 964 68 932 84 Q 764 162 728 194 Q 725 197 724 198 Q 700 220 677 244 L 640 285 Q 618 312 597 340 Q 566 380 533 384 Q 517 387 513 382 Q 510 376 524 365 Q 563 332 621 243 L 652 198 Z" fill="lightgray" class="hide"/></g><g transform="scale(1, -1) translate(0, -900)">
    <style type="text/css">
        .origin {display:none;}
        .hide {display:none;}
        .stroke {fill: #000000;}
        
.step1 {transform: translateX(1024px);}
.step2 {transform: translateX(2048px);}
.step3 {transform: translateX(3072px);}
.step4 {transform: translateX(4096px);}
.step5 {transform: translateX(5120px);}
.step6 {transform: translateX(6144px);}
.step7 {transform: translateX(7168px);}
.step8 {transform: translateX(8192px);}
.step9 {transform: translateX(9216px);}
.step10 {transform: translateX(10240px);}
.step11 {transform: translateX(11264px);}
.step12 {transform: translateX(12288px);}
.step13 {transform: translateX(13312px);}
.step14 {transform: translateX(14336px);}
.step15 {transform: translateX(15360px);}
.step16 {transform: translateX(16384px);}
.step17 {transform: translateX(17408px);}
.step18 {transform: translateX(18432px);}
.step19 {transform: translateX(19456px);}
.step20 {transform: translateX(20480px);}
.step21 {transform: translateX(21504px);}
.step22 {transform: translateX(22528px);}
.step23 {transform: translateX(23552px);}
.step24 {transform: translateX(24576px);}
.step25 {transform: translateX(25600px);}
.step26 {transform: translateX(26624px);}
.step27 {transform: translateX(27648px);}
.step28 {transform: translateX(28672px);}
.step29 {transform: translateX(29696px);}
    </style>

    <path d="M 315 678 Q 483 714 487 717 Q 497 726 491 735 Q 484 748 452 756 Q 419 762 387 749 Q 345 736 300 724 Q 249 714 191 708 Q 151 701 179 683 Q 212 662 269 668 L 315 678 Z" fill="lightgray" class="stroke step5"/>
    <path d="M 322 462 Q 377 477 434 493 C 463 501 451 520 421 515 Q 336 502 246 477 Q 236 474 233 476 Q 232 480 237 488 Q 328 609 347 631 Q 359 640 352 652 Q 348 662 315 678 C 288 692 269 698 269 668 Q 269 623 264 609 Q 263 608 262 604 Q 222 513 151 464 Q 127 445 167 410 Q 167 409 170 407 Q 180 397 193 408 Q 227 438 288 451 L 322 462 Z" fill="lightgray" class="stroke step5"/>
    <path d="M 434 493 Q 455 472 458 470 Q 465 469 473 477 Q 480 487 481 513 Q 482 532 460 553 Q 403 596 392 594 Q 388 593 385 582 Q 385 576 421 515 L 434 493 Z" fill="lightgray" class="stroke step5"/>
    <path d="M 350 304 Q 446 329 452 334 Q 459 341 455 349 Q 448 359 421 365 Q 394 369 352 352 L 302 335 Q 293 334 285 330 Q 239 318 183 310 Q 150 303 174 289 Q 211 271 297 291 Q 300 292 303 292 L 350 304 Z" fill="lightgray" class="stroke step5"/>
    <path d="M 346 190 Q 347 251 350 304 L 352 352 Q 358 431 353 437 Q 337 453 322 462 C 297 478 280 480 288 451 Q 298 421 302 349 Q 301 343 302 335 L 303 292 Q 303 247 303 179 C 303 149 345 160 346 190 Z" fill="lightgray" class="stroke step5"/>
    <path d="M 303 179 Q 242 164 177 148 Q 158 142 124 144 Q 111 143 108 133 Q 105 120 115 110 Q 137 94 171 72 Q 181 68 195 77 Q 237 105 282 124 Q 352 151 422 179 Q 449 189 468 203 Q 481 210 482 220 Q 478 226 464 224 Q 407 208 346 190 L 303 179 Z" fill="lightgray" class="stroke step5"/>
    <path d="M 602 550 Q 636 611 670 695 Q 686 738 702 761 Q 709 774 702 787 Q 695 800 662 818 Q 631 831 611 828 Q 592 822 605 801 Q 623 777 617 752 Q 590 614 489 425 Q 482 412 480 406 Q 479 393 492 399 Q 522 411 585 521 L 602 550 Z" fill="lightgray" class="hide"/>
    <path d="M 706 529 Q 745 538 864 553 Q 877 556 878 563 Q 879 575 856 590 Q 817 612 752 586 Q 713 574 683 567 Q 643 560 602 550 C 573 543 555 521 585 521 Q 595 521 656 519 L 706 529 Z" fill="lightgray" class="hide"/>
    <path d="M 677 244 Q 695 283 733 417 Q 737 442 754 472 Q 761 482 753 492 Q 737 511 706 529 C 681 545 642 545 656 519 Q 675 492 676 442 Q 667 355 640 285 L 621 243 Q 558 144 416 89 Q 403 85 399 82 Q 393 76 409 72 Q 452 62 554 110 Q 614 138 652 198 L 677 244 Z" fill="lightgray" class="hide"/>
    <path d="M 652 198 Q 739 69 782 63 Q 864 53 931 54 Q 967 54 964 64 Q 964 68 932 84 Q 764 162 728 194 Q 725 197 724 198 Q 700 220 677 244 L 640 285 Q 618 312 597 340 Q 566 380 533 384 Q 517 387 513 382 Q 510 376 524 365 Q 563 332 621 243 L 652 198 Z" fill="lightgray" class="hide"/></g><g transform="scale(1, -1) translate(0, -900)">
    <style type="text/css">
        .origin {display:none;}
        .hide {display:none;}
        .stroke {fill: #000000;}
        
.step1 {transform: translateX(1024px);}
.step2 {transform: translateX(2048px);}
.step3 {transform: translateX(3072px);}
.step4 {transform: translateX(4096px);}
.step5 {transform: translateX(5120px);}
.step6 {transform: translateX(6144px);}
.step7 {transform: translateX(7168px);}
.step8 {transform: translateX(8192px);}
.step9 {transform: translateX(9216px);}
.step10 {transform: translateX(10240px);}
.step11 {transform: translateX(11264px);}
.step12 {transform: translateX(12288px);}
.step13 {transform: translateX(13312px);}
.step14 {transform: translateX(14336px);}
.step15 {transform: translateX(15360px);}
.step16 {transform: translateX(16384px);}
.step17 {transform: translateX(17408px);}
.step18 {transform: translateX(18432px);}
.step19 {transform: translateX(19456px);}
.step20 {transform: translateX(20480px);}
.step21 {transform: translateX(21504px);}
.step22 {transform: translateX(22528px);}
.step23 {transform: translateX(23552px);}
.step24 {transform: translateX(24576px);}
.step25 {transform: translateX(25600px);}
.step26 {transform: translateX(26624px);}
.step27 {transform: translateX(27648px);}
.step28 {transform: translateX(28672px);}
.step29 {transform: translateX(29696px);}
    </style>

    <path d="M 315 678 Q 483 714 487 717 Q 497 726 491 735 Q 484 748 452 756 Q 419 762 387 749 Q 345 736 300 724 Q 249 714 191 708 Q 151 701 179 683 Q 212 662 269 668 L 315 678 Z" fill="lightgray" class="stroke step6"/>
    <path d="M 322 462 Q 377 477 434 493 C 463 501 451 520 421 515 Q 336 502 246 477 Q 236 474 233 476 Q 232 480 237 488 Q 328 609 347 631 Q 359 640 352 652 Q 348 662 315 678 C 288 692 269 698 269 668 Q 269 623 264 609 Q 263 608 262 604 Q 222 513 151 464 Q 127 445 167 410 Q 167 409 170 407 Q 180 397 193 408 Q 227 438 288 451 L 322 462 Z" fill="lightgray" class="stroke step6"/>
    <path d="M 434 493 Q 455 472 458 470 Q 465 469 473 477 Q 480 487 481 513 Q 482 532 460 553 Q 403 596 392 594 Q 388 593 385 582 Q 385 576 421 515 L 434 493 Z" fill="lightgray" class="stroke step6"/>
    <path d="M 350 304 Q 446 329 452 334 Q 459 341 455 349 Q 448 359 421 365 Q 394 369 352 352 L 302 335 Q 293 334 285 330 Q 239 318 183 310 Q 150 303 174 289 Q 211 271 297 291 Q 300 292 303 292 L 350 304 Z" fill="lightgray" class="stroke step6"/>
    <path d="M 346 190 Q 347 251 350 304 L 352 352 Q 358 431 353 437 Q 337 453 322 462 C 297 478 280 480 288 451 Q 298 421 302 349 Q 301 343 302 335 L 303 292 Q 303 247 303 179 C 303 149 345 160 346 190 Z" fill="lightgray" class="stroke step6"/>
    <path d="M 303 179 Q 242 164 177 148 Q 158 142 124 144 Q 111 143 108 133 Q 105 120 115 110 Q 137 94 171 72 Q 181 68 195 77 Q 237 105 282 124 Q 352 151 422 179 Q 449 189 468 203 Q 481 210 482 220 Q 478 226 464 224 Q 407 208 346 190 L 303 179 Z" fill="lightgray" class="stroke step6"/>
    <path d="M 602 550 Q 636 611 670 695 Q 686 738 702 761 Q 709 774 702 787 Q 695 800 662 818 Q 631 831 611 828 Q 592 822 605 801 Q 623 777 617 752 Q 590 614 489 425 Q 482 412 480 406 Q 479 393 492 399 Q 522 411 585 521 L 602 550 Z" fill="lightgray" class="stroke step6"/>
    <path d="M 706 529 Q 745 538 864 553 Q 877 556 878 563 Q 879 575 856 590 Q 817 612 752 586 Q 713 574 683 567 Q 643 560 602 550 C 573 543 555 521 585 521 Q 595 521 656 519 L 706 529 Z" fill="lightgray" class="hide"/>
    <path d="M 677 244 Q 695 283 733 417 Q 737 442 754 472 Q 761 482 753 492 Q 737 511 706 529 C 681 545 642 545 656 519 Q 675 492 676 442 Q 667 355 640 285 L 621 243 Q 558 144 416 89 Q 403 85 399 82 Q 393 76 409 72 Q 452 62 554 110 Q 614 138 652 198 L 677 244 Z" fill="lightgray" class="hide"/>
    <path d="M 652 198 Q 739 69 782 63 Q 864 53 931 54 Q 967 54 964 64 Q 964 68 932 84 Q 764 162 728 194 Q 725 197 724 198 Q 700 220 677 244 L 640 285 Q 618 312 597 340 Q 566 380 533 384 Q 517 387 513 382 Q 510 376 524 365 Q 563 332 621 243 L 652 198 Z" fill="lightgray" class="hide"/></g><g transform="scale(1, -1) translate(0, -900)">
    <style type="text/css">
        .origin {display:none;}
        .hide {display:none;}
        .stroke {fill: #000000;}
        
.step1 {transform: translateX(1024px);}
.step2 {transform: translateX(2048px);}
.step3 {transform: translateX(3072px);}
.step4 {transform: translateX(4096px);}
.step5 {transform: translateX(5120px);}
.step6 {transform: translateX(6144px);}
.step7 {transform: translateX(7168px);}
.step8 {transform: translateX(8192px);}
.step9 {transform: translateX(9216px);}
.step10 {transform: translateX(10240px);}
.step11 {transform: translateX(11264px);}
.step12 {transform: translateX(12288px);}
.step13 {transform: translateX(13312px);}
.step14 {transform: translateX(14336px);}
.step15 {transform: translateX(15360px);}
.step16 {transform: translateX(16384px);}
.step17 {transform: translateX(17408px);}
.step18 {transform: translateX(18432px);}
.step19 {transform: translateX(19456px);}
.step20 {transform: translateX(20480px);}
.step21 {transform: translateX(21504px);}
.step22 {transform: translateX(22528px);}
.step23 {transform: translateX(23552px);}
.step24 {transform: translateX(24576px);}
.step25 {transform: translateX(25600px);}
.step26 {transform: translateX(26624px);}
.step27 {transform: translateX(27648px);}
.step28 {transform: translateX(28672px);}
.step29 {transform: translateX(29696px);}
    </style>

    <path d="M 315 678 Q 483 714 487 717 Q 497 726 491 735 Q 484 748 452 756 Q 419 762 387 749 Q 345 736 300 724 Q 249 714 191 708 Q 151 701 179 683 Q 212 662 269 668 L 315 678 Z" fill="lightgray" class="stroke step7"/>
    <path d="M 322 462 Q 377 477 434 493 C 463 501 451 520 421 515 Q 336 502 246 477 Q 236 474 233 476 Q 232 480 237 488 Q 328 609 347 631 Q 359 640 352 652 Q 348 662 315 678 C 288 692 269 698 269 668 Q 269 623 264 609 Q 263 608 262 604 Q 222 513 151 464 Q 127 445 167 410 Q 167 409 170 407 Q 180 397 193 408 Q 227 438 288 451 L 322 462 Z" fill="lightgray" class="stroke step7"/>
    <path d="M 434 493 Q 455 472 458 470 Q 465 469 473 477 Q 480 487 481 513 Q 482 532 460 553 Q 403 596 392 594 Q 388 593 385 582 Q 385 576 421 515 L 434 493 Z" fill="lightgray" class="stroke step7"/>
    <path d="M 350 304 Q 446 329 452 334 Q 459 341 455 349 Q 448 359 421 365 Q 394 369 352 352 L 302 335 Q 293 334 285 330 Q 239 318 183 310 Q 150 303 174 289 Q 211 271 297 291 Q 300 292 303 292 L 350 304 Z" fill="lightgray" class="stroke step7"/>
    <path d="M 346 190 Q 347 251 350 304 L 352 352 Q 358 431 353 437 Q 337 453 322 462 C 297 478 280 480 288 451 Q 298 421 302 349 Q 301 343 302 335 L 303 292 Q 303 247 303 179 C 303 149 345 160 346 190 Z" fill="lightgray" class="stroke step7"/>
    <path d="M 303 179 Q 242 164 177 148 Q 158 142 124 144 Q 111 143 108 133 Q 105 120 115 110 Q 137 94 171 72 Q 181 68 195 77 Q 237 105 282 124 Q 352 151 422 179 Q 449 189 468 203 Q 481 210 482 220 Q 478 226 464 224 Q 407 208 346 190 L 303 179 Z" fill="lightgray" class="stroke step7"/>
    <path d="M 602 550 Q 636 611 670 695 Q 686 738 702 761 Q 709 774 702 787 Q 695 800 662 818 Q 631 831 611 828 Q 592 822 605 801 Q 623 777 617 752 Q 590 614 489 425 Q 482 412 480 406 Q 479 393 492 399 Q 522 411 585 521 L 602 550 Z" fill="lightgray" class="stroke step7"/>
    <path d="M 706 529 Q 745 538 864 553 Q 877 556 878 563 Q 879 575 856 590 Q 817 612 752 586 Q 713 574 683 567 Q 643 560 602 550 C 573 543 555 521 585 521 Q 595 521 656 519 L 706 529 Z" fill="lightgray" class="stroke step7"/>
    <path d="M 677 244 Q 695 283 733 417 Q 737 442 754 472 Q 761 482 753 492 Q 737 511 706 529 C 681 545 642 545 656 519 Q 675 492 676 442 Q 667 355 640 285 L 621 243 Q 558 144 416 89 Q 403 85 399 82 Q 393 76 409 72 Q 452 62 554 110 Q 614 138 652 198 L 677 244 Z" fill="lightgray" class="hide"/>
    <path d="M 652 198 Q 739 69 782 63 Q 864 53 931 54 Q 967 54 964 64 Q 964 68 932 84 Q 764 162 728 194 Q 725 197 724 198 Q 700 220 677 244 L 640 285 Q 618 312 597 340 Q 566 380 533 384 Q 517 387 513 382 Q 510 376 524 365 Q 563 332 621 243 L 652 198 Z" fill="lightgray" class="hide"/></g><g transform="scale(1, -1) translate(0, -900)">
    <style type="text/css">
        .origin {display:none;}
        .hide {display:none;}
        .stroke {fill: #000000;}
        
.step1 {transform: translateX(1024px);}
.step2 {transform: translateX(2048px);}
.step3 {transform: translateX(3072px);}
.step4 {transform: translateX(4096px);}
.step5 {transform: translateX(5120px);}
.step6 {transform: translateX(6144px);}
.step7 {transform: translateX(7168px);}
.step8 {transform: translateX(8192px);}
.step9 {transform: translateX(9216px);}
.step10 {transform: translateX(10240px);}
.step11 {transform: translateX(11264px);}
.step12 {transform: translateX(12288px);}
.step13 {transform: translateX(13312px);}
.step14 {transform: translateX(14336px);}
.step15 {transform: translateX(15360px);}
.step16 {transform: translateX(16384px);}
.step17 {transform: translateX(17408px);}
.step18 {transform: translateX(18432px);}
.step19 {transform: translateX(19456px);}
.step20 {transform: translateX(20480px);}
.step21 {transform: translateX(21504px);}
.step22 {transform: translateX(22528px);}
.step23 {transform: translateX(23552px);}
.step24 {transform: translateX(24576px);}
.step25 {transform: translateX(25600px);}
.step26 {transform: translateX(26624px);}
.step27 {transform: translateX(27648px);}
.step28 {transform: translateX(28672px);}
.step29 {transform: translateX(29696px);}
    </style>

    <path d="M 315 678 Q 483 714 487 717 Q 497 726 491 735 Q 484 748 452 756 Q 419 762 387 749 Q 345 736 300 724 Q 249 714 191 708 Q 151 701 179 683 Q 212 662 269 668 L 315 678 Z" fill="lightgray" class="stroke step8"/>
    <path d="M 322 462 Q 377 477 434 493 C 463 501 451 520 421 515 Q 336 502 246 477 Q 236 474 233 476 Q 232 480 237 488 Q 328 609 347 631 Q 359 640 352 652 Q 348 662 315 678 C 288 692 269 698 269 668 Q 269 623 264 609 Q 263 608 262 604 Q 222 513 151 464 Q 127 445 167 410 Q 167 409 170 407 Q 180 397 193 408 Q 227 438 288 451 L 322 462 Z" fill="lightgray" class="stroke step8"/>
    <path d="M 434 493 Q 455 472 458 470 Q 465 469 473 477 Q 480 487 481 513 Q 482 532 460 553 Q 403 596 392 594 Q 388 593 385 582 Q 385 576 421 515 L 434 493 Z" fill="lightgray" class="stroke step8"/>
    <path d="M 350 304 Q 446 329 452 334 Q 459 341 455 349 Q 448 359 421 365 Q 394 369 352 352 L 302 335 Q 293 334 285 330 Q 239 318 183 310 Q 150 303 174 289 Q 211 271 297 291 Q 300 292 303 292 L 350 304 Z" fill="lightgray" class="stroke step8"/>
    <path d="M 346 190 Q 347 251 350 304 L 352 352 Q 358 431 353 437 Q 337 453 322 462 C 297 478 280 480 288 451 Q 298 421 302 349 Q 301 343 302 335 L 303 292 Q 303 247 303 179 C 303 149 345 160 346 190 Z" fill="lightgray" class="stroke step8"/>
    <path d="M 303 179 Q 242 164 177 148 Q 158 142 124 144 Q 111 143 108 133 Q 105 120 115 110 Q 137 94 171 72 Q 181 68 195 77 Q 237 105 282 124 Q 352 151 422 179 Q 449 189 468 203 Q 481 210 482 220 Q 478 226 464 224 Q 407 208 346 190 L 303 179 Z" fill="lightgray" class="stroke step8"/>
    <path d="M 602 550 Q 636 611 670 695 Q 686 738 702 761 Q 709 774 702 787 Q 695 800 662 818 Q 631 831 611 828 Q 592 822 605 801 Q 623 777 617 752 Q 590 614 489 425 Q 482 412 480 406 Q 479 393 492 399 Q 522 411 585 521 L 602 550 Z" fill="lightgray" class="stroke step8"/>
    <path d="M 706 529 Q 745 538 864 553 Q 877 556 878 563 Q 879 575 856 590 Q 817 612 752 586 Q 713 574 683 567 Q 643 560 602 550 C 573 543 555 521 585 521 Q 595 521 656 519 L 706 529 Z" fill="lightgray" class="stroke step8"/>
    <path d="M 677 244 Q 695 283 733 417 Q 737 442 754 472 Q 761 482 753 492 Q 737 511 706 529 C 681 545 642 545 656 519 Q 675 492 676 442 Q 667 355 640 285 L 621 243 Q 558 144 416 89 Q 403 85 399 82 Q 393 76 409 72 Q 452 62 554 110 Q 614 138 652 198 L 677 244 Z" fill="lightgray" class="stroke step8"/>
    <path d="M 652 198 Q 739 69 782 63 Q 864 53 931 54 Q 967 54 964 64 Q 964 68 932 84 Q 764 162 728 194 Q 725 197 724 198 Q 700 220 677 244 L 640 285 Q 618 312 597 340 Q 566 380 533 384 Q 517 387 513 382 Q 510 376 524 365 Q 563 332 621 243 L 652 198 Z" fill="lightgray" class="hide"/></g><g transform="scale(1, -1) translate(0, -900)">
    <style type="text/css">
        .origin {display:none;}
        .hide {display:none;}
        .stroke {fill: #000000;}
        
.step1 {transform: translateX(1024px);}
.step2 {transform: translateX(2048px);}
.step3 {transform: translateX(3072px);}
.step4 {transform: translateX(4096px);}
.step5 {transform: translateX(5120px);}
.step6 {transform: translateX(6144px);}
.step7 {transform: translateX(7168px);}
.step8 {transform: translateX(8192px);}
.step9 {transform: translateX(9216px);}
.step10 {transform: translateX(10240px);}
.step11 {transform: translateX(11264px);}
.step12 {transform: translateX(12288px);}
.step13 {transform: translateX(13312px);}
.step14 {transform: translateX(14336px);}
.step15 {transform: translateX(15360px);}
.step16 {transform: translateX(16384px);}
.step17 {transform: translateX(17408px);}
.step18 {transform: translateX(18432px);}
.step19 {transform: translateX(19456px);}
.step20 {transform: translateX(20480px);}
.step21 {transform: translateX(21504px);}
.step22 {transform: translateX(22528px);}
.step23 {transform: translateX(23552px);}
.step24 {transform: translateX(24576px);}
.step25 {transform: translateX(25600px);}
.step26 {transform: translateX(26624px);}
.step27 {transform: translateX(27648px);}
.step28 {transform: translateX(28672px);}
.step29 {transform: translateX(29696px);}
    </style>

    <path d="M 315 678 Q 483 714 487 717 Q 497 726 491 735 Q 484 748 452 756 Q 419 762 387 749 Q 345 736 300 724 Q 249 714 191 708 Q 151 701 179 683 Q 212 662 269 668 L 315 678 Z" fill="lightgray" class="stroke step9"/>
    <path d="M 322 462 Q 377 477 434 493 C 463 501 451 520 421 515 Q 336 502 246 477 Q 236 474 233 476 Q 232 480 237 488 Q 328 609 347 631 Q 359 640 352 652 Q 348 662 315 678 C 288 692 269 698 269 668 Q 269 623 264 609 Q 263 608 262 604 Q 222 513 151 464 Q 127 445 167 410 Q 167 409 170 407 Q 180 397 193 408 Q 227 438 288 451 L 322 462 Z" fill="lightgray" class="stroke step9"/>
    <path d="M 434 493 Q 455 472 458 470 Q 465 469 473 477 Q 480 487 481 513 Q 482 532 460 553 Q 403 596 392 594 Q 388 593 385 582 Q 385 576 421 515 L 434 493 Z" fill="lightgray" class="stroke step9"/>
    <path d="M 350 304 Q 446 329 452 334 Q 459 341 455 349 Q 448 359 421 365 Q 394 369 352 352 L 302 335 Q 293 334 285 330 Q 239 318 183 310 Q 150 303 174 289 Q 211 271 297 291 Q 300 292 303 292 L 350 304 Z" fill="lightgray" class="stroke step9"/>
    <path d="M 346 190 Q 347 251 350 304 L 352 352 Q 358 431 353 437 Q 337 453 322 462 C 297 478 280 480 288 451 Q 298 421 302 349 Q 301 343 302 335 L 303 292 Q 303 247 303 179 C 303 149 345 160 346 190 Z" fill="lightgray" class="stroke step9"/>
    <path d="M 303 179 Q 242 164 177 148 Q 158 142 124 144 Q 111 143 108 133 Q 105 120 115 110 Q 137 94 171 72 Q 181 68 195 77 Q 237 105 282 124 Q 352 151 422 179 Q 449 189 468 203 Q 481 210 482 220 Q 478 226 464 224 Q 407 208 346 190 L 303 179 Z" fill="lightgray" class="stroke step9"/>
    <path d="M 602 550 Q 636 611 670 695 Q 686 738 702 761 Q 709 774 702 787 Q 695 800 662 818 Q 631 831 611 828 Q 592 822 605 801 Q 623 777 617 752 Q 590 614 489 425 Q 482 412 480 406 Q 479 393 492 399 Q 522 411 585 521 L 602 550 Z" fill="lightgray" class="stroke step9"/>
    <path d="M 706 529 Q 745 538 864 553 Q 877 556 878 563 Q 879 575 856 590 Q 817 612 752 586 Q 713 574 683 567 Q 643 560 602 550 C 573 543 555 521 585 521 Q 595 521 656 519 L 706 529 Z" fill="lightgray" class="stroke step9"/>
    <path d="M 677 244 Q 695 283 733 417 Q 737 442 754 472 Q 761 482 753 492 Q 737 511 706 529 C 681 545 642 545 656 519 Q 675 492 676 442 Q 667 355 640 285 L 621 243 Q 558 144 416 89 Q 403 85 399 82 Q 393 76 409 72 Q 452 62 554 110 Q 614 138 652 198 L 677 244 Z" fill="lightgray" class="stroke step9"/>
    <path d="M 652 198 Q 739 69 782 63 Q 864 53 931 54 Q 967 54 964 64 Q 964 68 932 84 Q 764 162 728 194 Q 725 197 724 198 Q 700 220 677 244 L 640 285 Q 618 312 597 340 Q 566 380 533 384 Q 517 387 513 382 Q 510 376 524 365 Q 563 332 621 243 L 652 198 Z" fill="lightgray" class="stroke step9"/></g></svg>