<svg version="1.1" viewBox="0 0 7168 1024" xmlns="http://www.w3.org/2000/svg">
  
  <g transform="scale(1, -1) translate(0, -900)" class="origin">
    <style type="text/css">
        .origin {display:none;}
        .hide {display:none;}
        .stroke {fill: #000000;}
        
.step1 {transform: translateX(1024px);}
.step2 {transform: translateX(2048px);}
.step3 {transform: translateX(3072px);}
.step4 {transform: translateX(4096px);}
.step5 {transform: translateX(5120px);}
.step6 {transform: translateX(6144px);}
.step7 {transform: translateX(7168px);}
.step8 {transform: translateX(8192px);}
.step9 {transform: translateX(9216px);}
.step10 {transform: translateX(10240px);}
.step11 {transform: translateX(11264px);}
.step12 {transform: translateX(12288px);}
.step13 {transform: translateX(13312px);}
.step14 {transform: translateX(14336px);}
.step15 {transform: translateX(15360px);}
.step16 {transform: translateX(16384px);}
.step17 {transform: translateX(17408px);}
.step18 {transform: translateX(18432px);}
.step19 {transform: translateX(19456px);}
.step20 {transform: translateX(20480px);}
.step21 {transform: translateX(21504px);}
.step22 {transform: translateX(22528px);}
.step23 {transform: translateX(23552px);}
.step24 {transform: translateX(24576px);}
.step25 {transform: translateX(25600px);}
.step26 {transform: translateX(26624px);}
.step27 {transform: translateX(27648px);}
.step28 {transform: translateX(28672px);}
.step29 {transform: translateX(29696px);}
    </style>

    <path d="M 347 610 Q 299 606 229 595 Q 202 596 188 596 Q 178 596 176 592 Q 173 583 180 575 Q 193 562 221 550 Q 239 541 255 547 Q 303 563 356 582 C 384 592 377 613 347 610 Z" fill="lightgray"/>
    <path d="M 418 450 Q 418 457 390 680 Q 391 701 369 705 Q 330 723 305 715 Q 287 705 304 686 Q 332 650 347 610 L 356 582 Q 362 569 378 475 Q 382 460 391 448 C 407 423 421 420 418 450 Z" fill="lightgray"/>
    <path d="M 625 486 Q 634 501 674 606 L 685 640 Q 695 670 715 705 Q 728 720 718 730 Q 705 746 670 763 Q 654 772 636 763 Q 626 756 635 745 Q 656 694 598 508 Q 594 492 593 479 C 590 449 611 459 625 486 Z" fill="lightgray"/>
    <path d="M 674 606 Q 689 603 760 609 Q 805 609 830 606 Q 843 605 848 613 Q 852 623 840 635 Q 795 671 711 645 Q 698 644 685 640 C 656 632 644 610 674 606 Z" fill="lightgray"/>
    <path d="M 538 423 Q 586 432 726 444 Q 736 441 747 455 Q 748 468 725 480 Q 685 504 627 487 Q 626 487 625 486 L 593 479 Q 565 475 538 468 L 489 459 Q 452 455 418 450 L 391 448 Q 342 444 290 439 Q 259 436 282 417 Q 318 387 348 393 Q 411 405 488 415 L 538 423 Z" fill="lightgray"/>
    <path d="M 539 277 Q 680 287 853 277 Q 875 277 882 286 Q 889 299 870 316 Q 813 362 769 354 Q 681 339 538 321 L 485 315 Q 338 302 167 285 Q 143 284 160 263 Q 194 229 239 237 Q 390 273 484 274 L 539 277 Z" fill="lightgray"/>
    <path d="M 484 -8 Q 490 -35 497 -45 Q 503 -52 511 -50 Q 526 -41 533 22 Q 537 82 539 277 L 538 321 Q 538 364 538 423 L 538 468 Q 538 690 554 776 Q 558 795 543 804 Q 509 826 492 830 Q 479 834 462 825 Q 453 816 461 806 Q 488 746 491 723 Q 491 554 489 459 L 488 415 Q 487 369 485 315 L 484 274 Q 472 115 484 -8 Z" fill="lightgray"/></g>
<g transform="scale(1, -1) translate(0, -900)">
    <style type="text/css">
        .origin {display:none;}
        .hide {display:none;}
        .stroke {fill: #000000;}
        
.step1 {transform: translateX(1024px);}
.step2 {transform: translateX(2048px);}
.step3 {transform: translateX(3072px);}
.step4 {transform: translateX(4096px);}
.step5 {transform: translateX(5120px);}
.step6 {transform: translateX(6144px);}
.step7 {transform: translateX(7168px);}
.step8 {transform: translateX(8192px);}
.step9 {transform: translateX(9216px);}
.step10 {transform: translateX(10240px);}
.step11 {transform: translateX(11264px);}
.step12 {transform: translateX(12288px);}
.step13 {transform: translateX(13312px);}
.step14 {transform: translateX(14336px);}
.step15 {transform: translateX(15360px);}
.step16 {transform: translateX(16384px);}
.step17 {transform: translateX(17408px);}
.step18 {transform: translateX(18432px);}
.step19 {transform: translateX(19456px);}
.step20 {transform: translateX(20480px);}
.step21 {transform: translateX(21504px);}
.step22 {transform: translateX(22528px);}
.step23 {transform: translateX(23552px);}
.step24 {transform: translateX(24576px);}
.step25 {transform: translateX(25600px);}
.step26 {transform: translateX(26624px);}
.step27 {transform: translateX(27648px);}
.step28 {transform: translateX(28672px);}
.step29 {transform: translateX(29696px);}
    </style>

    <path d="M 347 610 Q 299 606 229 595 Q 202 596 188 596 Q 178 596 176 592 Q 173 583 180 575 Q 193 562 221 550 Q 239 541 255 547 Q 303 563 356 582 C 384 592 377 613 347 610 Z" fill="lightgray" class="stroke step0"/>
    <path d="M 418 450 Q 418 457 390 680 Q 391 701 369 705 Q 330 723 305 715 Q 287 705 304 686 Q 332 650 347 610 L 356 582 Q 362 569 378 475 Q 382 460 391 448 C 407 423 421 420 418 450 Z" fill="lightgray" class="hide"/>
    <path d="M 625 486 Q 634 501 674 606 L 685 640 Q 695 670 715 705 Q 728 720 718 730 Q 705 746 670 763 Q 654 772 636 763 Q 626 756 635 745 Q 656 694 598 508 Q 594 492 593 479 C 590 449 611 459 625 486 Z" fill="lightgray" class="hide"/>
    <path d="M 674 606 Q 689 603 760 609 Q 805 609 830 606 Q 843 605 848 613 Q 852 623 840 635 Q 795 671 711 645 Q 698 644 685 640 C 656 632 644 610 674 606 Z" fill="lightgray" class="hide"/>
    <path d="M 538 423 Q 586 432 726 444 Q 736 441 747 455 Q 748 468 725 480 Q 685 504 627 487 Q 626 487 625 486 L 593 479 Q 565 475 538 468 L 489 459 Q 452 455 418 450 L 391 448 Q 342 444 290 439 Q 259 436 282 417 Q 318 387 348 393 Q 411 405 488 415 L 538 423 Z" fill="lightgray" class="hide"/>
    <path d="M 539 277 Q 680 287 853 277 Q 875 277 882 286 Q 889 299 870 316 Q 813 362 769 354 Q 681 339 538 321 L 485 315 Q 338 302 167 285 Q 143 284 160 263 Q 194 229 239 237 Q 390 273 484 274 L 539 277 Z" fill="lightgray" class="hide"/>
    <path d="M 484 -8 Q 490 -35 497 -45 Q 503 -52 511 -50 Q 526 -41 533 22 Q 537 82 539 277 L 538 321 Q 538 364 538 423 L 538 468 Q 538 690 554 776 Q 558 795 543 804 Q 509 826 492 830 Q 479 834 462 825 Q 453 816 461 806 Q 488 746 491 723 Q 491 554 489 459 L 488 415 Q 487 369 485 315 L 484 274 Q 472 115 484 -8 Z" fill="lightgray" class="hide"/></g><g transform="scale(1, -1) translate(0, -900)">
    <style type="text/css">
        .origin {display:none;}
        .hide {display:none;}
        .stroke {fill: #000000;}
        
.step1 {transform: translateX(1024px);}
.step2 {transform: translateX(2048px);}
.step3 {transform: translateX(3072px);}
.step4 {transform: translateX(4096px);}
.step5 {transform: translateX(5120px);}
.step6 {transform: translateX(6144px);}
.step7 {transform: translateX(7168px);}
.step8 {transform: translateX(8192px);}
.step9 {transform: translateX(9216px);}
.step10 {transform: translateX(10240px);}
.step11 {transform: translateX(11264px);}
.step12 {transform: translateX(12288px);}
.step13 {transform: translateX(13312px);}
.step14 {transform: translateX(14336px);}
.step15 {transform: translateX(15360px);}
.step16 {transform: translateX(16384px);}
.step17 {transform: translateX(17408px);}
.step18 {transform: translateX(18432px);}
.step19 {transform: translateX(19456px);}
.step20 {transform: translateX(20480px);}
.step21 {transform: translateX(21504px);}
.step22 {transform: translateX(22528px);}
.step23 {transform: translateX(23552px);}
.step24 {transform: translateX(24576px);}
.step25 {transform: translateX(25600px);}
.step26 {transform: translateX(26624px);}
.step27 {transform: translateX(27648px);}
.step28 {transform: translateX(28672px);}
.step29 {transform: translateX(29696px);}
    </style>

    <path d="M 347 610 Q 299 606 229 595 Q 202 596 188 596 Q 178 596 176 592 Q 173 583 180 575 Q 193 562 221 550 Q 239 541 255 547 Q 303 563 356 582 C 384 592 377 613 347 610 Z" fill="lightgray" class="stroke step1"/>
    <path d="M 418 450 Q 418 457 390 680 Q 391 701 369 705 Q 330 723 305 715 Q 287 705 304 686 Q 332 650 347 610 L 356 582 Q 362 569 378 475 Q 382 460 391 448 C 407 423 421 420 418 450 Z" fill="lightgray" class="stroke step1"/>
    <path d="M 625 486 Q 634 501 674 606 L 685 640 Q 695 670 715 705 Q 728 720 718 730 Q 705 746 670 763 Q 654 772 636 763 Q 626 756 635 745 Q 656 694 598 508 Q 594 492 593 479 C 590 449 611 459 625 486 Z" fill="lightgray" class="hide"/>
    <path d="M 674 606 Q 689 603 760 609 Q 805 609 830 606 Q 843 605 848 613 Q 852 623 840 635 Q 795 671 711 645 Q 698 644 685 640 C 656 632 644 610 674 606 Z" fill="lightgray" class="hide"/>
    <path d="M 538 423 Q 586 432 726 444 Q 736 441 747 455 Q 748 468 725 480 Q 685 504 627 487 Q 626 487 625 486 L 593 479 Q 565 475 538 468 L 489 459 Q 452 455 418 450 L 391 448 Q 342 444 290 439 Q 259 436 282 417 Q 318 387 348 393 Q 411 405 488 415 L 538 423 Z" fill="lightgray" class="hide"/>
    <path d="M 539 277 Q 680 287 853 277 Q 875 277 882 286 Q 889 299 870 316 Q 813 362 769 354 Q 681 339 538 321 L 485 315 Q 338 302 167 285 Q 143 284 160 263 Q 194 229 239 237 Q 390 273 484 274 L 539 277 Z" fill="lightgray" class="hide"/>
    <path d="M 484 -8 Q 490 -35 497 -45 Q 503 -52 511 -50 Q 526 -41 533 22 Q 537 82 539 277 L 538 321 Q 538 364 538 423 L 538 468 Q 538 690 554 776 Q 558 795 543 804 Q 509 826 492 830 Q 479 834 462 825 Q 453 816 461 806 Q 488 746 491 723 Q 491 554 489 459 L 488 415 Q 487 369 485 315 L 484 274 Q 472 115 484 -8 Z" fill="lightgray" class="hide"/></g><g transform="scale(1, -1) translate(0, -900)">
    <style type="text/css">
        .origin {display:none;}
        .hide {display:none;}
        .stroke {fill: #000000;}
        
.step1 {transform: translateX(1024px);}
.step2 {transform: translateX(2048px);}
.step3 {transform: translateX(3072px);}
.step4 {transform: translateX(4096px);}
.step5 {transform: translateX(5120px);}
.step6 {transform: translateX(6144px);}
.step7 {transform: translateX(7168px);}
.step8 {transform: translateX(8192px);}
.step9 {transform: translateX(9216px);}
.step10 {transform: translateX(10240px);}
.step11 {transform: translateX(11264px);}
.step12 {transform: translateX(12288px);}
.step13 {transform: translateX(13312px);}
.step14 {transform: translateX(14336px);}
.step15 {transform: translateX(15360px);}
.step16 {transform: translateX(16384px);}
.step17 {transform: translateX(17408px);}
.step18 {transform: translateX(18432px);}
.step19 {transform: translateX(19456px);}
.step20 {transform: translateX(20480px);}
.step21 {transform: translateX(21504px);}
.step22 {transform: translateX(22528px);}
.step23 {transform: translateX(23552px);}
.step24 {transform: translateX(24576px);}
.step25 {transform: translateX(25600px);}
.step26 {transform: translateX(26624px);}
.step27 {transform: translateX(27648px);}
.step28 {transform: translateX(28672px);}
.step29 {transform: translateX(29696px);}
    </style>

    <path d="M 347 610 Q 299 606 229 595 Q 202 596 188 596 Q 178 596 176 592 Q 173 583 180 575 Q 193 562 221 550 Q 239 541 255 547 Q 303 563 356 582 C 384 592 377 613 347 610 Z" fill="lightgray" class="stroke step2"/>
    <path d="M 418 450 Q 418 457 390 680 Q 391 701 369 705 Q 330 723 305 715 Q 287 705 304 686 Q 332 650 347 610 L 356 582 Q 362 569 378 475 Q 382 460 391 448 C 407 423 421 420 418 450 Z" fill="lightgray" class="stroke step2"/>
    <path d="M 625 486 Q 634 501 674 606 L 685 640 Q 695 670 715 705 Q 728 720 718 730 Q 705 746 670 763 Q 654 772 636 763 Q 626 756 635 745 Q 656 694 598 508 Q 594 492 593 479 C 590 449 611 459 625 486 Z" fill="lightgray" class="stroke step2"/>
    <path d="M 674 606 Q 689 603 760 609 Q 805 609 830 606 Q 843 605 848 613 Q 852 623 840 635 Q 795 671 711 645 Q 698 644 685 640 C 656 632 644 610 674 606 Z" fill="lightgray" class="hide"/>
    <path d="M 538 423 Q 586 432 726 444 Q 736 441 747 455 Q 748 468 725 480 Q 685 504 627 487 Q 626 487 625 486 L 593 479 Q 565 475 538 468 L 489 459 Q 452 455 418 450 L 391 448 Q 342 444 290 439 Q 259 436 282 417 Q 318 387 348 393 Q 411 405 488 415 L 538 423 Z" fill="lightgray" class="hide"/>
    <path d="M 539 277 Q 680 287 853 277 Q 875 277 882 286 Q 889 299 870 316 Q 813 362 769 354 Q 681 339 538 321 L 485 315 Q 338 302 167 285 Q 143 284 160 263 Q 194 229 239 237 Q 390 273 484 274 L 539 277 Z" fill="lightgray" class="hide"/>
    <path d="M 484 -8 Q 490 -35 497 -45 Q 503 -52 511 -50 Q 526 -41 533 22 Q 537 82 539 277 L 538 321 Q 538 364 538 423 L 538 468 Q 538 690 554 776 Q 558 795 543 804 Q 509 826 492 830 Q 479 834 462 825 Q 453 816 461 806 Q 488 746 491 723 Q 491 554 489 459 L 488 415 Q 487 369 485 315 L 484 274 Q 472 115 484 -8 Z" fill="lightgray" class="hide"/></g><g transform="scale(1, -1) translate(0, -900)">
    <style type="text/css">
        .origin {display:none;}
        .hide {display:none;}
        .stroke {fill: #000000;}
        
.step1 {transform: translateX(1024px);}
.step2 {transform: translateX(2048px);}
.step3 {transform: translateX(3072px);}
.step4 {transform: translateX(4096px);}
.step5 {transform: translateX(5120px);}
.step6 {transform: translateX(6144px);}
.step7 {transform: translateX(7168px);}
.step8 {transform: translateX(8192px);}
.step9 {transform: translateX(9216px);}
.step10 {transform: translateX(10240px);}
.step11 {transform: translateX(11264px);}
.step12 {transform: translateX(12288px);}
.step13 {transform: translateX(13312px);}
.step14 {transform: translateX(14336px);}
.step15 {transform: translateX(15360px);}
.step16 {transform: translateX(16384px);}
.step17 {transform: translateX(17408px);}
.step18 {transform: translateX(18432px);}
.step19 {transform: translateX(19456px);}
.step20 {transform: translateX(20480px);}
.step21 {transform: translateX(21504px);}
.step22 {transform: translateX(22528px);}
.step23 {transform: translateX(23552px);}
.step24 {transform: translateX(24576px);}
.step25 {transform: translateX(25600px);}
.step26 {transform: translateX(26624px);}
.step27 {transform: translateX(27648px);}
.step28 {transform: translateX(28672px);}
.step29 {transform: translateX(29696px);}
    </style>

    <path d="M 347 610 Q 299 606 229 595 Q 202 596 188 596 Q 178 596 176 592 Q 173 583 180 575 Q 193 562 221 550 Q 239 541 255 547 Q 303 563 356 582 C 384 592 377 613 347 610 Z" fill="lightgray" class="stroke step3"/>
    <path d="M 418 450 Q 418 457 390 680 Q 391 701 369 705 Q 330 723 305 715 Q 287 705 304 686 Q 332 650 347 610 L 356 582 Q 362 569 378 475 Q 382 460 391 448 C 407 423 421 420 418 450 Z" fill="lightgray" class="stroke step3"/>
    <path d="M 625 486 Q 634 501 674 606 L 685 640 Q 695 670 715 705 Q 728 720 718 730 Q 705 746 670 763 Q 654 772 636 763 Q 626 756 635 745 Q 656 694 598 508 Q 594 492 593 479 C 590 449 611 459 625 486 Z" fill="lightgray" class="stroke step3"/>
    <path d="M 674 606 Q 689 603 760 609 Q 805 609 830 606 Q 843 605 848 613 Q 852 623 840 635 Q 795 671 711 645 Q 698 644 685 640 C 656 632 644 610 674 606 Z" fill="lightgray" class="stroke step3"/>
    <path d="M 538 423 Q 586 432 726 444 Q 736 441 747 455 Q 748 468 725 480 Q 685 504 627 487 Q 626 487 625 486 L 593 479 Q 565 475 538 468 L 489 459 Q 452 455 418 450 L 391 448 Q 342 444 290 439 Q 259 436 282 417 Q 318 387 348 393 Q 411 405 488 415 L 538 423 Z" fill="lightgray" class="hide"/>
    <path d="M 539 277 Q 680 287 853 277 Q 875 277 882 286 Q 889 299 870 316 Q 813 362 769 354 Q 681 339 538 321 L 485 315 Q 338 302 167 285 Q 143 284 160 263 Q 194 229 239 237 Q 390 273 484 274 L 539 277 Z" fill="lightgray" class="hide"/>
    <path d="M 484 -8 Q 490 -35 497 -45 Q 503 -52 511 -50 Q 526 -41 533 22 Q 537 82 539 277 L 538 321 Q 538 364 538 423 L 538 468 Q 538 690 554 776 Q 558 795 543 804 Q 509 826 492 830 Q 479 834 462 825 Q 453 816 461 806 Q 488 746 491 723 Q 491 554 489 459 L 488 415 Q 487 369 485 315 L 484 274 Q 472 115 484 -8 Z" fill="lightgray" class="hide"/></g><g transform="scale(1, -1) translate(0, -900)">
    <style type="text/css">
        .origin {display:none;}
        .hide {display:none;}
        .stroke {fill: #000000;}
        
.step1 {transform: translateX(1024px);}
.step2 {transform: translateX(2048px);}
.step3 {transform: translateX(3072px);}
.step4 {transform: translateX(4096px);}
.step5 {transform: translateX(5120px);}
.step6 {transform: translateX(6144px);}
.step7 {transform: translateX(7168px);}
.step8 {transform: translateX(8192px);}
.step9 {transform: translateX(9216px);}
.step10 {transform: translateX(10240px);}
.step11 {transform: translateX(11264px);}
.step12 {transform: translateX(12288px);}
.step13 {transform: translateX(13312px);}
.step14 {transform: translateX(14336px);}
.step15 {transform: translateX(15360px);}
.step16 {transform: translateX(16384px);}
.step17 {transform: translateX(17408px);}
.step18 {transform: translateX(18432px);}
.step19 {transform: translateX(19456px);}
.step20 {transform: translateX(20480px);}
.step21 {transform: translateX(21504px);}
.step22 {transform: translateX(22528px);}
.step23 {transform: translateX(23552px);}
.step24 {transform: translateX(24576px);}
.step25 {transform: translateX(25600px);}
.step26 {transform: translateX(26624px);}
.step27 {transform: translateX(27648px);}
.step28 {transform: translateX(28672px);}
.step29 {transform: translateX(29696px);}
    </style>

    <path d="M 347 610 Q 299 606 229 595 Q 202 596 188 596 Q 178 596 176 592 Q 173 583 180 575 Q 193 562 221 550 Q 239 541 255 547 Q 303 563 356 582 C 384 592 377 613 347 610 Z" fill="lightgray" class="stroke step4"/>
    <path d="M 418 450 Q 418 457 390 680 Q 391 701 369 705 Q 330 723 305 715 Q 287 705 304 686 Q 332 650 347 610 L 356 582 Q 362 569 378 475 Q 382 460 391 448 C 407 423 421 420 418 450 Z" fill="lightgray" class="stroke step4"/>
    <path d="M 625 486 Q 634 501 674 606 L 685 640 Q 695 670 715 705 Q 728 720 718 730 Q 705 746 670 763 Q 654 772 636 763 Q 626 756 635 745 Q 656 694 598 508 Q 594 492 593 479 C 590 449 611 459 625 486 Z" fill="lightgray" class="stroke step4"/>
    <path d="M 674 606 Q 689 603 760 609 Q 805 609 830 606 Q 843 605 848 613 Q 852 623 840 635 Q 795 671 711 645 Q 698 644 685 640 C 656 632 644 610 674 606 Z" fill="lightgray" class="stroke step4"/>
    <path d="M 538 423 Q 586 432 726 444 Q 736 441 747 455 Q 748 468 725 480 Q 685 504 627 487 Q 626 487 625 486 L 593 479 Q 565 475 538 468 L 489 459 Q 452 455 418 450 L 391 448 Q 342 444 290 439 Q 259 436 282 417 Q 318 387 348 393 Q 411 405 488 415 L 538 423 Z" fill="lightgray" class="stroke step4"/>
    <path d="M 539 277 Q 680 287 853 277 Q 875 277 882 286 Q 889 299 870 316 Q 813 362 769 354 Q 681 339 538 321 L 485 315 Q 338 302 167 285 Q 143 284 160 263 Q 194 229 239 237 Q 390 273 484 274 L 539 277 Z" fill="lightgray" class="hide"/>
    <path d="M 484 -8 Q 490 -35 497 -45 Q 503 -52 511 -50 Q 526 -41 533 22 Q 537 82 539 277 L 538 321 Q 538 364 538 423 L 538 468 Q 538 690 554 776 Q 558 795 543 804 Q 509 826 492 830 Q 479 834 462 825 Q 453 816 461 806 Q 488 746 491 723 Q 491 554 489 459 L 488 415 Q 487 369 485 315 L 484 274 Q 472 115 484 -8 Z" fill="lightgray" class="hide"/></g><g transform="scale(1, -1) translate(0, -900)">
    <style type="text/css">
        .origin {display:none;}
        .hide {display:none;}
        .stroke {fill: #000000;}
        
.step1 {transform: translateX(1024px);}
.step2 {transform: translateX(2048px);}
.step3 {transform: translateX(3072px);}
.step4 {transform: translateX(4096px);}
.step5 {transform: translateX(5120px);}
.step6 {transform: translateX(6144px);}
.step7 {transform: translateX(7168px);}
.step8 {transform: translateX(8192px);}
.step9 {transform: translateX(9216px);}
.step10 {transform: translateX(10240px);}
.step11 {transform: translateX(11264px);}
.step12 {transform: translateX(12288px);}
.step13 {transform: translateX(13312px);}
.step14 {transform: translateX(14336px);}
.step15 {transform: translateX(15360px);}
.step16 {transform: translateX(16384px);}
.step17 {transform: translateX(17408px);}
.step18 {transform: translateX(18432px);}
.step19 {transform: translateX(19456px);}
.step20 {transform: translateX(20480px);}
.step21 {transform: translateX(21504px);}
.step22 {transform: translateX(22528px);}
.step23 {transform: translateX(23552px);}
.step24 {transform: translateX(24576px);}
.step25 {transform: translateX(25600px);}
.step26 {transform: translateX(26624px);}
.step27 {transform: translateX(27648px);}
.step28 {transform: translateX(28672px);}
.step29 {transform: translateX(29696px);}
    </style>

    <path d="M 347 610 Q 299 606 229 595 Q 202 596 188 596 Q 178 596 176 592 Q 173 583 180 575 Q 193 562 221 550 Q 239 541 255 547 Q 303 563 356 582 C 384 592 377 613 347 610 Z" fill="lightgray" class="stroke step5"/>
    <path d="M 418 450 Q 418 457 390 680 Q 391 701 369 705 Q 330 723 305 715 Q 287 705 304 686 Q 332 650 347 610 L 356 582 Q 362 569 378 475 Q 382 460 391 448 C 407 423 421 420 418 450 Z" fill="lightgray" class="stroke step5"/>
    <path d="M 625 486 Q 634 501 674 606 L 685 640 Q 695 670 715 705 Q 728 720 718 730 Q 705 746 670 763 Q 654 772 636 763 Q 626 756 635 745 Q 656 694 598 508 Q 594 492 593 479 C 590 449 611 459 625 486 Z" fill="lightgray" class="stroke step5"/>
    <path d="M 674 606 Q 689 603 760 609 Q 805 609 830 606 Q 843 605 848 613 Q 852 623 840 635 Q 795 671 711 645 Q 698 644 685 640 C 656 632 644 610 674 606 Z" fill="lightgray" class="stroke step5"/>
    <path d="M 538 423 Q 586 432 726 444 Q 736 441 747 455 Q 748 468 725 480 Q 685 504 627 487 Q 626 487 625 486 L 593 479 Q 565 475 538 468 L 489 459 Q 452 455 418 450 L 391 448 Q 342 444 290 439 Q 259 436 282 417 Q 318 387 348 393 Q 411 405 488 415 L 538 423 Z" fill="lightgray" class="stroke step5"/>
    <path d="M 539 277 Q 680 287 853 277 Q 875 277 882 286 Q 889 299 870 316 Q 813 362 769 354 Q 681 339 538 321 L 485 315 Q 338 302 167 285 Q 143 284 160 263 Q 194 229 239 237 Q 390 273 484 274 L 539 277 Z" fill="lightgray" class="stroke step5"/>
    <path d="M 484 -8 Q 490 -35 497 -45 Q 503 -52 511 -50 Q 526 -41 533 22 Q 537 82 539 277 L 538 321 Q 538 364 538 423 L 538 468 Q 538 690 554 776 Q 558 795 543 804 Q 509 826 492 830 Q 479 834 462 825 Q 453 816 461 806 Q 488 746 491 723 Q 491 554 489 459 L 488 415 Q 487 369 485 315 L 484 274 Q 472 115 484 -8 Z" fill="lightgray" class="hide"/></g><g transform="scale(1, -1) translate(0, -900)">
    <style type="text/css">
        .origin {display:none;}
        .hide {display:none;}
        .stroke {fill: #000000;}
        
.step1 {transform: translateX(1024px);}
.step2 {transform: translateX(2048px);}
.step3 {transform: translateX(3072px);}
.step4 {transform: translateX(4096px);}
.step5 {transform: translateX(5120px);}
.step6 {transform: translateX(6144px);}
.step7 {transform: translateX(7168px);}
.step8 {transform: translateX(8192px);}
.step9 {transform: translateX(9216px);}
.step10 {transform: translateX(10240px);}
.step11 {transform: translateX(11264px);}
.step12 {transform: translateX(12288px);}
.step13 {transform: translateX(13312px);}
.step14 {transform: translateX(14336px);}
.step15 {transform: translateX(15360px);}
.step16 {transform: translateX(16384px);}
.step17 {transform: translateX(17408px);}
.step18 {transform: translateX(18432px);}
.step19 {transform: translateX(19456px);}
.step20 {transform: translateX(20480px);}
.step21 {transform: translateX(21504px);}
.step22 {transform: translateX(22528px);}
.step23 {transform: translateX(23552px);}
.step24 {transform: translateX(24576px);}
.step25 {transform: translateX(25600px);}
.step26 {transform: translateX(26624px);}
.step27 {transform: translateX(27648px);}
.step28 {transform: translateX(28672px);}
.step29 {transform: translateX(29696px);}
    </style>

    <path d="M 347 610 Q 299 606 229 595 Q 202 596 188 596 Q 178 596 176 592 Q 173 583 180 575 Q 193 562 221 550 Q 239 541 255 547 Q 303 563 356 582 C 384 592 377 613 347 610 Z" fill="lightgray" class="stroke step6"/>
    <path d="M 418 450 Q 418 457 390 680 Q 391 701 369 705 Q 330 723 305 715 Q 287 705 304 686 Q 332 650 347 610 L 356 582 Q 362 569 378 475 Q 382 460 391 448 C 407 423 421 420 418 450 Z" fill="lightgray" class="stroke step6"/>
    <path d="M 625 486 Q 634 501 674 606 L 685 640 Q 695 670 715 705 Q 728 720 718 730 Q 705 746 670 763 Q 654 772 636 763 Q 626 756 635 745 Q 656 694 598 508 Q 594 492 593 479 C 590 449 611 459 625 486 Z" fill="lightgray" class="stroke step6"/>
    <path d="M 674 606 Q 689 603 760 609 Q 805 609 830 606 Q 843 605 848 613 Q 852 623 840 635 Q 795 671 711 645 Q 698 644 685 640 C 656 632 644 610 674 606 Z" fill="lightgray" class="stroke step6"/>
    <path d="M 538 423 Q 586 432 726 444 Q 736 441 747 455 Q 748 468 725 480 Q 685 504 627 487 Q 626 487 625 486 L 593 479 Q 565 475 538 468 L 489 459 Q 452 455 418 450 L 391 448 Q 342 444 290 439 Q 259 436 282 417 Q 318 387 348 393 Q 411 405 488 415 L 538 423 Z" fill="lightgray" class="stroke step6"/>
    <path d="M 539 277 Q 680 287 853 277 Q 875 277 882 286 Q 889 299 870 316 Q 813 362 769 354 Q 681 339 538 321 L 485 315 Q 338 302 167 285 Q 143 284 160 263 Q 194 229 239 237 Q 390 273 484 274 L 539 277 Z" fill="lightgray" class="stroke step6"/>
    <path d="M 484 -8 Q 490 -35 497 -45 Q 503 -52 511 -50 Q 526 -41 533 22 Q 537 82 539 277 L 538 321 Q 538 364 538 423 L 538 468 Q 538 690 554 776 Q 558 795 543 804 Q 509 826 492 830 Q 479 834 462 825 Q 453 816 461 806 Q 488 746 491 723 Q 491 554 489 459 L 488 415 Q 487 369 485 315 L 484 274 Q 472 115 484 -8 Z" fill="lightgray" class="stroke step6"/></g></svg>