<svg version="1.1" viewBox="0 0 8192 1024" xmlns="http://www.w3.org/2000/svg">
  
  <g transform="scale(1, -1) translate(0, -900)" class="origin">
    <style type="text/css">
        .origin {display:none;}
        .hide {display:none;}
        .stroke {fill: #000000;}
        
.step1 {transform: translateX(1024px);}
.step2 {transform: translateX(2048px);}
.step3 {transform: translateX(3072px);}
.step4 {transform: translateX(4096px);}
.step5 {transform: translateX(5120px);}
.step6 {transform: translateX(6144px);}
.step7 {transform: translateX(7168px);}
.step8 {transform: translateX(8192px);}
.step9 {transform: translateX(9216px);}
.step10 {transform: translateX(10240px);}
.step11 {transform: translateX(11264px);}
.step12 {transform: translateX(12288px);}
.step13 {transform: translateX(13312px);}
.step14 {transform: translateX(14336px);}
.step15 {transform: translateX(15360px);}
.step16 {transform: translateX(16384px);}
.step17 {transform: translateX(17408px);}
.step18 {transform: translateX(18432px);}
.step19 {transform: translateX(19456px);}
.step20 {transform: translateX(20480px);}
.step21 {transform: translateX(21504px);}
.step22 {transform: translateX(22528px);}
.step23 {transform: translateX(23552px);}
.step24 {transform: translateX(24576px);}
.step25 {transform: translateX(25600px);}
.step26 {transform: translateX(26624px);}
.step27 {transform: translateX(27648px);}
.step28 {transform: translateX(28672px);}
.step29 {transform: translateX(29696px);}
    </style>

    <path d="M 646 688 Q 722 700 819 692 Q 835 691 839 701 Q 843 711 831 726 Q 783 765 697 744 Q 681 741 665 737 L 603 726 Q 521 713 429 699 L 381 693 Q 305 684 222 674 Q 194 670 214 655 Q 256 630 337 646 Q 362 653 389 657 L 432 666 Q 492 678 594 684 L 646 688 Z" fill="lightgray"/>
    <path d="M 429 699 Q 428 733 426 760 Q 427 779 408 785 Q 369 806 347 798 Q 328 789 343 770 Q 371 736 381 693 L 389 657 Q 401 597 415 580 Q 428 570 433 581 Q 436 593 432 666 L 429 699 Z" fill="lightgray"/>
    <path d="M 665 737 Q 674 761 691 789 Q 707 805 695 816 Q 682 834 645 852 Q 627 862 608 852 Q 598 845 606 833 Q 619 803 603 726 L 594 684 Q 572 609 574 588 Q 575 572 592 585 Q 610 600 646 688 L 665 737 Z" fill="lightgray"/>
    <path d="M 338 466 Q 314 481 287 488 Q 274 491 265 484 Q 258 478 266 464 Q 284 440 294 414 Q 303 389 326 288 C 333 259 370 262 366 292 Q 351 403 351 433 C 350 459 350 459 338 466 Z" fill="lightgray"/>
    <path d="M 709 334 Q 739 418 775 441 Q 794 460 779 479 Q 763 495 709 523 Q 690 532 667 525 Q 600 503 539 490 L 478 480 Q 408 471 338 466 C 308 464 321 430 351 433 Q 364 433 381 437 Q 427 444 477 451 L 535 460 Q 583 467 632 475 Q 663 481 676 467 Q 691 449 651 326 C 642 297 698 306 709 334 Z" fill="lightgray"/>
    <path d="M 523 278 Q 599 284 916 285 Q 937 284 942 293 Q 949 306 931 321 Q 867 369 804 350 Q 761 344 709 334 L 651 326 Q 587 319 514 308 L 467 302 Q 416 301 366 292 L 326 288 Q 223 279 110 267 Q 88 266 104 247 Q 119 232 138 226 Q 160 219 177 224 Q 304 255 446 270 Q 453 271 463 272 L 523 278 Z" fill="lightgray"/>
    <path d="M 463 272 Q 445 157 369 103 Q 308 58 177 20 Q 164 16 162 11 Q 163 7 174 4 Q 193 0 244 8 Q 329 21 391 66 Q 475 124 505 254 L 514 308 Q 515 312 516 317 Q 525 390 535 460 L 539 490 Q 542 506 556 529 Q 563 544 553 555 Q 531 574 492 588 Q 467 595 457 589 Q 448 582 455 569 Q 477 532 478 480 L 477 451 Q 476 375 467 302 L 463 272 Z" fill="lightgray"/>
    <path d="M 505 254 Q 599 130 719 -1 Q 741 -23 777 -21 Q 898 -12 936 -4 Q 946 0 949 5 Q 948 11 837 53 Q 756 83 714 114 Q 626 181 523 278 C 501 299 486 279 505 254 Z" fill="lightgray"/></g>
<g transform="scale(1, -1) translate(0, -900)">
    <style type="text/css">
        .origin {display:none;}
        .hide {display:none;}
        .stroke {fill: #000000;}
        
.step1 {transform: translateX(1024px);}
.step2 {transform: translateX(2048px);}
.step3 {transform: translateX(3072px);}
.step4 {transform: translateX(4096px);}
.step5 {transform: translateX(5120px);}
.step6 {transform: translateX(6144px);}
.step7 {transform: translateX(7168px);}
.step8 {transform: translateX(8192px);}
.step9 {transform: translateX(9216px);}
.step10 {transform: translateX(10240px);}
.step11 {transform: translateX(11264px);}
.step12 {transform: translateX(12288px);}
.step13 {transform: translateX(13312px);}
.step14 {transform: translateX(14336px);}
.step15 {transform: translateX(15360px);}
.step16 {transform: translateX(16384px);}
.step17 {transform: translateX(17408px);}
.step18 {transform: translateX(18432px);}
.step19 {transform: translateX(19456px);}
.step20 {transform: translateX(20480px);}
.step21 {transform: translateX(21504px);}
.step22 {transform: translateX(22528px);}
.step23 {transform: translateX(23552px);}
.step24 {transform: translateX(24576px);}
.step25 {transform: translateX(25600px);}
.step26 {transform: translateX(26624px);}
.step27 {transform: translateX(27648px);}
.step28 {transform: translateX(28672px);}
.step29 {transform: translateX(29696px);}
    </style>

    <path d="M 646 688 Q 722 700 819 692 Q 835 691 839 701 Q 843 711 831 726 Q 783 765 697 744 Q 681 741 665 737 L 603 726 Q 521 713 429 699 L 381 693 Q 305 684 222 674 Q 194 670 214 655 Q 256 630 337 646 Q 362 653 389 657 L 432 666 Q 492 678 594 684 L 646 688 Z" fill="lightgray" class="stroke step0"/>
    <path d="M 429 699 Q 428 733 426 760 Q 427 779 408 785 Q 369 806 347 798 Q 328 789 343 770 Q 371 736 381 693 L 389 657 Q 401 597 415 580 Q 428 570 433 581 Q 436 593 432 666 L 429 699 Z" fill="lightgray" class="hide"/>
    <path d="M 665 737 Q 674 761 691 789 Q 707 805 695 816 Q 682 834 645 852 Q 627 862 608 852 Q 598 845 606 833 Q 619 803 603 726 L 594 684 Q 572 609 574 588 Q 575 572 592 585 Q 610 600 646 688 L 665 737 Z" fill="lightgray" class="hide"/>
    <path d="M 338 466 Q 314 481 287 488 Q 274 491 265 484 Q 258 478 266 464 Q 284 440 294 414 Q 303 389 326 288 C 333 259 370 262 366 292 Q 351 403 351 433 C 350 459 350 459 338 466 Z" fill="lightgray" class="hide"/>
    <path d="M 709 334 Q 739 418 775 441 Q 794 460 779 479 Q 763 495 709 523 Q 690 532 667 525 Q 600 503 539 490 L 478 480 Q 408 471 338 466 C 308 464 321 430 351 433 Q 364 433 381 437 Q 427 444 477 451 L 535 460 Q 583 467 632 475 Q 663 481 676 467 Q 691 449 651 326 C 642 297 698 306 709 334 Z" fill="lightgray" class="hide"/>
    <path d="M 523 278 Q 599 284 916 285 Q 937 284 942 293 Q 949 306 931 321 Q 867 369 804 350 Q 761 344 709 334 L 651 326 Q 587 319 514 308 L 467 302 Q 416 301 366 292 L 326 288 Q 223 279 110 267 Q 88 266 104 247 Q 119 232 138 226 Q 160 219 177 224 Q 304 255 446 270 Q 453 271 463 272 L 523 278 Z" fill="lightgray" class="hide"/>
    <path d="M 463 272 Q 445 157 369 103 Q 308 58 177 20 Q 164 16 162 11 Q 163 7 174 4 Q 193 0 244 8 Q 329 21 391 66 Q 475 124 505 254 L 514 308 Q 515 312 516 317 Q 525 390 535 460 L 539 490 Q 542 506 556 529 Q 563 544 553 555 Q 531 574 492 588 Q 467 595 457 589 Q 448 582 455 569 Q 477 532 478 480 L 477 451 Q 476 375 467 302 L 463 272 Z" fill="lightgray" class="hide"/>
    <path d="M 505 254 Q 599 130 719 -1 Q 741 -23 777 -21 Q 898 -12 936 -4 Q 946 0 949 5 Q 948 11 837 53 Q 756 83 714 114 Q 626 181 523 278 C 501 299 486 279 505 254 Z" fill="lightgray" class="hide"/></g><g transform="scale(1, -1) translate(0, -900)">
    <style type="text/css">
        .origin {display:none;}
        .hide {display:none;}
        .stroke {fill: #000000;}
        
.step1 {transform: translateX(1024px);}
.step2 {transform: translateX(2048px);}
.step3 {transform: translateX(3072px);}
.step4 {transform: translateX(4096px);}
.step5 {transform: translateX(5120px);}
.step6 {transform: translateX(6144px);}
.step7 {transform: translateX(7168px);}
.step8 {transform: translateX(8192px);}
.step9 {transform: translateX(9216px);}
.step10 {transform: translateX(10240px);}
.step11 {transform: translateX(11264px);}
.step12 {transform: translateX(12288px);}
.step13 {transform: translateX(13312px);}
.step14 {transform: translateX(14336px);}
.step15 {transform: translateX(15360px);}
.step16 {transform: translateX(16384px);}
.step17 {transform: translateX(17408px);}
.step18 {transform: translateX(18432px);}
.step19 {transform: translateX(19456px);}
.step20 {transform: translateX(20480px);}
.step21 {transform: translateX(21504px);}
.step22 {transform: translateX(22528px);}
.step23 {transform: translateX(23552px);}
.step24 {transform: translateX(24576px);}
.step25 {transform: translateX(25600px);}
.step26 {transform: translateX(26624px);}
.step27 {transform: translateX(27648px);}
.step28 {transform: translateX(28672px);}
.step29 {transform: translateX(29696px);}
    </style>

    <path d="M 646 688 Q 722 700 819 692 Q 835 691 839 701 Q 843 711 831 726 Q 783 765 697 744 Q 681 741 665 737 L 603 726 Q 521 713 429 699 L 381 693 Q 305 684 222 674 Q 194 670 214 655 Q 256 630 337 646 Q 362 653 389 657 L 432 666 Q 492 678 594 684 L 646 688 Z" fill="lightgray" class="stroke step1"/>
    <path d="M 429 699 Q 428 733 426 760 Q 427 779 408 785 Q 369 806 347 798 Q 328 789 343 770 Q 371 736 381 693 L 389 657 Q 401 597 415 580 Q 428 570 433 581 Q 436 593 432 666 L 429 699 Z" fill="lightgray" class="stroke step1"/>
    <path d="M 665 737 Q 674 761 691 789 Q 707 805 695 816 Q 682 834 645 852 Q 627 862 608 852 Q 598 845 606 833 Q 619 803 603 726 L 594 684 Q 572 609 574 588 Q 575 572 592 585 Q 610 600 646 688 L 665 737 Z" fill="lightgray" class="hide"/>
    <path d="M 338 466 Q 314 481 287 488 Q 274 491 265 484 Q 258 478 266 464 Q 284 440 294 414 Q 303 389 326 288 C 333 259 370 262 366 292 Q 351 403 351 433 C 350 459 350 459 338 466 Z" fill="lightgray" class="hide"/>
    <path d="M 709 334 Q 739 418 775 441 Q 794 460 779 479 Q 763 495 709 523 Q 690 532 667 525 Q 600 503 539 490 L 478 480 Q 408 471 338 466 C 308 464 321 430 351 433 Q 364 433 381 437 Q 427 444 477 451 L 535 460 Q 583 467 632 475 Q 663 481 676 467 Q 691 449 651 326 C 642 297 698 306 709 334 Z" fill="lightgray" class="hide"/>
    <path d="M 523 278 Q 599 284 916 285 Q 937 284 942 293 Q 949 306 931 321 Q 867 369 804 350 Q 761 344 709 334 L 651 326 Q 587 319 514 308 L 467 302 Q 416 301 366 292 L 326 288 Q 223 279 110 267 Q 88 266 104 247 Q 119 232 138 226 Q 160 219 177 224 Q 304 255 446 270 Q 453 271 463 272 L 523 278 Z" fill="lightgray" class="hide"/>
    <path d="M 463 272 Q 445 157 369 103 Q 308 58 177 20 Q 164 16 162 11 Q 163 7 174 4 Q 193 0 244 8 Q 329 21 391 66 Q 475 124 505 254 L 514 308 Q 515 312 516 317 Q 525 390 535 460 L 539 490 Q 542 506 556 529 Q 563 544 553 555 Q 531 574 492 588 Q 467 595 457 589 Q 448 582 455 569 Q 477 532 478 480 L 477 451 Q 476 375 467 302 L 463 272 Z" fill="lightgray" class="hide"/>
    <path d="M 505 254 Q 599 130 719 -1 Q 741 -23 777 -21 Q 898 -12 936 -4 Q 946 0 949 5 Q 948 11 837 53 Q 756 83 714 114 Q 626 181 523 278 C 501 299 486 279 505 254 Z" fill="lightgray" class="hide"/></g><g transform="scale(1, -1) translate(0, -900)">
    <style type="text/css">
        .origin {display:none;}
        .hide {display:none;}
        .stroke {fill: #000000;}
        
.step1 {transform: translateX(1024px);}
.step2 {transform: translateX(2048px);}
.step3 {transform: translateX(3072px);}
.step4 {transform: translateX(4096px);}
.step5 {transform: translateX(5120px);}
.step6 {transform: translateX(6144px);}
.step7 {transform: translateX(7168px);}
.step8 {transform: translateX(8192px);}
.step9 {transform: translateX(9216px);}
.step10 {transform: translateX(10240px);}
.step11 {transform: translateX(11264px);}
.step12 {transform: translateX(12288px);}
.step13 {transform: translateX(13312px);}
.step14 {transform: translateX(14336px);}
.step15 {transform: translateX(15360px);}
.step16 {transform: translateX(16384px);}
.step17 {transform: translateX(17408px);}
.step18 {transform: translateX(18432px);}
.step19 {transform: translateX(19456px);}
.step20 {transform: translateX(20480px);}
.step21 {transform: translateX(21504px);}
.step22 {transform: translateX(22528px);}
.step23 {transform: translateX(23552px);}
.step24 {transform: translateX(24576px);}
.step25 {transform: translateX(25600px);}
.step26 {transform: translateX(26624px);}
.step27 {transform: translateX(27648px);}
.step28 {transform: translateX(28672px);}
.step29 {transform: translateX(29696px);}
    </style>

    <path d="M 646 688 Q 722 700 819 692 Q 835 691 839 701 Q 843 711 831 726 Q 783 765 697 744 Q 681 741 665 737 L 603 726 Q 521 713 429 699 L 381 693 Q 305 684 222 674 Q 194 670 214 655 Q 256 630 337 646 Q 362 653 389 657 L 432 666 Q 492 678 594 684 L 646 688 Z" fill="lightgray" class="stroke step2"/>
    <path d="M 429 699 Q 428 733 426 760 Q 427 779 408 785 Q 369 806 347 798 Q 328 789 343 770 Q 371 736 381 693 L 389 657 Q 401 597 415 580 Q 428 570 433 581 Q 436 593 432 666 L 429 699 Z" fill="lightgray" class="stroke step2"/>
    <path d="M 665 737 Q 674 761 691 789 Q 707 805 695 816 Q 682 834 645 852 Q 627 862 608 852 Q 598 845 606 833 Q 619 803 603 726 L 594 684 Q 572 609 574 588 Q 575 572 592 585 Q 610 600 646 688 L 665 737 Z" fill="lightgray" class="stroke step2"/>
    <path d="M 338 466 Q 314 481 287 488 Q 274 491 265 484 Q 258 478 266 464 Q 284 440 294 414 Q 303 389 326 288 C 333 259 370 262 366 292 Q 351 403 351 433 C 350 459 350 459 338 466 Z" fill="lightgray" class="hide"/>
    <path d="M 709 334 Q 739 418 775 441 Q 794 460 779 479 Q 763 495 709 523 Q 690 532 667 525 Q 600 503 539 490 L 478 480 Q 408 471 338 466 C 308 464 321 430 351 433 Q 364 433 381 437 Q 427 444 477 451 L 535 460 Q 583 467 632 475 Q 663 481 676 467 Q 691 449 651 326 C 642 297 698 306 709 334 Z" fill="lightgray" class="hide"/>
    <path d="M 523 278 Q 599 284 916 285 Q 937 284 942 293 Q 949 306 931 321 Q 867 369 804 350 Q 761 344 709 334 L 651 326 Q 587 319 514 308 L 467 302 Q 416 301 366 292 L 326 288 Q 223 279 110 267 Q 88 266 104 247 Q 119 232 138 226 Q 160 219 177 224 Q 304 255 446 270 Q 453 271 463 272 L 523 278 Z" fill="lightgray" class="hide"/>
    <path d="M 463 272 Q 445 157 369 103 Q 308 58 177 20 Q 164 16 162 11 Q 163 7 174 4 Q 193 0 244 8 Q 329 21 391 66 Q 475 124 505 254 L 514 308 Q 515 312 516 317 Q 525 390 535 460 L 539 490 Q 542 506 556 529 Q 563 544 553 555 Q 531 574 492 588 Q 467 595 457 589 Q 448 582 455 569 Q 477 532 478 480 L 477 451 Q 476 375 467 302 L 463 272 Z" fill="lightgray" class="hide"/>
    <path d="M 505 254 Q 599 130 719 -1 Q 741 -23 777 -21 Q 898 -12 936 -4 Q 946 0 949 5 Q 948 11 837 53 Q 756 83 714 114 Q 626 181 523 278 C 501 299 486 279 505 254 Z" fill="lightgray" class="hide"/></g><g transform="scale(1, -1) translate(0, -900)">
    <style type="text/css">
        .origin {display:none;}
        .hide {display:none;}
        .stroke {fill: #000000;}
        
.step1 {transform: translateX(1024px);}
.step2 {transform: translateX(2048px);}
.step3 {transform: translateX(3072px);}
.step4 {transform: translateX(4096px);}
.step5 {transform: translateX(5120px);}
.step6 {transform: translateX(6144px);}
.step7 {transform: translateX(7168px);}
.step8 {transform: translateX(8192px);}
.step9 {transform: translateX(9216px);}
.step10 {transform: translateX(10240px);}
.step11 {transform: translateX(11264px);}
.step12 {transform: translateX(12288px);}
.step13 {transform: translateX(13312px);}
.step14 {transform: translateX(14336px);}
.step15 {transform: translateX(15360px);}
.step16 {transform: translateX(16384px);}
.step17 {transform: translateX(17408px);}
.step18 {transform: translateX(18432px);}
.step19 {transform: translateX(19456px);}
.step20 {transform: translateX(20480px);}
.step21 {transform: translateX(21504px);}
.step22 {transform: translateX(22528px);}
.step23 {transform: translateX(23552px);}
.step24 {transform: translateX(24576px);}
.step25 {transform: translateX(25600px);}
.step26 {transform: translateX(26624px);}
.step27 {transform: translateX(27648px);}
.step28 {transform: translateX(28672px);}
.step29 {transform: translateX(29696px);}
    </style>

    <path d="M 646 688 Q 722 700 819 692 Q 835 691 839 701 Q 843 711 831 726 Q 783 765 697 744 Q 681 741 665 737 L 603 726 Q 521 713 429 699 L 381 693 Q 305 684 222 674 Q 194 670 214 655 Q 256 630 337 646 Q 362 653 389 657 L 432 666 Q 492 678 594 684 L 646 688 Z" fill="lightgray" class="stroke step3"/>
    <path d="M 429 699 Q 428 733 426 760 Q 427 779 408 785 Q 369 806 347 798 Q 328 789 343 770 Q 371 736 381 693 L 389 657 Q 401 597 415 580 Q 428 570 433 581 Q 436 593 432 666 L 429 699 Z" fill="lightgray" class="stroke step3"/>
    <path d="M 665 737 Q 674 761 691 789 Q 707 805 695 816 Q 682 834 645 852 Q 627 862 608 852 Q 598 845 606 833 Q 619 803 603 726 L 594 684 Q 572 609 574 588 Q 575 572 592 585 Q 610 600 646 688 L 665 737 Z" fill="lightgray" class="stroke step3"/>
    <path d="M 338 466 Q 314 481 287 488 Q 274 491 265 484 Q 258 478 266 464 Q 284 440 294 414 Q 303 389 326 288 C 333 259 370 262 366 292 Q 351 403 351 433 C 350 459 350 459 338 466 Z" fill="lightgray" class="stroke step3"/>
    <path d="M 709 334 Q 739 418 775 441 Q 794 460 779 479 Q 763 495 709 523 Q 690 532 667 525 Q 600 503 539 490 L 478 480 Q 408 471 338 466 C 308 464 321 430 351 433 Q 364 433 381 437 Q 427 444 477 451 L 535 460 Q 583 467 632 475 Q 663 481 676 467 Q 691 449 651 326 C 642 297 698 306 709 334 Z" fill="lightgray" class="hide"/>
    <path d="M 523 278 Q 599 284 916 285 Q 937 284 942 293 Q 949 306 931 321 Q 867 369 804 350 Q 761 344 709 334 L 651 326 Q 587 319 514 308 L 467 302 Q 416 301 366 292 L 326 288 Q 223 279 110 267 Q 88 266 104 247 Q 119 232 138 226 Q 160 219 177 224 Q 304 255 446 270 Q 453 271 463 272 L 523 278 Z" fill="lightgray" class="hide"/>
    <path d="M 463 272 Q 445 157 369 103 Q 308 58 177 20 Q 164 16 162 11 Q 163 7 174 4 Q 193 0 244 8 Q 329 21 391 66 Q 475 124 505 254 L 514 308 Q 515 312 516 317 Q 525 390 535 460 L 539 490 Q 542 506 556 529 Q 563 544 553 555 Q 531 574 492 588 Q 467 595 457 589 Q 448 582 455 569 Q 477 532 478 480 L 477 451 Q 476 375 467 302 L 463 272 Z" fill="lightgray" class="hide"/>
    <path d="M 505 254 Q 599 130 719 -1 Q 741 -23 777 -21 Q 898 -12 936 -4 Q 946 0 949 5 Q 948 11 837 53 Q 756 83 714 114 Q 626 181 523 278 C 501 299 486 279 505 254 Z" fill="lightgray" class="hide"/></g><g transform="scale(1, -1) translate(0, -900)">
    <style type="text/css">
        .origin {display:none;}
        .hide {display:none;}
        .stroke {fill: #000000;}
        
.step1 {transform: translateX(1024px);}
.step2 {transform: translateX(2048px);}
.step3 {transform: translateX(3072px);}
.step4 {transform: translateX(4096px);}
.step5 {transform: translateX(5120px);}
.step6 {transform: translateX(6144px);}
.step7 {transform: translateX(7168px);}
.step8 {transform: translateX(8192px);}
.step9 {transform: translateX(9216px);}
.step10 {transform: translateX(10240px);}
.step11 {transform: translateX(11264px);}
.step12 {transform: translateX(12288px);}
.step13 {transform: translateX(13312px);}
.step14 {transform: translateX(14336px);}
.step15 {transform: translateX(15360px);}
.step16 {transform: translateX(16384px);}
.step17 {transform: translateX(17408px);}
.step18 {transform: translateX(18432px);}
.step19 {transform: translateX(19456px);}
.step20 {transform: translateX(20480px);}
.step21 {transform: translateX(21504px);}
.step22 {transform: translateX(22528px);}
.step23 {transform: translateX(23552px);}
.step24 {transform: translateX(24576px);}
.step25 {transform: translateX(25600px);}
.step26 {transform: translateX(26624px);}
.step27 {transform: translateX(27648px);}
.step28 {transform: translateX(28672px);}
.step29 {transform: translateX(29696px);}
    </style>

    <path d="M 646 688 Q 722 700 819 692 Q 835 691 839 701 Q 843 711 831 726 Q 783 765 697 744 Q 681 741 665 737 L 603 726 Q 521 713 429 699 L 381 693 Q 305 684 222 674 Q 194 670 214 655 Q 256 630 337 646 Q 362 653 389 657 L 432 666 Q 492 678 594 684 L 646 688 Z" fill="lightgray" class="stroke step4"/>
    <path d="M 429 699 Q 428 733 426 760 Q 427 779 408 785 Q 369 806 347 798 Q 328 789 343 770 Q 371 736 381 693 L 389 657 Q 401 597 415 580 Q 428 570 433 581 Q 436 593 432 666 L 429 699 Z" fill="lightgray" class="stroke step4"/>
    <path d="M 665 737 Q 674 761 691 789 Q 707 805 695 816 Q 682 834 645 852 Q 627 862 608 852 Q 598 845 606 833 Q 619 803 603 726 L 594 684 Q 572 609 574 588 Q 575 572 592 585 Q 610 600 646 688 L 665 737 Z" fill="lightgray" class="stroke step4"/>
    <path d="M 338 466 Q 314 481 287 488 Q 274 491 265 484 Q 258 478 266 464 Q 284 440 294 414 Q 303 389 326 288 C 333 259 370 262 366 292 Q 351 403 351 433 C 350 459 350 459 338 466 Z" fill="lightgray" class="stroke step4"/>
    <path d="M 709 334 Q 739 418 775 441 Q 794 460 779 479 Q 763 495 709 523 Q 690 532 667 525 Q 600 503 539 490 L 478 480 Q 408 471 338 466 C 308 464 321 430 351 433 Q 364 433 381 437 Q 427 444 477 451 L 535 460 Q 583 467 632 475 Q 663 481 676 467 Q 691 449 651 326 C 642 297 698 306 709 334 Z" fill="lightgray" class="stroke step4"/>
    <path d="M 523 278 Q 599 284 916 285 Q 937 284 942 293 Q 949 306 931 321 Q 867 369 804 350 Q 761 344 709 334 L 651 326 Q 587 319 514 308 L 467 302 Q 416 301 366 292 L 326 288 Q 223 279 110 267 Q 88 266 104 247 Q 119 232 138 226 Q 160 219 177 224 Q 304 255 446 270 Q 453 271 463 272 L 523 278 Z" fill="lightgray" class="hide"/>
    <path d="M 463 272 Q 445 157 369 103 Q 308 58 177 20 Q 164 16 162 11 Q 163 7 174 4 Q 193 0 244 8 Q 329 21 391 66 Q 475 124 505 254 L 514 308 Q 515 312 516 317 Q 525 390 535 460 L 539 490 Q 542 506 556 529 Q 563 544 553 555 Q 531 574 492 588 Q 467 595 457 589 Q 448 582 455 569 Q 477 532 478 480 L 477 451 Q 476 375 467 302 L 463 272 Z" fill="lightgray" class="hide"/>
    <path d="M 505 254 Q 599 130 719 -1 Q 741 -23 777 -21 Q 898 -12 936 -4 Q 946 0 949 5 Q 948 11 837 53 Q 756 83 714 114 Q 626 181 523 278 C 501 299 486 279 505 254 Z" fill="lightgray" class="hide"/></g><g transform="scale(1, -1) translate(0, -900)">
    <style type="text/css">
        .origin {display:none;}
        .hide {display:none;}
        .stroke {fill: #000000;}
        
.step1 {transform: translateX(1024px);}
.step2 {transform: translateX(2048px);}
.step3 {transform: translateX(3072px);}
.step4 {transform: translateX(4096px);}
.step5 {transform: translateX(5120px);}
.step6 {transform: translateX(6144px);}
.step7 {transform: translateX(7168px);}
.step8 {transform: translateX(8192px);}
.step9 {transform: translateX(9216px);}
.step10 {transform: translateX(10240px);}
.step11 {transform: translateX(11264px);}
.step12 {transform: translateX(12288px);}
.step13 {transform: translateX(13312px);}
.step14 {transform: translateX(14336px);}
.step15 {transform: translateX(15360px);}
.step16 {transform: translateX(16384px);}
.step17 {transform: translateX(17408px);}
.step18 {transform: translateX(18432px);}
.step19 {transform: translateX(19456px);}
.step20 {transform: translateX(20480px);}
.step21 {transform: translateX(21504px);}
.step22 {transform: translateX(22528px);}
.step23 {transform: translateX(23552px);}
.step24 {transform: translateX(24576px);}
.step25 {transform: translateX(25600px);}
.step26 {transform: translateX(26624px);}
.step27 {transform: translateX(27648px);}
.step28 {transform: translateX(28672px);}
.step29 {transform: translateX(29696px);}
    </style>

    <path d="M 646 688 Q 722 700 819 692 Q 835 691 839 701 Q 843 711 831 726 Q 783 765 697 744 Q 681 741 665 737 L 603 726 Q 521 713 429 699 L 381 693 Q 305 684 222 674 Q 194 670 214 655 Q 256 630 337 646 Q 362 653 389 657 L 432 666 Q 492 678 594 684 L 646 688 Z" fill="lightgray" class="stroke step5"/>
    <path d="M 429 699 Q 428 733 426 760 Q 427 779 408 785 Q 369 806 347 798 Q 328 789 343 770 Q 371 736 381 693 L 389 657 Q 401 597 415 580 Q 428 570 433 581 Q 436 593 432 666 L 429 699 Z" fill="lightgray" class="stroke step5"/>
    <path d="M 665 737 Q 674 761 691 789 Q 707 805 695 816 Q 682 834 645 852 Q 627 862 608 852 Q 598 845 606 833 Q 619 803 603 726 L 594 684 Q 572 609 574 588 Q 575 572 592 585 Q 610 600 646 688 L 665 737 Z" fill="lightgray" class="stroke step5"/>
    <path d="M 338 466 Q 314 481 287 488 Q 274 491 265 484 Q 258 478 266 464 Q 284 440 294 414 Q 303 389 326 288 C 333 259 370 262 366 292 Q 351 403 351 433 C 350 459 350 459 338 466 Z" fill="lightgray" class="stroke step5"/>
    <path d="M 709 334 Q 739 418 775 441 Q 794 460 779 479 Q 763 495 709 523 Q 690 532 667 525 Q 600 503 539 490 L 478 480 Q 408 471 338 466 C 308 464 321 430 351 433 Q 364 433 381 437 Q 427 444 477 451 L 535 460 Q 583 467 632 475 Q 663 481 676 467 Q 691 449 651 326 C 642 297 698 306 709 334 Z" fill="lightgray" class="stroke step5"/>
    <path d="M 523 278 Q 599 284 916 285 Q 937 284 942 293 Q 949 306 931 321 Q 867 369 804 350 Q 761 344 709 334 L 651 326 Q 587 319 514 308 L 467 302 Q 416 301 366 292 L 326 288 Q 223 279 110 267 Q 88 266 104 247 Q 119 232 138 226 Q 160 219 177 224 Q 304 255 446 270 Q 453 271 463 272 L 523 278 Z" fill="lightgray" class="stroke step5"/>
    <path d="M 463 272 Q 445 157 369 103 Q 308 58 177 20 Q 164 16 162 11 Q 163 7 174 4 Q 193 0 244 8 Q 329 21 391 66 Q 475 124 505 254 L 514 308 Q 515 312 516 317 Q 525 390 535 460 L 539 490 Q 542 506 556 529 Q 563 544 553 555 Q 531 574 492 588 Q 467 595 457 589 Q 448 582 455 569 Q 477 532 478 480 L 477 451 Q 476 375 467 302 L 463 272 Z" fill="lightgray" class="hide"/>
    <path d="M 505 254 Q 599 130 719 -1 Q 741 -23 777 -21 Q 898 -12 936 -4 Q 946 0 949 5 Q 948 11 837 53 Q 756 83 714 114 Q 626 181 523 278 C 501 299 486 279 505 254 Z" fill="lightgray" class="hide"/></g><g transform="scale(1, -1) translate(0, -900)">
    <style type="text/css">
        .origin {display:none;}
        .hide {display:none;}
        .stroke {fill: #000000;}
        
.step1 {transform: translateX(1024px);}
.step2 {transform: translateX(2048px);}
.step3 {transform: translateX(3072px);}
.step4 {transform: translateX(4096px);}
.step5 {transform: translateX(5120px);}
.step6 {transform: translateX(6144px);}
.step7 {transform: translateX(7168px);}
.step8 {transform: translateX(8192px);}
.step9 {transform: translateX(9216px);}
.step10 {transform: translateX(10240px);}
.step11 {transform: translateX(11264px);}
.step12 {transform: translateX(12288px);}
.step13 {transform: translateX(13312px);}
.step14 {transform: translateX(14336px);}
.step15 {transform: translateX(15360px);}
.step16 {transform: translateX(16384px);}
.step17 {transform: translateX(17408px);}
.step18 {transform: translateX(18432px);}
.step19 {transform: translateX(19456px);}
.step20 {transform: translateX(20480px);}
.step21 {transform: translateX(21504px);}
.step22 {transform: translateX(22528px);}
.step23 {transform: translateX(23552px);}
.step24 {transform: translateX(24576px);}
.step25 {transform: translateX(25600px);}
.step26 {transform: translateX(26624px);}
.step27 {transform: translateX(27648px);}
.step28 {transform: translateX(28672px);}
.step29 {transform: translateX(29696px);}
    </style>

    <path d="M 646 688 Q 722 700 819 692 Q 835 691 839 701 Q 843 711 831 726 Q 783 765 697 744 Q 681 741 665 737 L 603 726 Q 521 713 429 699 L 381 693 Q 305 684 222 674 Q 194 670 214 655 Q 256 630 337 646 Q 362 653 389 657 L 432 666 Q 492 678 594 684 L 646 688 Z" fill="lightgray" class="stroke step6"/>
    <path d="M 429 699 Q 428 733 426 760 Q 427 779 408 785 Q 369 806 347 798 Q 328 789 343 770 Q 371 736 381 693 L 389 657 Q 401 597 415 580 Q 428 570 433 581 Q 436 593 432 666 L 429 699 Z" fill="lightgray" class="stroke step6"/>
    <path d="M 665 737 Q 674 761 691 789 Q 707 805 695 816 Q 682 834 645 852 Q 627 862 608 852 Q 598 845 606 833 Q 619 803 603 726 L 594 684 Q 572 609 574 588 Q 575 572 592 585 Q 610 600 646 688 L 665 737 Z" fill="lightgray" class="stroke step6"/>
    <path d="M 338 466 Q 314 481 287 488 Q 274 491 265 484 Q 258 478 266 464 Q 284 440 294 414 Q 303 389 326 288 C 333 259 370 262 366 292 Q 351 403 351 433 C 350 459 350 459 338 466 Z" fill="lightgray" class="stroke step6"/>
    <path d="M 709 334 Q 739 418 775 441 Q 794 460 779 479 Q 763 495 709 523 Q 690 532 667 525 Q 600 503 539 490 L 478 480 Q 408 471 338 466 C 308 464 321 430 351 433 Q 364 433 381 437 Q 427 444 477 451 L 535 460 Q 583 467 632 475 Q 663 481 676 467 Q 691 449 651 326 C 642 297 698 306 709 334 Z" fill="lightgray" class="stroke step6"/>
    <path d="M 523 278 Q 599 284 916 285 Q 937 284 942 293 Q 949 306 931 321 Q 867 369 804 350 Q 761 344 709 334 L 651 326 Q 587 319 514 308 L 467 302 Q 416 301 366 292 L 326 288 Q 223 279 110 267 Q 88 266 104 247 Q 119 232 138 226 Q 160 219 177 224 Q 304 255 446 270 Q 453 271 463 272 L 523 278 Z" fill="lightgray" class="stroke step6"/>
    <path d="M 463 272 Q 445 157 369 103 Q 308 58 177 20 Q 164 16 162 11 Q 163 7 174 4 Q 193 0 244 8 Q 329 21 391 66 Q 475 124 505 254 L 514 308 Q 515 312 516 317 Q 525 390 535 460 L 539 490 Q 542 506 556 529 Q 563 544 553 555 Q 531 574 492 588 Q 467 595 457 589 Q 448 582 455 569 Q 477 532 478 480 L 477 451 Q 476 375 467 302 L 463 272 Z" fill="lightgray" class="stroke step6"/>
    <path d="M 505 254 Q 599 130 719 -1 Q 741 -23 777 -21 Q 898 -12 936 -4 Q 946 0 949 5 Q 948 11 837 53 Q 756 83 714 114 Q 626 181 523 278 C 501 299 486 279 505 254 Z" fill="lightgray" class="hide"/></g><g transform="scale(1, -1) translate(0, -900)">
    <style type="text/css">
        .origin {display:none;}
        .hide {display:none;}
        .stroke {fill: #000000;}
        
.step1 {transform: translateX(1024px);}
.step2 {transform: translateX(2048px);}
.step3 {transform: translateX(3072px);}
.step4 {transform: translateX(4096px);}
.step5 {transform: translateX(5120px);}
.step6 {transform: translateX(6144px);}
.step7 {transform: translateX(7168px);}
.step8 {transform: translateX(8192px);}
.step9 {transform: translateX(9216px);}
.step10 {transform: translateX(10240px);}
.step11 {transform: translateX(11264px);}
.step12 {transform: translateX(12288px);}
.step13 {transform: translateX(13312px);}
.step14 {transform: translateX(14336px);}
.step15 {transform: translateX(15360px);}
.step16 {transform: translateX(16384px);}
.step17 {transform: translateX(17408px);}
.step18 {transform: translateX(18432px);}
.step19 {transform: translateX(19456px);}
.step20 {transform: translateX(20480px);}
.step21 {transform: translateX(21504px);}
.step22 {transform: translateX(22528px);}
.step23 {transform: translateX(23552px);}
.step24 {transform: translateX(24576px);}
.step25 {transform: translateX(25600px);}
.step26 {transform: translateX(26624px);}
.step27 {transform: translateX(27648px);}
.step28 {transform: translateX(28672px);}
.step29 {transform: translateX(29696px);}
    </style>

    <path d="M 646 688 Q 722 700 819 692 Q 835 691 839 701 Q 843 711 831 726 Q 783 765 697 744 Q 681 741 665 737 L 603 726 Q 521 713 429 699 L 381 693 Q 305 684 222 674 Q 194 670 214 655 Q 256 630 337 646 Q 362 653 389 657 L 432 666 Q 492 678 594 684 L 646 688 Z" fill="lightgray" class="stroke step7"/>
    <path d="M 429 699 Q 428 733 426 760 Q 427 779 408 785 Q 369 806 347 798 Q 328 789 343 770 Q 371 736 381 693 L 389 657 Q 401 597 415 580 Q 428 570 433 581 Q 436 593 432 666 L 429 699 Z" fill="lightgray" class="stroke step7"/>
    <path d="M 665 737 Q 674 761 691 789 Q 707 805 695 816 Q 682 834 645 852 Q 627 862 608 852 Q 598 845 606 833 Q 619 803 603 726 L 594 684 Q 572 609 574 588 Q 575 572 592 585 Q 610 600 646 688 L 665 737 Z" fill="lightgray" class="stroke step7"/>
    <path d="M 338 466 Q 314 481 287 488 Q 274 491 265 484 Q 258 478 266 464 Q 284 440 294 414 Q 303 389 326 288 C 333 259 370 262 366 292 Q 351 403 351 433 C 350 459 350 459 338 466 Z" fill="lightgray" class="stroke step7"/>
    <path d="M 709 334 Q 739 418 775 441 Q 794 460 779 479 Q 763 495 709 523 Q 690 532 667 525 Q 600 503 539 490 L 478 480 Q 408 471 338 466 C 308 464 321 430 351 433 Q 364 433 381 437 Q 427 444 477 451 L 535 460 Q 583 467 632 475 Q 663 481 676 467 Q 691 449 651 326 C 642 297 698 306 709 334 Z" fill="lightgray" class="stroke step7"/>
    <path d="M 523 278 Q 599 284 916 285 Q 937 284 942 293 Q 949 306 931 321 Q 867 369 804 350 Q 761 344 709 334 L 651 326 Q 587 319 514 308 L 467 302 Q 416 301 366 292 L 326 288 Q 223 279 110 267 Q 88 266 104 247 Q 119 232 138 226 Q 160 219 177 224 Q 304 255 446 270 Q 453 271 463 272 L 523 278 Z" fill="lightgray" class="stroke step7"/>
    <path d="M 463 272 Q 445 157 369 103 Q 308 58 177 20 Q 164 16 162 11 Q 163 7 174 4 Q 193 0 244 8 Q 329 21 391 66 Q 475 124 505 254 L 514 308 Q 515 312 516 317 Q 525 390 535 460 L 539 490 Q 542 506 556 529 Q 563 544 553 555 Q 531 574 492 588 Q 467 595 457 589 Q 448 582 455 569 Q 477 532 478 480 L 477 451 Q 476 375 467 302 L 463 272 Z" fill="lightgray" class="stroke step7"/>
    <path d="M 505 254 Q 599 130 719 -1 Q 741 -23 777 -21 Q 898 -12 936 -4 Q 946 0 949 5 Q 948 11 837 53 Q 756 83 714 114 Q 626 181 523 278 C 501 299 486 279 505 254 Z" fill="lightgray" class="stroke step7"/></g></svg>