<svg version="1.1" viewBox="0 0 11264 1024" xmlns="http://www.w3.org/2000/svg">
  
  <g transform="scale(1, -1) translate(0, -900)" class="origin">
    <style type="text/css">
        .origin {display:none;}
        .hide {display:none;}
        .stroke {fill: #000000;}
        
.step1 {transform: translateX(1024px);}
.step2 {transform: translateX(2048px);}
.step3 {transform: translateX(3072px);}
.step4 {transform: translateX(4096px);}
.step5 {transform: translateX(5120px);}
.step6 {transform: translateX(6144px);}
.step7 {transform: translateX(7168px);}
.step8 {transform: translateX(8192px);}
.step9 {transform: translateX(9216px);}
.step10 {transform: translateX(10240px);}
.step11 {transform: translateX(11264px);}
.step12 {transform: translateX(12288px);}
.step13 {transform: translateX(13312px);}
.step14 {transform: translateX(14336px);}
.step15 {transform: translateX(15360px);}
.step16 {transform: translateX(16384px);}
.step17 {transform: translateX(17408px);}
.step18 {transform: translateX(18432px);}
.step19 {transform: translateX(19456px);}
.step20 {transform: translateX(20480px);}
.step21 {transform: translateX(21504px);}
.step22 {transform: translateX(22528px);}
.step23 {transform: translateX(23552px);}
.step24 {transform: translateX(24576px);}
.step25 {transform: translateX(25600px);}
.step26 {transform: translateX(26624px);}
.step27 {transform: translateX(27648px);}
.step28 {transform: translateX(28672px);}
.step29 {transform: translateX(29696px);}
    </style>

    <path d="M 648 713 Q 699 723 819 715 Q 834 714 839 722 Q 843 732 831 747 Q 783 786 701 765 Q 683 764 666 759 L 609 750 Q 528 740 439 727 L 394 721 Q 312 714 222 704 Q 194 701 214 687 Q 253 660 332 677 Q 366 686 401 691 L 442 697 Q 446 703 600 711 L 648 713 Z" fill="lightgray"/>
    <path d="M 439 727 Q 438 754 436 776 Q 437 794 419 799 Q 382 817 362 810 Q 346 801 360 784 Q 384 756 394 721 L 401 691 Q 413 634 428 619 Q 440 609 444 620 Q 447 630 442 697 L 439 727 Z" fill="lightgray"/>
    <path d="M 666 759 Q 673 778 689 802 Q 702 817 692 827 Q 680 843 647 860 Q 631 869 615 860 Q 605 854 612 844 Q 624 817 609 750 L 600 711 Q 578 635 579 619 Q 580 606 595 616 Q 605 625 648 713 L 666 759 Z" fill="lightgray"/>
    <path d="M 263 539 Q 285 517 310 490 Q 322 477 337 476 Q 347 476 353 489 Q 357 502 351 532 Q 347 550 319 564 Q 258 591 240 587 Q 236 583 236 571 Q 239 561 263 539 Z" fill="lightgray"/>
    <path d="M 156 422 Q 204 365 233 352 Q 246 349 255 361 Q 262 373 260 388 Q 251 433 170 456 L 169 457 Q 154 463 145 459 Q 139 458 141 447 Q 142 437 156 422 Z" fill="lightgray"/>
    <path d="M 163 155 Q 151 152 152 135 Q 165 60 193 42 Q 200 35 210 37 Q 217 38 220 63 Q 224 91 327 325 Q 334 340 334 346 Q 334 356 325 350 Q 309 340 201 189 Q 188 171 163 155 Z" fill="lightgray"/>
    <path d="M 603 535 Q 760 572 763 574 Q 770 581 767 589 Q 760 599 734 607 Q 707 611 615 581 Q 542 563 480 558 Q 447 552 471 537 Q 507 518 553 525 L 603 535 Z" fill="lightgray"/>
    <path d="M 429 421 Q 448 397 470 369 Q 480 356 494 355 Q 503 354 509 365 Q 515 377 511 404 Q 510 422 484 438 Q 424 469 412 467 Q 408 464 407 453 Q 408 443 429 421 Z" fill="lightgray"/>
    <path d="M 744 490 Q 726 456 674 393 Q 665 377 680 381 Q 701 394 782 452 Q 798 467 819 476 Q 837 486 827 501 Q 815 516 792 527 Q 771 539 760 535 Q 748 534 753 522 Q 756 506 744 490 Z" fill="lightgray"/>
    <path d="M 629 271 Q 674 277 917 276 Q 938 276 942 284 Q 948 296 932 310 Q 881 350 842 342 Q 763 327 629 308 L 577 302 Q 472 292 353 278 Q 332 277 347 259 Q 360 244 379 239 Q 400 233 416 237 Q 491 256 576 265 L 629 271 Z" fill="lightgray"/>
    <path d="M 574 -39 Q 580 -64 586 -73 Q 592 -80 599 -78 Q 617 -66 620 -11 Q 629 59 628 128 Q 627 165 629 271 L 629 308 Q 632 431 643 491 Q 647 509 633 518 Q 615 530 603 535 C 576 549 540 552 553 525 Q 554 524 556 520 Q 577 475 578 407 Q 577 361 577 302 L 576 265 Q 570 3 574 -39 Z" fill="lightgray"/></g>
<g transform="scale(1, -1) translate(0, -900)">
    <style type="text/css">
        .origin {display:none;}
        .hide {display:none;}
        .stroke {fill: #000000;}
        
.step1 {transform: translateX(1024px);}
.step2 {transform: translateX(2048px);}
.step3 {transform: translateX(3072px);}
.step4 {transform: translateX(4096px);}
.step5 {transform: translateX(5120px);}
.step6 {transform: translateX(6144px);}
.step7 {transform: translateX(7168px);}
.step8 {transform: translateX(8192px);}
.step9 {transform: translateX(9216px);}
.step10 {transform: translateX(10240px);}
.step11 {transform: translateX(11264px);}
.step12 {transform: translateX(12288px);}
.step13 {transform: translateX(13312px);}
.step14 {transform: translateX(14336px);}
.step15 {transform: translateX(15360px);}
.step16 {transform: translateX(16384px);}
.step17 {transform: translateX(17408px);}
.step18 {transform: translateX(18432px);}
.step19 {transform: translateX(19456px);}
.step20 {transform: translateX(20480px);}
.step21 {transform: translateX(21504px);}
.step22 {transform: translateX(22528px);}
.step23 {transform: translateX(23552px);}
.step24 {transform: translateX(24576px);}
.step25 {transform: translateX(25600px);}
.step26 {transform: translateX(26624px);}
.step27 {transform: translateX(27648px);}
.step28 {transform: translateX(28672px);}
.step29 {transform: translateX(29696px);}
    </style>

    <path d="M 648 713 Q 699 723 819 715 Q 834 714 839 722 Q 843 732 831 747 Q 783 786 701 765 Q 683 764 666 759 L 609 750 Q 528 740 439 727 L 394 721 Q 312 714 222 704 Q 194 701 214 687 Q 253 660 332 677 Q 366 686 401 691 L 442 697 Q 446 703 600 711 L 648 713 Z" fill="lightgray" class="stroke step0"/>
    <path d="M 439 727 Q 438 754 436 776 Q 437 794 419 799 Q 382 817 362 810 Q 346 801 360 784 Q 384 756 394 721 L 401 691 Q 413 634 428 619 Q 440 609 444 620 Q 447 630 442 697 L 439 727 Z" fill="lightgray" class="hide"/>
    <path d="M 666 759 Q 673 778 689 802 Q 702 817 692 827 Q 680 843 647 860 Q 631 869 615 860 Q 605 854 612 844 Q 624 817 609 750 L 600 711 Q 578 635 579 619 Q 580 606 595 616 Q 605 625 648 713 L 666 759 Z" fill="lightgray" class="hide"/>
    <path d="M 263 539 Q 285 517 310 490 Q 322 477 337 476 Q 347 476 353 489 Q 357 502 351 532 Q 347 550 319 564 Q 258 591 240 587 Q 236 583 236 571 Q 239 561 263 539 Z" fill="lightgray" class="hide"/>
    <path d="M 156 422 Q 204 365 233 352 Q 246 349 255 361 Q 262 373 260 388 Q 251 433 170 456 L 169 457 Q 154 463 145 459 Q 139 458 141 447 Q 142 437 156 422 Z" fill="lightgray" class="hide"/>
    <path d="M 163 155 Q 151 152 152 135 Q 165 60 193 42 Q 200 35 210 37 Q 217 38 220 63 Q 224 91 327 325 Q 334 340 334 346 Q 334 356 325 350 Q 309 340 201 189 Q 188 171 163 155 Z" fill="lightgray" class="hide"/>
    <path d="M 603 535 Q 760 572 763 574 Q 770 581 767 589 Q 760 599 734 607 Q 707 611 615 581 Q 542 563 480 558 Q 447 552 471 537 Q 507 518 553 525 L 603 535 Z" fill="lightgray" class="hide"/>
    <path d="M 429 421 Q 448 397 470 369 Q 480 356 494 355 Q 503 354 509 365 Q 515 377 511 404 Q 510 422 484 438 Q 424 469 412 467 Q 408 464 407 453 Q 408 443 429 421 Z" fill="lightgray" class="hide"/>
    <path d="M 744 490 Q 726 456 674 393 Q 665 377 680 381 Q 701 394 782 452 Q 798 467 819 476 Q 837 486 827 501 Q 815 516 792 527 Q 771 539 760 535 Q 748 534 753 522 Q 756 506 744 490 Z" fill="lightgray" class="hide"/>
    <path d="M 629 271 Q 674 277 917 276 Q 938 276 942 284 Q 948 296 932 310 Q 881 350 842 342 Q 763 327 629 308 L 577 302 Q 472 292 353 278 Q 332 277 347 259 Q 360 244 379 239 Q 400 233 416 237 Q 491 256 576 265 L 629 271 Z" fill="lightgray" class="hide"/>
    <path d="M 574 -39 Q 580 -64 586 -73 Q 592 -80 599 -78 Q 617 -66 620 -11 Q 629 59 628 128 Q 627 165 629 271 L 629 308 Q 632 431 643 491 Q 647 509 633 518 Q 615 530 603 535 C 576 549 540 552 553 525 Q 554 524 556 520 Q 577 475 578 407 Q 577 361 577 302 L 576 265 Q 570 3 574 -39 Z" fill="lightgray" class="hide"/></g><g transform="scale(1, -1) translate(0, -900)">
    <style type="text/css">
        .origin {display:none;}
        .hide {display:none;}
        .stroke {fill: #000000;}
        
.step1 {transform: translateX(1024px);}
.step2 {transform: translateX(2048px);}
.step3 {transform: translateX(3072px);}
.step4 {transform: translateX(4096px);}
.step5 {transform: translateX(5120px);}
.step6 {transform: translateX(6144px);}
.step7 {transform: translateX(7168px);}
.step8 {transform: translateX(8192px);}
.step9 {transform: translateX(9216px);}
.step10 {transform: translateX(10240px);}
.step11 {transform: translateX(11264px);}
.step12 {transform: translateX(12288px);}
.step13 {transform: translateX(13312px);}
.step14 {transform: translateX(14336px);}
.step15 {transform: translateX(15360px);}
.step16 {transform: translateX(16384px);}
.step17 {transform: translateX(17408px);}
.step18 {transform: translateX(18432px);}
.step19 {transform: translateX(19456px);}
.step20 {transform: translateX(20480px);}
.step21 {transform: translateX(21504px);}
.step22 {transform: translateX(22528px);}
.step23 {transform: translateX(23552px);}
.step24 {transform: translateX(24576px);}
.step25 {transform: translateX(25600px);}
.step26 {transform: translateX(26624px);}
.step27 {transform: translateX(27648px);}
.step28 {transform: translateX(28672px);}
.step29 {transform: translateX(29696px);}
    </style>

    <path d="M 648 713 Q 699 723 819 715 Q 834 714 839 722 Q 843 732 831 747 Q 783 786 701 765 Q 683 764 666 759 L 609 750 Q 528 740 439 727 L 394 721 Q 312 714 222 704 Q 194 701 214 687 Q 253 660 332 677 Q 366 686 401 691 L 442 697 Q 446 703 600 711 L 648 713 Z" fill="lightgray" class="stroke step1"/>
    <path d="M 439 727 Q 438 754 436 776 Q 437 794 419 799 Q 382 817 362 810 Q 346 801 360 784 Q 384 756 394 721 L 401 691 Q 413 634 428 619 Q 440 609 444 620 Q 447 630 442 697 L 439 727 Z" fill="lightgray" class="stroke step1"/>
    <path d="M 666 759 Q 673 778 689 802 Q 702 817 692 827 Q 680 843 647 860 Q 631 869 615 860 Q 605 854 612 844 Q 624 817 609 750 L 600 711 Q 578 635 579 619 Q 580 606 595 616 Q 605 625 648 713 L 666 759 Z" fill="lightgray" class="hide"/>
    <path d="M 263 539 Q 285 517 310 490 Q 322 477 337 476 Q 347 476 353 489 Q 357 502 351 532 Q 347 550 319 564 Q 258 591 240 587 Q 236 583 236 571 Q 239 561 263 539 Z" fill="lightgray" class="hide"/>
    <path d="M 156 422 Q 204 365 233 352 Q 246 349 255 361 Q 262 373 260 388 Q 251 433 170 456 L 169 457 Q 154 463 145 459 Q 139 458 141 447 Q 142 437 156 422 Z" fill="lightgray" class="hide"/>
    <path d="M 163 155 Q 151 152 152 135 Q 165 60 193 42 Q 200 35 210 37 Q 217 38 220 63 Q 224 91 327 325 Q 334 340 334 346 Q 334 356 325 350 Q 309 340 201 189 Q 188 171 163 155 Z" fill="lightgray" class="hide"/>
    <path d="M 603 535 Q 760 572 763 574 Q 770 581 767 589 Q 760 599 734 607 Q 707 611 615 581 Q 542 563 480 558 Q 447 552 471 537 Q 507 518 553 525 L 603 535 Z" fill="lightgray" class="hide"/>
    <path d="M 429 421 Q 448 397 470 369 Q 480 356 494 355 Q 503 354 509 365 Q 515 377 511 404 Q 510 422 484 438 Q 424 469 412 467 Q 408 464 407 453 Q 408 443 429 421 Z" fill="lightgray" class="hide"/>
    <path d="M 744 490 Q 726 456 674 393 Q 665 377 680 381 Q 701 394 782 452 Q 798 467 819 476 Q 837 486 827 501 Q 815 516 792 527 Q 771 539 760 535 Q 748 534 753 522 Q 756 506 744 490 Z" fill="lightgray" class="hide"/>
    <path d="M 629 271 Q 674 277 917 276 Q 938 276 942 284 Q 948 296 932 310 Q 881 350 842 342 Q 763 327 629 308 L 577 302 Q 472 292 353 278 Q 332 277 347 259 Q 360 244 379 239 Q 400 233 416 237 Q 491 256 576 265 L 629 271 Z" fill="lightgray" class="hide"/>
    <path d="M 574 -39 Q 580 -64 586 -73 Q 592 -80 599 -78 Q 617 -66 620 -11 Q 629 59 628 128 Q 627 165 629 271 L 629 308 Q 632 431 643 491 Q 647 509 633 518 Q 615 530 603 535 C 576 549 540 552 553 525 Q 554 524 556 520 Q 577 475 578 407 Q 577 361 577 302 L 576 265 Q 570 3 574 -39 Z" fill="lightgray" class="hide"/></g><g transform="scale(1, -1) translate(0, -900)">
    <style type="text/css">
        .origin {display:none;}
        .hide {display:none;}
        .stroke {fill: #000000;}
        
.step1 {transform: translateX(1024px);}
.step2 {transform: translateX(2048px);}
.step3 {transform: translateX(3072px);}
.step4 {transform: translateX(4096px);}
.step5 {transform: translateX(5120px);}
.step6 {transform: translateX(6144px);}
.step7 {transform: translateX(7168px);}
.step8 {transform: translateX(8192px);}
.step9 {transform: translateX(9216px);}
.step10 {transform: translateX(10240px);}
.step11 {transform: translateX(11264px);}
.step12 {transform: translateX(12288px);}
.step13 {transform: translateX(13312px);}
.step14 {transform: translateX(14336px);}
.step15 {transform: translateX(15360px);}
.step16 {transform: translateX(16384px);}
.step17 {transform: translateX(17408px);}
.step18 {transform: translateX(18432px);}
.step19 {transform: translateX(19456px);}
.step20 {transform: translateX(20480px);}
.step21 {transform: translateX(21504px);}
.step22 {transform: translateX(22528px);}
.step23 {transform: translateX(23552px);}
.step24 {transform: translateX(24576px);}
.step25 {transform: translateX(25600px);}
.step26 {transform: translateX(26624px);}
.step27 {transform: translateX(27648px);}
.step28 {transform: translateX(28672px);}
.step29 {transform: translateX(29696px);}
    </style>

    <path d="M 648 713 Q 699 723 819 715 Q 834 714 839 722 Q 843 732 831 747 Q 783 786 701 765 Q 683 764 666 759 L 609 750 Q 528 740 439 727 L 394 721 Q 312 714 222 704 Q 194 701 214 687 Q 253 660 332 677 Q 366 686 401 691 L 442 697 Q 446 703 600 711 L 648 713 Z" fill="lightgray" class="stroke step2"/>
    <path d="M 439 727 Q 438 754 436 776 Q 437 794 419 799 Q 382 817 362 810 Q 346 801 360 784 Q 384 756 394 721 L 401 691 Q 413 634 428 619 Q 440 609 444 620 Q 447 630 442 697 L 439 727 Z" fill="lightgray" class="stroke step2"/>
    <path d="M 666 759 Q 673 778 689 802 Q 702 817 692 827 Q 680 843 647 860 Q 631 869 615 860 Q 605 854 612 844 Q 624 817 609 750 L 600 711 Q 578 635 579 619 Q 580 606 595 616 Q 605 625 648 713 L 666 759 Z" fill="lightgray" class="stroke step2"/>
    <path d="M 263 539 Q 285 517 310 490 Q 322 477 337 476 Q 347 476 353 489 Q 357 502 351 532 Q 347 550 319 564 Q 258 591 240 587 Q 236 583 236 571 Q 239 561 263 539 Z" fill="lightgray" class="hide"/>
    <path d="M 156 422 Q 204 365 233 352 Q 246 349 255 361 Q 262 373 260 388 Q 251 433 170 456 L 169 457 Q 154 463 145 459 Q 139 458 141 447 Q 142 437 156 422 Z" fill="lightgray" class="hide"/>
    <path d="M 163 155 Q 151 152 152 135 Q 165 60 193 42 Q 200 35 210 37 Q 217 38 220 63 Q 224 91 327 325 Q 334 340 334 346 Q 334 356 325 350 Q 309 340 201 189 Q 188 171 163 155 Z" fill="lightgray" class="hide"/>
    <path d="M 603 535 Q 760 572 763 574 Q 770 581 767 589 Q 760 599 734 607 Q 707 611 615 581 Q 542 563 480 558 Q 447 552 471 537 Q 507 518 553 525 L 603 535 Z" fill="lightgray" class="hide"/>
    <path d="M 429 421 Q 448 397 470 369 Q 480 356 494 355 Q 503 354 509 365 Q 515 377 511 404 Q 510 422 484 438 Q 424 469 412 467 Q 408 464 407 453 Q 408 443 429 421 Z" fill="lightgray" class="hide"/>
    <path d="M 744 490 Q 726 456 674 393 Q 665 377 680 381 Q 701 394 782 452 Q 798 467 819 476 Q 837 486 827 501 Q 815 516 792 527 Q 771 539 760 535 Q 748 534 753 522 Q 756 506 744 490 Z" fill="lightgray" class="hide"/>
    <path d="M 629 271 Q 674 277 917 276 Q 938 276 942 284 Q 948 296 932 310 Q 881 350 842 342 Q 763 327 629 308 L 577 302 Q 472 292 353 278 Q 332 277 347 259 Q 360 244 379 239 Q 400 233 416 237 Q 491 256 576 265 L 629 271 Z" fill="lightgray" class="hide"/>
    <path d="M 574 -39 Q 580 -64 586 -73 Q 592 -80 599 -78 Q 617 -66 620 -11 Q 629 59 628 128 Q 627 165 629 271 L 629 308 Q 632 431 643 491 Q 647 509 633 518 Q 615 530 603 535 C 576 549 540 552 553 525 Q 554 524 556 520 Q 577 475 578 407 Q 577 361 577 302 L 576 265 Q 570 3 574 -39 Z" fill="lightgray" class="hide"/></g><g transform="scale(1, -1) translate(0, -900)">
    <style type="text/css">
        .origin {display:none;}
        .hide {display:none;}
        .stroke {fill: #000000;}
        
.step1 {transform: translateX(1024px);}
.step2 {transform: translateX(2048px);}
.step3 {transform: translateX(3072px);}
.step4 {transform: translateX(4096px);}
.step5 {transform: translateX(5120px);}
.step6 {transform: translateX(6144px);}
.step7 {transform: translateX(7168px);}
.step8 {transform: translateX(8192px);}
.step9 {transform: translateX(9216px);}
.step10 {transform: translateX(10240px);}
.step11 {transform: translateX(11264px);}
.step12 {transform: translateX(12288px);}
.step13 {transform: translateX(13312px);}
.step14 {transform: translateX(14336px);}
.step15 {transform: translateX(15360px);}
.step16 {transform: translateX(16384px);}
.step17 {transform: translateX(17408px);}
.step18 {transform: translateX(18432px);}
.step19 {transform: translateX(19456px);}
.step20 {transform: translateX(20480px);}
.step21 {transform: translateX(21504px);}
.step22 {transform: translateX(22528px);}
.step23 {transform: translateX(23552px);}
.step24 {transform: translateX(24576px);}
.step25 {transform: translateX(25600px);}
.step26 {transform: translateX(26624px);}
.step27 {transform: translateX(27648px);}
.step28 {transform: translateX(28672px);}
.step29 {transform: translateX(29696px);}
    </style>

    <path d="M 648 713 Q 699 723 819 715 Q 834 714 839 722 Q 843 732 831 747 Q 783 786 701 765 Q 683 764 666 759 L 609 750 Q 528 740 439 727 L 394 721 Q 312 714 222 704 Q 194 701 214 687 Q 253 660 332 677 Q 366 686 401 691 L 442 697 Q 446 703 600 711 L 648 713 Z" fill="lightgray" class="stroke step3"/>
    <path d="M 439 727 Q 438 754 436 776 Q 437 794 419 799 Q 382 817 362 810 Q 346 801 360 784 Q 384 756 394 721 L 401 691 Q 413 634 428 619 Q 440 609 444 620 Q 447 630 442 697 L 439 727 Z" fill="lightgray" class="stroke step3"/>
    <path d="M 666 759 Q 673 778 689 802 Q 702 817 692 827 Q 680 843 647 860 Q 631 869 615 860 Q 605 854 612 844 Q 624 817 609 750 L 600 711 Q 578 635 579 619 Q 580 606 595 616 Q 605 625 648 713 L 666 759 Z" fill="lightgray" class="stroke step3"/>
    <path d="M 263 539 Q 285 517 310 490 Q 322 477 337 476 Q 347 476 353 489 Q 357 502 351 532 Q 347 550 319 564 Q 258 591 240 587 Q 236 583 236 571 Q 239 561 263 539 Z" fill="lightgray" class="stroke step3"/>
    <path d="M 156 422 Q 204 365 233 352 Q 246 349 255 361 Q 262 373 260 388 Q 251 433 170 456 L 169 457 Q 154 463 145 459 Q 139 458 141 447 Q 142 437 156 422 Z" fill="lightgray" class="hide"/>
    <path d="M 163 155 Q 151 152 152 135 Q 165 60 193 42 Q 200 35 210 37 Q 217 38 220 63 Q 224 91 327 325 Q 334 340 334 346 Q 334 356 325 350 Q 309 340 201 189 Q 188 171 163 155 Z" fill="lightgray" class="hide"/>
    <path d="M 603 535 Q 760 572 763 574 Q 770 581 767 589 Q 760 599 734 607 Q 707 611 615 581 Q 542 563 480 558 Q 447 552 471 537 Q 507 518 553 525 L 603 535 Z" fill="lightgray" class="hide"/>
    <path d="M 429 421 Q 448 397 470 369 Q 480 356 494 355 Q 503 354 509 365 Q 515 377 511 404 Q 510 422 484 438 Q 424 469 412 467 Q 408 464 407 453 Q 408 443 429 421 Z" fill="lightgray" class="hide"/>
    <path d="M 744 490 Q 726 456 674 393 Q 665 377 680 381 Q 701 394 782 452 Q 798 467 819 476 Q 837 486 827 501 Q 815 516 792 527 Q 771 539 760 535 Q 748 534 753 522 Q 756 506 744 490 Z" fill="lightgray" class="hide"/>
    <path d="M 629 271 Q 674 277 917 276 Q 938 276 942 284 Q 948 296 932 310 Q 881 350 842 342 Q 763 327 629 308 L 577 302 Q 472 292 353 278 Q 332 277 347 259 Q 360 244 379 239 Q 400 233 416 237 Q 491 256 576 265 L 629 271 Z" fill="lightgray" class="hide"/>
    <path d="M 574 -39 Q 580 -64 586 -73 Q 592 -80 599 -78 Q 617 -66 620 -11 Q 629 59 628 128 Q 627 165 629 271 L 629 308 Q 632 431 643 491 Q 647 509 633 518 Q 615 530 603 535 C 576 549 540 552 553 525 Q 554 524 556 520 Q 577 475 578 407 Q 577 361 577 302 L 576 265 Q 570 3 574 -39 Z" fill="lightgray" class="hide"/></g><g transform="scale(1, -1) translate(0, -900)">
    <style type="text/css">
        .origin {display:none;}
        .hide {display:none;}
        .stroke {fill: #000000;}
        
.step1 {transform: translateX(1024px);}
.step2 {transform: translateX(2048px);}
.step3 {transform: translateX(3072px);}
.step4 {transform: translateX(4096px);}
.step5 {transform: translateX(5120px);}
.step6 {transform: translateX(6144px);}
.step7 {transform: translateX(7168px);}
.step8 {transform: translateX(8192px);}
.step9 {transform: translateX(9216px);}
.step10 {transform: translateX(10240px);}
.step11 {transform: translateX(11264px);}
.step12 {transform: translateX(12288px);}
.step13 {transform: translateX(13312px);}
.step14 {transform: translateX(14336px);}
.step15 {transform: translateX(15360px);}
.step16 {transform: translateX(16384px);}
.step17 {transform: translateX(17408px);}
.step18 {transform: translateX(18432px);}
.step19 {transform: translateX(19456px);}
.step20 {transform: translateX(20480px);}
.step21 {transform: translateX(21504px);}
.step22 {transform: translateX(22528px);}
.step23 {transform: translateX(23552px);}
.step24 {transform: translateX(24576px);}
.step25 {transform: translateX(25600px);}
.step26 {transform: translateX(26624px);}
.step27 {transform: translateX(27648px);}
.step28 {transform: translateX(28672px);}
.step29 {transform: translateX(29696px);}
    </style>

    <path d="M 648 713 Q 699 723 819 715 Q 834 714 839 722 Q 843 732 831 747 Q 783 786 701 765 Q 683 764 666 759 L 609 750 Q 528 740 439 727 L 394 721 Q 312 714 222 704 Q 194 701 214 687 Q 253 660 332 677 Q 366 686 401 691 L 442 697 Q 446 703 600 711 L 648 713 Z" fill="lightgray" class="stroke step4"/>
    <path d="M 439 727 Q 438 754 436 776 Q 437 794 419 799 Q 382 817 362 810 Q 346 801 360 784 Q 384 756 394 721 L 401 691 Q 413 634 428 619 Q 440 609 444 620 Q 447 630 442 697 L 439 727 Z" fill="lightgray" class="stroke step4"/>
    <path d="M 666 759 Q 673 778 689 802 Q 702 817 692 827 Q 680 843 647 860 Q 631 869 615 860 Q 605 854 612 844 Q 624 817 609 750 L 600 711 Q 578 635 579 619 Q 580 606 595 616 Q 605 625 648 713 L 666 759 Z" fill="lightgray" class="stroke step4"/>
    <path d="M 263 539 Q 285 517 310 490 Q 322 477 337 476 Q 347 476 353 489 Q 357 502 351 532 Q 347 550 319 564 Q 258 591 240 587 Q 236 583 236 571 Q 239 561 263 539 Z" fill="lightgray" class="stroke step4"/>
    <path d="M 156 422 Q 204 365 233 352 Q 246 349 255 361 Q 262 373 260 388 Q 251 433 170 456 L 169 457 Q 154 463 145 459 Q 139 458 141 447 Q 142 437 156 422 Z" fill="lightgray" class="stroke step4"/>
    <path d="M 163 155 Q 151 152 152 135 Q 165 60 193 42 Q 200 35 210 37 Q 217 38 220 63 Q 224 91 327 325 Q 334 340 334 346 Q 334 356 325 350 Q 309 340 201 189 Q 188 171 163 155 Z" fill="lightgray" class="hide"/>
    <path d="M 603 535 Q 760 572 763 574 Q 770 581 767 589 Q 760 599 734 607 Q 707 611 615 581 Q 542 563 480 558 Q 447 552 471 537 Q 507 518 553 525 L 603 535 Z" fill="lightgray" class="hide"/>
    <path d="M 429 421 Q 448 397 470 369 Q 480 356 494 355 Q 503 354 509 365 Q 515 377 511 404 Q 510 422 484 438 Q 424 469 412 467 Q 408 464 407 453 Q 408 443 429 421 Z" fill="lightgray" class="hide"/>
    <path d="M 744 490 Q 726 456 674 393 Q 665 377 680 381 Q 701 394 782 452 Q 798 467 819 476 Q 837 486 827 501 Q 815 516 792 527 Q 771 539 760 535 Q 748 534 753 522 Q 756 506 744 490 Z" fill="lightgray" class="hide"/>
    <path d="M 629 271 Q 674 277 917 276 Q 938 276 942 284 Q 948 296 932 310 Q 881 350 842 342 Q 763 327 629 308 L 577 302 Q 472 292 353 278 Q 332 277 347 259 Q 360 244 379 239 Q 400 233 416 237 Q 491 256 576 265 L 629 271 Z" fill="lightgray" class="hide"/>
    <path d="M 574 -39 Q 580 -64 586 -73 Q 592 -80 599 -78 Q 617 -66 620 -11 Q 629 59 628 128 Q 627 165 629 271 L 629 308 Q 632 431 643 491 Q 647 509 633 518 Q 615 530 603 535 C 576 549 540 552 553 525 Q 554 524 556 520 Q 577 475 578 407 Q 577 361 577 302 L 576 265 Q 570 3 574 -39 Z" fill="lightgray" class="hide"/></g><g transform="scale(1, -1) translate(0, -900)">
    <style type="text/css">
        .origin {display:none;}
        .hide {display:none;}
        .stroke {fill: #000000;}
        
.step1 {transform: translateX(1024px);}
.step2 {transform: translateX(2048px);}
.step3 {transform: translateX(3072px);}
.step4 {transform: translateX(4096px);}
.step5 {transform: translateX(5120px);}
.step6 {transform: translateX(6144px);}
.step7 {transform: translateX(7168px);}
.step8 {transform: translateX(8192px);}
.step9 {transform: translateX(9216px);}
.step10 {transform: translateX(10240px);}
.step11 {transform: translateX(11264px);}
.step12 {transform: translateX(12288px);}
.step13 {transform: translateX(13312px);}
.step14 {transform: translateX(14336px);}
.step15 {transform: translateX(15360px);}
.step16 {transform: translateX(16384px);}
.step17 {transform: translateX(17408px);}
.step18 {transform: translateX(18432px);}
.step19 {transform: translateX(19456px);}
.step20 {transform: translateX(20480px);}
.step21 {transform: translateX(21504px);}
.step22 {transform: translateX(22528px);}
.step23 {transform: translateX(23552px);}
.step24 {transform: translateX(24576px);}
.step25 {transform: translateX(25600px);}
.step26 {transform: translateX(26624px);}
.step27 {transform: translateX(27648px);}
.step28 {transform: translateX(28672px);}
.step29 {transform: translateX(29696px);}
    </style>

    <path d="M 648 713 Q 699 723 819 715 Q 834 714 839 722 Q 843 732 831 747 Q 783 786 701 765 Q 683 764 666 759 L 609 750 Q 528 740 439 727 L 394 721 Q 312 714 222 704 Q 194 701 214 687 Q 253 660 332 677 Q 366 686 401 691 L 442 697 Q 446 703 600 711 L 648 713 Z" fill="lightgray" class="stroke step5"/>
    <path d="M 439 727 Q 438 754 436 776 Q 437 794 419 799 Q 382 817 362 810 Q 346 801 360 784 Q 384 756 394 721 L 401 691 Q 413 634 428 619 Q 440 609 444 620 Q 447 630 442 697 L 439 727 Z" fill="lightgray" class="stroke step5"/>
    <path d="M 666 759 Q 673 778 689 802 Q 702 817 692 827 Q 680 843 647 860 Q 631 869 615 860 Q 605 854 612 844 Q 624 817 609 750 L 600 711 Q 578 635 579 619 Q 580 606 595 616 Q 605 625 648 713 L 666 759 Z" fill="lightgray" class="stroke step5"/>
    <path d="M 263 539 Q 285 517 310 490 Q 322 477 337 476 Q 347 476 353 489 Q 357 502 351 532 Q 347 550 319 564 Q 258 591 240 587 Q 236 583 236 571 Q 239 561 263 539 Z" fill="lightgray" class="stroke step5"/>
    <path d="M 156 422 Q 204 365 233 352 Q 246 349 255 361 Q 262 373 260 388 Q 251 433 170 456 L 169 457 Q 154 463 145 459 Q 139 458 141 447 Q 142 437 156 422 Z" fill="lightgray" class="stroke step5"/>
    <path d="M 163 155 Q 151 152 152 135 Q 165 60 193 42 Q 200 35 210 37 Q 217 38 220 63 Q 224 91 327 325 Q 334 340 334 346 Q 334 356 325 350 Q 309 340 201 189 Q 188 171 163 155 Z" fill="lightgray" class="stroke step5"/>
    <path d="M 603 535 Q 760 572 763 574 Q 770 581 767 589 Q 760 599 734 607 Q 707 611 615 581 Q 542 563 480 558 Q 447 552 471 537 Q 507 518 553 525 L 603 535 Z" fill="lightgray" class="hide"/>
    <path d="M 429 421 Q 448 397 470 369 Q 480 356 494 355 Q 503 354 509 365 Q 515 377 511 404 Q 510 422 484 438 Q 424 469 412 467 Q 408 464 407 453 Q 408 443 429 421 Z" fill="lightgray" class="hide"/>
    <path d="M 744 490 Q 726 456 674 393 Q 665 377 680 381 Q 701 394 782 452 Q 798 467 819 476 Q 837 486 827 501 Q 815 516 792 527 Q 771 539 760 535 Q 748 534 753 522 Q 756 506 744 490 Z" fill="lightgray" class="hide"/>
    <path d="M 629 271 Q 674 277 917 276 Q 938 276 942 284 Q 948 296 932 310 Q 881 350 842 342 Q 763 327 629 308 L 577 302 Q 472 292 353 278 Q 332 277 347 259 Q 360 244 379 239 Q 400 233 416 237 Q 491 256 576 265 L 629 271 Z" fill="lightgray" class="hide"/>
    <path d="M 574 -39 Q 580 -64 586 -73 Q 592 -80 599 -78 Q 617 -66 620 -11 Q 629 59 628 128 Q 627 165 629 271 L 629 308 Q 632 431 643 491 Q 647 509 633 518 Q 615 530 603 535 C 576 549 540 552 553 525 Q 554 524 556 520 Q 577 475 578 407 Q 577 361 577 302 L 576 265 Q 570 3 574 -39 Z" fill="lightgray" class="hide"/></g><g transform="scale(1, -1) translate(0, -900)">
    <style type="text/css">
        .origin {display:none;}
        .hide {display:none;}
        .stroke {fill: #000000;}
        
.step1 {transform: translateX(1024px);}
.step2 {transform: translateX(2048px);}
.step3 {transform: translateX(3072px);}
.step4 {transform: translateX(4096px);}
.step5 {transform: translateX(5120px);}
.step6 {transform: translateX(6144px);}
.step7 {transform: translateX(7168px);}
.step8 {transform: translateX(8192px);}
.step9 {transform: translateX(9216px);}
.step10 {transform: translateX(10240px);}
.step11 {transform: translateX(11264px);}
.step12 {transform: translateX(12288px);}
.step13 {transform: translateX(13312px);}
.step14 {transform: translateX(14336px);}
.step15 {transform: translateX(15360px);}
.step16 {transform: translateX(16384px);}
.step17 {transform: translateX(17408px);}
.step18 {transform: translateX(18432px);}
.step19 {transform: translateX(19456px);}
.step20 {transform: translateX(20480px);}
.step21 {transform: translateX(21504px);}
.step22 {transform: translateX(22528px);}
.step23 {transform: translateX(23552px);}
.step24 {transform: translateX(24576px);}
.step25 {transform: translateX(25600px);}
.step26 {transform: translateX(26624px);}
.step27 {transform: translateX(27648px);}
.step28 {transform: translateX(28672px);}
.step29 {transform: translateX(29696px);}
    </style>

    <path d="M 648 713 Q 699 723 819 715 Q 834 714 839 722 Q 843 732 831 747 Q 783 786 701 765 Q 683 764 666 759 L 609 750 Q 528 740 439 727 L 394 721 Q 312 714 222 704 Q 194 701 214 687 Q 253 660 332 677 Q 366 686 401 691 L 442 697 Q 446 703 600 711 L 648 713 Z" fill="lightgray" class="stroke step6"/>
    <path d="M 439 727 Q 438 754 436 776 Q 437 794 419 799 Q 382 817 362 810 Q 346 801 360 784 Q 384 756 394 721 L 401 691 Q 413 634 428 619 Q 440 609 444 620 Q 447 630 442 697 L 439 727 Z" fill="lightgray" class="stroke step6"/>
    <path d="M 666 759 Q 673 778 689 802 Q 702 817 692 827 Q 680 843 647 860 Q 631 869 615 860 Q 605 854 612 844 Q 624 817 609 750 L 600 711 Q 578 635 579 619 Q 580 606 595 616 Q 605 625 648 713 L 666 759 Z" fill="lightgray" class="stroke step6"/>
    <path d="M 263 539 Q 285 517 310 490 Q 322 477 337 476 Q 347 476 353 489 Q 357 502 351 532 Q 347 550 319 564 Q 258 591 240 587 Q 236 583 236 571 Q 239 561 263 539 Z" fill="lightgray" class="stroke step6"/>
    <path d="M 156 422 Q 204 365 233 352 Q 246 349 255 361 Q 262 373 260 388 Q 251 433 170 456 L 169 457 Q 154 463 145 459 Q 139 458 141 447 Q 142 437 156 422 Z" fill="lightgray" class="stroke step6"/>
    <path d="M 163 155 Q 151 152 152 135 Q 165 60 193 42 Q 200 35 210 37 Q 217 38 220 63 Q 224 91 327 325 Q 334 340 334 346 Q 334 356 325 350 Q 309 340 201 189 Q 188 171 163 155 Z" fill="lightgray" class="stroke step6"/>
    <path d="M 603 535 Q 760 572 763 574 Q 770 581 767 589 Q 760 599 734 607 Q 707 611 615 581 Q 542 563 480 558 Q 447 552 471 537 Q 507 518 553 525 L 603 535 Z" fill="lightgray" class="stroke step6"/>
    <path d="M 429 421 Q 448 397 470 369 Q 480 356 494 355 Q 503 354 509 365 Q 515 377 511 404 Q 510 422 484 438 Q 424 469 412 467 Q 408 464 407 453 Q 408 443 429 421 Z" fill="lightgray" class="hide"/>
    <path d="M 744 490 Q 726 456 674 393 Q 665 377 680 381 Q 701 394 782 452 Q 798 467 819 476 Q 837 486 827 501 Q 815 516 792 527 Q 771 539 760 535 Q 748 534 753 522 Q 756 506 744 490 Z" fill="lightgray" class="hide"/>
    <path d="M 629 271 Q 674 277 917 276 Q 938 276 942 284 Q 948 296 932 310 Q 881 350 842 342 Q 763 327 629 308 L 577 302 Q 472 292 353 278 Q 332 277 347 259 Q 360 244 379 239 Q 400 233 416 237 Q 491 256 576 265 L 629 271 Z" fill="lightgray" class="hide"/>
    <path d="M 574 -39 Q 580 -64 586 -73 Q 592 -80 599 -78 Q 617 -66 620 -11 Q 629 59 628 128 Q 627 165 629 271 L 629 308 Q 632 431 643 491 Q 647 509 633 518 Q 615 530 603 535 C 576 549 540 552 553 525 Q 554 524 556 520 Q 577 475 578 407 Q 577 361 577 302 L 576 265 Q 570 3 574 -39 Z" fill="lightgray" class="hide"/></g><g transform="scale(1, -1) translate(0, -900)">
    <style type="text/css">
        .origin {display:none;}
        .hide {display:none;}
        .stroke {fill: #000000;}
        
.step1 {transform: translateX(1024px);}
.step2 {transform: translateX(2048px);}
.step3 {transform: translateX(3072px);}
.step4 {transform: translateX(4096px);}
.step5 {transform: translateX(5120px);}
.step6 {transform: translateX(6144px);}
.step7 {transform: translateX(7168px);}
.step8 {transform: translateX(8192px);}
.step9 {transform: translateX(9216px);}
.step10 {transform: translateX(10240px);}
.step11 {transform: translateX(11264px);}
.step12 {transform: translateX(12288px);}
.step13 {transform: translateX(13312px);}
.step14 {transform: translateX(14336px);}
.step15 {transform: translateX(15360px);}
.step16 {transform: translateX(16384px);}
.step17 {transform: translateX(17408px);}
.step18 {transform: translateX(18432px);}
.step19 {transform: translateX(19456px);}
.step20 {transform: translateX(20480px);}
.step21 {transform: translateX(21504px);}
.step22 {transform: translateX(22528px);}
.step23 {transform: translateX(23552px);}
.step24 {transform: translateX(24576px);}
.step25 {transform: translateX(25600px);}
.step26 {transform: translateX(26624px);}
.step27 {transform: translateX(27648px);}
.step28 {transform: translateX(28672px);}
.step29 {transform: translateX(29696px);}
    </style>

    <path d="M 648 713 Q 699 723 819 715 Q 834 714 839 722 Q 843 732 831 747 Q 783 786 701 765 Q 683 764 666 759 L 609 750 Q 528 740 439 727 L 394 721 Q 312 714 222 704 Q 194 701 214 687 Q 253 660 332 677 Q 366 686 401 691 L 442 697 Q 446 703 600 711 L 648 713 Z" fill="lightgray" class="stroke step7"/>
    <path d="M 439 727 Q 438 754 436 776 Q 437 794 419 799 Q 382 817 362 810 Q 346 801 360 784 Q 384 756 394 721 L 401 691 Q 413 634 428 619 Q 440 609 444 620 Q 447 630 442 697 L 439 727 Z" fill="lightgray" class="stroke step7"/>
    <path d="M 666 759 Q 673 778 689 802 Q 702 817 692 827 Q 680 843 647 860 Q 631 869 615 860 Q 605 854 612 844 Q 624 817 609 750 L 600 711 Q 578 635 579 619 Q 580 606 595 616 Q 605 625 648 713 L 666 759 Z" fill="lightgray" class="stroke step7"/>
    <path d="M 263 539 Q 285 517 310 490 Q 322 477 337 476 Q 347 476 353 489 Q 357 502 351 532 Q 347 550 319 564 Q 258 591 240 587 Q 236 583 236 571 Q 239 561 263 539 Z" fill="lightgray" class="stroke step7"/>
    <path d="M 156 422 Q 204 365 233 352 Q 246 349 255 361 Q 262 373 260 388 Q 251 433 170 456 L 169 457 Q 154 463 145 459 Q 139 458 141 447 Q 142 437 156 422 Z" fill="lightgray" class="stroke step7"/>
    <path d="M 163 155 Q 151 152 152 135 Q 165 60 193 42 Q 200 35 210 37 Q 217 38 220 63 Q 224 91 327 325 Q 334 340 334 346 Q 334 356 325 350 Q 309 340 201 189 Q 188 171 163 155 Z" fill="lightgray" class="stroke step7"/>
    <path d="M 603 535 Q 760 572 763 574 Q 770 581 767 589 Q 760 599 734 607 Q 707 611 615 581 Q 542 563 480 558 Q 447 552 471 537 Q 507 518 553 525 L 603 535 Z" fill="lightgray" class="stroke step7"/>
    <path d="M 429 421 Q 448 397 470 369 Q 480 356 494 355 Q 503 354 509 365 Q 515 377 511 404 Q 510 422 484 438 Q 424 469 412 467 Q 408 464 407 453 Q 408 443 429 421 Z" fill="lightgray" class="stroke step7"/>
    <path d="M 744 490 Q 726 456 674 393 Q 665 377 680 381 Q 701 394 782 452 Q 798 467 819 476 Q 837 486 827 501 Q 815 516 792 527 Q 771 539 760 535 Q 748 534 753 522 Q 756 506 744 490 Z" fill="lightgray" class="hide"/>
    <path d="M 629 271 Q 674 277 917 276 Q 938 276 942 284 Q 948 296 932 310 Q 881 350 842 342 Q 763 327 629 308 L 577 302 Q 472 292 353 278 Q 332 277 347 259 Q 360 244 379 239 Q 400 233 416 237 Q 491 256 576 265 L 629 271 Z" fill="lightgray" class="hide"/>
    <path d="M 574 -39 Q 580 -64 586 -73 Q 592 -80 599 -78 Q 617 -66 620 -11 Q 629 59 628 128 Q 627 165 629 271 L 629 308 Q 632 431 643 491 Q 647 509 633 518 Q 615 530 603 535 C 576 549 540 552 553 525 Q 554 524 556 520 Q 577 475 578 407 Q 577 361 577 302 L 576 265 Q 570 3 574 -39 Z" fill="lightgray" class="hide"/></g><g transform="scale(1, -1) translate(0, -900)">
    <style type="text/css">
        .origin {display:none;}
        .hide {display:none;}
        .stroke {fill: #000000;}
        
.step1 {transform: translateX(1024px);}
.step2 {transform: translateX(2048px);}
.step3 {transform: translateX(3072px);}
.step4 {transform: translateX(4096px);}
.step5 {transform: translateX(5120px);}
.step6 {transform: translateX(6144px);}
.step7 {transform: translateX(7168px);}
.step8 {transform: translateX(8192px);}
.step9 {transform: translateX(9216px);}
.step10 {transform: translateX(10240px);}
.step11 {transform: translateX(11264px);}
.step12 {transform: translateX(12288px);}
.step13 {transform: translateX(13312px);}
.step14 {transform: translateX(14336px);}
.step15 {transform: translateX(15360px);}
.step16 {transform: translateX(16384px);}
.step17 {transform: translateX(17408px);}
.step18 {transform: translateX(18432px);}
.step19 {transform: translateX(19456px);}
.step20 {transform: translateX(20480px);}
.step21 {transform: translateX(21504px);}
.step22 {transform: translateX(22528px);}
.step23 {transform: translateX(23552px);}
.step24 {transform: translateX(24576px);}
.step25 {transform: translateX(25600px);}
.step26 {transform: translateX(26624px);}
.step27 {transform: translateX(27648px);}
.step28 {transform: translateX(28672px);}
.step29 {transform: translateX(29696px);}
    </style>

    <path d="M 648 713 Q 699 723 819 715 Q 834 714 839 722 Q 843 732 831 747 Q 783 786 701 765 Q 683 764 666 759 L 609 750 Q 528 740 439 727 L 394 721 Q 312 714 222 704 Q 194 701 214 687 Q 253 660 332 677 Q 366 686 401 691 L 442 697 Q 446 703 600 711 L 648 713 Z" fill="lightgray" class="stroke step8"/>
    <path d="M 439 727 Q 438 754 436 776 Q 437 794 419 799 Q 382 817 362 810 Q 346 801 360 784 Q 384 756 394 721 L 401 691 Q 413 634 428 619 Q 440 609 444 620 Q 447 630 442 697 L 439 727 Z" fill="lightgray" class="stroke step8"/>
    <path d="M 666 759 Q 673 778 689 802 Q 702 817 692 827 Q 680 843 647 860 Q 631 869 615 860 Q 605 854 612 844 Q 624 817 609 750 L 600 711 Q 578 635 579 619 Q 580 606 595 616 Q 605 625 648 713 L 666 759 Z" fill="lightgray" class="stroke step8"/>
    <path d="M 263 539 Q 285 517 310 490 Q 322 477 337 476 Q 347 476 353 489 Q 357 502 351 532 Q 347 550 319 564 Q 258 591 240 587 Q 236 583 236 571 Q 239 561 263 539 Z" fill="lightgray" class="stroke step8"/>
    <path d="M 156 422 Q 204 365 233 352 Q 246 349 255 361 Q 262 373 260 388 Q 251 433 170 456 L 169 457 Q 154 463 145 459 Q 139 458 141 447 Q 142 437 156 422 Z" fill="lightgray" class="stroke step8"/>
    <path d="M 163 155 Q 151 152 152 135 Q 165 60 193 42 Q 200 35 210 37 Q 217 38 220 63 Q 224 91 327 325 Q 334 340 334 346 Q 334 356 325 350 Q 309 340 201 189 Q 188 171 163 155 Z" fill="lightgray" class="stroke step8"/>
    <path d="M 603 535 Q 760 572 763 574 Q 770 581 767 589 Q 760 599 734 607 Q 707 611 615 581 Q 542 563 480 558 Q 447 552 471 537 Q 507 518 553 525 L 603 535 Z" fill="lightgray" class="stroke step8"/>
    <path d="M 429 421 Q 448 397 470 369 Q 480 356 494 355 Q 503 354 509 365 Q 515 377 511 404 Q 510 422 484 438 Q 424 469 412 467 Q 408 464 407 453 Q 408 443 429 421 Z" fill="lightgray" class="stroke step8"/>
    <path d="M 744 490 Q 726 456 674 393 Q 665 377 680 381 Q 701 394 782 452 Q 798 467 819 476 Q 837 486 827 501 Q 815 516 792 527 Q 771 539 760 535 Q 748 534 753 522 Q 756 506 744 490 Z" fill="lightgray" class="stroke step8"/>
    <path d="M 629 271 Q 674 277 917 276 Q 938 276 942 284 Q 948 296 932 310 Q 881 350 842 342 Q 763 327 629 308 L 577 302 Q 472 292 353 278 Q 332 277 347 259 Q 360 244 379 239 Q 400 233 416 237 Q 491 256 576 265 L 629 271 Z" fill="lightgray" class="hide"/>
    <path d="M 574 -39 Q 580 -64 586 -73 Q 592 -80 599 -78 Q 617 -66 620 -11 Q 629 59 628 128 Q 627 165 629 271 L 629 308 Q 632 431 643 491 Q 647 509 633 518 Q 615 530 603 535 C 576 549 540 552 553 525 Q 554 524 556 520 Q 577 475 578 407 Q 577 361 577 302 L 576 265 Q 570 3 574 -39 Z" fill="lightgray" class="hide"/></g><g transform="scale(1, -1) translate(0, -900)">
    <style type="text/css">
        .origin {display:none;}
        .hide {display:none;}
        .stroke {fill: #000000;}
        
.step1 {transform: translateX(1024px);}
.step2 {transform: translateX(2048px);}
.step3 {transform: translateX(3072px);}
.step4 {transform: translateX(4096px);}
.step5 {transform: translateX(5120px);}
.step6 {transform: translateX(6144px);}
.step7 {transform: translateX(7168px);}
.step8 {transform: translateX(8192px);}
.step9 {transform: translateX(9216px);}
.step10 {transform: translateX(10240px);}
.step11 {transform: translateX(11264px);}
.step12 {transform: translateX(12288px);}
.step13 {transform: translateX(13312px);}
.step14 {transform: translateX(14336px);}
.step15 {transform: translateX(15360px);}
.step16 {transform: translateX(16384px);}
.step17 {transform: translateX(17408px);}
.step18 {transform: translateX(18432px);}
.step19 {transform: translateX(19456px);}
.step20 {transform: translateX(20480px);}
.step21 {transform: translateX(21504px);}
.step22 {transform: translateX(22528px);}
.step23 {transform: translateX(23552px);}
.step24 {transform: translateX(24576px);}
.step25 {transform: translateX(25600px);}
.step26 {transform: translateX(26624px);}
.step27 {transform: translateX(27648px);}
.step28 {transform: translateX(28672px);}
.step29 {transform: translateX(29696px);}
    </style>

    <path d="M 648 713 Q 699 723 819 715 Q 834 714 839 722 Q 843 732 831 747 Q 783 786 701 765 Q 683 764 666 759 L 609 750 Q 528 740 439 727 L 394 721 Q 312 714 222 704 Q 194 701 214 687 Q 253 660 332 677 Q 366 686 401 691 L 442 697 Q 446 703 600 711 L 648 713 Z" fill="lightgray" class="stroke step9"/>
    <path d="M 439 727 Q 438 754 436 776 Q 437 794 419 799 Q 382 817 362 810 Q 346 801 360 784 Q 384 756 394 721 L 401 691 Q 413 634 428 619 Q 440 609 444 620 Q 447 630 442 697 L 439 727 Z" fill="lightgray" class="stroke step9"/>
    <path d="M 666 759 Q 673 778 689 802 Q 702 817 692 827 Q 680 843 647 860 Q 631 869 615 860 Q 605 854 612 844 Q 624 817 609 750 L 600 711 Q 578 635 579 619 Q 580 606 595 616 Q 605 625 648 713 L 666 759 Z" fill="lightgray" class="stroke step9"/>
    <path d="M 263 539 Q 285 517 310 490 Q 322 477 337 476 Q 347 476 353 489 Q 357 502 351 532 Q 347 550 319 564 Q 258 591 240 587 Q 236 583 236 571 Q 239 561 263 539 Z" fill="lightgray" class="stroke step9"/>
    <path d="M 156 422 Q 204 365 233 352 Q 246 349 255 361 Q 262 373 260 388 Q 251 433 170 456 L 169 457 Q 154 463 145 459 Q 139 458 141 447 Q 142 437 156 422 Z" fill="lightgray" class="stroke step9"/>
    <path d="M 163 155 Q 151 152 152 135 Q 165 60 193 42 Q 200 35 210 37 Q 217 38 220 63 Q 224 91 327 325 Q 334 340 334 346 Q 334 356 325 350 Q 309 340 201 189 Q 188 171 163 155 Z" fill="lightgray" class="stroke step9"/>
    <path d="M 603 535 Q 760 572 763 574 Q 770 581 767 589 Q 760 599 734 607 Q 707 611 615 581 Q 542 563 480 558 Q 447 552 471 537 Q 507 518 553 525 L 603 535 Z" fill="lightgray" class="stroke step9"/>
    <path d="M 429 421 Q 448 397 470 369 Q 480 356 494 355 Q 503 354 509 365 Q 515 377 511 404 Q 510 422 484 438 Q 424 469 412 467 Q 408 464 407 453 Q 408 443 429 421 Z" fill="lightgray" class="stroke step9"/>
    <path d="M 744 490 Q 726 456 674 393 Q 665 377 680 381 Q 701 394 782 452 Q 798 467 819 476 Q 837 486 827 501 Q 815 516 792 527 Q 771 539 760 535 Q 748 534 753 522 Q 756 506 744 490 Z" fill="lightgray" class="stroke step9"/>
    <path d="M 629 271 Q 674 277 917 276 Q 938 276 942 284 Q 948 296 932 310 Q 881 350 842 342 Q 763 327 629 308 L 577 302 Q 472 292 353 278 Q 332 277 347 259 Q 360 244 379 239 Q 400 233 416 237 Q 491 256 576 265 L 629 271 Z" fill="lightgray" class="stroke step9"/>
    <path d="M 574 -39 Q 580 -64 586 -73 Q 592 -80 599 -78 Q 617 -66 620 -11 Q 629 59 628 128 Q 627 165 629 271 L 629 308 Q 632 431 643 491 Q 647 509 633 518 Q 615 530 603 535 C 576 549 540 552 553 525 Q 554 524 556 520 Q 577 475 578 407 Q 577 361 577 302 L 576 265 Q 570 3 574 -39 Z" fill="lightgray" class="hide"/></g><g transform="scale(1, -1) translate(0, -900)">
    <style type="text/css">
        .origin {display:none;}
        .hide {display:none;}
        .stroke {fill: #000000;}
        
.step1 {transform: translateX(1024px);}
.step2 {transform: translateX(2048px);}
.step3 {transform: translateX(3072px);}
.step4 {transform: translateX(4096px);}
.step5 {transform: translateX(5120px);}
.step6 {transform: translateX(6144px);}
.step7 {transform: translateX(7168px);}
.step8 {transform: translateX(8192px);}
.step9 {transform: translateX(9216px);}
.step10 {transform: translateX(10240px);}
.step11 {transform: translateX(11264px);}
.step12 {transform: translateX(12288px);}
.step13 {transform: translateX(13312px);}
.step14 {transform: translateX(14336px);}
.step15 {transform: translateX(15360px);}
.step16 {transform: translateX(16384px);}
.step17 {transform: translateX(17408px);}
.step18 {transform: translateX(18432px);}
.step19 {transform: translateX(19456px);}
.step20 {transform: translateX(20480px);}
.step21 {transform: translateX(21504px);}
.step22 {transform: translateX(22528px);}
.step23 {transform: translateX(23552px);}
.step24 {transform: translateX(24576px);}
.step25 {transform: translateX(25600px);}
.step26 {transform: translateX(26624px);}
.step27 {transform: translateX(27648px);}
.step28 {transform: translateX(28672px);}
.step29 {transform: translateX(29696px);}
    </style>

    <path d="M 648 713 Q 699 723 819 715 Q 834 714 839 722 Q 843 732 831 747 Q 783 786 701 765 Q 683 764 666 759 L 609 750 Q 528 740 439 727 L 394 721 Q 312 714 222 704 Q 194 701 214 687 Q 253 660 332 677 Q 366 686 401 691 L 442 697 Q 446 703 600 711 L 648 713 Z" fill="lightgray" class="stroke step10"/>
    <path d="M 439 727 Q 438 754 436 776 Q 437 794 419 799 Q 382 817 362 810 Q 346 801 360 784 Q 384 756 394 721 L 401 691 Q 413 634 428 619 Q 440 609 444 620 Q 447 630 442 697 L 439 727 Z" fill="lightgray" class="stroke step10"/>
    <path d="M 666 759 Q 673 778 689 802 Q 702 817 692 827 Q 680 843 647 860 Q 631 869 615 860 Q 605 854 612 844 Q 624 817 609 750 L 600 711 Q 578 635 579 619 Q 580 606 595 616 Q 605 625 648 713 L 666 759 Z" fill="lightgray" class="stroke step10"/>
    <path d="M 263 539 Q 285 517 310 490 Q 322 477 337 476 Q 347 476 353 489 Q 357 502 351 532 Q 347 550 319 564 Q 258 591 240 587 Q 236 583 236 571 Q 239 561 263 539 Z" fill="lightgray" class="stroke step10"/>
    <path d="M 156 422 Q 204 365 233 352 Q 246 349 255 361 Q 262 373 260 388 Q 251 433 170 456 L 169 457 Q 154 463 145 459 Q 139 458 141 447 Q 142 437 156 422 Z" fill="lightgray" class="stroke step10"/>
    <path d="M 163 155 Q 151 152 152 135 Q 165 60 193 42 Q 200 35 210 37 Q 217 38 220 63 Q 224 91 327 325 Q 334 340 334 346 Q 334 356 325 350 Q 309 340 201 189 Q 188 171 163 155 Z" fill="lightgray" class="stroke step10"/>
    <path d="M 603 535 Q 760 572 763 574 Q 770 581 767 589 Q 760 599 734 607 Q 707 611 615 581 Q 542 563 480 558 Q 447 552 471 537 Q 507 518 553 525 L 603 535 Z" fill="lightgray" class="stroke step10"/>
    <path d="M 429 421 Q 448 397 470 369 Q 480 356 494 355 Q 503 354 509 365 Q 515 377 511 404 Q 510 422 484 438 Q 424 469 412 467 Q 408 464 407 453 Q 408 443 429 421 Z" fill="lightgray" class="stroke step10"/>
    <path d="M 744 490 Q 726 456 674 393 Q 665 377 680 381 Q 701 394 782 452 Q 798 467 819 476 Q 837 486 827 501 Q 815 516 792 527 Q 771 539 760 535 Q 748 534 753 522 Q 756 506 744 490 Z" fill="lightgray" class="stroke step10"/>
    <path d="M 629 271 Q 674 277 917 276 Q 938 276 942 284 Q 948 296 932 310 Q 881 350 842 342 Q 763 327 629 308 L 577 302 Q 472 292 353 278 Q 332 277 347 259 Q 360 244 379 239 Q 400 233 416 237 Q 491 256 576 265 L 629 271 Z" fill="lightgray" class="stroke step10"/>
    <path d="M 574 -39 Q 580 -64 586 -73 Q 592 -80 599 -78 Q 617 -66 620 -11 Q 629 59 628 128 Q 627 165 629 271 L 629 308 Q 632 431 643 491 Q 647 509 633 518 Q 615 530 603 535 C 576 549 540 552 553 525 Q 554 524 556 520 Q 577 475 578 407 Q 577 361 577 302 L 576 265 Q 570 3 574 -39 Z" fill="lightgray" class="stroke step10"/></g></svg>