<svg version="1.1" viewBox="0 0 13312 1024" xmlns="http://www.w3.org/2000/svg">
  
  <g transform="scale(1, -1) translate(0, -900)" class="origin">
    <style type="text/css">
        .origin {display:none;}
        .hide {display:none;}
        .stroke {fill: #000000;}
        
.step1 {transform: translateX(1024px);}
.step2 {transform: translateX(2048px);}
.step3 {transform: translateX(3072px);}
.step4 {transform: translateX(4096px);}
.step5 {transform: translateX(5120px);}
.step6 {transform: translateX(6144px);}
.step7 {transform: translateX(7168px);}
.step8 {transform: translateX(8192px);}
.step9 {transform: translateX(9216px);}
.step10 {transform: translateX(10240px);}
.step11 {transform: translateX(11264px);}
.step12 {transform: translateX(12288px);}
.step13 {transform: translateX(13312px);}
.step14 {transform: translateX(14336px);}
.step15 {transform: translateX(15360px);}
.step16 {transform: translateX(16384px);}
.step17 {transform: translateX(17408px);}
.step18 {transform: translateX(18432px);}
.step19 {transform: translateX(19456px);}
.step20 {transform: translateX(20480px);}
.step21 {transform: translateX(21504px);}
.step22 {transform: translateX(22528px);}
.step23 {transform: translateX(23552px);}
.step24 {transform: translateX(24576px);}
.step25 {transform: translateX(25600px);}
.step26 {transform: translateX(26624px);}
.step27 {transform: translateX(27648px);}
.step28 {transform: translateX(28672px);}
.step29 {transform: translateX(29696px);}
    </style>

    <path d="M 409 716 Q 406 747 404 773 Q 405 792 384 798 Q 345 816 323 808 Q 305 799 321 780 Q 348 747 360 708 L 370 671 Q 382 608 399 591 Q 412 581 417 593 Q 420 608 412 683 L 409 716 Z" fill="lightgray"/>
    <path d="M 412 683 Q 434 690 460 696 Q 475 699 492 708 Q 498 712 496 719 Q 495 725 482 728 Q 449 724 409 716 L 360 708 Q 305 701 238 689 Q 195 690 173 687 Q 163 688 160 684 Q 159 677 165 667 Q 178 652 205 641 Q 223 632 239 638 Q 303 654 370 671 L 412 683 Z" fill="lightgray"/>
    <path d="M 671 742 Q 681 766 702 795 Q 717 810 707 820 Q 697 838 663 857 Q 647 867 629 860 Q 619 854 625 843 Q 635 810 613 732 L 600 694 Q 573 625 574 606 Q 575 593 589 600 Q 610 615 650 698 L 671 742 Z" fill="lightgray"/>
    <path d="M 650 698 Q 714 717 838 710 Q 851 709 855 717 Q 859 727 848 739 Q 806 773 717 751 Q 695 748 671 742 L 613 732 Q 589 731 564 726 Q 539 723 557 710 Q 563 707 600 694 L 650 698 Z" fill="lightgray"/>
    <path d="M 253 273 Q 260 312 264 350 L 266 385 Q 266 448 277 498 C 280 516 280 516 265 526 Q 253 536 234 543 Q 218 550 206 546 Q 196 539 203 528 Q 218 501 220 448 Q 220 214 123 36 Q 107 6 103 -4 Q 102 -14 110 -11 Q 141 -4 201 109 Q 208 125 216 142 Q 232 188 246 241 L 253 273 Z" fill="lightgray"/>
    <path d="M 277 498 Q 277 499 359 519 Q 374 523 381 515 Q 390 506 390 477 Q 397 245 387 104 Q 386 79 378 68 Q 377 68 318 71 Q 299 77 301 68 Q 347 28 372 -1 Q 384 -17 398 -22 Q 405 -26 414 -17 Q 450 29 448 77 Q 427 459 450 503 Q 462 521 451 530 Q 391 578 350 551 Q 319 536 265 526 C 236 520 248 490 277 498 Z" fill="lightgray"/>
    <path d="M 264 350 Q 313 360 350 368 Q 371 374 362 385 Q 350 398 326 399 Q 304 400 266 385 C 238 374 235 344 264 350 Z" fill="lightgray"/>
    <path d="M 246 241 Q 306 250 348 256 Q 370 260 361 273 Q 351 286 327 289 Q 290 292 253 273 C 226 260 216 237 246 241 Z" fill="lightgray"/>
    <path d="M 595 446 Q 605 462 616 481 Q 629 506 642 520 Q 649 529 644 540 Q 640 550 616 567 Q 594 580 577 580 Q 562 577 570 559 Q 580 543 575 528 Q 550 444 476 330 Q 469 320 467 316 Q 464 306 476 309 Q 497 318 575 416 L 595 446 Z" fill="lightgray"/>
    <path d="M 664 422 Q 730 440 873 463 Q 886 464 887 472 Q 887 484 865 498 Q 820 517 776 495 Q 722 477 680 466 Q 637 459 595 446 C 566 437 545 421 575 416 Q 587 413 620 414 Q 624 415 629 416 L 664 422 Z" fill="lightgray"/>
    <path d="M 688 192 Q 688 243 689 295 L 690 328 Q 691 365 695 385 Q 696 398 690 403 Q 677 415 664 422 C 639 438 618 444 629 416 Q 656 365 632 100 Q 631 94 630 87 Q 629 62 624 50 Q 615 17 649 -36 Q 659 -54 668 -58 Q 678 -59 684 -47 Q 696 -16 692 14 Q 689 90 689 160 L 688 192 Z" fill="lightgray"/>
    <path d="M 689 295 Q 783 311 853 321 Q 878 325 869 339 Q 857 355 829 360 Q 801 364 690 328 C 661 319 659 290 689 295 Z" fill="lightgray"/>
    <path d="M 689 160 Q 693 160 703 160 Q 802 173 875 180 Q 903 184 893 199 Q 881 217 852 223 Q 825 227 688 192 C 659 185 659 160 689 160 Z" fill="lightgray"/></g>
<g transform="scale(1, -1) translate(0, -900)">
    <style type="text/css">
        .origin {display:none;}
        .hide {display:none;}
        .stroke {fill: #000000;}
        
.step1 {transform: translateX(1024px);}
.step2 {transform: translateX(2048px);}
.step3 {transform: translateX(3072px);}
.step4 {transform: translateX(4096px);}
.step5 {transform: translateX(5120px);}
.step6 {transform: translateX(6144px);}
.step7 {transform: translateX(7168px);}
.step8 {transform: translateX(8192px);}
.step9 {transform: translateX(9216px);}
.step10 {transform: translateX(10240px);}
.step11 {transform: translateX(11264px);}
.step12 {transform: translateX(12288px);}
.step13 {transform: translateX(13312px);}
.step14 {transform: translateX(14336px);}
.step15 {transform: translateX(15360px);}
.step16 {transform: translateX(16384px);}
.step17 {transform: translateX(17408px);}
.step18 {transform: translateX(18432px);}
.step19 {transform: translateX(19456px);}
.step20 {transform: translateX(20480px);}
.step21 {transform: translateX(21504px);}
.step22 {transform: translateX(22528px);}
.step23 {transform: translateX(23552px);}
.step24 {transform: translateX(24576px);}
.step25 {transform: translateX(25600px);}
.step26 {transform: translateX(26624px);}
.step27 {transform: translateX(27648px);}
.step28 {transform: translateX(28672px);}
.step29 {transform: translateX(29696px);}
    </style>

    <path d="M 409 716 Q 406 747 404 773 Q 405 792 384 798 Q 345 816 323 808 Q 305 799 321 780 Q 348 747 360 708 L 370 671 Q 382 608 399 591 Q 412 581 417 593 Q 420 608 412 683 L 409 716 Z" fill="lightgray" class="stroke step0"/>
    <path d="M 412 683 Q 434 690 460 696 Q 475 699 492 708 Q 498 712 496 719 Q 495 725 482 728 Q 449 724 409 716 L 360 708 Q 305 701 238 689 Q 195 690 173 687 Q 163 688 160 684 Q 159 677 165 667 Q 178 652 205 641 Q 223 632 239 638 Q 303 654 370 671 L 412 683 Z" fill="lightgray" class="hide"/>
    <path d="M 671 742 Q 681 766 702 795 Q 717 810 707 820 Q 697 838 663 857 Q 647 867 629 860 Q 619 854 625 843 Q 635 810 613 732 L 600 694 Q 573 625 574 606 Q 575 593 589 600 Q 610 615 650 698 L 671 742 Z" fill="lightgray" class="hide"/>
    <path d="M 650 698 Q 714 717 838 710 Q 851 709 855 717 Q 859 727 848 739 Q 806 773 717 751 Q 695 748 671 742 L 613 732 Q 589 731 564 726 Q 539 723 557 710 Q 563 707 600 694 L 650 698 Z" fill="lightgray" class="hide"/>
    <path d="M 253 273 Q 260 312 264 350 L 266 385 Q 266 448 277 498 C 280 516 280 516 265 526 Q 253 536 234 543 Q 218 550 206 546 Q 196 539 203 528 Q 218 501 220 448 Q 220 214 123 36 Q 107 6 103 -4 Q 102 -14 110 -11 Q 141 -4 201 109 Q 208 125 216 142 Q 232 188 246 241 L 253 273 Z" fill="lightgray" class="hide"/>
    <path d="M 277 498 Q 277 499 359 519 Q 374 523 381 515 Q 390 506 390 477 Q 397 245 387 104 Q 386 79 378 68 Q 377 68 318 71 Q 299 77 301 68 Q 347 28 372 -1 Q 384 -17 398 -22 Q 405 -26 414 -17 Q 450 29 448 77 Q 427 459 450 503 Q 462 521 451 530 Q 391 578 350 551 Q 319 536 265 526 C 236 520 248 490 277 498 Z" fill="lightgray" class="hide"/>
    <path d="M 264 350 Q 313 360 350 368 Q 371 374 362 385 Q 350 398 326 399 Q 304 400 266 385 C 238 374 235 344 264 350 Z" fill="lightgray" class="hide"/>
    <path d="M 246 241 Q 306 250 348 256 Q 370 260 361 273 Q 351 286 327 289 Q 290 292 253 273 C 226 260 216 237 246 241 Z" fill="lightgray" class="hide"/>
    <path d="M 595 446 Q 605 462 616 481 Q 629 506 642 520 Q 649 529 644 540 Q 640 550 616 567 Q 594 580 577 580 Q 562 577 570 559 Q 580 543 575 528 Q 550 444 476 330 Q 469 320 467 316 Q 464 306 476 309 Q 497 318 575 416 L 595 446 Z" fill="lightgray" class="hide"/>
    <path d="M 664 422 Q 730 440 873 463 Q 886 464 887 472 Q 887 484 865 498 Q 820 517 776 495 Q 722 477 680 466 Q 637 459 595 446 C 566 437 545 421 575 416 Q 587 413 620 414 Q 624 415 629 416 L 664 422 Z" fill="lightgray" class="hide"/>
    <path d="M 688 192 Q 688 243 689 295 L 690 328 Q 691 365 695 385 Q 696 398 690 403 Q 677 415 664 422 C 639 438 618 444 629 416 Q 656 365 632 100 Q 631 94 630 87 Q 629 62 624 50 Q 615 17 649 -36 Q 659 -54 668 -58 Q 678 -59 684 -47 Q 696 -16 692 14 Q 689 90 689 160 L 688 192 Z" fill="lightgray" class="hide"/>
    <path d="M 689 295 Q 783 311 853 321 Q 878 325 869 339 Q 857 355 829 360 Q 801 364 690 328 C 661 319 659 290 689 295 Z" fill="lightgray" class="hide"/>
    <path d="M 689 160 Q 693 160 703 160 Q 802 173 875 180 Q 903 184 893 199 Q 881 217 852 223 Q 825 227 688 192 C 659 185 659 160 689 160 Z" fill="lightgray" class="hide"/></g><g transform="scale(1, -1) translate(0, -900)">
    <style type="text/css">
        .origin {display:none;}
        .hide {display:none;}
        .stroke {fill: #000000;}
        
.step1 {transform: translateX(1024px);}
.step2 {transform: translateX(2048px);}
.step3 {transform: translateX(3072px);}
.step4 {transform: translateX(4096px);}
.step5 {transform: translateX(5120px);}
.step6 {transform: translateX(6144px);}
.step7 {transform: translateX(7168px);}
.step8 {transform: translateX(8192px);}
.step9 {transform: translateX(9216px);}
.step10 {transform: translateX(10240px);}
.step11 {transform: translateX(11264px);}
.step12 {transform: translateX(12288px);}
.step13 {transform: translateX(13312px);}
.step14 {transform: translateX(14336px);}
.step15 {transform: translateX(15360px);}
.step16 {transform: translateX(16384px);}
.step17 {transform: translateX(17408px);}
.step18 {transform: translateX(18432px);}
.step19 {transform: translateX(19456px);}
.step20 {transform: translateX(20480px);}
.step21 {transform: translateX(21504px);}
.step22 {transform: translateX(22528px);}
.step23 {transform: translateX(23552px);}
.step24 {transform: translateX(24576px);}
.step25 {transform: translateX(25600px);}
.step26 {transform: translateX(26624px);}
.step27 {transform: translateX(27648px);}
.step28 {transform: translateX(28672px);}
.step29 {transform: translateX(29696px);}
    </style>

    <path d="M 409 716 Q 406 747 404 773 Q 405 792 384 798 Q 345 816 323 808 Q 305 799 321 780 Q 348 747 360 708 L 370 671 Q 382 608 399 591 Q 412 581 417 593 Q 420 608 412 683 L 409 716 Z" fill="lightgray" class="stroke step1"/>
    <path d="M 412 683 Q 434 690 460 696 Q 475 699 492 708 Q 498 712 496 719 Q 495 725 482 728 Q 449 724 409 716 L 360 708 Q 305 701 238 689 Q 195 690 173 687 Q 163 688 160 684 Q 159 677 165 667 Q 178 652 205 641 Q 223 632 239 638 Q 303 654 370 671 L 412 683 Z" fill="lightgray" class="stroke step1"/>
    <path d="M 671 742 Q 681 766 702 795 Q 717 810 707 820 Q 697 838 663 857 Q 647 867 629 860 Q 619 854 625 843 Q 635 810 613 732 L 600 694 Q 573 625 574 606 Q 575 593 589 600 Q 610 615 650 698 L 671 742 Z" fill="lightgray" class="hide"/>
    <path d="M 650 698 Q 714 717 838 710 Q 851 709 855 717 Q 859 727 848 739 Q 806 773 717 751 Q 695 748 671 742 L 613 732 Q 589 731 564 726 Q 539 723 557 710 Q 563 707 600 694 L 650 698 Z" fill="lightgray" class="hide"/>
    <path d="M 253 273 Q 260 312 264 350 L 266 385 Q 266 448 277 498 C 280 516 280 516 265 526 Q 253 536 234 543 Q 218 550 206 546 Q 196 539 203 528 Q 218 501 220 448 Q 220 214 123 36 Q 107 6 103 -4 Q 102 -14 110 -11 Q 141 -4 201 109 Q 208 125 216 142 Q 232 188 246 241 L 253 273 Z" fill="lightgray" class="hide"/>
    <path d="M 277 498 Q 277 499 359 519 Q 374 523 381 515 Q 390 506 390 477 Q 397 245 387 104 Q 386 79 378 68 Q 377 68 318 71 Q 299 77 301 68 Q 347 28 372 -1 Q 384 -17 398 -22 Q 405 -26 414 -17 Q 450 29 448 77 Q 427 459 450 503 Q 462 521 451 530 Q 391 578 350 551 Q 319 536 265 526 C 236 520 248 490 277 498 Z" fill="lightgray" class="hide"/>
    <path d="M 264 350 Q 313 360 350 368 Q 371 374 362 385 Q 350 398 326 399 Q 304 400 266 385 C 238 374 235 344 264 350 Z" fill="lightgray" class="hide"/>
    <path d="M 246 241 Q 306 250 348 256 Q 370 260 361 273 Q 351 286 327 289 Q 290 292 253 273 C 226 260 216 237 246 241 Z" fill="lightgray" class="hide"/>
    <path d="M 595 446 Q 605 462 616 481 Q 629 506 642 520 Q 649 529 644 540 Q 640 550 616 567 Q 594 580 577 580 Q 562 577 570 559 Q 580 543 575 528 Q 550 444 476 330 Q 469 320 467 316 Q 464 306 476 309 Q 497 318 575 416 L 595 446 Z" fill="lightgray" class="hide"/>
    <path d="M 664 422 Q 730 440 873 463 Q 886 464 887 472 Q 887 484 865 498 Q 820 517 776 495 Q 722 477 680 466 Q 637 459 595 446 C 566 437 545 421 575 416 Q 587 413 620 414 Q 624 415 629 416 L 664 422 Z" fill="lightgray" class="hide"/>
    <path d="M 688 192 Q 688 243 689 295 L 690 328 Q 691 365 695 385 Q 696 398 690 403 Q 677 415 664 422 C 639 438 618 444 629 416 Q 656 365 632 100 Q 631 94 630 87 Q 629 62 624 50 Q 615 17 649 -36 Q 659 -54 668 -58 Q 678 -59 684 -47 Q 696 -16 692 14 Q 689 90 689 160 L 688 192 Z" fill="lightgray" class="hide"/>
    <path d="M 689 295 Q 783 311 853 321 Q 878 325 869 339 Q 857 355 829 360 Q 801 364 690 328 C 661 319 659 290 689 295 Z" fill="lightgray" class="hide"/>
    <path d="M 689 160 Q 693 160 703 160 Q 802 173 875 180 Q 903 184 893 199 Q 881 217 852 223 Q 825 227 688 192 C 659 185 659 160 689 160 Z" fill="lightgray" class="hide"/></g><g transform="scale(1, -1) translate(0, -900)">
    <style type="text/css">
        .origin {display:none;}
        .hide {display:none;}
        .stroke {fill: #000000;}
        
.step1 {transform: translateX(1024px);}
.step2 {transform: translateX(2048px);}
.step3 {transform: translateX(3072px);}
.step4 {transform: translateX(4096px);}
.step5 {transform: translateX(5120px);}
.step6 {transform: translateX(6144px);}
.step7 {transform: translateX(7168px);}
.step8 {transform: translateX(8192px);}
.step9 {transform: translateX(9216px);}
.step10 {transform: translateX(10240px);}
.step11 {transform: translateX(11264px);}
.step12 {transform: translateX(12288px);}
.step13 {transform: translateX(13312px);}
.step14 {transform: translateX(14336px);}
.step15 {transform: translateX(15360px);}
.step16 {transform: translateX(16384px);}
.step17 {transform: translateX(17408px);}
.step18 {transform: translateX(18432px);}
.step19 {transform: translateX(19456px);}
.step20 {transform: translateX(20480px);}
.step21 {transform: translateX(21504px);}
.step22 {transform: translateX(22528px);}
.step23 {transform: translateX(23552px);}
.step24 {transform: translateX(24576px);}
.step25 {transform: translateX(25600px);}
.step26 {transform: translateX(26624px);}
.step27 {transform: translateX(27648px);}
.step28 {transform: translateX(28672px);}
.step29 {transform: translateX(29696px);}
    </style>

    <path d="M 409 716 Q 406 747 404 773 Q 405 792 384 798 Q 345 816 323 808 Q 305 799 321 780 Q 348 747 360 708 L 370 671 Q 382 608 399 591 Q 412 581 417 593 Q 420 608 412 683 L 409 716 Z" fill="lightgray" class="stroke step2"/>
    <path d="M 412 683 Q 434 690 460 696 Q 475 699 492 708 Q 498 712 496 719 Q 495 725 482 728 Q 449 724 409 716 L 360 708 Q 305 701 238 689 Q 195 690 173 687 Q 163 688 160 684 Q 159 677 165 667 Q 178 652 205 641 Q 223 632 239 638 Q 303 654 370 671 L 412 683 Z" fill="lightgray" class="stroke step2"/>
    <path d="M 671 742 Q 681 766 702 795 Q 717 810 707 820 Q 697 838 663 857 Q 647 867 629 860 Q 619 854 625 843 Q 635 810 613 732 L 600 694 Q 573 625 574 606 Q 575 593 589 600 Q 610 615 650 698 L 671 742 Z" fill="lightgray" class="stroke step2"/>
    <path d="M 650 698 Q 714 717 838 710 Q 851 709 855 717 Q 859 727 848 739 Q 806 773 717 751 Q 695 748 671 742 L 613 732 Q 589 731 564 726 Q 539 723 557 710 Q 563 707 600 694 L 650 698 Z" fill="lightgray" class="hide"/>
    <path d="M 253 273 Q 260 312 264 350 L 266 385 Q 266 448 277 498 C 280 516 280 516 265 526 Q 253 536 234 543 Q 218 550 206 546 Q 196 539 203 528 Q 218 501 220 448 Q 220 214 123 36 Q 107 6 103 -4 Q 102 -14 110 -11 Q 141 -4 201 109 Q 208 125 216 142 Q 232 188 246 241 L 253 273 Z" fill="lightgray" class="hide"/>
    <path d="M 277 498 Q 277 499 359 519 Q 374 523 381 515 Q 390 506 390 477 Q 397 245 387 104 Q 386 79 378 68 Q 377 68 318 71 Q 299 77 301 68 Q 347 28 372 -1 Q 384 -17 398 -22 Q 405 -26 414 -17 Q 450 29 448 77 Q 427 459 450 503 Q 462 521 451 530 Q 391 578 350 551 Q 319 536 265 526 C 236 520 248 490 277 498 Z" fill="lightgray" class="hide"/>
    <path d="M 264 350 Q 313 360 350 368 Q 371 374 362 385 Q 350 398 326 399 Q 304 400 266 385 C 238 374 235 344 264 350 Z" fill="lightgray" class="hide"/>
    <path d="M 246 241 Q 306 250 348 256 Q 370 260 361 273 Q 351 286 327 289 Q 290 292 253 273 C 226 260 216 237 246 241 Z" fill="lightgray" class="hide"/>
    <path d="M 595 446 Q 605 462 616 481 Q 629 506 642 520 Q 649 529 644 540 Q 640 550 616 567 Q 594 580 577 580 Q 562 577 570 559 Q 580 543 575 528 Q 550 444 476 330 Q 469 320 467 316 Q 464 306 476 309 Q 497 318 575 416 L 595 446 Z" fill="lightgray" class="hide"/>
    <path d="M 664 422 Q 730 440 873 463 Q 886 464 887 472 Q 887 484 865 498 Q 820 517 776 495 Q 722 477 680 466 Q 637 459 595 446 C 566 437 545 421 575 416 Q 587 413 620 414 Q 624 415 629 416 L 664 422 Z" fill="lightgray" class="hide"/>
    <path d="M 688 192 Q 688 243 689 295 L 690 328 Q 691 365 695 385 Q 696 398 690 403 Q 677 415 664 422 C 639 438 618 444 629 416 Q 656 365 632 100 Q 631 94 630 87 Q 629 62 624 50 Q 615 17 649 -36 Q 659 -54 668 -58 Q 678 -59 684 -47 Q 696 -16 692 14 Q 689 90 689 160 L 688 192 Z" fill="lightgray" class="hide"/>
    <path d="M 689 295 Q 783 311 853 321 Q 878 325 869 339 Q 857 355 829 360 Q 801 364 690 328 C 661 319 659 290 689 295 Z" fill="lightgray" class="hide"/>
    <path d="M 689 160 Q 693 160 703 160 Q 802 173 875 180 Q 903 184 893 199 Q 881 217 852 223 Q 825 227 688 192 C 659 185 659 160 689 160 Z" fill="lightgray" class="hide"/></g><g transform="scale(1, -1) translate(0, -900)">
    <style type="text/css">
        .origin {display:none;}
        .hide {display:none;}
        .stroke {fill: #000000;}
        
.step1 {transform: translateX(1024px);}
.step2 {transform: translateX(2048px);}
.step3 {transform: translateX(3072px);}
.step4 {transform: translateX(4096px);}
.step5 {transform: translateX(5120px);}
.step6 {transform: translateX(6144px);}
.step7 {transform: translateX(7168px);}
.step8 {transform: translateX(8192px);}
.step9 {transform: translateX(9216px);}
.step10 {transform: translateX(10240px);}
.step11 {transform: translateX(11264px);}
.step12 {transform: translateX(12288px);}
.step13 {transform: translateX(13312px);}
.step14 {transform: translateX(14336px);}
.step15 {transform: translateX(15360px);}
.step16 {transform: translateX(16384px);}
.step17 {transform: translateX(17408px);}
.step18 {transform: translateX(18432px);}
.step19 {transform: translateX(19456px);}
.step20 {transform: translateX(20480px);}
.step21 {transform: translateX(21504px);}
.step22 {transform: translateX(22528px);}
.step23 {transform: translateX(23552px);}
.step24 {transform: translateX(24576px);}
.step25 {transform: translateX(25600px);}
.step26 {transform: translateX(26624px);}
.step27 {transform: translateX(27648px);}
.step28 {transform: translateX(28672px);}
.step29 {transform: translateX(29696px);}
    </style>

    <path d="M 409 716 Q 406 747 404 773 Q 405 792 384 798 Q 345 816 323 808 Q 305 799 321 780 Q 348 747 360 708 L 370 671 Q 382 608 399 591 Q 412 581 417 593 Q 420 608 412 683 L 409 716 Z" fill="lightgray" class="stroke step3"/>
    <path d="M 412 683 Q 434 690 460 696 Q 475 699 492 708 Q 498 712 496 719 Q 495 725 482 728 Q 449 724 409 716 L 360 708 Q 305 701 238 689 Q 195 690 173 687 Q 163 688 160 684 Q 159 677 165 667 Q 178 652 205 641 Q 223 632 239 638 Q 303 654 370 671 L 412 683 Z" fill="lightgray" class="stroke step3"/>
    <path d="M 671 742 Q 681 766 702 795 Q 717 810 707 820 Q 697 838 663 857 Q 647 867 629 860 Q 619 854 625 843 Q 635 810 613 732 L 600 694 Q 573 625 574 606 Q 575 593 589 600 Q 610 615 650 698 L 671 742 Z" fill="lightgray" class="stroke step3"/>
    <path d="M 650 698 Q 714 717 838 710 Q 851 709 855 717 Q 859 727 848 739 Q 806 773 717 751 Q 695 748 671 742 L 613 732 Q 589 731 564 726 Q 539 723 557 710 Q 563 707 600 694 L 650 698 Z" fill="lightgray" class="stroke step3"/>
    <path d="M 253 273 Q 260 312 264 350 L 266 385 Q 266 448 277 498 C 280 516 280 516 265 526 Q 253 536 234 543 Q 218 550 206 546 Q 196 539 203 528 Q 218 501 220 448 Q 220 214 123 36 Q 107 6 103 -4 Q 102 -14 110 -11 Q 141 -4 201 109 Q 208 125 216 142 Q 232 188 246 241 L 253 273 Z" fill="lightgray" class="hide"/>
    <path d="M 277 498 Q 277 499 359 519 Q 374 523 381 515 Q 390 506 390 477 Q 397 245 387 104 Q 386 79 378 68 Q 377 68 318 71 Q 299 77 301 68 Q 347 28 372 -1 Q 384 -17 398 -22 Q 405 -26 414 -17 Q 450 29 448 77 Q 427 459 450 503 Q 462 521 451 530 Q 391 578 350 551 Q 319 536 265 526 C 236 520 248 490 277 498 Z" fill="lightgray" class="hide"/>
    <path d="M 264 350 Q 313 360 350 368 Q 371 374 362 385 Q 350 398 326 399 Q 304 400 266 385 C 238 374 235 344 264 350 Z" fill="lightgray" class="hide"/>
    <path d="M 246 241 Q 306 250 348 256 Q 370 260 361 273 Q 351 286 327 289 Q 290 292 253 273 C 226 260 216 237 246 241 Z" fill="lightgray" class="hide"/>
    <path d="M 595 446 Q 605 462 616 481 Q 629 506 642 520 Q 649 529 644 540 Q 640 550 616 567 Q 594 580 577 580 Q 562 577 570 559 Q 580 543 575 528 Q 550 444 476 330 Q 469 320 467 316 Q 464 306 476 309 Q 497 318 575 416 L 595 446 Z" fill="lightgray" class="hide"/>
    <path d="M 664 422 Q 730 440 873 463 Q 886 464 887 472 Q 887 484 865 498 Q 820 517 776 495 Q 722 477 680 466 Q 637 459 595 446 C 566 437 545 421 575 416 Q 587 413 620 414 Q 624 415 629 416 L 664 422 Z" fill="lightgray" class="hide"/>
    <path d="M 688 192 Q 688 243 689 295 L 690 328 Q 691 365 695 385 Q 696 398 690 403 Q 677 415 664 422 C 639 438 618 444 629 416 Q 656 365 632 100 Q 631 94 630 87 Q 629 62 624 50 Q 615 17 649 -36 Q 659 -54 668 -58 Q 678 -59 684 -47 Q 696 -16 692 14 Q 689 90 689 160 L 688 192 Z" fill="lightgray" class="hide"/>
    <path d="M 689 295 Q 783 311 853 321 Q 878 325 869 339 Q 857 355 829 360 Q 801 364 690 328 C 661 319 659 290 689 295 Z" fill="lightgray" class="hide"/>
    <path d="M 689 160 Q 693 160 703 160 Q 802 173 875 180 Q 903 184 893 199 Q 881 217 852 223 Q 825 227 688 192 C 659 185 659 160 689 160 Z" fill="lightgray" class="hide"/></g><g transform="scale(1, -1) translate(0, -900)">
    <style type="text/css">
        .origin {display:none;}
        .hide {display:none;}
        .stroke {fill: #000000;}
        
.step1 {transform: translateX(1024px);}
.step2 {transform: translateX(2048px);}
.step3 {transform: translateX(3072px);}
.step4 {transform: translateX(4096px);}
.step5 {transform: translateX(5120px);}
.step6 {transform: translateX(6144px);}
.step7 {transform: translateX(7168px);}
.step8 {transform: translateX(8192px);}
.step9 {transform: translateX(9216px);}
.step10 {transform: translateX(10240px);}
.step11 {transform: translateX(11264px);}
.step12 {transform: translateX(12288px);}
.step13 {transform: translateX(13312px);}
.step14 {transform: translateX(14336px);}
.step15 {transform: translateX(15360px);}
.step16 {transform: translateX(16384px);}
.step17 {transform: translateX(17408px);}
.step18 {transform: translateX(18432px);}
.step19 {transform: translateX(19456px);}
.step20 {transform: translateX(20480px);}
.step21 {transform: translateX(21504px);}
.step22 {transform: translateX(22528px);}
.step23 {transform: translateX(23552px);}
.step24 {transform: translateX(24576px);}
.step25 {transform: translateX(25600px);}
.step26 {transform: translateX(26624px);}
.step27 {transform: translateX(27648px);}
.step28 {transform: translateX(28672px);}
.step29 {transform: translateX(29696px);}
    </style>

    <path d="M 409 716 Q 406 747 404 773 Q 405 792 384 798 Q 345 816 323 808 Q 305 799 321 780 Q 348 747 360 708 L 370 671 Q 382 608 399 591 Q 412 581 417 593 Q 420 608 412 683 L 409 716 Z" fill="lightgray" class="stroke step4"/>
    <path d="M 412 683 Q 434 690 460 696 Q 475 699 492 708 Q 498 712 496 719 Q 495 725 482 728 Q 449 724 409 716 L 360 708 Q 305 701 238 689 Q 195 690 173 687 Q 163 688 160 684 Q 159 677 165 667 Q 178 652 205 641 Q 223 632 239 638 Q 303 654 370 671 L 412 683 Z" fill="lightgray" class="stroke step4"/>
    <path d="M 671 742 Q 681 766 702 795 Q 717 810 707 820 Q 697 838 663 857 Q 647 867 629 860 Q 619 854 625 843 Q 635 810 613 732 L 600 694 Q 573 625 574 606 Q 575 593 589 600 Q 610 615 650 698 L 671 742 Z" fill="lightgray" class="stroke step4"/>
    <path d="M 650 698 Q 714 717 838 710 Q 851 709 855 717 Q 859 727 848 739 Q 806 773 717 751 Q 695 748 671 742 L 613 732 Q 589 731 564 726 Q 539 723 557 710 Q 563 707 600 694 L 650 698 Z" fill="lightgray" class="stroke step4"/>
    <path d="M 253 273 Q 260 312 264 350 L 266 385 Q 266 448 277 498 C 280 516 280 516 265 526 Q 253 536 234 543 Q 218 550 206 546 Q 196 539 203 528 Q 218 501 220 448 Q 220 214 123 36 Q 107 6 103 -4 Q 102 -14 110 -11 Q 141 -4 201 109 Q 208 125 216 142 Q 232 188 246 241 L 253 273 Z" fill="lightgray" class="stroke step4"/>
    <path d="M 277 498 Q 277 499 359 519 Q 374 523 381 515 Q 390 506 390 477 Q 397 245 387 104 Q 386 79 378 68 Q 377 68 318 71 Q 299 77 301 68 Q 347 28 372 -1 Q 384 -17 398 -22 Q 405 -26 414 -17 Q 450 29 448 77 Q 427 459 450 503 Q 462 521 451 530 Q 391 578 350 551 Q 319 536 265 526 C 236 520 248 490 277 498 Z" fill="lightgray" class="hide"/>
    <path d="M 264 350 Q 313 360 350 368 Q 371 374 362 385 Q 350 398 326 399 Q 304 400 266 385 C 238 374 235 344 264 350 Z" fill="lightgray" class="hide"/>
    <path d="M 246 241 Q 306 250 348 256 Q 370 260 361 273 Q 351 286 327 289 Q 290 292 253 273 C 226 260 216 237 246 241 Z" fill="lightgray" class="hide"/>
    <path d="M 595 446 Q 605 462 616 481 Q 629 506 642 520 Q 649 529 644 540 Q 640 550 616 567 Q 594 580 577 580 Q 562 577 570 559 Q 580 543 575 528 Q 550 444 476 330 Q 469 320 467 316 Q 464 306 476 309 Q 497 318 575 416 L 595 446 Z" fill="lightgray" class="hide"/>
    <path d="M 664 422 Q 730 440 873 463 Q 886 464 887 472 Q 887 484 865 498 Q 820 517 776 495 Q 722 477 680 466 Q 637 459 595 446 C 566 437 545 421 575 416 Q 587 413 620 414 Q 624 415 629 416 L 664 422 Z" fill="lightgray" class="hide"/>
    <path d="M 688 192 Q 688 243 689 295 L 690 328 Q 691 365 695 385 Q 696 398 690 403 Q 677 415 664 422 C 639 438 618 444 629 416 Q 656 365 632 100 Q 631 94 630 87 Q 629 62 624 50 Q 615 17 649 -36 Q 659 -54 668 -58 Q 678 -59 684 -47 Q 696 -16 692 14 Q 689 90 689 160 L 688 192 Z" fill="lightgray" class="hide"/>
    <path d="M 689 295 Q 783 311 853 321 Q 878 325 869 339 Q 857 355 829 360 Q 801 364 690 328 C 661 319 659 290 689 295 Z" fill="lightgray" class="hide"/>
    <path d="M 689 160 Q 693 160 703 160 Q 802 173 875 180 Q 903 184 893 199 Q 881 217 852 223 Q 825 227 688 192 C 659 185 659 160 689 160 Z" fill="lightgray" class="hide"/></g><g transform="scale(1, -1) translate(0, -900)">
    <style type="text/css">
        .origin {display:none;}
        .hide {display:none;}
        .stroke {fill: #000000;}
        
.step1 {transform: translateX(1024px);}
.step2 {transform: translateX(2048px);}
.step3 {transform: translateX(3072px);}
.step4 {transform: translateX(4096px);}
.step5 {transform: translateX(5120px);}
.step6 {transform: translateX(6144px);}
.step7 {transform: translateX(7168px);}
.step8 {transform: translateX(8192px);}
.step9 {transform: translateX(9216px);}
.step10 {transform: translateX(10240px);}
.step11 {transform: translateX(11264px);}
.step12 {transform: translateX(12288px);}
.step13 {transform: translateX(13312px);}
.step14 {transform: translateX(14336px);}
.step15 {transform: translateX(15360px);}
.step16 {transform: translateX(16384px);}
.step17 {transform: translateX(17408px);}
.step18 {transform: translateX(18432px);}
.step19 {transform: translateX(19456px);}
.step20 {transform: translateX(20480px);}
.step21 {transform: translateX(21504px);}
.step22 {transform: translateX(22528px);}
.step23 {transform: translateX(23552px);}
.step24 {transform: translateX(24576px);}
.step25 {transform: translateX(25600px);}
.step26 {transform: translateX(26624px);}
.step27 {transform: translateX(27648px);}
.step28 {transform: translateX(28672px);}
.step29 {transform: translateX(29696px);}
    </style>

    <path d="M 409 716 Q 406 747 404 773 Q 405 792 384 798 Q 345 816 323 808 Q 305 799 321 780 Q 348 747 360 708 L 370 671 Q 382 608 399 591 Q 412 581 417 593 Q 420 608 412 683 L 409 716 Z" fill="lightgray" class="stroke step5"/>
    <path d="M 412 683 Q 434 690 460 696 Q 475 699 492 708 Q 498 712 496 719 Q 495 725 482 728 Q 449 724 409 716 L 360 708 Q 305 701 238 689 Q 195 690 173 687 Q 163 688 160 684 Q 159 677 165 667 Q 178 652 205 641 Q 223 632 239 638 Q 303 654 370 671 L 412 683 Z" fill="lightgray" class="stroke step5"/>
    <path d="M 671 742 Q 681 766 702 795 Q 717 810 707 820 Q 697 838 663 857 Q 647 867 629 860 Q 619 854 625 843 Q 635 810 613 732 L 600 694 Q 573 625 574 606 Q 575 593 589 600 Q 610 615 650 698 L 671 742 Z" fill="lightgray" class="stroke step5"/>
    <path d="M 650 698 Q 714 717 838 710 Q 851 709 855 717 Q 859 727 848 739 Q 806 773 717 751 Q 695 748 671 742 L 613 732 Q 589 731 564 726 Q 539 723 557 710 Q 563 707 600 694 L 650 698 Z" fill="lightgray" class="stroke step5"/>
    <path d="M 253 273 Q 260 312 264 350 L 266 385 Q 266 448 277 498 C 280 516 280 516 265 526 Q 253 536 234 543 Q 218 550 206 546 Q 196 539 203 528 Q 218 501 220 448 Q 220 214 123 36 Q 107 6 103 -4 Q 102 -14 110 -11 Q 141 -4 201 109 Q 208 125 216 142 Q 232 188 246 241 L 253 273 Z" fill="lightgray" class="stroke step5"/>
    <path d="M 277 498 Q 277 499 359 519 Q 374 523 381 515 Q 390 506 390 477 Q 397 245 387 104 Q 386 79 378 68 Q 377 68 318 71 Q 299 77 301 68 Q 347 28 372 -1 Q 384 -17 398 -22 Q 405 -26 414 -17 Q 450 29 448 77 Q 427 459 450 503 Q 462 521 451 530 Q 391 578 350 551 Q 319 536 265 526 C 236 520 248 490 277 498 Z" fill="lightgray" class="stroke step5"/>
    <path d="M 264 350 Q 313 360 350 368 Q 371 374 362 385 Q 350 398 326 399 Q 304 400 266 385 C 238 374 235 344 264 350 Z" fill="lightgray" class="hide"/>
    <path d="M 246 241 Q 306 250 348 256 Q 370 260 361 273 Q 351 286 327 289 Q 290 292 253 273 C 226 260 216 237 246 241 Z" fill="lightgray" class="hide"/>
    <path d="M 595 446 Q 605 462 616 481 Q 629 506 642 520 Q 649 529 644 540 Q 640 550 616 567 Q 594 580 577 580 Q 562 577 570 559 Q 580 543 575 528 Q 550 444 476 330 Q 469 320 467 316 Q 464 306 476 309 Q 497 318 575 416 L 595 446 Z" fill="lightgray" class="hide"/>
    <path d="M 664 422 Q 730 440 873 463 Q 886 464 887 472 Q 887 484 865 498 Q 820 517 776 495 Q 722 477 680 466 Q 637 459 595 446 C 566 437 545 421 575 416 Q 587 413 620 414 Q 624 415 629 416 L 664 422 Z" fill="lightgray" class="hide"/>
    <path d="M 688 192 Q 688 243 689 295 L 690 328 Q 691 365 695 385 Q 696 398 690 403 Q 677 415 664 422 C 639 438 618 444 629 416 Q 656 365 632 100 Q 631 94 630 87 Q 629 62 624 50 Q 615 17 649 -36 Q 659 -54 668 -58 Q 678 -59 684 -47 Q 696 -16 692 14 Q 689 90 689 160 L 688 192 Z" fill="lightgray" class="hide"/>
    <path d="M 689 295 Q 783 311 853 321 Q 878 325 869 339 Q 857 355 829 360 Q 801 364 690 328 C 661 319 659 290 689 295 Z" fill="lightgray" class="hide"/>
    <path d="M 689 160 Q 693 160 703 160 Q 802 173 875 180 Q 903 184 893 199 Q 881 217 852 223 Q 825 227 688 192 C 659 185 659 160 689 160 Z" fill="lightgray" class="hide"/></g><g transform="scale(1, -1) translate(0, -900)">
    <style type="text/css">
        .origin {display:none;}
        .hide {display:none;}
        .stroke {fill: #000000;}
        
.step1 {transform: translateX(1024px);}
.step2 {transform: translateX(2048px);}
.step3 {transform: translateX(3072px);}
.step4 {transform: translateX(4096px);}
.step5 {transform: translateX(5120px);}
.step6 {transform: translateX(6144px);}
.step7 {transform: translateX(7168px);}
.step8 {transform: translateX(8192px);}
.step9 {transform: translateX(9216px);}
.step10 {transform: translateX(10240px);}
.step11 {transform: translateX(11264px);}
.step12 {transform: translateX(12288px);}
.step13 {transform: translateX(13312px);}
.step14 {transform: translateX(14336px);}
.step15 {transform: translateX(15360px);}
.step16 {transform: translateX(16384px);}
.step17 {transform: translateX(17408px);}
.step18 {transform: translateX(18432px);}
.step19 {transform: translateX(19456px);}
.step20 {transform: translateX(20480px);}
.step21 {transform: translateX(21504px);}
.step22 {transform: translateX(22528px);}
.step23 {transform: translateX(23552px);}
.step24 {transform: translateX(24576px);}
.step25 {transform: translateX(25600px);}
.step26 {transform: translateX(26624px);}
.step27 {transform: translateX(27648px);}
.step28 {transform: translateX(28672px);}
.step29 {transform: translateX(29696px);}
    </style>

    <path d="M 409 716 Q 406 747 404 773 Q 405 792 384 798 Q 345 816 323 808 Q 305 799 321 780 Q 348 747 360 708 L 370 671 Q 382 608 399 591 Q 412 581 417 593 Q 420 608 412 683 L 409 716 Z" fill="lightgray" class="stroke step6"/>
    <path d="M 412 683 Q 434 690 460 696 Q 475 699 492 708 Q 498 712 496 719 Q 495 725 482 728 Q 449 724 409 716 L 360 708 Q 305 701 238 689 Q 195 690 173 687 Q 163 688 160 684 Q 159 677 165 667 Q 178 652 205 641 Q 223 632 239 638 Q 303 654 370 671 L 412 683 Z" fill="lightgray" class="stroke step6"/>
    <path d="M 671 742 Q 681 766 702 795 Q 717 810 707 820 Q 697 838 663 857 Q 647 867 629 860 Q 619 854 625 843 Q 635 810 613 732 L 600 694 Q 573 625 574 606 Q 575 593 589 600 Q 610 615 650 698 L 671 742 Z" fill="lightgray" class="stroke step6"/>
    <path d="M 650 698 Q 714 717 838 710 Q 851 709 855 717 Q 859 727 848 739 Q 806 773 717 751 Q 695 748 671 742 L 613 732 Q 589 731 564 726 Q 539 723 557 710 Q 563 707 600 694 L 650 698 Z" fill="lightgray" class="stroke step6"/>
    <path d="M 253 273 Q 260 312 264 350 L 266 385 Q 266 448 277 498 C 280 516 280 516 265 526 Q 253 536 234 543 Q 218 550 206 546 Q 196 539 203 528 Q 218 501 220 448 Q 220 214 123 36 Q 107 6 103 -4 Q 102 -14 110 -11 Q 141 -4 201 109 Q 208 125 216 142 Q 232 188 246 241 L 253 273 Z" fill="lightgray" class="stroke step6"/>
    <path d="M 277 498 Q 277 499 359 519 Q 374 523 381 515 Q 390 506 390 477 Q 397 245 387 104 Q 386 79 378 68 Q 377 68 318 71 Q 299 77 301 68 Q 347 28 372 -1 Q 384 -17 398 -22 Q 405 -26 414 -17 Q 450 29 448 77 Q 427 459 450 503 Q 462 521 451 530 Q 391 578 350 551 Q 319 536 265 526 C 236 520 248 490 277 498 Z" fill="lightgray" class="stroke step6"/>
    <path d="M 264 350 Q 313 360 350 368 Q 371 374 362 385 Q 350 398 326 399 Q 304 400 266 385 C 238 374 235 344 264 350 Z" fill="lightgray" class="stroke step6"/>
    <path d="M 246 241 Q 306 250 348 256 Q 370 260 361 273 Q 351 286 327 289 Q 290 292 253 273 C 226 260 216 237 246 241 Z" fill="lightgray" class="hide"/>
    <path d="M 595 446 Q 605 462 616 481 Q 629 506 642 520 Q 649 529 644 540 Q 640 550 616 567 Q 594 580 577 580 Q 562 577 570 559 Q 580 543 575 528 Q 550 444 476 330 Q 469 320 467 316 Q 464 306 476 309 Q 497 318 575 416 L 595 446 Z" fill="lightgray" class="hide"/>
    <path d="M 664 422 Q 730 440 873 463 Q 886 464 887 472 Q 887 484 865 498 Q 820 517 776 495 Q 722 477 680 466 Q 637 459 595 446 C 566 437 545 421 575 416 Q 587 413 620 414 Q 624 415 629 416 L 664 422 Z" fill="lightgray" class="hide"/>
    <path d="M 688 192 Q 688 243 689 295 L 690 328 Q 691 365 695 385 Q 696 398 690 403 Q 677 415 664 422 C 639 438 618 444 629 416 Q 656 365 632 100 Q 631 94 630 87 Q 629 62 624 50 Q 615 17 649 -36 Q 659 -54 668 -58 Q 678 -59 684 -47 Q 696 -16 692 14 Q 689 90 689 160 L 688 192 Z" fill="lightgray" class="hide"/>
    <path d="M 689 295 Q 783 311 853 321 Q 878 325 869 339 Q 857 355 829 360 Q 801 364 690 328 C 661 319 659 290 689 295 Z" fill="lightgray" class="hide"/>
    <path d="M 689 160 Q 693 160 703 160 Q 802 173 875 180 Q 903 184 893 199 Q 881 217 852 223 Q 825 227 688 192 C 659 185 659 160 689 160 Z" fill="lightgray" class="hide"/></g><g transform="scale(1, -1) translate(0, -900)">
    <style type="text/css">
        .origin {display:none;}
        .hide {display:none;}
        .stroke {fill: #000000;}
        
.step1 {transform: translateX(1024px);}
.step2 {transform: translateX(2048px);}
.step3 {transform: translateX(3072px);}
.step4 {transform: translateX(4096px);}
.step5 {transform: translateX(5120px);}
.step6 {transform: translateX(6144px);}
.step7 {transform: translateX(7168px);}
.step8 {transform: translateX(8192px);}
.step9 {transform: translateX(9216px);}
.step10 {transform: translateX(10240px);}
.step11 {transform: translateX(11264px);}
.step12 {transform: translateX(12288px);}
.step13 {transform: translateX(13312px);}
.step14 {transform: translateX(14336px);}
.step15 {transform: translateX(15360px);}
.step16 {transform: translateX(16384px);}
.step17 {transform: translateX(17408px);}
.step18 {transform: translateX(18432px);}
.step19 {transform: translateX(19456px);}
.step20 {transform: translateX(20480px);}
.step21 {transform: translateX(21504px);}
.step22 {transform: translateX(22528px);}
.step23 {transform: translateX(23552px);}
.step24 {transform: translateX(24576px);}
.step25 {transform: translateX(25600px);}
.step26 {transform: translateX(26624px);}
.step27 {transform: translateX(27648px);}
.step28 {transform: translateX(28672px);}
.step29 {transform: translateX(29696px);}
    </style>

    <path d="M 409 716 Q 406 747 404 773 Q 405 792 384 798 Q 345 816 323 808 Q 305 799 321 780 Q 348 747 360 708 L 370 671 Q 382 608 399 591 Q 412 581 417 593 Q 420 608 412 683 L 409 716 Z" fill="lightgray" class="stroke step7"/>
    <path d="M 412 683 Q 434 690 460 696 Q 475 699 492 708 Q 498 712 496 719 Q 495 725 482 728 Q 449 724 409 716 L 360 708 Q 305 701 238 689 Q 195 690 173 687 Q 163 688 160 684 Q 159 677 165 667 Q 178 652 205 641 Q 223 632 239 638 Q 303 654 370 671 L 412 683 Z" fill="lightgray" class="stroke step7"/>
    <path d="M 671 742 Q 681 766 702 795 Q 717 810 707 820 Q 697 838 663 857 Q 647 867 629 860 Q 619 854 625 843 Q 635 810 613 732 L 600 694 Q 573 625 574 606 Q 575 593 589 600 Q 610 615 650 698 L 671 742 Z" fill="lightgray" class="stroke step7"/>
    <path d="M 650 698 Q 714 717 838 710 Q 851 709 855 717 Q 859 727 848 739 Q 806 773 717 751 Q 695 748 671 742 L 613 732 Q 589 731 564 726 Q 539 723 557 710 Q 563 707 600 694 L 650 698 Z" fill="lightgray" class="stroke step7"/>
    <path d="M 253 273 Q 260 312 264 350 L 266 385 Q 266 448 277 498 C 280 516 280 516 265 526 Q 253 536 234 543 Q 218 550 206 546 Q 196 539 203 528 Q 218 501 220 448 Q 220 214 123 36 Q 107 6 103 -4 Q 102 -14 110 -11 Q 141 -4 201 109 Q 208 125 216 142 Q 232 188 246 241 L 253 273 Z" fill="lightgray" class="stroke step7"/>
    <path d="M 277 498 Q 277 499 359 519 Q 374 523 381 515 Q 390 506 390 477 Q 397 245 387 104 Q 386 79 378 68 Q 377 68 318 71 Q 299 77 301 68 Q 347 28 372 -1 Q 384 -17 398 -22 Q 405 -26 414 -17 Q 450 29 448 77 Q 427 459 450 503 Q 462 521 451 530 Q 391 578 350 551 Q 319 536 265 526 C 236 520 248 490 277 498 Z" fill="lightgray" class="stroke step7"/>
    <path d="M 264 350 Q 313 360 350 368 Q 371 374 362 385 Q 350 398 326 399 Q 304 400 266 385 C 238 374 235 344 264 350 Z" fill="lightgray" class="stroke step7"/>
    <path d="M 246 241 Q 306 250 348 256 Q 370 260 361 273 Q 351 286 327 289 Q 290 292 253 273 C 226 260 216 237 246 241 Z" fill="lightgray" class="stroke step7"/>
    <path d="M 595 446 Q 605 462 616 481 Q 629 506 642 520 Q 649 529 644 540 Q 640 550 616 567 Q 594 580 577 580 Q 562 577 570 559 Q 580 543 575 528 Q 550 444 476 330 Q 469 320 467 316 Q 464 306 476 309 Q 497 318 575 416 L 595 446 Z" fill="lightgray" class="hide"/>
    <path d="M 664 422 Q 730 440 873 463 Q 886 464 887 472 Q 887 484 865 498 Q 820 517 776 495 Q 722 477 680 466 Q 637 459 595 446 C 566 437 545 421 575 416 Q 587 413 620 414 Q 624 415 629 416 L 664 422 Z" fill="lightgray" class="hide"/>
    <path d="M 688 192 Q 688 243 689 295 L 690 328 Q 691 365 695 385 Q 696 398 690 403 Q 677 415 664 422 C 639 438 618 444 629 416 Q 656 365 632 100 Q 631 94 630 87 Q 629 62 624 50 Q 615 17 649 -36 Q 659 -54 668 -58 Q 678 -59 684 -47 Q 696 -16 692 14 Q 689 90 689 160 L 688 192 Z" fill="lightgray" class="hide"/>
    <path d="M 689 295 Q 783 311 853 321 Q 878 325 869 339 Q 857 355 829 360 Q 801 364 690 328 C 661 319 659 290 689 295 Z" fill="lightgray" class="hide"/>
    <path d="M 689 160 Q 693 160 703 160 Q 802 173 875 180 Q 903 184 893 199 Q 881 217 852 223 Q 825 227 688 192 C 659 185 659 160 689 160 Z" fill="lightgray" class="hide"/></g><g transform="scale(1, -1) translate(0, -900)">
    <style type="text/css">
        .origin {display:none;}
        .hide {display:none;}
        .stroke {fill: #000000;}
        
.step1 {transform: translateX(1024px);}
.step2 {transform: translateX(2048px);}
.step3 {transform: translateX(3072px);}
.step4 {transform: translateX(4096px);}
.step5 {transform: translateX(5120px);}
.step6 {transform: translateX(6144px);}
.step7 {transform: translateX(7168px);}
.step8 {transform: translateX(8192px);}
.step9 {transform: translateX(9216px);}
.step10 {transform: translateX(10240px);}
.step11 {transform: translateX(11264px);}
.step12 {transform: translateX(12288px);}
.step13 {transform: translateX(13312px);}
.step14 {transform: translateX(14336px);}
.step15 {transform: translateX(15360px);}
.step16 {transform: translateX(16384px);}
.step17 {transform: translateX(17408px);}
.step18 {transform: translateX(18432px);}
.step19 {transform: translateX(19456px);}
.step20 {transform: translateX(20480px);}
.step21 {transform: translateX(21504px);}
.step22 {transform: translateX(22528px);}
.step23 {transform: translateX(23552px);}
.step24 {transform: translateX(24576px);}
.step25 {transform: translateX(25600px);}
.step26 {transform: translateX(26624px);}
.step27 {transform: translateX(27648px);}
.step28 {transform: translateX(28672px);}
.step29 {transform: translateX(29696px);}
    </style>

    <path d="M 409 716 Q 406 747 404 773 Q 405 792 384 798 Q 345 816 323 808 Q 305 799 321 780 Q 348 747 360 708 L 370 671 Q 382 608 399 591 Q 412 581 417 593 Q 420 608 412 683 L 409 716 Z" fill="lightgray" class="stroke step8"/>
    <path d="M 412 683 Q 434 690 460 696 Q 475 699 492 708 Q 498 712 496 719 Q 495 725 482 728 Q 449 724 409 716 L 360 708 Q 305 701 238 689 Q 195 690 173 687 Q 163 688 160 684 Q 159 677 165 667 Q 178 652 205 641 Q 223 632 239 638 Q 303 654 370 671 L 412 683 Z" fill="lightgray" class="stroke step8"/>
    <path d="M 671 742 Q 681 766 702 795 Q 717 810 707 820 Q 697 838 663 857 Q 647 867 629 860 Q 619 854 625 843 Q 635 810 613 732 L 600 694 Q 573 625 574 606 Q 575 593 589 600 Q 610 615 650 698 L 671 742 Z" fill="lightgray" class="stroke step8"/>
    <path d="M 650 698 Q 714 717 838 710 Q 851 709 855 717 Q 859 727 848 739 Q 806 773 717 751 Q 695 748 671 742 L 613 732 Q 589 731 564 726 Q 539 723 557 710 Q 563 707 600 694 L 650 698 Z" fill="lightgray" class="stroke step8"/>
    <path d="M 253 273 Q 260 312 264 350 L 266 385 Q 266 448 277 498 C 280 516 280 516 265 526 Q 253 536 234 543 Q 218 550 206 546 Q 196 539 203 528 Q 218 501 220 448 Q 220 214 123 36 Q 107 6 103 -4 Q 102 -14 110 -11 Q 141 -4 201 109 Q 208 125 216 142 Q 232 188 246 241 L 253 273 Z" fill="lightgray" class="stroke step8"/>
    <path d="M 277 498 Q 277 499 359 519 Q 374 523 381 515 Q 390 506 390 477 Q 397 245 387 104 Q 386 79 378 68 Q 377 68 318 71 Q 299 77 301 68 Q 347 28 372 -1 Q 384 -17 398 -22 Q 405 -26 414 -17 Q 450 29 448 77 Q 427 459 450 503 Q 462 521 451 530 Q 391 578 350 551 Q 319 536 265 526 C 236 520 248 490 277 498 Z" fill="lightgray" class="stroke step8"/>
    <path d="M 264 350 Q 313 360 350 368 Q 371 374 362 385 Q 350 398 326 399 Q 304 400 266 385 C 238 374 235 344 264 350 Z" fill="lightgray" class="stroke step8"/>
    <path d="M 246 241 Q 306 250 348 256 Q 370 260 361 273 Q 351 286 327 289 Q 290 292 253 273 C 226 260 216 237 246 241 Z" fill="lightgray" class="stroke step8"/>
    <path d="M 595 446 Q 605 462 616 481 Q 629 506 642 520 Q 649 529 644 540 Q 640 550 616 567 Q 594 580 577 580 Q 562 577 570 559 Q 580 543 575 528 Q 550 444 476 330 Q 469 320 467 316 Q 464 306 476 309 Q 497 318 575 416 L 595 446 Z" fill="lightgray" class="stroke step8"/>
    <path d="M 664 422 Q 730 440 873 463 Q 886 464 887 472 Q 887 484 865 498 Q 820 517 776 495 Q 722 477 680 466 Q 637 459 595 446 C 566 437 545 421 575 416 Q 587 413 620 414 Q 624 415 629 416 L 664 422 Z" fill="lightgray" class="hide"/>
    <path d="M 688 192 Q 688 243 689 295 L 690 328 Q 691 365 695 385 Q 696 398 690 403 Q 677 415 664 422 C 639 438 618 444 629 416 Q 656 365 632 100 Q 631 94 630 87 Q 629 62 624 50 Q 615 17 649 -36 Q 659 -54 668 -58 Q 678 -59 684 -47 Q 696 -16 692 14 Q 689 90 689 160 L 688 192 Z" fill="lightgray" class="hide"/>
    <path d="M 689 295 Q 783 311 853 321 Q 878 325 869 339 Q 857 355 829 360 Q 801 364 690 328 C 661 319 659 290 689 295 Z" fill="lightgray" class="hide"/>
    <path d="M 689 160 Q 693 160 703 160 Q 802 173 875 180 Q 903 184 893 199 Q 881 217 852 223 Q 825 227 688 192 C 659 185 659 160 689 160 Z" fill="lightgray" class="hide"/></g><g transform="scale(1, -1) translate(0, -900)">
    <style type="text/css">
        .origin {display:none;}
        .hide {display:none;}
        .stroke {fill: #000000;}
        
.step1 {transform: translateX(1024px);}
.step2 {transform: translateX(2048px);}
.step3 {transform: translateX(3072px);}
.step4 {transform: translateX(4096px);}
.step5 {transform: translateX(5120px);}
.step6 {transform: translateX(6144px);}
.step7 {transform: translateX(7168px);}
.step8 {transform: translateX(8192px);}
.step9 {transform: translateX(9216px);}
.step10 {transform: translateX(10240px);}
.step11 {transform: translateX(11264px);}
.step12 {transform: translateX(12288px);}
.step13 {transform: translateX(13312px);}
.step14 {transform: translateX(14336px);}
.step15 {transform: translateX(15360px);}
.step16 {transform: translateX(16384px);}
.step17 {transform: translateX(17408px);}
.step18 {transform: translateX(18432px);}
.step19 {transform: translateX(19456px);}
.step20 {transform: translateX(20480px);}
.step21 {transform: translateX(21504px);}
.step22 {transform: translateX(22528px);}
.step23 {transform: translateX(23552px);}
.step24 {transform: translateX(24576px);}
.step25 {transform: translateX(25600px);}
.step26 {transform: translateX(26624px);}
.step27 {transform: translateX(27648px);}
.step28 {transform: translateX(28672px);}
.step29 {transform: translateX(29696px);}
    </style>

    <path d="M 409 716 Q 406 747 404 773 Q 405 792 384 798 Q 345 816 323 808 Q 305 799 321 780 Q 348 747 360 708 L 370 671 Q 382 608 399 591 Q 412 581 417 593 Q 420 608 412 683 L 409 716 Z" fill="lightgray" class="stroke step9"/>
    <path d="M 412 683 Q 434 690 460 696 Q 475 699 492 708 Q 498 712 496 719 Q 495 725 482 728 Q 449 724 409 716 L 360 708 Q 305 701 238 689 Q 195 690 173 687 Q 163 688 160 684 Q 159 677 165 667 Q 178 652 205 641 Q 223 632 239 638 Q 303 654 370 671 L 412 683 Z" fill="lightgray" class="stroke step9"/>
    <path d="M 671 742 Q 681 766 702 795 Q 717 810 707 820 Q 697 838 663 857 Q 647 867 629 860 Q 619 854 625 843 Q 635 810 613 732 L 600 694 Q 573 625 574 606 Q 575 593 589 600 Q 610 615 650 698 L 671 742 Z" fill="lightgray" class="stroke step9"/>
    <path d="M 650 698 Q 714 717 838 710 Q 851 709 855 717 Q 859 727 848 739 Q 806 773 717 751 Q 695 748 671 742 L 613 732 Q 589 731 564 726 Q 539 723 557 710 Q 563 707 600 694 L 650 698 Z" fill="lightgray" class="stroke step9"/>
    <path d="M 253 273 Q 260 312 264 350 L 266 385 Q 266 448 277 498 C 280 516 280 516 265 526 Q 253 536 234 543 Q 218 550 206 546 Q 196 539 203 528 Q 218 501 220 448 Q 220 214 123 36 Q 107 6 103 -4 Q 102 -14 110 -11 Q 141 -4 201 109 Q 208 125 216 142 Q 232 188 246 241 L 253 273 Z" fill="lightgray" class="stroke step9"/>
    <path d="M 277 498 Q 277 499 359 519 Q 374 523 381 515 Q 390 506 390 477 Q 397 245 387 104 Q 386 79 378 68 Q 377 68 318 71 Q 299 77 301 68 Q 347 28 372 -1 Q 384 -17 398 -22 Q 405 -26 414 -17 Q 450 29 448 77 Q 427 459 450 503 Q 462 521 451 530 Q 391 578 350 551 Q 319 536 265 526 C 236 520 248 490 277 498 Z" fill="lightgray" class="stroke step9"/>
    <path d="M 264 350 Q 313 360 350 368 Q 371 374 362 385 Q 350 398 326 399 Q 304 400 266 385 C 238 374 235 344 264 350 Z" fill="lightgray" class="stroke step9"/>
    <path d="M 246 241 Q 306 250 348 256 Q 370 260 361 273 Q 351 286 327 289 Q 290 292 253 273 C 226 260 216 237 246 241 Z" fill="lightgray" class="stroke step9"/>
    <path d="M 595 446 Q 605 462 616 481 Q 629 506 642 520 Q 649 529 644 540 Q 640 550 616 567 Q 594 580 577 580 Q 562 577 570 559 Q 580 543 575 528 Q 550 444 476 330 Q 469 320 467 316 Q 464 306 476 309 Q 497 318 575 416 L 595 446 Z" fill="lightgray" class="stroke step9"/>
    <path d="M 664 422 Q 730 440 873 463 Q 886 464 887 472 Q 887 484 865 498 Q 820 517 776 495 Q 722 477 680 466 Q 637 459 595 446 C 566 437 545 421 575 416 Q 587 413 620 414 Q 624 415 629 416 L 664 422 Z" fill="lightgray" class="stroke step9"/>
    <path d="M 688 192 Q 688 243 689 295 L 690 328 Q 691 365 695 385 Q 696 398 690 403 Q 677 415 664 422 C 639 438 618 444 629 416 Q 656 365 632 100 Q 631 94 630 87 Q 629 62 624 50 Q 615 17 649 -36 Q 659 -54 668 -58 Q 678 -59 684 -47 Q 696 -16 692 14 Q 689 90 689 160 L 688 192 Z" fill="lightgray" class="hide"/>
    <path d="M 689 295 Q 783 311 853 321 Q 878 325 869 339 Q 857 355 829 360 Q 801 364 690 328 C 661 319 659 290 689 295 Z" fill="lightgray" class="hide"/>
    <path d="M 689 160 Q 693 160 703 160 Q 802 173 875 180 Q 903 184 893 199 Q 881 217 852 223 Q 825 227 688 192 C 659 185 659 160 689 160 Z" fill="lightgray" class="hide"/></g><g transform="scale(1, -1) translate(0, -900)">
    <style type="text/css">
        .origin {display:none;}
        .hide {display:none;}
        .stroke {fill: #000000;}
        
.step1 {transform: translateX(1024px);}
.step2 {transform: translateX(2048px);}
.step3 {transform: translateX(3072px);}
.step4 {transform: translateX(4096px);}
.step5 {transform: translateX(5120px);}
.step6 {transform: translateX(6144px);}
.step7 {transform: translateX(7168px);}
.step8 {transform: translateX(8192px);}
.step9 {transform: translateX(9216px);}
.step10 {transform: translateX(10240px);}
.step11 {transform: translateX(11264px);}
.step12 {transform: translateX(12288px);}
.step13 {transform: translateX(13312px);}
.step14 {transform: translateX(14336px);}
.step15 {transform: translateX(15360px);}
.step16 {transform: translateX(16384px);}
.step17 {transform: translateX(17408px);}
.step18 {transform: translateX(18432px);}
.step19 {transform: translateX(19456px);}
.step20 {transform: translateX(20480px);}
.step21 {transform: translateX(21504px);}
.step22 {transform: translateX(22528px);}
.step23 {transform: translateX(23552px);}
.step24 {transform: translateX(24576px);}
.step25 {transform: translateX(25600px);}
.step26 {transform: translateX(26624px);}
.step27 {transform: translateX(27648px);}
.step28 {transform: translateX(28672px);}
.step29 {transform: translateX(29696px);}
    </style>

    <path d="M 409 716 Q 406 747 404 773 Q 405 792 384 798 Q 345 816 323 808 Q 305 799 321 780 Q 348 747 360 708 L 370 671 Q 382 608 399 591 Q 412 581 417 593 Q 420 608 412 683 L 409 716 Z" fill="lightgray" class="stroke step10"/>
    <path d="M 412 683 Q 434 690 460 696 Q 475 699 492 708 Q 498 712 496 719 Q 495 725 482 728 Q 449 724 409 716 L 360 708 Q 305 701 238 689 Q 195 690 173 687 Q 163 688 160 684 Q 159 677 165 667 Q 178 652 205 641 Q 223 632 239 638 Q 303 654 370 671 L 412 683 Z" fill="lightgray" class="stroke step10"/>
    <path d="M 671 742 Q 681 766 702 795 Q 717 810 707 820 Q 697 838 663 857 Q 647 867 629 860 Q 619 854 625 843 Q 635 810 613 732 L 600 694 Q 573 625 574 606 Q 575 593 589 600 Q 610 615 650 698 L 671 742 Z" fill="lightgray" class="stroke step10"/>
    <path d="M 650 698 Q 714 717 838 710 Q 851 709 855 717 Q 859 727 848 739 Q 806 773 717 751 Q 695 748 671 742 L 613 732 Q 589 731 564 726 Q 539 723 557 710 Q 563 707 600 694 L 650 698 Z" fill="lightgray" class="stroke step10"/>
    <path d="M 253 273 Q 260 312 264 350 L 266 385 Q 266 448 277 498 C 280 516 280 516 265 526 Q 253 536 234 543 Q 218 550 206 546 Q 196 539 203 528 Q 218 501 220 448 Q 220 214 123 36 Q 107 6 103 -4 Q 102 -14 110 -11 Q 141 -4 201 109 Q 208 125 216 142 Q 232 188 246 241 L 253 273 Z" fill="lightgray" class="stroke step10"/>
    <path d="M 277 498 Q 277 499 359 519 Q 374 523 381 515 Q 390 506 390 477 Q 397 245 387 104 Q 386 79 378 68 Q 377 68 318 71 Q 299 77 301 68 Q 347 28 372 -1 Q 384 -17 398 -22 Q 405 -26 414 -17 Q 450 29 448 77 Q 427 459 450 503 Q 462 521 451 530 Q 391 578 350 551 Q 319 536 265 526 C 236 520 248 490 277 498 Z" fill="lightgray" class="stroke step10"/>
    <path d="M 264 350 Q 313 360 350 368 Q 371 374 362 385 Q 350 398 326 399 Q 304 400 266 385 C 238 374 235 344 264 350 Z" fill="lightgray" class="stroke step10"/>
    <path d="M 246 241 Q 306 250 348 256 Q 370 260 361 273 Q 351 286 327 289 Q 290 292 253 273 C 226 260 216 237 246 241 Z" fill="lightgray" class="stroke step10"/>
    <path d="M 595 446 Q 605 462 616 481 Q 629 506 642 520 Q 649 529 644 540 Q 640 550 616 567 Q 594 580 577 580 Q 562 577 570 559 Q 580 543 575 528 Q 550 444 476 330 Q 469 320 467 316 Q 464 306 476 309 Q 497 318 575 416 L 595 446 Z" fill="lightgray" class="stroke step10"/>
    <path d="M 664 422 Q 730 440 873 463 Q 886 464 887 472 Q 887 484 865 498 Q 820 517 776 495 Q 722 477 680 466 Q 637 459 595 446 C 566 437 545 421 575 416 Q 587 413 620 414 Q 624 415 629 416 L 664 422 Z" fill="lightgray" class="stroke step10"/>
    <path d="M 688 192 Q 688 243 689 295 L 690 328 Q 691 365 695 385 Q 696 398 690 403 Q 677 415 664 422 C 639 438 618 444 629 416 Q 656 365 632 100 Q 631 94 630 87 Q 629 62 624 50 Q 615 17 649 -36 Q 659 -54 668 -58 Q 678 -59 684 -47 Q 696 -16 692 14 Q 689 90 689 160 L 688 192 Z" fill="lightgray" class="stroke step10"/>
    <path d="M 689 295 Q 783 311 853 321 Q 878 325 869 339 Q 857 355 829 360 Q 801 364 690 328 C 661 319 659 290 689 295 Z" fill="lightgray" class="hide"/>
    <path d="M 689 160 Q 693 160 703 160 Q 802 173 875 180 Q 903 184 893 199 Q 881 217 852 223 Q 825 227 688 192 C 659 185 659 160 689 160 Z" fill="lightgray" class="hide"/></g><g transform="scale(1, -1) translate(0, -900)">
    <style type="text/css">
        .origin {display:none;}
        .hide {display:none;}
        .stroke {fill: #000000;}
        
.step1 {transform: translateX(1024px);}
.step2 {transform: translateX(2048px);}
.step3 {transform: translateX(3072px);}
.step4 {transform: translateX(4096px);}
.step5 {transform: translateX(5120px);}
.step6 {transform: translateX(6144px);}
.step7 {transform: translateX(7168px);}
.step8 {transform: translateX(8192px);}
.step9 {transform: translateX(9216px);}
.step10 {transform: translateX(10240px);}
.step11 {transform: translateX(11264px);}
.step12 {transform: translateX(12288px);}
.step13 {transform: translateX(13312px);}
.step14 {transform: translateX(14336px);}
.step15 {transform: translateX(15360px);}
.step16 {transform: translateX(16384px);}
.step17 {transform: translateX(17408px);}
.step18 {transform: translateX(18432px);}
.step19 {transform: translateX(19456px);}
.step20 {transform: translateX(20480px);}
.step21 {transform: translateX(21504px);}
.step22 {transform: translateX(22528px);}
.step23 {transform: translateX(23552px);}
.step24 {transform: translateX(24576px);}
.step25 {transform: translateX(25600px);}
.step26 {transform: translateX(26624px);}
.step27 {transform: translateX(27648px);}
.step28 {transform: translateX(28672px);}
.step29 {transform: translateX(29696px);}
    </style>

    <path d="M 409 716 Q 406 747 404 773 Q 405 792 384 798 Q 345 816 323 808 Q 305 799 321 780 Q 348 747 360 708 L 370 671 Q 382 608 399 591 Q 412 581 417 593 Q 420 608 412 683 L 409 716 Z" fill="lightgray" class="stroke step11"/>
    <path d="M 412 683 Q 434 690 460 696 Q 475 699 492 708 Q 498 712 496 719 Q 495 725 482 728 Q 449 724 409 716 L 360 708 Q 305 701 238 689 Q 195 690 173 687 Q 163 688 160 684 Q 159 677 165 667 Q 178 652 205 641 Q 223 632 239 638 Q 303 654 370 671 L 412 683 Z" fill="lightgray" class="stroke step11"/>
    <path d="M 671 742 Q 681 766 702 795 Q 717 810 707 820 Q 697 838 663 857 Q 647 867 629 860 Q 619 854 625 843 Q 635 810 613 732 L 600 694 Q 573 625 574 606 Q 575 593 589 600 Q 610 615 650 698 L 671 742 Z" fill="lightgray" class="stroke step11"/>
    <path d="M 650 698 Q 714 717 838 710 Q 851 709 855 717 Q 859 727 848 739 Q 806 773 717 751 Q 695 748 671 742 L 613 732 Q 589 731 564 726 Q 539 723 557 710 Q 563 707 600 694 L 650 698 Z" fill="lightgray" class="stroke step11"/>
    <path d="M 253 273 Q 260 312 264 350 L 266 385 Q 266 448 277 498 C 280 516 280 516 265 526 Q 253 536 234 543 Q 218 550 206 546 Q 196 539 203 528 Q 218 501 220 448 Q 220 214 123 36 Q 107 6 103 -4 Q 102 -14 110 -11 Q 141 -4 201 109 Q 208 125 216 142 Q 232 188 246 241 L 253 273 Z" fill="lightgray" class="stroke step11"/>
    <path d="M 277 498 Q 277 499 359 519 Q 374 523 381 515 Q 390 506 390 477 Q 397 245 387 104 Q 386 79 378 68 Q 377 68 318 71 Q 299 77 301 68 Q 347 28 372 -1 Q 384 -17 398 -22 Q 405 -26 414 -17 Q 450 29 448 77 Q 427 459 450 503 Q 462 521 451 530 Q 391 578 350 551 Q 319 536 265 526 C 236 520 248 490 277 498 Z" fill="lightgray" class="stroke step11"/>
    <path d="M 264 350 Q 313 360 350 368 Q 371 374 362 385 Q 350 398 326 399 Q 304 400 266 385 C 238 374 235 344 264 350 Z" fill="lightgray" class="stroke step11"/>
    <path d="M 246 241 Q 306 250 348 256 Q 370 260 361 273 Q 351 286 327 289 Q 290 292 253 273 C 226 260 216 237 246 241 Z" fill="lightgray" class="stroke step11"/>
    <path d="M 595 446 Q 605 462 616 481 Q 629 506 642 520 Q 649 529 644 540 Q 640 550 616 567 Q 594 580 577 580 Q 562 577 570 559 Q 580 543 575 528 Q 550 444 476 330 Q 469 320 467 316 Q 464 306 476 309 Q 497 318 575 416 L 595 446 Z" fill="lightgray" class="stroke step11"/>
    <path d="M 664 422 Q 730 440 873 463 Q 886 464 887 472 Q 887 484 865 498 Q 820 517 776 495 Q 722 477 680 466 Q 637 459 595 446 C 566 437 545 421 575 416 Q 587 413 620 414 Q 624 415 629 416 L 664 422 Z" fill="lightgray" class="stroke step11"/>
    <path d="M 688 192 Q 688 243 689 295 L 690 328 Q 691 365 695 385 Q 696 398 690 403 Q 677 415 664 422 C 639 438 618 444 629 416 Q 656 365 632 100 Q 631 94 630 87 Q 629 62 624 50 Q 615 17 649 -36 Q 659 -54 668 -58 Q 678 -59 684 -47 Q 696 -16 692 14 Q 689 90 689 160 L 688 192 Z" fill="lightgray" class="stroke step11"/>
    <path d="M 689 295 Q 783 311 853 321 Q 878 325 869 339 Q 857 355 829 360 Q 801 364 690 328 C 661 319 659 290 689 295 Z" fill="lightgray" class="stroke step11"/>
    <path d="M 689 160 Q 693 160 703 160 Q 802 173 875 180 Q 903 184 893 199 Q 881 217 852 223 Q 825 227 688 192 C 659 185 659 160 689 160 Z" fill="lightgray" class="hide"/></g><g transform="scale(1, -1) translate(0, -900)">
    <style type="text/css">
        .origin {display:none;}
        .hide {display:none;}
        .stroke {fill: #000000;}
        
.step1 {transform: translateX(1024px);}
.step2 {transform: translateX(2048px);}
.step3 {transform: translateX(3072px);}
.step4 {transform: translateX(4096px);}
.step5 {transform: translateX(5120px);}
.step6 {transform: translateX(6144px);}
.step7 {transform: translateX(7168px);}
.step8 {transform: translateX(8192px);}
.step9 {transform: translateX(9216px);}
.step10 {transform: translateX(10240px);}
.step11 {transform: translateX(11264px);}
.step12 {transform: translateX(12288px);}
.step13 {transform: translateX(13312px);}
.step14 {transform: translateX(14336px);}
.step15 {transform: translateX(15360px);}
.step16 {transform: translateX(16384px);}
.step17 {transform: translateX(17408px);}
.step18 {transform: translateX(18432px);}
.step19 {transform: translateX(19456px);}
.step20 {transform: translateX(20480px);}
.step21 {transform: translateX(21504px);}
.step22 {transform: translateX(22528px);}
.step23 {transform: translateX(23552px);}
.step24 {transform: translateX(24576px);}
.step25 {transform: translateX(25600px);}
.step26 {transform: translateX(26624px);}
.step27 {transform: translateX(27648px);}
.step28 {transform: translateX(28672px);}
.step29 {transform: translateX(29696px);}
    </style>

    <path d="M 409 716 Q 406 747 404 773 Q 405 792 384 798 Q 345 816 323 808 Q 305 799 321 780 Q 348 747 360 708 L 370 671 Q 382 608 399 591 Q 412 581 417 593 Q 420 608 412 683 L 409 716 Z" fill="lightgray" class="stroke step12"/>
    <path d="M 412 683 Q 434 690 460 696 Q 475 699 492 708 Q 498 712 496 719 Q 495 725 482 728 Q 449 724 409 716 L 360 708 Q 305 701 238 689 Q 195 690 173 687 Q 163 688 160 684 Q 159 677 165 667 Q 178 652 205 641 Q 223 632 239 638 Q 303 654 370 671 L 412 683 Z" fill="lightgray" class="stroke step12"/>
    <path d="M 671 742 Q 681 766 702 795 Q 717 810 707 820 Q 697 838 663 857 Q 647 867 629 860 Q 619 854 625 843 Q 635 810 613 732 L 600 694 Q 573 625 574 606 Q 575 593 589 600 Q 610 615 650 698 L 671 742 Z" fill="lightgray" class="stroke step12"/>
    <path d="M 650 698 Q 714 717 838 710 Q 851 709 855 717 Q 859 727 848 739 Q 806 773 717 751 Q 695 748 671 742 L 613 732 Q 589 731 564 726 Q 539 723 557 710 Q 563 707 600 694 L 650 698 Z" fill="lightgray" class="stroke step12"/>
    <path d="M 253 273 Q 260 312 264 350 L 266 385 Q 266 448 277 498 C 280 516 280 516 265 526 Q 253 536 234 543 Q 218 550 206 546 Q 196 539 203 528 Q 218 501 220 448 Q 220 214 123 36 Q 107 6 103 -4 Q 102 -14 110 -11 Q 141 -4 201 109 Q 208 125 216 142 Q 232 188 246 241 L 253 273 Z" fill="lightgray" class="stroke step12"/>
    <path d="M 277 498 Q 277 499 359 519 Q 374 523 381 515 Q 390 506 390 477 Q 397 245 387 104 Q 386 79 378 68 Q 377 68 318 71 Q 299 77 301 68 Q 347 28 372 -1 Q 384 -17 398 -22 Q 405 -26 414 -17 Q 450 29 448 77 Q 427 459 450 503 Q 462 521 451 530 Q 391 578 350 551 Q 319 536 265 526 C 236 520 248 490 277 498 Z" fill="lightgray" class="stroke step12"/>
    <path d="M 264 350 Q 313 360 350 368 Q 371 374 362 385 Q 350 398 326 399 Q 304 400 266 385 C 238 374 235 344 264 350 Z" fill="lightgray" class="stroke step12"/>
    <path d="M 246 241 Q 306 250 348 256 Q 370 260 361 273 Q 351 286 327 289 Q 290 292 253 273 C 226 260 216 237 246 241 Z" fill="lightgray" class="stroke step12"/>
    <path d="M 595 446 Q 605 462 616 481 Q 629 506 642 520 Q 649 529 644 540 Q 640 550 616 567 Q 594 580 577 580 Q 562 577 570 559 Q 580 543 575 528 Q 550 444 476 330 Q 469 320 467 316 Q 464 306 476 309 Q 497 318 575 416 L 595 446 Z" fill="lightgray" class="stroke step12"/>
    <path d="M 664 422 Q 730 440 873 463 Q 886 464 887 472 Q 887 484 865 498 Q 820 517 776 495 Q 722 477 680 466 Q 637 459 595 446 C 566 437 545 421 575 416 Q 587 413 620 414 Q 624 415 629 416 L 664 422 Z" fill="lightgray" class="stroke step12"/>
    <path d="M 688 192 Q 688 243 689 295 L 690 328 Q 691 365 695 385 Q 696 398 690 403 Q 677 415 664 422 C 639 438 618 444 629 416 Q 656 365 632 100 Q 631 94 630 87 Q 629 62 624 50 Q 615 17 649 -36 Q 659 -54 668 -58 Q 678 -59 684 -47 Q 696 -16 692 14 Q 689 90 689 160 L 688 192 Z" fill="lightgray" class="stroke step12"/>
    <path d="M 689 295 Q 783 311 853 321 Q 878 325 869 339 Q 857 355 829 360 Q 801 364 690 328 C 661 319 659 290 689 295 Z" fill="lightgray" class="stroke step12"/>
    <path d="M 689 160 Q 693 160 703 160 Q 802 173 875 180 Q 903 184 893 199 Q 881 217 852 223 Q 825 227 688 192 C 659 185 659 160 689 160 Z" fill="lightgray" class="stroke step12"/></g></svg>