<svg version="1.1" viewBox="0 0 15360 1024" xmlns="http://www.w3.org/2000/svg">
  
  <g transform="scale(1, -1) translate(0, -900)" class="origin">
    <style type="text/css">
        .origin {display:none;}
        .hide {display:none;}
        .stroke {fill: #000000;}
        
.step1 {transform: translateX(1024px);}
.step2 {transform: translateX(2048px);}
.step3 {transform: translateX(3072px);}
.step4 {transform: translateX(4096px);}
.step5 {transform: translateX(5120px);}
.step6 {transform: translateX(6144px);}
.step7 {transform: translateX(7168px);}
.step8 {transform: translateX(8192px);}
.step9 {transform: translateX(9216px);}
.step10 {transform: translateX(10240px);}
.step11 {transform: translateX(11264px);}
.step12 {transform: translateX(12288px);}
.step13 {transform: translateX(13312px);}
.step14 {transform: translateX(14336px);}
.step15 {transform: translateX(15360px);}
.step16 {transform: translateX(16384px);}
.step17 {transform: translateX(17408px);}
.step18 {transform: translateX(18432px);}
.step19 {transform: translateX(19456px);}
.step20 {transform: translateX(20480px);}
.step21 {transform: translateX(21504px);}
.step22 {transform: translateX(22528px);}
.step23 {transform: translateX(23552px);}
.step24 {transform: translateX(24576px);}
.step25 {transform: translateX(25600px);}
.step26 {transform: translateX(26624px);}
.step27 {transform: translateX(27648px);}
.step28 {transform: translateX(28672px);}
.step29 {transform: translateX(29696px);}
    </style>

    <path d="M 433 742 Q 430 773 429 796 Q 430 815 411 819 Q 375 837 354 829 Q 338 820 352 803 Q 377 778 389 735 L 399 702 Q 408 675 420 663 Q 433 653 436 664 Q 442 683 437 703 Q 436 707 436 712 L 433 742 Z" fill="lightgray"/>
    <path d="M 436 712 Q 443 715 452 717 Q 467 718 483 728 Q 490 732 488 739 Q 487 745 474 748 Q 455 747 433 742 L 389 735 Q 287 723 193 715 Q 183 716 181 712 Q 178 705 185 695 Q 198 680 225 669 Q 241 660 259 665 Q 326 683 399 702 L 436 712 Z" fill="lightgray"/>
    <path d="M 646 766 Q 655 785 670 808 Q 683 821 675 831 Q 665 847 632 864 Q 617 874 601 866 Q 591 862 598 850 Q 605 828 592 760 L 583 727 Q 561 664 562 645 Q 563 633 577 640 Q 590 652 627 723 L 646 766 Z" fill="lightgray"/>
    <path d="M 627 723 Q 714 747 840 731 Q 853 730 858 737 Q 862 747 852 760 Q 809 796 731 778 Q 692 774 646 766 L 592 760 Q 579 760 565 758 Q 540 757 557 742 Q 570 732 583 727 C 605 717 605 717 627 723 Z" fill="lightgray"/>
    <path d="M 387 585 Q 408 604 419 611 Q 429 620 428 629 Q 427 641 405 650 Q 380 662 370 660 Q 363 659 359 648 Q 343 596 217 510 Q 198 500 222 500 Q 267 497 364 567 L 387 585 Z" fill="lightgray"/>
    <path d="M 364 567 Q 409 546 440 555 Q 482 568 675 598 Q 708 602 720 587 Q 741 565 743 510 Q 750 341 740 231 Q 716 57 684 39 Q 674 33 600 50 Q 588 53 586 49 Q 582 42 600 27 Q 637 -13 654 -49 Q 676 -80 695 -74 Q 711 -70 733 -38 Q 764 2 784 79 Q 805 170 810 467 Q 810 545 830 571 Q 848 593 824 611 Q 749 659 712 646 Q 567 609 387 585 C 357 581 336 577 364 567 Z" fill="lightgray"/>
    <path d="M 314 486 Q 284 480 306 468 Q 340 450 385 461 Q 434 473 485 484 Q 507 490 512 493 Q 519 500 515 507 Q 508 516 485 521 Q 460 525 437 515 Q 412 505 382 498 Q 351 491 314 486 Z" fill="lightgray"/>
    <path d="M 272 409 Q 262 413 238 415 Q 228 416 224 412 Q 220 406 228 392 Q 249 361 266 307 Q 270 291 281 281 Q 297 263 302 277 Q 303 284 303 295 L 299 325 Q 290 370 289 385 C 287 404 287 404 272 409 Z" fill="lightgray"/>
    <path d="M 532 347 Q 550 380 572 390 Q 587 405 576 420 Q 563 432 521 455 Q 508 462 489 456 Q 408 429 272 409 C 242 405 260 378 289 385 Q 289 386 291 386 Q 381 401 466 416 Q 488 420 497 412 Q 503 405 488 358 C 479 329 517 321 532 347 Z" fill="lightgray"/>
    <path d="M 303 295 Q 307 295 313 296 Q 383 311 537 322 Q 546 323 547 330 Q 547 336 532 347 C 513 362 513 362 488 358 Q 484 358 481 357 Q 381 335 299 325 C 269 321 273 292 303 295 Z" fill="lightgray"/>
    <path d="M 228 234 Q 218 240 180 243 Q 167 246 165 240 Q 159 233 169 218 Q 203 160 227 62 Q 233 32 251 14 Q 270 -7 274 10 Q 275 17 276 27 L 273 58 Q 272 67 270 75 Q 246 169 239 202 C 233 231 232 232 228 234 Z" fill="lightgray"/>
    <path d="M 494 50 Q 512 22 528 13 Q 538 4 555 26 Q 568 45 599 153 Q 609 184 633 209 Q 646 222 635 236 Q 620 254 578 281 Q 562 290 501 277 Q 482 274 459 271 Q 327 253 228 234 C 199 228 210 195 239 202 Q 287 215 357 225 L 395 230 Q 515 251 537 235 Q 547 226 545 210 Q 523 90 505 78 C 490 56 490 56 494 50 Z" fill="lightgray"/>
    <path d="M 412 142 Q 443 146 471 149 Q 493 153 485 165 Q 475 178 451 183 Q 436 186 415 181 L 366 170 Q 330 161 299 152 Q 283 149 302 134 Q 305 133 367 136 L 412 142 Z" fill="lightgray"/>
    <path d="M 408 80 Q 409 114 412 142 L 415 181 Q 415 217 397 228 L 395 230 C 372 249 346 253 357 225 Q 363 213 366 170 L 367 136 Q 367 111 369 73 C 371 43 407 50 408 80 Z" fill="lightgray"/>
    <path d="M 276 27 Q 282 26 292 27 Q 356 42 494 50 C 524 52 528 59 505 78 Q 501 82 492 88 Q 470 100 408 80 L 369 73 Q 317 66 273 58 C 243 53 246 29 276 27 Z" fill="lightgray"/></g>
<g transform="scale(1, -1) translate(0, -900)">
    <style type="text/css">
        .origin {display:none;}
        .hide {display:none;}
        .stroke {fill: #000000;}
        
.step1 {transform: translateX(1024px);}
.step2 {transform: translateX(2048px);}
.step3 {transform: translateX(3072px);}
.step4 {transform: translateX(4096px);}
.step5 {transform: translateX(5120px);}
.step6 {transform: translateX(6144px);}
.step7 {transform: translateX(7168px);}
.step8 {transform: translateX(8192px);}
.step9 {transform: translateX(9216px);}
.step10 {transform: translateX(10240px);}
.step11 {transform: translateX(11264px);}
.step12 {transform: translateX(12288px);}
.step13 {transform: translateX(13312px);}
.step14 {transform: translateX(14336px);}
.step15 {transform: translateX(15360px);}
.step16 {transform: translateX(16384px);}
.step17 {transform: translateX(17408px);}
.step18 {transform: translateX(18432px);}
.step19 {transform: translateX(19456px);}
.step20 {transform: translateX(20480px);}
.step21 {transform: translateX(21504px);}
.step22 {transform: translateX(22528px);}
.step23 {transform: translateX(23552px);}
.step24 {transform: translateX(24576px);}
.step25 {transform: translateX(25600px);}
.step26 {transform: translateX(26624px);}
.step27 {transform: translateX(27648px);}
.step28 {transform: translateX(28672px);}
.step29 {transform: translateX(29696px);}
    </style>

    <path d="M 433 742 Q 430 773 429 796 Q 430 815 411 819 Q 375 837 354 829 Q 338 820 352 803 Q 377 778 389 735 L 399 702 Q 408 675 420 663 Q 433 653 436 664 Q 442 683 437 703 Q 436 707 436 712 L 433 742 Z" fill="lightgray" class="stroke step0"/>
    <path d="M 436 712 Q 443 715 452 717 Q 467 718 483 728 Q 490 732 488 739 Q 487 745 474 748 Q 455 747 433 742 L 389 735 Q 287 723 193 715 Q 183 716 181 712 Q 178 705 185 695 Q 198 680 225 669 Q 241 660 259 665 Q 326 683 399 702 L 436 712 Z" fill="lightgray" class="hide"/>
    <path d="M 646 766 Q 655 785 670 808 Q 683 821 675 831 Q 665 847 632 864 Q 617 874 601 866 Q 591 862 598 850 Q 605 828 592 760 L 583 727 Q 561 664 562 645 Q 563 633 577 640 Q 590 652 627 723 L 646 766 Z" fill="lightgray" class="hide"/>
    <path d="M 627 723 Q 714 747 840 731 Q 853 730 858 737 Q 862 747 852 760 Q 809 796 731 778 Q 692 774 646 766 L 592 760 Q 579 760 565 758 Q 540 757 557 742 Q 570 732 583 727 C 605 717 605 717 627 723 Z" fill="lightgray" class="hide"/>
    <path d="M 387 585 Q 408 604 419 611 Q 429 620 428 629 Q 427 641 405 650 Q 380 662 370 660 Q 363 659 359 648 Q 343 596 217 510 Q 198 500 222 500 Q 267 497 364 567 L 387 585 Z" fill="lightgray" class="hide"/>
    <path d="M 364 567 Q 409 546 440 555 Q 482 568 675 598 Q 708 602 720 587 Q 741 565 743 510 Q 750 341 740 231 Q 716 57 684 39 Q 674 33 600 50 Q 588 53 586 49 Q 582 42 600 27 Q 637 -13 654 -49 Q 676 -80 695 -74 Q 711 -70 733 -38 Q 764 2 784 79 Q 805 170 810 467 Q 810 545 830 571 Q 848 593 824 611 Q 749 659 712 646 Q 567 609 387 585 C 357 581 336 577 364 567 Z" fill="lightgray" class="hide"/>
    <path d="M 314 486 Q 284 480 306 468 Q 340 450 385 461 Q 434 473 485 484 Q 507 490 512 493 Q 519 500 515 507 Q 508 516 485 521 Q 460 525 437 515 Q 412 505 382 498 Q 351 491 314 486 Z" fill="lightgray" class="hide"/>
    <path d="M 272 409 Q 262 413 238 415 Q 228 416 224 412 Q 220 406 228 392 Q 249 361 266 307 Q 270 291 281 281 Q 297 263 302 277 Q 303 284 303 295 L 299 325 Q 290 370 289 385 C 287 404 287 404 272 409 Z" fill="lightgray" class="hide"/>
    <path d="M 532 347 Q 550 380 572 390 Q 587 405 576 420 Q 563 432 521 455 Q 508 462 489 456 Q 408 429 272 409 C 242 405 260 378 289 385 Q 289 386 291 386 Q 381 401 466 416 Q 488 420 497 412 Q 503 405 488 358 C 479 329 517 321 532 347 Z" fill="lightgray" class="hide"/>
    <path d="M 303 295 Q 307 295 313 296 Q 383 311 537 322 Q 546 323 547 330 Q 547 336 532 347 C 513 362 513 362 488 358 Q 484 358 481 357 Q 381 335 299 325 C 269 321 273 292 303 295 Z" fill="lightgray" class="hide"/>
    <path d="M 228 234 Q 218 240 180 243 Q 167 246 165 240 Q 159 233 169 218 Q 203 160 227 62 Q 233 32 251 14 Q 270 -7 274 10 Q 275 17 276 27 L 273 58 Q 272 67 270 75 Q 246 169 239 202 C 233 231 232 232 228 234 Z" fill="lightgray" class="hide"/>
    <path d="M 494 50 Q 512 22 528 13 Q 538 4 555 26 Q 568 45 599 153 Q 609 184 633 209 Q 646 222 635 236 Q 620 254 578 281 Q 562 290 501 277 Q 482 274 459 271 Q 327 253 228 234 C 199 228 210 195 239 202 Q 287 215 357 225 L 395 230 Q 515 251 537 235 Q 547 226 545 210 Q 523 90 505 78 C 490 56 490 56 494 50 Z" fill="lightgray" class="hide"/>
    <path d="M 412 142 Q 443 146 471 149 Q 493 153 485 165 Q 475 178 451 183 Q 436 186 415 181 L 366 170 Q 330 161 299 152 Q 283 149 302 134 Q 305 133 367 136 L 412 142 Z" fill="lightgray" class="hide"/>
    <path d="M 408 80 Q 409 114 412 142 L 415 181 Q 415 217 397 228 L 395 230 C 372 249 346 253 357 225 Q 363 213 366 170 L 367 136 Q 367 111 369 73 C 371 43 407 50 408 80 Z" fill="lightgray" class="hide"/>
    <path d="M 276 27 Q 282 26 292 27 Q 356 42 494 50 C 524 52 528 59 505 78 Q 501 82 492 88 Q 470 100 408 80 L 369 73 Q 317 66 273 58 C 243 53 246 29 276 27 Z" fill="lightgray" class="hide"/></g><g transform="scale(1, -1) translate(0, -900)">
    <style type="text/css">
        .origin {display:none;}
        .hide {display:none;}
        .stroke {fill: #000000;}
        
.step1 {transform: translateX(1024px);}
.step2 {transform: translateX(2048px);}
.step3 {transform: translateX(3072px);}
.step4 {transform: translateX(4096px);}
.step5 {transform: translateX(5120px);}
.step6 {transform: translateX(6144px);}
.step7 {transform: translateX(7168px);}
.step8 {transform: translateX(8192px);}
.step9 {transform: translateX(9216px);}
.step10 {transform: translateX(10240px);}
.step11 {transform: translateX(11264px);}
.step12 {transform: translateX(12288px);}
.step13 {transform: translateX(13312px);}
.step14 {transform: translateX(14336px);}
.step15 {transform: translateX(15360px);}
.step16 {transform: translateX(16384px);}
.step17 {transform: translateX(17408px);}
.step18 {transform: translateX(18432px);}
.step19 {transform: translateX(19456px);}
.step20 {transform: translateX(20480px);}
.step21 {transform: translateX(21504px);}
.step22 {transform: translateX(22528px);}
.step23 {transform: translateX(23552px);}
.step24 {transform: translateX(24576px);}
.step25 {transform: translateX(25600px);}
.step26 {transform: translateX(26624px);}
.step27 {transform: translateX(27648px);}
.step28 {transform: translateX(28672px);}
.step29 {transform: translateX(29696px);}
    </style>

    <path d="M 433 742 Q 430 773 429 796 Q 430 815 411 819 Q 375 837 354 829 Q 338 820 352 803 Q 377 778 389 735 L 399 702 Q 408 675 420 663 Q 433 653 436 664 Q 442 683 437 703 Q 436 707 436 712 L 433 742 Z" fill="lightgray" class="stroke step1"/>
    <path d="M 436 712 Q 443 715 452 717 Q 467 718 483 728 Q 490 732 488 739 Q 487 745 474 748 Q 455 747 433 742 L 389 735 Q 287 723 193 715 Q 183 716 181 712 Q 178 705 185 695 Q 198 680 225 669 Q 241 660 259 665 Q 326 683 399 702 L 436 712 Z" fill="lightgray" class="stroke step1"/>
    <path d="M 646 766 Q 655 785 670 808 Q 683 821 675 831 Q 665 847 632 864 Q 617 874 601 866 Q 591 862 598 850 Q 605 828 592 760 L 583 727 Q 561 664 562 645 Q 563 633 577 640 Q 590 652 627 723 L 646 766 Z" fill="lightgray" class="hide"/>
    <path d="M 627 723 Q 714 747 840 731 Q 853 730 858 737 Q 862 747 852 760 Q 809 796 731 778 Q 692 774 646 766 L 592 760 Q 579 760 565 758 Q 540 757 557 742 Q 570 732 583 727 C 605 717 605 717 627 723 Z" fill="lightgray" class="hide"/>
    <path d="M 387 585 Q 408 604 419 611 Q 429 620 428 629 Q 427 641 405 650 Q 380 662 370 660 Q 363 659 359 648 Q 343 596 217 510 Q 198 500 222 500 Q 267 497 364 567 L 387 585 Z" fill="lightgray" class="hide"/>
    <path d="M 364 567 Q 409 546 440 555 Q 482 568 675 598 Q 708 602 720 587 Q 741 565 743 510 Q 750 341 740 231 Q 716 57 684 39 Q 674 33 600 50 Q 588 53 586 49 Q 582 42 600 27 Q 637 -13 654 -49 Q 676 -80 695 -74 Q 711 -70 733 -38 Q 764 2 784 79 Q 805 170 810 467 Q 810 545 830 571 Q 848 593 824 611 Q 749 659 712 646 Q 567 609 387 585 C 357 581 336 577 364 567 Z" fill="lightgray" class="hide"/>
    <path d="M 314 486 Q 284 480 306 468 Q 340 450 385 461 Q 434 473 485 484 Q 507 490 512 493 Q 519 500 515 507 Q 508 516 485 521 Q 460 525 437 515 Q 412 505 382 498 Q 351 491 314 486 Z" fill="lightgray" class="hide"/>
    <path d="M 272 409 Q 262 413 238 415 Q 228 416 224 412 Q 220 406 228 392 Q 249 361 266 307 Q 270 291 281 281 Q 297 263 302 277 Q 303 284 303 295 L 299 325 Q 290 370 289 385 C 287 404 287 404 272 409 Z" fill="lightgray" class="hide"/>
    <path d="M 532 347 Q 550 380 572 390 Q 587 405 576 420 Q 563 432 521 455 Q 508 462 489 456 Q 408 429 272 409 C 242 405 260 378 289 385 Q 289 386 291 386 Q 381 401 466 416 Q 488 420 497 412 Q 503 405 488 358 C 479 329 517 321 532 347 Z" fill="lightgray" class="hide"/>
    <path d="M 303 295 Q 307 295 313 296 Q 383 311 537 322 Q 546 323 547 330 Q 547 336 532 347 C 513 362 513 362 488 358 Q 484 358 481 357 Q 381 335 299 325 C 269 321 273 292 303 295 Z" fill="lightgray" class="hide"/>
    <path d="M 228 234 Q 218 240 180 243 Q 167 246 165 240 Q 159 233 169 218 Q 203 160 227 62 Q 233 32 251 14 Q 270 -7 274 10 Q 275 17 276 27 L 273 58 Q 272 67 270 75 Q 246 169 239 202 C 233 231 232 232 228 234 Z" fill="lightgray" class="hide"/>
    <path d="M 494 50 Q 512 22 528 13 Q 538 4 555 26 Q 568 45 599 153 Q 609 184 633 209 Q 646 222 635 236 Q 620 254 578 281 Q 562 290 501 277 Q 482 274 459 271 Q 327 253 228 234 C 199 228 210 195 239 202 Q 287 215 357 225 L 395 230 Q 515 251 537 235 Q 547 226 545 210 Q 523 90 505 78 C 490 56 490 56 494 50 Z" fill="lightgray" class="hide"/>
    <path d="M 412 142 Q 443 146 471 149 Q 493 153 485 165 Q 475 178 451 183 Q 436 186 415 181 L 366 170 Q 330 161 299 152 Q 283 149 302 134 Q 305 133 367 136 L 412 142 Z" fill="lightgray" class="hide"/>
    <path d="M 408 80 Q 409 114 412 142 L 415 181 Q 415 217 397 228 L 395 230 C 372 249 346 253 357 225 Q 363 213 366 170 L 367 136 Q 367 111 369 73 C 371 43 407 50 408 80 Z" fill="lightgray" class="hide"/>
    <path d="M 276 27 Q 282 26 292 27 Q 356 42 494 50 C 524 52 528 59 505 78 Q 501 82 492 88 Q 470 100 408 80 L 369 73 Q 317 66 273 58 C 243 53 246 29 276 27 Z" fill="lightgray" class="hide"/></g><g transform="scale(1, -1) translate(0, -900)">
    <style type="text/css">
        .origin {display:none;}
        .hide {display:none;}
        .stroke {fill: #000000;}
        
.step1 {transform: translateX(1024px);}
.step2 {transform: translateX(2048px);}
.step3 {transform: translateX(3072px);}
.step4 {transform: translateX(4096px);}
.step5 {transform: translateX(5120px);}
.step6 {transform: translateX(6144px);}
.step7 {transform: translateX(7168px);}
.step8 {transform: translateX(8192px);}
.step9 {transform: translateX(9216px);}
.step10 {transform: translateX(10240px);}
.step11 {transform: translateX(11264px);}
.step12 {transform: translateX(12288px);}
.step13 {transform: translateX(13312px);}
.step14 {transform: translateX(14336px);}
.step15 {transform: translateX(15360px);}
.step16 {transform: translateX(16384px);}
.step17 {transform: translateX(17408px);}
.step18 {transform: translateX(18432px);}
.step19 {transform: translateX(19456px);}
.step20 {transform: translateX(20480px);}
.step21 {transform: translateX(21504px);}
.step22 {transform: translateX(22528px);}
.step23 {transform: translateX(23552px);}
.step24 {transform: translateX(24576px);}
.step25 {transform: translateX(25600px);}
.step26 {transform: translateX(26624px);}
.step27 {transform: translateX(27648px);}
.step28 {transform: translateX(28672px);}
.step29 {transform: translateX(29696px);}
    </style>

    <path d="M 433 742 Q 430 773 429 796 Q 430 815 411 819 Q 375 837 354 829 Q 338 820 352 803 Q 377 778 389 735 L 399 702 Q 408 675 420 663 Q 433 653 436 664 Q 442 683 437 703 Q 436 707 436 712 L 433 742 Z" fill="lightgray" class="stroke step2"/>
    <path d="M 436 712 Q 443 715 452 717 Q 467 718 483 728 Q 490 732 488 739 Q 487 745 474 748 Q 455 747 433 742 L 389 735 Q 287 723 193 715 Q 183 716 181 712 Q 178 705 185 695 Q 198 680 225 669 Q 241 660 259 665 Q 326 683 399 702 L 436 712 Z" fill="lightgray" class="stroke step2"/>
    <path d="M 646 766 Q 655 785 670 808 Q 683 821 675 831 Q 665 847 632 864 Q 617 874 601 866 Q 591 862 598 850 Q 605 828 592 760 L 583 727 Q 561 664 562 645 Q 563 633 577 640 Q 590 652 627 723 L 646 766 Z" fill="lightgray" class="stroke step2"/>
    <path d="M 627 723 Q 714 747 840 731 Q 853 730 858 737 Q 862 747 852 760 Q 809 796 731 778 Q 692 774 646 766 L 592 760 Q 579 760 565 758 Q 540 757 557 742 Q 570 732 583 727 C 605 717 605 717 627 723 Z" fill="lightgray" class="hide"/>
    <path d="M 387 585 Q 408 604 419 611 Q 429 620 428 629 Q 427 641 405 650 Q 380 662 370 660 Q 363 659 359 648 Q 343 596 217 510 Q 198 500 222 500 Q 267 497 364 567 L 387 585 Z" fill="lightgray" class="hide"/>
    <path d="M 364 567 Q 409 546 440 555 Q 482 568 675 598 Q 708 602 720 587 Q 741 565 743 510 Q 750 341 740 231 Q 716 57 684 39 Q 674 33 600 50 Q 588 53 586 49 Q 582 42 600 27 Q 637 -13 654 -49 Q 676 -80 695 -74 Q 711 -70 733 -38 Q 764 2 784 79 Q 805 170 810 467 Q 810 545 830 571 Q 848 593 824 611 Q 749 659 712 646 Q 567 609 387 585 C 357 581 336 577 364 567 Z" fill="lightgray" class="hide"/>
    <path d="M 314 486 Q 284 480 306 468 Q 340 450 385 461 Q 434 473 485 484 Q 507 490 512 493 Q 519 500 515 507 Q 508 516 485 521 Q 460 525 437 515 Q 412 505 382 498 Q 351 491 314 486 Z" fill="lightgray" class="hide"/>
    <path d="M 272 409 Q 262 413 238 415 Q 228 416 224 412 Q 220 406 228 392 Q 249 361 266 307 Q 270 291 281 281 Q 297 263 302 277 Q 303 284 303 295 L 299 325 Q 290 370 289 385 C 287 404 287 404 272 409 Z" fill="lightgray" class="hide"/>
    <path d="M 532 347 Q 550 380 572 390 Q 587 405 576 420 Q 563 432 521 455 Q 508 462 489 456 Q 408 429 272 409 C 242 405 260 378 289 385 Q 289 386 291 386 Q 381 401 466 416 Q 488 420 497 412 Q 503 405 488 358 C 479 329 517 321 532 347 Z" fill="lightgray" class="hide"/>
    <path d="M 303 295 Q 307 295 313 296 Q 383 311 537 322 Q 546 323 547 330 Q 547 336 532 347 C 513 362 513 362 488 358 Q 484 358 481 357 Q 381 335 299 325 C 269 321 273 292 303 295 Z" fill="lightgray" class="hide"/>
    <path d="M 228 234 Q 218 240 180 243 Q 167 246 165 240 Q 159 233 169 218 Q 203 160 227 62 Q 233 32 251 14 Q 270 -7 274 10 Q 275 17 276 27 L 273 58 Q 272 67 270 75 Q 246 169 239 202 C 233 231 232 232 228 234 Z" fill="lightgray" class="hide"/>
    <path d="M 494 50 Q 512 22 528 13 Q 538 4 555 26 Q 568 45 599 153 Q 609 184 633 209 Q 646 222 635 236 Q 620 254 578 281 Q 562 290 501 277 Q 482 274 459 271 Q 327 253 228 234 C 199 228 210 195 239 202 Q 287 215 357 225 L 395 230 Q 515 251 537 235 Q 547 226 545 210 Q 523 90 505 78 C 490 56 490 56 494 50 Z" fill="lightgray" class="hide"/>
    <path d="M 412 142 Q 443 146 471 149 Q 493 153 485 165 Q 475 178 451 183 Q 436 186 415 181 L 366 170 Q 330 161 299 152 Q 283 149 302 134 Q 305 133 367 136 L 412 142 Z" fill="lightgray" class="hide"/>
    <path d="M 408 80 Q 409 114 412 142 L 415 181 Q 415 217 397 228 L 395 230 C 372 249 346 253 357 225 Q 363 213 366 170 L 367 136 Q 367 111 369 73 C 371 43 407 50 408 80 Z" fill="lightgray" class="hide"/>
    <path d="M 276 27 Q 282 26 292 27 Q 356 42 494 50 C 524 52 528 59 505 78 Q 501 82 492 88 Q 470 100 408 80 L 369 73 Q 317 66 273 58 C 243 53 246 29 276 27 Z" fill="lightgray" class="hide"/></g><g transform="scale(1, -1) translate(0, -900)">
    <style type="text/css">
        .origin {display:none;}
        .hide {display:none;}
        .stroke {fill: #000000;}
        
.step1 {transform: translateX(1024px);}
.step2 {transform: translateX(2048px);}
.step3 {transform: translateX(3072px);}
.step4 {transform: translateX(4096px);}
.step5 {transform: translateX(5120px);}
.step6 {transform: translateX(6144px);}
.step7 {transform: translateX(7168px);}
.step8 {transform: translateX(8192px);}
.step9 {transform: translateX(9216px);}
.step10 {transform: translateX(10240px);}
.step11 {transform: translateX(11264px);}
.step12 {transform: translateX(12288px);}
.step13 {transform: translateX(13312px);}
.step14 {transform: translateX(14336px);}
.step15 {transform: translateX(15360px);}
.step16 {transform: translateX(16384px);}
.step17 {transform: translateX(17408px);}
.step18 {transform: translateX(18432px);}
.step19 {transform: translateX(19456px);}
.step20 {transform: translateX(20480px);}
.step21 {transform: translateX(21504px);}
.step22 {transform: translateX(22528px);}
.step23 {transform: translateX(23552px);}
.step24 {transform: translateX(24576px);}
.step25 {transform: translateX(25600px);}
.step26 {transform: translateX(26624px);}
.step27 {transform: translateX(27648px);}
.step28 {transform: translateX(28672px);}
.step29 {transform: translateX(29696px);}
    </style>

    <path d="M 433 742 Q 430 773 429 796 Q 430 815 411 819 Q 375 837 354 829 Q 338 820 352 803 Q 377 778 389 735 L 399 702 Q 408 675 420 663 Q 433 653 436 664 Q 442 683 437 703 Q 436 707 436 712 L 433 742 Z" fill="lightgray" class="stroke step3"/>
    <path d="M 436 712 Q 443 715 452 717 Q 467 718 483 728 Q 490 732 488 739 Q 487 745 474 748 Q 455 747 433 742 L 389 735 Q 287 723 193 715 Q 183 716 181 712 Q 178 705 185 695 Q 198 680 225 669 Q 241 660 259 665 Q 326 683 399 702 L 436 712 Z" fill="lightgray" class="stroke step3"/>
    <path d="M 646 766 Q 655 785 670 808 Q 683 821 675 831 Q 665 847 632 864 Q 617 874 601 866 Q 591 862 598 850 Q 605 828 592 760 L 583 727 Q 561 664 562 645 Q 563 633 577 640 Q 590 652 627 723 L 646 766 Z" fill="lightgray" class="stroke step3"/>
    <path d="M 627 723 Q 714 747 840 731 Q 853 730 858 737 Q 862 747 852 760 Q 809 796 731 778 Q 692 774 646 766 L 592 760 Q 579 760 565 758 Q 540 757 557 742 Q 570 732 583 727 C 605 717 605 717 627 723 Z" fill="lightgray" class="stroke step3"/>
    <path d="M 387 585 Q 408 604 419 611 Q 429 620 428 629 Q 427 641 405 650 Q 380 662 370 660 Q 363 659 359 648 Q 343 596 217 510 Q 198 500 222 500 Q 267 497 364 567 L 387 585 Z" fill="lightgray" class="hide"/>
    <path d="M 364 567 Q 409 546 440 555 Q 482 568 675 598 Q 708 602 720 587 Q 741 565 743 510 Q 750 341 740 231 Q 716 57 684 39 Q 674 33 600 50 Q 588 53 586 49 Q 582 42 600 27 Q 637 -13 654 -49 Q 676 -80 695 -74 Q 711 -70 733 -38 Q 764 2 784 79 Q 805 170 810 467 Q 810 545 830 571 Q 848 593 824 611 Q 749 659 712 646 Q 567 609 387 585 C 357 581 336 577 364 567 Z" fill="lightgray" class="hide"/>
    <path d="M 314 486 Q 284 480 306 468 Q 340 450 385 461 Q 434 473 485 484 Q 507 490 512 493 Q 519 500 515 507 Q 508 516 485 521 Q 460 525 437 515 Q 412 505 382 498 Q 351 491 314 486 Z" fill="lightgray" class="hide"/>
    <path d="M 272 409 Q 262 413 238 415 Q 228 416 224 412 Q 220 406 228 392 Q 249 361 266 307 Q 270 291 281 281 Q 297 263 302 277 Q 303 284 303 295 L 299 325 Q 290 370 289 385 C 287 404 287 404 272 409 Z" fill="lightgray" class="hide"/>
    <path d="M 532 347 Q 550 380 572 390 Q 587 405 576 420 Q 563 432 521 455 Q 508 462 489 456 Q 408 429 272 409 C 242 405 260 378 289 385 Q 289 386 291 386 Q 381 401 466 416 Q 488 420 497 412 Q 503 405 488 358 C 479 329 517 321 532 347 Z" fill="lightgray" class="hide"/>
    <path d="M 303 295 Q 307 295 313 296 Q 383 311 537 322 Q 546 323 547 330 Q 547 336 532 347 C 513 362 513 362 488 358 Q 484 358 481 357 Q 381 335 299 325 C 269 321 273 292 303 295 Z" fill="lightgray" class="hide"/>
    <path d="M 228 234 Q 218 240 180 243 Q 167 246 165 240 Q 159 233 169 218 Q 203 160 227 62 Q 233 32 251 14 Q 270 -7 274 10 Q 275 17 276 27 L 273 58 Q 272 67 270 75 Q 246 169 239 202 C 233 231 232 232 228 234 Z" fill="lightgray" class="hide"/>
    <path d="M 494 50 Q 512 22 528 13 Q 538 4 555 26 Q 568 45 599 153 Q 609 184 633 209 Q 646 222 635 236 Q 620 254 578 281 Q 562 290 501 277 Q 482 274 459 271 Q 327 253 228 234 C 199 228 210 195 239 202 Q 287 215 357 225 L 395 230 Q 515 251 537 235 Q 547 226 545 210 Q 523 90 505 78 C 490 56 490 56 494 50 Z" fill="lightgray" class="hide"/>
    <path d="M 412 142 Q 443 146 471 149 Q 493 153 485 165 Q 475 178 451 183 Q 436 186 415 181 L 366 170 Q 330 161 299 152 Q 283 149 302 134 Q 305 133 367 136 L 412 142 Z" fill="lightgray" class="hide"/>
    <path d="M 408 80 Q 409 114 412 142 L 415 181 Q 415 217 397 228 L 395 230 C 372 249 346 253 357 225 Q 363 213 366 170 L 367 136 Q 367 111 369 73 C 371 43 407 50 408 80 Z" fill="lightgray" class="hide"/>
    <path d="M 276 27 Q 282 26 292 27 Q 356 42 494 50 C 524 52 528 59 505 78 Q 501 82 492 88 Q 470 100 408 80 L 369 73 Q 317 66 273 58 C 243 53 246 29 276 27 Z" fill="lightgray" class="hide"/></g><g transform="scale(1, -1) translate(0, -900)">
    <style type="text/css">
        .origin {display:none;}
        .hide {display:none;}
        .stroke {fill: #000000;}
        
.step1 {transform: translateX(1024px);}
.step2 {transform: translateX(2048px);}
.step3 {transform: translateX(3072px);}
.step4 {transform: translateX(4096px);}
.step5 {transform: translateX(5120px);}
.step6 {transform: translateX(6144px);}
.step7 {transform: translateX(7168px);}
.step8 {transform: translateX(8192px);}
.step9 {transform: translateX(9216px);}
.step10 {transform: translateX(10240px);}
.step11 {transform: translateX(11264px);}
.step12 {transform: translateX(12288px);}
.step13 {transform: translateX(13312px);}
.step14 {transform: translateX(14336px);}
.step15 {transform: translateX(15360px);}
.step16 {transform: translateX(16384px);}
.step17 {transform: translateX(17408px);}
.step18 {transform: translateX(18432px);}
.step19 {transform: translateX(19456px);}
.step20 {transform: translateX(20480px);}
.step21 {transform: translateX(21504px);}
.step22 {transform: translateX(22528px);}
.step23 {transform: translateX(23552px);}
.step24 {transform: translateX(24576px);}
.step25 {transform: translateX(25600px);}
.step26 {transform: translateX(26624px);}
.step27 {transform: translateX(27648px);}
.step28 {transform: translateX(28672px);}
.step29 {transform: translateX(29696px);}
    </style>

    <path d="M 433 742 Q 430 773 429 796 Q 430 815 411 819 Q 375 837 354 829 Q 338 820 352 803 Q 377 778 389 735 L 399 702 Q 408 675 420 663 Q 433 653 436 664 Q 442 683 437 703 Q 436 707 436 712 L 433 742 Z" fill="lightgray" class="stroke step4"/>
    <path d="M 436 712 Q 443 715 452 717 Q 467 718 483 728 Q 490 732 488 739 Q 487 745 474 748 Q 455 747 433 742 L 389 735 Q 287 723 193 715 Q 183 716 181 712 Q 178 705 185 695 Q 198 680 225 669 Q 241 660 259 665 Q 326 683 399 702 L 436 712 Z" fill="lightgray" class="stroke step4"/>
    <path d="M 646 766 Q 655 785 670 808 Q 683 821 675 831 Q 665 847 632 864 Q 617 874 601 866 Q 591 862 598 850 Q 605 828 592 760 L 583 727 Q 561 664 562 645 Q 563 633 577 640 Q 590 652 627 723 L 646 766 Z" fill="lightgray" class="stroke step4"/>
    <path d="M 627 723 Q 714 747 840 731 Q 853 730 858 737 Q 862 747 852 760 Q 809 796 731 778 Q 692 774 646 766 L 592 760 Q 579 760 565 758 Q 540 757 557 742 Q 570 732 583 727 C 605 717 605 717 627 723 Z" fill="lightgray" class="stroke step4"/>
    <path d="M 387 585 Q 408 604 419 611 Q 429 620 428 629 Q 427 641 405 650 Q 380 662 370 660 Q 363 659 359 648 Q 343 596 217 510 Q 198 500 222 500 Q 267 497 364 567 L 387 585 Z" fill="lightgray" class="stroke step4"/>
    <path d="M 364 567 Q 409 546 440 555 Q 482 568 675 598 Q 708 602 720 587 Q 741 565 743 510 Q 750 341 740 231 Q 716 57 684 39 Q 674 33 600 50 Q 588 53 586 49 Q 582 42 600 27 Q 637 -13 654 -49 Q 676 -80 695 -74 Q 711 -70 733 -38 Q 764 2 784 79 Q 805 170 810 467 Q 810 545 830 571 Q 848 593 824 611 Q 749 659 712 646 Q 567 609 387 585 C 357 581 336 577 364 567 Z" fill="lightgray" class="hide"/>
    <path d="M 314 486 Q 284 480 306 468 Q 340 450 385 461 Q 434 473 485 484 Q 507 490 512 493 Q 519 500 515 507 Q 508 516 485 521 Q 460 525 437 515 Q 412 505 382 498 Q 351 491 314 486 Z" fill="lightgray" class="hide"/>
    <path d="M 272 409 Q 262 413 238 415 Q 228 416 224 412 Q 220 406 228 392 Q 249 361 266 307 Q 270 291 281 281 Q 297 263 302 277 Q 303 284 303 295 L 299 325 Q 290 370 289 385 C 287 404 287 404 272 409 Z" fill="lightgray" class="hide"/>
    <path d="M 532 347 Q 550 380 572 390 Q 587 405 576 420 Q 563 432 521 455 Q 508 462 489 456 Q 408 429 272 409 C 242 405 260 378 289 385 Q 289 386 291 386 Q 381 401 466 416 Q 488 420 497 412 Q 503 405 488 358 C 479 329 517 321 532 347 Z" fill="lightgray" class="hide"/>
    <path d="M 303 295 Q 307 295 313 296 Q 383 311 537 322 Q 546 323 547 330 Q 547 336 532 347 C 513 362 513 362 488 358 Q 484 358 481 357 Q 381 335 299 325 C 269 321 273 292 303 295 Z" fill="lightgray" class="hide"/>
    <path d="M 228 234 Q 218 240 180 243 Q 167 246 165 240 Q 159 233 169 218 Q 203 160 227 62 Q 233 32 251 14 Q 270 -7 274 10 Q 275 17 276 27 L 273 58 Q 272 67 270 75 Q 246 169 239 202 C 233 231 232 232 228 234 Z" fill="lightgray" class="hide"/>
    <path d="M 494 50 Q 512 22 528 13 Q 538 4 555 26 Q 568 45 599 153 Q 609 184 633 209 Q 646 222 635 236 Q 620 254 578 281 Q 562 290 501 277 Q 482 274 459 271 Q 327 253 228 234 C 199 228 210 195 239 202 Q 287 215 357 225 L 395 230 Q 515 251 537 235 Q 547 226 545 210 Q 523 90 505 78 C 490 56 490 56 494 50 Z" fill="lightgray" class="hide"/>
    <path d="M 412 142 Q 443 146 471 149 Q 493 153 485 165 Q 475 178 451 183 Q 436 186 415 181 L 366 170 Q 330 161 299 152 Q 283 149 302 134 Q 305 133 367 136 L 412 142 Z" fill="lightgray" class="hide"/>
    <path d="M 408 80 Q 409 114 412 142 L 415 181 Q 415 217 397 228 L 395 230 C 372 249 346 253 357 225 Q 363 213 366 170 L 367 136 Q 367 111 369 73 C 371 43 407 50 408 80 Z" fill="lightgray" class="hide"/>
    <path d="M 276 27 Q 282 26 292 27 Q 356 42 494 50 C 524 52 528 59 505 78 Q 501 82 492 88 Q 470 100 408 80 L 369 73 Q 317 66 273 58 C 243 53 246 29 276 27 Z" fill="lightgray" class="hide"/></g><g transform="scale(1, -1) translate(0, -900)">
    <style type="text/css">
        .origin {display:none;}
        .hide {display:none;}
        .stroke {fill: #000000;}
        
.step1 {transform: translateX(1024px);}
.step2 {transform: translateX(2048px);}
.step3 {transform: translateX(3072px);}
.step4 {transform: translateX(4096px);}
.step5 {transform: translateX(5120px);}
.step6 {transform: translateX(6144px);}
.step7 {transform: translateX(7168px);}
.step8 {transform: translateX(8192px);}
.step9 {transform: translateX(9216px);}
.step10 {transform: translateX(10240px);}
.step11 {transform: translateX(11264px);}
.step12 {transform: translateX(12288px);}
.step13 {transform: translateX(13312px);}
.step14 {transform: translateX(14336px);}
.step15 {transform: translateX(15360px);}
.step16 {transform: translateX(16384px);}
.step17 {transform: translateX(17408px);}
.step18 {transform: translateX(18432px);}
.step19 {transform: translateX(19456px);}
.step20 {transform: translateX(20480px);}
.step21 {transform: translateX(21504px);}
.step22 {transform: translateX(22528px);}
.step23 {transform: translateX(23552px);}
.step24 {transform: translateX(24576px);}
.step25 {transform: translateX(25600px);}
.step26 {transform: translateX(26624px);}
.step27 {transform: translateX(27648px);}
.step28 {transform: translateX(28672px);}
.step29 {transform: translateX(29696px);}
    </style>

    <path d="M 433 742 Q 430 773 429 796 Q 430 815 411 819 Q 375 837 354 829 Q 338 820 352 803 Q 377 778 389 735 L 399 702 Q 408 675 420 663 Q 433 653 436 664 Q 442 683 437 703 Q 436 707 436 712 L 433 742 Z" fill="lightgray" class="stroke step5"/>
    <path d="M 436 712 Q 443 715 452 717 Q 467 718 483 728 Q 490 732 488 739 Q 487 745 474 748 Q 455 747 433 742 L 389 735 Q 287 723 193 715 Q 183 716 181 712 Q 178 705 185 695 Q 198 680 225 669 Q 241 660 259 665 Q 326 683 399 702 L 436 712 Z" fill="lightgray" class="stroke step5"/>
    <path d="M 646 766 Q 655 785 670 808 Q 683 821 675 831 Q 665 847 632 864 Q 617 874 601 866 Q 591 862 598 850 Q 605 828 592 760 L 583 727 Q 561 664 562 645 Q 563 633 577 640 Q 590 652 627 723 L 646 766 Z" fill="lightgray" class="stroke step5"/>
    <path d="M 627 723 Q 714 747 840 731 Q 853 730 858 737 Q 862 747 852 760 Q 809 796 731 778 Q 692 774 646 766 L 592 760 Q 579 760 565 758 Q 540 757 557 742 Q 570 732 583 727 C 605 717 605 717 627 723 Z" fill="lightgray" class="stroke step5"/>
    <path d="M 387 585 Q 408 604 419 611 Q 429 620 428 629 Q 427 641 405 650 Q 380 662 370 660 Q 363 659 359 648 Q 343 596 217 510 Q 198 500 222 500 Q 267 497 364 567 L 387 585 Z" fill="lightgray" class="stroke step5"/>
    <path d="M 364 567 Q 409 546 440 555 Q 482 568 675 598 Q 708 602 720 587 Q 741 565 743 510 Q 750 341 740 231 Q 716 57 684 39 Q 674 33 600 50 Q 588 53 586 49 Q 582 42 600 27 Q 637 -13 654 -49 Q 676 -80 695 -74 Q 711 -70 733 -38 Q 764 2 784 79 Q 805 170 810 467 Q 810 545 830 571 Q 848 593 824 611 Q 749 659 712 646 Q 567 609 387 585 C 357 581 336 577 364 567 Z" fill="lightgray" class="stroke step5"/>
    <path d="M 314 486 Q 284 480 306 468 Q 340 450 385 461 Q 434 473 485 484 Q 507 490 512 493 Q 519 500 515 507 Q 508 516 485 521 Q 460 525 437 515 Q 412 505 382 498 Q 351 491 314 486 Z" fill="lightgray" class="hide"/>
    <path d="M 272 409 Q 262 413 238 415 Q 228 416 224 412 Q 220 406 228 392 Q 249 361 266 307 Q 270 291 281 281 Q 297 263 302 277 Q 303 284 303 295 L 299 325 Q 290 370 289 385 C 287 404 287 404 272 409 Z" fill="lightgray" class="hide"/>
    <path d="M 532 347 Q 550 380 572 390 Q 587 405 576 420 Q 563 432 521 455 Q 508 462 489 456 Q 408 429 272 409 C 242 405 260 378 289 385 Q 289 386 291 386 Q 381 401 466 416 Q 488 420 497 412 Q 503 405 488 358 C 479 329 517 321 532 347 Z" fill="lightgray" class="hide"/>
    <path d="M 303 295 Q 307 295 313 296 Q 383 311 537 322 Q 546 323 547 330 Q 547 336 532 347 C 513 362 513 362 488 358 Q 484 358 481 357 Q 381 335 299 325 C 269 321 273 292 303 295 Z" fill="lightgray" class="hide"/>
    <path d="M 228 234 Q 218 240 180 243 Q 167 246 165 240 Q 159 233 169 218 Q 203 160 227 62 Q 233 32 251 14 Q 270 -7 274 10 Q 275 17 276 27 L 273 58 Q 272 67 270 75 Q 246 169 239 202 C 233 231 232 232 228 234 Z" fill="lightgray" class="hide"/>
    <path d="M 494 50 Q 512 22 528 13 Q 538 4 555 26 Q 568 45 599 153 Q 609 184 633 209 Q 646 222 635 236 Q 620 254 578 281 Q 562 290 501 277 Q 482 274 459 271 Q 327 253 228 234 C 199 228 210 195 239 202 Q 287 215 357 225 L 395 230 Q 515 251 537 235 Q 547 226 545 210 Q 523 90 505 78 C 490 56 490 56 494 50 Z" fill="lightgray" class="hide"/>
    <path d="M 412 142 Q 443 146 471 149 Q 493 153 485 165 Q 475 178 451 183 Q 436 186 415 181 L 366 170 Q 330 161 299 152 Q 283 149 302 134 Q 305 133 367 136 L 412 142 Z" fill="lightgray" class="hide"/>
    <path d="M 408 80 Q 409 114 412 142 L 415 181 Q 415 217 397 228 L 395 230 C 372 249 346 253 357 225 Q 363 213 366 170 L 367 136 Q 367 111 369 73 C 371 43 407 50 408 80 Z" fill="lightgray" class="hide"/>
    <path d="M 276 27 Q 282 26 292 27 Q 356 42 494 50 C 524 52 528 59 505 78 Q 501 82 492 88 Q 470 100 408 80 L 369 73 Q 317 66 273 58 C 243 53 246 29 276 27 Z" fill="lightgray" class="hide"/></g><g transform="scale(1, -1) translate(0, -900)">
    <style type="text/css">
        .origin {display:none;}
        .hide {display:none;}
        .stroke {fill: #000000;}
        
.step1 {transform: translateX(1024px);}
.step2 {transform: translateX(2048px);}
.step3 {transform: translateX(3072px);}
.step4 {transform: translateX(4096px);}
.step5 {transform: translateX(5120px);}
.step6 {transform: translateX(6144px);}
.step7 {transform: translateX(7168px);}
.step8 {transform: translateX(8192px);}
.step9 {transform: translateX(9216px);}
.step10 {transform: translateX(10240px);}
.step11 {transform: translateX(11264px);}
.step12 {transform: translateX(12288px);}
.step13 {transform: translateX(13312px);}
.step14 {transform: translateX(14336px);}
.step15 {transform: translateX(15360px);}
.step16 {transform: translateX(16384px);}
.step17 {transform: translateX(17408px);}
.step18 {transform: translateX(18432px);}
.step19 {transform: translateX(19456px);}
.step20 {transform: translateX(20480px);}
.step21 {transform: translateX(21504px);}
.step22 {transform: translateX(22528px);}
.step23 {transform: translateX(23552px);}
.step24 {transform: translateX(24576px);}
.step25 {transform: translateX(25600px);}
.step26 {transform: translateX(26624px);}
.step27 {transform: translateX(27648px);}
.step28 {transform: translateX(28672px);}
.step29 {transform: translateX(29696px);}
    </style>

    <path d="M 433 742 Q 430 773 429 796 Q 430 815 411 819 Q 375 837 354 829 Q 338 820 352 803 Q 377 778 389 735 L 399 702 Q 408 675 420 663 Q 433 653 436 664 Q 442 683 437 703 Q 436 707 436 712 L 433 742 Z" fill="lightgray" class="stroke step6"/>
    <path d="M 436 712 Q 443 715 452 717 Q 467 718 483 728 Q 490 732 488 739 Q 487 745 474 748 Q 455 747 433 742 L 389 735 Q 287 723 193 715 Q 183 716 181 712 Q 178 705 185 695 Q 198 680 225 669 Q 241 660 259 665 Q 326 683 399 702 L 436 712 Z" fill="lightgray" class="stroke step6"/>
    <path d="M 646 766 Q 655 785 670 808 Q 683 821 675 831 Q 665 847 632 864 Q 617 874 601 866 Q 591 862 598 850 Q 605 828 592 760 L 583 727 Q 561 664 562 645 Q 563 633 577 640 Q 590 652 627 723 L 646 766 Z" fill="lightgray" class="stroke step6"/>
    <path d="M 627 723 Q 714 747 840 731 Q 853 730 858 737 Q 862 747 852 760 Q 809 796 731 778 Q 692 774 646 766 L 592 760 Q 579 760 565 758 Q 540 757 557 742 Q 570 732 583 727 C 605 717 605 717 627 723 Z" fill="lightgray" class="stroke step6"/>
    <path d="M 387 585 Q 408 604 419 611 Q 429 620 428 629 Q 427 641 405 650 Q 380 662 370 660 Q 363 659 359 648 Q 343 596 217 510 Q 198 500 222 500 Q 267 497 364 567 L 387 585 Z" fill="lightgray" class="stroke step6"/>
    <path d="M 364 567 Q 409 546 440 555 Q 482 568 675 598 Q 708 602 720 587 Q 741 565 743 510 Q 750 341 740 231 Q 716 57 684 39 Q 674 33 600 50 Q 588 53 586 49 Q 582 42 600 27 Q 637 -13 654 -49 Q 676 -80 695 -74 Q 711 -70 733 -38 Q 764 2 784 79 Q 805 170 810 467 Q 810 545 830 571 Q 848 593 824 611 Q 749 659 712 646 Q 567 609 387 585 C 357 581 336 577 364 567 Z" fill="lightgray" class="stroke step6"/>
    <path d="M 314 486 Q 284 480 306 468 Q 340 450 385 461 Q 434 473 485 484 Q 507 490 512 493 Q 519 500 515 507 Q 508 516 485 521 Q 460 525 437 515 Q 412 505 382 498 Q 351 491 314 486 Z" fill="lightgray" class="stroke step6"/>
    <path d="M 272 409 Q 262 413 238 415 Q 228 416 224 412 Q 220 406 228 392 Q 249 361 266 307 Q 270 291 281 281 Q 297 263 302 277 Q 303 284 303 295 L 299 325 Q 290 370 289 385 C 287 404 287 404 272 409 Z" fill="lightgray" class="hide"/>
    <path d="M 532 347 Q 550 380 572 390 Q 587 405 576 420 Q 563 432 521 455 Q 508 462 489 456 Q 408 429 272 409 C 242 405 260 378 289 385 Q 289 386 291 386 Q 381 401 466 416 Q 488 420 497 412 Q 503 405 488 358 C 479 329 517 321 532 347 Z" fill="lightgray" class="hide"/>
    <path d="M 303 295 Q 307 295 313 296 Q 383 311 537 322 Q 546 323 547 330 Q 547 336 532 347 C 513 362 513 362 488 358 Q 484 358 481 357 Q 381 335 299 325 C 269 321 273 292 303 295 Z" fill="lightgray" class="hide"/>
    <path d="M 228 234 Q 218 240 180 243 Q 167 246 165 240 Q 159 233 169 218 Q 203 160 227 62 Q 233 32 251 14 Q 270 -7 274 10 Q 275 17 276 27 L 273 58 Q 272 67 270 75 Q 246 169 239 202 C 233 231 232 232 228 234 Z" fill="lightgray" class="hide"/>
    <path d="M 494 50 Q 512 22 528 13 Q 538 4 555 26 Q 568 45 599 153 Q 609 184 633 209 Q 646 222 635 236 Q 620 254 578 281 Q 562 290 501 277 Q 482 274 459 271 Q 327 253 228 234 C 199 228 210 195 239 202 Q 287 215 357 225 L 395 230 Q 515 251 537 235 Q 547 226 545 210 Q 523 90 505 78 C 490 56 490 56 494 50 Z" fill="lightgray" class="hide"/>
    <path d="M 412 142 Q 443 146 471 149 Q 493 153 485 165 Q 475 178 451 183 Q 436 186 415 181 L 366 170 Q 330 161 299 152 Q 283 149 302 134 Q 305 133 367 136 L 412 142 Z" fill="lightgray" class="hide"/>
    <path d="M 408 80 Q 409 114 412 142 L 415 181 Q 415 217 397 228 L 395 230 C 372 249 346 253 357 225 Q 363 213 366 170 L 367 136 Q 367 111 369 73 C 371 43 407 50 408 80 Z" fill="lightgray" class="hide"/>
    <path d="M 276 27 Q 282 26 292 27 Q 356 42 494 50 C 524 52 528 59 505 78 Q 501 82 492 88 Q 470 100 408 80 L 369 73 Q 317 66 273 58 C 243 53 246 29 276 27 Z" fill="lightgray" class="hide"/></g><g transform="scale(1, -1) translate(0, -900)">
    <style type="text/css">
        .origin {display:none;}
        .hide {display:none;}
        .stroke {fill: #000000;}
        
.step1 {transform: translateX(1024px);}
.step2 {transform: translateX(2048px);}
.step3 {transform: translateX(3072px);}
.step4 {transform: translateX(4096px);}
.step5 {transform: translateX(5120px);}
.step6 {transform: translateX(6144px);}
.step7 {transform: translateX(7168px);}
.step8 {transform: translateX(8192px);}
.step9 {transform: translateX(9216px);}
.step10 {transform: translateX(10240px);}
.step11 {transform: translateX(11264px);}
.step12 {transform: translateX(12288px);}
.step13 {transform: translateX(13312px);}
.step14 {transform: translateX(14336px);}
.step15 {transform: translateX(15360px);}
.step16 {transform: translateX(16384px);}
.step17 {transform: translateX(17408px);}
.step18 {transform: translateX(18432px);}
.step19 {transform: translateX(19456px);}
.step20 {transform: translateX(20480px);}
.step21 {transform: translateX(21504px);}
.step22 {transform: translateX(22528px);}
.step23 {transform: translateX(23552px);}
.step24 {transform: translateX(24576px);}
.step25 {transform: translateX(25600px);}
.step26 {transform: translateX(26624px);}
.step27 {transform: translateX(27648px);}
.step28 {transform: translateX(28672px);}
.step29 {transform: translateX(29696px);}
    </style>

    <path d="M 433 742 Q 430 773 429 796 Q 430 815 411 819 Q 375 837 354 829 Q 338 820 352 803 Q 377 778 389 735 L 399 702 Q 408 675 420 663 Q 433 653 436 664 Q 442 683 437 703 Q 436 707 436 712 L 433 742 Z" fill="lightgray" class="stroke step7"/>
    <path d="M 436 712 Q 443 715 452 717 Q 467 718 483 728 Q 490 732 488 739 Q 487 745 474 748 Q 455 747 433 742 L 389 735 Q 287 723 193 715 Q 183 716 181 712 Q 178 705 185 695 Q 198 680 225 669 Q 241 660 259 665 Q 326 683 399 702 L 436 712 Z" fill="lightgray" class="stroke step7"/>
    <path d="M 646 766 Q 655 785 670 808 Q 683 821 675 831 Q 665 847 632 864 Q 617 874 601 866 Q 591 862 598 850 Q 605 828 592 760 L 583 727 Q 561 664 562 645 Q 563 633 577 640 Q 590 652 627 723 L 646 766 Z" fill="lightgray" class="stroke step7"/>
    <path d="M 627 723 Q 714 747 840 731 Q 853 730 858 737 Q 862 747 852 760 Q 809 796 731 778 Q 692 774 646 766 L 592 760 Q 579 760 565 758 Q 540 757 557 742 Q 570 732 583 727 C 605 717 605 717 627 723 Z" fill="lightgray" class="stroke step7"/>
    <path d="M 387 585 Q 408 604 419 611 Q 429 620 428 629 Q 427 641 405 650 Q 380 662 370 660 Q 363 659 359 648 Q 343 596 217 510 Q 198 500 222 500 Q 267 497 364 567 L 387 585 Z" fill="lightgray" class="stroke step7"/>
    <path d="M 364 567 Q 409 546 440 555 Q 482 568 675 598 Q 708 602 720 587 Q 741 565 743 510 Q 750 341 740 231 Q 716 57 684 39 Q 674 33 600 50 Q 588 53 586 49 Q 582 42 600 27 Q 637 -13 654 -49 Q 676 -80 695 -74 Q 711 -70 733 -38 Q 764 2 784 79 Q 805 170 810 467 Q 810 545 830 571 Q 848 593 824 611 Q 749 659 712 646 Q 567 609 387 585 C 357 581 336 577 364 567 Z" fill="lightgray" class="stroke step7"/>
    <path d="M 314 486 Q 284 480 306 468 Q 340 450 385 461 Q 434 473 485 484 Q 507 490 512 493 Q 519 500 515 507 Q 508 516 485 521 Q 460 525 437 515 Q 412 505 382 498 Q 351 491 314 486 Z" fill="lightgray" class="stroke step7"/>
    <path d="M 272 409 Q 262 413 238 415 Q 228 416 224 412 Q 220 406 228 392 Q 249 361 266 307 Q 270 291 281 281 Q 297 263 302 277 Q 303 284 303 295 L 299 325 Q 290 370 289 385 C 287 404 287 404 272 409 Z" fill="lightgray" class="stroke step7"/>
    <path d="M 532 347 Q 550 380 572 390 Q 587 405 576 420 Q 563 432 521 455 Q 508 462 489 456 Q 408 429 272 409 C 242 405 260 378 289 385 Q 289 386 291 386 Q 381 401 466 416 Q 488 420 497 412 Q 503 405 488 358 C 479 329 517 321 532 347 Z" fill="lightgray" class="hide"/>
    <path d="M 303 295 Q 307 295 313 296 Q 383 311 537 322 Q 546 323 547 330 Q 547 336 532 347 C 513 362 513 362 488 358 Q 484 358 481 357 Q 381 335 299 325 C 269 321 273 292 303 295 Z" fill="lightgray" class="hide"/>
    <path d="M 228 234 Q 218 240 180 243 Q 167 246 165 240 Q 159 233 169 218 Q 203 160 227 62 Q 233 32 251 14 Q 270 -7 274 10 Q 275 17 276 27 L 273 58 Q 272 67 270 75 Q 246 169 239 202 C 233 231 232 232 228 234 Z" fill="lightgray" class="hide"/>
    <path d="M 494 50 Q 512 22 528 13 Q 538 4 555 26 Q 568 45 599 153 Q 609 184 633 209 Q 646 222 635 236 Q 620 254 578 281 Q 562 290 501 277 Q 482 274 459 271 Q 327 253 228 234 C 199 228 210 195 239 202 Q 287 215 357 225 L 395 230 Q 515 251 537 235 Q 547 226 545 210 Q 523 90 505 78 C 490 56 490 56 494 50 Z" fill="lightgray" class="hide"/>
    <path d="M 412 142 Q 443 146 471 149 Q 493 153 485 165 Q 475 178 451 183 Q 436 186 415 181 L 366 170 Q 330 161 299 152 Q 283 149 302 134 Q 305 133 367 136 L 412 142 Z" fill="lightgray" class="hide"/>
    <path d="M 408 80 Q 409 114 412 142 L 415 181 Q 415 217 397 228 L 395 230 C 372 249 346 253 357 225 Q 363 213 366 170 L 367 136 Q 367 111 369 73 C 371 43 407 50 408 80 Z" fill="lightgray" class="hide"/>
    <path d="M 276 27 Q 282 26 292 27 Q 356 42 494 50 C 524 52 528 59 505 78 Q 501 82 492 88 Q 470 100 408 80 L 369 73 Q 317 66 273 58 C 243 53 246 29 276 27 Z" fill="lightgray" class="hide"/></g><g transform="scale(1, -1) translate(0, -900)">
    <style type="text/css">
        .origin {display:none;}
        .hide {display:none;}
        .stroke {fill: #000000;}
        
.step1 {transform: translateX(1024px);}
.step2 {transform: translateX(2048px);}
.step3 {transform: translateX(3072px);}
.step4 {transform: translateX(4096px);}
.step5 {transform: translateX(5120px);}
.step6 {transform: translateX(6144px);}
.step7 {transform: translateX(7168px);}
.step8 {transform: translateX(8192px);}
.step9 {transform: translateX(9216px);}
.step10 {transform: translateX(10240px);}
.step11 {transform: translateX(11264px);}
.step12 {transform: translateX(12288px);}
.step13 {transform: translateX(13312px);}
.step14 {transform: translateX(14336px);}
.step15 {transform: translateX(15360px);}
.step16 {transform: translateX(16384px);}
.step17 {transform: translateX(17408px);}
.step18 {transform: translateX(18432px);}
.step19 {transform: translateX(19456px);}
.step20 {transform: translateX(20480px);}
.step21 {transform: translateX(21504px);}
.step22 {transform: translateX(22528px);}
.step23 {transform: translateX(23552px);}
.step24 {transform: translateX(24576px);}
.step25 {transform: translateX(25600px);}
.step26 {transform: translateX(26624px);}
.step27 {transform: translateX(27648px);}
.step28 {transform: translateX(28672px);}
.step29 {transform: translateX(29696px);}
    </style>

    <path d="M 433 742 Q 430 773 429 796 Q 430 815 411 819 Q 375 837 354 829 Q 338 820 352 803 Q 377 778 389 735 L 399 702 Q 408 675 420 663 Q 433 653 436 664 Q 442 683 437 703 Q 436 707 436 712 L 433 742 Z" fill="lightgray" class="stroke step8"/>
    <path d="M 436 712 Q 443 715 452 717 Q 467 718 483 728 Q 490 732 488 739 Q 487 745 474 748 Q 455 747 433 742 L 389 735 Q 287 723 193 715 Q 183 716 181 712 Q 178 705 185 695 Q 198 680 225 669 Q 241 660 259 665 Q 326 683 399 702 L 436 712 Z" fill="lightgray" class="stroke step8"/>
    <path d="M 646 766 Q 655 785 670 808 Q 683 821 675 831 Q 665 847 632 864 Q 617 874 601 866 Q 591 862 598 850 Q 605 828 592 760 L 583 727 Q 561 664 562 645 Q 563 633 577 640 Q 590 652 627 723 L 646 766 Z" fill="lightgray" class="stroke step8"/>
    <path d="M 627 723 Q 714 747 840 731 Q 853 730 858 737 Q 862 747 852 760 Q 809 796 731 778 Q 692 774 646 766 L 592 760 Q 579 760 565 758 Q 540 757 557 742 Q 570 732 583 727 C 605 717 605 717 627 723 Z" fill="lightgray" class="stroke step8"/>
    <path d="M 387 585 Q 408 604 419 611 Q 429 620 428 629 Q 427 641 405 650 Q 380 662 370 660 Q 363 659 359 648 Q 343 596 217 510 Q 198 500 222 500 Q 267 497 364 567 L 387 585 Z" fill="lightgray" class="stroke step8"/>
    <path d="M 364 567 Q 409 546 440 555 Q 482 568 675 598 Q 708 602 720 587 Q 741 565 743 510 Q 750 341 740 231 Q 716 57 684 39 Q 674 33 600 50 Q 588 53 586 49 Q 582 42 600 27 Q 637 -13 654 -49 Q 676 -80 695 -74 Q 711 -70 733 -38 Q 764 2 784 79 Q 805 170 810 467 Q 810 545 830 571 Q 848 593 824 611 Q 749 659 712 646 Q 567 609 387 585 C 357 581 336 577 364 567 Z" fill="lightgray" class="stroke step8"/>
    <path d="M 314 486 Q 284 480 306 468 Q 340 450 385 461 Q 434 473 485 484 Q 507 490 512 493 Q 519 500 515 507 Q 508 516 485 521 Q 460 525 437 515 Q 412 505 382 498 Q 351 491 314 486 Z" fill="lightgray" class="stroke step8"/>
    <path d="M 272 409 Q 262 413 238 415 Q 228 416 224 412 Q 220 406 228 392 Q 249 361 266 307 Q 270 291 281 281 Q 297 263 302 277 Q 303 284 303 295 L 299 325 Q 290 370 289 385 C 287 404 287 404 272 409 Z" fill="lightgray" class="stroke step8"/>
    <path d="M 532 347 Q 550 380 572 390 Q 587 405 576 420 Q 563 432 521 455 Q 508 462 489 456 Q 408 429 272 409 C 242 405 260 378 289 385 Q 289 386 291 386 Q 381 401 466 416 Q 488 420 497 412 Q 503 405 488 358 C 479 329 517 321 532 347 Z" fill="lightgray" class="stroke step8"/>
    <path d="M 303 295 Q 307 295 313 296 Q 383 311 537 322 Q 546 323 547 330 Q 547 336 532 347 C 513 362 513 362 488 358 Q 484 358 481 357 Q 381 335 299 325 C 269 321 273 292 303 295 Z" fill="lightgray" class="hide"/>
    <path d="M 228 234 Q 218 240 180 243 Q 167 246 165 240 Q 159 233 169 218 Q 203 160 227 62 Q 233 32 251 14 Q 270 -7 274 10 Q 275 17 276 27 L 273 58 Q 272 67 270 75 Q 246 169 239 202 C 233 231 232 232 228 234 Z" fill="lightgray" class="hide"/>
    <path d="M 494 50 Q 512 22 528 13 Q 538 4 555 26 Q 568 45 599 153 Q 609 184 633 209 Q 646 222 635 236 Q 620 254 578 281 Q 562 290 501 277 Q 482 274 459 271 Q 327 253 228 234 C 199 228 210 195 239 202 Q 287 215 357 225 L 395 230 Q 515 251 537 235 Q 547 226 545 210 Q 523 90 505 78 C 490 56 490 56 494 50 Z" fill="lightgray" class="hide"/>
    <path d="M 412 142 Q 443 146 471 149 Q 493 153 485 165 Q 475 178 451 183 Q 436 186 415 181 L 366 170 Q 330 161 299 152 Q 283 149 302 134 Q 305 133 367 136 L 412 142 Z" fill="lightgray" class="hide"/>
    <path d="M 408 80 Q 409 114 412 142 L 415 181 Q 415 217 397 228 L 395 230 C 372 249 346 253 357 225 Q 363 213 366 170 L 367 136 Q 367 111 369 73 C 371 43 407 50 408 80 Z" fill="lightgray" class="hide"/>
    <path d="M 276 27 Q 282 26 292 27 Q 356 42 494 50 C 524 52 528 59 505 78 Q 501 82 492 88 Q 470 100 408 80 L 369 73 Q 317 66 273 58 C 243 53 246 29 276 27 Z" fill="lightgray" class="hide"/></g><g transform="scale(1, -1) translate(0, -900)">
    <style type="text/css">
        .origin {display:none;}
        .hide {display:none;}
        .stroke {fill: #000000;}
        
.step1 {transform: translateX(1024px);}
.step2 {transform: translateX(2048px);}
.step3 {transform: translateX(3072px);}
.step4 {transform: translateX(4096px);}
.step5 {transform: translateX(5120px);}
.step6 {transform: translateX(6144px);}
.step7 {transform: translateX(7168px);}
.step8 {transform: translateX(8192px);}
.step9 {transform: translateX(9216px);}
.step10 {transform: translateX(10240px);}
.step11 {transform: translateX(11264px);}
.step12 {transform: translateX(12288px);}
.step13 {transform: translateX(13312px);}
.step14 {transform: translateX(14336px);}
.step15 {transform: translateX(15360px);}
.step16 {transform: translateX(16384px);}
.step17 {transform: translateX(17408px);}
.step18 {transform: translateX(18432px);}
.step19 {transform: translateX(19456px);}
.step20 {transform: translateX(20480px);}
.step21 {transform: translateX(21504px);}
.step22 {transform: translateX(22528px);}
.step23 {transform: translateX(23552px);}
.step24 {transform: translateX(24576px);}
.step25 {transform: translateX(25600px);}
.step26 {transform: translateX(26624px);}
.step27 {transform: translateX(27648px);}
.step28 {transform: translateX(28672px);}
.step29 {transform: translateX(29696px);}
    </style>

    <path d="M 433 742 Q 430 773 429 796 Q 430 815 411 819 Q 375 837 354 829 Q 338 820 352 803 Q 377 778 389 735 L 399 702 Q 408 675 420 663 Q 433 653 436 664 Q 442 683 437 703 Q 436 707 436 712 L 433 742 Z" fill="lightgray" class="stroke step9"/>
    <path d="M 436 712 Q 443 715 452 717 Q 467 718 483 728 Q 490 732 488 739 Q 487 745 474 748 Q 455 747 433 742 L 389 735 Q 287 723 193 715 Q 183 716 181 712 Q 178 705 185 695 Q 198 680 225 669 Q 241 660 259 665 Q 326 683 399 702 L 436 712 Z" fill="lightgray" class="stroke step9"/>
    <path d="M 646 766 Q 655 785 670 808 Q 683 821 675 831 Q 665 847 632 864 Q 617 874 601 866 Q 591 862 598 850 Q 605 828 592 760 L 583 727 Q 561 664 562 645 Q 563 633 577 640 Q 590 652 627 723 L 646 766 Z" fill="lightgray" class="stroke step9"/>
    <path d="M 627 723 Q 714 747 840 731 Q 853 730 858 737 Q 862 747 852 760 Q 809 796 731 778 Q 692 774 646 766 L 592 760 Q 579 760 565 758 Q 540 757 557 742 Q 570 732 583 727 C 605 717 605 717 627 723 Z" fill="lightgray" class="stroke step9"/>
    <path d="M 387 585 Q 408 604 419 611 Q 429 620 428 629 Q 427 641 405 650 Q 380 662 370 660 Q 363 659 359 648 Q 343 596 217 510 Q 198 500 222 500 Q 267 497 364 567 L 387 585 Z" fill="lightgray" class="stroke step9"/>
    <path d="M 364 567 Q 409 546 440 555 Q 482 568 675 598 Q 708 602 720 587 Q 741 565 743 510 Q 750 341 740 231 Q 716 57 684 39 Q 674 33 600 50 Q 588 53 586 49 Q 582 42 600 27 Q 637 -13 654 -49 Q 676 -80 695 -74 Q 711 -70 733 -38 Q 764 2 784 79 Q 805 170 810 467 Q 810 545 830 571 Q 848 593 824 611 Q 749 659 712 646 Q 567 609 387 585 C 357 581 336 577 364 567 Z" fill="lightgray" class="stroke step9"/>
    <path d="M 314 486 Q 284 480 306 468 Q 340 450 385 461 Q 434 473 485 484 Q 507 490 512 493 Q 519 500 515 507 Q 508 516 485 521 Q 460 525 437 515 Q 412 505 382 498 Q 351 491 314 486 Z" fill="lightgray" class="stroke step9"/>
    <path d="M 272 409 Q 262 413 238 415 Q 228 416 224 412 Q 220 406 228 392 Q 249 361 266 307 Q 270 291 281 281 Q 297 263 302 277 Q 303 284 303 295 L 299 325 Q 290 370 289 385 C 287 404 287 404 272 409 Z" fill="lightgray" class="stroke step9"/>
    <path d="M 532 347 Q 550 380 572 390 Q 587 405 576 420 Q 563 432 521 455 Q 508 462 489 456 Q 408 429 272 409 C 242 405 260 378 289 385 Q 289 386 291 386 Q 381 401 466 416 Q 488 420 497 412 Q 503 405 488 358 C 479 329 517 321 532 347 Z" fill="lightgray" class="stroke step9"/>
    <path d="M 303 295 Q 307 295 313 296 Q 383 311 537 322 Q 546 323 547 330 Q 547 336 532 347 C 513 362 513 362 488 358 Q 484 358 481 357 Q 381 335 299 325 C 269 321 273 292 303 295 Z" fill="lightgray" class="stroke step9"/>
    <path d="M 228 234 Q 218 240 180 243 Q 167 246 165 240 Q 159 233 169 218 Q 203 160 227 62 Q 233 32 251 14 Q 270 -7 274 10 Q 275 17 276 27 L 273 58 Q 272 67 270 75 Q 246 169 239 202 C 233 231 232 232 228 234 Z" fill="lightgray" class="hide"/>
    <path d="M 494 50 Q 512 22 528 13 Q 538 4 555 26 Q 568 45 599 153 Q 609 184 633 209 Q 646 222 635 236 Q 620 254 578 281 Q 562 290 501 277 Q 482 274 459 271 Q 327 253 228 234 C 199 228 210 195 239 202 Q 287 215 357 225 L 395 230 Q 515 251 537 235 Q 547 226 545 210 Q 523 90 505 78 C 490 56 490 56 494 50 Z" fill="lightgray" class="hide"/>
    <path d="M 412 142 Q 443 146 471 149 Q 493 153 485 165 Q 475 178 451 183 Q 436 186 415 181 L 366 170 Q 330 161 299 152 Q 283 149 302 134 Q 305 133 367 136 L 412 142 Z" fill="lightgray" class="hide"/>
    <path d="M 408 80 Q 409 114 412 142 L 415 181 Q 415 217 397 228 L 395 230 C 372 249 346 253 357 225 Q 363 213 366 170 L 367 136 Q 367 111 369 73 C 371 43 407 50 408 80 Z" fill="lightgray" class="hide"/>
    <path d="M 276 27 Q 282 26 292 27 Q 356 42 494 50 C 524 52 528 59 505 78 Q 501 82 492 88 Q 470 100 408 80 L 369 73 Q 317 66 273 58 C 243 53 246 29 276 27 Z" fill="lightgray" class="hide"/></g><g transform="scale(1, -1) translate(0, -900)">
    <style type="text/css">
        .origin {display:none;}
        .hide {display:none;}
        .stroke {fill: #000000;}
        
.step1 {transform: translateX(1024px);}
.step2 {transform: translateX(2048px);}
.step3 {transform: translateX(3072px);}
.step4 {transform: translateX(4096px);}
.step5 {transform: translateX(5120px);}
.step6 {transform: translateX(6144px);}
.step7 {transform: translateX(7168px);}
.step8 {transform: translateX(8192px);}
.step9 {transform: translateX(9216px);}
.step10 {transform: translateX(10240px);}
.step11 {transform: translateX(11264px);}
.step12 {transform: translateX(12288px);}
.step13 {transform: translateX(13312px);}
.step14 {transform: translateX(14336px);}
.step15 {transform: translateX(15360px);}
.step16 {transform: translateX(16384px);}
.step17 {transform: translateX(17408px);}
.step18 {transform: translateX(18432px);}
.step19 {transform: translateX(19456px);}
.step20 {transform: translateX(20480px);}
.step21 {transform: translateX(21504px);}
.step22 {transform: translateX(22528px);}
.step23 {transform: translateX(23552px);}
.step24 {transform: translateX(24576px);}
.step25 {transform: translateX(25600px);}
.step26 {transform: translateX(26624px);}
.step27 {transform: translateX(27648px);}
.step28 {transform: translateX(28672px);}
.step29 {transform: translateX(29696px);}
    </style>

    <path d="M 433 742 Q 430 773 429 796 Q 430 815 411 819 Q 375 837 354 829 Q 338 820 352 803 Q 377 778 389 735 L 399 702 Q 408 675 420 663 Q 433 653 436 664 Q 442 683 437 703 Q 436 707 436 712 L 433 742 Z" fill="lightgray" class="stroke step10"/>
    <path d="M 436 712 Q 443 715 452 717 Q 467 718 483 728 Q 490 732 488 739 Q 487 745 474 748 Q 455 747 433 742 L 389 735 Q 287 723 193 715 Q 183 716 181 712 Q 178 705 185 695 Q 198 680 225 669 Q 241 660 259 665 Q 326 683 399 702 L 436 712 Z" fill="lightgray" class="stroke step10"/>
    <path d="M 646 766 Q 655 785 670 808 Q 683 821 675 831 Q 665 847 632 864 Q 617 874 601 866 Q 591 862 598 850 Q 605 828 592 760 L 583 727 Q 561 664 562 645 Q 563 633 577 640 Q 590 652 627 723 L 646 766 Z" fill="lightgray" class="stroke step10"/>
    <path d="M 627 723 Q 714 747 840 731 Q 853 730 858 737 Q 862 747 852 760 Q 809 796 731 778 Q 692 774 646 766 L 592 760 Q 579 760 565 758 Q 540 757 557 742 Q 570 732 583 727 C 605 717 605 717 627 723 Z" fill="lightgray" class="stroke step10"/>
    <path d="M 387 585 Q 408 604 419 611 Q 429 620 428 629 Q 427 641 405 650 Q 380 662 370 660 Q 363 659 359 648 Q 343 596 217 510 Q 198 500 222 500 Q 267 497 364 567 L 387 585 Z" fill="lightgray" class="stroke step10"/>
    <path d="M 364 567 Q 409 546 440 555 Q 482 568 675 598 Q 708 602 720 587 Q 741 565 743 510 Q 750 341 740 231 Q 716 57 684 39 Q 674 33 600 50 Q 588 53 586 49 Q 582 42 600 27 Q 637 -13 654 -49 Q 676 -80 695 -74 Q 711 -70 733 -38 Q 764 2 784 79 Q 805 170 810 467 Q 810 545 830 571 Q 848 593 824 611 Q 749 659 712 646 Q 567 609 387 585 C 357 581 336 577 364 567 Z" fill="lightgray" class="stroke step10"/>
    <path d="M 314 486 Q 284 480 306 468 Q 340 450 385 461 Q 434 473 485 484 Q 507 490 512 493 Q 519 500 515 507 Q 508 516 485 521 Q 460 525 437 515 Q 412 505 382 498 Q 351 491 314 486 Z" fill="lightgray" class="stroke step10"/>
    <path d="M 272 409 Q 262 413 238 415 Q 228 416 224 412 Q 220 406 228 392 Q 249 361 266 307 Q 270 291 281 281 Q 297 263 302 277 Q 303 284 303 295 L 299 325 Q 290 370 289 385 C 287 404 287 404 272 409 Z" fill="lightgray" class="stroke step10"/>
    <path d="M 532 347 Q 550 380 572 390 Q 587 405 576 420 Q 563 432 521 455 Q 508 462 489 456 Q 408 429 272 409 C 242 405 260 378 289 385 Q 289 386 291 386 Q 381 401 466 416 Q 488 420 497 412 Q 503 405 488 358 C 479 329 517 321 532 347 Z" fill="lightgray" class="stroke step10"/>
    <path d="M 303 295 Q 307 295 313 296 Q 383 311 537 322 Q 546 323 547 330 Q 547 336 532 347 C 513 362 513 362 488 358 Q 484 358 481 357 Q 381 335 299 325 C 269 321 273 292 303 295 Z" fill="lightgray" class="stroke step10"/>
    <path d="M 228 234 Q 218 240 180 243 Q 167 246 165 240 Q 159 233 169 218 Q 203 160 227 62 Q 233 32 251 14 Q 270 -7 274 10 Q 275 17 276 27 L 273 58 Q 272 67 270 75 Q 246 169 239 202 C 233 231 232 232 228 234 Z" fill="lightgray" class="stroke step10"/>
    <path d="M 494 50 Q 512 22 528 13 Q 538 4 555 26 Q 568 45 599 153 Q 609 184 633 209 Q 646 222 635 236 Q 620 254 578 281 Q 562 290 501 277 Q 482 274 459 271 Q 327 253 228 234 C 199 228 210 195 239 202 Q 287 215 357 225 L 395 230 Q 515 251 537 235 Q 547 226 545 210 Q 523 90 505 78 C 490 56 490 56 494 50 Z" fill="lightgray" class="hide"/>
    <path d="M 412 142 Q 443 146 471 149 Q 493 153 485 165 Q 475 178 451 183 Q 436 186 415 181 L 366 170 Q 330 161 299 152 Q 283 149 302 134 Q 305 133 367 136 L 412 142 Z" fill="lightgray" class="hide"/>
    <path d="M 408 80 Q 409 114 412 142 L 415 181 Q 415 217 397 228 L 395 230 C 372 249 346 253 357 225 Q 363 213 366 170 L 367 136 Q 367 111 369 73 C 371 43 407 50 408 80 Z" fill="lightgray" class="hide"/>
    <path d="M 276 27 Q 282 26 292 27 Q 356 42 494 50 C 524 52 528 59 505 78 Q 501 82 492 88 Q 470 100 408 80 L 369 73 Q 317 66 273 58 C 243 53 246 29 276 27 Z" fill="lightgray" class="hide"/></g><g transform="scale(1, -1) translate(0, -900)">
    <style type="text/css">
        .origin {display:none;}
        .hide {display:none;}
        .stroke {fill: #000000;}
        
.step1 {transform: translateX(1024px);}
.step2 {transform: translateX(2048px);}
.step3 {transform: translateX(3072px);}
.step4 {transform: translateX(4096px);}
.step5 {transform: translateX(5120px);}
.step6 {transform: translateX(6144px);}
.step7 {transform: translateX(7168px);}
.step8 {transform: translateX(8192px);}
.step9 {transform: translateX(9216px);}
.step10 {transform: translateX(10240px);}
.step11 {transform: translateX(11264px);}
.step12 {transform: translateX(12288px);}
.step13 {transform: translateX(13312px);}
.step14 {transform: translateX(14336px);}
.step15 {transform: translateX(15360px);}
.step16 {transform: translateX(16384px);}
.step17 {transform: translateX(17408px);}
.step18 {transform: translateX(18432px);}
.step19 {transform: translateX(19456px);}
.step20 {transform: translateX(20480px);}
.step21 {transform: translateX(21504px);}
.step22 {transform: translateX(22528px);}
.step23 {transform: translateX(23552px);}
.step24 {transform: translateX(24576px);}
.step25 {transform: translateX(25600px);}
.step26 {transform: translateX(26624px);}
.step27 {transform: translateX(27648px);}
.step28 {transform: translateX(28672px);}
.step29 {transform: translateX(29696px);}
    </style>

    <path d="M 433 742 Q 430 773 429 796 Q 430 815 411 819 Q 375 837 354 829 Q 338 820 352 803 Q 377 778 389 735 L 399 702 Q 408 675 420 663 Q 433 653 436 664 Q 442 683 437 703 Q 436 707 436 712 L 433 742 Z" fill="lightgray" class="stroke step11"/>
    <path d="M 436 712 Q 443 715 452 717 Q 467 718 483 728 Q 490 732 488 739 Q 487 745 474 748 Q 455 747 433 742 L 389 735 Q 287 723 193 715 Q 183 716 181 712 Q 178 705 185 695 Q 198 680 225 669 Q 241 660 259 665 Q 326 683 399 702 L 436 712 Z" fill="lightgray" class="stroke step11"/>
    <path d="M 646 766 Q 655 785 670 808 Q 683 821 675 831 Q 665 847 632 864 Q 617 874 601 866 Q 591 862 598 850 Q 605 828 592 760 L 583 727 Q 561 664 562 645 Q 563 633 577 640 Q 590 652 627 723 L 646 766 Z" fill="lightgray" class="stroke step11"/>
    <path d="M 627 723 Q 714 747 840 731 Q 853 730 858 737 Q 862 747 852 760 Q 809 796 731 778 Q 692 774 646 766 L 592 760 Q 579 760 565 758 Q 540 757 557 742 Q 570 732 583 727 C 605 717 605 717 627 723 Z" fill="lightgray" class="stroke step11"/>
    <path d="M 387 585 Q 408 604 419 611 Q 429 620 428 629 Q 427 641 405 650 Q 380 662 370 660 Q 363 659 359 648 Q 343 596 217 510 Q 198 500 222 500 Q 267 497 364 567 L 387 585 Z" fill="lightgray" class="stroke step11"/>
    <path d="M 364 567 Q 409 546 440 555 Q 482 568 675 598 Q 708 602 720 587 Q 741 565 743 510 Q 750 341 740 231 Q 716 57 684 39 Q 674 33 600 50 Q 588 53 586 49 Q 582 42 600 27 Q 637 -13 654 -49 Q 676 -80 695 -74 Q 711 -70 733 -38 Q 764 2 784 79 Q 805 170 810 467 Q 810 545 830 571 Q 848 593 824 611 Q 749 659 712 646 Q 567 609 387 585 C 357 581 336 577 364 567 Z" fill="lightgray" class="stroke step11"/>
    <path d="M 314 486 Q 284 480 306 468 Q 340 450 385 461 Q 434 473 485 484 Q 507 490 512 493 Q 519 500 515 507 Q 508 516 485 521 Q 460 525 437 515 Q 412 505 382 498 Q 351 491 314 486 Z" fill="lightgray" class="stroke step11"/>
    <path d="M 272 409 Q 262 413 238 415 Q 228 416 224 412 Q 220 406 228 392 Q 249 361 266 307 Q 270 291 281 281 Q 297 263 302 277 Q 303 284 303 295 L 299 325 Q 290 370 289 385 C 287 404 287 404 272 409 Z" fill="lightgray" class="stroke step11"/>
    <path d="M 532 347 Q 550 380 572 390 Q 587 405 576 420 Q 563 432 521 455 Q 508 462 489 456 Q 408 429 272 409 C 242 405 260 378 289 385 Q 289 386 291 386 Q 381 401 466 416 Q 488 420 497 412 Q 503 405 488 358 C 479 329 517 321 532 347 Z" fill="lightgray" class="stroke step11"/>
    <path d="M 303 295 Q 307 295 313 296 Q 383 311 537 322 Q 546 323 547 330 Q 547 336 532 347 C 513 362 513 362 488 358 Q 484 358 481 357 Q 381 335 299 325 C 269 321 273 292 303 295 Z" fill="lightgray" class="stroke step11"/>
    <path d="M 228 234 Q 218 240 180 243 Q 167 246 165 240 Q 159 233 169 218 Q 203 160 227 62 Q 233 32 251 14 Q 270 -7 274 10 Q 275 17 276 27 L 273 58 Q 272 67 270 75 Q 246 169 239 202 C 233 231 232 232 228 234 Z" fill="lightgray" class="stroke step11"/>
    <path d="M 494 50 Q 512 22 528 13 Q 538 4 555 26 Q 568 45 599 153 Q 609 184 633 209 Q 646 222 635 236 Q 620 254 578 281 Q 562 290 501 277 Q 482 274 459 271 Q 327 253 228 234 C 199 228 210 195 239 202 Q 287 215 357 225 L 395 230 Q 515 251 537 235 Q 547 226 545 210 Q 523 90 505 78 C 490 56 490 56 494 50 Z" fill="lightgray" class="stroke step11"/>
    <path d="M 412 142 Q 443 146 471 149 Q 493 153 485 165 Q 475 178 451 183 Q 436 186 415 181 L 366 170 Q 330 161 299 152 Q 283 149 302 134 Q 305 133 367 136 L 412 142 Z" fill="lightgray" class="hide"/>
    <path d="M 408 80 Q 409 114 412 142 L 415 181 Q 415 217 397 228 L 395 230 C 372 249 346 253 357 225 Q 363 213 366 170 L 367 136 Q 367 111 369 73 C 371 43 407 50 408 80 Z" fill="lightgray" class="hide"/>
    <path d="M 276 27 Q 282 26 292 27 Q 356 42 494 50 C 524 52 528 59 505 78 Q 501 82 492 88 Q 470 100 408 80 L 369 73 Q 317 66 273 58 C 243 53 246 29 276 27 Z" fill="lightgray" class="hide"/></g><g transform="scale(1, -1) translate(0, -900)">
    <style type="text/css">
        .origin {display:none;}
        .hide {display:none;}
        .stroke {fill: #000000;}
        
.step1 {transform: translateX(1024px);}
.step2 {transform: translateX(2048px);}
.step3 {transform: translateX(3072px);}
.step4 {transform: translateX(4096px);}
.step5 {transform: translateX(5120px);}
.step6 {transform: translateX(6144px);}
.step7 {transform: translateX(7168px);}
.step8 {transform: translateX(8192px);}
.step9 {transform: translateX(9216px);}
.step10 {transform: translateX(10240px);}
.step11 {transform: translateX(11264px);}
.step12 {transform: translateX(12288px);}
.step13 {transform: translateX(13312px);}
.step14 {transform: translateX(14336px);}
.step15 {transform: translateX(15360px);}
.step16 {transform: translateX(16384px);}
.step17 {transform: translateX(17408px);}
.step18 {transform: translateX(18432px);}
.step19 {transform: translateX(19456px);}
.step20 {transform: translateX(20480px);}
.step21 {transform: translateX(21504px);}
.step22 {transform: translateX(22528px);}
.step23 {transform: translateX(23552px);}
.step24 {transform: translateX(24576px);}
.step25 {transform: translateX(25600px);}
.step26 {transform: translateX(26624px);}
.step27 {transform: translateX(27648px);}
.step28 {transform: translateX(28672px);}
.step29 {transform: translateX(29696px);}
    </style>

    <path d="M 433 742 Q 430 773 429 796 Q 430 815 411 819 Q 375 837 354 829 Q 338 820 352 803 Q 377 778 389 735 L 399 702 Q 408 675 420 663 Q 433 653 436 664 Q 442 683 437 703 Q 436 707 436 712 L 433 742 Z" fill="lightgray" class="stroke step12"/>
    <path d="M 436 712 Q 443 715 452 717 Q 467 718 483 728 Q 490 732 488 739 Q 487 745 474 748 Q 455 747 433 742 L 389 735 Q 287 723 193 715 Q 183 716 181 712 Q 178 705 185 695 Q 198 680 225 669 Q 241 660 259 665 Q 326 683 399 702 L 436 712 Z" fill="lightgray" class="stroke step12"/>
    <path d="M 646 766 Q 655 785 670 808 Q 683 821 675 831 Q 665 847 632 864 Q 617 874 601 866 Q 591 862 598 850 Q 605 828 592 760 L 583 727 Q 561 664 562 645 Q 563 633 577 640 Q 590 652 627 723 L 646 766 Z" fill="lightgray" class="stroke step12"/>
    <path d="M 627 723 Q 714 747 840 731 Q 853 730 858 737 Q 862 747 852 760 Q 809 796 731 778 Q 692 774 646 766 L 592 760 Q 579 760 565 758 Q 540 757 557 742 Q 570 732 583 727 C 605 717 605 717 627 723 Z" fill="lightgray" class="stroke step12"/>
    <path d="M 387 585 Q 408 604 419 611 Q 429 620 428 629 Q 427 641 405 650 Q 380 662 370 660 Q 363 659 359 648 Q 343 596 217 510 Q 198 500 222 500 Q 267 497 364 567 L 387 585 Z" fill="lightgray" class="stroke step12"/>
    <path d="M 364 567 Q 409 546 440 555 Q 482 568 675 598 Q 708 602 720 587 Q 741 565 743 510 Q 750 341 740 231 Q 716 57 684 39 Q 674 33 600 50 Q 588 53 586 49 Q 582 42 600 27 Q 637 -13 654 -49 Q 676 -80 695 -74 Q 711 -70 733 -38 Q 764 2 784 79 Q 805 170 810 467 Q 810 545 830 571 Q 848 593 824 611 Q 749 659 712 646 Q 567 609 387 585 C 357 581 336 577 364 567 Z" fill="lightgray" class="stroke step12"/>
    <path d="M 314 486 Q 284 480 306 468 Q 340 450 385 461 Q 434 473 485 484 Q 507 490 512 493 Q 519 500 515 507 Q 508 516 485 521 Q 460 525 437 515 Q 412 505 382 498 Q 351 491 314 486 Z" fill="lightgray" class="stroke step12"/>
    <path d="M 272 409 Q 262 413 238 415 Q 228 416 224 412 Q 220 406 228 392 Q 249 361 266 307 Q 270 291 281 281 Q 297 263 302 277 Q 303 284 303 295 L 299 325 Q 290 370 289 385 C 287 404 287 404 272 409 Z" fill="lightgray" class="stroke step12"/>
    <path d="M 532 347 Q 550 380 572 390 Q 587 405 576 420 Q 563 432 521 455 Q 508 462 489 456 Q 408 429 272 409 C 242 405 260 378 289 385 Q 289 386 291 386 Q 381 401 466 416 Q 488 420 497 412 Q 503 405 488 358 C 479 329 517 321 532 347 Z" fill="lightgray" class="stroke step12"/>
    <path d="M 303 295 Q 307 295 313 296 Q 383 311 537 322 Q 546 323 547 330 Q 547 336 532 347 C 513 362 513 362 488 358 Q 484 358 481 357 Q 381 335 299 325 C 269 321 273 292 303 295 Z" fill="lightgray" class="stroke step12"/>
    <path d="M 228 234 Q 218 240 180 243 Q 167 246 165 240 Q 159 233 169 218 Q 203 160 227 62 Q 233 32 251 14 Q 270 -7 274 10 Q 275 17 276 27 L 273 58 Q 272 67 270 75 Q 246 169 239 202 C 233 231 232 232 228 234 Z" fill="lightgray" class="stroke step12"/>
    <path d="M 494 50 Q 512 22 528 13 Q 538 4 555 26 Q 568 45 599 153 Q 609 184 633 209 Q 646 222 635 236 Q 620 254 578 281 Q 562 290 501 277 Q 482 274 459 271 Q 327 253 228 234 C 199 228 210 195 239 202 Q 287 215 357 225 L 395 230 Q 515 251 537 235 Q 547 226 545 210 Q 523 90 505 78 C 490 56 490 56 494 50 Z" fill="lightgray" class="stroke step12"/>
    <path d="M 412 142 Q 443 146 471 149 Q 493 153 485 165 Q 475 178 451 183 Q 436 186 415 181 L 366 170 Q 330 161 299 152 Q 283 149 302 134 Q 305 133 367 136 L 412 142 Z" fill="lightgray" class="stroke step12"/>
    <path d="M 408 80 Q 409 114 412 142 L 415 181 Q 415 217 397 228 L 395 230 C 372 249 346 253 357 225 Q 363 213 366 170 L 367 136 Q 367 111 369 73 C 371 43 407 50 408 80 Z" fill="lightgray" class="hide"/>
    <path d="M 276 27 Q 282 26 292 27 Q 356 42 494 50 C 524 52 528 59 505 78 Q 501 82 492 88 Q 470 100 408 80 L 369 73 Q 317 66 273 58 C 243 53 246 29 276 27 Z" fill="lightgray" class="hide"/></g><g transform="scale(1, -1) translate(0, -900)">
    <style type="text/css">
        .origin {display:none;}
        .hide {display:none;}
        .stroke {fill: #000000;}
        
.step1 {transform: translateX(1024px);}
.step2 {transform: translateX(2048px);}
.step3 {transform: translateX(3072px);}
.step4 {transform: translateX(4096px);}
.step5 {transform: translateX(5120px);}
.step6 {transform: translateX(6144px);}
.step7 {transform: translateX(7168px);}
.step8 {transform: translateX(8192px);}
.step9 {transform: translateX(9216px);}
.step10 {transform: translateX(10240px);}
.step11 {transform: translateX(11264px);}
.step12 {transform: translateX(12288px);}
.step13 {transform: translateX(13312px);}
.step14 {transform: translateX(14336px);}
.step15 {transform: translateX(15360px);}
.step16 {transform: translateX(16384px);}
.step17 {transform: translateX(17408px);}
.step18 {transform: translateX(18432px);}
.step19 {transform: translateX(19456px);}
.step20 {transform: translateX(20480px);}
.step21 {transform: translateX(21504px);}
.step22 {transform: translateX(22528px);}
.step23 {transform: translateX(23552px);}
.step24 {transform: translateX(24576px);}
.step25 {transform: translateX(25600px);}
.step26 {transform: translateX(26624px);}
.step27 {transform: translateX(27648px);}
.step28 {transform: translateX(28672px);}
.step29 {transform: translateX(29696px);}
    </style>

    <path d="M 433 742 Q 430 773 429 796 Q 430 815 411 819 Q 375 837 354 829 Q 338 820 352 803 Q 377 778 389 735 L 399 702 Q 408 675 420 663 Q 433 653 436 664 Q 442 683 437 703 Q 436 707 436 712 L 433 742 Z" fill="lightgray" class="stroke step13"/>
    <path d="M 436 712 Q 443 715 452 717 Q 467 718 483 728 Q 490 732 488 739 Q 487 745 474 748 Q 455 747 433 742 L 389 735 Q 287 723 193 715 Q 183 716 181 712 Q 178 705 185 695 Q 198 680 225 669 Q 241 660 259 665 Q 326 683 399 702 L 436 712 Z" fill="lightgray" class="stroke step13"/>
    <path d="M 646 766 Q 655 785 670 808 Q 683 821 675 831 Q 665 847 632 864 Q 617 874 601 866 Q 591 862 598 850 Q 605 828 592 760 L 583 727 Q 561 664 562 645 Q 563 633 577 640 Q 590 652 627 723 L 646 766 Z" fill="lightgray" class="stroke step13"/>
    <path d="M 627 723 Q 714 747 840 731 Q 853 730 858 737 Q 862 747 852 760 Q 809 796 731 778 Q 692 774 646 766 L 592 760 Q 579 760 565 758 Q 540 757 557 742 Q 570 732 583 727 C 605 717 605 717 627 723 Z" fill="lightgray" class="stroke step13"/>
    <path d="M 387 585 Q 408 604 419 611 Q 429 620 428 629 Q 427 641 405 650 Q 380 662 370 660 Q 363 659 359 648 Q 343 596 217 510 Q 198 500 222 500 Q 267 497 364 567 L 387 585 Z" fill="lightgray" class="stroke step13"/>
    <path d="M 364 567 Q 409 546 440 555 Q 482 568 675 598 Q 708 602 720 587 Q 741 565 743 510 Q 750 341 740 231 Q 716 57 684 39 Q 674 33 600 50 Q 588 53 586 49 Q 582 42 600 27 Q 637 -13 654 -49 Q 676 -80 695 -74 Q 711 -70 733 -38 Q 764 2 784 79 Q 805 170 810 467 Q 810 545 830 571 Q 848 593 824 611 Q 749 659 712 646 Q 567 609 387 585 C 357 581 336 577 364 567 Z" fill="lightgray" class="stroke step13"/>
    <path d="M 314 486 Q 284 480 306 468 Q 340 450 385 461 Q 434 473 485 484 Q 507 490 512 493 Q 519 500 515 507 Q 508 516 485 521 Q 460 525 437 515 Q 412 505 382 498 Q 351 491 314 486 Z" fill="lightgray" class="stroke step13"/>
    <path d="M 272 409 Q 262 413 238 415 Q 228 416 224 412 Q 220 406 228 392 Q 249 361 266 307 Q 270 291 281 281 Q 297 263 302 277 Q 303 284 303 295 L 299 325 Q 290 370 289 385 C 287 404 287 404 272 409 Z" fill="lightgray" class="stroke step13"/>
    <path d="M 532 347 Q 550 380 572 390 Q 587 405 576 420 Q 563 432 521 455 Q 508 462 489 456 Q 408 429 272 409 C 242 405 260 378 289 385 Q 289 386 291 386 Q 381 401 466 416 Q 488 420 497 412 Q 503 405 488 358 C 479 329 517 321 532 347 Z" fill="lightgray" class="stroke step13"/>
    <path d="M 303 295 Q 307 295 313 296 Q 383 311 537 322 Q 546 323 547 330 Q 547 336 532 347 C 513 362 513 362 488 358 Q 484 358 481 357 Q 381 335 299 325 C 269 321 273 292 303 295 Z" fill="lightgray" class="stroke step13"/>
    <path d="M 228 234 Q 218 240 180 243 Q 167 246 165 240 Q 159 233 169 218 Q 203 160 227 62 Q 233 32 251 14 Q 270 -7 274 10 Q 275 17 276 27 L 273 58 Q 272 67 270 75 Q 246 169 239 202 C 233 231 232 232 228 234 Z" fill="lightgray" class="stroke step13"/>
    <path d="M 494 50 Q 512 22 528 13 Q 538 4 555 26 Q 568 45 599 153 Q 609 184 633 209 Q 646 222 635 236 Q 620 254 578 281 Q 562 290 501 277 Q 482 274 459 271 Q 327 253 228 234 C 199 228 210 195 239 202 Q 287 215 357 225 L 395 230 Q 515 251 537 235 Q 547 226 545 210 Q 523 90 505 78 C 490 56 490 56 494 50 Z" fill="lightgray" class="stroke step13"/>
    <path d="M 412 142 Q 443 146 471 149 Q 493 153 485 165 Q 475 178 451 183 Q 436 186 415 181 L 366 170 Q 330 161 299 152 Q 283 149 302 134 Q 305 133 367 136 L 412 142 Z" fill="lightgray" class="stroke step13"/>
    <path d="M 408 80 Q 409 114 412 142 L 415 181 Q 415 217 397 228 L 395 230 C 372 249 346 253 357 225 Q 363 213 366 170 L 367 136 Q 367 111 369 73 C 371 43 407 50 408 80 Z" fill="lightgray" class="stroke step13"/>
    <path d="M 276 27 Q 282 26 292 27 Q 356 42 494 50 C 524 52 528 59 505 78 Q 501 82 492 88 Q 470 100 408 80 L 369 73 Q 317 66 273 58 C 243 53 246 29 276 27 Z" fill="lightgray" class="hide"/></g><g transform="scale(1, -1) translate(0, -900)">
    <style type="text/css">
        .origin {display:none;}
        .hide {display:none;}
        .stroke {fill: #000000;}
        
.step1 {transform: translateX(1024px);}
.step2 {transform: translateX(2048px);}
.step3 {transform: translateX(3072px);}
.step4 {transform: translateX(4096px);}
.step5 {transform: translateX(5120px);}
.step6 {transform: translateX(6144px);}
.step7 {transform: translateX(7168px);}
.step8 {transform: translateX(8192px);}
.step9 {transform: translateX(9216px);}
.step10 {transform: translateX(10240px);}
.step11 {transform: translateX(11264px);}
.step12 {transform: translateX(12288px);}
.step13 {transform: translateX(13312px);}
.step14 {transform: translateX(14336px);}
.step15 {transform: translateX(15360px);}
.step16 {transform: translateX(16384px);}
.step17 {transform: translateX(17408px);}
.step18 {transform: translateX(18432px);}
.step19 {transform: translateX(19456px);}
.step20 {transform: translateX(20480px);}
.step21 {transform: translateX(21504px);}
.step22 {transform: translateX(22528px);}
.step23 {transform: translateX(23552px);}
.step24 {transform: translateX(24576px);}
.step25 {transform: translateX(25600px);}
.step26 {transform: translateX(26624px);}
.step27 {transform: translateX(27648px);}
.step28 {transform: translateX(28672px);}
.step29 {transform: translateX(29696px);}
    </style>

    <path d="M 433 742 Q 430 773 429 796 Q 430 815 411 819 Q 375 837 354 829 Q 338 820 352 803 Q 377 778 389 735 L 399 702 Q 408 675 420 663 Q 433 653 436 664 Q 442 683 437 703 Q 436 707 436 712 L 433 742 Z" fill="lightgray" class="stroke step14"/>
    <path d="M 436 712 Q 443 715 452 717 Q 467 718 483 728 Q 490 732 488 739 Q 487 745 474 748 Q 455 747 433 742 L 389 735 Q 287 723 193 715 Q 183 716 181 712 Q 178 705 185 695 Q 198 680 225 669 Q 241 660 259 665 Q 326 683 399 702 L 436 712 Z" fill="lightgray" class="stroke step14"/>
    <path d="M 646 766 Q 655 785 670 808 Q 683 821 675 831 Q 665 847 632 864 Q 617 874 601 866 Q 591 862 598 850 Q 605 828 592 760 L 583 727 Q 561 664 562 645 Q 563 633 577 640 Q 590 652 627 723 L 646 766 Z" fill="lightgray" class="stroke step14"/>
    <path d="M 627 723 Q 714 747 840 731 Q 853 730 858 737 Q 862 747 852 760 Q 809 796 731 778 Q 692 774 646 766 L 592 760 Q 579 760 565 758 Q 540 757 557 742 Q 570 732 583 727 C 605 717 605 717 627 723 Z" fill="lightgray" class="stroke step14"/>
    <path d="M 387 585 Q 408 604 419 611 Q 429 620 428 629 Q 427 641 405 650 Q 380 662 370 660 Q 363 659 359 648 Q 343 596 217 510 Q 198 500 222 500 Q 267 497 364 567 L 387 585 Z" fill="lightgray" class="stroke step14"/>
    <path d="M 364 567 Q 409 546 440 555 Q 482 568 675 598 Q 708 602 720 587 Q 741 565 743 510 Q 750 341 740 231 Q 716 57 684 39 Q 674 33 600 50 Q 588 53 586 49 Q 582 42 600 27 Q 637 -13 654 -49 Q 676 -80 695 -74 Q 711 -70 733 -38 Q 764 2 784 79 Q 805 170 810 467 Q 810 545 830 571 Q 848 593 824 611 Q 749 659 712 646 Q 567 609 387 585 C 357 581 336 577 364 567 Z" fill="lightgray" class="stroke step14"/>
    <path d="M 314 486 Q 284 480 306 468 Q 340 450 385 461 Q 434 473 485 484 Q 507 490 512 493 Q 519 500 515 507 Q 508 516 485 521 Q 460 525 437 515 Q 412 505 382 498 Q 351 491 314 486 Z" fill="lightgray" class="stroke step14"/>
    <path d="M 272 409 Q 262 413 238 415 Q 228 416 224 412 Q 220 406 228 392 Q 249 361 266 307 Q 270 291 281 281 Q 297 263 302 277 Q 303 284 303 295 L 299 325 Q 290 370 289 385 C 287 404 287 404 272 409 Z" fill="lightgray" class="stroke step14"/>
    <path d="M 532 347 Q 550 380 572 390 Q 587 405 576 420 Q 563 432 521 455 Q 508 462 489 456 Q 408 429 272 409 C 242 405 260 378 289 385 Q 289 386 291 386 Q 381 401 466 416 Q 488 420 497 412 Q 503 405 488 358 C 479 329 517 321 532 347 Z" fill="lightgray" class="stroke step14"/>
    <path d="M 303 295 Q 307 295 313 296 Q 383 311 537 322 Q 546 323 547 330 Q 547 336 532 347 C 513 362 513 362 488 358 Q 484 358 481 357 Q 381 335 299 325 C 269 321 273 292 303 295 Z" fill="lightgray" class="stroke step14"/>
    <path d="M 228 234 Q 218 240 180 243 Q 167 246 165 240 Q 159 233 169 218 Q 203 160 227 62 Q 233 32 251 14 Q 270 -7 274 10 Q 275 17 276 27 L 273 58 Q 272 67 270 75 Q 246 169 239 202 C 233 231 232 232 228 234 Z" fill="lightgray" class="stroke step14"/>
    <path d="M 494 50 Q 512 22 528 13 Q 538 4 555 26 Q 568 45 599 153 Q 609 184 633 209 Q 646 222 635 236 Q 620 254 578 281 Q 562 290 501 277 Q 482 274 459 271 Q 327 253 228 234 C 199 228 210 195 239 202 Q 287 215 357 225 L 395 230 Q 515 251 537 235 Q 547 226 545 210 Q 523 90 505 78 C 490 56 490 56 494 50 Z" fill="lightgray" class="stroke step14"/>
    <path d="M 412 142 Q 443 146 471 149 Q 493 153 485 165 Q 475 178 451 183 Q 436 186 415 181 L 366 170 Q 330 161 299 152 Q 283 149 302 134 Q 305 133 367 136 L 412 142 Z" fill="lightgray" class="stroke step14"/>
    <path d="M 408 80 Q 409 114 412 142 L 415 181 Q 415 217 397 228 L 395 230 C 372 249 346 253 357 225 Q 363 213 366 170 L 367 136 Q 367 111 369 73 C 371 43 407 50 408 80 Z" fill="lightgray" class="stroke step14"/>
    <path d="M 276 27 Q 282 26 292 27 Q 356 42 494 50 C 524 52 528 59 505 78 Q 501 82 492 88 Q 470 100 408 80 L 369 73 Q 317 66 273 58 C 243 53 246 29 276 27 Z" fill="lightgray" class="stroke step14"/></g></svg>