<svg version="1.1" viewBox="0 0 16384 1024" xmlns="http://www.w3.org/2000/svg">
  
  <g transform="scale(1, -1) translate(0, -900)" class="origin">
    <style type="text/css">
        .origin {display:none;}
        .hide {display:none;}
        .stroke {fill: #000000;}
        
.step1 {transform: translateX(1024px);}
.step2 {transform: translateX(2048px);}
.step3 {transform: translateX(3072px);}
.step4 {transform: translateX(4096px);}
.step5 {transform: translateX(5120px);}
.step6 {transform: translateX(6144px);}
.step7 {transform: translateX(7168px);}
.step8 {transform: translateX(8192px);}
.step9 {transform: translateX(9216px);}
.step10 {transform: translateX(10240px);}
.step11 {transform: translateX(11264px);}
.step12 {transform: translateX(12288px);}
.step13 {transform: translateX(13312px);}
.step14 {transform: translateX(14336px);}
.step15 {transform: translateX(15360px);}
.step16 {transform: translateX(16384px);}
.step17 {transform: translateX(17408px);}
.step18 {transform: translateX(18432px);}
.step19 {transform: translateX(19456px);}
.step20 {transform: translateX(20480px);}
.step21 {transform: translateX(21504px);}
.step22 {transform: translateX(22528px);}
.step23 {transform: translateX(23552px);}
.step24 {transform: translateX(24576px);}
.step25 {transform: translateX(25600px);}
.step26 {transform: translateX(26624px);}
.step27 {transform: translateX(27648px);}
.step28 {transform: translateX(28672px);}
.step29 {transform: translateX(29696px);}
    </style>

    <path d="M 423 755 Q 422 771 422 785 Q 423 801 406 807 Q 370 825 352 818 Q 336 811 349 794 Q 368 773 377 747 L 386 714 Q 395 678 408 662 Q 420 653 424 663 Q 430 681 424 725 L 423 755 Z" fill="lightgray"/>
    <path d="M 424 725 Q 434 729 450 733 Q 463 734 480 744 Q 486 748 484 755 Q 483 761 470 763 Q 448 760 423 755 L 377 747 Q 323 740 257 727 Q 220 728 200 726 Q 190 726 188 722 Q 187 715 192 706 Q 205 693 231 682 Q 247 675 263 679 Q 321 697 386 714 L 424 725 Z" fill="lightgray"/>
    <path d="M 639 770 Q 642 780 664 809 Q 677 822 669 831 Q 659 847 629 865 Q 616 875 599 868 Q 589 864 596 852 Q 605 831 587 762 L 580 739 Q 567 697 566 685 Q 567 673 580 680 Q 598 690 611 719 Q 614 725 618 730 L 639 770 Z" fill="lightgray"/>
    <path d="M 618 730 Q 631 730 648 733 Q 717 746 806 740 Q 819 739 823 747 Q 827 756 816 768 Q 776 801 694 780 Q 667 776 639 770 L 587 762 Q 581 762 575 761 Q 551 758 568 746 Q 574 743 580 739 L 618 730 Z" fill="lightgray"/>
    <path d="M 448 610 Q 526 632 571 635 Q 586 634 590 640 Q 594 647 586 659 Q 541 704 513 704 Q 506 703 504 693 Q 498 656 286 598 Q 280 591 285 588 Q 291 588 411 603 L 448 610 Z" fill="lightgray"/>
    <path d="M 431 506 Q 456 515 573 522 L 603 525 Q 658 529 723 530 Q 786 530 792 539 Q 796 549 781 563 Q 733 597 697 589 Q 615 570 473 546 Q 464 545 456 542 L 391 532 Q 300 520 199 505 Q 180 502 194 487 Q 207 474 225 470 Q 244 466 259 470 Q 311 486 372 496 L 431 506 Z" fill="lightgray"/>
    <path d="M 387 442 Q 406 470 431 506 L 456 542 Q 463 552 473 563 Q 480 570 477 580 Q 473 590 450 609 Q 449 610 448 610 C 425 629 416 633 411 603 Q 407 569 391 532 L 372 496 Q 302 387 114 283 Q 107 279 112 274 Q 139 261 250 321 Q 317 355 368 419 L 387 442 Z" fill="lightgray"/>
    <path d="M 573 522 Q 574 521 578 517 Q 735 330 781 316 Q 845 307 936 323 Q 952 324 954 329 Q 957 336 943 341 Q 778 401 764 409 Q 704 443 603 525 C 580 544 553 544 573 522 Z" fill="lightgray"/>
    <path d="M 412 434 Q 405 438 387 442 C 358 449 355 446 368 419 Q 386 383 398 324 Q 399 305 411 293 Q 424 277 429 288 Q 432 297 432 309 L 430 336 Q 421 391 419 410 C 416 432 416 432 412 434 Z" fill="lightgray"/>
    <path d="M 569 353 Q 585 399 601 413 Q 620 434 601 446 Q 585 456 564 471 Q 548 481 505 458 Q 453 442 412 434 C 383 428 390 404 419 410 Q 438 414 508 430 Q 532 436 538 426 Q 541 423 525 358 C 518 329 559 325 569 353 Z" fill="lightgray"/>
    <path d="M 432 309 Q 442 308 453 310 Q 492 319 578 326 Q 587 327 588 334 Q 588 340 569 353 C 559 360 555 360 525 358 Q 524 359 521 358 Q 470 345 430 336 C 401 329 402 311 432 309 Z" fill="lightgray"/>
    <path d="M 278 238 Q 254 259 232 261 Q 226 264 222 257 Q 218 251 222 239 Q 252 185 242 45 Q 238 23 248 3 Q 260 -16 276 -27 Q 289 -36 292 -25 Q 307 -13 298 69 Q 292 162 294 199 C 295 224 295 224 278 238 Z" fill="lightgray"/>
    <path d="M 294 199 Q 456 253 679 264 Q 700 263 708 251 Q 715 242 710 228 Q 711 75 702 53 Q 698 43 685 46 Q 654 50 620 55 Q 592 56 612 40 Q 682 -11 713 -48 Q 723 -61 736 -51 Q 763 -20 768 86 Q 768 203 785 230 Q 800 251 794 258 Q 787 271 736 302 Q 718 317 672 300 Q 482 276 278 238 C 248 233 265 190 294 199 Z" fill="lightgray"/>
    <path d="M 405 182 Q 398 186 380 188 Q 370 191 366 187 Q 362 181 368 168 Q 387 128 400 63 Q 403 44 414 30 Q 429 11 434 24 Q 438 34 437 51 L 434 81 Q 425 141 425 158 C 424 174 424 174 405 182 Z" fill="lightgray"/>
    <path d="M 575 94 Q 591 142 607 155 Q 628 177 608 190 Q 592 200 568 217 Q 553 227 506 204 Q 467 192 405 182 C 375 177 396 149 425 158 Q 428 161 509 175 Q 534 179 539 170 Q 542 167 529 100 C 523 71 565 66 575 94 Z" fill="lightgray"/>
    <path d="M 437 51 Q 443 51 449 52 Q 492 61 585 66 Q 594 67 595 74 Q 595 81 575 94 C 556 107 556 107 529 100 Q 477 87 434 81 C 404 77 407 50 437 51 Z" fill="lightgray"/></g>
<g transform="scale(1, -1) translate(0, -900)">
    <style type="text/css">
        .origin {display:none;}
        .hide {display:none;}
        .stroke {fill: #000000;}
        
.step1 {transform: translateX(1024px);}
.step2 {transform: translateX(2048px);}
.step3 {transform: translateX(3072px);}
.step4 {transform: translateX(4096px);}
.step5 {transform: translateX(5120px);}
.step6 {transform: translateX(6144px);}
.step7 {transform: translateX(7168px);}
.step8 {transform: translateX(8192px);}
.step9 {transform: translateX(9216px);}
.step10 {transform: translateX(10240px);}
.step11 {transform: translateX(11264px);}
.step12 {transform: translateX(12288px);}
.step13 {transform: translateX(13312px);}
.step14 {transform: translateX(14336px);}
.step15 {transform: translateX(15360px);}
.step16 {transform: translateX(16384px);}
.step17 {transform: translateX(17408px);}
.step18 {transform: translateX(18432px);}
.step19 {transform: translateX(19456px);}
.step20 {transform: translateX(20480px);}
.step21 {transform: translateX(21504px);}
.step22 {transform: translateX(22528px);}
.step23 {transform: translateX(23552px);}
.step24 {transform: translateX(24576px);}
.step25 {transform: translateX(25600px);}
.step26 {transform: translateX(26624px);}
.step27 {transform: translateX(27648px);}
.step28 {transform: translateX(28672px);}
.step29 {transform: translateX(29696px);}
    </style>

    <path d="M 423 755 Q 422 771 422 785 Q 423 801 406 807 Q 370 825 352 818 Q 336 811 349 794 Q 368 773 377 747 L 386 714 Q 395 678 408 662 Q 420 653 424 663 Q 430 681 424 725 L 423 755 Z" fill="lightgray" class="stroke step0"/>
    <path d="M 424 725 Q 434 729 450 733 Q 463 734 480 744 Q 486 748 484 755 Q 483 761 470 763 Q 448 760 423 755 L 377 747 Q 323 740 257 727 Q 220 728 200 726 Q 190 726 188 722 Q 187 715 192 706 Q 205 693 231 682 Q 247 675 263 679 Q 321 697 386 714 L 424 725 Z" fill="lightgray" class="hide"/>
    <path d="M 639 770 Q 642 780 664 809 Q 677 822 669 831 Q 659 847 629 865 Q 616 875 599 868 Q 589 864 596 852 Q 605 831 587 762 L 580 739 Q 567 697 566 685 Q 567 673 580 680 Q 598 690 611 719 Q 614 725 618 730 L 639 770 Z" fill="lightgray" class="hide"/>
    <path d="M 618 730 Q 631 730 648 733 Q 717 746 806 740 Q 819 739 823 747 Q 827 756 816 768 Q 776 801 694 780 Q 667 776 639 770 L 587 762 Q 581 762 575 761 Q 551 758 568 746 Q 574 743 580 739 L 618 730 Z" fill="lightgray" class="hide"/>
    <path d="M 448 610 Q 526 632 571 635 Q 586 634 590 640 Q 594 647 586 659 Q 541 704 513 704 Q 506 703 504 693 Q 498 656 286 598 Q 280 591 285 588 Q 291 588 411 603 L 448 610 Z" fill="lightgray" class="hide"/>
    <path d="M 431 506 Q 456 515 573 522 L 603 525 Q 658 529 723 530 Q 786 530 792 539 Q 796 549 781 563 Q 733 597 697 589 Q 615 570 473 546 Q 464 545 456 542 L 391 532 Q 300 520 199 505 Q 180 502 194 487 Q 207 474 225 470 Q 244 466 259 470 Q 311 486 372 496 L 431 506 Z" fill="lightgray" class="hide"/>
    <path d="M 387 442 Q 406 470 431 506 L 456 542 Q 463 552 473 563 Q 480 570 477 580 Q 473 590 450 609 Q 449 610 448 610 C 425 629 416 633 411 603 Q 407 569 391 532 L 372 496 Q 302 387 114 283 Q 107 279 112 274 Q 139 261 250 321 Q 317 355 368 419 L 387 442 Z" fill="lightgray" class="hide"/>
    <path d="M 573 522 Q 574 521 578 517 Q 735 330 781 316 Q 845 307 936 323 Q 952 324 954 329 Q 957 336 943 341 Q 778 401 764 409 Q 704 443 603 525 C 580 544 553 544 573 522 Z" fill="lightgray" class="hide"/>
    <path d="M 412 434 Q 405 438 387 442 C 358 449 355 446 368 419 Q 386 383 398 324 Q 399 305 411 293 Q 424 277 429 288 Q 432 297 432 309 L 430 336 Q 421 391 419 410 C 416 432 416 432 412 434 Z" fill="lightgray" class="hide"/>
    <path d="M 569 353 Q 585 399 601 413 Q 620 434 601 446 Q 585 456 564 471 Q 548 481 505 458 Q 453 442 412 434 C 383 428 390 404 419 410 Q 438 414 508 430 Q 532 436 538 426 Q 541 423 525 358 C 518 329 559 325 569 353 Z" fill="lightgray" class="hide"/>
    <path d="M 432 309 Q 442 308 453 310 Q 492 319 578 326 Q 587 327 588 334 Q 588 340 569 353 C 559 360 555 360 525 358 Q 524 359 521 358 Q 470 345 430 336 C 401 329 402 311 432 309 Z" fill="lightgray" class="hide"/>
    <path d="M 278 238 Q 254 259 232 261 Q 226 264 222 257 Q 218 251 222 239 Q 252 185 242 45 Q 238 23 248 3 Q 260 -16 276 -27 Q 289 -36 292 -25 Q 307 -13 298 69 Q 292 162 294 199 C 295 224 295 224 278 238 Z" fill="lightgray" class="hide"/>
    <path d="M 294 199 Q 456 253 679 264 Q 700 263 708 251 Q 715 242 710 228 Q 711 75 702 53 Q 698 43 685 46 Q 654 50 620 55 Q 592 56 612 40 Q 682 -11 713 -48 Q 723 -61 736 -51 Q 763 -20 768 86 Q 768 203 785 230 Q 800 251 794 258 Q 787 271 736 302 Q 718 317 672 300 Q 482 276 278 238 C 248 233 265 190 294 199 Z" fill="lightgray" class="hide"/>
    <path d="M 405 182 Q 398 186 380 188 Q 370 191 366 187 Q 362 181 368 168 Q 387 128 400 63 Q 403 44 414 30 Q 429 11 434 24 Q 438 34 437 51 L 434 81 Q 425 141 425 158 C 424 174 424 174 405 182 Z" fill="lightgray" class="hide"/>
    <path d="M 575 94 Q 591 142 607 155 Q 628 177 608 190 Q 592 200 568 217 Q 553 227 506 204 Q 467 192 405 182 C 375 177 396 149 425 158 Q 428 161 509 175 Q 534 179 539 170 Q 542 167 529 100 C 523 71 565 66 575 94 Z" fill="lightgray" class="hide"/>
    <path d="M 437 51 Q 443 51 449 52 Q 492 61 585 66 Q 594 67 595 74 Q 595 81 575 94 C 556 107 556 107 529 100 Q 477 87 434 81 C 404 77 407 50 437 51 Z" fill="lightgray" class="hide"/></g><g transform="scale(1, -1) translate(0, -900)">
    <style type="text/css">
        .origin {display:none;}
        .hide {display:none;}
        .stroke {fill: #000000;}
        
.step1 {transform: translateX(1024px);}
.step2 {transform: translateX(2048px);}
.step3 {transform: translateX(3072px);}
.step4 {transform: translateX(4096px);}
.step5 {transform: translateX(5120px);}
.step6 {transform: translateX(6144px);}
.step7 {transform: translateX(7168px);}
.step8 {transform: translateX(8192px);}
.step9 {transform: translateX(9216px);}
.step10 {transform: translateX(10240px);}
.step11 {transform: translateX(11264px);}
.step12 {transform: translateX(12288px);}
.step13 {transform: translateX(13312px);}
.step14 {transform: translateX(14336px);}
.step15 {transform: translateX(15360px);}
.step16 {transform: translateX(16384px);}
.step17 {transform: translateX(17408px);}
.step18 {transform: translateX(18432px);}
.step19 {transform: translateX(19456px);}
.step20 {transform: translateX(20480px);}
.step21 {transform: translateX(21504px);}
.step22 {transform: translateX(22528px);}
.step23 {transform: translateX(23552px);}
.step24 {transform: translateX(24576px);}
.step25 {transform: translateX(25600px);}
.step26 {transform: translateX(26624px);}
.step27 {transform: translateX(27648px);}
.step28 {transform: translateX(28672px);}
.step29 {transform: translateX(29696px);}
    </style>

    <path d="M 423 755 Q 422 771 422 785 Q 423 801 406 807 Q 370 825 352 818 Q 336 811 349 794 Q 368 773 377 747 L 386 714 Q 395 678 408 662 Q 420 653 424 663 Q 430 681 424 725 L 423 755 Z" fill="lightgray" class="stroke step1"/>
    <path d="M 424 725 Q 434 729 450 733 Q 463 734 480 744 Q 486 748 484 755 Q 483 761 470 763 Q 448 760 423 755 L 377 747 Q 323 740 257 727 Q 220 728 200 726 Q 190 726 188 722 Q 187 715 192 706 Q 205 693 231 682 Q 247 675 263 679 Q 321 697 386 714 L 424 725 Z" fill="lightgray" class="stroke step1"/>
    <path d="M 639 770 Q 642 780 664 809 Q 677 822 669 831 Q 659 847 629 865 Q 616 875 599 868 Q 589 864 596 852 Q 605 831 587 762 L 580 739 Q 567 697 566 685 Q 567 673 580 680 Q 598 690 611 719 Q 614 725 618 730 L 639 770 Z" fill="lightgray" class="hide"/>
    <path d="M 618 730 Q 631 730 648 733 Q 717 746 806 740 Q 819 739 823 747 Q 827 756 816 768 Q 776 801 694 780 Q 667 776 639 770 L 587 762 Q 581 762 575 761 Q 551 758 568 746 Q 574 743 580 739 L 618 730 Z" fill="lightgray" class="hide"/>
    <path d="M 448 610 Q 526 632 571 635 Q 586 634 590 640 Q 594 647 586 659 Q 541 704 513 704 Q 506 703 504 693 Q 498 656 286 598 Q 280 591 285 588 Q 291 588 411 603 L 448 610 Z" fill="lightgray" class="hide"/>
    <path d="M 431 506 Q 456 515 573 522 L 603 525 Q 658 529 723 530 Q 786 530 792 539 Q 796 549 781 563 Q 733 597 697 589 Q 615 570 473 546 Q 464 545 456 542 L 391 532 Q 300 520 199 505 Q 180 502 194 487 Q 207 474 225 470 Q 244 466 259 470 Q 311 486 372 496 L 431 506 Z" fill="lightgray" class="hide"/>
    <path d="M 387 442 Q 406 470 431 506 L 456 542 Q 463 552 473 563 Q 480 570 477 580 Q 473 590 450 609 Q 449 610 448 610 C 425 629 416 633 411 603 Q 407 569 391 532 L 372 496 Q 302 387 114 283 Q 107 279 112 274 Q 139 261 250 321 Q 317 355 368 419 L 387 442 Z" fill="lightgray" class="hide"/>
    <path d="M 573 522 Q 574 521 578 517 Q 735 330 781 316 Q 845 307 936 323 Q 952 324 954 329 Q 957 336 943 341 Q 778 401 764 409 Q 704 443 603 525 C 580 544 553 544 573 522 Z" fill="lightgray" class="hide"/>
    <path d="M 412 434 Q 405 438 387 442 C 358 449 355 446 368 419 Q 386 383 398 324 Q 399 305 411 293 Q 424 277 429 288 Q 432 297 432 309 L 430 336 Q 421 391 419 410 C 416 432 416 432 412 434 Z" fill="lightgray" class="hide"/>
    <path d="M 569 353 Q 585 399 601 413 Q 620 434 601 446 Q 585 456 564 471 Q 548 481 505 458 Q 453 442 412 434 C 383 428 390 404 419 410 Q 438 414 508 430 Q 532 436 538 426 Q 541 423 525 358 C 518 329 559 325 569 353 Z" fill="lightgray" class="hide"/>
    <path d="M 432 309 Q 442 308 453 310 Q 492 319 578 326 Q 587 327 588 334 Q 588 340 569 353 C 559 360 555 360 525 358 Q 524 359 521 358 Q 470 345 430 336 C 401 329 402 311 432 309 Z" fill="lightgray" class="hide"/>
    <path d="M 278 238 Q 254 259 232 261 Q 226 264 222 257 Q 218 251 222 239 Q 252 185 242 45 Q 238 23 248 3 Q 260 -16 276 -27 Q 289 -36 292 -25 Q 307 -13 298 69 Q 292 162 294 199 C 295 224 295 224 278 238 Z" fill="lightgray" class="hide"/>
    <path d="M 294 199 Q 456 253 679 264 Q 700 263 708 251 Q 715 242 710 228 Q 711 75 702 53 Q 698 43 685 46 Q 654 50 620 55 Q 592 56 612 40 Q 682 -11 713 -48 Q 723 -61 736 -51 Q 763 -20 768 86 Q 768 203 785 230 Q 800 251 794 258 Q 787 271 736 302 Q 718 317 672 300 Q 482 276 278 238 C 248 233 265 190 294 199 Z" fill="lightgray" class="hide"/>
    <path d="M 405 182 Q 398 186 380 188 Q 370 191 366 187 Q 362 181 368 168 Q 387 128 400 63 Q 403 44 414 30 Q 429 11 434 24 Q 438 34 437 51 L 434 81 Q 425 141 425 158 C 424 174 424 174 405 182 Z" fill="lightgray" class="hide"/>
    <path d="M 575 94 Q 591 142 607 155 Q 628 177 608 190 Q 592 200 568 217 Q 553 227 506 204 Q 467 192 405 182 C 375 177 396 149 425 158 Q 428 161 509 175 Q 534 179 539 170 Q 542 167 529 100 C 523 71 565 66 575 94 Z" fill="lightgray" class="hide"/>
    <path d="M 437 51 Q 443 51 449 52 Q 492 61 585 66 Q 594 67 595 74 Q 595 81 575 94 C 556 107 556 107 529 100 Q 477 87 434 81 C 404 77 407 50 437 51 Z" fill="lightgray" class="hide"/></g><g transform="scale(1, -1) translate(0, -900)">
    <style type="text/css">
        .origin {display:none;}
        .hide {display:none;}
        .stroke {fill: #000000;}
        
.step1 {transform: translateX(1024px);}
.step2 {transform: translateX(2048px);}
.step3 {transform: translateX(3072px);}
.step4 {transform: translateX(4096px);}
.step5 {transform: translateX(5120px);}
.step6 {transform: translateX(6144px);}
.step7 {transform: translateX(7168px);}
.step8 {transform: translateX(8192px);}
.step9 {transform: translateX(9216px);}
.step10 {transform: translateX(10240px);}
.step11 {transform: translateX(11264px);}
.step12 {transform: translateX(12288px);}
.step13 {transform: translateX(13312px);}
.step14 {transform: translateX(14336px);}
.step15 {transform: translateX(15360px);}
.step16 {transform: translateX(16384px);}
.step17 {transform: translateX(17408px);}
.step18 {transform: translateX(18432px);}
.step19 {transform: translateX(19456px);}
.step20 {transform: translateX(20480px);}
.step21 {transform: translateX(21504px);}
.step22 {transform: translateX(22528px);}
.step23 {transform: translateX(23552px);}
.step24 {transform: translateX(24576px);}
.step25 {transform: translateX(25600px);}
.step26 {transform: translateX(26624px);}
.step27 {transform: translateX(27648px);}
.step28 {transform: translateX(28672px);}
.step29 {transform: translateX(29696px);}
    </style>

    <path d="M 423 755 Q 422 771 422 785 Q 423 801 406 807 Q 370 825 352 818 Q 336 811 349 794 Q 368 773 377 747 L 386 714 Q 395 678 408 662 Q 420 653 424 663 Q 430 681 424 725 L 423 755 Z" fill="lightgray" class="stroke step2"/>
    <path d="M 424 725 Q 434 729 450 733 Q 463 734 480 744 Q 486 748 484 755 Q 483 761 470 763 Q 448 760 423 755 L 377 747 Q 323 740 257 727 Q 220 728 200 726 Q 190 726 188 722 Q 187 715 192 706 Q 205 693 231 682 Q 247 675 263 679 Q 321 697 386 714 L 424 725 Z" fill="lightgray" class="stroke step2"/>
    <path d="M 639 770 Q 642 780 664 809 Q 677 822 669 831 Q 659 847 629 865 Q 616 875 599 868 Q 589 864 596 852 Q 605 831 587 762 L 580 739 Q 567 697 566 685 Q 567 673 580 680 Q 598 690 611 719 Q 614 725 618 730 L 639 770 Z" fill="lightgray" class="stroke step2"/>
    <path d="M 618 730 Q 631 730 648 733 Q 717 746 806 740 Q 819 739 823 747 Q 827 756 816 768 Q 776 801 694 780 Q 667 776 639 770 L 587 762 Q 581 762 575 761 Q 551 758 568 746 Q 574 743 580 739 L 618 730 Z" fill="lightgray" class="hide"/>
    <path d="M 448 610 Q 526 632 571 635 Q 586 634 590 640 Q 594 647 586 659 Q 541 704 513 704 Q 506 703 504 693 Q 498 656 286 598 Q 280 591 285 588 Q 291 588 411 603 L 448 610 Z" fill="lightgray" class="hide"/>
    <path d="M 431 506 Q 456 515 573 522 L 603 525 Q 658 529 723 530 Q 786 530 792 539 Q 796 549 781 563 Q 733 597 697 589 Q 615 570 473 546 Q 464 545 456 542 L 391 532 Q 300 520 199 505 Q 180 502 194 487 Q 207 474 225 470 Q 244 466 259 470 Q 311 486 372 496 L 431 506 Z" fill="lightgray" class="hide"/>
    <path d="M 387 442 Q 406 470 431 506 L 456 542 Q 463 552 473 563 Q 480 570 477 580 Q 473 590 450 609 Q 449 610 448 610 C 425 629 416 633 411 603 Q 407 569 391 532 L 372 496 Q 302 387 114 283 Q 107 279 112 274 Q 139 261 250 321 Q 317 355 368 419 L 387 442 Z" fill="lightgray" class="hide"/>
    <path d="M 573 522 Q 574 521 578 517 Q 735 330 781 316 Q 845 307 936 323 Q 952 324 954 329 Q 957 336 943 341 Q 778 401 764 409 Q 704 443 603 525 C 580 544 553 544 573 522 Z" fill="lightgray" class="hide"/>
    <path d="M 412 434 Q 405 438 387 442 C 358 449 355 446 368 419 Q 386 383 398 324 Q 399 305 411 293 Q 424 277 429 288 Q 432 297 432 309 L 430 336 Q 421 391 419 410 C 416 432 416 432 412 434 Z" fill="lightgray" class="hide"/>
    <path d="M 569 353 Q 585 399 601 413 Q 620 434 601 446 Q 585 456 564 471 Q 548 481 505 458 Q 453 442 412 434 C 383 428 390 404 419 410 Q 438 414 508 430 Q 532 436 538 426 Q 541 423 525 358 C 518 329 559 325 569 353 Z" fill="lightgray" class="hide"/>
    <path d="M 432 309 Q 442 308 453 310 Q 492 319 578 326 Q 587 327 588 334 Q 588 340 569 353 C 559 360 555 360 525 358 Q 524 359 521 358 Q 470 345 430 336 C 401 329 402 311 432 309 Z" fill="lightgray" class="hide"/>
    <path d="M 278 238 Q 254 259 232 261 Q 226 264 222 257 Q 218 251 222 239 Q 252 185 242 45 Q 238 23 248 3 Q 260 -16 276 -27 Q 289 -36 292 -25 Q 307 -13 298 69 Q 292 162 294 199 C 295 224 295 224 278 238 Z" fill="lightgray" class="hide"/>
    <path d="M 294 199 Q 456 253 679 264 Q 700 263 708 251 Q 715 242 710 228 Q 711 75 702 53 Q 698 43 685 46 Q 654 50 620 55 Q 592 56 612 40 Q 682 -11 713 -48 Q 723 -61 736 -51 Q 763 -20 768 86 Q 768 203 785 230 Q 800 251 794 258 Q 787 271 736 302 Q 718 317 672 300 Q 482 276 278 238 C 248 233 265 190 294 199 Z" fill="lightgray" class="hide"/>
    <path d="M 405 182 Q 398 186 380 188 Q 370 191 366 187 Q 362 181 368 168 Q 387 128 400 63 Q 403 44 414 30 Q 429 11 434 24 Q 438 34 437 51 L 434 81 Q 425 141 425 158 C 424 174 424 174 405 182 Z" fill="lightgray" class="hide"/>
    <path d="M 575 94 Q 591 142 607 155 Q 628 177 608 190 Q 592 200 568 217 Q 553 227 506 204 Q 467 192 405 182 C 375 177 396 149 425 158 Q 428 161 509 175 Q 534 179 539 170 Q 542 167 529 100 C 523 71 565 66 575 94 Z" fill="lightgray" class="hide"/>
    <path d="M 437 51 Q 443 51 449 52 Q 492 61 585 66 Q 594 67 595 74 Q 595 81 575 94 C 556 107 556 107 529 100 Q 477 87 434 81 C 404 77 407 50 437 51 Z" fill="lightgray" class="hide"/></g><g transform="scale(1, -1) translate(0, -900)">
    <style type="text/css">
        .origin {display:none;}
        .hide {display:none;}
        .stroke {fill: #000000;}
        
.step1 {transform: translateX(1024px);}
.step2 {transform: translateX(2048px);}
.step3 {transform: translateX(3072px);}
.step4 {transform: translateX(4096px);}
.step5 {transform: translateX(5120px);}
.step6 {transform: translateX(6144px);}
.step7 {transform: translateX(7168px);}
.step8 {transform: translateX(8192px);}
.step9 {transform: translateX(9216px);}
.step10 {transform: translateX(10240px);}
.step11 {transform: translateX(11264px);}
.step12 {transform: translateX(12288px);}
.step13 {transform: translateX(13312px);}
.step14 {transform: translateX(14336px);}
.step15 {transform: translateX(15360px);}
.step16 {transform: translateX(16384px);}
.step17 {transform: translateX(17408px);}
.step18 {transform: translateX(18432px);}
.step19 {transform: translateX(19456px);}
.step20 {transform: translateX(20480px);}
.step21 {transform: translateX(21504px);}
.step22 {transform: translateX(22528px);}
.step23 {transform: translateX(23552px);}
.step24 {transform: translateX(24576px);}
.step25 {transform: translateX(25600px);}
.step26 {transform: translateX(26624px);}
.step27 {transform: translateX(27648px);}
.step28 {transform: translateX(28672px);}
.step29 {transform: translateX(29696px);}
    </style>

    <path d="M 423 755 Q 422 771 422 785 Q 423 801 406 807 Q 370 825 352 818 Q 336 811 349 794 Q 368 773 377 747 L 386 714 Q 395 678 408 662 Q 420 653 424 663 Q 430 681 424 725 L 423 755 Z" fill="lightgray" class="stroke step3"/>
    <path d="M 424 725 Q 434 729 450 733 Q 463 734 480 744 Q 486 748 484 755 Q 483 761 470 763 Q 448 760 423 755 L 377 747 Q 323 740 257 727 Q 220 728 200 726 Q 190 726 188 722 Q 187 715 192 706 Q 205 693 231 682 Q 247 675 263 679 Q 321 697 386 714 L 424 725 Z" fill="lightgray" class="stroke step3"/>
    <path d="M 639 770 Q 642 780 664 809 Q 677 822 669 831 Q 659 847 629 865 Q 616 875 599 868 Q 589 864 596 852 Q 605 831 587 762 L 580 739 Q 567 697 566 685 Q 567 673 580 680 Q 598 690 611 719 Q 614 725 618 730 L 639 770 Z" fill="lightgray" class="stroke step3"/>
    <path d="M 618 730 Q 631 730 648 733 Q 717 746 806 740 Q 819 739 823 747 Q 827 756 816 768 Q 776 801 694 780 Q 667 776 639 770 L 587 762 Q 581 762 575 761 Q 551 758 568 746 Q 574 743 580 739 L 618 730 Z" fill="lightgray" class="stroke step3"/>
    <path d="M 448 610 Q 526 632 571 635 Q 586 634 590 640 Q 594 647 586 659 Q 541 704 513 704 Q 506 703 504 693 Q 498 656 286 598 Q 280 591 285 588 Q 291 588 411 603 L 448 610 Z" fill="lightgray" class="hide"/>
    <path d="M 431 506 Q 456 515 573 522 L 603 525 Q 658 529 723 530 Q 786 530 792 539 Q 796 549 781 563 Q 733 597 697 589 Q 615 570 473 546 Q 464 545 456 542 L 391 532 Q 300 520 199 505 Q 180 502 194 487 Q 207 474 225 470 Q 244 466 259 470 Q 311 486 372 496 L 431 506 Z" fill="lightgray" class="hide"/>
    <path d="M 387 442 Q 406 470 431 506 L 456 542 Q 463 552 473 563 Q 480 570 477 580 Q 473 590 450 609 Q 449 610 448 610 C 425 629 416 633 411 603 Q 407 569 391 532 L 372 496 Q 302 387 114 283 Q 107 279 112 274 Q 139 261 250 321 Q 317 355 368 419 L 387 442 Z" fill="lightgray" class="hide"/>
    <path d="M 573 522 Q 574 521 578 517 Q 735 330 781 316 Q 845 307 936 323 Q 952 324 954 329 Q 957 336 943 341 Q 778 401 764 409 Q 704 443 603 525 C 580 544 553 544 573 522 Z" fill="lightgray" class="hide"/>
    <path d="M 412 434 Q 405 438 387 442 C 358 449 355 446 368 419 Q 386 383 398 324 Q 399 305 411 293 Q 424 277 429 288 Q 432 297 432 309 L 430 336 Q 421 391 419 410 C 416 432 416 432 412 434 Z" fill="lightgray" class="hide"/>
    <path d="M 569 353 Q 585 399 601 413 Q 620 434 601 446 Q 585 456 564 471 Q 548 481 505 458 Q 453 442 412 434 C 383 428 390 404 419 410 Q 438 414 508 430 Q 532 436 538 426 Q 541 423 525 358 C 518 329 559 325 569 353 Z" fill="lightgray" class="hide"/>
    <path d="M 432 309 Q 442 308 453 310 Q 492 319 578 326 Q 587 327 588 334 Q 588 340 569 353 C 559 360 555 360 525 358 Q 524 359 521 358 Q 470 345 430 336 C 401 329 402 311 432 309 Z" fill="lightgray" class="hide"/>
    <path d="M 278 238 Q 254 259 232 261 Q 226 264 222 257 Q 218 251 222 239 Q 252 185 242 45 Q 238 23 248 3 Q 260 -16 276 -27 Q 289 -36 292 -25 Q 307 -13 298 69 Q 292 162 294 199 C 295 224 295 224 278 238 Z" fill="lightgray" class="hide"/>
    <path d="M 294 199 Q 456 253 679 264 Q 700 263 708 251 Q 715 242 710 228 Q 711 75 702 53 Q 698 43 685 46 Q 654 50 620 55 Q 592 56 612 40 Q 682 -11 713 -48 Q 723 -61 736 -51 Q 763 -20 768 86 Q 768 203 785 230 Q 800 251 794 258 Q 787 271 736 302 Q 718 317 672 300 Q 482 276 278 238 C 248 233 265 190 294 199 Z" fill="lightgray" class="hide"/>
    <path d="M 405 182 Q 398 186 380 188 Q 370 191 366 187 Q 362 181 368 168 Q 387 128 400 63 Q 403 44 414 30 Q 429 11 434 24 Q 438 34 437 51 L 434 81 Q 425 141 425 158 C 424 174 424 174 405 182 Z" fill="lightgray" class="hide"/>
    <path d="M 575 94 Q 591 142 607 155 Q 628 177 608 190 Q 592 200 568 217 Q 553 227 506 204 Q 467 192 405 182 C 375 177 396 149 425 158 Q 428 161 509 175 Q 534 179 539 170 Q 542 167 529 100 C 523 71 565 66 575 94 Z" fill="lightgray" class="hide"/>
    <path d="M 437 51 Q 443 51 449 52 Q 492 61 585 66 Q 594 67 595 74 Q 595 81 575 94 C 556 107 556 107 529 100 Q 477 87 434 81 C 404 77 407 50 437 51 Z" fill="lightgray" class="hide"/></g><g transform="scale(1, -1) translate(0, -900)">
    <style type="text/css">
        .origin {display:none;}
        .hide {display:none;}
        .stroke {fill: #000000;}
        
.step1 {transform: translateX(1024px);}
.step2 {transform: translateX(2048px);}
.step3 {transform: translateX(3072px);}
.step4 {transform: translateX(4096px);}
.step5 {transform: translateX(5120px);}
.step6 {transform: translateX(6144px);}
.step7 {transform: translateX(7168px);}
.step8 {transform: translateX(8192px);}
.step9 {transform: translateX(9216px);}
.step10 {transform: translateX(10240px);}
.step11 {transform: translateX(11264px);}
.step12 {transform: translateX(12288px);}
.step13 {transform: translateX(13312px);}
.step14 {transform: translateX(14336px);}
.step15 {transform: translateX(15360px);}
.step16 {transform: translateX(16384px);}
.step17 {transform: translateX(17408px);}
.step18 {transform: translateX(18432px);}
.step19 {transform: translateX(19456px);}
.step20 {transform: translateX(20480px);}
.step21 {transform: translateX(21504px);}
.step22 {transform: translateX(22528px);}
.step23 {transform: translateX(23552px);}
.step24 {transform: translateX(24576px);}
.step25 {transform: translateX(25600px);}
.step26 {transform: translateX(26624px);}
.step27 {transform: translateX(27648px);}
.step28 {transform: translateX(28672px);}
.step29 {transform: translateX(29696px);}
    </style>

    <path d="M 423 755 Q 422 771 422 785 Q 423 801 406 807 Q 370 825 352 818 Q 336 811 349 794 Q 368 773 377 747 L 386 714 Q 395 678 408 662 Q 420 653 424 663 Q 430 681 424 725 L 423 755 Z" fill="lightgray" class="stroke step4"/>
    <path d="M 424 725 Q 434 729 450 733 Q 463 734 480 744 Q 486 748 484 755 Q 483 761 470 763 Q 448 760 423 755 L 377 747 Q 323 740 257 727 Q 220 728 200 726 Q 190 726 188 722 Q 187 715 192 706 Q 205 693 231 682 Q 247 675 263 679 Q 321 697 386 714 L 424 725 Z" fill="lightgray" class="stroke step4"/>
    <path d="M 639 770 Q 642 780 664 809 Q 677 822 669 831 Q 659 847 629 865 Q 616 875 599 868 Q 589 864 596 852 Q 605 831 587 762 L 580 739 Q 567 697 566 685 Q 567 673 580 680 Q 598 690 611 719 Q 614 725 618 730 L 639 770 Z" fill="lightgray" class="stroke step4"/>
    <path d="M 618 730 Q 631 730 648 733 Q 717 746 806 740 Q 819 739 823 747 Q 827 756 816 768 Q 776 801 694 780 Q 667 776 639 770 L 587 762 Q 581 762 575 761 Q 551 758 568 746 Q 574 743 580 739 L 618 730 Z" fill="lightgray" class="stroke step4"/>
    <path d="M 448 610 Q 526 632 571 635 Q 586 634 590 640 Q 594 647 586 659 Q 541 704 513 704 Q 506 703 504 693 Q 498 656 286 598 Q 280 591 285 588 Q 291 588 411 603 L 448 610 Z" fill="lightgray" class="stroke step4"/>
    <path d="M 431 506 Q 456 515 573 522 L 603 525 Q 658 529 723 530 Q 786 530 792 539 Q 796 549 781 563 Q 733 597 697 589 Q 615 570 473 546 Q 464 545 456 542 L 391 532 Q 300 520 199 505 Q 180 502 194 487 Q 207 474 225 470 Q 244 466 259 470 Q 311 486 372 496 L 431 506 Z" fill="lightgray" class="hide"/>
    <path d="M 387 442 Q 406 470 431 506 L 456 542 Q 463 552 473 563 Q 480 570 477 580 Q 473 590 450 609 Q 449 610 448 610 C 425 629 416 633 411 603 Q 407 569 391 532 L 372 496 Q 302 387 114 283 Q 107 279 112 274 Q 139 261 250 321 Q 317 355 368 419 L 387 442 Z" fill="lightgray" class="hide"/>
    <path d="M 573 522 Q 574 521 578 517 Q 735 330 781 316 Q 845 307 936 323 Q 952 324 954 329 Q 957 336 943 341 Q 778 401 764 409 Q 704 443 603 525 C 580 544 553 544 573 522 Z" fill="lightgray" class="hide"/>
    <path d="M 412 434 Q 405 438 387 442 C 358 449 355 446 368 419 Q 386 383 398 324 Q 399 305 411 293 Q 424 277 429 288 Q 432 297 432 309 L 430 336 Q 421 391 419 410 C 416 432 416 432 412 434 Z" fill="lightgray" class="hide"/>
    <path d="M 569 353 Q 585 399 601 413 Q 620 434 601 446 Q 585 456 564 471 Q 548 481 505 458 Q 453 442 412 434 C 383 428 390 404 419 410 Q 438 414 508 430 Q 532 436 538 426 Q 541 423 525 358 C 518 329 559 325 569 353 Z" fill="lightgray" class="hide"/>
    <path d="M 432 309 Q 442 308 453 310 Q 492 319 578 326 Q 587 327 588 334 Q 588 340 569 353 C 559 360 555 360 525 358 Q 524 359 521 358 Q 470 345 430 336 C 401 329 402 311 432 309 Z" fill="lightgray" class="hide"/>
    <path d="M 278 238 Q 254 259 232 261 Q 226 264 222 257 Q 218 251 222 239 Q 252 185 242 45 Q 238 23 248 3 Q 260 -16 276 -27 Q 289 -36 292 -25 Q 307 -13 298 69 Q 292 162 294 199 C 295 224 295 224 278 238 Z" fill="lightgray" class="hide"/>
    <path d="M 294 199 Q 456 253 679 264 Q 700 263 708 251 Q 715 242 710 228 Q 711 75 702 53 Q 698 43 685 46 Q 654 50 620 55 Q 592 56 612 40 Q 682 -11 713 -48 Q 723 -61 736 -51 Q 763 -20 768 86 Q 768 203 785 230 Q 800 251 794 258 Q 787 271 736 302 Q 718 317 672 300 Q 482 276 278 238 C 248 233 265 190 294 199 Z" fill="lightgray" class="hide"/>
    <path d="M 405 182 Q 398 186 380 188 Q 370 191 366 187 Q 362 181 368 168 Q 387 128 400 63 Q 403 44 414 30 Q 429 11 434 24 Q 438 34 437 51 L 434 81 Q 425 141 425 158 C 424 174 424 174 405 182 Z" fill="lightgray" class="hide"/>
    <path d="M 575 94 Q 591 142 607 155 Q 628 177 608 190 Q 592 200 568 217 Q 553 227 506 204 Q 467 192 405 182 C 375 177 396 149 425 158 Q 428 161 509 175 Q 534 179 539 170 Q 542 167 529 100 C 523 71 565 66 575 94 Z" fill="lightgray" class="hide"/>
    <path d="M 437 51 Q 443 51 449 52 Q 492 61 585 66 Q 594 67 595 74 Q 595 81 575 94 C 556 107 556 107 529 100 Q 477 87 434 81 C 404 77 407 50 437 51 Z" fill="lightgray" class="hide"/></g><g transform="scale(1, -1) translate(0, -900)">
    <style type="text/css">
        .origin {display:none;}
        .hide {display:none;}
        .stroke {fill: #000000;}
        
.step1 {transform: translateX(1024px);}
.step2 {transform: translateX(2048px);}
.step3 {transform: translateX(3072px);}
.step4 {transform: translateX(4096px);}
.step5 {transform: translateX(5120px);}
.step6 {transform: translateX(6144px);}
.step7 {transform: translateX(7168px);}
.step8 {transform: translateX(8192px);}
.step9 {transform: translateX(9216px);}
.step10 {transform: translateX(10240px);}
.step11 {transform: translateX(11264px);}
.step12 {transform: translateX(12288px);}
.step13 {transform: translateX(13312px);}
.step14 {transform: translateX(14336px);}
.step15 {transform: translateX(15360px);}
.step16 {transform: translateX(16384px);}
.step17 {transform: translateX(17408px);}
.step18 {transform: translateX(18432px);}
.step19 {transform: translateX(19456px);}
.step20 {transform: translateX(20480px);}
.step21 {transform: translateX(21504px);}
.step22 {transform: translateX(22528px);}
.step23 {transform: translateX(23552px);}
.step24 {transform: translateX(24576px);}
.step25 {transform: translateX(25600px);}
.step26 {transform: translateX(26624px);}
.step27 {transform: translateX(27648px);}
.step28 {transform: translateX(28672px);}
.step29 {transform: translateX(29696px);}
    </style>

    <path d="M 423 755 Q 422 771 422 785 Q 423 801 406 807 Q 370 825 352 818 Q 336 811 349 794 Q 368 773 377 747 L 386 714 Q 395 678 408 662 Q 420 653 424 663 Q 430 681 424 725 L 423 755 Z" fill="lightgray" class="stroke step5"/>
    <path d="M 424 725 Q 434 729 450 733 Q 463 734 480 744 Q 486 748 484 755 Q 483 761 470 763 Q 448 760 423 755 L 377 747 Q 323 740 257 727 Q 220 728 200 726 Q 190 726 188 722 Q 187 715 192 706 Q 205 693 231 682 Q 247 675 263 679 Q 321 697 386 714 L 424 725 Z" fill="lightgray" class="stroke step5"/>
    <path d="M 639 770 Q 642 780 664 809 Q 677 822 669 831 Q 659 847 629 865 Q 616 875 599 868 Q 589 864 596 852 Q 605 831 587 762 L 580 739 Q 567 697 566 685 Q 567 673 580 680 Q 598 690 611 719 Q 614 725 618 730 L 639 770 Z" fill="lightgray" class="stroke step5"/>
    <path d="M 618 730 Q 631 730 648 733 Q 717 746 806 740 Q 819 739 823 747 Q 827 756 816 768 Q 776 801 694 780 Q 667 776 639 770 L 587 762 Q 581 762 575 761 Q 551 758 568 746 Q 574 743 580 739 L 618 730 Z" fill="lightgray" class="stroke step5"/>
    <path d="M 448 610 Q 526 632 571 635 Q 586 634 590 640 Q 594 647 586 659 Q 541 704 513 704 Q 506 703 504 693 Q 498 656 286 598 Q 280 591 285 588 Q 291 588 411 603 L 448 610 Z" fill="lightgray" class="stroke step5"/>
    <path d="M 431 506 Q 456 515 573 522 L 603 525 Q 658 529 723 530 Q 786 530 792 539 Q 796 549 781 563 Q 733 597 697 589 Q 615 570 473 546 Q 464 545 456 542 L 391 532 Q 300 520 199 505 Q 180 502 194 487 Q 207 474 225 470 Q 244 466 259 470 Q 311 486 372 496 L 431 506 Z" fill="lightgray" class="stroke step5"/>
    <path d="M 387 442 Q 406 470 431 506 L 456 542 Q 463 552 473 563 Q 480 570 477 580 Q 473 590 450 609 Q 449 610 448 610 C 425 629 416 633 411 603 Q 407 569 391 532 L 372 496 Q 302 387 114 283 Q 107 279 112 274 Q 139 261 250 321 Q 317 355 368 419 L 387 442 Z" fill="lightgray" class="hide"/>
    <path d="M 573 522 Q 574 521 578 517 Q 735 330 781 316 Q 845 307 936 323 Q 952 324 954 329 Q 957 336 943 341 Q 778 401 764 409 Q 704 443 603 525 C 580 544 553 544 573 522 Z" fill="lightgray" class="hide"/>
    <path d="M 412 434 Q 405 438 387 442 C 358 449 355 446 368 419 Q 386 383 398 324 Q 399 305 411 293 Q 424 277 429 288 Q 432 297 432 309 L 430 336 Q 421 391 419 410 C 416 432 416 432 412 434 Z" fill="lightgray" class="hide"/>
    <path d="M 569 353 Q 585 399 601 413 Q 620 434 601 446 Q 585 456 564 471 Q 548 481 505 458 Q 453 442 412 434 C 383 428 390 404 419 410 Q 438 414 508 430 Q 532 436 538 426 Q 541 423 525 358 C 518 329 559 325 569 353 Z" fill="lightgray" class="hide"/>
    <path d="M 432 309 Q 442 308 453 310 Q 492 319 578 326 Q 587 327 588 334 Q 588 340 569 353 C 559 360 555 360 525 358 Q 524 359 521 358 Q 470 345 430 336 C 401 329 402 311 432 309 Z" fill="lightgray" class="hide"/>
    <path d="M 278 238 Q 254 259 232 261 Q 226 264 222 257 Q 218 251 222 239 Q 252 185 242 45 Q 238 23 248 3 Q 260 -16 276 -27 Q 289 -36 292 -25 Q 307 -13 298 69 Q 292 162 294 199 C 295 224 295 224 278 238 Z" fill="lightgray" class="hide"/>
    <path d="M 294 199 Q 456 253 679 264 Q 700 263 708 251 Q 715 242 710 228 Q 711 75 702 53 Q 698 43 685 46 Q 654 50 620 55 Q 592 56 612 40 Q 682 -11 713 -48 Q 723 -61 736 -51 Q 763 -20 768 86 Q 768 203 785 230 Q 800 251 794 258 Q 787 271 736 302 Q 718 317 672 300 Q 482 276 278 238 C 248 233 265 190 294 199 Z" fill="lightgray" class="hide"/>
    <path d="M 405 182 Q 398 186 380 188 Q 370 191 366 187 Q 362 181 368 168 Q 387 128 400 63 Q 403 44 414 30 Q 429 11 434 24 Q 438 34 437 51 L 434 81 Q 425 141 425 158 C 424 174 424 174 405 182 Z" fill="lightgray" class="hide"/>
    <path d="M 575 94 Q 591 142 607 155 Q 628 177 608 190 Q 592 200 568 217 Q 553 227 506 204 Q 467 192 405 182 C 375 177 396 149 425 158 Q 428 161 509 175 Q 534 179 539 170 Q 542 167 529 100 C 523 71 565 66 575 94 Z" fill="lightgray" class="hide"/>
    <path d="M 437 51 Q 443 51 449 52 Q 492 61 585 66 Q 594 67 595 74 Q 595 81 575 94 C 556 107 556 107 529 100 Q 477 87 434 81 C 404 77 407 50 437 51 Z" fill="lightgray" class="hide"/></g><g transform="scale(1, -1) translate(0, -900)">
    <style type="text/css">
        .origin {display:none;}
        .hide {display:none;}
        .stroke {fill: #000000;}
        
.step1 {transform: translateX(1024px);}
.step2 {transform: translateX(2048px);}
.step3 {transform: translateX(3072px);}
.step4 {transform: translateX(4096px);}
.step5 {transform: translateX(5120px);}
.step6 {transform: translateX(6144px);}
.step7 {transform: translateX(7168px);}
.step8 {transform: translateX(8192px);}
.step9 {transform: translateX(9216px);}
.step10 {transform: translateX(10240px);}
.step11 {transform: translateX(11264px);}
.step12 {transform: translateX(12288px);}
.step13 {transform: translateX(13312px);}
.step14 {transform: translateX(14336px);}
.step15 {transform: translateX(15360px);}
.step16 {transform: translateX(16384px);}
.step17 {transform: translateX(17408px);}
.step18 {transform: translateX(18432px);}
.step19 {transform: translateX(19456px);}
.step20 {transform: translateX(20480px);}
.step21 {transform: translateX(21504px);}
.step22 {transform: translateX(22528px);}
.step23 {transform: translateX(23552px);}
.step24 {transform: translateX(24576px);}
.step25 {transform: translateX(25600px);}
.step26 {transform: translateX(26624px);}
.step27 {transform: translateX(27648px);}
.step28 {transform: translateX(28672px);}
.step29 {transform: translateX(29696px);}
    </style>

    <path d="M 423 755 Q 422 771 422 785 Q 423 801 406 807 Q 370 825 352 818 Q 336 811 349 794 Q 368 773 377 747 L 386 714 Q 395 678 408 662 Q 420 653 424 663 Q 430 681 424 725 L 423 755 Z" fill="lightgray" class="stroke step6"/>
    <path d="M 424 725 Q 434 729 450 733 Q 463 734 480 744 Q 486 748 484 755 Q 483 761 470 763 Q 448 760 423 755 L 377 747 Q 323 740 257 727 Q 220 728 200 726 Q 190 726 188 722 Q 187 715 192 706 Q 205 693 231 682 Q 247 675 263 679 Q 321 697 386 714 L 424 725 Z" fill="lightgray" class="stroke step6"/>
    <path d="M 639 770 Q 642 780 664 809 Q 677 822 669 831 Q 659 847 629 865 Q 616 875 599 868 Q 589 864 596 852 Q 605 831 587 762 L 580 739 Q 567 697 566 685 Q 567 673 580 680 Q 598 690 611 719 Q 614 725 618 730 L 639 770 Z" fill="lightgray" class="stroke step6"/>
    <path d="M 618 730 Q 631 730 648 733 Q 717 746 806 740 Q 819 739 823 747 Q 827 756 816 768 Q 776 801 694 780 Q 667 776 639 770 L 587 762 Q 581 762 575 761 Q 551 758 568 746 Q 574 743 580 739 L 618 730 Z" fill="lightgray" class="stroke step6"/>
    <path d="M 448 610 Q 526 632 571 635 Q 586 634 590 640 Q 594 647 586 659 Q 541 704 513 704 Q 506 703 504 693 Q 498 656 286 598 Q 280 591 285 588 Q 291 588 411 603 L 448 610 Z" fill="lightgray" class="stroke step6"/>
    <path d="M 431 506 Q 456 515 573 522 L 603 525 Q 658 529 723 530 Q 786 530 792 539 Q 796 549 781 563 Q 733 597 697 589 Q 615 570 473 546 Q 464 545 456 542 L 391 532 Q 300 520 199 505 Q 180 502 194 487 Q 207 474 225 470 Q 244 466 259 470 Q 311 486 372 496 L 431 506 Z" fill="lightgray" class="stroke step6"/>
    <path d="M 387 442 Q 406 470 431 506 L 456 542 Q 463 552 473 563 Q 480 570 477 580 Q 473 590 450 609 Q 449 610 448 610 C 425 629 416 633 411 603 Q 407 569 391 532 L 372 496 Q 302 387 114 283 Q 107 279 112 274 Q 139 261 250 321 Q 317 355 368 419 L 387 442 Z" fill="lightgray" class="stroke step6"/>
    <path d="M 573 522 Q 574 521 578 517 Q 735 330 781 316 Q 845 307 936 323 Q 952 324 954 329 Q 957 336 943 341 Q 778 401 764 409 Q 704 443 603 525 C 580 544 553 544 573 522 Z" fill="lightgray" class="hide"/>
    <path d="M 412 434 Q 405 438 387 442 C 358 449 355 446 368 419 Q 386 383 398 324 Q 399 305 411 293 Q 424 277 429 288 Q 432 297 432 309 L 430 336 Q 421 391 419 410 C 416 432 416 432 412 434 Z" fill="lightgray" class="hide"/>
    <path d="M 569 353 Q 585 399 601 413 Q 620 434 601 446 Q 585 456 564 471 Q 548 481 505 458 Q 453 442 412 434 C 383 428 390 404 419 410 Q 438 414 508 430 Q 532 436 538 426 Q 541 423 525 358 C 518 329 559 325 569 353 Z" fill="lightgray" class="hide"/>
    <path d="M 432 309 Q 442 308 453 310 Q 492 319 578 326 Q 587 327 588 334 Q 588 340 569 353 C 559 360 555 360 525 358 Q 524 359 521 358 Q 470 345 430 336 C 401 329 402 311 432 309 Z" fill="lightgray" class="hide"/>
    <path d="M 278 238 Q 254 259 232 261 Q 226 264 222 257 Q 218 251 222 239 Q 252 185 242 45 Q 238 23 248 3 Q 260 -16 276 -27 Q 289 -36 292 -25 Q 307 -13 298 69 Q 292 162 294 199 C 295 224 295 224 278 238 Z" fill="lightgray" class="hide"/>
    <path d="M 294 199 Q 456 253 679 264 Q 700 263 708 251 Q 715 242 710 228 Q 711 75 702 53 Q 698 43 685 46 Q 654 50 620 55 Q 592 56 612 40 Q 682 -11 713 -48 Q 723 -61 736 -51 Q 763 -20 768 86 Q 768 203 785 230 Q 800 251 794 258 Q 787 271 736 302 Q 718 317 672 300 Q 482 276 278 238 C 248 233 265 190 294 199 Z" fill="lightgray" class="hide"/>
    <path d="M 405 182 Q 398 186 380 188 Q 370 191 366 187 Q 362 181 368 168 Q 387 128 400 63 Q 403 44 414 30 Q 429 11 434 24 Q 438 34 437 51 L 434 81 Q 425 141 425 158 C 424 174 424 174 405 182 Z" fill="lightgray" class="hide"/>
    <path d="M 575 94 Q 591 142 607 155 Q 628 177 608 190 Q 592 200 568 217 Q 553 227 506 204 Q 467 192 405 182 C 375 177 396 149 425 158 Q 428 161 509 175 Q 534 179 539 170 Q 542 167 529 100 C 523 71 565 66 575 94 Z" fill="lightgray" class="hide"/>
    <path d="M 437 51 Q 443 51 449 52 Q 492 61 585 66 Q 594 67 595 74 Q 595 81 575 94 C 556 107 556 107 529 100 Q 477 87 434 81 C 404 77 407 50 437 51 Z" fill="lightgray" class="hide"/></g><g transform="scale(1, -1) translate(0, -900)">
    <style type="text/css">
        .origin {display:none;}
        .hide {display:none;}
        .stroke {fill: #000000;}
        
.step1 {transform: translateX(1024px);}
.step2 {transform: translateX(2048px);}
.step3 {transform: translateX(3072px);}
.step4 {transform: translateX(4096px);}
.step5 {transform: translateX(5120px);}
.step6 {transform: translateX(6144px);}
.step7 {transform: translateX(7168px);}
.step8 {transform: translateX(8192px);}
.step9 {transform: translateX(9216px);}
.step10 {transform: translateX(10240px);}
.step11 {transform: translateX(11264px);}
.step12 {transform: translateX(12288px);}
.step13 {transform: translateX(13312px);}
.step14 {transform: translateX(14336px);}
.step15 {transform: translateX(15360px);}
.step16 {transform: translateX(16384px);}
.step17 {transform: translateX(17408px);}
.step18 {transform: translateX(18432px);}
.step19 {transform: translateX(19456px);}
.step20 {transform: translateX(20480px);}
.step21 {transform: translateX(21504px);}
.step22 {transform: translateX(22528px);}
.step23 {transform: translateX(23552px);}
.step24 {transform: translateX(24576px);}
.step25 {transform: translateX(25600px);}
.step26 {transform: translateX(26624px);}
.step27 {transform: translateX(27648px);}
.step28 {transform: translateX(28672px);}
.step29 {transform: translateX(29696px);}
    </style>

    <path d="M 423 755 Q 422 771 422 785 Q 423 801 406 807 Q 370 825 352 818 Q 336 811 349 794 Q 368 773 377 747 L 386 714 Q 395 678 408 662 Q 420 653 424 663 Q 430 681 424 725 L 423 755 Z" fill="lightgray" class="stroke step7"/>
    <path d="M 424 725 Q 434 729 450 733 Q 463 734 480 744 Q 486 748 484 755 Q 483 761 470 763 Q 448 760 423 755 L 377 747 Q 323 740 257 727 Q 220 728 200 726 Q 190 726 188 722 Q 187 715 192 706 Q 205 693 231 682 Q 247 675 263 679 Q 321 697 386 714 L 424 725 Z" fill="lightgray" class="stroke step7"/>
    <path d="M 639 770 Q 642 780 664 809 Q 677 822 669 831 Q 659 847 629 865 Q 616 875 599 868 Q 589 864 596 852 Q 605 831 587 762 L 580 739 Q 567 697 566 685 Q 567 673 580 680 Q 598 690 611 719 Q 614 725 618 730 L 639 770 Z" fill="lightgray" class="stroke step7"/>
    <path d="M 618 730 Q 631 730 648 733 Q 717 746 806 740 Q 819 739 823 747 Q 827 756 816 768 Q 776 801 694 780 Q 667 776 639 770 L 587 762 Q 581 762 575 761 Q 551 758 568 746 Q 574 743 580 739 L 618 730 Z" fill="lightgray" class="stroke step7"/>
    <path d="M 448 610 Q 526 632 571 635 Q 586 634 590 640 Q 594 647 586 659 Q 541 704 513 704 Q 506 703 504 693 Q 498 656 286 598 Q 280 591 285 588 Q 291 588 411 603 L 448 610 Z" fill="lightgray" class="stroke step7"/>
    <path d="M 431 506 Q 456 515 573 522 L 603 525 Q 658 529 723 530 Q 786 530 792 539 Q 796 549 781 563 Q 733 597 697 589 Q 615 570 473 546 Q 464 545 456 542 L 391 532 Q 300 520 199 505 Q 180 502 194 487 Q 207 474 225 470 Q 244 466 259 470 Q 311 486 372 496 L 431 506 Z" fill="lightgray" class="stroke step7"/>
    <path d="M 387 442 Q 406 470 431 506 L 456 542 Q 463 552 473 563 Q 480 570 477 580 Q 473 590 450 609 Q 449 610 448 610 C 425 629 416 633 411 603 Q 407 569 391 532 L 372 496 Q 302 387 114 283 Q 107 279 112 274 Q 139 261 250 321 Q 317 355 368 419 L 387 442 Z" fill="lightgray" class="stroke step7"/>
    <path d="M 573 522 Q 574 521 578 517 Q 735 330 781 316 Q 845 307 936 323 Q 952 324 954 329 Q 957 336 943 341 Q 778 401 764 409 Q 704 443 603 525 C 580 544 553 544 573 522 Z" fill="lightgray" class="stroke step7"/>
    <path d="M 412 434 Q 405 438 387 442 C 358 449 355 446 368 419 Q 386 383 398 324 Q 399 305 411 293 Q 424 277 429 288 Q 432 297 432 309 L 430 336 Q 421 391 419 410 C 416 432 416 432 412 434 Z" fill="lightgray" class="hide"/>
    <path d="M 569 353 Q 585 399 601 413 Q 620 434 601 446 Q 585 456 564 471 Q 548 481 505 458 Q 453 442 412 434 C 383 428 390 404 419 410 Q 438 414 508 430 Q 532 436 538 426 Q 541 423 525 358 C 518 329 559 325 569 353 Z" fill="lightgray" class="hide"/>
    <path d="M 432 309 Q 442 308 453 310 Q 492 319 578 326 Q 587 327 588 334 Q 588 340 569 353 C 559 360 555 360 525 358 Q 524 359 521 358 Q 470 345 430 336 C 401 329 402 311 432 309 Z" fill="lightgray" class="hide"/>
    <path d="M 278 238 Q 254 259 232 261 Q 226 264 222 257 Q 218 251 222 239 Q 252 185 242 45 Q 238 23 248 3 Q 260 -16 276 -27 Q 289 -36 292 -25 Q 307 -13 298 69 Q 292 162 294 199 C 295 224 295 224 278 238 Z" fill="lightgray" class="hide"/>
    <path d="M 294 199 Q 456 253 679 264 Q 700 263 708 251 Q 715 242 710 228 Q 711 75 702 53 Q 698 43 685 46 Q 654 50 620 55 Q 592 56 612 40 Q 682 -11 713 -48 Q 723 -61 736 -51 Q 763 -20 768 86 Q 768 203 785 230 Q 800 251 794 258 Q 787 271 736 302 Q 718 317 672 300 Q 482 276 278 238 C 248 233 265 190 294 199 Z" fill="lightgray" class="hide"/>
    <path d="M 405 182 Q 398 186 380 188 Q 370 191 366 187 Q 362 181 368 168 Q 387 128 400 63 Q 403 44 414 30 Q 429 11 434 24 Q 438 34 437 51 L 434 81 Q 425 141 425 158 C 424 174 424 174 405 182 Z" fill="lightgray" class="hide"/>
    <path d="M 575 94 Q 591 142 607 155 Q 628 177 608 190 Q 592 200 568 217 Q 553 227 506 204 Q 467 192 405 182 C 375 177 396 149 425 158 Q 428 161 509 175 Q 534 179 539 170 Q 542 167 529 100 C 523 71 565 66 575 94 Z" fill="lightgray" class="hide"/>
    <path d="M 437 51 Q 443 51 449 52 Q 492 61 585 66 Q 594 67 595 74 Q 595 81 575 94 C 556 107 556 107 529 100 Q 477 87 434 81 C 404 77 407 50 437 51 Z" fill="lightgray" class="hide"/></g><g transform="scale(1, -1) translate(0, -900)">
    <style type="text/css">
        .origin {display:none;}
        .hide {display:none;}
        .stroke {fill: #000000;}
        
.step1 {transform: translateX(1024px);}
.step2 {transform: translateX(2048px);}
.step3 {transform: translateX(3072px);}
.step4 {transform: translateX(4096px);}
.step5 {transform: translateX(5120px);}
.step6 {transform: translateX(6144px);}
.step7 {transform: translateX(7168px);}
.step8 {transform: translateX(8192px);}
.step9 {transform: translateX(9216px);}
.step10 {transform: translateX(10240px);}
.step11 {transform: translateX(11264px);}
.step12 {transform: translateX(12288px);}
.step13 {transform: translateX(13312px);}
.step14 {transform: translateX(14336px);}
.step15 {transform: translateX(15360px);}
.step16 {transform: translateX(16384px);}
.step17 {transform: translateX(17408px);}
.step18 {transform: translateX(18432px);}
.step19 {transform: translateX(19456px);}
.step20 {transform: translateX(20480px);}
.step21 {transform: translateX(21504px);}
.step22 {transform: translateX(22528px);}
.step23 {transform: translateX(23552px);}
.step24 {transform: translateX(24576px);}
.step25 {transform: translateX(25600px);}
.step26 {transform: translateX(26624px);}
.step27 {transform: translateX(27648px);}
.step28 {transform: translateX(28672px);}
.step29 {transform: translateX(29696px);}
    </style>

    <path d="M 423 755 Q 422 771 422 785 Q 423 801 406 807 Q 370 825 352 818 Q 336 811 349 794 Q 368 773 377 747 L 386 714 Q 395 678 408 662 Q 420 653 424 663 Q 430 681 424 725 L 423 755 Z" fill="lightgray" class="stroke step8"/>
    <path d="M 424 725 Q 434 729 450 733 Q 463 734 480 744 Q 486 748 484 755 Q 483 761 470 763 Q 448 760 423 755 L 377 747 Q 323 740 257 727 Q 220 728 200 726 Q 190 726 188 722 Q 187 715 192 706 Q 205 693 231 682 Q 247 675 263 679 Q 321 697 386 714 L 424 725 Z" fill="lightgray" class="stroke step8"/>
    <path d="M 639 770 Q 642 780 664 809 Q 677 822 669 831 Q 659 847 629 865 Q 616 875 599 868 Q 589 864 596 852 Q 605 831 587 762 L 580 739 Q 567 697 566 685 Q 567 673 580 680 Q 598 690 611 719 Q 614 725 618 730 L 639 770 Z" fill="lightgray" class="stroke step8"/>
    <path d="M 618 730 Q 631 730 648 733 Q 717 746 806 740 Q 819 739 823 747 Q 827 756 816 768 Q 776 801 694 780 Q 667 776 639 770 L 587 762 Q 581 762 575 761 Q 551 758 568 746 Q 574 743 580 739 L 618 730 Z" fill="lightgray" class="stroke step8"/>
    <path d="M 448 610 Q 526 632 571 635 Q 586 634 590 640 Q 594 647 586 659 Q 541 704 513 704 Q 506 703 504 693 Q 498 656 286 598 Q 280 591 285 588 Q 291 588 411 603 L 448 610 Z" fill="lightgray" class="stroke step8"/>
    <path d="M 431 506 Q 456 515 573 522 L 603 525 Q 658 529 723 530 Q 786 530 792 539 Q 796 549 781 563 Q 733 597 697 589 Q 615 570 473 546 Q 464 545 456 542 L 391 532 Q 300 520 199 505 Q 180 502 194 487 Q 207 474 225 470 Q 244 466 259 470 Q 311 486 372 496 L 431 506 Z" fill="lightgray" class="stroke step8"/>
    <path d="M 387 442 Q 406 470 431 506 L 456 542 Q 463 552 473 563 Q 480 570 477 580 Q 473 590 450 609 Q 449 610 448 610 C 425 629 416 633 411 603 Q 407 569 391 532 L 372 496 Q 302 387 114 283 Q 107 279 112 274 Q 139 261 250 321 Q 317 355 368 419 L 387 442 Z" fill="lightgray" class="stroke step8"/>
    <path d="M 573 522 Q 574 521 578 517 Q 735 330 781 316 Q 845 307 936 323 Q 952 324 954 329 Q 957 336 943 341 Q 778 401 764 409 Q 704 443 603 525 C 580 544 553 544 573 522 Z" fill="lightgray" class="stroke step8"/>
    <path d="M 412 434 Q 405 438 387 442 C 358 449 355 446 368 419 Q 386 383 398 324 Q 399 305 411 293 Q 424 277 429 288 Q 432 297 432 309 L 430 336 Q 421 391 419 410 C 416 432 416 432 412 434 Z" fill="lightgray" class="stroke step8"/>
    <path d="M 569 353 Q 585 399 601 413 Q 620 434 601 446 Q 585 456 564 471 Q 548 481 505 458 Q 453 442 412 434 C 383 428 390 404 419 410 Q 438 414 508 430 Q 532 436 538 426 Q 541 423 525 358 C 518 329 559 325 569 353 Z" fill="lightgray" class="hide"/>
    <path d="M 432 309 Q 442 308 453 310 Q 492 319 578 326 Q 587 327 588 334 Q 588 340 569 353 C 559 360 555 360 525 358 Q 524 359 521 358 Q 470 345 430 336 C 401 329 402 311 432 309 Z" fill="lightgray" class="hide"/>
    <path d="M 278 238 Q 254 259 232 261 Q 226 264 222 257 Q 218 251 222 239 Q 252 185 242 45 Q 238 23 248 3 Q 260 -16 276 -27 Q 289 -36 292 -25 Q 307 -13 298 69 Q 292 162 294 199 C 295 224 295 224 278 238 Z" fill="lightgray" class="hide"/>
    <path d="M 294 199 Q 456 253 679 264 Q 700 263 708 251 Q 715 242 710 228 Q 711 75 702 53 Q 698 43 685 46 Q 654 50 620 55 Q 592 56 612 40 Q 682 -11 713 -48 Q 723 -61 736 -51 Q 763 -20 768 86 Q 768 203 785 230 Q 800 251 794 258 Q 787 271 736 302 Q 718 317 672 300 Q 482 276 278 238 C 248 233 265 190 294 199 Z" fill="lightgray" class="hide"/>
    <path d="M 405 182 Q 398 186 380 188 Q 370 191 366 187 Q 362 181 368 168 Q 387 128 400 63 Q 403 44 414 30 Q 429 11 434 24 Q 438 34 437 51 L 434 81 Q 425 141 425 158 C 424 174 424 174 405 182 Z" fill="lightgray" class="hide"/>
    <path d="M 575 94 Q 591 142 607 155 Q 628 177 608 190 Q 592 200 568 217 Q 553 227 506 204 Q 467 192 405 182 C 375 177 396 149 425 158 Q 428 161 509 175 Q 534 179 539 170 Q 542 167 529 100 C 523 71 565 66 575 94 Z" fill="lightgray" class="hide"/>
    <path d="M 437 51 Q 443 51 449 52 Q 492 61 585 66 Q 594 67 595 74 Q 595 81 575 94 C 556 107 556 107 529 100 Q 477 87 434 81 C 404 77 407 50 437 51 Z" fill="lightgray" class="hide"/></g><g transform="scale(1, -1) translate(0, -900)">
    <style type="text/css">
        .origin {display:none;}
        .hide {display:none;}
        .stroke {fill: #000000;}
        
.step1 {transform: translateX(1024px);}
.step2 {transform: translateX(2048px);}
.step3 {transform: translateX(3072px);}
.step4 {transform: translateX(4096px);}
.step5 {transform: translateX(5120px);}
.step6 {transform: translateX(6144px);}
.step7 {transform: translateX(7168px);}
.step8 {transform: translateX(8192px);}
.step9 {transform: translateX(9216px);}
.step10 {transform: translateX(10240px);}
.step11 {transform: translateX(11264px);}
.step12 {transform: translateX(12288px);}
.step13 {transform: translateX(13312px);}
.step14 {transform: translateX(14336px);}
.step15 {transform: translateX(15360px);}
.step16 {transform: translateX(16384px);}
.step17 {transform: translateX(17408px);}
.step18 {transform: translateX(18432px);}
.step19 {transform: translateX(19456px);}
.step20 {transform: translateX(20480px);}
.step21 {transform: translateX(21504px);}
.step22 {transform: translateX(22528px);}
.step23 {transform: translateX(23552px);}
.step24 {transform: translateX(24576px);}
.step25 {transform: translateX(25600px);}
.step26 {transform: translateX(26624px);}
.step27 {transform: translateX(27648px);}
.step28 {transform: translateX(28672px);}
.step29 {transform: translateX(29696px);}
    </style>

    <path d="M 423 755 Q 422 771 422 785 Q 423 801 406 807 Q 370 825 352 818 Q 336 811 349 794 Q 368 773 377 747 L 386 714 Q 395 678 408 662 Q 420 653 424 663 Q 430 681 424 725 L 423 755 Z" fill="lightgray" class="stroke step9"/>
    <path d="M 424 725 Q 434 729 450 733 Q 463 734 480 744 Q 486 748 484 755 Q 483 761 470 763 Q 448 760 423 755 L 377 747 Q 323 740 257 727 Q 220 728 200 726 Q 190 726 188 722 Q 187 715 192 706 Q 205 693 231 682 Q 247 675 263 679 Q 321 697 386 714 L 424 725 Z" fill="lightgray" class="stroke step9"/>
    <path d="M 639 770 Q 642 780 664 809 Q 677 822 669 831 Q 659 847 629 865 Q 616 875 599 868 Q 589 864 596 852 Q 605 831 587 762 L 580 739 Q 567 697 566 685 Q 567 673 580 680 Q 598 690 611 719 Q 614 725 618 730 L 639 770 Z" fill="lightgray" class="stroke step9"/>
    <path d="M 618 730 Q 631 730 648 733 Q 717 746 806 740 Q 819 739 823 747 Q 827 756 816 768 Q 776 801 694 780 Q 667 776 639 770 L 587 762 Q 581 762 575 761 Q 551 758 568 746 Q 574 743 580 739 L 618 730 Z" fill="lightgray" class="stroke step9"/>
    <path d="M 448 610 Q 526 632 571 635 Q 586 634 590 640 Q 594 647 586 659 Q 541 704 513 704 Q 506 703 504 693 Q 498 656 286 598 Q 280 591 285 588 Q 291 588 411 603 L 448 610 Z" fill="lightgray" class="stroke step9"/>
    <path d="M 431 506 Q 456 515 573 522 L 603 525 Q 658 529 723 530 Q 786 530 792 539 Q 796 549 781 563 Q 733 597 697 589 Q 615 570 473 546 Q 464 545 456 542 L 391 532 Q 300 520 199 505 Q 180 502 194 487 Q 207 474 225 470 Q 244 466 259 470 Q 311 486 372 496 L 431 506 Z" fill="lightgray" class="stroke step9"/>
    <path d="M 387 442 Q 406 470 431 506 L 456 542 Q 463 552 473 563 Q 480 570 477 580 Q 473 590 450 609 Q 449 610 448 610 C 425 629 416 633 411 603 Q 407 569 391 532 L 372 496 Q 302 387 114 283 Q 107 279 112 274 Q 139 261 250 321 Q 317 355 368 419 L 387 442 Z" fill="lightgray" class="stroke step9"/>
    <path d="M 573 522 Q 574 521 578 517 Q 735 330 781 316 Q 845 307 936 323 Q 952 324 954 329 Q 957 336 943 341 Q 778 401 764 409 Q 704 443 603 525 C 580 544 553 544 573 522 Z" fill="lightgray" class="stroke step9"/>
    <path d="M 412 434 Q 405 438 387 442 C 358 449 355 446 368 419 Q 386 383 398 324 Q 399 305 411 293 Q 424 277 429 288 Q 432 297 432 309 L 430 336 Q 421 391 419 410 C 416 432 416 432 412 434 Z" fill="lightgray" class="stroke step9"/>
    <path d="M 569 353 Q 585 399 601 413 Q 620 434 601 446 Q 585 456 564 471 Q 548 481 505 458 Q 453 442 412 434 C 383 428 390 404 419 410 Q 438 414 508 430 Q 532 436 538 426 Q 541 423 525 358 C 518 329 559 325 569 353 Z" fill="lightgray" class="stroke step9"/>
    <path d="M 432 309 Q 442 308 453 310 Q 492 319 578 326 Q 587 327 588 334 Q 588 340 569 353 C 559 360 555 360 525 358 Q 524 359 521 358 Q 470 345 430 336 C 401 329 402 311 432 309 Z" fill="lightgray" class="hide"/>
    <path d="M 278 238 Q 254 259 232 261 Q 226 264 222 257 Q 218 251 222 239 Q 252 185 242 45 Q 238 23 248 3 Q 260 -16 276 -27 Q 289 -36 292 -25 Q 307 -13 298 69 Q 292 162 294 199 C 295 224 295 224 278 238 Z" fill="lightgray" class="hide"/>
    <path d="M 294 199 Q 456 253 679 264 Q 700 263 708 251 Q 715 242 710 228 Q 711 75 702 53 Q 698 43 685 46 Q 654 50 620 55 Q 592 56 612 40 Q 682 -11 713 -48 Q 723 -61 736 -51 Q 763 -20 768 86 Q 768 203 785 230 Q 800 251 794 258 Q 787 271 736 302 Q 718 317 672 300 Q 482 276 278 238 C 248 233 265 190 294 199 Z" fill="lightgray" class="hide"/>
    <path d="M 405 182 Q 398 186 380 188 Q 370 191 366 187 Q 362 181 368 168 Q 387 128 400 63 Q 403 44 414 30 Q 429 11 434 24 Q 438 34 437 51 L 434 81 Q 425 141 425 158 C 424 174 424 174 405 182 Z" fill="lightgray" class="hide"/>
    <path d="M 575 94 Q 591 142 607 155 Q 628 177 608 190 Q 592 200 568 217 Q 553 227 506 204 Q 467 192 405 182 C 375 177 396 149 425 158 Q 428 161 509 175 Q 534 179 539 170 Q 542 167 529 100 C 523 71 565 66 575 94 Z" fill="lightgray" class="hide"/>
    <path d="M 437 51 Q 443 51 449 52 Q 492 61 585 66 Q 594 67 595 74 Q 595 81 575 94 C 556 107 556 107 529 100 Q 477 87 434 81 C 404 77 407 50 437 51 Z" fill="lightgray" class="hide"/></g><g transform="scale(1, -1) translate(0, -900)">
    <style type="text/css">
        .origin {display:none;}
        .hide {display:none;}
        .stroke {fill: #000000;}
        
.step1 {transform: translateX(1024px);}
.step2 {transform: translateX(2048px);}
.step3 {transform: translateX(3072px);}
.step4 {transform: translateX(4096px);}
.step5 {transform: translateX(5120px);}
.step6 {transform: translateX(6144px);}
.step7 {transform: translateX(7168px);}
.step8 {transform: translateX(8192px);}
.step9 {transform: translateX(9216px);}
.step10 {transform: translateX(10240px);}
.step11 {transform: translateX(11264px);}
.step12 {transform: translateX(12288px);}
.step13 {transform: translateX(13312px);}
.step14 {transform: translateX(14336px);}
.step15 {transform: translateX(15360px);}
.step16 {transform: translateX(16384px);}
.step17 {transform: translateX(17408px);}
.step18 {transform: translateX(18432px);}
.step19 {transform: translateX(19456px);}
.step20 {transform: translateX(20480px);}
.step21 {transform: translateX(21504px);}
.step22 {transform: translateX(22528px);}
.step23 {transform: translateX(23552px);}
.step24 {transform: translateX(24576px);}
.step25 {transform: translateX(25600px);}
.step26 {transform: translateX(26624px);}
.step27 {transform: translateX(27648px);}
.step28 {transform: translateX(28672px);}
.step29 {transform: translateX(29696px);}
    </style>

    <path d="M 423 755 Q 422 771 422 785 Q 423 801 406 807 Q 370 825 352 818 Q 336 811 349 794 Q 368 773 377 747 L 386 714 Q 395 678 408 662 Q 420 653 424 663 Q 430 681 424 725 L 423 755 Z" fill="lightgray" class="stroke step10"/>
    <path d="M 424 725 Q 434 729 450 733 Q 463 734 480 744 Q 486 748 484 755 Q 483 761 470 763 Q 448 760 423 755 L 377 747 Q 323 740 257 727 Q 220 728 200 726 Q 190 726 188 722 Q 187 715 192 706 Q 205 693 231 682 Q 247 675 263 679 Q 321 697 386 714 L 424 725 Z" fill="lightgray" class="stroke step10"/>
    <path d="M 639 770 Q 642 780 664 809 Q 677 822 669 831 Q 659 847 629 865 Q 616 875 599 868 Q 589 864 596 852 Q 605 831 587 762 L 580 739 Q 567 697 566 685 Q 567 673 580 680 Q 598 690 611 719 Q 614 725 618 730 L 639 770 Z" fill="lightgray" class="stroke step10"/>
    <path d="M 618 730 Q 631 730 648 733 Q 717 746 806 740 Q 819 739 823 747 Q 827 756 816 768 Q 776 801 694 780 Q 667 776 639 770 L 587 762 Q 581 762 575 761 Q 551 758 568 746 Q 574 743 580 739 L 618 730 Z" fill="lightgray" class="stroke step10"/>
    <path d="M 448 610 Q 526 632 571 635 Q 586 634 590 640 Q 594 647 586 659 Q 541 704 513 704 Q 506 703 504 693 Q 498 656 286 598 Q 280 591 285 588 Q 291 588 411 603 L 448 610 Z" fill="lightgray" class="stroke step10"/>
    <path d="M 431 506 Q 456 515 573 522 L 603 525 Q 658 529 723 530 Q 786 530 792 539 Q 796 549 781 563 Q 733 597 697 589 Q 615 570 473 546 Q 464 545 456 542 L 391 532 Q 300 520 199 505 Q 180 502 194 487 Q 207 474 225 470 Q 244 466 259 470 Q 311 486 372 496 L 431 506 Z" fill="lightgray" class="stroke step10"/>
    <path d="M 387 442 Q 406 470 431 506 L 456 542 Q 463 552 473 563 Q 480 570 477 580 Q 473 590 450 609 Q 449 610 448 610 C 425 629 416 633 411 603 Q 407 569 391 532 L 372 496 Q 302 387 114 283 Q 107 279 112 274 Q 139 261 250 321 Q 317 355 368 419 L 387 442 Z" fill="lightgray" class="stroke step10"/>
    <path d="M 573 522 Q 574 521 578 517 Q 735 330 781 316 Q 845 307 936 323 Q 952 324 954 329 Q 957 336 943 341 Q 778 401 764 409 Q 704 443 603 525 C 580 544 553 544 573 522 Z" fill="lightgray" class="stroke step10"/>
    <path d="M 412 434 Q 405 438 387 442 C 358 449 355 446 368 419 Q 386 383 398 324 Q 399 305 411 293 Q 424 277 429 288 Q 432 297 432 309 L 430 336 Q 421 391 419 410 C 416 432 416 432 412 434 Z" fill="lightgray" class="stroke step10"/>
    <path d="M 569 353 Q 585 399 601 413 Q 620 434 601 446 Q 585 456 564 471 Q 548 481 505 458 Q 453 442 412 434 C 383 428 390 404 419 410 Q 438 414 508 430 Q 532 436 538 426 Q 541 423 525 358 C 518 329 559 325 569 353 Z" fill="lightgray" class="stroke step10"/>
    <path d="M 432 309 Q 442 308 453 310 Q 492 319 578 326 Q 587 327 588 334 Q 588 340 569 353 C 559 360 555 360 525 358 Q 524 359 521 358 Q 470 345 430 336 C 401 329 402 311 432 309 Z" fill="lightgray" class="stroke step10"/>
    <path d="M 278 238 Q 254 259 232 261 Q 226 264 222 257 Q 218 251 222 239 Q 252 185 242 45 Q 238 23 248 3 Q 260 -16 276 -27 Q 289 -36 292 -25 Q 307 -13 298 69 Q 292 162 294 199 C 295 224 295 224 278 238 Z" fill="lightgray" class="hide"/>
    <path d="M 294 199 Q 456 253 679 264 Q 700 263 708 251 Q 715 242 710 228 Q 711 75 702 53 Q 698 43 685 46 Q 654 50 620 55 Q 592 56 612 40 Q 682 -11 713 -48 Q 723 -61 736 -51 Q 763 -20 768 86 Q 768 203 785 230 Q 800 251 794 258 Q 787 271 736 302 Q 718 317 672 300 Q 482 276 278 238 C 248 233 265 190 294 199 Z" fill="lightgray" class="hide"/>
    <path d="M 405 182 Q 398 186 380 188 Q 370 191 366 187 Q 362 181 368 168 Q 387 128 400 63 Q 403 44 414 30 Q 429 11 434 24 Q 438 34 437 51 L 434 81 Q 425 141 425 158 C 424 174 424 174 405 182 Z" fill="lightgray" class="hide"/>
    <path d="M 575 94 Q 591 142 607 155 Q 628 177 608 190 Q 592 200 568 217 Q 553 227 506 204 Q 467 192 405 182 C 375 177 396 149 425 158 Q 428 161 509 175 Q 534 179 539 170 Q 542 167 529 100 C 523 71 565 66 575 94 Z" fill="lightgray" class="hide"/>
    <path d="M 437 51 Q 443 51 449 52 Q 492 61 585 66 Q 594 67 595 74 Q 595 81 575 94 C 556 107 556 107 529 100 Q 477 87 434 81 C 404 77 407 50 437 51 Z" fill="lightgray" class="hide"/></g><g transform="scale(1, -1) translate(0, -900)">
    <style type="text/css">
        .origin {display:none;}
        .hide {display:none;}
        .stroke {fill: #000000;}
        
.step1 {transform: translateX(1024px);}
.step2 {transform: translateX(2048px);}
.step3 {transform: translateX(3072px);}
.step4 {transform: translateX(4096px);}
.step5 {transform: translateX(5120px);}
.step6 {transform: translateX(6144px);}
.step7 {transform: translateX(7168px);}
.step8 {transform: translateX(8192px);}
.step9 {transform: translateX(9216px);}
.step10 {transform: translateX(10240px);}
.step11 {transform: translateX(11264px);}
.step12 {transform: translateX(12288px);}
.step13 {transform: translateX(13312px);}
.step14 {transform: translateX(14336px);}
.step15 {transform: translateX(15360px);}
.step16 {transform: translateX(16384px);}
.step17 {transform: translateX(17408px);}
.step18 {transform: translateX(18432px);}
.step19 {transform: translateX(19456px);}
.step20 {transform: translateX(20480px);}
.step21 {transform: translateX(21504px);}
.step22 {transform: translateX(22528px);}
.step23 {transform: translateX(23552px);}
.step24 {transform: translateX(24576px);}
.step25 {transform: translateX(25600px);}
.step26 {transform: translateX(26624px);}
.step27 {transform: translateX(27648px);}
.step28 {transform: translateX(28672px);}
.step29 {transform: translateX(29696px);}
    </style>

    <path d="M 423 755 Q 422 771 422 785 Q 423 801 406 807 Q 370 825 352 818 Q 336 811 349 794 Q 368 773 377 747 L 386 714 Q 395 678 408 662 Q 420 653 424 663 Q 430 681 424 725 L 423 755 Z" fill="lightgray" class="stroke step11"/>
    <path d="M 424 725 Q 434 729 450 733 Q 463 734 480 744 Q 486 748 484 755 Q 483 761 470 763 Q 448 760 423 755 L 377 747 Q 323 740 257 727 Q 220 728 200 726 Q 190 726 188 722 Q 187 715 192 706 Q 205 693 231 682 Q 247 675 263 679 Q 321 697 386 714 L 424 725 Z" fill="lightgray" class="stroke step11"/>
    <path d="M 639 770 Q 642 780 664 809 Q 677 822 669 831 Q 659 847 629 865 Q 616 875 599 868 Q 589 864 596 852 Q 605 831 587 762 L 580 739 Q 567 697 566 685 Q 567 673 580 680 Q 598 690 611 719 Q 614 725 618 730 L 639 770 Z" fill="lightgray" class="stroke step11"/>
    <path d="M 618 730 Q 631 730 648 733 Q 717 746 806 740 Q 819 739 823 747 Q 827 756 816 768 Q 776 801 694 780 Q 667 776 639 770 L 587 762 Q 581 762 575 761 Q 551 758 568 746 Q 574 743 580 739 L 618 730 Z" fill="lightgray" class="stroke step11"/>
    <path d="M 448 610 Q 526 632 571 635 Q 586 634 590 640 Q 594 647 586 659 Q 541 704 513 704 Q 506 703 504 693 Q 498 656 286 598 Q 280 591 285 588 Q 291 588 411 603 L 448 610 Z" fill="lightgray" class="stroke step11"/>
    <path d="M 431 506 Q 456 515 573 522 L 603 525 Q 658 529 723 530 Q 786 530 792 539 Q 796 549 781 563 Q 733 597 697 589 Q 615 570 473 546 Q 464 545 456 542 L 391 532 Q 300 520 199 505 Q 180 502 194 487 Q 207 474 225 470 Q 244 466 259 470 Q 311 486 372 496 L 431 506 Z" fill="lightgray" class="stroke step11"/>
    <path d="M 387 442 Q 406 470 431 506 L 456 542 Q 463 552 473 563 Q 480 570 477 580 Q 473 590 450 609 Q 449 610 448 610 C 425 629 416 633 411 603 Q 407 569 391 532 L 372 496 Q 302 387 114 283 Q 107 279 112 274 Q 139 261 250 321 Q 317 355 368 419 L 387 442 Z" fill="lightgray" class="stroke step11"/>
    <path d="M 573 522 Q 574 521 578 517 Q 735 330 781 316 Q 845 307 936 323 Q 952 324 954 329 Q 957 336 943 341 Q 778 401 764 409 Q 704 443 603 525 C 580 544 553 544 573 522 Z" fill="lightgray" class="stroke step11"/>
    <path d="M 412 434 Q 405 438 387 442 C 358 449 355 446 368 419 Q 386 383 398 324 Q 399 305 411 293 Q 424 277 429 288 Q 432 297 432 309 L 430 336 Q 421 391 419 410 C 416 432 416 432 412 434 Z" fill="lightgray" class="stroke step11"/>
    <path d="M 569 353 Q 585 399 601 413 Q 620 434 601 446 Q 585 456 564 471 Q 548 481 505 458 Q 453 442 412 434 C 383 428 390 404 419 410 Q 438 414 508 430 Q 532 436 538 426 Q 541 423 525 358 C 518 329 559 325 569 353 Z" fill="lightgray" class="stroke step11"/>
    <path d="M 432 309 Q 442 308 453 310 Q 492 319 578 326 Q 587 327 588 334 Q 588 340 569 353 C 559 360 555 360 525 358 Q 524 359 521 358 Q 470 345 430 336 C 401 329 402 311 432 309 Z" fill="lightgray" class="stroke step11"/>
    <path d="M 278 238 Q 254 259 232 261 Q 226 264 222 257 Q 218 251 222 239 Q 252 185 242 45 Q 238 23 248 3 Q 260 -16 276 -27 Q 289 -36 292 -25 Q 307 -13 298 69 Q 292 162 294 199 C 295 224 295 224 278 238 Z" fill="lightgray" class="stroke step11"/>
    <path d="M 294 199 Q 456 253 679 264 Q 700 263 708 251 Q 715 242 710 228 Q 711 75 702 53 Q 698 43 685 46 Q 654 50 620 55 Q 592 56 612 40 Q 682 -11 713 -48 Q 723 -61 736 -51 Q 763 -20 768 86 Q 768 203 785 230 Q 800 251 794 258 Q 787 271 736 302 Q 718 317 672 300 Q 482 276 278 238 C 248 233 265 190 294 199 Z" fill="lightgray" class="hide"/>
    <path d="M 405 182 Q 398 186 380 188 Q 370 191 366 187 Q 362 181 368 168 Q 387 128 400 63 Q 403 44 414 30 Q 429 11 434 24 Q 438 34 437 51 L 434 81 Q 425 141 425 158 C 424 174 424 174 405 182 Z" fill="lightgray" class="hide"/>
    <path d="M 575 94 Q 591 142 607 155 Q 628 177 608 190 Q 592 200 568 217 Q 553 227 506 204 Q 467 192 405 182 C 375 177 396 149 425 158 Q 428 161 509 175 Q 534 179 539 170 Q 542 167 529 100 C 523 71 565 66 575 94 Z" fill="lightgray" class="hide"/>
    <path d="M 437 51 Q 443 51 449 52 Q 492 61 585 66 Q 594 67 595 74 Q 595 81 575 94 C 556 107 556 107 529 100 Q 477 87 434 81 C 404 77 407 50 437 51 Z" fill="lightgray" class="hide"/></g><g transform="scale(1, -1) translate(0, -900)">
    <style type="text/css">
        .origin {display:none;}
        .hide {display:none;}
        .stroke {fill: #000000;}
        
.step1 {transform: translateX(1024px);}
.step2 {transform: translateX(2048px);}
.step3 {transform: translateX(3072px);}
.step4 {transform: translateX(4096px);}
.step5 {transform: translateX(5120px);}
.step6 {transform: translateX(6144px);}
.step7 {transform: translateX(7168px);}
.step8 {transform: translateX(8192px);}
.step9 {transform: translateX(9216px);}
.step10 {transform: translateX(10240px);}
.step11 {transform: translateX(11264px);}
.step12 {transform: translateX(12288px);}
.step13 {transform: translateX(13312px);}
.step14 {transform: translateX(14336px);}
.step15 {transform: translateX(15360px);}
.step16 {transform: translateX(16384px);}
.step17 {transform: translateX(17408px);}
.step18 {transform: translateX(18432px);}
.step19 {transform: translateX(19456px);}
.step20 {transform: translateX(20480px);}
.step21 {transform: translateX(21504px);}
.step22 {transform: translateX(22528px);}
.step23 {transform: translateX(23552px);}
.step24 {transform: translateX(24576px);}
.step25 {transform: translateX(25600px);}
.step26 {transform: translateX(26624px);}
.step27 {transform: translateX(27648px);}
.step28 {transform: translateX(28672px);}
.step29 {transform: translateX(29696px);}
    </style>

    <path d="M 423 755 Q 422 771 422 785 Q 423 801 406 807 Q 370 825 352 818 Q 336 811 349 794 Q 368 773 377 747 L 386 714 Q 395 678 408 662 Q 420 653 424 663 Q 430 681 424 725 L 423 755 Z" fill="lightgray" class="stroke step12"/>
    <path d="M 424 725 Q 434 729 450 733 Q 463 734 480 744 Q 486 748 484 755 Q 483 761 470 763 Q 448 760 423 755 L 377 747 Q 323 740 257 727 Q 220 728 200 726 Q 190 726 188 722 Q 187 715 192 706 Q 205 693 231 682 Q 247 675 263 679 Q 321 697 386 714 L 424 725 Z" fill="lightgray" class="stroke step12"/>
    <path d="M 639 770 Q 642 780 664 809 Q 677 822 669 831 Q 659 847 629 865 Q 616 875 599 868 Q 589 864 596 852 Q 605 831 587 762 L 580 739 Q 567 697 566 685 Q 567 673 580 680 Q 598 690 611 719 Q 614 725 618 730 L 639 770 Z" fill="lightgray" class="stroke step12"/>
    <path d="M 618 730 Q 631 730 648 733 Q 717 746 806 740 Q 819 739 823 747 Q 827 756 816 768 Q 776 801 694 780 Q 667 776 639 770 L 587 762 Q 581 762 575 761 Q 551 758 568 746 Q 574 743 580 739 L 618 730 Z" fill="lightgray" class="stroke step12"/>
    <path d="M 448 610 Q 526 632 571 635 Q 586 634 590 640 Q 594 647 586 659 Q 541 704 513 704 Q 506 703 504 693 Q 498 656 286 598 Q 280 591 285 588 Q 291 588 411 603 L 448 610 Z" fill="lightgray" class="stroke step12"/>
    <path d="M 431 506 Q 456 515 573 522 L 603 525 Q 658 529 723 530 Q 786 530 792 539 Q 796 549 781 563 Q 733 597 697 589 Q 615 570 473 546 Q 464 545 456 542 L 391 532 Q 300 520 199 505 Q 180 502 194 487 Q 207 474 225 470 Q 244 466 259 470 Q 311 486 372 496 L 431 506 Z" fill="lightgray" class="stroke step12"/>
    <path d="M 387 442 Q 406 470 431 506 L 456 542 Q 463 552 473 563 Q 480 570 477 580 Q 473 590 450 609 Q 449 610 448 610 C 425 629 416 633 411 603 Q 407 569 391 532 L 372 496 Q 302 387 114 283 Q 107 279 112 274 Q 139 261 250 321 Q 317 355 368 419 L 387 442 Z" fill="lightgray" class="stroke step12"/>
    <path d="M 573 522 Q 574 521 578 517 Q 735 330 781 316 Q 845 307 936 323 Q 952 324 954 329 Q 957 336 943 341 Q 778 401 764 409 Q 704 443 603 525 C 580 544 553 544 573 522 Z" fill="lightgray" class="stroke step12"/>
    <path d="M 412 434 Q 405 438 387 442 C 358 449 355 446 368 419 Q 386 383 398 324 Q 399 305 411 293 Q 424 277 429 288 Q 432 297 432 309 L 430 336 Q 421 391 419 410 C 416 432 416 432 412 434 Z" fill="lightgray" class="stroke step12"/>
    <path d="M 569 353 Q 585 399 601 413 Q 620 434 601 446 Q 585 456 564 471 Q 548 481 505 458 Q 453 442 412 434 C 383 428 390 404 419 410 Q 438 414 508 430 Q 532 436 538 426 Q 541 423 525 358 C 518 329 559 325 569 353 Z" fill="lightgray" class="stroke step12"/>
    <path d="M 432 309 Q 442 308 453 310 Q 492 319 578 326 Q 587 327 588 334 Q 588 340 569 353 C 559 360 555 360 525 358 Q 524 359 521 358 Q 470 345 430 336 C 401 329 402 311 432 309 Z" fill="lightgray" class="stroke step12"/>
    <path d="M 278 238 Q 254 259 232 261 Q 226 264 222 257 Q 218 251 222 239 Q 252 185 242 45 Q 238 23 248 3 Q 260 -16 276 -27 Q 289 -36 292 -25 Q 307 -13 298 69 Q 292 162 294 199 C 295 224 295 224 278 238 Z" fill="lightgray" class="stroke step12"/>
    <path d="M 294 199 Q 456 253 679 264 Q 700 263 708 251 Q 715 242 710 228 Q 711 75 702 53 Q 698 43 685 46 Q 654 50 620 55 Q 592 56 612 40 Q 682 -11 713 -48 Q 723 -61 736 -51 Q 763 -20 768 86 Q 768 203 785 230 Q 800 251 794 258 Q 787 271 736 302 Q 718 317 672 300 Q 482 276 278 238 C 248 233 265 190 294 199 Z" fill="lightgray" class="stroke step12"/>
    <path d="M 405 182 Q 398 186 380 188 Q 370 191 366 187 Q 362 181 368 168 Q 387 128 400 63 Q 403 44 414 30 Q 429 11 434 24 Q 438 34 437 51 L 434 81 Q 425 141 425 158 C 424 174 424 174 405 182 Z" fill="lightgray" class="hide"/>
    <path d="M 575 94 Q 591 142 607 155 Q 628 177 608 190 Q 592 200 568 217 Q 553 227 506 204 Q 467 192 405 182 C 375 177 396 149 425 158 Q 428 161 509 175 Q 534 179 539 170 Q 542 167 529 100 C 523 71 565 66 575 94 Z" fill="lightgray" class="hide"/>
    <path d="M 437 51 Q 443 51 449 52 Q 492 61 585 66 Q 594 67 595 74 Q 595 81 575 94 C 556 107 556 107 529 100 Q 477 87 434 81 C 404 77 407 50 437 51 Z" fill="lightgray" class="hide"/></g><g transform="scale(1, -1) translate(0, -900)">
    <style type="text/css">
        .origin {display:none;}
        .hide {display:none;}
        .stroke {fill: #000000;}
        
.step1 {transform: translateX(1024px);}
.step2 {transform: translateX(2048px);}
.step3 {transform: translateX(3072px);}
.step4 {transform: translateX(4096px);}
.step5 {transform: translateX(5120px);}
.step6 {transform: translateX(6144px);}
.step7 {transform: translateX(7168px);}
.step8 {transform: translateX(8192px);}
.step9 {transform: translateX(9216px);}
.step10 {transform: translateX(10240px);}
.step11 {transform: translateX(11264px);}
.step12 {transform: translateX(12288px);}
.step13 {transform: translateX(13312px);}
.step14 {transform: translateX(14336px);}
.step15 {transform: translateX(15360px);}
.step16 {transform: translateX(16384px);}
.step17 {transform: translateX(17408px);}
.step18 {transform: translateX(18432px);}
.step19 {transform: translateX(19456px);}
.step20 {transform: translateX(20480px);}
.step21 {transform: translateX(21504px);}
.step22 {transform: translateX(22528px);}
.step23 {transform: translateX(23552px);}
.step24 {transform: translateX(24576px);}
.step25 {transform: translateX(25600px);}
.step26 {transform: translateX(26624px);}
.step27 {transform: translateX(27648px);}
.step28 {transform: translateX(28672px);}
.step29 {transform: translateX(29696px);}
    </style>

    <path d="M 423 755 Q 422 771 422 785 Q 423 801 406 807 Q 370 825 352 818 Q 336 811 349 794 Q 368 773 377 747 L 386 714 Q 395 678 408 662 Q 420 653 424 663 Q 430 681 424 725 L 423 755 Z" fill="lightgray" class="stroke step13"/>
    <path d="M 424 725 Q 434 729 450 733 Q 463 734 480 744 Q 486 748 484 755 Q 483 761 470 763 Q 448 760 423 755 L 377 747 Q 323 740 257 727 Q 220 728 200 726 Q 190 726 188 722 Q 187 715 192 706 Q 205 693 231 682 Q 247 675 263 679 Q 321 697 386 714 L 424 725 Z" fill="lightgray" class="stroke step13"/>
    <path d="M 639 770 Q 642 780 664 809 Q 677 822 669 831 Q 659 847 629 865 Q 616 875 599 868 Q 589 864 596 852 Q 605 831 587 762 L 580 739 Q 567 697 566 685 Q 567 673 580 680 Q 598 690 611 719 Q 614 725 618 730 L 639 770 Z" fill="lightgray" class="stroke step13"/>
    <path d="M 618 730 Q 631 730 648 733 Q 717 746 806 740 Q 819 739 823 747 Q 827 756 816 768 Q 776 801 694 780 Q 667 776 639 770 L 587 762 Q 581 762 575 761 Q 551 758 568 746 Q 574 743 580 739 L 618 730 Z" fill="lightgray" class="stroke step13"/>
    <path d="M 448 610 Q 526 632 571 635 Q 586 634 590 640 Q 594 647 586 659 Q 541 704 513 704 Q 506 703 504 693 Q 498 656 286 598 Q 280 591 285 588 Q 291 588 411 603 L 448 610 Z" fill="lightgray" class="stroke step13"/>
    <path d="M 431 506 Q 456 515 573 522 L 603 525 Q 658 529 723 530 Q 786 530 792 539 Q 796 549 781 563 Q 733 597 697 589 Q 615 570 473 546 Q 464 545 456 542 L 391 532 Q 300 520 199 505 Q 180 502 194 487 Q 207 474 225 470 Q 244 466 259 470 Q 311 486 372 496 L 431 506 Z" fill="lightgray" class="stroke step13"/>
    <path d="M 387 442 Q 406 470 431 506 L 456 542 Q 463 552 473 563 Q 480 570 477 580 Q 473 590 450 609 Q 449 610 448 610 C 425 629 416 633 411 603 Q 407 569 391 532 L 372 496 Q 302 387 114 283 Q 107 279 112 274 Q 139 261 250 321 Q 317 355 368 419 L 387 442 Z" fill="lightgray" class="stroke step13"/>
    <path d="M 573 522 Q 574 521 578 517 Q 735 330 781 316 Q 845 307 936 323 Q 952 324 954 329 Q 957 336 943 341 Q 778 401 764 409 Q 704 443 603 525 C 580 544 553 544 573 522 Z" fill="lightgray" class="stroke step13"/>
    <path d="M 412 434 Q 405 438 387 442 C 358 449 355 446 368 419 Q 386 383 398 324 Q 399 305 411 293 Q 424 277 429 288 Q 432 297 432 309 L 430 336 Q 421 391 419 410 C 416 432 416 432 412 434 Z" fill="lightgray" class="stroke step13"/>
    <path d="M 569 353 Q 585 399 601 413 Q 620 434 601 446 Q 585 456 564 471 Q 548 481 505 458 Q 453 442 412 434 C 383 428 390 404 419 410 Q 438 414 508 430 Q 532 436 538 426 Q 541 423 525 358 C 518 329 559 325 569 353 Z" fill="lightgray" class="stroke step13"/>
    <path d="M 432 309 Q 442 308 453 310 Q 492 319 578 326 Q 587 327 588 334 Q 588 340 569 353 C 559 360 555 360 525 358 Q 524 359 521 358 Q 470 345 430 336 C 401 329 402 311 432 309 Z" fill="lightgray" class="stroke step13"/>
    <path d="M 278 238 Q 254 259 232 261 Q 226 264 222 257 Q 218 251 222 239 Q 252 185 242 45 Q 238 23 248 3 Q 260 -16 276 -27 Q 289 -36 292 -25 Q 307 -13 298 69 Q 292 162 294 199 C 295 224 295 224 278 238 Z" fill="lightgray" class="stroke step13"/>
    <path d="M 294 199 Q 456 253 679 264 Q 700 263 708 251 Q 715 242 710 228 Q 711 75 702 53 Q 698 43 685 46 Q 654 50 620 55 Q 592 56 612 40 Q 682 -11 713 -48 Q 723 -61 736 -51 Q 763 -20 768 86 Q 768 203 785 230 Q 800 251 794 258 Q 787 271 736 302 Q 718 317 672 300 Q 482 276 278 238 C 248 233 265 190 294 199 Z" fill="lightgray" class="stroke step13"/>
    <path d="M 405 182 Q 398 186 380 188 Q 370 191 366 187 Q 362 181 368 168 Q 387 128 400 63 Q 403 44 414 30 Q 429 11 434 24 Q 438 34 437 51 L 434 81 Q 425 141 425 158 C 424 174 424 174 405 182 Z" fill="lightgray" class="stroke step13"/>
    <path d="M 575 94 Q 591 142 607 155 Q 628 177 608 190 Q 592 200 568 217 Q 553 227 506 204 Q 467 192 405 182 C 375 177 396 149 425 158 Q 428 161 509 175 Q 534 179 539 170 Q 542 167 529 100 C 523 71 565 66 575 94 Z" fill="lightgray" class="hide"/>
    <path d="M 437 51 Q 443 51 449 52 Q 492 61 585 66 Q 594 67 595 74 Q 595 81 575 94 C 556 107 556 107 529 100 Q 477 87 434 81 C 404 77 407 50 437 51 Z" fill="lightgray" class="hide"/></g><g transform="scale(1, -1) translate(0, -900)">
    <style type="text/css">
        .origin {display:none;}
        .hide {display:none;}
        .stroke {fill: #000000;}
        
.step1 {transform: translateX(1024px);}
.step2 {transform: translateX(2048px);}
.step3 {transform: translateX(3072px);}
.step4 {transform: translateX(4096px);}
.step5 {transform: translateX(5120px);}
.step6 {transform: translateX(6144px);}
.step7 {transform: translateX(7168px);}
.step8 {transform: translateX(8192px);}
.step9 {transform: translateX(9216px);}
.step10 {transform: translateX(10240px);}
.step11 {transform: translateX(11264px);}
.step12 {transform: translateX(12288px);}
.step13 {transform: translateX(13312px);}
.step14 {transform: translateX(14336px);}
.step15 {transform: translateX(15360px);}
.step16 {transform: translateX(16384px);}
.step17 {transform: translateX(17408px);}
.step18 {transform: translateX(18432px);}
.step19 {transform: translateX(19456px);}
.step20 {transform: translateX(20480px);}
.step21 {transform: translateX(21504px);}
.step22 {transform: translateX(22528px);}
.step23 {transform: translateX(23552px);}
.step24 {transform: translateX(24576px);}
.step25 {transform: translateX(25600px);}
.step26 {transform: translateX(26624px);}
.step27 {transform: translateX(27648px);}
.step28 {transform: translateX(28672px);}
.step29 {transform: translateX(29696px);}
    </style>

    <path d="M 423 755 Q 422 771 422 785 Q 423 801 406 807 Q 370 825 352 818 Q 336 811 349 794 Q 368 773 377 747 L 386 714 Q 395 678 408 662 Q 420 653 424 663 Q 430 681 424 725 L 423 755 Z" fill="lightgray" class="stroke step14"/>
    <path d="M 424 725 Q 434 729 450 733 Q 463 734 480 744 Q 486 748 484 755 Q 483 761 470 763 Q 448 760 423 755 L 377 747 Q 323 740 257 727 Q 220 728 200 726 Q 190 726 188 722 Q 187 715 192 706 Q 205 693 231 682 Q 247 675 263 679 Q 321 697 386 714 L 424 725 Z" fill="lightgray" class="stroke step14"/>
    <path d="M 639 770 Q 642 780 664 809 Q 677 822 669 831 Q 659 847 629 865 Q 616 875 599 868 Q 589 864 596 852 Q 605 831 587 762 L 580 739 Q 567 697 566 685 Q 567 673 580 680 Q 598 690 611 719 Q 614 725 618 730 L 639 770 Z" fill="lightgray" class="stroke step14"/>
    <path d="M 618 730 Q 631 730 648 733 Q 717 746 806 740 Q 819 739 823 747 Q 827 756 816 768 Q 776 801 694 780 Q 667 776 639 770 L 587 762 Q 581 762 575 761 Q 551 758 568 746 Q 574 743 580 739 L 618 730 Z" fill="lightgray" class="stroke step14"/>
    <path d="M 448 610 Q 526 632 571 635 Q 586 634 590 640 Q 594 647 586 659 Q 541 704 513 704 Q 506 703 504 693 Q 498 656 286 598 Q 280 591 285 588 Q 291 588 411 603 L 448 610 Z" fill="lightgray" class="stroke step14"/>
    <path d="M 431 506 Q 456 515 573 522 L 603 525 Q 658 529 723 530 Q 786 530 792 539 Q 796 549 781 563 Q 733 597 697 589 Q 615 570 473 546 Q 464 545 456 542 L 391 532 Q 300 520 199 505 Q 180 502 194 487 Q 207 474 225 470 Q 244 466 259 470 Q 311 486 372 496 L 431 506 Z" fill="lightgray" class="stroke step14"/>
    <path d="M 387 442 Q 406 470 431 506 L 456 542 Q 463 552 473 563 Q 480 570 477 580 Q 473 590 450 609 Q 449 610 448 610 C 425 629 416 633 411 603 Q 407 569 391 532 L 372 496 Q 302 387 114 283 Q 107 279 112 274 Q 139 261 250 321 Q 317 355 368 419 L 387 442 Z" fill="lightgray" class="stroke step14"/>
    <path d="M 573 522 Q 574 521 578 517 Q 735 330 781 316 Q 845 307 936 323 Q 952 324 954 329 Q 957 336 943 341 Q 778 401 764 409 Q 704 443 603 525 C 580 544 553 544 573 522 Z" fill="lightgray" class="stroke step14"/>
    <path d="M 412 434 Q 405 438 387 442 C 358 449 355 446 368 419 Q 386 383 398 324 Q 399 305 411 293 Q 424 277 429 288 Q 432 297 432 309 L 430 336 Q 421 391 419 410 C 416 432 416 432 412 434 Z" fill="lightgray" class="stroke step14"/>
    <path d="M 569 353 Q 585 399 601 413 Q 620 434 601 446 Q 585 456 564 471 Q 548 481 505 458 Q 453 442 412 434 C 383 428 390 404 419 410 Q 438 414 508 430 Q 532 436 538 426 Q 541 423 525 358 C 518 329 559 325 569 353 Z" fill="lightgray" class="stroke step14"/>
    <path d="M 432 309 Q 442 308 453 310 Q 492 319 578 326 Q 587 327 588 334 Q 588 340 569 353 C 559 360 555 360 525 358 Q 524 359 521 358 Q 470 345 430 336 C 401 329 402 311 432 309 Z" fill="lightgray" class="stroke step14"/>
    <path d="M 278 238 Q 254 259 232 261 Q 226 264 222 257 Q 218 251 222 239 Q 252 185 242 45 Q 238 23 248 3 Q 260 -16 276 -27 Q 289 -36 292 -25 Q 307 -13 298 69 Q 292 162 294 199 C 295 224 295 224 278 238 Z" fill="lightgray" class="stroke step14"/>
    <path d="M 294 199 Q 456 253 679 264 Q 700 263 708 251 Q 715 242 710 228 Q 711 75 702 53 Q 698 43 685 46 Q 654 50 620 55 Q 592 56 612 40 Q 682 -11 713 -48 Q 723 -61 736 -51 Q 763 -20 768 86 Q 768 203 785 230 Q 800 251 794 258 Q 787 271 736 302 Q 718 317 672 300 Q 482 276 278 238 C 248 233 265 190 294 199 Z" fill="lightgray" class="stroke step14"/>
    <path d="M 405 182 Q 398 186 380 188 Q 370 191 366 187 Q 362 181 368 168 Q 387 128 400 63 Q 403 44 414 30 Q 429 11 434 24 Q 438 34 437 51 L 434 81 Q 425 141 425 158 C 424 174 424 174 405 182 Z" fill="lightgray" class="stroke step14"/>
    <path d="M 575 94 Q 591 142 607 155 Q 628 177 608 190 Q 592 200 568 217 Q 553 227 506 204 Q 467 192 405 182 C 375 177 396 149 425 158 Q 428 161 509 175 Q 534 179 539 170 Q 542 167 529 100 C 523 71 565 66 575 94 Z" fill="lightgray" class="stroke step14"/>
    <path d="M 437 51 Q 443 51 449 52 Q 492 61 585 66 Q 594 67 595 74 Q 595 81 575 94 C 556 107 556 107 529 100 Q 477 87 434 81 C 404 77 407 50 437 51 Z" fill="lightgray" class="hide"/></g><g transform="scale(1, -1) translate(0, -900)">
    <style type="text/css">
        .origin {display:none;}
        .hide {display:none;}
        .stroke {fill: #000000;}
        
.step1 {transform: translateX(1024px);}
.step2 {transform: translateX(2048px);}
.step3 {transform: translateX(3072px);}
.step4 {transform: translateX(4096px);}
.step5 {transform: translateX(5120px);}
.step6 {transform: translateX(6144px);}
.step7 {transform: translateX(7168px);}
.step8 {transform: translateX(8192px);}
.step9 {transform: translateX(9216px);}
.step10 {transform: translateX(10240px);}
.step11 {transform: translateX(11264px);}
.step12 {transform: translateX(12288px);}
.step13 {transform: translateX(13312px);}
.step14 {transform: translateX(14336px);}
.step15 {transform: translateX(15360px);}
.step16 {transform: translateX(16384px);}
.step17 {transform: translateX(17408px);}
.step18 {transform: translateX(18432px);}
.step19 {transform: translateX(19456px);}
.step20 {transform: translateX(20480px);}
.step21 {transform: translateX(21504px);}
.step22 {transform: translateX(22528px);}
.step23 {transform: translateX(23552px);}
.step24 {transform: translateX(24576px);}
.step25 {transform: translateX(25600px);}
.step26 {transform: translateX(26624px);}
.step27 {transform: translateX(27648px);}
.step28 {transform: translateX(28672px);}
.step29 {transform: translateX(29696px);}
    </style>

    <path d="M 423 755 Q 422 771 422 785 Q 423 801 406 807 Q 370 825 352 818 Q 336 811 349 794 Q 368 773 377 747 L 386 714 Q 395 678 408 662 Q 420 653 424 663 Q 430 681 424 725 L 423 755 Z" fill="lightgray" class="stroke step15"/>
    <path d="M 424 725 Q 434 729 450 733 Q 463 734 480 744 Q 486 748 484 755 Q 483 761 470 763 Q 448 760 423 755 L 377 747 Q 323 740 257 727 Q 220 728 200 726 Q 190 726 188 722 Q 187 715 192 706 Q 205 693 231 682 Q 247 675 263 679 Q 321 697 386 714 L 424 725 Z" fill="lightgray" class="stroke step15"/>
    <path d="M 639 770 Q 642 780 664 809 Q 677 822 669 831 Q 659 847 629 865 Q 616 875 599 868 Q 589 864 596 852 Q 605 831 587 762 L 580 739 Q 567 697 566 685 Q 567 673 580 680 Q 598 690 611 719 Q 614 725 618 730 L 639 770 Z" fill="lightgray" class="stroke step15"/>
    <path d="M 618 730 Q 631 730 648 733 Q 717 746 806 740 Q 819 739 823 747 Q 827 756 816 768 Q 776 801 694 780 Q 667 776 639 770 L 587 762 Q 581 762 575 761 Q 551 758 568 746 Q 574 743 580 739 L 618 730 Z" fill="lightgray" class="stroke step15"/>
    <path d="M 448 610 Q 526 632 571 635 Q 586 634 590 640 Q 594 647 586 659 Q 541 704 513 704 Q 506 703 504 693 Q 498 656 286 598 Q 280 591 285 588 Q 291 588 411 603 L 448 610 Z" fill="lightgray" class="stroke step15"/>
    <path d="M 431 506 Q 456 515 573 522 L 603 525 Q 658 529 723 530 Q 786 530 792 539 Q 796 549 781 563 Q 733 597 697 589 Q 615 570 473 546 Q 464 545 456 542 L 391 532 Q 300 520 199 505 Q 180 502 194 487 Q 207 474 225 470 Q 244 466 259 470 Q 311 486 372 496 L 431 506 Z" fill="lightgray" class="stroke step15"/>
    <path d="M 387 442 Q 406 470 431 506 L 456 542 Q 463 552 473 563 Q 480 570 477 580 Q 473 590 450 609 Q 449 610 448 610 C 425 629 416 633 411 603 Q 407 569 391 532 L 372 496 Q 302 387 114 283 Q 107 279 112 274 Q 139 261 250 321 Q 317 355 368 419 L 387 442 Z" fill="lightgray" class="stroke step15"/>
    <path d="M 573 522 Q 574 521 578 517 Q 735 330 781 316 Q 845 307 936 323 Q 952 324 954 329 Q 957 336 943 341 Q 778 401 764 409 Q 704 443 603 525 C 580 544 553 544 573 522 Z" fill="lightgray" class="stroke step15"/>
    <path d="M 412 434 Q 405 438 387 442 C 358 449 355 446 368 419 Q 386 383 398 324 Q 399 305 411 293 Q 424 277 429 288 Q 432 297 432 309 L 430 336 Q 421 391 419 410 C 416 432 416 432 412 434 Z" fill="lightgray" class="stroke step15"/>
    <path d="M 569 353 Q 585 399 601 413 Q 620 434 601 446 Q 585 456 564 471 Q 548 481 505 458 Q 453 442 412 434 C 383 428 390 404 419 410 Q 438 414 508 430 Q 532 436 538 426 Q 541 423 525 358 C 518 329 559 325 569 353 Z" fill="lightgray" class="stroke step15"/>
    <path d="M 432 309 Q 442 308 453 310 Q 492 319 578 326 Q 587 327 588 334 Q 588 340 569 353 C 559 360 555 360 525 358 Q 524 359 521 358 Q 470 345 430 336 C 401 329 402 311 432 309 Z" fill="lightgray" class="stroke step15"/>
    <path d="M 278 238 Q 254 259 232 261 Q 226 264 222 257 Q 218 251 222 239 Q 252 185 242 45 Q 238 23 248 3 Q 260 -16 276 -27 Q 289 -36 292 -25 Q 307 -13 298 69 Q 292 162 294 199 C 295 224 295 224 278 238 Z" fill="lightgray" class="stroke step15"/>
    <path d="M 294 199 Q 456 253 679 264 Q 700 263 708 251 Q 715 242 710 228 Q 711 75 702 53 Q 698 43 685 46 Q 654 50 620 55 Q 592 56 612 40 Q 682 -11 713 -48 Q 723 -61 736 -51 Q 763 -20 768 86 Q 768 203 785 230 Q 800 251 794 258 Q 787 271 736 302 Q 718 317 672 300 Q 482 276 278 238 C 248 233 265 190 294 199 Z" fill="lightgray" class="stroke step15"/>
    <path d="M 405 182 Q 398 186 380 188 Q 370 191 366 187 Q 362 181 368 168 Q 387 128 400 63 Q 403 44 414 30 Q 429 11 434 24 Q 438 34 437 51 L 434 81 Q 425 141 425 158 C 424 174 424 174 405 182 Z" fill="lightgray" class="stroke step15"/>
    <path d="M 575 94 Q 591 142 607 155 Q 628 177 608 190 Q 592 200 568 217 Q 553 227 506 204 Q 467 192 405 182 C 375 177 396 149 425 158 Q 428 161 509 175 Q 534 179 539 170 Q 542 167 529 100 C 523 71 565 66 575 94 Z" fill="lightgray" class="stroke step15"/>
    <path d="M 437 51 Q 443 51 449 52 Q 492 61 585 66 Q 594 67 595 74 Q 595 81 575 94 C 556 107 556 107 529 100 Q 477 87 434 81 C 404 77 407 50 437 51 Z" fill="lightgray" class="stroke step15"/></g></svg>