<svg version="1.1" viewBox="0 0 16384 1024" xmlns="http://www.w3.org/2000/svg">
  
  <g transform="scale(1, -1) translate(0, -900)" class="origin">
    <style type="text/css">
        .origin {display:none;}
        .hide {display:none;}
        .stroke {fill: #000000;}
        
.step1 {transform: translateX(1024px);}
.step2 {transform: translateX(2048px);}
.step3 {transform: translateX(3072px);}
.step4 {transform: translateX(4096px);}
.step5 {transform: translateX(5120px);}
.step6 {transform: translateX(6144px);}
.step7 {transform: translateX(7168px);}
.step8 {transform: translateX(8192px);}
.step9 {transform: translateX(9216px);}
.step10 {transform: translateX(10240px);}
.step11 {transform: translateX(11264px);}
.step12 {transform: translateX(12288px);}
.step13 {transform: translateX(13312px);}
.step14 {transform: translateX(14336px);}
.step15 {transform: translateX(15360px);}
.step16 {transform: translateX(16384px);}
.step17 {transform: translateX(17408px);}
.step18 {transform: translateX(18432px);}
.step19 {transform: translateX(19456px);}
.step20 {transform: translateX(20480px);}
.step21 {transform: translateX(21504px);}
.step22 {transform: translateX(22528px);}
.step23 {transform: translateX(23552px);}
.step24 {transform: translateX(24576px);}
.step25 {transform: translateX(25600px);}
.step26 {transform: translateX(26624px);}
.step27 {transform: translateX(27648px);}
.step28 {transform: translateX(28672px);}
.step29 {transform: translateX(29696px);}
    </style>

    <path d="M 133 471 Q 263 604 337 725 L 350 743 Q 363 764 378 775 Q 388 785 384 798 Q 380 810 355 832 Q 330 850 313 851 Q 295 850 302 829 Q 315 798 301 772 Q 228 618 71 448 Q 61 439 59 434 Q 55 424 69 425 Q 75 425 116 456 L 133 471 Z" fill="lightgray"/>
    <path d="M 337 725 Q 338 724 341 722 Q 383 695 434 656 Q 449 643 461 641 Q 468 642 472 650 Q 479 662 464 693 Q 451 721 395 735 Q 367 741 350 743 C 320 747 313 743 337 725 Z" fill="lightgray"/>
    <path d="M 260 565 Q 229 556 253 544 Q 292 529 347 547 Q 377 556 410 564 Q 426 568 429 572 Q 436 579 432 586 Q 425 596 399 599 Q 378 602 309 575 Q 287 569 260 565 Z" fill="lightgray"/>
    <path d="M 163 260 Q 164 299 166 328 L 167 358 Q 168 409 172 428 C 175 445 175 445 170 451 Q 161 467 133 471 C 107 476 107 476 116 456 Q 159 365 114 191 Q 87 131 115 99 Q 121 89 129 93 Q 160 117 162 228 L 163 260 Z" fill="lightgray"/>
    <path d="M 172 428 L 229 445 Q 239 449 246 443 Q 252 437 252 417 Q 258 258 251 162 Q 250 143 244 135 Q 241 131 227 135 Q 214 136 198 139 Q 185 143 185 137 Q 219 104 238 82 Q 247 69 258 65 Q 265 62 270 69 Q 300 105 298 141 Q 280 402 299 434 Q 306 447 299 454 Q 284 467 258 478 Q 246 482 236 478 Q 206 460 170 451 C 141 443 143 419 172 428 Z" fill="lightgray"/>
    <path d="M 166 328 Q 194 335 216 338 Q 235 345 226 354 Q 216 364 194 364 Q 181 364 167 358 C 139 347 137 321 166 328 Z" fill="lightgray"/>
    <path d="M 162 228 Q 198 238 227 243 Q 246 247 238 258 Q 228 268 206 270 Q 190 270 163 260 C 135 250 133 220 162 228 Z" fill="lightgray"/>
    <path d="M 339 436 Q 354 385 344 298 Q 341 279 356 259 Q 362 252 368 259 Q 377 277 378 362 Q 378 396 381 419 Q 385 432 373 439 Q 363 445 354 450 Q 347 451 341 449 Q 337 445 339 436 Z" fill="lightgray"/>
    <path d="M 435 446 Q 439 208 428 194 Q 425 193 374 202 Q 365 206 366 200 Q 366 194 373 187 Q 410 150 434 119 Q 443 112 453 124 Q 484 163 479 260 Q 473 359 480 462 Q 484 481 480 489 Q 473 499 445 514 Q 433 521 426 516 Q 417 509 427 494 Q 434 476 435 446 Z" fill="lightgray"/>
    <path d="M 573 727 Q 564 736 541 745 Q 534 749 523 745 Q 517 741 522 730 Q 562 613 538 435 Q 511 386 560 336 C 571 323 572 325 579 354 Q 580 360 582 365 L 584 390 Q 585 417 582 481 L 582 506 Q 581 546 581 577 L 581 605 Q 580 686 582 694 Q 582 698 582 701 C 583 720 583 720 573 727 Z" fill="lightgray"/>
    <path d="M 727 379 Q 740 358 753 338 Q 769 313 777 316 Q 787 317 799 344 Q 811 374 809 412 Q 799 679 821 721 Q 833 739 824 750 Q 817 760 765 777 Q 740 786 722 775 Q 641 739 573 727 C 544 721 553 694 582 701 Q 612 707 687 730 Q 729 743 743 730 Q 753 720 754 680 Q 758 515 751 425 Q 752 412 747 406 C 741 377 716 396 727 379 Z" fill="lightgray"/>
    <path d="M 581 577 Q 581 578 585 578 Q 645 593 690 601 Q 709 607 702 617 Q 692 630 668 631 Q 632 634 581 605 C 555 590 552 570 581 577 Z" fill="lightgray"/>
    <path d="M 582 481 Q 586 481 593 482 Q 653 495 697 504 Q 719 510 710 521 Q 698 534 674 536 Q 641 539 582 506 C 556 491 552 479 582 481 Z" fill="lightgray"/>
    <path d="M 679 374 Q 701 378 727 379 C 757 380 774 392 747 406 Q 740 410 732 412 Q 713 416 584 390 C 555 384 552 363 582 365 Q 621 368 658 372 L 679 374 Z" fill="lightgray"/>
    <path d="M 560 336 Q 563 335 565 331 Q 584 252 440 59 Q 422 43 424 34 Q 424 30 429 31 Q 492 47 596 245 Q 621 296 624 300 Q 628 310 621 321 Q 599 351 579 354 C 551 363 544 361 560 336 Z" fill="lightgray"/>
    <path d="M 658 372 Q 654 368 659 354 Q 669 320 667 285 Q 652 65 692 26 Q 759 -29 899 -5 Q 906 -2 915 -1 Q 948 8 981 31 Q 999 44 987 68 Q 975 90 960 163 Q 959 178 953 182 Q 947 185 943 169 Q 919 91 903 68 Q 893 56 864 48 Q 798 33 741 56 Q 719 66 713 81 Q 686 138 718 329 Q 724 357 679 374 C 657 385 657 385 658 372 Z" fill="lightgray"/></g>
<g transform="scale(1, -1) translate(0, -900)">
    <style type="text/css">
        .origin {display:none;}
        .hide {display:none;}
        .stroke {fill: #000000;}
        
.step1 {transform: translateX(1024px);}
.step2 {transform: translateX(2048px);}
.step3 {transform: translateX(3072px);}
.step4 {transform: translateX(4096px);}
.step5 {transform: translateX(5120px);}
.step6 {transform: translateX(6144px);}
.step7 {transform: translateX(7168px);}
.step8 {transform: translateX(8192px);}
.step9 {transform: translateX(9216px);}
.step10 {transform: translateX(10240px);}
.step11 {transform: translateX(11264px);}
.step12 {transform: translateX(12288px);}
.step13 {transform: translateX(13312px);}
.step14 {transform: translateX(14336px);}
.step15 {transform: translateX(15360px);}
.step16 {transform: translateX(16384px);}
.step17 {transform: translateX(17408px);}
.step18 {transform: translateX(18432px);}
.step19 {transform: translateX(19456px);}
.step20 {transform: translateX(20480px);}
.step21 {transform: translateX(21504px);}
.step22 {transform: translateX(22528px);}
.step23 {transform: translateX(23552px);}
.step24 {transform: translateX(24576px);}
.step25 {transform: translateX(25600px);}
.step26 {transform: translateX(26624px);}
.step27 {transform: translateX(27648px);}
.step28 {transform: translateX(28672px);}
.step29 {transform: translateX(29696px);}
    </style>

    <path d="M 133 471 Q 263 604 337 725 L 350 743 Q 363 764 378 775 Q 388 785 384 798 Q 380 810 355 832 Q 330 850 313 851 Q 295 850 302 829 Q 315 798 301 772 Q 228 618 71 448 Q 61 439 59 434 Q 55 424 69 425 Q 75 425 116 456 L 133 471 Z" fill="lightgray" class="stroke step0"/>
    <path d="M 337 725 Q 338 724 341 722 Q 383 695 434 656 Q 449 643 461 641 Q 468 642 472 650 Q 479 662 464 693 Q 451 721 395 735 Q 367 741 350 743 C 320 747 313 743 337 725 Z" fill="lightgray" class="hide"/>
    <path d="M 260 565 Q 229 556 253 544 Q 292 529 347 547 Q 377 556 410 564 Q 426 568 429 572 Q 436 579 432 586 Q 425 596 399 599 Q 378 602 309 575 Q 287 569 260 565 Z" fill="lightgray" class="hide"/>
    <path d="M 163 260 Q 164 299 166 328 L 167 358 Q 168 409 172 428 C 175 445 175 445 170 451 Q 161 467 133 471 C 107 476 107 476 116 456 Q 159 365 114 191 Q 87 131 115 99 Q 121 89 129 93 Q 160 117 162 228 L 163 260 Z" fill="lightgray" class="hide"/>
    <path d="M 172 428 L 229 445 Q 239 449 246 443 Q 252 437 252 417 Q 258 258 251 162 Q 250 143 244 135 Q 241 131 227 135 Q 214 136 198 139 Q 185 143 185 137 Q 219 104 238 82 Q 247 69 258 65 Q 265 62 270 69 Q 300 105 298 141 Q 280 402 299 434 Q 306 447 299 454 Q 284 467 258 478 Q 246 482 236 478 Q 206 460 170 451 C 141 443 143 419 172 428 Z" fill="lightgray" class="hide"/>
    <path d="M 166 328 Q 194 335 216 338 Q 235 345 226 354 Q 216 364 194 364 Q 181 364 167 358 C 139 347 137 321 166 328 Z" fill="lightgray" class="hide"/>
    <path d="M 162 228 Q 198 238 227 243 Q 246 247 238 258 Q 228 268 206 270 Q 190 270 163 260 C 135 250 133 220 162 228 Z" fill="lightgray" class="hide"/>
    <path d="M 339 436 Q 354 385 344 298 Q 341 279 356 259 Q 362 252 368 259 Q 377 277 378 362 Q 378 396 381 419 Q 385 432 373 439 Q 363 445 354 450 Q 347 451 341 449 Q 337 445 339 436 Z" fill="lightgray" class="hide"/>
    <path d="M 435 446 Q 439 208 428 194 Q 425 193 374 202 Q 365 206 366 200 Q 366 194 373 187 Q 410 150 434 119 Q 443 112 453 124 Q 484 163 479 260 Q 473 359 480 462 Q 484 481 480 489 Q 473 499 445 514 Q 433 521 426 516 Q 417 509 427 494 Q 434 476 435 446 Z" fill="lightgray" class="hide"/>
    <path d="M 573 727 Q 564 736 541 745 Q 534 749 523 745 Q 517 741 522 730 Q 562 613 538 435 Q 511 386 560 336 C 571 323 572 325 579 354 Q 580 360 582 365 L 584 390 Q 585 417 582 481 L 582 506 Q 581 546 581 577 L 581 605 Q 580 686 582 694 Q 582 698 582 701 C 583 720 583 720 573 727 Z" fill="lightgray" class="hide"/>
    <path d="M 727 379 Q 740 358 753 338 Q 769 313 777 316 Q 787 317 799 344 Q 811 374 809 412 Q 799 679 821 721 Q 833 739 824 750 Q 817 760 765 777 Q 740 786 722 775 Q 641 739 573 727 C 544 721 553 694 582 701 Q 612 707 687 730 Q 729 743 743 730 Q 753 720 754 680 Q 758 515 751 425 Q 752 412 747 406 C 741 377 716 396 727 379 Z" fill="lightgray" class="hide"/>
    <path d="M 581 577 Q 581 578 585 578 Q 645 593 690 601 Q 709 607 702 617 Q 692 630 668 631 Q 632 634 581 605 C 555 590 552 570 581 577 Z" fill="lightgray" class="hide"/>
    <path d="M 582 481 Q 586 481 593 482 Q 653 495 697 504 Q 719 510 710 521 Q 698 534 674 536 Q 641 539 582 506 C 556 491 552 479 582 481 Z" fill="lightgray" class="hide"/>
    <path d="M 679 374 Q 701 378 727 379 C 757 380 774 392 747 406 Q 740 410 732 412 Q 713 416 584 390 C 555 384 552 363 582 365 Q 621 368 658 372 L 679 374 Z" fill="lightgray" class="hide"/>
    <path d="M 560 336 Q 563 335 565 331 Q 584 252 440 59 Q 422 43 424 34 Q 424 30 429 31 Q 492 47 596 245 Q 621 296 624 300 Q 628 310 621 321 Q 599 351 579 354 C 551 363 544 361 560 336 Z" fill="lightgray" class="hide"/>
    <path d="M 658 372 Q 654 368 659 354 Q 669 320 667 285 Q 652 65 692 26 Q 759 -29 899 -5 Q 906 -2 915 -1 Q 948 8 981 31 Q 999 44 987 68 Q 975 90 960 163 Q 959 178 953 182 Q 947 185 943 169 Q 919 91 903 68 Q 893 56 864 48 Q 798 33 741 56 Q 719 66 713 81 Q 686 138 718 329 Q 724 357 679 374 C 657 385 657 385 658 372 Z" fill="lightgray" class="hide"/></g><g transform="scale(1, -1) translate(0, -900)">
    <style type="text/css">
        .origin {display:none;}
        .hide {display:none;}
        .stroke {fill: #000000;}
        
.step1 {transform: translateX(1024px);}
.step2 {transform: translateX(2048px);}
.step3 {transform: translateX(3072px);}
.step4 {transform: translateX(4096px);}
.step5 {transform: translateX(5120px);}
.step6 {transform: translateX(6144px);}
.step7 {transform: translateX(7168px);}
.step8 {transform: translateX(8192px);}
.step9 {transform: translateX(9216px);}
.step10 {transform: translateX(10240px);}
.step11 {transform: translateX(11264px);}
.step12 {transform: translateX(12288px);}
.step13 {transform: translateX(13312px);}
.step14 {transform: translateX(14336px);}
.step15 {transform: translateX(15360px);}
.step16 {transform: translateX(16384px);}
.step17 {transform: translateX(17408px);}
.step18 {transform: translateX(18432px);}
.step19 {transform: translateX(19456px);}
.step20 {transform: translateX(20480px);}
.step21 {transform: translateX(21504px);}
.step22 {transform: translateX(22528px);}
.step23 {transform: translateX(23552px);}
.step24 {transform: translateX(24576px);}
.step25 {transform: translateX(25600px);}
.step26 {transform: translateX(26624px);}
.step27 {transform: translateX(27648px);}
.step28 {transform: translateX(28672px);}
.step29 {transform: translateX(29696px);}
    </style>

    <path d="M 133 471 Q 263 604 337 725 L 350 743 Q 363 764 378 775 Q 388 785 384 798 Q 380 810 355 832 Q 330 850 313 851 Q 295 850 302 829 Q 315 798 301 772 Q 228 618 71 448 Q 61 439 59 434 Q 55 424 69 425 Q 75 425 116 456 L 133 471 Z" fill="lightgray" class="stroke step1"/>
    <path d="M 337 725 Q 338 724 341 722 Q 383 695 434 656 Q 449 643 461 641 Q 468 642 472 650 Q 479 662 464 693 Q 451 721 395 735 Q 367 741 350 743 C 320 747 313 743 337 725 Z" fill="lightgray" class="stroke step1"/>
    <path d="M 260 565 Q 229 556 253 544 Q 292 529 347 547 Q 377 556 410 564 Q 426 568 429 572 Q 436 579 432 586 Q 425 596 399 599 Q 378 602 309 575 Q 287 569 260 565 Z" fill="lightgray" class="hide"/>
    <path d="M 163 260 Q 164 299 166 328 L 167 358 Q 168 409 172 428 C 175 445 175 445 170 451 Q 161 467 133 471 C 107 476 107 476 116 456 Q 159 365 114 191 Q 87 131 115 99 Q 121 89 129 93 Q 160 117 162 228 L 163 260 Z" fill="lightgray" class="hide"/>
    <path d="M 172 428 L 229 445 Q 239 449 246 443 Q 252 437 252 417 Q 258 258 251 162 Q 250 143 244 135 Q 241 131 227 135 Q 214 136 198 139 Q 185 143 185 137 Q 219 104 238 82 Q 247 69 258 65 Q 265 62 270 69 Q 300 105 298 141 Q 280 402 299 434 Q 306 447 299 454 Q 284 467 258 478 Q 246 482 236 478 Q 206 460 170 451 C 141 443 143 419 172 428 Z" fill="lightgray" class="hide"/>
    <path d="M 166 328 Q 194 335 216 338 Q 235 345 226 354 Q 216 364 194 364 Q 181 364 167 358 C 139 347 137 321 166 328 Z" fill="lightgray" class="hide"/>
    <path d="M 162 228 Q 198 238 227 243 Q 246 247 238 258 Q 228 268 206 270 Q 190 270 163 260 C 135 250 133 220 162 228 Z" fill="lightgray" class="hide"/>
    <path d="M 339 436 Q 354 385 344 298 Q 341 279 356 259 Q 362 252 368 259 Q 377 277 378 362 Q 378 396 381 419 Q 385 432 373 439 Q 363 445 354 450 Q 347 451 341 449 Q 337 445 339 436 Z" fill="lightgray" class="hide"/>
    <path d="M 435 446 Q 439 208 428 194 Q 425 193 374 202 Q 365 206 366 200 Q 366 194 373 187 Q 410 150 434 119 Q 443 112 453 124 Q 484 163 479 260 Q 473 359 480 462 Q 484 481 480 489 Q 473 499 445 514 Q 433 521 426 516 Q 417 509 427 494 Q 434 476 435 446 Z" fill="lightgray" class="hide"/>
    <path d="M 573 727 Q 564 736 541 745 Q 534 749 523 745 Q 517 741 522 730 Q 562 613 538 435 Q 511 386 560 336 C 571 323 572 325 579 354 Q 580 360 582 365 L 584 390 Q 585 417 582 481 L 582 506 Q 581 546 581 577 L 581 605 Q 580 686 582 694 Q 582 698 582 701 C 583 720 583 720 573 727 Z" fill="lightgray" class="hide"/>
    <path d="M 727 379 Q 740 358 753 338 Q 769 313 777 316 Q 787 317 799 344 Q 811 374 809 412 Q 799 679 821 721 Q 833 739 824 750 Q 817 760 765 777 Q 740 786 722 775 Q 641 739 573 727 C 544 721 553 694 582 701 Q 612 707 687 730 Q 729 743 743 730 Q 753 720 754 680 Q 758 515 751 425 Q 752 412 747 406 C 741 377 716 396 727 379 Z" fill="lightgray" class="hide"/>
    <path d="M 581 577 Q 581 578 585 578 Q 645 593 690 601 Q 709 607 702 617 Q 692 630 668 631 Q 632 634 581 605 C 555 590 552 570 581 577 Z" fill="lightgray" class="hide"/>
    <path d="M 582 481 Q 586 481 593 482 Q 653 495 697 504 Q 719 510 710 521 Q 698 534 674 536 Q 641 539 582 506 C 556 491 552 479 582 481 Z" fill="lightgray" class="hide"/>
    <path d="M 679 374 Q 701 378 727 379 C 757 380 774 392 747 406 Q 740 410 732 412 Q 713 416 584 390 C 555 384 552 363 582 365 Q 621 368 658 372 L 679 374 Z" fill="lightgray" class="hide"/>
    <path d="M 560 336 Q 563 335 565 331 Q 584 252 440 59 Q 422 43 424 34 Q 424 30 429 31 Q 492 47 596 245 Q 621 296 624 300 Q 628 310 621 321 Q 599 351 579 354 C 551 363 544 361 560 336 Z" fill="lightgray" class="hide"/>
    <path d="M 658 372 Q 654 368 659 354 Q 669 320 667 285 Q 652 65 692 26 Q 759 -29 899 -5 Q 906 -2 915 -1 Q 948 8 981 31 Q 999 44 987 68 Q 975 90 960 163 Q 959 178 953 182 Q 947 185 943 169 Q 919 91 903 68 Q 893 56 864 48 Q 798 33 741 56 Q 719 66 713 81 Q 686 138 718 329 Q 724 357 679 374 C 657 385 657 385 658 372 Z" fill="lightgray" class="hide"/></g><g transform="scale(1, -1) translate(0, -900)">
    <style type="text/css">
        .origin {display:none;}
        .hide {display:none;}
        .stroke {fill: #000000;}
        
.step1 {transform: translateX(1024px);}
.step2 {transform: translateX(2048px);}
.step3 {transform: translateX(3072px);}
.step4 {transform: translateX(4096px);}
.step5 {transform: translateX(5120px);}
.step6 {transform: translateX(6144px);}
.step7 {transform: translateX(7168px);}
.step8 {transform: translateX(8192px);}
.step9 {transform: translateX(9216px);}
.step10 {transform: translateX(10240px);}
.step11 {transform: translateX(11264px);}
.step12 {transform: translateX(12288px);}
.step13 {transform: translateX(13312px);}
.step14 {transform: translateX(14336px);}
.step15 {transform: translateX(15360px);}
.step16 {transform: translateX(16384px);}
.step17 {transform: translateX(17408px);}
.step18 {transform: translateX(18432px);}
.step19 {transform: translateX(19456px);}
.step20 {transform: translateX(20480px);}
.step21 {transform: translateX(21504px);}
.step22 {transform: translateX(22528px);}
.step23 {transform: translateX(23552px);}
.step24 {transform: translateX(24576px);}
.step25 {transform: translateX(25600px);}
.step26 {transform: translateX(26624px);}
.step27 {transform: translateX(27648px);}
.step28 {transform: translateX(28672px);}
.step29 {transform: translateX(29696px);}
    </style>

    <path d="M 133 471 Q 263 604 337 725 L 350 743 Q 363 764 378 775 Q 388 785 384 798 Q 380 810 355 832 Q 330 850 313 851 Q 295 850 302 829 Q 315 798 301 772 Q 228 618 71 448 Q 61 439 59 434 Q 55 424 69 425 Q 75 425 116 456 L 133 471 Z" fill="lightgray" class="stroke step2"/>
    <path d="M 337 725 Q 338 724 341 722 Q 383 695 434 656 Q 449 643 461 641 Q 468 642 472 650 Q 479 662 464 693 Q 451 721 395 735 Q 367 741 350 743 C 320 747 313 743 337 725 Z" fill="lightgray" class="stroke step2"/>
    <path d="M 260 565 Q 229 556 253 544 Q 292 529 347 547 Q 377 556 410 564 Q 426 568 429 572 Q 436 579 432 586 Q 425 596 399 599 Q 378 602 309 575 Q 287 569 260 565 Z" fill="lightgray" class="stroke step2"/>
    <path d="M 163 260 Q 164 299 166 328 L 167 358 Q 168 409 172 428 C 175 445 175 445 170 451 Q 161 467 133 471 C 107 476 107 476 116 456 Q 159 365 114 191 Q 87 131 115 99 Q 121 89 129 93 Q 160 117 162 228 L 163 260 Z" fill="lightgray" class="hide"/>
    <path d="M 172 428 L 229 445 Q 239 449 246 443 Q 252 437 252 417 Q 258 258 251 162 Q 250 143 244 135 Q 241 131 227 135 Q 214 136 198 139 Q 185 143 185 137 Q 219 104 238 82 Q 247 69 258 65 Q 265 62 270 69 Q 300 105 298 141 Q 280 402 299 434 Q 306 447 299 454 Q 284 467 258 478 Q 246 482 236 478 Q 206 460 170 451 C 141 443 143 419 172 428 Z" fill="lightgray" class="hide"/>
    <path d="M 166 328 Q 194 335 216 338 Q 235 345 226 354 Q 216 364 194 364 Q 181 364 167 358 C 139 347 137 321 166 328 Z" fill="lightgray" class="hide"/>
    <path d="M 162 228 Q 198 238 227 243 Q 246 247 238 258 Q 228 268 206 270 Q 190 270 163 260 C 135 250 133 220 162 228 Z" fill="lightgray" class="hide"/>
    <path d="M 339 436 Q 354 385 344 298 Q 341 279 356 259 Q 362 252 368 259 Q 377 277 378 362 Q 378 396 381 419 Q 385 432 373 439 Q 363 445 354 450 Q 347 451 341 449 Q 337 445 339 436 Z" fill="lightgray" class="hide"/>
    <path d="M 435 446 Q 439 208 428 194 Q 425 193 374 202 Q 365 206 366 200 Q 366 194 373 187 Q 410 150 434 119 Q 443 112 453 124 Q 484 163 479 260 Q 473 359 480 462 Q 484 481 480 489 Q 473 499 445 514 Q 433 521 426 516 Q 417 509 427 494 Q 434 476 435 446 Z" fill="lightgray" class="hide"/>
    <path d="M 573 727 Q 564 736 541 745 Q 534 749 523 745 Q 517 741 522 730 Q 562 613 538 435 Q 511 386 560 336 C 571 323 572 325 579 354 Q 580 360 582 365 L 584 390 Q 585 417 582 481 L 582 506 Q 581 546 581 577 L 581 605 Q 580 686 582 694 Q 582 698 582 701 C 583 720 583 720 573 727 Z" fill="lightgray" class="hide"/>
    <path d="M 727 379 Q 740 358 753 338 Q 769 313 777 316 Q 787 317 799 344 Q 811 374 809 412 Q 799 679 821 721 Q 833 739 824 750 Q 817 760 765 777 Q 740 786 722 775 Q 641 739 573 727 C 544 721 553 694 582 701 Q 612 707 687 730 Q 729 743 743 730 Q 753 720 754 680 Q 758 515 751 425 Q 752 412 747 406 C 741 377 716 396 727 379 Z" fill="lightgray" class="hide"/>
    <path d="M 581 577 Q 581 578 585 578 Q 645 593 690 601 Q 709 607 702 617 Q 692 630 668 631 Q 632 634 581 605 C 555 590 552 570 581 577 Z" fill="lightgray" class="hide"/>
    <path d="M 582 481 Q 586 481 593 482 Q 653 495 697 504 Q 719 510 710 521 Q 698 534 674 536 Q 641 539 582 506 C 556 491 552 479 582 481 Z" fill="lightgray" class="hide"/>
    <path d="M 679 374 Q 701 378 727 379 C 757 380 774 392 747 406 Q 740 410 732 412 Q 713 416 584 390 C 555 384 552 363 582 365 Q 621 368 658 372 L 679 374 Z" fill="lightgray" class="hide"/>
    <path d="M 560 336 Q 563 335 565 331 Q 584 252 440 59 Q 422 43 424 34 Q 424 30 429 31 Q 492 47 596 245 Q 621 296 624 300 Q 628 310 621 321 Q 599 351 579 354 C 551 363 544 361 560 336 Z" fill="lightgray" class="hide"/>
    <path d="M 658 372 Q 654 368 659 354 Q 669 320 667 285 Q 652 65 692 26 Q 759 -29 899 -5 Q 906 -2 915 -1 Q 948 8 981 31 Q 999 44 987 68 Q 975 90 960 163 Q 959 178 953 182 Q 947 185 943 169 Q 919 91 903 68 Q 893 56 864 48 Q 798 33 741 56 Q 719 66 713 81 Q 686 138 718 329 Q 724 357 679 374 C 657 385 657 385 658 372 Z" fill="lightgray" class="hide"/></g><g transform="scale(1, -1) translate(0, -900)">
    <style type="text/css">
        .origin {display:none;}
        .hide {display:none;}
        .stroke {fill: #000000;}
        
.step1 {transform: translateX(1024px);}
.step2 {transform: translateX(2048px);}
.step3 {transform: translateX(3072px);}
.step4 {transform: translateX(4096px);}
.step5 {transform: translateX(5120px);}
.step6 {transform: translateX(6144px);}
.step7 {transform: translateX(7168px);}
.step8 {transform: translateX(8192px);}
.step9 {transform: translateX(9216px);}
.step10 {transform: translateX(10240px);}
.step11 {transform: translateX(11264px);}
.step12 {transform: translateX(12288px);}
.step13 {transform: translateX(13312px);}
.step14 {transform: translateX(14336px);}
.step15 {transform: translateX(15360px);}
.step16 {transform: translateX(16384px);}
.step17 {transform: translateX(17408px);}
.step18 {transform: translateX(18432px);}
.step19 {transform: translateX(19456px);}
.step20 {transform: translateX(20480px);}
.step21 {transform: translateX(21504px);}
.step22 {transform: translateX(22528px);}
.step23 {transform: translateX(23552px);}
.step24 {transform: translateX(24576px);}
.step25 {transform: translateX(25600px);}
.step26 {transform: translateX(26624px);}
.step27 {transform: translateX(27648px);}
.step28 {transform: translateX(28672px);}
.step29 {transform: translateX(29696px);}
    </style>

    <path d="M 133 471 Q 263 604 337 725 L 350 743 Q 363 764 378 775 Q 388 785 384 798 Q 380 810 355 832 Q 330 850 313 851 Q 295 850 302 829 Q 315 798 301 772 Q 228 618 71 448 Q 61 439 59 434 Q 55 424 69 425 Q 75 425 116 456 L 133 471 Z" fill="lightgray" class="stroke step3"/>
    <path d="M 337 725 Q 338 724 341 722 Q 383 695 434 656 Q 449 643 461 641 Q 468 642 472 650 Q 479 662 464 693 Q 451 721 395 735 Q 367 741 350 743 C 320 747 313 743 337 725 Z" fill="lightgray" class="stroke step3"/>
    <path d="M 260 565 Q 229 556 253 544 Q 292 529 347 547 Q 377 556 410 564 Q 426 568 429 572 Q 436 579 432 586 Q 425 596 399 599 Q 378 602 309 575 Q 287 569 260 565 Z" fill="lightgray" class="stroke step3"/>
    <path d="M 163 260 Q 164 299 166 328 L 167 358 Q 168 409 172 428 C 175 445 175 445 170 451 Q 161 467 133 471 C 107 476 107 476 116 456 Q 159 365 114 191 Q 87 131 115 99 Q 121 89 129 93 Q 160 117 162 228 L 163 260 Z" fill="lightgray" class="stroke step3"/>
    <path d="M 172 428 L 229 445 Q 239 449 246 443 Q 252 437 252 417 Q 258 258 251 162 Q 250 143 244 135 Q 241 131 227 135 Q 214 136 198 139 Q 185 143 185 137 Q 219 104 238 82 Q 247 69 258 65 Q 265 62 270 69 Q 300 105 298 141 Q 280 402 299 434 Q 306 447 299 454 Q 284 467 258 478 Q 246 482 236 478 Q 206 460 170 451 C 141 443 143 419 172 428 Z" fill="lightgray" class="hide"/>
    <path d="M 166 328 Q 194 335 216 338 Q 235 345 226 354 Q 216 364 194 364 Q 181 364 167 358 C 139 347 137 321 166 328 Z" fill="lightgray" class="hide"/>
    <path d="M 162 228 Q 198 238 227 243 Q 246 247 238 258 Q 228 268 206 270 Q 190 270 163 260 C 135 250 133 220 162 228 Z" fill="lightgray" class="hide"/>
    <path d="M 339 436 Q 354 385 344 298 Q 341 279 356 259 Q 362 252 368 259 Q 377 277 378 362 Q 378 396 381 419 Q 385 432 373 439 Q 363 445 354 450 Q 347 451 341 449 Q 337 445 339 436 Z" fill="lightgray" class="hide"/>
    <path d="M 435 446 Q 439 208 428 194 Q 425 193 374 202 Q 365 206 366 200 Q 366 194 373 187 Q 410 150 434 119 Q 443 112 453 124 Q 484 163 479 260 Q 473 359 480 462 Q 484 481 480 489 Q 473 499 445 514 Q 433 521 426 516 Q 417 509 427 494 Q 434 476 435 446 Z" fill="lightgray" class="hide"/>
    <path d="M 573 727 Q 564 736 541 745 Q 534 749 523 745 Q 517 741 522 730 Q 562 613 538 435 Q 511 386 560 336 C 571 323 572 325 579 354 Q 580 360 582 365 L 584 390 Q 585 417 582 481 L 582 506 Q 581 546 581 577 L 581 605 Q 580 686 582 694 Q 582 698 582 701 C 583 720 583 720 573 727 Z" fill="lightgray" class="hide"/>
    <path d="M 727 379 Q 740 358 753 338 Q 769 313 777 316 Q 787 317 799 344 Q 811 374 809 412 Q 799 679 821 721 Q 833 739 824 750 Q 817 760 765 777 Q 740 786 722 775 Q 641 739 573 727 C 544 721 553 694 582 701 Q 612 707 687 730 Q 729 743 743 730 Q 753 720 754 680 Q 758 515 751 425 Q 752 412 747 406 C 741 377 716 396 727 379 Z" fill="lightgray" class="hide"/>
    <path d="M 581 577 Q 581 578 585 578 Q 645 593 690 601 Q 709 607 702 617 Q 692 630 668 631 Q 632 634 581 605 C 555 590 552 570 581 577 Z" fill="lightgray" class="hide"/>
    <path d="M 582 481 Q 586 481 593 482 Q 653 495 697 504 Q 719 510 710 521 Q 698 534 674 536 Q 641 539 582 506 C 556 491 552 479 582 481 Z" fill="lightgray" class="hide"/>
    <path d="M 679 374 Q 701 378 727 379 C 757 380 774 392 747 406 Q 740 410 732 412 Q 713 416 584 390 C 555 384 552 363 582 365 Q 621 368 658 372 L 679 374 Z" fill="lightgray" class="hide"/>
    <path d="M 560 336 Q 563 335 565 331 Q 584 252 440 59 Q 422 43 424 34 Q 424 30 429 31 Q 492 47 596 245 Q 621 296 624 300 Q 628 310 621 321 Q 599 351 579 354 C 551 363 544 361 560 336 Z" fill="lightgray" class="hide"/>
    <path d="M 658 372 Q 654 368 659 354 Q 669 320 667 285 Q 652 65 692 26 Q 759 -29 899 -5 Q 906 -2 915 -1 Q 948 8 981 31 Q 999 44 987 68 Q 975 90 960 163 Q 959 178 953 182 Q 947 185 943 169 Q 919 91 903 68 Q 893 56 864 48 Q 798 33 741 56 Q 719 66 713 81 Q 686 138 718 329 Q 724 357 679 374 C 657 385 657 385 658 372 Z" fill="lightgray" class="hide"/></g><g transform="scale(1, -1) translate(0, -900)">
    <style type="text/css">
        .origin {display:none;}
        .hide {display:none;}
        .stroke {fill: #000000;}
        
.step1 {transform: translateX(1024px);}
.step2 {transform: translateX(2048px);}
.step3 {transform: translateX(3072px);}
.step4 {transform: translateX(4096px);}
.step5 {transform: translateX(5120px);}
.step6 {transform: translateX(6144px);}
.step7 {transform: translateX(7168px);}
.step8 {transform: translateX(8192px);}
.step9 {transform: translateX(9216px);}
.step10 {transform: translateX(10240px);}
.step11 {transform: translateX(11264px);}
.step12 {transform: translateX(12288px);}
.step13 {transform: translateX(13312px);}
.step14 {transform: translateX(14336px);}
.step15 {transform: translateX(15360px);}
.step16 {transform: translateX(16384px);}
.step17 {transform: translateX(17408px);}
.step18 {transform: translateX(18432px);}
.step19 {transform: translateX(19456px);}
.step20 {transform: translateX(20480px);}
.step21 {transform: translateX(21504px);}
.step22 {transform: translateX(22528px);}
.step23 {transform: translateX(23552px);}
.step24 {transform: translateX(24576px);}
.step25 {transform: translateX(25600px);}
.step26 {transform: translateX(26624px);}
.step27 {transform: translateX(27648px);}
.step28 {transform: translateX(28672px);}
.step29 {transform: translateX(29696px);}
    </style>

    <path d="M 133 471 Q 263 604 337 725 L 350 743 Q 363 764 378 775 Q 388 785 384 798 Q 380 810 355 832 Q 330 850 313 851 Q 295 850 302 829 Q 315 798 301 772 Q 228 618 71 448 Q 61 439 59 434 Q 55 424 69 425 Q 75 425 116 456 L 133 471 Z" fill="lightgray" class="stroke step4"/>
    <path d="M 337 725 Q 338 724 341 722 Q 383 695 434 656 Q 449 643 461 641 Q 468 642 472 650 Q 479 662 464 693 Q 451 721 395 735 Q 367 741 350 743 C 320 747 313 743 337 725 Z" fill="lightgray" class="stroke step4"/>
    <path d="M 260 565 Q 229 556 253 544 Q 292 529 347 547 Q 377 556 410 564 Q 426 568 429 572 Q 436 579 432 586 Q 425 596 399 599 Q 378 602 309 575 Q 287 569 260 565 Z" fill="lightgray" class="stroke step4"/>
    <path d="M 163 260 Q 164 299 166 328 L 167 358 Q 168 409 172 428 C 175 445 175 445 170 451 Q 161 467 133 471 C 107 476 107 476 116 456 Q 159 365 114 191 Q 87 131 115 99 Q 121 89 129 93 Q 160 117 162 228 L 163 260 Z" fill="lightgray" class="stroke step4"/>
    <path d="M 172 428 L 229 445 Q 239 449 246 443 Q 252 437 252 417 Q 258 258 251 162 Q 250 143 244 135 Q 241 131 227 135 Q 214 136 198 139 Q 185 143 185 137 Q 219 104 238 82 Q 247 69 258 65 Q 265 62 270 69 Q 300 105 298 141 Q 280 402 299 434 Q 306 447 299 454 Q 284 467 258 478 Q 246 482 236 478 Q 206 460 170 451 C 141 443 143 419 172 428 Z" fill="lightgray" class="stroke step4"/>
    <path d="M 166 328 Q 194 335 216 338 Q 235 345 226 354 Q 216 364 194 364 Q 181 364 167 358 C 139 347 137 321 166 328 Z" fill="lightgray" class="hide"/>
    <path d="M 162 228 Q 198 238 227 243 Q 246 247 238 258 Q 228 268 206 270 Q 190 270 163 260 C 135 250 133 220 162 228 Z" fill="lightgray" class="hide"/>
    <path d="M 339 436 Q 354 385 344 298 Q 341 279 356 259 Q 362 252 368 259 Q 377 277 378 362 Q 378 396 381 419 Q 385 432 373 439 Q 363 445 354 450 Q 347 451 341 449 Q 337 445 339 436 Z" fill="lightgray" class="hide"/>
    <path d="M 435 446 Q 439 208 428 194 Q 425 193 374 202 Q 365 206 366 200 Q 366 194 373 187 Q 410 150 434 119 Q 443 112 453 124 Q 484 163 479 260 Q 473 359 480 462 Q 484 481 480 489 Q 473 499 445 514 Q 433 521 426 516 Q 417 509 427 494 Q 434 476 435 446 Z" fill="lightgray" class="hide"/>
    <path d="M 573 727 Q 564 736 541 745 Q 534 749 523 745 Q 517 741 522 730 Q 562 613 538 435 Q 511 386 560 336 C 571 323 572 325 579 354 Q 580 360 582 365 L 584 390 Q 585 417 582 481 L 582 506 Q 581 546 581 577 L 581 605 Q 580 686 582 694 Q 582 698 582 701 C 583 720 583 720 573 727 Z" fill="lightgray" class="hide"/>
    <path d="M 727 379 Q 740 358 753 338 Q 769 313 777 316 Q 787 317 799 344 Q 811 374 809 412 Q 799 679 821 721 Q 833 739 824 750 Q 817 760 765 777 Q 740 786 722 775 Q 641 739 573 727 C 544 721 553 694 582 701 Q 612 707 687 730 Q 729 743 743 730 Q 753 720 754 680 Q 758 515 751 425 Q 752 412 747 406 C 741 377 716 396 727 379 Z" fill="lightgray" class="hide"/>
    <path d="M 581 577 Q 581 578 585 578 Q 645 593 690 601 Q 709 607 702 617 Q 692 630 668 631 Q 632 634 581 605 C 555 590 552 570 581 577 Z" fill="lightgray" class="hide"/>
    <path d="M 582 481 Q 586 481 593 482 Q 653 495 697 504 Q 719 510 710 521 Q 698 534 674 536 Q 641 539 582 506 C 556 491 552 479 582 481 Z" fill="lightgray" class="hide"/>
    <path d="M 679 374 Q 701 378 727 379 C 757 380 774 392 747 406 Q 740 410 732 412 Q 713 416 584 390 C 555 384 552 363 582 365 Q 621 368 658 372 L 679 374 Z" fill="lightgray" class="hide"/>
    <path d="M 560 336 Q 563 335 565 331 Q 584 252 440 59 Q 422 43 424 34 Q 424 30 429 31 Q 492 47 596 245 Q 621 296 624 300 Q 628 310 621 321 Q 599 351 579 354 C 551 363 544 361 560 336 Z" fill="lightgray" class="hide"/>
    <path d="M 658 372 Q 654 368 659 354 Q 669 320 667 285 Q 652 65 692 26 Q 759 -29 899 -5 Q 906 -2 915 -1 Q 948 8 981 31 Q 999 44 987 68 Q 975 90 960 163 Q 959 178 953 182 Q 947 185 943 169 Q 919 91 903 68 Q 893 56 864 48 Q 798 33 741 56 Q 719 66 713 81 Q 686 138 718 329 Q 724 357 679 374 C 657 385 657 385 658 372 Z" fill="lightgray" class="hide"/></g><g transform="scale(1, -1) translate(0, -900)">
    <style type="text/css">
        .origin {display:none;}
        .hide {display:none;}
        .stroke {fill: #000000;}
        
.step1 {transform: translateX(1024px);}
.step2 {transform: translateX(2048px);}
.step3 {transform: translateX(3072px);}
.step4 {transform: translateX(4096px);}
.step5 {transform: translateX(5120px);}
.step6 {transform: translateX(6144px);}
.step7 {transform: translateX(7168px);}
.step8 {transform: translateX(8192px);}
.step9 {transform: translateX(9216px);}
.step10 {transform: translateX(10240px);}
.step11 {transform: translateX(11264px);}
.step12 {transform: translateX(12288px);}
.step13 {transform: translateX(13312px);}
.step14 {transform: translateX(14336px);}
.step15 {transform: translateX(15360px);}
.step16 {transform: translateX(16384px);}
.step17 {transform: translateX(17408px);}
.step18 {transform: translateX(18432px);}
.step19 {transform: translateX(19456px);}
.step20 {transform: translateX(20480px);}
.step21 {transform: translateX(21504px);}
.step22 {transform: translateX(22528px);}
.step23 {transform: translateX(23552px);}
.step24 {transform: translateX(24576px);}
.step25 {transform: translateX(25600px);}
.step26 {transform: translateX(26624px);}
.step27 {transform: translateX(27648px);}
.step28 {transform: translateX(28672px);}
.step29 {transform: translateX(29696px);}
    </style>

    <path d="M 133 471 Q 263 604 337 725 L 350 743 Q 363 764 378 775 Q 388 785 384 798 Q 380 810 355 832 Q 330 850 313 851 Q 295 850 302 829 Q 315 798 301 772 Q 228 618 71 448 Q 61 439 59 434 Q 55 424 69 425 Q 75 425 116 456 L 133 471 Z" fill="lightgray" class="stroke step5"/>
    <path d="M 337 725 Q 338 724 341 722 Q 383 695 434 656 Q 449 643 461 641 Q 468 642 472 650 Q 479 662 464 693 Q 451 721 395 735 Q 367 741 350 743 C 320 747 313 743 337 725 Z" fill="lightgray" class="stroke step5"/>
    <path d="M 260 565 Q 229 556 253 544 Q 292 529 347 547 Q 377 556 410 564 Q 426 568 429 572 Q 436 579 432 586 Q 425 596 399 599 Q 378 602 309 575 Q 287 569 260 565 Z" fill="lightgray" class="stroke step5"/>
    <path d="M 163 260 Q 164 299 166 328 L 167 358 Q 168 409 172 428 C 175 445 175 445 170 451 Q 161 467 133 471 C 107 476 107 476 116 456 Q 159 365 114 191 Q 87 131 115 99 Q 121 89 129 93 Q 160 117 162 228 L 163 260 Z" fill="lightgray" class="stroke step5"/>
    <path d="M 172 428 L 229 445 Q 239 449 246 443 Q 252 437 252 417 Q 258 258 251 162 Q 250 143 244 135 Q 241 131 227 135 Q 214 136 198 139 Q 185 143 185 137 Q 219 104 238 82 Q 247 69 258 65 Q 265 62 270 69 Q 300 105 298 141 Q 280 402 299 434 Q 306 447 299 454 Q 284 467 258 478 Q 246 482 236 478 Q 206 460 170 451 C 141 443 143 419 172 428 Z" fill="lightgray" class="stroke step5"/>
    <path d="M 166 328 Q 194 335 216 338 Q 235 345 226 354 Q 216 364 194 364 Q 181 364 167 358 C 139 347 137 321 166 328 Z" fill="lightgray" class="stroke step5"/>
    <path d="M 162 228 Q 198 238 227 243 Q 246 247 238 258 Q 228 268 206 270 Q 190 270 163 260 C 135 250 133 220 162 228 Z" fill="lightgray" class="hide"/>
    <path d="M 339 436 Q 354 385 344 298 Q 341 279 356 259 Q 362 252 368 259 Q 377 277 378 362 Q 378 396 381 419 Q 385 432 373 439 Q 363 445 354 450 Q 347 451 341 449 Q 337 445 339 436 Z" fill="lightgray" class="hide"/>
    <path d="M 435 446 Q 439 208 428 194 Q 425 193 374 202 Q 365 206 366 200 Q 366 194 373 187 Q 410 150 434 119 Q 443 112 453 124 Q 484 163 479 260 Q 473 359 480 462 Q 484 481 480 489 Q 473 499 445 514 Q 433 521 426 516 Q 417 509 427 494 Q 434 476 435 446 Z" fill="lightgray" class="hide"/>
    <path d="M 573 727 Q 564 736 541 745 Q 534 749 523 745 Q 517 741 522 730 Q 562 613 538 435 Q 511 386 560 336 C 571 323 572 325 579 354 Q 580 360 582 365 L 584 390 Q 585 417 582 481 L 582 506 Q 581 546 581 577 L 581 605 Q 580 686 582 694 Q 582 698 582 701 C 583 720 583 720 573 727 Z" fill="lightgray" class="hide"/>
    <path d="M 727 379 Q 740 358 753 338 Q 769 313 777 316 Q 787 317 799 344 Q 811 374 809 412 Q 799 679 821 721 Q 833 739 824 750 Q 817 760 765 777 Q 740 786 722 775 Q 641 739 573 727 C 544 721 553 694 582 701 Q 612 707 687 730 Q 729 743 743 730 Q 753 720 754 680 Q 758 515 751 425 Q 752 412 747 406 C 741 377 716 396 727 379 Z" fill="lightgray" class="hide"/>
    <path d="M 581 577 Q 581 578 585 578 Q 645 593 690 601 Q 709 607 702 617 Q 692 630 668 631 Q 632 634 581 605 C 555 590 552 570 581 577 Z" fill="lightgray" class="hide"/>
    <path d="M 582 481 Q 586 481 593 482 Q 653 495 697 504 Q 719 510 710 521 Q 698 534 674 536 Q 641 539 582 506 C 556 491 552 479 582 481 Z" fill="lightgray" class="hide"/>
    <path d="M 679 374 Q 701 378 727 379 C 757 380 774 392 747 406 Q 740 410 732 412 Q 713 416 584 390 C 555 384 552 363 582 365 Q 621 368 658 372 L 679 374 Z" fill="lightgray" class="hide"/>
    <path d="M 560 336 Q 563 335 565 331 Q 584 252 440 59 Q 422 43 424 34 Q 424 30 429 31 Q 492 47 596 245 Q 621 296 624 300 Q 628 310 621 321 Q 599 351 579 354 C 551 363 544 361 560 336 Z" fill="lightgray" class="hide"/>
    <path d="M 658 372 Q 654 368 659 354 Q 669 320 667 285 Q 652 65 692 26 Q 759 -29 899 -5 Q 906 -2 915 -1 Q 948 8 981 31 Q 999 44 987 68 Q 975 90 960 163 Q 959 178 953 182 Q 947 185 943 169 Q 919 91 903 68 Q 893 56 864 48 Q 798 33 741 56 Q 719 66 713 81 Q 686 138 718 329 Q 724 357 679 374 C 657 385 657 385 658 372 Z" fill="lightgray" class="hide"/></g><g transform="scale(1, -1) translate(0, -900)">
    <style type="text/css">
        .origin {display:none;}
        .hide {display:none;}
        .stroke {fill: #000000;}
        
.step1 {transform: translateX(1024px);}
.step2 {transform: translateX(2048px);}
.step3 {transform: translateX(3072px);}
.step4 {transform: translateX(4096px);}
.step5 {transform: translateX(5120px);}
.step6 {transform: translateX(6144px);}
.step7 {transform: translateX(7168px);}
.step8 {transform: translateX(8192px);}
.step9 {transform: translateX(9216px);}
.step10 {transform: translateX(10240px);}
.step11 {transform: translateX(11264px);}
.step12 {transform: translateX(12288px);}
.step13 {transform: translateX(13312px);}
.step14 {transform: translateX(14336px);}
.step15 {transform: translateX(15360px);}
.step16 {transform: translateX(16384px);}
.step17 {transform: translateX(17408px);}
.step18 {transform: translateX(18432px);}
.step19 {transform: translateX(19456px);}
.step20 {transform: translateX(20480px);}
.step21 {transform: translateX(21504px);}
.step22 {transform: translateX(22528px);}
.step23 {transform: translateX(23552px);}
.step24 {transform: translateX(24576px);}
.step25 {transform: translateX(25600px);}
.step26 {transform: translateX(26624px);}
.step27 {transform: translateX(27648px);}
.step28 {transform: translateX(28672px);}
.step29 {transform: translateX(29696px);}
    </style>

    <path d="M 133 471 Q 263 604 337 725 L 350 743 Q 363 764 378 775 Q 388 785 384 798 Q 380 810 355 832 Q 330 850 313 851 Q 295 850 302 829 Q 315 798 301 772 Q 228 618 71 448 Q 61 439 59 434 Q 55 424 69 425 Q 75 425 116 456 L 133 471 Z" fill="lightgray" class="stroke step6"/>
    <path d="M 337 725 Q 338 724 341 722 Q 383 695 434 656 Q 449 643 461 641 Q 468 642 472 650 Q 479 662 464 693 Q 451 721 395 735 Q 367 741 350 743 C 320 747 313 743 337 725 Z" fill="lightgray" class="stroke step6"/>
    <path d="M 260 565 Q 229 556 253 544 Q 292 529 347 547 Q 377 556 410 564 Q 426 568 429 572 Q 436 579 432 586 Q 425 596 399 599 Q 378 602 309 575 Q 287 569 260 565 Z" fill="lightgray" class="stroke step6"/>
    <path d="M 163 260 Q 164 299 166 328 L 167 358 Q 168 409 172 428 C 175 445 175 445 170 451 Q 161 467 133 471 C 107 476 107 476 116 456 Q 159 365 114 191 Q 87 131 115 99 Q 121 89 129 93 Q 160 117 162 228 L 163 260 Z" fill="lightgray" class="stroke step6"/>
    <path d="M 172 428 L 229 445 Q 239 449 246 443 Q 252 437 252 417 Q 258 258 251 162 Q 250 143 244 135 Q 241 131 227 135 Q 214 136 198 139 Q 185 143 185 137 Q 219 104 238 82 Q 247 69 258 65 Q 265 62 270 69 Q 300 105 298 141 Q 280 402 299 434 Q 306 447 299 454 Q 284 467 258 478 Q 246 482 236 478 Q 206 460 170 451 C 141 443 143 419 172 428 Z" fill="lightgray" class="stroke step6"/>
    <path d="M 166 328 Q 194 335 216 338 Q 235 345 226 354 Q 216 364 194 364 Q 181 364 167 358 C 139 347 137 321 166 328 Z" fill="lightgray" class="stroke step6"/>
    <path d="M 162 228 Q 198 238 227 243 Q 246 247 238 258 Q 228 268 206 270 Q 190 270 163 260 C 135 250 133 220 162 228 Z" fill="lightgray" class="stroke step6"/>
    <path d="M 339 436 Q 354 385 344 298 Q 341 279 356 259 Q 362 252 368 259 Q 377 277 378 362 Q 378 396 381 419 Q 385 432 373 439 Q 363 445 354 450 Q 347 451 341 449 Q 337 445 339 436 Z" fill="lightgray" class="hide"/>
    <path d="M 435 446 Q 439 208 428 194 Q 425 193 374 202 Q 365 206 366 200 Q 366 194 373 187 Q 410 150 434 119 Q 443 112 453 124 Q 484 163 479 260 Q 473 359 480 462 Q 484 481 480 489 Q 473 499 445 514 Q 433 521 426 516 Q 417 509 427 494 Q 434 476 435 446 Z" fill="lightgray" class="hide"/>
    <path d="M 573 727 Q 564 736 541 745 Q 534 749 523 745 Q 517 741 522 730 Q 562 613 538 435 Q 511 386 560 336 C 571 323 572 325 579 354 Q 580 360 582 365 L 584 390 Q 585 417 582 481 L 582 506 Q 581 546 581 577 L 581 605 Q 580 686 582 694 Q 582 698 582 701 C 583 720 583 720 573 727 Z" fill="lightgray" class="hide"/>
    <path d="M 727 379 Q 740 358 753 338 Q 769 313 777 316 Q 787 317 799 344 Q 811 374 809 412 Q 799 679 821 721 Q 833 739 824 750 Q 817 760 765 777 Q 740 786 722 775 Q 641 739 573 727 C 544 721 553 694 582 701 Q 612 707 687 730 Q 729 743 743 730 Q 753 720 754 680 Q 758 515 751 425 Q 752 412 747 406 C 741 377 716 396 727 379 Z" fill="lightgray" class="hide"/>
    <path d="M 581 577 Q 581 578 585 578 Q 645 593 690 601 Q 709 607 702 617 Q 692 630 668 631 Q 632 634 581 605 C 555 590 552 570 581 577 Z" fill="lightgray" class="hide"/>
    <path d="M 582 481 Q 586 481 593 482 Q 653 495 697 504 Q 719 510 710 521 Q 698 534 674 536 Q 641 539 582 506 C 556 491 552 479 582 481 Z" fill="lightgray" class="hide"/>
    <path d="M 679 374 Q 701 378 727 379 C 757 380 774 392 747 406 Q 740 410 732 412 Q 713 416 584 390 C 555 384 552 363 582 365 Q 621 368 658 372 L 679 374 Z" fill="lightgray" class="hide"/>
    <path d="M 560 336 Q 563 335 565 331 Q 584 252 440 59 Q 422 43 424 34 Q 424 30 429 31 Q 492 47 596 245 Q 621 296 624 300 Q 628 310 621 321 Q 599 351 579 354 C 551 363 544 361 560 336 Z" fill="lightgray" class="hide"/>
    <path d="M 658 372 Q 654 368 659 354 Q 669 320 667 285 Q 652 65 692 26 Q 759 -29 899 -5 Q 906 -2 915 -1 Q 948 8 981 31 Q 999 44 987 68 Q 975 90 960 163 Q 959 178 953 182 Q 947 185 943 169 Q 919 91 903 68 Q 893 56 864 48 Q 798 33 741 56 Q 719 66 713 81 Q 686 138 718 329 Q 724 357 679 374 C 657 385 657 385 658 372 Z" fill="lightgray" class="hide"/></g><g transform="scale(1, -1) translate(0, -900)">
    <style type="text/css">
        .origin {display:none;}
        .hide {display:none;}
        .stroke {fill: #000000;}
        
.step1 {transform: translateX(1024px);}
.step2 {transform: translateX(2048px);}
.step3 {transform: translateX(3072px);}
.step4 {transform: translateX(4096px);}
.step5 {transform: translateX(5120px);}
.step6 {transform: translateX(6144px);}
.step7 {transform: translateX(7168px);}
.step8 {transform: translateX(8192px);}
.step9 {transform: translateX(9216px);}
.step10 {transform: translateX(10240px);}
.step11 {transform: translateX(11264px);}
.step12 {transform: translateX(12288px);}
.step13 {transform: translateX(13312px);}
.step14 {transform: translateX(14336px);}
.step15 {transform: translateX(15360px);}
.step16 {transform: translateX(16384px);}
.step17 {transform: translateX(17408px);}
.step18 {transform: translateX(18432px);}
.step19 {transform: translateX(19456px);}
.step20 {transform: translateX(20480px);}
.step21 {transform: translateX(21504px);}
.step22 {transform: translateX(22528px);}
.step23 {transform: translateX(23552px);}
.step24 {transform: translateX(24576px);}
.step25 {transform: translateX(25600px);}
.step26 {transform: translateX(26624px);}
.step27 {transform: translateX(27648px);}
.step28 {transform: translateX(28672px);}
.step29 {transform: translateX(29696px);}
    </style>

    <path d="M 133 471 Q 263 604 337 725 L 350 743 Q 363 764 378 775 Q 388 785 384 798 Q 380 810 355 832 Q 330 850 313 851 Q 295 850 302 829 Q 315 798 301 772 Q 228 618 71 448 Q 61 439 59 434 Q 55 424 69 425 Q 75 425 116 456 L 133 471 Z" fill="lightgray" class="stroke step7"/>
    <path d="M 337 725 Q 338 724 341 722 Q 383 695 434 656 Q 449 643 461 641 Q 468 642 472 650 Q 479 662 464 693 Q 451 721 395 735 Q 367 741 350 743 C 320 747 313 743 337 725 Z" fill="lightgray" class="stroke step7"/>
    <path d="M 260 565 Q 229 556 253 544 Q 292 529 347 547 Q 377 556 410 564 Q 426 568 429 572 Q 436 579 432 586 Q 425 596 399 599 Q 378 602 309 575 Q 287 569 260 565 Z" fill="lightgray" class="stroke step7"/>
    <path d="M 163 260 Q 164 299 166 328 L 167 358 Q 168 409 172 428 C 175 445 175 445 170 451 Q 161 467 133 471 C 107 476 107 476 116 456 Q 159 365 114 191 Q 87 131 115 99 Q 121 89 129 93 Q 160 117 162 228 L 163 260 Z" fill="lightgray" class="stroke step7"/>
    <path d="M 172 428 L 229 445 Q 239 449 246 443 Q 252 437 252 417 Q 258 258 251 162 Q 250 143 244 135 Q 241 131 227 135 Q 214 136 198 139 Q 185 143 185 137 Q 219 104 238 82 Q 247 69 258 65 Q 265 62 270 69 Q 300 105 298 141 Q 280 402 299 434 Q 306 447 299 454 Q 284 467 258 478 Q 246 482 236 478 Q 206 460 170 451 C 141 443 143 419 172 428 Z" fill="lightgray" class="stroke step7"/>
    <path d="M 166 328 Q 194 335 216 338 Q 235 345 226 354 Q 216 364 194 364 Q 181 364 167 358 C 139 347 137 321 166 328 Z" fill="lightgray" class="stroke step7"/>
    <path d="M 162 228 Q 198 238 227 243 Q 246 247 238 258 Q 228 268 206 270 Q 190 270 163 260 C 135 250 133 220 162 228 Z" fill="lightgray" class="stroke step7"/>
    <path d="M 339 436 Q 354 385 344 298 Q 341 279 356 259 Q 362 252 368 259 Q 377 277 378 362 Q 378 396 381 419 Q 385 432 373 439 Q 363 445 354 450 Q 347 451 341 449 Q 337 445 339 436 Z" fill="lightgray" class="stroke step7"/>
    <path d="M 435 446 Q 439 208 428 194 Q 425 193 374 202 Q 365 206 366 200 Q 366 194 373 187 Q 410 150 434 119 Q 443 112 453 124 Q 484 163 479 260 Q 473 359 480 462 Q 484 481 480 489 Q 473 499 445 514 Q 433 521 426 516 Q 417 509 427 494 Q 434 476 435 446 Z" fill="lightgray" class="hide"/>
    <path d="M 573 727 Q 564 736 541 745 Q 534 749 523 745 Q 517 741 522 730 Q 562 613 538 435 Q 511 386 560 336 C 571 323 572 325 579 354 Q 580 360 582 365 L 584 390 Q 585 417 582 481 L 582 506 Q 581 546 581 577 L 581 605 Q 580 686 582 694 Q 582 698 582 701 C 583 720 583 720 573 727 Z" fill="lightgray" class="hide"/>
    <path d="M 727 379 Q 740 358 753 338 Q 769 313 777 316 Q 787 317 799 344 Q 811 374 809 412 Q 799 679 821 721 Q 833 739 824 750 Q 817 760 765 777 Q 740 786 722 775 Q 641 739 573 727 C 544 721 553 694 582 701 Q 612 707 687 730 Q 729 743 743 730 Q 753 720 754 680 Q 758 515 751 425 Q 752 412 747 406 C 741 377 716 396 727 379 Z" fill="lightgray" class="hide"/>
    <path d="M 581 577 Q 581 578 585 578 Q 645 593 690 601 Q 709 607 702 617 Q 692 630 668 631 Q 632 634 581 605 C 555 590 552 570 581 577 Z" fill="lightgray" class="hide"/>
    <path d="M 582 481 Q 586 481 593 482 Q 653 495 697 504 Q 719 510 710 521 Q 698 534 674 536 Q 641 539 582 506 C 556 491 552 479 582 481 Z" fill="lightgray" class="hide"/>
    <path d="M 679 374 Q 701 378 727 379 C 757 380 774 392 747 406 Q 740 410 732 412 Q 713 416 584 390 C 555 384 552 363 582 365 Q 621 368 658 372 L 679 374 Z" fill="lightgray" class="hide"/>
    <path d="M 560 336 Q 563 335 565 331 Q 584 252 440 59 Q 422 43 424 34 Q 424 30 429 31 Q 492 47 596 245 Q 621 296 624 300 Q 628 310 621 321 Q 599 351 579 354 C 551 363 544 361 560 336 Z" fill="lightgray" class="hide"/>
    <path d="M 658 372 Q 654 368 659 354 Q 669 320 667 285 Q 652 65 692 26 Q 759 -29 899 -5 Q 906 -2 915 -1 Q 948 8 981 31 Q 999 44 987 68 Q 975 90 960 163 Q 959 178 953 182 Q 947 185 943 169 Q 919 91 903 68 Q 893 56 864 48 Q 798 33 741 56 Q 719 66 713 81 Q 686 138 718 329 Q 724 357 679 374 C 657 385 657 385 658 372 Z" fill="lightgray" class="hide"/></g><g transform="scale(1, -1) translate(0, -900)">
    <style type="text/css">
        .origin {display:none;}
        .hide {display:none;}
        .stroke {fill: #000000;}
        
.step1 {transform: translateX(1024px);}
.step2 {transform: translateX(2048px);}
.step3 {transform: translateX(3072px);}
.step4 {transform: translateX(4096px);}
.step5 {transform: translateX(5120px);}
.step6 {transform: translateX(6144px);}
.step7 {transform: translateX(7168px);}
.step8 {transform: translateX(8192px);}
.step9 {transform: translateX(9216px);}
.step10 {transform: translateX(10240px);}
.step11 {transform: translateX(11264px);}
.step12 {transform: translateX(12288px);}
.step13 {transform: translateX(13312px);}
.step14 {transform: translateX(14336px);}
.step15 {transform: translateX(15360px);}
.step16 {transform: translateX(16384px);}
.step17 {transform: translateX(17408px);}
.step18 {transform: translateX(18432px);}
.step19 {transform: translateX(19456px);}
.step20 {transform: translateX(20480px);}
.step21 {transform: translateX(21504px);}
.step22 {transform: translateX(22528px);}
.step23 {transform: translateX(23552px);}
.step24 {transform: translateX(24576px);}
.step25 {transform: translateX(25600px);}
.step26 {transform: translateX(26624px);}
.step27 {transform: translateX(27648px);}
.step28 {transform: translateX(28672px);}
.step29 {transform: translateX(29696px);}
    </style>

    <path d="M 133 471 Q 263 604 337 725 L 350 743 Q 363 764 378 775 Q 388 785 384 798 Q 380 810 355 832 Q 330 850 313 851 Q 295 850 302 829 Q 315 798 301 772 Q 228 618 71 448 Q 61 439 59 434 Q 55 424 69 425 Q 75 425 116 456 L 133 471 Z" fill="lightgray" class="stroke step8"/>
    <path d="M 337 725 Q 338 724 341 722 Q 383 695 434 656 Q 449 643 461 641 Q 468 642 472 650 Q 479 662 464 693 Q 451 721 395 735 Q 367 741 350 743 C 320 747 313 743 337 725 Z" fill="lightgray" class="stroke step8"/>
    <path d="M 260 565 Q 229 556 253 544 Q 292 529 347 547 Q 377 556 410 564 Q 426 568 429 572 Q 436 579 432 586 Q 425 596 399 599 Q 378 602 309 575 Q 287 569 260 565 Z" fill="lightgray" class="stroke step8"/>
    <path d="M 163 260 Q 164 299 166 328 L 167 358 Q 168 409 172 428 C 175 445 175 445 170 451 Q 161 467 133 471 C 107 476 107 476 116 456 Q 159 365 114 191 Q 87 131 115 99 Q 121 89 129 93 Q 160 117 162 228 L 163 260 Z" fill="lightgray" class="stroke step8"/>
    <path d="M 172 428 L 229 445 Q 239 449 246 443 Q 252 437 252 417 Q 258 258 251 162 Q 250 143 244 135 Q 241 131 227 135 Q 214 136 198 139 Q 185 143 185 137 Q 219 104 238 82 Q 247 69 258 65 Q 265 62 270 69 Q 300 105 298 141 Q 280 402 299 434 Q 306 447 299 454 Q 284 467 258 478 Q 246 482 236 478 Q 206 460 170 451 C 141 443 143 419 172 428 Z" fill="lightgray" class="stroke step8"/>
    <path d="M 166 328 Q 194 335 216 338 Q 235 345 226 354 Q 216 364 194 364 Q 181 364 167 358 C 139 347 137 321 166 328 Z" fill="lightgray" class="stroke step8"/>
    <path d="M 162 228 Q 198 238 227 243 Q 246 247 238 258 Q 228 268 206 270 Q 190 270 163 260 C 135 250 133 220 162 228 Z" fill="lightgray" class="stroke step8"/>
    <path d="M 339 436 Q 354 385 344 298 Q 341 279 356 259 Q 362 252 368 259 Q 377 277 378 362 Q 378 396 381 419 Q 385 432 373 439 Q 363 445 354 450 Q 347 451 341 449 Q 337 445 339 436 Z" fill="lightgray" class="stroke step8"/>
    <path d="M 435 446 Q 439 208 428 194 Q 425 193 374 202 Q 365 206 366 200 Q 366 194 373 187 Q 410 150 434 119 Q 443 112 453 124 Q 484 163 479 260 Q 473 359 480 462 Q 484 481 480 489 Q 473 499 445 514 Q 433 521 426 516 Q 417 509 427 494 Q 434 476 435 446 Z" fill="lightgray" class="stroke step8"/>
    <path d="M 573 727 Q 564 736 541 745 Q 534 749 523 745 Q 517 741 522 730 Q 562 613 538 435 Q 511 386 560 336 C 571 323 572 325 579 354 Q 580 360 582 365 L 584 390 Q 585 417 582 481 L 582 506 Q 581 546 581 577 L 581 605 Q 580 686 582 694 Q 582 698 582 701 C 583 720 583 720 573 727 Z" fill="lightgray" class="hide"/>
    <path d="M 727 379 Q 740 358 753 338 Q 769 313 777 316 Q 787 317 799 344 Q 811 374 809 412 Q 799 679 821 721 Q 833 739 824 750 Q 817 760 765 777 Q 740 786 722 775 Q 641 739 573 727 C 544 721 553 694 582 701 Q 612 707 687 730 Q 729 743 743 730 Q 753 720 754 680 Q 758 515 751 425 Q 752 412 747 406 C 741 377 716 396 727 379 Z" fill="lightgray" class="hide"/>
    <path d="M 581 577 Q 581 578 585 578 Q 645 593 690 601 Q 709 607 702 617 Q 692 630 668 631 Q 632 634 581 605 C 555 590 552 570 581 577 Z" fill="lightgray" class="hide"/>
    <path d="M 582 481 Q 586 481 593 482 Q 653 495 697 504 Q 719 510 710 521 Q 698 534 674 536 Q 641 539 582 506 C 556 491 552 479 582 481 Z" fill="lightgray" class="hide"/>
    <path d="M 679 374 Q 701 378 727 379 C 757 380 774 392 747 406 Q 740 410 732 412 Q 713 416 584 390 C 555 384 552 363 582 365 Q 621 368 658 372 L 679 374 Z" fill="lightgray" class="hide"/>
    <path d="M 560 336 Q 563 335 565 331 Q 584 252 440 59 Q 422 43 424 34 Q 424 30 429 31 Q 492 47 596 245 Q 621 296 624 300 Q 628 310 621 321 Q 599 351 579 354 C 551 363 544 361 560 336 Z" fill="lightgray" class="hide"/>
    <path d="M 658 372 Q 654 368 659 354 Q 669 320 667 285 Q 652 65 692 26 Q 759 -29 899 -5 Q 906 -2 915 -1 Q 948 8 981 31 Q 999 44 987 68 Q 975 90 960 163 Q 959 178 953 182 Q 947 185 943 169 Q 919 91 903 68 Q 893 56 864 48 Q 798 33 741 56 Q 719 66 713 81 Q 686 138 718 329 Q 724 357 679 374 C 657 385 657 385 658 372 Z" fill="lightgray" class="hide"/></g><g transform="scale(1, -1) translate(0, -900)">
    <style type="text/css">
        .origin {display:none;}
        .hide {display:none;}
        .stroke {fill: #000000;}
        
.step1 {transform: translateX(1024px);}
.step2 {transform: translateX(2048px);}
.step3 {transform: translateX(3072px);}
.step4 {transform: translateX(4096px);}
.step5 {transform: translateX(5120px);}
.step6 {transform: translateX(6144px);}
.step7 {transform: translateX(7168px);}
.step8 {transform: translateX(8192px);}
.step9 {transform: translateX(9216px);}
.step10 {transform: translateX(10240px);}
.step11 {transform: translateX(11264px);}
.step12 {transform: translateX(12288px);}
.step13 {transform: translateX(13312px);}
.step14 {transform: translateX(14336px);}
.step15 {transform: translateX(15360px);}
.step16 {transform: translateX(16384px);}
.step17 {transform: translateX(17408px);}
.step18 {transform: translateX(18432px);}
.step19 {transform: translateX(19456px);}
.step20 {transform: translateX(20480px);}
.step21 {transform: translateX(21504px);}
.step22 {transform: translateX(22528px);}
.step23 {transform: translateX(23552px);}
.step24 {transform: translateX(24576px);}
.step25 {transform: translateX(25600px);}
.step26 {transform: translateX(26624px);}
.step27 {transform: translateX(27648px);}
.step28 {transform: translateX(28672px);}
.step29 {transform: translateX(29696px);}
    </style>

    <path d="M 133 471 Q 263 604 337 725 L 350 743 Q 363 764 378 775 Q 388 785 384 798 Q 380 810 355 832 Q 330 850 313 851 Q 295 850 302 829 Q 315 798 301 772 Q 228 618 71 448 Q 61 439 59 434 Q 55 424 69 425 Q 75 425 116 456 L 133 471 Z" fill="lightgray" class="stroke step9"/>
    <path d="M 337 725 Q 338 724 341 722 Q 383 695 434 656 Q 449 643 461 641 Q 468 642 472 650 Q 479 662 464 693 Q 451 721 395 735 Q 367 741 350 743 C 320 747 313 743 337 725 Z" fill="lightgray" class="stroke step9"/>
    <path d="M 260 565 Q 229 556 253 544 Q 292 529 347 547 Q 377 556 410 564 Q 426 568 429 572 Q 436 579 432 586 Q 425 596 399 599 Q 378 602 309 575 Q 287 569 260 565 Z" fill="lightgray" class="stroke step9"/>
    <path d="M 163 260 Q 164 299 166 328 L 167 358 Q 168 409 172 428 C 175 445 175 445 170 451 Q 161 467 133 471 C 107 476 107 476 116 456 Q 159 365 114 191 Q 87 131 115 99 Q 121 89 129 93 Q 160 117 162 228 L 163 260 Z" fill="lightgray" class="stroke step9"/>
    <path d="M 172 428 L 229 445 Q 239 449 246 443 Q 252 437 252 417 Q 258 258 251 162 Q 250 143 244 135 Q 241 131 227 135 Q 214 136 198 139 Q 185 143 185 137 Q 219 104 238 82 Q 247 69 258 65 Q 265 62 270 69 Q 300 105 298 141 Q 280 402 299 434 Q 306 447 299 454 Q 284 467 258 478 Q 246 482 236 478 Q 206 460 170 451 C 141 443 143 419 172 428 Z" fill="lightgray" class="stroke step9"/>
    <path d="M 166 328 Q 194 335 216 338 Q 235 345 226 354 Q 216 364 194 364 Q 181 364 167 358 C 139 347 137 321 166 328 Z" fill="lightgray" class="stroke step9"/>
    <path d="M 162 228 Q 198 238 227 243 Q 246 247 238 258 Q 228 268 206 270 Q 190 270 163 260 C 135 250 133 220 162 228 Z" fill="lightgray" class="stroke step9"/>
    <path d="M 339 436 Q 354 385 344 298 Q 341 279 356 259 Q 362 252 368 259 Q 377 277 378 362 Q 378 396 381 419 Q 385 432 373 439 Q 363 445 354 450 Q 347 451 341 449 Q 337 445 339 436 Z" fill="lightgray" class="stroke step9"/>
    <path d="M 435 446 Q 439 208 428 194 Q 425 193 374 202 Q 365 206 366 200 Q 366 194 373 187 Q 410 150 434 119 Q 443 112 453 124 Q 484 163 479 260 Q 473 359 480 462 Q 484 481 480 489 Q 473 499 445 514 Q 433 521 426 516 Q 417 509 427 494 Q 434 476 435 446 Z" fill="lightgray" class="stroke step9"/>
    <path d="M 573 727 Q 564 736 541 745 Q 534 749 523 745 Q 517 741 522 730 Q 562 613 538 435 Q 511 386 560 336 C 571 323 572 325 579 354 Q 580 360 582 365 L 584 390 Q 585 417 582 481 L 582 506 Q 581 546 581 577 L 581 605 Q 580 686 582 694 Q 582 698 582 701 C 583 720 583 720 573 727 Z" fill="lightgray" class="stroke step9"/>
    <path d="M 727 379 Q 740 358 753 338 Q 769 313 777 316 Q 787 317 799 344 Q 811 374 809 412 Q 799 679 821 721 Q 833 739 824 750 Q 817 760 765 777 Q 740 786 722 775 Q 641 739 573 727 C 544 721 553 694 582 701 Q 612 707 687 730 Q 729 743 743 730 Q 753 720 754 680 Q 758 515 751 425 Q 752 412 747 406 C 741 377 716 396 727 379 Z" fill="lightgray" class="hide"/>
    <path d="M 581 577 Q 581 578 585 578 Q 645 593 690 601 Q 709 607 702 617 Q 692 630 668 631 Q 632 634 581 605 C 555 590 552 570 581 577 Z" fill="lightgray" class="hide"/>
    <path d="M 582 481 Q 586 481 593 482 Q 653 495 697 504 Q 719 510 710 521 Q 698 534 674 536 Q 641 539 582 506 C 556 491 552 479 582 481 Z" fill="lightgray" class="hide"/>
    <path d="M 679 374 Q 701 378 727 379 C 757 380 774 392 747 406 Q 740 410 732 412 Q 713 416 584 390 C 555 384 552 363 582 365 Q 621 368 658 372 L 679 374 Z" fill="lightgray" class="hide"/>
    <path d="M 560 336 Q 563 335 565 331 Q 584 252 440 59 Q 422 43 424 34 Q 424 30 429 31 Q 492 47 596 245 Q 621 296 624 300 Q 628 310 621 321 Q 599 351 579 354 C 551 363 544 361 560 336 Z" fill="lightgray" class="hide"/>
    <path d="M 658 372 Q 654 368 659 354 Q 669 320 667 285 Q 652 65 692 26 Q 759 -29 899 -5 Q 906 -2 915 -1 Q 948 8 981 31 Q 999 44 987 68 Q 975 90 960 163 Q 959 178 953 182 Q 947 185 943 169 Q 919 91 903 68 Q 893 56 864 48 Q 798 33 741 56 Q 719 66 713 81 Q 686 138 718 329 Q 724 357 679 374 C 657 385 657 385 658 372 Z" fill="lightgray" class="hide"/></g><g transform="scale(1, -1) translate(0, -900)">
    <style type="text/css">
        .origin {display:none;}
        .hide {display:none;}
        .stroke {fill: #000000;}
        
.step1 {transform: translateX(1024px);}
.step2 {transform: translateX(2048px);}
.step3 {transform: translateX(3072px);}
.step4 {transform: translateX(4096px);}
.step5 {transform: translateX(5120px);}
.step6 {transform: translateX(6144px);}
.step7 {transform: translateX(7168px);}
.step8 {transform: translateX(8192px);}
.step9 {transform: translateX(9216px);}
.step10 {transform: translateX(10240px);}
.step11 {transform: translateX(11264px);}
.step12 {transform: translateX(12288px);}
.step13 {transform: translateX(13312px);}
.step14 {transform: translateX(14336px);}
.step15 {transform: translateX(15360px);}
.step16 {transform: translateX(16384px);}
.step17 {transform: translateX(17408px);}
.step18 {transform: translateX(18432px);}
.step19 {transform: translateX(19456px);}
.step20 {transform: translateX(20480px);}
.step21 {transform: translateX(21504px);}
.step22 {transform: translateX(22528px);}
.step23 {transform: translateX(23552px);}
.step24 {transform: translateX(24576px);}
.step25 {transform: translateX(25600px);}
.step26 {transform: translateX(26624px);}
.step27 {transform: translateX(27648px);}
.step28 {transform: translateX(28672px);}
.step29 {transform: translateX(29696px);}
    </style>

    <path d="M 133 471 Q 263 604 337 725 L 350 743 Q 363 764 378 775 Q 388 785 384 798 Q 380 810 355 832 Q 330 850 313 851 Q 295 850 302 829 Q 315 798 301 772 Q 228 618 71 448 Q 61 439 59 434 Q 55 424 69 425 Q 75 425 116 456 L 133 471 Z" fill="lightgray" class="stroke step10"/>
    <path d="M 337 725 Q 338 724 341 722 Q 383 695 434 656 Q 449 643 461 641 Q 468 642 472 650 Q 479 662 464 693 Q 451 721 395 735 Q 367 741 350 743 C 320 747 313 743 337 725 Z" fill="lightgray" class="stroke step10"/>
    <path d="M 260 565 Q 229 556 253 544 Q 292 529 347 547 Q 377 556 410 564 Q 426 568 429 572 Q 436 579 432 586 Q 425 596 399 599 Q 378 602 309 575 Q 287 569 260 565 Z" fill="lightgray" class="stroke step10"/>
    <path d="M 163 260 Q 164 299 166 328 L 167 358 Q 168 409 172 428 C 175 445 175 445 170 451 Q 161 467 133 471 C 107 476 107 476 116 456 Q 159 365 114 191 Q 87 131 115 99 Q 121 89 129 93 Q 160 117 162 228 L 163 260 Z" fill="lightgray" class="stroke step10"/>
    <path d="M 172 428 L 229 445 Q 239 449 246 443 Q 252 437 252 417 Q 258 258 251 162 Q 250 143 244 135 Q 241 131 227 135 Q 214 136 198 139 Q 185 143 185 137 Q 219 104 238 82 Q 247 69 258 65 Q 265 62 270 69 Q 300 105 298 141 Q 280 402 299 434 Q 306 447 299 454 Q 284 467 258 478 Q 246 482 236 478 Q 206 460 170 451 C 141 443 143 419 172 428 Z" fill="lightgray" class="stroke step10"/>
    <path d="M 166 328 Q 194 335 216 338 Q 235 345 226 354 Q 216 364 194 364 Q 181 364 167 358 C 139 347 137 321 166 328 Z" fill="lightgray" class="stroke step10"/>
    <path d="M 162 228 Q 198 238 227 243 Q 246 247 238 258 Q 228 268 206 270 Q 190 270 163 260 C 135 250 133 220 162 228 Z" fill="lightgray" class="stroke step10"/>
    <path d="M 339 436 Q 354 385 344 298 Q 341 279 356 259 Q 362 252 368 259 Q 377 277 378 362 Q 378 396 381 419 Q 385 432 373 439 Q 363 445 354 450 Q 347 451 341 449 Q 337 445 339 436 Z" fill="lightgray" class="stroke step10"/>
    <path d="M 435 446 Q 439 208 428 194 Q 425 193 374 202 Q 365 206 366 200 Q 366 194 373 187 Q 410 150 434 119 Q 443 112 453 124 Q 484 163 479 260 Q 473 359 480 462 Q 484 481 480 489 Q 473 499 445 514 Q 433 521 426 516 Q 417 509 427 494 Q 434 476 435 446 Z" fill="lightgray" class="stroke step10"/>
    <path d="M 573 727 Q 564 736 541 745 Q 534 749 523 745 Q 517 741 522 730 Q 562 613 538 435 Q 511 386 560 336 C 571 323 572 325 579 354 Q 580 360 582 365 L 584 390 Q 585 417 582 481 L 582 506 Q 581 546 581 577 L 581 605 Q 580 686 582 694 Q 582 698 582 701 C 583 720 583 720 573 727 Z" fill="lightgray" class="stroke step10"/>
    <path d="M 727 379 Q 740 358 753 338 Q 769 313 777 316 Q 787 317 799 344 Q 811 374 809 412 Q 799 679 821 721 Q 833 739 824 750 Q 817 760 765 777 Q 740 786 722 775 Q 641 739 573 727 C 544 721 553 694 582 701 Q 612 707 687 730 Q 729 743 743 730 Q 753 720 754 680 Q 758 515 751 425 Q 752 412 747 406 C 741 377 716 396 727 379 Z" fill="lightgray" class="stroke step10"/>
    <path d="M 581 577 Q 581 578 585 578 Q 645 593 690 601 Q 709 607 702 617 Q 692 630 668 631 Q 632 634 581 605 C 555 590 552 570 581 577 Z" fill="lightgray" class="hide"/>
    <path d="M 582 481 Q 586 481 593 482 Q 653 495 697 504 Q 719 510 710 521 Q 698 534 674 536 Q 641 539 582 506 C 556 491 552 479 582 481 Z" fill="lightgray" class="hide"/>
    <path d="M 679 374 Q 701 378 727 379 C 757 380 774 392 747 406 Q 740 410 732 412 Q 713 416 584 390 C 555 384 552 363 582 365 Q 621 368 658 372 L 679 374 Z" fill="lightgray" class="hide"/>
    <path d="M 560 336 Q 563 335 565 331 Q 584 252 440 59 Q 422 43 424 34 Q 424 30 429 31 Q 492 47 596 245 Q 621 296 624 300 Q 628 310 621 321 Q 599 351 579 354 C 551 363 544 361 560 336 Z" fill="lightgray" class="hide"/>
    <path d="M 658 372 Q 654 368 659 354 Q 669 320 667 285 Q 652 65 692 26 Q 759 -29 899 -5 Q 906 -2 915 -1 Q 948 8 981 31 Q 999 44 987 68 Q 975 90 960 163 Q 959 178 953 182 Q 947 185 943 169 Q 919 91 903 68 Q 893 56 864 48 Q 798 33 741 56 Q 719 66 713 81 Q 686 138 718 329 Q 724 357 679 374 C 657 385 657 385 658 372 Z" fill="lightgray" class="hide"/></g><g transform="scale(1, -1) translate(0, -900)">
    <style type="text/css">
        .origin {display:none;}
        .hide {display:none;}
        .stroke {fill: #000000;}
        
.step1 {transform: translateX(1024px);}
.step2 {transform: translateX(2048px);}
.step3 {transform: translateX(3072px);}
.step4 {transform: translateX(4096px);}
.step5 {transform: translateX(5120px);}
.step6 {transform: translateX(6144px);}
.step7 {transform: translateX(7168px);}
.step8 {transform: translateX(8192px);}
.step9 {transform: translateX(9216px);}
.step10 {transform: translateX(10240px);}
.step11 {transform: translateX(11264px);}
.step12 {transform: translateX(12288px);}
.step13 {transform: translateX(13312px);}
.step14 {transform: translateX(14336px);}
.step15 {transform: translateX(15360px);}
.step16 {transform: translateX(16384px);}
.step17 {transform: translateX(17408px);}
.step18 {transform: translateX(18432px);}
.step19 {transform: translateX(19456px);}
.step20 {transform: translateX(20480px);}
.step21 {transform: translateX(21504px);}
.step22 {transform: translateX(22528px);}
.step23 {transform: translateX(23552px);}
.step24 {transform: translateX(24576px);}
.step25 {transform: translateX(25600px);}
.step26 {transform: translateX(26624px);}
.step27 {transform: translateX(27648px);}
.step28 {transform: translateX(28672px);}
.step29 {transform: translateX(29696px);}
    </style>

    <path d="M 133 471 Q 263 604 337 725 L 350 743 Q 363 764 378 775 Q 388 785 384 798 Q 380 810 355 832 Q 330 850 313 851 Q 295 850 302 829 Q 315 798 301 772 Q 228 618 71 448 Q 61 439 59 434 Q 55 424 69 425 Q 75 425 116 456 L 133 471 Z" fill="lightgray" class="stroke step11"/>
    <path d="M 337 725 Q 338 724 341 722 Q 383 695 434 656 Q 449 643 461 641 Q 468 642 472 650 Q 479 662 464 693 Q 451 721 395 735 Q 367 741 350 743 C 320 747 313 743 337 725 Z" fill="lightgray" class="stroke step11"/>
    <path d="M 260 565 Q 229 556 253 544 Q 292 529 347 547 Q 377 556 410 564 Q 426 568 429 572 Q 436 579 432 586 Q 425 596 399 599 Q 378 602 309 575 Q 287 569 260 565 Z" fill="lightgray" class="stroke step11"/>
    <path d="M 163 260 Q 164 299 166 328 L 167 358 Q 168 409 172 428 C 175 445 175 445 170 451 Q 161 467 133 471 C 107 476 107 476 116 456 Q 159 365 114 191 Q 87 131 115 99 Q 121 89 129 93 Q 160 117 162 228 L 163 260 Z" fill="lightgray" class="stroke step11"/>
    <path d="M 172 428 L 229 445 Q 239 449 246 443 Q 252 437 252 417 Q 258 258 251 162 Q 250 143 244 135 Q 241 131 227 135 Q 214 136 198 139 Q 185 143 185 137 Q 219 104 238 82 Q 247 69 258 65 Q 265 62 270 69 Q 300 105 298 141 Q 280 402 299 434 Q 306 447 299 454 Q 284 467 258 478 Q 246 482 236 478 Q 206 460 170 451 C 141 443 143 419 172 428 Z" fill="lightgray" class="stroke step11"/>
    <path d="M 166 328 Q 194 335 216 338 Q 235 345 226 354 Q 216 364 194 364 Q 181 364 167 358 C 139 347 137 321 166 328 Z" fill="lightgray" class="stroke step11"/>
    <path d="M 162 228 Q 198 238 227 243 Q 246 247 238 258 Q 228 268 206 270 Q 190 270 163 260 C 135 250 133 220 162 228 Z" fill="lightgray" class="stroke step11"/>
    <path d="M 339 436 Q 354 385 344 298 Q 341 279 356 259 Q 362 252 368 259 Q 377 277 378 362 Q 378 396 381 419 Q 385 432 373 439 Q 363 445 354 450 Q 347 451 341 449 Q 337 445 339 436 Z" fill="lightgray" class="stroke step11"/>
    <path d="M 435 446 Q 439 208 428 194 Q 425 193 374 202 Q 365 206 366 200 Q 366 194 373 187 Q 410 150 434 119 Q 443 112 453 124 Q 484 163 479 260 Q 473 359 480 462 Q 484 481 480 489 Q 473 499 445 514 Q 433 521 426 516 Q 417 509 427 494 Q 434 476 435 446 Z" fill="lightgray" class="stroke step11"/>
    <path d="M 573 727 Q 564 736 541 745 Q 534 749 523 745 Q 517 741 522 730 Q 562 613 538 435 Q 511 386 560 336 C 571 323 572 325 579 354 Q 580 360 582 365 L 584 390 Q 585 417 582 481 L 582 506 Q 581 546 581 577 L 581 605 Q 580 686 582 694 Q 582 698 582 701 C 583 720 583 720 573 727 Z" fill="lightgray" class="stroke step11"/>
    <path d="M 727 379 Q 740 358 753 338 Q 769 313 777 316 Q 787 317 799 344 Q 811 374 809 412 Q 799 679 821 721 Q 833 739 824 750 Q 817 760 765 777 Q 740 786 722 775 Q 641 739 573 727 C 544 721 553 694 582 701 Q 612 707 687 730 Q 729 743 743 730 Q 753 720 754 680 Q 758 515 751 425 Q 752 412 747 406 C 741 377 716 396 727 379 Z" fill="lightgray" class="stroke step11"/>
    <path d="M 581 577 Q 581 578 585 578 Q 645 593 690 601 Q 709 607 702 617 Q 692 630 668 631 Q 632 634 581 605 C 555 590 552 570 581 577 Z" fill="lightgray" class="stroke step11"/>
    <path d="M 582 481 Q 586 481 593 482 Q 653 495 697 504 Q 719 510 710 521 Q 698 534 674 536 Q 641 539 582 506 C 556 491 552 479 582 481 Z" fill="lightgray" class="hide"/>
    <path d="M 679 374 Q 701 378 727 379 C 757 380 774 392 747 406 Q 740 410 732 412 Q 713 416 584 390 C 555 384 552 363 582 365 Q 621 368 658 372 L 679 374 Z" fill="lightgray" class="hide"/>
    <path d="M 560 336 Q 563 335 565 331 Q 584 252 440 59 Q 422 43 424 34 Q 424 30 429 31 Q 492 47 596 245 Q 621 296 624 300 Q 628 310 621 321 Q 599 351 579 354 C 551 363 544 361 560 336 Z" fill="lightgray" class="hide"/>
    <path d="M 658 372 Q 654 368 659 354 Q 669 320 667 285 Q 652 65 692 26 Q 759 -29 899 -5 Q 906 -2 915 -1 Q 948 8 981 31 Q 999 44 987 68 Q 975 90 960 163 Q 959 178 953 182 Q 947 185 943 169 Q 919 91 903 68 Q 893 56 864 48 Q 798 33 741 56 Q 719 66 713 81 Q 686 138 718 329 Q 724 357 679 374 C 657 385 657 385 658 372 Z" fill="lightgray" class="hide"/></g><g transform="scale(1, -1) translate(0, -900)">
    <style type="text/css">
        .origin {display:none;}
        .hide {display:none;}
        .stroke {fill: #000000;}
        
.step1 {transform: translateX(1024px);}
.step2 {transform: translateX(2048px);}
.step3 {transform: translateX(3072px);}
.step4 {transform: translateX(4096px);}
.step5 {transform: translateX(5120px);}
.step6 {transform: translateX(6144px);}
.step7 {transform: translateX(7168px);}
.step8 {transform: translateX(8192px);}
.step9 {transform: translateX(9216px);}
.step10 {transform: translateX(10240px);}
.step11 {transform: translateX(11264px);}
.step12 {transform: translateX(12288px);}
.step13 {transform: translateX(13312px);}
.step14 {transform: translateX(14336px);}
.step15 {transform: translateX(15360px);}
.step16 {transform: translateX(16384px);}
.step17 {transform: translateX(17408px);}
.step18 {transform: translateX(18432px);}
.step19 {transform: translateX(19456px);}
.step20 {transform: translateX(20480px);}
.step21 {transform: translateX(21504px);}
.step22 {transform: translateX(22528px);}
.step23 {transform: translateX(23552px);}
.step24 {transform: translateX(24576px);}
.step25 {transform: translateX(25600px);}
.step26 {transform: translateX(26624px);}
.step27 {transform: translateX(27648px);}
.step28 {transform: translateX(28672px);}
.step29 {transform: translateX(29696px);}
    </style>

    <path d="M 133 471 Q 263 604 337 725 L 350 743 Q 363 764 378 775 Q 388 785 384 798 Q 380 810 355 832 Q 330 850 313 851 Q 295 850 302 829 Q 315 798 301 772 Q 228 618 71 448 Q 61 439 59 434 Q 55 424 69 425 Q 75 425 116 456 L 133 471 Z" fill="lightgray" class="stroke step12"/>
    <path d="M 337 725 Q 338 724 341 722 Q 383 695 434 656 Q 449 643 461 641 Q 468 642 472 650 Q 479 662 464 693 Q 451 721 395 735 Q 367 741 350 743 C 320 747 313 743 337 725 Z" fill="lightgray" class="stroke step12"/>
    <path d="M 260 565 Q 229 556 253 544 Q 292 529 347 547 Q 377 556 410 564 Q 426 568 429 572 Q 436 579 432 586 Q 425 596 399 599 Q 378 602 309 575 Q 287 569 260 565 Z" fill="lightgray" class="stroke step12"/>
    <path d="M 163 260 Q 164 299 166 328 L 167 358 Q 168 409 172 428 C 175 445 175 445 170 451 Q 161 467 133 471 C 107 476 107 476 116 456 Q 159 365 114 191 Q 87 131 115 99 Q 121 89 129 93 Q 160 117 162 228 L 163 260 Z" fill="lightgray" class="stroke step12"/>
    <path d="M 172 428 L 229 445 Q 239 449 246 443 Q 252 437 252 417 Q 258 258 251 162 Q 250 143 244 135 Q 241 131 227 135 Q 214 136 198 139 Q 185 143 185 137 Q 219 104 238 82 Q 247 69 258 65 Q 265 62 270 69 Q 300 105 298 141 Q 280 402 299 434 Q 306 447 299 454 Q 284 467 258 478 Q 246 482 236 478 Q 206 460 170 451 C 141 443 143 419 172 428 Z" fill="lightgray" class="stroke step12"/>
    <path d="M 166 328 Q 194 335 216 338 Q 235 345 226 354 Q 216 364 194 364 Q 181 364 167 358 C 139 347 137 321 166 328 Z" fill="lightgray" class="stroke step12"/>
    <path d="M 162 228 Q 198 238 227 243 Q 246 247 238 258 Q 228 268 206 270 Q 190 270 163 260 C 135 250 133 220 162 228 Z" fill="lightgray" class="stroke step12"/>
    <path d="M 339 436 Q 354 385 344 298 Q 341 279 356 259 Q 362 252 368 259 Q 377 277 378 362 Q 378 396 381 419 Q 385 432 373 439 Q 363 445 354 450 Q 347 451 341 449 Q 337 445 339 436 Z" fill="lightgray" class="stroke step12"/>
    <path d="M 435 446 Q 439 208 428 194 Q 425 193 374 202 Q 365 206 366 200 Q 366 194 373 187 Q 410 150 434 119 Q 443 112 453 124 Q 484 163 479 260 Q 473 359 480 462 Q 484 481 480 489 Q 473 499 445 514 Q 433 521 426 516 Q 417 509 427 494 Q 434 476 435 446 Z" fill="lightgray" class="stroke step12"/>
    <path d="M 573 727 Q 564 736 541 745 Q 534 749 523 745 Q 517 741 522 730 Q 562 613 538 435 Q 511 386 560 336 C 571 323 572 325 579 354 Q 580 360 582 365 L 584 390 Q 585 417 582 481 L 582 506 Q 581 546 581 577 L 581 605 Q 580 686 582 694 Q 582 698 582 701 C 583 720 583 720 573 727 Z" fill="lightgray" class="stroke step12"/>
    <path d="M 727 379 Q 740 358 753 338 Q 769 313 777 316 Q 787 317 799 344 Q 811 374 809 412 Q 799 679 821 721 Q 833 739 824 750 Q 817 760 765 777 Q 740 786 722 775 Q 641 739 573 727 C 544 721 553 694 582 701 Q 612 707 687 730 Q 729 743 743 730 Q 753 720 754 680 Q 758 515 751 425 Q 752 412 747 406 C 741 377 716 396 727 379 Z" fill="lightgray" class="stroke step12"/>
    <path d="M 581 577 Q 581 578 585 578 Q 645 593 690 601 Q 709 607 702 617 Q 692 630 668 631 Q 632 634 581 605 C 555 590 552 570 581 577 Z" fill="lightgray" class="stroke step12"/>
    <path d="M 582 481 Q 586 481 593 482 Q 653 495 697 504 Q 719 510 710 521 Q 698 534 674 536 Q 641 539 582 506 C 556 491 552 479 582 481 Z" fill="lightgray" class="stroke step12"/>
    <path d="M 679 374 Q 701 378 727 379 C 757 380 774 392 747 406 Q 740 410 732 412 Q 713 416 584 390 C 555 384 552 363 582 365 Q 621 368 658 372 L 679 374 Z" fill="lightgray" class="hide"/>
    <path d="M 560 336 Q 563 335 565 331 Q 584 252 440 59 Q 422 43 424 34 Q 424 30 429 31 Q 492 47 596 245 Q 621 296 624 300 Q 628 310 621 321 Q 599 351 579 354 C 551 363 544 361 560 336 Z" fill="lightgray" class="hide"/>
    <path d="M 658 372 Q 654 368 659 354 Q 669 320 667 285 Q 652 65 692 26 Q 759 -29 899 -5 Q 906 -2 915 -1 Q 948 8 981 31 Q 999 44 987 68 Q 975 90 960 163 Q 959 178 953 182 Q 947 185 943 169 Q 919 91 903 68 Q 893 56 864 48 Q 798 33 741 56 Q 719 66 713 81 Q 686 138 718 329 Q 724 357 679 374 C 657 385 657 385 658 372 Z" fill="lightgray" class="hide"/></g><g transform="scale(1, -1) translate(0, -900)">
    <style type="text/css">
        .origin {display:none;}
        .hide {display:none;}
        .stroke {fill: #000000;}
        
.step1 {transform: translateX(1024px);}
.step2 {transform: translateX(2048px);}
.step3 {transform: translateX(3072px);}
.step4 {transform: translateX(4096px);}
.step5 {transform: translateX(5120px);}
.step6 {transform: translateX(6144px);}
.step7 {transform: translateX(7168px);}
.step8 {transform: translateX(8192px);}
.step9 {transform: translateX(9216px);}
.step10 {transform: translateX(10240px);}
.step11 {transform: translateX(11264px);}
.step12 {transform: translateX(12288px);}
.step13 {transform: translateX(13312px);}
.step14 {transform: translateX(14336px);}
.step15 {transform: translateX(15360px);}
.step16 {transform: translateX(16384px);}
.step17 {transform: translateX(17408px);}
.step18 {transform: translateX(18432px);}
.step19 {transform: translateX(19456px);}
.step20 {transform: translateX(20480px);}
.step21 {transform: translateX(21504px);}
.step22 {transform: translateX(22528px);}
.step23 {transform: translateX(23552px);}
.step24 {transform: translateX(24576px);}
.step25 {transform: translateX(25600px);}
.step26 {transform: translateX(26624px);}
.step27 {transform: translateX(27648px);}
.step28 {transform: translateX(28672px);}
.step29 {transform: translateX(29696px);}
    </style>

    <path d="M 133 471 Q 263 604 337 725 L 350 743 Q 363 764 378 775 Q 388 785 384 798 Q 380 810 355 832 Q 330 850 313 851 Q 295 850 302 829 Q 315 798 301 772 Q 228 618 71 448 Q 61 439 59 434 Q 55 424 69 425 Q 75 425 116 456 L 133 471 Z" fill="lightgray" class="stroke step13"/>
    <path d="M 337 725 Q 338 724 341 722 Q 383 695 434 656 Q 449 643 461 641 Q 468 642 472 650 Q 479 662 464 693 Q 451 721 395 735 Q 367 741 350 743 C 320 747 313 743 337 725 Z" fill="lightgray" class="stroke step13"/>
    <path d="M 260 565 Q 229 556 253 544 Q 292 529 347 547 Q 377 556 410 564 Q 426 568 429 572 Q 436 579 432 586 Q 425 596 399 599 Q 378 602 309 575 Q 287 569 260 565 Z" fill="lightgray" class="stroke step13"/>
    <path d="M 163 260 Q 164 299 166 328 L 167 358 Q 168 409 172 428 C 175 445 175 445 170 451 Q 161 467 133 471 C 107 476 107 476 116 456 Q 159 365 114 191 Q 87 131 115 99 Q 121 89 129 93 Q 160 117 162 228 L 163 260 Z" fill="lightgray" class="stroke step13"/>
    <path d="M 172 428 L 229 445 Q 239 449 246 443 Q 252 437 252 417 Q 258 258 251 162 Q 250 143 244 135 Q 241 131 227 135 Q 214 136 198 139 Q 185 143 185 137 Q 219 104 238 82 Q 247 69 258 65 Q 265 62 270 69 Q 300 105 298 141 Q 280 402 299 434 Q 306 447 299 454 Q 284 467 258 478 Q 246 482 236 478 Q 206 460 170 451 C 141 443 143 419 172 428 Z" fill="lightgray" class="stroke step13"/>
    <path d="M 166 328 Q 194 335 216 338 Q 235 345 226 354 Q 216 364 194 364 Q 181 364 167 358 C 139 347 137 321 166 328 Z" fill="lightgray" class="stroke step13"/>
    <path d="M 162 228 Q 198 238 227 243 Q 246 247 238 258 Q 228 268 206 270 Q 190 270 163 260 C 135 250 133 220 162 228 Z" fill="lightgray" class="stroke step13"/>
    <path d="M 339 436 Q 354 385 344 298 Q 341 279 356 259 Q 362 252 368 259 Q 377 277 378 362 Q 378 396 381 419 Q 385 432 373 439 Q 363 445 354 450 Q 347 451 341 449 Q 337 445 339 436 Z" fill="lightgray" class="stroke step13"/>
    <path d="M 435 446 Q 439 208 428 194 Q 425 193 374 202 Q 365 206 366 200 Q 366 194 373 187 Q 410 150 434 119 Q 443 112 453 124 Q 484 163 479 260 Q 473 359 480 462 Q 484 481 480 489 Q 473 499 445 514 Q 433 521 426 516 Q 417 509 427 494 Q 434 476 435 446 Z" fill="lightgray" class="stroke step13"/>
    <path d="M 573 727 Q 564 736 541 745 Q 534 749 523 745 Q 517 741 522 730 Q 562 613 538 435 Q 511 386 560 336 C 571 323 572 325 579 354 Q 580 360 582 365 L 584 390 Q 585 417 582 481 L 582 506 Q 581 546 581 577 L 581 605 Q 580 686 582 694 Q 582 698 582 701 C 583 720 583 720 573 727 Z" fill="lightgray" class="stroke step13"/>
    <path d="M 727 379 Q 740 358 753 338 Q 769 313 777 316 Q 787 317 799 344 Q 811 374 809 412 Q 799 679 821 721 Q 833 739 824 750 Q 817 760 765 777 Q 740 786 722 775 Q 641 739 573 727 C 544 721 553 694 582 701 Q 612 707 687 730 Q 729 743 743 730 Q 753 720 754 680 Q 758 515 751 425 Q 752 412 747 406 C 741 377 716 396 727 379 Z" fill="lightgray" class="stroke step13"/>
    <path d="M 581 577 Q 581 578 585 578 Q 645 593 690 601 Q 709 607 702 617 Q 692 630 668 631 Q 632 634 581 605 C 555 590 552 570 581 577 Z" fill="lightgray" class="stroke step13"/>
    <path d="M 582 481 Q 586 481 593 482 Q 653 495 697 504 Q 719 510 710 521 Q 698 534 674 536 Q 641 539 582 506 C 556 491 552 479 582 481 Z" fill="lightgray" class="stroke step13"/>
    <path d="M 679 374 Q 701 378 727 379 C 757 380 774 392 747 406 Q 740 410 732 412 Q 713 416 584 390 C 555 384 552 363 582 365 Q 621 368 658 372 L 679 374 Z" fill="lightgray" class="stroke step13"/>
    <path d="M 560 336 Q 563 335 565 331 Q 584 252 440 59 Q 422 43 424 34 Q 424 30 429 31 Q 492 47 596 245 Q 621 296 624 300 Q 628 310 621 321 Q 599 351 579 354 C 551 363 544 361 560 336 Z" fill="lightgray" class="hide"/>
    <path d="M 658 372 Q 654 368 659 354 Q 669 320 667 285 Q 652 65 692 26 Q 759 -29 899 -5 Q 906 -2 915 -1 Q 948 8 981 31 Q 999 44 987 68 Q 975 90 960 163 Q 959 178 953 182 Q 947 185 943 169 Q 919 91 903 68 Q 893 56 864 48 Q 798 33 741 56 Q 719 66 713 81 Q 686 138 718 329 Q 724 357 679 374 C 657 385 657 385 658 372 Z" fill="lightgray" class="hide"/></g><g transform="scale(1, -1) translate(0, -900)">
    <style type="text/css">
        .origin {display:none;}
        .hide {display:none;}
        .stroke {fill: #000000;}
        
.step1 {transform: translateX(1024px);}
.step2 {transform: translateX(2048px);}
.step3 {transform: translateX(3072px);}
.step4 {transform: translateX(4096px);}
.step5 {transform: translateX(5120px);}
.step6 {transform: translateX(6144px);}
.step7 {transform: translateX(7168px);}
.step8 {transform: translateX(8192px);}
.step9 {transform: translateX(9216px);}
.step10 {transform: translateX(10240px);}
.step11 {transform: translateX(11264px);}
.step12 {transform: translateX(12288px);}
.step13 {transform: translateX(13312px);}
.step14 {transform: translateX(14336px);}
.step15 {transform: translateX(15360px);}
.step16 {transform: translateX(16384px);}
.step17 {transform: translateX(17408px);}
.step18 {transform: translateX(18432px);}
.step19 {transform: translateX(19456px);}
.step20 {transform: translateX(20480px);}
.step21 {transform: translateX(21504px);}
.step22 {transform: translateX(22528px);}
.step23 {transform: translateX(23552px);}
.step24 {transform: translateX(24576px);}
.step25 {transform: translateX(25600px);}
.step26 {transform: translateX(26624px);}
.step27 {transform: translateX(27648px);}
.step28 {transform: translateX(28672px);}
.step29 {transform: translateX(29696px);}
    </style>

    <path d="M 133 471 Q 263 604 337 725 L 350 743 Q 363 764 378 775 Q 388 785 384 798 Q 380 810 355 832 Q 330 850 313 851 Q 295 850 302 829 Q 315 798 301 772 Q 228 618 71 448 Q 61 439 59 434 Q 55 424 69 425 Q 75 425 116 456 L 133 471 Z" fill="lightgray" class="stroke step14"/>
    <path d="M 337 725 Q 338 724 341 722 Q 383 695 434 656 Q 449 643 461 641 Q 468 642 472 650 Q 479 662 464 693 Q 451 721 395 735 Q 367 741 350 743 C 320 747 313 743 337 725 Z" fill="lightgray" class="stroke step14"/>
    <path d="M 260 565 Q 229 556 253 544 Q 292 529 347 547 Q 377 556 410 564 Q 426 568 429 572 Q 436 579 432 586 Q 425 596 399 599 Q 378 602 309 575 Q 287 569 260 565 Z" fill="lightgray" class="stroke step14"/>
    <path d="M 163 260 Q 164 299 166 328 L 167 358 Q 168 409 172 428 C 175 445 175 445 170 451 Q 161 467 133 471 C 107 476 107 476 116 456 Q 159 365 114 191 Q 87 131 115 99 Q 121 89 129 93 Q 160 117 162 228 L 163 260 Z" fill="lightgray" class="stroke step14"/>
    <path d="M 172 428 L 229 445 Q 239 449 246 443 Q 252 437 252 417 Q 258 258 251 162 Q 250 143 244 135 Q 241 131 227 135 Q 214 136 198 139 Q 185 143 185 137 Q 219 104 238 82 Q 247 69 258 65 Q 265 62 270 69 Q 300 105 298 141 Q 280 402 299 434 Q 306 447 299 454 Q 284 467 258 478 Q 246 482 236 478 Q 206 460 170 451 C 141 443 143 419 172 428 Z" fill="lightgray" class="stroke step14"/>
    <path d="M 166 328 Q 194 335 216 338 Q 235 345 226 354 Q 216 364 194 364 Q 181 364 167 358 C 139 347 137 321 166 328 Z" fill="lightgray" class="stroke step14"/>
    <path d="M 162 228 Q 198 238 227 243 Q 246 247 238 258 Q 228 268 206 270 Q 190 270 163 260 C 135 250 133 220 162 228 Z" fill="lightgray" class="stroke step14"/>
    <path d="M 339 436 Q 354 385 344 298 Q 341 279 356 259 Q 362 252 368 259 Q 377 277 378 362 Q 378 396 381 419 Q 385 432 373 439 Q 363 445 354 450 Q 347 451 341 449 Q 337 445 339 436 Z" fill="lightgray" class="stroke step14"/>
    <path d="M 435 446 Q 439 208 428 194 Q 425 193 374 202 Q 365 206 366 200 Q 366 194 373 187 Q 410 150 434 119 Q 443 112 453 124 Q 484 163 479 260 Q 473 359 480 462 Q 484 481 480 489 Q 473 499 445 514 Q 433 521 426 516 Q 417 509 427 494 Q 434 476 435 446 Z" fill="lightgray" class="stroke step14"/>
    <path d="M 573 727 Q 564 736 541 745 Q 534 749 523 745 Q 517 741 522 730 Q 562 613 538 435 Q 511 386 560 336 C 571 323 572 325 579 354 Q 580 360 582 365 L 584 390 Q 585 417 582 481 L 582 506 Q 581 546 581 577 L 581 605 Q 580 686 582 694 Q 582 698 582 701 C 583 720 583 720 573 727 Z" fill="lightgray" class="stroke step14"/>
    <path d="M 727 379 Q 740 358 753 338 Q 769 313 777 316 Q 787 317 799 344 Q 811 374 809 412 Q 799 679 821 721 Q 833 739 824 750 Q 817 760 765 777 Q 740 786 722 775 Q 641 739 573 727 C 544 721 553 694 582 701 Q 612 707 687 730 Q 729 743 743 730 Q 753 720 754 680 Q 758 515 751 425 Q 752 412 747 406 C 741 377 716 396 727 379 Z" fill="lightgray" class="stroke step14"/>
    <path d="M 581 577 Q 581 578 585 578 Q 645 593 690 601 Q 709 607 702 617 Q 692 630 668 631 Q 632 634 581 605 C 555 590 552 570 581 577 Z" fill="lightgray" class="stroke step14"/>
    <path d="M 582 481 Q 586 481 593 482 Q 653 495 697 504 Q 719 510 710 521 Q 698 534 674 536 Q 641 539 582 506 C 556 491 552 479 582 481 Z" fill="lightgray" class="stroke step14"/>
    <path d="M 679 374 Q 701 378 727 379 C 757 380 774 392 747 406 Q 740 410 732 412 Q 713 416 584 390 C 555 384 552 363 582 365 Q 621 368 658 372 L 679 374 Z" fill="lightgray" class="stroke step14"/>
    <path d="M 560 336 Q 563 335 565 331 Q 584 252 440 59 Q 422 43 424 34 Q 424 30 429 31 Q 492 47 596 245 Q 621 296 624 300 Q 628 310 621 321 Q 599 351 579 354 C 551 363 544 361 560 336 Z" fill="lightgray" class="stroke step14"/>
    <path d="M 658 372 Q 654 368 659 354 Q 669 320 667 285 Q 652 65 692 26 Q 759 -29 899 -5 Q 906 -2 915 -1 Q 948 8 981 31 Q 999 44 987 68 Q 975 90 960 163 Q 959 178 953 182 Q 947 185 943 169 Q 919 91 903 68 Q 893 56 864 48 Q 798 33 741 56 Q 719 66 713 81 Q 686 138 718 329 Q 724 357 679 374 C 657 385 657 385 658 372 Z" fill="lightgray" class="hide"/></g><g transform="scale(1, -1) translate(0, -900)">
    <style type="text/css">
        .origin {display:none;}
        .hide {display:none;}
        .stroke {fill: #000000;}
        
.step1 {transform: translateX(1024px);}
.step2 {transform: translateX(2048px);}
.step3 {transform: translateX(3072px);}
.step4 {transform: translateX(4096px);}
.step5 {transform: translateX(5120px);}
.step6 {transform: translateX(6144px);}
.step7 {transform: translateX(7168px);}
.step8 {transform: translateX(8192px);}
.step9 {transform: translateX(9216px);}
.step10 {transform: translateX(10240px);}
.step11 {transform: translateX(11264px);}
.step12 {transform: translateX(12288px);}
.step13 {transform: translateX(13312px);}
.step14 {transform: translateX(14336px);}
.step15 {transform: translateX(15360px);}
.step16 {transform: translateX(16384px);}
.step17 {transform: translateX(17408px);}
.step18 {transform: translateX(18432px);}
.step19 {transform: translateX(19456px);}
.step20 {transform: translateX(20480px);}
.step21 {transform: translateX(21504px);}
.step22 {transform: translateX(22528px);}
.step23 {transform: translateX(23552px);}
.step24 {transform: translateX(24576px);}
.step25 {transform: translateX(25600px);}
.step26 {transform: translateX(26624px);}
.step27 {transform: translateX(27648px);}
.step28 {transform: translateX(28672px);}
.step29 {transform: translateX(29696px);}
    </style>

    <path d="M 133 471 Q 263 604 337 725 L 350 743 Q 363 764 378 775 Q 388 785 384 798 Q 380 810 355 832 Q 330 850 313 851 Q 295 850 302 829 Q 315 798 301 772 Q 228 618 71 448 Q 61 439 59 434 Q 55 424 69 425 Q 75 425 116 456 L 133 471 Z" fill="lightgray" class="stroke step15"/>
    <path d="M 337 725 Q 338 724 341 722 Q 383 695 434 656 Q 449 643 461 641 Q 468 642 472 650 Q 479 662 464 693 Q 451 721 395 735 Q 367 741 350 743 C 320 747 313 743 337 725 Z" fill="lightgray" class="stroke step15"/>
    <path d="M 260 565 Q 229 556 253 544 Q 292 529 347 547 Q 377 556 410 564 Q 426 568 429 572 Q 436 579 432 586 Q 425 596 399 599 Q 378 602 309 575 Q 287 569 260 565 Z" fill="lightgray" class="stroke step15"/>
    <path d="M 163 260 Q 164 299 166 328 L 167 358 Q 168 409 172 428 C 175 445 175 445 170 451 Q 161 467 133 471 C 107 476 107 476 116 456 Q 159 365 114 191 Q 87 131 115 99 Q 121 89 129 93 Q 160 117 162 228 L 163 260 Z" fill="lightgray" class="stroke step15"/>
    <path d="M 172 428 L 229 445 Q 239 449 246 443 Q 252 437 252 417 Q 258 258 251 162 Q 250 143 244 135 Q 241 131 227 135 Q 214 136 198 139 Q 185 143 185 137 Q 219 104 238 82 Q 247 69 258 65 Q 265 62 270 69 Q 300 105 298 141 Q 280 402 299 434 Q 306 447 299 454 Q 284 467 258 478 Q 246 482 236 478 Q 206 460 170 451 C 141 443 143 419 172 428 Z" fill="lightgray" class="stroke step15"/>
    <path d="M 166 328 Q 194 335 216 338 Q 235 345 226 354 Q 216 364 194 364 Q 181 364 167 358 C 139 347 137 321 166 328 Z" fill="lightgray" class="stroke step15"/>
    <path d="M 162 228 Q 198 238 227 243 Q 246 247 238 258 Q 228 268 206 270 Q 190 270 163 260 C 135 250 133 220 162 228 Z" fill="lightgray" class="stroke step15"/>
    <path d="M 339 436 Q 354 385 344 298 Q 341 279 356 259 Q 362 252 368 259 Q 377 277 378 362 Q 378 396 381 419 Q 385 432 373 439 Q 363 445 354 450 Q 347 451 341 449 Q 337 445 339 436 Z" fill="lightgray" class="stroke step15"/>
    <path d="M 435 446 Q 439 208 428 194 Q 425 193 374 202 Q 365 206 366 200 Q 366 194 373 187 Q 410 150 434 119 Q 443 112 453 124 Q 484 163 479 260 Q 473 359 480 462 Q 484 481 480 489 Q 473 499 445 514 Q 433 521 426 516 Q 417 509 427 494 Q 434 476 435 446 Z" fill="lightgray" class="stroke step15"/>
    <path d="M 573 727 Q 564 736 541 745 Q 534 749 523 745 Q 517 741 522 730 Q 562 613 538 435 Q 511 386 560 336 C 571 323 572 325 579 354 Q 580 360 582 365 L 584 390 Q 585 417 582 481 L 582 506 Q 581 546 581 577 L 581 605 Q 580 686 582 694 Q 582 698 582 701 C 583 720 583 720 573 727 Z" fill="lightgray" class="stroke step15"/>
    <path d="M 727 379 Q 740 358 753 338 Q 769 313 777 316 Q 787 317 799 344 Q 811 374 809 412 Q 799 679 821 721 Q 833 739 824 750 Q 817 760 765 777 Q 740 786 722 775 Q 641 739 573 727 C 544 721 553 694 582 701 Q 612 707 687 730 Q 729 743 743 730 Q 753 720 754 680 Q 758 515 751 425 Q 752 412 747 406 C 741 377 716 396 727 379 Z" fill="lightgray" class="stroke step15"/>
    <path d="M 581 577 Q 581 578 585 578 Q 645 593 690 601 Q 709 607 702 617 Q 692 630 668 631 Q 632 634 581 605 C 555 590 552 570 581 577 Z" fill="lightgray" class="stroke step15"/>
    <path d="M 582 481 Q 586 481 593 482 Q 653 495 697 504 Q 719 510 710 521 Q 698 534 674 536 Q 641 539 582 506 C 556 491 552 479 582 481 Z" fill="lightgray" class="stroke step15"/>
    <path d="M 679 374 Q 701 378 727 379 C 757 380 774 392 747 406 Q 740 410 732 412 Q 713 416 584 390 C 555 384 552 363 582 365 Q 621 368 658 372 L 679 374 Z" fill="lightgray" class="stroke step15"/>
    <path d="M 560 336 Q 563 335 565 331 Q 584 252 440 59 Q 422 43 424 34 Q 424 30 429 31 Q 492 47 596 245 Q 621 296 624 300 Q 628 310 621 321 Q 599 351 579 354 C 551 363 544 361 560 336 Z" fill="lightgray" class="stroke step15"/>
    <path d="M 658 372 Q 654 368 659 354 Q 669 320 667 285 Q 652 65 692 26 Q 759 -29 899 -5 Q 906 -2 915 -1 Q 948 8 981 31 Q 999 44 987 68 Q 975 90 960 163 Q 959 178 953 182 Q 947 185 943 169 Q 919 91 903 68 Q 893 56 864 48 Q 798 33 741 56 Q 719 66 713 81 Q 686 138 718 329 Q 724 357 679 374 C 657 385 657 385 658 372 Z" fill="lightgray" class="stroke step15"/></g></svg>