<svg version="1.1" viewBox="0 0 11264 1024" xmlns="http://www.w3.org/2000/svg">
  
  <g transform="scale(1, -1) translate(0, -900)" class="origin">
    <style type="text/css">
        .origin {display:none;}
        .hide {display:none;}
        .stroke {fill: #000000;}
        
.step1 {transform: translateX(1024px);}
.step2 {transform: translateX(2048px);}
.step3 {transform: translateX(3072px);}
.step4 {transform: translateX(4096px);}
.step5 {transform: translateX(5120px);}
.step6 {transform: translateX(6144px);}
.step7 {transform: translateX(7168px);}
.step8 {transform: translateX(8192px);}
.step9 {transform: translateX(9216px);}
.step10 {transform: translateX(10240px);}
.step11 {transform: translateX(11264px);}
.step12 {transform: translateX(12288px);}
.step13 {transform: translateX(13312px);}
.step14 {transform: translateX(14336px);}
.step15 {transform: translateX(15360px);}
.step16 {transform: translateX(16384px);}
.step17 {transform: translateX(17408px);}
.step18 {transform: translateX(18432px);}
.step19 {transform: translateX(19456px);}
.step20 {transform: translateX(20480px);}
.step21 {transform: translateX(21504px);}
.step22 {transform: translateX(22528px);}
.step23 {transform: translateX(23552px);}
.step24 {transform: translateX(24576px);}
.step25 {transform: translateX(25600px);}
.step26 {transform: translateX(26624px);}
.step27 {transform: translateX(27648px);}
.step28 {transform: translateX(28672px);}
.step29 {transform: translateX(29696px);}
    </style>

    <path d="M 319 783 Q 346 761 375 733 Q 391 720 408 721 Q 420 722 425 736 Q 429 752 418 785 Q 406 815 312 835 Q 294 839 288 835 Q 282 831 285 817 Q 289 804 319 783 Z" fill="lightgray"/>
    <path d="M 80 594 Q 67 593 63 583 Q 60 573 77 560 Q 119 532 165 548 Q 298 599 456 628 Q 475 631 475 639 Q 475 654 455 662 Q 427 674 402 667 Q 174 607 80 594 Z" fill="lightgray"/>
    <path d="M 226 487 Q 208 481 232 468 Q 239 462 256 466 Q 332 485 388 497 Q 413 504 402 516 Q 389 529 362 532 Q 335 533 226 487 Z" fill="lightgray"/>
    <path d="M 226 379 Q 210 373 232 359 Q 239 355 256 358 Q 335 377 392 389 Q 416 396 406 408 Q 393 423 366 425 Q 347 426 226 379 Z" fill="lightgray"/>
    <path d="M 202 259 Q 190 263 164 269 Q 152 272 149 267 Q 142 260 151 245 Q 176 191 193 103 Q 197 78 212 60 Q 230 38 235 53 Q 242 69 237 101 L 232 134 Q 220 213 219 233 C 217 254 217 254 202 259 Z" fill="lightgray"/>
    <path d="M 386 160 Q 405 221 424 239 Q 446 264 423 278 Q 404 290 378 307 Q 359 317 341 306 Q 299 279 202 259 C 173 253 190 226 219 233 Q 222 234 224 234 Q 272 247 313 257 Q 341 264 348 253 Q 354 247 335 163 C 328 134 377 131 386 160 Z" fill="lightgray"/>
    <path d="M 237 101 Q 246 111 398 131 Q 408 132 409 141 Q 409 148 386 160 C 364 172 364 172 335 163 Q 277 145 232 134 C 203 127 211 86 237 101 Z" fill="lightgray"/>
    <path d="M 739 675 Q 785 690 836 702 Q 875 714 880 719 Q 889 728 884 736 Q 877 748 846 754 Q 822 757 711 717 Q 636 696 576 687 Q 539 678 566 663 Q 611 639 669 658 Q 681 662 695 664 L 739 675 Z" fill="lightgray"/>
    <path d="M 770 466 Q 843 476 934 474 Q 958 471 967 479 Q 974 485 967 497 Q 961 510 920 531 Q 896 541 826 524 Q 793 521 771 513 L 713 501 Q 638 485 569 462 Q 556 456 553 461 Q 549 464 552 472 Q 565 521 573 535 Q 580 547 570 559 Q 554 581 528 594 Q 515 600 507 593 Q 501 589 509 572 Q 522 545 516 509 Q 506 472 486 456 Q 473 443 477 430 Q 484 409 501 393 Q 511 381 530 393 Q 584 433 691 452 L 770 466 Z" fill="lightgray"/>
    <path d="M 713 376 Q 713 265 713 112 Q 712 78 701 67 Q 689 60 662 68 Q 643 74 617 80 Q 604 84 605 76 Q 605 69 615 58 Q 676 3 712 -40 Q 724 -50 739 -33 Q 782 21 778 105 Q 765 336 770 466 L 771 513 Q 772 562 777 608 Q 784 636 777 647 Q 768 660 739 675 C 713 690 686 693 695 664 Q 711 613 712 591 Q 712 534 713 501 L 713 376 Z" fill="lightgray"/>
    <path d="M 691 452 Q 634 305 438 132 Q 426 119 436 117 Q 446 113 458 119 Q 567 173 665 303 Q 701 363 713 376 C 782 464 703 481 691 452 Z" fill="lightgray"/></g>
<g transform="scale(1, -1) translate(0, -900)">
    <style type="text/css">
        .origin {display:none;}
        .hide {display:none;}
        .stroke {fill: #000000;}
        
.step1 {transform: translateX(1024px);}
.step2 {transform: translateX(2048px);}
.step3 {transform: translateX(3072px);}
.step4 {transform: translateX(4096px);}
.step5 {transform: translateX(5120px);}
.step6 {transform: translateX(6144px);}
.step7 {transform: translateX(7168px);}
.step8 {transform: translateX(8192px);}
.step9 {transform: translateX(9216px);}
.step10 {transform: translateX(10240px);}
.step11 {transform: translateX(11264px);}
.step12 {transform: translateX(12288px);}
.step13 {transform: translateX(13312px);}
.step14 {transform: translateX(14336px);}
.step15 {transform: translateX(15360px);}
.step16 {transform: translateX(16384px);}
.step17 {transform: translateX(17408px);}
.step18 {transform: translateX(18432px);}
.step19 {transform: translateX(19456px);}
.step20 {transform: translateX(20480px);}
.step21 {transform: translateX(21504px);}
.step22 {transform: translateX(22528px);}
.step23 {transform: translateX(23552px);}
.step24 {transform: translateX(24576px);}
.step25 {transform: translateX(25600px);}
.step26 {transform: translateX(26624px);}
.step27 {transform: translateX(27648px);}
.step28 {transform: translateX(28672px);}
.step29 {transform: translateX(29696px);}
    </style>

    <path d="M 319 783 Q 346 761 375 733 Q 391 720 408 721 Q 420 722 425 736 Q 429 752 418 785 Q 406 815 312 835 Q 294 839 288 835 Q 282 831 285 817 Q 289 804 319 783 Z" fill="lightgray" class="stroke step0"/>
    <path d="M 80 594 Q 67 593 63 583 Q 60 573 77 560 Q 119 532 165 548 Q 298 599 456 628 Q 475 631 475 639 Q 475 654 455 662 Q 427 674 402 667 Q 174 607 80 594 Z" fill="lightgray" class="hide"/>
    <path d="M 226 487 Q 208 481 232 468 Q 239 462 256 466 Q 332 485 388 497 Q 413 504 402 516 Q 389 529 362 532 Q 335 533 226 487 Z" fill="lightgray" class="hide"/>
    <path d="M 226 379 Q 210 373 232 359 Q 239 355 256 358 Q 335 377 392 389 Q 416 396 406 408 Q 393 423 366 425 Q 347 426 226 379 Z" fill="lightgray" class="hide"/>
    <path d="M 202 259 Q 190 263 164 269 Q 152 272 149 267 Q 142 260 151 245 Q 176 191 193 103 Q 197 78 212 60 Q 230 38 235 53 Q 242 69 237 101 L 232 134 Q 220 213 219 233 C 217 254 217 254 202 259 Z" fill="lightgray" class="hide"/>
    <path d="M 386 160 Q 405 221 424 239 Q 446 264 423 278 Q 404 290 378 307 Q 359 317 341 306 Q 299 279 202 259 C 173 253 190 226 219 233 Q 222 234 224 234 Q 272 247 313 257 Q 341 264 348 253 Q 354 247 335 163 C 328 134 377 131 386 160 Z" fill="lightgray" class="hide"/>
    <path d="M 237 101 Q 246 111 398 131 Q 408 132 409 141 Q 409 148 386 160 C 364 172 364 172 335 163 Q 277 145 232 134 C 203 127 211 86 237 101 Z" fill="lightgray" class="hide"/>
    <path d="M 739 675 Q 785 690 836 702 Q 875 714 880 719 Q 889 728 884 736 Q 877 748 846 754 Q 822 757 711 717 Q 636 696 576 687 Q 539 678 566 663 Q 611 639 669 658 Q 681 662 695 664 L 739 675 Z" fill="lightgray" class="hide"/>
    <path d="M 770 466 Q 843 476 934 474 Q 958 471 967 479 Q 974 485 967 497 Q 961 510 920 531 Q 896 541 826 524 Q 793 521 771 513 L 713 501 Q 638 485 569 462 Q 556 456 553 461 Q 549 464 552 472 Q 565 521 573 535 Q 580 547 570 559 Q 554 581 528 594 Q 515 600 507 593 Q 501 589 509 572 Q 522 545 516 509 Q 506 472 486 456 Q 473 443 477 430 Q 484 409 501 393 Q 511 381 530 393 Q 584 433 691 452 L 770 466 Z" fill="lightgray" class="hide"/>
    <path d="M 713 376 Q 713 265 713 112 Q 712 78 701 67 Q 689 60 662 68 Q 643 74 617 80 Q 604 84 605 76 Q 605 69 615 58 Q 676 3 712 -40 Q 724 -50 739 -33 Q 782 21 778 105 Q 765 336 770 466 L 771 513 Q 772 562 777 608 Q 784 636 777 647 Q 768 660 739 675 C 713 690 686 693 695 664 Q 711 613 712 591 Q 712 534 713 501 L 713 376 Z" fill="lightgray" class="hide"/>
    <path d="M 691 452 Q 634 305 438 132 Q 426 119 436 117 Q 446 113 458 119 Q 567 173 665 303 Q 701 363 713 376 C 782 464 703 481 691 452 Z" fill="lightgray" class="hide"/></g><g transform="scale(1, -1) translate(0, -900)">
    <style type="text/css">
        .origin {display:none;}
        .hide {display:none;}
        .stroke {fill: #000000;}
        
.step1 {transform: translateX(1024px);}
.step2 {transform: translateX(2048px);}
.step3 {transform: translateX(3072px);}
.step4 {transform: translateX(4096px);}
.step5 {transform: translateX(5120px);}
.step6 {transform: translateX(6144px);}
.step7 {transform: translateX(7168px);}
.step8 {transform: translateX(8192px);}
.step9 {transform: translateX(9216px);}
.step10 {transform: translateX(10240px);}
.step11 {transform: translateX(11264px);}
.step12 {transform: translateX(12288px);}
.step13 {transform: translateX(13312px);}
.step14 {transform: translateX(14336px);}
.step15 {transform: translateX(15360px);}
.step16 {transform: translateX(16384px);}
.step17 {transform: translateX(17408px);}
.step18 {transform: translateX(18432px);}
.step19 {transform: translateX(19456px);}
.step20 {transform: translateX(20480px);}
.step21 {transform: translateX(21504px);}
.step22 {transform: translateX(22528px);}
.step23 {transform: translateX(23552px);}
.step24 {transform: translateX(24576px);}
.step25 {transform: translateX(25600px);}
.step26 {transform: translateX(26624px);}
.step27 {transform: translateX(27648px);}
.step28 {transform: translateX(28672px);}
.step29 {transform: translateX(29696px);}
    </style>

    <path d="M 319 783 Q 346 761 375 733 Q 391 720 408 721 Q 420 722 425 736 Q 429 752 418 785 Q 406 815 312 835 Q 294 839 288 835 Q 282 831 285 817 Q 289 804 319 783 Z" fill="lightgray" class="stroke step1"/>
    <path d="M 80 594 Q 67 593 63 583 Q 60 573 77 560 Q 119 532 165 548 Q 298 599 456 628 Q 475 631 475 639 Q 475 654 455 662 Q 427 674 402 667 Q 174 607 80 594 Z" fill="lightgray" class="stroke step1"/>
    <path d="M 226 487 Q 208 481 232 468 Q 239 462 256 466 Q 332 485 388 497 Q 413 504 402 516 Q 389 529 362 532 Q 335 533 226 487 Z" fill="lightgray" class="hide"/>
    <path d="M 226 379 Q 210 373 232 359 Q 239 355 256 358 Q 335 377 392 389 Q 416 396 406 408 Q 393 423 366 425 Q 347 426 226 379 Z" fill="lightgray" class="hide"/>
    <path d="M 202 259 Q 190 263 164 269 Q 152 272 149 267 Q 142 260 151 245 Q 176 191 193 103 Q 197 78 212 60 Q 230 38 235 53 Q 242 69 237 101 L 232 134 Q 220 213 219 233 C 217 254 217 254 202 259 Z" fill="lightgray" class="hide"/>
    <path d="M 386 160 Q 405 221 424 239 Q 446 264 423 278 Q 404 290 378 307 Q 359 317 341 306 Q 299 279 202 259 C 173 253 190 226 219 233 Q 222 234 224 234 Q 272 247 313 257 Q 341 264 348 253 Q 354 247 335 163 C 328 134 377 131 386 160 Z" fill="lightgray" class="hide"/>
    <path d="M 237 101 Q 246 111 398 131 Q 408 132 409 141 Q 409 148 386 160 C 364 172 364 172 335 163 Q 277 145 232 134 C 203 127 211 86 237 101 Z" fill="lightgray" class="hide"/>
    <path d="M 739 675 Q 785 690 836 702 Q 875 714 880 719 Q 889 728 884 736 Q 877 748 846 754 Q 822 757 711 717 Q 636 696 576 687 Q 539 678 566 663 Q 611 639 669 658 Q 681 662 695 664 L 739 675 Z" fill="lightgray" class="hide"/>
    <path d="M 770 466 Q 843 476 934 474 Q 958 471 967 479 Q 974 485 967 497 Q 961 510 920 531 Q 896 541 826 524 Q 793 521 771 513 L 713 501 Q 638 485 569 462 Q 556 456 553 461 Q 549 464 552 472 Q 565 521 573 535 Q 580 547 570 559 Q 554 581 528 594 Q 515 600 507 593 Q 501 589 509 572 Q 522 545 516 509 Q 506 472 486 456 Q 473 443 477 430 Q 484 409 501 393 Q 511 381 530 393 Q 584 433 691 452 L 770 466 Z" fill="lightgray" class="hide"/>
    <path d="M 713 376 Q 713 265 713 112 Q 712 78 701 67 Q 689 60 662 68 Q 643 74 617 80 Q 604 84 605 76 Q 605 69 615 58 Q 676 3 712 -40 Q 724 -50 739 -33 Q 782 21 778 105 Q 765 336 770 466 L 771 513 Q 772 562 777 608 Q 784 636 777 647 Q 768 660 739 675 C 713 690 686 693 695 664 Q 711 613 712 591 Q 712 534 713 501 L 713 376 Z" fill="lightgray" class="hide"/>
    <path d="M 691 452 Q 634 305 438 132 Q 426 119 436 117 Q 446 113 458 119 Q 567 173 665 303 Q 701 363 713 376 C 782 464 703 481 691 452 Z" fill="lightgray" class="hide"/></g><g transform="scale(1, -1) translate(0, -900)">
    <style type="text/css">
        .origin {display:none;}
        .hide {display:none;}
        .stroke {fill: #000000;}
        
.step1 {transform: translateX(1024px);}
.step2 {transform: translateX(2048px);}
.step3 {transform: translateX(3072px);}
.step4 {transform: translateX(4096px);}
.step5 {transform: translateX(5120px);}
.step6 {transform: translateX(6144px);}
.step7 {transform: translateX(7168px);}
.step8 {transform: translateX(8192px);}
.step9 {transform: translateX(9216px);}
.step10 {transform: translateX(10240px);}
.step11 {transform: translateX(11264px);}
.step12 {transform: translateX(12288px);}
.step13 {transform: translateX(13312px);}
.step14 {transform: translateX(14336px);}
.step15 {transform: translateX(15360px);}
.step16 {transform: translateX(16384px);}
.step17 {transform: translateX(17408px);}
.step18 {transform: translateX(18432px);}
.step19 {transform: translateX(19456px);}
.step20 {transform: translateX(20480px);}
.step21 {transform: translateX(21504px);}
.step22 {transform: translateX(22528px);}
.step23 {transform: translateX(23552px);}
.step24 {transform: translateX(24576px);}
.step25 {transform: translateX(25600px);}
.step26 {transform: translateX(26624px);}
.step27 {transform: translateX(27648px);}
.step28 {transform: translateX(28672px);}
.step29 {transform: translateX(29696px);}
    </style>

    <path d="M 319 783 Q 346 761 375 733 Q 391 720 408 721 Q 420 722 425 736 Q 429 752 418 785 Q 406 815 312 835 Q 294 839 288 835 Q 282 831 285 817 Q 289 804 319 783 Z" fill="lightgray" class="stroke step2"/>
    <path d="M 80 594 Q 67 593 63 583 Q 60 573 77 560 Q 119 532 165 548 Q 298 599 456 628 Q 475 631 475 639 Q 475 654 455 662 Q 427 674 402 667 Q 174 607 80 594 Z" fill="lightgray" class="stroke step2"/>
    <path d="M 226 487 Q 208 481 232 468 Q 239 462 256 466 Q 332 485 388 497 Q 413 504 402 516 Q 389 529 362 532 Q 335 533 226 487 Z" fill="lightgray" class="stroke step2"/>
    <path d="M 226 379 Q 210 373 232 359 Q 239 355 256 358 Q 335 377 392 389 Q 416 396 406 408 Q 393 423 366 425 Q 347 426 226 379 Z" fill="lightgray" class="hide"/>
    <path d="M 202 259 Q 190 263 164 269 Q 152 272 149 267 Q 142 260 151 245 Q 176 191 193 103 Q 197 78 212 60 Q 230 38 235 53 Q 242 69 237 101 L 232 134 Q 220 213 219 233 C 217 254 217 254 202 259 Z" fill="lightgray" class="hide"/>
    <path d="M 386 160 Q 405 221 424 239 Q 446 264 423 278 Q 404 290 378 307 Q 359 317 341 306 Q 299 279 202 259 C 173 253 190 226 219 233 Q 222 234 224 234 Q 272 247 313 257 Q 341 264 348 253 Q 354 247 335 163 C 328 134 377 131 386 160 Z" fill="lightgray" class="hide"/>
    <path d="M 237 101 Q 246 111 398 131 Q 408 132 409 141 Q 409 148 386 160 C 364 172 364 172 335 163 Q 277 145 232 134 C 203 127 211 86 237 101 Z" fill="lightgray" class="hide"/>
    <path d="M 739 675 Q 785 690 836 702 Q 875 714 880 719 Q 889 728 884 736 Q 877 748 846 754 Q 822 757 711 717 Q 636 696 576 687 Q 539 678 566 663 Q 611 639 669 658 Q 681 662 695 664 L 739 675 Z" fill="lightgray" class="hide"/>
    <path d="M 770 466 Q 843 476 934 474 Q 958 471 967 479 Q 974 485 967 497 Q 961 510 920 531 Q 896 541 826 524 Q 793 521 771 513 L 713 501 Q 638 485 569 462 Q 556 456 553 461 Q 549 464 552 472 Q 565 521 573 535 Q 580 547 570 559 Q 554 581 528 594 Q 515 600 507 593 Q 501 589 509 572 Q 522 545 516 509 Q 506 472 486 456 Q 473 443 477 430 Q 484 409 501 393 Q 511 381 530 393 Q 584 433 691 452 L 770 466 Z" fill="lightgray" class="hide"/>
    <path d="M 713 376 Q 713 265 713 112 Q 712 78 701 67 Q 689 60 662 68 Q 643 74 617 80 Q 604 84 605 76 Q 605 69 615 58 Q 676 3 712 -40 Q 724 -50 739 -33 Q 782 21 778 105 Q 765 336 770 466 L 771 513 Q 772 562 777 608 Q 784 636 777 647 Q 768 660 739 675 C 713 690 686 693 695 664 Q 711 613 712 591 Q 712 534 713 501 L 713 376 Z" fill="lightgray" class="hide"/>
    <path d="M 691 452 Q 634 305 438 132 Q 426 119 436 117 Q 446 113 458 119 Q 567 173 665 303 Q 701 363 713 376 C 782 464 703 481 691 452 Z" fill="lightgray" class="hide"/></g><g transform="scale(1, -1) translate(0, -900)">
    <style type="text/css">
        .origin {display:none;}
        .hide {display:none;}
        .stroke {fill: #000000;}
        
.step1 {transform: translateX(1024px);}
.step2 {transform: translateX(2048px);}
.step3 {transform: translateX(3072px);}
.step4 {transform: translateX(4096px);}
.step5 {transform: translateX(5120px);}
.step6 {transform: translateX(6144px);}
.step7 {transform: translateX(7168px);}
.step8 {transform: translateX(8192px);}
.step9 {transform: translateX(9216px);}
.step10 {transform: translateX(10240px);}
.step11 {transform: translateX(11264px);}
.step12 {transform: translateX(12288px);}
.step13 {transform: translateX(13312px);}
.step14 {transform: translateX(14336px);}
.step15 {transform: translateX(15360px);}
.step16 {transform: translateX(16384px);}
.step17 {transform: translateX(17408px);}
.step18 {transform: translateX(18432px);}
.step19 {transform: translateX(19456px);}
.step20 {transform: translateX(20480px);}
.step21 {transform: translateX(21504px);}
.step22 {transform: translateX(22528px);}
.step23 {transform: translateX(23552px);}
.step24 {transform: translateX(24576px);}
.step25 {transform: translateX(25600px);}
.step26 {transform: translateX(26624px);}
.step27 {transform: translateX(27648px);}
.step28 {transform: translateX(28672px);}
.step29 {transform: translateX(29696px);}
    </style>

    <path d="M 319 783 Q 346 761 375 733 Q 391 720 408 721 Q 420 722 425 736 Q 429 752 418 785 Q 406 815 312 835 Q 294 839 288 835 Q 282 831 285 817 Q 289 804 319 783 Z" fill="lightgray" class="stroke step3"/>
    <path d="M 80 594 Q 67 593 63 583 Q 60 573 77 560 Q 119 532 165 548 Q 298 599 456 628 Q 475 631 475 639 Q 475 654 455 662 Q 427 674 402 667 Q 174 607 80 594 Z" fill="lightgray" class="stroke step3"/>
    <path d="M 226 487 Q 208 481 232 468 Q 239 462 256 466 Q 332 485 388 497 Q 413 504 402 516 Q 389 529 362 532 Q 335 533 226 487 Z" fill="lightgray" class="stroke step3"/>
    <path d="M 226 379 Q 210 373 232 359 Q 239 355 256 358 Q 335 377 392 389 Q 416 396 406 408 Q 393 423 366 425 Q 347 426 226 379 Z" fill="lightgray" class="stroke step3"/>
    <path d="M 202 259 Q 190 263 164 269 Q 152 272 149 267 Q 142 260 151 245 Q 176 191 193 103 Q 197 78 212 60 Q 230 38 235 53 Q 242 69 237 101 L 232 134 Q 220 213 219 233 C 217 254 217 254 202 259 Z" fill="lightgray" class="hide"/>
    <path d="M 386 160 Q 405 221 424 239 Q 446 264 423 278 Q 404 290 378 307 Q 359 317 341 306 Q 299 279 202 259 C 173 253 190 226 219 233 Q 222 234 224 234 Q 272 247 313 257 Q 341 264 348 253 Q 354 247 335 163 C 328 134 377 131 386 160 Z" fill="lightgray" class="hide"/>
    <path d="M 237 101 Q 246 111 398 131 Q 408 132 409 141 Q 409 148 386 160 C 364 172 364 172 335 163 Q 277 145 232 134 C 203 127 211 86 237 101 Z" fill="lightgray" class="hide"/>
    <path d="M 739 675 Q 785 690 836 702 Q 875 714 880 719 Q 889 728 884 736 Q 877 748 846 754 Q 822 757 711 717 Q 636 696 576 687 Q 539 678 566 663 Q 611 639 669 658 Q 681 662 695 664 L 739 675 Z" fill="lightgray" class="hide"/>
    <path d="M 770 466 Q 843 476 934 474 Q 958 471 967 479 Q 974 485 967 497 Q 961 510 920 531 Q 896 541 826 524 Q 793 521 771 513 L 713 501 Q 638 485 569 462 Q 556 456 553 461 Q 549 464 552 472 Q 565 521 573 535 Q 580 547 570 559 Q 554 581 528 594 Q 515 600 507 593 Q 501 589 509 572 Q 522 545 516 509 Q 506 472 486 456 Q 473 443 477 430 Q 484 409 501 393 Q 511 381 530 393 Q 584 433 691 452 L 770 466 Z" fill="lightgray" class="hide"/>
    <path d="M 713 376 Q 713 265 713 112 Q 712 78 701 67 Q 689 60 662 68 Q 643 74 617 80 Q 604 84 605 76 Q 605 69 615 58 Q 676 3 712 -40 Q 724 -50 739 -33 Q 782 21 778 105 Q 765 336 770 466 L 771 513 Q 772 562 777 608 Q 784 636 777 647 Q 768 660 739 675 C 713 690 686 693 695 664 Q 711 613 712 591 Q 712 534 713 501 L 713 376 Z" fill="lightgray" class="hide"/>
    <path d="M 691 452 Q 634 305 438 132 Q 426 119 436 117 Q 446 113 458 119 Q 567 173 665 303 Q 701 363 713 376 C 782 464 703 481 691 452 Z" fill="lightgray" class="hide"/></g><g transform="scale(1, -1) translate(0, -900)">
    <style type="text/css">
        .origin {display:none;}
        .hide {display:none;}
        .stroke {fill: #000000;}
        
.step1 {transform: translateX(1024px);}
.step2 {transform: translateX(2048px);}
.step3 {transform: translateX(3072px);}
.step4 {transform: translateX(4096px);}
.step5 {transform: translateX(5120px);}
.step6 {transform: translateX(6144px);}
.step7 {transform: translateX(7168px);}
.step8 {transform: translateX(8192px);}
.step9 {transform: translateX(9216px);}
.step10 {transform: translateX(10240px);}
.step11 {transform: translateX(11264px);}
.step12 {transform: translateX(12288px);}
.step13 {transform: translateX(13312px);}
.step14 {transform: translateX(14336px);}
.step15 {transform: translateX(15360px);}
.step16 {transform: translateX(16384px);}
.step17 {transform: translateX(17408px);}
.step18 {transform: translateX(18432px);}
.step19 {transform: translateX(19456px);}
.step20 {transform: translateX(20480px);}
.step21 {transform: translateX(21504px);}
.step22 {transform: translateX(22528px);}
.step23 {transform: translateX(23552px);}
.step24 {transform: translateX(24576px);}
.step25 {transform: translateX(25600px);}
.step26 {transform: translateX(26624px);}
.step27 {transform: translateX(27648px);}
.step28 {transform: translateX(28672px);}
.step29 {transform: translateX(29696px);}
    </style>

    <path d="M 319 783 Q 346 761 375 733 Q 391 720 408 721 Q 420 722 425 736 Q 429 752 418 785 Q 406 815 312 835 Q 294 839 288 835 Q 282 831 285 817 Q 289 804 319 783 Z" fill="lightgray" class="stroke step4"/>
    <path d="M 80 594 Q 67 593 63 583 Q 60 573 77 560 Q 119 532 165 548 Q 298 599 456 628 Q 475 631 475 639 Q 475 654 455 662 Q 427 674 402 667 Q 174 607 80 594 Z" fill="lightgray" class="stroke step4"/>
    <path d="M 226 487 Q 208 481 232 468 Q 239 462 256 466 Q 332 485 388 497 Q 413 504 402 516 Q 389 529 362 532 Q 335 533 226 487 Z" fill="lightgray" class="stroke step4"/>
    <path d="M 226 379 Q 210 373 232 359 Q 239 355 256 358 Q 335 377 392 389 Q 416 396 406 408 Q 393 423 366 425 Q 347 426 226 379 Z" fill="lightgray" class="stroke step4"/>
    <path d="M 202 259 Q 190 263 164 269 Q 152 272 149 267 Q 142 260 151 245 Q 176 191 193 103 Q 197 78 212 60 Q 230 38 235 53 Q 242 69 237 101 L 232 134 Q 220 213 219 233 C 217 254 217 254 202 259 Z" fill="lightgray" class="stroke step4"/>
    <path d="M 386 160 Q 405 221 424 239 Q 446 264 423 278 Q 404 290 378 307 Q 359 317 341 306 Q 299 279 202 259 C 173 253 190 226 219 233 Q 222 234 224 234 Q 272 247 313 257 Q 341 264 348 253 Q 354 247 335 163 C 328 134 377 131 386 160 Z" fill="lightgray" class="hide"/>
    <path d="M 237 101 Q 246 111 398 131 Q 408 132 409 141 Q 409 148 386 160 C 364 172 364 172 335 163 Q 277 145 232 134 C 203 127 211 86 237 101 Z" fill="lightgray" class="hide"/>
    <path d="M 739 675 Q 785 690 836 702 Q 875 714 880 719 Q 889 728 884 736 Q 877 748 846 754 Q 822 757 711 717 Q 636 696 576 687 Q 539 678 566 663 Q 611 639 669 658 Q 681 662 695 664 L 739 675 Z" fill="lightgray" class="hide"/>
    <path d="M 770 466 Q 843 476 934 474 Q 958 471 967 479 Q 974 485 967 497 Q 961 510 920 531 Q 896 541 826 524 Q 793 521 771 513 L 713 501 Q 638 485 569 462 Q 556 456 553 461 Q 549 464 552 472 Q 565 521 573 535 Q 580 547 570 559 Q 554 581 528 594 Q 515 600 507 593 Q 501 589 509 572 Q 522 545 516 509 Q 506 472 486 456 Q 473 443 477 430 Q 484 409 501 393 Q 511 381 530 393 Q 584 433 691 452 L 770 466 Z" fill="lightgray" class="hide"/>
    <path d="M 713 376 Q 713 265 713 112 Q 712 78 701 67 Q 689 60 662 68 Q 643 74 617 80 Q 604 84 605 76 Q 605 69 615 58 Q 676 3 712 -40 Q 724 -50 739 -33 Q 782 21 778 105 Q 765 336 770 466 L 771 513 Q 772 562 777 608 Q 784 636 777 647 Q 768 660 739 675 C 713 690 686 693 695 664 Q 711 613 712 591 Q 712 534 713 501 L 713 376 Z" fill="lightgray" class="hide"/>
    <path d="M 691 452 Q 634 305 438 132 Q 426 119 436 117 Q 446 113 458 119 Q 567 173 665 303 Q 701 363 713 376 C 782 464 703 481 691 452 Z" fill="lightgray" class="hide"/></g><g transform="scale(1, -1) translate(0, -900)">
    <style type="text/css">
        .origin {display:none;}
        .hide {display:none;}
        .stroke {fill: #000000;}
        
.step1 {transform: translateX(1024px);}
.step2 {transform: translateX(2048px);}
.step3 {transform: translateX(3072px);}
.step4 {transform: translateX(4096px);}
.step5 {transform: translateX(5120px);}
.step6 {transform: translateX(6144px);}
.step7 {transform: translateX(7168px);}
.step8 {transform: translateX(8192px);}
.step9 {transform: translateX(9216px);}
.step10 {transform: translateX(10240px);}
.step11 {transform: translateX(11264px);}
.step12 {transform: translateX(12288px);}
.step13 {transform: translateX(13312px);}
.step14 {transform: translateX(14336px);}
.step15 {transform: translateX(15360px);}
.step16 {transform: translateX(16384px);}
.step17 {transform: translateX(17408px);}
.step18 {transform: translateX(18432px);}
.step19 {transform: translateX(19456px);}
.step20 {transform: translateX(20480px);}
.step21 {transform: translateX(21504px);}
.step22 {transform: translateX(22528px);}
.step23 {transform: translateX(23552px);}
.step24 {transform: translateX(24576px);}
.step25 {transform: translateX(25600px);}
.step26 {transform: translateX(26624px);}
.step27 {transform: translateX(27648px);}
.step28 {transform: translateX(28672px);}
.step29 {transform: translateX(29696px);}
    </style>

    <path d="M 319 783 Q 346 761 375 733 Q 391 720 408 721 Q 420 722 425 736 Q 429 752 418 785 Q 406 815 312 835 Q 294 839 288 835 Q 282 831 285 817 Q 289 804 319 783 Z" fill="lightgray" class="stroke step5"/>
    <path d="M 80 594 Q 67 593 63 583 Q 60 573 77 560 Q 119 532 165 548 Q 298 599 456 628 Q 475 631 475 639 Q 475 654 455 662 Q 427 674 402 667 Q 174 607 80 594 Z" fill="lightgray" class="stroke step5"/>
    <path d="M 226 487 Q 208 481 232 468 Q 239 462 256 466 Q 332 485 388 497 Q 413 504 402 516 Q 389 529 362 532 Q 335 533 226 487 Z" fill="lightgray" class="stroke step5"/>
    <path d="M 226 379 Q 210 373 232 359 Q 239 355 256 358 Q 335 377 392 389 Q 416 396 406 408 Q 393 423 366 425 Q 347 426 226 379 Z" fill="lightgray" class="stroke step5"/>
    <path d="M 202 259 Q 190 263 164 269 Q 152 272 149 267 Q 142 260 151 245 Q 176 191 193 103 Q 197 78 212 60 Q 230 38 235 53 Q 242 69 237 101 L 232 134 Q 220 213 219 233 C 217 254 217 254 202 259 Z" fill="lightgray" class="stroke step5"/>
    <path d="M 386 160 Q 405 221 424 239 Q 446 264 423 278 Q 404 290 378 307 Q 359 317 341 306 Q 299 279 202 259 C 173 253 190 226 219 233 Q 222 234 224 234 Q 272 247 313 257 Q 341 264 348 253 Q 354 247 335 163 C 328 134 377 131 386 160 Z" fill="lightgray" class="stroke step5"/>
    <path d="M 237 101 Q 246 111 398 131 Q 408 132 409 141 Q 409 148 386 160 C 364 172 364 172 335 163 Q 277 145 232 134 C 203 127 211 86 237 101 Z" fill="lightgray" class="hide"/>
    <path d="M 739 675 Q 785 690 836 702 Q 875 714 880 719 Q 889 728 884 736 Q 877 748 846 754 Q 822 757 711 717 Q 636 696 576 687 Q 539 678 566 663 Q 611 639 669 658 Q 681 662 695 664 L 739 675 Z" fill="lightgray" class="hide"/>
    <path d="M 770 466 Q 843 476 934 474 Q 958 471 967 479 Q 974 485 967 497 Q 961 510 920 531 Q 896 541 826 524 Q 793 521 771 513 L 713 501 Q 638 485 569 462 Q 556 456 553 461 Q 549 464 552 472 Q 565 521 573 535 Q 580 547 570 559 Q 554 581 528 594 Q 515 600 507 593 Q 501 589 509 572 Q 522 545 516 509 Q 506 472 486 456 Q 473 443 477 430 Q 484 409 501 393 Q 511 381 530 393 Q 584 433 691 452 L 770 466 Z" fill="lightgray" class="hide"/>
    <path d="M 713 376 Q 713 265 713 112 Q 712 78 701 67 Q 689 60 662 68 Q 643 74 617 80 Q 604 84 605 76 Q 605 69 615 58 Q 676 3 712 -40 Q 724 -50 739 -33 Q 782 21 778 105 Q 765 336 770 466 L 771 513 Q 772 562 777 608 Q 784 636 777 647 Q 768 660 739 675 C 713 690 686 693 695 664 Q 711 613 712 591 Q 712 534 713 501 L 713 376 Z" fill="lightgray" class="hide"/>
    <path d="M 691 452 Q 634 305 438 132 Q 426 119 436 117 Q 446 113 458 119 Q 567 173 665 303 Q 701 363 713 376 C 782 464 703 481 691 452 Z" fill="lightgray" class="hide"/></g><g transform="scale(1, -1) translate(0, -900)">
    <style type="text/css">
        .origin {display:none;}
        .hide {display:none;}
        .stroke {fill: #000000;}
        
.step1 {transform: translateX(1024px);}
.step2 {transform: translateX(2048px);}
.step3 {transform: translateX(3072px);}
.step4 {transform: translateX(4096px);}
.step5 {transform: translateX(5120px);}
.step6 {transform: translateX(6144px);}
.step7 {transform: translateX(7168px);}
.step8 {transform: translateX(8192px);}
.step9 {transform: translateX(9216px);}
.step10 {transform: translateX(10240px);}
.step11 {transform: translateX(11264px);}
.step12 {transform: translateX(12288px);}
.step13 {transform: translateX(13312px);}
.step14 {transform: translateX(14336px);}
.step15 {transform: translateX(15360px);}
.step16 {transform: translateX(16384px);}
.step17 {transform: translateX(17408px);}
.step18 {transform: translateX(18432px);}
.step19 {transform: translateX(19456px);}
.step20 {transform: translateX(20480px);}
.step21 {transform: translateX(21504px);}
.step22 {transform: translateX(22528px);}
.step23 {transform: translateX(23552px);}
.step24 {transform: translateX(24576px);}
.step25 {transform: translateX(25600px);}
.step26 {transform: translateX(26624px);}
.step27 {transform: translateX(27648px);}
.step28 {transform: translateX(28672px);}
.step29 {transform: translateX(29696px);}
    </style>

    <path d="M 319 783 Q 346 761 375 733 Q 391 720 408 721 Q 420 722 425 736 Q 429 752 418 785 Q 406 815 312 835 Q 294 839 288 835 Q 282 831 285 817 Q 289 804 319 783 Z" fill="lightgray" class="stroke step6"/>
    <path d="M 80 594 Q 67 593 63 583 Q 60 573 77 560 Q 119 532 165 548 Q 298 599 456 628 Q 475 631 475 639 Q 475 654 455 662 Q 427 674 402 667 Q 174 607 80 594 Z" fill="lightgray" class="stroke step6"/>
    <path d="M 226 487 Q 208 481 232 468 Q 239 462 256 466 Q 332 485 388 497 Q 413 504 402 516 Q 389 529 362 532 Q 335 533 226 487 Z" fill="lightgray" class="stroke step6"/>
    <path d="M 226 379 Q 210 373 232 359 Q 239 355 256 358 Q 335 377 392 389 Q 416 396 406 408 Q 393 423 366 425 Q 347 426 226 379 Z" fill="lightgray" class="stroke step6"/>
    <path d="M 202 259 Q 190 263 164 269 Q 152 272 149 267 Q 142 260 151 245 Q 176 191 193 103 Q 197 78 212 60 Q 230 38 235 53 Q 242 69 237 101 L 232 134 Q 220 213 219 233 C 217 254 217 254 202 259 Z" fill="lightgray" class="stroke step6"/>
    <path d="M 386 160 Q 405 221 424 239 Q 446 264 423 278 Q 404 290 378 307 Q 359 317 341 306 Q 299 279 202 259 C 173 253 190 226 219 233 Q 222 234 224 234 Q 272 247 313 257 Q 341 264 348 253 Q 354 247 335 163 C 328 134 377 131 386 160 Z" fill="lightgray" class="stroke step6"/>
    <path d="M 237 101 Q 246 111 398 131 Q 408 132 409 141 Q 409 148 386 160 C 364 172 364 172 335 163 Q 277 145 232 134 C 203 127 211 86 237 101 Z" fill="lightgray" class="stroke step6"/>
    <path d="M 739 675 Q 785 690 836 702 Q 875 714 880 719 Q 889 728 884 736 Q 877 748 846 754 Q 822 757 711 717 Q 636 696 576 687 Q 539 678 566 663 Q 611 639 669 658 Q 681 662 695 664 L 739 675 Z" fill="lightgray" class="hide"/>
    <path d="M 770 466 Q 843 476 934 474 Q 958 471 967 479 Q 974 485 967 497 Q 961 510 920 531 Q 896 541 826 524 Q 793 521 771 513 L 713 501 Q 638 485 569 462 Q 556 456 553 461 Q 549 464 552 472 Q 565 521 573 535 Q 580 547 570 559 Q 554 581 528 594 Q 515 600 507 593 Q 501 589 509 572 Q 522 545 516 509 Q 506 472 486 456 Q 473 443 477 430 Q 484 409 501 393 Q 511 381 530 393 Q 584 433 691 452 L 770 466 Z" fill="lightgray" class="hide"/>
    <path d="M 713 376 Q 713 265 713 112 Q 712 78 701 67 Q 689 60 662 68 Q 643 74 617 80 Q 604 84 605 76 Q 605 69 615 58 Q 676 3 712 -40 Q 724 -50 739 -33 Q 782 21 778 105 Q 765 336 770 466 L 771 513 Q 772 562 777 608 Q 784 636 777 647 Q 768 660 739 675 C 713 690 686 693 695 664 Q 711 613 712 591 Q 712 534 713 501 L 713 376 Z" fill="lightgray" class="hide"/>
    <path d="M 691 452 Q 634 305 438 132 Q 426 119 436 117 Q 446 113 458 119 Q 567 173 665 303 Q 701 363 713 376 C 782 464 703 481 691 452 Z" fill="lightgray" class="hide"/></g><g transform="scale(1, -1) translate(0, -900)">
    <style type="text/css">
        .origin {display:none;}
        .hide {display:none;}
        .stroke {fill: #000000;}
        
.step1 {transform: translateX(1024px);}
.step2 {transform: translateX(2048px);}
.step3 {transform: translateX(3072px);}
.step4 {transform: translateX(4096px);}
.step5 {transform: translateX(5120px);}
.step6 {transform: translateX(6144px);}
.step7 {transform: translateX(7168px);}
.step8 {transform: translateX(8192px);}
.step9 {transform: translateX(9216px);}
.step10 {transform: translateX(10240px);}
.step11 {transform: translateX(11264px);}
.step12 {transform: translateX(12288px);}
.step13 {transform: translateX(13312px);}
.step14 {transform: translateX(14336px);}
.step15 {transform: translateX(15360px);}
.step16 {transform: translateX(16384px);}
.step17 {transform: translateX(17408px);}
.step18 {transform: translateX(18432px);}
.step19 {transform: translateX(19456px);}
.step20 {transform: translateX(20480px);}
.step21 {transform: translateX(21504px);}
.step22 {transform: translateX(22528px);}
.step23 {transform: translateX(23552px);}
.step24 {transform: translateX(24576px);}
.step25 {transform: translateX(25600px);}
.step26 {transform: translateX(26624px);}
.step27 {transform: translateX(27648px);}
.step28 {transform: translateX(28672px);}
.step29 {transform: translateX(29696px);}
    </style>

    <path d="M 319 783 Q 346 761 375 733 Q 391 720 408 721 Q 420 722 425 736 Q 429 752 418 785 Q 406 815 312 835 Q 294 839 288 835 Q 282 831 285 817 Q 289 804 319 783 Z" fill="lightgray" class="stroke step7"/>
    <path d="M 80 594 Q 67 593 63 583 Q 60 573 77 560 Q 119 532 165 548 Q 298 599 456 628 Q 475 631 475 639 Q 475 654 455 662 Q 427 674 402 667 Q 174 607 80 594 Z" fill="lightgray" class="stroke step7"/>
    <path d="M 226 487 Q 208 481 232 468 Q 239 462 256 466 Q 332 485 388 497 Q 413 504 402 516 Q 389 529 362 532 Q 335 533 226 487 Z" fill="lightgray" class="stroke step7"/>
    <path d="M 226 379 Q 210 373 232 359 Q 239 355 256 358 Q 335 377 392 389 Q 416 396 406 408 Q 393 423 366 425 Q 347 426 226 379 Z" fill="lightgray" class="stroke step7"/>
    <path d="M 202 259 Q 190 263 164 269 Q 152 272 149 267 Q 142 260 151 245 Q 176 191 193 103 Q 197 78 212 60 Q 230 38 235 53 Q 242 69 237 101 L 232 134 Q 220 213 219 233 C 217 254 217 254 202 259 Z" fill="lightgray" class="stroke step7"/>
    <path d="M 386 160 Q 405 221 424 239 Q 446 264 423 278 Q 404 290 378 307 Q 359 317 341 306 Q 299 279 202 259 C 173 253 190 226 219 233 Q 222 234 224 234 Q 272 247 313 257 Q 341 264 348 253 Q 354 247 335 163 C 328 134 377 131 386 160 Z" fill="lightgray" class="stroke step7"/>
    <path d="M 237 101 Q 246 111 398 131 Q 408 132 409 141 Q 409 148 386 160 C 364 172 364 172 335 163 Q 277 145 232 134 C 203 127 211 86 237 101 Z" fill="lightgray" class="stroke step7"/>
    <path d="M 739 675 Q 785 690 836 702 Q 875 714 880 719 Q 889 728 884 736 Q 877 748 846 754 Q 822 757 711 717 Q 636 696 576 687 Q 539 678 566 663 Q 611 639 669 658 Q 681 662 695 664 L 739 675 Z" fill="lightgray" class="stroke step7"/>
    <path d="M 770 466 Q 843 476 934 474 Q 958 471 967 479 Q 974 485 967 497 Q 961 510 920 531 Q 896 541 826 524 Q 793 521 771 513 L 713 501 Q 638 485 569 462 Q 556 456 553 461 Q 549 464 552 472 Q 565 521 573 535 Q 580 547 570 559 Q 554 581 528 594 Q 515 600 507 593 Q 501 589 509 572 Q 522 545 516 509 Q 506 472 486 456 Q 473 443 477 430 Q 484 409 501 393 Q 511 381 530 393 Q 584 433 691 452 L 770 466 Z" fill="lightgray" class="hide"/>
    <path d="M 713 376 Q 713 265 713 112 Q 712 78 701 67 Q 689 60 662 68 Q 643 74 617 80 Q 604 84 605 76 Q 605 69 615 58 Q 676 3 712 -40 Q 724 -50 739 -33 Q 782 21 778 105 Q 765 336 770 466 L 771 513 Q 772 562 777 608 Q 784 636 777 647 Q 768 660 739 675 C 713 690 686 693 695 664 Q 711 613 712 591 Q 712 534 713 501 L 713 376 Z" fill="lightgray" class="hide"/>
    <path d="M 691 452 Q 634 305 438 132 Q 426 119 436 117 Q 446 113 458 119 Q 567 173 665 303 Q 701 363 713 376 C 782 464 703 481 691 452 Z" fill="lightgray" class="hide"/></g><g transform="scale(1, -1) translate(0, -900)">
    <style type="text/css">
        .origin {display:none;}
        .hide {display:none;}
        .stroke {fill: #000000;}
        
.step1 {transform: translateX(1024px);}
.step2 {transform: translateX(2048px);}
.step3 {transform: translateX(3072px);}
.step4 {transform: translateX(4096px);}
.step5 {transform: translateX(5120px);}
.step6 {transform: translateX(6144px);}
.step7 {transform: translateX(7168px);}
.step8 {transform: translateX(8192px);}
.step9 {transform: translateX(9216px);}
.step10 {transform: translateX(10240px);}
.step11 {transform: translateX(11264px);}
.step12 {transform: translateX(12288px);}
.step13 {transform: translateX(13312px);}
.step14 {transform: translateX(14336px);}
.step15 {transform: translateX(15360px);}
.step16 {transform: translateX(16384px);}
.step17 {transform: translateX(17408px);}
.step18 {transform: translateX(18432px);}
.step19 {transform: translateX(19456px);}
.step20 {transform: translateX(20480px);}
.step21 {transform: translateX(21504px);}
.step22 {transform: translateX(22528px);}
.step23 {transform: translateX(23552px);}
.step24 {transform: translateX(24576px);}
.step25 {transform: translateX(25600px);}
.step26 {transform: translateX(26624px);}
.step27 {transform: translateX(27648px);}
.step28 {transform: translateX(28672px);}
.step29 {transform: translateX(29696px);}
    </style>

    <path d="M 319 783 Q 346 761 375 733 Q 391 720 408 721 Q 420 722 425 736 Q 429 752 418 785 Q 406 815 312 835 Q 294 839 288 835 Q 282 831 285 817 Q 289 804 319 783 Z" fill="lightgray" class="stroke step8"/>
    <path d="M 80 594 Q 67 593 63 583 Q 60 573 77 560 Q 119 532 165 548 Q 298 599 456 628 Q 475 631 475 639 Q 475 654 455 662 Q 427 674 402 667 Q 174 607 80 594 Z" fill="lightgray" class="stroke step8"/>
    <path d="M 226 487 Q 208 481 232 468 Q 239 462 256 466 Q 332 485 388 497 Q 413 504 402 516 Q 389 529 362 532 Q 335 533 226 487 Z" fill="lightgray" class="stroke step8"/>
    <path d="M 226 379 Q 210 373 232 359 Q 239 355 256 358 Q 335 377 392 389 Q 416 396 406 408 Q 393 423 366 425 Q 347 426 226 379 Z" fill="lightgray" class="stroke step8"/>
    <path d="M 202 259 Q 190 263 164 269 Q 152 272 149 267 Q 142 260 151 245 Q 176 191 193 103 Q 197 78 212 60 Q 230 38 235 53 Q 242 69 237 101 L 232 134 Q 220 213 219 233 C 217 254 217 254 202 259 Z" fill="lightgray" class="stroke step8"/>
    <path d="M 386 160 Q 405 221 424 239 Q 446 264 423 278 Q 404 290 378 307 Q 359 317 341 306 Q 299 279 202 259 C 173 253 190 226 219 233 Q 222 234 224 234 Q 272 247 313 257 Q 341 264 348 253 Q 354 247 335 163 C 328 134 377 131 386 160 Z" fill="lightgray" class="stroke step8"/>
    <path d="M 237 101 Q 246 111 398 131 Q 408 132 409 141 Q 409 148 386 160 C 364 172 364 172 335 163 Q 277 145 232 134 C 203 127 211 86 237 101 Z" fill="lightgray" class="stroke step8"/>
    <path d="M 739 675 Q 785 690 836 702 Q 875 714 880 719 Q 889 728 884 736 Q 877 748 846 754 Q 822 757 711 717 Q 636 696 576 687 Q 539 678 566 663 Q 611 639 669 658 Q 681 662 695 664 L 739 675 Z" fill="lightgray" class="stroke step8"/>
    <path d="M 770 466 Q 843 476 934 474 Q 958 471 967 479 Q 974 485 967 497 Q 961 510 920 531 Q 896 541 826 524 Q 793 521 771 513 L 713 501 Q 638 485 569 462 Q 556 456 553 461 Q 549 464 552 472 Q 565 521 573 535 Q 580 547 570 559 Q 554 581 528 594 Q 515 600 507 593 Q 501 589 509 572 Q 522 545 516 509 Q 506 472 486 456 Q 473 443 477 430 Q 484 409 501 393 Q 511 381 530 393 Q 584 433 691 452 L 770 466 Z" fill="lightgray" class="stroke step8"/>
    <path d="M 713 376 Q 713 265 713 112 Q 712 78 701 67 Q 689 60 662 68 Q 643 74 617 80 Q 604 84 605 76 Q 605 69 615 58 Q 676 3 712 -40 Q 724 -50 739 -33 Q 782 21 778 105 Q 765 336 770 466 L 771 513 Q 772 562 777 608 Q 784 636 777 647 Q 768 660 739 675 C 713 690 686 693 695 664 Q 711 613 712 591 Q 712 534 713 501 L 713 376 Z" fill="lightgray" class="hide"/>
    <path d="M 691 452 Q 634 305 438 132 Q 426 119 436 117 Q 446 113 458 119 Q 567 173 665 303 Q 701 363 713 376 C 782 464 703 481 691 452 Z" fill="lightgray" class="hide"/></g><g transform="scale(1, -1) translate(0, -900)">
    <style type="text/css">
        .origin {display:none;}
        .hide {display:none;}
        .stroke {fill: #000000;}
        
.step1 {transform: translateX(1024px);}
.step2 {transform: translateX(2048px);}
.step3 {transform: translateX(3072px);}
.step4 {transform: translateX(4096px);}
.step5 {transform: translateX(5120px);}
.step6 {transform: translateX(6144px);}
.step7 {transform: translateX(7168px);}
.step8 {transform: translateX(8192px);}
.step9 {transform: translateX(9216px);}
.step10 {transform: translateX(10240px);}
.step11 {transform: translateX(11264px);}
.step12 {transform: translateX(12288px);}
.step13 {transform: translateX(13312px);}
.step14 {transform: translateX(14336px);}
.step15 {transform: translateX(15360px);}
.step16 {transform: translateX(16384px);}
.step17 {transform: translateX(17408px);}
.step18 {transform: translateX(18432px);}
.step19 {transform: translateX(19456px);}
.step20 {transform: translateX(20480px);}
.step21 {transform: translateX(21504px);}
.step22 {transform: translateX(22528px);}
.step23 {transform: translateX(23552px);}
.step24 {transform: translateX(24576px);}
.step25 {transform: translateX(25600px);}
.step26 {transform: translateX(26624px);}
.step27 {transform: translateX(27648px);}
.step28 {transform: translateX(28672px);}
.step29 {transform: translateX(29696px);}
    </style>

    <path d="M 319 783 Q 346 761 375 733 Q 391 720 408 721 Q 420 722 425 736 Q 429 752 418 785 Q 406 815 312 835 Q 294 839 288 835 Q 282 831 285 817 Q 289 804 319 783 Z" fill="lightgray" class="stroke step9"/>
    <path d="M 80 594 Q 67 593 63 583 Q 60 573 77 560 Q 119 532 165 548 Q 298 599 456 628 Q 475 631 475 639 Q 475 654 455 662 Q 427 674 402 667 Q 174 607 80 594 Z" fill="lightgray" class="stroke step9"/>
    <path d="M 226 487 Q 208 481 232 468 Q 239 462 256 466 Q 332 485 388 497 Q 413 504 402 516 Q 389 529 362 532 Q 335 533 226 487 Z" fill="lightgray" class="stroke step9"/>
    <path d="M 226 379 Q 210 373 232 359 Q 239 355 256 358 Q 335 377 392 389 Q 416 396 406 408 Q 393 423 366 425 Q 347 426 226 379 Z" fill="lightgray" class="stroke step9"/>
    <path d="M 202 259 Q 190 263 164 269 Q 152 272 149 267 Q 142 260 151 245 Q 176 191 193 103 Q 197 78 212 60 Q 230 38 235 53 Q 242 69 237 101 L 232 134 Q 220 213 219 233 C 217 254 217 254 202 259 Z" fill="lightgray" class="stroke step9"/>
    <path d="M 386 160 Q 405 221 424 239 Q 446 264 423 278 Q 404 290 378 307 Q 359 317 341 306 Q 299 279 202 259 C 173 253 190 226 219 233 Q 222 234 224 234 Q 272 247 313 257 Q 341 264 348 253 Q 354 247 335 163 C 328 134 377 131 386 160 Z" fill="lightgray" class="stroke step9"/>
    <path d="M 237 101 Q 246 111 398 131 Q 408 132 409 141 Q 409 148 386 160 C 364 172 364 172 335 163 Q 277 145 232 134 C 203 127 211 86 237 101 Z" fill="lightgray" class="stroke step9"/>
    <path d="M 739 675 Q 785 690 836 702 Q 875 714 880 719 Q 889 728 884 736 Q 877 748 846 754 Q 822 757 711 717 Q 636 696 576 687 Q 539 678 566 663 Q 611 639 669 658 Q 681 662 695 664 L 739 675 Z" fill="lightgray" class="stroke step9"/>
    <path d="M 770 466 Q 843 476 934 474 Q 958 471 967 479 Q 974 485 967 497 Q 961 510 920 531 Q 896 541 826 524 Q 793 521 771 513 L 713 501 Q 638 485 569 462 Q 556 456 553 461 Q 549 464 552 472 Q 565 521 573 535 Q 580 547 570 559 Q 554 581 528 594 Q 515 600 507 593 Q 501 589 509 572 Q 522 545 516 509 Q 506 472 486 456 Q 473 443 477 430 Q 484 409 501 393 Q 511 381 530 393 Q 584 433 691 452 L 770 466 Z" fill="lightgray" class="stroke step9"/>
    <path d="M 713 376 Q 713 265 713 112 Q 712 78 701 67 Q 689 60 662 68 Q 643 74 617 80 Q 604 84 605 76 Q 605 69 615 58 Q 676 3 712 -40 Q 724 -50 739 -33 Q 782 21 778 105 Q 765 336 770 466 L 771 513 Q 772 562 777 608 Q 784 636 777 647 Q 768 660 739 675 C 713 690 686 693 695 664 Q 711 613 712 591 Q 712 534 713 501 L 713 376 Z" fill="lightgray" class="stroke step9"/>
    <path d="M 691 452 Q 634 305 438 132 Q 426 119 436 117 Q 446 113 458 119 Q 567 173 665 303 Q 701 363 713 376 C 782 464 703 481 691 452 Z" fill="lightgray" class="hide"/></g><g transform="scale(1, -1) translate(0, -900)">
    <style type="text/css">
        .origin {display:none;}
        .hide {display:none;}
        .stroke {fill: #000000;}
        
.step1 {transform: translateX(1024px);}
.step2 {transform: translateX(2048px);}
.step3 {transform: translateX(3072px);}
.step4 {transform: translateX(4096px);}
.step5 {transform: translateX(5120px);}
.step6 {transform: translateX(6144px);}
.step7 {transform: translateX(7168px);}
.step8 {transform: translateX(8192px);}
.step9 {transform: translateX(9216px);}
.step10 {transform: translateX(10240px);}
.step11 {transform: translateX(11264px);}
.step12 {transform: translateX(12288px);}
.step13 {transform: translateX(13312px);}
.step14 {transform: translateX(14336px);}
.step15 {transform: translateX(15360px);}
.step16 {transform: translateX(16384px);}
.step17 {transform: translateX(17408px);}
.step18 {transform: translateX(18432px);}
.step19 {transform: translateX(19456px);}
.step20 {transform: translateX(20480px);}
.step21 {transform: translateX(21504px);}
.step22 {transform: translateX(22528px);}
.step23 {transform: translateX(23552px);}
.step24 {transform: translateX(24576px);}
.step25 {transform: translateX(25600px);}
.step26 {transform: translateX(26624px);}
.step27 {transform: translateX(27648px);}
.step28 {transform: translateX(28672px);}
.step29 {transform: translateX(29696px);}
    </style>

    <path d="M 319 783 Q 346 761 375 733 Q 391 720 408 721 Q 420 722 425 736 Q 429 752 418 785 Q 406 815 312 835 Q 294 839 288 835 Q 282 831 285 817 Q 289 804 319 783 Z" fill="lightgray" class="stroke step10"/>
    <path d="M 80 594 Q 67 593 63 583 Q 60 573 77 560 Q 119 532 165 548 Q 298 599 456 628 Q 475 631 475 639 Q 475 654 455 662 Q 427 674 402 667 Q 174 607 80 594 Z" fill="lightgray" class="stroke step10"/>
    <path d="M 226 487 Q 208 481 232 468 Q 239 462 256 466 Q 332 485 388 497 Q 413 504 402 516 Q 389 529 362 532 Q 335 533 226 487 Z" fill="lightgray" class="stroke step10"/>
    <path d="M 226 379 Q 210 373 232 359 Q 239 355 256 358 Q 335 377 392 389 Q 416 396 406 408 Q 393 423 366 425 Q 347 426 226 379 Z" fill="lightgray" class="stroke step10"/>
    <path d="M 202 259 Q 190 263 164 269 Q 152 272 149 267 Q 142 260 151 245 Q 176 191 193 103 Q 197 78 212 60 Q 230 38 235 53 Q 242 69 237 101 L 232 134 Q 220 213 219 233 C 217 254 217 254 202 259 Z" fill="lightgray" class="stroke step10"/>
    <path d="M 386 160 Q 405 221 424 239 Q 446 264 423 278 Q 404 290 378 307 Q 359 317 341 306 Q 299 279 202 259 C 173 253 190 226 219 233 Q 222 234 224 234 Q 272 247 313 257 Q 341 264 348 253 Q 354 247 335 163 C 328 134 377 131 386 160 Z" fill="lightgray" class="stroke step10"/>
    <path d="M 237 101 Q 246 111 398 131 Q 408 132 409 141 Q 409 148 386 160 C 364 172 364 172 335 163 Q 277 145 232 134 C 203 127 211 86 237 101 Z" fill="lightgray" class="stroke step10"/>
    <path d="M 739 675 Q 785 690 836 702 Q 875 714 880 719 Q 889 728 884 736 Q 877 748 846 754 Q 822 757 711 717 Q 636 696 576 687 Q 539 678 566 663 Q 611 639 669 658 Q 681 662 695 664 L 739 675 Z" fill="lightgray" class="stroke step10"/>
    <path d="M 770 466 Q 843 476 934 474 Q 958 471 967 479 Q 974 485 967 497 Q 961 510 920 531 Q 896 541 826 524 Q 793 521 771 513 L 713 501 Q 638 485 569 462 Q 556 456 553 461 Q 549 464 552 472 Q 565 521 573 535 Q 580 547 570 559 Q 554 581 528 594 Q 515 600 507 593 Q 501 589 509 572 Q 522 545 516 509 Q 506 472 486 456 Q 473 443 477 430 Q 484 409 501 393 Q 511 381 530 393 Q 584 433 691 452 L 770 466 Z" fill="lightgray" class="stroke step10"/>
    <path d="M 713 376 Q 713 265 713 112 Q 712 78 701 67 Q 689 60 662 68 Q 643 74 617 80 Q 604 84 605 76 Q 605 69 615 58 Q 676 3 712 -40 Q 724 -50 739 -33 Q 782 21 778 105 Q 765 336 770 466 L 771 513 Q 772 562 777 608 Q 784 636 777 647 Q 768 660 739 675 C 713 690 686 693 695 664 Q 711 613 712 591 Q 712 534 713 501 L 713 376 Z" fill="lightgray" class="stroke step10"/>
    <path d="M 691 452 Q 634 305 438 132 Q 426 119 436 117 Q 446 113 458 119 Q 567 173 665 303 Q 701 363 713 376 C 782 464 703 481 691 452 Z" fill="lightgray" class="stroke step10"/></g></svg>