<svg version="1.1" viewBox="0 0 13312 1024" xmlns="http://www.w3.org/2000/svg">
  
  <g transform="scale(1, -1) translate(0, -900)" class="origin">
    <style type="text/css">
        .origin {display:none;}
        .hide {display:none;}
        .stroke {fill: #000000;}
        
.step1 {transform: translateX(1024px);}
.step2 {transform: translateX(2048px);}
.step3 {transform: translateX(3072px);}
.step4 {transform: translateX(4096px);}
.step5 {transform: translateX(5120px);}
.step6 {transform: translateX(6144px);}
.step7 {transform: translateX(7168px);}
.step8 {transform: translateX(8192px);}
.step9 {transform: translateX(9216px);}
.step10 {transform: translateX(10240px);}
.step11 {transform: translateX(11264px);}
.step12 {transform: translateX(12288px);}
.step13 {transform: translateX(13312px);}
.step14 {transform: translateX(14336px);}
.step15 {transform: translateX(15360px);}
.step16 {transform: translateX(16384px);}
.step17 {transform: translateX(17408px);}
.step18 {transform: translateX(18432px);}
.step19 {transform: translateX(19456px);}
.step20 {transform: translateX(20480px);}
.step21 {transform: translateX(21504px);}
.step22 {transform: translateX(22528px);}
.step23 {transform: translateX(23552px);}
.step24 {transform: translateX(24576px);}
.step25 {transform: translateX(25600px);}
.step26 {transform: translateX(26624px);}
.step27 {transform: translateX(27648px);}
.step28 {transform: translateX(28672px);}
.step29 {transform: translateX(29696px);}
    </style>

    <path d="M 316 756 Q 350 728 385 695 Q 400 682 416 682 Q 428 683 433 697 Q 437 713 428 743 Q 416 782 311 806 Q 295 810 288 807 Q 282 803 284 789 Q 288 779 316 756 Z" fill="lightgray"/>
    <path d="M 77 562 Q 64 561 60 552 Q 57 540 74 528 Q 113 501 181 520 Q 298 560 439 580 Q 458 583 458 591 Q 459 604 440 615 Q 410 627 386 621 Q 166 570 77 562 Z" fill="lightgray"/>
    <path d="M 252 453 Q 221 444 245 432 Q 278 420 349 439 Q 373 446 403 456 Q 419 460 422 464 Q 429 471 424 478 Q 417 488 391 491 Q 372 492 301 465 Q 279 458 252 453 Z" fill="lightgray"/>
    <path d="M 248 359 Q 215 349 241 337 Q 283 324 349 344 Q 373 351 400 359 Q 416 363 418 366 Q 425 375 420 382 Q 413 392 385 395 Q 373 395 298 371 Q 274 364 248 359 Z" fill="lightgray"/>
    <path d="M 216 227 Q 204 233 176 236 Q 164 239 161 234 Q 154 227 163 212 Q 193 154 211 59 Q 215 31 232 11 Q 250 -11 255 5 Q 262 26 254 68 L 253 69 C 249 85 254 72 248 101 Q 233 176 232 199 C 230 221 230 221 216 227 Z" fill="lightgray"/>
    <path d="M 395 121 Q 414 188 437 208 Q 459 235 436 249 Q 417 261 388 279 Q 370 288 324 263 Q 278 242 216 227 C 187 220 203 191 232 199 Q 238 200 246 203 Q 289 216 327 225 Q 352 232 359 222 Q 365 216 358 188 Q 351 161 342 130 C 334 101 387 92 395 121 Z" fill="lightgray"/>
    <path d="M 253 69 Q 260 68 272 71 Q 312 81 402 93 Q 412 94 413 104 Q 413 110 395 121 L 342 130 Q 338 130 334 128 Q 286 112 248 101 C 219 93 223 70 253 69 Z" fill="lightgray"/>
    <path d="M 575 630 Q 645 645 763 680 Q 790 689 819 690 Q 846 691 841 715 Q 834 739 812 764 Q 793 788 778 790 Q 765 794 763 778 Q 756 744 664 697 Q 621 675 576 652 C 549 638 546 624 575 630 Z" fill="lightgray"/>
    <path d="M 576 652 Q 580 709 591 736 Q 603 767 583 783 Q 531 819 515 814 Q 500 807 509 790 Q 530 753 528 698 Q 528 536 551 503 Q 576 458 658 446 Q 712 439 801 449 Q 876 461 904 480 Q 932 493 920 522 Q 907 555 897 612 Q 896 628 890 634 Q 883 640 877 619 Q 852 553 839 543 Q 830 528 801 520 Q 684 490 616 510 Q 592 517 587 531 Q 575 561 575 630 L 576 652 Z" fill="lightgray"/>
    <path d="M 563 348 Q 545 366 511 363 Q 498 359 504 347 Q 543 275 518 126 Q 503 72 506 62 Q 510 35 527 16 Q 534 3 544 9 Q 554 18 564 48 L 571 83 Q 574 104 574 200 L 574 226 Q 574 296 576 317 C 577 337 577 337 563 348 Z" fill="lightgray"/>
    <path d="M 734 57 Q 765 15 787 -22 Q 797 -41 808 -41 Q 826 -40 842 -5 Q 861 35 859 84 Q 853 153 847 281 Q 846 312 864 334 Q 874 347 864 358 Q 845 377 792 403 Q 774 412 759 403 Q 699 375 563 348 C 534 342 546 312 576 317 Q 606 320 743 352 Q 765 356 777 349 Q 798 328 788 152 Q 788 103 784 88 Q 780 72 767 75 C 742 59 733 59 734 57 Z" fill="lightgray"/>
    <path d="M 574 200 Q 602 196 681 204 Q 699 208 720 211 Q 739 215 742 217 Q 749 224 746 230 Q 740 240 717 246 Q 704 249 627 233 Q 600 229 574 226 C 544 223 544 203 574 200 Z" fill="lightgray"/>
    <path d="M 564 48 Q 571 47 583 49 Q 632 56 734 57 C 764 57 781 58 767 75 Q 761 84 742 97 Q 726 107 696 102 Q 626 89 571 83 C 541 80 534 49 564 48 Z" fill="lightgray"/></g>
<g transform="scale(1, -1) translate(0, -900)">
    <style type="text/css">
        .origin {display:none;}
        .hide {display:none;}
        .stroke {fill: #000000;}
        
.step1 {transform: translateX(1024px);}
.step2 {transform: translateX(2048px);}
.step3 {transform: translateX(3072px);}
.step4 {transform: translateX(4096px);}
.step5 {transform: translateX(5120px);}
.step6 {transform: translateX(6144px);}
.step7 {transform: translateX(7168px);}
.step8 {transform: translateX(8192px);}
.step9 {transform: translateX(9216px);}
.step10 {transform: translateX(10240px);}
.step11 {transform: translateX(11264px);}
.step12 {transform: translateX(12288px);}
.step13 {transform: translateX(13312px);}
.step14 {transform: translateX(14336px);}
.step15 {transform: translateX(15360px);}
.step16 {transform: translateX(16384px);}
.step17 {transform: translateX(17408px);}
.step18 {transform: translateX(18432px);}
.step19 {transform: translateX(19456px);}
.step20 {transform: translateX(20480px);}
.step21 {transform: translateX(21504px);}
.step22 {transform: translateX(22528px);}
.step23 {transform: translateX(23552px);}
.step24 {transform: translateX(24576px);}
.step25 {transform: translateX(25600px);}
.step26 {transform: translateX(26624px);}
.step27 {transform: translateX(27648px);}
.step28 {transform: translateX(28672px);}
.step29 {transform: translateX(29696px);}
    </style>

    <path d="M 316 756 Q 350 728 385 695 Q 400 682 416 682 Q 428 683 433 697 Q 437 713 428 743 Q 416 782 311 806 Q 295 810 288 807 Q 282 803 284 789 Q 288 779 316 756 Z" fill="lightgray" class="stroke step0"/>
    <path d="M 77 562 Q 64 561 60 552 Q 57 540 74 528 Q 113 501 181 520 Q 298 560 439 580 Q 458 583 458 591 Q 459 604 440 615 Q 410 627 386 621 Q 166 570 77 562 Z" fill="lightgray" class="hide"/>
    <path d="M 252 453 Q 221 444 245 432 Q 278 420 349 439 Q 373 446 403 456 Q 419 460 422 464 Q 429 471 424 478 Q 417 488 391 491 Q 372 492 301 465 Q 279 458 252 453 Z" fill="lightgray" class="hide"/>
    <path d="M 248 359 Q 215 349 241 337 Q 283 324 349 344 Q 373 351 400 359 Q 416 363 418 366 Q 425 375 420 382 Q 413 392 385 395 Q 373 395 298 371 Q 274 364 248 359 Z" fill="lightgray" class="hide"/>
    <path d="M 216 227 Q 204 233 176 236 Q 164 239 161 234 Q 154 227 163 212 Q 193 154 211 59 Q 215 31 232 11 Q 250 -11 255 5 Q 262 26 254 68 L 253 69 C 249 85 254 72 248 101 Q 233 176 232 199 C 230 221 230 221 216 227 Z" fill="lightgray" class="hide"/>
    <path d="M 395 121 Q 414 188 437 208 Q 459 235 436 249 Q 417 261 388 279 Q 370 288 324 263 Q 278 242 216 227 C 187 220 203 191 232 199 Q 238 200 246 203 Q 289 216 327 225 Q 352 232 359 222 Q 365 216 358 188 Q 351 161 342 130 C 334 101 387 92 395 121 Z" fill="lightgray" class="hide"/>
    <path d="M 253 69 Q 260 68 272 71 Q 312 81 402 93 Q 412 94 413 104 Q 413 110 395 121 L 342 130 Q 338 130 334 128 Q 286 112 248 101 C 219 93 223 70 253 69 Z" fill="lightgray" class="hide"/>
    <path d="M 575 630 Q 645 645 763 680 Q 790 689 819 690 Q 846 691 841 715 Q 834 739 812 764 Q 793 788 778 790 Q 765 794 763 778 Q 756 744 664 697 Q 621 675 576 652 C 549 638 546 624 575 630 Z" fill="lightgray" class="hide"/>
    <path d="M 576 652 Q 580 709 591 736 Q 603 767 583 783 Q 531 819 515 814 Q 500 807 509 790 Q 530 753 528 698 Q 528 536 551 503 Q 576 458 658 446 Q 712 439 801 449 Q 876 461 904 480 Q 932 493 920 522 Q 907 555 897 612 Q 896 628 890 634 Q 883 640 877 619 Q 852 553 839 543 Q 830 528 801 520 Q 684 490 616 510 Q 592 517 587 531 Q 575 561 575 630 L 576 652 Z" fill="lightgray" class="hide"/>
    <path d="M 563 348 Q 545 366 511 363 Q 498 359 504 347 Q 543 275 518 126 Q 503 72 506 62 Q 510 35 527 16 Q 534 3 544 9 Q 554 18 564 48 L 571 83 Q 574 104 574 200 L 574 226 Q 574 296 576 317 C 577 337 577 337 563 348 Z" fill="lightgray" class="hide"/>
    <path d="M 734 57 Q 765 15 787 -22 Q 797 -41 808 -41 Q 826 -40 842 -5 Q 861 35 859 84 Q 853 153 847 281 Q 846 312 864 334 Q 874 347 864 358 Q 845 377 792 403 Q 774 412 759 403 Q 699 375 563 348 C 534 342 546 312 576 317 Q 606 320 743 352 Q 765 356 777 349 Q 798 328 788 152 Q 788 103 784 88 Q 780 72 767 75 C 742 59 733 59 734 57 Z" fill="lightgray" class="hide"/>
    <path d="M 574 200 Q 602 196 681 204 Q 699 208 720 211 Q 739 215 742 217 Q 749 224 746 230 Q 740 240 717 246 Q 704 249 627 233 Q 600 229 574 226 C 544 223 544 203 574 200 Z" fill="lightgray" class="hide"/>
    <path d="M 564 48 Q 571 47 583 49 Q 632 56 734 57 C 764 57 781 58 767 75 Q 761 84 742 97 Q 726 107 696 102 Q 626 89 571 83 C 541 80 534 49 564 48 Z" fill="lightgray" class="hide"/></g><g transform="scale(1, -1) translate(0, -900)">
    <style type="text/css">
        .origin {display:none;}
        .hide {display:none;}
        .stroke {fill: #000000;}
        
.step1 {transform: translateX(1024px);}
.step2 {transform: translateX(2048px);}
.step3 {transform: translateX(3072px);}
.step4 {transform: translateX(4096px);}
.step5 {transform: translateX(5120px);}
.step6 {transform: translateX(6144px);}
.step7 {transform: translateX(7168px);}
.step8 {transform: translateX(8192px);}
.step9 {transform: translateX(9216px);}
.step10 {transform: translateX(10240px);}
.step11 {transform: translateX(11264px);}
.step12 {transform: translateX(12288px);}
.step13 {transform: translateX(13312px);}
.step14 {transform: translateX(14336px);}
.step15 {transform: translateX(15360px);}
.step16 {transform: translateX(16384px);}
.step17 {transform: translateX(17408px);}
.step18 {transform: translateX(18432px);}
.step19 {transform: translateX(19456px);}
.step20 {transform: translateX(20480px);}
.step21 {transform: translateX(21504px);}
.step22 {transform: translateX(22528px);}
.step23 {transform: translateX(23552px);}
.step24 {transform: translateX(24576px);}
.step25 {transform: translateX(25600px);}
.step26 {transform: translateX(26624px);}
.step27 {transform: translateX(27648px);}
.step28 {transform: translateX(28672px);}
.step29 {transform: translateX(29696px);}
    </style>

    <path d="M 316 756 Q 350 728 385 695 Q 400 682 416 682 Q 428 683 433 697 Q 437 713 428 743 Q 416 782 311 806 Q 295 810 288 807 Q 282 803 284 789 Q 288 779 316 756 Z" fill="lightgray" class="stroke step1"/>
    <path d="M 77 562 Q 64 561 60 552 Q 57 540 74 528 Q 113 501 181 520 Q 298 560 439 580 Q 458 583 458 591 Q 459 604 440 615 Q 410 627 386 621 Q 166 570 77 562 Z" fill="lightgray" class="stroke step1"/>
    <path d="M 252 453 Q 221 444 245 432 Q 278 420 349 439 Q 373 446 403 456 Q 419 460 422 464 Q 429 471 424 478 Q 417 488 391 491 Q 372 492 301 465 Q 279 458 252 453 Z" fill="lightgray" class="hide"/>
    <path d="M 248 359 Q 215 349 241 337 Q 283 324 349 344 Q 373 351 400 359 Q 416 363 418 366 Q 425 375 420 382 Q 413 392 385 395 Q 373 395 298 371 Q 274 364 248 359 Z" fill="lightgray" class="hide"/>
    <path d="M 216 227 Q 204 233 176 236 Q 164 239 161 234 Q 154 227 163 212 Q 193 154 211 59 Q 215 31 232 11 Q 250 -11 255 5 Q 262 26 254 68 L 253 69 C 249 85 254 72 248 101 Q 233 176 232 199 C 230 221 230 221 216 227 Z" fill="lightgray" class="hide"/>
    <path d="M 395 121 Q 414 188 437 208 Q 459 235 436 249 Q 417 261 388 279 Q 370 288 324 263 Q 278 242 216 227 C 187 220 203 191 232 199 Q 238 200 246 203 Q 289 216 327 225 Q 352 232 359 222 Q 365 216 358 188 Q 351 161 342 130 C 334 101 387 92 395 121 Z" fill="lightgray" class="hide"/>
    <path d="M 253 69 Q 260 68 272 71 Q 312 81 402 93 Q 412 94 413 104 Q 413 110 395 121 L 342 130 Q 338 130 334 128 Q 286 112 248 101 C 219 93 223 70 253 69 Z" fill="lightgray" class="hide"/>
    <path d="M 575 630 Q 645 645 763 680 Q 790 689 819 690 Q 846 691 841 715 Q 834 739 812 764 Q 793 788 778 790 Q 765 794 763 778 Q 756 744 664 697 Q 621 675 576 652 C 549 638 546 624 575 630 Z" fill="lightgray" class="hide"/>
    <path d="M 576 652 Q 580 709 591 736 Q 603 767 583 783 Q 531 819 515 814 Q 500 807 509 790 Q 530 753 528 698 Q 528 536 551 503 Q 576 458 658 446 Q 712 439 801 449 Q 876 461 904 480 Q 932 493 920 522 Q 907 555 897 612 Q 896 628 890 634 Q 883 640 877 619 Q 852 553 839 543 Q 830 528 801 520 Q 684 490 616 510 Q 592 517 587 531 Q 575 561 575 630 L 576 652 Z" fill="lightgray" class="hide"/>
    <path d="M 563 348 Q 545 366 511 363 Q 498 359 504 347 Q 543 275 518 126 Q 503 72 506 62 Q 510 35 527 16 Q 534 3 544 9 Q 554 18 564 48 L 571 83 Q 574 104 574 200 L 574 226 Q 574 296 576 317 C 577 337 577 337 563 348 Z" fill="lightgray" class="hide"/>
    <path d="M 734 57 Q 765 15 787 -22 Q 797 -41 808 -41 Q 826 -40 842 -5 Q 861 35 859 84 Q 853 153 847 281 Q 846 312 864 334 Q 874 347 864 358 Q 845 377 792 403 Q 774 412 759 403 Q 699 375 563 348 C 534 342 546 312 576 317 Q 606 320 743 352 Q 765 356 777 349 Q 798 328 788 152 Q 788 103 784 88 Q 780 72 767 75 C 742 59 733 59 734 57 Z" fill="lightgray" class="hide"/>
    <path d="M 574 200 Q 602 196 681 204 Q 699 208 720 211 Q 739 215 742 217 Q 749 224 746 230 Q 740 240 717 246 Q 704 249 627 233 Q 600 229 574 226 C 544 223 544 203 574 200 Z" fill="lightgray" class="hide"/>
    <path d="M 564 48 Q 571 47 583 49 Q 632 56 734 57 C 764 57 781 58 767 75 Q 761 84 742 97 Q 726 107 696 102 Q 626 89 571 83 C 541 80 534 49 564 48 Z" fill="lightgray" class="hide"/></g><g transform="scale(1, -1) translate(0, -900)">
    <style type="text/css">
        .origin {display:none;}
        .hide {display:none;}
        .stroke {fill: #000000;}
        
.step1 {transform: translateX(1024px);}
.step2 {transform: translateX(2048px);}
.step3 {transform: translateX(3072px);}
.step4 {transform: translateX(4096px);}
.step5 {transform: translateX(5120px);}
.step6 {transform: translateX(6144px);}
.step7 {transform: translateX(7168px);}
.step8 {transform: translateX(8192px);}
.step9 {transform: translateX(9216px);}
.step10 {transform: translateX(10240px);}
.step11 {transform: translateX(11264px);}
.step12 {transform: translateX(12288px);}
.step13 {transform: translateX(13312px);}
.step14 {transform: translateX(14336px);}
.step15 {transform: translateX(15360px);}
.step16 {transform: translateX(16384px);}
.step17 {transform: translateX(17408px);}
.step18 {transform: translateX(18432px);}
.step19 {transform: translateX(19456px);}
.step20 {transform: translateX(20480px);}
.step21 {transform: translateX(21504px);}
.step22 {transform: translateX(22528px);}
.step23 {transform: translateX(23552px);}
.step24 {transform: translateX(24576px);}
.step25 {transform: translateX(25600px);}
.step26 {transform: translateX(26624px);}
.step27 {transform: translateX(27648px);}
.step28 {transform: translateX(28672px);}
.step29 {transform: translateX(29696px);}
    </style>

    <path d="M 316 756 Q 350 728 385 695 Q 400 682 416 682 Q 428 683 433 697 Q 437 713 428 743 Q 416 782 311 806 Q 295 810 288 807 Q 282 803 284 789 Q 288 779 316 756 Z" fill="lightgray" class="stroke step2"/>
    <path d="M 77 562 Q 64 561 60 552 Q 57 540 74 528 Q 113 501 181 520 Q 298 560 439 580 Q 458 583 458 591 Q 459 604 440 615 Q 410 627 386 621 Q 166 570 77 562 Z" fill="lightgray" class="stroke step2"/>
    <path d="M 252 453 Q 221 444 245 432 Q 278 420 349 439 Q 373 446 403 456 Q 419 460 422 464 Q 429 471 424 478 Q 417 488 391 491 Q 372 492 301 465 Q 279 458 252 453 Z" fill="lightgray" class="stroke step2"/>
    <path d="M 248 359 Q 215 349 241 337 Q 283 324 349 344 Q 373 351 400 359 Q 416 363 418 366 Q 425 375 420 382 Q 413 392 385 395 Q 373 395 298 371 Q 274 364 248 359 Z" fill="lightgray" class="hide"/>
    <path d="M 216 227 Q 204 233 176 236 Q 164 239 161 234 Q 154 227 163 212 Q 193 154 211 59 Q 215 31 232 11 Q 250 -11 255 5 Q 262 26 254 68 L 253 69 C 249 85 254 72 248 101 Q 233 176 232 199 C 230 221 230 221 216 227 Z" fill="lightgray" class="hide"/>
    <path d="M 395 121 Q 414 188 437 208 Q 459 235 436 249 Q 417 261 388 279 Q 370 288 324 263 Q 278 242 216 227 C 187 220 203 191 232 199 Q 238 200 246 203 Q 289 216 327 225 Q 352 232 359 222 Q 365 216 358 188 Q 351 161 342 130 C 334 101 387 92 395 121 Z" fill="lightgray" class="hide"/>
    <path d="M 253 69 Q 260 68 272 71 Q 312 81 402 93 Q 412 94 413 104 Q 413 110 395 121 L 342 130 Q 338 130 334 128 Q 286 112 248 101 C 219 93 223 70 253 69 Z" fill="lightgray" class="hide"/>
    <path d="M 575 630 Q 645 645 763 680 Q 790 689 819 690 Q 846 691 841 715 Q 834 739 812 764 Q 793 788 778 790 Q 765 794 763 778 Q 756 744 664 697 Q 621 675 576 652 C 549 638 546 624 575 630 Z" fill="lightgray" class="hide"/>
    <path d="M 576 652 Q 580 709 591 736 Q 603 767 583 783 Q 531 819 515 814 Q 500 807 509 790 Q 530 753 528 698 Q 528 536 551 503 Q 576 458 658 446 Q 712 439 801 449 Q 876 461 904 480 Q 932 493 920 522 Q 907 555 897 612 Q 896 628 890 634 Q 883 640 877 619 Q 852 553 839 543 Q 830 528 801 520 Q 684 490 616 510 Q 592 517 587 531 Q 575 561 575 630 L 576 652 Z" fill="lightgray" class="hide"/>
    <path d="M 563 348 Q 545 366 511 363 Q 498 359 504 347 Q 543 275 518 126 Q 503 72 506 62 Q 510 35 527 16 Q 534 3 544 9 Q 554 18 564 48 L 571 83 Q 574 104 574 200 L 574 226 Q 574 296 576 317 C 577 337 577 337 563 348 Z" fill="lightgray" class="hide"/>
    <path d="M 734 57 Q 765 15 787 -22 Q 797 -41 808 -41 Q 826 -40 842 -5 Q 861 35 859 84 Q 853 153 847 281 Q 846 312 864 334 Q 874 347 864 358 Q 845 377 792 403 Q 774 412 759 403 Q 699 375 563 348 C 534 342 546 312 576 317 Q 606 320 743 352 Q 765 356 777 349 Q 798 328 788 152 Q 788 103 784 88 Q 780 72 767 75 C 742 59 733 59 734 57 Z" fill="lightgray" class="hide"/>
    <path d="M 574 200 Q 602 196 681 204 Q 699 208 720 211 Q 739 215 742 217 Q 749 224 746 230 Q 740 240 717 246 Q 704 249 627 233 Q 600 229 574 226 C 544 223 544 203 574 200 Z" fill="lightgray" class="hide"/>
    <path d="M 564 48 Q 571 47 583 49 Q 632 56 734 57 C 764 57 781 58 767 75 Q 761 84 742 97 Q 726 107 696 102 Q 626 89 571 83 C 541 80 534 49 564 48 Z" fill="lightgray" class="hide"/></g><g transform="scale(1, -1) translate(0, -900)">
    <style type="text/css">
        .origin {display:none;}
        .hide {display:none;}
        .stroke {fill: #000000;}
        
.step1 {transform: translateX(1024px);}
.step2 {transform: translateX(2048px);}
.step3 {transform: translateX(3072px);}
.step4 {transform: translateX(4096px);}
.step5 {transform: translateX(5120px);}
.step6 {transform: translateX(6144px);}
.step7 {transform: translateX(7168px);}
.step8 {transform: translateX(8192px);}
.step9 {transform: translateX(9216px);}
.step10 {transform: translateX(10240px);}
.step11 {transform: translateX(11264px);}
.step12 {transform: translateX(12288px);}
.step13 {transform: translateX(13312px);}
.step14 {transform: translateX(14336px);}
.step15 {transform: translateX(15360px);}
.step16 {transform: translateX(16384px);}
.step17 {transform: translateX(17408px);}
.step18 {transform: translateX(18432px);}
.step19 {transform: translateX(19456px);}
.step20 {transform: translateX(20480px);}
.step21 {transform: translateX(21504px);}
.step22 {transform: translateX(22528px);}
.step23 {transform: translateX(23552px);}
.step24 {transform: translateX(24576px);}
.step25 {transform: translateX(25600px);}
.step26 {transform: translateX(26624px);}
.step27 {transform: translateX(27648px);}
.step28 {transform: translateX(28672px);}
.step29 {transform: translateX(29696px);}
    </style>

    <path d="M 316 756 Q 350 728 385 695 Q 400 682 416 682 Q 428 683 433 697 Q 437 713 428 743 Q 416 782 311 806 Q 295 810 288 807 Q 282 803 284 789 Q 288 779 316 756 Z" fill="lightgray" class="stroke step3"/>
    <path d="M 77 562 Q 64 561 60 552 Q 57 540 74 528 Q 113 501 181 520 Q 298 560 439 580 Q 458 583 458 591 Q 459 604 440 615 Q 410 627 386 621 Q 166 570 77 562 Z" fill="lightgray" class="stroke step3"/>
    <path d="M 252 453 Q 221 444 245 432 Q 278 420 349 439 Q 373 446 403 456 Q 419 460 422 464 Q 429 471 424 478 Q 417 488 391 491 Q 372 492 301 465 Q 279 458 252 453 Z" fill="lightgray" class="stroke step3"/>
    <path d="M 248 359 Q 215 349 241 337 Q 283 324 349 344 Q 373 351 400 359 Q 416 363 418 366 Q 425 375 420 382 Q 413 392 385 395 Q 373 395 298 371 Q 274 364 248 359 Z" fill="lightgray" class="stroke step3"/>
    <path d="M 216 227 Q 204 233 176 236 Q 164 239 161 234 Q 154 227 163 212 Q 193 154 211 59 Q 215 31 232 11 Q 250 -11 255 5 Q 262 26 254 68 L 253 69 C 249 85 254 72 248 101 Q 233 176 232 199 C 230 221 230 221 216 227 Z" fill="lightgray" class="hide"/>
    <path d="M 395 121 Q 414 188 437 208 Q 459 235 436 249 Q 417 261 388 279 Q 370 288 324 263 Q 278 242 216 227 C 187 220 203 191 232 199 Q 238 200 246 203 Q 289 216 327 225 Q 352 232 359 222 Q 365 216 358 188 Q 351 161 342 130 C 334 101 387 92 395 121 Z" fill="lightgray" class="hide"/>
    <path d="M 253 69 Q 260 68 272 71 Q 312 81 402 93 Q 412 94 413 104 Q 413 110 395 121 L 342 130 Q 338 130 334 128 Q 286 112 248 101 C 219 93 223 70 253 69 Z" fill="lightgray" class="hide"/>
    <path d="M 575 630 Q 645 645 763 680 Q 790 689 819 690 Q 846 691 841 715 Q 834 739 812 764 Q 793 788 778 790 Q 765 794 763 778 Q 756 744 664 697 Q 621 675 576 652 C 549 638 546 624 575 630 Z" fill="lightgray" class="hide"/>
    <path d="M 576 652 Q 580 709 591 736 Q 603 767 583 783 Q 531 819 515 814 Q 500 807 509 790 Q 530 753 528 698 Q 528 536 551 503 Q 576 458 658 446 Q 712 439 801 449 Q 876 461 904 480 Q 932 493 920 522 Q 907 555 897 612 Q 896 628 890 634 Q 883 640 877 619 Q 852 553 839 543 Q 830 528 801 520 Q 684 490 616 510 Q 592 517 587 531 Q 575 561 575 630 L 576 652 Z" fill="lightgray" class="hide"/>
    <path d="M 563 348 Q 545 366 511 363 Q 498 359 504 347 Q 543 275 518 126 Q 503 72 506 62 Q 510 35 527 16 Q 534 3 544 9 Q 554 18 564 48 L 571 83 Q 574 104 574 200 L 574 226 Q 574 296 576 317 C 577 337 577 337 563 348 Z" fill="lightgray" class="hide"/>
    <path d="M 734 57 Q 765 15 787 -22 Q 797 -41 808 -41 Q 826 -40 842 -5 Q 861 35 859 84 Q 853 153 847 281 Q 846 312 864 334 Q 874 347 864 358 Q 845 377 792 403 Q 774 412 759 403 Q 699 375 563 348 C 534 342 546 312 576 317 Q 606 320 743 352 Q 765 356 777 349 Q 798 328 788 152 Q 788 103 784 88 Q 780 72 767 75 C 742 59 733 59 734 57 Z" fill="lightgray" class="hide"/>
    <path d="M 574 200 Q 602 196 681 204 Q 699 208 720 211 Q 739 215 742 217 Q 749 224 746 230 Q 740 240 717 246 Q 704 249 627 233 Q 600 229 574 226 C 544 223 544 203 574 200 Z" fill="lightgray" class="hide"/>
    <path d="M 564 48 Q 571 47 583 49 Q 632 56 734 57 C 764 57 781 58 767 75 Q 761 84 742 97 Q 726 107 696 102 Q 626 89 571 83 C 541 80 534 49 564 48 Z" fill="lightgray" class="hide"/></g><g transform="scale(1, -1) translate(0, -900)">
    <style type="text/css">
        .origin {display:none;}
        .hide {display:none;}
        .stroke {fill: #000000;}
        
.step1 {transform: translateX(1024px);}
.step2 {transform: translateX(2048px);}
.step3 {transform: translateX(3072px);}
.step4 {transform: translateX(4096px);}
.step5 {transform: translateX(5120px);}
.step6 {transform: translateX(6144px);}
.step7 {transform: translateX(7168px);}
.step8 {transform: translateX(8192px);}
.step9 {transform: translateX(9216px);}
.step10 {transform: translateX(10240px);}
.step11 {transform: translateX(11264px);}
.step12 {transform: translateX(12288px);}
.step13 {transform: translateX(13312px);}
.step14 {transform: translateX(14336px);}
.step15 {transform: translateX(15360px);}
.step16 {transform: translateX(16384px);}
.step17 {transform: translateX(17408px);}
.step18 {transform: translateX(18432px);}
.step19 {transform: translateX(19456px);}
.step20 {transform: translateX(20480px);}
.step21 {transform: translateX(21504px);}
.step22 {transform: translateX(22528px);}
.step23 {transform: translateX(23552px);}
.step24 {transform: translateX(24576px);}
.step25 {transform: translateX(25600px);}
.step26 {transform: translateX(26624px);}
.step27 {transform: translateX(27648px);}
.step28 {transform: translateX(28672px);}
.step29 {transform: translateX(29696px);}
    </style>

    <path d="M 316 756 Q 350 728 385 695 Q 400 682 416 682 Q 428 683 433 697 Q 437 713 428 743 Q 416 782 311 806 Q 295 810 288 807 Q 282 803 284 789 Q 288 779 316 756 Z" fill="lightgray" class="stroke step4"/>
    <path d="M 77 562 Q 64 561 60 552 Q 57 540 74 528 Q 113 501 181 520 Q 298 560 439 580 Q 458 583 458 591 Q 459 604 440 615 Q 410 627 386 621 Q 166 570 77 562 Z" fill="lightgray" class="stroke step4"/>
    <path d="M 252 453 Q 221 444 245 432 Q 278 420 349 439 Q 373 446 403 456 Q 419 460 422 464 Q 429 471 424 478 Q 417 488 391 491 Q 372 492 301 465 Q 279 458 252 453 Z" fill="lightgray" class="stroke step4"/>
    <path d="M 248 359 Q 215 349 241 337 Q 283 324 349 344 Q 373 351 400 359 Q 416 363 418 366 Q 425 375 420 382 Q 413 392 385 395 Q 373 395 298 371 Q 274 364 248 359 Z" fill="lightgray" class="stroke step4"/>
    <path d="M 216 227 Q 204 233 176 236 Q 164 239 161 234 Q 154 227 163 212 Q 193 154 211 59 Q 215 31 232 11 Q 250 -11 255 5 Q 262 26 254 68 L 253 69 C 249 85 254 72 248 101 Q 233 176 232 199 C 230 221 230 221 216 227 Z" fill="lightgray" class="stroke step4"/>
    <path d="M 395 121 Q 414 188 437 208 Q 459 235 436 249 Q 417 261 388 279 Q 370 288 324 263 Q 278 242 216 227 C 187 220 203 191 232 199 Q 238 200 246 203 Q 289 216 327 225 Q 352 232 359 222 Q 365 216 358 188 Q 351 161 342 130 C 334 101 387 92 395 121 Z" fill="lightgray" class="hide"/>
    <path d="M 253 69 Q 260 68 272 71 Q 312 81 402 93 Q 412 94 413 104 Q 413 110 395 121 L 342 130 Q 338 130 334 128 Q 286 112 248 101 C 219 93 223 70 253 69 Z" fill="lightgray" class="hide"/>
    <path d="M 575 630 Q 645 645 763 680 Q 790 689 819 690 Q 846 691 841 715 Q 834 739 812 764 Q 793 788 778 790 Q 765 794 763 778 Q 756 744 664 697 Q 621 675 576 652 C 549 638 546 624 575 630 Z" fill="lightgray" class="hide"/>
    <path d="M 576 652 Q 580 709 591 736 Q 603 767 583 783 Q 531 819 515 814 Q 500 807 509 790 Q 530 753 528 698 Q 528 536 551 503 Q 576 458 658 446 Q 712 439 801 449 Q 876 461 904 480 Q 932 493 920 522 Q 907 555 897 612 Q 896 628 890 634 Q 883 640 877 619 Q 852 553 839 543 Q 830 528 801 520 Q 684 490 616 510 Q 592 517 587 531 Q 575 561 575 630 L 576 652 Z" fill="lightgray" class="hide"/>
    <path d="M 563 348 Q 545 366 511 363 Q 498 359 504 347 Q 543 275 518 126 Q 503 72 506 62 Q 510 35 527 16 Q 534 3 544 9 Q 554 18 564 48 L 571 83 Q 574 104 574 200 L 574 226 Q 574 296 576 317 C 577 337 577 337 563 348 Z" fill="lightgray" class="hide"/>
    <path d="M 734 57 Q 765 15 787 -22 Q 797 -41 808 -41 Q 826 -40 842 -5 Q 861 35 859 84 Q 853 153 847 281 Q 846 312 864 334 Q 874 347 864 358 Q 845 377 792 403 Q 774 412 759 403 Q 699 375 563 348 C 534 342 546 312 576 317 Q 606 320 743 352 Q 765 356 777 349 Q 798 328 788 152 Q 788 103 784 88 Q 780 72 767 75 C 742 59 733 59 734 57 Z" fill="lightgray" class="hide"/>
    <path d="M 574 200 Q 602 196 681 204 Q 699 208 720 211 Q 739 215 742 217 Q 749 224 746 230 Q 740 240 717 246 Q 704 249 627 233 Q 600 229 574 226 C 544 223 544 203 574 200 Z" fill="lightgray" class="hide"/>
    <path d="M 564 48 Q 571 47 583 49 Q 632 56 734 57 C 764 57 781 58 767 75 Q 761 84 742 97 Q 726 107 696 102 Q 626 89 571 83 C 541 80 534 49 564 48 Z" fill="lightgray" class="hide"/></g><g transform="scale(1, -1) translate(0, -900)">
    <style type="text/css">
        .origin {display:none;}
        .hide {display:none;}
        .stroke {fill: #000000;}
        
.step1 {transform: translateX(1024px);}
.step2 {transform: translateX(2048px);}
.step3 {transform: translateX(3072px);}
.step4 {transform: translateX(4096px);}
.step5 {transform: translateX(5120px);}
.step6 {transform: translateX(6144px);}
.step7 {transform: translateX(7168px);}
.step8 {transform: translateX(8192px);}
.step9 {transform: translateX(9216px);}
.step10 {transform: translateX(10240px);}
.step11 {transform: translateX(11264px);}
.step12 {transform: translateX(12288px);}
.step13 {transform: translateX(13312px);}
.step14 {transform: translateX(14336px);}
.step15 {transform: translateX(15360px);}
.step16 {transform: translateX(16384px);}
.step17 {transform: translateX(17408px);}
.step18 {transform: translateX(18432px);}
.step19 {transform: translateX(19456px);}
.step20 {transform: translateX(20480px);}
.step21 {transform: translateX(21504px);}
.step22 {transform: translateX(22528px);}
.step23 {transform: translateX(23552px);}
.step24 {transform: translateX(24576px);}
.step25 {transform: translateX(25600px);}
.step26 {transform: translateX(26624px);}
.step27 {transform: translateX(27648px);}
.step28 {transform: translateX(28672px);}
.step29 {transform: translateX(29696px);}
    </style>

    <path d="M 316 756 Q 350 728 385 695 Q 400 682 416 682 Q 428 683 433 697 Q 437 713 428 743 Q 416 782 311 806 Q 295 810 288 807 Q 282 803 284 789 Q 288 779 316 756 Z" fill="lightgray" class="stroke step5"/>
    <path d="M 77 562 Q 64 561 60 552 Q 57 540 74 528 Q 113 501 181 520 Q 298 560 439 580 Q 458 583 458 591 Q 459 604 440 615 Q 410 627 386 621 Q 166 570 77 562 Z" fill="lightgray" class="stroke step5"/>
    <path d="M 252 453 Q 221 444 245 432 Q 278 420 349 439 Q 373 446 403 456 Q 419 460 422 464 Q 429 471 424 478 Q 417 488 391 491 Q 372 492 301 465 Q 279 458 252 453 Z" fill="lightgray" class="stroke step5"/>
    <path d="M 248 359 Q 215 349 241 337 Q 283 324 349 344 Q 373 351 400 359 Q 416 363 418 366 Q 425 375 420 382 Q 413 392 385 395 Q 373 395 298 371 Q 274 364 248 359 Z" fill="lightgray" class="stroke step5"/>
    <path d="M 216 227 Q 204 233 176 236 Q 164 239 161 234 Q 154 227 163 212 Q 193 154 211 59 Q 215 31 232 11 Q 250 -11 255 5 Q 262 26 254 68 L 253 69 C 249 85 254 72 248 101 Q 233 176 232 199 C 230 221 230 221 216 227 Z" fill="lightgray" class="stroke step5"/>
    <path d="M 395 121 Q 414 188 437 208 Q 459 235 436 249 Q 417 261 388 279 Q 370 288 324 263 Q 278 242 216 227 C 187 220 203 191 232 199 Q 238 200 246 203 Q 289 216 327 225 Q 352 232 359 222 Q 365 216 358 188 Q 351 161 342 130 C 334 101 387 92 395 121 Z" fill="lightgray" class="stroke step5"/>
    <path d="M 253 69 Q 260 68 272 71 Q 312 81 402 93 Q 412 94 413 104 Q 413 110 395 121 L 342 130 Q 338 130 334 128 Q 286 112 248 101 C 219 93 223 70 253 69 Z" fill="lightgray" class="hide"/>
    <path d="M 575 630 Q 645 645 763 680 Q 790 689 819 690 Q 846 691 841 715 Q 834 739 812 764 Q 793 788 778 790 Q 765 794 763 778 Q 756 744 664 697 Q 621 675 576 652 C 549 638 546 624 575 630 Z" fill="lightgray" class="hide"/>
    <path d="M 576 652 Q 580 709 591 736 Q 603 767 583 783 Q 531 819 515 814 Q 500 807 509 790 Q 530 753 528 698 Q 528 536 551 503 Q 576 458 658 446 Q 712 439 801 449 Q 876 461 904 480 Q 932 493 920 522 Q 907 555 897 612 Q 896 628 890 634 Q 883 640 877 619 Q 852 553 839 543 Q 830 528 801 520 Q 684 490 616 510 Q 592 517 587 531 Q 575 561 575 630 L 576 652 Z" fill="lightgray" class="hide"/>
    <path d="M 563 348 Q 545 366 511 363 Q 498 359 504 347 Q 543 275 518 126 Q 503 72 506 62 Q 510 35 527 16 Q 534 3 544 9 Q 554 18 564 48 L 571 83 Q 574 104 574 200 L 574 226 Q 574 296 576 317 C 577 337 577 337 563 348 Z" fill="lightgray" class="hide"/>
    <path d="M 734 57 Q 765 15 787 -22 Q 797 -41 808 -41 Q 826 -40 842 -5 Q 861 35 859 84 Q 853 153 847 281 Q 846 312 864 334 Q 874 347 864 358 Q 845 377 792 403 Q 774 412 759 403 Q 699 375 563 348 C 534 342 546 312 576 317 Q 606 320 743 352 Q 765 356 777 349 Q 798 328 788 152 Q 788 103 784 88 Q 780 72 767 75 C 742 59 733 59 734 57 Z" fill="lightgray" class="hide"/>
    <path d="M 574 200 Q 602 196 681 204 Q 699 208 720 211 Q 739 215 742 217 Q 749 224 746 230 Q 740 240 717 246 Q 704 249 627 233 Q 600 229 574 226 C 544 223 544 203 574 200 Z" fill="lightgray" class="hide"/>
    <path d="M 564 48 Q 571 47 583 49 Q 632 56 734 57 C 764 57 781 58 767 75 Q 761 84 742 97 Q 726 107 696 102 Q 626 89 571 83 C 541 80 534 49 564 48 Z" fill="lightgray" class="hide"/></g><g transform="scale(1, -1) translate(0, -900)">
    <style type="text/css">
        .origin {display:none;}
        .hide {display:none;}
        .stroke {fill: #000000;}
        
.step1 {transform: translateX(1024px);}
.step2 {transform: translateX(2048px);}
.step3 {transform: translateX(3072px);}
.step4 {transform: translateX(4096px);}
.step5 {transform: translateX(5120px);}
.step6 {transform: translateX(6144px);}
.step7 {transform: translateX(7168px);}
.step8 {transform: translateX(8192px);}
.step9 {transform: translateX(9216px);}
.step10 {transform: translateX(10240px);}
.step11 {transform: translateX(11264px);}
.step12 {transform: translateX(12288px);}
.step13 {transform: translateX(13312px);}
.step14 {transform: translateX(14336px);}
.step15 {transform: translateX(15360px);}
.step16 {transform: translateX(16384px);}
.step17 {transform: translateX(17408px);}
.step18 {transform: translateX(18432px);}
.step19 {transform: translateX(19456px);}
.step20 {transform: translateX(20480px);}
.step21 {transform: translateX(21504px);}
.step22 {transform: translateX(22528px);}
.step23 {transform: translateX(23552px);}
.step24 {transform: translateX(24576px);}
.step25 {transform: translateX(25600px);}
.step26 {transform: translateX(26624px);}
.step27 {transform: translateX(27648px);}
.step28 {transform: translateX(28672px);}
.step29 {transform: translateX(29696px);}
    </style>

    <path d="M 316 756 Q 350 728 385 695 Q 400 682 416 682 Q 428 683 433 697 Q 437 713 428 743 Q 416 782 311 806 Q 295 810 288 807 Q 282 803 284 789 Q 288 779 316 756 Z" fill="lightgray" class="stroke step6"/>
    <path d="M 77 562 Q 64 561 60 552 Q 57 540 74 528 Q 113 501 181 520 Q 298 560 439 580 Q 458 583 458 591 Q 459 604 440 615 Q 410 627 386 621 Q 166 570 77 562 Z" fill="lightgray" class="stroke step6"/>
    <path d="M 252 453 Q 221 444 245 432 Q 278 420 349 439 Q 373 446 403 456 Q 419 460 422 464 Q 429 471 424 478 Q 417 488 391 491 Q 372 492 301 465 Q 279 458 252 453 Z" fill="lightgray" class="stroke step6"/>
    <path d="M 248 359 Q 215 349 241 337 Q 283 324 349 344 Q 373 351 400 359 Q 416 363 418 366 Q 425 375 420 382 Q 413 392 385 395 Q 373 395 298 371 Q 274 364 248 359 Z" fill="lightgray" class="stroke step6"/>
    <path d="M 216 227 Q 204 233 176 236 Q 164 239 161 234 Q 154 227 163 212 Q 193 154 211 59 Q 215 31 232 11 Q 250 -11 255 5 Q 262 26 254 68 L 253 69 C 249 85 254 72 248 101 Q 233 176 232 199 C 230 221 230 221 216 227 Z" fill="lightgray" class="stroke step6"/>
    <path d="M 395 121 Q 414 188 437 208 Q 459 235 436 249 Q 417 261 388 279 Q 370 288 324 263 Q 278 242 216 227 C 187 220 203 191 232 199 Q 238 200 246 203 Q 289 216 327 225 Q 352 232 359 222 Q 365 216 358 188 Q 351 161 342 130 C 334 101 387 92 395 121 Z" fill="lightgray" class="stroke step6"/>
    <path d="M 253 69 Q 260 68 272 71 Q 312 81 402 93 Q 412 94 413 104 Q 413 110 395 121 L 342 130 Q 338 130 334 128 Q 286 112 248 101 C 219 93 223 70 253 69 Z" fill="lightgray" class="stroke step6"/>
    <path d="M 575 630 Q 645 645 763 680 Q 790 689 819 690 Q 846 691 841 715 Q 834 739 812 764 Q 793 788 778 790 Q 765 794 763 778 Q 756 744 664 697 Q 621 675 576 652 C 549 638 546 624 575 630 Z" fill="lightgray" class="hide"/>
    <path d="M 576 652 Q 580 709 591 736 Q 603 767 583 783 Q 531 819 515 814 Q 500 807 509 790 Q 530 753 528 698 Q 528 536 551 503 Q 576 458 658 446 Q 712 439 801 449 Q 876 461 904 480 Q 932 493 920 522 Q 907 555 897 612 Q 896 628 890 634 Q 883 640 877 619 Q 852 553 839 543 Q 830 528 801 520 Q 684 490 616 510 Q 592 517 587 531 Q 575 561 575 630 L 576 652 Z" fill="lightgray" class="hide"/>
    <path d="M 563 348 Q 545 366 511 363 Q 498 359 504 347 Q 543 275 518 126 Q 503 72 506 62 Q 510 35 527 16 Q 534 3 544 9 Q 554 18 564 48 L 571 83 Q 574 104 574 200 L 574 226 Q 574 296 576 317 C 577 337 577 337 563 348 Z" fill="lightgray" class="hide"/>
    <path d="M 734 57 Q 765 15 787 -22 Q 797 -41 808 -41 Q 826 -40 842 -5 Q 861 35 859 84 Q 853 153 847 281 Q 846 312 864 334 Q 874 347 864 358 Q 845 377 792 403 Q 774 412 759 403 Q 699 375 563 348 C 534 342 546 312 576 317 Q 606 320 743 352 Q 765 356 777 349 Q 798 328 788 152 Q 788 103 784 88 Q 780 72 767 75 C 742 59 733 59 734 57 Z" fill="lightgray" class="hide"/>
    <path d="M 574 200 Q 602 196 681 204 Q 699 208 720 211 Q 739 215 742 217 Q 749 224 746 230 Q 740 240 717 246 Q 704 249 627 233 Q 600 229 574 226 C 544 223 544 203 574 200 Z" fill="lightgray" class="hide"/>
    <path d="M 564 48 Q 571 47 583 49 Q 632 56 734 57 C 764 57 781 58 767 75 Q 761 84 742 97 Q 726 107 696 102 Q 626 89 571 83 C 541 80 534 49 564 48 Z" fill="lightgray" class="hide"/></g><g transform="scale(1, -1) translate(0, -900)">
    <style type="text/css">
        .origin {display:none;}
        .hide {display:none;}
        .stroke {fill: #000000;}
        
.step1 {transform: translateX(1024px);}
.step2 {transform: translateX(2048px);}
.step3 {transform: translateX(3072px);}
.step4 {transform: translateX(4096px);}
.step5 {transform: translateX(5120px);}
.step6 {transform: translateX(6144px);}
.step7 {transform: translateX(7168px);}
.step8 {transform: translateX(8192px);}
.step9 {transform: translateX(9216px);}
.step10 {transform: translateX(10240px);}
.step11 {transform: translateX(11264px);}
.step12 {transform: translateX(12288px);}
.step13 {transform: translateX(13312px);}
.step14 {transform: translateX(14336px);}
.step15 {transform: translateX(15360px);}
.step16 {transform: translateX(16384px);}
.step17 {transform: translateX(17408px);}
.step18 {transform: translateX(18432px);}
.step19 {transform: translateX(19456px);}
.step20 {transform: translateX(20480px);}
.step21 {transform: translateX(21504px);}
.step22 {transform: translateX(22528px);}
.step23 {transform: translateX(23552px);}
.step24 {transform: translateX(24576px);}
.step25 {transform: translateX(25600px);}
.step26 {transform: translateX(26624px);}
.step27 {transform: translateX(27648px);}
.step28 {transform: translateX(28672px);}
.step29 {transform: translateX(29696px);}
    </style>

    <path d="M 316 756 Q 350 728 385 695 Q 400 682 416 682 Q 428 683 433 697 Q 437 713 428 743 Q 416 782 311 806 Q 295 810 288 807 Q 282 803 284 789 Q 288 779 316 756 Z" fill="lightgray" class="stroke step7"/>
    <path d="M 77 562 Q 64 561 60 552 Q 57 540 74 528 Q 113 501 181 520 Q 298 560 439 580 Q 458 583 458 591 Q 459 604 440 615 Q 410 627 386 621 Q 166 570 77 562 Z" fill="lightgray" class="stroke step7"/>
    <path d="M 252 453 Q 221 444 245 432 Q 278 420 349 439 Q 373 446 403 456 Q 419 460 422 464 Q 429 471 424 478 Q 417 488 391 491 Q 372 492 301 465 Q 279 458 252 453 Z" fill="lightgray" class="stroke step7"/>
    <path d="M 248 359 Q 215 349 241 337 Q 283 324 349 344 Q 373 351 400 359 Q 416 363 418 366 Q 425 375 420 382 Q 413 392 385 395 Q 373 395 298 371 Q 274 364 248 359 Z" fill="lightgray" class="stroke step7"/>
    <path d="M 216 227 Q 204 233 176 236 Q 164 239 161 234 Q 154 227 163 212 Q 193 154 211 59 Q 215 31 232 11 Q 250 -11 255 5 Q 262 26 254 68 L 253 69 C 249 85 254 72 248 101 Q 233 176 232 199 C 230 221 230 221 216 227 Z" fill="lightgray" class="stroke step7"/>
    <path d="M 395 121 Q 414 188 437 208 Q 459 235 436 249 Q 417 261 388 279 Q 370 288 324 263 Q 278 242 216 227 C 187 220 203 191 232 199 Q 238 200 246 203 Q 289 216 327 225 Q 352 232 359 222 Q 365 216 358 188 Q 351 161 342 130 C 334 101 387 92 395 121 Z" fill="lightgray" class="stroke step7"/>
    <path d="M 253 69 Q 260 68 272 71 Q 312 81 402 93 Q 412 94 413 104 Q 413 110 395 121 L 342 130 Q 338 130 334 128 Q 286 112 248 101 C 219 93 223 70 253 69 Z" fill="lightgray" class="stroke step7"/>
    <path d="M 575 630 Q 645 645 763 680 Q 790 689 819 690 Q 846 691 841 715 Q 834 739 812 764 Q 793 788 778 790 Q 765 794 763 778 Q 756 744 664 697 Q 621 675 576 652 C 549 638 546 624 575 630 Z" fill="lightgray" class="stroke step7"/>
    <path d="M 576 652 Q 580 709 591 736 Q 603 767 583 783 Q 531 819 515 814 Q 500 807 509 790 Q 530 753 528 698 Q 528 536 551 503 Q 576 458 658 446 Q 712 439 801 449 Q 876 461 904 480 Q 932 493 920 522 Q 907 555 897 612 Q 896 628 890 634 Q 883 640 877 619 Q 852 553 839 543 Q 830 528 801 520 Q 684 490 616 510 Q 592 517 587 531 Q 575 561 575 630 L 576 652 Z" fill="lightgray" class="hide"/>
    <path d="M 563 348 Q 545 366 511 363 Q 498 359 504 347 Q 543 275 518 126 Q 503 72 506 62 Q 510 35 527 16 Q 534 3 544 9 Q 554 18 564 48 L 571 83 Q 574 104 574 200 L 574 226 Q 574 296 576 317 C 577 337 577 337 563 348 Z" fill="lightgray" class="hide"/>
    <path d="M 734 57 Q 765 15 787 -22 Q 797 -41 808 -41 Q 826 -40 842 -5 Q 861 35 859 84 Q 853 153 847 281 Q 846 312 864 334 Q 874 347 864 358 Q 845 377 792 403 Q 774 412 759 403 Q 699 375 563 348 C 534 342 546 312 576 317 Q 606 320 743 352 Q 765 356 777 349 Q 798 328 788 152 Q 788 103 784 88 Q 780 72 767 75 C 742 59 733 59 734 57 Z" fill="lightgray" class="hide"/>
    <path d="M 574 200 Q 602 196 681 204 Q 699 208 720 211 Q 739 215 742 217 Q 749 224 746 230 Q 740 240 717 246 Q 704 249 627 233 Q 600 229 574 226 C 544 223 544 203 574 200 Z" fill="lightgray" class="hide"/>
    <path d="M 564 48 Q 571 47 583 49 Q 632 56 734 57 C 764 57 781 58 767 75 Q 761 84 742 97 Q 726 107 696 102 Q 626 89 571 83 C 541 80 534 49 564 48 Z" fill="lightgray" class="hide"/></g><g transform="scale(1, -1) translate(0, -900)">
    <style type="text/css">
        .origin {display:none;}
        .hide {display:none;}
        .stroke {fill: #000000;}
        
.step1 {transform: translateX(1024px);}
.step2 {transform: translateX(2048px);}
.step3 {transform: translateX(3072px);}
.step4 {transform: translateX(4096px);}
.step5 {transform: translateX(5120px);}
.step6 {transform: translateX(6144px);}
.step7 {transform: translateX(7168px);}
.step8 {transform: translateX(8192px);}
.step9 {transform: translateX(9216px);}
.step10 {transform: translateX(10240px);}
.step11 {transform: translateX(11264px);}
.step12 {transform: translateX(12288px);}
.step13 {transform: translateX(13312px);}
.step14 {transform: translateX(14336px);}
.step15 {transform: translateX(15360px);}
.step16 {transform: translateX(16384px);}
.step17 {transform: translateX(17408px);}
.step18 {transform: translateX(18432px);}
.step19 {transform: translateX(19456px);}
.step20 {transform: translateX(20480px);}
.step21 {transform: translateX(21504px);}
.step22 {transform: translateX(22528px);}
.step23 {transform: translateX(23552px);}
.step24 {transform: translateX(24576px);}
.step25 {transform: translateX(25600px);}
.step26 {transform: translateX(26624px);}
.step27 {transform: translateX(27648px);}
.step28 {transform: translateX(28672px);}
.step29 {transform: translateX(29696px);}
    </style>

    <path d="M 316 756 Q 350 728 385 695 Q 400 682 416 682 Q 428 683 433 697 Q 437 713 428 743 Q 416 782 311 806 Q 295 810 288 807 Q 282 803 284 789 Q 288 779 316 756 Z" fill="lightgray" class="stroke step8"/>
    <path d="M 77 562 Q 64 561 60 552 Q 57 540 74 528 Q 113 501 181 520 Q 298 560 439 580 Q 458 583 458 591 Q 459 604 440 615 Q 410 627 386 621 Q 166 570 77 562 Z" fill="lightgray" class="stroke step8"/>
    <path d="M 252 453 Q 221 444 245 432 Q 278 420 349 439 Q 373 446 403 456 Q 419 460 422 464 Q 429 471 424 478 Q 417 488 391 491 Q 372 492 301 465 Q 279 458 252 453 Z" fill="lightgray" class="stroke step8"/>
    <path d="M 248 359 Q 215 349 241 337 Q 283 324 349 344 Q 373 351 400 359 Q 416 363 418 366 Q 425 375 420 382 Q 413 392 385 395 Q 373 395 298 371 Q 274 364 248 359 Z" fill="lightgray" class="stroke step8"/>
    <path d="M 216 227 Q 204 233 176 236 Q 164 239 161 234 Q 154 227 163 212 Q 193 154 211 59 Q 215 31 232 11 Q 250 -11 255 5 Q 262 26 254 68 L 253 69 C 249 85 254 72 248 101 Q 233 176 232 199 C 230 221 230 221 216 227 Z" fill="lightgray" class="stroke step8"/>
    <path d="M 395 121 Q 414 188 437 208 Q 459 235 436 249 Q 417 261 388 279 Q 370 288 324 263 Q 278 242 216 227 C 187 220 203 191 232 199 Q 238 200 246 203 Q 289 216 327 225 Q 352 232 359 222 Q 365 216 358 188 Q 351 161 342 130 C 334 101 387 92 395 121 Z" fill="lightgray" class="stroke step8"/>
    <path d="M 253 69 Q 260 68 272 71 Q 312 81 402 93 Q 412 94 413 104 Q 413 110 395 121 L 342 130 Q 338 130 334 128 Q 286 112 248 101 C 219 93 223 70 253 69 Z" fill="lightgray" class="stroke step8"/>
    <path d="M 575 630 Q 645 645 763 680 Q 790 689 819 690 Q 846 691 841 715 Q 834 739 812 764 Q 793 788 778 790 Q 765 794 763 778 Q 756 744 664 697 Q 621 675 576 652 C 549 638 546 624 575 630 Z" fill="lightgray" class="stroke step8"/>
    <path d="M 576 652 Q 580 709 591 736 Q 603 767 583 783 Q 531 819 515 814 Q 500 807 509 790 Q 530 753 528 698 Q 528 536 551 503 Q 576 458 658 446 Q 712 439 801 449 Q 876 461 904 480 Q 932 493 920 522 Q 907 555 897 612 Q 896 628 890 634 Q 883 640 877 619 Q 852 553 839 543 Q 830 528 801 520 Q 684 490 616 510 Q 592 517 587 531 Q 575 561 575 630 L 576 652 Z" fill="lightgray" class="stroke step8"/>
    <path d="M 563 348 Q 545 366 511 363 Q 498 359 504 347 Q 543 275 518 126 Q 503 72 506 62 Q 510 35 527 16 Q 534 3 544 9 Q 554 18 564 48 L 571 83 Q 574 104 574 200 L 574 226 Q 574 296 576 317 C 577 337 577 337 563 348 Z" fill="lightgray" class="hide"/>
    <path d="M 734 57 Q 765 15 787 -22 Q 797 -41 808 -41 Q 826 -40 842 -5 Q 861 35 859 84 Q 853 153 847 281 Q 846 312 864 334 Q 874 347 864 358 Q 845 377 792 403 Q 774 412 759 403 Q 699 375 563 348 C 534 342 546 312 576 317 Q 606 320 743 352 Q 765 356 777 349 Q 798 328 788 152 Q 788 103 784 88 Q 780 72 767 75 C 742 59 733 59 734 57 Z" fill="lightgray" class="hide"/>
    <path d="M 574 200 Q 602 196 681 204 Q 699 208 720 211 Q 739 215 742 217 Q 749 224 746 230 Q 740 240 717 246 Q 704 249 627 233 Q 600 229 574 226 C 544 223 544 203 574 200 Z" fill="lightgray" class="hide"/>
    <path d="M 564 48 Q 571 47 583 49 Q 632 56 734 57 C 764 57 781 58 767 75 Q 761 84 742 97 Q 726 107 696 102 Q 626 89 571 83 C 541 80 534 49 564 48 Z" fill="lightgray" class="hide"/></g><g transform="scale(1, -1) translate(0, -900)">
    <style type="text/css">
        .origin {display:none;}
        .hide {display:none;}
        .stroke {fill: #000000;}
        
.step1 {transform: translateX(1024px);}
.step2 {transform: translateX(2048px);}
.step3 {transform: translateX(3072px);}
.step4 {transform: translateX(4096px);}
.step5 {transform: translateX(5120px);}
.step6 {transform: translateX(6144px);}
.step7 {transform: translateX(7168px);}
.step8 {transform: translateX(8192px);}
.step9 {transform: translateX(9216px);}
.step10 {transform: translateX(10240px);}
.step11 {transform: translateX(11264px);}
.step12 {transform: translateX(12288px);}
.step13 {transform: translateX(13312px);}
.step14 {transform: translateX(14336px);}
.step15 {transform: translateX(15360px);}
.step16 {transform: translateX(16384px);}
.step17 {transform: translateX(17408px);}
.step18 {transform: translateX(18432px);}
.step19 {transform: translateX(19456px);}
.step20 {transform: translateX(20480px);}
.step21 {transform: translateX(21504px);}
.step22 {transform: translateX(22528px);}
.step23 {transform: translateX(23552px);}
.step24 {transform: translateX(24576px);}
.step25 {transform: translateX(25600px);}
.step26 {transform: translateX(26624px);}
.step27 {transform: translateX(27648px);}
.step28 {transform: translateX(28672px);}
.step29 {transform: translateX(29696px);}
    </style>

    <path d="M 316 756 Q 350 728 385 695 Q 400 682 416 682 Q 428 683 433 697 Q 437 713 428 743 Q 416 782 311 806 Q 295 810 288 807 Q 282 803 284 789 Q 288 779 316 756 Z" fill="lightgray" class="stroke step9"/>
    <path d="M 77 562 Q 64 561 60 552 Q 57 540 74 528 Q 113 501 181 520 Q 298 560 439 580 Q 458 583 458 591 Q 459 604 440 615 Q 410 627 386 621 Q 166 570 77 562 Z" fill="lightgray" class="stroke step9"/>
    <path d="M 252 453 Q 221 444 245 432 Q 278 420 349 439 Q 373 446 403 456 Q 419 460 422 464 Q 429 471 424 478 Q 417 488 391 491 Q 372 492 301 465 Q 279 458 252 453 Z" fill="lightgray" class="stroke step9"/>
    <path d="M 248 359 Q 215 349 241 337 Q 283 324 349 344 Q 373 351 400 359 Q 416 363 418 366 Q 425 375 420 382 Q 413 392 385 395 Q 373 395 298 371 Q 274 364 248 359 Z" fill="lightgray" class="stroke step9"/>
    <path d="M 216 227 Q 204 233 176 236 Q 164 239 161 234 Q 154 227 163 212 Q 193 154 211 59 Q 215 31 232 11 Q 250 -11 255 5 Q 262 26 254 68 L 253 69 C 249 85 254 72 248 101 Q 233 176 232 199 C 230 221 230 221 216 227 Z" fill="lightgray" class="stroke step9"/>
    <path d="M 395 121 Q 414 188 437 208 Q 459 235 436 249 Q 417 261 388 279 Q 370 288 324 263 Q 278 242 216 227 C 187 220 203 191 232 199 Q 238 200 246 203 Q 289 216 327 225 Q 352 232 359 222 Q 365 216 358 188 Q 351 161 342 130 C 334 101 387 92 395 121 Z" fill="lightgray" class="stroke step9"/>
    <path d="M 253 69 Q 260 68 272 71 Q 312 81 402 93 Q 412 94 413 104 Q 413 110 395 121 L 342 130 Q 338 130 334 128 Q 286 112 248 101 C 219 93 223 70 253 69 Z" fill="lightgray" class="stroke step9"/>
    <path d="M 575 630 Q 645 645 763 680 Q 790 689 819 690 Q 846 691 841 715 Q 834 739 812 764 Q 793 788 778 790 Q 765 794 763 778 Q 756 744 664 697 Q 621 675 576 652 C 549 638 546 624 575 630 Z" fill="lightgray" class="stroke step9"/>
    <path d="M 576 652 Q 580 709 591 736 Q 603 767 583 783 Q 531 819 515 814 Q 500 807 509 790 Q 530 753 528 698 Q 528 536 551 503 Q 576 458 658 446 Q 712 439 801 449 Q 876 461 904 480 Q 932 493 920 522 Q 907 555 897 612 Q 896 628 890 634 Q 883 640 877 619 Q 852 553 839 543 Q 830 528 801 520 Q 684 490 616 510 Q 592 517 587 531 Q 575 561 575 630 L 576 652 Z" fill="lightgray" class="stroke step9"/>
    <path d="M 563 348 Q 545 366 511 363 Q 498 359 504 347 Q 543 275 518 126 Q 503 72 506 62 Q 510 35 527 16 Q 534 3 544 9 Q 554 18 564 48 L 571 83 Q 574 104 574 200 L 574 226 Q 574 296 576 317 C 577 337 577 337 563 348 Z" fill="lightgray" class="stroke step9"/>
    <path d="M 734 57 Q 765 15 787 -22 Q 797 -41 808 -41 Q 826 -40 842 -5 Q 861 35 859 84 Q 853 153 847 281 Q 846 312 864 334 Q 874 347 864 358 Q 845 377 792 403 Q 774 412 759 403 Q 699 375 563 348 C 534 342 546 312 576 317 Q 606 320 743 352 Q 765 356 777 349 Q 798 328 788 152 Q 788 103 784 88 Q 780 72 767 75 C 742 59 733 59 734 57 Z" fill="lightgray" class="hide"/>
    <path d="M 574 200 Q 602 196 681 204 Q 699 208 720 211 Q 739 215 742 217 Q 749 224 746 230 Q 740 240 717 246 Q 704 249 627 233 Q 600 229 574 226 C 544 223 544 203 574 200 Z" fill="lightgray" class="hide"/>
    <path d="M 564 48 Q 571 47 583 49 Q 632 56 734 57 C 764 57 781 58 767 75 Q 761 84 742 97 Q 726 107 696 102 Q 626 89 571 83 C 541 80 534 49 564 48 Z" fill="lightgray" class="hide"/></g><g transform="scale(1, -1) translate(0, -900)">
    <style type="text/css">
        .origin {display:none;}
        .hide {display:none;}
        .stroke {fill: #000000;}
        
.step1 {transform: translateX(1024px);}
.step2 {transform: translateX(2048px);}
.step3 {transform: translateX(3072px);}
.step4 {transform: translateX(4096px);}
.step5 {transform: translateX(5120px);}
.step6 {transform: translateX(6144px);}
.step7 {transform: translateX(7168px);}
.step8 {transform: translateX(8192px);}
.step9 {transform: translateX(9216px);}
.step10 {transform: translateX(10240px);}
.step11 {transform: translateX(11264px);}
.step12 {transform: translateX(12288px);}
.step13 {transform: translateX(13312px);}
.step14 {transform: translateX(14336px);}
.step15 {transform: translateX(15360px);}
.step16 {transform: translateX(16384px);}
.step17 {transform: translateX(17408px);}
.step18 {transform: translateX(18432px);}
.step19 {transform: translateX(19456px);}
.step20 {transform: translateX(20480px);}
.step21 {transform: translateX(21504px);}
.step22 {transform: translateX(22528px);}
.step23 {transform: translateX(23552px);}
.step24 {transform: translateX(24576px);}
.step25 {transform: translateX(25600px);}
.step26 {transform: translateX(26624px);}
.step27 {transform: translateX(27648px);}
.step28 {transform: translateX(28672px);}
.step29 {transform: translateX(29696px);}
    </style>

    <path d="M 316 756 Q 350 728 385 695 Q 400 682 416 682 Q 428 683 433 697 Q 437 713 428 743 Q 416 782 311 806 Q 295 810 288 807 Q 282 803 284 789 Q 288 779 316 756 Z" fill="lightgray" class="stroke step10"/>
    <path d="M 77 562 Q 64 561 60 552 Q 57 540 74 528 Q 113 501 181 520 Q 298 560 439 580 Q 458 583 458 591 Q 459 604 440 615 Q 410 627 386 621 Q 166 570 77 562 Z" fill="lightgray" class="stroke step10"/>
    <path d="M 252 453 Q 221 444 245 432 Q 278 420 349 439 Q 373 446 403 456 Q 419 460 422 464 Q 429 471 424 478 Q 417 488 391 491 Q 372 492 301 465 Q 279 458 252 453 Z" fill="lightgray" class="stroke step10"/>
    <path d="M 248 359 Q 215 349 241 337 Q 283 324 349 344 Q 373 351 400 359 Q 416 363 418 366 Q 425 375 420 382 Q 413 392 385 395 Q 373 395 298 371 Q 274 364 248 359 Z" fill="lightgray" class="stroke step10"/>
    <path d="M 216 227 Q 204 233 176 236 Q 164 239 161 234 Q 154 227 163 212 Q 193 154 211 59 Q 215 31 232 11 Q 250 -11 255 5 Q 262 26 254 68 L 253 69 C 249 85 254 72 248 101 Q 233 176 232 199 C 230 221 230 221 216 227 Z" fill="lightgray" class="stroke step10"/>
    <path d="M 395 121 Q 414 188 437 208 Q 459 235 436 249 Q 417 261 388 279 Q 370 288 324 263 Q 278 242 216 227 C 187 220 203 191 232 199 Q 238 200 246 203 Q 289 216 327 225 Q 352 232 359 222 Q 365 216 358 188 Q 351 161 342 130 C 334 101 387 92 395 121 Z" fill="lightgray" class="stroke step10"/>
    <path d="M 253 69 Q 260 68 272 71 Q 312 81 402 93 Q 412 94 413 104 Q 413 110 395 121 L 342 130 Q 338 130 334 128 Q 286 112 248 101 C 219 93 223 70 253 69 Z" fill="lightgray" class="stroke step10"/>
    <path d="M 575 630 Q 645 645 763 680 Q 790 689 819 690 Q 846 691 841 715 Q 834 739 812 764 Q 793 788 778 790 Q 765 794 763 778 Q 756 744 664 697 Q 621 675 576 652 C 549 638 546 624 575 630 Z" fill="lightgray" class="stroke step10"/>
    <path d="M 576 652 Q 580 709 591 736 Q 603 767 583 783 Q 531 819 515 814 Q 500 807 509 790 Q 530 753 528 698 Q 528 536 551 503 Q 576 458 658 446 Q 712 439 801 449 Q 876 461 904 480 Q 932 493 920 522 Q 907 555 897 612 Q 896 628 890 634 Q 883 640 877 619 Q 852 553 839 543 Q 830 528 801 520 Q 684 490 616 510 Q 592 517 587 531 Q 575 561 575 630 L 576 652 Z" fill="lightgray" class="stroke step10"/>
    <path d="M 563 348 Q 545 366 511 363 Q 498 359 504 347 Q 543 275 518 126 Q 503 72 506 62 Q 510 35 527 16 Q 534 3 544 9 Q 554 18 564 48 L 571 83 Q 574 104 574 200 L 574 226 Q 574 296 576 317 C 577 337 577 337 563 348 Z" fill="lightgray" class="stroke step10"/>
    <path d="M 734 57 Q 765 15 787 -22 Q 797 -41 808 -41 Q 826 -40 842 -5 Q 861 35 859 84 Q 853 153 847 281 Q 846 312 864 334 Q 874 347 864 358 Q 845 377 792 403 Q 774 412 759 403 Q 699 375 563 348 C 534 342 546 312 576 317 Q 606 320 743 352 Q 765 356 777 349 Q 798 328 788 152 Q 788 103 784 88 Q 780 72 767 75 C 742 59 733 59 734 57 Z" fill="lightgray" class="stroke step10"/>
    <path d="M 574 200 Q 602 196 681 204 Q 699 208 720 211 Q 739 215 742 217 Q 749 224 746 230 Q 740 240 717 246 Q 704 249 627 233 Q 600 229 574 226 C 544 223 544 203 574 200 Z" fill="lightgray" class="hide"/>
    <path d="M 564 48 Q 571 47 583 49 Q 632 56 734 57 C 764 57 781 58 767 75 Q 761 84 742 97 Q 726 107 696 102 Q 626 89 571 83 C 541 80 534 49 564 48 Z" fill="lightgray" class="hide"/></g><g transform="scale(1, -1) translate(0, -900)">
    <style type="text/css">
        .origin {display:none;}
        .hide {display:none;}
        .stroke {fill: #000000;}
        
.step1 {transform: translateX(1024px);}
.step2 {transform: translateX(2048px);}
.step3 {transform: translateX(3072px);}
.step4 {transform: translateX(4096px);}
.step5 {transform: translateX(5120px);}
.step6 {transform: translateX(6144px);}
.step7 {transform: translateX(7168px);}
.step8 {transform: translateX(8192px);}
.step9 {transform: translateX(9216px);}
.step10 {transform: translateX(10240px);}
.step11 {transform: translateX(11264px);}
.step12 {transform: translateX(12288px);}
.step13 {transform: translateX(13312px);}
.step14 {transform: translateX(14336px);}
.step15 {transform: translateX(15360px);}
.step16 {transform: translateX(16384px);}
.step17 {transform: translateX(17408px);}
.step18 {transform: translateX(18432px);}
.step19 {transform: translateX(19456px);}
.step20 {transform: translateX(20480px);}
.step21 {transform: translateX(21504px);}
.step22 {transform: translateX(22528px);}
.step23 {transform: translateX(23552px);}
.step24 {transform: translateX(24576px);}
.step25 {transform: translateX(25600px);}
.step26 {transform: translateX(26624px);}
.step27 {transform: translateX(27648px);}
.step28 {transform: translateX(28672px);}
.step29 {transform: translateX(29696px);}
    </style>

    <path d="M 316 756 Q 350 728 385 695 Q 400 682 416 682 Q 428 683 433 697 Q 437 713 428 743 Q 416 782 311 806 Q 295 810 288 807 Q 282 803 284 789 Q 288 779 316 756 Z" fill="lightgray" class="stroke step11"/>
    <path d="M 77 562 Q 64 561 60 552 Q 57 540 74 528 Q 113 501 181 520 Q 298 560 439 580 Q 458 583 458 591 Q 459 604 440 615 Q 410 627 386 621 Q 166 570 77 562 Z" fill="lightgray" class="stroke step11"/>
    <path d="M 252 453 Q 221 444 245 432 Q 278 420 349 439 Q 373 446 403 456 Q 419 460 422 464 Q 429 471 424 478 Q 417 488 391 491 Q 372 492 301 465 Q 279 458 252 453 Z" fill="lightgray" class="stroke step11"/>
    <path d="M 248 359 Q 215 349 241 337 Q 283 324 349 344 Q 373 351 400 359 Q 416 363 418 366 Q 425 375 420 382 Q 413 392 385 395 Q 373 395 298 371 Q 274 364 248 359 Z" fill="lightgray" class="stroke step11"/>
    <path d="M 216 227 Q 204 233 176 236 Q 164 239 161 234 Q 154 227 163 212 Q 193 154 211 59 Q 215 31 232 11 Q 250 -11 255 5 Q 262 26 254 68 L 253 69 C 249 85 254 72 248 101 Q 233 176 232 199 C 230 221 230 221 216 227 Z" fill="lightgray" class="stroke step11"/>
    <path d="M 395 121 Q 414 188 437 208 Q 459 235 436 249 Q 417 261 388 279 Q 370 288 324 263 Q 278 242 216 227 C 187 220 203 191 232 199 Q 238 200 246 203 Q 289 216 327 225 Q 352 232 359 222 Q 365 216 358 188 Q 351 161 342 130 C 334 101 387 92 395 121 Z" fill="lightgray" class="stroke step11"/>
    <path d="M 253 69 Q 260 68 272 71 Q 312 81 402 93 Q 412 94 413 104 Q 413 110 395 121 L 342 130 Q 338 130 334 128 Q 286 112 248 101 C 219 93 223 70 253 69 Z" fill="lightgray" class="stroke step11"/>
    <path d="M 575 630 Q 645 645 763 680 Q 790 689 819 690 Q 846 691 841 715 Q 834 739 812 764 Q 793 788 778 790 Q 765 794 763 778 Q 756 744 664 697 Q 621 675 576 652 C 549 638 546 624 575 630 Z" fill="lightgray" class="stroke step11"/>
    <path d="M 576 652 Q 580 709 591 736 Q 603 767 583 783 Q 531 819 515 814 Q 500 807 509 790 Q 530 753 528 698 Q 528 536 551 503 Q 576 458 658 446 Q 712 439 801 449 Q 876 461 904 480 Q 932 493 920 522 Q 907 555 897 612 Q 896 628 890 634 Q 883 640 877 619 Q 852 553 839 543 Q 830 528 801 520 Q 684 490 616 510 Q 592 517 587 531 Q 575 561 575 630 L 576 652 Z" fill="lightgray" class="stroke step11"/>
    <path d="M 563 348 Q 545 366 511 363 Q 498 359 504 347 Q 543 275 518 126 Q 503 72 506 62 Q 510 35 527 16 Q 534 3 544 9 Q 554 18 564 48 L 571 83 Q 574 104 574 200 L 574 226 Q 574 296 576 317 C 577 337 577 337 563 348 Z" fill="lightgray" class="stroke step11"/>
    <path d="M 734 57 Q 765 15 787 -22 Q 797 -41 808 -41 Q 826 -40 842 -5 Q 861 35 859 84 Q 853 153 847 281 Q 846 312 864 334 Q 874 347 864 358 Q 845 377 792 403 Q 774 412 759 403 Q 699 375 563 348 C 534 342 546 312 576 317 Q 606 320 743 352 Q 765 356 777 349 Q 798 328 788 152 Q 788 103 784 88 Q 780 72 767 75 C 742 59 733 59 734 57 Z" fill="lightgray" class="stroke step11"/>
    <path d="M 574 200 Q 602 196 681 204 Q 699 208 720 211 Q 739 215 742 217 Q 749 224 746 230 Q 740 240 717 246 Q 704 249 627 233 Q 600 229 574 226 C 544 223 544 203 574 200 Z" fill="lightgray" class="stroke step11"/>
    <path d="M 564 48 Q 571 47 583 49 Q 632 56 734 57 C 764 57 781 58 767 75 Q 761 84 742 97 Q 726 107 696 102 Q 626 89 571 83 C 541 80 534 49 564 48 Z" fill="lightgray" class="hide"/></g><g transform="scale(1, -1) translate(0, -900)">
    <style type="text/css">
        .origin {display:none;}
        .hide {display:none;}
        .stroke {fill: #000000;}
        
.step1 {transform: translateX(1024px);}
.step2 {transform: translateX(2048px);}
.step3 {transform: translateX(3072px);}
.step4 {transform: translateX(4096px);}
.step5 {transform: translateX(5120px);}
.step6 {transform: translateX(6144px);}
.step7 {transform: translateX(7168px);}
.step8 {transform: translateX(8192px);}
.step9 {transform: translateX(9216px);}
.step10 {transform: translateX(10240px);}
.step11 {transform: translateX(11264px);}
.step12 {transform: translateX(12288px);}
.step13 {transform: translateX(13312px);}
.step14 {transform: translateX(14336px);}
.step15 {transform: translateX(15360px);}
.step16 {transform: translateX(16384px);}
.step17 {transform: translateX(17408px);}
.step18 {transform: translateX(18432px);}
.step19 {transform: translateX(19456px);}
.step20 {transform: translateX(20480px);}
.step21 {transform: translateX(21504px);}
.step22 {transform: translateX(22528px);}
.step23 {transform: translateX(23552px);}
.step24 {transform: translateX(24576px);}
.step25 {transform: translateX(25600px);}
.step26 {transform: translateX(26624px);}
.step27 {transform: translateX(27648px);}
.step28 {transform: translateX(28672px);}
.step29 {transform: translateX(29696px);}
    </style>

    <path d="M 316 756 Q 350 728 385 695 Q 400 682 416 682 Q 428 683 433 697 Q 437 713 428 743 Q 416 782 311 806 Q 295 810 288 807 Q 282 803 284 789 Q 288 779 316 756 Z" fill="lightgray" class="stroke step12"/>
    <path d="M 77 562 Q 64 561 60 552 Q 57 540 74 528 Q 113 501 181 520 Q 298 560 439 580 Q 458 583 458 591 Q 459 604 440 615 Q 410 627 386 621 Q 166 570 77 562 Z" fill="lightgray" class="stroke step12"/>
    <path d="M 252 453 Q 221 444 245 432 Q 278 420 349 439 Q 373 446 403 456 Q 419 460 422 464 Q 429 471 424 478 Q 417 488 391 491 Q 372 492 301 465 Q 279 458 252 453 Z" fill="lightgray" class="stroke step12"/>
    <path d="M 248 359 Q 215 349 241 337 Q 283 324 349 344 Q 373 351 400 359 Q 416 363 418 366 Q 425 375 420 382 Q 413 392 385 395 Q 373 395 298 371 Q 274 364 248 359 Z" fill="lightgray" class="stroke step12"/>
    <path d="M 216 227 Q 204 233 176 236 Q 164 239 161 234 Q 154 227 163 212 Q 193 154 211 59 Q 215 31 232 11 Q 250 -11 255 5 Q 262 26 254 68 L 253 69 C 249 85 254 72 248 101 Q 233 176 232 199 C 230 221 230 221 216 227 Z" fill="lightgray" class="stroke step12"/>
    <path d="M 395 121 Q 414 188 437 208 Q 459 235 436 249 Q 417 261 388 279 Q 370 288 324 263 Q 278 242 216 227 C 187 220 203 191 232 199 Q 238 200 246 203 Q 289 216 327 225 Q 352 232 359 222 Q 365 216 358 188 Q 351 161 342 130 C 334 101 387 92 395 121 Z" fill="lightgray" class="stroke step12"/>
    <path d="M 253 69 Q 260 68 272 71 Q 312 81 402 93 Q 412 94 413 104 Q 413 110 395 121 L 342 130 Q 338 130 334 128 Q 286 112 248 101 C 219 93 223 70 253 69 Z" fill="lightgray" class="stroke step12"/>
    <path d="M 575 630 Q 645 645 763 680 Q 790 689 819 690 Q 846 691 841 715 Q 834 739 812 764 Q 793 788 778 790 Q 765 794 763 778 Q 756 744 664 697 Q 621 675 576 652 C 549 638 546 624 575 630 Z" fill="lightgray" class="stroke step12"/>
    <path d="M 576 652 Q 580 709 591 736 Q 603 767 583 783 Q 531 819 515 814 Q 500 807 509 790 Q 530 753 528 698 Q 528 536 551 503 Q 576 458 658 446 Q 712 439 801 449 Q 876 461 904 480 Q 932 493 920 522 Q 907 555 897 612 Q 896 628 890 634 Q 883 640 877 619 Q 852 553 839 543 Q 830 528 801 520 Q 684 490 616 510 Q 592 517 587 531 Q 575 561 575 630 L 576 652 Z" fill="lightgray" class="stroke step12"/>
    <path d="M 563 348 Q 545 366 511 363 Q 498 359 504 347 Q 543 275 518 126 Q 503 72 506 62 Q 510 35 527 16 Q 534 3 544 9 Q 554 18 564 48 L 571 83 Q 574 104 574 200 L 574 226 Q 574 296 576 317 C 577 337 577 337 563 348 Z" fill="lightgray" class="stroke step12"/>
    <path d="M 734 57 Q 765 15 787 -22 Q 797 -41 808 -41 Q 826 -40 842 -5 Q 861 35 859 84 Q 853 153 847 281 Q 846 312 864 334 Q 874 347 864 358 Q 845 377 792 403 Q 774 412 759 403 Q 699 375 563 348 C 534 342 546 312 576 317 Q 606 320 743 352 Q 765 356 777 349 Q 798 328 788 152 Q 788 103 784 88 Q 780 72 767 75 C 742 59 733 59 734 57 Z" fill="lightgray" class="stroke step12"/>
    <path d="M 574 200 Q 602 196 681 204 Q 699 208 720 211 Q 739 215 742 217 Q 749 224 746 230 Q 740 240 717 246 Q 704 249 627 233 Q 600 229 574 226 C 544 223 544 203 574 200 Z" fill="lightgray" class="stroke step12"/>
    <path d="M 564 48 Q 571 47 583 49 Q 632 56 734 57 C 764 57 781 58 767 75 Q 761 84 742 97 Q 726 107 696 102 Q 626 89 571 83 C 541 80 534 49 564 48 Z" fill="lightgray" class="stroke step12"/></g></svg>