<svg version="1.1" viewBox="0 0 14336 1024" xmlns="http://www.w3.org/2000/svg">
  
  <g transform="scale(1, -1) translate(0, -900)" class="origin">
    <style type="text/css">
        .origin {display:none;}
        .hide {display:none;}
        .stroke {fill: #000000;}
        
.step1 {transform: translateX(1024px);}
.step2 {transform: translateX(2048px);}
.step3 {transform: translateX(3072px);}
.step4 {transform: translateX(4096px);}
.step5 {transform: translateX(5120px);}
.step6 {transform: translateX(6144px);}
.step7 {transform: translateX(7168px);}
.step8 {transform: translateX(8192px);}
.step9 {transform: translateX(9216px);}
.step10 {transform: translateX(10240px);}
.step11 {transform: translateX(11264px);}
.step12 {transform: translateX(12288px);}
.step13 {transform: translateX(13312px);}
.step14 {transform: translateX(14336px);}
.step15 {transform: translateX(15360px);}
.step16 {transform: translateX(16384px);}
.step17 {transform: translateX(17408px);}
.step18 {transform: translateX(18432px);}
.step19 {transform: translateX(19456px);}
.step20 {transform: translateX(20480px);}
.step21 {transform: translateX(21504px);}
.step22 {transform: translateX(22528px);}
.step23 {transform: translateX(23552px);}
.step24 {transform: translateX(24576px);}
.step25 {transform: translateX(25600px);}
.step26 {transform: translateX(26624px);}
.step27 {transform: translateX(27648px);}
.step28 {transform: translateX(28672px);}
.step29 {transform: translateX(29696px);}
    </style>

    <path d="M 281 764 Q 303 745 327 723 Q 343 710 360 712 Q 372 713 377 728 Q 381 744 369 777 Q 357 804 272 816 Q 254 819 248 815 Q 242 811 245 797 Q 249 784 281 764 Z" fill="lightgray"/>
    <path d="M 45 564 Q 32 563 28 554 Q 25 544 41 532 Q 83 504 125 519 Q 228 556 376 582 Q 394 585 394 592 Q 395 605 376 614 Q 348 626 325 620 Q 121 572 45 564 Z" fill="lightgray"/>
    <path d="M 188 463 Q 157 454 181 441 Q 223 428 280 445 Q 310 454 343 462 Q 359 468 362 470 Q 369 479 364 486 Q 357 496 329 499 Q 304 502 240 475 Q 216 468 188 463 Z" fill="lightgray"/>
    <path d="M 185 359 Q 152 350 177 337 Q 217 319 267 337 Q 298 346 332 355 Q 348 359 350 362 Q 357 371 352 378 Q 345 388 317 391 Q 302 392 228 368 Q 209 362 185 359 Z" fill="lightgray"/>
    <path d="M 161 246 Q 149 252 120 257 Q 108 260 105 255 Q 98 249 107 233 Q 134 178 149 88 Q 152 61 168 44 Q 186 22 191 37 Q 198 55 192 90 L 187 124 Q 177 197 175 219 C 173 241 173 241 161 246 Z" fill="lightgray"/>
    <path d="M 317 145 Q 333 203 351 222 Q 372 247 350 260 Q 331 270 305 287 Q 287 296 243 272 Q 195 256 161 246 C 132 237 146 212 175 219 Q 187 222 252 236 Q 271 240 276 232 Q 283 228 277 200 Q 273 178 269 152 C 264 122 309 116 317 145 Z" fill="lightgray"/>
    <path d="M 192 90 Q 198 90 204 92 Q 243 104 327 117 Q 337 118 338 128 Q 338 135 317 145 C 294 157 294 157 269 152 Q 262 151 258 149 Q 221 136 187 124 C 159 114 162 88 192 90 Z" fill="lightgray"/>
    <path d="M 531 580 Q 556 608 576 637 Q 607 683 637 720 Q 649 732 634 748 Q 595 787 567 783 Q 555 782 556 766 Q 562 708 506 623 L 479 585 Q 457 560 433 537 Q 402 509 386 492 Q 376 477 392 481 Q 422 484 499 548 L 531 580 Z" fill="lightgray"/>
    <path d="M 525 370 Q 525 217 491 123 Q 485 107 476 106 Q 467 102 441 102 Q 413 109 409 104 Q 406 98 416 88 Q 443 60 460 35 Q 475 14 482 15 Q 489 12 507 30 Q 592 129 562 462 Q 555 511 542 552 Q 538 568 531 580 L 506 623 Q 469 665 419 684 Q 406 691 403 681 Q 400 668 407 651 Q 414 633 431 631 Q 458 621 479 585 L 499 548 Q 511 512 516 477 L 525 370 Z" fill="lightgray"/>
    <path d="M 516 477 Q 515 477 514 474 Q 487 366 369 188 Q 365 178 376 178 Q 394 178 470 276 Q 500 315 525 370 C 538 397 527 505 516 477 Z" fill="lightgray"/>
    <path d="M 764 557 Q 921 602 924 603 Q 933 612 928 620 Q 921 632 890 638 Q 859 642 829 628 Q 792 615 752 602 Q 709 590 656 583 Q 619 574 646 559 Q 676 544 717 546 L 764 557 Z" fill="lightgray"/>
    <path d="M 785 369 Q 836 378 880 383 Q 908 387 897 403 Q 885 419 855 425 Q 830 429 787 418 L 732 401 Q 689 391 653 380 Q 634 376 657 358 Q 667 351 690 354 Q 711 358 732 360 L 785 369 Z" fill="lightgray"/>
    <path d="M 780 218 Q 781 299 785 369 L 787 418 Q 787 475 791 507 Q 800 534 764 557 C 740 574 707 574 717 546 Q 729 521 732 401 L 732 360 Q 732 300 733 210 C 733 180 780 188 780 218 Z" fill="lightgray"/>
    <path d="M 733 210 Q 663 201 584 189 Q 563 188 579 171 Q 592 158 610 152 Q 629 148 646 152 Q 746 177 967 177 Q 986 177 991 186 Q 997 196 980 210 Q 928 252 861 233 Q 827 227 780 218 L 733 210 Z" fill="lightgray"/></g>
<g transform="scale(1, -1) translate(0, -900)">
    <style type="text/css">
        .origin {display:none;}
        .hide {display:none;}
        .stroke {fill: #000000;}
        
.step1 {transform: translateX(1024px);}
.step2 {transform: translateX(2048px);}
.step3 {transform: translateX(3072px);}
.step4 {transform: translateX(4096px);}
.step5 {transform: translateX(5120px);}
.step6 {transform: translateX(6144px);}
.step7 {transform: translateX(7168px);}
.step8 {transform: translateX(8192px);}
.step9 {transform: translateX(9216px);}
.step10 {transform: translateX(10240px);}
.step11 {transform: translateX(11264px);}
.step12 {transform: translateX(12288px);}
.step13 {transform: translateX(13312px);}
.step14 {transform: translateX(14336px);}
.step15 {transform: translateX(15360px);}
.step16 {transform: translateX(16384px);}
.step17 {transform: translateX(17408px);}
.step18 {transform: translateX(18432px);}
.step19 {transform: translateX(19456px);}
.step20 {transform: translateX(20480px);}
.step21 {transform: translateX(21504px);}
.step22 {transform: translateX(22528px);}
.step23 {transform: translateX(23552px);}
.step24 {transform: translateX(24576px);}
.step25 {transform: translateX(25600px);}
.step26 {transform: translateX(26624px);}
.step27 {transform: translateX(27648px);}
.step28 {transform: translateX(28672px);}
.step29 {transform: translateX(29696px);}
    </style>

    <path d="M 281 764 Q 303 745 327 723 Q 343 710 360 712 Q 372 713 377 728 Q 381 744 369 777 Q 357 804 272 816 Q 254 819 248 815 Q 242 811 245 797 Q 249 784 281 764 Z" fill="lightgray" class="stroke step0"/>
    <path d="M 45 564 Q 32 563 28 554 Q 25 544 41 532 Q 83 504 125 519 Q 228 556 376 582 Q 394 585 394 592 Q 395 605 376 614 Q 348 626 325 620 Q 121 572 45 564 Z" fill="lightgray" class="hide"/>
    <path d="M 188 463 Q 157 454 181 441 Q 223 428 280 445 Q 310 454 343 462 Q 359 468 362 470 Q 369 479 364 486 Q 357 496 329 499 Q 304 502 240 475 Q 216 468 188 463 Z" fill="lightgray" class="hide"/>
    <path d="M 185 359 Q 152 350 177 337 Q 217 319 267 337 Q 298 346 332 355 Q 348 359 350 362 Q 357 371 352 378 Q 345 388 317 391 Q 302 392 228 368 Q 209 362 185 359 Z" fill="lightgray" class="hide"/>
    <path d="M 161 246 Q 149 252 120 257 Q 108 260 105 255 Q 98 249 107 233 Q 134 178 149 88 Q 152 61 168 44 Q 186 22 191 37 Q 198 55 192 90 L 187 124 Q 177 197 175 219 C 173 241 173 241 161 246 Z" fill="lightgray" class="hide"/>
    <path d="M 317 145 Q 333 203 351 222 Q 372 247 350 260 Q 331 270 305 287 Q 287 296 243 272 Q 195 256 161 246 C 132 237 146 212 175 219 Q 187 222 252 236 Q 271 240 276 232 Q 283 228 277 200 Q 273 178 269 152 C 264 122 309 116 317 145 Z" fill="lightgray" class="hide"/>
    <path d="M 192 90 Q 198 90 204 92 Q 243 104 327 117 Q 337 118 338 128 Q 338 135 317 145 C 294 157 294 157 269 152 Q 262 151 258 149 Q 221 136 187 124 C 159 114 162 88 192 90 Z" fill="lightgray" class="hide"/>
    <path d="M 531 580 Q 556 608 576 637 Q 607 683 637 720 Q 649 732 634 748 Q 595 787 567 783 Q 555 782 556 766 Q 562 708 506 623 L 479 585 Q 457 560 433 537 Q 402 509 386 492 Q 376 477 392 481 Q 422 484 499 548 L 531 580 Z" fill="lightgray" class="hide"/>
    <path d="M 525 370 Q 525 217 491 123 Q 485 107 476 106 Q 467 102 441 102 Q 413 109 409 104 Q 406 98 416 88 Q 443 60 460 35 Q 475 14 482 15 Q 489 12 507 30 Q 592 129 562 462 Q 555 511 542 552 Q 538 568 531 580 L 506 623 Q 469 665 419 684 Q 406 691 403 681 Q 400 668 407 651 Q 414 633 431 631 Q 458 621 479 585 L 499 548 Q 511 512 516 477 L 525 370 Z" fill="lightgray" class="hide"/>
    <path d="M 516 477 Q 515 477 514 474 Q 487 366 369 188 Q 365 178 376 178 Q 394 178 470 276 Q 500 315 525 370 C 538 397 527 505 516 477 Z" fill="lightgray" class="hide"/>
    <path d="M 764 557 Q 921 602 924 603 Q 933 612 928 620 Q 921 632 890 638 Q 859 642 829 628 Q 792 615 752 602 Q 709 590 656 583 Q 619 574 646 559 Q 676 544 717 546 L 764 557 Z" fill="lightgray" class="hide"/>
    <path d="M 785 369 Q 836 378 880 383 Q 908 387 897 403 Q 885 419 855 425 Q 830 429 787 418 L 732 401 Q 689 391 653 380 Q 634 376 657 358 Q 667 351 690 354 Q 711 358 732 360 L 785 369 Z" fill="lightgray" class="hide"/>
    <path d="M 780 218 Q 781 299 785 369 L 787 418 Q 787 475 791 507 Q 800 534 764 557 C 740 574 707 574 717 546 Q 729 521 732 401 L 732 360 Q 732 300 733 210 C 733 180 780 188 780 218 Z" fill="lightgray" class="hide"/>
    <path d="M 733 210 Q 663 201 584 189 Q 563 188 579 171 Q 592 158 610 152 Q 629 148 646 152 Q 746 177 967 177 Q 986 177 991 186 Q 997 196 980 210 Q 928 252 861 233 Q 827 227 780 218 L 733 210 Z" fill="lightgray" class="hide"/></g><g transform="scale(1, -1) translate(0, -900)">
    <style type="text/css">
        .origin {display:none;}
        .hide {display:none;}
        .stroke {fill: #000000;}
        
.step1 {transform: translateX(1024px);}
.step2 {transform: translateX(2048px);}
.step3 {transform: translateX(3072px);}
.step4 {transform: translateX(4096px);}
.step5 {transform: translateX(5120px);}
.step6 {transform: translateX(6144px);}
.step7 {transform: translateX(7168px);}
.step8 {transform: translateX(8192px);}
.step9 {transform: translateX(9216px);}
.step10 {transform: translateX(10240px);}
.step11 {transform: translateX(11264px);}
.step12 {transform: translateX(12288px);}
.step13 {transform: translateX(13312px);}
.step14 {transform: translateX(14336px);}
.step15 {transform: translateX(15360px);}
.step16 {transform: translateX(16384px);}
.step17 {transform: translateX(17408px);}
.step18 {transform: translateX(18432px);}
.step19 {transform: translateX(19456px);}
.step20 {transform: translateX(20480px);}
.step21 {transform: translateX(21504px);}
.step22 {transform: translateX(22528px);}
.step23 {transform: translateX(23552px);}
.step24 {transform: translateX(24576px);}
.step25 {transform: translateX(25600px);}
.step26 {transform: translateX(26624px);}
.step27 {transform: translateX(27648px);}
.step28 {transform: translateX(28672px);}
.step29 {transform: translateX(29696px);}
    </style>

    <path d="M 281 764 Q 303 745 327 723 Q 343 710 360 712 Q 372 713 377 728 Q 381 744 369 777 Q 357 804 272 816 Q 254 819 248 815 Q 242 811 245 797 Q 249 784 281 764 Z" fill="lightgray" class="stroke step1"/>
    <path d="M 45 564 Q 32 563 28 554 Q 25 544 41 532 Q 83 504 125 519 Q 228 556 376 582 Q 394 585 394 592 Q 395 605 376 614 Q 348 626 325 620 Q 121 572 45 564 Z" fill="lightgray" class="stroke step1"/>
    <path d="M 188 463 Q 157 454 181 441 Q 223 428 280 445 Q 310 454 343 462 Q 359 468 362 470 Q 369 479 364 486 Q 357 496 329 499 Q 304 502 240 475 Q 216 468 188 463 Z" fill="lightgray" class="hide"/>
    <path d="M 185 359 Q 152 350 177 337 Q 217 319 267 337 Q 298 346 332 355 Q 348 359 350 362 Q 357 371 352 378 Q 345 388 317 391 Q 302 392 228 368 Q 209 362 185 359 Z" fill="lightgray" class="hide"/>
    <path d="M 161 246 Q 149 252 120 257 Q 108 260 105 255 Q 98 249 107 233 Q 134 178 149 88 Q 152 61 168 44 Q 186 22 191 37 Q 198 55 192 90 L 187 124 Q 177 197 175 219 C 173 241 173 241 161 246 Z" fill="lightgray" class="hide"/>
    <path d="M 317 145 Q 333 203 351 222 Q 372 247 350 260 Q 331 270 305 287 Q 287 296 243 272 Q 195 256 161 246 C 132 237 146 212 175 219 Q 187 222 252 236 Q 271 240 276 232 Q 283 228 277 200 Q 273 178 269 152 C 264 122 309 116 317 145 Z" fill="lightgray" class="hide"/>
    <path d="M 192 90 Q 198 90 204 92 Q 243 104 327 117 Q 337 118 338 128 Q 338 135 317 145 C 294 157 294 157 269 152 Q 262 151 258 149 Q 221 136 187 124 C 159 114 162 88 192 90 Z" fill="lightgray" class="hide"/>
    <path d="M 531 580 Q 556 608 576 637 Q 607 683 637 720 Q 649 732 634 748 Q 595 787 567 783 Q 555 782 556 766 Q 562 708 506 623 L 479 585 Q 457 560 433 537 Q 402 509 386 492 Q 376 477 392 481 Q 422 484 499 548 L 531 580 Z" fill="lightgray" class="hide"/>
    <path d="M 525 370 Q 525 217 491 123 Q 485 107 476 106 Q 467 102 441 102 Q 413 109 409 104 Q 406 98 416 88 Q 443 60 460 35 Q 475 14 482 15 Q 489 12 507 30 Q 592 129 562 462 Q 555 511 542 552 Q 538 568 531 580 L 506 623 Q 469 665 419 684 Q 406 691 403 681 Q 400 668 407 651 Q 414 633 431 631 Q 458 621 479 585 L 499 548 Q 511 512 516 477 L 525 370 Z" fill="lightgray" class="hide"/>
    <path d="M 516 477 Q 515 477 514 474 Q 487 366 369 188 Q 365 178 376 178 Q 394 178 470 276 Q 500 315 525 370 C 538 397 527 505 516 477 Z" fill="lightgray" class="hide"/>
    <path d="M 764 557 Q 921 602 924 603 Q 933 612 928 620 Q 921 632 890 638 Q 859 642 829 628 Q 792 615 752 602 Q 709 590 656 583 Q 619 574 646 559 Q 676 544 717 546 L 764 557 Z" fill="lightgray" class="hide"/>
    <path d="M 785 369 Q 836 378 880 383 Q 908 387 897 403 Q 885 419 855 425 Q 830 429 787 418 L 732 401 Q 689 391 653 380 Q 634 376 657 358 Q 667 351 690 354 Q 711 358 732 360 L 785 369 Z" fill="lightgray" class="hide"/>
    <path d="M 780 218 Q 781 299 785 369 L 787 418 Q 787 475 791 507 Q 800 534 764 557 C 740 574 707 574 717 546 Q 729 521 732 401 L 732 360 Q 732 300 733 210 C 733 180 780 188 780 218 Z" fill="lightgray" class="hide"/>
    <path d="M 733 210 Q 663 201 584 189 Q 563 188 579 171 Q 592 158 610 152 Q 629 148 646 152 Q 746 177 967 177 Q 986 177 991 186 Q 997 196 980 210 Q 928 252 861 233 Q 827 227 780 218 L 733 210 Z" fill="lightgray" class="hide"/></g><g transform="scale(1, -1) translate(0, -900)">
    <style type="text/css">
        .origin {display:none;}
        .hide {display:none;}
        .stroke {fill: #000000;}
        
.step1 {transform: translateX(1024px);}
.step2 {transform: translateX(2048px);}
.step3 {transform: translateX(3072px);}
.step4 {transform: translateX(4096px);}
.step5 {transform: translateX(5120px);}
.step6 {transform: translateX(6144px);}
.step7 {transform: translateX(7168px);}
.step8 {transform: translateX(8192px);}
.step9 {transform: translateX(9216px);}
.step10 {transform: translateX(10240px);}
.step11 {transform: translateX(11264px);}
.step12 {transform: translateX(12288px);}
.step13 {transform: translateX(13312px);}
.step14 {transform: translateX(14336px);}
.step15 {transform: translateX(15360px);}
.step16 {transform: translateX(16384px);}
.step17 {transform: translateX(17408px);}
.step18 {transform: translateX(18432px);}
.step19 {transform: translateX(19456px);}
.step20 {transform: translateX(20480px);}
.step21 {transform: translateX(21504px);}
.step22 {transform: translateX(22528px);}
.step23 {transform: translateX(23552px);}
.step24 {transform: translateX(24576px);}
.step25 {transform: translateX(25600px);}
.step26 {transform: translateX(26624px);}
.step27 {transform: translateX(27648px);}
.step28 {transform: translateX(28672px);}
.step29 {transform: translateX(29696px);}
    </style>

    <path d="M 281 764 Q 303 745 327 723 Q 343 710 360 712 Q 372 713 377 728 Q 381 744 369 777 Q 357 804 272 816 Q 254 819 248 815 Q 242 811 245 797 Q 249 784 281 764 Z" fill="lightgray" class="stroke step2"/>
    <path d="M 45 564 Q 32 563 28 554 Q 25 544 41 532 Q 83 504 125 519 Q 228 556 376 582 Q 394 585 394 592 Q 395 605 376 614 Q 348 626 325 620 Q 121 572 45 564 Z" fill="lightgray" class="stroke step2"/>
    <path d="M 188 463 Q 157 454 181 441 Q 223 428 280 445 Q 310 454 343 462 Q 359 468 362 470 Q 369 479 364 486 Q 357 496 329 499 Q 304 502 240 475 Q 216 468 188 463 Z" fill="lightgray" class="stroke step2"/>
    <path d="M 185 359 Q 152 350 177 337 Q 217 319 267 337 Q 298 346 332 355 Q 348 359 350 362 Q 357 371 352 378 Q 345 388 317 391 Q 302 392 228 368 Q 209 362 185 359 Z" fill="lightgray" class="hide"/>
    <path d="M 161 246 Q 149 252 120 257 Q 108 260 105 255 Q 98 249 107 233 Q 134 178 149 88 Q 152 61 168 44 Q 186 22 191 37 Q 198 55 192 90 L 187 124 Q 177 197 175 219 C 173 241 173 241 161 246 Z" fill="lightgray" class="hide"/>
    <path d="M 317 145 Q 333 203 351 222 Q 372 247 350 260 Q 331 270 305 287 Q 287 296 243 272 Q 195 256 161 246 C 132 237 146 212 175 219 Q 187 222 252 236 Q 271 240 276 232 Q 283 228 277 200 Q 273 178 269 152 C 264 122 309 116 317 145 Z" fill="lightgray" class="hide"/>
    <path d="M 192 90 Q 198 90 204 92 Q 243 104 327 117 Q 337 118 338 128 Q 338 135 317 145 C 294 157 294 157 269 152 Q 262 151 258 149 Q 221 136 187 124 C 159 114 162 88 192 90 Z" fill="lightgray" class="hide"/>
    <path d="M 531 580 Q 556 608 576 637 Q 607 683 637 720 Q 649 732 634 748 Q 595 787 567 783 Q 555 782 556 766 Q 562 708 506 623 L 479 585 Q 457 560 433 537 Q 402 509 386 492 Q 376 477 392 481 Q 422 484 499 548 L 531 580 Z" fill="lightgray" class="hide"/>
    <path d="M 525 370 Q 525 217 491 123 Q 485 107 476 106 Q 467 102 441 102 Q 413 109 409 104 Q 406 98 416 88 Q 443 60 460 35 Q 475 14 482 15 Q 489 12 507 30 Q 592 129 562 462 Q 555 511 542 552 Q 538 568 531 580 L 506 623 Q 469 665 419 684 Q 406 691 403 681 Q 400 668 407 651 Q 414 633 431 631 Q 458 621 479 585 L 499 548 Q 511 512 516 477 L 525 370 Z" fill="lightgray" class="hide"/>
    <path d="M 516 477 Q 515 477 514 474 Q 487 366 369 188 Q 365 178 376 178 Q 394 178 470 276 Q 500 315 525 370 C 538 397 527 505 516 477 Z" fill="lightgray" class="hide"/>
    <path d="M 764 557 Q 921 602 924 603 Q 933 612 928 620 Q 921 632 890 638 Q 859 642 829 628 Q 792 615 752 602 Q 709 590 656 583 Q 619 574 646 559 Q 676 544 717 546 L 764 557 Z" fill="lightgray" class="hide"/>
    <path d="M 785 369 Q 836 378 880 383 Q 908 387 897 403 Q 885 419 855 425 Q 830 429 787 418 L 732 401 Q 689 391 653 380 Q 634 376 657 358 Q 667 351 690 354 Q 711 358 732 360 L 785 369 Z" fill="lightgray" class="hide"/>
    <path d="M 780 218 Q 781 299 785 369 L 787 418 Q 787 475 791 507 Q 800 534 764 557 C 740 574 707 574 717 546 Q 729 521 732 401 L 732 360 Q 732 300 733 210 C 733 180 780 188 780 218 Z" fill="lightgray" class="hide"/>
    <path d="M 733 210 Q 663 201 584 189 Q 563 188 579 171 Q 592 158 610 152 Q 629 148 646 152 Q 746 177 967 177 Q 986 177 991 186 Q 997 196 980 210 Q 928 252 861 233 Q 827 227 780 218 L 733 210 Z" fill="lightgray" class="hide"/></g><g transform="scale(1, -1) translate(0, -900)">
    <style type="text/css">
        .origin {display:none;}
        .hide {display:none;}
        .stroke {fill: #000000;}
        
.step1 {transform: translateX(1024px);}
.step2 {transform: translateX(2048px);}
.step3 {transform: translateX(3072px);}
.step4 {transform: translateX(4096px);}
.step5 {transform: translateX(5120px);}
.step6 {transform: translateX(6144px);}
.step7 {transform: translateX(7168px);}
.step8 {transform: translateX(8192px);}
.step9 {transform: translateX(9216px);}
.step10 {transform: translateX(10240px);}
.step11 {transform: translateX(11264px);}
.step12 {transform: translateX(12288px);}
.step13 {transform: translateX(13312px);}
.step14 {transform: translateX(14336px);}
.step15 {transform: translateX(15360px);}
.step16 {transform: translateX(16384px);}
.step17 {transform: translateX(17408px);}
.step18 {transform: translateX(18432px);}
.step19 {transform: translateX(19456px);}
.step20 {transform: translateX(20480px);}
.step21 {transform: translateX(21504px);}
.step22 {transform: translateX(22528px);}
.step23 {transform: translateX(23552px);}
.step24 {transform: translateX(24576px);}
.step25 {transform: translateX(25600px);}
.step26 {transform: translateX(26624px);}
.step27 {transform: translateX(27648px);}
.step28 {transform: translateX(28672px);}
.step29 {transform: translateX(29696px);}
    </style>

    <path d="M 281 764 Q 303 745 327 723 Q 343 710 360 712 Q 372 713 377 728 Q 381 744 369 777 Q 357 804 272 816 Q 254 819 248 815 Q 242 811 245 797 Q 249 784 281 764 Z" fill="lightgray" class="stroke step3"/>
    <path d="M 45 564 Q 32 563 28 554 Q 25 544 41 532 Q 83 504 125 519 Q 228 556 376 582 Q 394 585 394 592 Q 395 605 376 614 Q 348 626 325 620 Q 121 572 45 564 Z" fill="lightgray" class="stroke step3"/>
    <path d="M 188 463 Q 157 454 181 441 Q 223 428 280 445 Q 310 454 343 462 Q 359 468 362 470 Q 369 479 364 486 Q 357 496 329 499 Q 304 502 240 475 Q 216 468 188 463 Z" fill="lightgray" class="stroke step3"/>
    <path d="M 185 359 Q 152 350 177 337 Q 217 319 267 337 Q 298 346 332 355 Q 348 359 350 362 Q 357 371 352 378 Q 345 388 317 391 Q 302 392 228 368 Q 209 362 185 359 Z" fill="lightgray" class="stroke step3"/>
    <path d="M 161 246 Q 149 252 120 257 Q 108 260 105 255 Q 98 249 107 233 Q 134 178 149 88 Q 152 61 168 44 Q 186 22 191 37 Q 198 55 192 90 L 187 124 Q 177 197 175 219 C 173 241 173 241 161 246 Z" fill="lightgray" class="hide"/>
    <path d="M 317 145 Q 333 203 351 222 Q 372 247 350 260 Q 331 270 305 287 Q 287 296 243 272 Q 195 256 161 246 C 132 237 146 212 175 219 Q 187 222 252 236 Q 271 240 276 232 Q 283 228 277 200 Q 273 178 269 152 C 264 122 309 116 317 145 Z" fill="lightgray" class="hide"/>
    <path d="M 192 90 Q 198 90 204 92 Q 243 104 327 117 Q 337 118 338 128 Q 338 135 317 145 C 294 157 294 157 269 152 Q 262 151 258 149 Q 221 136 187 124 C 159 114 162 88 192 90 Z" fill="lightgray" class="hide"/>
    <path d="M 531 580 Q 556 608 576 637 Q 607 683 637 720 Q 649 732 634 748 Q 595 787 567 783 Q 555 782 556 766 Q 562 708 506 623 L 479 585 Q 457 560 433 537 Q 402 509 386 492 Q 376 477 392 481 Q 422 484 499 548 L 531 580 Z" fill="lightgray" class="hide"/>
    <path d="M 525 370 Q 525 217 491 123 Q 485 107 476 106 Q 467 102 441 102 Q 413 109 409 104 Q 406 98 416 88 Q 443 60 460 35 Q 475 14 482 15 Q 489 12 507 30 Q 592 129 562 462 Q 555 511 542 552 Q 538 568 531 580 L 506 623 Q 469 665 419 684 Q 406 691 403 681 Q 400 668 407 651 Q 414 633 431 631 Q 458 621 479 585 L 499 548 Q 511 512 516 477 L 525 370 Z" fill="lightgray" class="hide"/>
    <path d="M 516 477 Q 515 477 514 474 Q 487 366 369 188 Q 365 178 376 178 Q 394 178 470 276 Q 500 315 525 370 C 538 397 527 505 516 477 Z" fill="lightgray" class="hide"/>
    <path d="M 764 557 Q 921 602 924 603 Q 933 612 928 620 Q 921 632 890 638 Q 859 642 829 628 Q 792 615 752 602 Q 709 590 656 583 Q 619 574 646 559 Q 676 544 717 546 L 764 557 Z" fill="lightgray" class="hide"/>
    <path d="M 785 369 Q 836 378 880 383 Q 908 387 897 403 Q 885 419 855 425 Q 830 429 787 418 L 732 401 Q 689 391 653 380 Q 634 376 657 358 Q 667 351 690 354 Q 711 358 732 360 L 785 369 Z" fill="lightgray" class="hide"/>
    <path d="M 780 218 Q 781 299 785 369 L 787 418 Q 787 475 791 507 Q 800 534 764 557 C 740 574 707 574 717 546 Q 729 521 732 401 L 732 360 Q 732 300 733 210 C 733 180 780 188 780 218 Z" fill="lightgray" class="hide"/>
    <path d="M 733 210 Q 663 201 584 189 Q 563 188 579 171 Q 592 158 610 152 Q 629 148 646 152 Q 746 177 967 177 Q 986 177 991 186 Q 997 196 980 210 Q 928 252 861 233 Q 827 227 780 218 L 733 210 Z" fill="lightgray" class="hide"/></g><g transform="scale(1, -1) translate(0, -900)">
    <style type="text/css">
        .origin {display:none;}
        .hide {display:none;}
        .stroke {fill: #000000;}
        
.step1 {transform: translateX(1024px);}
.step2 {transform: translateX(2048px);}
.step3 {transform: translateX(3072px);}
.step4 {transform: translateX(4096px);}
.step5 {transform: translateX(5120px);}
.step6 {transform: translateX(6144px);}
.step7 {transform: translateX(7168px);}
.step8 {transform: translateX(8192px);}
.step9 {transform: translateX(9216px);}
.step10 {transform: translateX(10240px);}
.step11 {transform: translateX(11264px);}
.step12 {transform: translateX(12288px);}
.step13 {transform: translateX(13312px);}
.step14 {transform: translateX(14336px);}
.step15 {transform: translateX(15360px);}
.step16 {transform: translateX(16384px);}
.step17 {transform: translateX(17408px);}
.step18 {transform: translateX(18432px);}
.step19 {transform: translateX(19456px);}
.step20 {transform: translateX(20480px);}
.step21 {transform: translateX(21504px);}
.step22 {transform: translateX(22528px);}
.step23 {transform: translateX(23552px);}
.step24 {transform: translateX(24576px);}
.step25 {transform: translateX(25600px);}
.step26 {transform: translateX(26624px);}
.step27 {transform: translateX(27648px);}
.step28 {transform: translateX(28672px);}
.step29 {transform: translateX(29696px);}
    </style>

    <path d="M 281 764 Q 303 745 327 723 Q 343 710 360 712 Q 372 713 377 728 Q 381 744 369 777 Q 357 804 272 816 Q 254 819 248 815 Q 242 811 245 797 Q 249 784 281 764 Z" fill="lightgray" class="stroke step4"/>
    <path d="M 45 564 Q 32 563 28 554 Q 25 544 41 532 Q 83 504 125 519 Q 228 556 376 582 Q 394 585 394 592 Q 395 605 376 614 Q 348 626 325 620 Q 121 572 45 564 Z" fill="lightgray" class="stroke step4"/>
    <path d="M 188 463 Q 157 454 181 441 Q 223 428 280 445 Q 310 454 343 462 Q 359 468 362 470 Q 369 479 364 486 Q 357 496 329 499 Q 304 502 240 475 Q 216 468 188 463 Z" fill="lightgray" class="stroke step4"/>
    <path d="M 185 359 Q 152 350 177 337 Q 217 319 267 337 Q 298 346 332 355 Q 348 359 350 362 Q 357 371 352 378 Q 345 388 317 391 Q 302 392 228 368 Q 209 362 185 359 Z" fill="lightgray" class="stroke step4"/>
    <path d="M 161 246 Q 149 252 120 257 Q 108 260 105 255 Q 98 249 107 233 Q 134 178 149 88 Q 152 61 168 44 Q 186 22 191 37 Q 198 55 192 90 L 187 124 Q 177 197 175 219 C 173 241 173 241 161 246 Z" fill="lightgray" class="stroke step4"/>
    <path d="M 317 145 Q 333 203 351 222 Q 372 247 350 260 Q 331 270 305 287 Q 287 296 243 272 Q 195 256 161 246 C 132 237 146 212 175 219 Q 187 222 252 236 Q 271 240 276 232 Q 283 228 277 200 Q 273 178 269 152 C 264 122 309 116 317 145 Z" fill="lightgray" class="hide"/>
    <path d="M 192 90 Q 198 90 204 92 Q 243 104 327 117 Q 337 118 338 128 Q 338 135 317 145 C 294 157 294 157 269 152 Q 262 151 258 149 Q 221 136 187 124 C 159 114 162 88 192 90 Z" fill="lightgray" class="hide"/>
    <path d="M 531 580 Q 556 608 576 637 Q 607 683 637 720 Q 649 732 634 748 Q 595 787 567 783 Q 555 782 556 766 Q 562 708 506 623 L 479 585 Q 457 560 433 537 Q 402 509 386 492 Q 376 477 392 481 Q 422 484 499 548 L 531 580 Z" fill="lightgray" class="hide"/>
    <path d="M 525 370 Q 525 217 491 123 Q 485 107 476 106 Q 467 102 441 102 Q 413 109 409 104 Q 406 98 416 88 Q 443 60 460 35 Q 475 14 482 15 Q 489 12 507 30 Q 592 129 562 462 Q 555 511 542 552 Q 538 568 531 580 L 506 623 Q 469 665 419 684 Q 406 691 403 681 Q 400 668 407 651 Q 414 633 431 631 Q 458 621 479 585 L 499 548 Q 511 512 516 477 L 525 370 Z" fill="lightgray" class="hide"/>
    <path d="M 516 477 Q 515 477 514 474 Q 487 366 369 188 Q 365 178 376 178 Q 394 178 470 276 Q 500 315 525 370 C 538 397 527 505 516 477 Z" fill="lightgray" class="hide"/>
    <path d="M 764 557 Q 921 602 924 603 Q 933 612 928 620 Q 921 632 890 638 Q 859 642 829 628 Q 792 615 752 602 Q 709 590 656 583 Q 619 574 646 559 Q 676 544 717 546 L 764 557 Z" fill="lightgray" class="hide"/>
    <path d="M 785 369 Q 836 378 880 383 Q 908 387 897 403 Q 885 419 855 425 Q 830 429 787 418 L 732 401 Q 689 391 653 380 Q 634 376 657 358 Q 667 351 690 354 Q 711 358 732 360 L 785 369 Z" fill="lightgray" class="hide"/>
    <path d="M 780 218 Q 781 299 785 369 L 787 418 Q 787 475 791 507 Q 800 534 764 557 C 740 574 707 574 717 546 Q 729 521 732 401 L 732 360 Q 732 300 733 210 C 733 180 780 188 780 218 Z" fill="lightgray" class="hide"/>
    <path d="M 733 210 Q 663 201 584 189 Q 563 188 579 171 Q 592 158 610 152 Q 629 148 646 152 Q 746 177 967 177 Q 986 177 991 186 Q 997 196 980 210 Q 928 252 861 233 Q 827 227 780 218 L 733 210 Z" fill="lightgray" class="hide"/></g><g transform="scale(1, -1) translate(0, -900)">
    <style type="text/css">
        .origin {display:none;}
        .hide {display:none;}
        .stroke {fill: #000000;}
        
.step1 {transform: translateX(1024px);}
.step2 {transform: translateX(2048px);}
.step3 {transform: translateX(3072px);}
.step4 {transform: translateX(4096px);}
.step5 {transform: translateX(5120px);}
.step6 {transform: translateX(6144px);}
.step7 {transform: translateX(7168px);}
.step8 {transform: translateX(8192px);}
.step9 {transform: translateX(9216px);}
.step10 {transform: translateX(10240px);}
.step11 {transform: translateX(11264px);}
.step12 {transform: translateX(12288px);}
.step13 {transform: translateX(13312px);}
.step14 {transform: translateX(14336px);}
.step15 {transform: translateX(15360px);}
.step16 {transform: translateX(16384px);}
.step17 {transform: translateX(17408px);}
.step18 {transform: translateX(18432px);}
.step19 {transform: translateX(19456px);}
.step20 {transform: translateX(20480px);}
.step21 {transform: translateX(21504px);}
.step22 {transform: translateX(22528px);}
.step23 {transform: translateX(23552px);}
.step24 {transform: translateX(24576px);}
.step25 {transform: translateX(25600px);}
.step26 {transform: translateX(26624px);}
.step27 {transform: translateX(27648px);}
.step28 {transform: translateX(28672px);}
.step29 {transform: translateX(29696px);}
    </style>

    <path d="M 281 764 Q 303 745 327 723 Q 343 710 360 712 Q 372 713 377 728 Q 381 744 369 777 Q 357 804 272 816 Q 254 819 248 815 Q 242 811 245 797 Q 249 784 281 764 Z" fill="lightgray" class="stroke step5"/>
    <path d="M 45 564 Q 32 563 28 554 Q 25 544 41 532 Q 83 504 125 519 Q 228 556 376 582 Q 394 585 394 592 Q 395 605 376 614 Q 348 626 325 620 Q 121 572 45 564 Z" fill="lightgray" class="stroke step5"/>
    <path d="M 188 463 Q 157 454 181 441 Q 223 428 280 445 Q 310 454 343 462 Q 359 468 362 470 Q 369 479 364 486 Q 357 496 329 499 Q 304 502 240 475 Q 216 468 188 463 Z" fill="lightgray" class="stroke step5"/>
    <path d="M 185 359 Q 152 350 177 337 Q 217 319 267 337 Q 298 346 332 355 Q 348 359 350 362 Q 357 371 352 378 Q 345 388 317 391 Q 302 392 228 368 Q 209 362 185 359 Z" fill="lightgray" class="stroke step5"/>
    <path d="M 161 246 Q 149 252 120 257 Q 108 260 105 255 Q 98 249 107 233 Q 134 178 149 88 Q 152 61 168 44 Q 186 22 191 37 Q 198 55 192 90 L 187 124 Q 177 197 175 219 C 173 241 173 241 161 246 Z" fill="lightgray" class="stroke step5"/>
    <path d="M 317 145 Q 333 203 351 222 Q 372 247 350 260 Q 331 270 305 287 Q 287 296 243 272 Q 195 256 161 246 C 132 237 146 212 175 219 Q 187 222 252 236 Q 271 240 276 232 Q 283 228 277 200 Q 273 178 269 152 C 264 122 309 116 317 145 Z" fill="lightgray" class="stroke step5"/>
    <path d="M 192 90 Q 198 90 204 92 Q 243 104 327 117 Q 337 118 338 128 Q 338 135 317 145 C 294 157 294 157 269 152 Q 262 151 258 149 Q 221 136 187 124 C 159 114 162 88 192 90 Z" fill="lightgray" class="hide"/>
    <path d="M 531 580 Q 556 608 576 637 Q 607 683 637 720 Q 649 732 634 748 Q 595 787 567 783 Q 555 782 556 766 Q 562 708 506 623 L 479 585 Q 457 560 433 537 Q 402 509 386 492 Q 376 477 392 481 Q 422 484 499 548 L 531 580 Z" fill="lightgray" class="hide"/>
    <path d="M 525 370 Q 525 217 491 123 Q 485 107 476 106 Q 467 102 441 102 Q 413 109 409 104 Q 406 98 416 88 Q 443 60 460 35 Q 475 14 482 15 Q 489 12 507 30 Q 592 129 562 462 Q 555 511 542 552 Q 538 568 531 580 L 506 623 Q 469 665 419 684 Q 406 691 403 681 Q 400 668 407 651 Q 414 633 431 631 Q 458 621 479 585 L 499 548 Q 511 512 516 477 L 525 370 Z" fill="lightgray" class="hide"/>
    <path d="M 516 477 Q 515 477 514 474 Q 487 366 369 188 Q 365 178 376 178 Q 394 178 470 276 Q 500 315 525 370 C 538 397 527 505 516 477 Z" fill="lightgray" class="hide"/>
    <path d="M 764 557 Q 921 602 924 603 Q 933 612 928 620 Q 921 632 890 638 Q 859 642 829 628 Q 792 615 752 602 Q 709 590 656 583 Q 619 574 646 559 Q 676 544 717 546 L 764 557 Z" fill="lightgray" class="hide"/>
    <path d="M 785 369 Q 836 378 880 383 Q 908 387 897 403 Q 885 419 855 425 Q 830 429 787 418 L 732 401 Q 689 391 653 380 Q 634 376 657 358 Q 667 351 690 354 Q 711 358 732 360 L 785 369 Z" fill="lightgray" class="hide"/>
    <path d="M 780 218 Q 781 299 785 369 L 787 418 Q 787 475 791 507 Q 800 534 764 557 C 740 574 707 574 717 546 Q 729 521 732 401 L 732 360 Q 732 300 733 210 C 733 180 780 188 780 218 Z" fill="lightgray" class="hide"/>
    <path d="M 733 210 Q 663 201 584 189 Q 563 188 579 171 Q 592 158 610 152 Q 629 148 646 152 Q 746 177 967 177 Q 986 177 991 186 Q 997 196 980 210 Q 928 252 861 233 Q 827 227 780 218 L 733 210 Z" fill="lightgray" class="hide"/></g><g transform="scale(1, -1) translate(0, -900)">
    <style type="text/css">
        .origin {display:none;}
        .hide {display:none;}
        .stroke {fill: #000000;}
        
.step1 {transform: translateX(1024px);}
.step2 {transform: translateX(2048px);}
.step3 {transform: translateX(3072px);}
.step4 {transform: translateX(4096px);}
.step5 {transform: translateX(5120px);}
.step6 {transform: translateX(6144px);}
.step7 {transform: translateX(7168px);}
.step8 {transform: translateX(8192px);}
.step9 {transform: translateX(9216px);}
.step10 {transform: translateX(10240px);}
.step11 {transform: translateX(11264px);}
.step12 {transform: translateX(12288px);}
.step13 {transform: translateX(13312px);}
.step14 {transform: translateX(14336px);}
.step15 {transform: translateX(15360px);}
.step16 {transform: translateX(16384px);}
.step17 {transform: translateX(17408px);}
.step18 {transform: translateX(18432px);}
.step19 {transform: translateX(19456px);}
.step20 {transform: translateX(20480px);}
.step21 {transform: translateX(21504px);}
.step22 {transform: translateX(22528px);}
.step23 {transform: translateX(23552px);}
.step24 {transform: translateX(24576px);}
.step25 {transform: translateX(25600px);}
.step26 {transform: translateX(26624px);}
.step27 {transform: translateX(27648px);}
.step28 {transform: translateX(28672px);}
.step29 {transform: translateX(29696px);}
    </style>

    <path d="M 281 764 Q 303 745 327 723 Q 343 710 360 712 Q 372 713 377 728 Q 381 744 369 777 Q 357 804 272 816 Q 254 819 248 815 Q 242 811 245 797 Q 249 784 281 764 Z" fill="lightgray" class="stroke step6"/>
    <path d="M 45 564 Q 32 563 28 554 Q 25 544 41 532 Q 83 504 125 519 Q 228 556 376 582 Q 394 585 394 592 Q 395 605 376 614 Q 348 626 325 620 Q 121 572 45 564 Z" fill="lightgray" class="stroke step6"/>
    <path d="M 188 463 Q 157 454 181 441 Q 223 428 280 445 Q 310 454 343 462 Q 359 468 362 470 Q 369 479 364 486 Q 357 496 329 499 Q 304 502 240 475 Q 216 468 188 463 Z" fill="lightgray" class="stroke step6"/>
    <path d="M 185 359 Q 152 350 177 337 Q 217 319 267 337 Q 298 346 332 355 Q 348 359 350 362 Q 357 371 352 378 Q 345 388 317 391 Q 302 392 228 368 Q 209 362 185 359 Z" fill="lightgray" class="stroke step6"/>
    <path d="M 161 246 Q 149 252 120 257 Q 108 260 105 255 Q 98 249 107 233 Q 134 178 149 88 Q 152 61 168 44 Q 186 22 191 37 Q 198 55 192 90 L 187 124 Q 177 197 175 219 C 173 241 173 241 161 246 Z" fill="lightgray" class="stroke step6"/>
    <path d="M 317 145 Q 333 203 351 222 Q 372 247 350 260 Q 331 270 305 287 Q 287 296 243 272 Q 195 256 161 246 C 132 237 146 212 175 219 Q 187 222 252 236 Q 271 240 276 232 Q 283 228 277 200 Q 273 178 269 152 C 264 122 309 116 317 145 Z" fill="lightgray" class="stroke step6"/>
    <path d="M 192 90 Q 198 90 204 92 Q 243 104 327 117 Q 337 118 338 128 Q 338 135 317 145 C 294 157 294 157 269 152 Q 262 151 258 149 Q 221 136 187 124 C 159 114 162 88 192 90 Z" fill="lightgray" class="stroke step6"/>
    <path d="M 531 580 Q 556 608 576 637 Q 607 683 637 720 Q 649 732 634 748 Q 595 787 567 783 Q 555 782 556 766 Q 562 708 506 623 L 479 585 Q 457 560 433 537 Q 402 509 386 492 Q 376 477 392 481 Q 422 484 499 548 L 531 580 Z" fill="lightgray" class="hide"/>
    <path d="M 525 370 Q 525 217 491 123 Q 485 107 476 106 Q 467 102 441 102 Q 413 109 409 104 Q 406 98 416 88 Q 443 60 460 35 Q 475 14 482 15 Q 489 12 507 30 Q 592 129 562 462 Q 555 511 542 552 Q 538 568 531 580 L 506 623 Q 469 665 419 684 Q 406 691 403 681 Q 400 668 407 651 Q 414 633 431 631 Q 458 621 479 585 L 499 548 Q 511 512 516 477 L 525 370 Z" fill="lightgray" class="hide"/>
    <path d="M 516 477 Q 515 477 514 474 Q 487 366 369 188 Q 365 178 376 178 Q 394 178 470 276 Q 500 315 525 370 C 538 397 527 505 516 477 Z" fill="lightgray" class="hide"/>
    <path d="M 764 557 Q 921 602 924 603 Q 933 612 928 620 Q 921 632 890 638 Q 859 642 829 628 Q 792 615 752 602 Q 709 590 656 583 Q 619 574 646 559 Q 676 544 717 546 L 764 557 Z" fill="lightgray" class="hide"/>
    <path d="M 785 369 Q 836 378 880 383 Q 908 387 897 403 Q 885 419 855 425 Q 830 429 787 418 L 732 401 Q 689 391 653 380 Q 634 376 657 358 Q 667 351 690 354 Q 711 358 732 360 L 785 369 Z" fill="lightgray" class="hide"/>
    <path d="M 780 218 Q 781 299 785 369 L 787 418 Q 787 475 791 507 Q 800 534 764 557 C 740 574 707 574 717 546 Q 729 521 732 401 L 732 360 Q 732 300 733 210 C 733 180 780 188 780 218 Z" fill="lightgray" class="hide"/>
    <path d="M 733 210 Q 663 201 584 189 Q 563 188 579 171 Q 592 158 610 152 Q 629 148 646 152 Q 746 177 967 177 Q 986 177 991 186 Q 997 196 980 210 Q 928 252 861 233 Q 827 227 780 218 L 733 210 Z" fill="lightgray" class="hide"/></g><g transform="scale(1, -1) translate(0, -900)">
    <style type="text/css">
        .origin {display:none;}
        .hide {display:none;}
        .stroke {fill: #000000;}
        
.step1 {transform: translateX(1024px);}
.step2 {transform: translateX(2048px);}
.step3 {transform: translateX(3072px);}
.step4 {transform: translateX(4096px);}
.step5 {transform: translateX(5120px);}
.step6 {transform: translateX(6144px);}
.step7 {transform: translateX(7168px);}
.step8 {transform: translateX(8192px);}
.step9 {transform: translateX(9216px);}
.step10 {transform: translateX(10240px);}
.step11 {transform: translateX(11264px);}
.step12 {transform: translateX(12288px);}
.step13 {transform: translateX(13312px);}
.step14 {transform: translateX(14336px);}
.step15 {transform: translateX(15360px);}
.step16 {transform: translateX(16384px);}
.step17 {transform: translateX(17408px);}
.step18 {transform: translateX(18432px);}
.step19 {transform: translateX(19456px);}
.step20 {transform: translateX(20480px);}
.step21 {transform: translateX(21504px);}
.step22 {transform: translateX(22528px);}
.step23 {transform: translateX(23552px);}
.step24 {transform: translateX(24576px);}
.step25 {transform: translateX(25600px);}
.step26 {transform: translateX(26624px);}
.step27 {transform: translateX(27648px);}
.step28 {transform: translateX(28672px);}
.step29 {transform: translateX(29696px);}
    </style>

    <path d="M 281 764 Q 303 745 327 723 Q 343 710 360 712 Q 372 713 377 728 Q 381 744 369 777 Q 357 804 272 816 Q 254 819 248 815 Q 242 811 245 797 Q 249 784 281 764 Z" fill="lightgray" class="stroke step7"/>
    <path d="M 45 564 Q 32 563 28 554 Q 25 544 41 532 Q 83 504 125 519 Q 228 556 376 582 Q 394 585 394 592 Q 395 605 376 614 Q 348 626 325 620 Q 121 572 45 564 Z" fill="lightgray" class="stroke step7"/>
    <path d="M 188 463 Q 157 454 181 441 Q 223 428 280 445 Q 310 454 343 462 Q 359 468 362 470 Q 369 479 364 486 Q 357 496 329 499 Q 304 502 240 475 Q 216 468 188 463 Z" fill="lightgray" class="stroke step7"/>
    <path d="M 185 359 Q 152 350 177 337 Q 217 319 267 337 Q 298 346 332 355 Q 348 359 350 362 Q 357 371 352 378 Q 345 388 317 391 Q 302 392 228 368 Q 209 362 185 359 Z" fill="lightgray" class="stroke step7"/>
    <path d="M 161 246 Q 149 252 120 257 Q 108 260 105 255 Q 98 249 107 233 Q 134 178 149 88 Q 152 61 168 44 Q 186 22 191 37 Q 198 55 192 90 L 187 124 Q 177 197 175 219 C 173 241 173 241 161 246 Z" fill="lightgray" class="stroke step7"/>
    <path d="M 317 145 Q 333 203 351 222 Q 372 247 350 260 Q 331 270 305 287 Q 287 296 243 272 Q 195 256 161 246 C 132 237 146 212 175 219 Q 187 222 252 236 Q 271 240 276 232 Q 283 228 277 200 Q 273 178 269 152 C 264 122 309 116 317 145 Z" fill="lightgray" class="stroke step7"/>
    <path d="M 192 90 Q 198 90 204 92 Q 243 104 327 117 Q 337 118 338 128 Q 338 135 317 145 C 294 157 294 157 269 152 Q 262 151 258 149 Q 221 136 187 124 C 159 114 162 88 192 90 Z" fill="lightgray" class="stroke step7"/>
    <path d="M 531 580 Q 556 608 576 637 Q 607 683 637 720 Q 649 732 634 748 Q 595 787 567 783 Q 555 782 556 766 Q 562 708 506 623 L 479 585 Q 457 560 433 537 Q 402 509 386 492 Q 376 477 392 481 Q 422 484 499 548 L 531 580 Z" fill="lightgray" class="stroke step7"/>
    <path d="M 525 370 Q 525 217 491 123 Q 485 107 476 106 Q 467 102 441 102 Q 413 109 409 104 Q 406 98 416 88 Q 443 60 460 35 Q 475 14 482 15 Q 489 12 507 30 Q 592 129 562 462 Q 555 511 542 552 Q 538 568 531 580 L 506 623 Q 469 665 419 684 Q 406 691 403 681 Q 400 668 407 651 Q 414 633 431 631 Q 458 621 479 585 L 499 548 Q 511 512 516 477 L 525 370 Z" fill="lightgray" class="hide"/>
    <path d="M 516 477 Q 515 477 514 474 Q 487 366 369 188 Q 365 178 376 178 Q 394 178 470 276 Q 500 315 525 370 C 538 397 527 505 516 477 Z" fill="lightgray" class="hide"/>
    <path d="M 764 557 Q 921 602 924 603 Q 933 612 928 620 Q 921 632 890 638 Q 859 642 829 628 Q 792 615 752 602 Q 709 590 656 583 Q 619 574 646 559 Q 676 544 717 546 L 764 557 Z" fill="lightgray" class="hide"/>
    <path d="M 785 369 Q 836 378 880 383 Q 908 387 897 403 Q 885 419 855 425 Q 830 429 787 418 L 732 401 Q 689 391 653 380 Q 634 376 657 358 Q 667 351 690 354 Q 711 358 732 360 L 785 369 Z" fill="lightgray" class="hide"/>
    <path d="M 780 218 Q 781 299 785 369 L 787 418 Q 787 475 791 507 Q 800 534 764 557 C 740 574 707 574 717 546 Q 729 521 732 401 L 732 360 Q 732 300 733 210 C 733 180 780 188 780 218 Z" fill="lightgray" class="hide"/>
    <path d="M 733 210 Q 663 201 584 189 Q 563 188 579 171 Q 592 158 610 152 Q 629 148 646 152 Q 746 177 967 177 Q 986 177 991 186 Q 997 196 980 210 Q 928 252 861 233 Q 827 227 780 218 L 733 210 Z" fill="lightgray" class="hide"/></g><g transform="scale(1, -1) translate(0, -900)">
    <style type="text/css">
        .origin {display:none;}
        .hide {display:none;}
        .stroke {fill: #000000;}
        
.step1 {transform: translateX(1024px);}
.step2 {transform: translateX(2048px);}
.step3 {transform: translateX(3072px);}
.step4 {transform: translateX(4096px);}
.step5 {transform: translateX(5120px);}
.step6 {transform: translateX(6144px);}
.step7 {transform: translateX(7168px);}
.step8 {transform: translateX(8192px);}
.step9 {transform: translateX(9216px);}
.step10 {transform: translateX(10240px);}
.step11 {transform: translateX(11264px);}
.step12 {transform: translateX(12288px);}
.step13 {transform: translateX(13312px);}
.step14 {transform: translateX(14336px);}
.step15 {transform: translateX(15360px);}
.step16 {transform: translateX(16384px);}
.step17 {transform: translateX(17408px);}
.step18 {transform: translateX(18432px);}
.step19 {transform: translateX(19456px);}
.step20 {transform: translateX(20480px);}
.step21 {transform: translateX(21504px);}
.step22 {transform: translateX(22528px);}
.step23 {transform: translateX(23552px);}
.step24 {transform: translateX(24576px);}
.step25 {transform: translateX(25600px);}
.step26 {transform: translateX(26624px);}
.step27 {transform: translateX(27648px);}
.step28 {transform: translateX(28672px);}
.step29 {transform: translateX(29696px);}
    </style>

    <path d="M 281 764 Q 303 745 327 723 Q 343 710 360 712 Q 372 713 377 728 Q 381 744 369 777 Q 357 804 272 816 Q 254 819 248 815 Q 242 811 245 797 Q 249 784 281 764 Z" fill="lightgray" class="stroke step8"/>
    <path d="M 45 564 Q 32 563 28 554 Q 25 544 41 532 Q 83 504 125 519 Q 228 556 376 582 Q 394 585 394 592 Q 395 605 376 614 Q 348 626 325 620 Q 121 572 45 564 Z" fill="lightgray" class="stroke step8"/>
    <path d="M 188 463 Q 157 454 181 441 Q 223 428 280 445 Q 310 454 343 462 Q 359 468 362 470 Q 369 479 364 486 Q 357 496 329 499 Q 304 502 240 475 Q 216 468 188 463 Z" fill="lightgray" class="stroke step8"/>
    <path d="M 185 359 Q 152 350 177 337 Q 217 319 267 337 Q 298 346 332 355 Q 348 359 350 362 Q 357 371 352 378 Q 345 388 317 391 Q 302 392 228 368 Q 209 362 185 359 Z" fill="lightgray" class="stroke step8"/>
    <path d="M 161 246 Q 149 252 120 257 Q 108 260 105 255 Q 98 249 107 233 Q 134 178 149 88 Q 152 61 168 44 Q 186 22 191 37 Q 198 55 192 90 L 187 124 Q 177 197 175 219 C 173 241 173 241 161 246 Z" fill="lightgray" class="stroke step8"/>
    <path d="M 317 145 Q 333 203 351 222 Q 372 247 350 260 Q 331 270 305 287 Q 287 296 243 272 Q 195 256 161 246 C 132 237 146 212 175 219 Q 187 222 252 236 Q 271 240 276 232 Q 283 228 277 200 Q 273 178 269 152 C 264 122 309 116 317 145 Z" fill="lightgray" class="stroke step8"/>
    <path d="M 192 90 Q 198 90 204 92 Q 243 104 327 117 Q 337 118 338 128 Q 338 135 317 145 C 294 157 294 157 269 152 Q 262 151 258 149 Q 221 136 187 124 C 159 114 162 88 192 90 Z" fill="lightgray" class="stroke step8"/>
    <path d="M 531 580 Q 556 608 576 637 Q 607 683 637 720 Q 649 732 634 748 Q 595 787 567 783 Q 555 782 556 766 Q 562 708 506 623 L 479 585 Q 457 560 433 537 Q 402 509 386 492 Q 376 477 392 481 Q 422 484 499 548 L 531 580 Z" fill="lightgray" class="stroke step8"/>
    <path d="M 525 370 Q 525 217 491 123 Q 485 107 476 106 Q 467 102 441 102 Q 413 109 409 104 Q 406 98 416 88 Q 443 60 460 35 Q 475 14 482 15 Q 489 12 507 30 Q 592 129 562 462 Q 555 511 542 552 Q 538 568 531 580 L 506 623 Q 469 665 419 684 Q 406 691 403 681 Q 400 668 407 651 Q 414 633 431 631 Q 458 621 479 585 L 499 548 Q 511 512 516 477 L 525 370 Z" fill="lightgray" class="stroke step8"/>
    <path d="M 516 477 Q 515 477 514 474 Q 487 366 369 188 Q 365 178 376 178 Q 394 178 470 276 Q 500 315 525 370 C 538 397 527 505 516 477 Z" fill="lightgray" class="hide"/>
    <path d="M 764 557 Q 921 602 924 603 Q 933 612 928 620 Q 921 632 890 638 Q 859 642 829 628 Q 792 615 752 602 Q 709 590 656 583 Q 619 574 646 559 Q 676 544 717 546 L 764 557 Z" fill="lightgray" class="hide"/>
    <path d="M 785 369 Q 836 378 880 383 Q 908 387 897 403 Q 885 419 855 425 Q 830 429 787 418 L 732 401 Q 689 391 653 380 Q 634 376 657 358 Q 667 351 690 354 Q 711 358 732 360 L 785 369 Z" fill="lightgray" class="hide"/>
    <path d="M 780 218 Q 781 299 785 369 L 787 418 Q 787 475 791 507 Q 800 534 764 557 C 740 574 707 574 717 546 Q 729 521 732 401 L 732 360 Q 732 300 733 210 C 733 180 780 188 780 218 Z" fill="lightgray" class="hide"/>
    <path d="M 733 210 Q 663 201 584 189 Q 563 188 579 171 Q 592 158 610 152 Q 629 148 646 152 Q 746 177 967 177 Q 986 177 991 186 Q 997 196 980 210 Q 928 252 861 233 Q 827 227 780 218 L 733 210 Z" fill="lightgray" class="hide"/></g><g transform="scale(1, -1) translate(0, -900)">
    <style type="text/css">
        .origin {display:none;}
        .hide {display:none;}
        .stroke {fill: #000000;}
        
.step1 {transform: translateX(1024px);}
.step2 {transform: translateX(2048px);}
.step3 {transform: translateX(3072px);}
.step4 {transform: translateX(4096px);}
.step5 {transform: translateX(5120px);}
.step6 {transform: translateX(6144px);}
.step7 {transform: translateX(7168px);}
.step8 {transform: translateX(8192px);}
.step9 {transform: translateX(9216px);}
.step10 {transform: translateX(10240px);}
.step11 {transform: translateX(11264px);}
.step12 {transform: translateX(12288px);}
.step13 {transform: translateX(13312px);}
.step14 {transform: translateX(14336px);}
.step15 {transform: translateX(15360px);}
.step16 {transform: translateX(16384px);}
.step17 {transform: translateX(17408px);}
.step18 {transform: translateX(18432px);}
.step19 {transform: translateX(19456px);}
.step20 {transform: translateX(20480px);}
.step21 {transform: translateX(21504px);}
.step22 {transform: translateX(22528px);}
.step23 {transform: translateX(23552px);}
.step24 {transform: translateX(24576px);}
.step25 {transform: translateX(25600px);}
.step26 {transform: translateX(26624px);}
.step27 {transform: translateX(27648px);}
.step28 {transform: translateX(28672px);}
.step29 {transform: translateX(29696px);}
    </style>

    <path d="M 281 764 Q 303 745 327 723 Q 343 710 360 712 Q 372 713 377 728 Q 381 744 369 777 Q 357 804 272 816 Q 254 819 248 815 Q 242 811 245 797 Q 249 784 281 764 Z" fill="lightgray" class="stroke step9"/>
    <path d="M 45 564 Q 32 563 28 554 Q 25 544 41 532 Q 83 504 125 519 Q 228 556 376 582 Q 394 585 394 592 Q 395 605 376 614 Q 348 626 325 620 Q 121 572 45 564 Z" fill="lightgray" class="stroke step9"/>
    <path d="M 188 463 Q 157 454 181 441 Q 223 428 280 445 Q 310 454 343 462 Q 359 468 362 470 Q 369 479 364 486 Q 357 496 329 499 Q 304 502 240 475 Q 216 468 188 463 Z" fill="lightgray" class="stroke step9"/>
    <path d="M 185 359 Q 152 350 177 337 Q 217 319 267 337 Q 298 346 332 355 Q 348 359 350 362 Q 357 371 352 378 Q 345 388 317 391 Q 302 392 228 368 Q 209 362 185 359 Z" fill="lightgray" class="stroke step9"/>
    <path d="M 161 246 Q 149 252 120 257 Q 108 260 105 255 Q 98 249 107 233 Q 134 178 149 88 Q 152 61 168 44 Q 186 22 191 37 Q 198 55 192 90 L 187 124 Q 177 197 175 219 C 173 241 173 241 161 246 Z" fill="lightgray" class="stroke step9"/>
    <path d="M 317 145 Q 333 203 351 222 Q 372 247 350 260 Q 331 270 305 287 Q 287 296 243 272 Q 195 256 161 246 C 132 237 146 212 175 219 Q 187 222 252 236 Q 271 240 276 232 Q 283 228 277 200 Q 273 178 269 152 C 264 122 309 116 317 145 Z" fill="lightgray" class="stroke step9"/>
    <path d="M 192 90 Q 198 90 204 92 Q 243 104 327 117 Q 337 118 338 128 Q 338 135 317 145 C 294 157 294 157 269 152 Q 262 151 258 149 Q 221 136 187 124 C 159 114 162 88 192 90 Z" fill="lightgray" class="stroke step9"/>
    <path d="M 531 580 Q 556 608 576 637 Q 607 683 637 720 Q 649 732 634 748 Q 595 787 567 783 Q 555 782 556 766 Q 562 708 506 623 L 479 585 Q 457 560 433 537 Q 402 509 386 492 Q 376 477 392 481 Q 422 484 499 548 L 531 580 Z" fill="lightgray" class="stroke step9"/>
    <path d="M 525 370 Q 525 217 491 123 Q 485 107 476 106 Q 467 102 441 102 Q 413 109 409 104 Q 406 98 416 88 Q 443 60 460 35 Q 475 14 482 15 Q 489 12 507 30 Q 592 129 562 462 Q 555 511 542 552 Q 538 568 531 580 L 506 623 Q 469 665 419 684 Q 406 691 403 681 Q 400 668 407 651 Q 414 633 431 631 Q 458 621 479 585 L 499 548 Q 511 512 516 477 L 525 370 Z" fill="lightgray" class="stroke step9"/>
    <path d="M 516 477 Q 515 477 514 474 Q 487 366 369 188 Q 365 178 376 178 Q 394 178 470 276 Q 500 315 525 370 C 538 397 527 505 516 477 Z" fill="lightgray" class="stroke step9"/>
    <path d="M 764 557 Q 921 602 924 603 Q 933 612 928 620 Q 921 632 890 638 Q 859 642 829 628 Q 792 615 752 602 Q 709 590 656 583 Q 619 574 646 559 Q 676 544 717 546 L 764 557 Z" fill="lightgray" class="hide"/>
    <path d="M 785 369 Q 836 378 880 383 Q 908 387 897 403 Q 885 419 855 425 Q 830 429 787 418 L 732 401 Q 689 391 653 380 Q 634 376 657 358 Q 667 351 690 354 Q 711 358 732 360 L 785 369 Z" fill="lightgray" class="hide"/>
    <path d="M 780 218 Q 781 299 785 369 L 787 418 Q 787 475 791 507 Q 800 534 764 557 C 740 574 707 574 717 546 Q 729 521 732 401 L 732 360 Q 732 300 733 210 C 733 180 780 188 780 218 Z" fill="lightgray" class="hide"/>
    <path d="M 733 210 Q 663 201 584 189 Q 563 188 579 171 Q 592 158 610 152 Q 629 148 646 152 Q 746 177 967 177 Q 986 177 991 186 Q 997 196 980 210 Q 928 252 861 233 Q 827 227 780 218 L 733 210 Z" fill="lightgray" class="hide"/></g><g transform="scale(1, -1) translate(0, -900)">
    <style type="text/css">
        .origin {display:none;}
        .hide {display:none;}
        .stroke {fill: #000000;}
        
.step1 {transform: translateX(1024px);}
.step2 {transform: translateX(2048px);}
.step3 {transform: translateX(3072px);}
.step4 {transform: translateX(4096px);}
.step5 {transform: translateX(5120px);}
.step6 {transform: translateX(6144px);}
.step7 {transform: translateX(7168px);}
.step8 {transform: translateX(8192px);}
.step9 {transform: translateX(9216px);}
.step10 {transform: translateX(10240px);}
.step11 {transform: translateX(11264px);}
.step12 {transform: translateX(12288px);}
.step13 {transform: translateX(13312px);}
.step14 {transform: translateX(14336px);}
.step15 {transform: translateX(15360px);}
.step16 {transform: translateX(16384px);}
.step17 {transform: translateX(17408px);}
.step18 {transform: translateX(18432px);}
.step19 {transform: translateX(19456px);}
.step20 {transform: translateX(20480px);}
.step21 {transform: translateX(21504px);}
.step22 {transform: translateX(22528px);}
.step23 {transform: translateX(23552px);}
.step24 {transform: translateX(24576px);}
.step25 {transform: translateX(25600px);}
.step26 {transform: translateX(26624px);}
.step27 {transform: translateX(27648px);}
.step28 {transform: translateX(28672px);}
.step29 {transform: translateX(29696px);}
    </style>

    <path d="M 281 764 Q 303 745 327 723 Q 343 710 360 712 Q 372 713 377 728 Q 381 744 369 777 Q 357 804 272 816 Q 254 819 248 815 Q 242 811 245 797 Q 249 784 281 764 Z" fill="lightgray" class="stroke step10"/>
    <path d="M 45 564 Q 32 563 28 554 Q 25 544 41 532 Q 83 504 125 519 Q 228 556 376 582 Q 394 585 394 592 Q 395 605 376 614 Q 348 626 325 620 Q 121 572 45 564 Z" fill="lightgray" class="stroke step10"/>
    <path d="M 188 463 Q 157 454 181 441 Q 223 428 280 445 Q 310 454 343 462 Q 359 468 362 470 Q 369 479 364 486 Q 357 496 329 499 Q 304 502 240 475 Q 216 468 188 463 Z" fill="lightgray" class="stroke step10"/>
    <path d="M 185 359 Q 152 350 177 337 Q 217 319 267 337 Q 298 346 332 355 Q 348 359 350 362 Q 357 371 352 378 Q 345 388 317 391 Q 302 392 228 368 Q 209 362 185 359 Z" fill="lightgray" class="stroke step10"/>
    <path d="M 161 246 Q 149 252 120 257 Q 108 260 105 255 Q 98 249 107 233 Q 134 178 149 88 Q 152 61 168 44 Q 186 22 191 37 Q 198 55 192 90 L 187 124 Q 177 197 175 219 C 173 241 173 241 161 246 Z" fill="lightgray" class="stroke step10"/>
    <path d="M 317 145 Q 333 203 351 222 Q 372 247 350 260 Q 331 270 305 287 Q 287 296 243 272 Q 195 256 161 246 C 132 237 146 212 175 219 Q 187 222 252 236 Q 271 240 276 232 Q 283 228 277 200 Q 273 178 269 152 C 264 122 309 116 317 145 Z" fill="lightgray" class="stroke step10"/>
    <path d="M 192 90 Q 198 90 204 92 Q 243 104 327 117 Q 337 118 338 128 Q 338 135 317 145 C 294 157 294 157 269 152 Q 262 151 258 149 Q 221 136 187 124 C 159 114 162 88 192 90 Z" fill="lightgray" class="stroke step10"/>
    <path d="M 531 580 Q 556 608 576 637 Q 607 683 637 720 Q 649 732 634 748 Q 595 787 567 783 Q 555 782 556 766 Q 562 708 506 623 L 479 585 Q 457 560 433 537 Q 402 509 386 492 Q 376 477 392 481 Q 422 484 499 548 L 531 580 Z" fill="lightgray" class="stroke step10"/>
    <path d="M 525 370 Q 525 217 491 123 Q 485 107 476 106 Q 467 102 441 102 Q 413 109 409 104 Q 406 98 416 88 Q 443 60 460 35 Q 475 14 482 15 Q 489 12 507 30 Q 592 129 562 462 Q 555 511 542 552 Q 538 568 531 580 L 506 623 Q 469 665 419 684 Q 406 691 403 681 Q 400 668 407 651 Q 414 633 431 631 Q 458 621 479 585 L 499 548 Q 511 512 516 477 L 525 370 Z" fill="lightgray" class="stroke step10"/>
    <path d="M 516 477 Q 515 477 514 474 Q 487 366 369 188 Q 365 178 376 178 Q 394 178 470 276 Q 500 315 525 370 C 538 397 527 505 516 477 Z" fill="lightgray" class="stroke step10"/>
    <path d="M 764 557 Q 921 602 924 603 Q 933 612 928 620 Q 921 632 890 638 Q 859 642 829 628 Q 792 615 752 602 Q 709 590 656 583 Q 619 574 646 559 Q 676 544 717 546 L 764 557 Z" fill="lightgray" class="stroke step10"/>
    <path d="M 785 369 Q 836 378 880 383 Q 908 387 897 403 Q 885 419 855 425 Q 830 429 787 418 L 732 401 Q 689 391 653 380 Q 634 376 657 358 Q 667 351 690 354 Q 711 358 732 360 L 785 369 Z" fill="lightgray" class="hide"/>
    <path d="M 780 218 Q 781 299 785 369 L 787 418 Q 787 475 791 507 Q 800 534 764 557 C 740 574 707 574 717 546 Q 729 521 732 401 L 732 360 Q 732 300 733 210 C 733 180 780 188 780 218 Z" fill="lightgray" class="hide"/>
    <path d="M 733 210 Q 663 201 584 189 Q 563 188 579 171 Q 592 158 610 152 Q 629 148 646 152 Q 746 177 967 177 Q 986 177 991 186 Q 997 196 980 210 Q 928 252 861 233 Q 827 227 780 218 L 733 210 Z" fill="lightgray" class="hide"/></g><g transform="scale(1, -1) translate(0, -900)">
    <style type="text/css">
        .origin {display:none;}
        .hide {display:none;}
        .stroke {fill: #000000;}
        
.step1 {transform: translateX(1024px);}
.step2 {transform: translateX(2048px);}
.step3 {transform: translateX(3072px);}
.step4 {transform: translateX(4096px);}
.step5 {transform: translateX(5120px);}
.step6 {transform: translateX(6144px);}
.step7 {transform: translateX(7168px);}
.step8 {transform: translateX(8192px);}
.step9 {transform: translateX(9216px);}
.step10 {transform: translateX(10240px);}
.step11 {transform: translateX(11264px);}
.step12 {transform: translateX(12288px);}
.step13 {transform: translateX(13312px);}
.step14 {transform: translateX(14336px);}
.step15 {transform: translateX(15360px);}
.step16 {transform: translateX(16384px);}
.step17 {transform: translateX(17408px);}
.step18 {transform: translateX(18432px);}
.step19 {transform: translateX(19456px);}
.step20 {transform: translateX(20480px);}
.step21 {transform: translateX(21504px);}
.step22 {transform: translateX(22528px);}
.step23 {transform: translateX(23552px);}
.step24 {transform: translateX(24576px);}
.step25 {transform: translateX(25600px);}
.step26 {transform: translateX(26624px);}
.step27 {transform: translateX(27648px);}
.step28 {transform: translateX(28672px);}
.step29 {transform: translateX(29696px);}
    </style>

    <path d="M 281 764 Q 303 745 327 723 Q 343 710 360 712 Q 372 713 377 728 Q 381 744 369 777 Q 357 804 272 816 Q 254 819 248 815 Q 242 811 245 797 Q 249 784 281 764 Z" fill="lightgray" class="stroke step11"/>
    <path d="M 45 564 Q 32 563 28 554 Q 25 544 41 532 Q 83 504 125 519 Q 228 556 376 582 Q 394 585 394 592 Q 395 605 376 614 Q 348 626 325 620 Q 121 572 45 564 Z" fill="lightgray" class="stroke step11"/>
    <path d="M 188 463 Q 157 454 181 441 Q 223 428 280 445 Q 310 454 343 462 Q 359 468 362 470 Q 369 479 364 486 Q 357 496 329 499 Q 304 502 240 475 Q 216 468 188 463 Z" fill="lightgray" class="stroke step11"/>
    <path d="M 185 359 Q 152 350 177 337 Q 217 319 267 337 Q 298 346 332 355 Q 348 359 350 362 Q 357 371 352 378 Q 345 388 317 391 Q 302 392 228 368 Q 209 362 185 359 Z" fill="lightgray" class="stroke step11"/>
    <path d="M 161 246 Q 149 252 120 257 Q 108 260 105 255 Q 98 249 107 233 Q 134 178 149 88 Q 152 61 168 44 Q 186 22 191 37 Q 198 55 192 90 L 187 124 Q 177 197 175 219 C 173 241 173 241 161 246 Z" fill="lightgray" class="stroke step11"/>
    <path d="M 317 145 Q 333 203 351 222 Q 372 247 350 260 Q 331 270 305 287 Q 287 296 243 272 Q 195 256 161 246 C 132 237 146 212 175 219 Q 187 222 252 236 Q 271 240 276 232 Q 283 228 277 200 Q 273 178 269 152 C 264 122 309 116 317 145 Z" fill="lightgray" class="stroke step11"/>
    <path d="M 192 90 Q 198 90 204 92 Q 243 104 327 117 Q 337 118 338 128 Q 338 135 317 145 C 294 157 294 157 269 152 Q 262 151 258 149 Q 221 136 187 124 C 159 114 162 88 192 90 Z" fill="lightgray" class="stroke step11"/>
    <path d="M 531 580 Q 556 608 576 637 Q 607 683 637 720 Q 649 732 634 748 Q 595 787 567 783 Q 555 782 556 766 Q 562 708 506 623 L 479 585 Q 457 560 433 537 Q 402 509 386 492 Q 376 477 392 481 Q 422 484 499 548 L 531 580 Z" fill="lightgray" class="stroke step11"/>
    <path d="M 525 370 Q 525 217 491 123 Q 485 107 476 106 Q 467 102 441 102 Q 413 109 409 104 Q 406 98 416 88 Q 443 60 460 35 Q 475 14 482 15 Q 489 12 507 30 Q 592 129 562 462 Q 555 511 542 552 Q 538 568 531 580 L 506 623 Q 469 665 419 684 Q 406 691 403 681 Q 400 668 407 651 Q 414 633 431 631 Q 458 621 479 585 L 499 548 Q 511 512 516 477 L 525 370 Z" fill="lightgray" class="stroke step11"/>
    <path d="M 516 477 Q 515 477 514 474 Q 487 366 369 188 Q 365 178 376 178 Q 394 178 470 276 Q 500 315 525 370 C 538 397 527 505 516 477 Z" fill="lightgray" class="stroke step11"/>
    <path d="M 764 557 Q 921 602 924 603 Q 933 612 928 620 Q 921 632 890 638 Q 859 642 829 628 Q 792 615 752 602 Q 709 590 656 583 Q 619 574 646 559 Q 676 544 717 546 L 764 557 Z" fill="lightgray" class="stroke step11"/>
    <path d="M 785 369 Q 836 378 880 383 Q 908 387 897 403 Q 885 419 855 425 Q 830 429 787 418 L 732 401 Q 689 391 653 380 Q 634 376 657 358 Q 667 351 690 354 Q 711 358 732 360 L 785 369 Z" fill="lightgray" class="stroke step11"/>
    <path d="M 780 218 Q 781 299 785 369 L 787 418 Q 787 475 791 507 Q 800 534 764 557 C 740 574 707 574 717 546 Q 729 521 732 401 L 732 360 Q 732 300 733 210 C 733 180 780 188 780 218 Z" fill="lightgray" class="hide"/>
    <path d="M 733 210 Q 663 201 584 189 Q 563 188 579 171 Q 592 158 610 152 Q 629 148 646 152 Q 746 177 967 177 Q 986 177 991 186 Q 997 196 980 210 Q 928 252 861 233 Q 827 227 780 218 L 733 210 Z" fill="lightgray" class="hide"/></g><g transform="scale(1, -1) translate(0, -900)">
    <style type="text/css">
        .origin {display:none;}
        .hide {display:none;}
        .stroke {fill: #000000;}
        
.step1 {transform: translateX(1024px);}
.step2 {transform: translateX(2048px);}
.step3 {transform: translateX(3072px);}
.step4 {transform: translateX(4096px);}
.step5 {transform: translateX(5120px);}
.step6 {transform: translateX(6144px);}
.step7 {transform: translateX(7168px);}
.step8 {transform: translateX(8192px);}
.step9 {transform: translateX(9216px);}
.step10 {transform: translateX(10240px);}
.step11 {transform: translateX(11264px);}
.step12 {transform: translateX(12288px);}
.step13 {transform: translateX(13312px);}
.step14 {transform: translateX(14336px);}
.step15 {transform: translateX(15360px);}
.step16 {transform: translateX(16384px);}
.step17 {transform: translateX(17408px);}
.step18 {transform: translateX(18432px);}
.step19 {transform: translateX(19456px);}
.step20 {transform: translateX(20480px);}
.step21 {transform: translateX(21504px);}
.step22 {transform: translateX(22528px);}
.step23 {transform: translateX(23552px);}
.step24 {transform: translateX(24576px);}
.step25 {transform: translateX(25600px);}
.step26 {transform: translateX(26624px);}
.step27 {transform: translateX(27648px);}
.step28 {transform: translateX(28672px);}
.step29 {transform: translateX(29696px);}
    </style>

    <path d="M 281 764 Q 303 745 327 723 Q 343 710 360 712 Q 372 713 377 728 Q 381 744 369 777 Q 357 804 272 816 Q 254 819 248 815 Q 242 811 245 797 Q 249 784 281 764 Z" fill="lightgray" class="stroke step12"/>
    <path d="M 45 564 Q 32 563 28 554 Q 25 544 41 532 Q 83 504 125 519 Q 228 556 376 582 Q 394 585 394 592 Q 395 605 376 614 Q 348 626 325 620 Q 121 572 45 564 Z" fill="lightgray" class="stroke step12"/>
    <path d="M 188 463 Q 157 454 181 441 Q 223 428 280 445 Q 310 454 343 462 Q 359 468 362 470 Q 369 479 364 486 Q 357 496 329 499 Q 304 502 240 475 Q 216 468 188 463 Z" fill="lightgray" class="stroke step12"/>
    <path d="M 185 359 Q 152 350 177 337 Q 217 319 267 337 Q 298 346 332 355 Q 348 359 350 362 Q 357 371 352 378 Q 345 388 317 391 Q 302 392 228 368 Q 209 362 185 359 Z" fill="lightgray" class="stroke step12"/>
    <path d="M 161 246 Q 149 252 120 257 Q 108 260 105 255 Q 98 249 107 233 Q 134 178 149 88 Q 152 61 168 44 Q 186 22 191 37 Q 198 55 192 90 L 187 124 Q 177 197 175 219 C 173 241 173 241 161 246 Z" fill="lightgray" class="stroke step12"/>
    <path d="M 317 145 Q 333 203 351 222 Q 372 247 350 260 Q 331 270 305 287 Q 287 296 243 272 Q 195 256 161 246 C 132 237 146 212 175 219 Q 187 222 252 236 Q 271 240 276 232 Q 283 228 277 200 Q 273 178 269 152 C 264 122 309 116 317 145 Z" fill="lightgray" class="stroke step12"/>
    <path d="M 192 90 Q 198 90 204 92 Q 243 104 327 117 Q 337 118 338 128 Q 338 135 317 145 C 294 157 294 157 269 152 Q 262 151 258 149 Q 221 136 187 124 C 159 114 162 88 192 90 Z" fill="lightgray" class="stroke step12"/>
    <path d="M 531 580 Q 556 608 576 637 Q 607 683 637 720 Q 649 732 634 748 Q 595 787 567 783 Q 555 782 556 766 Q 562 708 506 623 L 479 585 Q 457 560 433 537 Q 402 509 386 492 Q 376 477 392 481 Q 422 484 499 548 L 531 580 Z" fill="lightgray" class="stroke step12"/>
    <path d="M 525 370 Q 525 217 491 123 Q 485 107 476 106 Q 467 102 441 102 Q 413 109 409 104 Q 406 98 416 88 Q 443 60 460 35 Q 475 14 482 15 Q 489 12 507 30 Q 592 129 562 462 Q 555 511 542 552 Q 538 568 531 580 L 506 623 Q 469 665 419 684 Q 406 691 403 681 Q 400 668 407 651 Q 414 633 431 631 Q 458 621 479 585 L 499 548 Q 511 512 516 477 L 525 370 Z" fill="lightgray" class="stroke step12"/>
    <path d="M 516 477 Q 515 477 514 474 Q 487 366 369 188 Q 365 178 376 178 Q 394 178 470 276 Q 500 315 525 370 C 538 397 527 505 516 477 Z" fill="lightgray" class="stroke step12"/>
    <path d="M 764 557 Q 921 602 924 603 Q 933 612 928 620 Q 921 632 890 638 Q 859 642 829 628 Q 792 615 752 602 Q 709 590 656 583 Q 619 574 646 559 Q 676 544 717 546 L 764 557 Z" fill="lightgray" class="stroke step12"/>
    <path d="M 785 369 Q 836 378 880 383 Q 908 387 897 403 Q 885 419 855 425 Q 830 429 787 418 L 732 401 Q 689 391 653 380 Q 634 376 657 358 Q 667 351 690 354 Q 711 358 732 360 L 785 369 Z" fill="lightgray" class="stroke step12"/>
    <path d="M 780 218 Q 781 299 785 369 L 787 418 Q 787 475 791 507 Q 800 534 764 557 C 740 574 707 574 717 546 Q 729 521 732 401 L 732 360 Q 732 300 733 210 C 733 180 780 188 780 218 Z" fill="lightgray" class="stroke step12"/>
    <path d="M 733 210 Q 663 201 584 189 Q 563 188 579 171 Q 592 158 610 152 Q 629 148 646 152 Q 746 177 967 177 Q 986 177 991 186 Q 997 196 980 210 Q 928 252 861 233 Q 827 227 780 218 L 733 210 Z" fill="lightgray" class="hide"/></g><g transform="scale(1, -1) translate(0, -900)">
    <style type="text/css">
        .origin {display:none;}
        .hide {display:none;}
        .stroke {fill: #000000;}
        
.step1 {transform: translateX(1024px);}
.step2 {transform: translateX(2048px);}
.step3 {transform: translateX(3072px);}
.step4 {transform: translateX(4096px);}
.step5 {transform: translateX(5120px);}
.step6 {transform: translateX(6144px);}
.step7 {transform: translateX(7168px);}
.step8 {transform: translateX(8192px);}
.step9 {transform: translateX(9216px);}
.step10 {transform: translateX(10240px);}
.step11 {transform: translateX(11264px);}
.step12 {transform: translateX(12288px);}
.step13 {transform: translateX(13312px);}
.step14 {transform: translateX(14336px);}
.step15 {transform: translateX(15360px);}
.step16 {transform: translateX(16384px);}
.step17 {transform: translateX(17408px);}
.step18 {transform: translateX(18432px);}
.step19 {transform: translateX(19456px);}
.step20 {transform: translateX(20480px);}
.step21 {transform: translateX(21504px);}
.step22 {transform: translateX(22528px);}
.step23 {transform: translateX(23552px);}
.step24 {transform: translateX(24576px);}
.step25 {transform: translateX(25600px);}
.step26 {transform: translateX(26624px);}
.step27 {transform: translateX(27648px);}
.step28 {transform: translateX(28672px);}
.step29 {transform: translateX(29696px);}
    </style>

    <path d="M 281 764 Q 303 745 327 723 Q 343 710 360 712 Q 372 713 377 728 Q 381 744 369 777 Q 357 804 272 816 Q 254 819 248 815 Q 242 811 245 797 Q 249 784 281 764 Z" fill="lightgray" class="stroke step13"/>
    <path d="M 45 564 Q 32 563 28 554 Q 25 544 41 532 Q 83 504 125 519 Q 228 556 376 582 Q 394 585 394 592 Q 395 605 376 614 Q 348 626 325 620 Q 121 572 45 564 Z" fill="lightgray" class="stroke step13"/>
    <path d="M 188 463 Q 157 454 181 441 Q 223 428 280 445 Q 310 454 343 462 Q 359 468 362 470 Q 369 479 364 486 Q 357 496 329 499 Q 304 502 240 475 Q 216 468 188 463 Z" fill="lightgray" class="stroke step13"/>
    <path d="M 185 359 Q 152 350 177 337 Q 217 319 267 337 Q 298 346 332 355 Q 348 359 350 362 Q 357 371 352 378 Q 345 388 317 391 Q 302 392 228 368 Q 209 362 185 359 Z" fill="lightgray" class="stroke step13"/>
    <path d="M 161 246 Q 149 252 120 257 Q 108 260 105 255 Q 98 249 107 233 Q 134 178 149 88 Q 152 61 168 44 Q 186 22 191 37 Q 198 55 192 90 L 187 124 Q 177 197 175 219 C 173 241 173 241 161 246 Z" fill="lightgray" class="stroke step13"/>
    <path d="M 317 145 Q 333 203 351 222 Q 372 247 350 260 Q 331 270 305 287 Q 287 296 243 272 Q 195 256 161 246 C 132 237 146 212 175 219 Q 187 222 252 236 Q 271 240 276 232 Q 283 228 277 200 Q 273 178 269 152 C 264 122 309 116 317 145 Z" fill="lightgray" class="stroke step13"/>
    <path d="M 192 90 Q 198 90 204 92 Q 243 104 327 117 Q 337 118 338 128 Q 338 135 317 145 C 294 157 294 157 269 152 Q 262 151 258 149 Q 221 136 187 124 C 159 114 162 88 192 90 Z" fill="lightgray" class="stroke step13"/>
    <path d="M 531 580 Q 556 608 576 637 Q 607 683 637 720 Q 649 732 634 748 Q 595 787 567 783 Q 555 782 556 766 Q 562 708 506 623 L 479 585 Q 457 560 433 537 Q 402 509 386 492 Q 376 477 392 481 Q 422 484 499 548 L 531 580 Z" fill="lightgray" class="stroke step13"/>
    <path d="M 525 370 Q 525 217 491 123 Q 485 107 476 106 Q 467 102 441 102 Q 413 109 409 104 Q 406 98 416 88 Q 443 60 460 35 Q 475 14 482 15 Q 489 12 507 30 Q 592 129 562 462 Q 555 511 542 552 Q 538 568 531 580 L 506 623 Q 469 665 419 684 Q 406 691 403 681 Q 400 668 407 651 Q 414 633 431 631 Q 458 621 479 585 L 499 548 Q 511 512 516 477 L 525 370 Z" fill="lightgray" class="stroke step13"/>
    <path d="M 516 477 Q 515 477 514 474 Q 487 366 369 188 Q 365 178 376 178 Q 394 178 470 276 Q 500 315 525 370 C 538 397 527 505 516 477 Z" fill="lightgray" class="stroke step13"/>
    <path d="M 764 557 Q 921 602 924 603 Q 933 612 928 620 Q 921 632 890 638 Q 859 642 829 628 Q 792 615 752 602 Q 709 590 656 583 Q 619 574 646 559 Q 676 544 717 546 L 764 557 Z" fill="lightgray" class="stroke step13"/>
    <path d="M 785 369 Q 836 378 880 383 Q 908 387 897 403 Q 885 419 855 425 Q 830 429 787 418 L 732 401 Q 689 391 653 380 Q 634 376 657 358 Q 667 351 690 354 Q 711 358 732 360 L 785 369 Z" fill="lightgray" class="stroke step13"/>
    <path d="M 780 218 Q 781 299 785 369 L 787 418 Q 787 475 791 507 Q 800 534 764 557 C 740 574 707 574 717 546 Q 729 521 732 401 L 732 360 Q 732 300 733 210 C 733 180 780 188 780 218 Z" fill="lightgray" class="stroke step13"/>
    <path d="M 733 210 Q 663 201 584 189 Q 563 188 579 171 Q 592 158 610 152 Q 629 148 646 152 Q 746 177 967 177 Q 986 177 991 186 Q 997 196 980 210 Q 928 252 861 233 Q 827 227 780 218 L 733 210 Z" fill="lightgray" class="stroke step13"/></g></svg>