<svg version="1.1" viewBox="0 0 15360 1024" xmlns="http://www.w3.org/2000/svg">
  
  <g transform="scale(1, -1) translate(0, -900)" class="origin">
    <style type="text/css">
        .origin {display:none;}
        .hide {display:none;}
        .stroke {fill: #000000;}
        
.step1 {transform: translateX(1024px);}
.step2 {transform: translateX(2048px);}
.step3 {transform: translateX(3072px);}
.step4 {transform: translateX(4096px);}
.step5 {transform: translateX(5120px);}
.step6 {transform: translateX(6144px);}
.step7 {transform: translateX(7168px);}
.step8 {transform: translateX(8192px);}
.step9 {transform: translateX(9216px);}
.step10 {transform: translateX(10240px);}
.step11 {transform: translateX(11264px);}
.step12 {transform: translateX(12288px);}
.step13 {transform: translateX(13312px);}
.step14 {transform: translateX(14336px);}
.step15 {transform: translateX(15360px);}
.step16 {transform: translateX(16384px);}
.step17 {transform: translateX(17408px);}
.step18 {transform: translateX(18432px);}
.step19 {transform: translateX(19456px);}
.step20 {transform: translateX(20480px);}
.step21 {transform: translateX(21504px);}
.step22 {transform: translateX(22528px);}
.step23 {transform: translateX(23552px);}
.step24 {transform: translateX(24576px);}
.step25 {transform: translateX(25600px);}
.step26 {transform: translateX(26624px);}
.step27 {transform: translateX(27648px);}
.step28 {transform: translateX(28672px);}
.step29 {transform: translateX(29696px);}
    </style>

    <path d="M 300 728 Q 328 706 357 677 Q 373 664 391 664 Q 403 665 408 680 Q 414 698 402 731 Q 390 762 293 783 Q 275 787 268 783 Q 262 779 264 764 Q 268 751 300 728 Z" fill="lightgray"/>
    <path d="M 56 532 Q 43 531 40 522 Q 37 512 53 500 Q 90 476 155 496 Q 248 533 397 561 Q 415 565 415 572 Q 415 585 396 594 Q 368 604 344 598 Q 155 547 56 532 Z" fill="lightgray"/>
    <path d="M 216 443 Q 183 433 209 421 Q 245 408 317 430 Q 341 437 368 446 Q 384 452 386 454 Q 393 463 388 470 Q 381 480 353 483 Q 337 483 262 455 Q 241 448 216 443 Z" fill="lightgray"/>
    <path d="M 220 347 Q 187 337 213 325 Q 255 309 303 328 Q 334 337 366 347 Q 379 351 382 354 Q 389 363 384 370 Q 377 380 349 383 Q 336 383 262 357 Q 243 351 220 347 Z" fill="lightgray"/>
    <path d="M 208 234 Q 198 240 165 243 Q 153 246 151 241 Q 145 234 154 220 Q 185 162 206 66 Q 210 38 228 18 Q 246 -1 250 13 Q 257 35 247 77 L 246 78 C 245 81 245 82 239 111 Q 223 183 220 207 C 217 230 217 230 208 234 Z" fill="lightgray"/>
    <path d="M 361 127 Q 380 185 399 203 Q 421 228 400 242 Q 340 279 327 275 Q 321 275 317 271 Q 292 255 208 234 C 179 227 192 197 220 207 Q 230 213 297 222 Q 319 226 323 218 Q 326 215 311 133 C 306 103 351 99 361 127 Z" fill="lightgray"/>
    <path d="M 246 78 Q 246 79 248 79 Q 287 89 370 99 Q 380 100 381 109 Q 381 116 361 127 C 336 141 336 141 311 133 Q 310 133 308 132 Q 269 120 239 111 C 210 102 218 68 246 78 Z" fill="lightgray"/>
    <path d="M 472 533 Q 502 558 519 575 Q 559 620 580 632 Q 596 644 585 656 Q 572 669 548 677 Q 526 684 516 680 Q 506 677 511 667 Q 517 649 469 560 Q 463 550 457 538 C 443 511 449 514 472 533 Z" fill="lightgray"/>
    <path d="M 510 368 Q 507 377 492 448 L 486 480 Q 474 532 473 533 L 472 533 L 457 538 Q 445 542 424 544 Q 412 545 409 541 Q 403 534 412 519 Q 443 461 465 366 Q 469 338 487 319 Q 506 297 511 314 Q 512 323 513 334 L 510 368 Z" fill="lightgray"/>
    <path d="M 492 448 Q 535 461 571 467 Q 592 474 582 485 Q 570 497 546 498 Q 524 498 486 481 Q 485 481 486 480 C 465 459 463 439 492 448 Z" fill="lightgray"/>
    <path d="M 759 361 Q 760 357 762 352 Q 766 336 780 337 Q 793 338 802 353 Q 820 378 849 499 Q 867 551 903 579 Q 922 595 906 611 Q 890 627 840 655 Q 824 664 784 653 Q 760 647 738 641 Q 717 634 703 632 Q 688 632 686 626 Q 683 622 698 612 Q 728 597 748 604 Q 796 623 805 615 Q 818 608 810 567 Q 804 539 798 515 L 791 483 Q 773 408 764 387 Q 763 387 763 386 C 756 369 756 369 759 361 Z" fill="lightgray"/>
    <path d="M 798 515 Q 777 530 689 507 Q 673 506 690 489 Q 694 485 706 484 Q 754 484 791 483 C 821 482 824 500 798 515 Z" fill="lightgray"/>
    <path d="M 650 352 Q 698 358 759 361 C 787 362 784 365 763 386 Q 757 393 746 400 Q 727 412 655 392 L 603 382 Q 554 375 510 368 C 480 363 483 331 513 334 Q 517 334 523 335 Q 553 342 598 347 L 650 352 Z" fill="lightgray"/>
    <path d="M 639 291 Q 639 292 640 292 Q 646 322 650 352 L 655 392 Q 664 479 665 649 Q 665 704 681 769 Q 685 781 677 788 Q 658 803 622 815 Q 601 824 585 817 Q 566 808 582 792 Q 610 765 613 735 Q 622 527 603 382 L 598 347 Q 580 199 451 98 Q 418 76 373 48 Q 360 42 358 38 Q 354 32 369 31 Q 384 30 438 52 Q 477 67 532 107 Q 604 161 633 264 L 639 291 Z" fill="lightgray"/>
    <path d="M 633 264 Q 699 155 785 37 Q 819 3 969 30 Q 979 31 981 37 Q 801 143 749 189 Q 697 234 640 291 Q 639 292 639 291 C 617 311 617 290 633 264 Z" fill="lightgray"/></g>
<g transform="scale(1, -1) translate(0, -900)">
    <style type="text/css">
        .origin {display:none;}
        .hide {display:none;}
        .stroke {fill: #000000;}
        
.step1 {transform: translateX(1024px);}
.step2 {transform: translateX(2048px);}
.step3 {transform: translateX(3072px);}
.step4 {transform: translateX(4096px);}
.step5 {transform: translateX(5120px);}
.step6 {transform: translateX(6144px);}
.step7 {transform: translateX(7168px);}
.step8 {transform: translateX(8192px);}
.step9 {transform: translateX(9216px);}
.step10 {transform: translateX(10240px);}
.step11 {transform: translateX(11264px);}
.step12 {transform: translateX(12288px);}
.step13 {transform: translateX(13312px);}
.step14 {transform: translateX(14336px);}
.step15 {transform: translateX(15360px);}
.step16 {transform: translateX(16384px);}
.step17 {transform: translateX(17408px);}
.step18 {transform: translateX(18432px);}
.step19 {transform: translateX(19456px);}
.step20 {transform: translateX(20480px);}
.step21 {transform: translateX(21504px);}
.step22 {transform: translateX(22528px);}
.step23 {transform: translateX(23552px);}
.step24 {transform: translateX(24576px);}
.step25 {transform: translateX(25600px);}
.step26 {transform: translateX(26624px);}
.step27 {transform: translateX(27648px);}
.step28 {transform: translateX(28672px);}
.step29 {transform: translateX(29696px);}
    </style>

    <path d="M 300 728 Q 328 706 357 677 Q 373 664 391 664 Q 403 665 408 680 Q 414 698 402 731 Q 390 762 293 783 Q 275 787 268 783 Q 262 779 264 764 Q 268 751 300 728 Z" fill="lightgray" class="stroke step0"/>
    <path d="M 56 532 Q 43 531 40 522 Q 37 512 53 500 Q 90 476 155 496 Q 248 533 397 561 Q 415 565 415 572 Q 415 585 396 594 Q 368 604 344 598 Q 155 547 56 532 Z" fill="lightgray" class="hide"/>
    <path d="M 216 443 Q 183 433 209 421 Q 245 408 317 430 Q 341 437 368 446 Q 384 452 386 454 Q 393 463 388 470 Q 381 480 353 483 Q 337 483 262 455 Q 241 448 216 443 Z" fill="lightgray" class="hide"/>
    <path d="M 220 347 Q 187 337 213 325 Q 255 309 303 328 Q 334 337 366 347 Q 379 351 382 354 Q 389 363 384 370 Q 377 380 349 383 Q 336 383 262 357 Q 243 351 220 347 Z" fill="lightgray" class="hide"/>
    <path d="M 208 234 Q 198 240 165 243 Q 153 246 151 241 Q 145 234 154 220 Q 185 162 206 66 Q 210 38 228 18 Q 246 -1 250 13 Q 257 35 247 77 L 246 78 C 245 81 245 82 239 111 Q 223 183 220 207 C 217 230 217 230 208 234 Z" fill="lightgray" class="hide"/>
    <path d="M 361 127 Q 380 185 399 203 Q 421 228 400 242 Q 340 279 327 275 Q 321 275 317 271 Q 292 255 208 234 C 179 227 192 197 220 207 Q 230 213 297 222 Q 319 226 323 218 Q 326 215 311 133 C 306 103 351 99 361 127 Z" fill="lightgray" class="hide"/>
    <path d="M 246 78 Q 246 79 248 79 Q 287 89 370 99 Q 380 100 381 109 Q 381 116 361 127 C 336 141 336 141 311 133 Q 310 133 308 132 Q 269 120 239 111 C 210 102 218 68 246 78 Z" fill="lightgray" class="hide"/>
    <path d="M 472 533 Q 502 558 519 575 Q 559 620 580 632 Q 596 644 585 656 Q 572 669 548 677 Q 526 684 516 680 Q 506 677 511 667 Q 517 649 469 560 Q 463 550 457 538 C 443 511 449 514 472 533 Z" fill="lightgray" class="hide"/>
    <path d="M 510 368 Q 507 377 492 448 L 486 480 Q 474 532 473 533 L 472 533 L 457 538 Q 445 542 424 544 Q 412 545 409 541 Q 403 534 412 519 Q 443 461 465 366 Q 469 338 487 319 Q 506 297 511 314 Q 512 323 513 334 L 510 368 Z" fill="lightgray" class="hide"/>
    <path d="M 492 448 Q 535 461 571 467 Q 592 474 582 485 Q 570 497 546 498 Q 524 498 486 481 Q 485 481 486 480 C 465 459 463 439 492 448 Z" fill="lightgray" class="hide"/>
    <path d="M 759 361 Q 760 357 762 352 Q 766 336 780 337 Q 793 338 802 353 Q 820 378 849 499 Q 867 551 903 579 Q 922 595 906 611 Q 890 627 840 655 Q 824 664 784 653 Q 760 647 738 641 Q 717 634 703 632 Q 688 632 686 626 Q 683 622 698 612 Q 728 597 748 604 Q 796 623 805 615 Q 818 608 810 567 Q 804 539 798 515 L 791 483 Q 773 408 764 387 Q 763 387 763 386 C 756 369 756 369 759 361 Z" fill="lightgray" class="hide"/>
    <path d="M 798 515 Q 777 530 689 507 Q 673 506 690 489 Q 694 485 706 484 Q 754 484 791 483 C 821 482 824 500 798 515 Z" fill="lightgray" class="hide"/>
    <path d="M 650 352 Q 698 358 759 361 C 787 362 784 365 763 386 Q 757 393 746 400 Q 727 412 655 392 L 603 382 Q 554 375 510 368 C 480 363 483 331 513 334 Q 517 334 523 335 Q 553 342 598 347 L 650 352 Z" fill="lightgray" class="hide"/>
    <path d="M 639 291 Q 639 292 640 292 Q 646 322 650 352 L 655 392 Q 664 479 665 649 Q 665 704 681 769 Q 685 781 677 788 Q 658 803 622 815 Q 601 824 585 817 Q 566 808 582 792 Q 610 765 613 735 Q 622 527 603 382 L 598 347 Q 580 199 451 98 Q 418 76 373 48 Q 360 42 358 38 Q 354 32 369 31 Q 384 30 438 52 Q 477 67 532 107 Q 604 161 633 264 L 639 291 Z" fill="lightgray" class="hide"/>
    <path d="M 633 264 Q 699 155 785 37 Q 819 3 969 30 Q 979 31 981 37 Q 801 143 749 189 Q 697 234 640 291 Q 639 292 639 291 C 617 311 617 290 633 264 Z" fill="lightgray" class="hide"/></g><g transform="scale(1, -1) translate(0, -900)">
    <style type="text/css">
        .origin {display:none;}
        .hide {display:none;}
        .stroke {fill: #000000;}
        
.step1 {transform: translateX(1024px);}
.step2 {transform: translateX(2048px);}
.step3 {transform: translateX(3072px);}
.step4 {transform: translateX(4096px);}
.step5 {transform: translateX(5120px);}
.step6 {transform: translateX(6144px);}
.step7 {transform: translateX(7168px);}
.step8 {transform: translateX(8192px);}
.step9 {transform: translateX(9216px);}
.step10 {transform: translateX(10240px);}
.step11 {transform: translateX(11264px);}
.step12 {transform: translateX(12288px);}
.step13 {transform: translateX(13312px);}
.step14 {transform: translateX(14336px);}
.step15 {transform: translateX(15360px);}
.step16 {transform: translateX(16384px);}
.step17 {transform: translateX(17408px);}
.step18 {transform: translateX(18432px);}
.step19 {transform: translateX(19456px);}
.step20 {transform: translateX(20480px);}
.step21 {transform: translateX(21504px);}
.step22 {transform: translateX(22528px);}
.step23 {transform: translateX(23552px);}
.step24 {transform: translateX(24576px);}
.step25 {transform: translateX(25600px);}
.step26 {transform: translateX(26624px);}
.step27 {transform: translateX(27648px);}
.step28 {transform: translateX(28672px);}
.step29 {transform: translateX(29696px);}
    </style>

    <path d="M 300 728 Q 328 706 357 677 Q 373 664 391 664 Q 403 665 408 680 Q 414 698 402 731 Q 390 762 293 783 Q 275 787 268 783 Q 262 779 264 764 Q 268 751 300 728 Z" fill="lightgray" class="stroke step1"/>
    <path d="M 56 532 Q 43 531 40 522 Q 37 512 53 500 Q 90 476 155 496 Q 248 533 397 561 Q 415 565 415 572 Q 415 585 396 594 Q 368 604 344 598 Q 155 547 56 532 Z" fill="lightgray" class="stroke step1"/>
    <path d="M 216 443 Q 183 433 209 421 Q 245 408 317 430 Q 341 437 368 446 Q 384 452 386 454 Q 393 463 388 470 Q 381 480 353 483 Q 337 483 262 455 Q 241 448 216 443 Z" fill="lightgray" class="hide"/>
    <path d="M 220 347 Q 187 337 213 325 Q 255 309 303 328 Q 334 337 366 347 Q 379 351 382 354 Q 389 363 384 370 Q 377 380 349 383 Q 336 383 262 357 Q 243 351 220 347 Z" fill="lightgray" class="hide"/>
    <path d="M 208 234 Q 198 240 165 243 Q 153 246 151 241 Q 145 234 154 220 Q 185 162 206 66 Q 210 38 228 18 Q 246 -1 250 13 Q 257 35 247 77 L 246 78 C 245 81 245 82 239 111 Q 223 183 220 207 C 217 230 217 230 208 234 Z" fill="lightgray" class="hide"/>
    <path d="M 361 127 Q 380 185 399 203 Q 421 228 400 242 Q 340 279 327 275 Q 321 275 317 271 Q 292 255 208 234 C 179 227 192 197 220 207 Q 230 213 297 222 Q 319 226 323 218 Q 326 215 311 133 C 306 103 351 99 361 127 Z" fill="lightgray" class="hide"/>
    <path d="M 246 78 Q 246 79 248 79 Q 287 89 370 99 Q 380 100 381 109 Q 381 116 361 127 C 336 141 336 141 311 133 Q 310 133 308 132 Q 269 120 239 111 C 210 102 218 68 246 78 Z" fill="lightgray" class="hide"/>
    <path d="M 472 533 Q 502 558 519 575 Q 559 620 580 632 Q 596 644 585 656 Q 572 669 548 677 Q 526 684 516 680 Q 506 677 511 667 Q 517 649 469 560 Q 463 550 457 538 C 443 511 449 514 472 533 Z" fill="lightgray" class="hide"/>
    <path d="M 510 368 Q 507 377 492 448 L 486 480 Q 474 532 473 533 L 472 533 L 457 538 Q 445 542 424 544 Q 412 545 409 541 Q 403 534 412 519 Q 443 461 465 366 Q 469 338 487 319 Q 506 297 511 314 Q 512 323 513 334 L 510 368 Z" fill="lightgray" class="hide"/>
    <path d="M 492 448 Q 535 461 571 467 Q 592 474 582 485 Q 570 497 546 498 Q 524 498 486 481 Q 485 481 486 480 C 465 459 463 439 492 448 Z" fill="lightgray" class="hide"/>
    <path d="M 759 361 Q 760 357 762 352 Q 766 336 780 337 Q 793 338 802 353 Q 820 378 849 499 Q 867 551 903 579 Q 922 595 906 611 Q 890 627 840 655 Q 824 664 784 653 Q 760 647 738 641 Q 717 634 703 632 Q 688 632 686 626 Q 683 622 698 612 Q 728 597 748 604 Q 796 623 805 615 Q 818 608 810 567 Q 804 539 798 515 L 791 483 Q 773 408 764 387 Q 763 387 763 386 C 756 369 756 369 759 361 Z" fill="lightgray" class="hide"/>
    <path d="M 798 515 Q 777 530 689 507 Q 673 506 690 489 Q 694 485 706 484 Q 754 484 791 483 C 821 482 824 500 798 515 Z" fill="lightgray" class="hide"/>
    <path d="M 650 352 Q 698 358 759 361 C 787 362 784 365 763 386 Q 757 393 746 400 Q 727 412 655 392 L 603 382 Q 554 375 510 368 C 480 363 483 331 513 334 Q 517 334 523 335 Q 553 342 598 347 L 650 352 Z" fill="lightgray" class="hide"/>
    <path d="M 639 291 Q 639 292 640 292 Q 646 322 650 352 L 655 392 Q 664 479 665 649 Q 665 704 681 769 Q 685 781 677 788 Q 658 803 622 815 Q 601 824 585 817 Q 566 808 582 792 Q 610 765 613 735 Q 622 527 603 382 L 598 347 Q 580 199 451 98 Q 418 76 373 48 Q 360 42 358 38 Q 354 32 369 31 Q 384 30 438 52 Q 477 67 532 107 Q 604 161 633 264 L 639 291 Z" fill="lightgray" class="hide"/>
    <path d="M 633 264 Q 699 155 785 37 Q 819 3 969 30 Q 979 31 981 37 Q 801 143 749 189 Q 697 234 640 291 Q 639 292 639 291 C 617 311 617 290 633 264 Z" fill="lightgray" class="hide"/></g><g transform="scale(1, -1) translate(0, -900)">
    <style type="text/css">
        .origin {display:none;}
        .hide {display:none;}
        .stroke {fill: #000000;}
        
.step1 {transform: translateX(1024px);}
.step2 {transform: translateX(2048px);}
.step3 {transform: translateX(3072px);}
.step4 {transform: translateX(4096px);}
.step5 {transform: translateX(5120px);}
.step6 {transform: translateX(6144px);}
.step7 {transform: translateX(7168px);}
.step8 {transform: translateX(8192px);}
.step9 {transform: translateX(9216px);}
.step10 {transform: translateX(10240px);}
.step11 {transform: translateX(11264px);}
.step12 {transform: translateX(12288px);}
.step13 {transform: translateX(13312px);}
.step14 {transform: translateX(14336px);}
.step15 {transform: translateX(15360px);}
.step16 {transform: translateX(16384px);}
.step17 {transform: translateX(17408px);}
.step18 {transform: translateX(18432px);}
.step19 {transform: translateX(19456px);}
.step20 {transform: translateX(20480px);}
.step21 {transform: translateX(21504px);}
.step22 {transform: translateX(22528px);}
.step23 {transform: translateX(23552px);}
.step24 {transform: translateX(24576px);}
.step25 {transform: translateX(25600px);}
.step26 {transform: translateX(26624px);}
.step27 {transform: translateX(27648px);}
.step28 {transform: translateX(28672px);}
.step29 {transform: translateX(29696px);}
    </style>

    <path d="M 300 728 Q 328 706 357 677 Q 373 664 391 664 Q 403 665 408 680 Q 414 698 402 731 Q 390 762 293 783 Q 275 787 268 783 Q 262 779 264 764 Q 268 751 300 728 Z" fill="lightgray" class="stroke step2"/>
    <path d="M 56 532 Q 43 531 40 522 Q 37 512 53 500 Q 90 476 155 496 Q 248 533 397 561 Q 415 565 415 572 Q 415 585 396 594 Q 368 604 344 598 Q 155 547 56 532 Z" fill="lightgray" class="stroke step2"/>
    <path d="M 216 443 Q 183 433 209 421 Q 245 408 317 430 Q 341 437 368 446 Q 384 452 386 454 Q 393 463 388 470 Q 381 480 353 483 Q 337 483 262 455 Q 241 448 216 443 Z" fill="lightgray" class="stroke step2"/>
    <path d="M 220 347 Q 187 337 213 325 Q 255 309 303 328 Q 334 337 366 347 Q 379 351 382 354 Q 389 363 384 370 Q 377 380 349 383 Q 336 383 262 357 Q 243 351 220 347 Z" fill="lightgray" class="hide"/>
    <path d="M 208 234 Q 198 240 165 243 Q 153 246 151 241 Q 145 234 154 220 Q 185 162 206 66 Q 210 38 228 18 Q 246 -1 250 13 Q 257 35 247 77 L 246 78 C 245 81 245 82 239 111 Q 223 183 220 207 C 217 230 217 230 208 234 Z" fill="lightgray" class="hide"/>
    <path d="M 361 127 Q 380 185 399 203 Q 421 228 400 242 Q 340 279 327 275 Q 321 275 317 271 Q 292 255 208 234 C 179 227 192 197 220 207 Q 230 213 297 222 Q 319 226 323 218 Q 326 215 311 133 C 306 103 351 99 361 127 Z" fill="lightgray" class="hide"/>
    <path d="M 246 78 Q 246 79 248 79 Q 287 89 370 99 Q 380 100 381 109 Q 381 116 361 127 C 336 141 336 141 311 133 Q 310 133 308 132 Q 269 120 239 111 C 210 102 218 68 246 78 Z" fill="lightgray" class="hide"/>
    <path d="M 472 533 Q 502 558 519 575 Q 559 620 580 632 Q 596 644 585 656 Q 572 669 548 677 Q 526 684 516 680 Q 506 677 511 667 Q 517 649 469 560 Q 463 550 457 538 C 443 511 449 514 472 533 Z" fill="lightgray" class="hide"/>
    <path d="M 510 368 Q 507 377 492 448 L 486 480 Q 474 532 473 533 L 472 533 L 457 538 Q 445 542 424 544 Q 412 545 409 541 Q 403 534 412 519 Q 443 461 465 366 Q 469 338 487 319 Q 506 297 511 314 Q 512 323 513 334 L 510 368 Z" fill="lightgray" class="hide"/>
    <path d="M 492 448 Q 535 461 571 467 Q 592 474 582 485 Q 570 497 546 498 Q 524 498 486 481 Q 485 481 486 480 C 465 459 463 439 492 448 Z" fill="lightgray" class="hide"/>
    <path d="M 759 361 Q 760 357 762 352 Q 766 336 780 337 Q 793 338 802 353 Q 820 378 849 499 Q 867 551 903 579 Q 922 595 906 611 Q 890 627 840 655 Q 824 664 784 653 Q 760 647 738 641 Q 717 634 703 632 Q 688 632 686 626 Q 683 622 698 612 Q 728 597 748 604 Q 796 623 805 615 Q 818 608 810 567 Q 804 539 798 515 L 791 483 Q 773 408 764 387 Q 763 387 763 386 C 756 369 756 369 759 361 Z" fill="lightgray" class="hide"/>
    <path d="M 798 515 Q 777 530 689 507 Q 673 506 690 489 Q 694 485 706 484 Q 754 484 791 483 C 821 482 824 500 798 515 Z" fill="lightgray" class="hide"/>
    <path d="M 650 352 Q 698 358 759 361 C 787 362 784 365 763 386 Q 757 393 746 400 Q 727 412 655 392 L 603 382 Q 554 375 510 368 C 480 363 483 331 513 334 Q 517 334 523 335 Q 553 342 598 347 L 650 352 Z" fill="lightgray" class="hide"/>
    <path d="M 639 291 Q 639 292 640 292 Q 646 322 650 352 L 655 392 Q 664 479 665 649 Q 665 704 681 769 Q 685 781 677 788 Q 658 803 622 815 Q 601 824 585 817 Q 566 808 582 792 Q 610 765 613 735 Q 622 527 603 382 L 598 347 Q 580 199 451 98 Q 418 76 373 48 Q 360 42 358 38 Q 354 32 369 31 Q 384 30 438 52 Q 477 67 532 107 Q 604 161 633 264 L 639 291 Z" fill="lightgray" class="hide"/>
    <path d="M 633 264 Q 699 155 785 37 Q 819 3 969 30 Q 979 31 981 37 Q 801 143 749 189 Q 697 234 640 291 Q 639 292 639 291 C 617 311 617 290 633 264 Z" fill="lightgray" class="hide"/></g><g transform="scale(1, -1) translate(0, -900)">
    <style type="text/css">
        .origin {display:none;}
        .hide {display:none;}
        .stroke {fill: #000000;}
        
.step1 {transform: translateX(1024px);}
.step2 {transform: translateX(2048px);}
.step3 {transform: translateX(3072px);}
.step4 {transform: translateX(4096px);}
.step5 {transform: translateX(5120px);}
.step6 {transform: translateX(6144px);}
.step7 {transform: translateX(7168px);}
.step8 {transform: translateX(8192px);}
.step9 {transform: translateX(9216px);}
.step10 {transform: translateX(10240px);}
.step11 {transform: translateX(11264px);}
.step12 {transform: translateX(12288px);}
.step13 {transform: translateX(13312px);}
.step14 {transform: translateX(14336px);}
.step15 {transform: translateX(15360px);}
.step16 {transform: translateX(16384px);}
.step17 {transform: translateX(17408px);}
.step18 {transform: translateX(18432px);}
.step19 {transform: translateX(19456px);}
.step20 {transform: translateX(20480px);}
.step21 {transform: translateX(21504px);}
.step22 {transform: translateX(22528px);}
.step23 {transform: translateX(23552px);}
.step24 {transform: translateX(24576px);}
.step25 {transform: translateX(25600px);}
.step26 {transform: translateX(26624px);}
.step27 {transform: translateX(27648px);}
.step28 {transform: translateX(28672px);}
.step29 {transform: translateX(29696px);}
    </style>

    <path d="M 300 728 Q 328 706 357 677 Q 373 664 391 664 Q 403 665 408 680 Q 414 698 402 731 Q 390 762 293 783 Q 275 787 268 783 Q 262 779 264 764 Q 268 751 300 728 Z" fill="lightgray" class="stroke step3"/>
    <path d="M 56 532 Q 43 531 40 522 Q 37 512 53 500 Q 90 476 155 496 Q 248 533 397 561 Q 415 565 415 572 Q 415 585 396 594 Q 368 604 344 598 Q 155 547 56 532 Z" fill="lightgray" class="stroke step3"/>
    <path d="M 216 443 Q 183 433 209 421 Q 245 408 317 430 Q 341 437 368 446 Q 384 452 386 454 Q 393 463 388 470 Q 381 480 353 483 Q 337 483 262 455 Q 241 448 216 443 Z" fill="lightgray" class="stroke step3"/>
    <path d="M 220 347 Q 187 337 213 325 Q 255 309 303 328 Q 334 337 366 347 Q 379 351 382 354 Q 389 363 384 370 Q 377 380 349 383 Q 336 383 262 357 Q 243 351 220 347 Z" fill="lightgray" class="stroke step3"/>
    <path d="M 208 234 Q 198 240 165 243 Q 153 246 151 241 Q 145 234 154 220 Q 185 162 206 66 Q 210 38 228 18 Q 246 -1 250 13 Q 257 35 247 77 L 246 78 C 245 81 245 82 239 111 Q 223 183 220 207 C 217 230 217 230 208 234 Z" fill="lightgray" class="hide"/>
    <path d="M 361 127 Q 380 185 399 203 Q 421 228 400 242 Q 340 279 327 275 Q 321 275 317 271 Q 292 255 208 234 C 179 227 192 197 220 207 Q 230 213 297 222 Q 319 226 323 218 Q 326 215 311 133 C 306 103 351 99 361 127 Z" fill="lightgray" class="hide"/>
    <path d="M 246 78 Q 246 79 248 79 Q 287 89 370 99 Q 380 100 381 109 Q 381 116 361 127 C 336 141 336 141 311 133 Q 310 133 308 132 Q 269 120 239 111 C 210 102 218 68 246 78 Z" fill="lightgray" class="hide"/>
    <path d="M 472 533 Q 502 558 519 575 Q 559 620 580 632 Q 596 644 585 656 Q 572 669 548 677 Q 526 684 516 680 Q 506 677 511 667 Q 517 649 469 560 Q 463 550 457 538 C 443 511 449 514 472 533 Z" fill="lightgray" class="hide"/>
    <path d="M 510 368 Q 507 377 492 448 L 486 480 Q 474 532 473 533 L 472 533 L 457 538 Q 445 542 424 544 Q 412 545 409 541 Q 403 534 412 519 Q 443 461 465 366 Q 469 338 487 319 Q 506 297 511 314 Q 512 323 513 334 L 510 368 Z" fill="lightgray" class="hide"/>
    <path d="M 492 448 Q 535 461 571 467 Q 592 474 582 485 Q 570 497 546 498 Q 524 498 486 481 Q 485 481 486 480 C 465 459 463 439 492 448 Z" fill="lightgray" class="hide"/>
    <path d="M 759 361 Q 760 357 762 352 Q 766 336 780 337 Q 793 338 802 353 Q 820 378 849 499 Q 867 551 903 579 Q 922 595 906 611 Q 890 627 840 655 Q 824 664 784 653 Q 760 647 738 641 Q 717 634 703 632 Q 688 632 686 626 Q 683 622 698 612 Q 728 597 748 604 Q 796 623 805 615 Q 818 608 810 567 Q 804 539 798 515 L 791 483 Q 773 408 764 387 Q 763 387 763 386 C 756 369 756 369 759 361 Z" fill="lightgray" class="hide"/>
    <path d="M 798 515 Q 777 530 689 507 Q 673 506 690 489 Q 694 485 706 484 Q 754 484 791 483 C 821 482 824 500 798 515 Z" fill="lightgray" class="hide"/>
    <path d="M 650 352 Q 698 358 759 361 C 787 362 784 365 763 386 Q 757 393 746 400 Q 727 412 655 392 L 603 382 Q 554 375 510 368 C 480 363 483 331 513 334 Q 517 334 523 335 Q 553 342 598 347 L 650 352 Z" fill="lightgray" class="hide"/>
    <path d="M 639 291 Q 639 292 640 292 Q 646 322 650 352 L 655 392 Q 664 479 665 649 Q 665 704 681 769 Q 685 781 677 788 Q 658 803 622 815 Q 601 824 585 817 Q 566 808 582 792 Q 610 765 613 735 Q 622 527 603 382 L 598 347 Q 580 199 451 98 Q 418 76 373 48 Q 360 42 358 38 Q 354 32 369 31 Q 384 30 438 52 Q 477 67 532 107 Q 604 161 633 264 L 639 291 Z" fill="lightgray" class="hide"/>
    <path d="M 633 264 Q 699 155 785 37 Q 819 3 969 30 Q 979 31 981 37 Q 801 143 749 189 Q 697 234 640 291 Q 639 292 639 291 C 617 311 617 290 633 264 Z" fill="lightgray" class="hide"/></g><g transform="scale(1, -1) translate(0, -900)">
    <style type="text/css">
        .origin {display:none;}
        .hide {display:none;}
        .stroke {fill: #000000;}
        
.step1 {transform: translateX(1024px);}
.step2 {transform: translateX(2048px);}
.step3 {transform: translateX(3072px);}
.step4 {transform: translateX(4096px);}
.step5 {transform: translateX(5120px);}
.step6 {transform: translateX(6144px);}
.step7 {transform: translateX(7168px);}
.step8 {transform: translateX(8192px);}
.step9 {transform: translateX(9216px);}
.step10 {transform: translateX(10240px);}
.step11 {transform: translateX(11264px);}
.step12 {transform: translateX(12288px);}
.step13 {transform: translateX(13312px);}
.step14 {transform: translateX(14336px);}
.step15 {transform: translateX(15360px);}
.step16 {transform: translateX(16384px);}
.step17 {transform: translateX(17408px);}
.step18 {transform: translateX(18432px);}
.step19 {transform: translateX(19456px);}
.step20 {transform: translateX(20480px);}
.step21 {transform: translateX(21504px);}
.step22 {transform: translateX(22528px);}
.step23 {transform: translateX(23552px);}
.step24 {transform: translateX(24576px);}
.step25 {transform: translateX(25600px);}
.step26 {transform: translateX(26624px);}
.step27 {transform: translateX(27648px);}
.step28 {transform: translateX(28672px);}
.step29 {transform: translateX(29696px);}
    </style>

    <path d="M 300 728 Q 328 706 357 677 Q 373 664 391 664 Q 403 665 408 680 Q 414 698 402 731 Q 390 762 293 783 Q 275 787 268 783 Q 262 779 264 764 Q 268 751 300 728 Z" fill="lightgray" class="stroke step4"/>
    <path d="M 56 532 Q 43 531 40 522 Q 37 512 53 500 Q 90 476 155 496 Q 248 533 397 561 Q 415 565 415 572 Q 415 585 396 594 Q 368 604 344 598 Q 155 547 56 532 Z" fill="lightgray" class="stroke step4"/>
    <path d="M 216 443 Q 183 433 209 421 Q 245 408 317 430 Q 341 437 368 446 Q 384 452 386 454 Q 393 463 388 470 Q 381 480 353 483 Q 337 483 262 455 Q 241 448 216 443 Z" fill="lightgray" class="stroke step4"/>
    <path d="M 220 347 Q 187 337 213 325 Q 255 309 303 328 Q 334 337 366 347 Q 379 351 382 354 Q 389 363 384 370 Q 377 380 349 383 Q 336 383 262 357 Q 243 351 220 347 Z" fill="lightgray" class="stroke step4"/>
    <path d="M 208 234 Q 198 240 165 243 Q 153 246 151 241 Q 145 234 154 220 Q 185 162 206 66 Q 210 38 228 18 Q 246 -1 250 13 Q 257 35 247 77 L 246 78 C 245 81 245 82 239 111 Q 223 183 220 207 C 217 230 217 230 208 234 Z" fill="lightgray" class="stroke step4"/>
    <path d="M 361 127 Q 380 185 399 203 Q 421 228 400 242 Q 340 279 327 275 Q 321 275 317 271 Q 292 255 208 234 C 179 227 192 197 220 207 Q 230 213 297 222 Q 319 226 323 218 Q 326 215 311 133 C 306 103 351 99 361 127 Z" fill="lightgray" class="hide"/>
    <path d="M 246 78 Q 246 79 248 79 Q 287 89 370 99 Q 380 100 381 109 Q 381 116 361 127 C 336 141 336 141 311 133 Q 310 133 308 132 Q 269 120 239 111 C 210 102 218 68 246 78 Z" fill="lightgray" class="hide"/>
    <path d="M 472 533 Q 502 558 519 575 Q 559 620 580 632 Q 596 644 585 656 Q 572 669 548 677 Q 526 684 516 680 Q 506 677 511 667 Q 517 649 469 560 Q 463 550 457 538 C 443 511 449 514 472 533 Z" fill="lightgray" class="hide"/>
    <path d="M 510 368 Q 507 377 492 448 L 486 480 Q 474 532 473 533 L 472 533 L 457 538 Q 445 542 424 544 Q 412 545 409 541 Q 403 534 412 519 Q 443 461 465 366 Q 469 338 487 319 Q 506 297 511 314 Q 512 323 513 334 L 510 368 Z" fill="lightgray" class="hide"/>
    <path d="M 492 448 Q 535 461 571 467 Q 592 474 582 485 Q 570 497 546 498 Q 524 498 486 481 Q 485 481 486 480 C 465 459 463 439 492 448 Z" fill="lightgray" class="hide"/>
    <path d="M 759 361 Q 760 357 762 352 Q 766 336 780 337 Q 793 338 802 353 Q 820 378 849 499 Q 867 551 903 579 Q 922 595 906 611 Q 890 627 840 655 Q 824 664 784 653 Q 760 647 738 641 Q 717 634 703 632 Q 688 632 686 626 Q 683 622 698 612 Q 728 597 748 604 Q 796 623 805 615 Q 818 608 810 567 Q 804 539 798 515 L 791 483 Q 773 408 764 387 Q 763 387 763 386 C 756 369 756 369 759 361 Z" fill="lightgray" class="hide"/>
    <path d="M 798 515 Q 777 530 689 507 Q 673 506 690 489 Q 694 485 706 484 Q 754 484 791 483 C 821 482 824 500 798 515 Z" fill="lightgray" class="hide"/>
    <path d="M 650 352 Q 698 358 759 361 C 787 362 784 365 763 386 Q 757 393 746 400 Q 727 412 655 392 L 603 382 Q 554 375 510 368 C 480 363 483 331 513 334 Q 517 334 523 335 Q 553 342 598 347 L 650 352 Z" fill="lightgray" class="hide"/>
    <path d="M 639 291 Q 639 292 640 292 Q 646 322 650 352 L 655 392 Q 664 479 665 649 Q 665 704 681 769 Q 685 781 677 788 Q 658 803 622 815 Q 601 824 585 817 Q 566 808 582 792 Q 610 765 613 735 Q 622 527 603 382 L 598 347 Q 580 199 451 98 Q 418 76 373 48 Q 360 42 358 38 Q 354 32 369 31 Q 384 30 438 52 Q 477 67 532 107 Q 604 161 633 264 L 639 291 Z" fill="lightgray" class="hide"/>
    <path d="M 633 264 Q 699 155 785 37 Q 819 3 969 30 Q 979 31 981 37 Q 801 143 749 189 Q 697 234 640 291 Q 639 292 639 291 C 617 311 617 290 633 264 Z" fill="lightgray" class="hide"/></g><g transform="scale(1, -1) translate(0, -900)">
    <style type="text/css">
        .origin {display:none;}
        .hide {display:none;}
        .stroke {fill: #000000;}
        
.step1 {transform: translateX(1024px);}
.step2 {transform: translateX(2048px);}
.step3 {transform: translateX(3072px);}
.step4 {transform: translateX(4096px);}
.step5 {transform: translateX(5120px);}
.step6 {transform: translateX(6144px);}
.step7 {transform: translateX(7168px);}
.step8 {transform: translateX(8192px);}
.step9 {transform: translateX(9216px);}
.step10 {transform: translateX(10240px);}
.step11 {transform: translateX(11264px);}
.step12 {transform: translateX(12288px);}
.step13 {transform: translateX(13312px);}
.step14 {transform: translateX(14336px);}
.step15 {transform: translateX(15360px);}
.step16 {transform: translateX(16384px);}
.step17 {transform: translateX(17408px);}
.step18 {transform: translateX(18432px);}
.step19 {transform: translateX(19456px);}
.step20 {transform: translateX(20480px);}
.step21 {transform: translateX(21504px);}
.step22 {transform: translateX(22528px);}
.step23 {transform: translateX(23552px);}
.step24 {transform: translateX(24576px);}
.step25 {transform: translateX(25600px);}
.step26 {transform: translateX(26624px);}
.step27 {transform: translateX(27648px);}
.step28 {transform: translateX(28672px);}
.step29 {transform: translateX(29696px);}
    </style>

    <path d="M 300 728 Q 328 706 357 677 Q 373 664 391 664 Q 403 665 408 680 Q 414 698 402 731 Q 390 762 293 783 Q 275 787 268 783 Q 262 779 264 764 Q 268 751 300 728 Z" fill="lightgray" class="stroke step5"/>
    <path d="M 56 532 Q 43 531 40 522 Q 37 512 53 500 Q 90 476 155 496 Q 248 533 397 561 Q 415 565 415 572 Q 415 585 396 594 Q 368 604 344 598 Q 155 547 56 532 Z" fill="lightgray" class="stroke step5"/>
    <path d="M 216 443 Q 183 433 209 421 Q 245 408 317 430 Q 341 437 368 446 Q 384 452 386 454 Q 393 463 388 470 Q 381 480 353 483 Q 337 483 262 455 Q 241 448 216 443 Z" fill="lightgray" class="stroke step5"/>
    <path d="M 220 347 Q 187 337 213 325 Q 255 309 303 328 Q 334 337 366 347 Q 379 351 382 354 Q 389 363 384 370 Q 377 380 349 383 Q 336 383 262 357 Q 243 351 220 347 Z" fill="lightgray" class="stroke step5"/>
    <path d="M 208 234 Q 198 240 165 243 Q 153 246 151 241 Q 145 234 154 220 Q 185 162 206 66 Q 210 38 228 18 Q 246 -1 250 13 Q 257 35 247 77 L 246 78 C 245 81 245 82 239 111 Q 223 183 220 207 C 217 230 217 230 208 234 Z" fill="lightgray" class="stroke step5"/>
    <path d="M 361 127 Q 380 185 399 203 Q 421 228 400 242 Q 340 279 327 275 Q 321 275 317 271 Q 292 255 208 234 C 179 227 192 197 220 207 Q 230 213 297 222 Q 319 226 323 218 Q 326 215 311 133 C 306 103 351 99 361 127 Z" fill="lightgray" class="stroke step5"/>
    <path d="M 246 78 Q 246 79 248 79 Q 287 89 370 99 Q 380 100 381 109 Q 381 116 361 127 C 336 141 336 141 311 133 Q 310 133 308 132 Q 269 120 239 111 C 210 102 218 68 246 78 Z" fill="lightgray" class="hide"/>
    <path d="M 472 533 Q 502 558 519 575 Q 559 620 580 632 Q 596 644 585 656 Q 572 669 548 677 Q 526 684 516 680 Q 506 677 511 667 Q 517 649 469 560 Q 463 550 457 538 C 443 511 449 514 472 533 Z" fill="lightgray" class="hide"/>
    <path d="M 510 368 Q 507 377 492 448 L 486 480 Q 474 532 473 533 L 472 533 L 457 538 Q 445 542 424 544 Q 412 545 409 541 Q 403 534 412 519 Q 443 461 465 366 Q 469 338 487 319 Q 506 297 511 314 Q 512 323 513 334 L 510 368 Z" fill="lightgray" class="hide"/>
    <path d="M 492 448 Q 535 461 571 467 Q 592 474 582 485 Q 570 497 546 498 Q 524 498 486 481 Q 485 481 486 480 C 465 459 463 439 492 448 Z" fill="lightgray" class="hide"/>
    <path d="M 759 361 Q 760 357 762 352 Q 766 336 780 337 Q 793 338 802 353 Q 820 378 849 499 Q 867 551 903 579 Q 922 595 906 611 Q 890 627 840 655 Q 824 664 784 653 Q 760 647 738 641 Q 717 634 703 632 Q 688 632 686 626 Q 683 622 698 612 Q 728 597 748 604 Q 796 623 805 615 Q 818 608 810 567 Q 804 539 798 515 L 791 483 Q 773 408 764 387 Q 763 387 763 386 C 756 369 756 369 759 361 Z" fill="lightgray" class="hide"/>
    <path d="M 798 515 Q 777 530 689 507 Q 673 506 690 489 Q 694 485 706 484 Q 754 484 791 483 C 821 482 824 500 798 515 Z" fill="lightgray" class="hide"/>
    <path d="M 650 352 Q 698 358 759 361 C 787 362 784 365 763 386 Q 757 393 746 400 Q 727 412 655 392 L 603 382 Q 554 375 510 368 C 480 363 483 331 513 334 Q 517 334 523 335 Q 553 342 598 347 L 650 352 Z" fill="lightgray" class="hide"/>
    <path d="M 639 291 Q 639 292 640 292 Q 646 322 650 352 L 655 392 Q 664 479 665 649 Q 665 704 681 769 Q 685 781 677 788 Q 658 803 622 815 Q 601 824 585 817 Q 566 808 582 792 Q 610 765 613 735 Q 622 527 603 382 L 598 347 Q 580 199 451 98 Q 418 76 373 48 Q 360 42 358 38 Q 354 32 369 31 Q 384 30 438 52 Q 477 67 532 107 Q 604 161 633 264 L 639 291 Z" fill="lightgray" class="hide"/>
    <path d="M 633 264 Q 699 155 785 37 Q 819 3 969 30 Q 979 31 981 37 Q 801 143 749 189 Q 697 234 640 291 Q 639 292 639 291 C 617 311 617 290 633 264 Z" fill="lightgray" class="hide"/></g><g transform="scale(1, -1) translate(0, -900)">
    <style type="text/css">
        .origin {display:none;}
        .hide {display:none;}
        .stroke {fill: #000000;}
        
.step1 {transform: translateX(1024px);}
.step2 {transform: translateX(2048px);}
.step3 {transform: translateX(3072px);}
.step4 {transform: translateX(4096px);}
.step5 {transform: translateX(5120px);}
.step6 {transform: translateX(6144px);}
.step7 {transform: translateX(7168px);}
.step8 {transform: translateX(8192px);}
.step9 {transform: translateX(9216px);}
.step10 {transform: translateX(10240px);}
.step11 {transform: translateX(11264px);}
.step12 {transform: translateX(12288px);}
.step13 {transform: translateX(13312px);}
.step14 {transform: translateX(14336px);}
.step15 {transform: translateX(15360px);}
.step16 {transform: translateX(16384px);}
.step17 {transform: translateX(17408px);}
.step18 {transform: translateX(18432px);}
.step19 {transform: translateX(19456px);}
.step20 {transform: translateX(20480px);}
.step21 {transform: translateX(21504px);}
.step22 {transform: translateX(22528px);}
.step23 {transform: translateX(23552px);}
.step24 {transform: translateX(24576px);}
.step25 {transform: translateX(25600px);}
.step26 {transform: translateX(26624px);}
.step27 {transform: translateX(27648px);}
.step28 {transform: translateX(28672px);}
.step29 {transform: translateX(29696px);}
    </style>

    <path d="M 300 728 Q 328 706 357 677 Q 373 664 391 664 Q 403 665 408 680 Q 414 698 402 731 Q 390 762 293 783 Q 275 787 268 783 Q 262 779 264 764 Q 268 751 300 728 Z" fill="lightgray" class="stroke step6"/>
    <path d="M 56 532 Q 43 531 40 522 Q 37 512 53 500 Q 90 476 155 496 Q 248 533 397 561 Q 415 565 415 572 Q 415 585 396 594 Q 368 604 344 598 Q 155 547 56 532 Z" fill="lightgray" class="stroke step6"/>
    <path d="M 216 443 Q 183 433 209 421 Q 245 408 317 430 Q 341 437 368 446 Q 384 452 386 454 Q 393 463 388 470 Q 381 480 353 483 Q 337 483 262 455 Q 241 448 216 443 Z" fill="lightgray" class="stroke step6"/>
    <path d="M 220 347 Q 187 337 213 325 Q 255 309 303 328 Q 334 337 366 347 Q 379 351 382 354 Q 389 363 384 370 Q 377 380 349 383 Q 336 383 262 357 Q 243 351 220 347 Z" fill="lightgray" class="stroke step6"/>
    <path d="M 208 234 Q 198 240 165 243 Q 153 246 151 241 Q 145 234 154 220 Q 185 162 206 66 Q 210 38 228 18 Q 246 -1 250 13 Q 257 35 247 77 L 246 78 C 245 81 245 82 239 111 Q 223 183 220 207 C 217 230 217 230 208 234 Z" fill="lightgray" class="stroke step6"/>
    <path d="M 361 127 Q 380 185 399 203 Q 421 228 400 242 Q 340 279 327 275 Q 321 275 317 271 Q 292 255 208 234 C 179 227 192 197 220 207 Q 230 213 297 222 Q 319 226 323 218 Q 326 215 311 133 C 306 103 351 99 361 127 Z" fill="lightgray" class="stroke step6"/>
    <path d="M 246 78 Q 246 79 248 79 Q 287 89 370 99 Q 380 100 381 109 Q 381 116 361 127 C 336 141 336 141 311 133 Q 310 133 308 132 Q 269 120 239 111 C 210 102 218 68 246 78 Z" fill="lightgray" class="stroke step6"/>
    <path d="M 472 533 Q 502 558 519 575 Q 559 620 580 632 Q 596 644 585 656 Q 572 669 548 677 Q 526 684 516 680 Q 506 677 511 667 Q 517 649 469 560 Q 463 550 457 538 C 443 511 449 514 472 533 Z" fill="lightgray" class="hide"/>
    <path d="M 510 368 Q 507 377 492 448 L 486 480 Q 474 532 473 533 L 472 533 L 457 538 Q 445 542 424 544 Q 412 545 409 541 Q 403 534 412 519 Q 443 461 465 366 Q 469 338 487 319 Q 506 297 511 314 Q 512 323 513 334 L 510 368 Z" fill="lightgray" class="hide"/>
    <path d="M 492 448 Q 535 461 571 467 Q 592 474 582 485 Q 570 497 546 498 Q 524 498 486 481 Q 485 481 486 480 C 465 459 463 439 492 448 Z" fill="lightgray" class="hide"/>
    <path d="M 759 361 Q 760 357 762 352 Q 766 336 780 337 Q 793 338 802 353 Q 820 378 849 499 Q 867 551 903 579 Q 922 595 906 611 Q 890 627 840 655 Q 824 664 784 653 Q 760 647 738 641 Q 717 634 703 632 Q 688 632 686 626 Q 683 622 698 612 Q 728 597 748 604 Q 796 623 805 615 Q 818 608 810 567 Q 804 539 798 515 L 791 483 Q 773 408 764 387 Q 763 387 763 386 C 756 369 756 369 759 361 Z" fill="lightgray" class="hide"/>
    <path d="M 798 515 Q 777 530 689 507 Q 673 506 690 489 Q 694 485 706 484 Q 754 484 791 483 C 821 482 824 500 798 515 Z" fill="lightgray" class="hide"/>
    <path d="M 650 352 Q 698 358 759 361 C 787 362 784 365 763 386 Q 757 393 746 400 Q 727 412 655 392 L 603 382 Q 554 375 510 368 C 480 363 483 331 513 334 Q 517 334 523 335 Q 553 342 598 347 L 650 352 Z" fill="lightgray" class="hide"/>
    <path d="M 639 291 Q 639 292 640 292 Q 646 322 650 352 L 655 392 Q 664 479 665 649 Q 665 704 681 769 Q 685 781 677 788 Q 658 803 622 815 Q 601 824 585 817 Q 566 808 582 792 Q 610 765 613 735 Q 622 527 603 382 L 598 347 Q 580 199 451 98 Q 418 76 373 48 Q 360 42 358 38 Q 354 32 369 31 Q 384 30 438 52 Q 477 67 532 107 Q 604 161 633 264 L 639 291 Z" fill="lightgray" class="hide"/>
    <path d="M 633 264 Q 699 155 785 37 Q 819 3 969 30 Q 979 31 981 37 Q 801 143 749 189 Q 697 234 640 291 Q 639 292 639 291 C 617 311 617 290 633 264 Z" fill="lightgray" class="hide"/></g><g transform="scale(1, -1) translate(0, -900)">
    <style type="text/css">
        .origin {display:none;}
        .hide {display:none;}
        .stroke {fill: #000000;}
        
.step1 {transform: translateX(1024px);}
.step2 {transform: translateX(2048px);}
.step3 {transform: translateX(3072px);}
.step4 {transform: translateX(4096px);}
.step5 {transform: translateX(5120px);}
.step6 {transform: translateX(6144px);}
.step7 {transform: translateX(7168px);}
.step8 {transform: translateX(8192px);}
.step9 {transform: translateX(9216px);}
.step10 {transform: translateX(10240px);}
.step11 {transform: translateX(11264px);}
.step12 {transform: translateX(12288px);}
.step13 {transform: translateX(13312px);}
.step14 {transform: translateX(14336px);}
.step15 {transform: translateX(15360px);}
.step16 {transform: translateX(16384px);}
.step17 {transform: translateX(17408px);}
.step18 {transform: translateX(18432px);}
.step19 {transform: translateX(19456px);}
.step20 {transform: translateX(20480px);}
.step21 {transform: translateX(21504px);}
.step22 {transform: translateX(22528px);}
.step23 {transform: translateX(23552px);}
.step24 {transform: translateX(24576px);}
.step25 {transform: translateX(25600px);}
.step26 {transform: translateX(26624px);}
.step27 {transform: translateX(27648px);}
.step28 {transform: translateX(28672px);}
.step29 {transform: translateX(29696px);}
    </style>

    <path d="M 300 728 Q 328 706 357 677 Q 373 664 391 664 Q 403 665 408 680 Q 414 698 402 731 Q 390 762 293 783 Q 275 787 268 783 Q 262 779 264 764 Q 268 751 300 728 Z" fill="lightgray" class="stroke step7"/>
    <path d="M 56 532 Q 43 531 40 522 Q 37 512 53 500 Q 90 476 155 496 Q 248 533 397 561 Q 415 565 415 572 Q 415 585 396 594 Q 368 604 344 598 Q 155 547 56 532 Z" fill="lightgray" class="stroke step7"/>
    <path d="M 216 443 Q 183 433 209 421 Q 245 408 317 430 Q 341 437 368 446 Q 384 452 386 454 Q 393 463 388 470 Q 381 480 353 483 Q 337 483 262 455 Q 241 448 216 443 Z" fill="lightgray" class="stroke step7"/>
    <path d="M 220 347 Q 187 337 213 325 Q 255 309 303 328 Q 334 337 366 347 Q 379 351 382 354 Q 389 363 384 370 Q 377 380 349 383 Q 336 383 262 357 Q 243 351 220 347 Z" fill="lightgray" class="stroke step7"/>
    <path d="M 208 234 Q 198 240 165 243 Q 153 246 151 241 Q 145 234 154 220 Q 185 162 206 66 Q 210 38 228 18 Q 246 -1 250 13 Q 257 35 247 77 L 246 78 C 245 81 245 82 239 111 Q 223 183 220 207 C 217 230 217 230 208 234 Z" fill="lightgray" class="stroke step7"/>
    <path d="M 361 127 Q 380 185 399 203 Q 421 228 400 242 Q 340 279 327 275 Q 321 275 317 271 Q 292 255 208 234 C 179 227 192 197 220 207 Q 230 213 297 222 Q 319 226 323 218 Q 326 215 311 133 C 306 103 351 99 361 127 Z" fill="lightgray" class="stroke step7"/>
    <path d="M 246 78 Q 246 79 248 79 Q 287 89 370 99 Q 380 100 381 109 Q 381 116 361 127 C 336 141 336 141 311 133 Q 310 133 308 132 Q 269 120 239 111 C 210 102 218 68 246 78 Z" fill="lightgray" class="stroke step7"/>
    <path d="M 472 533 Q 502 558 519 575 Q 559 620 580 632 Q 596 644 585 656 Q 572 669 548 677 Q 526 684 516 680 Q 506 677 511 667 Q 517 649 469 560 Q 463 550 457 538 C 443 511 449 514 472 533 Z" fill="lightgray" class="stroke step7"/>
    <path d="M 510 368 Q 507 377 492 448 L 486 480 Q 474 532 473 533 L 472 533 L 457 538 Q 445 542 424 544 Q 412 545 409 541 Q 403 534 412 519 Q 443 461 465 366 Q 469 338 487 319 Q 506 297 511 314 Q 512 323 513 334 L 510 368 Z" fill="lightgray" class="hide"/>
    <path d="M 492 448 Q 535 461 571 467 Q 592 474 582 485 Q 570 497 546 498 Q 524 498 486 481 Q 485 481 486 480 C 465 459 463 439 492 448 Z" fill="lightgray" class="hide"/>
    <path d="M 759 361 Q 760 357 762 352 Q 766 336 780 337 Q 793 338 802 353 Q 820 378 849 499 Q 867 551 903 579 Q 922 595 906 611 Q 890 627 840 655 Q 824 664 784 653 Q 760 647 738 641 Q 717 634 703 632 Q 688 632 686 626 Q 683 622 698 612 Q 728 597 748 604 Q 796 623 805 615 Q 818 608 810 567 Q 804 539 798 515 L 791 483 Q 773 408 764 387 Q 763 387 763 386 C 756 369 756 369 759 361 Z" fill="lightgray" class="hide"/>
    <path d="M 798 515 Q 777 530 689 507 Q 673 506 690 489 Q 694 485 706 484 Q 754 484 791 483 C 821 482 824 500 798 515 Z" fill="lightgray" class="hide"/>
    <path d="M 650 352 Q 698 358 759 361 C 787 362 784 365 763 386 Q 757 393 746 400 Q 727 412 655 392 L 603 382 Q 554 375 510 368 C 480 363 483 331 513 334 Q 517 334 523 335 Q 553 342 598 347 L 650 352 Z" fill="lightgray" class="hide"/>
    <path d="M 639 291 Q 639 292 640 292 Q 646 322 650 352 L 655 392 Q 664 479 665 649 Q 665 704 681 769 Q 685 781 677 788 Q 658 803 622 815 Q 601 824 585 817 Q 566 808 582 792 Q 610 765 613 735 Q 622 527 603 382 L 598 347 Q 580 199 451 98 Q 418 76 373 48 Q 360 42 358 38 Q 354 32 369 31 Q 384 30 438 52 Q 477 67 532 107 Q 604 161 633 264 L 639 291 Z" fill="lightgray" class="hide"/>
    <path d="M 633 264 Q 699 155 785 37 Q 819 3 969 30 Q 979 31 981 37 Q 801 143 749 189 Q 697 234 640 291 Q 639 292 639 291 C 617 311 617 290 633 264 Z" fill="lightgray" class="hide"/></g><g transform="scale(1, -1) translate(0, -900)">
    <style type="text/css">
        .origin {display:none;}
        .hide {display:none;}
        .stroke {fill: #000000;}
        
.step1 {transform: translateX(1024px);}
.step2 {transform: translateX(2048px);}
.step3 {transform: translateX(3072px);}
.step4 {transform: translateX(4096px);}
.step5 {transform: translateX(5120px);}
.step6 {transform: translateX(6144px);}
.step7 {transform: translateX(7168px);}
.step8 {transform: translateX(8192px);}
.step9 {transform: translateX(9216px);}
.step10 {transform: translateX(10240px);}
.step11 {transform: translateX(11264px);}
.step12 {transform: translateX(12288px);}
.step13 {transform: translateX(13312px);}
.step14 {transform: translateX(14336px);}
.step15 {transform: translateX(15360px);}
.step16 {transform: translateX(16384px);}
.step17 {transform: translateX(17408px);}
.step18 {transform: translateX(18432px);}
.step19 {transform: translateX(19456px);}
.step20 {transform: translateX(20480px);}
.step21 {transform: translateX(21504px);}
.step22 {transform: translateX(22528px);}
.step23 {transform: translateX(23552px);}
.step24 {transform: translateX(24576px);}
.step25 {transform: translateX(25600px);}
.step26 {transform: translateX(26624px);}
.step27 {transform: translateX(27648px);}
.step28 {transform: translateX(28672px);}
.step29 {transform: translateX(29696px);}
    </style>

    <path d="M 300 728 Q 328 706 357 677 Q 373 664 391 664 Q 403 665 408 680 Q 414 698 402 731 Q 390 762 293 783 Q 275 787 268 783 Q 262 779 264 764 Q 268 751 300 728 Z" fill="lightgray" class="stroke step8"/>
    <path d="M 56 532 Q 43 531 40 522 Q 37 512 53 500 Q 90 476 155 496 Q 248 533 397 561 Q 415 565 415 572 Q 415 585 396 594 Q 368 604 344 598 Q 155 547 56 532 Z" fill="lightgray" class="stroke step8"/>
    <path d="M 216 443 Q 183 433 209 421 Q 245 408 317 430 Q 341 437 368 446 Q 384 452 386 454 Q 393 463 388 470 Q 381 480 353 483 Q 337 483 262 455 Q 241 448 216 443 Z" fill="lightgray" class="stroke step8"/>
    <path d="M 220 347 Q 187 337 213 325 Q 255 309 303 328 Q 334 337 366 347 Q 379 351 382 354 Q 389 363 384 370 Q 377 380 349 383 Q 336 383 262 357 Q 243 351 220 347 Z" fill="lightgray" class="stroke step8"/>
    <path d="M 208 234 Q 198 240 165 243 Q 153 246 151 241 Q 145 234 154 220 Q 185 162 206 66 Q 210 38 228 18 Q 246 -1 250 13 Q 257 35 247 77 L 246 78 C 245 81 245 82 239 111 Q 223 183 220 207 C 217 230 217 230 208 234 Z" fill="lightgray" class="stroke step8"/>
    <path d="M 361 127 Q 380 185 399 203 Q 421 228 400 242 Q 340 279 327 275 Q 321 275 317 271 Q 292 255 208 234 C 179 227 192 197 220 207 Q 230 213 297 222 Q 319 226 323 218 Q 326 215 311 133 C 306 103 351 99 361 127 Z" fill="lightgray" class="stroke step8"/>
    <path d="M 246 78 Q 246 79 248 79 Q 287 89 370 99 Q 380 100 381 109 Q 381 116 361 127 C 336 141 336 141 311 133 Q 310 133 308 132 Q 269 120 239 111 C 210 102 218 68 246 78 Z" fill="lightgray" class="stroke step8"/>
    <path d="M 472 533 Q 502 558 519 575 Q 559 620 580 632 Q 596 644 585 656 Q 572 669 548 677 Q 526 684 516 680 Q 506 677 511 667 Q 517 649 469 560 Q 463 550 457 538 C 443 511 449 514 472 533 Z" fill="lightgray" class="stroke step8"/>
    <path d="M 510 368 Q 507 377 492 448 L 486 480 Q 474 532 473 533 L 472 533 L 457 538 Q 445 542 424 544 Q 412 545 409 541 Q 403 534 412 519 Q 443 461 465 366 Q 469 338 487 319 Q 506 297 511 314 Q 512 323 513 334 L 510 368 Z" fill="lightgray" class="stroke step8"/>
    <path d="M 492 448 Q 535 461 571 467 Q 592 474 582 485 Q 570 497 546 498 Q 524 498 486 481 Q 485 481 486 480 C 465 459 463 439 492 448 Z" fill="lightgray" class="hide"/>
    <path d="M 759 361 Q 760 357 762 352 Q 766 336 780 337 Q 793 338 802 353 Q 820 378 849 499 Q 867 551 903 579 Q 922 595 906 611 Q 890 627 840 655 Q 824 664 784 653 Q 760 647 738 641 Q 717 634 703 632 Q 688 632 686 626 Q 683 622 698 612 Q 728 597 748 604 Q 796 623 805 615 Q 818 608 810 567 Q 804 539 798 515 L 791 483 Q 773 408 764 387 Q 763 387 763 386 C 756 369 756 369 759 361 Z" fill="lightgray" class="hide"/>
    <path d="M 798 515 Q 777 530 689 507 Q 673 506 690 489 Q 694 485 706 484 Q 754 484 791 483 C 821 482 824 500 798 515 Z" fill="lightgray" class="hide"/>
    <path d="M 650 352 Q 698 358 759 361 C 787 362 784 365 763 386 Q 757 393 746 400 Q 727 412 655 392 L 603 382 Q 554 375 510 368 C 480 363 483 331 513 334 Q 517 334 523 335 Q 553 342 598 347 L 650 352 Z" fill="lightgray" class="hide"/>
    <path d="M 639 291 Q 639 292 640 292 Q 646 322 650 352 L 655 392 Q 664 479 665 649 Q 665 704 681 769 Q 685 781 677 788 Q 658 803 622 815 Q 601 824 585 817 Q 566 808 582 792 Q 610 765 613 735 Q 622 527 603 382 L 598 347 Q 580 199 451 98 Q 418 76 373 48 Q 360 42 358 38 Q 354 32 369 31 Q 384 30 438 52 Q 477 67 532 107 Q 604 161 633 264 L 639 291 Z" fill="lightgray" class="hide"/>
    <path d="M 633 264 Q 699 155 785 37 Q 819 3 969 30 Q 979 31 981 37 Q 801 143 749 189 Q 697 234 640 291 Q 639 292 639 291 C 617 311 617 290 633 264 Z" fill="lightgray" class="hide"/></g><g transform="scale(1, -1) translate(0, -900)">
    <style type="text/css">
        .origin {display:none;}
        .hide {display:none;}
        .stroke {fill: #000000;}
        
.step1 {transform: translateX(1024px);}
.step2 {transform: translateX(2048px);}
.step3 {transform: translateX(3072px);}
.step4 {transform: translateX(4096px);}
.step5 {transform: translateX(5120px);}
.step6 {transform: translateX(6144px);}
.step7 {transform: translateX(7168px);}
.step8 {transform: translateX(8192px);}
.step9 {transform: translateX(9216px);}
.step10 {transform: translateX(10240px);}
.step11 {transform: translateX(11264px);}
.step12 {transform: translateX(12288px);}
.step13 {transform: translateX(13312px);}
.step14 {transform: translateX(14336px);}
.step15 {transform: translateX(15360px);}
.step16 {transform: translateX(16384px);}
.step17 {transform: translateX(17408px);}
.step18 {transform: translateX(18432px);}
.step19 {transform: translateX(19456px);}
.step20 {transform: translateX(20480px);}
.step21 {transform: translateX(21504px);}
.step22 {transform: translateX(22528px);}
.step23 {transform: translateX(23552px);}
.step24 {transform: translateX(24576px);}
.step25 {transform: translateX(25600px);}
.step26 {transform: translateX(26624px);}
.step27 {transform: translateX(27648px);}
.step28 {transform: translateX(28672px);}
.step29 {transform: translateX(29696px);}
    </style>

    <path d="M 300 728 Q 328 706 357 677 Q 373 664 391 664 Q 403 665 408 680 Q 414 698 402 731 Q 390 762 293 783 Q 275 787 268 783 Q 262 779 264 764 Q 268 751 300 728 Z" fill="lightgray" class="stroke step9"/>
    <path d="M 56 532 Q 43 531 40 522 Q 37 512 53 500 Q 90 476 155 496 Q 248 533 397 561 Q 415 565 415 572 Q 415 585 396 594 Q 368 604 344 598 Q 155 547 56 532 Z" fill="lightgray" class="stroke step9"/>
    <path d="M 216 443 Q 183 433 209 421 Q 245 408 317 430 Q 341 437 368 446 Q 384 452 386 454 Q 393 463 388 470 Q 381 480 353 483 Q 337 483 262 455 Q 241 448 216 443 Z" fill="lightgray" class="stroke step9"/>
    <path d="M 220 347 Q 187 337 213 325 Q 255 309 303 328 Q 334 337 366 347 Q 379 351 382 354 Q 389 363 384 370 Q 377 380 349 383 Q 336 383 262 357 Q 243 351 220 347 Z" fill="lightgray" class="stroke step9"/>
    <path d="M 208 234 Q 198 240 165 243 Q 153 246 151 241 Q 145 234 154 220 Q 185 162 206 66 Q 210 38 228 18 Q 246 -1 250 13 Q 257 35 247 77 L 246 78 C 245 81 245 82 239 111 Q 223 183 220 207 C 217 230 217 230 208 234 Z" fill="lightgray" class="stroke step9"/>
    <path d="M 361 127 Q 380 185 399 203 Q 421 228 400 242 Q 340 279 327 275 Q 321 275 317 271 Q 292 255 208 234 C 179 227 192 197 220 207 Q 230 213 297 222 Q 319 226 323 218 Q 326 215 311 133 C 306 103 351 99 361 127 Z" fill="lightgray" class="stroke step9"/>
    <path d="M 246 78 Q 246 79 248 79 Q 287 89 370 99 Q 380 100 381 109 Q 381 116 361 127 C 336 141 336 141 311 133 Q 310 133 308 132 Q 269 120 239 111 C 210 102 218 68 246 78 Z" fill="lightgray" class="stroke step9"/>
    <path d="M 472 533 Q 502 558 519 575 Q 559 620 580 632 Q 596 644 585 656 Q 572 669 548 677 Q 526 684 516 680 Q 506 677 511 667 Q 517 649 469 560 Q 463 550 457 538 C 443 511 449 514 472 533 Z" fill="lightgray" class="stroke step9"/>
    <path d="M 510 368 Q 507 377 492 448 L 486 480 Q 474 532 473 533 L 472 533 L 457 538 Q 445 542 424 544 Q 412 545 409 541 Q 403 534 412 519 Q 443 461 465 366 Q 469 338 487 319 Q 506 297 511 314 Q 512 323 513 334 L 510 368 Z" fill="lightgray" class="stroke step9"/>
    <path d="M 492 448 Q 535 461 571 467 Q 592 474 582 485 Q 570 497 546 498 Q 524 498 486 481 Q 485 481 486 480 C 465 459 463 439 492 448 Z" fill="lightgray" class="stroke step9"/>
    <path d="M 759 361 Q 760 357 762 352 Q 766 336 780 337 Q 793 338 802 353 Q 820 378 849 499 Q 867 551 903 579 Q 922 595 906 611 Q 890 627 840 655 Q 824 664 784 653 Q 760 647 738 641 Q 717 634 703 632 Q 688 632 686 626 Q 683 622 698 612 Q 728 597 748 604 Q 796 623 805 615 Q 818 608 810 567 Q 804 539 798 515 L 791 483 Q 773 408 764 387 Q 763 387 763 386 C 756 369 756 369 759 361 Z" fill="lightgray" class="hide"/>
    <path d="M 798 515 Q 777 530 689 507 Q 673 506 690 489 Q 694 485 706 484 Q 754 484 791 483 C 821 482 824 500 798 515 Z" fill="lightgray" class="hide"/>
    <path d="M 650 352 Q 698 358 759 361 C 787 362 784 365 763 386 Q 757 393 746 400 Q 727 412 655 392 L 603 382 Q 554 375 510 368 C 480 363 483 331 513 334 Q 517 334 523 335 Q 553 342 598 347 L 650 352 Z" fill="lightgray" class="hide"/>
    <path d="M 639 291 Q 639 292 640 292 Q 646 322 650 352 L 655 392 Q 664 479 665 649 Q 665 704 681 769 Q 685 781 677 788 Q 658 803 622 815 Q 601 824 585 817 Q 566 808 582 792 Q 610 765 613 735 Q 622 527 603 382 L 598 347 Q 580 199 451 98 Q 418 76 373 48 Q 360 42 358 38 Q 354 32 369 31 Q 384 30 438 52 Q 477 67 532 107 Q 604 161 633 264 L 639 291 Z" fill="lightgray" class="hide"/>
    <path d="M 633 264 Q 699 155 785 37 Q 819 3 969 30 Q 979 31 981 37 Q 801 143 749 189 Q 697 234 640 291 Q 639 292 639 291 C 617 311 617 290 633 264 Z" fill="lightgray" class="hide"/></g><g transform="scale(1, -1) translate(0, -900)">
    <style type="text/css">
        .origin {display:none;}
        .hide {display:none;}
        .stroke {fill: #000000;}
        
.step1 {transform: translateX(1024px);}
.step2 {transform: translateX(2048px);}
.step3 {transform: translateX(3072px);}
.step4 {transform: translateX(4096px);}
.step5 {transform: translateX(5120px);}
.step6 {transform: translateX(6144px);}
.step7 {transform: translateX(7168px);}
.step8 {transform: translateX(8192px);}
.step9 {transform: translateX(9216px);}
.step10 {transform: translateX(10240px);}
.step11 {transform: translateX(11264px);}
.step12 {transform: translateX(12288px);}
.step13 {transform: translateX(13312px);}
.step14 {transform: translateX(14336px);}
.step15 {transform: translateX(15360px);}
.step16 {transform: translateX(16384px);}
.step17 {transform: translateX(17408px);}
.step18 {transform: translateX(18432px);}
.step19 {transform: translateX(19456px);}
.step20 {transform: translateX(20480px);}
.step21 {transform: translateX(21504px);}
.step22 {transform: translateX(22528px);}
.step23 {transform: translateX(23552px);}
.step24 {transform: translateX(24576px);}
.step25 {transform: translateX(25600px);}
.step26 {transform: translateX(26624px);}
.step27 {transform: translateX(27648px);}
.step28 {transform: translateX(28672px);}
.step29 {transform: translateX(29696px);}
    </style>

    <path d="M 300 728 Q 328 706 357 677 Q 373 664 391 664 Q 403 665 408 680 Q 414 698 402 731 Q 390 762 293 783 Q 275 787 268 783 Q 262 779 264 764 Q 268 751 300 728 Z" fill="lightgray" class="stroke step10"/>
    <path d="M 56 532 Q 43 531 40 522 Q 37 512 53 500 Q 90 476 155 496 Q 248 533 397 561 Q 415 565 415 572 Q 415 585 396 594 Q 368 604 344 598 Q 155 547 56 532 Z" fill="lightgray" class="stroke step10"/>
    <path d="M 216 443 Q 183 433 209 421 Q 245 408 317 430 Q 341 437 368 446 Q 384 452 386 454 Q 393 463 388 470 Q 381 480 353 483 Q 337 483 262 455 Q 241 448 216 443 Z" fill="lightgray" class="stroke step10"/>
    <path d="M 220 347 Q 187 337 213 325 Q 255 309 303 328 Q 334 337 366 347 Q 379 351 382 354 Q 389 363 384 370 Q 377 380 349 383 Q 336 383 262 357 Q 243 351 220 347 Z" fill="lightgray" class="stroke step10"/>
    <path d="M 208 234 Q 198 240 165 243 Q 153 246 151 241 Q 145 234 154 220 Q 185 162 206 66 Q 210 38 228 18 Q 246 -1 250 13 Q 257 35 247 77 L 246 78 C 245 81 245 82 239 111 Q 223 183 220 207 C 217 230 217 230 208 234 Z" fill="lightgray" class="stroke step10"/>
    <path d="M 361 127 Q 380 185 399 203 Q 421 228 400 242 Q 340 279 327 275 Q 321 275 317 271 Q 292 255 208 234 C 179 227 192 197 220 207 Q 230 213 297 222 Q 319 226 323 218 Q 326 215 311 133 C 306 103 351 99 361 127 Z" fill="lightgray" class="stroke step10"/>
    <path d="M 246 78 Q 246 79 248 79 Q 287 89 370 99 Q 380 100 381 109 Q 381 116 361 127 C 336 141 336 141 311 133 Q 310 133 308 132 Q 269 120 239 111 C 210 102 218 68 246 78 Z" fill="lightgray" class="stroke step10"/>
    <path d="M 472 533 Q 502 558 519 575 Q 559 620 580 632 Q 596 644 585 656 Q 572 669 548 677 Q 526 684 516 680 Q 506 677 511 667 Q 517 649 469 560 Q 463 550 457 538 C 443 511 449 514 472 533 Z" fill="lightgray" class="stroke step10"/>
    <path d="M 510 368 Q 507 377 492 448 L 486 480 Q 474 532 473 533 L 472 533 L 457 538 Q 445 542 424 544 Q 412 545 409 541 Q 403 534 412 519 Q 443 461 465 366 Q 469 338 487 319 Q 506 297 511 314 Q 512 323 513 334 L 510 368 Z" fill="lightgray" class="stroke step10"/>
    <path d="M 492 448 Q 535 461 571 467 Q 592 474 582 485 Q 570 497 546 498 Q 524 498 486 481 Q 485 481 486 480 C 465 459 463 439 492 448 Z" fill="lightgray" class="stroke step10"/>
    <path d="M 759 361 Q 760 357 762 352 Q 766 336 780 337 Q 793 338 802 353 Q 820 378 849 499 Q 867 551 903 579 Q 922 595 906 611 Q 890 627 840 655 Q 824 664 784 653 Q 760 647 738 641 Q 717 634 703 632 Q 688 632 686 626 Q 683 622 698 612 Q 728 597 748 604 Q 796 623 805 615 Q 818 608 810 567 Q 804 539 798 515 L 791 483 Q 773 408 764 387 Q 763 387 763 386 C 756 369 756 369 759 361 Z" fill="lightgray" class="stroke step10"/>
    <path d="M 798 515 Q 777 530 689 507 Q 673 506 690 489 Q 694 485 706 484 Q 754 484 791 483 C 821 482 824 500 798 515 Z" fill="lightgray" class="hide"/>
    <path d="M 650 352 Q 698 358 759 361 C 787 362 784 365 763 386 Q 757 393 746 400 Q 727 412 655 392 L 603 382 Q 554 375 510 368 C 480 363 483 331 513 334 Q 517 334 523 335 Q 553 342 598 347 L 650 352 Z" fill="lightgray" class="hide"/>
    <path d="M 639 291 Q 639 292 640 292 Q 646 322 650 352 L 655 392 Q 664 479 665 649 Q 665 704 681 769 Q 685 781 677 788 Q 658 803 622 815 Q 601 824 585 817 Q 566 808 582 792 Q 610 765 613 735 Q 622 527 603 382 L 598 347 Q 580 199 451 98 Q 418 76 373 48 Q 360 42 358 38 Q 354 32 369 31 Q 384 30 438 52 Q 477 67 532 107 Q 604 161 633 264 L 639 291 Z" fill="lightgray" class="hide"/>
    <path d="M 633 264 Q 699 155 785 37 Q 819 3 969 30 Q 979 31 981 37 Q 801 143 749 189 Q 697 234 640 291 Q 639 292 639 291 C 617 311 617 290 633 264 Z" fill="lightgray" class="hide"/></g><g transform="scale(1, -1) translate(0, -900)">
    <style type="text/css">
        .origin {display:none;}
        .hide {display:none;}
        .stroke {fill: #000000;}
        
.step1 {transform: translateX(1024px);}
.step2 {transform: translateX(2048px);}
.step3 {transform: translateX(3072px);}
.step4 {transform: translateX(4096px);}
.step5 {transform: translateX(5120px);}
.step6 {transform: translateX(6144px);}
.step7 {transform: translateX(7168px);}
.step8 {transform: translateX(8192px);}
.step9 {transform: translateX(9216px);}
.step10 {transform: translateX(10240px);}
.step11 {transform: translateX(11264px);}
.step12 {transform: translateX(12288px);}
.step13 {transform: translateX(13312px);}
.step14 {transform: translateX(14336px);}
.step15 {transform: translateX(15360px);}
.step16 {transform: translateX(16384px);}
.step17 {transform: translateX(17408px);}
.step18 {transform: translateX(18432px);}
.step19 {transform: translateX(19456px);}
.step20 {transform: translateX(20480px);}
.step21 {transform: translateX(21504px);}
.step22 {transform: translateX(22528px);}
.step23 {transform: translateX(23552px);}
.step24 {transform: translateX(24576px);}
.step25 {transform: translateX(25600px);}
.step26 {transform: translateX(26624px);}
.step27 {transform: translateX(27648px);}
.step28 {transform: translateX(28672px);}
.step29 {transform: translateX(29696px);}
    </style>

    <path d="M 300 728 Q 328 706 357 677 Q 373 664 391 664 Q 403 665 408 680 Q 414 698 402 731 Q 390 762 293 783 Q 275 787 268 783 Q 262 779 264 764 Q 268 751 300 728 Z" fill="lightgray" class="stroke step11"/>
    <path d="M 56 532 Q 43 531 40 522 Q 37 512 53 500 Q 90 476 155 496 Q 248 533 397 561 Q 415 565 415 572 Q 415 585 396 594 Q 368 604 344 598 Q 155 547 56 532 Z" fill="lightgray" class="stroke step11"/>
    <path d="M 216 443 Q 183 433 209 421 Q 245 408 317 430 Q 341 437 368 446 Q 384 452 386 454 Q 393 463 388 470 Q 381 480 353 483 Q 337 483 262 455 Q 241 448 216 443 Z" fill="lightgray" class="stroke step11"/>
    <path d="M 220 347 Q 187 337 213 325 Q 255 309 303 328 Q 334 337 366 347 Q 379 351 382 354 Q 389 363 384 370 Q 377 380 349 383 Q 336 383 262 357 Q 243 351 220 347 Z" fill="lightgray" class="stroke step11"/>
    <path d="M 208 234 Q 198 240 165 243 Q 153 246 151 241 Q 145 234 154 220 Q 185 162 206 66 Q 210 38 228 18 Q 246 -1 250 13 Q 257 35 247 77 L 246 78 C 245 81 245 82 239 111 Q 223 183 220 207 C 217 230 217 230 208 234 Z" fill="lightgray" class="stroke step11"/>
    <path d="M 361 127 Q 380 185 399 203 Q 421 228 400 242 Q 340 279 327 275 Q 321 275 317 271 Q 292 255 208 234 C 179 227 192 197 220 207 Q 230 213 297 222 Q 319 226 323 218 Q 326 215 311 133 C 306 103 351 99 361 127 Z" fill="lightgray" class="stroke step11"/>
    <path d="M 246 78 Q 246 79 248 79 Q 287 89 370 99 Q 380 100 381 109 Q 381 116 361 127 C 336 141 336 141 311 133 Q 310 133 308 132 Q 269 120 239 111 C 210 102 218 68 246 78 Z" fill="lightgray" class="stroke step11"/>
    <path d="M 472 533 Q 502 558 519 575 Q 559 620 580 632 Q 596 644 585 656 Q 572 669 548 677 Q 526 684 516 680 Q 506 677 511 667 Q 517 649 469 560 Q 463 550 457 538 C 443 511 449 514 472 533 Z" fill="lightgray" class="stroke step11"/>
    <path d="M 510 368 Q 507 377 492 448 L 486 480 Q 474 532 473 533 L 472 533 L 457 538 Q 445 542 424 544 Q 412 545 409 541 Q 403 534 412 519 Q 443 461 465 366 Q 469 338 487 319 Q 506 297 511 314 Q 512 323 513 334 L 510 368 Z" fill="lightgray" class="stroke step11"/>
    <path d="M 492 448 Q 535 461 571 467 Q 592 474 582 485 Q 570 497 546 498 Q 524 498 486 481 Q 485 481 486 480 C 465 459 463 439 492 448 Z" fill="lightgray" class="stroke step11"/>
    <path d="M 759 361 Q 760 357 762 352 Q 766 336 780 337 Q 793 338 802 353 Q 820 378 849 499 Q 867 551 903 579 Q 922 595 906 611 Q 890 627 840 655 Q 824 664 784 653 Q 760 647 738 641 Q 717 634 703 632 Q 688 632 686 626 Q 683 622 698 612 Q 728 597 748 604 Q 796 623 805 615 Q 818 608 810 567 Q 804 539 798 515 L 791 483 Q 773 408 764 387 Q 763 387 763 386 C 756 369 756 369 759 361 Z" fill="lightgray" class="stroke step11"/>
    <path d="M 798 515 Q 777 530 689 507 Q 673 506 690 489 Q 694 485 706 484 Q 754 484 791 483 C 821 482 824 500 798 515 Z" fill="lightgray" class="stroke step11"/>
    <path d="M 650 352 Q 698 358 759 361 C 787 362 784 365 763 386 Q 757 393 746 400 Q 727 412 655 392 L 603 382 Q 554 375 510 368 C 480 363 483 331 513 334 Q 517 334 523 335 Q 553 342 598 347 L 650 352 Z" fill="lightgray" class="hide"/>
    <path d="M 639 291 Q 639 292 640 292 Q 646 322 650 352 L 655 392 Q 664 479 665 649 Q 665 704 681 769 Q 685 781 677 788 Q 658 803 622 815 Q 601 824 585 817 Q 566 808 582 792 Q 610 765 613 735 Q 622 527 603 382 L 598 347 Q 580 199 451 98 Q 418 76 373 48 Q 360 42 358 38 Q 354 32 369 31 Q 384 30 438 52 Q 477 67 532 107 Q 604 161 633 264 L 639 291 Z" fill="lightgray" class="hide"/>
    <path d="M 633 264 Q 699 155 785 37 Q 819 3 969 30 Q 979 31 981 37 Q 801 143 749 189 Q 697 234 640 291 Q 639 292 639 291 C 617 311 617 290 633 264 Z" fill="lightgray" class="hide"/></g><g transform="scale(1, -1) translate(0, -900)">
    <style type="text/css">
        .origin {display:none;}
        .hide {display:none;}
        .stroke {fill: #000000;}
        
.step1 {transform: translateX(1024px);}
.step2 {transform: translateX(2048px);}
.step3 {transform: translateX(3072px);}
.step4 {transform: translateX(4096px);}
.step5 {transform: translateX(5120px);}
.step6 {transform: translateX(6144px);}
.step7 {transform: translateX(7168px);}
.step8 {transform: translateX(8192px);}
.step9 {transform: translateX(9216px);}
.step10 {transform: translateX(10240px);}
.step11 {transform: translateX(11264px);}
.step12 {transform: translateX(12288px);}
.step13 {transform: translateX(13312px);}
.step14 {transform: translateX(14336px);}
.step15 {transform: translateX(15360px);}
.step16 {transform: translateX(16384px);}
.step17 {transform: translateX(17408px);}
.step18 {transform: translateX(18432px);}
.step19 {transform: translateX(19456px);}
.step20 {transform: translateX(20480px);}
.step21 {transform: translateX(21504px);}
.step22 {transform: translateX(22528px);}
.step23 {transform: translateX(23552px);}
.step24 {transform: translateX(24576px);}
.step25 {transform: translateX(25600px);}
.step26 {transform: translateX(26624px);}
.step27 {transform: translateX(27648px);}
.step28 {transform: translateX(28672px);}
.step29 {transform: translateX(29696px);}
    </style>

    <path d="M 300 728 Q 328 706 357 677 Q 373 664 391 664 Q 403 665 408 680 Q 414 698 402 731 Q 390 762 293 783 Q 275 787 268 783 Q 262 779 264 764 Q 268 751 300 728 Z" fill="lightgray" class="stroke step12"/>
    <path d="M 56 532 Q 43 531 40 522 Q 37 512 53 500 Q 90 476 155 496 Q 248 533 397 561 Q 415 565 415 572 Q 415 585 396 594 Q 368 604 344 598 Q 155 547 56 532 Z" fill="lightgray" class="stroke step12"/>
    <path d="M 216 443 Q 183 433 209 421 Q 245 408 317 430 Q 341 437 368 446 Q 384 452 386 454 Q 393 463 388 470 Q 381 480 353 483 Q 337 483 262 455 Q 241 448 216 443 Z" fill="lightgray" class="stroke step12"/>
    <path d="M 220 347 Q 187 337 213 325 Q 255 309 303 328 Q 334 337 366 347 Q 379 351 382 354 Q 389 363 384 370 Q 377 380 349 383 Q 336 383 262 357 Q 243 351 220 347 Z" fill="lightgray" class="stroke step12"/>
    <path d="M 208 234 Q 198 240 165 243 Q 153 246 151 241 Q 145 234 154 220 Q 185 162 206 66 Q 210 38 228 18 Q 246 -1 250 13 Q 257 35 247 77 L 246 78 C 245 81 245 82 239 111 Q 223 183 220 207 C 217 230 217 230 208 234 Z" fill="lightgray" class="stroke step12"/>
    <path d="M 361 127 Q 380 185 399 203 Q 421 228 400 242 Q 340 279 327 275 Q 321 275 317 271 Q 292 255 208 234 C 179 227 192 197 220 207 Q 230 213 297 222 Q 319 226 323 218 Q 326 215 311 133 C 306 103 351 99 361 127 Z" fill="lightgray" class="stroke step12"/>
    <path d="M 246 78 Q 246 79 248 79 Q 287 89 370 99 Q 380 100 381 109 Q 381 116 361 127 C 336 141 336 141 311 133 Q 310 133 308 132 Q 269 120 239 111 C 210 102 218 68 246 78 Z" fill="lightgray" class="stroke step12"/>
    <path d="M 472 533 Q 502 558 519 575 Q 559 620 580 632 Q 596 644 585 656 Q 572 669 548 677 Q 526 684 516 680 Q 506 677 511 667 Q 517 649 469 560 Q 463 550 457 538 C 443 511 449 514 472 533 Z" fill="lightgray" class="stroke step12"/>
    <path d="M 510 368 Q 507 377 492 448 L 486 480 Q 474 532 473 533 L 472 533 L 457 538 Q 445 542 424 544 Q 412 545 409 541 Q 403 534 412 519 Q 443 461 465 366 Q 469 338 487 319 Q 506 297 511 314 Q 512 323 513 334 L 510 368 Z" fill="lightgray" class="stroke step12"/>
    <path d="M 492 448 Q 535 461 571 467 Q 592 474 582 485 Q 570 497 546 498 Q 524 498 486 481 Q 485 481 486 480 C 465 459 463 439 492 448 Z" fill="lightgray" class="stroke step12"/>
    <path d="M 759 361 Q 760 357 762 352 Q 766 336 780 337 Q 793 338 802 353 Q 820 378 849 499 Q 867 551 903 579 Q 922 595 906 611 Q 890 627 840 655 Q 824 664 784 653 Q 760 647 738 641 Q 717 634 703 632 Q 688 632 686 626 Q 683 622 698 612 Q 728 597 748 604 Q 796 623 805 615 Q 818 608 810 567 Q 804 539 798 515 L 791 483 Q 773 408 764 387 Q 763 387 763 386 C 756 369 756 369 759 361 Z" fill="lightgray" class="stroke step12"/>
    <path d="M 798 515 Q 777 530 689 507 Q 673 506 690 489 Q 694 485 706 484 Q 754 484 791 483 C 821 482 824 500 798 515 Z" fill="lightgray" class="stroke step12"/>
    <path d="M 650 352 Q 698 358 759 361 C 787 362 784 365 763 386 Q 757 393 746 400 Q 727 412 655 392 L 603 382 Q 554 375 510 368 C 480 363 483 331 513 334 Q 517 334 523 335 Q 553 342 598 347 L 650 352 Z" fill="lightgray" class="stroke step12"/>
    <path d="M 639 291 Q 639 292 640 292 Q 646 322 650 352 L 655 392 Q 664 479 665 649 Q 665 704 681 769 Q 685 781 677 788 Q 658 803 622 815 Q 601 824 585 817 Q 566 808 582 792 Q 610 765 613 735 Q 622 527 603 382 L 598 347 Q 580 199 451 98 Q 418 76 373 48 Q 360 42 358 38 Q 354 32 369 31 Q 384 30 438 52 Q 477 67 532 107 Q 604 161 633 264 L 639 291 Z" fill="lightgray" class="hide"/>
    <path d="M 633 264 Q 699 155 785 37 Q 819 3 969 30 Q 979 31 981 37 Q 801 143 749 189 Q 697 234 640 291 Q 639 292 639 291 C 617 311 617 290 633 264 Z" fill="lightgray" class="hide"/></g><g transform="scale(1, -1) translate(0, -900)">
    <style type="text/css">
        .origin {display:none;}
        .hide {display:none;}
        .stroke {fill: #000000;}
        
.step1 {transform: translateX(1024px);}
.step2 {transform: translateX(2048px);}
.step3 {transform: translateX(3072px);}
.step4 {transform: translateX(4096px);}
.step5 {transform: translateX(5120px);}
.step6 {transform: translateX(6144px);}
.step7 {transform: translateX(7168px);}
.step8 {transform: translateX(8192px);}
.step9 {transform: translateX(9216px);}
.step10 {transform: translateX(10240px);}
.step11 {transform: translateX(11264px);}
.step12 {transform: translateX(12288px);}
.step13 {transform: translateX(13312px);}
.step14 {transform: translateX(14336px);}
.step15 {transform: translateX(15360px);}
.step16 {transform: translateX(16384px);}
.step17 {transform: translateX(17408px);}
.step18 {transform: translateX(18432px);}
.step19 {transform: translateX(19456px);}
.step20 {transform: translateX(20480px);}
.step21 {transform: translateX(21504px);}
.step22 {transform: translateX(22528px);}
.step23 {transform: translateX(23552px);}
.step24 {transform: translateX(24576px);}
.step25 {transform: translateX(25600px);}
.step26 {transform: translateX(26624px);}
.step27 {transform: translateX(27648px);}
.step28 {transform: translateX(28672px);}
.step29 {transform: translateX(29696px);}
    </style>

    <path d="M 300 728 Q 328 706 357 677 Q 373 664 391 664 Q 403 665 408 680 Q 414 698 402 731 Q 390 762 293 783 Q 275 787 268 783 Q 262 779 264 764 Q 268 751 300 728 Z" fill="lightgray" class="stroke step13"/>
    <path d="M 56 532 Q 43 531 40 522 Q 37 512 53 500 Q 90 476 155 496 Q 248 533 397 561 Q 415 565 415 572 Q 415 585 396 594 Q 368 604 344 598 Q 155 547 56 532 Z" fill="lightgray" class="stroke step13"/>
    <path d="M 216 443 Q 183 433 209 421 Q 245 408 317 430 Q 341 437 368 446 Q 384 452 386 454 Q 393 463 388 470 Q 381 480 353 483 Q 337 483 262 455 Q 241 448 216 443 Z" fill="lightgray" class="stroke step13"/>
    <path d="M 220 347 Q 187 337 213 325 Q 255 309 303 328 Q 334 337 366 347 Q 379 351 382 354 Q 389 363 384 370 Q 377 380 349 383 Q 336 383 262 357 Q 243 351 220 347 Z" fill="lightgray" class="stroke step13"/>
    <path d="M 208 234 Q 198 240 165 243 Q 153 246 151 241 Q 145 234 154 220 Q 185 162 206 66 Q 210 38 228 18 Q 246 -1 250 13 Q 257 35 247 77 L 246 78 C 245 81 245 82 239 111 Q 223 183 220 207 C 217 230 217 230 208 234 Z" fill="lightgray" class="stroke step13"/>
    <path d="M 361 127 Q 380 185 399 203 Q 421 228 400 242 Q 340 279 327 275 Q 321 275 317 271 Q 292 255 208 234 C 179 227 192 197 220 207 Q 230 213 297 222 Q 319 226 323 218 Q 326 215 311 133 C 306 103 351 99 361 127 Z" fill="lightgray" class="stroke step13"/>
    <path d="M 246 78 Q 246 79 248 79 Q 287 89 370 99 Q 380 100 381 109 Q 381 116 361 127 C 336 141 336 141 311 133 Q 310 133 308 132 Q 269 120 239 111 C 210 102 218 68 246 78 Z" fill="lightgray" class="stroke step13"/>
    <path d="M 472 533 Q 502 558 519 575 Q 559 620 580 632 Q 596 644 585 656 Q 572 669 548 677 Q 526 684 516 680 Q 506 677 511 667 Q 517 649 469 560 Q 463 550 457 538 C 443 511 449 514 472 533 Z" fill="lightgray" class="stroke step13"/>
    <path d="M 510 368 Q 507 377 492 448 L 486 480 Q 474 532 473 533 L 472 533 L 457 538 Q 445 542 424 544 Q 412 545 409 541 Q 403 534 412 519 Q 443 461 465 366 Q 469 338 487 319 Q 506 297 511 314 Q 512 323 513 334 L 510 368 Z" fill="lightgray" class="stroke step13"/>
    <path d="M 492 448 Q 535 461 571 467 Q 592 474 582 485 Q 570 497 546 498 Q 524 498 486 481 Q 485 481 486 480 C 465 459 463 439 492 448 Z" fill="lightgray" class="stroke step13"/>
    <path d="M 759 361 Q 760 357 762 352 Q 766 336 780 337 Q 793 338 802 353 Q 820 378 849 499 Q 867 551 903 579 Q 922 595 906 611 Q 890 627 840 655 Q 824 664 784 653 Q 760 647 738 641 Q 717 634 703 632 Q 688 632 686 626 Q 683 622 698 612 Q 728 597 748 604 Q 796 623 805 615 Q 818 608 810 567 Q 804 539 798 515 L 791 483 Q 773 408 764 387 Q 763 387 763 386 C 756 369 756 369 759 361 Z" fill="lightgray" class="stroke step13"/>
    <path d="M 798 515 Q 777 530 689 507 Q 673 506 690 489 Q 694 485 706 484 Q 754 484 791 483 C 821 482 824 500 798 515 Z" fill="lightgray" class="stroke step13"/>
    <path d="M 650 352 Q 698 358 759 361 C 787 362 784 365 763 386 Q 757 393 746 400 Q 727 412 655 392 L 603 382 Q 554 375 510 368 C 480 363 483 331 513 334 Q 517 334 523 335 Q 553 342 598 347 L 650 352 Z" fill="lightgray" class="stroke step13"/>
    <path d="M 639 291 Q 639 292 640 292 Q 646 322 650 352 L 655 392 Q 664 479 665 649 Q 665 704 681 769 Q 685 781 677 788 Q 658 803 622 815 Q 601 824 585 817 Q 566 808 582 792 Q 610 765 613 735 Q 622 527 603 382 L 598 347 Q 580 199 451 98 Q 418 76 373 48 Q 360 42 358 38 Q 354 32 369 31 Q 384 30 438 52 Q 477 67 532 107 Q 604 161 633 264 L 639 291 Z" fill="lightgray" class="stroke step13"/>
    <path d="M 633 264 Q 699 155 785 37 Q 819 3 969 30 Q 979 31 981 37 Q 801 143 749 189 Q 697 234 640 291 Q 639 292 639 291 C 617 311 617 290 633 264 Z" fill="lightgray" class="hide"/></g><g transform="scale(1, -1) translate(0, -900)">
    <style type="text/css">
        .origin {display:none;}
        .hide {display:none;}
        .stroke {fill: #000000;}
        
.step1 {transform: translateX(1024px);}
.step2 {transform: translateX(2048px);}
.step3 {transform: translateX(3072px);}
.step4 {transform: translateX(4096px);}
.step5 {transform: translateX(5120px);}
.step6 {transform: translateX(6144px);}
.step7 {transform: translateX(7168px);}
.step8 {transform: translateX(8192px);}
.step9 {transform: translateX(9216px);}
.step10 {transform: translateX(10240px);}
.step11 {transform: translateX(11264px);}
.step12 {transform: translateX(12288px);}
.step13 {transform: translateX(13312px);}
.step14 {transform: translateX(14336px);}
.step15 {transform: translateX(15360px);}
.step16 {transform: translateX(16384px);}
.step17 {transform: translateX(17408px);}
.step18 {transform: translateX(18432px);}
.step19 {transform: translateX(19456px);}
.step20 {transform: translateX(20480px);}
.step21 {transform: translateX(21504px);}
.step22 {transform: translateX(22528px);}
.step23 {transform: translateX(23552px);}
.step24 {transform: translateX(24576px);}
.step25 {transform: translateX(25600px);}
.step26 {transform: translateX(26624px);}
.step27 {transform: translateX(27648px);}
.step28 {transform: translateX(28672px);}
.step29 {transform: translateX(29696px);}
    </style>

    <path d="M 300 728 Q 328 706 357 677 Q 373 664 391 664 Q 403 665 408 680 Q 414 698 402 731 Q 390 762 293 783 Q 275 787 268 783 Q 262 779 264 764 Q 268 751 300 728 Z" fill="lightgray" class="stroke step14"/>
    <path d="M 56 532 Q 43 531 40 522 Q 37 512 53 500 Q 90 476 155 496 Q 248 533 397 561 Q 415 565 415 572 Q 415 585 396 594 Q 368 604 344 598 Q 155 547 56 532 Z" fill="lightgray" class="stroke step14"/>
    <path d="M 216 443 Q 183 433 209 421 Q 245 408 317 430 Q 341 437 368 446 Q 384 452 386 454 Q 393 463 388 470 Q 381 480 353 483 Q 337 483 262 455 Q 241 448 216 443 Z" fill="lightgray" class="stroke step14"/>
    <path d="M 220 347 Q 187 337 213 325 Q 255 309 303 328 Q 334 337 366 347 Q 379 351 382 354 Q 389 363 384 370 Q 377 380 349 383 Q 336 383 262 357 Q 243 351 220 347 Z" fill="lightgray" class="stroke step14"/>
    <path d="M 208 234 Q 198 240 165 243 Q 153 246 151 241 Q 145 234 154 220 Q 185 162 206 66 Q 210 38 228 18 Q 246 -1 250 13 Q 257 35 247 77 L 246 78 C 245 81 245 82 239 111 Q 223 183 220 207 C 217 230 217 230 208 234 Z" fill="lightgray" class="stroke step14"/>
    <path d="M 361 127 Q 380 185 399 203 Q 421 228 400 242 Q 340 279 327 275 Q 321 275 317 271 Q 292 255 208 234 C 179 227 192 197 220 207 Q 230 213 297 222 Q 319 226 323 218 Q 326 215 311 133 C 306 103 351 99 361 127 Z" fill="lightgray" class="stroke step14"/>
    <path d="M 246 78 Q 246 79 248 79 Q 287 89 370 99 Q 380 100 381 109 Q 381 116 361 127 C 336 141 336 141 311 133 Q 310 133 308 132 Q 269 120 239 111 C 210 102 218 68 246 78 Z" fill="lightgray" class="stroke step14"/>
    <path d="M 472 533 Q 502 558 519 575 Q 559 620 580 632 Q 596 644 585 656 Q 572 669 548 677 Q 526 684 516 680 Q 506 677 511 667 Q 517 649 469 560 Q 463 550 457 538 C 443 511 449 514 472 533 Z" fill="lightgray" class="stroke step14"/>
    <path d="M 510 368 Q 507 377 492 448 L 486 480 Q 474 532 473 533 L 472 533 L 457 538 Q 445 542 424 544 Q 412 545 409 541 Q 403 534 412 519 Q 443 461 465 366 Q 469 338 487 319 Q 506 297 511 314 Q 512 323 513 334 L 510 368 Z" fill="lightgray" class="stroke step14"/>
    <path d="M 492 448 Q 535 461 571 467 Q 592 474 582 485 Q 570 497 546 498 Q 524 498 486 481 Q 485 481 486 480 C 465 459 463 439 492 448 Z" fill="lightgray" class="stroke step14"/>
    <path d="M 759 361 Q 760 357 762 352 Q 766 336 780 337 Q 793 338 802 353 Q 820 378 849 499 Q 867 551 903 579 Q 922 595 906 611 Q 890 627 840 655 Q 824 664 784 653 Q 760 647 738 641 Q 717 634 703 632 Q 688 632 686 626 Q 683 622 698 612 Q 728 597 748 604 Q 796 623 805 615 Q 818 608 810 567 Q 804 539 798 515 L 791 483 Q 773 408 764 387 Q 763 387 763 386 C 756 369 756 369 759 361 Z" fill="lightgray" class="stroke step14"/>
    <path d="M 798 515 Q 777 530 689 507 Q 673 506 690 489 Q 694 485 706 484 Q 754 484 791 483 C 821 482 824 500 798 515 Z" fill="lightgray" class="stroke step14"/>
    <path d="M 650 352 Q 698 358 759 361 C 787 362 784 365 763 386 Q 757 393 746 400 Q 727 412 655 392 L 603 382 Q 554 375 510 368 C 480 363 483 331 513 334 Q 517 334 523 335 Q 553 342 598 347 L 650 352 Z" fill="lightgray" class="stroke step14"/>
    <path d="M 639 291 Q 639 292 640 292 Q 646 322 650 352 L 655 392 Q 664 479 665 649 Q 665 704 681 769 Q 685 781 677 788 Q 658 803 622 815 Q 601 824 585 817 Q 566 808 582 792 Q 610 765 613 735 Q 622 527 603 382 L 598 347 Q 580 199 451 98 Q 418 76 373 48 Q 360 42 358 38 Q 354 32 369 31 Q 384 30 438 52 Q 477 67 532 107 Q 604 161 633 264 L 639 291 Z" fill="lightgray" class="stroke step14"/>
    <path d="M 633 264 Q 699 155 785 37 Q 819 3 969 30 Q 979 31 981 37 Q 801 143 749 189 Q 697 234 640 291 Q 639 292 639 291 C 617 311 617 290 633 264 Z" fill="lightgray" class="stroke step14"/></g></svg>