<svg version="1.1" viewBox="0 0 7168 1024" xmlns="http://www.w3.org/2000/svg">
  
  <g transform="scale(1, -1) translate(0, -900)" class="origin">
    <style type="text/css">
        .origin {display:none;}
        .hide {display:none;}
        .stroke {fill: #000000;}
        
.step1 {transform: translateX(1024px);}
.step2 {transform: translateX(2048px);}
.step3 {transform: translateX(3072px);}
.step4 {transform: translateX(4096px);}
.step5 {transform: translateX(5120px);}
.step6 {transform: translateX(6144px);}
.step7 {transform: translateX(7168px);}
.step8 {transform: translateX(8192px);}
.step9 {transform: translateX(9216px);}
.step10 {transform: translateX(10240px);}
.step11 {transform: translateX(11264px);}
.step12 {transform: translateX(12288px);}
.step13 {transform: translateX(13312px);}
.step14 {transform: translateX(14336px);}
.step15 {transform: translateX(15360px);}
.step16 {transform: translateX(16384px);}
.step17 {transform: translateX(17408px);}
.step18 {transform: translateX(18432px);}
.step19 {transform: translateX(19456px);}
.step20 {transform: translateX(20480px);}
.step21 {transform: translateX(21504px);}
.step22 {transform: translateX(22528px);}
.step23 {transform: translateX(23552px);}
.step24 {transform: translateX(24576px);}
.step25 {transform: translateX(25600px);}
.step26 {transform: translateX(26624px);}
.step27 {transform: translateX(27648px);}
.step28 {transform: translateX(28672px);}
.step29 {transform: translateX(29696px);}
    </style>

    <path d="M 435 698 Q 558 720 686 742 Q 755 757 766 765 Q 776 774 771 783 Q 764 796 733 805 Q 697 814 613 785 Q 459 743 296 731 Q 256 727 284 707 Q 329 680 389 691 Q 392 692 397 691 L 435 698 Z" fill="lightgray"/>
    <path d="M 374 578 Q 468 660 470 671 L 470 672 Q 469 685 445 694 Q 441 697 435 698 C 407 709 405 710 397 691 Q 372 619 198 503 Q 176 491 202 492 Q 247 492 351 561 L 374 578 Z" fill="lightgray"/>
    <path d="M 521 460 Q 508 500 432 548 Q 396 572 374 578 C 346 589 324 575 351 561 Q 373 551 389 538 L 441 498 Q 460 480 476 457 L 505 398 Q 538 293 509 144 Q 497 86 480 78 Q 465 71 406 79 Q 355 88 356 80 Q 355 73 368 62 Q 441 19 474 -13 Q 487 -29 501 -24 Q 525 -17 545 20 Q 581 104 577 258 Q 574 327 550 398 L 521 460 Z" fill="lightgray"/>
    <path d="M 389 538 Q 367 466 177 350 Q 158 340 181 340 Q 250 337 390 452 L 441 498 C 463 518 400 566 389 538 Z" fill="lightgray"/>
    <path d="M 476 457 Q 475 456 472 451 Q 387 298 174 158 Q 159 149 145 139 Q 130 127 140 125 Q 149 119 162 124 Q 298 164 437 314 Q 444 323 453 332 Q 499 384 499 388 Q 502 392 505 398 C 520 424 492 483 476 457 Z" fill="lightgray"/>
    <path d="M 569 422 Q 630 468 666 500 Q 733 564 767 582 Q 789 594 777 613 Q 761 629 732 644 Q 705 657 691 653 Q 678 652 683 636 Q 689 603 625 521 Q 591 479 555 434 C 536 411 545 404 569 422 Z" fill="lightgray"/>
    <path d="M 555 434 Q 537 447 521 460 C 497 479 529 419 550 398 Q 647 301 762 201 Q 787 180 821 186 Q 939 204 976 215 Q 986 219 988 225 Q 987 231 970 237 Q 784 273 707 326 Q 641 369 569 422 L 555 434 Z" fill="lightgray"/></g>
<g transform="scale(1, -1) translate(0, -900)">
    <style type="text/css">
        .origin {display:none;}
        .hide {display:none;}
        .stroke {fill: #000000;}
        
.step1 {transform: translateX(1024px);}
.step2 {transform: translateX(2048px);}
.step3 {transform: translateX(3072px);}
.step4 {transform: translateX(4096px);}
.step5 {transform: translateX(5120px);}
.step6 {transform: translateX(6144px);}
.step7 {transform: translateX(7168px);}
.step8 {transform: translateX(8192px);}
.step9 {transform: translateX(9216px);}
.step10 {transform: translateX(10240px);}
.step11 {transform: translateX(11264px);}
.step12 {transform: translateX(12288px);}
.step13 {transform: translateX(13312px);}
.step14 {transform: translateX(14336px);}
.step15 {transform: translateX(15360px);}
.step16 {transform: translateX(16384px);}
.step17 {transform: translateX(17408px);}
.step18 {transform: translateX(18432px);}
.step19 {transform: translateX(19456px);}
.step20 {transform: translateX(20480px);}
.step21 {transform: translateX(21504px);}
.step22 {transform: translateX(22528px);}
.step23 {transform: translateX(23552px);}
.step24 {transform: translateX(24576px);}
.step25 {transform: translateX(25600px);}
.step26 {transform: translateX(26624px);}
.step27 {transform: translateX(27648px);}
.step28 {transform: translateX(28672px);}
.step29 {transform: translateX(29696px);}
    </style>

    <path d="M 435 698 Q 558 720 686 742 Q 755 757 766 765 Q 776 774 771 783 Q 764 796 733 805 Q 697 814 613 785 Q 459 743 296 731 Q 256 727 284 707 Q 329 680 389 691 Q 392 692 397 691 L 435 698 Z" fill="lightgray" class="stroke step0"/>
    <path d="M 374 578 Q 468 660 470 671 L 470 672 Q 469 685 445 694 Q 441 697 435 698 C 407 709 405 710 397 691 Q 372 619 198 503 Q 176 491 202 492 Q 247 492 351 561 L 374 578 Z" fill="lightgray" class="hide"/>
    <path d="M 521 460 Q 508 500 432 548 Q 396 572 374 578 C 346 589 324 575 351 561 Q 373 551 389 538 L 441 498 Q 460 480 476 457 L 505 398 Q 538 293 509 144 Q 497 86 480 78 Q 465 71 406 79 Q 355 88 356 80 Q 355 73 368 62 Q 441 19 474 -13 Q 487 -29 501 -24 Q 525 -17 545 20 Q 581 104 577 258 Q 574 327 550 398 L 521 460 Z" fill="lightgray" class="hide"/>
    <path d="M 389 538 Q 367 466 177 350 Q 158 340 181 340 Q 250 337 390 452 L 441 498 C 463 518 400 566 389 538 Z" fill="lightgray" class="hide"/>
    <path d="M 476 457 Q 475 456 472 451 Q 387 298 174 158 Q 159 149 145 139 Q 130 127 140 125 Q 149 119 162 124 Q 298 164 437 314 Q 444 323 453 332 Q 499 384 499 388 Q 502 392 505 398 C 520 424 492 483 476 457 Z" fill="lightgray" class="hide"/>
    <path d="M 569 422 Q 630 468 666 500 Q 733 564 767 582 Q 789 594 777 613 Q 761 629 732 644 Q 705 657 691 653 Q 678 652 683 636 Q 689 603 625 521 Q 591 479 555 434 C 536 411 545 404 569 422 Z" fill="lightgray" class="hide"/>
    <path d="M 555 434 Q 537 447 521 460 C 497 479 529 419 550 398 Q 647 301 762 201 Q 787 180 821 186 Q 939 204 976 215 Q 986 219 988 225 Q 987 231 970 237 Q 784 273 707 326 Q 641 369 569 422 L 555 434 Z" fill="lightgray" class="hide"/></g><g transform="scale(1, -1) translate(0, -900)">
    <style type="text/css">
        .origin {display:none;}
        .hide {display:none;}
        .stroke {fill: #000000;}
        
.step1 {transform: translateX(1024px);}
.step2 {transform: translateX(2048px);}
.step3 {transform: translateX(3072px);}
.step4 {transform: translateX(4096px);}
.step5 {transform: translateX(5120px);}
.step6 {transform: translateX(6144px);}
.step7 {transform: translateX(7168px);}
.step8 {transform: translateX(8192px);}
.step9 {transform: translateX(9216px);}
.step10 {transform: translateX(10240px);}
.step11 {transform: translateX(11264px);}
.step12 {transform: translateX(12288px);}
.step13 {transform: translateX(13312px);}
.step14 {transform: translateX(14336px);}
.step15 {transform: translateX(15360px);}
.step16 {transform: translateX(16384px);}
.step17 {transform: translateX(17408px);}
.step18 {transform: translateX(18432px);}
.step19 {transform: translateX(19456px);}
.step20 {transform: translateX(20480px);}
.step21 {transform: translateX(21504px);}
.step22 {transform: translateX(22528px);}
.step23 {transform: translateX(23552px);}
.step24 {transform: translateX(24576px);}
.step25 {transform: translateX(25600px);}
.step26 {transform: translateX(26624px);}
.step27 {transform: translateX(27648px);}
.step28 {transform: translateX(28672px);}
.step29 {transform: translateX(29696px);}
    </style>

    <path d="M 435 698 Q 558 720 686 742 Q 755 757 766 765 Q 776 774 771 783 Q 764 796 733 805 Q 697 814 613 785 Q 459 743 296 731 Q 256 727 284 707 Q 329 680 389 691 Q 392 692 397 691 L 435 698 Z" fill="lightgray" class="stroke step1"/>
    <path d="M 374 578 Q 468 660 470 671 L 470 672 Q 469 685 445 694 Q 441 697 435 698 C 407 709 405 710 397 691 Q 372 619 198 503 Q 176 491 202 492 Q 247 492 351 561 L 374 578 Z" fill="lightgray" class="stroke step1"/>
    <path d="M 521 460 Q 508 500 432 548 Q 396 572 374 578 C 346 589 324 575 351 561 Q 373 551 389 538 L 441 498 Q 460 480 476 457 L 505 398 Q 538 293 509 144 Q 497 86 480 78 Q 465 71 406 79 Q 355 88 356 80 Q 355 73 368 62 Q 441 19 474 -13 Q 487 -29 501 -24 Q 525 -17 545 20 Q 581 104 577 258 Q 574 327 550 398 L 521 460 Z" fill="lightgray" class="hide"/>
    <path d="M 389 538 Q 367 466 177 350 Q 158 340 181 340 Q 250 337 390 452 L 441 498 C 463 518 400 566 389 538 Z" fill="lightgray" class="hide"/>
    <path d="M 476 457 Q 475 456 472 451 Q 387 298 174 158 Q 159 149 145 139 Q 130 127 140 125 Q 149 119 162 124 Q 298 164 437 314 Q 444 323 453 332 Q 499 384 499 388 Q 502 392 505 398 C 520 424 492 483 476 457 Z" fill="lightgray" class="hide"/>
    <path d="M 569 422 Q 630 468 666 500 Q 733 564 767 582 Q 789 594 777 613 Q 761 629 732 644 Q 705 657 691 653 Q 678 652 683 636 Q 689 603 625 521 Q 591 479 555 434 C 536 411 545 404 569 422 Z" fill="lightgray" class="hide"/>
    <path d="M 555 434 Q 537 447 521 460 C 497 479 529 419 550 398 Q 647 301 762 201 Q 787 180 821 186 Q 939 204 976 215 Q 986 219 988 225 Q 987 231 970 237 Q 784 273 707 326 Q 641 369 569 422 L 555 434 Z" fill="lightgray" class="hide"/></g><g transform="scale(1, -1) translate(0, -900)">
    <style type="text/css">
        .origin {display:none;}
        .hide {display:none;}
        .stroke {fill: #000000;}
        
.step1 {transform: translateX(1024px);}
.step2 {transform: translateX(2048px);}
.step3 {transform: translateX(3072px);}
.step4 {transform: translateX(4096px);}
.step5 {transform: translateX(5120px);}
.step6 {transform: translateX(6144px);}
.step7 {transform: translateX(7168px);}
.step8 {transform: translateX(8192px);}
.step9 {transform: translateX(9216px);}
.step10 {transform: translateX(10240px);}
.step11 {transform: translateX(11264px);}
.step12 {transform: translateX(12288px);}
.step13 {transform: translateX(13312px);}
.step14 {transform: translateX(14336px);}
.step15 {transform: translateX(15360px);}
.step16 {transform: translateX(16384px);}
.step17 {transform: translateX(17408px);}
.step18 {transform: translateX(18432px);}
.step19 {transform: translateX(19456px);}
.step20 {transform: translateX(20480px);}
.step21 {transform: translateX(21504px);}
.step22 {transform: translateX(22528px);}
.step23 {transform: translateX(23552px);}
.step24 {transform: translateX(24576px);}
.step25 {transform: translateX(25600px);}
.step26 {transform: translateX(26624px);}
.step27 {transform: translateX(27648px);}
.step28 {transform: translateX(28672px);}
.step29 {transform: translateX(29696px);}
    </style>

    <path d="M 435 698 Q 558 720 686 742 Q 755 757 766 765 Q 776 774 771 783 Q 764 796 733 805 Q 697 814 613 785 Q 459 743 296 731 Q 256 727 284 707 Q 329 680 389 691 Q 392 692 397 691 L 435 698 Z" fill="lightgray" class="stroke step2"/>
    <path d="M 374 578 Q 468 660 470 671 L 470 672 Q 469 685 445 694 Q 441 697 435 698 C 407 709 405 710 397 691 Q 372 619 198 503 Q 176 491 202 492 Q 247 492 351 561 L 374 578 Z" fill="lightgray" class="stroke step2"/>
    <path d="M 521 460 Q 508 500 432 548 Q 396 572 374 578 C 346 589 324 575 351 561 Q 373 551 389 538 L 441 498 Q 460 480 476 457 L 505 398 Q 538 293 509 144 Q 497 86 480 78 Q 465 71 406 79 Q 355 88 356 80 Q 355 73 368 62 Q 441 19 474 -13 Q 487 -29 501 -24 Q 525 -17 545 20 Q 581 104 577 258 Q 574 327 550 398 L 521 460 Z" fill="lightgray" class="stroke step2"/>
    <path d="M 389 538 Q 367 466 177 350 Q 158 340 181 340 Q 250 337 390 452 L 441 498 C 463 518 400 566 389 538 Z" fill="lightgray" class="hide"/>
    <path d="M 476 457 Q 475 456 472 451 Q 387 298 174 158 Q 159 149 145 139 Q 130 127 140 125 Q 149 119 162 124 Q 298 164 437 314 Q 444 323 453 332 Q 499 384 499 388 Q 502 392 505 398 C 520 424 492 483 476 457 Z" fill="lightgray" class="hide"/>
    <path d="M 569 422 Q 630 468 666 500 Q 733 564 767 582 Q 789 594 777 613 Q 761 629 732 644 Q 705 657 691 653 Q 678 652 683 636 Q 689 603 625 521 Q 591 479 555 434 C 536 411 545 404 569 422 Z" fill="lightgray" class="hide"/>
    <path d="M 555 434 Q 537 447 521 460 C 497 479 529 419 550 398 Q 647 301 762 201 Q 787 180 821 186 Q 939 204 976 215 Q 986 219 988 225 Q 987 231 970 237 Q 784 273 707 326 Q 641 369 569 422 L 555 434 Z" fill="lightgray" class="hide"/></g><g transform="scale(1, -1) translate(0, -900)">
    <style type="text/css">
        .origin {display:none;}
        .hide {display:none;}
        .stroke {fill: #000000;}
        
.step1 {transform: translateX(1024px);}
.step2 {transform: translateX(2048px);}
.step3 {transform: translateX(3072px);}
.step4 {transform: translateX(4096px);}
.step5 {transform: translateX(5120px);}
.step6 {transform: translateX(6144px);}
.step7 {transform: translateX(7168px);}
.step8 {transform: translateX(8192px);}
.step9 {transform: translateX(9216px);}
.step10 {transform: translateX(10240px);}
.step11 {transform: translateX(11264px);}
.step12 {transform: translateX(12288px);}
.step13 {transform: translateX(13312px);}
.step14 {transform: translateX(14336px);}
.step15 {transform: translateX(15360px);}
.step16 {transform: translateX(16384px);}
.step17 {transform: translateX(17408px);}
.step18 {transform: translateX(18432px);}
.step19 {transform: translateX(19456px);}
.step20 {transform: translateX(20480px);}
.step21 {transform: translateX(21504px);}
.step22 {transform: translateX(22528px);}
.step23 {transform: translateX(23552px);}
.step24 {transform: translateX(24576px);}
.step25 {transform: translateX(25600px);}
.step26 {transform: translateX(26624px);}
.step27 {transform: translateX(27648px);}
.step28 {transform: translateX(28672px);}
.step29 {transform: translateX(29696px);}
    </style>

    <path d="M 435 698 Q 558 720 686 742 Q 755 757 766 765 Q 776 774 771 783 Q 764 796 733 805 Q 697 814 613 785 Q 459 743 296 731 Q 256 727 284 707 Q 329 680 389 691 Q 392 692 397 691 L 435 698 Z" fill="lightgray" class="stroke step3"/>
    <path d="M 374 578 Q 468 660 470 671 L 470 672 Q 469 685 445 694 Q 441 697 435 698 C 407 709 405 710 397 691 Q 372 619 198 503 Q 176 491 202 492 Q 247 492 351 561 L 374 578 Z" fill="lightgray" class="stroke step3"/>
    <path d="M 521 460 Q 508 500 432 548 Q 396 572 374 578 C 346 589 324 575 351 561 Q 373 551 389 538 L 441 498 Q 460 480 476 457 L 505 398 Q 538 293 509 144 Q 497 86 480 78 Q 465 71 406 79 Q 355 88 356 80 Q 355 73 368 62 Q 441 19 474 -13 Q 487 -29 501 -24 Q 525 -17 545 20 Q 581 104 577 258 Q 574 327 550 398 L 521 460 Z" fill="lightgray" class="stroke step3"/>
    <path d="M 389 538 Q 367 466 177 350 Q 158 340 181 340 Q 250 337 390 452 L 441 498 C 463 518 400 566 389 538 Z" fill="lightgray" class="stroke step3"/>
    <path d="M 476 457 Q 475 456 472 451 Q 387 298 174 158 Q 159 149 145 139 Q 130 127 140 125 Q 149 119 162 124 Q 298 164 437 314 Q 444 323 453 332 Q 499 384 499 388 Q 502 392 505 398 C 520 424 492 483 476 457 Z" fill="lightgray" class="hide"/>
    <path d="M 569 422 Q 630 468 666 500 Q 733 564 767 582 Q 789 594 777 613 Q 761 629 732 644 Q 705 657 691 653 Q 678 652 683 636 Q 689 603 625 521 Q 591 479 555 434 C 536 411 545 404 569 422 Z" fill="lightgray" class="hide"/>
    <path d="M 555 434 Q 537 447 521 460 C 497 479 529 419 550 398 Q 647 301 762 201 Q 787 180 821 186 Q 939 204 976 215 Q 986 219 988 225 Q 987 231 970 237 Q 784 273 707 326 Q 641 369 569 422 L 555 434 Z" fill="lightgray" class="hide"/></g><g transform="scale(1, -1) translate(0, -900)">
    <style type="text/css">
        .origin {display:none;}
        .hide {display:none;}
        .stroke {fill: #000000;}
        
.step1 {transform: translateX(1024px);}
.step2 {transform: translateX(2048px);}
.step3 {transform: translateX(3072px);}
.step4 {transform: translateX(4096px);}
.step5 {transform: translateX(5120px);}
.step6 {transform: translateX(6144px);}
.step7 {transform: translateX(7168px);}
.step8 {transform: translateX(8192px);}
.step9 {transform: translateX(9216px);}
.step10 {transform: translateX(10240px);}
.step11 {transform: translateX(11264px);}
.step12 {transform: translateX(12288px);}
.step13 {transform: translateX(13312px);}
.step14 {transform: translateX(14336px);}
.step15 {transform: translateX(15360px);}
.step16 {transform: translateX(16384px);}
.step17 {transform: translateX(17408px);}
.step18 {transform: translateX(18432px);}
.step19 {transform: translateX(19456px);}
.step20 {transform: translateX(20480px);}
.step21 {transform: translateX(21504px);}
.step22 {transform: translateX(22528px);}
.step23 {transform: translateX(23552px);}
.step24 {transform: translateX(24576px);}
.step25 {transform: translateX(25600px);}
.step26 {transform: translateX(26624px);}
.step27 {transform: translateX(27648px);}
.step28 {transform: translateX(28672px);}
.step29 {transform: translateX(29696px);}
    </style>

    <path d="M 435 698 Q 558 720 686 742 Q 755 757 766 765 Q 776 774 771 783 Q 764 796 733 805 Q 697 814 613 785 Q 459 743 296 731 Q 256 727 284 707 Q 329 680 389 691 Q 392 692 397 691 L 435 698 Z" fill="lightgray" class="stroke step4"/>
    <path d="M 374 578 Q 468 660 470 671 L 470 672 Q 469 685 445 694 Q 441 697 435 698 C 407 709 405 710 397 691 Q 372 619 198 503 Q 176 491 202 492 Q 247 492 351 561 L 374 578 Z" fill="lightgray" class="stroke step4"/>
    <path d="M 521 460 Q 508 500 432 548 Q 396 572 374 578 C 346 589 324 575 351 561 Q 373 551 389 538 L 441 498 Q 460 480 476 457 L 505 398 Q 538 293 509 144 Q 497 86 480 78 Q 465 71 406 79 Q 355 88 356 80 Q 355 73 368 62 Q 441 19 474 -13 Q 487 -29 501 -24 Q 525 -17 545 20 Q 581 104 577 258 Q 574 327 550 398 L 521 460 Z" fill="lightgray" class="stroke step4"/>
    <path d="M 389 538 Q 367 466 177 350 Q 158 340 181 340 Q 250 337 390 452 L 441 498 C 463 518 400 566 389 538 Z" fill="lightgray" class="stroke step4"/>
    <path d="M 476 457 Q 475 456 472 451 Q 387 298 174 158 Q 159 149 145 139 Q 130 127 140 125 Q 149 119 162 124 Q 298 164 437 314 Q 444 323 453 332 Q 499 384 499 388 Q 502 392 505 398 C 520 424 492 483 476 457 Z" fill="lightgray" class="stroke step4"/>
    <path d="M 569 422 Q 630 468 666 500 Q 733 564 767 582 Q 789 594 777 613 Q 761 629 732 644 Q 705 657 691 653 Q 678 652 683 636 Q 689 603 625 521 Q 591 479 555 434 C 536 411 545 404 569 422 Z" fill="lightgray" class="hide"/>
    <path d="M 555 434 Q 537 447 521 460 C 497 479 529 419 550 398 Q 647 301 762 201 Q 787 180 821 186 Q 939 204 976 215 Q 986 219 988 225 Q 987 231 970 237 Q 784 273 707 326 Q 641 369 569 422 L 555 434 Z" fill="lightgray" class="hide"/></g><g transform="scale(1, -1) translate(0, -900)">
    <style type="text/css">
        .origin {display:none;}
        .hide {display:none;}
        .stroke {fill: #000000;}
        
.step1 {transform: translateX(1024px);}
.step2 {transform: translateX(2048px);}
.step3 {transform: translateX(3072px);}
.step4 {transform: translateX(4096px);}
.step5 {transform: translateX(5120px);}
.step6 {transform: translateX(6144px);}
.step7 {transform: translateX(7168px);}
.step8 {transform: translateX(8192px);}
.step9 {transform: translateX(9216px);}
.step10 {transform: translateX(10240px);}
.step11 {transform: translateX(11264px);}
.step12 {transform: translateX(12288px);}
.step13 {transform: translateX(13312px);}
.step14 {transform: translateX(14336px);}
.step15 {transform: translateX(15360px);}
.step16 {transform: translateX(16384px);}
.step17 {transform: translateX(17408px);}
.step18 {transform: translateX(18432px);}
.step19 {transform: translateX(19456px);}
.step20 {transform: translateX(20480px);}
.step21 {transform: translateX(21504px);}
.step22 {transform: translateX(22528px);}
.step23 {transform: translateX(23552px);}
.step24 {transform: translateX(24576px);}
.step25 {transform: translateX(25600px);}
.step26 {transform: translateX(26624px);}
.step27 {transform: translateX(27648px);}
.step28 {transform: translateX(28672px);}
.step29 {transform: translateX(29696px);}
    </style>

    <path d="M 435 698 Q 558 720 686 742 Q 755 757 766 765 Q 776 774 771 783 Q 764 796 733 805 Q 697 814 613 785 Q 459 743 296 731 Q 256 727 284 707 Q 329 680 389 691 Q 392 692 397 691 L 435 698 Z" fill="lightgray" class="stroke step5"/>
    <path d="M 374 578 Q 468 660 470 671 L 470 672 Q 469 685 445 694 Q 441 697 435 698 C 407 709 405 710 397 691 Q 372 619 198 503 Q 176 491 202 492 Q 247 492 351 561 L 374 578 Z" fill="lightgray" class="stroke step5"/>
    <path d="M 521 460 Q 508 500 432 548 Q 396 572 374 578 C 346 589 324 575 351 561 Q 373 551 389 538 L 441 498 Q 460 480 476 457 L 505 398 Q 538 293 509 144 Q 497 86 480 78 Q 465 71 406 79 Q 355 88 356 80 Q 355 73 368 62 Q 441 19 474 -13 Q 487 -29 501 -24 Q 525 -17 545 20 Q 581 104 577 258 Q 574 327 550 398 L 521 460 Z" fill="lightgray" class="stroke step5"/>
    <path d="M 389 538 Q 367 466 177 350 Q 158 340 181 340 Q 250 337 390 452 L 441 498 C 463 518 400 566 389 538 Z" fill="lightgray" class="stroke step5"/>
    <path d="M 476 457 Q 475 456 472 451 Q 387 298 174 158 Q 159 149 145 139 Q 130 127 140 125 Q 149 119 162 124 Q 298 164 437 314 Q 444 323 453 332 Q 499 384 499 388 Q 502 392 505 398 C 520 424 492 483 476 457 Z" fill="lightgray" class="stroke step5"/>
    <path d="M 569 422 Q 630 468 666 500 Q 733 564 767 582 Q 789 594 777 613 Q 761 629 732 644 Q 705 657 691 653 Q 678 652 683 636 Q 689 603 625 521 Q 591 479 555 434 C 536 411 545 404 569 422 Z" fill="lightgray" class="stroke step5"/>
    <path d="M 555 434 Q 537 447 521 460 C 497 479 529 419 550 398 Q 647 301 762 201 Q 787 180 821 186 Q 939 204 976 215 Q 986 219 988 225 Q 987 231 970 237 Q 784 273 707 326 Q 641 369 569 422 L 555 434 Z" fill="lightgray" class="hide"/></g><g transform="scale(1, -1) translate(0, -900)">
    <style type="text/css">
        .origin {display:none;}
        .hide {display:none;}
        .stroke {fill: #000000;}
        
.step1 {transform: translateX(1024px);}
.step2 {transform: translateX(2048px);}
.step3 {transform: translateX(3072px);}
.step4 {transform: translateX(4096px);}
.step5 {transform: translateX(5120px);}
.step6 {transform: translateX(6144px);}
.step7 {transform: translateX(7168px);}
.step8 {transform: translateX(8192px);}
.step9 {transform: translateX(9216px);}
.step10 {transform: translateX(10240px);}
.step11 {transform: translateX(11264px);}
.step12 {transform: translateX(12288px);}
.step13 {transform: translateX(13312px);}
.step14 {transform: translateX(14336px);}
.step15 {transform: translateX(15360px);}
.step16 {transform: translateX(16384px);}
.step17 {transform: translateX(17408px);}
.step18 {transform: translateX(18432px);}
.step19 {transform: translateX(19456px);}
.step20 {transform: translateX(20480px);}
.step21 {transform: translateX(21504px);}
.step22 {transform: translateX(22528px);}
.step23 {transform: translateX(23552px);}
.step24 {transform: translateX(24576px);}
.step25 {transform: translateX(25600px);}
.step26 {transform: translateX(26624px);}
.step27 {transform: translateX(27648px);}
.step28 {transform: translateX(28672px);}
.step29 {transform: translateX(29696px);}
    </style>

    <path d="M 435 698 Q 558 720 686 742 Q 755 757 766 765 Q 776 774 771 783 Q 764 796 733 805 Q 697 814 613 785 Q 459 743 296 731 Q 256 727 284 707 Q 329 680 389 691 Q 392 692 397 691 L 435 698 Z" fill="lightgray" class="stroke step6"/>
    <path d="M 374 578 Q 468 660 470 671 L 470 672 Q 469 685 445 694 Q 441 697 435 698 C 407 709 405 710 397 691 Q 372 619 198 503 Q 176 491 202 492 Q 247 492 351 561 L 374 578 Z" fill="lightgray" class="stroke step6"/>
    <path d="M 521 460 Q 508 500 432 548 Q 396 572 374 578 C 346 589 324 575 351 561 Q 373 551 389 538 L 441 498 Q 460 480 476 457 L 505 398 Q 538 293 509 144 Q 497 86 480 78 Q 465 71 406 79 Q 355 88 356 80 Q 355 73 368 62 Q 441 19 474 -13 Q 487 -29 501 -24 Q 525 -17 545 20 Q 581 104 577 258 Q 574 327 550 398 L 521 460 Z" fill="lightgray" class="stroke step6"/>
    <path d="M 389 538 Q 367 466 177 350 Q 158 340 181 340 Q 250 337 390 452 L 441 498 C 463 518 400 566 389 538 Z" fill="lightgray" class="stroke step6"/>
    <path d="M 476 457 Q 475 456 472 451 Q 387 298 174 158 Q 159 149 145 139 Q 130 127 140 125 Q 149 119 162 124 Q 298 164 437 314 Q 444 323 453 332 Q 499 384 499 388 Q 502 392 505 398 C 520 424 492 483 476 457 Z" fill="lightgray" class="stroke step6"/>
    <path d="M 569 422 Q 630 468 666 500 Q 733 564 767 582 Q 789 594 777 613 Q 761 629 732 644 Q 705 657 691 653 Q 678 652 683 636 Q 689 603 625 521 Q 591 479 555 434 C 536 411 545 404 569 422 Z" fill="lightgray" class="stroke step6"/>
    <path d="M 555 434 Q 537 447 521 460 C 497 479 529 419 550 398 Q 647 301 762 201 Q 787 180 821 186 Q 939 204 976 215 Q 986 219 988 225 Q 987 231 970 237 Q 784 273 707 326 Q 641 369 569 422 L 555 434 Z" fill="lightgray" class="stroke step6"/></g></svg>