<svg version="1.1" viewBox="0 0 10240 1024" xmlns="http://www.w3.org/2000/svg">
  
  <g transform="scale(1, -1) translate(0, -900)" class="origin">
    <style type="text/css">
        .origin {display:none;}
        .hide {display:none;}
        .stroke {fill: #000000;}
        
.step1 {transform: translateX(1024px);}
.step2 {transform: translateX(2048px);}
.step3 {transform: translateX(3072px);}
.step4 {transform: translateX(4096px);}
.step5 {transform: translateX(5120px);}
.step6 {transform: translateX(6144px);}
.step7 {transform: translateX(7168px);}
.step8 {transform: translateX(8192px);}
.step9 {transform: translateX(9216px);}
.step10 {transform: translateX(10240px);}
.step11 {transform: translateX(11264px);}
.step12 {transform: translateX(12288px);}
.step13 {transform: translateX(13312px);}
.step14 {transform: translateX(14336px);}
.step15 {transform: translateX(15360px);}
.step16 {transform: translateX(16384px);}
.step17 {transform: translateX(17408px);}
.step18 {transform: translateX(18432px);}
.step19 {transform: translateX(19456px);}
.step20 {transform: translateX(20480px);}
.step21 {transform: translateX(21504px);}
.step22 {transform: translateX(22528px);}
.step23 {transform: translateX(23552px);}
.step24 {transform: translateX(24576px);}
.step25 {transform: translateX(25600px);}
.step26 {transform: translateX(26624px);}
.step27 {transform: translateX(27648px);}
.step28 {transform: translateX(28672px);}
.step29 {transform: translateX(29696px);}
    </style>

    <path d="M 303 764 Q 249 712 101 640 Q 95 631 102 628 Q 139 628 292 691 Q 370 727 410 736 Q 428 737 432 746 Q 435 756 422 768 Q 400 784 354 800 Q 338 807 324 806 Q 317 802 317 790 Q 317 775 303 764 Z" fill="lightgray"/>
    <path d="M 148 560 Q 193 503 207 500 Q 216 499 221 509 Q 227 521 223 545 Q 222 561 199 576 Q 147 607 132 603 Q 128 600 127 589 Q 128 580 148 560 Z" fill="lightgray"/>
    <path d="M 250 639 Q 283 575 303 569 Q 313 565 323 580 Q 327 590 322 610 Q 318 625 299 636 Q 271 655 259 661 Q 252 664 249 654 Q 246 648 250 639 Z" fill="lightgray"/>
    <path d="M 286 475 Q 331 506 383 547 Q 419 578 445 591 Q 455 597 455 609 Q 456 621 440 647 Q 424 669 408 674 Q 393 678 393 658 Q 394 628 377 610 Q 320 547 249 495 Q 182 446 94 395 Q 84 389 79 385 Q 73 378 85 375 Q 128 372 261 459 L 286 475 Z" fill="lightgray"/>
    <path d="M 380 281 Q 392 245 369 143 Q 359 100 347 95 Q 338 89 278 99 Q 236 108 236 100 Q 235 93 247 82 Q 310 36 336 5 Q 349 -13 364 -8 Q 383 -1 402 29 Q 421 69 430 138 Q 440 232 427 288 Q 400 426 286 475 C 259 488 235 475 261 459 Q 262 458 267 455 Q 285 445 301 432 L 344 387 Q 356 372 368 341 L 380 281 Z" fill="lightgray"/>
    <path d="M 301 432 Q 300 431 300 428 Q 279 365 113 253 Q 95 243 117 244 Q 186 244 308 354 Q 330 375 344 387 C 367 407 310 461 301 432 Z" fill="lightgray"/>
    <path d="M 368 341 Q 325 284 272 238 Q 217 189 96 107 Q 87 98 98 94 Q 116 85 240 160 Q 301 197 367 265 Q 374 272 380 281 C 398 305 386 365 368 341 Z" fill="lightgray"/>
    <path d="M 663 673 Q 718 686 778 699 Q 818 709 823 715 Q 833 724 827 732 Q 820 744 790 751 Q 760 755 667 723 Q 595 705 517 694 Q 480 687 507 670 Q 552 646 608 662 L 663 673 Z" fill="lightgray"/>
    <path d="M 690 467 Q 765 479 876 485 Q 930 485 938 496 Q 942 509 925 521 Q 865 560 818 542 Q 766 529 690 511 L 638 499 Q 542 481 431 459 Q 410 455 427 439 Q 442 426 460 422 Q 482 418 497 424 Q 561 446 638 458 L 690 467 Z" fill="lightgray"/>
    <path d="M 638 458 Q 638 -7 647 -26 Q 650 -35 654 -41 Q 660 -48 667 -46 Q 685 -34 688 24 Q 695 109 693 192 Q 689 253 690 467 L 690 511 Q 690 578 702 630 Q 705 648 690 658 Q 675 668 663 673 C 636 687 595 689 608 662 Q 609 661 611 658 Q 633 604 636 596 Q 636 557 638 499 L 638 458 Z" fill="lightgray"/></g>
<g transform="scale(1, -1) translate(0, -900)">
    <style type="text/css">
        .origin {display:none;}
        .hide {display:none;}
        .stroke {fill: #000000;}
        
.step1 {transform: translateX(1024px);}
.step2 {transform: translateX(2048px);}
.step3 {transform: translateX(3072px);}
.step4 {transform: translateX(4096px);}
.step5 {transform: translateX(5120px);}
.step6 {transform: translateX(6144px);}
.step7 {transform: translateX(7168px);}
.step8 {transform: translateX(8192px);}
.step9 {transform: translateX(9216px);}
.step10 {transform: translateX(10240px);}
.step11 {transform: translateX(11264px);}
.step12 {transform: translateX(12288px);}
.step13 {transform: translateX(13312px);}
.step14 {transform: translateX(14336px);}
.step15 {transform: translateX(15360px);}
.step16 {transform: translateX(16384px);}
.step17 {transform: translateX(17408px);}
.step18 {transform: translateX(18432px);}
.step19 {transform: translateX(19456px);}
.step20 {transform: translateX(20480px);}
.step21 {transform: translateX(21504px);}
.step22 {transform: translateX(22528px);}
.step23 {transform: translateX(23552px);}
.step24 {transform: translateX(24576px);}
.step25 {transform: translateX(25600px);}
.step26 {transform: translateX(26624px);}
.step27 {transform: translateX(27648px);}
.step28 {transform: translateX(28672px);}
.step29 {transform: translateX(29696px);}
    </style>

    <path d="M 303 764 Q 249 712 101 640 Q 95 631 102 628 Q 139 628 292 691 Q 370 727 410 736 Q 428 737 432 746 Q 435 756 422 768 Q 400 784 354 800 Q 338 807 324 806 Q 317 802 317 790 Q 317 775 303 764 Z" fill="lightgray" class="stroke step0"/>
    <path d="M 148 560 Q 193 503 207 500 Q 216 499 221 509 Q 227 521 223 545 Q 222 561 199 576 Q 147 607 132 603 Q 128 600 127 589 Q 128 580 148 560 Z" fill="lightgray" class="hide"/>
    <path d="M 250 639 Q 283 575 303 569 Q 313 565 323 580 Q 327 590 322 610 Q 318 625 299 636 Q 271 655 259 661 Q 252 664 249 654 Q 246 648 250 639 Z" fill="lightgray" class="hide"/>
    <path d="M 286 475 Q 331 506 383 547 Q 419 578 445 591 Q 455 597 455 609 Q 456 621 440 647 Q 424 669 408 674 Q 393 678 393 658 Q 394 628 377 610 Q 320 547 249 495 Q 182 446 94 395 Q 84 389 79 385 Q 73 378 85 375 Q 128 372 261 459 L 286 475 Z" fill="lightgray" class="hide"/>
    <path d="M 380 281 Q 392 245 369 143 Q 359 100 347 95 Q 338 89 278 99 Q 236 108 236 100 Q 235 93 247 82 Q 310 36 336 5 Q 349 -13 364 -8 Q 383 -1 402 29 Q 421 69 430 138 Q 440 232 427 288 Q 400 426 286 475 C 259 488 235 475 261 459 Q 262 458 267 455 Q 285 445 301 432 L 344 387 Q 356 372 368 341 L 380 281 Z" fill="lightgray" class="hide"/>
    <path d="M 301 432 Q 300 431 300 428 Q 279 365 113 253 Q 95 243 117 244 Q 186 244 308 354 Q 330 375 344 387 C 367 407 310 461 301 432 Z" fill="lightgray" class="hide"/>
    <path d="M 368 341 Q 325 284 272 238 Q 217 189 96 107 Q 87 98 98 94 Q 116 85 240 160 Q 301 197 367 265 Q 374 272 380 281 C 398 305 386 365 368 341 Z" fill="lightgray" class="hide"/>
    <path d="M 663 673 Q 718 686 778 699 Q 818 709 823 715 Q 833 724 827 732 Q 820 744 790 751 Q 760 755 667 723 Q 595 705 517 694 Q 480 687 507 670 Q 552 646 608 662 L 663 673 Z" fill="lightgray" class="hide"/>
    <path d="M 690 467 Q 765 479 876 485 Q 930 485 938 496 Q 942 509 925 521 Q 865 560 818 542 Q 766 529 690 511 L 638 499 Q 542 481 431 459 Q 410 455 427 439 Q 442 426 460 422 Q 482 418 497 424 Q 561 446 638 458 L 690 467 Z" fill="lightgray" class="hide"/>
    <path d="M 638 458 Q 638 -7 647 -26 Q 650 -35 654 -41 Q 660 -48 667 -46 Q 685 -34 688 24 Q 695 109 693 192 Q 689 253 690 467 L 690 511 Q 690 578 702 630 Q 705 648 690 658 Q 675 668 663 673 C 636 687 595 689 608 662 Q 609 661 611 658 Q 633 604 636 596 Q 636 557 638 499 L 638 458 Z" fill="lightgray" class="hide"/></g><g transform="scale(1, -1) translate(0, -900)">
    <style type="text/css">
        .origin {display:none;}
        .hide {display:none;}
        .stroke {fill: #000000;}
        
.step1 {transform: translateX(1024px);}
.step2 {transform: translateX(2048px);}
.step3 {transform: translateX(3072px);}
.step4 {transform: translateX(4096px);}
.step5 {transform: translateX(5120px);}
.step6 {transform: translateX(6144px);}
.step7 {transform: translateX(7168px);}
.step8 {transform: translateX(8192px);}
.step9 {transform: translateX(9216px);}
.step10 {transform: translateX(10240px);}
.step11 {transform: translateX(11264px);}
.step12 {transform: translateX(12288px);}
.step13 {transform: translateX(13312px);}
.step14 {transform: translateX(14336px);}
.step15 {transform: translateX(15360px);}
.step16 {transform: translateX(16384px);}
.step17 {transform: translateX(17408px);}
.step18 {transform: translateX(18432px);}
.step19 {transform: translateX(19456px);}
.step20 {transform: translateX(20480px);}
.step21 {transform: translateX(21504px);}
.step22 {transform: translateX(22528px);}
.step23 {transform: translateX(23552px);}
.step24 {transform: translateX(24576px);}
.step25 {transform: translateX(25600px);}
.step26 {transform: translateX(26624px);}
.step27 {transform: translateX(27648px);}
.step28 {transform: translateX(28672px);}
.step29 {transform: translateX(29696px);}
    </style>

    <path d="M 303 764 Q 249 712 101 640 Q 95 631 102 628 Q 139 628 292 691 Q 370 727 410 736 Q 428 737 432 746 Q 435 756 422 768 Q 400 784 354 800 Q 338 807 324 806 Q 317 802 317 790 Q 317 775 303 764 Z" fill="lightgray" class="stroke step1"/>
    <path d="M 148 560 Q 193 503 207 500 Q 216 499 221 509 Q 227 521 223 545 Q 222 561 199 576 Q 147 607 132 603 Q 128 600 127 589 Q 128 580 148 560 Z" fill="lightgray" class="stroke step1"/>
    <path d="M 250 639 Q 283 575 303 569 Q 313 565 323 580 Q 327 590 322 610 Q 318 625 299 636 Q 271 655 259 661 Q 252 664 249 654 Q 246 648 250 639 Z" fill="lightgray" class="hide"/>
    <path d="M 286 475 Q 331 506 383 547 Q 419 578 445 591 Q 455 597 455 609 Q 456 621 440 647 Q 424 669 408 674 Q 393 678 393 658 Q 394 628 377 610 Q 320 547 249 495 Q 182 446 94 395 Q 84 389 79 385 Q 73 378 85 375 Q 128 372 261 459 L 286 475 Z" fill="lightgray" class="hide"/>
    <path d="M 380 281 Q 392 245 369 143 Q 359 100 347 95 Q 338 89 278 99 Q 236 108 236 100 Q 235 93 247 82 Q 310 36 336 5 Q 349 -13 364 -8 Q 383 -1 402 29 Q 421 69 430 138 Q 440 232 427 288 Q 400 426 286 475 C 259 488 235 475 261 459 Q 262 458 267 455 Q 285 445 301 432 L 344 387 Q 356 372 368 341 L 380 281 Z" fill="lightgray" class="hide"/>
    <path d="M 301 432 Q 300 431 300 428 Q 279 365 113 253 Q 95 243 117 244 Q 186 244 308 354 Q 330 375 344 387 C 367 407 310 461 301 432 Z" fill="lightgray" class="hide"/>
    <path d="M 368 341 Q 325 284 272 238 Q 217 189 96 107 Q 87 98 98 94 Q 116 85 240 160 Q 301 197 367 265 Q 374 272 380 281 C 398 305 386 365 368 341 Z" fill="lightgray" class="hide"/>
    <path d="M 663 673 Q 718 686 778 699 Q 818 709 823 715 Q 833 724 827 732 Q 820 744 790 751 Q 760 755 667 723 Q 595 705 517 694 Q 480 687 507 670 Q 552 646 608 662 L 663 673 Z" fill="lightgray" class="hide"/>
    <path d="M 690 467 Q 765 479 876 485 Q 930 485 938 496 Q 942 509 925 521 Q 865 560 818 542 Q 766 529 690 511 L 638 499 Q 542 481 431 459 Q 410 455 427 439 Q 442 426 460 422 Q 482 418 497 424 Q 561 446 638 458 L 690 467 Z" fill="lightgray" class="hide"/>
    <path d="M 638 458 Q 638 -7 647 -26 Q 650 -35 654 -41 Q 660 -48 667 -46 Q 685 -34 688 24 Q 695 109 693 192 Q 689 253 690 467 L 690 511 Q 690 578 702 630 Q 705 648 690 658 Q 675 668 663 673 C 636 687 595 689 608 662 Q 609 661 611 658 Q 633 604 636 596 Q 636 557 638 499 L 638 458 Z" fill="lightgray" class="hide"/></g><g transform="scale(1, -1) translate(0, -900)">
    <style type="text/css">
        .origin {display:none;}
        .hide {display:none;}
        .stroke {fill: #000000;}
        
.step1 {transform: translateX(1024px);}
.step2 {transform: translateX(2048px);}
.step3 {transform: translateX(3072px);}
.step4 {transform: translateX(4096px);}
.step5 {transform: translateX(5120px);}
.step6 {transform: translateX(6144px);}
.step7 {transform: translateX(7168px);}
.step8 {transform: translateX(8192px);}
.step9 {transform: translateX(9216px);}
.step10 {transform: translateX(10240px);}
.step11 {transform: translateX(11264px);}
.step12 {transform: translateX(12288px);}
.step13 {transform: translateX(13312px);}
.step14 {transform: translateX(14336px);}
.step15 {transform: translateX(15360px);}
.step16 {transform: translateX(16384px);}
.step17 {transform: translateX(17408px);}
.step18 {transform: translateX(18432px);}
.step19 {transform: translateX(19456px);}
.step20 {transform: translateX(20480px);}
.step21 {transform: translateX(21504px);}
.step22 {transform: translateX(22528px);}
.step23 {transform: translateX(23552px);}
.step24 {transform: translateX(24576px);}
.step25 {transform: translateX(25600px);}
.step26 {transform: translateX(26624px);}
.step27 {transform: translateX(27648px);}
.step28 {transform: translateX(28672px);}
.step29 {transform: translateX(29696px);}
    </style>

    <path d="M 303 764 Q 249 712 101 640 Q 95 631 102 628 Q 139 628 292 691 Q 370 727 410 736 Q 428 737 432 746 Q 435 756 422 768 Q 400 784 354 800 Q 338 807 324 806 Q 317 802 317 790 Q 317 775 303 764 Z" fill="lightgray" class="stroke step2"/>
    <path d="M 148 560 Q 193 503 207 500 Q 216 499 221 509 Q 227 521 223 545 Q 222 561 199 576 Q 147 607 132 603 Q 128 600 127 589 Q 128 580 148 560 Z" fill="lightgray" class="stroke step2"/>
    <path d="M 250 639 Q 283 575 303 569 Q 313 565 323 580 Q 327 590 322 610 Q 318 625 299 636 Q 271 655 259 661 Q 252 664 249 654 Q 246 648 250 639 Z" fill="lightgray" class="stroke step2"/>
    <path d="M 286 475 Q 331 506 383 547 Q 419 578 445 591 Q 455 597 455 609 Q 456 621 440 647 Q 424 669 408 674 Q 393 678 393 658 Q 394 628 377 610 Q 320 547 249 495 Q 182 446 94 395 Q 84 389 79 385 Q 73 378 85 375 Q 128 372 261 459 L 286 475 Z" fill="lightgray" class="hide"/>
    <path d="M 380 281 Q 392 245 369 143 Q 359 100 347 95 Q 338 89 278 99 Q 236 108 236 100 Q 235 93 247 82 Q 310 36 336 5 Q 349 -13 364 -8 Q 383 -1 402 29 Q 421 69 430 138 Q 440 232 427 288 Q 400 426 286 475 C 259 488 235 475 261 459 Q 262 458 267 455 Q 285 445 301 432 L 344 387 Q 356 372 368 341 L 380 281 Z" fill="lightgray" class="hide"/>
    <path d="M 301 432 Q 300 431 300 428 Q 279 365 113 253 Q 95 243 117 244 Q 186 244 308 354 Q 330 375 344 387 C 367 407 310 461 301 432 Z" fill="lightgray" class="hide"/>
    <path d="M 368 341 Q 325 284 272 238 Q 217 189 96 107 Q 87 98 98 94 Q 116 85 240 160 Q 301 197 367 265 Q 374 272 380 281 C 398 305 386 365 368 341 Z" fill="lightgray" class="hide"/>
    <path d="M 663 673 Q 718 686 778 699 Q 818 709 823 715 Q 833 724 827 732 Q 820 744 790 751 Q 760 755 667 723 Q 595 705 517 694 Q 480 687 507 670 Q 552 646 608 662 L 663 673 Z" fill="lightgray" class="hide"/>
    <path d="M 690 467 Q 765 479 876 485 Q 930 485 938 496 Q 942 509 925 521 Q 865 560 818 542 Q 766 529 690 511 L 638 499 Q 542 481 431 459 Q 410 455 427 439 Q 442 426 460 422 Q 482 418 497 424 Q 561 446 638 458 L 690 467 Z" fill="lightgray" class="hide"/>
    <path d="M 638 458 Q 638 -7 647 -26 Q 650 -35 654 -41 Q 660 -48 667 -46 Q 685 -34 688 24 Q 695 109 693 192 Q 689 253 690 467 L 690 511 Q 690 578 702 630 Q 705 648 690 658 Q 675 668 663 673 C 636 687 595 689 608 662 Q 609 661 611 658 Q 633 604 636 596 Q 636 557 638 499 L 638 458 Z" fill="lightgray" class="hide"/></g><g transform="scale(1, -1) translate(0, -900)">
    <style type="text/css">
        .origin {display:none;}
        .hide {display:none;}
        .stroke {fill: #000000;}
        
.step1 {transform: translateX(1024px);}
.step2 {transform: translateX(2048px);}
.step3 {transform: translateX(3072px);}
.step4 {transform: translateX(4096px);}
.step5 {transform: translateX(5120px);}
.step6 {transform: translateX(6144px);}
.step7 {transform: translateX(7168px);}
.step8 {transform: translateX(8192px);}
.step9 {transform: translateX(9216px);}
.step10 {transform: translateX(10240px);}
.step11 {transform: translateX(11264px);}
.step12 {transform: translateX(12288px);}
.step13 {transform: translateX(13312px);}
.step14 {transform: translateX(14336px);}
.step15 {transform: translateX(15360px);}
.step16 {transform: translateX(16384px);}
.step17 {transform: translateX(17408px);}
.step18 {transform: translateX(18432px);}
.step19 {transform: translateX(19456px);}
.step20 {transform: translateX(20480px);}
.step21 {transform: translateX(21504px);}
.step22 {transform: translateX(22528px);}
.step23 {transform: translateX(23552px);}
.step24 {transform: translateX(24576px);}
.step25 {transform: translateX(25600px);}
.step26 {transform: translateX(26624px);}
.step27 {transform: translateX(27648px);}
.step28 {transform: translateX(28672px);}
.step29 {transform: translateX(29696px);}
    </style>

    <path d="M 303 764 Q 249 712 101 640 Q 95 631 102 628 Q 139 628 292 691 Q 370 727 410 736 Q 428 737 432 746 Q 435 756 422 768 Q 400 784 354 800 Q 338 807 324 806 Q 317 802 317 790 Q 317 775 303 764 Z" fill="lightgray" class="stroke step3"/>
    <path d="M 148 560 Q 193 503 207 500 Q 216 499 221 509 Q 227 521 223 545 Q 222 561 199 576 Q 147 607 132 603 Q 128 600 127 589 Q 128 580 148 560 Z" fill="lightgray" class="stroke step3"/>
    <path d="M 250 639 Q 283 575 303 569 Q 313 565 323 580 Q 327 590 322 610 Q 318 625 299 636 Q 271 655 259 661 Q 252 664 249 654 Q 246 648 250 639 Z" fill="lightgray" class="stroke step3"/>
    <path d="M 286 475 Q 331 506 383 547 Q 419 578 445 591 Q 455 597 455 609 Q 456 621 440 647 Q 424 669 408 674 Q 393 678 393 658 Q 394 628 377 610 Q 320 547 249 495 Q 182 446 94 395 Q 84 389 79 385 Q 73 378 85 375 Q 128 372 261 459 L 286 475 Z" fill="lightgray" class="stroke step3"/>
    <path d="M 380 281 Q 392 245 369 143 Q 359 100 347 95 Q 338 89 278 99 Q 236 108 236 100 Q 235 93 247 82 Q 310 36 336 5 Q 349 -13 364 -8 Q 383 -1 402 29 Q 421 69 430 138 Q 440 232 427 288 Q 400 426 286 475 C 259 488 235 475 261 459 Q 262 458 267 455 Q 285 445 301 432 L 344 387 Q 356 372 368 341 L 380 281 Z" fill="lightgray" class="hide"/>
    <path d="M 301 432 Q 300 431 300 428 Q 279 365 113 253 Q 95 243 117 244 Q 186 244 308 354 Q 330 375 344 387 C 367 407 310 461 301 432 Z" fill="lightgray" class="hide"/>
    <path d="M 368 341 Q 325 284 272 238 Q 217 189 96 107 Q 87 98 98 94 Q 116 85 240 160 Q 301 197 367 265 Q 374 272 380 281 C 398 305 386 365 368 341 Z" fill="lightgray" class="hide"/>
    <path d="M 663 673 Q 718 686 778 699 Q 818 709 823 715 Q 833 724 827 732 Q 820 744 790 751 Q 760 755 667 723 Q 595 705 517 694 Q 480 687 507 670 Q 552 646 608 662 L 663 673 Z" fill="lightgray" class="hide"/>
    <path d="M 690 467 Q 765 479 876 485 Q 930 485 938 496 Q 942 509 925 521 Q 865 560 818 542 Q 766 529 690 511 L 638 499 Q 542 481 431 459 Q 410 455 427 439 Q 442 426 460 422 Q 482 418 497 424 Q 561 446 638 458 L 690 467 Z" fill="lightgray" class="hide"/>
    <path d="M 638 458 Q 638 -7 647 -26 Q 650 -35 654 -41 Q 660 -48 667 -46 Q 685 -34 688 24 Q 695 109 693 192 Q 689 253 690 467 L 690 511 Q 690 578 702 630 Q 705 648 690 658 Q 675 668 663 673 C 636 687 595 689 608 662 Q 609 661 611 658 Q 633 604 636 596 Q 636 557 638 499 L 638 458 Z" fill="lightgray" class="hide"/></g><g transform="scale(1, -1) translate(0, -900)">
    <style type="text/css">
        .origin {display:none;}
        .hide {display:none;}
        .stroke {fill: #000000;}
        
.step1 {transform: translateX(1024px);}
.step2 {transform: translateX(2048px);}
.step3 {transform: translateX(3072px);}
.step4 {transform: translateX(4096px);}
.step5 {transform: translateX(5120px);}
.step6 {transform: translateX(6144px);}
.step7 {transform: translateX(7168px);}
.step8 {transform: translateX(8192px);}
.step9 {transform: translateX(9216px);}
.step10 {transform: translateX(10240px);}
.step11 {transform: translateX(11264px);}
.step12 {transform: translateX(12288px);}
.step13 {transform: translateX(13312px);}
.step14 {transform: translateX(14336px);}
.step15 {transform: translateX(15360px);}
.step16 {transform: translateX(16384px);}
.step17 {transform: translateX(17408px);}
.step18 {transform: translateX(18432px);}
.step19 {transform: translateX(19456px);}
.step20 {transform: translateX(20480px);}
.step21 {transform: translateX(21504px);}
.step22 {transform: translateX(22528px);}
.step23 {transform: translateX(23552px);}
.step24 {transform: translateX(24576px);}
.step25 {transform: translateX(25600px);}
.step26 {transform: translateX(26624px);}
.step27 {transform: translateX(27648px);}
.step28 {transform: translateX(28672px);}
.step29 {transform: translateX(29696px);}
    </style>

    <path d="M 303 764 Q 249 712 101 640 Q 95 631 102 628 Q 139 628 292 691 Q 370 727 410 736 Q 428 737 432 746 Q 435 756 422 768 Q 400 784 354 800 Q 338 807 324 806 Q 317 802 317 790 Q 317 775 303 764 Z" fill="lightgray" class="stroke step4"/>
    <path d="M 148 560 Q 193 503 207 500 Q 216 499 221 509 Q 227 521 223 545 Q 222 561 199 576 Q 147 607 132 603 Q 128 600 127 589 Q 128 580 148 560 Z" fill="lightgray" class="stroke step4"/>
    <path d="M 250 639 Q 283 575 303 569 Q 313 565 323 580 Q 327 590 322 610 Q 318 625 299 636 Q 271 655 259 661 Q 252 664 249 654 Q 246 648 250 639 Z" fill="lightgray" class="stroke step4"/>
    <path d="M 286 475 Q 331 506 383 547 Q 419 578 445 591 Q 455 597 455 609 Q 456 621 440 647 Q 424 669 408 674 Q 393 678 393 658 Q 394 628 377 610 Q 320 547 249 495 Q 182 446 94 395 Q 84 389 79 385 Q 73 378 85 375 Q 128 372 261 459 L 286 475 Z" fill="lightgray" class="stroke step4"/>
    <path d="M 380 281 Q 392 245 369 143 Q 359 100 347 95 Q 338 89 278 99 Q 236 108 236 100 Q 235 93 247 82 Q 310 36 336 5 Q 349 -13 364 -8 Q 383 -1 402 29 Q 421 69 430 138 Q 440 232 427 288 Q 400 426 286 475 C 259 488 235 475 261 459 Q 262 458 267 455 Q 285 445 301 432 L 344 387 Q 356 372 368 341 L 380 281 Z" fill="lightgray" class="stroke step4"/>
    <path d="M 301 432 Q 300 431 300 428 Q 279 365 113 253 Q 95 243 117 244 Q 186 244 308 354 Q 330 375 344 387 C 367 407 310 461 301 432 Z" fill="lightgray" class="hide"/>
    <path d="M 368 341 Q 325 284 272 238 Q 217 189 96 107 Q 87 98 98 94 Q 116 85 240 160 Q 301 197 367 265 Q 374 272 380 281 C 398 305 386 365 368 341 Z" fill="lightgray" class="hide"/>
    <path d="M 663 673 Q 718 686 778 699 Q 818 709 823 715 Q 833 724 827 732 Q 820 744 790 751 Q 760 755 667 723 Q 595 705 517 694 Q 480 687 507 670 Q 552 646 608 662 L 663 673 Z" fill="lightgray" class="hide"/>
    <path d="M 690 467 Q 765 479 876 485 Q 930 485 938 496 Q 942 509 925 521 Q 865 560 818 542 Q 766 529 690 511 L 638 499 Q 542 481 431 459 Q 410 455 427 439 Q 442 426 460 422 Q 482 418 497 424 Q 561 446 638 458 L 690 467 Z" fill="lightgray" class="hide"/>
    <path d="M 638 458 Q 638 -7 647 -26 Q 650 -35 654 -41 Q 660 -48 667 -46 Q 685 -34 688 24 Q 695 109 693 192 Q 689 253 690 467 L 690 511 Q 690 578 702 630 Q 705 648 690 658 Q 675 668 663 673 C 636 687 595 689 608 662 Q 609 661 611 658 Q 633 604 636 596 Q 636 557 638 499 L 638 458 Z" fill="lightgray" class="hide"/></g><g transform="scale(1, -1) translate(0, -900)">
    <style type="text/css">
        .origin {display:none;}
        .hide {display:none;}
        .stroke {fill: #000000;}
        
.step1 {transform: translateX(1024px);}
.step2 {transform: translateX(2048px);}
.step3 {transform: translateX(3072px);}
.step4 {transform: translateX(4096px);}
.step5 {transform: translateX(5120px);}
.step6 {transform: translateX(6144px);}
.step7 {transform: translateX(7168px);}
.step8 {transform: translateX(8192px);}
.step9 {transform: translateX(9216px);}
.step10 {transform: translateX(10240px);}
.step11 {transform: translateX(11264px);}
.step12 {transform: translateX(12288px);}
.step13 {transform: translateX(13312px);}
.step14 {transform: translateX(14336px);}
.step15 {transform: translateX(15360px);}
.step16 {transform: translateX(16384px);}
.step17 {transform: translateX(17408px);}
.step18 {transform: translateX(18432px);}
.step19 {transform: translateX(19456px);}
.step20 {transform: translateX(20480px);}
.step21 {transform: translateX(21504px);}
.step22 {transform: translateX(22528px);}
.step23 {transform: translateX(23552px);}
.step24 {transform: translateX(24576px);}
.step25 {transform: translateX(25600px);}
.step26 {transform: translateX(26624px);}
.step27 {transform: translateX(27648px);}
.step28 {transform: translateX(28672px);}
.step29 {transform: translateX(29696px);}
    </style>

    <path d="M 303 764 Q 249 712 101 640 Q 95 631 102 628 Q 139 628 292 691 Q 370 727 410 736 Q 428 737 432 746 Q 435 756 422 768 Q 400 784 354 800 Q 338 807 324 806 Q 317 802 317 790 Q 317 775 303 764 Z" fill="lightgray" class="stroke step5"/>
    <path d="M 148 560 Q 193 503 207 500 Q 216 499 221 509 Q 227 521 223 545 Q 222 561 199 576 Q 147 607 132 603 Q 128 600 127 589 Q 128 580 148 560 Z" fill="lightgray" class="stroke step5"/>
    <path d="M 250 639 Q 283 575 303 569 Q 313 565 323 580 Q 327 590 322 610 Q 318 625 299 636 Q 271 655 259 661 Q 252 664 249 654 Q 246 648 250 639 Z" fill="lightgray" class="stroke step5"/>
    <path d="M 286 475 Q 331 506 383 547 Q 419 578 445 591 Q 455 597 455 609 Q 456 621 440 647 Q 424 669 408 674 Q 393 678 393 658 Q 394 628 377 610 Q 320 547 249 495 Q 182 446 94 395 Q 84 389 79 385 Q 73 378 85 375 Q 128 372 261 459 L 286 475 Z" fill="lightgray" class="stroke step5"/>
    <path d="M 380 281 Q 392 245 369 143 Q 359 100 347 95 Q 338 89 278 99 Q 236 108 236 100 Q 235 93 247 82 Q 310 36 336 5 Q 349 -13 364 -8 Q 383 -1 402 29 Q 421 69 430 138 Q 440 232 427 288 Q 400 426 286 475 C 259 488 235 475 261 459 Q 262 458 267 455 Q 285 445 301 432 L 344 387 Q 356 372 368 341 L 380 281 Z" fill="lightgray" class="stroke step5"/>
    <path d="M 301 432 Q 300 431 300 428 Q 279 365 113 253 Q 95 243 117 244 Q 186 244 308 354 Q 330 375 344 387 C 367 407 310 461 301 432 Z" fill="lightgray" class="stroke step5"/>
    <path d="M 368 341 Q 325 284 272 238 Q 217 189 96 107 Q 87 98 98 94 Q 116 85 240 160 Q 301 197 367 265 Q 374 272 380 281 C 398 305 386 365 368 341 Z" fill="lightgray" class="hide"/>
    <path d="M 663 673 Q 718 686 778 699 Q 818 709 823 715 Q 833 724 827 732 Q 820 744 790 751 Q 760 755 667 723 Q 595 705 517 694 Q 480 687 507 670 Q 552 646 608 662 L 663 673 Z" fill="lightgray" class="hide"/>
    <path d="M 690 467 Q 765 479 876 485 Q 930 485 938 496 Q 942 509 925 521 Q 865 560 818 542 Q 766 529 690 511 L 638 499 Q 542 481 431 459 Q 410 455 427 439 Q 442 426 460 422 Q 482 418 497 424 Q 561 446 638 458 L 690 467 Z" fill="lightgray" class="hide"/>
    <path d="M 638 458 Q 638 -7 647 -26 Q 650 -35 654 -41 Q 660 -48 667 -46 Q 685 -34 688 24 Q 695 109 693 192 Q 689 253 690 467 L 690 511 Q 690 578 702 630 Q 705 648 690 658 Q 675 668 663 673 C 636 687 595 689 608 662 Q 609 661 611 658 Q 633 604 636 596 Q 636 557 638 499 L 638 458 Z" fill="lightgray" class="hide"/></g><g transform="scale(1, -1) translate(0, -900)">
    <style type="text/css">
        .origin {display:none;}
        .hide {display:none;}
        .stroke {fill: #000000;}
        
.step1 {transform: translateX(1024px);}
.step2 {transform: translateX(2048px);}
.step3 {transform: translateX(3072px);}
.step4 {transform: translateX(4096px);}
.step5 {transform: translateX(5120px);}
.step6 {transform: translateX(6144px);}
.step7 {transform: translateX(7168px);}
.step8 {transform: translateX(8192px);}
.step9 {transform: translateX(9216px);}
.step10 {transform: translateX(10240px);}
.step11 {transform: translateX(11264px);}
.step12 {transform: translateX(12288px);}
.step13 {transform: translateX(13312px);}
.step14 {transform: translateX(14336px);}
.step15 {transform: translateX(15360px);}
.step16 {transform: translateX(16384px);}
.step17 {transform: translateX(17408px);}
.step18 {transform: translateX(18432px);}
.step19 {transform: translateX(19456px);}
.step20 {transform: translateX(20480px);}
.step21 {transform: translateX(21504px);}
.step22 {transform: translateX(22528px);}
.step23 {transform: translateX(23552px);}
.step24 {transform: translateX(24576px);}
.step25 {transform: translateX(25600px);}
.step26 {transform: translateX(26624px);}
.step27 {transform: translateX(27648px);}
.step28 {transform: translateX(28672px);}
.step29 {transform: translateX(29696px);}
    </style>

    <path d="M 303 764 Q 249 712 101 640 Q 95 631 102 628 Q 139 628 292 691 Q 370 727 410 736 Q 428 737 432 746 Q 435 756 422 768 Q 400 784 354 800 Q 338 807 324 806 Q 317 802 317 790 Q 317 775 303 764 Z" fill="lightgray" class="stroke step6"/>
    <path d="M 148 560 Q 193 503 207 500 Q 216 499 221 509 Q 227 521 223 545 Q 222 561 199 576 Q 147 607 132 603 Q 128 600 127 589 Q 128 580 148 560 Z" fill="lightgray" class="stroke step6"/>
    <path d="M 250 639 Q 283 575 303 569 Q 313 565 323 580 Q 327 590 322 610 Q 318 625 299 636 Q 271 655 259 661 Q 252 664 249 654 Q 246 648 250 639 Z" fill="lightgray" class="stroke step6"/>
    <path d="M 286 475 Q 331 506 383 547 Q 419 578 445 591 Q 455 597 455 609 Q 456 621 440 647 Q 424 669 408 674 Q 393 678 393 658 Q 394 628 377 610 Q 320 547 249 495 Q 182 446 94 395 Q 84 389 79 385 Q 73 378 85 375 Q 128 372 261 459 L 286 475 Z" fill="lightgray" class="stroke step6"/>
    <path d="M 380 281 Q 392 245 369 143 Q 359 100 347 95 Q 338 89 278 99 Q 236 108 236 100 Q 235 93 247 82 Q 310 36 336 5 Q 349 -13 364 -8 Q 383 -1 402 29 Q 421 69 430 138 Q 440 232 427 288 Q 400 426 286 475 C 259 488 235 475 261 459 Q 262 458 267 455 Q 285 445 301 432 L 344 387 Q 356 372 368 341 L 380 281 Z" fill="lightgray" class="stroke step6"/>
    <path d="M 301 432 Q 300 431 300 428 Q 279 365 113 253 Q 95 243 117 244 Q 186 244 308 354 Q 330 375 344 387 C 367 407 310 461 301 432 Z" fill="lightgray" class="stroke step6"/>
    <path d="M 368 341 Q 325 284 272 238 Q 217 189 96 107 Q 87 98 98 94 Q 116 85 240 160 Q 301 197 367 265 Q 374 272 380 281 C 398 305 386 365 368 341 Z" fill="lightgray" class="stroke step6"/>
    <path d="M 663 673 Q 718 686 778 699 Q 818 709 823 715 Q 833 724 827 732 Q 820 744 790 751 Q 760 755 667 723 Q 595 705 517 694 Q 480 687 507 670 Q 552 646 608 662 L 663 673 Z" fill="lightgray" class="hide"/>
    <path d="M 690 467 Q 765 479 876 485 Q 930 485 938 496 Q 942 509 925 521 Q 865 560 818 542 Q 766 529 690 511 L 638 499 Q 542 481 431 459 Q 410 455 427 439 Q 442 426 460 422 Q 482 418 497 424 Q 561 446 638 458 L 690 467 Z" fill="lightgray" class="hide"/>
    <path d="M 638 458 Q 638 -7 647 -26 Q 650 -35 654 -41 Q 660 -48 667 -46 Q 685 -34 688 24 Q 695 109 693 192 Q 689 253 690 467 L 690 511 Q 690 578 702 630 Q 705 648 690 658 Q 675 668 663 673 C 636 687 595 689 608 662 Q 609 661 611 658 Q 633 604 636 596 Q 636 557 638 499 L 638 458 Z" fill="lightgray" class="hide"/></g><g transform="scale(1, -1) translate(0, -900)">
    <style type="text/css">
        .origin {display:none;}
        .hide {display:none;}
        .stroke {fill: #000000;}
        
.step1 {transform: translateX(1024px);}
.step2 {transform: translateX(2048px);}
.step3 {transform: translateX(3072px);}
.step4 {transform: translateX(4096px);}
.step5 {transform: translateX(5120px);}
.step6 {transform: translateX(6144px);}
.step7 {transform: translateX(7168px);}
.step8 {transform: translateX(8192px);}
.step9 {transform: translateX(9216px);}
.step10 {transform: translateX(10240px);}
.step11 {transform: translateX(11264px);}
.step12 {transform: translateX(12288px);}
.step13 {transform: translateX(13312px);}
.step14 {transform: translateX(14336px);}
.step15 {transform: translateX(15360px);}
.step16 {transform: translateX(16384px);}
.step17 {transform: translateX(17408px);}
.step18 {transform: translateX(18432px);}
.step19 {transform: translateX(19456px);}
.step20 {transform: translateX(20480px);}
.step21 {transform: translateX(21504px);}
.step22 {transform: translateX(22528px);}
.step23 {transform: translateX(23552px);}
.step24 {transform: translateX(24576px);}
.step25 {transform: translateX(25600px);}
.step26 {transform: translateX(26624px);}
.step27 {transform: translateX(27648px);}
.step28 {transform: translateX(28672px);}
.step29 {transform: translateX(29696px);}
    </style>

    <path d="M 303 764 Q 249 712 101 640 Q 95 631 102 628 Q 139 628 292 691 Q 370 727 410 736 Q 428 737 432 746 Q 435 756 422 768 Q 400 784 354 800 Q 338 807 324 806 Q 317 802 317 790 Q 317 775 303 764 Z" fill="lightgray" class="stroke step7"/>
    <path d="M 148 560 Q 193 503 207 500 Q 216 499 221 509 Q 227 521 223 545 Q 222 561 199 576 Q 147 607 132 603 Q 128 600 127 589 Q 128 580 148 560 Z" fill="lightgray" class="stroke step7"/>
    <path d="M 250 639 Q 283 575 303 569 Q 313 565 323 580 Q 327 590 322 610 Q 318 625 299 636 Q 271 655 259 661 Q 252 664 249 654 Q 246 648 250 639 Z" fill="lightgray" class="stroke step7"/>
    <path d="M 286 475 Q 331 506 383 547 Q 419 578 445 591 Q 455 597 455 609 Q 456 621 440 647 Q 424 669 408 674 Q 393 678 393 658 Q 394 628 377 610 Q 320 547 249 495 Q 182 446 94 395 Q 84 389 79 385 Q 73 378 85 375 Q 128 372 261 459 L 286 475 Z" fill="lightgray" class="stroke step7"/>
    <path d="M 380 281 Q 392 245 369 143 Q 359 100 347 95 Q 338 89 278 99 Q 236 108 236 100 Q 235 93 247 82 Q 310 36 336 5 Q 349 -13 364 -8 Q 383 -1 402 29 Q 421 69 430 138 Q 440 232 427 288 Q 400 426 286 475 C 259 488 235 475 261 459 Q 262 458 267 455 Q 285 445 301 432 L 344 387 Q 356 372 368 341 L 380 281 Z" fill="lightgray" class="stroke step7"/>
    <path d="M 301 432 Q 300 431 300 428 Q 279 365 113 253 Q 95 243 117 244 Q 186 244 308 354 Q 330 375 344 387 C 367 407 310 461 301 432 Z" fill="lightgray" class="stroke step7"/>
    <path d="M 368 341 Q 325 284 272 238 Q 217 189 96 107 Q 87 98 98 94 Q 116 85 240 160 Q 301 197 367 265 Q 374 272 380 281 C 398 305 386 365 368 341 Z" fill="lightgray" class="stroke step7"/>
    <path d="M 663 673 Q 718 686 778 699 Q 818 709 823 715 Q 833 724 827 732 Q 820 744 790 751 Q 760 755 667 723 Q 595 705 517 694 Q 480 687 507 670 Q 552 646 608 662 L 663 673 Z" fill="lightgray" class="stroke step7"/>
    <path d="M 690 467 Q 765 479 876 485 Q 930 485 938 496 Q 942 509 925 521 Q 865 560 818 542 Q 766 529 690 511 L 638 499 Q 542 481 431 459 Q 410 455 427 439 Q 442 426 460 422 Q 482 418 497 424 Q 561 446 638 458 L 690 467 Z" fill="lightgray" class="hide"/>
    <path d="M 638 458 Q 638 -7 647 -26 Q 650 -35 654 -41 Q 660 -48 667 -46 Q 685 -34 688 24 Q 695 109 693 192 Q 689 253 690 467 L 690 511 Q 690 578 702 630 Q 705 648 690 658 Q 675 668 663 673 C 636 687 595 689 608 662 Q 609 661 611 658 Q 633 604 636 596 Q 636 557 638 499 L 638 458 Z" fill="lightgray" class="hide"/></g><g transform="scale(1, -1) translate(0, -900)">
    <style type="text/css">
        .origin {display:none;}
        .hide {display:none;}
        .stroke {fill: #000000;}
        
.step1 {transform: translateX(1024px);}
.step2 {transform: translateX(2048px);}
.step3 {transform: translateX(3072px);}
.step4 {transform: translateX(4096px);}
.step5 {transform: translateX(5120px);}
.step6 {transform: translateX(6144px);}
.step7 {transform: translateX(7168px);}
.step8 {transform: translateX(8192px);}
.step9 {transform: translateX(9216px);}
.step10 {transform: translateX(10240px);}
.step11 {transform: translateX(11264px);}
.step12 {transform: translateX(12288px);}
.step13 {transform: translateX(13312px);}
.step14 {transform: translateX(14336px);}
.step15 {transform: translateX(15360px);}
.step16 {transform: translateX(16384px);}
.step17 {transform: translateX(17408px);}
.step18 {transform: translateX(18432px);}
.step19 {transform: translateX(19456px);}
.step20 {transform: translateX(20480px);}
.step21 {transform: translateX(21504px);}
.step22 {transform: translateX(22528px);}
.step23 {transform: translateX(23552px);}
.step24 {transform: translateX(24576px);}
.step25 {transform: translateX(25600px);}
.step26 {transform: translateX(26624px);}
.step27 {transform: translateX(27648px);}
.step28 {transform: translateX(28672px);}
.step29 {transform: translateX(29696px);}
    </style>

    <path d="M 303 764 Q 249 712 101 640 Q 95 631 102 628 Q 139 628 292 691 Q 370 727 410 736 Q 428 737 432 746 Q 435 756 422 768 Q 400 784 354 800 Q 338 807 324 806 Q 317 802 317 790 Q 317 775 303 764 Z" fill="lightgray" class="stroke step8"/>
    <path d="M 148 560 Q 193 503 207 500 Q 216 499 221 509 Q 227 521 223 545 Q 222 561 199 576 Q 147 607 132 603 Q 128 600 127 589 Q 128 580 148 560 Z" fill="lightgray" class="stroke step8"/>
    <path d="M 250 639 Q 283 575 303 569 Q 313 565 323 580 Q 327 590 322 610 Q 318 625 299 636 Q 271 655 259 661 Q 252 664 249 654 Q 246 648 250 639 Z" fill="lightgray" class="stroke step8"/>
    <path d="M 286 475 Q 331 506 383 547 Q 419 578 445 591 Q 455 597 455 609 Q 456 621 440 647 Q 424 669 408 674 Q 393 678 393 658 Q 394 628 377 610 Q 320 547 249 495 Q 182 446 94 395 Q 84 389 79 385 Q 73 378 85 375 Q 128 372 261 459 L 286 475 Z" fill="lightgray" class="stroke step8"/>
    <path d="M 380 281 Q 392 245 369 143 Q 359 100 347 95 Q 338 89 278 99 Q 236 108 236 100 Q 235 93 247 82 Q 310 36 336 5 Q 349 -13 364 -8 Q 383 -1 402 29 Q 421 69 430 138 Q 440 232 427 288 Q 400 426 286 475 C 259 488 235 475 261 459 Q 262 458 267 455 Q 285 445 301 432 L 344 387 Q 356 372 368 341 L 380 281 Z" fill="lightgray" class="stroke step8"/>
    <path d="M 301 432 Q 300 431 300 428 Q 279 365 113 253 Q 95 243 117 244 Q 186 244 308 354 Q 330 375 344 387 C 367 407 310 461 301 432 Z" fill="lightgray" class="stroke step8"/>
    <path d="M 368 341 Q 325 284 272 238 Q 217 189 96 107 Q 87 98 98 94 Q 116 85 240 160 Q 301 197 367 265 Q 374 272 380 281 C 398 305 386 365 368 341 Z" fill="lightgray" class="stroke step8"/>
    <path d="M 663 673 Q 718 686 778 699 Q 818 709 823 715 Q 833 724 827 732 Q 820 744 790 751 Q 760 755 667 723 Q 595 705 517 694 Q 480 687 507 670 Q 552 646 608 662 L 663 673 Z" fill="lightgray" class="stroke step8"/>
    <path d="M 690 467 Q 765 479 876 485 Q 930 485 938 496 Q 942 509 925 521 Q 865 560 818 542 Q 766 529 690 511 L 638 499 Q 542 481 431 459 Q 410 455 427 439 Q 442 426 460 422 Q 482 418 497 424 Q 561 446 638 458 L 690 467 Z" fill="lightgray" class="stroke step8"/>
    <path d="M 638 458 Q 638 -7 647 -26 Q 650 -35 654 -41 Q 660 -48 667 -46 Q 685 -34 688 24 Q 695 109 693 192 Q 689 253 690 467 L 690 511 Q 690 578 702 630 Q 705 648 690 658 Q 675 668 663 673 C 636 687 595 689 608 662 Q 609 661 611 658 Q 633 604 636 596 Q 636 557 638 499 L 638 458 Z" fill="lightgray" class="hide"/></g><g transform="scale(1, -1) translate(0, -900)">
    <style type="text/css">
        .origin {display:none;}
        .hide {display:none;}
        .stroke {fill: #000000;}
        
.step1 {transform: translateX(1024px);}
.step2 {transform: translateX(2048px);}
.step3 {transform: translateX(3072px);}
.step4 {transform: translateX(4096px);}
.step5 {transform: translateX(5120px);}
.step6 {transform: translateX(6144px);}
.step7 {transform: translateX(7168px);}
.step8 {transform: translateX(8192px);}
.step9 {transform: translateX(9216px);}
.step10 {transform: translateX(10240px);}
.step11 {transform: translateX(11264px);}
.step12 {transform: translateX(12288px);}
.step13 {transform: translateX(13312px);}
.step14 {transform: translateX(14336px);}
.step15 {transform: translateX(15360px);}
.step16 {transform: translateX(16384px);}
.step17 {transform: translateX(17408px);}
.step18 {transform: translateX(18432px);}
.step19 {transform: translateX(19456px);}
.step20 {transform: translateX(20480px);}
.step21 {transform: translateX(21504px);}
.step22 {transform: translateX(22528px);}
.step23 {transform: translateX(23552px);}
.step24 {transform: translateX(24576px);}
.step25 {transform: translateX(25600px);}
.step26 {transform: translateX(26624px);}
.step27 {transform: translateX(27648px);}
.step28 {transform: translateX(28672px);}
.step29 {transform: translateX(29696px);}
    </style>

    <path d="M 303 764 Q 249 712 101 640 Q 95 631 102 628 Q 139 628 292 691 Q 370 727 410 736 Q 428 737 432 746 Q 435 756 422 768 Q 400 784 354 800 Q 338 807 324 806 Q 317 802 317 790 Q 317 775 303 764 Z" fill="lightgray" class="stroke step9"/>
    <path d="M 148 560 Q 193 503 207 500 Q 216 499 221 509 Q 227 521 223 545 Q 222 561 199 576 Q 147 607 132 603 Q 128 600 127 589 Q 128 580 148 560 Z" fill="lightgray" class="stroke step9"/>
    <path d="M 250 639 Q 283 575 303 569 Q 313 565 323 580 Q 327 590 322 610 Q 318 625 299 636 Q 271 655 259 661 Q 252 664 249 654 Q 246 648 250 639 Z" fill="lightgray" class="stroke step9"/>
    <path d="M 286 475 Q 331 506 383 547 Q 419 578 445 591 Q 455 597 455 609 Q 456 621 440 647 Q 424 669 408 674 Q 393 678 393 658 Q 394 628 377 610 Q 320 547 249 495 Q 182 446 94 395 Q 84 389 79 385 Q 73 378 85 375 Q 128 372 261 459 L 286 475 Z" fill="lightgray" class="stroke step9"/>
    <path d="M 380 281 Q 392 245 369 143 Q 359 100 347 95 Q 338 89 278 99 Q 236 108 236 100 Q 235 93 247 82 Q 310 36 336 5 Q 349 -13 364 -8 Q 383 -1 402 29 Q 421 69 430 138 Q 440 232 427 288 Q 400 426 286 475 C 259 488 235 475 261 459 Q 262 458 267 455 Q 285 445 301 432 L 344 387 Q 356 372 368 341 L 380 281 Z" fill="lightgray" class="stroke step9"/>
    <path d="M 301 432 Q 300 431 300 428 Q 279 365 113 253 Q 95 243 117 244 Q 186 244 308 354 Q 330 375 344 387 C 367 407 310 461 301 432 Z" fill="lightgray" class="stroke step9"/>
    <path d="M 368 341 Q 325 284 272 238 Q 217 189 96 107 Q 87 98 98 94 Q 116 85 240 160 Q 301 197 367 265 Q 374 272 380 281 C 398 305 386 365 368 341 Z" fill="lightgray" class="stroke step9"/>
    <path d="M 663 673 Q 718 686 778 699 Q 818 709 823 715 Q 833 724 827 732 Q 820 744 790 751 Q 760 755 667 723 Q 595 705 517 694 Q 480 687 507 670 Q 552 646 608 662 L 663 673 Z" fill="lightgray" class="stroke step9"/>
    <path d="M 690 467 Q 765 479 876 485 Q 930 485 938 496 Q 942 509 925 521 Q 865 560 818 542 Q 766 529 690 511 L 638 499 Q 542 481 431 459 Q 410 455 427 439 Q 442 426 460 422 Q 482 418 497 424 Q 561 446 638 458 L 690 467 Z" fill="lightgray" class="stroke step9"/>
    <path d="M 638 458 Q 638 -7 647 -26 Q 650 -35 654 -41 Q 660 -48 667 -46 Q 685 -34 688 24 Q 695 109 693 192 Q 689 253 690 467 L 690 511 Q 690 578 702 630 Q 705 648 690 658 Q 675 668 663 673 C 636 687 595 689 608 662 Q 609 661 611 658 Q 633 604 636 596 Q 636 557 638 499 L 638 458 Z" fill="lightgray" class="stroke step9"/></g></svg>