<svg version="1.1" viewBox="0 0 9216 1024" xmlns="http://www.w3.org/2000/svg">
  
  <g transform="scale(1, -1) translate(0, -900)" class="origin">
    <style type="text/css">
        .origin {display:none;}
        .hide {display:none;}
        .stroke {fill: #000000;}
        
.step1 {transform: translateX(1024px);}
.step2 {transform: translateX(2048px);}
.step3 {transform: translateX(3072px);}
.step4 {transform: translateX(4096px);}
.step5 {transform: translateX(5120px);}
.step6 {transform: translateX(6144px);}
.step7 {transform: translateX(7168px);}
.step8 {transform: translateX(8192px);}
.step9 {transform: translateX(9216px);}
.step10 {transform: translateX(10240px);}
.step11 {transform: translateX(11264px);}
.step12 {transform: translateX(12288px);}
.step13 {transform: translateX(13312px);}
.step14 {transform: translateX(14336px);}
.step15 {transform: translateX(15360px);}
.step16 {transform: translateX(16384px);}
.step17 {transform: translateX(17408px);}
.step18 {transform: translateX(18432px);}
.step19 {transform: translateX(19456px);}
.step20 {transform: translateX(20480px);}
.step21 {transform: translateX(21504px);}
.step22 {transform: translateX(22528px);}
.step23 {transform: translateX(23552px);}
.step24 {transform: translateX(24576px);}
.step25 {transform: translateX(25600px);}
.step26 {transform: translateX(26624px);}
.step27 {transform: translateX(27648px);}
.step28 {transform: translateX(28672px);}
.step29 {transform: translateX(29696px);}
    </style>

    <path d="M 411 691 Q 386 709 361 717 Q 354 720 348 714 Q 339 708 349 696 Q 404 588 396 345 Q 396 281 431 250 Q 432 249 435 247 Q 454 240 456 273 Q 456 274 456 277 L 455 310 Q 454 329 450 348 Q 432 576 432 652 C 432 677 432 677 411 691 Z" fill="lightgray"/>
    <path d="M 729 297 Q 742 269 770 214 Q 780 195 791 196 Q 809 200 819 229 Q 859 317 861 434 Q 868 507 872 593 Q 878 645 903 679 Q 921 701 908 715 Q 883 739 832 761 Q 811 773 776 759 Q 635 710 411 691 C 381 688 402 648 432 652 Q 441 651 450 653 Q 567 677 749 707 Q 782 711 795 697 Q 808 690 808 657 Q 809 501 782 349 Q 781 322 769 319 Q 766 318 753 322 C 724 314 721 313 729 297 Z" fill="lightgray"/>
    <path d="M 536 566 Q 526 572 500 576 Q 491 577 488 574 Q 484 570 490 557 Q 511 514 524 444 Q 527 423 539 409 Q 552 393 557 404 Q 560 411 560 424 L 557 455 Q 547 519 544 542 C 541 564 541 564 536 566 Z" fill="lightgray"/>
    <path d="M 681 465 Q 697 526 718 546 Q 737 567 718 579 Q 702 589 680 604 Q 664 613 622 590 Q 577 575 536 566 C 507 559 516 532 544 542 Q 548 545 625 562 Q 647 566 654 558 Q 660 554 653 525 Q 647 501 640 473 C 633 444 673 436 681 465 Z" fill="lightgray"/>
    <path d="M 560 424 Q 567 423 576 425 Q 612 432 689 436 Q 699 437 700 445 Q 700 452 681 465 L 640 473 Q 634 474 628 472 Q 589 462 557 455 C 528 449 530 426 560 424 Z" fill="lightgray"/>
    <path d="M 456 277 Q 466 276 479 277 Q 560 292 729 297 C 759 298 775 302 753 322 Q 726 349 688 341 Q 558 317 455 310 C 425 308 426 279 456 277 Z" fill="lightgray"/>
    <path d="M 208 702 Q 230 678 253 651 Q 266 636 283 636 Q 293 635 301 649 Q 307 664 300 696 Q 296 715 267 730 Q 201 761 184 755 Q 178 751 179 738 Q 182 726 208 702 Z" fill="lightgray"/>
    <path d="M 275 205 Q 291 215 294 234 Q 298 271 252 329 Q 231 359 268 421 Q 268 431 315 479 Q 337 495 319 513 Q 300 529 265 545 Q 238 560 209 531 Q 127 483 91 485 Q 84 486 82 481 Q 81 475 89 471 Q 126 456 216 488 Q 223 492 231 484 Q 252 459 228 427 Q 209 405 195 372 Q 189 354 230 287 Q 233 280 237 273 Q 256 237 257 210 Q 256 209 255 206 C 254 185 254 185 275 205 Z" fill="lightgray"/>
    <path d="M 255 206 Q 203 207 156 194 Q 116 181 88 179 Q 75 179 76 167 Q 80 157 120 134 Q 141 125 169 145 Q 199 176 263 173 Q 329 169 526 89 Q 560 76 592 61 Q 730 -3 788 8 Q 878 33 976 94 Q 983 97 981 103 Q 980 107 964 107 Q 706 92 523 136 Q 441 152 388 173 Q 328 198 275 205 L 255 206 Z" fill="lightgray"/></g>
<g transform="scale(1, -1) translate(0, -900)">
    <style type="text/css">
        .origin {display:none;}
        .hide {display:none;}
        .stroke {fill: #000000;}
        
.step1 {transform: translateX(1024px);}
.step2 {transform: translateX(2048px);}
.step3 {transform: translateX(3072px);}
.step4 {transform: translateX(4096px);}
.step5 {transform: translateX(5120px);}
.step6 {transform: translateX(6144px);}
.step7 {transform: translateX(7168px);}
.step8 {transform: translateX(8192px);}
.step9 {transform: translateX(9216px);}
.step10 {transform: translateX(10240px);}
.step11 {transform: translateX(11264px);}
.step12 {transform: translateX(12288px);}
.step13 {transform: translateX(13312px);}
.step14 {transform: translateX(14336px);}
.step15 {transform: translateX(15360px);}
.step16 {transform: translateX(16384px);}
.step17 {transform: translateX(17408px);}
.step18 {transform: translateX(18432px);}
.step19 {transform: translateX(19456px);}
.step20 {transform: translateX(20480px);}
.step21 {transform: translateX(21504px);}
.step22 {transform: translateX(22528px);}
.step23 {transform: translateX(23552px);}
.step24 {transform: translateX(24576px);}
.step25 {transform: translateX(25600px);}
.step26 {transform: translateX(26624px);}
.step27 {transform: translateX(27648px);}
.step28 {transform: translateX(28672px);}
.step29 {transform: translateX(29696px);}
    </style>

    <path d="M 411 691 Q 386 709 361 717 Q 354 720 348 714 Q 339 708 349 696 Q 404 588 396 345 Q 396 281 431 250 Q 432 249 435 247 Q 454 240 456 273 Q 456 274 456 277 L 455 310 Q 454 329 450 348 Q 432 576 432 652 C 432 677 432 677 411 691 Z" fill="lightgray" class="stroke step0"/>
    <path d="M 729 297 Q 742 269 770 214 Q 780 195 791 196 Q 809 200 819 229 Q 859 317 861 434 Q 868 507 872 593 Q 878 645 903 679 Q 921 701 908 715 Q 883 739 832 761 Q 811 773 776 759 Q 635 710 411 691 C 381 688 402 648 432 652 Q 441 651 450 653 Q 567 677 749 707 Q 782 711 795 697 Q 808 690 808 657 Q 809 501 782 349 Q 781 322 769 319 Q 766 318 753 322 C 724 314 721 313 729 297 Z" fill="lightgray" class="hide"/>
    <path d="M 536 566 Q 526 572 500 576 Q 491 577 488 574 Q 484 570 490 557 Q 511 514 524 444 Q 527 423 539 409 Q 552 393 557 404 Q 560 411 560 424 L 557 455 Q 547 519 544 542 C 541 564 541 564 536 566 Z" fill="lightgray" class="hide"/>
    <path d="M 681 465 Q 697 526 718 546 Q 737 567 718 579 Q 702 589 680 604 Q 664 613 622 590 Q 577 575 536 566 C 507 559 516 532 544 542 Q 548 545 625 562 Q 647 566 654 558 Q 660 554 653 525 Q 647 501 640 473 C 633 444 673 436 681 465 Z" fill="lightgray" class="hide"/>
    <path d="M 560 424 Q 567 423 576 425 Q 612 432 689 436 Q 699 437 700 445 Q 700 452 681 465 L 640 473 Q 634 474 628 472 Q 589 462 557 455 C 528 449 530 426 560 424 Z" fill="lightgray" class="hide"/>
    <path d="M 456 277 Q 466 276 479 277 Q 560 292 729 297 C 759 298 775 302 753 322 Q 726 349 688 341 Q 558 317 455 310 C 425 308 426 279 456 277 Z" fill="lightgray" class="hide"/>
    <path d="M 208 702 Q 230 678 253 651 Q 266 636 283 636 Q 293 635 301 649 Q 307 664 300 696 Q 296 715 267 730 Q 201 761 184 755 Q 178 751 179 738 Q 182 726 208 702 Z" fill="lightgray" class="hide"/>
    <path d="M 275 205 Q 291 215 294 234 Q 298 271 252 329 Q 231 359 268 421 Q 268 431 315 479 Q 337 495 319 513 Q 300 529 265 545 Q 238 560 209 531 Q 127 483 91 485 Q 84 486 82 481 Q 81 475 89 471 Q 126 456 216 488 Q 223 492 231 484 Q 252 459 228 427 Q 209 405 195 372 Q 189 354 230 287 Q 233 280 237 273 Q 256 237 257 210 Q 256 209 255 206 C 254 185 254 185 275 205 Z" fill="lightgray" class="hide"/>
    <path d="M 255 206 Q 203 207 156 194 Q 116 181 88 179 Q 75 179 76 167 Q 80 157 120 134 Q 141 125 169 145 Q 199 176 263 173 Q 329 169 526 89 Q 560 76 592 61 Q 730 -3 788 8 Q 878 33 976 94 Q 983 97 981 103 Q 980 107 964 107 Q 706 92 523 136 Q 441 152 388 173 Q 328 198 275 205 L 255 206 Z" fill="lightgray" class="hide"/></g><g transform="scale(1, -1) translate(0, -900)">
    <style type="text/css">
        .origin {display:none;}
        .hide {display:none;}
        .stroke {fill: #000000;}
        
.step1 {transform: translateX(1024px);}
.step2 {transform: translateX(2048px);}
.step3 {transform: translateX(3072px);}
.step4 {transform: translateX(4096px);}
.step5 {transform: translateX(5120px);}
.step6 {transform: translateX(6144px);}
.step7 {transform: translateX(7168px);}
.step8 {transform: translateX(8192px);}
.step9 {transform: translateX(9216px);}
.step10 {transform: translateX(10240px);}
.step11 {transform: translateX(11264px);}
.step12 {transform: translateX(12288px);}
.step13 {transform: translateX(13312px);}
.step14 {transform: translateX(14336px);}
.step15 {transform: translateX(15360px);}
.step16 {transform: translateX(16384px);}
.step17 {transform: translateX(17408px);}
.step18 {transform: translateX(18432px);}
.step19 {transform: translateX(19456px);}
.step20 {transform: translateX(20480px);}
.step21 {transform: translateX(21504px);}
.step22 {transform: translateX(22528px);}
.step23 {transform: translateX(23552px);}
.step24 {transform: translateX(24576px);}
.step25 {transform: translateX(25600px);}
.step26 {transform: translateX(26624px);}
.step27 {transform: translateX(27648px);}
.step28 {transform: translateX(28672px);}
.step29 {transform: translateX(29696px);}
    </style>

    <path d="M 411 691 Q 386 709 361 717 Q 354 720 348 714 Q 339 708 349 696 Q 404 588 396 345 Q 396 281 431 250 Q 432 249 435 247 Q 454 240 456 273 Q 456 274 456 277 L 455 310 Q 454 329 450 348 Q 432 576 432 652 C 432 677 432 677 411 691 Z" fill="lightgray" class="stroke step1"/>
    <path d="M 729 297 Q 742 269 770 214 Q 780 195 791 196 Q 809 200 819 229 Q 859 317 861 434 Q 868 507 872 593 Q 878 645 903 679 Q 921 701 908 715 Q 883 739 832 761 Q 811 773 776 759 Q 635 710 411 691 C 381 688 402 648 432 652 Q 441 651 450 653 Q 567 677 749 707 Q 782 711 795 697 Q 808 690 808 657 Q 809 501 782 349 Q 781 322 769 319 Q 766 318 753 322 C 724 314 721 313 729 297 Z" fill="lightgray" class="stroke step1"/>
    <path d="M 536 566 Q 526 572 500 576 Q 491 577 488 574 Q 484 570 490 557 Q 511 514 524 444 Q 527 423 539 409 Q 552 393 557 404 Q 560 411 560 424 L 557 455 Q 547 519 544 542 C 541 564 541 564 536 566 Z" fill="lightgray" class="hide"/>
    <path d="M 681 465 Q 697 526 718 546 Q 737 567 718 579 Q 702 589 680 604 Q 664 613 622 590 Q 577 575 536 566 C 507 559 516 532 544 542 Q 548 545 625 562 Q 647 566 654 558 Q 660 554 653 525 Q 647 501 640 473 C 633 444 673 436 681 465 Z" fill="lightgray" class="hide"/>
    <path d="M 560 424 Q 567 423 576 425 Q 612 432 689 436 Q 699 437 700 445 Q 700 452 681 465 L 640 473 Q 634 474 628 472 Q 589 462 557 455 C 528 449 530 426 560 424 Z" fill="lightgray" class="hide"/>
    <path d="M 456 277 Q 466 276 479 277 Q 560 292 729 297 C 759 298 775 302 753 322 Q 726 349 688 341 Q 558 317 455 310 C 425 308 426 279 456 277 Z" fill="lightgray" class="hide"/>
    <path d="M 208 702 Q 230 678 253 651 Q 266 636 283 636 Q 293 635 301 649 Q 307 664 300 696 Q 296 715 267 730 Q 201 761 184 755 Q 178 751 179 738 Q 182 726 208 702 Z" fill="lightgray" class="hide"/>
    <path d="M 275 205 Q 291 215 294 234 Q 298 271 252 329 Q 231 359 268 421 Q 268 431 315 479 Q 337 495 319 513 Q 300 529 265 545 Q 238 560 209 531 Q 127 483 91 485 Q 84 486 82 481 Q 81 475 89 471 Q 126 456 216 488 Q 223 492 231 484 Q 252 459 228 427 Q 209 405 195 372 Q 189 354 230 287 Q 233 280 237 273 Q 256 237 257 210 Q 256 209 255 206 C 254 185 254 185 275 205 Z" fill="lightgray" class="hide"/>
    <path d="M 255 206 Q 203 207 156 194 Q 116 181 88 179 Q 75 179 76 167 Q 80 157 120 134 Q 141 125 169 145 Q 199 176 263 173 Q 329 169 526 89 Q 560 76 592 61 Q 730 -3 788 8 Q 878 33 976 94 Q 983 97 981 103 Q 980 107 964 107 Q 706 92 523 136 Q 441 152 388 173 Q 328 198 275 205 L 255 206 Z" fill="lightgray" class="hide"/></g><g transform="scale(1, -1) translate(0, -900)">
    <style type="text/css">
        .origin {display:none;}
        .hide {display:none;}
        .stroke {fill: #000000;}
        
.step1 {transform: translateX(1024px);}
.step2 {transform: translateX(2048px);}
.step3 {transform: translateX(3072px);}
.step4 {transform: translateX(4096px);}
.step5 {transform: translateX(5120px);}
.step6 {transform: translateX(6144px);}
.step7 {transform: translateX(7168px);}
.step8 {transform: translateX(8192px);}
.step9 {transform: translateX(9216px);}
.step10 {transform: translateX(10240px);}
.step11 {transform: translateX(11264px);}
.step12 {transform: translateX(12288px);}
.step13 {transform: translateX(13312px);}
.step14 {transform: translateX(14336px);}
.step15 {transform: translateX(15360px);}
.step16 {transform: translateX(16384px);}
.step17 {transform: translateX(17408px);}
.step18 {transform: translateX(18432px);}
.step19 {transform: translateX(19456px);}
.step20 {transform: translateX(20480px);}
.step21 {transform: translateX(21504px);}
.step22 {transform: translateX(22528px);}
.step23 {transform: translateX(23552px);}
.step24 {transform: translateX(24576px);}
.step25 {transform: translateX(25600px);}
.step26 {transform: translateX(26624px);}
.step27 {transform: translateX(27648px);}
.step28 {transform: translateX(28672px);}
.step29 {transform: translateX(29696px);}
    </style>

    <path d="M 411 691 Q 386 709 361 717 Q 354 720 348 714 Q 339 708 349 696 Q 404 588 396 345 Q 396 281 431 250 Q 432 249 435 247 Q 454 240 456 273 Q 456 274 456 277 L 455 310 Q 454 329 450 348 Q 432 576 432 652 C 432 677 432 677 411 691 Z" fill="lightgray" class="stroke step2"/>
    <path d="M 729 297 Q 742 269 770 214 Q 780 195 791 196 Q 809 200 819 229 Q 859 317 861 434 Q 868 507 872 593 Q 878 645 903 679 Q 921 701 908 715 Q 883 739 832 761 Q 811 773 776 759 Q 635 710 411 691 C 381 688 402 648 432 652 Q 441 651 450 653 Q 567 677 749 707 Q 782 711 795 697 Q 808 690 808 657 Q 809 501 782 349 Q 781 322 769 319 Q 766 318 753 322 C 724 314 721 313 729 297 Z" fill="lightgray" class="stroke step2"/>
    <path d="M 536 566 Q 526 572 500 576 Q 491 577 488 574 Q 484 570 490 557 Q 511 514 524 444 Q 527 423 539 409 Q 552 393 557 404 Q 560 411 560 424 L 557 455 Q 547 519 544 542 C 541 564 541 564 536 566 Z" fill="lightgray" class="stroke step2"/>
    <path d="M 681 465 Q 697 526 718 546 Q 737 567 718 579 Q 702 589 680 604 Q 664 613 622 590 Q 577 575 536 566 C 507 559 516 532 544 542 Q 548 545 625 562 Q 647 566 654 558 Q 660 554 653 525 Q 647 501 640 473 C 633 444 673 436 681 465 Z" fill="lightgray" class="hide"/>
    <path d="M 560 424 Q 567 423 576 425 Q 612 432 689 436 Q 699 437 700 445 Q 700 452 681 465 L 640 473 Q 634 474 628 472 Q 589 462 557 455 C 528 449 530 426 560 424 Z" fill="lightgray" class="hide"/>
    <path d="M 456 277 Q 466 276 479 277 Q 560 292 729 297 C 759 298 775 302 753 322 Q 726 349 688 341 Q 558 317 455 310 C 425 308 426 279 456 277 Z" fill="lightgray" class="hide"/>
    <path d="M 208 702 Q 230 678 253 651 Q 266 636 283 636 Q 293 635 301 649 Q 307 664 300 696 Q 296 715 267 730 Q 201 761 184 755 Q 178 751 179 738 Q 182 726 208 702 Z" fill="lightgray" class="hide"/>
    <path d="M 275 205 Q 291 215 294 234 Q 298 271 252 329 Q 231 359 268 421 Q 268 431 315 479 Q 337 495 319 513 Q 300 529 265 545 Q 238 560 209 531 Q 127 483 91 485 Q 84 486 82 481 Q 81 475 89 471 Q 126 456 216 488 Q 223 492 231 484 Q 252 459 228 427 Q 209 405 195 372 Q 189 354 230 287 Q 233 280 237 273 Q 256 237 257 210 Q 256 209 255 206 C 254 185 254 185 275 205 Z" fill="lightgray" class="hide"/>
    <path d="M 255 206 Q 203 207 156 194 Q 116 181 88 179 Q 75 179 76 167 Q 80 157 120 134 Q 141 125 169 145 Q 199 176 263 173 Q 329 169 526 89 Q 560 76 592 61 Q 730 -3 788 8 Q 878 33 976 94 Q 983 97 981 103 Q 980 107 964 107 Q 706 92 523 136 Q 441 152 388 173 Q 328 198 275 205 L 255 206 Z" fill="lightgray" class="hide"/></g><g transform="scale(1, -1) translate(0, -900)">
    <style type="text/css">
        .origin {display:none;}
        .hide {display:none;}
        .stroke {fill: #000000;}
        
.step1 {transform: translateX(1024px);}
.step2 {transform: translateX(2048px);}
.step3 {transform: translateX(3072px);}
.step4 {transform: translateX(4096px);}
.step5 {transform: translateX(5120px);}
.step6 {transform: translateX(6144px);}
.step7 {transform: translateX(7168px);}
.step8 {transform: translateX(8192px);}
.step9 {transform: translateX(9216px);}
.step10 {transform: translateX(10240px);}
.step11 {transform: translateX(11264px);}
.step12 {transform: translateX(12288px);}
.step13 {transform: translateX(13312px);}
.step14 {transform: translateX(14336px);}
.step15 {transform: translateX(15360px);}
.step16 {transform: translateX(16384px);}
.step17 {transform: translateX(17408px);}
.step18 {transform: translateX(18432px);}
.step19 {transform: translateX(19456px);}
.step20 {transform: translateX(20480px);}
.step21 {transform: translateX(21504px);}
.step22 {transform: translateX(22528px);}
.step23 {transform: translateX(23552px);}
.step24 {transform: translateX(24576px);}
.step25 {transform: translateX(25600px);}
.step26 {transform: translateX(26624px);}
.step27 {transform: translateX(27648px);}
.step28 {transform: translateX(28672px);}
.step29 {transform: translateX(29696px);}
    </style>

    <path d="M 411 691 Q 386 709 361 717 Q 354 720 348 714 Q 339 708 349 696 Q 404 588 396 345 Q 396 281 431 250 Q 432 249 435 247 Q 454 240 456 273 Q 456 274 456 277 L 455 310 Q 454 329 450 348 Q 432 576 432 652 C 432 677 432 677 411 691 Z" fill="lightgray" class="stroke step3"/>
    <path d="M 729 297 Q 742 269 770 214 Q 780 195 791 196 Q 809 200 819 229 Q 859 317 861 434 Q 868 507 872 593 Q 878 645 903 679 Q 921 701 908 715 Q 883 739 832 761 Q 811 773 776 759 Q 635 710 411 691 C 381 688 402 648 432 652 Q 441 651 450 653 Q 567 677 749 707 Q 782 711 795 697 Q 808 690 808 657 Q 809 501 782 349 Q 781 322 769 319 Q 766 318 753 322 C 724 314 721 313 729 297 Z" fill="lightgray" class="stroke step3"/>
    <path d="M 536 566 Q 526 572 500 576 Q 491 577 488 574 Q 484 570 490 557 Q 511 514 524 444 Q 527 423 539 409 Q 552 393 557 404 Q 560 411 560 424 L 557 455 Q 547 519 544 542 C 541 564 541 564 536 566 Z" fill="lightgray" class="stroke step3"/>
    <path d="M 681 465 Q 697 526 718 546 Q 737 567 718 579 Q 702 589 680 604 Q 664 613 622 590 Q 577 575 536 566 C 507 559 516 532 544 542 Q 548 545 625 562 Q 647 566 654 558 Q 660 554 653 525 Q 647 501 640 473 C 633 444 673 436 681 465 Z" fill="lightgray" class="stroke step3"/>
    <path d="M 560 424 Q 567 423 576 425 Q 612 432 689 436 Q 699 437 700 445 Q 700 452 681 465 L 640 473 Q 634 474 628 472 Q 589 462 557 455 C 528 449 530 426 560 424 Z" fill="lightgray" class="hide"/>
    <path d="M 456 277 Q 466 276 479 277 Q 560 292 729 297 C 759 298 775 302 753 322 Q 726 349 688 341 Q 558 317 455 310 C 425 308 426 279 456 277 Z" fill="lightgray" class="hide"/>
    <path d="M 208 702 Q 230 678 253 651 Q 266 636 283 636 Q 293 635 301 649 Q 307 664 300 696 Q 296 715 267 730 Q 201 761 184 755 Q 178 751 179 738 Q 182 726 208 702 Z" fill="lightgray" class="hide"/>
    <path d="M 275 205 Q 291 215 294 234 Q 298 271 252 329 Q 231 359 268 421 Q 268 431 315 479 Q 337 495 319 513 Q 300 529 265 545 Q 238 560 209 531 Q 127 483 91 485 Q 84 486 82 481 Q 81 475 89 471 Q 126 456 216 488 Q 223 492 231 484 Q 252 459 228 427 Q 209 405 195 372 Q 189 354 230 287 Q 233 280 237 273 Q 256 237 257 210 Q 256 209 255 206 C 254 185 254 185 275 205 Z" fill="lightgray" class="hide"/>
    <path d="M 255 206 Q 203 207 156 194 Q 116 181 88 179 Q 75 179 76 167 Q 80 157 120 134 Q 141 125 169 145 Q 199 176 263 173 Q 329 169 526 89 Q 560 76 592 61 Q 730 -3 788 8 Q 878 33 976 94 Q 983 97 981 103 Q 980 107 964 107 Q 706 92 523 136 Q 441 152 388 173 Q 328 198 275 205 L 255 206 Z" fill="lightgray" class="hide"/></g><g transform="scale(1, -1) translate(0, -900)">
    <style type="text/css">
        .origin {display:none;}
        .hide {display:none;}
        .stroke {fill: #000000;}
        
.step1 {transform: translateX(1024px);}
.step2 {transform: translateX(2048px);}
.step3 {transform: translateX(3072px);}
.step4 {transform: translateX(4096px);}
.step5 {transform: translateX(5120px);}
.step6 {transform: translateX(6144px);}
.step7 {transform: translateX(7168px);}
.step8 {transform: translateX(8192px);}
.step9 {transform: translateX(9216px);}
.step10 {transform: translateX(10240px);}
.step11 {transform: translateX(11264px);}
.step12 {transform: translateX(12288px);}
.step13 {transform: translateX(13312px);}
.step14 {transform: translateX(14336px);}
.step15 {transform: translateX(15360px);}
.step16 {transform: translateX(16384px);}
.step17 {transform: translateX(17408px);}
.step18 {transform: translateX(18432px);}
.step19 {transform: translateX(19456px);}
.step20 {transform: translateX(20480px);}
.step21 {transform: translateX(21504px);}
.step22 {transform: translateX(22528px);}
.step23 {transform: translateX(23552px);}
.step24 {transform: translateX(24576px);}
.step25 {transform: translateX(25600px);}
.step26 {transform: translateX(26624px);}
.step27 {transform: translateX(27648px);}
.step28 {transform: translateX(28672px);}
.step29 {transform: translateX(29696px);}
    </style>

    <path d="M 411 691 Q 386 709 361 717 Q 354 720 348 714 Q 339 708 349 696 Q 404 588 396 345 Q 396 281 431 250 Q 432 249 435 247 Q 454 240 456 273 Q 456 274 456 277 L 455 310 Q 454 329 450 348 Q 432 576 432 652 C 432 677 432 677 411 691 Z" fill="lightgray" class="stroke step4"/>
    <path d="M 729 297 Q 742 269 770 214 Q 780 195 791 196 Q 809 200 819 229 Q 859 317 861 434 Q 868 507 872 593 Q 878 645 903 679 Q 921 701 908 715 Q 883 739 832 761 Q 811 773 776 759 Q 635 710 411 691 C 381 688 402 648 432 652 Q 441 651 450 653 Q 567 677 749 707 Q 782 711 795 697 Q 808 690 808 657 Q 809 501 782 349 Q 781 322 769 319 Q 766 318 753 322 C 724 314 721 313 729 297 Z" fill="lightgray" class="stroke step4"/>
    <path d="M 536 566 Q 526 572 500 576 Q 491 577 488 574 Q 484 570 490 557 Q 511 514 524 444 Q 527 423 539 409 Q 552 393 557 404 Q 560 411 560 424 L 557 455 Q 547 519 544 542 C 541 564 541 564 536 566 Z" fill="lightgray" class="stroke step4"/>
    <path d="M 681 465 Q 697 526 718 546 Q 737 567 718 579 Q 702 589 680 604 Q 664 613 622 590 Q 577 575 536 566 C 507 559 516 532 544 542 Q 548 545 625 562 Q 647 566 654 558 Q 660 554 653 525 Q 647 501 640 473 C 633 444 673 436 681 465 Z" fill="lightgray" class="stroke step4"/>
    <path d="M 560 424 Q 567 423 576 425 Q 612 432 689 436 Q 699 437 700 445 Q 700 452 681 465 L 640 473 Q 634 474 628 472 Q 589 462 557 455 C 528 449 530 426 560 424 Z" fill="lightgray" class="stroke step4"/>
    <path d="M 456 277 Q 466 276 479 277 Q 560 292 729 297 C 759 298 775 302 753 322 Q 726 349 688 341 Q 558 317 455 310 C 425 308 426 279 456 277 Z" fill="lightgray" class="hide"/>
    <path d="M 208 702 Q 230 678 253 651 Q 266 636 283 636 Q 293 635 301 649 Q 307 664 300 696 Q 296 715 267 730 Q 201 761 184 755 Q 178 751 179 738 Q 182 726 208 702 Z" fill="lightgray" class="hide"/>
    <path d="M 275 205 Q 291 215 294 234 Q 298 271 252 329 Q 231 359 268 421 Q 268 431 315 479 Q 337 495 319 513 Q 300 529 265 545 Q 238 560 209 531 Q 127 483 91 485 Q 84 486 82 481 Q 81 475 89 471 Q 126 456 216 488 Q 223 492 231 484 Q 252 459 228 427 Q 209 405 195 372 Q 189 354 230 287 Q 233 280 237 273 Q 256 237 257 210 Q 256 209 255 206 C 254 185 254 185 275 205 Z" fill="lightgray" class="hide"/>
    <path d="M 255 206 Q 203 207 156 194 Q 116 181 88 179 Q 75 179 76 167 Q 80 157 120 134 Q 141 125 169 145 Q 199 176 263 173 Q 329 169 526 89 Q 560 76 592 61 Q 730 -3 788 8 Q 878 33 976 94 Q 983 97 981 103 Q 980 107 964 107 Q 706 92 523 136 Q 441 152 388 173 Q 328 198 275 205 L 255 206 Z" fill="lightgray" class="hide"/></g><g transform="scale(1, -1) translate(0, -900)">
    <style type="text/css">
        .origin {display:none;}
        .hide {display:none;}
        .stroke {fill: #000000;}
        
.step1 {transform: translateX(1024px);}
.step2 {transform: translateX(2048px);}
.step3 {transform: translateX(3072px);}
.step4 {transform: translateX(4096px);}
.step5 {transform: translateX(5120px);}
.step6 {transform: translateX(6144px);}
.step7 {transform: translateX(7168px);}
.step8 {transform: translateX(8192px);}
.step9 {transform: translateX(9216px);}
.step10 {transform: translateX(10240px);}
.step11 {transform: translateX(11264px);}
.step12 {transform: translateX(12288px);}
.step13 {transform: translateX(13312px);}
.step14 {transform: translateX(14336px);}
.step15 {transform: translateX(15360px);}
.step16 {transform: translateX(16384px);}
.step17 {transform: translateX(17408px);}
.step18 {transform: translateX(18432px);}
.step19 {transform: translateX(19456px);}
.step20 {transform: translateX(20480px);}
.step21 {transform: translateX(21504px);}
.step22 {transform: translateX(22528px);}
.step23 {transform: translateX(23552px);}
.step24 {transform: translateX(24576px);}
.step25 {transform: translateX(25600px);}
.step26 {transform: translateX(26624px);}
.step27 {transform: translateX(27648px);}
.step28 {transform: translateX(28672px);}
.step29 {transform: translateX(29696px);}
    </style>

    <path d="M 411 691 Q 386 709 361 717 Q 354 720 348 714 Q 339 708 349 696 Q 404 588 396 345 Q 396 281 431 250 Q 432 249 435 247 Q 454 240 456 273 Q 456 274 456 277 L 455 310 Q 454 329 450 348 Q 432 576 432 652 C 432 677 432 677 411 691 Z" fill="lightgray" class="stroke step5"/>
    <path d="M 729 297 Q 742 269 770 214 Q 780 195 791 196 Q 809 200 819 229 Q 859 317 861 434 Q 868 507 872 593 Q 878 645 903 679 Q 921 701 908 715 Q 883 739 832 761 Q 811 773 776 759 Q 635 710 411 691 C 381 688 402 648 432 652 Q 441 651 450 653 Q 567 677 749 707 Q 782 711 795 697 Q 808 690 808 657 Q 809 501 782 349 Q 781 322 769 319 Q 766 318 753 322 C 724 314 721 313 729 297 Z" fill="lightgray" class="stroke step5"/>
    <path d="M 536 566 Q 526 572 500 576 Q 491 577 488 574 Q 484 570 490 557 Q 511 514 524 444 Q 527 423 539 409 Q 552 393 557 404 Q 560 411 560 424 L 557 455 Q 547 519 544 542 C 541 564 541 564 536 566 Z" fill="lightgray" class="stroke step5"/>
    <path d="M 681 465 Q 697 526 718 546 Q 737 567 718 579 Q 702 589 680 604 Q 664 613 622 590 Q 577 575 536 566 C 507 559 516 532 544 542 Q 548 545 625 562 Q 647 566 654 558 Q 660 554 653 525 Q 647 501 640 473 C 633 444 673 436 681 465 Z" fill="lightgray" class="stroke step5"/>
    <path d="M 560 424 Q 567 423 576 425 Q 612 432 689 436 Q 699 437 700 445 Q 700 452 681 465 L 640 473 Q 634 474 628 472 Q 589 462 557 455 C 528 449 530 426 560 424 Z" fill="lightgray" class="stroke step5"/>
    <path d="M 456 277 Q 466 276 479 277 Q 560 292 729 297 C 759 298 775 302 753 322 Q 726 349 688 341 Q 558 317 455 310 C 425 308 426 279 456 277 Z" fill="lightgray" class="stroke step5"/>
    <path d="M 208 702 Q 230 678 253 651 Q 266 636 283 636 Q 293 635 301 649 Q 307 664 300 696 Q 296 715 267 730 Q 201 761 184 755 Q 178 751 179 738 Q 182 726 208 702 Z" fill="lightgray" class="hide"/>
    <path d="M 275 205 Q 291 215 294 234 Q 298 271 252 329 Q 231 359 268 421 Q 268 431 315 479 Q 337 495 319 513 Q 300 529 265 545 Q 238 560 209 531 Q 127 483 91 485 Q 84 486 82 481 Q 81 475 89 471 Q 126 456 216 488 Q 223 492 231 484 Q 252 459 228 427 Q 209 405 195 372 Q 189 354 230 287 Q 233 280 237 273 Q 256 237 257 210 Q 256 209 255 206 C 254 185 254 185 275 205 Z" fill="lightgray" class="hide"/>
    <path d="M 255 206 Q 203 207 156 194 Q 116 181 88 179 Q 75 179 76 167 Q 80 157 120 134 Q 141 125 169 145 Q 199 176 263 173 Q 329 169 526 89 Q 560 76 592 61 Q 730 -3 788 8 Q 878 33 976 94 Q 983 97 981 103 Q 980 107 964 107 Q 706 92 523 136 Q 441 152 388 173 Q 328 198 275 205 L 255 206 Z" fill="lightgray" class="hide"/></g><g transform="scale(1, -1) translate(0, -900)">
    <style type="text/css">
        .origin {display:none;}
        .hide {display:none;}
        .stroke {fill: #000000;}
        
.step1 {transform: translateX(1024px);}
.step2 {transform: translateX(2048px);}
.step3 {transform: translateX(3072px);}
.step4 {transform: translateX(4096px);}
.step5 {transform: translateX(5120px);}
.step6 {transform: translateX(6144px);}
.step7 {transform: translateX(7168px);}
.step8 {transform: translateX(8192px);}
.step9 {transform: translateX(9216px);}
.step10 {transform: translateX(10240px);}
.step11 {transform: translateX(11264px);}
.step12 {transform: translateX(12288px);}
.step13 {transform: translateX(13312px);}
.step14 {transform: translateX(14336px);}
.step15 {transform: translateX(15360px);}
.step16 {transform: translateX(16384px);}
.step17 {transform: translateX(17408px);}
.step18 {transform: translateX(18432px);}
.step19 {transform: translateX(19456px);}
.step20 {transform: translateX(20480px);}
.step21 {transform: translateX(21504px);}
.step22 {transform: translateX(22528px);}
.step23 {transform: translateX(23552px);}
.step24 {transform: translateX(24576px);}
.step25 {transform: translateX(25600px);}
.step26 {transform: translateX(26624px);}
.step27 {transform: translateX(27648px);}
.step28 {transform: translateX(28672px);}
.step29 {transform: translateX(29696px);}
    </style>

    <path d="M 411 691 Q 386 709 361 717 Q 354 720 348 714 Q 339 708 349 696 Q 404 588 396 345 Q 396 281 431 250 Q 432 249 435 247 Q 454 240 456 273 Q 456 274 456 277 L 455 310 Q 454 329 450 348 Q 432 576 432 652 C 432 677 432 677 411 691 Z" fill="lightgray" class="stroke step6"/>
    <path d="M 729 297 Q 742 269 770 214 Q 780 195 791 196 Q 809 200 819 229 Q 859 317 861 434 Q 868 507 872 593 Q 878 645 903 679 Q 921 701 908 715 Q 883 739 832 761 Q 811 773 776 759 Q 635 710 411 691 C 381 688 402 648 432 652 Q 441 651 450 653 Q 567 677 749 707 Q 782 711 795 697 Q 808 690 808 657 Q 809 501 782 349 Q 781 322 769 319 Q 766 318 753 322 C 724 314 721 313 729 297 Z" fill="lightgray" class="stroke step6"/>
    <path d="M 536 566 Q 526 572 500 576 Q 491 577 488 574 Q 484 570 490 557 Q 511 514 524 444 Q 527 423 539 409 Q 552 393 557 404 Q 560 411 560 424 L 557 455 Q 547 519 544 542 C 541 564 541 564 536 566 Z" fill="lightgray" class="stroke step6"/>
    <path d="M 681 465 Q 697 526 718 546 Q 737 567 718 579 Q 702 589 680 604 Q 664 613 622 590 Q 577 575 536 566 C 507 559 516 532 544 542 Q 548 545 625 562 Q 647 566 654 558 Q 660 554 653 525 Q 647 501 640 473 C 633 444 673 436 681 465 Z" fill="lightgray" class="stroke step6"/>
    <path d="M 560 424 Q 567 423 576 425 Q 612 432 689 436 Q 699 437 700 445 Q 700 452 681 465 L 640 473 Q 634 474 628 472 Q 589 462 557 455 C 528 449 530 426 560 424 Z" fill="lightgray" class="stroke step6"/>
    <path d="M 456 277 Q 466 276 479 277 Q 560 292 729 297 C 759 298 775 302 753 322 Q 726 349 688 341 Q 558 317 455 310 C 425 308 426 279 456 277 Z" fill="lightgray" class="stroke step6"/>
    <path d="M 208 702 Q 230 678 253 651 Q 266 636 283 636 Q 293 635 301 649 Q 307 664 300 696 Q 296 715 267 730 Q 201 761 184 755 Q 178 751 179 738 Q 182 726 208 702 Z" fill="lightgray" class="stroke step6"/>
    <path d="M 275 205 Q 291 215 294 234 Q 298 271 252 329 Q 231 359 268 421 Q 268 431 315 479 Q 337 495 319 513 Q 300 529 265 545 Q 238 560 209 531 Q 127 483 91 485 Q 84 486 82 481 Q 81 475 89 471 Q 126 456 216 488 Q 223 492 231 484 Q 252 459 228 427 Q 209 405 195 372 Q 189 354 230 287 Q 233 280 237 273 Q 256 237 257 210 Q 256 209 255 206 C 254 185 254 185 275 205 Z" fill="lightgray" class="hide"/>
    <path d="M 255 206 Q 203 207 156 194 Q 116 181 88 179 Q 75 179 76 167 Q 80 157 120 134 Q 141 125 169 145 Q 199 176 263 173 Q 329 169 526 89 Q 560 76 592 61 Q 730 -3 788 8 Q 878 33 976 94 Q 983 97 981 103 Q 980 107 964 107 Q 706 92 523 136 Q 441 152 388 173 Q 328 198 275 205 L 255 206 Z" fill="lightgray" class="hide"/></g><g transform="scale(1, -1) translate(0, -900)">
    <style type="text/css">
        .origin {display:none;}
        .hide {display:none;}
        .stroke {fill: #000000;}
        
.step1 {transform: translateX(1024px);}
.step2 {transform: translateX(2048px);}
.step3 {transform: translateX(3072px);}
.step4 {transform: translateX(4096px);}
.step5 {transform: translateX(5120px);}
.step6 {transform: translateX(6144px);}
.step7 {transform: translateX(7168px);}
.step8 {transform: translateX(8192px);}
.step9 {transform: translateX(9216px);}
.step10 {transform: translateX(10240px);}
.step11 {transform: translateX(11264px);}
.step12 {transform: translateX(12288px);}
.step13 {transform: translateX(13312px);}
.step14 {transform: translateX(14336px);}
.step15 {transform: translateX(15360px);}
.step16 {transform: translateX(16384px);}
.step17 {transform: translateX(17408px);}
.step18 {transform: translateX(18432px);}
.step19 {transform: translateX(19456px);}
.step20 {transform: translateX(20480px);}
.step21 {transform: translateX(21504px);}
.step22 {transform: translateX(22528px);}
.step23 {transform: translateX(23552px);}
.step24 {transform: translateX(24576px);}
.step25 {transform: translateX(25600px);}
.step26 {transform: translateX(26624px);}
.step27 {transform: translateX(27648px);}
.step28 {transform: translateX(28672px);}
.step29 {transform: translateX(29696px);}
    </style>

    <path d="M 411 691 Q 386 709 361 717 Q 354 720 348 714 Q 339 708 349 696 Q 404 588 396 345 Q 396 281 431 250 Q 432 249 435 247 Q 454 240 456 273 Q 456 274 456 277 L 455 310 Q 454 329 450 348 Q 432 576 432 652 C 432 677 432 677 411 691 Z" fill="lightgray" class="stroke step7"/>
    <path d="M 729 297 Q 742 269 770 214 Q 780 195 791 196 Q 809 200 819 229 Q 859 317 861 434 Q 868 507 872 593 Q 878 645 903 679 Q 921 701 908 715 Q 883 739 832 761 Q 811 773 776 759 Q 635 710 411 691 C 381 688 402 648 432 652 Q 441 651 450 653 Q 567 677 749 707 Q 782 711 795 697 Q 808 690 808 657 Q 809 501 782 349 Q 781 322 769 319 Q 766 318 753 322 C 724 314 721 313 729 297 Z" fill="lightgray" class="stroke step7"/>
    <path d="M 536 566 Q 526 572 500 576 Q 491 577 488 574 Q 484 570 490 557 Q 511 514 524 444 Q 527 423 539 409 Q 552 393 557 404 Q 560 411 560 424 L 557 455 Q 547 519 544 542 C 541 564 541 564 536 566 Z" fill="lightgray" class="stroke step7"/>
    <path d="M 681 465 Q 697 526 718 546 Q 737 567 718 579 Q 702 589 680 604 Q 664 613 622 590 Q 577 575 536 566 C 507 559 516 532 544 542 Q 548 545 625 562 Q 647 566 654 558 Q 660 554 653 525 Q 647 501 640 473 C 633 444 673 436 681 465 Z" fill="lightgray" class="stroke step7"/>
    <path d="M 560 424 Q 567 423 576 425 Q 612 432 689 436 Q 699 437 700 445 Q 700 452 681 465 L 640 473 Q 634 474 628 472 Q 589 462 557 455 C 528 449 530 426 560 424 Z" fill="lightgray" class="stroke step7"/>
    <path d="M 456 277 Q 466 276 479 277 Q 560 292 729 297 C 759 298 775 302 753 322 Q 726 349 688 341 Q 558 317 455 310 C 425 308 426 279 456 277 Z" fill="lightgray" class="stroke step7"/>
    <path d="M 208 702 Q 230 678 253 651 Q 266 636 283 636 Q 293 635 301 649 Q 307 664 300 696 Q 296 715 267 730 Q 201 761 184 755 Q 178 751 179 738 Q 182 726 208 702 Z" fill="lightgray" class="stroke step7"/>
    <path d="M 275 205 Q 291 215 294 234 Q 298 271 252 329 Q 231 359 268 421 Q 268 431 315 479 Q 337 495 319 513 Q 300 529 265 545 Q 238 560 209 531 Q 127 483 91 485 Q 84 486 82 481 Q 81 475 89 471 Q 126 456 216 488 Q 223 492 231 484 Q 252 459 228 427 Q 209 405 195 372 Q 189 354 230 287 Q 233 280 237 273 Q 256 237 257 210 Q 256 209 255 206 C 254 185 254 185 275 205 Z" fill="lightgray" class="stroke step7"/>
    <path d="M 255 206 Q 203 207 156 194 Q 116 181 88 179 Q 75 179 76 167 Q 80 157 120 134 Q 141 125 169 145 Q 199 176 263 173 Q 329 169 526 89 Q 560 76 592 61 Q 730 -3 788 8 Q 878 33 976 94 Q 983 97 981 103 Q 980 107 964 107 Q 706 92 523 136 Q 441 152 388 173 Q 328 198 275 205 L 255 206 Z" fill="lightgray" class="hide"/></g><g transform="scale(1, -1) translate(0, -900)">
    <style type="text/css">
        .origin {display:none;}
        .hide {display:none;}
        .stroke {fill: #000000;}
        
.step1 {transform: translateX(1024px);}
.step2 {transform: translateX(2048px);}
.step3 {transform: translateX(3072px);}
.step4 {transform: translateX(4096px);}
.step5 {transform: translateX(5120px);}
.step6 {transform: translateX(6144px);}
.step7 {transform: translateX(7168px);}
.step8 {transform: translateX(8192px);}
.step9 {transform: translateX(9216px);}
.step10 {transform: translateX(10240px);}
.step11 {transform: translateX(11264px);}
.step12 {transform: translateX(12288px);}
.step13 {transform: translateX(13312px);}
.step14 {transform: translateX(14336px);}
.step15 {transform: translateX(15360px);}
.step16 {transform: translateX(16384px);}
.step17 {transform: translateX(17408px);}
.step18 {transform: translateX(18432px);}
.step19 {transform: translateX(19456px);}
.step20 {transform: translateX(20480px);}
.step21 {transform: translateX(21504px);}
.step22 {transform: translateX(22528px);}
.step23 {transform: translateX(23552px);}
.step24 {transform: translateX(24576px);}
.step25 {transform: translateX(25600px);}
.step26 {transform: translateX(26624px);}
.step27 {transform: translateX(27648px);}
.step28 {transform: translateX(28672px);}
.step29 {transform: translateX(29696px);}
    </style>

    <path d="M 411 691 Q 386 709 361 717 Q 354 720 348 714 Q 339 708 349 696 Q 404 588 396 345 Q 396 281 431 250 Q 432 249 435 247 Q 454 240 456 273 Q 456 274 456 277 L 455 310 Q 454 329 450 348 Q 432 576 432 652 C 432 677 432 677 411 691 Z" fill="lightgray" class="stroke step8"/>
    <path d="M 729 297 Q 742 269 770 214 Q 780 195 791 196 Q 809 200 819 229 Q 859 317 861 434 Q 868 507 872 593 Q 878 645 903 679 Q 921 701 908 715 Q 883 739 832 761 Q 811 773 776 759 Q 635 710 411 691 C 381 688 402 648 432 652 Q 441 651 450 653 Q 567 677 749 707 Q 782 711 795 697 Q 808 690 808 657 Q 809 501 782 349 Q 781 322 769 319 Q 766 318 753 322 C 724 314 721 313 729 297 Z" fill="lightgray" class="stroke step8"/>
    <path d="M 536 566 Q 526 572 500 576 Q 491 577 488 574 Q 484 570 490 557 Q 511 514 524 444 Q 527 423 539 409 Q 552 393 557 404 Q 560 411 560 424 L 557 455 Q 547 519 544 542 C 541 564 541 564 536 566 Z" fill="lightgray" class="stroke step8"/>
    <path d="M 681 465 Q 697 526 718 546 Q 737 567 718 579 Q 702 589 680 604 Q 664 613 622 590 Q 577 575 536 566 C 507 559 516 532 544 542 Q 548 545 625 562 Q 647 566 654 558 Q 660 554 653 525 Q 647 501 640 473 C 633 444 673 436 681 465 Z" fill="lightgray" class="stroke step8"/>
    <path d="M 560 424 Q 567 423 576 425 Q 612 432 689 436 Q 699 437 700 445 Q 700 452 681 465 L 640 473 Q 634 474 628 472 Q 589 462 557 455 C 528 449 530 426 560 424 Z" fill="lightgray" class="stroke step8"/>
    <path d="M 456 277 Q 466 276 479 277 Q 560 292 729 297 C 759 298 775 302 753 322 Q 726 349 688 341 Q 558 317 455 310 C 425 308 426 279 456 277 Z" fill="lightgray" class="stroke step8"/>
    <path d="M 208 702 Q 230 678 253 651 Q 266 636 283 636 Q 293 635 301 649 Q 307 664 300 696 Q 296 715 267 730 Q 201 761 184 755 Q 178 751 179 738 Q 182 726 208 702 Z" fill="lightgray" class="stroke step8"/>
    <path d="M 275 205 Q 291 215 294 234 Q 298 271 252 329 Q 231 359 268 421 Q 268 431 315 479 Q 337 495 319 513 Q 300 529 265 545 Q 238 560 209 531 Q 127 483 91 485 Q 84 486 82 481 Q 81 475 89 471 Q 126 456 216 488 Q 223 492 231 484 Q 252 459 228 427 Q 209 405 195 372 Q 189 354 230 287 Q 233 280 237 273 Q 256 237 257 210 Q 256 209 255 206 C 254 185 254 185 275 205 Z" fill="lightgray" class="stroke step8"/>
    <path d="M 255 206 Q 203 207 156 194 Q 116 181 88 179 Q 75 179 76 167 Q 80 157 120 134 Q 141 125 169 145 Q 199 176 263 173 Q 329 169 526 89 Q 560 76 592 61 Q 730 -3 788 8 Q 878 33 976 94 Q 983 97 981 103 Q 980 107 964 107 Q 706 92 523 136 Q 441 152 388 173 Q 328 198 275 205 L 255 206 Z" fill="lightgray" class="stroke step8"/></g></svg>