<svg version="1.1" viewBox="0 0 12288 1024" xmlns="http://www.w3.org/2000/svg">
  
  <g transform="scale(1, -1) translate(0, -900)" class="origin">
    <style type="text/css">
        .origin {display:none;}
        .hide {display:none;}
        .stroke {fill: #000000;}
        
.step1 {transform: translateX(1024px);}
.step2 {transform: translateX(2048px);}
.step3 {transform: translateX(3072px);}
.step4 {transform: translateX(4096px);}
.step5 {transform: translateX(5120px);}
.step6 {transform: translateX(6144px);}
.step7 {transform: translateX(7168px);}
.step8 {transform: translateX(8192px);}
.step9 {transform: translateX(9216px);}
.step10 {transform: translateX(10240px);}
.step11 {transform: translateX(11264px);}
.step12 {transform: translateX(12288px);}
.step13 {transform: translateX(13312px);}
.step14 {transform: translateX(14336px);}
.step15 {transform: translateX(15360px);}
.step16 {transform: translateX(16384px);}
.step17 {transform: translateX(17408px);}
.step18 {transform: translateX(18432px);}
.step19 {transform: translateX(19456px);}
.step20 {transform: translateX(20480px);}
.step21 {transform: translateX(21504px);}
.step22 {transform: translateX(22528px);}
.step23 {transform: translateX(23552px);}
.step24 {transform: translateX(24576px);}
.step25 {transform: translateX(25600px);}
.step26 {transform: translateX(26624px);}
.step27 {transform: translateX(27648px);}
.step28 {transform: translateX(28672px);}
.step29 {transform: translateX(29696px);}
    </style>

    <path d="M 517 531 Q 521 534 526 559 L 525 581 Q 524 591 523 600 Q 519 625 515 644 L 510 669 Q 503 712 501 730 C 498 754 498 754 487 759 Q 477 765 449 768 Q 439 772 435 766 Q 429 760 437 745 Q 465 687 481 591 Q 484 563 501 543 Q 502 542 505 538 C 514 526 514 526 517 531 Z" fill="lightgray"/>
    <path d="M 665 576 Q 684 545 701 537 Q 711 530 726 550 Q 739 572 767 686 Q 776 717 798 740 Q 811 752 800 766 Q 785 782 744 807 Q 728 814 653 796 Q 620 796 487 759 C 458 751 472 722 501 730 Q 565 749 672 767 Q 699 771 707 763 Q 717 750 716 737 Q 694 611 678 598 C 665 576 665 576 665 576 Z" fill="lightgray"/>
    <path d="M 515 644 Q 518 648 653 670 Q 674 674 665 685 Q 655 698 633 701 Q 606 702 510 669 C 482 659 487 633 515 644 Z" fill="lightgray"/>
    <path d="M 526 559 Q 527 559 530 559 Q 606 569 665 576 C 695 580 700 580 678 598 Q 672 604 661 606 Q 637 610 525 581 C 496 574 496 558 526 559 Z" fill="lightgray"/>
    <path d="M 519 472 Q 529 487 540 498 Q 547 507 537 518 Q 527 525 517 531 L 505 538 Q 498 542 489 540 Q 482 539 482 528 Q 492 483 442 426 Q 430 413 425 405 Q 419 395 430 397 Q 460 403 501 449 L 519 472 Z" fill="lightgray"/>
    <path d="M 600 457 Q 729 478 755 478 Q 768 478 773 472 Q 792 439 778 279 Q 769 228 756 200 Q 747 178 735 176 Q 723 173 660 194 Q 651 197 651 192 Q 651 188 661 180 Q 700 141 717 113 Q 727 95 739 96 Q 752 95 766 109 Q 820 157 835 307 Q 847 445 853 452 Q 854 456 858 459 Q 870 471 869 478 Q 868 485 850 497 Q 825 515 794 524 Q 770 531 755 522 Q 733 515 683 503 Q 613 487 562 479 Q 538 476 519 472 C 489 467 471 449 501 449 Q 517 446 576 454 L 600 457 Z" fill="lightgray"/>
    <path d="M 607 388 Q 631 418 618 439 Q 611 449 604 454 Q 603 455 600 457 C 576 475 570 479 576 454 Q 576 453 577 450 Q 577 449 578 446 Q 584 419 541 359 Q 523 332 498 306 Q 494 302 493 298 Q 493 294 497 294 Q 536 306 596 374 L 607 388 Z" fill="lightgray"/>
    <path d="M 596 374 Q 599 368 617 358 Q 650 339 685 315 Q 695 308 705 310 Q 712 311 714 320 Q 715 330 707 348 Q 695 375 609 388 L 607 388 C 584 390 584 390 596 374 Z" fill="lightgray"/>
    <path d="M 457 346 Q 461 358 450 366 Q 434 381 409 386 Q 397 389 392 382 Q 388 376 397 365 Q 413 346 416 315 Q 417 264 402 238 Q 393 226 398 218 Q 405 205 418 193 Q 427 186 439 197 Q 488 239 647 239 Q 668 239 693 237 Q 711 236 718 240 Q 724 244 719 254 Q 715 264 684 281 Q 666 290 607 279 Q 535 273 465 255 Q 458 252 456 255 Q 450 258 452 268 Q 452 329 457 346 Z" fill="lightgray"/>
    <path d="M 241 706 Q 266 682 293 653 Q 308 637 326 638 Q 338 638 344 653 Q 351 669 341 704 Q 332 737 237 761 Q 219 765 212 763 Q 206 759 207 744 Q 211 731 241 706 Z" fill="lightgray"/>
    <path d="M 315 180 Q 327 189 331 206 Q 338 249 292 325 Q 261 379 334 467 Q 337 471 342 475 Q 363 494 343 509 Q 322 525 287 538 Q 265 550 247 532 Q 217 507 177 489 Q 125 464 107 465 Q 100 465 98 460 Q 97 456 105 451 Q 144 435 241 478 Q 248 482 258 473 Q 279 451 257 424 Q 205 370 255 306 Q 300 219 290 182 C 287 152 295 157 315 180 Z" fill="lightgray"/>
    <path d="M 290 182 Q 244 185 196 168 Q 157 152 98 145 Q 91 145 88 136 Q 85 129 94 119 Q 112 101 136 90 Q 148 84 166 99 Q 239 156 312 141 Q 376 126 504 68 Q 729 -37 808 -10 Q 871 12 924 48 Q 948 64 923 64 Q 707 55 531 110 Q 464 131 385 161 Q 351 176 315 180 L 290 182 Z" fill="lightgray"/></g>
<g transform="scale(1, -1) translate(0, -900)">
    <style type="text/css">
        .origin {display:none;}
        .hide {display:none;}
        .stroke {fill: #000000;}
        
.step1 {transform: translateX(1024px);}
.step2 {transform: translateX(2048px);}
.step3 {transform: translateX(3072px);}
.step4 {transform: translateX(4096px);}
.step5 {transform: translateX(5120px);}
.step6 {transform: translateX(6144px);}
.step7 {transform: translateX(7168px);}
.step8 {transform: translateX(8192px);}
.step9 {transform: translateX(9216px);}
.step10 {transform: translateX(10240px);}
.step11 {transform: translateX(11264px);}
.step12 {transform: translateX(12288px);}
.step13 {transform: translateX(13312px);}
.step14 {transform: translateX(14336px);}
.step15 {transform: translateX(15360px);}
.step16 {transform: translateX(16384px);}
.step17 {transform: translateX(17408px);}
.step18 {transform: translateX(18432px);}
.step19 {transform: translateX(19456px);}
.step20 {transform: translateX(20480px);}
.step21 {transform: translateX(21504px);}
.step22 {transform: translateX(22528px);}
.step23 {transform: translateX(23552px);}
.step24 {transform: translateX(24576px);}
.step25 {transform: translateX(25600px);}
.step26 {transform: translateX(26624px);}
.step27 {transform: translateX(27648px);}
.step28 {transform: translateX(28672px);}
.step29 {transform: translateX(29696px);}
    </style>

    <path d="M 517 531 Q 521 534 526 559 L 525 581 Q 524 591 523 600 Q 519 625 515 644 L 510 669 Q 503 712 501 730 C 498 754 498 754 487 759 Q 477 765 449 768 Q 439 772 435 766 Q 429 760 437 745 Q 465 687 481 591 Q 484 563 501 543 Q 502 542 505 538 C 514 526 514 526 517 531 Z" fill="lightgray" class="stroke step0"/>
    <path d="M 665 576 Q 684 545 701 537 Q 711 530 726 550 Q 739 572 767 686 Q 776 717 798 740 Q 811 752 800 766 Q 785 782 744 807 Q 728 814 653 796 Q 620 796 487 759 C 458 751 472 722 501 730 Q 565 749 672 767 Q 699 771 707 763 Q 717 750 716 737 Q 694 611 678 598 C 665 576 665 576 665 576 Z" fill="lightgray" class="hide"/>
    <path d="M 515 644 Q 518 648 653 670 Q 674 674 665 685 Q 655 698 633 701 Q 606 702 510 669 C 482 659 487 633 515 644 Z" fill="lightgray" class="hide"/>
    <path d="M 526 559 Q 527 559 530 559 Q 606 569 665 576 C 695 580 700 580 678 598 Q 672 604 661 606 Q 637 610 525 581 C 496 574 496 558 526 559 Z" fill="lightgray" class="hide"/>
    <path d="M 519 472 Q 529 487 540 498 Q 547 507 537 518 Q 527 525 517 531 L 505 538 Q 498 542 489 540 Q 482 539 482 528 Q 492 483 442 426 Q 430 413 425 405 Q 419 395 430 397 Q 460 403 501 449 L 519 472 Z" fill="lightgray" class="hide"/>
    <path d="M 600 457 Q 729 478 755 478 Q 768 478 773 472 Q 792 439 778 279 Q 769 228 756 200 Q 747 178 735 176 Q 723 173 660 194 Q 651 197 651 192 Q 651 188 661 180 Q 700 141 717 113 Q 727 95 739 96 Q 752 95 766 109 Q 820 157 835 307 Q 847 445 853 452 Q 854 456 858 459 Q 870 471 869 478 Q 868 485 850 497 Q 825 515 794 524 Q 770 531 755 522 Q 733 515 683 503 Q 613 487 562 479 Q 538 476 519 472 C 489 467 471 449 501 449 Q 517 446 576 454 L 600 457 Z" fill="lightgray" class="hide"/>
    <path d="M 607 388 Q 631 418 618 439 Q 611 449 604 454 Q 603 455 600 457 C 576 475 570 479 576 454 Q 576 453 577 450 Q 577 449 578 446 Q 584 419 541 359 Q 523 332 498 306 Q 494 302 493 298 Q 493 294 497 294 Q 536 306 596 374 L 607 388 Z" fill="lightgray" class="hide"/>
    <path d="M 596 374 Q 599 368 617 358 Q 650 339 685 315 Q 695 308 705 310 Q 712 311 714 320 Q 715 330 707 348 Q 695 375 609 388 L 607 388 C 584 390 584 390 596 374 Z" fill="lightgray" class="hide"/>
    <path d="M 457 346 Q 461 358 450 366 Q 434 381 409 386 Q 397 389 392 382 Q 388 376 397 365 Q 413 346 416 315 Q 417 264 402 238 Q 393 226 398 218 Q 405 205 418 193 Q 427 186 439 197 Q 488 239 647 239 Q 668 239 693 237 Q 711 236 718 240 Q 724 244 719 254 Q 715 264 684 281 Q 666 290 607 279 Q 535 273 465 255 Q 458 252 456 255 Q 450 258 452 268 Q 452 329 457 346 Z" fill="lightgray" class="hide"/>
    <path d="M 241 706 Q 266 682 293 653 Q 308 637 326 638 Q 338 638 344 653 Q 351 669 341 704 Q 332 737 237 761 Q 219 765 212 763 Q 206 759 207 744 Q 211 731 241 706 Z" fill="lightgray" class="hide"/>
    <path d="M 315 180 Q 327 189 331 206 Q 338 249 292 325 Q 261 379 334 467 Q 337 471 342 475 Q 363 494 343 509 Q 322 525 287 538 Q 265 550 247 532 Q 217 507 177 489 Q 125 464 107 465 Q 100 465 98 460 Q 97 456 105 451 Q 144 435 241 478 Q 248 482 258 473 Q 279 451 257 424 Q 205 370 255 306 Q 300 219 290 182 C 287 152 295 157 315 180 Z" fill="lightgray" class="hide"/>
    <path d="M 290 182 Q 244 185 196 168 Q 157 152 98 145 Q 91 145 88 136 Q 85 129 94 119 Q 112 101 136 90 Q 148 84 166 99 Q 239 156 312 141 Q 376 126 504 68 Q 729 -37 808 -10 Q 871 12 924 48 Q 948 64 923 64 Q 707 55 531 110 Q 464 131 385 161 Q 351 176 315 180 L 290 182 Z" fill="lightgray" class="hide"/></g><g transform="scale(1, -1) translate(0, -900)">
    <style type="text/css">
        .origin {display:none;}
        .hide {display:none;}
        .stroke {fill: #000000;}
        
.step1 {transform: translateX(1024px);}
.step2 {transform: translateX(2048px);}
.step3 {transform: translateX(3072px);}
.step4 {transform: translateX(4096px);}
.step5 {transform: translateX(5120px);}
.step6 {transform: translateX(6144px);}
.step7 {transform: translateX(7168px);}
.step8 {transform: translateX(8192px);}
.step9 {transform: translateX(9216px);}
.step10 {transform: translateX(10240px);}
.step11 {transform: translateX(11264px);}
.step12 {transform: translateX(12288px);}
.step13 {transform: translateX(13312px);}
.step14 {transform: translateX(14336px);}
.step15 {transform: translateX(15360px);}
.step16 {transform: translateX(16384px);}
.step17 {transform: translateX(17408px);}
.step18 {transform: translateX(18432px);}
.step19 {transform: translateX(19456px);}
.step20 {transform: translateX(20480px);}
.step21 {transform: translateX(21504px);}
.step22 {transform: translateX(22528px);}
.step23 {transform: translateX(23552px);}
.step24 {transform: translateX(24576px);}
.step25 {transform: translateX(25600px);}
.step26 {transform: translateX(26624px);}
.step27 {transform: translateX(27648px);}
.step28 {transform: translateX(28672px);}
.step29 {transform: translateX(29696px);}
    </style>

    <path d="M 517 531 Q 521 534 526 559 L 525 581 Q 524 591 523 600 Q 519 625 515 644 L 510 669 Q 503 712 501 730 C 498 754 498 754 487 759 Q 477 765 449 768 Q 439 772 435 766 Q 429 760 437 745 Q 465 687 481 591 Q 484 563 501 543 Q 502 542 505 538 C 514 526 514 526 517 531 Z" fill="lightgray" class="stroke step1"/>
    <path d="M 665 576 Q 684 545 701 537 Q 711 530 726 550 Q 739 572 767 686 Q 776 717 798 740 Q 811 752 800 766 Q 785 782 744 807 Q 728 814 653 796 Q 620 796 487 759 C 458 751 472 722 501 730 Q 565 749 672 767 Q 699 771 707 763 Q 717 750 716 737 Q 694 611 678 598 C 665 576 665 576 665 576 Z" fill="lightgray" class="stroke step1"/>
    <path d="M 515 644 Q 518 648 653 670 Q 674 674 665 685 Q 655 698 633 701 Q 606 702 510 669 C 482 659 487 633 515 644 Z" fill="lightgray" class="hide"/>
    <path d="M 526 559 Q 527 559 530 559 Q 606 569 665 576 C 695 580 700 580 678 598 Q 672 604 661 606 Q 637 610 525 581 C 496 574 496 558 526 559 Z" fill="lightgray" class="hide"/>
    <path d="M 519 472 Q 529 487 540 498 Q 547 507 537 518 Q 527 525 517 531 L 505 538 Q 498 542 489 540 Q 482 539 482 528 Q 492 483 442 426 Q 430 413 425 405 Q 419 395 430 397 Q 460 403 501 449 L 519 472 Z" fill="lightgray" class="hide"/>
    <path d="M 600 457 Q 729 478 755 478 Q 768 478 773 472 Q 792 439 778 279 Q 769 228 756 200 Q 747 178 735 176 Q 723 173 660 194 Q 651 197 651 192 Q 651 188 661 180 Q 700 141 717 113 Q 727 95 739 96 Q 752 95 766 109 Q 820 157 835 307 Q 847 445 853 452 Q 854 456 858 459 Q 870 471 869 478 Q 868 485 850 497 Q 825 515 794 524 Q 770 531 755 522 Q 733 515 683 503 Q 613 487 562 479 Q 538 476 519 472 C 489 467 471 449 501 449 Q 517 446 576 454 L 600 457 Z" fill="lightgray" class="hide"/>
    <path d="M 607 388 Q 631 418 618 439 Q 611 449 604 454 Q 603 455 600 457 C 576 475 570 479 576 454 Q 576 453 577 450 Q 577 449 578 446 Q 584 419 541 359 Q 523 332 498 306 Q 494 302 493 298 Q 493 294 497 294 Q 536 306 596 374 L 607 388 Z" fill="lightgray" class="hide"/>
    <path d="M 596 374 Q 599 368 617 358 Q 650 339 685 315 Q 695 308 705 310 Q 712 311 714 320 Q 715 330 707 348 Q 695 375 609 388 L 607 388 C 584 390 584 390 596 374 Z" fill="lightgray" class="hide"/>
    <path d="M 457 346 Q 461 358 450 366 Q 434 381 409 386 Q 397 389 392 382 Q 388 376 397 365 Q 413 346 416 315 Q 417 264 402 238 Q 393 226 398 218 Q 405 205 418 193 Q 427 186 439 197 Q 488 239 647 239 Q 668 239 693 237 Q 711 236 718 240 Q 724 244 719 254 Q 715 264 684 281 Q 666 290 607 279 Q 535 273 465 255 Q 458 252 456 255 Q 450 258 452 268 Q 452 329 457 346 Z" fill="lightgray" class="hide"/>
    <path d="M 241 706 Q 266 682 293 653 Q 308 637 326 638 Q 338 638 344 653 Q 351 669 341 704 Q 332 737 237 761 Q 219 765 212 763 Q 206 759 207 744 Q 211 731 241 706 Z" fill="lightgray" class="hide"/>
    <path d="M 315 180 Q 327 189 331 206 Q 338 249 292 325 Q 261 379 334 467 Q 337 471 342 475 Q 363 494 343 509 Q 322 525 287 538 Q 265 550 247 532 Q 217 507 177 489 Q 125 464 107 465 Q 100 465 98 460 Q 97 456 105 451 Q 144 435 241 478 Q 248 482 258 473 Q 279 451 257 424 Q 205 370 255 306 Q 300 219 290 182 C 287 152 295 157 315 180 Z" fill="lightgray" class="hide"/>
    <path d="M 290 182 Q 244 185 196 168 Q 157 152 98 145 Q 91 145 88 136 Q 85 129 94 119 Q 112 101 136 90 Q 148 84 166 99 Q 239 156 312 141 Q 376 126 504 68 Q 729 -37 808 -10 Q 871 12 924 48 Q 948 64 923 64 Q 707 55 531 110 Q 464 131 385 161 Q 351 176 315 180 L 290 182 Z" fill="lightgray" class="hide"/></g><g transform="scale(1, -1) translate(0, -900)">
    <style type="text/css">
        .origin {display:none;}
        .hide {display:none;}
        .stroke {fill: #000000;}
        
.step1 {transform: translateX(1024px);}
.step2 {transform: translateX(2048px);}
.step3 {transform: translateX(3072px);}
.step4 {transform: translateX(4096px);}
.step5 {transform: translateX(5120px);}
.step6 {transform: translateX(6144px);}
.step7 {transform: translateX(7168px);}
.step8 {transform: translateX(8192px);}
.step9 {transform: translateX(9216px);}
.step10 {transform: translateX(10240px);}
.step11 {transform: translateX(11264px);}
.step12 {transform: translateX(12288px);}
.step13 {transform: translateX(13312px);}
.step14 {transform: translateX(14336px);}
.step15 {transform: translateX(15360px);}
.step16 {transform: translateX(16384px);}
.step17 {transform: translateX(17408px);}
.step18 {transform: translateX(18432px);}
.step19 {transform: translateX(19456px);}
.step20 {transform: translateX(20480px);}
.step21 {transform: translateX(21504px);}
.step22 {transform: translateX(22528px);}
.step23 {transform: translateX(23552px);}
.step24 {transform: translateX(24576px);}
.step25 {transform: translateX(25600px);}
.step26 {transform: translateX(26624px);}
.step27 {transform: translateX(27648px);}
.step28 {transform: translateX(28672px);}
.step29 {transform: translateX(29696px);}
    </style>

    <path d="M 517 531 Q 521 534 526 559 L 525 581 Q 524 591 523 600 Q 519 625 515 644 L 510 669 Q 503 712 501 730 C 498 754 498 754 487 759 Q 477 765 449 768 Q 439 772 435 766 Q 429 760 437 745 Q 465 687 481 591 Q 484 563 501 543 Q 502 542 505 538 C 514 526 514 526 517 531 Z" fill="lightgray" class="stroke step2"/>
    <path d="M 665 576 Q 684 545 701 537 Q 711 530 726 550 Q 739 572 767 686 Q 776 717 798 740 Q 811 752 800 766 Q 785 782 744 807 Q 728 814 653 796 Q 620 796 487 759 C 458 751 472 722 501 730 Q 565 749 672 767 Q 699 771 707 763 Q 717 750 716 737 Q 694 611 678 598 C 665 576 665 576 665 576 Z" fill="lightgray" class="stroke step2"/>
    <path d="M 515 644 Q 518 648 653 670 Q 674 674 665 685 Q 655 698 633 701 Q 606 702 510 669 C 482 659 487 633 515 644 Z" fill="lightgray" class="stroke step2"/>
    <path d="M 526 559 Q 527 559 530 559 Q 606 569 665 576 C 695 580 700 580 678 598 Q 672 604 661 606 Q 637 610 525 581 C 496 574 496 558 526 559 Z" fill="lightgray" class="hide"/>
    <path d="M 519 472 Q 529 487 540 498 Q 547 507 537 518 Q 527 525 517 531 L 505 538 Q 498 542 489 540 Q 482 539 482 528 Q 492 483 442 426 Q 430 413 425 405 Q 419 395 430 397 Q 460 403 501 449 L 519 472 Z" fill="lightgray" class="hide"/>
    <path d="M 600 457 Q 729 478 755 478 Q 768 478 773 472 Q 792 439 778 279 Q 769 228 756 200 Q 747 178 735 176 Q 723 173 660 194 Q 651 197 651 192 Q 651 188 661 180 Q 700 141 717 113 Q 727 95 739 96 Q 752 95 766 109 Q 820 157 835 307 Q 847 445 853 452 Q 854 456 858 459 Q 870 471 869 478 Q 868 485 850 497 Q 825 515 794 524 Q 770 531 755 522 Q 733 515 683 503 Q 613 487 562 479 Q 538 476 519 472 C 489 467 471 449 501 449 Q 517 446 576 454 L 600 457 Z" fill="lightgray" class="hide"/>
    <path d="M 607 388 Q 631 418 618 439 Q 611 449 604 454 Q 603 455 600 457 C 576 475 570 479 576 454 Q 576 453 577 450 Q 577 449 578 446 Q 584 419 541 359 Q 523 332 498 306 Q 494 302 493 298 Q 493 294 497 294 Q 536 306 596 374 L 607 388 Z" fill="lightgray" class="hide"/>
    <path d="M 596 374 Q 599 368 617 358 Q 650 339 685 315 Q 695 308 705 310 Q 712 311 714 320 Q 715 330 707 348 Q 695 375 609 388 L 607 388 C 584 390 584 390 596 374 Z" fill="lightgray" class="hide"/>
    <path d="M 457 346 Q 461 358 450 366 Q 434 381 409 386 Q 397 389 392 382 Q 388 376 397 365 Q 413 346 416 315 Q 417 264 402 238 Q 393 226 398 218 Q 405 205 418 193 Q 427 186 439 197 Q 488 239 647 239 Q 668 239 693 237 Q 711 236 718 240 Q 724 244 719 254 Q 715 264 684 281 Q 666 290 607 279 Q 535 273 465 255 Q 458 252 456 255 Q 450 258 452 268 Q 452 329 457 346 Z" fill="lightgray" class="hide"/>
    <path d="M 241 706 Q 266 682 293 653 Q 308 637 326 638 Q 338 638 344 653 Q 351 669 341 704 Q 332 737 237 761 Q 219 765 212 763 Q 206 759 207 744 Q 211 731 241 706 Z" fill="lightgray" class="hide"/>
    <path d="M 315 180 Q 327 189 331 206 Q 338 249 292 325 Q 261 379 334 467 Q 337 471 342 475 Q 363 494 343 509 Q 322 525 287 538 Q 265 550 247 532 Q 217 507 177 489 Q 125 464 107 465 Q 100 465 98 460 Q 97 456 105 451 Q 144 435 241 478 Q 248 482 258 473 Q 279 451 257 424 Q 205 370 255 306 Q 300 219 290 182 C 287 152 295 157 315 180 Z" fill="lightgray" class="hide"/>
    <path d="M 290 182 Q 244 185 196 168 Q 157 152 98 145 Q 91 145 88 136 Q 85 129 94 119 Q 112 101 136 90 Q 148 84 166 99 Q 239 156 312 141 Q 376 126 504 68 Q 729 -37 808 -10 Q 871 12 924 48 Q 948 64 923 64 Q 707 55 531 110 Q 464 131 385 161 Q 351 176 315 180 L 290 182 Z" fill="lightgray" class="hide"/></g><g transform="scale(1, -1) translate(0, -900)">
    <style type="text/css">
        .origin {display:none;}
        .hide {display:none;}
        .stroke {fill: #000000;}
        
.step1 {transform: translateX(1024px);}
.step2 {transform: translateX(2048px);}
.step3 {transform: translateX(3072px);}
.step4 {transform: translateX(4096px);}
.step5 {transform: translateX(5120px);}
.step6 {transform: translateX(6144px);}
.step7 {transform: translateX(7168px);}
.step8 {transform: translateX(8192px);}
.step9 {transform: translateX(9216px);}
.step10 {transform: translateX(10240px);}
.step11 {transform: translateX(11264px);}
.step12 {transform: translateX(12288px);}
.step13 {transform: translateX(13312px);}
.step14 {transform: translateX(14336px);}
.step15 {transform: translateX(15360px);}
.step16 {transform: translateX(16384px);}
.step17 {transform: translateX(17408px);}
.step18 {transform: translateX(18432px);}
.step19 {transform: translateX(19456px);}
.step20 {transform: translateX(20480px);}
.step21 {transform: translateX(21504px);}
.step22 {transform: translateX(22528px);}
.step23 {transform: translateX(23552px);}
.step24 {transform: translateX(24576px);}
.step25 {transform: translateX(25600px);}
.step26 {transform: translateX(26624px);}
.step27 {transform: translateX(27648px);}
.step28 {transform: translateX(28672px);}
.step29 {transform: translateX(29696px);}
    </style>

    <path d="M 517 531 Q 521 534 526 559 L 525 581 Q 524 591 523 600 Q 519 625 515 644 L 510 669 Q 503 712 501 730 C 498 754 498 754 487 759 Q 477 765 449 768 Q 439 772 435 766 Q 429 760 437 745 Q 465 687 481 591 Q 484 563 501 543 Q 502 542 505 538 C 514 526 514 526 517 531 Z" fill="lightgray" class="stroke step3"/>
    <path d="M 665 576 Q 684 545 701 537 Q 711 530 726 550 Q 739 572 767 686 Q 776 717 798 740 Q 811 752 800 766 Q 785 782 744 807 Q 728 814 653 796 Q 620 796 487 759 C 458 751 472 722 501 730 Q 565 749 672 767 Q 699 771 707 763 Q 717 750 716 737 Q 694 611 678 598 C 665 576 665 576 665 576 Z" fill="lightgray" class="stroke step3"/>
    <path d="M 515 644 Q 518 648 653 670 Q 674 674 665 685 Q 655 698 633 701 Q 606 702 510 669 C 482 659 487 633 515 644 Z" fill="lightgray" class="stroke step3"/>
    <path d="M 526 559 Q 527 559 530 559 Q 606 569 665 576 C 695 580 700 580 678 598 Q 672 604 661 606 Q 637 610 525 581 C 496 574 496 558 526 559 Z" fill="lightgray" class="stroke step3"/>
    <path d="M 519 472 Q 529 487 540 498 Q 547 507 537 518 Q 527 525 517 531 L 505 538 Q 498 542 489 540 Q 482 539 482 528 Q 492 483 442 426 Q 430 413 425 405 Q 419 395 430 397 Q 460 403 501 449 L 519 472 Z" fill="lightgray" class="hide"/>
    <path d="M 600 457 Q 729 478 755 478 Q 768 478 773 472 Q 792 439 778 279 Q 769 228 756 200 Q 747 178 735 176 Q 723 173 660 194 Q 651 197 651 192 Q 651 188 661 180 Q 700 141 717 113 Q 727 95 739 96 Q 752 95 766 109 Q 820 157 835 307 Q 847 445 853 452 Q 854 456 858 459 Q 870 471 869 478 Q 868 485 850 497 Q 825 515 794 524 Q 770 531 755 522 Q 733 515 683 503 Q 613 487 562 479 Q 538 476 519 472 C 489 467 471 449 501 449 Q 517 446 576 454 L 600 457 Z" fill="lightgray" class="hide"/>
    <path d="M 607 388 Q 631 418 618 439 Q 611 449 604 454 Q 603 455 600 457 C 576 475 570 479 576 454 Q 576 453 577 450 Q 577 449 578 446 Q 584 419 541 359 Q 523 332 498 306 Q 494 302 493 298 Q 493 294 497 294 Q 536 306 596 374 L 607 388 Z" fill="lightgray" class="hide"/>
    <path d="M 596 374 Q 599 368 617 358 Q 650 339 685 315 Q 695 308 705 310 Q 712 311 714 320 Q 715 330 707 348 Q 695 375 609 388 L 607 388 C 584 390 584 390 596 374 Z" fill="lightgray" class="hide"/>
    <path d="M 457 346 Q 461 358 450 366 Q 434 381 409 386 Q 397 389 392 382 Q 388 376 397 365 Q 413 346 416 315 Q 417 264 402 238 Q 393 226 398 218 Q 405 205 418 193 Q 427 186 439 197 Q 488 239 647 239 Q 668 239 693 237 Q 711 236 718 240 Q 724 244 719 254 Q 715 264 684 281 Q 666 290 607 279 Q 535 273 465 255 Q 458 252 456 255 Q 450 258 452 268 Q 452 329 457 346 Z" fill="lightgray" class="hide"/>
    <path d="M 241 706 Q 266 682 293 653 Q 308 637 326 638 Q 338 638 344 653 Q 351 669 341 704 Q 332 737 237 761 Q 219 765 212 763 Q 206 759 207 744 Q 211 731 241 706 Z" fill="lightgray" class="hide"/>
    <path d="M 315 180 Q 327 189 331 206 Q 338 249 292 325 Q 261 379 334 467 Q 337 471 342 475 Q 363 494 343 509 Q 322 525 287 538 Q 265 550 247 532 Q 217 507 177 489 Q 125 464 107 465 Q 100 465 98 460 Q 97 456 105 451 Q 144 435 241 478 Q 248 482 258 473 Q 279 451 257 424 Q 205 370 255 306 Q 300 219 290 182 C 287 152 295 157 315 180 Z" fill="lightgray" class="hide"/>
    <path d="M 290 182 Q 244 185 196 168 Q 157 152 98 145 Q 91 145 88 136 Q 85 129 94 119 Q 112 101 136 90 Q 148 84 166 99 Q 239 156 312 141 Q 376 126 504 68 Q 729 -37 808 -10 Q 871 12 924 48 Q 948 64 923 64 Q 707 55 531 110 Q 464 131 385 161 Q 351 176 315 180 L 290 182 Z" fill="lightgray" class="hide"/></g><g transform="scale(1, -1) translate(0, -900)">
    <style type="text/css">
        .origin {display:none;}
        .hide {display:none;}
        .stroke {fill: #000000;}
        
.step1 {transform: translateX(1024px);}
.step2 {transform: translateX(2048px);}
.step3 {transform: translateX(3072px);}
.step4 {transform: translateX(4096px);}
.step5 {transform: translateX(5120px);}
.step6 {transform: translateX(6144px);}
.step7 {transform: translateX(7168px);}
.step8 {transform: translateX(8192px);}
.step9 {transform: translateX(9216px);}
.step10 {transform: translateX(10240px);}
.step11 {transform: translateX(11264px);}
.step12 {transform: translateX(12288px);}
.step13 {transform: translateX(13312px);}
.step14 {transform: translateX(14336px);}
.step15 {transform: translateX(15360px);}
.step16 {transform: translateX(16384px);}
.step17 {transform: translateX(17408px);}
.step18 {transform: translateX(18432px);}
.step19 {transform: translateX(19456px);}
.step20 {transform: translateX(20480px);}
.step21 {transform: translateX(21504px);}
.step22 {transform: translateX(22528px);}
.step23 {transform: translateX(23552px);}
.step24 {transform: translateX(24576px);}
.step25 {transform: translateX(25600px);}
.step26 {transform: translateX(26624px);}
.step27 {transform: translateX(27648px);}
.step28 {transform: translateX(28672px);}
.step29 {transform: translateX(29696px);}
    </style>

    <path d="M 517 531 Q 521 534 526 559 L 525 581 Q 524 591 523 600 Q 519 625 515 644 L 510 669 Q 503 712 501 730 C 498 754 498 754 487 759 Q 477 765 449 768 Q 439 772 435 766 Q 429 760 437 745 Q 465 687 481 591 Q 484 563 501 543 Q 502 542 505 538 C 514 526 514 526 517 531 Z" fill="lightgray" class="stroke step4"/>
    <path d="M 665 576 Q 684 545 701 537 Q 711 530 726 550 Q 739 572 767 686 Q 776 717 798 740 Q 811 752 800 766 Q 785 782 744 807 Q 728 814 653 796 Q 620 796 487 759 C 458 751 472 722 501 730 Q 565 749 672 767 Q 699 771 707 763 Q 717 750 716 737 Q 694 611 678 598 C 665 576 665 576 665 576 Z" fill="lightgray" class="stroke step4"/>
    <path d="M 515 644 Q 518 648 653 670 Q 674 674 665 685 Q 655 698 633 701 Q 606 702 510 669 C 482 659 487 633 515 644 Z" fill="lightgray" class="stroke step4"/>
    <path d="M 526 559 Q 527 559 530 559 Q 606 569 665 576 C 695 580 700 580 678 598 Q 672 604 661 606 Q 637 610 525 581 C 496 574 496 558 526 559 Z" fill="lightgray" class="stroke step4"/>
    <path d="M 519 472 Q 529 487 540 498 Q 547 507 537 518 Q 527 525 517 531 L 505 538 Q 498 542 489 540 Q 482 539 482 528 Q 492 483 442 426 Q 430 413 425 405 Q 419 395 430 397 Q 460 403 501 449 L 519 472 Z" fill="lightgray" class="stroke step4"/>
    <path d="M 600 457 Q 729 478 755 478 Q 768 478 773 472 Q 792 439 778 279 Q 769 228 756 200 Q 747 178 735 176 Q 723 173 660 194 Q 651 197 651 192 Q 651 188 661 180 Q 700 141 717 113 Q 727 95 739 96 Q 752 95 766 109 Q 820 157 835 307 Q 847 445 853 452 Q 854 456 858 459 Q 870 471 869 478 Q 868 485 850 497 Q 825 515 794 524 Q 770 531 755 522 Q 733 515 683 503 Q 613 487 562 479 Q 538 476 519 472 C 489 467 471 449 501 449 Q 517 446 576 454 L 600 457 Z" fill="lightgray" class="hide"/>
    <path d="M 607 388 Q 631 418 618 439 Q 611 449 604 454 Q 603 455 600 457 C 576 475 570 479 576 454 Q 576 453 577 450 Q 577 449 578 446 Q 584 419 541 359 Q 523 332 498 306 Q 494 302 493 298 Q 493 294 497 294 Q 536 306 596 374 L 607 388 Z" fill="lightgray" class="hide"/>
    <path d="M 596 374 Q 599 368 617 358 Q 650 339 685 315 Q 695 308 705 310 Q 712 311 714 320 Q 715 330 707 348 Q 695 375 609 388 L 607 388 C 584 390 584 390 596 374 Z" fill="lightgray" class="hide"/>
    <path d="M 457 346 Q 461 358 450 366 Q 434 381 409 386 Q 397 389 392 382 Q 388 376 397 365 Q 413 346 416 315 Q 417 264 402 238 Q 393 226 398 218 Q 405 205 418 193 Q 427 186 439 197 Q 488 239 647 239 Q 668 239 693 237 Q 711 236 718 240 Q 724 244 719 254 Q 715 264 684 281 Q 666 290 607 279 Q 535 273 465 255 Q 458 252 456 255 Q 450 258 452 268 Q 452 329 457 346 Z" fill="lightgray" class="hide"/>
    <path d="M 241 706 Q 266 682 293 653 Q 308 637 326 638 Q 338 638 344 653 Q 351 669 341 704 Q 332 737 237 761 Q 219 765 212 763 Q 206 759 207 744 Q 211 731 241 706 Z" fill="lightgray" class="hide"/>
    <path d="M 315 180 Q 327 189 331 206 Q 338 249 292 325 Q 261 379 334 467 Q 337 471 342 475 Q 363 494 343 509 Q 322 525 287 538 Q 265 550 247 532 Q 217 507 177 489 Q 125 464 107 465 Q 100 465 98 460 Q 97 456 105 451 Q 144 435 241 478 Q 248 482 258 473 Q 279 451 257 424 Q 205 370 255 306 Q 300 219 290 182 C 287 152 295 157 315 180 Z" fill="lightgray" class="hide"/>
    <path d="M 290 182 Q 244 185 196 168 Q 157 152 98 145 Q 91 145 88 136 Q 85 129 94 119 Q 112 101 136 90 Q 148 84 166 99 Q 239 156 312 141 Q 376 126 504 68 Q 729 -37 808 -10 Q 871 12 924 48 Q 948 64 923 64 Q 707 55 531 110 Q 464 131 385 161 Q 351 176 315 180 L 290 182 Z" fill="lightgray" class="hide"/></g><g transform="scale(1, -1) translate(0, -900)">
    <style type="text/css">
        .origin {display:none;}
        .hide {display:none;}
        .stroke {fill: #000000;}
        
.step1 {transform: translateX(1024px);}
.step2 {transform: translateX(2048px);}
.step3 {transform: translateX(3072px);}
.step4 {transform: translateX(4096px);}
.step5 {transform: translateX(5120px);}
.step6 {transform: translateX(6144px);}
.step7 {transform: translateX(7168px);}
.step8 {transform: translateX(8192px);}
.step9 {transform: translateX(9216px);}
.step10 {transform: translateX(10240px);}
.step11 {transform: translateX(11264px);}
.step12 {transform: translateX(12288px);}
.step13 {transform: translateX(13312px);}
.step14 {transform: translateX(14336px);}
.step15 {transform: translateX(15360px);}
.step16 {transform: translateX(16384px);}
.step17 {transform: translateX(17408px);}
.step18 {transform: translateX(18432px);}
.step19 {transform: translateX(19456px);}
.step20 {transform: translateX(20480px);}
.step21 {transform: translateX(21504px);}
.step22 {transform: translateX(22528px);}
.step23 {transform: translateX(23552px);}
.step24 {transform: translateX(24576px);}
.step25 {transform: translateX(25600px);}
.step26 {transform: translateX(26624px);}
.step27 {transform: translateX(27648px);}
.step28 {transform: translateX(28672px);}
.step29 {transform: translateX(29696px);}
    </style>

    <path d="M 517 531 Q 521 534 526 559 L 525 581 Q 524 591 523 600 Q 519 625 515 644 L 510 669 Q 503 712 501 730 C 498 754 498 754 487 759 Q 477 765 449 768 Q 439 772 435 766 Q 429 760 437 745 Q 465 687 481 591 Q 484 563 501 543 Q 502 542 505 538 C 514 526 514 526 517 531 Z" fill="lightgray" class="stroke step5"/>
    <path d="M 665 576 Q 684 545 701 537 Q 711 530 726 550 Q 739 572 767 686 Q 776 717 798 740 Q 811 752 800 766 Q 785 782 744 807 Q 728 814 653 796 Q 620 796 487 759 C 458 751 472 722 501 730 Q 565 749 672 767 Q 699 771 707 763 Q 717 750 716 737 Q 694 611 678 598 C 665 576 665 576 665 576 Z" fill="lightgray" class="stroke step5"/>
    <path d="M 515 644 Q 518 648 653 670 Q 674 674 665 685 Q 655 698 633 701 Q 606 702 510 669 C 482 659 487 633 515 644 Z" fill="lightgray" class="stroke step5"/>
    <path d="M 526 559 Q 527 559 530 559 Q 606 569 665 576 C 695 580 700 580 678 598 Q 672 604 661 606 Q 637 610 525 581 C 496 574 496 558 526 559 Z" fill="lightgray" class="stroke step5"/>
    <path d="M 519 472 Q 529 487 540 498 Q 547 507 537 518 Q 527 525 517 531 L 505 538 Q 498 542 489 540 Q 482 539 482 528 Q 492 483 442 426 Q 430 413 425 405 Q 419 395 430 397 Q 460 403 501 449 L 519 472 Z" fill="lightgray" class="stroke step5"/>
    <path d="M 600 457 Q 729 478 755 478 Q 768 478 773 472 Q 792 439 778 279 Q 769 228 756 200 Q 747 178 735 176 Q 723 173 660 194 Q 651 197 651 192 Q 651 188 661 180 Q 700 141 717 113 Q 727 95 739 96 Q 752 95 766 109 Q 820 157 835 307 Q 847 445 853 452 Q 854 456 858 459 Q 870 471 869 478 Q 868 485 850 497 Q 825 515 794 524 Q 770 531 755 522 Q 733 515 683 503 Q 613 487 562 479 Q 538 476 519 472 C 489 467 471 449 501 449 Q 517 446 576 454 L 600 457 Z" fill="lightgray" class="stroke step5"/>
    <path d="M 607 388 Q 631 418 618 439 Q 611 449 604 454 Q 603 455 600 457 C 576 475 570 479 576 454 Q 576 453 577 450 Q 577 449 578 446 Q 584 419 541 359 Q 523 332 498 306 Q 494 302 493 298 Q 493 294 497 294 Q 536 306 596 374 L 607 388 Z" fill="lightgray" class="hide"/>
    <path d="M 596 374 Q 599 368 617 358 Q 650 339 685 315 Q 695 308 705 310 Q 712 311 714 320 Q 715 330 707 348 Q 695 375 609 388 L 607 388 C 584 390 584 390 596 374 Z" fill="lightgray" class="hide"/>
    <path d="M 457 346 Q 461 358 450 366 Q 434 381 409 386 Q 397 389 392 382 Q 388 376 397 365 Q 413 346 416 315 Q 417 264 402 238 Q 393 226 398 218 Q 405 205 418 193 Q 427 186 439 197 Q 488 239 647 239 Q 668 239 693 237 Q 711 236 718 240 Q 724 244 719 254 Q 715 264 684 281 Q 666 290 607 279 Q 535 273 465 255 Q 458 252 456 255 Q 450 258 452 268 Q 452 329 457 346 Z" fill="lightgray" class="hide"/>
    <path d="M 241 706 Q 266 682 293 653 Q 308 637 326 638 Q 338 638 344 653 Q 351 669 341 704 Q 332 737 237 761 Q 219 765 212 763 Q 206 759 207 744 Q 211 731 241 706 Z" fill="lightgray" class="hide"/>
    <path d="M 315 180 Q 327 189 331 206 Q 338 249 292 325 Q 261 379 334 467 Q 337 471 342 475 Q 363 494 343 509 Q 322 525 287 538 Q 265 550 247 532 Q 217 507 177 489 Q 125 464 107 465 Q 100 465 98 460 Q 97 456 105 451 Q 144 435 241 478 Q 248 482 258 473 Q 279 451 257 424 Q 205 370 255 306 Q 300 219 290 182 C 287 152 295 157 315 180 Z" fill="lightgray" class="hide"/>
    <path d="M 290 182 Q 244 185 196 168 Q 157 152 98 145 Q 91 145 88 136 Q 85 129 94 119 Q 112 101 136 90 Q 148 84 166 99 Q 239 156 312 141 Q 376 126 504 68 Q 729 -37 808 -10 Q 871 12 924 48 Q 948 64 923 64 Q 707 55 531 110 Q 464 131 385 161 Q 351 176 315 180 L 290 182 Z" fill="lightgray" class="hide"/></g><g transform="scale(1, -1) translate(0, -900)">
    <style type="text/css">
        .origin {display:none;}
        .hide {display:none;}
        .stroke {fill: #000000;}
        
.step1 {transform: translateX(1024px);}
.step2 {transform: translateX(2048px);}
.step3 {transform: translateX(3072px);}
.step4 {transform: translateX(4096px);}
.step5 {transform: translateX(5120px);}
.step6 {transform: translateX(6144px);}
.step7 {transform: translateX(7168px);}
.step8 {transform: translateX(8192px);}
.step9 {transform: translateX(9216px);}
.step10 {transform: translateX(10240px);}
.step11 {transform: translateX(11264px);}
.step12 {transform: translateX(12288px);}
.step13 {transform: translateX(13312px);}
.step14 {transform: translateX(14336px);}
.step15 {transform: translateX(15360px);}
.step16 {transform: translateX(16384px);}
.step17 {transform: translateX(17408px);}
.step18 {transform: translateX(18432px);}
.step19 {transform: translateX(19456px);}
.step20 {transform: translateX(20480px);}
.step21 {transform: translateX(21504px);}
.step22 {transform: translateX(22528px);}
.step23 {transform: translateX(23552px);}
.step24 {transform: translateX(24576px);}
.step25 {transform: translateX(25600px);}
.step26 {transform: translateX(26624px);}
.step27 {transform: translateX(27648px);}
.step28 {transform: translateX(28672px);}
.step29 {transform: translateX(29696px);}
    </style>

    <path d="M 517 531 Q 521 534 526 559 L 525 581 Q 524 591 523 600 Q 519 625 515 644 L 510 669 Q 503 712 501 730 C 498 754 498 754 487 759 Q 477 765 449 768 Q 439 772 435 766 Q 429 760 437 745 Q 465 687 481 591 Q 484 563 501 543 Q 502 542 505 538 C 514 526 514 526 517 531 Z" fill="lightgray" class="stroke step6"/>
    <path d="M 665 576 Q 684 545 701 537 Q 711 530 726 550 Q 739 572 767 686 Q 776 717 798 740 Q 811 752 800 766 Q 785 782 744 807 Q 728 814 653 796 Q 620 796 487 759 C 458 751 472 722 501 730 Q 565 749 672 767 Q 699 771 707 763 Q 717 750 716 737 Q 694 611 678 598 C 665 576 665 576 665 576 Z" fill="lightgray" class="stroke step6"/>
    <path d="M 515 644 Q 518 648 653 670 Q 674 674 665 685 Q 655 698 633 701 Q 606 702 510 669 C 482 659 487 633 515 644 Z" fill="lightgray" class="stroke step6"/>
    <path d="M 526 559 Q 527 559 530 559 Q 606 569 665 576 C 695 580 700 580 678 598 Q 672 604 661 606 Q 637 610 525 581 C 496 574 496 558 526 559 Z" fill="lightgray" class="stroke step6"/>
    <path d="M 519 472 Q 529 487 540 498 Q 547 507 537 518 Q 527 525 517 531 L 505 538 Q 498 542 489 540 Q 482 539 482 528 Q 492 483 442 426 Q 430 413 425 405 Q 419 395 430 397 Q 460 403 501 449 L 519 472 Z" fill="lightgray" class="stroke step6"/>
    <path d="M 600 457 Q 729 478 755 478 Q 768 478 773 472 Q 792 439 778 279 Q 769 228 756 200 Q 747 178 735 176 Q 723 173 660 194 Q 651 197 651 192 Q 651 188 661 180 Q 700 141 717 113 Q 727 95 739 96 Q 752 95 766 109 Q 820 157 835 307 Q 847 445 853 452 Q 854 456 858 459 Q 870 471 869 478 Q 868 485 850 497 Q 825 515 794 524 Q 770 531 755 522 Q 733 515 683 503 Q 613 487 562 479 Q 538 476 519 472 C 489 467 471 449 501 449 Q 517 446 576 454 L 600 457 Z" fill="lightgray" class="stroke step6"/>
    <path d="M 607 388 Q 631 418 618 439 Q 611 449 604 454 Q 603 455 600 457 C 576 475 570 479 576 454 Q 576 453 577 450 Q 577 449 578 446 Q 584 419 541 359 Q 523 332 498 306 Q 494 302 493 298 Q 493 294 497 294 Q 536 306 596 374 L 607 388 Z" fill="lightgray" class="stroke step6"/>
    <path d="M 596 374 Q 599 368 617 358 Q 650 339 685 315 Q 695 308 705 310 Q 712 311 714 320 Q 715 330 707 348 Q 695 375 609 388 L 607 388 C 584 390 584 390 596 374 Z" fill="lightgray" class="hide"/>
    <path d="M 457 346 Q 461 358 450 366 Q 434 381 409 386 Q 397 389 392 382 Q 388 376 397 365 Q 413 346 416 315 Q 417 264 402 238 Q 393 226 398 218 Q 405 205 418 193 Q 427 186 439 197 Q 488 239 647 239 Q 668 239 693 237 Q 711 236 718 240 Q 724 244 719 254 Q 715 264 684 281 Q 666 290 607 279 Q 535 273 465 255 Q 458 252 456 255 Q 450 258 452 268 Q 452 329 457 346 Z" fill="lightgray" class="hide"/>
    <path d="M 241 706 Q 266 682 293 653 Q 308 637 326 638 Q 338 638 344 653 Q 351 669 341 704 Q 332 737 237 761 Q 219 765 212 763 Q 206 759 207 744 Q 211 731 241 706 Z" fill="lightgray" class="hide"/>
    <path d="M 315 180 Q 327 189 331 206 Q 338 249 292 325 Q 261 379 334 467 Q 337 471 342 475 Q 363 494 343 509 Q 322 525 287 538 Q 265 550 247 532 Q 217 507 177 489 Q 125 464 107 465 Q 100 465 98 460 Q 97 456 105 451 Q 144 435 241 478 Q 248 482 258 473 Q 279 451 257 424 Q 205 370 255 306 Q 300 219 290 182 C 287 152 295 157 315 180 Z" fill="lightgray" class="hide"/>
    <path d="M 290 182 Q 244 185 196 168 Q 157 152 98 145 Q 91 145 88 136 Q 85 129 94 119 Q 112 101 136 90 Q 148 84 166 99 Q 239 156 312 141 Q 376 126 504 68 Q 729 -37 808 -10 Q 871 12 924 48 Q 948 64 923 64 Q 707 55 531 110 Q 464 131 385 161 Q 351 176 315 180 L 290 182 Z" fill="lightgray" class="hide"/></g><g transform="scale(1, -1) translate(0, -900)">
    <style type="text/css">
        .origin {display:none;}
        .hide {display:none;}
        .stroke {fill: #000000;}
        
.step1 {transform: translateX(1024px);}
.step2 {transform: translateX(2048px);}
.step3 {transform: translateX(3072px);}
.step4 {transform: translateX(4096px);}
.step5 {transform: translateX(5120px);}
.step6 {transform: translateX(6144px);}
.step7 {transform: translateX(7168px);}
.step8 {transform: translateX(8192px);}
.step9 {transform: translateX(9216px);}
.step10 {transform: translateX(10240px);}
.step11 {transform: translateX(11264px);}
.step12 {transform: translateX(12288px);}
.step13 {transform: translateX(13312px);}
.step14 {transform: translateX(14336px);}
.step15 {transform: translateX(15360px);}
.step16 {transform: translateX(16384px);}
.step17 {transform: translateX(17408px);}
.step18 {transform: translateX(18432px);}
.step19 {transform: translateX(19456px);}
.step20 {transform: translateX(20480px);}
.step21 {transform: translateX(21504px);}
.step22 {transform: translateX(22528px);}
.step23 {transform: translateX(23552px);}
.step24 {transform: translateX(24576px);}
.step25 {transform: translateX(25600px);}
.step26 {transform: translateX(26624px);}
.step27 {transform: translateX(27648px);}
.step28 {transform: translateX(28672px);}
.step29 {transform: translateX(29696px);}
    </style>

    <path d="M 517 531 Q 521 534 526 559 L 525 581 Q 524 591 523 600 Q 519 625 515 644 L 510 669 Q 503 712 501 730 C 498 754 498 754 487 759 Q 477 765 449 768 Q 439 772 435 766 Q 429 760 437 745 Q 465 687 481 591 Q 484 563 501 543 Q 502 542 505 538 C 514 526 514 526 517 531 Z" fill="lightgray" class="stroke step7"/>
    <path d="M 665 576 Q 684 545 701 537 Q 711 530 726 550 Q 739 572 767 686 Q 776 717 798 740 Q 811 752 800 766 Q 785 782 744 807 Q 728 814 653 796 Q 620 796 487 759 C 458 751 472 722 501 730 Q 565 749 672 767 Q 699 771 707 763 Q 717 750 716 737 Q 694 611 678 598 C 665 576 665 576 665 576 Z" fill="lightgray" class="stroke step7"/>
    <path d="M 515 644 Q 518 648 653 670 Q 674 674 665 685 Q 655 698 633 701 Q 606 702 510 669 C 482 659 487 633 515 644 Z" fill="lightgray" class="stroke step7"/>
    <path d="M 526 559 Q 527 559 530 559 Q 606 569 665 576 C 695 580 700 580 678 598 Q 672 604 661 606 Q 637 610 525 581 C 496 574 496 558 526 559 Z" fill="lightgray" class="stroke step7"/>
    <path d="M 519 472 Q 529 487 540 498 Q 547 507 537 518 Q 527 525 517 531 L 505 538 Q 498 542 489 540 Q 482 539 482 528 Q 492 483 442 426 Q 430 413 425 405 Q 419 395 430 397 Q 460 403 501 449 L 519 472 Z" fill="lightgray" class="stroke step7"/>
    <path d="M 600 457 Q 729 478 755 478 Q 768 478 773 472 Q 792 439 778 279 Q 769 228 756 200 Q 747 178 735 176 Q 723 173 660 194 Q 651 197 651 192 Q 651 188 661 180 Q 700 141 717 113 Q 727 95 739 96 Q 752 95 766 109 Q 820 157 835 307 Q 847 445 853 452 Q 854 456 858 459 Q 870 471 869 478 Q 868 485 850 497 Q 825 515 794 524 Q 770 531 755 522 Q 733 515 683 503 Q 613 487 562 479 Q 538 476 519 472 C 489 467 471 449 501 449 Q 517 446 576 454 L 600 457 Z" fill="lightgray" class="stroke step7"/>
    <path d="M 607 388 Q 631 418 618 439 Q 611 449 604 454 Q 603 455 600 457 C 576 475 570 479 576 454 Q 576 453 577 450 Q 577 449 578 446 Q 584 419 541 359 Q 523 332 498 306 Q 494 302 493 298 Q 493 294 497 294 Q 536 306 596 374 L 607 388 Z" fill="lightgray" class="stroke step7"/>
    <path d="M 596 374 Q 599 368 617 358 Q 650 339 685 315 Q 695 308 705 310 Q 712 311 714 320 Q 715 330 707 348 Q 695 375 609 388 L 607 388 C 584 390 584 390 596 374 Z" fill="lightgray" class="stroke step7"/>
    <path d="M 457 346 Q 461 358 450 366 Q 434 381 409 386 Q 397 389 392 382 Q 388 376 397 365 Q 413 346 416 315 Q 417 264 402 238 Q 393 226 398 218 Q 405 205 418 193 Q 427 186 439 197 Q 488 239 647 239 Q 668 239 693 237 Q 711 236 718 240 Q 724 244 719 254 Q 715 264 684 281 Q 666 290 607 279 Q 535 273 465 255 Q 458 252 456 255 Q 450 258 452 268 Q 452 329 457 346 Z" fill="lightgray" class="hide"/>
    <path d="M 241 706 Q 266 682 293 653 Q 308 637 326 638 Q 338 638 344 653 Q 351 669 341 704 Q 332 737 237 761 Q 219 765 212 763 Q 206 759 207 744 Q 211 731 241 706 Z" fill="lightgray" class="hide"/>
    <path d="M 315 180 Q 327 189 331 206 Q 338 249 292 325 Q 261 379 334 467 Q 337 471 342 475 Q 363 494 343 509 Q 322 525 287 538 Q 265 550 247 532 Q 217 507 177 489 Q 125 464 107 465 Q 100 465 98 460 Q 97 456 105 451 Q 144 435 241 478 Q 248 482 258 473 Q 279 451 257 424 Q 205 370 255 306 Q 300 219 290 182 C 287 152 295 157 315 180 Z" fill="lightgray" class="hide"/>
    <path d="M 290 182 Q 244 185 196 168 Q 157 152 98 145 Q 91 145 88 136 Q 85 129 94 119 Q 112 101 136 90 Q 148 84 166 99 Q 239 156 312 141 Q 376 126 504 68 Q 729 -37 808 -10 Q 871 12 924 48 Q 948 64 923 64 Q 707 55 531 110 Q 464 131 385 161 Q 351 176 315 180 L 290 182 Z" fill="lightgray" class="hide"/></g><g transform="scale(1, -1) translate(0, -900)">
    <style type="text/css">
        .origin {display:none;}
        .hide {display:none;}
        .stroke {fill: #000000;}
        
.step1 {transform: translateX(1024px);}
.step2 {transform: translateX(2048px);}
.step3 {transform: translateX(3072px);}
.step4 {transform: translateX(4096px);}
.step5 {transform: translateX(5120px);}
.step6 {transform: translateX(6144px);}
.step7 {transform: translateX(7168px);}
.step8 {transform: translateX(8192px);}
.step9 {transform: translateX(9216px);}
.step10 {transform: translateX(10240px);}
.step11 {transform: translateX(11264px);}
.step12 {transform: translateX(12288px);}
.step13 {transform: translateX(13312px);}
.step14 {transform: translateX(14336px);}
.step15 {transform: translateX(15360px);}
.step16 {transform: translateX(16384px);}
.step17 {transform: translateX(17408px);}
.step18 {transform: translateX(18432px);}
.step19 {transform: translateX(19456px);}
.step20 {transform: translateX(20480px);}
.step21 {transform: translateX(21504px);}
.step22 {transform: translateX(22528px);}
.step23 {transform: translateX(23552px);}
.step24 {transform: translateX(24576px);}
.step25 {transform: translateX(25600px);}
.step26 {transform: translateX(26624px);}
.step27 {transform: translateX(27648px);}
.step28 {transform: translateX(28672px);}
.step29 {transform: translateX(29696px);}
    </style>

    <path d="M 517 531 Q 521 534 526 559 L 525 581 Q 524 591 523 600 Q 519 625 515 644 L 510 669 Q 503 712 501 730 C 498 754 498 754 487 759 Q 477 765 449 768 Q 439 772 435 766 Q 429 760 437 745 Q 465 687 481 591 Q 484 563 501 543 Q 502 542 505 538 C 514 526 514 526 517 531 Z" fill="lightgray" class="stroke step8"/>
    <path d="M 665 576 Q 684 545 701 537 Q 711 530 726 550 Q 739 572 767 686 Q 776 717 798 740 Q 811 752 800 766 Q 785 782 744 807 Q 728 814 653 796 Q 620 796 487 759 C 458 751 472 722 501 730 Q 565 749 672 767 Q 699 771 707 763 Q 717 750 716 737 Q 694 611 678 598 C 665 576 665 576 665 576 Z" fill="lightgray" class="stroke step8"/>
    <path d="M 515 644 Q 518 648 653 670 Q 674 674 665 685 Q 655 698 633 701 Q 606 702 510 669 C 482 659 487 633 515 644 Z" fill="lightgray" class="stroke step8"/>
    <path d="M 526 559 Q 527 559 530 559 Q 606 569 665 576 C 695 580 700 580 678 598 Q 672 604 661 606 Q 637 610 525 581 C 496 574 496 558 526 559 Z" fill="lightgray" class="stroke step8"/>
    <path d="M 519 472 Q 529 487 540 498 Q 547 507 537 518 Q 527 525 517 531 L 505 538 Q 498 542 489 540 Q 482 539 482 528 Q 492 483 442 426 Q 430 413 425 405 Q 419 395 430 397 Q 460 403 501 449 L 519 472 Z" fill="lightgray" class="stroke step8"/>
    <path d="M 600 457 Q 729 478 755 478 Q 768 478 773 472 Q 792 439 778 279 Q 769 228 756 200 Q 747 178 735 176 Q 723 173 660 194 Q 651 197 651 192 Q 651 188 661 180 Q 700 141 717 113 Q 727 95 739 96 Q 752 95 766 109 Q 820 157 835 307 Q 847 445 853 452 Q 854 456 858 459 Q 870 471 869 478 Q 868 485 850 497 Q 825 515 794 524 Q 770 531 755 522 Q 733 515 683 503 Q 613 487 562 479 Q 538 476 519 472 C 489 467 471 449 501 449 Q 517 446 576 454 L 600 457 Z" fill="lightgray" class="stroke step8"/>
    <path d="M 607 388 Q 631 418 618 439 Q 611 449 604 454 Q 603 455 600 457 C 576 475 570 479 576 454 Q 576 453 577 450 Q 577 449 578 446 Q 584 419 541 359 Q 523 332 498 306 Q 494 302 493 298 Q 493 294 497 294 Q 536 306 596 374 L 607 388 Z" fill="lightgray" class="stroke step8"/>
    <path d="M 596 374 Q 599 368 617 358 Q 650 339 685 315 Q 695 308 705 310 Q 712 311 714 320 Q 715 330 707 348 Q 695 375 609 388 L 607 388 C 584 390 584 390 596 374 Z" fill="lightgray" class="stroke step8"/>
    <path d="M 457 346 Q 461 358 450 366 Q 434 381 409 386 Q 397 389 392 382 Q 388 376 397 365 Q 413 346 416 315 Q 417 264 402 238 Q 393 226 398 218 Q 405 205 418 193 Q 427 186 439 197 Q 488 239 647 239 Q 668 239 693 237 Q 711 236 718 240 Q 724 244 719 254 Q 715 264 684 281 Q 666 290 607 279 Q 535 273 465 255 Q 458 252 456 255 Q 450 258 452 268 Q 452 329 457 346 Z" fill="lightgray" class="stroke step8"/>
    <path d="M 241 706 Q 266 682 293 653 Q 308 637 326 638 Q 338 638 344 653 Q 351 669 341 704 Q 332 737 237 761 Q 219 765 212 763 Q 206 759 207 744 Q 211 731 241 706 Z" fill="lightgray" class="hide"/>
    <path d="M 315 180 Q 327 189 331 206 Q 338 249 292 325 Q 261 379 334 467 Q 337 471 342 475 Q 363 494 343 509 Q 322 525 287 538 Q 265 550 247 532 Q 217 507 177 489 Q 125 464 107 465 Q 100 465 98 460 Q 97 456 105 451 Q 144 435 241 478 Q 248 482 258 473 Q 279 451 257 424 Q 205 370 255 306 Q 300 219 290 182 C 287 152 295 157 315 180 Z" fill="lightgray" class="hide"/>
    <path d="M 290 182 Q 244 185 196 168 Q 157 152 98 145 Q 91 145 88 136 Q 85 129 94 119 Q 112 101 136 90 Q 148 84 166 99 Q 239 156 312 141 Q 376 126 504 68 Q 729 -37 808 -10 Q 871 12 924 48 Q 948 64 923 64 Q 707 55 531 110 Q 464 131 385 161 Q 351 176 315 180 L 290 182 Z" fill="lightgray" class="hide"/></g><g transform="scale(1, -1) translate(0, -900)">
    <style type="text/css">
        .origin {display:none;}
        .hide {display:none;}
        .stroke {fill: #000000;}
        
.step1 {transform: translateX(1024px);}
.step2 {transform: translateX(2048px);}
.step3 {transform: translateX(3072px);}
.step4 {transform: translateX(4096px);}
.step5 {transform: translateX(5120px);}
.step6 {transform: translateX(6144px);}
.step7 {transform: translateX(7168px);}
.step8 {transform: translateX(8192px);}
.step9 {transform: translateX(9216px);}
.step10 {transform: translateX(10240px);}
.step11 {transform: translateX(11264px);}
.step12 {transform: translateX(12288px);}
.step13 {transform: translateX(13312px);}
.step14 {transform: translateX(14336px);}
.step15 {transform: translateX(15360px);}
.step16 {transform: translateX(16384px);}
.step17 {transform: translateX(17408px);}
.step18 {transform: translateX(18432px);}
.step19 {transform: translateX(19456px);}
.step20 {transform: translateX(20480px);}
.step21 {transform: translateX(21504px);}
.step22 {transform: translateX(22528px);}
.step23 {transform: translateX(23552px);}
.step24 {transform: translateX(24576px);}
.step25 {transform: translateX(25600px);}
.step26 {transform: translateX(26624px);}
.step27 {transform: translateX(27648px);}
.step28 {transform: translateX(28672px);}
.step29 {transform: translateX(29696px);}
    </style>

    <path d="M 517 531 Q 521 534 526 559 L 525 581 Q 524 591 523 600 Q 519 625 515 644 L 510 669 Q 503 712 501 730 C 498 754 498 754 487 759 Q 477 765 449 768 Q 439 772 435 766 Q 429 760 437 745 Q 465 687 481 591 Q 484 563 501 543 Q 502 542 505 538 C 514 526 514 526 517 531 Z" fill="lightgray" class="stroke step9"/>
    <path d="M 665 576 Q 684 545 701 537 Q 711 530 726 550 Q 739 572 767 686 Q 776 717 798 740 Q 811 752 800 766 Q 785 782 744 807 Q 728 814 653 796 Q 620 796 487 759 C 458 751 472 722 501 730 Q 565 749 672 767 Q 699 771 707 763 Q 717 750 716 737 Q 694 611 678 598 C 665 576 665 576 665 576 Z" fill="lightgray" class="stroke step9"/>
    <path d="M 515 644 Q 518 648 653 670 Q 674 674 665 685 Q 655 698 633 701 Q 606 702 510 669 C 482 659 487 633 515 644 Z" fill="lightgray" class="stroke step9"/>
    <path d="M 526 559 Q 527 559 530 559 Q 606 569 665 576 C 695 580 700 580 678 598 Q 672 604 661 606 Q 637 610 525 581 C 496 574 496 558 526 559 Z" fill="lightgray" class="stroke step9"/>
    <path d="M 519 472 Q 529 487 540 498 Q 547 507 537 518 Q 527 525 517 531 L 505 538 Q 498 542 489 540 Q 482 539 482 528 Q 492 483 442 426 Q 430 413 425 405 Q 419 395 430 397 Q 460 403 501 449 L 519 472 Z" fill="lightgray" class="stroke step9"/>
    <path d="M 600 457 Q 729 478 755 478 Q 768 478 773 472 Q 792 439 778 279 Q 769 228 756 200 Q 747 178 735 176 Q 723 173 660 194 Q 651 197 651 192 Q 651 188 661 180 Q 700 141 717 113 Q 727 95 739 96 Q 752 95 766 109 Q 820 157 835 307 Q 847 445 853 452 Q 854 456 858 459 Q 870 471 869 478 Q 868 485 850 497 Q 825 515 794 524 Q 770 531 755 522 Q 733 515 683 503 Q 613 487 562 479 Q 538 476 519 472 C 489 467 471 449 501 449 Q 517 446 576 454 L 600 457 Z" fill="lightgray" class="stroke step9"/>
    <path d="M 607 388 Q 631 418 618 439 Q 611 449 604 454 Q 603 455 600 457 C 576 475 570 479 576 454 Q 576 453 577 450 Q 577 449 578 446 Q 584 419 541 359 Q 523 332 498 306 Q 494 302 493 298 Q 493 294 497 294 Q 536 306 596 374 L 607 388 Z" fill="lightgray" class="stroke step9"/>
    <path d="M 596 374 Q 599 368 617 358 Q 650 339 685 315 Q 695 308 705 310 Q 712 311 714 320 Q 715 330 707 348 Q 695 375 609 388 L 607 388 C 584 390 584 390 596 374 Z" fill="lightgray" class="stroke step9"/>
    <path d="M 457 346 Q 461 358 450 366 Q 434 381 409 386 Q 397 389 392 382 Q 388 376 397 365 Q 413 346 416 315 Q 417 264 402 238 Q 393 226 398 218 Q 405 205 418 193 Q 427 186 439 197 Q 488 239 647 239 Q 668 239 693 237 Q 711 236 718 240 Q 724 244 719 254 Q 715 264 684 281 Q 666 290 607 279 Q 535 273 465 255 Q 458 252 456 255 Q 450 258 452 268 Q 452 329 457 346 Z" fill="lightgray" class="stroke step9"/>
    <path d="M 241 706 Q 266 682 293 653 Q 308 637 326 638 Q 338 638 344 653 Q 351 669 341 704 Q 332 737 237 761 Q 219 765 212 763 Q 206 759 207 744 Q 211 731 241 706 Z" fill="lightgray" class="stroke step9"/>
    <path d="M 315 180 Q 327 189 331 206 Q 338 249 292 325 Q 261 379 334 467 Q 337 471 342 475 Q 363 494 343 509 Q 322 525 287 538 Q 265 550 247 532 Q 217 507 177 489 Q 125 464 107 465 Q 100 465 98 460 Q 97 456 105 451 Q 144 435 241 478 Q 248 482 258 473 Q 279 451 257 424 Q 205 370 255 306 Q 300 219 290 182 C 287 152 295 157 315 180 Z" fill="lightgray" class="hide"/>
    <path d="M 290 182 Q 244 185 196 168 Q 157 152 98 145 Q 91 145 88 136 Q 85 129 94 119 Q 112 101 136 90 Q 148 84 166 99 Q 239 156 312 141 Q 376 126 504 68 Q 729 -37 808 -10 Q 871 12 924 48 Q 948 64 923 64 Q 707 55 531 110 Q 464 131 385 161 Q 351 176 315 180 L 290 182 Z" fill="lightgray" class="hide"/></g><g transform="scale(1, -1) translate(0, -900)">
    <style type="text/css">
        .origin {display:none;}
        .hide {display:none;}
        .stroke {fill: #000000;}
        
.step1 {transform: translateX(1024px);}
.step2 {transform: translateX(2048px);}
.step3 {transform: translateX(3072px);}
.step4 {transform: translateX(4096px);}
.step5 {transform: translateX(5120px);}
.step6 {transform: translateX(6144px);}
.step7 {transform: translateX(7168px);}
.step8 {transform: translateX(8192px);}
.step9 {transform: translateX(9216px);}
.step10 {transform: translateX(10240px);}
.step11 {transform: translateX(11264px);}
.step12 {transform: translateX(12288px);}
.step13 {transform: translateX(13312px);}
.step14 {transform: translateX(14336px);}
.step15 {transform: translateX(15360px);}
.step16 {transform: translateX(16384px);}
.step17 {transform: translateX(17408px);}
.step18 {transform: translateX(18432px);}
.step19 {transform: translateX(19456px);}
.step20 {transform: translateX(20480px);}
.step21 {transform: translateX(21504px);}
.step22 {transform: translateX(22528px);}
.step23 {transform: translateX(23552px);}
.step24 {transform: translateX(24576px);}
.step25 {transform: translateX(25600px);}
.step26 {transform: translateX(26624px);}
.step27 {transform: translateX(27648px);}
.step28 {transform: translateX(28672px);}
.step29 {transform: translateX(29696px);}
    </style>

    <path d="M 517 531 Q 521 534 526 559 L 525 581 Q 524 591 523 600 Q 519 625 515 644 L 510 669 Q 503 712 501 730 C 498 754 498 754 487 759 Q 477 765 449 768 Q 439 772 435 766 Q 429 760 437 745 Q 465 687 481 591 Q 484 563 501 543 Q 502 542 505 538 C 514 526 514 526 517 531 Z" fill="lightgray" class="stroke step10"/>
    <path d="M 665 576 Q 684 545 701 537 Q 711 530 726 550 Q 739 572 767 686 Q 776 717 798 740 Q 811 752 800 766 Q 785 782 744 807 Q 728 814 653 796 Q 620 796 487 759 C 458 751 472 722 501 730 Q 565 749 672 767 Q 699 771 707 763 Q 717 750 716 737 Q 694 611 678 598 C 665 576 665 576 665 576 Z" fill="lightgray" class="stroke step10"/>
    <path d="M 515 644 Q 518 648 653 670 Q 674 674 665 685 Q 655 698 633 701 Q 606 702 510 669 C 482 659 487 633 515 644 Z" fill="lightgray" class="stroke step10"/>
    <path d="M 526 559 Q 527 559 530 559 Q 606 569 665 576 C 695 580 700 580 678 598 Q 672 604 661 606 Q 637 610 525 581 C 496 574 496 558 526 559 Z" fill="lightgray" class="stroke step10"/>
    <path d="M 519 472 Q 529 487 540 498 Q 547 507 537 518 Q 527 525 517 531 L 505 538 Q 498 542 489 540 Q 482 539 482 528 Q 492 483 442 426 Q 430 413 425 405 Q 419 395 430 397 Q 460 403 501 449 L 519 472 Z" fill="lightgray" class="stroke step10"/>
    <path d="M 600 457 Q 729 478 755 478 Q 768 478 773 472 Q 792 439 778 279 Q 769 228 756 200 Q 747 178 735 176 Q 723 173 660 194 Q 651 197 651 192 Q 651 188 661 180 Q 700 141 717 113 Q 727 95 739 96 Q 752 95 766 109 Q 820 157 835 307 Q 847 445 853 452 Q 854 456 858 459 Q 870 471 869 478 Q 868 485 850 497 Q 825 515 794 524 Q 770 531 755 522 Q 733 515 683 503 Q 613 487 562 479 Q 538 476 519 472 C 489 467 471 449 501 449 Q 517 446 576 454 L 600 457 Z" fill="lightgray" class="stroke step10"/>
    <path d="M 607 388 Q 631 418 618 439 Q 611 449 604 454 Q 603 455 600 457 C 576 475 570 479 576 454 Q 576 453 577 450 Q 577 449 578 446 Q 584 419 541 359 Q 523 332 498 306 Q 494 302 493 298 Q 493 294 497 294 Q 536 306 596 374 L 607 388 Z" fill="lightgray" class="stroke step10"/>
    <path d="M 596 374 Q 599 368 617 358 Q 650 339 685 315 Q 695 308 705 310 Q 712 311 714 320 Q 715 330 707 348 Q 695 375 609 388 L 607 388 C 584 390 584 390 596 374 Z" fill="lightgray" class="stroke step10"/>
    <path d="M 457 346 Q 461 358 450 366 Q 434 381 409 386 Q 397 389 392 382 Q 388 376 397 365 Q 413 346 416 315 Q 417 264 402 238 Q 393 226 398 218 Q 405 205 418 193 Q 427 186 439 197 Q 488 239 647 239 Q 668 239 693 237 Q 711 236 718 240 Q 724 244 719 254 Q 715 264 684 281 Q 666 290 607 279 Q 535 273 465 255 Q 458 252 456 255 Q 450 258 452 268 Q 452 329 457 346 Z" fill="lightgray" class="stroke step10"/>
    <path d="M 241 706 Q 266 682 293 653 Q 308 637 326 638 Q 338 638 344 653 Q 351 669 341 704 Q 332 737 237 761 Q 219 765 212 763 Q 206 759 207 744 Q 211 731 241 706 Z" fill="lightgray" class="stroke step10"/>
    <path d="M 315 180 Q 327 189 331 206 Q 338 249 292 325 Q 261 379 334 467 Q 337 471 342 475 Q 363 494 343 509 Q 322 525 287 538 Q 265 550 247 532 Q 217 507 177 489 Q 125 464 107 465 Q 100 465 98 460 Q 97 456 105 451 Q 144 435 241 478 Q 248 482 258 473 Q 279 451 257 424 Q 205 370 255 306 Q 300 219 290 182 C 287 152 295 157 315 180 Z" fill="lightgray" class="stroke step10"/>
    <path d="M 290 182 Q 244 185 196 168 Q 157 152 98 145 Q 91 145 88 136 Q 85 129 94 119 Q 112 101 136 90 Q 148 84 166 99 Q 239 156 312 141 Q 376 126 504 68 Q 729 -37 808 -10 Q 871 12 924 48 Q 948 64 923 64 Q 707 55 531 110 Q 464 131 385 161 Q 351 176 315 180 L 290 182 Z" fill="lightgray" class="hide"/></g><g transform="scale(1, -1) translate(0, -900)">
    <style type="text/css">
        .origin {display:none;}
        .hide {display:none;}
        .stroke {fill: #000000;}
        
.step1 {transform: translateX(1024px);}
.step2 {transform: translateX(2048px);}
.step3 {transform: translateX(3072px);}
.step4 {transform: translateX(4096px);}
.step5 {transform: translateX(5120px);}
.step6 {transform: translateX(6144px);}
.step7 {transform: translateX(7168px);}
.step8 {transform: translateX(8192px);}
.step9 {transform: translateX(9216px);}
.step10 {transform: translateX(10240px);}
.step11 {transform: translateX(11264px);}
.step12 {transform: translateX(12288px);}
.step13 {transform: translateX(13312px);}
.step14 {transform: translateX(14336px);}
.step15 {transform: translateX(15360px);}
.step16 {transform: translateX(16384px);}
.step17 {transform: translateX(17408px);}
.step18 {transform: translateX(18432px);}
.step19 {transform: translateX(19456px);}
.step20 {transform: translateX(20480px);}
.step21 {transform: translateX(21504px);}
.step22 {transform: translateX(22528px);}
.step23 {transform: translateX(23552px);}
.step24 {transform: translateX(24576px);}
.step25 {transform: translateX(25600px);}
.step26 {transform: translateX(26624px);}
.step27 {transform: translateX(27648px);}
.step28 {transform: translateX(28672px);}
.step29 {transform: translateX(29696px);}
    </style>

    <path d="M 517 531 Q 521 534 526 559 L 525 581 Q 524 591 523 600 Q 519 625 515 644 L 510 669 Q 503 712 501 730 C 498 754 498 754 487 759 Q 477 765 449 768 Q 439 772 435 766 Q 429 760 437 745 Q 465 687 481 591 Q 484 563 501 543 Q 502 542 505 538 C 514 526 514 526 517 531 Z" fill="lightgray" class="stroke step11"/>
    <path d="M 665 576 Q 684 545 701 537 Q 711 530 726 550 Q 739 572 767 686 Q 776 717 798 740 Q 811 752 800 766 Q 785 782 744 807 Q 728 814 653 796 Q 620 796 487 759 C 458 751 472 722 501 730 Q 565 749 672 767 Q 699 771 707 763 Q 717 750 716 737 Q 694 611 678 598 C 665 576 665 576 665 576 Z" fill="lightgray" class="stroke step11"/>
    <path d="M 515 644 Q 518 648 653 670 Q 674 674 665 685 Q 655 698 633 701 Q 606 702 510 669 C 482 659 487 633 515 644 Z" fill="lightgray" class="stroke step11"/>
    <path d="M 526 559 Q 527 559 530 559 Q 606 569 665 576 C 695 580 700 580 678 598 Q 672 604 661 606 Q 637 610 525 581 C 496 574 496 558 526 559 Z" fill="lightgray" class="stroke step11"/>
    <path d="M 519 472 Q 529 487 540 498 Q 547 507 537 518 Q 527 525 517 531 L 505 538 Q 498 542 489 540 Q 482 539 482 528 Q 492 483 442 426 Q 430 413 425 405 Q 419 395 430 397 Q 460 403 501 449 L 519 472 Z" fill="lightgray" class="stroke step11"/>
    <path d="M 600 457 Q 729 478 755 478 Q 768 478 773 472 Q 792 439 778 279 Q 769 228 756 200 Q 747 178 735 176 Q 723 173 660 194 Q 651 197 651 192 Q 651 188 661 180 Q 700 141 717 113 Q 727 95 739 96 Q 752 95 766 109 Q 820 157 835 307 Q 847 445 853 452 Q 854 456 858 459 Q 870 471 869 478 Q 868 485 850 497 Q 825 515 794 524 Q 770 531 755 522 Q 733 515 683 503 Q 613 487 562 479 Q 538 476 519 472 C 489 467 471 449 501 449 Q 517 446 576 454 L 600 457 Z" fill="lightgray" class="stroke step11"/>
    <path d="M 607 388 Q 631 418 618 439 Q 611 449 604 454 Q 603 455 600 457 C 576 475 570 479 576 454 Q 576 453 577 450 Q 577 449 578 446 Q 584 419 541 359 Q 523 332 498 306 Q 494 302 493 298 Q 493 294 497 294 Q 536 306 596 374 L 607 388 Z" fill="lightgray" class="stroke step11"/>
    <path d="M 596 374 Q 599 368 617 358 Q 650 339 685 315 Q 695 308 705 310 Q 712 311 714 320 Q 715 330 707 348 Q 695 375 609 388 L 607 388 C 584 390 584 390 596 374 Z" fill="lightgray" class="stroke step11"/>
    <path d="M 457 346 Q 461 358 450 366 Q 434 381 409 386 Q 397 389 392 382 Q 388 376 397 365 Q 413 346 416 315 Q 417 264 402 238 Q 393 226 398 218 Q 405 205 418 193 Q 427 186 439 197 Q 488 239 647 239 Q 668 239 693 237 Q 711 236 718 240 Q 724 244 719 254 Q 715 264 684 281 Q 666 290 607 279 Q 535 273 465 255 Q 458 252 456 255 Q 450 258 452 268 Q 452 329 457 346 Z" fill="lightgray" class="stroke step11"/>
    <path d="M 241 706 Q 266 682 293 653 Q 308 637 326 638 Q 338 638 344 653 Q 351 669 341 704 Q 332 737 237 761 Q 219 765 212 763 Q 206 759 207 744 Q 211 731 241 706 Z" fill="lightgray" class="stroke step11"/>
    <path d="M 315 180 Q 327 189 331 206 Q 338 249 292 325 Q 261 379 334 467 Q 337 471 342 475 Q 363 494 343 509 Q 322 525 287 538 Q 265 550 247 532 Q 217 507 177 489 Q 125 464 107 465 Q 100 465 98 460 Q 97 456 105 451 Q 144 435 241 478 Q 248 482 258 473 Q 279 451 257 424 Q 205 370 255 306 Q 300 219 290 182 C 287 152 295 157 315 180 Z" fill="lightgray" class="stroke step11"/>
    <path d="M 290 182 Q 244 185 196 168 Q 157 152 98 145 Q 91 145 88 136 Q 85 129 94 119 Q 112 101 136 90 Q 148 84 166 99 Q 239 156 312 141 Q 376 126 504 68 Q 729 -37 808 -10 Q 871 12 924 48 Q 948 64 923 64 Q 707 55 531 110 Q 464 131 385 161 Q 351 176 315 180 L 290 182 Z" fill="lightgray" class="stroke step11"/></g></svg>