<svg version="1.1" viewBox="0 0 7168 1024" xmlns="http://www.w3.org/2000/svg">
  
  <g transform="scale(1, -1) translate(0, -900)" class="origin">
    <style type="text/css">
        .origin {display:none;}
        .hide {display:none;}
        .stroke {fill: #000000;}
        
.step1 {transform: translateX(1024px);}
.step2 {transform: translateX(2048px);}
.step3 {transform: translateX(3072px);}
.step4 {transform: translateX(4096px);}
.step5 {transform: translateX(5120px);}
.step6 {transform: translateX(6144px);}
.step7 {transform: translateX(7168px);}
.step8 {transform: translateX(8192px);}
.step9 {transform: translateX(9216px);}
.step10 {transform: translateX(10240px);}
.step11 {transform: translateX(11264px);}
.step12 {transform: translateX(12288px);}
.step13 {transform: translateX(13312px);}
.step14 {transform: translateX(14336px);}
.step15 {transform: translateX(15360px);}
.step16 {transform: translateX(16384px);}
.step17 {transform: translateX(17408px);}
.step18 {transform: translateX(18432px);}
.step19 {transform: translateX(19456px);}
.step20 {transform: translateX(20480px);}
.step21 {transform: translateX(21504px);}
.step22 {transform: translateX(22528px);}
.step23 {transform: translateX(23552px);}
.step24 {transform: translateX(24576px);}
.step25 {transform: translateX(25600px);}
.step26 {transform: translateX(26624px);}
.step27 {transform: translateX(27648px);}
.step28 {transform: translateX(28672px);}
.step29 {transform: translateX(29696px);}
    </style>

    <path d="M 383 720 Q 519 753 527 757 Q 536 764 531 773 Q 524 783 496 791 Q 472 795 360 761 Q 234 737 197 732 Q 161 726 187 710 Q 226 686 284 700 Q 306 706 334 709 L 383 720 Z" fill="lightgray"/>
    <path d="M 352 596 Q 388 660 405 676 Q 412 680 411 690 Q 408 705 383 720 C 358 737 335 739 334 709 Q 337 625 217 479 Q 118 380 57 327 Q 50 323 59 320 Q 114 327 220 426 Q 275 486 331 565 L 352 596 Z" fill="lightgray"/>
    <path d="M 331 565 Q 334 475 317 385 Q 308 355 335 310 Q 345 294 351 290 Q 361 289 365 300 Q 371 313 376 429 Q 376 520 382 559 Q 385 569 379 575 Q 364 588 352 596 C 330 612 330 595 331 565 Z" fill="lightgray"/>
    <path d="M 446 509 Q 473 482 500 451 Q 510 439 523 439 Q 532 438 537 449 Q 541 461 537 485 Q 534 504 506 522 Q 437 555 428 551 Q 424 548 424 537 Q 425 527 446 509 Z" fill="lightgray"/>
    <path d="M 155 217 Q 142 214 139 206 Q 138 196 153 184 Q 195 157 237 173 Q 369 224 505 249 Q 523 253 523 260 Q 523 273 504 282 Q 476 292 452 286 Q 245 229 155 217 Z" fill="lightgray"/>
    <path d="M 657 645 Q 658 648 753 684 Q 757 687 768 682 Q 778 675 772 654 Q 724 513 725 512 Q 725 500 746 494 Q 789 463 823 413 Q 851 371 853 332 Q 853 311 840 299 Q 827 289 800 293 Q 760 300 726 303 Q 719 304 719 297 Q 722 290 736 280 Q 814 243 830 215 Q 837 202 850 201 Q 860 200 875 212 Q 912 261 913 319 Q 914 409 789 504 Q 747 523 818 620 Q 834 653 862 668 Q 890 687 863 704 Q 824 732 800 742 Q 782 746 768 736 Q 744 714 722 706 Q 683 690 641 672 C 613 660 630 632 657 645 Z" fill="lightgray"/>
    <path d="M 593 -14 Q 599 -39 606 -49 Q 612 -56 619 -54 Q 634 -45 640 16 Q 649 103 647 189 Q 647 205 646 570 L 657 645 C 659 661 659 661 641 672 Q 610 691 597 694 Q 584 698 568 689 Q 559 682 567 671 Q 591 616 593 597 Q 593 311 590 189 Q 587 38 593 -14 Z" fill="lightgray"/></g>
<g transform="scale(1, -1) translate(0, -900)">
    <style type="text/css">
        .origin {display:none;}
        .hide {display:none;}
        .stroke {fill: #000000;}
        
.step1 {transform: translateX(1024px);}
.step2 {transform: translateX(2048px);}
.step3 {transform: translateX(3072px);}
.step4 {transform: translateX(4096px);}
.step5 {transform: translateX(5120px);}
.step6 {transform: translateX(6144px);}
.step7 {transform: translateX(7168px);}
.step8 {transform: translateX(8192px);}
.step9 {transform: translateX(9216px);}
.step10 {transform: translateX(10240px);}
.step11 {transform: translateX(11264px);}
.step12 {transform: translateX(12288px);}
.step13 {transform: translateX(13312px);}
.step14 {transform: translateX(14336px);}
.step15 {transform: translateX(15360px);}
.step16 {transform: translateX(16384px);}
.step17 {transform: translateX(17408px);}
.step18 {transform: translateX(18432px);}
.step19 {transform: translateX(19456px);}
.step20 {transform: translateX(20480px);}
.step21 {transform: translateX(21504px);}
.step22 {transform: translateX(22528px);}
.step23 {transform: translateX(23552px);}
.step24 {transform: translateX(24576px);}
.step25 {transform: translateX(25600px);}
.step26 {transform: translateX(26624px);}
.step27 {transform: translateX(27648px);}
.step28 {transform: translateX(28672px);}
.step29 {transform: translateX(29696px);}
    </style>

    <path d="M 383 720 Q 519 753 527 757 Q 536 764 531 773 Q 524 783 496 791 Q 472 795 360 761 Q 234 737 197 732 Q 161 726 187 710 Q 226 686 284 700 Q 306 706 334 709 L 383 720 Z" fill="lightgray" class="stroke step0"/>
    <path d="M 352 596 Q 388 660 405 676 Q 412 680 411 690 Q 408 705 383 720 C 358 737 335 739 334 709 Q 337 625 217 479 Q 118 380 57 327 Q 50 323 59 320 Q 114 327 220 426 Q 275 486 331 565 L 352 596 Z" fill="lightgray" class="hide"/>
    <path d="M 331 565 Q 334 475 317 385 Q 308 355 335 310 Q 345 294 351 290 Q 361 289 365 300 Q 371 313 376 429 Q 376 520 382 559 Q 385 569 379 575 Q 364 588 352 596 C 330 612 330 595 331 565 Z" fill="lightgray" class="hide"/>
    <path d="M 446 509 Q 473 482 500 451 Q 510 439 523 439 Q 532 438 537 449 Q 541 461 537 485 Q 534 504 506 522 Q 437 555 428 551 Q 424 548 424 537 Q 425 527 446 509 Z" fill="lightgray" class="hide"/>
    <path d="M 155 217 Q 142 214 139 206 Q 138 196 153 184 Q 195 157 237 173 Q 369 224 505 249 Q 523 253 523 260 Q 523 273 504 282 Q 476 292 452 286 Q 245 229 155 217 Z" fill="lightgray" class="hide"/>
    <path d="M 657 645 Q 658 648 753 684 Q 757 687 768 682 Q 778 675 772 654 Q 724 513 725 512 Q 725 500 746 494 Q 789 463 823 413 Q 851 371 853 332 Q 853 311 840 299 Q 827 289 800 293 Q 760 300 726 303 Q 719 304 719 297 Q 722 290 736 280 Q 814 243 830 215 Q 837 202 850 201 Q 860 200 875 212 Q 912 261 913 319 Q 914 409 789 504 Q 747 523 818 620 Q 834 653 862 668 Q 890 687 863 704 Q 824 732 800 742 Q 782 746 768 736 Q 744 714 722 706 Q 683 690 641 672 C 613 660 630 632 657 645 Z" fill="lightgray" class="hide"/>
    <path d="M 593 -14 Q 599 -39 606 -49 Q 612 -56 619 -54 Q 634 -45 640 16 Q 649 103 647 189 Q 647 205 646 570 L 657 645 C 659 661 659 661 641 672 Q 610 691 597 694 Q 584 698 568 689 Q 559 682 567 671 Q 591 616 593 597 Q 593 311 590 189 Q 587 38 593 -14 Z" fill="lightgray" class="hide"/></g><g transform="scale(1, -1) translate(0, -900)">
    <style type="text/css">
        .origin {display:none;}
        .hide {display:none;}
        .stroke {fill: #000000;}
        
.step1 {transform: translateX(1024px);}
.step2 {transform: translateX(2048px);}
.step3 {transform: translateX(3072px);}
.step4 {transform: translateX(4096px);}
.step5 {transform: translateX(5120px);}
.step6 {transform: translateX(6144px);}
.step7 {transform: translateX(7168px);}
.step8 {transform: translateX(8192px);}
.step9 {transform: translateX(9216px);}
.step10 {transform: translateX(10240px);}
.step11 {transform: translateX(11264px);}
.step12 {transform: translateX(12288px);}
.step13 {transform: translateX(13312px);}
.step14 {transform: translateX(14336px);}
.step15 {transform: translateX(15360px);}
.step16 {transform: translateX(16384px);}
.step17 {transform: translateX(17408px);}
.step18 {transform: translateX(18432px);}
.step19 {transform: translateX(19456px);}
.step20 {transform: translateX(20480px);}
.step21 {transform: translateX(21504px);}
.step22 {transform: translateX(22528px);}
.step23 {transform: translateX(23552px);}
.step24 {transform: translateX(24576px);}
.step25 {transform: translateX(25600px);}
.step26 {transform: translateX(26624px);}
.step27 {transform: translateX(27648px);}
.step28 {transform: translateX(28672px);}
.step29 {transform: translateX(29696px);}
    </style>

    <path d="M 383 720 Q 519 753 527 757 Q 536 764 531 773 Q 524 783 496 791 Q 472 795 360 761 Q 234 737 197 732 Q 161 726 187 710 Q 226 686 284 700 Q 306 706 334 709 L 383 720 Z" fill="lightgray" class="stroke step1"/>
    <path d="M 352 596 Q 388 660 405 676 Q 412 680 411 690 Q 408 705 383 720 C 358 737 335 739 334 709 Q 337 625 217 479 Q 118 380 57 327 Q 50 323 59 320 Q 114 327 220 426 Q 275 486 331 565 L 352 596 Z" fill="lightgray" class="stroke step1"/>
    <path d="M 331 565 Q 334 475 317 385 Q 308 355 335 310 Q 345 294 351 290 Q 361 289 365 300 Q 371 313 376 429 Q 376 520 382 559 Q 385 569 379 575 Q 364 588 352 596 C 330 612 330 595 331 565 Z" fill="lightgray" class="hide"/>
    <path d="M 446 509 Q 473 482 500 451 Q 510 439 523 439 Q 532 438 537 449 Q 541 461 537 485 Q 534 504 506 522 Q 437 555 428 551 Q 424 548 424 537 Q 425 527 446 509 Z" fill="lightgray" class="hide"/>
    <path d="M 155 217 Q 142 214 139 206 Q 138 196 153 184 Q 195 157 237 173 Q 369 224 505 249 Q 523 253 523 260 Q 523 273 504 282 Q 476 292 452 286 Q 245 229 155 217 Z" fill="lightgray" class="hide"/>
    <path d="M 657 645 Q 658 648 753 684 Q 757 687 768 682 Q 778 675 772 654 Q 724 513 725 512 Q 725 500 746 494 Q 789 463 823 413 Q 851 371 853 332 Q 853 311 840 299 Q 827 289 800 293 Q 760 300 726 303 Q 719 304 719 297 Q 722 290 736 280 Q 814 243 830 215 Q 837 202 850 201 Q 860 200 875 212 Q 912 261 913 319 Q 914 409 789 504 Q 747 523 818 620 Q 834 653 862 668 Q 890 687 863 704 Q 824 732 800 742 Q 782 746 768 736 Q 744 714 722 706 Q 683 690 641 672 C 613 660 630 632 657 645 Z" fill="lightgray" class="hide"/>
    <path d="M 593 -14 Q 599 -39 606 -49 Q 612 -56 619 -54 Q 634 -45 640 16 Q 649 103 647 189 Q 647 205 646 570 L 657 645 C 659 661 659 661 641 672 Q 610 691 597 694 Q 584 698 568 689 Q 559 682 567 671 Q 591 616 593 597 Q 593 311 590 189 Q 587 38 593 -14 Z" fill="lightgray" class="hide"/></g><g transform="scale(1, -1) translate(0, -900)">
    <style type="text/css">
        .origin {display:none;}
        .hide {display:none;}
        .stroke {fill: #000000;}
        
.step1 {transform: translateX(1024px);}
.step2 {transform: translateX(2048px);}
.step3 {transform: translateX(3072px);}
.step4 {transform: translateX(4096px);}
.step5 {transform: translateX(5120px);}
.step6 {transform: translateX(6144px);}
.step7 {transform: translateX(7168px);}
.step8 {transform: translateX(8192px);}
.step9 {transform: translateX(9216px);}
.step10 {transform: translateX(10240px);}
.step11 {transform: translateX(11264px);}
.step12 {transform: translateX(12288px);}
.step13 {transform: translateX(13312px);}
.step14 {transform: translateX(14336px);}
.step15 {transform: translateX(15360px);}
.step16 {transform: translateX(16384px);}
.step17 {transform: translateX(17408px);}
.step18 {transform: translateX(18432px);}
.step19 {transform: translateX(19456px);}
.step20 {transform: translateX(20480px);}
.step21 {transform: translateX(21504px);}
.step22 {transform: translateX(22528px);}
.step23 {transform: translateX(23552px);}
.step24 {transform: translateX(24576px);}
.step25 {transform: translateX(25600px);}
.step26 {transform: translateX(26624px);}
.step27 {transform: translateX(27648px);}
.step28 {transform: translateX(28672px);}
.step29 {transform: translateX(29696px);}
    </style>

    <path d="M 383 720 Q 519 753 527 757 Q 536 764 531 773 Q 524 783 496 791 Q 472 795 360 761 Q 234 737 197 732 Q 161 726 187 710 Q 226 686 284 700 Q 306 706 334 709 L 383 720 Z" fill="lightgray" class="stroke step2"/>
    <path d="M 352 596 Q 388 660 405 676 Q 412 680 411 690 Q 408 705 383 720 C 358 737 335 739 334 709 Q 337 625 217 479 Q 118 380 57 327 Q 50 323 59 320 Q 114 327 220 426 Q 275 486 331 565 L 352 596 Z" fill="lightgray" class="stroke step2"/>
    <path d="M 331 565 Q 334 475 317 385 Q 308 355 335 310 Q 345 294 351 290 Q 361 289 365 300 Q 371 313 376 429 Q 376 520 382 559 Q 385 569 379 575 Q 364 588 352 596 C 330 612 330 595 331 565 Z" fill="lightgray" class="stroke step2"/>
    <path d="M 446 509 Q 473 482 500 451 Q 510 439 523 439 Q 532 438 537 449 Q 541 461 537 485 Q 534 504 506 522 Q 437 555 428 551 Q 424 548 424 537 Q 425 527 446 509 Z" fill="lightgray" class="hide"/>
    <path d="M 155 217 Q 142 214 139 206 Q 138 196 153 184 Q 195 157 237 173 Q 369 224 505 249 Q 523 253 523 260 Q 523 273 504 282 Q 476 292 452 286 Q 245 229 155 217 Z" fill="lightgray" class="hide"/>
    <path d="M 657 645 Q 658 648 753 684 Q 757 687 768 682 Q 778 675 772 654 Q 724 513 725 512 Q 725 500 746 494 Q 789 463 823 413 Q 851 371 853 332 Q 853 311 840 299 Q 827 289 800 293 Q 760 300 726 303 Q 719 304 719 297 Q 722 290 736 280 Q 814 243 830 215 Q 837 202 850 201 Q 860 200 875 212 Q 912 261 913 319 Q 914 409 789 504 Q 747 523 818 620 Q 834 653 862 668 Q 890 687 863 704 Q 824 732 800 742 Q 782 746 768 736 Q 744 714 722 706 Q 683 690 641 672 C 613 660 630 632 657 645 Z" fill="lightgray" class="hide"/>
    <path d="M 593 -14 Q 599 -39 606 -49 Q 612 -56 619 -54 Q 634 -45 640 16 Q 649 103 647 189 Q 647 205 646 570 L 657 645 C 659 661 659 661 641 672 Q 610 691 597 694 Q 584 698 568 689 Q 559 682 567 671 Q 591 616 593 597 Q 593 311 590 189 Q 587 38 593 -14 Z" fill="lightgray" class="hide"/></g><g transform="scale(1, -1) translate(0, -900)">
    <style type="text/css">
        .origin {display:none;}
        .hide {display:none;}
        .stroke {fill: #000000;}
        
.step1 {transform: translateX(1024px);}
.step2 {transform: translateX(2048px);}
.step3 {transform: translateX(3072px);}
.step4 {transform: translateX(4096px);}
.step5 {transform: translateX(5120px);}
.step6 {transform: translateX(6144px);}
.step7 {transform: translateX(7168px);}
.step8 {transform: translateX(8192px);}
.step9 {transform: translateX(9216px);}
.step10 {transform: translateX(10240px);}
.step11 {transform: translateX(11264px);}
.step12 {transform: translateX(12288px);}
.step13 {transform: translateX(13312px);}
.step14 {transform: translateX(14336px);}
.step15 {transform: translateX(15360px);}
.step16 {transform: translateX(16384px);}
.step17 {transform: translateX(17408px);}
.step18 {transform: translateX(18432px);}
.step19 {transform: translateX(19456px);}
.step20 {transform: translateX(20480px);}
.step21 {transform: translateX(21504px);}
.step22 {transform: translateX(22528px);}
.step23 {transform: translateX(23552px);}
.step24 {transform: translateX(24576px);}
.step25 {transform: translateX(25600px);}
.step26 {transform: translateX(26624px);}
.step27 {transform: translateX(27648px);}
.step28 {transform: translateX(28672px);}
.step29 {transform: translateX(29696px);}
    </style>

    <path d="M 383 720 Q 519 753 527 757 Q 536 764 531 773 Q 524 783 496 791 Q 472 795 360 761 Q 234 737 197 732 Q 161 726 187 710 Q 226 686 284 700 Q 306 706 334 709 L 383 720 Z" fill="lightgray" class="stroke step3"/>
    <path d="M 352 596 Q 388 660 405 676 Q 412 680 411 690 Q 408 705 383 720 C 358 737 335 739 334 709 Q 337 625 217 479 Q 118 380 57 327 Q 50 323 59 320 Q 114 327 220 426 Q 275 486 331 565 L 352 596 Z" fill="lightgray" class="stroke step3"/>
    <path d="M 331 565 Q 334 475 317 385 Q 308 355 335 310 Q 345 294 351 290 Q 361 289 365 300 Q 371 313 376 429 Q 376 520 382 559 Q 385 569 379 575 Q 364 588 352 596 C 330 612 330 595 331 565 Z" fill="lightgray" class="stroke step3"/>
    <path d="M 446 509 Q 473 482 500 451 Q 510 439 523 439 Q 532 438 537 449 Q 541 461 537 485 Q 534 504 506 522 Q 437 555 428 551 Q 424 548 424 537 Q 425 527 446 509 Z" fill="lightgray" class="stroke step3"/>
    <path d="M 155 217 Q 142 214 139 206 Q 138 196 153 184 Q 195 157 237 173 Q 369 224 505 249 Q 523 253 523 260 Q 523 273 504 282 Q 476 292 452 286 Q 245 229 155 217 Z" fill="lightgray" class="hide"/>
    <path d="M 657 645 Q 658 648 753 684 Q 757 687 768 682 Q 778 675 772 654 Q 724 513 725 512 Q 725 500 746 494 Q 789 463 823 413 Q 851 371 853 332 Q 853 311 840 299 Q 827 289 800 293 Q 760 300 726 303 Q 719 304 719 297 Q 722 290 736 280 Q 814 243 830 215 Q 837 202 850 201 Q 860 200 875 212 Q 912 261 913 319 Q 914 409 789 504 Q 747 523 818 620 Q 834 653 862 668 Q 890 687 863 704 Q 824 732 800 742 Q 782 746 768 736 Q 744 714 722 706 Q 683 690 641 672 C 613 660 630 632 657 645 Z" fill="lightgray" class="hide"/>
    <path d="M 593 -14 Q 599 -39 606 -49 Q 612 -56 619 -54 Q 634 -45 640 16 Q 649 103 647 189 Q 647 205 646 570 L 657 645 C 659 661 659 661 641 672 Q 610 691 597 694 Q 584 698 568 689 Q 559 682 567 671 Q 591 616 593 597 Q 593 311 590 189 Q 587 38 593 -14 Z" fill="lightgray" class="hide"/></g><g transform="scale(1, -1) translate(0, -900)">
    <style type="text/css">
        .origin {display:none;}
        .hide {display:none;}
        .stroke {fill: #000000;}
        
.step1 {transform: translateX(1024px);}
.step2 {transform: translateX(2048px);}
.step3 {transform: translateX(3072px);}
.step4 {transform: translateX(4096px);}
.step5 {transform: translateX(5120px);}
.step6 {transform: translateX(6144px);}
.step7 {transform: translateX(7168px);}
.step8 {transform: translateX(8192px);}
.step9 {transform: translateX(9216px);}
.step10 {transform: translateX(10240px);}
.step11 {transform: translateX(11264px);}
.step12 {transform: translateX(12288px);}
.step13 {transform: translateX(13312px);}
.step14 {transform: translateX(14336px);}
.step15 {transform: translateX(15360px);}
.step16 {transform: translateX(16384px);}
.step17 {transform: translateX(17408px);}
.step18 {transform: translateX(18432px);}
.step19 {transform: translateX(19456px);}
.step20 {transform: translateX(20480px);}
.step21 {transform: translateX(21504px);}
.step22 {transform: translateX(22528px);}
.step23 {transform: translateX(23552px);}
.step24 {transform: translateX(24576px);}
.step25 {transform: translateX(25600px);}
.step26 {transform: translateX(26624px);}
.step27 {transform: translateX(27648px);}
.step28 {transform: translateX(28672px);}
.step29 {transform: translateX(29696px);}
    </style>

    <path d="M 383 720 Q 519 753 527 757 Q 536 764 531 773 Q 524 783 496 791 Q 472 795 360 761 Q 234 737 197 732 Q 161 726 187 710 Q 226 686 284 700 Q 306 706 334 709 L 383 720 Z" fill="lightgray" class="stroke step4"/>
    <path d="M 352 596 Q 388 660 405 676 Q 412 680 411 690 Q 408 705 383 720 C 358 737 335 739 334 709 Q 337 625 217 479 Q 118 380 57 327 Q 50 323 59 320 Q 114 327 220 426 Q 275 486 331 565 L 352 596 Z" fill="lightgray" class="stroke step4"/>
    <path d="M 331 565 Q 334 475 317 385 Q 308 355 335 310 Q 345 294 351 290 Q 361 289 365 300 Q 371 313 376 429 Q 376 520 382 559 Q 385 569 379 575 Q 364 588 352 596 C 330 612 330 595 331 565 Z" fill="lightgray" class="stroke step4"/>
    <path d="M 446 509 Q 473 482 500 451 Q 510 439 523 439 Q 532 438 537 449 Q 541 461 537 485 Q 534 504 506 522 Q 437 555 428 551 Q 424 548 424 537 Q 425 527 446 509 Z" fill="lightgray" class="stroke step4"/>
    <path d="M 155 217 Q 142 214 139 206 Q 138 196 153 184 Q 195 157 237 173 Q 369 224 505 249 Q 523 253 523 260 Q 523 273 504 282 Q 476 292 452 286 Q 245 229 155 217 Z" fill="lightgray" class="stroke step4"/>
    <path d="M 657 645 Q 658 648 753 684 Q 757 687 768 682 Q 778 675 772 654 Q 724 513 725 512 Q 725 500 746 494 Q 789 463 823 413 Q 851 371 853 332 Q 853 311 840 299 Q 827 289 800 293 Q 760 300 726 303 Q 719 304 719 297 Q 722 290 736 280 Q 814 243 830 215 Q 837 202 850 201 Q 860 200 875 212 Q 912 261 913 319 Q 914 409 789 504 Q 747 523 818 620 Q 834 653 862 668 Q 890 687 863 704 Q 824 732 800 742 Q 782 746 768 736 Q 744 714 722 706 Q 683 690 641 672 C 613 660 630 632 657 645 Z" fill="lightgray" class="hide"/>
    <path d="M 593 -14 Q 599 -39 606 -49 Q 612 -56 619 -54 Q 634 -45 640 16 Q 649 103 647 189 Q 647 205 646 570 L 657 645 C 659 661 659 661 641 672 Q 610 691 597 694 Q 584 698 568 689 Q 559 682 567 671 Q 591 616 593 597 Q 593 311 590 189 Q 587 38 593 -14 Z" fill="lightgray" class="hide"/></g><g transform="scale(1, -1) translate(0, -900)">
    <style type="text/css">
        .origin {display:none;}
        .hide {display:none;}
        .stroke {fill: #000000;}
        
.step1 {transform: translateX(1024px);}
.step2 {transform: translateX(2048px);}
.step3 {transform: translateX(3072px);}
.step4 {transform: translateX(4096px);}
.step5 {transform: translateX(5120px);}
.step6 {transform: translateX(6144px);}
.step7 {transform: translateX(7168px);}
.step8 {transform: translateX(8192px);}
.step9 {transform: translateX(9216px);}
.step10 {transform: translateX(10240px);}
.step11 {transform: translateX(11264px);}
.step12 {transform: translateX(12288px);}
.step13 {transform: translateX(13312px);}
.step14 {transform: translateX(14336px);}
.step15 {transform: translateX(15360px);}
.step16 {transform: translateX(16384px);}
.step17 {transform: translateX(17408px);}
.step18 {transform: translateX(18432px);}
.step19 {transform: translateX(19456px);}
.step20 {transform: translateX(20480px);}
.step21 {transform: translateX(21504px);}
.step22 {transform: translateX(22528px);}
.step23 {transform: translateX(23552px);}
.step24 {transform: translateX(24576px);}
.step25 {transform: translateX(25600px);}
.step26 {transform: translateX(26624px);}
.step27 {transform: translateX(27648px);}
.step28 {transform: translateX(28672px);}
.step29 {transform: translateX(29696px);}
    </style>

    <path d="M 383 720 Q 519 753 527 757 Q 536 764 531 773 Q 524 783 496 791 Q 472 795 360 761 Q 234 737 197 732 Q 161 726 187 710 Q 226 686 284 700 Q 306 706 334 709 L 383 720 Z" fill="lightgray" class="stroke step5"/>
    <path d="M 352 596 Q 388 660 405 676 Q 412 680 411 690 Q 408 705 383 720 C 358 737 335 739 334 709 Q 337 625 217 479 Q 118 380 57 327 Q 50 323 59 320 Q 114 327 220 426 Q 275 486 331 565 L 352 596 Z" fill="lightgray" class="stroke step5"/>
    <path d="M 331 565 Q 334 475 317 385 Q 308 355 335 310 Q 345 294 351 290 Q 361 289 365 300 Q 371 313 376 429 Q 376 520 382 559 Q 385 569 379 575 Q 364 588 352 596 C 330 612 330 595 331 565 Z" fill="lightgray" class="stroke step5"/>
    <path d="M 446 509 Q 473 482 500 451 Q 510 439 523 439 Q 532 438 537 449 Q 541 461 537 485 Q 534 504 506 522 Q 437 555 428 551 Q 424 548 424 537 Q 425 527 446 509 Z" fill="lightgray" class="stroke step5"/>
    <path d="M 155 217 Q 142 214 139 206 Q 138 196 153 184 Q 195 157 237 173 Q 369 224 505 249 Q 523 253 523 260 Q 523 273 504 282 Q 476 292 452 286 Q 245 229 155 217 Z" fill="lightgray" class="stroke step5"/>
    <path d="M 657 645 Q 658 648 753 684 Q 757 687 768 682 Q 778 675 772 654 Q 724 513 725 512 Q 725 500 746 494 Q 789 463 823 413 Q 851 371 853 332 Q 853 311 840 299 Q 827 289 800 293 Q 760 300 726 303 Q 719 304 719 297 Q 722 290 736 280 Q 814 243 830 215 Q 837 202 850 201 Q 860 200 875 212 Q 912 261 913 319 Q 914 409 789 504 Q 747 523 818 620 Q 834 653 862 668 Q 890 687 863 704 Q 824 732 800 742 Q 782 746 768 736 Q 744 714 722 706 Q 683 690 641 672 C 613 660 630 632 657 645 Z" fill="lightgray" class="stroke step5"/>
    <path d="M 593 -14 Q 599 -39 606 -49 Q 612 -56 619 -54 Q 634 -45 640 16 Q 649 103 647 189 Q 647 205 646 570 L 657 645 C 659 661 659 661 641 672 Q 610 691 597 694 Q 584 698 568 689 Q 559 682 567 671 Q 591 616 593 597 Q 593 311 590 189 Q 587 38 593 -14 Z" fill="lightgray" class="hide"/></g><g transform="scale(1, -1) translate(0, -900)">
    <style type="text/css">
        .origin {display:none;}
        .hide {display:none;}
        .stroke {fill: #000000;}
        
.step1 {transform: translateX(1024px);}
.step2 {transform: translateX(2048px);}
.step3 {transform: translateX(3072px);}
.step4 {transform: translateX(4096px);}
.step5 {transform: translateX(5120px);}
.step6 {transform: translateX(6144px);}
.step7 {transform: translateX(7168px);}
.step8 {transform: translateX(8192px);}
.step9 {transform: translateX(9216px);}
.step10 {transform: translateX(10240px);}
.step11 {transform: translateX(11264px);}
.step12 {transform: translateX(12288px);}
.step13 {transform: translateX(13312px);}
.step14 {transform: translateX(14336px);}
.step15 {transform: translateX(15360px);}
.step16 {transform: translateX(16384px);}
.step17 {transform: translateX(17408px);}
.step18 {transform: translateX(18432px);}
.step19 {transform: translateX(19456px);}
.step20 {transform: translateX(20480px);}
.step21 {transform: translateX(21504px);}
.step22 {transform: translateX(22528px);}
.step23 {transform: translateX(23552px);}
.step24 {transform: translateX(24576px);}
.step25 {transform: translateX(25600px);}
.step26 {transform: translateX(26624px);}
.step27 {transform: translateX(27648px);}
.step28 {transform: translateX(28672px);}
.step29 {transform: translateX(29696px);}
    </style>

    <path d="M 383 720 Q 519 753 527 757 Q 536 764 531 773 Q 524 783 496 791 Q 472 795 360 761 Q 234 737 197 732 Q 161 726 187 710 Q 226 686 284 700 Q 306 706 334 709 L 383 720 Z" fill="lightgray" class="stroke step6"/>
    <path d="M 352 596 Q 388 660 405 676 Q 412 680 411 690 Q 408 705 383 720 C 358 737 335 739 334 709 Q 337 625 217 479 Q 118 380 57 327 Q 50 323 59 320 Q 114 327 220 426 Q 275 486 331 565 L 352 596 Z" fill="lightgray" class="stroke step6"/>
    <path d="M 331 565 Q 334 475 317 385 Q 308 355 335 310 Q 345 294 351 290 Q 361 289 365 300 Q 371 313 376 429 Q 376 520 382 559 Q 385 569 379 575 Q 364 588 352 596 C 330 612 330 595 331 565 Z" fill="lightgray" class="stroke step6"/>
    <path d="M 446 509 Q 473 482 500 451 Q 510 439 523 439 Q 532 438 537 449 Q 541 461 537 485 Q 534 504 506 522 Q 437 555 428 551 Q 424 548 424 537 Q 425 527 446 509 Z" fill="lightgray" class="stroke step6"/>
    <path d="M 155 217 Q 142 214 139 206 Q 138 196 153 184 Q 195 157 237 173 Q 369 224 505 249 Q 523 253 523 260 Q 523 273 504 282 Q 476 292 452 286 Q 245 229 155 217 Z" fill="lightgray" class="stroke step6"/>
    <path d="M 657 645 Q 658 648 753 684 Q 757 687 768 682 Q 778 675 772 654 Q 724 513 725 512 Q 725 500 746 494 Q 789 463 823 413 Q 851 371 853 332 Q 853 311 840 299 Q 827 289 800 293 Q 760 300 726 303 Q 719 304 719 297 Q 722 290 736 280 Q 814 243 830 215 Q 837 202 850 201 Q 860 200 875 212 Q 912 261 913 319 Q 914 409 789 504 Q 747 523 818 620 Q 834 653 862 668 Q 890 687 863 704 Q 824 732 800 742 Q 782 746 768 736 Q 744 714 722 706 Q 683 690 641 672 C 613 660 630 632 657 645 Z" fill="lightgray" class="stroke step6"/>
    <path d="M 593 -14 Q 599 -39 606 -49 Q 612 -56 619 -54 Q 634 -45 640 16 Q 649 103 647 189 Q 647 205 646 570 L 657 645 C 659 661 659 661 641 672 Q 610 691 597 694 Q 584 698 568 689 Q 559 682 567 671 Q 591 616 593 597 Q 593 311 590 189 Q 587 38 593 -14 Z" fill="lightgray" class="stroke step6"/></g></svg>