<svg version="1.1" viewBox="0 0 12288 1024" xmlns="http://www.w3.org/2000/svg">
  
  <g transform="scale(1, -1) translate(0, -900)" class="origin">
    <style type="text/css">
        .origin {display:none;}
        .hide {display:none;}
        .stroke {fill: #000000;}
        
.step1 {transform: translateX(1024px);}
.step2 {transform: translateX(2048px);}
.step3 {transform: translateX(3072px);}
.step4 {transform: translateX(4096px);}
.step5 {transform: translateX(5120px);}
.step6 {transform: translateX(6144px);}
.step7 {transform: translateX(7168px);}
.step8 {transform: translateX(8192px);}
.step9 {transform: translateX(9216px);}
.step10 {transform: translateX(10240px);}
.step11 {transform: translateX(11264px);}
.step12 {transform: translateX(12288px);}
.step13 {transform: translateX(13312px);}
.step14 {transform: translateX(14336px);}
.step15 {transform: translateX(15360px);}
.step16 {transform: translateX(16384px);}
.step17 {transform: translateX(17408px);}
.step18 {transform: translateX(18432px);}
.step19 {transform: translateX(19456px);}
.step20 {transform: translateX(20480px);}
.step21 {transform: translateX(21504px);}
.step22 {transform: translateX(22528px);}
.step23 {transform: translateX(23552px);}
.step24 {transform: translateX(24576px);}
.step25 {transform: translateX(25600px);}
.step26 {transform: translateX(26624px);}
.step27 {transform: translateX(27648px);}
.step28 {transform: translateX(28672px);}
.step29 {transform: translateX(29696px);}
    </style>

    <path d="M 191 482 Q 195 491 202 496 Q 244 547 332 693 L 343 712 Q 358 736 372 749 Q 382 761 377 775 Q 373 788 342 811 Q 314 830 293 829 Q 274 826 283 804 Q 298 771 286 744 Q 226 588 66 384 Q 56 374 54 367 Q 50 355 65 358 Q 99 367 186 475 L 191 482 Z" fill="lightgray"/>
    <path d="M 332 693 Q 336 684 358 670 Q 392 646 430 616 Q 443 606 456 607 Q 466 608 469 620 Q 472 633 463 659 Q 451 690 351 711 Q 348 712 343 712 C 319 714 319 714 332 693 Z" fill="lightgray"/>
    <path d="M 301 470 Q 412 504 418 510 Q 425 519 420 526 Q 413 536 385 539 Q 357 542 331 527 Q 304 515 275 505 Q 244 495 204 487 Q 195 486 191 482 C 184 478 184 478 186 475 Q 186 472 197 465 Q 228 455 267 459 L 301 470 Z" fill="lightgray"/>
    <path d="M 332 349 Q 353 356 378 363 Q 406 372 409 376 Q 416 383 412 390 Q 405 400 379 404 Q 357 405 334 396 L 282 374 Q 272 373 265 369 Q 228 357 184 349 Q 153 340 177 328 Q 211 315 283 334 L 332 349 Z" fill="lightgray"/>
    <path d="M 326 173 Q 329 270 332 349 L 334 396 Q 337 439 333 445 Q 317 461 301 470 C 276 486 253 486 267 459 Q 282 435 282 374 L 283 334 Q 283 274 283 161 C 283 131 325 143 326 173 Z" fill="lightgray"/>
    <path d="M 158 237 Q 179 216 200 191 Q 210 179 223 179 Q 232 178 237 189 Q 241 201 237 225 Q 230 252 158 276 Q 145 280 140 279 Q 136 276 136 265 Q 137 255 158 237 Z" fill="lightgray"/>
    <path d="M 392 297 Q 382 275 359 241 Q 355 237 359 231 Q 365 231 370 234 Q 419 271 445 286 Q 458 290 454 298 Q 450 308 434 321 Q 419 333 404 334 Q 394 333 395 319 Q 396 309 392 297 Z" fill="lightgray"/>
    <path d="M 283 161 Q 226 146 166 129 Q 148 123 118 125 Q 105 124 103 113 Q 102 100 110 90 Q 134 74 168 54 Q 178 51 191 60 Q 213 78 388 160 Q 412 170 428 183 Q 441 190 442 200 Q 436 206 424 203 Q 376 190 326 173 L 283 161 Z" fill="lightgray"/>
    <path d="M 525 521 Q 504 537 480 544 Q 471 545 465 538 Q 462 532 469 522 Q 515 426 479 209 Q 463 133 465 121 Q 474 88 485 76 Q 495 63 505 76 Q 532 103 533 290 Q 533 429 539 483 C 542 510 542 510 525 521 Z" fill="lightgray"/>
    <path d="M 539 483 Q 599 504 639 514 L 689 528 Q 726 540 772 549 Q 791 556 803 546 Q 813 540 818 489 Q 831 320 823 125 Q 823 97 813 88 Q 800 78 729 90 Q 713 93 714 83 Q 715 76 729 70 Q 792 28 825 -5 Q 847 -24 859 -22 Q 872 -18 882 10 Q 897 56 894 122 Q 878 371 877 463 Q 876 502 887 524 Q 897 546 888 556 Q 878 571 831 592 Q 812 601 794 596 Q 760 583 695 562 L 644 548 Q 586 535 525 521 C 496 514 511 473 539 483 Z" fill="lightgray"/>
    <path d="M 639 514 Q 621 421 557 308 Q 553 302 551 296 Q 550 287 559 289 Q 589 295 646 397 Q 646 398 661 433 L 669 454 Q 687 517 689 528 L 695 562 Q 708 685 711 688 Q 718 701 712 713 Q 697 728 669 739 Q 653 748 641 743 Q 631 737 636 725 Q 661 691 644 548 L 639 514 Z" fill="lightgray"/>
    <path d="M 661 433 Q 706 394 758 341 Q 771 326 784 323 Q 791 322 797 330 Q 806 340 795 376 Q 786 412 669 454 C 641 464 638 453 661 433 Z" fill="lightgray"/></g>
<g transform="scale(1, -1) translate(0, -900)">
    <style type="text/css">
        .origin {display:none;}
        .hide {display:none;}
        .stroke {fill: #000000;}
        
.step1 {transform: translateX(1024px);}
.step2 {transform: translateX(2048px);}
.step3 {transform: translateX(3072px);}
.step4 {transform: translateX(4096px);}
.step5 {transform: translateX(5120px);}
.step6 {transform: translateX(6144px);}
.step7 {transform: translateX(7168px);}
.step8 {transform: translateX(8192px);}
.step9 {transform: translateX(9216px);}
.step10 {transform: translateX(10240px);}
.step11 {transform: translateX(11264px);}
.step12 {transform: translateX(12288px);}
.step13 {transform: translateX(13312px);}
.step14 {transform: translateX(14336px);}
.step15 {transform: translateX(15360px);}
.step16 {transform: translateX(16384px);}
.step17 {transform: translateX(17408px);}
.step18 {transform: translateX(18432px);}
.step19 {transform: translateX(19456px);}
.step20 {transform: translateX(20480px);}
.step21 {transform: translateX(21504px);}
.step22 {transform: translateX(22528px);}
.step23 {transform: translateX(23552px);}
.step24 {transform: translateX(24576px);}
.step25 {transform: translateX(25600px);}
.step26 {transform: translateX(26624px);}
.step27 {transform: translateX(27648px);}
.step28 {transform: translateX(28672px);}
.step29 {transform: translateX(29696px);}
    </style>

    <path d="M 191 482 Q 195 491 202 496 Q 244 547 332 693 L 343 712 Q 358 736 372 749 Q 382 761 377 775 Q 373 788 342 811 Q 314 830 293 829 Q 274 826 283 804 Q 298 771 286 744 Q 226 588 66 384 Q 56 374 54 367 Q 50 355 65 358 Q 99 367 186 475 L 191 482 Z" fill="lightgray" class="stroke step0"/>
    <path d="M 332 693 Q 336 684 358 670 Q 392 646 430 616 Q 443 606 456 607 Q 466 608 469 620 Q 472 633 463 659 Q 451 690 351 711 Q 348 712 343 712 C 319 714 319 714 332 693 Z" fill="lightgray" class="hide"/>
    <path d="M 301 470 Q 412 504 418 510 Q 425 519 420 526 Q 413 536 385 539 Q 357 542 331 527 Q 304 515 275 505 Q 244 495 204 487 Q 195 486 191 482 C 184 478 184 478 186 475 Q 186 472 197 465 Q 228 455 267 459 L 301 470 Z" fill="lightgray" class="hide"/>
    <path d="M 332 349 Q 353 356 378 363 Q 406 372 409 376 Q 416 383 412 390 Q 405 400 379 404 Q 357 405 334 396 L 282 374 Q 272 373 265 369 Q 228 357 184 349 Q 153 340 177 328 Q 211 315 283 334 L 332 349 Z" fill="lightgray" class="hide"/>
    <path d="M 326 173 Q 329 270 332 349 L 334 396 Q 337 439 333 445 Q 317 461 301 470 C 276 486 253 486 267 459 Q 282 435 282 374 L 283 334 Q 283 274 283 161 C 283 131 325 143 326 173 Z" fill="lightgray" class="hide"/>
    <path d="M 158 237 Q 179 216 200 191 Q 210 179 223 179 Q 232 178 237 189 Q 241 201 237 225 Q 230 252 158 276 Q 145 280 140 279 Q 136 276 136 265 Q 137 255 158 237 Z" fill="lightgray" class="hide"/>
    <path d="M 392 297 Q 382 275 359 241 Q 355 237 359 231 Q 365 231 370 234 Q 419 271 445 286 Q 458 290 454 298 Q 450 308 434 321 Q 419 333 404 334 Q 394 333 395 319 Q 396 309 392 297 Z" fill="lightgray" class="hide"/>
    <path d="M 283 161 Q 226 146 166 129 Q 148 123 118 125 Q 105 124 103 113 Q 102 100 110 90 Q 134 74 168 54 Q 178 51 191 60 Q 213 78 388 160 Q 412 170 428 183 Q 441 190 442 200 Q 436 206 424 203 Q 376 190 326 173 L 283 161 Z" fill="lightgray" class="hide"/>
    <path d="M 525 521 Q 504 537 480 544 Q 471 545 465 538 Q 462 532 469 522 Q 515 426 479 209 Q 463 133 465 121 Q 474 88 485 76 Q 495 63 505 76 Q 532 103 533 290 Q 533 429 539 483 C 542 510 542 510 525 521 Z" fill="lightgray" class="hide"/>
    <path d="M 539 483 Q 599 504 639 514 L 689 528 Q 726 540 772 549 Q 791 556 803 546 Q 813 540 818 489 Q 831 320 823 125 Q 823 97 813 88 Q 800 78 729 90 Q 713 93 714 83 Q 715 76 729 70 Q 792 28 825 -5 Q 847 -24 859 -22 Q 872 -18 882 10 Q 897 56 894 122 Q 878 371 877 463 Q 876 502 887 524 Q 897 546 888 556 Q 878 571 831 592 Q 812 601 794 596 Q 760 583 695 562 L 644 548 Q 586 535 525 521 C 496 514 511 473 539 483 Z" fill="lightgray" class="hide"/>
    <path d="M 639 514 Q 621 421 557 308 Q 553 302 551 296 Q 550 287 559 289 Q 589 295 646 397 Q 646 398 661 433 L 669 454 Q 687 517 689 528 L 695 562 Q 708 685 711 688 Q 718 701 712 713 Q 697 728 669 739 Q 653 748 641 743 Q 631 737 636 725 Q 661 691 644 548 L 639 514 Z" fill="lightgray" class="hide"/>
    <path d="M 661 433 Q 706 394 758 341 Q 771 326 784 323 Q 791 322 797 330 Q 806 340 795 376 Q 786 412 669 454 C 641 464 638 453 661 433 Z" fill="lightgray" class="hide"/></g><g transform="scale(1, -1) translate(0, -900)">
    <style type="text/css">
        .origin {display:none;}
        .hide {display:none;}
        .stroke {fill: #000000;}
        
.step1 {transform: translateX(1024px);}
.step2 {transform: translateX(2048px);}
.step3 {transform: translateX(3072px);}
.step4 {transform: translateX(4096px);}
.step5 {transform: translateX(5120px);}
.step6 {transform: translateX(6144px);}
.step7 {transform: translateX(7168px);}
.step8 {transform: translateX(8192px);}
.step9 {transform: translateX(9216px);}
.step10 {transform: translateX(10240px);}
.step11 {transform: translateX(11264px);}
.step12 {transform: translateX(12288px);}
.step13 {transform: translateX(13312px);}
.step14 {transform: translateX(14336px);}
.step15 {transform: translateX(15360px);}
.step16 {transform: translateX(16384px);}
.step17 {transform: translateX(17408px);}
.step18 {transform: translateX(18432px);}
.step19 {transform: translateX(19456px);}
.step20 {transform: translateX(20480px);}
.step21 {transform: translateX(21504px);}
.step22 {transform: translateX(22528px);}
.step23 {transform: translateX(23552px);}
.step24 {transform: translateX(24576px);}
.step25 {transform: translateX(25600px);}
.step26 {transform: translateX(26624px);}
.step27 {transform: translateX(27648px);}
.step28 {transform: translateX(28672px);}
.step29 {transform: translateX(29696px);}
    </style>

    <path d="M 191 482 Q 195 491 202 496 Q 244 547 332 693 L 343 712 Q 358 736 372 749 Q 382 761 377 775 Q 373 788 342 811 Q 314 830 293 829 Q 274 826 283 804 Q 298 771 286 744 Q 226 588 66 384 Q 56 374 54 367 Q 50 355 65 358 Q 99 367 186 475 L 191 482 Z" fill="lightgray" class="stroke step1"/>
    <path d="M 332 693 Q 336 684 358 670 Q 392 646 430 616 Q 443 606 456 607 Q 466 608 469 620 Q 472 633 463 659 Q 451 690 351 711 Q 348 712 343 712 C 319 714 319 714 332 693 Z" fill="lightgray" class="stroke step1"/>
    <path d="M 301 470 Q 412 504 418 510 Q 425 519 420 526 Q 413 536 385 539 Q 357 542 331 527 Q 304 515 275 505 Q 244 495 204 487 Q 195 486 191 482 C 184 478 184 478 186 475 Q 186 472 197 465 Q 228 455 267 459 L 301 470 Z" fill="lightgray" class="hide"/>
    <path d="M 332 349 Q 353 356 378 363 Q 406 372 409 376 Q 416 383 412 390 Q 405 400 379 404 Q 357 405 334 396 L 282 374 Q 272 373 265 369 Q 228 357 184 349 Q 153 340 177 328 Q 211 315 283 334 L 332 349 Z" fill="lightgray" class="hide"/>
    <path d="M 326 173 Q 329 270 332 349 L 334 396 Q 337 439 333 445 Q 317 461 301 470 C 276 486 253 486 267 459 Q 282 435 282 374 L 283 334 Q 283 274 283 161 C 283 131 325 143 326 173 Z" fill="lightgray" class="hide"/>
    <path d="M 158 237 Q 179 216 200 191 Q 210 179 223 179 Q 232 178 237 189 Q 241 201 237 225 Q 230 252 158 276 Q 145 280 140 279 Q 136 276 136 265 Q 137 255 158 237 Z" fill="lightgray" class="hide"/>
    <path d="M 392 297 Q 382 275 359 241 Q 355 237 359 231 Q 365 231 370 234 Q 419 271 445 286 Q 458 290 454 298 Q 450 308 434 321 Q 419 333 404 334 Q 394 333 395 319 Q 396 309 392 297 Z" fill="lightgray" class="hide"/>
    <path d="M 283 161 Q 226 146 166 129 Q 148 123 118 125 Q 105 124 103 113 Q 102 100 110 90 Q 134 74 168 54 Q 178 51 191 60 Q 213 78 388 160 Q 412 170 428 183 Q 441 190 442 200 Q 436 206 424 203 Q 376 190 326 173 L 283 161 Z" fill="lightgray" class="hide"/>
    <path d="M 525 521 Q 504 537 480 544 Q 471 545 465 538 Q 462 532 469 522 Q 515 426 479 209 Q 463 133 465 121 Q 474 88 485 76 Q 495 63 505 76 Q 532 103 533 290 Q 533 429 539 483 C 542 510 542 510 525 521 Z" fill="lightgray" class="hide"/>
    <path d="M 539 483 Q 599 504 639 514 L 689 528 Q 726 540 772 549 Q 791 556 803 546 Q 813 540 818 489 Q 831 320 823 125 Q 823 97 813 88 Q 800 78 729 90 Q 713 93 714 83 Q 715 76 729 70 Q 792 28 825 -5 Q 847 -24 859 -22 Q 872 -18 882 10 Q 897 56 894 122 Q 878 371 877 463 Q 876 502 887 524 Q 897 546 888 556 Q 878 571 831 592 Q 812 601 794 596 Q 760 583 695 562 L 644 548 Q 586 535 525 521 C 496 514 511 473 539 483 Z" fill="lightgray" class="hide"/>
    <path d="M 639 514 Q 621 421 557 308 Q 553 302 551 296 Q 550 287 559 289 Q 589 295 646 397 Q 646 398 661 433 L 669 454 Q 687 517 689 528 L 695 562 Q 708 685 711 688 Q 718 701 712 713 Q 697 728 669 739 Q 653 748 641 743 Q 631 737 636 725 Q 661 691 644 548 L 639 514 Z" fill="lightgray" class="hide"/>
    <path d="M 661 433 Q 706 394 758 341 Q 771 326 784 323 Q 791 322 797 330 Q 806 340 795 376 Q 786 412 669 454 C 641 464 638 453 661 433 Z" fill="lightgray" class="hide"/></g><g transform="scale(1, -1) translate(0, -900)">
    <style type="text/css">
        .origin {display:none;}
        .hide {display:none;}
        .stroke {fill: #000000;}
        
.step1 {transform: translateX(1024px);}
.step2 {transform: translateX(2048px);}
.step3 {transform: translateX(3072px);}
.step4 {transform: translateX(4096px);}
.step5 {transform: translateX(5120px);}
.step6 {transform: translateX(6144px);}
.step7 {transform: translateX(7168px);}
.step8 {transform: translateX(8192px);}
.step9 {transform: translateX(9216px);}
.step10 {transform: translateX(10240px);}
.step11 {transform: translateX(11264px);}
.step12 {transform: translateX(12288px);}
.step13 {transform: translateX(13312px);}
.step14 {transform: translateX(14336px);}
.step15 {transform: translateX(15360px);}
.step16 {transform: translateX(16384px);}
.step17 {transform: translateX(17408px);}
.step18 {transform: translateX(18432px);}
.step19 {transform: translateX(19456px);}
.step20 {transform: translateX(20480px);}
.step21 {transform: translateX(21504px);}
.step22 {transform: translateX(22528px);}
.step23 {transform: translateX(23552px);}
.step24 {transform: translateX(24576px);}
.step25 {transform: translateX(25600px);}
.step26 {transform: translateX(26624px);}
.step27 {transform: translateX(27648px);}
.step28 {transform: translateX(28672px);}
.step29 {transform: translateX(29696px);}
    </style>

    <path d="M 191 482 Q 195 491 202 496 Q 244 547 332 693 L 343 712 Q 358 736 372 749 Q 382 761 377 775 Q 373 788 342 811 Q 314 830 293 829 Q 274 826 283 804 Q 298 771 286 744 Q 226 588 66 384 Q 56 374 54 367 Q 50 355 65 358 Q 99 367 186 475 L 191 482 Z" fill="lightgray" class="stroke step2"/>
    <path d="M 332 693 Q 336 684 358 670 Q 392 646 430 616 Q 443 606 456 607 Q 466 608 469 620 Q 472 633 463 659 Q 451 690 351 711 Q 348 712 343 712 C 319 714 319 714 332 693 Z" fill="lightgray" class="stroke step2"/>
    <path d="M 301 470 Q 412 504 418 510 Q 425 519 420 526 Q 413 536 385 539 Q 357 542 331 527 Q 304 515 275 505 Q 244 495 204 487 Q 195 486 191 482 C 184 478 184 478 186 475 Q 186 472 197 465 Q 228 455 267 459 L 301 470 Z" fill="lightgray" class="stroke step2"/>
    <path d="M 332 349 Q 353 356 378 363 Q 406 372 409 376 Q 416 383 412 390 Q 405 400 379 404 Q 357 405 334 396 L 282 374 Q 272 373 265 369 Q 228 357 184 349 Q 153 340 177 328 Q 211 315 283 334 L 332 349 Z" fill="lightgray" class="hide"/>
    <path d="M 326 173 Q 329 270 332 349 L 334 396 Q 337 439 333 445 Q 317 461 301 470 C 276 486 253 486 267 459 Q 282 435 282 374 L 283 334 Q 283 274 283 161 C 283 131 325 143 326 173 Z" fill="lightgray" class="hide"/>
    <path d="M 158 237 Q 179 216 200 191 Q 210 179 223 179 Q 232 178 237 189 Q 241 201 237 225 Q 230 252 158 276 Q 145 280 140 279 Q 136 276 136 265 Q 137 255 158 237 Z" fill="lightgray" class="hide"/>
    <path d="M 392 297 Q 382 275 359 241 Q 355 237 359 231 Q 365 231 370 234 Q 419 271 445 286 Q 458 290 454 298 Q 450 308 434 321 Q 419 333 404 334 Q 394 333 395 319 Q 396 309 392 297 Z" fill="lightgray" class="hide"/>
    <path d="M 283 161 Q 226 146 166 129 Q 148 123 118 125 Q 105 124 103 113 Q 102 100 110 90 Q 134 74 168 54 Q 178 51 191 60 Q 213 78 388 160 Q 412 170 428 183 Q 441 190 442 200 Q 436 206 424 203 Q 376 190 326 173 L 283 161 Z" fill="lightgray" class="hide"/>
    <path d="M 525 521 Q 504 537 480 544 Q 471 545 465 538 Q 462 532 469 522 Q 515 426 479 209 Q 463 133 465 121 Q 474 88 485 76 Q 495 63 505 76 Q 532 103 533 290 Q 533 429 539 483 C 542 510 542 510 525 521 Z" fill="lightgray" class="hide"/>
    <path d="M 539 483 Q 599 504 639 514 L 689 528 Q 726 540 772 549 Q 791 556 803 546 Q 813 540 818 489 Q 831 320 823 125 Q 823 97 813 88 Q 800 78 729 90 Q 713 93 714 83 Q 715 76 729 70 Q 792 28 825 -5 Q 847 -24 859 -22 Q 872 -18 882 10 Q 897 56 894 122 Q 878 371 877 463 Q 876 502 887 524 Q 897 546 888 556 Q 878 571 831 592 Q 812 601 794 596 Q 760 583 695 562 L 644 548 Q 586 535 525 521 C 496 514 511 473 539 483 Z" fill="lightgray" class="hide"/>
    <path d="M 639 514 Q 621 421 557 308 Q 553 302 551 296 Q 550 287 559 289 Q 589 295 646 397 Q 646 398 661 433 L 669 454 Q 687 517 689 528 L 695 562 Q 708 685 711 688 Q 718 701 712 713 Q 697 728 669 739 Q 653 748 641 743 Q 631 737 636 725 Q 661 691 644 548 L 639 514 Z" fill="lightgray" class="hide"/>
    <path d="M 661 433 Q 706 394 758 341 Q 771 326 784 323 Q 791 322 797 330 Q 806 340 795 376 Q 786 412 669 454 C 641 464 638 453 661 433 Z" fill="lightgray" class="hide"/></g><g transform="scale(1, -1) translate(0, -900)">
    <style type="text/css">
        .origin {display:none;}
        .hide {display:none;}
        .stroke {fill: #000000;}
        
.step1 {transform: translateX(1024px);}
.step2 {transform: translateX(2048px);}
.step3 {transform: translateX(3072px);}
.step4 {transform: translateX(4096px);}
.step5 {transform: translateX(5120px);}
.step6 {transform: translateX(6144px);}
.step7 {transform: translateX(7168px);}
.step8 {transform: translateX(8192px);}
.step9 {transform: translateX(9216px);}
.step10 {transform: translateX(10240px);}
.step11 {transform: translateX(11264px);}
.step12 {transform: translateX(12288px);}
.step13 {transform: translateX(13312px);}
.step14 {transform: translateX(14336px);}
.step15 {transform: translateX(15360px);}
.step16 {transform: translateX(16384px);}
.step17 {transform: translateX(17408px);}
.step18 {transform: translateX(18432px);}
.step19 {transform: translateX(19456px);}
.step20 {transform: translateX(20480px);}
.step21 {transform: translateX(21504px);}
.step22 {transform: translateX(22528px);}
.step23 {transform: translateX(23552px);}
.step24 {transform: translateX(24576px);}
.step25 {transform: translateX(25600px);}
.step26 {transform: translateX(26624px);}
.step27 {transform: translateX(27648px);}
.step28 {transform: translateX(28672px);}
.step29 {transform: translateX(29696px);}
    </style>

    <path d="M 191 482 Q 195 491 202 496 Q 244 547 332 693 L 343 712 Q 358 736 372 749 Q 382 761 377 775 Q 373 788 342 811 Q 314 830 293 829 Q 274 826 283 804 Q 298 771 286 744 Q 226 588 66 384 Q 56 374 54 367 Q 50 355 65 358 Q 99 367 186 475 L 191 482 Z" fill="lightgray" class="stroke step3"/>
    <path d="M 332 693 Q 336 684 358 670 Q 392 646 430 616 Q 443 606 456 607 Q 466 608 469 620 Q 472 633 463 659 Q 451 690 351 711 Q 348 712 343 712 C 319 714 319 714 332 693 Z" fill="lightgray" class="stroke step3"/>
    <path d="M 301 470 Q 412 504 418 510 Q 425 519 420 526 Q 413 536 385 539 Q 357 542 331 527 Q 304 515 275 505 Q 244 495 204 487 Q 195 486 191 482 C 184 478 184 478 186 475 Q 186 472 197 465 Q 228 455 267 459 L 301 470 Z" fill="lightgray" class="stroke step3"/>
    <path d="M 332 349 Q 353 356 378 363 Q 406 372 409 376 Q 416 383 412 390 Q 405 400 379 404 Q 357 405 334 396 L 282 374 Q 272 373 265 369 Q 228 357 184 349 Q 153 340 177 328 Q 211 315 283 334 L 332 349 Z" fill="lightgray" class="stroke step3"/>
    <path d="M 326 173 Q 329 270 332 349 L 334 396 Q 337 439 333 445 Q 317 461 301 470 C 276 486 253 486 267 459 Q 282 435 282 374 L 283 334 Q 283 274 283 161 C 283 131 325 143 326 173 Z" fill="lightgray" class="hide"/>
    <path d="M 158 237 Q 179 216 200 191 Q 210 179 223 179 Q 232 178 237 189 Q 241 201 237 225 Q 230 252 158 276 Q 145 280 140 279 Q 136 276 136 265 Q 137 255 158 237 Z" fill="lightgray" class="hide"/>
    <path d="M 392 297 Q 382 275 359 241 Q 355 237 359 231 Q 365 231 370 234 Q 419 271 445 286 Q 458 290 454 298 Q 450 308 434 321 Q 419 333 404 334 Q 394 333 395 319 Q 396 309 392 297 Z" fill="lightgray" class="hide"/>
    <path d="M 283 161 Q 226 146 166 129 Q 148 123 118 125 Q 105 124 103 113 Q 102 100 110 90 Q 134 74 168 54 Q 178 51 191 60 Q 213 78 388 160 Q 412 170 428 183 Q 441 190 442 200 Q 436 206 424 203 Q 376 190 326 173 L 283 161 Z" fill="lightgray" class="hide"/>
    <path d="M 525 521 Q 504 537 480 544 Q 471 545 465 538 Q 462 532 469 522 Q 515 426 479 209 Q 463 133 465 121 Q 474 88 485 76 Q 495 63 505 76 Q 532 103 533 290 Q 533 429 539 483 C 542 510 542 510 525 521 Z" fill="lightgray" class="hide"/>
    <path d="M 539 483 Q 599 504 639 514 L 689 528 Q 726 540 772 549 Q 791 556 803 546 Q 813 540 818 489 Q 831 320 823 125 Q 823 97 813 88 Q 800 78 729 90 Q 713 93 714 83 Q 715 76 729 70 Q 792 28 825 -5 Q 847 -24 859 -22 Q 872 -18 882 10 Q 897 56 894 122 Q 878 371 877 463 Q 876 502 887 524 Q 897 546 888 556 Q 878 571 831 592 Q 812 601 794 596 Q 760 583 695 562 L 644 548 Q 586 535 525 521 C 496 514 511 473 539 483 Z" fill="lightgray" class="hide"/>
    <path d="M 639 514 Q 621 421 557 308 Q 553 302 551 296 Q 550 287 559 289 Q 589 295 646 397 Q 646 398 661 433 L 669 454 Q 687 517 689 528 L 695 562 Q 708 685 711 688 Q 718 701 712 713 Q 697 728 669 739 Q 653 748 641 743 Q 631 737 636 725 Q 661 691 644 548 L 639 514 Z" fill="lightgray" class="hide"/>
    <path d="M 661 433 Q 706 394 758 341 Q 771 326 784 323 Q 791 322 797 330 Q 806 340 795 376 Q 786 412 669 454 C 641 464 638 453 661 433 Z" fill="lightgray" class="hide"/></g><g transform="scale(1, -1) translate(0, -900)">
    <style type="text/css">
        .origin {display:none;}
        .hide {display:none;}
        .stroke {fill: #000000;}
        
.step1 {transform: translateX(1024px);}
.step2 {transform: translateX(2048px);}
.step3 {transform: translateX(3072px);}
.step4 {transform: translateX(4096px);}
.step5 {transform: translateX(5120px);}
.step6 {transform: translateX(6144px);}
.step7 {transform: translateX(7168px);}
.step8 {transform: translateX(8192px);}
.step9 {transform: translateX(9216px);}
.step10 {transform: translateX(10240px);}
.step11 {transform: translateX(11264px);}
.step12 {transform: translateX(12288px);}
.step13 {transform: translateX(13312px);}
.step14 {transform: translateX(14336px);}
.step15 {transform: translateX(15360px);}
.step16 {transform: translateX(16384px);}
.step17 {transform: translateX(17408px);}
.step18 {transform: translateX(18432px);}
.step19 {transform: translateX(19456px);}
.step20 {transform: translateX(20480px);}
.step21 {transform: translateX(21504px);}
.step22 {transform: translateX(22528px);}
.step23 {transform: translateX(23552px);}
.step24 {transform: translateX(24576px);}
.step25 {transform: translateX(25600px);}
.step26 {transform: translateX(26624px);}
.step27 {transform: translateX(27648px);}
.step28 {transform: translateX(28672px);}
.step29 {transform: translateX(29696px);}
    </style>

    <path d="M 191 482 Q 195 491 202 496 Q 244 547 332 693 L 343 712 Q 358 736 372 749 Q 382 761 377 775 Q 373 788 342 811 Q 314 830 293 829 Q 274 826 283 804 Q 298 771 286 744 Q 226 588 66 384 Q 56 374 54 367 Q 50 355 65 358 Q 99 367 186 475 L 191 482 Z" fill="lightgray" class="stroke step4"/>
    <path d="M 332 693 Q 336 684 358 670 Q 392 646 430 616 Q 443 606 456 607 Q 466 608 469 620 Q 472 633 463 659 Q 451 690 351 711 Q 348 712 343 712 C 319 714 319 714 332 693 Z" fill="lightgray" class="stroke step4"/>
    <path d="M 301 470 Q 412 504 418 510 Q 425 519 420 526 Q 413 536 385 539 Q 357 542 331 527 Q 304 515 275 505 Q 244 495 204 487 Q 195 486 191 482 C 184 478 184 478 186 475 Q 186 472 197 465 Q 228 455 267 459 L 301 470 Z" fill="lightgray" class="stroke step4"/>
    <path d="M 332 349 Q 353 356 378 363 Q 406 372 409 376 Q 416 383 412 390 Q 405 400 379 404 Q 357 405 334 396 L 282 374 Q 272 373 265 369 Q 228 357 184 349 Q 153 340 177 328 Q 211 315 283 334 L 332 349 Z" fill="lightgray" class="stroke step4"/>
    <path d="M 326 173 Q 329 270 332 349 L 334 396 Q 337 439 333 445 Q 317 461 301 470 C 276 486 253 486 267 459 Q 282 435 282 374 L 283 334 Q 283 274 283 161 C 283 131 325 143 326 173 Z" fill="lightgray" class="stroke step4"/>
    <path d="M 158 237 Q 179 216 200 191 Q 210 179 223 179 Q 232 178 237 189 Q 241 201 237 225 Q 230 252 158 276 Q 145 280 140 279 Q 136 276 136 265 Q 137 255 158 237 Z" fill="lightgray" class="hide"/>
    <path d="M 392 297 Q 382 275 359 241 Q 355 237 359 231 Q 365 231 370 234 Q 419 271 445 286 Q 458 290 454 298 Q 450 308 434 321 Q 419 333 404 334 Q 394 333 395 319 Q 396 309 392 297 Z" fill="lightgray" class="hide"/>
    <path d="M 283 161 Q 226 146 166 129 Q 148 123 118 125 Q 105 124 103 113 Q 102 100 110 90 Q 134 74 168 54 Q 178 51 191 60 Q 213 78 388 160 Q 412 170 428 183 Q 441 190 442 200 Q 436 206 424 203 Q 376 190 326 173 L 283 161 Z" fill="lightgray" class="hide"/>
    <path d="M 525 521 Q 504 537 480 544 Q 471 545 465 538 Q 462 532 469 522 Q 515 426 479 209 Q 463 133 465 121 Q 474 88 485 76 Q 495 63 505 76 Q 532 103 533 290 Q 533 429 539 483 C 542 510 542 510 525 521 Z" fill="lightgray" class="hide"/>
    <path d="M 539 483 Q 599 504 639 514 L 689 528 Q 726 540 772 549 Q 791 556 803 546 Q 813 540 818 489 Q 831 320 823 125 Q 823 97 813 88 Q 800 78 729 90 Q 713 93 714 83 Q 715 76 729 70 Q 792 28 825 -5 Q 847 -24 859 -22 Q 872 -18 882 10 Q 897 56 894 122 Q 878 371 877 463 Q 876 502 887 524 Q 897 546 888 556 Q 878 571 831 592 Q 812 601 794 596 Q 760 583 695 562 L 644 548 Q 586 535 525 521 C 496 514 511 473 539 483 Z" fill="lightgray" class="hide"/>
    <path d="M 639 514 Q 621 421 557 308 Q 553 302 551 296 Q 550 287 559 289 Q 589 295 646 397 Q 646 398 661 433 L 669 454 Q 687 517 689 528 L 695 562 Q 708 685 711 688 Q 718 701 712 713 Q 697 728 669 739 Q 653 748 641 743 Q 631 737 636 725 Q 661 691 644 548 L 639 514 Z" fill="lightgray" class="hide"/>
    <path d="M 661 433 Q 706 394 758 341 Q 771 326 784 323 Q 791 322 797 330 Q 806 340 795 376 Q 786 412 669 454 C 641 464 638 453 661 433 Z" fill="lightgray" class="hide"/></g><g transform="scale(1, -1) translate(0, -900)">
    <style type="text/css">
        .origin {display:none;}
        .hide {display:none;}
        .stroke {fill: #000000;}
        
.step1 {transform: translateX(1024px);}
.step2 {transform: translateX(2048px);}
.step3 {transform: translateX(3072px);}
.step4 {transform: translateX(4096px);}
.step5 {transform: translateX(5120px);}
.step6 {transform: translateX(6144px);}
.step7 {transform: translateX(7168px);}
.step8 {transform: translateX(8192px);}
.step9 {transform: translateX(9216px);}
.step10 {transform: translateX(10240px);}
.step11 {transform: translateX(11264px);}
.step12 {transform: translateX(12288px);}
.step13 {transform: translateX(13312px);}
.step14 {transform: translateX(14336px);}
.step15 {transform: translateX(15360px);}
.step16 {transform: translateX(16384px);}
.step17 {transform: translateX(17408px);}
.step18 {transform: translateX(18432px);}
.step19 {transform: translateX(19456px);}
.step20 {transform: translateX(20480px);}
.step21 {transform: translateX(21504px);}
.step22 {transform: translateX(22528px);}
.step23 {transform: translateX(23552px);}
.step24 {transform: translateX(24576px);}
.step25 {transform: translateX(25600px);}
.step26 {transform: translateX(26624px);}
.step27 {transform: translateX(27648px);}
.step28 {transform: translateX(28672px);}
.step29 {transform: translateX(29696px);}
    </style>

    <path d="M 191 482 Q 195 491 202 496 Q 244 547 332 693 L 343 712 Q 358 736 372 749 Q 382 761 377 775 Q 373 788 342 811 Q 314 830 293 829 Q 274 826 283 804 Q 298 771 286 744 Q 226 588 66 384 Q 56 374 54 367 Q 50 355 65 358 Q 99 367 186 475 L 191 482 Z" fill="lightgray" class="stroke step5"/>
    <path d="M 332 693 Q 336 684 358 670 Q 392 646 430 616 Q 443 606 456 607 Q 466 608 469 620 Q 472 633 463 659 Q 451 690 351 711 Q 348 712 343 712 C 319 714 319 714 332 693 Z" fill="lightgray" class="stroke step5"/>
    <path d="M 301 470 Q 412 504 418 510 Q 425 519 420 526 Q 413 536 385 539 Q 357 542 331 527 Q 304 515 275 505 Q 244 495 204 487 Q 195 486 191 482 C 184 478 184 478 186 475 Q 186 472 197 465 Q 228 455 267 459 L 301 470 Z" fill="lightgray" class="stroke step5"/>
    <path d="M 332 349 Q 353 356 378 363 Q 406 372 409 376 Q 416 383 412 390 Q 405 400 379 404 Q 357 405 334 396 L 282 374 Q 272 373 265 369 Q 228 357 184 349 Q 153 340 177 328 Q 211 315 283 334 L 332 349 Z" fill="lightgray" class="stroke step5"/>
    <path d="M 326 173 Q 329 270 332 349 L 334 396 Q 337 439 333 445 Q 317 461 301 470 C 276 486 253 486 267 459 Q 282 435 282 374 L 283 334 Q 283 274 283 161 C 283 131 325 143 326 173 Z" fill="lightgray" class="stroke step5"/>
    <path d="M 158 237 Q 179 216 200 191 Q 210 179 223 179 Q 232 178 237 189 Q 241 201 237 225 Q 230 252 158 276 Q 145 280 140 279 Q 136 276 136 265 Q 137 255 158 237 Z" fill="lightgray" class="stroke step5"/>
    <path d="M 392 297 Q 382 275 359 241 Q 355 237 359 231 Q 365 231 370 234 Q 419 271 445 286 Q 458 290 454 298 Q 450 308 434 321 Q 419 333 404 334 Q 394 333 395 319 Q 396 309 392 297 Z" fill="lightgray" class="hide"/>
    <path d="M 283 161 Q 226 146 166 129 Q 148 123 118 125 Q 105 124 103 113 Q 102 100 110 90 Q 134 74 168 54 Q 178 51 191 60 Q 213 78 388 160 Q 412 170 428 183 Q 441 190 442 200 Q 436 206 424 203 Q 376 190 326 173 L 283 161 Z" fill="lightgray" class="hide"/>
    <path d="M 525 521 Q 504 537 480 544 Q 471 545 465 538 Q 462 532 469 522 Q 515 426 479 209 Q 463 133 465 121 Q 474 88 485 76 Q 495 63 505 76 Q 532 103 533 290 Q 533 429 539 483 C 542 510 542 510 525 521 Z" fill="lightgray" class="hide"/>
    <path d="M 539 483 Q 599 504 639 514 L 689 528 Q 726 540 772 549 Q 791 556 803 546 Q 813 540 818 489 Q 831 320 823 125 Q 823 97 813 88 Q 800 78 729 90 Q 713 93 714 83 Q 715 76 729 70 Q 792 28 825 -5 Q 847 -24 859 -22 Q 872 -18 882 10 Q 897 56 894 122 Q 878 371 877 463 Q 876 502 887 524 Q 897 546 888 556 Q 878 571 831 592 Q 812 601 794 596 Q 760 583 695 562 L 644 548 Q 586 535 525 521 C 496 514 511 473 539 483 Z" fill="lightgray" class="hide"/>
    <path d="M 639 514 Q 621 421 557 308 Q 553 302 551 296 Q 550 287 559 289 Q 589 295 646 397 Q 646 398 661 433 L 669 454 Q 687 517 689 528 L 695 562 Q 708 685 711 688 Q 718 701 712 713 Q 697 728 669 739 Q 653 748 641 743 Q 631 737 636 725 Q 661 691 644 548 L 639 514 Z" fill="lightgray" class="hide"/>
    <path d="M 661 433 Q 706 394 758 341 Q 771 326 784 323 Q 791 322 797 330 Q 806 340 795 376 Q 786 412 669 454 C 641 464 638 453 661 433 Z" fill="lightgray" class="hide"/></g><g transform="scale(1, -1) translate(0, -900)">
    <style type="text/css">
        .origin {display:none;}
        .hide {display:none;}
        .stroke {fill: #000000;}
        
.step1 {transform: translateX(1024px);}
.step2 {transform: translateX(2048px);}
.step3 {transform: translateX(3072px);}
.step4 {transform: translateX(4096px);}
.step5 {transform: translateX(5120px);}
.step6 {transform: translateX(6144px);}
.step7 {transform: translateX(7168px);}
.step8 {transform: translateX(8192px);}
.step9 {transform: translateX(9216px);}
.step10 {transform: translateX(10240px);}
.step11 {transform: translateX(11264px);}
.step12 {transform: translateX(12288px);}
.step13 {transform: translateX(13312px);}
.step14 {transform: translateX(14336px);}
.step15 {transform: translateX(15360px);}
.step16 {transform: translateX(16384px);}
.step17 {transform: translateX(17408px);}
.step18 {transform: translateX(18432px);}
.step19 {transform: translateX(19456px);}
.step20 {transform: translateX(20480px);}
.step21 {transform: translateX(21504px);}
.step22 {transform: translateX(22528px);}
.step23 {transform: translateX(23552px);}
.step24 {transform: translateX(24576px);}
.step25 {transform: translateX(25600px);}
.step26 {transform: translateX(26624px);}
.step27 {transform: translateX(27648px);}
.step28 {transform: translateX(28672px);}
.step29 {transform: translateX(29696px);}
    </style>

    <path d="M 191 482 Q 195 491 202 496 Q 244 547 332 693 L 343 712 Q 358 736 372 749 Q 382 761 377 775 Q 373 788 342 811 Q 314 830 293 829 Q 274 826 283 804 Q 298 771 286 744 Q 226 588 66 384 Q 56 374 54 367 Q 50 355 65 358 Q 99 367 186 475 L 191 482 Z" fill="lightgray" class="stroke step6"/>
    <path d="M 332 693 Q 336 684 358 670 Q 392 646 430 616 Q 443 606 456 607 Q 466 608 469 620 Q 472 633 463 659 Q 451 690 351 711 Q 348 712 343 712 C 319 714 319 714 332 693 Z" fill="lightgray" class="stroke step6"/>
    <path d="M 301 470 Q 412 504 418 510 Q 425 519 420 526 Q 413 536 385 539 Q 357 542 331 527 Q 304 515 275 505 Q 244 495 204 487 Q 195 486 191 482 C 184 478 184 478 186 475 Q 186 472 197 465 Q 228 455 267 459 L 301 470 Z" fill="lightgray" class="stroke step6"/>
    <path d="M 332 349 Q 353 356 378 363 Q 406 372 409 376 Q 416 383 412 390 Q 405 400 379 404 Q 357 405 334 396 L 282 374 Q 272 373 265 369 Q 228 357 184 349 Q 153 340 177 328 Q 211 315 283 334 L 332 349 Z" fill="lightgray" class="stroke step6"/>
    <path d="M 326 173 Q 329 270 332 349 L 334 396 Q 337 439 333 445 Q 317 461 301 470 C 276 486 253 486 267 459 Q 282 435 282 374 L 283 334 Q 283 274 283 161 C 283 131 325 143 326 173 Z" fill="lightgray" class="stroke step6"/>
    <path d="M 158 237 Q 179 216 200 191 Q 210 179 223 179 Q 232 178 237 189 Q 241 201 237 225 Q 230 252 158 276 Q 145 280 140 279 Q 136 276 136 265 Q 137 255 158 237 Z" fill="lightgray" class="stroke step6"/>
    <path d="M 392 297 Q 382 275 359 241 Q 355 237 359 231 Q 365 231 370 234 Q 419 271 445 286 Q 458 290 454 298 Q 450 308 434 321 Q 419 333 404 334 Q 394 333 395 319 Q 396 309 392 297 Z" fill="lightgray" class="stroke step6"/>
    <path d="M 283 161 Q 226 146 166 129 Q 148 123 118 125 Q 105 124 103 113 Q 102 100 110 90 Q 134 74 168 54 Q 178 51 191 60 Q 213 78 388 160 Q 412 170 428 183 Q 441 190 442 200 Q 436 206 424 203 Q 376 190 326 173 L 283 161 Z" fill="lightgray" class="hide"/>
    <path d="M 525 521 Q 504 537 480 544 Q 471 545 465 538 Q 462 532 469 522 Q 515 426 479 209 Q 463 133 465 121 Q 474 88 485 76 Q 495 63 505 76 Q 532 103 533 290 Q 533 429 539 483 C 542 510 542 510 525 521 Z" fill="lightgray" class="hide"/>
    <path d="M 539 483 Q 599 504 639 514 L 689 528 Q 726 540 772 549 Q 791 556 803 546 Q 813 540 818 489 Q 831 320 823 125 Q 823 97 813 88 Q 800 78 729 90 Q 713 93 714 83 Q 715 76 729 70 Q 792 28 825 -5 Q 847 -24 859 -22 Q 872 -18 882 10 Q 897 56 894 122 Q 878 371 877 463 Q 876 502 887 524 Q 897 546 888 556 Q 878 571 831 592 Q 812 601 794 596 Q 760 583 695 562 L 644 548 Q 586 535 525 521 C 496 514 511 473 539 483 Z" fill="lightgray" class="hide"/>
    <path d="M 639 514 Q 621 421 557 308 Q 553 302 551 296 Q 550 287 559 289 Q 589 295 646 397 Q 646 398 661 433 L 669 454 Q 687 517 689 528 L 695 562 Q 708 685 711 688 Q 718 701 712 713 Q 697 728 669 739 Q 653 748 641 743 Q 631 737 636 725 Q 661 691 644 548 L 639 514 Z" fill="lightgray" class="hide"/>
    <path d="M 661 433 Q 706 394 758 341 Q 771 326 784 323 Q 791 322 797 330 Q 806 340 795 376 Q 786 412 669 454 C 641 464 638 453 661 433 Z" fill="lightgray" class="hide"/></g><g transform="scale(1, -1) translate(0, -900)">
    <style type="text/css">
        .origin {display:none;}
        .hide {display:none;}
        .stroke {fill: #000000;}
        
.step1 {transform: translateX(1024px);}
.step2 {transform: translateX(2048px);}
.step3 {transform: translateX(3072px);}
.step4 {transform: translateX(4096px);}
.step5 {transform: translateX(5120px);}
.step6 {transform: translateX(6144px);}
.step7 {transform: translateX(7168px);}
.step8 {transform: translateX(8192px);}
.step9 {transform: translateX(9216px);}
.step10 {transform: translateX(10240px);}
.step11 {transform: translateX(11264px);}
.step12 {transform: translateX(12288px);}
.step13 {transform: translateX(13312px);}
.step14 {transform: translateX(14336px);}
.step15 {transform: translateX(15360px);}
.step16 {transform: translateX(16384px);}
.step17 {transform: translateX(17408px);}
.step18 {transform: translateX(18432px);}
.step19 {transform: translateX(19456px);}
.step20 {transform: translateX(20480px);}
.step21 {transform: translateX(21504px);}
.step22 {transform: translateX(22528px);}
.step23 {transform: translateX(23552px);}
.step24 {transform: translateX(24576px);}
.step25 {transform: translateX(25600px);}
.step26 {transform: translateX(26624px);}
.step27 {transform: translateX(27648px);}
.step28 {transform: translateX(28672px);}
.step29 {transform: translateX(29696px);}
    </style>

    <path d="M 191 482 Q 195 491 202 496 Q 244 547 332 693 L 343 712 Q 358 736 372 749 Q 382 761 377 775 Q 373 788 342 811 Q 314 830 293 829 Q 274 826 283 804 Q 298 771 286 744 Q 226 588 66 384 Q 56 374 54 367 Q 50 355 65 358 Q 99 367 186 475 L 191 482 Z" fill="lightgray" class="stroke step7"/>
    <path d="M 332 693 Q 336 684 358 670 Q 392 646 430 616 Q 443 606 456 607 Q 466 608 469 620 Q 472 633 463 659 Q 451 690 351 711 Q 348 712 343 712 C 319 714 319 714 332 693 Z" fill="lightgray" class="stroke step7"/>
    <path d="M 301 470 Q 412 504 418 510 Q 425 519 420 526 Q 413 536 385 539 Q 357 542 331 527 Q 304 515 275 505 Q 244 495 204 487 Q 195 486 191 482 C 184 478 184 478 186 475 Q 186 472 197 465 Q 228 455 267 459 L 301 470 Z" fill="lightgray" class="stroke step7"/>
    <path d="M 332 349 Q 353 356 378 363 Q 406 372 409 376 Q 416 383 412 390 Q 405 400 379 404 Q 357 405 334 396 L 282 374 Q 272 373 265 369 Q 228 357 184 349 Q 153 340 177 328 Q 211 315 283 334 L 332 349 Z" fill="lightgray" class="stroke step7"/>
    <path d="M 326 173 Q 329 270 332 349 L 334 396 Q 337 439 333 445 Q 317 461 301 470 C 276 486 253 486 267 459 Q 282 435 282 374 L 283 334 Q 283 274 283 161 C 283 131 325 143 326 173 Z" fill="lightgray" class="stroke step7"/>
    <path d="M 158 237 Q 179 216 200 191 Q 210 179 223 179 Q 232 178 237 189 Q 241 201 237 225 Q 230 252 158 276 Q 145 280 140 279 Q 136 276 136 265 Q 137 255 158 237 Z" fill="lightgray" class="stroke step7"/>
    <path d="M 392 297 Q 382 275 359 241 Q 355 237 359 231 Q 365 231 370 234 Q 419 271 445 286 Q 458 290 454 298 Q 450 308 434 321 Q 419 333 404 334 Q 394 333 395 319 Q 396 309 392 297 Z" fill="lightgray" class="stroke step7"/>
    <path d="M 283 161 Q 226 146 166 129 Q 148 123 118 125 Q 105 124 103 113 Q 102 100 110 90 Q 134 74 168 54 Q 178 51 191 60 Q 213 78 388 160 Q 412 170 428 183 Q 441 190 442 200 Q 436 206 424 203 Q 376 190 326 173 L 283 161 Z" fill="lightgray" class="stroke step7"/>
    <path d="M 525 521 Q 504 537 480 544 Q 471 545 465 538 Q 462 532 469 522 Q 515 426 479 209 Q 463 133 465 121 Q 474 88 485 76 Q 495 63 505 76 Q 532 103 533 290 Q 533 429 539 483 C 542 510 542 510 525 521 Z" fill="lightgray" class="hide"/>
    <path d="M 539 483 Q 599 504 639 514 L 689 528 Q 726 540 772 549 Q 791 556 803 546 Q 813 540 818 489 Q 831 320 823 125 Q 823 97 813 88 Q 800 78 729 90 Q 713 93 714 83 Q 715 76 729 70 Q 792 28 825 -5 Q 847 -24 859 -22 Q 872 -18 882 10 Q 897 56 894 122 Q 878 371 877 463 Q 876 502 887 524 Q 897 546 888 556 Q 878 571 831 592 Q 812 601 794 596 Q 760 583 695 562 L 644 548 Q 586 535 525 521 C 496 514 511 473 539 483 Z" fill="lightgray" class="hide"/>
    <path d="M 639 514 Q 621 421 557 308 Q 553 302 551 296 Q 550 287 559 289 Q 589 295 646 397 Q 646 398 661 433 L 669 454 Q 687 517 689 528 L 695 562 Q 708 685 711 688 Q 718 701 712 713 Q 697 728 669 739 Q 653 748 641 743 Q 631 737 636 725 Q 661 691 644 548 L 639 514 Z" fill="lightgray" class="hide"/>
    <path d="M 661 433 Q 706 394 758 341 Q 771 326 784 323 Q 791 322 797 330 Q 806 340 795 376 Q 786 412 669 454 C 641 464 638 453 661 433 Z" fill="lightgray" class="hide"/></g><g transform="scale(1, -1) translate(0, -900)">
    <style type="text/css">
        .origin {display:none;}
        .hide {display:none;}
        .stroke {fill: #000000;}
        
.step1 {transform: translateX(1024px);}
.step2 {transform: translateX(2048px);}
.step3 {transform: translateX(3072px);}
.step4 {transform: translateX(4096px);}
.step5 {transform: translateX(5120px);}
.step6 {transform: translateX(6144px);}
.step7 {transform: translateX(7168px);}
.step8 {transform: translateX(8192px);}
.step9 {transform: translateX(9216px);}
.step10 {transform: translateX(10240px);}
.step11 {transform: translateX(11264px);}
.step12 {transform: translateX(12288px);}
.step13 {transform: translateX(13312px);}
.step14 {transform: translateX(14336px);}
.step15 {transform: translateX(15360px);}
.step16 {transform: translateX(16384px);}
.step17 {transform: translateX(17408px);}
.step18 {transform: translateX(18432px);}
.step19 {transform: translateX(19456px);}
.step20 {transform: translateX(20480px);}
.step21 {transform: translateX(21504px);}
.step22 {transform: translateX(22528px);}
.step23 {transform: translateX(23552px);}
.step24 {transform: translateX(24576px);}
.step25 {transform: translateX(25600px);}
.step26 {transform: translateX(26624px);}
.step27 {transform: translateX(27648px);}
.step28 {transform: translateX(28672px);}
.step29 {transform: translateX(29696px);}
    </style>

    <path d="M 191 482 Q 195 491 202 496 Q 244 547 332 693 L 343 712 Q 358 736 372 749 Q 382 761 377 775 Q 373 788 342 811 Q 314 830 293 829 Q 274 826 283 804 Q 298 771 286 744 Q 226 588 66 384 Q 56 374 54 367 Q 50 355 65 358 Q 99 367 186 475 L 191 482 Z" fill="lightgray" class="stroke step8"/>
    <path d="M 332 693 Q 336 684 358 670 Q 392 646 430 616 Q 443 606 456 607 Q 466 608 469 620 Q 472 633 463 659 Q 451 690 351 711 Q 348 712 343 712 C 319 714 319 714 332 693 Z" fill="lightgray" class="stroke step8"/>
    <path d="M 301 470 Q 412 504 418 510 Q 425 519 420 526 Q 413 536 385 539 Q 357 542 331 527 Q 304 515 275 505 Q 244 495 204 487 Q 195 486 191 482 C 184 478 184 478 186 475 Q 186 472 197 465 Q 228 455 267 459 L 301 470 Z" fill="lightgray" class="stroke step8"/>
    <path d="M 332 349 Q 353 356 378 363 Q 406 372 409 376 Q 416 383 412 390 Q 405 400 379 404 Q 357 405 334 396 L 282 374 Q 272 373 265 369 Q 228 357 184 349 Q 153 340 177 328 Q 211 315 283 334 L 332 349 Z" fill="lightgray" class="stroke step8"/>
    <path d="M 326 173 Q 329 270 332 349 L 334 396 Q 337 439 333 445 Q 317 461 301 470 C 276 486 253 486 267 459 Q 282 435 282 374 L 283 334 Q 283 274 283 161 C 283 131 325 143 326 173 Z" fill="lightgray" class="stroke step8"/>
    <path d="M 158 237 Q 179 216 200 191 Q 210 179 223 179 Q 232 178 237 189 Q 241 201 237 225 Q 230 252 158 276 Q 145 280 140 279 Q 136 276 136 265 Q 137 255 158 237 Z" fill="lightgray" class="stroke step8"/>
    <path d="M 392 297 Q 382 275 359 241 Q 355 237 359 231 Q 365 231 370 234 Q 419 271 445 286 Q 458 290 454 298 Q 450 308 434 321 Q 419 333 404 334 Q 394 333 395 319 Q 396 309 392 297 Z" fill="lightgray" class="stroke step8"/>
    <path d="M 283 161 Q 226 146 166 129 Q 148 123 118 125 Q 105 124 103 113 Q 102 100 110 90 Q 134 74 168 54 Q 178 51 191 60 Q 213 78 388 160 Q 412 170 428 183 Q 441 190 442 200 Q 436 206 424 203 Q 376 190 326 173 L 283 161 Z" fill="lightgray" class="stroke step8"/>
    <path d="M 525 521 Q 504 537 480 544 Q 471 545 465 538 Q 462 532 469 522 Q 515 426 479 209 Q 463 133 465 121 Q 474 88 485 76 Q 495 63 505 76 Q 532 103 533 290 Q 533 429 539 483 C 542 510 542 510 525 521 Z" fill="lightgray" class="stroke step8"/>
    <path d="M 539 483 Q 599 504 639 514 L 689 528 Q 726 540 772 549 Q 791 556 803 546 Q 813 540 818 489 Q 831 320 823 125 Q 823 97 813 88 Q 800 78 729 90 Q 713 93 714 83 Q 715 76 729 70 Q 792 28 825 -5 Q 847 -24 859 -22 Q 872 -18 882 10 Q 897 56 894 122 Q 878 371 877 463 Q 876 502 887 524 Q 897 546 888 556 Q 878 571 831 592 Q 812 601 794 596 Q 760 583 695 562 L 644 548 Q 586 535 525 521 C 496 514 511 473 539 483 Z" fill="lightgray" class="hide"/>
    <path d="M 639 514 Q 621 421 557 308 Q 553 302 551 296 Q 550 287 559 289 Q 589 295 646 397 Q 646 398 661 433 L 669 454 Q 687 517 689 528 L 695 562 Q 708 685 711 688 Q 718 701 712 713 Q 697 728 669 739 Q 653 748 641 743 Q 631 737 636 725 Q 661 691 644 548 L 639 514 Z" fill="lightgray" class="hide"/>
    <path d="M 661 433 Q 706 394 758 341 Q 771 326 784 323 Q 791 322 797 330 Q 806 340 795 376 Q 786 412 669 454 C 641 464 638 453 661 433 Z" fill="lightgray" class="hide"/></g><g transform="scale(1, -1) translate(0, -900)">
    <style type="text/css">
        .origin {display:none;}
        .hide {display:none;}
        .stroke {fill: #000000;}
        
.step1 {transform: translateX(1024px);}
.step2 {transform: translateX(2048px);}
.step3 {transform: translateX(3072px);}
.step4 {transform: translateX(4096px);}
.step5 {transform: translateX(5120px);}
.step6 {transform: translateX(6144px);}
.step7 {transform: translateX(7168px);}
.step8 {transform: translateX(8192px);}
.step9 {transform: translateX(9216px);}
.step10 {transform: translateX(10240px);}
.step11 {transform: translateX(11264px);}
.step12 {transform: translateX(12288px);}
.step13 {transform: translateX(13312px);}
.step14 {transform: translateX(14336px);}
.step15 {transform: translateX(15360px);}
.step16 {transform: translateX(16384px);}
.step17 {transform: translateX(17408px);}
.step18 {transform: translateX(18432px);}
.step19 {transform: translateX(19456px);}
.step20 {transform: translateX(20480px);}
.step21 {transform: translateX(21504px);}
.step22 {transform: translateX(22528px);}
.step23 {transform: translateX(23552px);}
.step24 {transform: translateX(24576px);}
.step25 {transform: translateX(25600px);}
.step26 {transform: translateX(26624px);}
.step27 {transform: translateX(27648px);}
.step28 {transform: translateX(28672px);}
.step29 {transform: translateX(29696px);}
    </style>

    <path d="M 191 482 Q 195 491 202 496 Q 244 547 332 693 L 343 712 Q 358 736 372 749 Q 382 761 377 775 Q 373 788 342 811 Q 314 830 293 829 Q 274 826 283 804 Q 298 771 286 744 Q 226 588 66 384 Q 56 374 54 367 Q 50 355 65 358 Q 99 367 186 475 L 191 482 Z" fill="lightgray" class="stroke step9"/>
    <path d="M 332 693 Q 336 684 358 670 Q 392 646 430 616 Q 443 606 456 607 Q 466 608 469 620 Q 472 633 463 659 Q 451 690 351 711 Q 348 712 343 712 C 319 714 319 714 332 693 Z" fill="lightgray" class="stroke step9"/>
    <path d="M 301 470 Q 412 504 418 510 Q 425 519 420 526 Q 413 536 385 539 Q 357 542 331 527 Q 304 515 275 505 Q 244 495 204 487 Q 195 486 191 482 C 184 478 184 478 186 475 Q 186 472 197 465 Q 228 455 267 459 L 301 470 Z" fill="lightgray" class="stroke step9"/>
    <path d="M 332 349 Q 353 356 378 363 Q 406 372 409 376 Q 416 383 412 390 Q 405 400 379 404 Q 357 405 334 396 L 282 374 Q 272 373 265 369 Q 228 357 184 349 Q 153 340 177 328 Q 211 315 283 334 L 332 349 Z" fill="lightgray" class="stroke step9"/>
    <path d="M 326 173 Q 329 270 332 349 L 334 396 Q 337 439 333 445 Q 317 461 301 470 C 276 486 253 486 267 459 Q 282 435 282 374 L 283 334 Q 283 274 283 161 C 283 131 325 143 326 173 Z" fill="lightgray" class="stroke step9"/>
    <path d="M 158 237 Q 179 216 200 191 Q 210 179 223 179 Q 232 178 237 189 Q 241 201 237 225 Q 230 252 158 276 Q 145 280 140 279 Q 136 276 136 265 Q 137 255 158 237 Z" fill="lightgray" class="stroke step9"/>
    <path d="M 392 297 Q 382 275 359 241 Q 355 237 359 231 Q 365 231 370 234 Q 419 271 445 286 Q 458 290 454 298 Q 450 308 434 321 Q 419 333 404 334 Q 394 333 395 319 Q 396 309 392 297 Z" fill="lightgray" class="stroke step9"/>
    <path d="M 283 161 Q 226 146 166 129 Q 148 123 118 125 Q 105 124 103 113 Q 102 100 110 90 Q 134 74 168 54 Q 178 51 191 60 Q 213 78 388 160 Q 412 170 428 183 Q 441 190 442 200 Q 436 206 424 203 Q 376 190 326 173 L 283 161 Z" fill="lightgray" class="stroke step9"/>
    <path d="M 525 521 Q 504 537 480 544 Q 471 545 465 538 Q 462 532 469 522 Q 515 426 479 209 Q 463 133 465 121 Q 474 88 485 76 Q 495 63 505 76 Q 532 103 533 290 Q 533 429 539 483 C 542 510 542 510 525 521 Z" fill="lightgray" class="stroke step9"/>
    <path d="M 539 483 Q 599 504 639 514 L 689 528 Q 726 540 772 549 Q 791 556 803 546 Q 813 540 818 489 Q 831 320 823 125 Q 823 97 813 88 Q 800 78 729 90 Q 713 93 714 83 Q 715 76 729 70 Q 792 28 825 -5 Q 847 -24 859 -22 Q 872 -18 882 10 Q 897 56 894 122 Q 878 371 877 463 Q 876 502 887 524 Q 897 546 888 556 Q 878 571 831 592 Q 812 601 794 596 Q 760 583 695 562 L 644 548 Q 586 535 525 521 C 496 514 511 473 539 483 Z" fill="lightgray" class="stroke step9"/>
    <path d="M 639 514 Q 621 421 557 308 Q 553 302 551 296 Q 550 287 559 289 Q 589 295 646 397 Q 646 398 661 433 L 669 454 Q 687 517 689 528 L 695 562 Q 708 685 711 688 Q 718 701 712 713 Q 697 728 669 739 Q 653 748 641 743 Q 631 737 636 725 Q 661 691 644 548 L 639 514 Z" fill="lightgray" class="hide"/>
    <path d="M 661 433 Q 706 394 758 341 Q 771 326 784 323 Q 791 322 797 330 Q 806 340 795 376 Q 786 412 669 454 C 641 464 638 453 661 433 Z" fill="lightgray" class="hide"/></g><g transform="scale(1, -1) translate(0, -900)">
    <style type="text/css">
        .origin {display:none;}
        .hide {display:none;}
        .stroke {fill: #000000;}
        
.step1 {transform: translateX(1024px);}
.step2 {transform: translateX(2048px);}
.step3 {transform: translateX(3072px);}
.step4 {transform: translateX(4096px);}
.step5 {transform: translateX(5120px);}
.step6 {transform: translateX(6144px);}
.step7 {transform: translateX(7168px);}
.step8 {transform: translateX(8192px);}
.step9 {transform: translateX(9216px);}
.step10 {transform: translateX(10240px);}
.step11 {transform: translateX(11264px);}
.step12 {transform: translateX(12288px);}
.step13 {transform: translateX(13312px);}
.step14 {transform: translateX(14336px);}
.step15 {transform: translateX(15360px);}
.step16 {transform: translateX(16384px);}
.step17 {transform: translateX(17408px);}
.step18 {transform: translateX(18432px);}
.step19 {transform: translateX(19456px);}
.step20 {transform: translateX(20480px);}
.step21 {transform: translateX(21504px);}
.step22 {transform: translateX(22528px);}
.step23 {transform: translateX(23552px);}
.step24 {transform: translateX(24576px);}
.step25 {transform: translateX(25600px);}
.step26 {transform: translateX(26624px);}
.step27 {transform: translateX(27648px);}
.step28 {transform: translateX(28672px);}
.step29 {transform: translateX(29696px);}
    </style>

    <path d="M 191 482 Q 195 491 202 496 Q 244 547 332 693 L 343 712 Q 358 736 372 749 Q 382 761 377 775 Q 373 788 342 811 Q 314 830 293 829 Q 274 826 283 804 Q 298 771 286 744 Q 226 588 66 384 Q 56 374 54 367 Q 50 355 65 358 Q 99 367 186 475 L 191 482 Z" fill="lightgray" class="stroke step10"/>
    <path d="M 332 693 Q 336 684 358 670 Q 392 646 430 616 Q 443 606 456 607 Q 466 608 469 620 Q 472 633 463 659 Q 451 690 351 711 Q 348 712 343 712 C 319 714 319 714 332 693 Z" fill="lightgray" class="stroke step10"/>
    <path d="M 301 470 Q 412 504 418 510 Q 425 519 420 526 Q 413 536 385 539 Q 357 542 331 527 Q 304 515 275 505 Q 244 495 204 487 Q 195 486 191 482 C 184 478 184 478 186 475 Q 186 472 197 465 Q 228 455 267 459 L 301 470 Z" fill="lightgray" class="stroke step10"/>
    <path d="M 332 349 Q 353 356 378 363 Q 406 372 409 376 Q 416 383 412 390 Q 405 400 379 404 Q 357 405 334 396 L 282 374 Q 272 373 265 369 Q 228 357 184 349 Q 153 340 177 328 Q 211 315 283 334 L 332 349 Z" fill="lightgray" class="stroke step10"/>
    <path d="M 326 173 Q 329 270 332 349 L 334 396 Q 337 439 333 445 Q 317 461 301 470 C 276 486 253 486 267 459 Q 282 435 282 374 L 283 334 Q 283 274 283 161 C 283 131 325 143 326 173 Z" fill="lightgray" class="stroke step10"/>
    <path d="M 158 237 Q 179 216 200 191 Q 210 179 223 179 Q 232 178 237 189 Q 241 201 237 225 Q 230 252 158 276 Q 145 280 140 279 Q 136 276 136 265 Q 137 255 158 237 Z" fill="lightgray" class="stroke step10"/>
    <path d="M 392 297 Q 382 275 359 241 Q 355 237 359 231 Q 365 231 370 234 Q 419 271 445 286 Q 458 290 454 298 Q 450 308 434 321 Q 419 333 404 334 Q 394 333 395 319 Q 396 309 392 297 Z" fill="lightgray" class="stroke step10"/>
    <path d="M 283 161 Q 226 146 166 129 Q 148 123 118 125 Q 105 124 103 113 Q 102 100 110 90 Q 134 74 168 54 Q 178 51 191 60 Q 213 78 388 160 Q 412 170 428 183 Q 441 190 442 200 Q 436 206 424 203 Q 376 190 326 173 L 283 161 Z" fill="lightgray" class="stroke step10"/>
    <path d="M 525 521 Q 504 537 480 544 Q 471 545 465 538 Q 462 532 469 522 Q 515 426 479 209 Q 463 133 465 121 Q 474 88 485 76 Q 495 63 505 76 Q 532 103 533 290 Q 533 429 539 483 C 542 510 542 510 525 521 Z" fill="lightgray" class="stroke step10"/>
    <path d="M 539 483 Q 599 504 639 514 L 689 528 Q 726 540 772 549 Q 791 556 803 546 Q 813 540 818 489 Q 831 320 823 125 Q 823 97 813 88 Q 800 78 729 90 Q 713 93 714 83 Q 715 76 729 70 Q 792 28 825 -5 Q 847 -24 859 -22 Q 872 -18 882 10 Q 897 56 894 122 Q 878 371 877 463 Q 876 502 887 524 Q 897 546 888 556 Q 878 571 831 592 Q 812 601 794 596 Q 760 583 695 562 L 644 548 Q 586 535 525 521 C 496 514 511 473 539 483 Z" fill="lightgray" class="stroke step10"/>
    <path d="M 639 514 Q 621 421 557 308 Q 553 302 551 296 Q 550 287 559 289 Q 589 295 646 397 Q 646 398 661 433 L 669 454 Q 687 517 689 528 L 695 562 Q 708 685 711 688 Q 718 701 712 713 Q 697 728 669 739 Q 653 748 641 743 Q 631 737 636 725 Q 661 691 644 548 L 639 514 Z" fill="lightgray" class="stroke step10"/>
    <path d="M 661 433 Q 706 394 758 341 Q 771 326 784 323 Q 791 322 797 330 Q 806 340 795 376 Q 786 412 669 454 C 641 464 638 453 661 433 Z" fill="lightgray" class="hide"/></g><g transform="scale(1, -1) translate(0, -900)">
    <style type="text/css">
        .origin {display:none;}
        .hide {display:none;}
        .stroke {fill: #000000;}
        
.step1 {transform: translateX(1024px);}
.step2 {transform: translateX(2048px);}
.step3 {transform: translateX(3072px);}
.step4 {transform: translateX(4096px);}
.step5 {transform: translateX(5120px);}
.step6 {transform: translateX(6144px);}
.step7 {transform: translateX(7168px);}
.step8 {transform: translateX(8192px);}
.step9 {transform: translateX(9216px);}
.step10 {transform: translateX(10240px);}
.step11 {transform: translateX(11264px);}
.step12 {transform: translateX(12288px);}
.step13 {transform: translateX(13312px);}
.step14 {transform: translateX(14336px);}
.step15 {transform: translateX(15360px);}
.step16 {transform: translateX(16384px);}
.step17 {transform: translateX(17408px);}
.step18 {transform: translateX(18432px);}
.step19 {transform: translateX(19456px);}
.step20 {transform: translateX(20480px);}
.step21 {transform: translateX(21504px);}
.step22 {transform: translateX(22528px);}
.step23 {transform: translateX(23552px);}
.step24 {transform: translateX(24576px);}
.step25 {transform: translateX(25600px);}
.step26 {transform: translateX(26624px);}
.step27 {transform: translateX(27648px);}
.step28 {transform: translateX(28672px);}
.step29 {transform: translateX(29696px);}
    </style>

    <path d="M 191 482 Q 195 491 202 496 Q 244 547 332 693 L 343 712 Q 358 736 372 749 Q 382 761 377 775 Q 373 788 342 811 Q 314 830 293 829 Q 274 826 283 804 Q 298 771 286 744 Q 226 588 66 384 Q 56 374 54 367 Q 50 355 65 358 Q 99 367 186 475 L 191 482 Z" fill="lightgray" class="stroke step11"/>
    <path d="M 332 693 Q 336 684 358 670 Q 392 646 430 616 Q 443 606 456 607 Q 466 608 469 620 Q 472 633 463 659 Q 451 690 351 711 Q 348 712 343 712 C 319 714 319 714 332 693 Z" fill="lightgray" class="stroke step11"/>
    <path d="M 301 470 Q 412 504 418 510 Q 425 519 420 526 Q 413 536 385 539 Q 357 542 331 527 Q 304 515 275 505 Q 244 495 204 487 Q 195 486 191 482 C 184 478 184 478 186 475 Q 186 472 197 465 Q 228 455 267 459 L 301 470 Z" fill="lightgray" class="stroke step11"/>
    <path d="M 332 349 Q 353 356 378 363 Q 406 372 409 376 Q 416 383 412 390 Q 405 400 379 404 Q 357 405 334 396 L 282 374 Q 272 373 265 369 Q 228 357 184 349 Q 153 340 177 328 Q 211 315 283 334 L 332 349 Z" fill="lightgray" class="stroke step11"/>
    <path d="M 326 173 Q 329 270 332 349 L 334 396 Q 337 439 333 445 Q 317 461 301 470 C 276 486 253 486 267 459 Q 282 435 282 374 L 283 334 Q 283 274 283 161 C 283 131 325 143 326 173 Z" fill="lightgray" class="stroke step11"/>
    <path d="M 158 237 Q 179 216 200 191 Q 210 179 223 179 Q 232 178 237 189 Q 241 201 237 225 Q 230 252 158 276 Q 145 280 140 279 Q 136 276 136 265 Q 137 255 158 237 Z" fill="lightgray" class="stroke step11"/>
    <path d="M 392 297 Q 382 275 359 241 Q 355 237 359 231 Q 365 231 370 234 Q 419 271 445 286 Q 458 290 454 298 Q 450 308 434 321 Q 419 333 404 334 Q 394 333 395 319 Q 396 309 392 297 Z" fill="lightgray" class="stroke step11"/>
    <path d="M 283 161 Q 226 146 166 129 Q 148 123 118 125 Q 105 124 103 113 Q 102 100 110 90 Q 134 74 168 54 Q 178 51 191 60 Q 213 78 388 160 Q 412 170 428 183 Q 441 190 442 200 Q 436 206 424 203 Q 376 190 326 173 L 283 161 Z" fill="lightgray" class="stroke step11"/>
    <path d="M 525 521 Q 504 537 480 544 Q 471 545 465 538 Q 462 532 469 522 Q 515 426 479 209 Q 463 133 465 121 Q 474 88 485 76 Q 495 63 505 76 Q 532 103 533 290 Q 533 429 539 483 C 542 510 542 510 525 521 Z" fill="lightgray" class="stroke step11"/>
    <path d="M 539 483 Q 599 504 639 514 L 689 528 Q 726 540 772 549 Q 791 556 803 546 Q 813 540 818 489 Q 831 320 823 125 Q 823 97 813 88 Q 800 78 729 90 Q 713 93 714 83 Q 715 76 729 70 Q 792 28 825 -5 Q 847 -24 859 -22 Q 872 -18 882 10 Q 897 56 894 122 Q 878 371 877 463 Q 876 502 887 524 Q 897 546 888 556 Q 878 571 831 592 Q 812 601 794 596 Q 760 583 695 562 L 644 548 Q 586 535 525 521 C 496 514 511 473 539 483 Z" fill="lightgray" class="stroke step11"/>
    <path d="M 639 514 Q 621 421 557 308 Q 553 302 551 296 Q 550 287 559 289 Q 589 295 646 397 Q 646 398 661 433 L 669 454 Q 687 517 689 528 L 695 562 Q 708 685 711 688 Q 718 701 712 713 Q 697 728 669 739 Q 653 748 641 743 Q 631 737 636 725 Q 661 691 644 548 L 639 514 Z" fill="lightgray" class="stroke step11"/>
    <path d="M 661 433 Q 706 394 758 341 Q 771 326 784 323 Q 791 322 797 330 Q 806 340 795 376 Q 786 412 669 454 C 641 464 638 453 661 433 Z" fill="lightgray" class="stroke step11"/></g></svg>