<svg version="1.1" viewBox="0 0 16384 1024" xmlns="http://www.w3.org/2000/svg">
  
  <g transform="scale(1, -1) translate(0, -900)" class="origin">
    <style type="text/css">
        .origin {display:none;}
        .hide {display:none;}
        .stroke {fill: #000000;}
        
.step1 {transform: translateX(1024px);}
.step2 {transform: translateX(2048px);}
.step3 {transform: translateX(3072px);}
.step4 {transform: translateX(4096px);}
.step5 {transform: translateX(5120px);}
.step6 {transform: translateX(6144px);}
.step7 {transform: translateX(7168px);}
.step8 {transform: translateX(8192px);}
.step9 {transform: translateX(9216px);}
.step10 {transform: translateX(10240px);}
.step11 {transform: translateX(11264px);}
.step12 {transform: translateX(12288px);}
.step13 {transform: translateX(13312px);}
.step14 {transform: translateX(14336px);}
.step15 {transform: translateX(15360px);}
.step16 {transform: translateX(16384px);}
.step17 {transform: translateX(17408px);}
.step18 {transform: translateX(18432px);}
.step19 {transform: translateX(19456px);}
.step20 {transform: translateX(20480px);}
.step21 {transform: translateX(21504px);}
.step22 {transform: translateX(22528px);}
.step23 {transform: translateX(23552px);}
.step24 {transform: translateX(24576px);}
.step25 {transform: translateX(25600px);}
.step26 {transform: translateX(26624px);}
.step27 {transform: translateX(27648px);}
.step28 {transform: translateX(28672px);}
.step29 {transform: translateX(29696px);}
    </style>

    <path d="M 340 716 Q 353 738 367 751 Q 377 761 372 776 Q 368 789 338 811 Q 310 830 291 829 Q 272 828 281 804 Q 294 774 284 747 Q 250 659 196 575 Q 145 496 74 407 Q 64 397 62 390 Q 59 380 73 382 Q 127 389 288 629 Q 324 692 331 701 L 340 716 Z" fill="lightgray"/>
    <path d="M 331 701 Q 335 694 357 680 Q 391 659 427 634 Q 439 627 451 628 Q 458 629 461 640 Q 464 652 454 674 Q 441 704 348 716 Q 344 717 340 716 C 320 714 320 714 331 701 Z" fill="lightgray"/>
    <path d="M 318 480 Q 354 492 391 501 Q 413 508 417 512 Q 424 519 419 526 Q 412 536 387 540 Q 362 543 336 531 Q 311 521 283 511 Q 253 502 217 497 Q 186 490 210 476 Q 238 464 278 469 L 318 480 Z" fill="lightgray"/>
    <path d="M 340 354 Q 365 363 394 370 Q 425 379 429 384 Q 436 391 431 398 Q 424 408 399 412 Q 374 416 341 400 L 291 381 Q 284 380 276 377 Q 234 364 185 357 Q 154 350 178 336 Q 214 320 291 341 L 340 354 Z" fill="lightgray"/>
    <path d="M 333 185 Q 336 276 340 354 L 341 400 Q 341 415 344 435 Q 351 459 318 480 C 293 497 267 497 278 469 Q 287 456 291 381 L 291 341 Q 291 281 291 172 C 291 142 332 155 333 185 Z" fill="lightgray"/>
    <path d="M 176 244 Q 192 225 209 201 Q 218 189 231 188 Q 240 187 245 197 Q 251 209 247 233 Q 246 249 224 262 Q 170 290 160 287 Q 156 284 155 273 Q 156 264 176 244 Z" fill="lightgray"/>
    <path d="M 388 304 Q 378 283 358 249 Q 355 243 359 240 Q 365 239 369 243 Q 415 282 438 297 Q 450 301 446 308 Q 440 318 426 329 Q 413 339 397 339 Q 387 338 390 325 Q 391 316 388 304 Z" fill="lightgray"/>
    <path d="M 291 172 Q 150 133 122 132 Q 109 131 108 121 Q 105 108 114 101 Q 136 85 167 68 Q 177 65 189 73 Q 318 139 449 204 Q 461 211 462 220 Q 453 226 333 185 L 291 172 Z" fill="lightgray"/>
    <path d="M 761 571 Q 774 575 791 578 Q 837 590 843 596 Q 850 603 847 610 Q 840 620 815 626 Q 791 630 770 622 L 718 603 Q 687 594 655 585 Q 636 581 615 575 L 569 567 Q 544 564 519 560 Q 488 554 510 540 Q 537 525 572 528 L 615 537 Q 661 549 712 559 L 761 571 Z" fill="lightgray"/>
    <path d="M 615 575 Q 615 687 614 690 Q 611 696 607 699 Q 585 717 557 726 Q 542 732 534 725 Q 527 719 533 704 Q 558 652 569 567 L 572 528 Q 575 485 580 419 C 582 389 622 396 620 426 Q 616 489 615 537 L 615 575 Z" fill="lightgray"/>
    <path d="M 738 448 Q 750 512 761 571 L 770 622 Q 782 704 813 794 Q 817 804 799 822 Q 766 844 742 852 Q 726 856 718 849 Q 709 842 716 827 Q 735 790 733 767 Q 729 688 718 603 L 712 559 Q 705 501 694 439 C 689 409 732 419 738 448 Z" fill="lightgray"/>
    <path d="M 580 419 Q 525 412 466 400 Q 447 397 462 383 Q 475 371 491 367 Q 510 363 525 368 Q 697 423 940 424 L 942 424 Q 960 425 964 433 Q 968 443 953 455 Q 901 492 841 471 Q 796 462 738 448 L 694 439 Q 691 440 690 439 Q 656 435 620 426 L 580 419 Z" fill="lightgray"/>
    <path d="M 555 300 Q 528 312 512 311 Q 502 307 506 297 Q 542 239 518 117 Q 500 65 529 30 Q 536 20 544 25 Q 551 32 558 51 L 566 83 Q 567 95 568 164 L 567 189 Q 567 250 568 269 C 569 294 569 294 555 300 Z" fill="lightgray"/>
    <path d="M 736 67 Q 752 42 766 12 Q 778 -10 788 -12 Q 800 -12 809 13 Q 825 58 820 166 Q 816 259 824 288 Q 833 310 820 320 Q 811 332 773 349 Q 755 358 715 343 Q 678 328 634 318 Q 600 309 555 300 C 526 294 540 259 568 269 Q 623 291 718 305 Q 742 308 748 300 Q 754 294 755 163 Q 756 117 751 108 Q 747 98 733 101 L 732 101 C 717 98 720 93 736 67 Z" fill="lightgray"/>
    <path d="M 568 164 Q 571 164 576 164 Q 648 177 700 185 Q 722 189 713 201 Q 703 214 679 218 Q 646 221 567 189 C 539 178 538 164 568 164 Z" fill="lightgray"/>
    <path d="M 558 51 Q 564 50 572 51 Q 624 61 736 67 C 766 69 756 84 732 101 Q 731 102 728 104 Q 713 113 684 106 Q 620 91 566 83 C 536 79 528 53 558 51 Z" fill="lightgray"/></g>
<g transform="scale(1, -1) translate(0, -900)">
    <style type="text/css">
        .origin {display:none;}
        .hide {display:none;}
        .stroke {fill: #000000;}
        
.step1 {transform: translateX(1024px);}
.step2 {transform: translateX(2048px);}
.step3 {transform: translateX(3072px);}
.step4 {transform: translateX(4096px);}
.step5 {transform: translateX(5120px);}
.step6 {transform: translateX(6144px);}
.step7 {transform: translateX(7168px);}
.step8 {transform: translateX(8192px);}
.step9 {transform: translateX(9216px);}
.step10 {transform: translateX(10240px);}
.step11 {transform: translateX(11264px);}
.step12 {transform: translateX(12288px);}
.step13 {transform: translateX(13312px);}
.step14 {transform: translateX(14336px);}
.step15 {transform: translateX(15360px);}
.step16 {transform: translateX(16384px);}
.step17 {transform: translateX(17408px);}
.step18 {transform: translateX(18432px);}
.step19 {transform: translateX(19456px);}
.step20 {transform: translateX(20480px);}
.step21 {transform: translateX(21504px);}
.step22 {transform: translateX(22528px);}
.step23 {transform: translateX(23552px);}
.step24 {transform: translateX(24576px);}
.step25 {transform: translateX(25600px);}
.step26 {transform: translateX(26624px);}
.step27 {transform: translateX(27648px);}
.step28 {transform: translateX(28672px);}
.step29 {transform: translateX(29696px);}
    </style>

    <path d="M 340 716 Q 353 738 367 751 Q 377 761 372 776 Q 368 789 338 811 Q 310 830 291 829 Q 272 828 281 804 Q 294 774 284 747 Q 250 659 196 575 Q 145 496 74 407 Q 64 397 62 390 Q 59 380 73 382 Q 127 389 288 629 Q 324 692 331 701 L 340 716 Z" fill="lightgray" class="stroke step0"/>
    <path d="M 331 701 Q 335 694 357 680 Q 391 659 427 634 Q 439 627 451 628 Q 458 629 461 640 Q 464 652 454 674 Q 441 704 348 716 Q 344 717 340 716 C 320 714 320 714 331 701 Z" fill="lightgray" class="hide"/>
    <path d="M 318 480 Q 354 492 391 501 Q 413 508 417 512 Q 424 519 419 526 Q 412 536 387 540 Q 362 543 336 531 Q 311 521 283 511 Q 253 502 217 497 Q 186 490 210 476 Q 238 464 278 469 L 318 480 Z" fill="lightgray" class="hide"/>
    <path d="M 340 354 Q 365 363 394 370 Q 425 379 429 384 Q 436 391 431 398 Q 424 408 399 412 Q 374 416 341 400 L 291 381 Q 284 380 276 377 Q 234 364 185 357 Q 154 350 178 336 Q 214 320 291 341 L 340 354 Z" fill="lightgray" class="hide"/>
    <path d="M 333 185 Q 336 276 340 354 L 341 400 Q 341 415 344 435 Q 351 459 318 480 C 293 497 267 497 278 469 Q 287 456 291 381 L 291 341 Q 291 281 291 172 C 291 142 332 155 333 185 Z" fill="lightgray" class="hide"/>
    <path d="M 176 244 Q 192 225 209 201 Q 218 189 231 188 Q 240 187 245 197 Q 251 209 247 233 Q 246 249 224 262 Q 170 290 160 287 Q 156 284 155 273 Q 156 264 176 244 Z" fill="lightgray" class="hide"/>
    <path d="M 388 304 Q 378 283 358 249 Q 355 243 359 240 Q 365 239 369 243 Q 415 282 438 297 Q 450 301 446 308 Q 440 318 426 329 Q 413 339 397 339 Q 387 338 390 325 Q 391 316 388 304 Z" fill="lightgray" class="hide"/>
    <path d="M 291 172 Q 150 133 122 132 Q 109 131 108 121 Q 105 108 114 101 Q 136 85 167 68 Q 177 65 189 73 Q 318 139 449 204 Q 461 211 462 220 Q 453 226 333 185 L 291 172 Z" fill="lightgray" class="hide"/>
    <path d="M 761 571 Q 774 575 791 578 Q 837 590 843 596 Q 850 603 847 610 Q 840 620 815 626 Q 791 630 770 622 L 718 603 Q 687 594 655 585 Q 636 581 615 575 L 569 567 Q 544 564 519 560 Q 488 554 510 540 Q 537 525 572 528 L 615 537 Q 661 549 712 559 L 761 571 Z" fill="lightgray" class="hide"/>
    <path d="M 615 575 Q 615 687 614 690 Q 611 696 607 699 Q 585 717 557 726 Q 542 732 534 725 Q 527 719 533 704 Q 558 652 569 567 L 572 528 Q 575 485 580 419 C 582 389 622 396 620 426 Q 616 489 615 537 L 615 575 Z" fill="lightgray" class="hide"/>
    <path d="M 738 448 Q 750 512 761 571 L 770 622 Q 782 704 813 794 Q 817 804 799 822 Q 766 844 742 852 Q 726 856 718 849 Q 709 842 716 827 Q 735 790 733 767 Q 729 688 718 603 L 712 559 Q 705 501 694 439 C 689 409 732 419 738 448 Z" fill="lightgray" class="hide"/>
    <path d="M 580 419 Q 525 412 466 400 Q 447 397 462 383 Q 475 371 491 367 Q 510 363 525 368 Q 697 423 940 424 L 942 424 Q 960 425 964 433 Q 968 443 953 455 Q 901 492 841 471 Q 796 462 738 448 L 694 439 Q 691 440 690 439 Q 656 435 620 426 L 580 419 Z" fill="lightgray" class="hide"/>
    <path d="M 555 300 Q 528 312 512 311 Q 502 307 506 297 Q 542 239 518 117 Q 500 65 529 30 Q 536 20 544 25 Q 551 32 558 51 L 566 83 Q 567 95 568 164 L 567 189 Q 567 250 568 269 C 569 294 569 294 555 300 Z" fill="lightgray" class="hide"/>
    <path d="M 736 67 Q 752 42 766 12 Q 778 -10 788 -12 Q 800 -12 809 13 Q 825 58 820 166 Q 816 259 824 288 Q 833 310 820 320 Q 811 332 773 349 Q 755 358 715 343 Q 678 328 634 318 Q 600 309 555 300 C 526 294 540 259 568 269 Q 623 291 718 305 Q 742 308 748 300 Q 754 294 755 163 Q 756 117 751 108 Q 747 98 733 101 L 732 101 C 717 98 720 93 736 67 Z" fill="lightgray" class="hide"/>
    <path d="M 568 164 Q 571 164 576 164 Q 648 177 700 185 Q 722 189 713 201 Q 703 214 679 218 Q 646 221 567 189 C 539 178 538 164 568 164 Z" fill="lightgray" class="hide"/>
    <path d="M 558 51 Q 564 50 572 51 Q 624 61 736 67 C 766 69 756 84 732 101 Q 731 102 728 104 Q 713 113 684 106 Q 620 91 566 83 C 536 79 528 53 558 51 Z" fill="lightgray" class="hide"/></g><g transform="scale(1, -1) translate(0, -900)">
    <style type="text/css">
        .origin {display:none;}
        .hide {display:none;}
        .stroke {fill: #000000;}
        
.step1 {transform: translateX(1024px);}
.step2 {transform: translateX(2048px);}
.step3 {transform: translateX(3072px);}
.step4 {transform: translateX(4096px);}
.step5 {transform: translateX(5120px);}
.step6 {transform: translateX(6144px);}
.step7 {transform: translateX(7168px);}
.step8 {transform: translateX(8192px);}
.step9 {transform: translateX(9216px);}
.step10 {transform: translateX(10240px);}
.step11 {transform: translateX(11264px);}
.step12 {transform: translateX(12288px);}
.step13 {transform: translateX(13312px);}
.step14 {transform: translateX(14336px);}
.step15 {transform: translateX(15360px);}
.step16 {transform: translateX(16384px);}
.step17 {transform: translateX(17408px);}
.step18 {transform: translateX(18432px);}
.step19 {transform: translateX(19456px);}
.step20 {transform: translateX(20480px);}
.step21 {transform: translateX(21504px);}
.step22 {transform: translateX(22528px);}
.step23 {transform: translateX(23552px);}
.step24 {transform: translateX(24576px);}
.step25 {transform: translateX(25600px);}
.step26 {transform: translateX(26624px);}
.step27 {transform: translateX(27648px);}
.step28 {transform: translateX(28672px);}
.step29 {transform: translateX(29696px);}
    </style>

    <path d="M 340 716 Q 353 738 367 751 Q 377 761 372 776 Q 368 789 338 811 Q 310 830 291 829 Q 272 828 281 804 Q 294 774 284 747 Q 250 659 196 575 Q 145 496 74 407 Q 64 397 62 390 Q 59 380 73 382 Q 127 389 288 629 Q 324 692 331 701 L 340 716 Z" fill="lightgray" class="stroke step1"/>
    <path d="M 331 701 Q 335 694 357 680 Q 391 659 427 634 Q 439 627 451 628 Q 458 629 461 640 Q 464 652 454 674 Q 441 704 348 716 Q 344 717 340 716 C 320 714 320 714 331 701 Z" fill="lightgray" class="stroke step1"/>
    <path d="M 318 480 Q 354 492 391 501 Q 413 508 417 512 Q 424 519 419 526 Q 412 536 387 540 Q 362 543 336 531 Q 311 521 283 511 Q 253 502 217 497 Q 186 490 210 476 Q 238 464 278 469 L 318 480 Z" fill="lightgray" class="hide"/>
    <path d="M 340 354 Q 365 363 394 370 Q 425 379 429 384 Q 436 391 431 398 Q 424 408 399 412 Q 374 416 341 400 L 291 381 Q 284 380 276 377 Q 234 364 185 357 Q 154 350 178 336 Q 214 320 291 341 L 340 354 Z" fill="lightgray" class="hide"/>
    <path d="M 333 185 Q 336 276 340 354 L 341 400 Q 341 415 344 435 Q 351 459 318 480 C 293 497 267 497 278 469 Q 287 456 291 381 L 291 341 Q 291 281 291 172 C 291 142 332 155 333 185 Z" fill="lightgray" class="hide"/>
    <path d="M 176 244 Q 192 225 209 201 Q 218 189 231 188 Q 240 187 245 197 Q 251 209 247 233 Q 246 249 224 262 Q 170 290 160 287 Q 156 284 155 273 Q 156 264 176 244 Z" fill="lightgray" class="hide"/>
    <path d="M 388 304 Q 378 283 358 249 Q 355 243 359 240 Q 365 239 369 243 Q 415 282 438 297 Q 450 301 446 308 Q 440 318 426 329 Q 413 339 397 339 Q 387 338 390 325 Q 391 316 388 304 Z" fill="lightgray" class="hide"/>
    <path d="M 291 172 Q 150 133 122 132 Q 109 131 108 121 Q 105 108 114 101 Q 136 85 167 68 Q 177 65 189 73 Q 318 139 449 204 Q 461 211 462 220 Q 453 226 333 185 L 291 172 Z" fill="lightgray" class="hide"/>
    <path d="M 761 571 Q 774 575 791 578 Q 837 590 843 596 Q 850 603 847 610 Q 840 620 815 626 Q 791 630 770 622 L 718 603 Q 687 594 655 585 Q 636 581 615 575 L 569 567 Q 544 564 519 560 Q 488 554 510 540 Q 537 525 572 528 L 615 537 Q 661 549 712 559 L 761 571 Z" fill="lightgray" class="hide"/>
    <path d="M 615 575 Q 615 687 614 690 Q 611 696 607 699 Q 585 717 557 726 Q 542 732 534 725 Q 527 719 533 704 Q 558 652 569 567 L 572 528 Q 575 485 580 419 C 582 389 622 396 620 426 Q 616 489 615 537 L 615 575 Z" fill="lightgray" class="hide"/>
    <path d="M 738 448 Q 750 512 761 571 L 770 622 Q 782 704 813 794 Q 817 804 799 822 Q 766 844 742 852 Q 726 856 718 849 Q 709 842 716 827 Q 735 790 733 767 Q 729 688 718 603 L 712 559 Q 705 501 694 439 C 689 409 732 419 738 448 Z" fill="lightgray" class="hide"/>
    <path d="M 580 419 Q 525 412 466 400 Q 447 397 462 383 Q 475 371 491 367 Q 510 363 525 368 Q 697 423 940 424 L 942 424 Q 960 425 964 433 Q 968 443 953 455 Q 901 492 841 471 Q 796 462 738 448 L 694 439 Q 691 440 690 439 Q 656 435 620 426 L 580 419 Z" fill="lightgray" class="hide"/>
    <path d="M 555 300 Q 528 312 512 311 Q 502 307 506 297 Q 542 239 518 117 Q 500 65 529 30 Q 536 20 544 25 Q 551 32 558 51 L 566 83 Q 567 95 568 164 L 567 189 Q 567 250 568 269 C 569 294 569 294 555 300 Z" fill="lightgray" class="hide"/>
    <path d="M 736 67 Q 752 42 766 12 Q 778 -10 788 -12 Q 800 -12 809 13 Q 825 58 820 166 Q 816 259 824 288 Q 833 310 820 320 Q 811 332 773 349 Q 755 358 715 343 Q 678 328 634 318 Q 600 309 555 300 C 526 294 540 259 568 269 Q 623 291 718 305 Q 742 308 748 300 Q 754 294 755 163 Q 756 117 751 108 Q 747 98 733 101 L 732 101 C 717 98 720 93 736 67 Z" fill="lightgray" class="hide"/>
    <path d="M 568 164 Q 571 164 576 164 Q 648 177 700 185 Q 722 189 713 201 Q 703 214 679 218 Q 646 221 567 189 C 539 178 538 164 568 164 Z" fill="lightgray" class="hide"/>
    <path d="M 558 51 Q 564 50 572 51 Q 624 61 736 67 C 766 69 756 84 732 101 Q 731 102 728 104 Q 713 113 684 106 Q 620 91 566 83 C 536 79 528 53 558 51 Z" fill="lightgray" class="hide"/></g><g transform="scale(1, -1) translate(0, -900)">
    <style type="text/css">
        .origin {display:none;}
        .hide {display:none;}
        .stroke {fill: #000000;}
        
.step1 {transform: translateX(1024px);}
.step2 {transform: translateX(2048px);}
.step3 {transform: translateX(3072px);}
.step4 {transform: translateX(4096px);}
.step5 {transform: translateX(5120px);}
.step6 {transform: translateX(6144px);}
.step7 {transform: translateX(7168px);}
.step8 {transform: translateX(8192px);}
.step9 {transform: translateX(9216px);}
.step10 {transform: translateX(10240px);}
.step11 {transform: translateX(11264px);}
.step12 {transform: translateX(12288px);}
.step13 {transform: translateX(13312px);}
.step14 {transform: translateX(14336px);}
.step15 {transform: translateX(15360px);}
.step16 {transform: translateX(16384px);}
.step17 {transform: translateX(17408px);}
.step18 {transform: translateX(18432px);}
.step19 {transform: translateX(19456px);}
.step20 {transform: translateX(20480px);}
.step21 {transform: translateX(21504px);}
.step22 {transform: translateX(22528px);}
.step23 {transform: translateX(23552px);}
.step24 {transform: translateX(24576px);}
.step25 {transform: translateX(25600px);}
.step26 {transform: translateX(26624px);}
.step27 {transform: translateX(27648px);}
.step28 {transform: translateX(28672px);}
.step29 {transform: translateX(29696px);}
    </style>

    <path d="M 340 716 Q 353 738 367 751 Q 377 761 372 776 Q 368 789 338 811 Q 310 830 291 829 Q 272 828 281 804 Q 294 774 284 747 Q 250 659 196 575 Q 145 496 74 407 Q 64 397 62 390 Q 59 380 73 382 Q 127 389 288 629 Q 324 692 331 701 L 340 716 Z" fill="lightgray" class="stroke step2"/>
    <path d="M 331 701 Q 335 694 357 680 Q 391 659 427 634 Q 439 627 451 628 Q 458 629 461 640 Q 464 652 454 674 Q 441 704 348 716 Q 344 717 340 716 C 320 714 320 714 331 701 Z" fill="lightgray" class="stroke step2"/>
    <path d="M 318 480 Q 354 492 391 501 Q 413 508 417 512 Q 424 519 419 526 Q 412 536 387 540 Q 362 543 336 531 Q 311 521 283 511 Q 253 502 217 497 Q 186 490 210 476 Q 238 464 278 469 L 318 480 Z" fill="lightgray" class="stroke step2"/>
    <path d="M 340 354 Q 365 363 394 370 Q 425 379 429 384 Q 436 391 431 398 Q 424 408 399 412 Q 374 416 341 400 L 291 381 Q 284 380 276 377 Q 234 364 185 357 Q 154 350 178 336 Q 214 320 291 341 L 340 354 Z" fill="lightgray" class="hide"/>
    <path d="M 333 185 Q 336 276 340 354 L 341 400 Q 341 415 344 435 Q 351 459 318 480 C 293 497 267 497 278 469 Q 287 456 291 381 L 291 341 Q 291 281 291 172 C 291 142 332 155 333 185 Z" fill="lightgray" class="hide"/>
    <path d="M 176 244 Q 192 225 209 201 Q 218 189 231 188 Q 240 187 245 197 Q 251 209 247 233 Q 246 249 224 262 Q 170 290 160 287 Q 156 284 155 273 Q 156 264 176 244 Z" fill="lightgray" class="hide"/>
    <path d="M 388 304 Q 378 283 358 249 Q 355 243 359 240 Q 365 239 369 243 Q 415 282 438 297 Q 450 301 446 308 Q 440 318 426 329 Q 413 339 397 339 Q 387 338 390 325 Q 391 316 388 304 Z" fill="lightgray" class="hide"/>
    <path d="M 291 172 Q 150 133 122 132 Q 109 131 108 121 Q 105 108 114 101 Q 136 85 167 68 Q 177 65 189 73 Q 318 139 449 204 Q 461 211 462 220 Q 453 226 333 185 L 291 172 Z" fill="lightgray" class="hide"/>
    <path d="M 761 571 Q 774 575 791 578 Q 837 590 843 596 Q 850 603 847 610 Q 840 620 815 626 Q 791 630 770 622 L 718 603 Q 687 594 655 585 Q 636 581 615 575 L 569 567 Q 544 564 519 560 Q 488 554 510 540 Q 537 525 572 528 L 615 537 Q 661 549 712 559 L 761 571 Z" fill="lightgray" class="hide"/>
    <path d="M 615 575 Q 615 687 614 690 Q 611 696 607 699 Q 585 717 557 726 Q 542 732 534 725 Q 527 719 533 704 Q 558 652 569 567 L 572 528 Q 575 485 580 419 C 582 389 622 396 620 426 Q 616 489 615 537 L 615 575 Z" fill="lightgray" class="hide"/>
    <path d="M 738 448 Q 750 512 761 571 L 770 622 Q 782 704 813 794 Q 817 804 799 822 Q 766 844 742 852 Q 726 856 718 849 Q 709 842 716 827 Q 735 790 733 767 Q 729 688 718 603 L 712 559 Q 705 501 694 439 C 689 409 732 419 738 448 Z" fill="lightgray" class="hide"/>
    <path d="M 580 419 Q 525 412 466 400 Q 447 397 462 383 Q 475 371 491 367 Q 510 363 525 368 Q 697 423 940 424 L 942 424 Q 960 425 964 433 Q 968 443 953 455 Q 901 492 841 471 Q 796 462 738 448 L 694 439 Q 691 440 690 439 Q 656 435 620 426 L 580 419 Z" fill="lightgray" class="hide"/>
    <path d="M 555 300 Q 528 312 512 311 Q 502 307 506 297 Q 542 239 518 117 Q 500 65 529 30 Q 536 20 544 25 Q 551 32 558 51 L 566 83 Q 567 95 568 164 L 567 189 Q 567 250 568 269 C 569 294 569 294 555 300 Z" fill="lightgray" class="hide"/>
    <path d="M 736 67 Q 752 42 766 12 Q 778 -10 788 -12 Q 800 -12 809 13 Q 825 58 820 166 Q 816 259 824 288 Q 833 310 820 320 Q 811 332 773 349 Q 755 358 715 343 Q 678 328 634 318 Q 600 309 555 300 C 526 294 540 259 568 269 Q 623 291 718 305 Q 742 308 748 300 Q 754 294 755 163 Q 756 117 751 108 Q 747 98 733 101 L 732 101 C 717 98 720 93 736 67 Z" fill="lightgray" class="hide"/>
    <path d="M 568 164 Q 571 164 576 164 Q 648 177 700 185 Q 722 189 713 201 Q 703 214 679 218 Q 646 221 567 189 C 539 178 538 164 568 164 Z" fill="lightgray" class="hide"/>
    <path d="M 558 51 Q 564 50 572 51 Q 624 61 736 67 C 766 69 756 84 732 101 Q 731 102 728 104 Q 713 113 684 106 Q 620 91 566 83 C 536 79 528 53 558 51 Z" fill="lightgray" class="hide"/></g><g transform="scale(1, -1) translate(0, -900)">
    <style type="text/css">
        .origin {display:none;}
        .hide {display:none;}
        .stroke {fill: #000000;}
        
.step1 {transform: translateX(1024px);}
.step2 {transform: translateX(2048px);}
.step3 {transform: translateX(3072px);}
.step4 {transform: translateX(4096px);}
.step5 {transform: translateX(5120px);}
.step6 {transform: translateX(6144px);}
.step7 {transform: translateX(7168px);}
.step8 {transform: translateX(8192px);}
.step9 {transform: translateX(9216px);}
.step10 {transform: translateX(10240px);}
.step11 {transform: translateX(11264px);}
.step12 {transform: translateX(12288px);}
.step13 {transform: translateX(13312px);}
.step14 {transform: translateX(14336px);}
.step15 {transform: translateX(15360px);}
.step16 {transform: translateX(16384px);}
.step17 {transform: translateX(17408px);}
.step18 {transform: translateX(18432px);}
.step19 {transform: translateX(19456px);}
.step20 {transform: translateX(20480px);}
.step21 {transform: translateX(21504px);}
.step22 {transform: translateX(22528px);}
.step23 {transform: translateX(23552px);}
.step24 {transform: translateX(24576px);}
.step25 {transform: translateX(25600px);}
.step26 {transform: translateX(26624px);}
.step27 {transform: translateX(27648px);}
.step28 {transform: translateX(28672px);}
.step29 {transform: translateX(29696px);}
    </style>

    <path d="M 340 716 Q 353 738 367 751 Q 377 761 372 776 Q 368 789 338 811 Q 310 830 291 829 Q 272 828 281 804 Q 294 774 284 747 Q 250 659 196 575 Q 145 496 74 407 Q 64 397 62 390 Q 59 380 73 382 Q 127 389 288 629 Q 324 692 331 701 L 340 716 Z" fill="lightgray" class="stroke step3"/>
    <path d="M 331 701 Q 335 694 357 680 Q 391 659 427 634 Q 439 627 451 628 Q 458 629 461 640 Q 464 652 454 674 Q 441 704 348 716 Q 344 717 340 716 C 320 714 320 714 331 701 Z" fill="lightgray" class="stroke step3"/>
    <path d="M 318 480 Q 354 492 391 501 Q 413 508 417 512 Q 424 519 419 526 Q 412 536 387 540 Q 362 543 336 531 Q 311 521 283 511 Q 253 502 217 497 Q 186 490 210 476 Q 238 464 278 469 L 318 480 Z" fill="lightgray" class="stroke step3"/>
    <path d="M 340 354 Q 365 363 394 370 Q 425 379 429 384 Q 436 391 431 398 Q 424 408 399 412 Q 374 416 341 400 L 291 381 Q 284 380 276 377 Q 234 364 185 357 Q 154 350 178 336 Q 214 320 291 341 L 340 354 Z" fill="lightgray" class="stroke step3"/>
    <path d="M 333 185 Q 336 276 340 354 L 341 400 Q 341 415 344 435 Q 351 459 318 480 C 293 497 267 497 278 469 Q 287 456 291 381 L 291 341 Q 291 281 291 172 C 291 142 332 155 333 185 Z" fill="lightgray" class="hide"/>
    <path d="M 176 244 Q 192 225 209 201 Q 218 189 231 188 Q 240 187 245 197 Q 251 209 247 233 Q 246 249 224 262 Q 170 290 160 287 Q 156 284 155 273 Q 156 264 176 244 Z" fill="lightgray" class="hide"/>
    <path d="M 388 304 Q 378 283 358 249 Q 355 243 359 240 Q 365 239 369 243 Q 415 282 438 297 Q 450 301 446 308 Q 440 318 426 329 Q 413 339 397 339 Q 387 338 390 325 Q 391 316 388 304 Z" fill="lightgray" class="hide"/>
    <path d="M 291 172 Q 150 133 122 132 Q 109 131 108 121 Q 105 108 114 101 Q 136 85 167 68 Q 177 65 189 73 Q 318 139 449 204 Q 461 211 462 220 Q 453 226 333 185 L 291 172 Z" fill="lightgray" class="hide"/>
    <path d="M 761 571 Q 774 575 791 578 Q 837 590 843 596 Q 850 603 847 610 Q 840 620 815 626 Q 791 630 770 622 L 718 603 Q 687 594 655 585 Q 636 581 615 575 L 569 567 Q 544 564 519 560 Q 488 554 510 540 Q 537 525 572 528 L 615 537 Q 661 549 712 559 L 761 571 Z" fill="lightgray" class="hide"/>
    <path d="M 615 575 Q 615 687 614 690 Q 611 696 607 699 Q 585 717 557 726 Q 542 732 534 725 Q 527 719 533 704 Q 558 652 569 567 L 572 528 Q 575 485 580 419 C 582 389 622 396 620 426 Q 616 489 615 537 L 615 575 Z" fill="lightgray" class="hide"/>
    <path d="M 738 448 Q 750 512 761 571 L 770 622 Q 782 704 813 794 Q 817 804 799 822 Q 766 844 742 852 Q 726 856 718 849 Q 709 842 716 827 Q 735 790 733 767 Q 729 688 718 603 L 712 559 Q 705 501 694 439 C 689 409 732 419 738 448 Z" fill="lightgray" class="hide"/>
    <path d="M 580 419 Q 525 412 466 400 Q 447 397 462 383 Q 475 371 491 367 Q 510 363 525 368 Q 697 423 940 424 L 942 424 Q 960 425 964 433 Q 968 443 953 455 Q 901 492 841 471 Q 796 462 738 448 L 694 439 Q 691 440 690 439 Q 656 435 620 426 L 580 419 Z" fill="lightgray" class="hide"/>
    <path d="M 555 300 Q 528 312 512 311 Q 502 307 506 297 Q 542 239 518 117 Q 500 65 529 30 Q 536 20 544 25 Q 551 32 558 51 L 566 83 Q 567 95 568 164 L 567 189 Q 567 250 568 269 C 569 294 569 294 555 300 Z" fill="lightgray" class="hide"/>
    <path d="M 736 67 Q 752 42 766 12 Q 778 -10 788 -12 Q 800 -12 809 13 Q 825 58 820 166 Q 816 259 824 288 Q 833 310 820 320 Q 811 332 773 349 Q 755 358 715 343 Q 678 328 634 318 Q 600 309 555 300 C 526 294 540 259 568 269 Q 623 291 718 305 Q 742 308 748 300 Q 754 294 755 163 Q 756 117 751 108 Q 747 98 733 101 L 732 101 C 717 98 720 93 736 67 Z" fill="lightgray" class="hide"/>
    <path d="M 568 164 Q 571 164 576 164 Q 648 177 700 185 Q 722 189 713 201 Q 703 214 679 218 Q 646 221 567 189 C 539 178 538 164 568 164 Z" fill="lightgray" class="hide"/>
    <path d="M 558 51 Q 564 50 572 51 Q 624 61 736 67 C 766 69 756 84 732 101 Q 731 102 728 104 Q 713 113 684 106 Q 620 91 566 83 C 536 79 528 53 558 51 Z" fill="lightgray" class="hide"/></g><g transform="scale(1, -1) translate(0, -900)">
    <style type="text/css">
        .origin {display:none;}
        .hide {display:none;}
        .stroke {fill: #000000;}
        
.step1 {transform: translateX(1024px);}
.step2 {transform: translateX(2048px);}
.step3 {transform: translateX(3072px);}
.step4 {transform: translateX(4096px);}
.step5 {transform: translateX(5120px);}
.step6 {transform: translateX(6144px);}
.step7 {transform: translateX(7168px);}
.step8 {transform: translateX(8192px);}
.step9 {transform: translateX(9216px);}
.step10 {transform: translateX(10240px);}
.step11 {transform: translateX(11264px);}
.step12 {transform: translateX(12288px);}
.step13 {transform: translateX(13312px);}
.step14 {transform: translateX(14336px);}
.step15 {transform: translateX(15360px);}
.step16 {transform: translateX(16384px);}
.step17 {transform: translateX(17408px);}
.step18 {transform: translateX(18432px);}
.step19 {transform: translateX(19456px);}
.step20 {transform: translateX(20480px);}
.step21 {transform: translateX(21504px);}
.step22 {transform: translateX(22528px);}
.step23 {transform: translateX(23552px);}
.step24 {transform: translateX(24576px);}
.step25 {transform: translateX(25600px);}
.step26 {transform: translateX(26624px);}
.step27 {transform: translateX(27648px);}
.step28 {transform: translateX(28672px);}
.step29 {transform: translateX(29696px);}
    </style>

    <path d="M 340 716 Q 353 738 367 751 Q 377 761 372 776 Q 368 789 338 811 Q 310 830 291 829 Q 272 828 281 804 Q 294 774 284 747 Q 250 659 196 575 Q 145 496 74 407 Q 64 397 62 390 Q 59 380 73 382 Q 127 389 288 629 Q 324 692 331 701 L 340 716 Z" fill="lightgray" class="stroke step4"/>
    <path d="M 331 701 Q 335 694 357 680 Q 391 659 427 634 Q 439 627 451 628 Q 458 629 461 640 Q 464 652 454 674 Q 441 704 348 716 Q 344 717 340 716 C 320 714 320 714 331 701 Z" fill="lightgray" class="stroke step4"/>
    <path d="M 318 480 Q 354 492 391 501 Q 413 508 417 512 Q 424 519 419 526 Q 412 536 387 540 Q 362 543 336 531 Q 311 521 283 511 Q 253 502 217 497 Q 186 490 210 476 Q 238 464 278 469 L 318 480 Z" fill="lightgray" class="stroke step4"/>
    <path d="M 340 354 Q 365 363 394 370 Q 425 379 429 384 Q 436 391 431 398 Q 424 408 399 412 Q 374 416 341 400 L 291 381 Q 284 380 276 377 Q 234 364 185 357 Q 154 350 178 336 Q 214 320 291 341 L 340 354 Z" fill="lightgray" class="stroke step4"/>
    <path d="M 333 185 Q 336 276 340 354 L 341 400 Q 341 415 344 435 Q 351 459 318 480 C 293 497 267 497 278 469 Q 287 456 291 381 L 291 341 Q 291 281 291 172 C 291 142 332 155 333 185 Z" fill="lightgray" class="stroke step4"/>
    <path d="M 176 244 Q 192 225 209 201 Q 218 189 231 188 Q 240 187 245 197 Q 251 209 247 233 Q 246 249 224 262 Q 170 290 160 287 Q 156 284 155 273 Q 156 264 176 244 Z" fill="lightgray" class="hide"/>
    <path d="M 388 304 Q 378 283 358 249 Q 355 243 359 240 Q 365 239 369 243 Q 415 282 438 297 Q 450 301 446 308 Q 440 318 426 329 Q 413 339 397 339 Q 387 338 390 325 Q 391 316 388 304 Z" fill="lightgray" class="hide"/>
    <path d="M 291 172 Q 150 133 122 132 Q 109 131 108 121 Q 105 108 114 101 Q 136 85 167 68 Q 177 65 189 73 Q 318 139 449 204 Q 461 211 462 220 Q 453 226 333 185 L 291 172 Z" fill="lightgray" class="hide"/>
    <path d="M 761 571 Q 774 575 791 578 Q 837 590 843 596 Q 850 603 847 610 Q 840 620 815 626 Q 791 630 770 622 L 718 603 Q 687 594 655 585 Q 636 581 615 575 L 569 567 Q 544 564 519 560 Q 488 554 510 540 Q 537 525 572 528 L 615 537 Q 661 549 712 559 L 761 571 Z" fill="lightgray" class="hide"/>
    <path d="M 615 575 Q 615 687 614 690 Q 611 696 607 699 Q 585 717 557 726 Q 542 732 534 725 Q 527 719 533 704 Q 558 652 569 567 L 572 528 Q 575 485 580 419 C 582 389 622 396 620 426 Q 616 489 615 537 L 615 575 Z" fill="lightgray" class="hide"/>
    <path d="M 738 448 Q 750 512 761 571 L 770 622 Q 782 704 813 794 Q 817 804 799 822 Q 766 844 742 852 Q 726 856 718 849 Q 709 842 716 827 Q 735 790 733 767 Q 729 688 718 603 L 712 559 Q 705 501 694 439 C 689 409 732 419 738 448 Z" fill="lightgray" class="hide"/>
    <path d="M 580 419 Q 525 412 466 400 Q 447 397 462 383 Q 475 371 491 367 Q 510 363 525 368 Q 697 423 940 424 L 942 424 Q 960 425 964 433 Q 968 443 953 455 Q 901 492 841 471 Q 796 462 738 448 L 694 439 Q 691 440 690 439 Q 656 435 620 426 L 580 419 Z" fill="lightgray" class="hide"/>
    <path d="M 555 300 Q 528 312 512 311 Q 502 307 506 297 Q 542 239 518 117 Q 500 65 529 30 Q 536 20 544 25 Q 551 32 558 51 L 566 83 Q 567 95 568 164 L 567 189 Q 567 250 568 269 C 569 294 569 294 555 300 Z" fill="lightgray" class="hide"/>
    <path d="M 736 67 Q 752 42 766 12 Q 778 -10 788 -12 Q 800 -12 809 13 Q 825 58 820 166 Q 816 259 824 288 Q 833 310 820 320 Q 811 332 773 349 Q 755 358 715 343 Q 678 328 634 318 Q 600 309 555 300 C 526 294 540 259 568 269 Q 623 291 718 305 Q 742 308 748 300 Q 754 294 755 163 Q 756 117 751 108 Q 747 98 733 101 L 732 101 C 717 98 720 93 736 67 Z" fill="lightgray" class="hide"/>
    <path d="M 568 164 Q 571 164 576 164 Q 648 177 700 185 Q 722 189 713 201 Q 703 214 679 218 Q 646 221 567 189 C 539 178 538 164 568 164 Z" fill="lightgray" class="hide"/>
    <path d="M 558 51 Q 564 50 572 51 Q 624 61 736 67 C 766 69 756 84 732 101 Q 731 102 728 104 Q 713 113 684 106 Q 620 91 566 83 C 536 79 528 53 558 51 Z" fill="lightgray" class="hide"/></g><g transform="scale(1, -1) translate(0, -900)">
    <style type="text/css">
        .origin {display:none;}
        .hide {display:none;}
        .stroke {fill: #000000;}
        
.step1 {transform: translateX(1024px);}
.step2 {transform: translateX(2048px);}
.step3 {transform: translateX(3072px);}
.step4 {transform: translateX(4096px);}
.step5 {transform: translateX(5120px);}
.step6 {transform: translateX(6144px);}
.step7 {transform: translateX(7168px);}
.step8 {transform: translateX(8192px);}
.step9 {transform: translateX(9216px);}
.step10 {transform: translateX(10240px);}
.step11 {transform: translateX(11264px);}
.step12 {transform: translateX(12288px);}
.step13 {transform: translateX(13312px);}
.step14 {transform: translateX(14336px);}
.step15 {transform: translateX(15360px);}
.step16 {transform: translateX(16384px);}
.step17 {transform: translateX(17408px);}
.step18 {transform: translateX(18432px);}
.step19 {transform: translateX(19456px);}
.step20 {transform: translateX(20480px);}
.step21 {transform: translateX(21504px);}
.step22 {transform: translateX(22528px);}
.step23 {transform: translateX(23552px);}
.step24 {transform: translateX(24576px);}
.step25 {transform: translateX(25600px);}
.step26 {transform: translateX(26624px);}
.step27 {transform: translateX(27648px);}
.step28 {transform: translateX(28672px);}
.step29 {transform: translateX(29696px);}
    </style>

    <path d="M 340 716 Q 353 738 367 751 Q 377 761 372 776 Q 368 789 338 811 Q 310 830 291 829 Q 272 828 281 804 Q 294 774 284 747 Q 250 659 196 575 Q 145 496 74 407 Q 64 397 62 390 Q 59 380 73 382 Q 127 389 288 629 Q 324 692 331 701 L 340 716 Z" fill="lightgray" class="stroke step5"/>
    <path d="M 331 701 Q 335 694 357 680 Q 391 659 427 634 Q 439 627 451 628 Q 458 629 461 640 Q 464 652 454 674 Q 441 704 348 716 Q 344 717 340 716 C 320 714 320 714 331 701 Z" fill="lightgray" class="stroke step5"/>
    <path d="M 318 480 Q 354 492 391 501 Q 413 508 417 512 Q 424 519 419 526 Q 412 536 387 540 Q 362 543 336 531 Q 311 521 283 511 Q 253 502 217 497 Q 186 490 210 476 Q 238 464 278 469 L 318 480 Z" fill="lightgray" class="stroke step5"/>
    <path d="M 340 354 Q 365 363 394 370 Q 425 379 429 384 Q 436 391 431 398 Q 424 408 399 412 Q 374 416 341 400 L 291 381 Q 284 380 276 377 Q 234 364 185 357 Q 154 350 178 336 Q 214 320 291 341 L 340 354 Z" fill="lightgray" class="stroke step5"/>
    <path d="M 333 185 Q 336 276 340 354 L 341 400 Q 341 415 344 435 Q 351 459 318 480 C 293 497 267 497 278 469 Q 287 456 291 381 L 291 341 Q 291 281 291 172 C 291 142 332 155 333 185 Z" fill="lightgray" class="stroke step5"/>
    <path d="M 176 244 Q 192 225 209 201 Q 218 189 231 188 Q 240 187 245 197 Q 251 209 247 233 Q 246 249 224 262 Q 170 290 160 287 Q 156 284 155 273 Q 156 264 176 244 Z" fill="lightgray" class="stroke step5"/>
    <path d="M 388 304 Q 378 283 358 249 Q 355 243 359 240 Q 365 239 369 243 Q 415 282 438 297 Q 450 301 446 308 Q 440 318 426 329 Q 413 339 397 339 Q 387 338 390 325 Q 391 316 388 304 Z" fill="lightgray" class="hide"/>
    <path d="M 291 172 Q 150 133 122 132 Q 109 131 108 121 Q 105 108 114 101 Q 136 85 167 68 Q 177 65 189 73 Q 318 139 449 204 Q 461 211 462 220 Q 453 226 333 185 L 291 172 Z" fill="lightgray" class="hide"/>
    <path d="M 761 571 Q 774 575 791 578 Q 837 590 843 596 Q 850 603 847 610 Q 840 620 815 626 Q 791 630 770 622 L 718 603 Q 687 594 655 585 Q 636 581 615 575 L 569 567 Q 544 564 519 560 Q 488 554 510 540 Q 537 525 572 528 L 615 537 Q 661 549 712 559 L 761 571 Z" fill="lightgray" class="hide"/>
    <path d="M 615 575 Q 615 687 614 690 Q 611 696 607 699 Q 585 717 557 726 Q 542 732 534 725 Q 527 719 533 704 Q 558 652 569 567 L 572 528 Q 575 485 580 419 C 582 389 622 396 620 426 Q 616 489 615 537 L 615 575 Z" fill="lightgray" class="hide"/>
    <path d="M 738 448 Q 750 512 761 571 L 770 622 Q 782 704 813 794 Q 817 804 799 822 Q 766 844 742 852 Q 726 856 718 849 Q 709 842 716 827 Q 735 790 733 767 Q 729 688 718 603 L 712 559 Q 705 501 694 439 C 689 409 732 419 738 448 Z" fill="lightgray" class="hide"/>
    <path d="M 580 419 Q 525 412 466 400 Q 447 397 462 383 Q 475 371 491 367 Q 510 363 525 368 Q 697 423 940 424 L 942 424 Q 960 425 964 433 Q 968 443 953 455 Q 901 492 841 471 Q 796 462 738 448 L 694 439 Q 691 440 690 439 Q 656 435 620 426 L 580 419 Z" fill="lightgray" class="hide"/>
    <path d="M 555 300 Q 528 312 512 311 Q 502 307 506 297 Q 542 239 518 117 Q 500 65 529 30 Q 536 20 544 25 Q 551 32 558 51 L 566 83 Q 567 95 568 164 L 567 189 Q 567 250 568 269 C 569 294 569 294 555 300 Z" fill="lightgray" class="hide"/>
    <path d="M 736 67 Q 752 42 766 12 Q 778 -10 788 -12 Q 800 -12 809 13 Q 825 58 820 166 Q 816 259 824 288 Q 833 310 820 320 Q 811 332 773 349 Q 755 358 715 343 Q 678 328 634 318 Q 600 309 555 300 C 526 294 540 259 568 269 Q 623 291 718 305 Q 742 308 748 300 Q 754 294 755 163 Q 756 117 751 108 Q 747 98 733 101 L 732 101 C 717 98 720 93 736 67 Z" fill="lightgray" class="hide"/>
    <path d="M 568 164 Q 571 164 576 164 Q 648 177 700 185 Q 722 189 713 201 Q 703 214 679 218 Q 646 221 567 189 C 539 178 538 164 568 164 Z" fill="lightgray" class="hide"/>
    <path d="M 558 51 Q 564 50 572 51 Q 624 61 736 67 C 766 69 756 84 732 101 Q 731 102 728 104 Q 713 113 684 106 Q 620 91 566 83 C 536 79 528 53 558 51 Z" fill="lightgray" class="hide"/></g><g transform="scale(1, -1) translate(0, -900)">
    <style type="text/css">
        .origin {display:none;}
        .hide {display:none;}
        .stroke {fill: #000000;}
        
.step1 {transform: translateX(1024px);}
.step2 {transform: translateX(2048px);}
.step3 {transform: translateX(3072px);}
.step4 {transform: translateX(4096px);}
.step5 {transform: translateX(5120px);}
.step6 {transform: translateX(6144px);}
.step7 {transform: translateX(7168px);}
.step8 {transform: translateX(8192px);}
.step9 {transform: translateX(9216px);}
.step10 {transform: translateX(10240px);}
.step11 {transform: translateX(11264px);}
.step12 {transform: translateX(12288px);}
.step13 {transform: translateX(13312px);}
.step14 {transform: translateX(14336px);}
.step15 {transform: translateX(15360px);}
.step16 {transform: translateX(16384px);}
.step17 {transform: translateX(17408px);}
.step18 {transform: translateX(18432px);}
.step19 {transform: translateX(19456px);}
.step20 {transform: translateX(20480px);}
.step21 {transform: translateX(21504px);}
.step22 {transform: translateX(22528px);}
.step23 {transform: translateX(23552px);}
.step24 {transform: translateX(24576px);}
.step25 {transform: translateX(25600px);}
.step26 {transform: translateX(26624px);}
.step27 {transform: translateX(27648px);}
.step28 {transform: translateX(28672px);}
.step29 {transform: translateX(29696px);}
    </style>

    <path d="M 340 716 Q 353 738 367 751 Q 377 761 372 776 Q 368 789 338 811 Q 310 830 291 829 Q 272 828 281 804 Q 294 774 284 747 Q 250 659 196 575 Q 145 496 74 407 Q 64 397 62 390 Q 59 380 73 382 Q 127 389 288 629 Q 324 692 331 701 L 340 716 Z" fill="lightgray" class="stroke step6"/>
    <path d="M 331 701 Q 335 694 357 680 Q 391 659 427 634 Q 439 627 451 628 Q 458 629 461 640 Q 464 652 454 674 Q 441 704 348 716 Q 344 717 340 716 C 320 714 320 714 331 701 Z" fill="lightgray" class="stroke step6"/>
    <path d="M 318 480 Q 354 492 391 501 Q 413 508 417 512 Q 424 519 419 526 Q 412 536 387 540 Q 362 543 336 531 Q 311 521 283 511 Q 253 502 217 497 Q 186 490 210 476 Q 238 464 278 469 L 318 480 Z" fill="lightgray" class="stroke step6"/>
    <path d="M 340 354 Q 365 363 394 370 Q 425 379 429 384 Q 436 391 431 398 Q 424 408 399 412 Q 374 416 341 400 L 291 381 Q 284 380 276 377 Q 234 364 185 357 Q 154 350 178 336 Q 214 320 291 341 L 340 354 Z" fill="lightgray" class="stroke step6"/>
    <path d="M 333 185 Q 336 276 340 354 L 341 400 Q 341 415 344 435 Q 351 459 318 480 C 293 497 267 497 278 469 Q 287 456 291 381 L 291 341 Q 291 281 291 172 C 291 142 332 155 333 185 Z" fill="lightgray" class="stroke step6"/>
    <path d="M 176 244 Q 192 225 209 201 Q 218 189 231 188 Q 240 187 245 197 Q 251 209 247 233 Q 246 249 224 262 Q 170 290 160 287 Q 156 284 155 273 Q 156 264 176 244 Z" fill="lightgray" class="stroke step6"/>
    <path d="M 388 304 Q 378 283 358 249 Q 355 243 359 240 Q 365 239 369 243 Q 415 282 438 297 Q 450 301 446 308 Q 440 318 426 329 Q 413 339 397 339 Q 387 338 390 325 Q 391 316 388 304 Z" fill="lightgray" class="stroke step6"/>
    <path d="M 291 172 Q 150 133 122 132 Q 109 131 108 121 Q 105 108 114 101 Q 136 85 167 68 Q 177 65 189 73 Q 318 139 449 204 Q 461 211 462 220 Q 453 226 333 185 L 291 172 Z" fill="lightgray" class="hide"/>
    <path d="M 761 571 Q 774 575 791 578 Q 837 590 843 596 Q 850 603 847 610 Q 840 620 815 626 Q 791 630 770 622 L 718 603 Q 687 594 655 585 Q 636 581 615 575 L 569 567 Q 544 564 519 560 Q 488 554 510 540 Q 537 525 572 528 L 615 537 Q 661 549 712 559 L 761 571 Z" fill="lightgray" class="hide"/>
    <path d="M 615 575 Q 615 687 614 690 Q 611 696 607 699 Q 585 717 557 726 Q 542 732 534 725 Q 527 719 533 704 Q 558 652 569 567 L 572 528 Q 575 485 580 419 C 582 389 622 396 620 426 Q 616 489 615 537 L 615 575 Z" fill="lightgray" class="hide"/>
    <path d="M 738 448 Q 750 512 761 571 L 770 622 Q 782 704 813 794 Q 817 804 799 822 Q 766 844 742 852 Q 726 856 718 849 Q 709 842 716 827 Q 735 790 733 767 Q 729 688 718 603 L 712 559 Q 705 501 694 439 C 689 409 732 419 738 448 Z" fill="lightgray" class="hide"/>
    <path d="M 580 419 Q 525 412 466 400 Q 447 397 462 383 Q 475 371 491 367 Q 510 363 525 368 Q 697 423 940 424 L 942 424 Q 960 425 964 433 Q 968 443 953 455 Q 901 492 841 471 Q 796 462 738 448 L 694 439 Q 691 440 690 439 Q 656 435 620 426 L 580 419 Z" fill="lightgray" class="hide"/>
    <path d="M 555 300 Q 528 312 512 311 Q 502 307 506 297 Q 542 239 518 117 Q 500 65 529 30 Q 536 20 544 25 Q 551 32 558 51 L 566 83 Q 567 95 568 164 L 567 189 Q 567 250 568 269 C 569 294 569 294 555 300 Z" fill="lightgray" class="hide"/>
    <path d="M 736 67 Q 752 42 766 12 Q 778 -10 788 -12 Q 800 -12 809 13 Q 825 58 820 166 Q 816 259 824 288 Q 833 310 820 320 Q 811 332 773 349 Q 755 358 715 343 Q 678 328 634 318 Q 600 309 555 300 C 526 294 540 259 568 269 Q 623 291 718 305 Q 742 308 748 300 Q 754 294 755 163 Q 756 117 751 108 Q 747 98 733 101 L 732 101 C 717 98 720 93 736 67 Z" fill="lightgray" class="hide"/>
    <path d="M 568 164 Q 571 164 576 164 Q 648 177 700 185 Q 722 189 713 201 Q 703 214 679 218 Q 646 221 567 189 C 539 178 538 164 568 164 Z" fill="lightgray" class="hide"/>
    <path d="M 558 51 Q 564 50 572 51 Q 624 61 736 67 C 766 69 756 84 732 101 Q 731 102 728 104 Q 713 113 684 106 Q 620 91 566 83 C 536 79 528 53 558 51 Z" fill="lightgray" class="hide"/></g><g transform="scale(1, -1) translate(0, -900)">
    <style type="text/css">
        .origin {display:none;}
        .hide {display:none;}
        .stroke {fill: #000000;}
        
.step1 {transform: translateX(1024px);}
.step2 {transform: translateX(2048px);}
.step3 {transform: translateX(3072px);}
.step4 {transform: translateX(4096px);}
.step5 {transform: translateX(5120px);}
.step6 {transform: translateX(6144px);}
.step7 {transform: translateX(7168px);}
.step8 {transform: translateX(8192px);}
.step9 {transform: translateX(9216px);}
.step10 {transform: translateX(10240px);}
.step11 {transform: translateX(11264px);}
.step12 {transform: translateX(12288px);}
.step13 {transform: translateX(13312px);}
.step14 {transform: translateX(14336px);}
.step15 {transform: translateX(15360px);}
.step16 {transform: translateX(16384px);}
.step17 {transform: translateX(17408px);}
.step18 {transform: translateX(18432px);}
.step19 {transform: translateX(19456px);}
.step20 {transform: translateX(20480px);}
.step21 {transform: translateX(21504px);}
.step22 {transform: translateX(22528px);}
.step23 {transform: translateX(23552px);}
.step24 {transform: translateX(24576px);}
.step25 {transform: translateX(25600px);}
.step26 {transform: translateX(26624px);}
.step27 {transform: translateX(27648px);}
.step28 {transform: translateX(28672px);}
.step29 {transform: translateX(29696px);}
    </style>

    <path d="M 340 716 Q 353 738 367 751 Q 377 761 372 776 Q 368 789 338 811 Q 310 830 291 829 Q 272 828 281 804 Q 294 774 284 747 Q 250 659 196 575 Q 145 496 74 407 Q 64 397 62 390 Q 59 380 73 382 Q 127 389 288 629 Q 324 692 331 701 L 340 716 Z" fill="lightgray" class="stroke step7"/>
    <path d="M 331 701 Q 335 694 357 680 Q 391 659 427 634 Q 439 627 451 628 Q 458 629 461 640 Q 464 652 454 674 Q 441 704 348 716 Q 344 717 340 716 C 320 714 320 714 331 701 Z" fill="lightgray" class="stroke step7"/>
    <path d="M 318 480 Q 354 492 391 501 Q 413 508 417 512 Q 424 519 419 526 Q 412 536 387 540 Q 362 543 336 531 Q 311 521 283 511 Q 253 502 217 497 Q 186 490 210 476 Q 238 464 278 469 L 318 480 Z" fill="lightgray" class="stroke step7"/>
    <path d="M 340 354 Q 365 363 394 370 Q 425 379 429 384 Q 436 391 431 398 Q 424 408 399 412 Q 374 416 341 400 L 291 381 Q 284 380 276 377 Q 234 364 185 357 Q 154 350 178 336 Q 214 320 291 341 L 340 354 Z" fill="lightgray" class="stroke step7"/>
    <path d="M 333 185 Q 336 276 340 354 L 341 400 Q 341 415 344 435 Q 351 459 318 480 C 293 497 267 497 278 469 Q 287 456 291 381 L 291 341 Q 291 281 291 172 C 291 142 332 155 333 185 Z" fill="lightgray" class="stroke step7"/>
    <path d="M 176 244 Q 192 225 209 201 Q 218 189 231 188 Q 240 187 245 197 Q 251 209 247 233 Q 246 249 224 262 Q 170 290 160 287 Q 156 284 155 273 Q 156 264 176 244 Z" fill="lightgray" class="stroke step7"/>
    <path d="M 388 304 Q 378 283 358 249 Q 355 243 359 240 Q 365 239 369 243 Q 415 282 438 297 Q 450 301 446 308 Q 440 318 426 329 Q 413 339 397 339 Q 387 338 390 325 Q 391 316 388 304 Z" fill="lightgray" class="stroke step7"/>
    <path d="M 291 172 Q 150 133 122 132 Q 109 131 108 121 Q 105 108 114 101 Q 136 85 167 68 Q 177 65 189 73 Q 318 139 449 204 Q 461 211 462 220 Q 453 226 333 185 L 291 172 Z" fill="lightgray" class="stroke step7"/>
    <path d="M 761 571 Q 774 575 791 578 Q 837 590 843 596 Q 850 603 847 610 Q 840 620 815 626 Q 791 630 770 622 L 718 603 Q 687 594 655 585 Q 636 581 615 575 L 569 567 Q 544 564 519 560 Q 488 554 510 540 Q 537 525 572 528 L 615 537 Q 661 549 712 559 L 761 571 Z" fill="lightgray" class="hide"/>
    <path d="M 615 575 Q 615 687 614 690 Q 611 696 607 699 Q 585 717 557 726 Q 542 732 534 725 Q 527 719 533 704 Q 558 652 569 567 L 572 528 Q 575 485 580 419 C 582 389 622 396 620 426 Q 616 489 615 537 L 615 575 Z" fill="lightgray" class="hide"/>
    <path d="M 738 448 Q 750 512 761 571 L 770 622 Q 782 704 813 794 Q 817 804 799 822 Q 766 844 742 852 Q 726 856 718 849 Q 709 842 716 827 Q 735 790 733 767 Q 729 688 718 603 L 712 559 Q 705 501 694 439 C 689 409 732 419 738 448 Z" fill="lightgray" class="hide"/>
    <path d="M 580 419 Q 525 412 466 400 Q 447 397 462 383 Q 475 371 491 367 Q 510 363 525 368 Q 697 423 940 424 L 942 424 Q 960 425 964 433 Q 968 443 953 455 Q 901 492 841 471 Q 796 462 738 448 L 694 439 Q 691 440 690 439 Q 656 435 620 426 L 580 419 Z" fill="lightgray" class="hide"/>
    <path d="M 555 300 Q 528 312 512 311 Q 502 307 506 297 Q 542 239 518 117 Q 500 65 529 30 Q 536 20 544 25 Q 551 32 558 51 L 566 83 Q 567 95 568 164 L 567 189 Q 567 250 568 269 C 569 294 569 294 555 300 Z" fill="lightgray" class="hide"/>
    <path d="M 736 67 Q 752 42 766 12 Q 778 -10 788 -12 Q 800 -12 809 13 Q 825 58 820 166 Q 816 259 824 288 Q 833 310 820 320 Q 811 332 773 349 Q 755 358 715 343 Q 678 328 634 318 Q 600 309 555 300 C 526 294 540 259 568 269 Q 623 291 718 305 Q 742 308 748 300 Q 754 294 755 163 Q 756 117 751 108 Q 747 98 733 101 L 732 101 C 717 98 720 93 736 67 Z" fill="lightgray" class="hide"/>
    <path d="M 568 164 Q 571 164 576 164 Q 648 177 700 185 Q 722 189 713 201 Q 703 214 679 218 Q 646 221 567 189 C 539 178 538 164 568 164 Z" fill="lightgray" class="hide"/>
    <path d="M 558 51 Q 564 50 572 51 Q 624 61 736 67 C 766 69 756 84 732 101 Q 731 102 728 104 Q 713 113 684 106 Q 620 91 566 83 C 536 79 528 53 558 51 Z" fill="lightgray" class="hide"/></g><g transform="scale(1, -1) translate(0, -900)">
    <style type="text/css">
        .origin {display:none;}
        .hide {display:none;}
        .stroke {fill: #000000;}
        
.step1 {transform: translateX(1024px);}
.step2 {transform: translateX(2048px);}
.step3 {transform: translateX(3072px);}
.step4 {transform: translateX(4096px);}
.step5 {transform: translateX(5120px);}
.step6 {transform: translateX(6144px);}
.step7 {transform: translateX(7168px);}
.step8 {transform: translateX(8192px);}
.step9 {transform: translateX(9216px);}
.step10 {transform: translateX(10240px);}
.step11 {transform: translateX(11264px);}
.step12 {transform: translateX(12288px);}
.step13 {transform: translateX(13312px);}
.step14 {transform: translateX(14336px);}
.step15 {transform: translateX(15360px);}
.step16 {transform: translateX(16384px);}
.step17 {transform: translateX(17408px);}
.step18 {transform: translateX(18432px);}
.step19 {transform: translateX(19456px);}
.step20 {transform: translateX(20480px);}
.step21 {transform: translateX(21504px);}
.step22 {transform: translateX(22528px);}
.step23 {transform: translateX(23552px);}
.step24 {transform: translateX(24576px);}
.step25 {transform: translateX(25600px);}
.step26 {transform: translateX(26624px);}
.step27 {transform: translateX(27648px);}
.step28 {transform: translateX(28672px);}
.step29 {transform: translateX(29696px);}
    </style>

    <path d="M 340 716 Q 353 738 367 751 Q 377 761 372 776 Q 368 789 338 811 Q 310 830 291 829 Q 272 828 281 804 Q 294 774 284 747 Q 250 659 196 575 Q 145 496 74 407 Q 64 397 62 390 Q 59 380 73 382 Q 127 389 288 629 Q 324 692 331 701 L 340 716 Z" fill="lightgray" class="stroke step8"/>
    <path d="M 331 701 Q 335 694 357 680 Q 391 659 427 634 Q 439 627 451 628 Q 458 629 461 640 Q 464 652 454 674 Q 441 704 348 716 Q 344 717 340 716 C 320 714 320 714 331 701 Z" fill="lightgray" class="stroke step8"/>
    <path d="M 318 480 Q 354 492 391 501 Q 413 508 417 512 Q 424 519 419 526 Q 412 536 387 540 Q 362 543 336 531 Q 311 521 283 511 Q 253 502 217 497 Q 186 490 210 476 Q 238 464 278 469 L 318 480 Z" fill="lightgray" class="stroke step8"/>
    <path d="M 340 354 Q 365 363 394 370 Q 425 379 429 384 Q 436 391 431 398 Q 424 408 399 412 Q 374 416 341 400 L 291 381 Q 284 380 276 377 Q 234 364 185 357 Q 154 350 178 336 Q 214 320 291 341 L 340 354 Z" fill="lightgray" class="stroke step8"/>
    <path d="M 333 185 Q 336 276 340 354 L 341 400 Q 341 415 344 435 Q 351 459 318 480 C 293 497 267 497 278 469 Q 287 456 291 381 L 291 341 Q 291 281 291 172 C 291 142 332 155 333 185 Z" fill="lightgray" class="stroke step8"/>
    <path d="M 176 244 Q 192 225 209 201 Q 218 189 231 188 Q 240 187 245 197 Q 251 209 247 233 Q 246 249 224 262 Q 170 290 160 287 Q 156 284 155 273 Q 156 264 176 244 Z" fill="lightgray" class="stroke step8"/>
    <path d="M 388 304 Q 378 283 358 249 Q 355 243 359 240 Q 365 239 369 243 Q 415 282 438 297 Q 450 301 446 308 Q 440 318 426 329 Q 413 339 397 339 Q 387 338 390 325 Q 391 316 388 304 Z" fill="lightgray" class="stroke step8"/>
    <path d="M 291 172 Q 150 133 122 132 Q 109 131 108 121 Q 105 108 114 101 Q 136 85 167 68 Q 177 65 189 73 Q 318 139 449 204 Q 461 211 462 220 Q 453 226 333 185 L 291 172 Z" fill="lightgray" class="stroke step8"/>
    <path d="M 761 571 Q 774 575 791 578 Q 837 590 843 596 Q 850 603 847 610 Q 840 620 815 626 Q 791 630 770 622 L 718 603 Q 687 594 655 585 Q 636 581 615 575 L 569 567 Q 544 564 519 560 Q 488 554 510 540 Q 537 525 572 528 L 615 537 Q 661 549 712 559 L 761 571 Z" fill="lightgray" class="stroke step8"/>
    <path d="M 615 575 Q 615 687 614 690 Q 611 696 607 699 Q 585 717 557 726 Q 542 732 534 725 Q 527 719 533 704 Q 558 652 569 567 L 572 528 Q 575 485 580 419 C 582 389 622 396 620 426 Q 616 489 615 537 L 615 575 Z" fill="lightgray" class="hide"/>
    <path d="M 738 448 Q 750 512 761 571 L 770 622 Q 782 704 813 794 Q 817 804 799 822 Q 766 844 742 852 Q 726 856 718 849 Q 709 842 716 827 Q 735 790 733 767 Q 729 688 718 603 L 712 559 Q 705 501 694 439 C 689 409 732 419 738 448 Z" fill="lightgray" class="hide"/>
    <path d="M 580 419 Q 525 412 466 400 Q 447 397 462 383 Q 475 371 491 367 Q 510 363 525 368 Q 697 423 940 424 L 942 424 Q 960 425 964 433 Q 968 443 953 455 Q 901 492 841 471 Q 796 462 738 448 L 694 439 Q 691 440 690 439 Q 656 435 620 426 L 580 419 Z" fill="lightgray" class="hide"/>
    <path d="M 555 300 Q 528 312 512 311 Q 502 307 506 297 Q 542 239 518 117 Q 500 65 529 30 Q 536 20 544 25 Q 551 32 558 51 L 566 83 Q 567 95 568 164 L 567 189 Q 567 250 568 269 C 569 294 569 294 555 300 Z" fill="lightgray" class="hide"/>
    <path d="M 736 67 Q 752 42 766 12 Q 778 -10 788 -12 Q 800 -12 809 13 Q 825 58 820 166 Q 816 259 824 288 Q 833 310 820 320 Q 811 332 773 349 Q 755 358 715 343 Q 678 328 634 318 Q 600 309 555 300 C 526 294 540 259 568 269 Q 623 291 718 305 Q 742 308 748 300 Q 754 294 755 163 Q 756 117 751 108 Q 747 98 733 101 L 732 101 C 717 98 720 93 736 67 Z" fill="lightgray" class="hide"/>
    <path d="M 568 164 Q 571 164 576 164 Q 648 177 700 185 Q 722 189 713 201 Q 703 214 679 218 Q 646 221 567 189 C 539 178 538 164 568 164 Z" fill="lightgray" class="hide"/>
    <path d="M 558 51 Q 564 50 572 51 Q 624 61 736 67 C 766 69 756 84 732 101 Q 731 102 728 104 Q 713 113 684 106 Q 620 91 566 83 C 536 79 528 53 558 51 Z" fill="lightgray" class="hide"/></g><g transform="scale(1, -1) translate(0, -900)">
    <style type="text/css">
        .origin {display:none;}
        .hide {display:none;}
        .stroke {fill: #000000;}
        
.step1 {transform: translateX(1024px);}
.step2 {transform: translateX(2048px);}
.step3 {transform: translateX(3072px);}
.step4 {transform: translateX(4096px);}
.step5 {transform: translateX(5120px);}
.step6 {transform: translateX(6144px);}
.step7 {transform: translateX(7168px);}
.step8 {transform: translateX(8192px);}
.step9 {transform: translateX(9216px);}
.step10 {transform: translateX(10240px);}
.step11 {transform: translateX(11264px);}
.step12 {transform: translateX(12288px);}
.step13 {transform: translateX(13312px);}
.step14 {transform: translateX(14336px);}
.step15 {transform: translateX(15360px);}
.step16 {transform: translateX(16384px);}
.step17 {transform: translateX(17408px);}
.step18 {transform: translateX(18432px);}
.step19 {transform: translateX(19456px);}
.step20 {transform: translateX(20480px);}
.step21 {transform: translateX(21504px);}
.step22 {transform: translateX(22528px);}
.step23 {transform: translateX(23552px);}
.step24 {transform: translateX(24576px);}
.step25 {transform: translateX(25600px);}
.step26 {transform: translateX(26624px);}
.step27 {transform: translateX(27648px);}
.step28 {transform: translateX(28672px);}
.step29 {transform: translateX(29696px);}
    </style>

    <path d="M 340 716 Q 353 738 367 751 Q 377 761 372 776 Q 368 789 338 811 Q 310 830 291 829 Q 272 828 281 804 Q 294 774 284 747 Q 250 659 196 575 Q 145 496 74 407 Q 64 397 62 390 Q 59 380 73 382 Q 127 389 288 629 Q 324 692 331 701 L 340 716 Z" fill="lightgray" class="stroke step9"/>
    <path d="M 331 701 Q 335 694 357 680 Q 391 659 427 634 Q 439 627 451 628 Q 458 629 461 640 Q 464 652 454 674 Q 441 704 348 716 Q 344 717 340 716 C 320 714 320 714 331 701 Z" fill="lightgray" class="stroke step9"/>
    <path d="M 318 480 Q 354 492 391 501 Q 413 508 417 512 Q 424 519 419 526 Q 412 536 387 540 Q 362 543 336 531 Q 311 521 283 511 Q 253 502 217 497 Q 186 490 210 476 Q 238 464 278 469 L 318 480 Z" fill="lightgray" class="stroke step9"/>
    <path d="M 340 354 Q 365 363 394 370 Q 425 379 429 384 Q 436 391 431 398 Q 424 408 399 412 Q 374 416 341 400 L 291 381 Q 284 380 276 377 Q 234 364 185 357 Q 154 350 178 336 Q 214 320 291 341 L 340 354 Z" fill="lightgray" class="stroke step9"/>
    <path d="M 333 185 Q 336 276 340 354 L 341 400 Q 341 415 344 435 Q 351 459 318 480 C 293 497 267 497 278 469 Q 287 456 291 381 L 291 341 Q 291 281 291 172 C 291 142 332 155 333 185 Z" fill="lightgray" class="stroke step9"/>
    <path d="M 176 244 Q 192 225 209 201 Q 218 189 231 188 Q 240 187 245 197 Q 251 209 247 233 Q 246 249 224 262 Q 170 290 160 287 Q 156 284 155 273 Q 156 264 176 244 Z" fill="lightgray" class="stroke step9"/>
    <path d="M 388 304 Q 378 283 358 249 Q 355 243 359 240 Q 365 239 369 243 Q 415 282 438 297 Q 450 301 446 308 Q 440 318 426 329 Q 413 339 397 339 Q 387 338 390 325 Q 391 316 388 304 Z" fill="lightgray" class="stroke step9"/>
    <path d="M 291 172 Q 150 133 122 132 Q 109 131 108 121 Q 105 108 114 101 Q 136 85 167 68 Q 177 65 189 73 Q 318 139 449 204 Q 461 211 462 220 Q 453 226 333 185 L 291 172 Z" fill="lightgray" class="stroke step9"/>
    <path d="M 761 571 Q 774 575 791 578 Q 837 590 843 596 Q 850 603 847 610 Q 840 620 815 626 Q 791 630 770 622 L 718 603 Q 687 594 655 585 Q 636 581 615 575 L 569 567 Q 544 564 519 560 Q 488 554 510 540 Q 537 525 572 528 L 615 537 Q 661 549 712 559 L 761 571 Z" fill="lightgray" class="stroke step9"/>
    <path d="M 615 575 Q 615 687 614 690 Q 611 696 607 699 Q 585 717 557 726 Q 542 732 534 725 Q 527 719 533 704 Q 558 652 569 567 L 572 528 Q 575 485 580 419 C 582 389 622 396 620 426 Q 616 489 615 537 L 615 575 Z" fill="lightgray" class="stroke step9"/>
    <path d="M 738 448 Q 750 512 761 571 L 770 622 Q 782 704 813 794 Q 817 804 799 822 Q 766 844 742 852 Q 726 856 718 849 Q 709 842 716 827 Q 735 790 733 767 Q 729 688 718 603 L 712 559 Q 705 501 694 439 C 689 409 732 419 738 448 Z" fill="lightgray" class="hide"/>
    <path d="M 580 419 Q 525 412 466 400 Q 447 397 462 383 Q 475 371 491 367 Q 510 363 525 368 Q 697 423 940 424 L 942 424 Q 960 425 964 433 Q 968 443 953 455 Q 901 492 841 471 Q 796 462 738 448 L 694 439 Q 691 440 690 439 Q 656 435 620 426 L 580 419 Z" fill="lightgray" class="hide"/>
    <path d="M 555 300 Q 528 312 512 311 Q 502 307 506 297 Q 542 239 518 117 Q 500 65 529 30 Q 536 20 544 25 Q 551 32 558 51 L 566 83 Q 567 95 568 164 L 567 189 Q 567 250 568 269 C 569 294 569 294 555 300 Z" fill="lightgray" class="hide"/>
    <path d="M 736 67 Q 752 42 766 12 Q 778 -10 788 -12 Q 800 -12 809 13 Q 825 58 820 166 Q 816 259 824 288 Q 833 310 820 320 Q 811 332 773 349 Q 755 358 715 343 Q 678 328 634 318 Q 600 309 555 300 C 526 294 540 259 568 269 Q 623 291 718 305 Q 742 308 748 300 Q 754 294 755 163 Q 756 117 751 108 Q 747 98 733 101 L 732 101 C 717 98 720 93 736 67 Z" fill="lightgray" class="hide"/>
    <path d="M 568 164 Q 571 164 576 164 Q 648 177 700 185 Q 722 189 713 201 Q 703 214 679 218 Q 646 221 567 189 C 539 178 538 164 568 164 Z" fill="lightgray" class="hide"/>
    <path d="M 558 51 Q 564 50 572 51 Q 624 61 736 67 C 766 69 756 84 732 101 Q 731 102 728 104 Q 713 113 684 106 Q 620 91 566 83 C 536 79 528 53 558 51 Z" fill="lightgray" class="hide"/></g><g transform="scale(1, -1) translate(0, -900)">
    <style type="text/css">
        .origin {display:none;}
        .hide {display:none;}
        .stroke {fill: #000000;}
        
.step1 {transform: translateX(1024px);}
.step2 {transform: translateX(2048px);}
.step3 {transform: translateX(3072px);}
.step4 {transform: translateX(4096px);}
.step5 {transform: translateX(5120px);}
.step6 {transform: translateX(6144px);}
.step7 {transform: translateX(7168px);}
.step8 {transform: translateX(8192px);}
.step9 {transform: translateX(9216px);}
.step10 {transform: translateX(10240px);}
.step11 {transform: translateX(11264px);}
.step12 {transform: translateX(12288px);}
.step13 {transform: translateX(13312px);}
.step14 {transform: translateX(14336px);}
.step15 {transform: translateX(15360px);}
.step16 {transform: translateX(16384px);}
.step17 {transform: translateX(17408px);}
.step18 {transform: translateX(18432px);}
.step19 {transform: translateX(19456px);}
.step20 {transform: translateX(20480px);}
.step21 {transform: translateX(21504px);}
.step22 {transform: translateX(22528px);}
.step23 {transform: translateX(23552px);}
.step24 {transform: translateX(24576px);}
.step25 {transform: translateX(25600px);}
.step26 {transform: translateX(26624px);}
.step27 {transform: translateX(27648px);}
.step28 {transform: translateX(28672px);}
.step29 {transform: translateX(29696px);}
    </style>

    <path d="M 340 716 Q 353 738 367 751 Q 377 761 372 776 Q 368 789 338 811 Q 310 830 291 829 Q 272 828 281 804 Q 294 774 284 747 Q 250 659 196 575 Q 145 496 74 407 Q 64 397 62 390 Q 59 380 73 382 Q 127 389 288 629 Q 324 692 331 701 L 340 716 Z" fill="lightgray" class="stroke step10"/>
    <path d="M 331 701 Q 335 694 357 680 Q 391 659 427 634 Q 439 627 451 628 Q 458 629 461 640 Q 464 652 454 674 Q 441 704 348 716 Q 344 717 340 716 C 320 714 320 714 331 701 Z" fill="lightgray" class="stroke step10"/>
    <path d="M 318 480 Q 354 492 391 501 Q 413 508 417 512 Q 424 519 419 526 Q 412 536 387 540 Q 362 543 336 531 Q 311 521 283 511 Q 253 502 217 497 Q 186 490 210 476 Q 238 464 278 469 L 318 480 Z" fill="lightgray" class="stroke step10"/>
    <path d="M 340 354 Q 365 363 394 370 Q 425 379 429 384 Q 436 391 431 398 Q 424 408 399 412 Q 374 416 341 400 L 291 381 Q 284 380 276 377 Q 234 364 185 357 Q 154 350 178 336 Q 214 320 291 341 L 340 354 Z" fill="lightgray" class="stroke step10"/>
    <path d="M 333 185 Q 336 276 340 354 L 341 400 Q 341 415 344 435 Q 351 459 318 480 C 293 497 267 497 278 469 Q 287 456 291 381 L 291 341 Q 291 281 291 172 C 291 142 332 155 333 185 Z" fill="lightgray" class="stroke step10"/>
    <path d="M 176 244 Q 192 225 209 201 Q 218 189 231 188 Q 240 187 245 197 Q 251 209 247 233 Q 246 249 224 262 Q 170 290 160 287 Q 156 284 155 273 Q 156 264 176 244 Z" fill="lightgray" class="stroke step10"/>
    <path d="M 388 304 Q 378 283 358 249 Q 355 243 359 240 Q 365 239 369 243 Q 415 282 438 297 Q 450 301 446 308 Q 440 318 426 329 Q 413 339 397 339 Q 387 338 390 325 Q 391 316 388 304 Z" fill="lightgray" class="stroke step10"/>
    <path d="M 291 172 Q 150 133 122 132 Q 109 131 108 121 Q 105 108 114 101 Q 136 85 167 68 Q 177 65 189 73 Q 318 139 449 204 Q 461 211 462 220 Q 453 226 333 185 L 291 172 Z" fill="lightgray" class="stroke step10"/>
    <path d="M 761 571 Q 774 575 791 578 Q 837 590 843 596 Q 850 603 847 610 Q 840 620 815 626 Q 791 630 770 622 L 718 603 Q 687 594 655 585 Q 636 581 615 575 L 569 567 Q 544 564 519 560 Q 488 554 510 540 Q 537 525 572 528 L 615 537 Q 661 549 712 559 L 761 571 Z" fill="lightgray" class="stroke step10"/>
    <path d="M 615 575 Q 615 687 614 690 Q 611 696 607 699 Q 585 717 557 726 Q 542 732 534 725 Q 527 719 533 704 Q 558 652 569 567 L 572 528 Q 575 485 580 419 C 582 389 622 396 620 426 Q 616 489 615 537 L 615 575 Z" fill="lightgray" class="stroke step10"/>
    <path d="M 738 448 Q 750 512 761 571 L 770 622 Q 782 704 813 794 Q 817 804 799 822 Q 766 844 742 852 Q 726 856 718 849 Q 709 842 716 827 Q 735 790 733 767 Q 729 688 718 603 L 712 559 Q 705 501 694 439 C 689 409 732 419 738 448 Z" fill="lightgray" class="stroke step10"/>
    <path d="M 580 419 Q 525 412 466 400 Q 447 397 462 383 Q 475 371 491 367 Q 510 363 525 368 Q 697 423 940 424 L 942 424 Q 960 425 964 433 Q 968 443 953 455 Q 901 492 841 471 Q 796 462 738 448 L 694 439 Q 691 440 690 439 Q 656 435 620 426 L 580 419 Z" fill="lightgray" class="hide"/>
    <path d="M 555 300 Q 528 312 512 311 Q 502 307 506 297 Q 542 239 518 117 Q 500 65 529 30 Q 536 20 544 25 Q 551 32 558 51 L 566 83 Q 567 95 568 164 L 567 189 Q 567 250 568 269 C 569 294 569 294 555 300 Z" fill="lightgray" class="hide"/>
    <path d="M 736 67 Q 752 42 766 12 Q 778 -10 788 -12 Q 800 -12 809 13 Q 825 58 820 166 Q 816 259 824 288 Q 833 310 820 320 Q 811 332 773 349 Q 755 358 715 343 Q 678 328 634 318 Q 600 309 555 300 C 526 294 540 259 568 269 Q 623 291 718 305 Q 742 308 748 300 Q 754 294 755 163 Q 756 117 751 108 Q 747 98 733 101 L 732 101 C 717 98 720 93 736 67 Z" fill="lightgray" class="hide"/>
    <path d="M 568 164 Q 571 164 576 164 Q 648 177 700 185 Q 722 189 713 201 Q 703 214 679 218 Q 646 221 567 189 C 539 178 538 164 568 164 Z" fill="lightgray" class="hide"/>
    <path d="M 558 51 Q 564 50 572 51 Q 624 61 736 67 C 766 69 756 84 732 101 Q 731 102 728 104 Q 713 113 684 106 Q 620 91 566 83 C 536 79 528 53 558 51 Z" fill="lightgray" class="hide"/></g><g transform="scale(1, -1) translate(0, -900)">
    <style type="text/css">
        .origin {display:none;}
        .hide {display:none;}
        .stroke {fill: #000000;}
        
.step1 {transform: translateX(1024px);}
.step2 {transform: translateX(2048px);}
.step3 {transform: translateX(3072px);}
.step4 {transform: translateX(4096px);}
.step5 {transform: translateX(5120px);}
.step6 {transform: translateX(6144px);}
.step7 {transform: translateX(7168px);}
.step8 {transform: translateX(8192px);}
.step9 {transform: translateX(9216px);}
.step10 {transform: translateX(10240px);}
.step11 {transform: translateX(11264px);}
.step12 {transform: translateX(12288px);}
.step13 {transform: translateX(13312px);}
.step14 {transform: translateX(14336px);}
.step15 {transform: translateX(15360px);}
.step16 {transform: translateX(16384px);}
.step17 {transform: translateX(17408px);}
.step18 {transform: translateX(18432px);}
.step19 {transform: translateX(19456px);}
.step20 {transform: translateX(20480px);}
.step21 {transform: translateX(21504px);}
.step22 {transform: translateX(22528px);}
.step23 {transform: translateX(23552px);}
.step24 {transform: translateX(24576px);}
.step25 {transform: translateX(25600px);}
.step26 {transform: translateX(26624px);}
.step27 {transform: translateX(27648px);}
.step28 {transform: translateX(28672px);}
.step29 {transform: translateX(29696px);}
    </style>

    <path d="M 340 716 Q 353 738 367 751 Q 377 761 372 776 Q 368 789 338 811 Q 310 830 291 829 Q 272 828 281 804 Q 294 774 284 747 Q 250 659 196 575 Q 145 496 74 407 Q 64 397 62 390 Q 59 380 73 382 Q 127 389 288 629 Q 324 692 331 701 L 340 716 Z" fill="lightgray" class="stroke step11"/>
    <path d="M 331 701 Q 335 694 357 680 Q 391 659 427 634 Q 439 627 451 628 Q 458 629 461 640 Q 464 652 454 674 Q 441 704 348 716 Q 344 717 340 716 C 320 714 320 714 331 701 Z" fill="lightgray" class="stroke step11"/>
    <path d="M 318 480 Q 354 492 391 501 Q 413 508 417 512 Q 424 519 419 526 Q 412 536 387 540 Q 362 543 336 531 Q 311 521 283 511 Q 253 502 217 497 Q 186 490 210 476 Q 238 464 278 469 L 318 480 Z" fill="lightgray" class="stroke step11"/>
    <path d="M 340 354 Q 365 363 394 370 Q 425 379 429 384 Q 436 391 431 398 Q 424 408 399 412 Q 374 416 341 400 L 291 381 Q 284 380 276 377 Q 234 364 185 357 Q 154 350 178 336 Q 214 320 291 341 L 340 354 Z" fill="lightgray" class="stroke step11"/>
    <path d="M 333 185 Q 336 276 340 354 L 341 400 Q 341 415 344 435 Q 351 459 318 480 C 293 497 267 497 278 469 Q 287 456 291 381 L 291 341 Q 291 281 291 172 C 291 142 332 155 333 185 Z" fill="lightgray" class="stroke step11"/>
    <path d="M 176 244 Q 192 225 209 201 Q 218 189 231 188 Q 240 187 245 197 Q 251 209 247 233 Q 246 249 224 262 Q 170 290 160 287 Q 156 284 155 273 Q 156 264 176 244 Z" fill="lightgray" class="stroke step11"/>
    <path d="M 388 304 Q 378 283 358 249 Q 355 243 359 240 Q 365 239 369 243 Q 415 282 438 297 Q 450 301 446 308 Q 440 318 426 329 Q 413 339 397 339 Q 387 338 390 325 Q 391 316 388 304 Z" fill="lightgray" class="stroke step11"/>
    <path d="M 291 172 Q 150 133 122 132 Q 109 131 108 121 Q 105 108 114 101 Q 136 85 167 68 Q 177 65 189 73 Q 318 139 449 204 Q 461 211 462 220 Q 453 226 333 185 L 291 172 Z" fill="lightgray" class="stroke step11"/>
    <path d="M 761 571 Q 774 575 791 578 Q 837 590 843 596 Q 850 603 847 610 Q 840 620 815 626 Q 791 630 770 622 L 718 603 Q 687 594 655 585 Q 636 581 615 575 L 569 567 Q 544 564 519 560 Q 488 554 510 540 Q 537 525 572 528 L 615 537 Q 661 549 712 559 L 761 571 Z" fill="lightgray" class="stroke step11"/>
    <path d="M 615 575 Q 615 687 614 690 Q 611 696 607 699 Q 585 717 557 726 Q 542 732 534 725 Q 527 719 533 704 Q 558 652 569 567 L 572 528 Q 575 485 580 419 C 582 389 622 396 620 426 Q 616 489 615 537 L 615 575 Z" fill="lightgray" class="stroke step11"/>
    <path d="M 738 448 Q 750 512 761 571 L 770 622 Q 782 704 813 794 Q 817 804 799 822 Q 766 844 742 852 Q 726 856 718 849 Q 709 842 716 827 Q 735 790 733 767 Q 729 688 718 603 L 712 559 Q 705 501 694 439 C 689 409 732 419 738 448 Z" fill="lightgray" class="stroke step11"/>
    <path d="M 580 419 Q 525 412 466 400 Q 447 397 462 383 Q 475 371 491 367 Q 510 363 525 368 Q 697 423 940 424 L 942 424 Q 960 425 964 433 Q 968 443 953 455 Q 901 492 841 471 Q 796 462 738 448 L 694 439 Q 691 440 690 439 Q 656 435 620 426 L 580 419 Z" fill="lightgray" class="stroke step11"/>
    <path d="M 555 300 Q 528 312 512 311 Q 502 307 506 297 Q 542 239 518 117 Q 500 65 529 30 Q 536 20 544 25 Q 551 32 558 51 L 566 83 Q 567 95 568 164 L 567 189 Q 567 250 568 269 C 569 294 569 294 555 300 Z" fill="lightgray" class="hide"/>
    <path d="M 736 67 Q 752 42 766 12 Q 778 -10 788 -12 Q 800 -12 809 13 Q 825 58 820 166 Q 816 259 824 288 Q 833 310 820 320 Q 811 332 773 349 Q 755 358 715 343 Q 678 328 634 318 Q 600 309 555 300 C 526 294 540 259 568 269 Q 623 291 718 305 Q 742 308 748 300 Q 754 294 755 163 Q 756 117 751 108 Q 747 98 733 101 L 732 101 C 717 98 720 93 736 67 Z" fill="lightgray" class="hide"/>
    <path d="M 568 164 Q 571 164 576 164 Q 648 177 700 185 Q 722 189 713 201 Q 703 214 679 218 Q 646 221 567 189 C 539 178 538 164 568 164 Z" fill="lightgray" class="hide"/>
    <path d="M 558 51 Q 564 50 572 51 Q 624 61 736 67 C 766 69 756 84 732 101 Q 731 102 728 104 Q 713 113 684 106 Q 620 91 566 83 C 536 79 528 53 558 51 Z" fill="lightgray" class="hide"/></g><g transform="scale(1, -1) translate(0, -900)">
    <style type="text/css">
        .origin {display:none;}
        .hide {display:none;}
        .stroke {fill: #000000;}
        
.step1 {transform: translateX(1024px);}
.step2 {transform: translateX(2048px);}
.step3 {transform: translateX(3072px);}
.step4 {transform: translateX(4096px);}
.step5 {transform: translateX(5120px);}
.step6 {transform: translateX(6144px);}
.step7 {transform: translateX(7168px);}
.step8 {transform: translateX(8192px);}
.step9 {transform: translateX(9216px);}
.step10 {transform: translateX(10240px);}
.step11 {transform: translateX(11264px);}
.step12 {transform: translateX(12288px);}
.step13 {transform: translateX(13312px);}
.step14 {transform: translateX(14336px);}
.step15 {transform: translateX(15360px);}
.step16 {transform: translateX(16384px);}
.step17 {transform: translateX(17408px);}
.step18 {transform: translateX(18432px);}
.step19 {transform: translateX(19456px);}
.step20 {transform: translateX(20480px);}
.step21 {transform: translateX(21504px);}
.step22 {transform: translateX(22528px);}
.step23 {transform: translateX(23552px);}
.step24 {transform: translateX(24576px);}
.step25 {transform: translateX(25600px);}
.step26 {transform: translateX(26624px);}
.step27 {transform: translateX(27648px);}
.step28 {transform: translateX(28672px);}
.step29 {transform: translateX(29696px);}
    </style>

    <path d="M 340 716 Q 353 738 367 751 Q 377 761 372 776 Q 368 789 338 811 Q 310 830 291 829 Q 272 828 281 804 Q 294 774 284 747 Q 250 659 196 575 Q 145 496 74 407 Q 64 397 62 390 Q 59 380 73 382 Q 127 389 288 629 Q 324 692 331 701 L 340 716 Z" fill="lightgray" class="stroke step12"/>
    <path d="M 331 701 Q 335 694 357 680 Q 391 659 427 634 Q 439 627 451 628 Q 458 629 461 640 Q 464 652 454 674 Q 441 704 348 716 Q 344 717 340 716 C 320 714 320 714 331 701 Z" fill="lightgray" class="stroke step12"/>
    <path d="M 318 480 Q 354 492 391 501 Q 413 508 417 512 Q 424 519 419 526 Q 412 536 387 540 Q 362 543 336 531 Q 311 521 283 511 Q 253 502 217 497 Q 186 490 210 476 Q 238 464 278 469 L 318 480 Z" fill="lightgray" class="stroke step12"/>
    <path d="M 340 354 Q 365 363 394 370 Q 425 379 429 384 Q 436 391 431 398 Q 424 408 399 412 Q 374 416 341 400 L 291 381 Q 284 380 276 377 Q 234 364 185 357 Q 154 350 178 336 Q 214 320 291 341 L 340 354 Z" fill="lightgray" class="stroke step12"/>
    <path d="M 333 185 Q 336 276 340 354 L 341 400 Q 341 415 344 435 Q 351 459 318 480 C 293 497 267 497 278 469 Q 287 456 291 381 L 291 341 Q 291 281 291 172 C 291 142 332 155 333 185 Z" fill="lightgray" class="stroke step12"/>
    <path d="M 176 244 Q 192 225 209 201 Q 218 189 231 188 Q 240 187 245 197 Q 251 209 247 233 Q 246 249 224 262 Q 170 290 160 287 Q 156 284 155 273 Q 156 264 176 244 Z" fill="lightgray" class="stroke step12"/>
    <path d="M 388 304 Q 378 283 358 249 Q 355 243 359 240 Q 365 239 369 243 Q 415 282 438 297 Q 450 301 446 308 Q 440 318 426 329 Q 413 339 397 339 Q 387 338 390 325 Q 391 316 388 304 Z" fill="lightgray" class="stroke step12"/>
    <path d="M 291 172 Q 150 133 122 132 Q 109 131 108 121 Q 105 108 114 101 Q 136 85 167 68 Q 177 65 189 73 Q 318 139 449 204 Q 461 211 462 220 Q 453 226 333 185 L 291 172 Z" fill="lightgray" class="stroke step12"/>
    <path d="M 761 571 Q 774 575 791 578 Q 837 590 843 596 Q 850 603 847 610 Q 840 620 815 626 Q 791 630 770 622 L 718 603 Q 687 594 655 585 Q 636 581 615 575 L 569 567 Q 544 564 519 560 Q 488 554 510 540 Q 537 525 572 528 L 615 537 Q 661 549 712 559 L 761 571 Z" fill="lightgray" class="stroke step12"/>
    <path d="M 615 575 Q 615 687 614 690 Q 611 696 607 699 Q 585 717 557 726 Q 542 732 534 725 Q 527 719 533 704 Q 558 652 569 567 L 572 528 Q 575 485 580 419 C 582 389 622 396 620 426 Q 616 489 615 537 L 615 575 Z" fill="lightgray" class="stroke step12"/>
    <path d="M 738 448 Q 750 512 761 571 L 770 622 Q 782 704 813 794 Q 817 804 799 822 Q 766 844 742 852 Q 726 856 718 849 Q 709 842 716 827 Q 735 790 733 767 Q 729 688 718 603 L 712 559 Q 705 501 694 439 C 689 409 732 419 738 448 Z" fill="lightgray" class="stroke step12"/>
    <path d="M 580 419 Q 525 412 466 400 Q 447 397 462 383 Q 475 371 491 367 Q 510 363 525 368 Q 697 423 940 424 L 942 424 Q 960 425 964 433 Q 968 443 953 455 Q 901 492 841 471 Q 796 462 738 448 L 694 439 Q 691 440 690 439 Q 656 435 620 426 L 580 419 Z" fill="lightgray" class="stroke step12"/>
    <path d="M 555 300 Q 528 312 512 311 Q 502 307 506 297 Q 542 239 518 117 Q 500 65 529 30 Q 536 20 544 25 Q 551 32 558 51 L 566 83 Q 567 95 568 164 L 567 189 Q 567 250 568 269 C 569 294 569 294 555 300 Z" fill="lightgray" class="stroke step12"/>
    <path d="M 736 67 Q 752 42 766 12 Q 778 -10 788 -12 Q 800 -12 809 13 Q 825 58 820 166 Q 816 259 824 288 Q 833 310 820 320 Q 811 332 773 349 Q 755 358 715 343 Q 678 328 634 318 Q 600 309 555 300 C 526 294 540 259 568 269 Q 623 291 718 305 Q 742 308 748 300 Q 754 294 755 163 Q 756 117 751 108 Q 747 98 733 101 L 732 101 C 717 98 720 93 736 67 Z" fill="lightgray" class="hide"/>
    <path d="M 568 164 Q 571 164 576 164 Q 648 177 700 185 Q 722 189 713 201 Q 703 214 679 218 Q 646 221 567 189 C 539 178 538 164 568 164 Z" fill="lightgray" class="hide"/>
    <path d="M 558 51 Q 564 50 572 51 Q 624 61 736 67 C 766 69 756 84 732 101 Q 731 102 728 104 Q 713 113 684 106 Q 620 91 566 83 C 536 79 528 53 558 51 Z" fill="lightgray" class="hide"/></g><g transform="scale(1, -1) translate(0, -900)">
    <style type="text/css">
        .origin {display:none;}
        .hide {display:none;}
        .stroke {fill: #000000;}
        
.step1 {transform: translateX(1024px);}
.step2 {transform: translateX(2048px);}
.step3 {transform: translateX(3072px);}
.step4 {transform: translateX(4096px);}
.step5 {transform: translateX(5120px);}
.step6 {transform: translateX(6144px);}
.step7 {transform: translateX(7168px);}
.step8 {transform: translateX(8192px);}
.step9 {transform: translateX(9216px);}
.step10 {transform: translateX(10240px);}
.step11 {transform: translateX(11264px);}
.step12 {transform: translateX(12288px);}
.step13 {transform: translateX(13312px);}
.step14 {transform: translateX(14336px);}
.step15 {transform: translateX(15360px);}
.step16 {transform: translateX(16384px);}
.step17 {transform: translateX(17408px);}
.step18 {transform: translateX(18432px);}
.step19 {transform: translateX(19456px);}
.step20 {transform: translateX(20480px);}
.step21 {transform: translateX(21504px);}
.step22 {transform: translateX(22528px);}
.step23 {transform: translateX(23552px);}
.step24 {transform: translateX(24576px);}
.step25 {transform: translateX(25600px);}
.step26 {transform: translateX(26624px);}
.step27 {transform: translateX(27648px);}
.step28 {transform: translateX(28672px);}
.step29 {transform: translateX(29696px);}
    </style>

    <path d="M 340 716 Q 353 738 367 751 Q 377 761 372 776 Q 368 789 338 811 Q 310 830 291 829 Q 272 828 281 804 Q 294 774 284 747 Q 250 659 196 575 Q 145 496 74 407 Q 64 397 62 390 Q 59 380 73 382 Q 127 389 288 629 Q 324 692 331 701 L 340 716 Z" fill="lightgray" class="stroke step13"/>
    <path d="M 331 701 Q 335 694 357 680 Q 391 659 427 634 Q 439 627 451 628 Q 458 629 461 640 Q 464 652 454 674 Q 441 704 348 716 Q 344 717 340 716 C 320 714 320 714 331 701 Z" fill="lightgray" class="stroke step13"/>
    <path d="M 318 480 Q 354 492 391 501 Q 413 508 417 512 Q 424 519 419 526 Q 412 536 387 540 Q 362 543 336 531 Q 311 521 283 511 Q 253 502 217 497 Q 186 490 210 476 Q 238 464 278 469 L 318 480 Z" fill="lightgray" class="stroke step13"/>
    <path d="M 340 354 Q 365 363 394 370 Q 425 379 429 384 Q 436 391 431 398 Q 424 408 399 412 Q 374 416 341 400 L 291 381 Q 284 380 276 377 Q 234 364 185 357 Q 154 350 178 336 Q 214 320 291 341 L 340 354 Z" fill="lightgray" class="stroke step13"/>
    <path d="M 333 185 Q 336 276 340 354 L 341 400 Q 341 415 344 435 Q 351 459 318 480 C 293 497 267 497 278 469 Q 287 456 291 381 L 291 341 Q 291 281 291 172 C 291 142 332 155 333 185 Z" fill="lightgray" class="stroke step13"/>
    <path d="M 176 244 Q 192 225 209 201 Q 218 189 231 188 Q 240 187 245 197 Q 251 209 247 233 Q 246 249 224 262 Q 170 290 160 287 Q 156 284 155 273 Q 156 264 176 244 Z" fill="lightgray" class="stroke step13"/>
    <path d="M 388 304 Q 378 283 358 249 Q 355 243 359 240 Q 365 239 369 243 Q 415 282 438 297 Q 450 301 446 308 Q 440 318 426 329 Q 413 339 397 339 Q 387 338 390 325 Q 391 316 388 304 Z" fill="lightgray" class="stroke step13"/>
    <path d="M 291 172 Q 150 133 122 132 Q 109 131 108 121 Q 105 108 114 101 Q 136 85 167 68 Q 177 65 189 73 Q 318 139 449 204 Q 461 211 462 220 Q 453 226 333 185 L 291 172 Z" fill="lightgray" class="stroke step13"/>
    <path d="M 761 571 Q 774 575 791 578 Q 837 590 843 596 Q 850 603 847 610 Q 840 620 815 626 Q 791 630 770 622 L 718 603 Q 687 594 655 585 Q 636 581 615 575 L 569 567 Q 544 564 519 560 Q 488 554 510 540 Q 537 525 572 528 L 615 537 Q 661 549 712 559 L 761 571 Z" fill="lightgray" class="stroke step13"/>
    <path d="M 615 575 Q 615 687 614 690 Q 611 696 607 699 Q 585 717 557 726 Q 542 732 534 725 Q 527 719 533 704 Q 558 652 569 567 L 572 528 Q 575 485 580 419 C 582 389 622 396 620 426 Q 616 489 615 537 L 615 575 Z" fill="lightgray" class="stroke step13"/>
    <path d="M 738 448 Q 750 512 761 571 L 770 622 Q 782 704 813 794 Q 817 804 799 822 Q 766 844 742 852 Q 726 856 718 849 Q 709 842 716 827 Q 735 790 733 767 Q 729 688 718 603 L 712 559 Q 705 501 694 439 C 689 409 732 419 738 448 Z" fill="lightgray" class="stroke step13"/>
    <path d="M 580 419 Q 525 412 466 400 Q 447 397 462 383 Q 475 371 491 367 Q 510 363 525 368 Q 697 423 940 424 L 942 424 Q 960 425 964 433 Q 968 443 953 455 Q 901 492 841 471 Q 796 462 738 448 L 694 439 Q 691 440 690 439 Q 656 435 620 426 L 580 419 Z" fill="lightgray" class="stroke step13"/>
    <path d="M 555 300 Q 528 312 512 311 Q 502 307 506 297 Q 542 239 518 117 Q 500 65 529 30 Q 536 20 544 25 Q 551 32 558 51 L 566 83 Q 567 95 568 164 L 567 189 Q 567 250 568 269 C 569 294 569 294 555 300 Z" fill="lightgray" class="stroke step13"/>
    <path d="M 736 67 Q 752 42 766 12 Q 778 -10 788 -12 Q 800 -12 809 13 Q 825 58 820 166 Q 816 259 824 288 Q 833 310 820 320 Q 811 332 773 349 Q 755 358 715 343 Q 678 328 634 318 Q 600 309 555 300 C 526 294 540 259 568 269 Q 623 291 718 305 Q 742 308 748 300 Q 754 294 755 163 Q 756 117 751 108 Q 747 98 733 101 L 732 101 C 717 98 720 93 736 67 Z" fill="lightgray" class="stroke step13"/>
    <path d="M 568 164 Q 571 164 576 164 Q 648 177 700 185 Q 722 189 713 201 Q 703 214 679 218 Q 646 221 567 189 C 539 178 538 164 568 164 Z" fill="lightgray" class="hide"/>
    <path d="M 558 51 Q 564 50 572 51 Q 624 61 736 67 C 766 69 756 84 732 101 Q 731 102 728 104 Q 713 113 684 106 Q 620 91 566 83 C 536 79 528 53 558 51 Z" fill="lightgray" class="hide"/></g><g transform="scale(1, -1) translate(0, -900)">
    <style type="text/css">
        .origin {display:none;}
        .hide {display:none;}
        .stroke {fill: #000000;}
        
.step1 {transform: translateX(1024px);}
.step2 {transform: translateX(2048px);}
.step3 {transform: translateX(3072px);}
.step4 {transform: translateX(4096px);}
.step5 {transform: translateX(5120px);}
.step6 {transform: translateX(6144px);}
.step7 {transform: translateX(7168px);}
.step8 {transform: translateX(8192px);}
.step9 {transform: translateX(9216px);}
.step10 {transform: translateX(10240px);}
.step11 {transform: translateX(11264px);}
.step12 {transform: translateX(12288px);}
.step13 {transform: translateX(13312px);}
.step14 {transform: translateX(14336px);}
.step15 {transform: translateX(15360px);}
.step16 {transform: translateX(16384px);}
.step17 {transform: translateX(17408px);}
.step18 {transform: translateX(18432px);}
.step19 {transform: translateX(19456px);}
.step20 {transform: translateX(20480px);}
.step21 {transform: translateX(21504px);}
.step22 {transform: translateX(22528px);}
.step23 {transform: translateX(23552px);}
.step24 {transform: translateX(24576px);}
.step25 {transform: translateX(25600px);}
.step26 {transform: translateX(26624px);}
.step27 {transform: translateX(27648px);}
.step28 {transform: translateX(28672px);}
.step29 {transform: translateX(29696px);}
    </style>

    <path d="M 340 716 Q 353 738 367 751 Q 377 761 372 776 Q 368 789 338 811 Q 310 830 291 829 Q 272 828 281 804 Q 294 774 284 747 Q 250 659 196 575 Q 145 496 74 407 Q 64 397 62 390 Q 59 380 73 382 Q 127 389 288 629 Q 324 692 331 701 L 340 716 Z" fill="lightgray" class="stroke step14"/>
    <path d="M 331 701 Q 335 694 357 680 Q 391 659 427 634 Q 439 627 451 628 Q 458 629 461 640 Q 464 652 454 674 Q 441 704 348 716 Q 344 717 340 716 C 320 714 320 714 331 701 Z" fill="lightgray" class="stroke step14"/>
    <path d="M 318 480 Q 354 492 391 501 Q 413 508 417 512 Q 424 519 419 526 Q 412 536 387 540 Q 362 543 336 531 Q 311 521 283 511 Q 253 502 217 497 Q 186 490 210 476 Q 238 464 278 469 L 318 480 Z" fill="lightgray" class="stroke step14"/>
    <path d="M 340 354 Q 365 363 394 370 Q 425 379 429 384 Q 436 391 431 398 Q 424 408 399 412 Q 374 416 341 400 L 291 381 Q 284 380 276 377 Q 234 364 185 357 Q 154 350 178 336 Q 214 320 291 341 L 340 354 Z" fill="lightgray" class="stroke step14"/>
    <path d="M 333 185 Q 336 276 340 354 L 341 400 Q 341 415 344 435 Q 351 459 318 480 C 293 497 267 497 278 469 Q 287 456 291 381 L 291 341 Q 291 281 291 172 C 291 142 332 155 333 185 Z" fill="lightgray" class="stroke step14"/>
    <path d="M 176 244 Q 192 225 209 201 Q 218 189 231 188 Q 240 187 245 197 Q 251 209 247 233 Q 246 249 224 262 Q 170 290 160 287 Q 156 284 155 273 Q 156 264 176 244 Z" fill="lightgray" class="stroke step14"/>
    <path d="M 388 304 Q 378 283 358 249 Q 355 243 359 240 Q 365 239 369 243 Q 415 282 438 297 Q 450 301 446 308 Q 440 318 426 329 Q 413 339 397 339 Q 387 338 390 325 Q 391 316 388 304 Z" fill="lightgray" class="stroke step14"/>
    <path d="M 291 172 Q 150 133 122 132 Q 109 131 108 121 Q 105 108 114 101 Q 136 85 167 68 Q 177 65 189 73 Q 318 139 449 204 Q 461 211 462 220 Q 453 226 333 185 L 291 172 Z" fill="lightgray" class="stroke step14"/>
    <path d="M 761 571 Q 774 575 791 578 Q 837 590 843 596 Q 850 603 847 610 Q 840 620 815 626 Q 791 630 770 622 L 718 603 Q 687 594 655 585 Q 636 581 615 575 L 569 567 Q 544 564 519 560 Q 488 554 510 540 Q 537 525 572 528 L 615 537 Q 661 549 712 559 L 761 571 Z" fill="lightgray" class="stroke step14"/>
    <path d="M 615 575 Q 615 687 614 690 Q 611 696 607 699 Q 585 717 557 726 Q 542 732 534 725 Q 527 719 533 704 Q 558 652 569 567 L 572 528 Q 575 485 580 419 C 582 389 622 396 620 426 Q 616 489 615 537 L 615 575 Z" fill="lightgray" class="stroke step14"/>
    <path d="M 738 448 Q 750 512 761 571 L 770 622 Q 782 704 813 794 Q 817 804 799 822 Q 766 844 742 852 Q 726 856 718 849 Q 709 842 716 827 Q 735 790 733 767 Q 729 688 718 603 L 712 559 Q 705 501 694 439 C 689 409 732 419 738 448 Z" fill="lightgray" class="stroke step14"/>
    <path d="M 580 419 Q 525 412 466 400 Q 447 397 462 383 Q 475 371 491 367 Q 510 363 525 368 Q 697 423 940 424 L 942 424 Q 960 425 964 433 Q 968 443 953 455 Q 901 492 841 471 Q 796 462 738 448 L 694 439 Q 691 440 690 439 Q 656 435 620 426 L 580 419 Z" fill="lightgray" class="stroke step14"/>
    <path d="M 555 300 Q 528 312 512 311 Q 502 307 506 297 Q 542 239 518 117 Q 500 65 529 30 Q 536 20 544 25 Q 551 32 558 51 L 566 83 Q 567 95 568 164 L 567 189 Q 567 250 568 269 C 569 294 569 294 555 300 Z" fill="lightgray" class="stroke step14"/>
    <path d="M 736 67 Q 752 42 766 12 Q 778 -10 788 -12 Q 800 -12 809 13 Q 825 58 820 166 Q 816 259 824 288 Q 833 310 820 320 Q 811 332 773 349 Q 755 358 715 343 Q 678 328 634 318 Q 600 309 555 300 C 526 294 540 259 568 269 Q 623 291 718 305 Q 742 308 748 300 Q 754 294 755 163 Q 756 117 751 108 Q 747 98 733 101 L 732 101 C 717 98 720 93 736 67 Z" fill="lightgray" class="stroke step14"/>
    <path d="M 568 164 Q 571 164 576 164 Q 648 177 700 185 Q 722 189 713 201 Q 703 214 679 218 Q 646 221 567 189 C 539 178 538 164 568 164 Z" fill="lightgray" class="stroke step14"/>
    <path d="M 558 51 Q 564 50 572 51 Q 624 61 736 67 C 766 69 756 84 732 101 Q 731 102 728 104 Q 713 113 684 106 Q 620 91 566 83 C 536 79 528 53 558 51 Z" fill="lightgray" class="hide"/></g><g transform="scale(1, -1) translate(0, -900)">
    <style type="text/css">
        .origin {display:none;}
        .hide {display:none;}
        .stroke {fill: #000000;}
        
.step1 {transform: translateX(1024px);}
.step2 {transform: translateX(2048px);}
.step3 {transform: translateX(3072px);}
.step4 {transform: translateX(4096px);}
.step5 {transform: translateX(5120px);}
.step6 {transform: translateX(6144px);}
.step7 {transform: translateX(7168px);}
.step8 {transform: translateX(8192px);}
.step9 {transform: translateX(9216px);}
.step10 {transform: translateX(10240px);}
.step11 {transform: translateX(11264px);}
.step12 {transform: translateX(12288px);}
.step13 {transform: translateX(13312px);}
.step14 {transform: translateX(14336px);}
.step15 {transform: translateX(15360px);}
.step16 {transform: translateX(16384px);}
.step17 {transform: translateX(17408px);}
.step18 {transform: translateX(18432px);}
.step19 {transform: translateX(19456px);}
.step20 {transform: translateX(20480px);}
.step21 {transform: translateX(21504px);}
.step22 {transform: translateX(22528px);}
.step23 {transform: translateX(23552px);}
.step24 {transform: translateX(24576px);}
.step25 {transform: translateX(25600px);}
.step26 {transform: translateX(26624px);}
.step27 {transform: translateX(27648px);}
.step28 {transform: translateX(28672px);}
.step29 {transform: translateX(29696px);}
    </style>

    <path d="M 340 716 Q 353 738 367 751 Q 377 761 372 776 Q 368 789 338 811 Q 310 830 291 829 Q 272 828 281 804 Q 294 774 284 747 Q 250 659 196 575 Q 145 496 74 407 Q 64 397 62 390 Q 59 380 73 382 Q 127 389 288 629 Q 324 692 331 701 L 340 716 Z" fill="lightgray" class="stroke step15"/>
    <path d="M 331 701 Q 335 694 357 680 Q 391 659 427 634 Q 439 627 451 628 Q 458 629 461 640 Q 464 652 454 674 Q 441 704 348 716 Q 344 717 340 716 C 320 714 320 714 331 701 Z" fill="lightgray" class="stroke step15"/>
    <path d="M 318 480 Q 354 492 391 501 Q 413 508 417 512 Q 424 519 419 526 Q 412 536 387 540 Q 362 543 336 531 Q 311 521 283 511 Q 253 502 217 497 Q 186 490 210 476 Q 238 464 278 469 L 318 480 Z" fill="lightgray" class="stroke step15"/>
    <path d="M 340 354 Q 365 363 394 370 Q 425 379 429 384 Q 436 391 431 398 Q 424 408 399 412 Q 374 416 341 400 L 291 381 Q 284 380 276 377 Q 234 364 185 357 Q 154 350 178 336 Q 214 320 291 341 L 340 354 Z" fill="lightgray" class="stroke step15"/>
    <path d="M 333 185 Q 336 276 340 354 L 341 400 Q 341 415 344 435 Q 351 459 318 480 C 293 497 267 497 278 469 Q 287 456 291 381 L 291 341 Q 291 281 291 172 C 291 142 332 155 333 185 Z" fill="lightgray" class="stroke step15"/>
    <path d="M 176 244 Q 192 225 209 201 Q 218 189 231 188 Q 240 187 245 197 Q 251 209 247 233 Q 246 249 224 262 Q 170 290 160 287 Q 156 284 155 273 Q 156 264 176 244 Z" fill="lightgray" class="stroke step15"/>
    <path d="M 388 304 Q 378 283 358 249 Q 355 243 359 240 Q 365 239 369 243 Q 415 282 438 297 Q 450 301 446 308 Q 440 318 426 329 Q 413 339 397 339 Q 387 338 390 325 Q 391 316 388 304 Z" fill="lightgray" class="stroke step15"/>
    <path d="M 291 172 Q 150 133 122 132 Q 109 131 108 121 Q 105 108 114 101 Q 136 85 167 68 Q 177 65 189 73 Q 318 139 449 204 Q 461 211 462 220 Q 453 226 333 185 L 291 172 Z" fill="lightgray" class="stroke step15"/>
    <path d="M 761 571 Q 774 575 791 578 Q 837 590 843 596 Q 850 603 847 610 Q 840 620 815 626 Q 791 630 770 622 L 718 603 Q 687 594 655 585 Q 636 581 615 575 L 569 567 Q 544 564 519 560 Q 488 554 510 540 Q 537 525 572 528 L 615 537 Q 661 549 712 559 L 761 571 Z" fill="lightgray" class="stroke step15"/>
    <path d="M 615 575 Q 615 687 614 690 Q 611 696 607 699 Q 585 717 557 726 Q 542 732 534 725 Q 527 719 533 704 Q 558 652 569 567 L 572 528 Q 575 485 580 419 C 582 389 622 396 620 426 Q 616 489 615 537 L 615 575 Z" fill="lightgray" class="stroke step15"/>
    <path d="M 738 448 Q 750 512 761 571 L 770 622 Q 782 704 813 794 Q 817 804 799 822 Q 766 844 742 852 Q 726 856 718 849 Q 709 842 716 827 Q 735 790 733 767 Q 729 688 718 603 L 712 559 Q 705 501 694 439 C 689 409 732 419 738 448 Z" fill="lightgray" class="stroke step15"/>
    <path d="M 580 419 Q 525 412 466 400 Q 447 397 462 383 Q 475 371 491 367 Q 510 363 525 368 Q 697 423 940 424 L 942 424 Q 960 425 964 433 Q 968 443 953 455 Q 901 492 841 471 Q 796 462 738 448 L 694 439 Q 691 440 690 439 Q 656 435 620 426 L 580 419 Z" fill="lightgray" class="stroke step15"/>
    <path d="M 555 300 Q 528 312 512 311 Q 502 307 506 297 Q 542 239 518 117 Q 500 65 529 30 Q 536 20 544 25 Q 551 32 558 51 L 566 83 Q 567 95 568 164 L 567 189 Q 567 250 568 269 C 569 294 569 294 555 300 Z" fill="lightgray" class="stroke step15"/>
    <path d="M 736 67 Q 752 42 766 12 Q 778 -10 788 -12 Q 800 -12 809 13 Q 825 58 820 166 Q 816 259 824 288 Q 833 310 820 320 Q 811 332 773 349 Q 755 358 715 343 Q 678 328 634 318 Q 600 309 555 300 C 526 294 540 259 568 269 Q 623 291 718 305 Q 742 308 748 300 Q 754 294 755 163 Q 756 117 751 108 Q 747 98 733 101 L 732 101 C 717 98 720 93 736 67 Z" fill="lightgray" class="stroke step15"/>
    <path d="M 568 164 Q 571 164 576 164 Q 648 177 700 185 Q 722 189 713 201 Q 703 214 679 218 Q 646 221 567 189 C 539 178 538 164 568 164 Z" fill="lightgray" class="stroke step15"/>
    <path d="M 558 51 Q 564 50 572 51 Q 624 61 736 67 C 766 69 756 84 732 101 Q 731 102 728 104 Q 713 113 684 106 Q 620 91 566 83 C 536 79 528 53 558 51 Z" fill="lightgray" class="stroke step15"/></g></svg>