<svg version="1.1" viewBox="0 0 17408 1024" xmlns="http://www.w3.org/2000/svg">
  
  <g transform="scale(1, -1) translate(0, -900)" class="origin">
    <style type="text/css">
        .origin {display:none;}
        .hide {display:none;}
        .stroke {fill: #000000;}
        
.step1 {transform: translateX(1024px);}
.step2 {transform: translateX(2048px);}
.step3 {transform: translateX(3072px);}
.step4 {transform: translateX(4096px);}
.step5 {transform: translateX(5120px);}
.step6 {transform: translateX(6144px);}
.step7 {transform: translateX(7168px);}
.step8 {transform: translateX(8192px);}
.step9 {transform: translateX(9216px);}
.step10 {transform: translateX(10240px);}
.step11 {transform: translateX(11264px);}
.step12 {transform: translateX(12288px);}
.step13 {transform: translateX(13312px);}
.step14 {transform: translateX(14336px);}
.step15 {transform: translateX(15360px);}
.step16 {transform: translateX(16384px);}
.step17 {transform: translateX(17408px);}
.step18 {transform: translateX(18432px);}
.step19 {transform: translateX(19456px);}
.step20 {transform: translateX(20480px);}
.step21 {transform: translateX(21504px);}
.step22 {transform: translateX(22528px);}
.step23 {transform: translateX(23552px);}
.step24 {transform: translateX(24576px);}
.step25 {transform: translateX(25600px);}
.step26 {transform: translateX(26624px);}
.step27 {transform: translateX(27648px);}
.step28 {transform: translateX(28672px);}
.step29 {transform: translateX(29696px);}
    </style>

    <path d="M 173 475 Q 225 547 301 681 L 313 701 Q 322 716 332 725 Q 341 735 336 749 Q 332 762 302 783 Q 275 799 256 799 Q 237 796 247 775 Q 263 744 251 716 Q 188 547 41 359 Q 32 349 30 342 Q 27 332 41 334 Q 74 343 165 464 L 173 475 Z" fill="lightgray"/>
    <path d="M 301 681 Q 305 677 315 670 Q 342 651 371 626 Q 381 617 391 619 Q 398 619 402 628 Q 403 638 397 659 Q 393 675 366 687 Q 342 696 313 701 C 283 706 279 701 301 681 Z" fill="lightgray"/>
    <path d="M 267 462 Q 360 495 363 498 Q 370 507 365 514 Q 356 524 329 526 Q 308 527 238 495 Q 181 480 173 475 C 159 469 159 469 165 464 Q 184 445 229 451 L 267 462 Z" fill="lightgray"/>
    <path d="M 286 346 Q 308 355 335 363 Q 359 372 362 376 Q 369 383 364 390 Q 357 400 331 402 Q 307 403 287 393 L 241 373 Q 171 351 151 345 Q 120 336 145 324 Q 187 312 240 331 L 242 331 L 286 346 Z" fill="lightgray"/>
    <path d="M 280 182 Q 283 273 286 346 L 287 393 Q 287 394 288 395 Q 291 440 288 445 Q 278 455 267 462 C 242 479 218 479 229 451 Q 236 441 241 373 L 242 331 Q 242 273 242 169 C 242 139 279 152 280 182 Z" fill="lightgray"/>
    <path d="M 129 241 Q 148 225 167 204 Q 176 195 187 195 Q 194 196 198 205 Q 201 215 195 235 Q 192 248 171 259 Q 120 277 112 274 Q 108 273 109 263 Q 112 256 129 241 Z" fill="lightgray"/>
    <path d="M 345 312 Q 332 287 303 248 Q 299 244 303 240 Q 307 239 313 242 Q 365 285 392 302 Q 402 306 399 313 Q 395 323 382 333 Q 370 343 356 344 Q 346 343 348 331 Q 349 322 345 312 Z" fill="lightgray"/>
    <path d="M 242 169 Q 184 151 121 130 Q 105 126 80 125 Q 67 124 66 113 Q 65 100 74 93 Q 96 78 128 62 Q 138 61 149 68 Q 174 90 316 165 Q 335 175 349 187 Q 362 194 361 204 Q 357 208 344 206 Q 313 196 280 182 L 242 169 Z" fill="lightgray"/>
    <path d="M 507 615 Q 535 630 558 645 Q 595 669 630 682 Q 645 686 647 693 Q 648 703 636 712 Q 575 740 545 732 Q 539 728 540 717 Q 546 681 407 583 Q 403 574 410 572 Q 413 573 423 578 Q 439 584 468 597 L 507 615 Z" fill="lightgray"/>
    <path d="M 530 448 Q 561 458 598 468 Q 629 478 633 482 Q 640 489 636 498 Q 629 508 601 512 Q 570 516 533 495 L 487 479 Q 480 478 476 476 Q 434 463 385 455 Q 352 446 378 433 Q 418 414 467 431 Q 471 432 480 434 L 530 448 Z" fill="lightgray"/>
    <path d="M 527 326 Q 530 425 530 448 L 533 495 Q 536 532 545 560 Q 552 573 550 584 Q 544 593 507 615 C 481 631 456 625 468 597 Q 486 566 487 479 L 487 330 Q 478 132 478 125 Q 457 23 470 -5 Q 471 -12 477 -21 Q 481 -36 489 -39 Q 493 -45 500 -38 Q 507 -34 516 -16 Q 523 5 523 31 Q 523 62 527 301 L 527 326 Z" fill="lightgray"/>
    <path d="M 480 434 Q 461 361 430 291 Q 393 210 302 62 Q 298 53 307 53 Q 328 53 426 205 Q 459 259 487 330 C 542 468 488 463 480 434 Z" fill="lightgray"/>
    <path d="M 527 301 Q 578 250 593 249 Q 603 249 608 263 Q 609 273 601 289 Q 580 320 527 326 C 498 330 506 322 527 301 Z" fill="lightgray"/>
    <path d="M 601 389 Q 643 335 651 333 Q 660 332 665 341 Q 671 351 669 375 Q 666 397 605 426 Q 593 432 588 430 Q 584 429 583 418 Q 584 409 601 389 Z" fill="lightgray"/>
    <path d="M 855 529 Q 830 489 779 426 Q 773 419 779 411 Q 786 410 795 414 Q 889 483 935 508 Q 954 512 949 525 Q 942 541 922 562 Q 901 581 877 583 Q 861 582 862 561 Q 865 546 855 529 Z" fill="lightgray"/>
    <path d="M 747 331 Q 754 407 762 648 Q 762 684 783 744 Q 790 759 779 770 Q 755 788 716 798 Q 691 805 682 797 Q 672 790 680 778 Q 746 673 697 312 Q 694 303 693 291 Q 666 174 555 92 Q 543 83 544 79 Q 545 75 557 75 Q 570 72 600 87 Q 718 138 741 289 L 747 331 Z" fill="lightgray"/>
    <path d="M 741 289 Q 789 169 847 85 Q 860 63 877 60 Q 923 63 963 64 Q 979 65 980 69 Q 983 73 964 89 Q 825 191 747 331 C 732 357 730 317 741 289 Z" fill="lightgray"/></g>
<g transform="scale(1, -1) translate(0, -900)">
    <style type="text/css">
        .origin {display:none;}
        .hide {display:none;}
        .stroke {fill: #000000;}
        
.step1 {transform: translateX(1024px);}
.step2 {transform: translateX(2048px);}
.step3 {transform: translateX(3072px);}
.step4 {transform: translateX(4096px);}
.step5 {transform: translateX(5120px);}
.step6 {transform: translateX(6144px);}
.step7 {transform: translateX(7168px);}
.step8 {transform: translateX(8192px);}
.step9 {transform: translateX(9216px);}
.step10 {transform: translateX(10240px);}
.step11 {transform: translateX(11264px);}
.step12 {transform: translateX(12288px);}
.step13 {transform: translateX(13312px);}
.step14 {transform: translateX(14336px);}
.step15 {transform: translateX(15360px);}
.step16 {transform: translateX(16384px);}
.step17 {transform: translateX(17408px);}
.step18 {transform: translateX(18432px);}
.step19 {transform: translateX(19456px);}
.step20 {transform: translateX(20480px);}
.step21 {transform: translateX(21504px);}
.step22 {transform: translateX(22528px);}
.step23 {transform: translateX(23552px);}
.step24 {transform: translateX(24576px);}
.step25 {transform: translateX(25600px);}
.step26 {transform: translateX(26624px);}
.step27 {transform: translateX(27648px);}
.step28 {transform: translateX(28672px);}
.step29 {transform: translateX(29696px);}
    </style>

    <path d="M 173 475 Q 225 547 301 681 L 313 701 Q 322 716 332 725 Q 341 735 336 749 Q 332 762 302 783 Q 275 799 256 799 Q 237 796 247 775 Q 263 744 251 716 Q 188 547 41 359 Q 32 349 30 342 Q 27 332 41 334 Q 74 343 165 464 L 173 475 Z" fill="lightgray" class="stroke step0"/>
    <path d="M 301 681 Q 305 677 315 670 Q 342 651 371 626 Q 381 617 391 619 Q 398 619 402 628 Q 403 638 397 659 Q 393 675 366 687 Q 342 696 313 701 C 283 706 279 701 301 681 Z" fill="lightgray" class="hide"/>
    <path d="M 267 462 Q 360 495 363 498 Q 370 507 365 514 Q 356 524 329 526 Q 308 527 238 495 Q 181 480 173 475 C 159 469 159 469 165 464 Q 184 445 229 451 L 267 462 Z" fill="lightgray" class="hide"/>
    <path d="M 286 346 Q 308 355 335 363 Q 359 372 362 376 Q 369 383 364 390 Q 357 400 331 402 Q 307 403 287 393 L 241 373 Q 171 351 151 345 Q 120 336 145 324 Q 187 312 240 331 L 242 331 L 286 346 Z" fill="lightgray" class="hide"/>
    <path d="M 280 182 Q 283 273 286 346 L 287 393 Q 287 394 288 395 Q 291 440 288 445 Q 278 455 267 462 C 242 479 218 479 229 451 Q 236 441 241 373 L 242 331 Q 242 273 242 169 C 242 139 279 152 280 182 Z" fill="lightgray" class="hide"/>
    <path d="M 129 241 Q 148 225 167 204 Q 176 195 187 195 Q 194 196 198 205 Q 201 215 195 235 Q 192 248 171 259 Q 120 277 112 274 Q 108 273 109 263 Q 112 256 129 241 Z" fill="lightgray" class="hide"/>
    <path d="M 345 312 Q 332 287 303 248 Q 299 244 303 240 Q 307 239 313 242 Q 365 285 392 302 Q 402 306 399 313 Q 395 323 382 333 Q 370 343 356 344 Q 346 343 348 331 Q 349 322 345 312 Z" fill="lightgray" class="hide"/>
    <path d="M 242 169 Q 184 151 121 130 Q 105 126 80 125 Q 67 124 66 113 Q 65 100 74 93 Q 96 78 128 62 Q 138 61 149 68 Q 174 90 316 165 Q 335 175 349 187 Q 362 194 361 204 Q 357 208 344 206 Q 313 196 280 182 L 242 169 Z" fill="lightgray" class="hide"/>
    <path d="M 507 615 Q 535 630 558 645 Q 595 669 630 682 Q 645 686 647 693 Q 648 703 636 712 Q 575 740 545 732 Q 539 728 540 717 Q 546 681 407 583 Q 403 574 410 572 Q 413 573 423 578 Q 439 584 468 597 L 507 615 Z" fill="lightgray" class="hide"/>
    <path d="M 530 448 Q 561 458 598 468 Q 629 478 633 482 Q 640 489 636 498 Q 629 508 601 512 Q 570 516 533 495 L 487 479 Q 480 478 476 476 Q 434 463 385 455 Q 352 446 378 433 Q 418 414 467 431 Q 471 432 480 434 L 530 448 Z" fill="lightgray" class="hide"/>
    <path d="M 527 326 Q 530 425 530 448 L 533 495 Q 536 532 545 560 Q 552 573 550 584 Q 544 593 507 615 C 481 631 456 625 468 597 Q 486 566 487 479 L 487 330 Q 478 132 478 125 Q 457 23 470 -5 Q 471 -12 477 -21 Q 481 -36 489 -39 Q 493 -45 500 -38 Q 507 -34 516 -16 Q 523 5 523 31 Q 523 62 527 301 L 527 326 Z" fill="lightgray" class="hide"/>
    <path d="M 480 434 Q 461 361 430 291 Q 393 210 302 62 Q 298 53 307 53 Q 328 53 426 205 Q 459 259 487 330 C 542 468 488 463 480 434 Z" fill="lightgray" class="hide"/>
    <path d="M 527 301 Q 578 250 593 249 Q 603 249 608 263 Q 609 273 601 289 Q 580 320 527 326 C 498 330 506 322 527 301 Z" fill="lightgray" class="hide"/>
    <path d="M 601 389 Q 643 335 651 333 Q 660 332 665 341 Q 671 351 669 375 Q 666 397 605 426 Q 593 432 588 430 Q 584 429 583 418 Q 584 409 601 389 Z" fill="lightgray" class="hide"/>
    <path d="M 855 529 Q 830 489 779 426 Q 773 419 779 411 Q 786 410 795 414 Q 889 483 935 508 Q 954 512 949 525 Q 942 541 922 562 Q 901 581 877 583 Q 861 582 862 561 Q 865 546 855 529 Z" fill="lightgray" class="hide"/>
    <path d="M 747 331 Q 754 407 762 648 Q 762 684 783 744 Q 790 759 779 770 Q 755 788 716 798 Q 691 805 682 797 Q 672 790 680 778 Q 746 673 697 312 Q 694 303 693 291 Q 666 174 555 92 Q 543 83 544 79 Q 545 75 557 75 Q 570 72 600 87 Q 718 138 741 289 L 747 331 Z" fill="lightgray" class="hide"/>
    <path d="M 741 289 Q 789 169 847 85 Q 860 63 877 60 Q 923 63 963 64 Q 979 65 980 69 Q 983 73 964 89 Q 825 191 747 331 C 732 357 730 317 741 289 Z" fill="lightgray" class="hide"/></g><g transform="scale(1, -1) translate(0, -900)">
    <style type="text/css">
        .origin {display:none;}
        .hide {display:none;}
        .stroke {fill: #000000;}
        
.step1 {transform: translateX(1024px);}
.step2 {transform: translateX(2048px);}
.step3 {transform: translateX(3072px);}
.step4 {transform: translateX(4096px);}
.step5 {transform: translateX(5120px);}
.step6 {transform: translateX(6144px);}
.step7 {transform: translateX(7168px);}
.step8 {transform: translateX(8192px);}
.step9 {transform: translateX(9216px);}
.step10 {transform: translateX(10240px);}
.step11 {transform: translateX(11264px);}
.step12 {transform: translateX(12288px);}
.step13 {transform: translateX(13312px);}
.step14 {transform: translateX(14336px);}
.step15 {transform: translateX(15360px);}
.step16 {transform: translateX(16384px);}
.step17 {transform: translateX(17408px);}
.step18 {transform: translateX(18432px);}
.step19 {transform: translateX(19456px);}
.step20 {transform: translateX(20480px);}
.step21 {transform: translateX(21504px);}
.step22 {transform: translateX(22528px);}
.step23 {transform: translateX(23552px);}
.step24 {transform: translateX(24576px);}
.step25 {transform: translateX(25600px);}
.step26 {transform: translateX(26624px);}
.step27 {transform: translateX(27648px);}
.step28 {transform: translateX(28672px);}
.step29 {transform: translateX(29696px);}
    </style>

    <path d="M 173 475 Q 225 547 301 681 L 313 701 Q 322 716 332 725 Q 341 735 336 749 Q 332 762 302 783 Q 275 799 256 799 Q 237 796 247 775 Q 263 744 251 716 Q 188 547 41 359 Q 32 349 30 342 Q 27 332 41 334 Q 74 343 165 464 L 173 475 Z" fill="lightgray" class="stroke step1"/>
    <path d="M 301 681 Q 305 677 315 670 Q 342 651 371 626 Q 381 617 391 619 Q 398 619 402 628 Q 403 638 397 659 Q 393 675 366 687 Q 342 696 313 701 C 283 706 279 701 301 681 Z" fill="lightgray" class="stroke step1"/>
    <path d="M 267 462 Q 360 495 363 498 Q 370 507 365 514 Q 356 524 329 526 Q 308 527 238 495 Q 181 480 173 475 C 159 469 159 469 165 464 Q 184 445 229 451 L 267 462 Z" fill="lightgray" class="hide"/>
    <path d="M 286 346 Q 308 355 335 363 Q 359 372 362 376 Q 369 383 364 390 Q 357 400 331 402 Q 307 403 287 393 L 241 373 Q 171 351 151 345 Q 120 336 145 324 Q 187 312 240 331 L 242 331 L 286 346 Z" fill="lightgray" class="hide"/>
    <path d="M 280 182 Q 283 273 286 346 L 287 393 Q 287 394 288 395 Q 291 440 288 445 Q 278 455 267 462 C 242 479 218 479 229 451 Q 236 441 241 373 L 242 331 Q 242 273 242 169 C 242 139 279 152 280 182 Z" fill="lightgray" class="hide"/>
    <path d="M 129 241 Q 148 225 167 204 Q 176 195 187 195 Q 194 196 198 205 Q 201 215 195 235 Q 192 248 171 259 Q 120 277 112 274 Q 108 273 109 263 Q 112 256 129 241 Z" fill="lightgray" class="hide"/>
    <path d="M 345 312 Q 332 287 303 248 Q 299 244 303 240 Q 307 239 313 242 Q 365 285 392 302 Q 402 306 399 313 Q 395 323 382 333 Q 370 343 356 344 Q 346 343 348 331 Q 349 322 345 312 Z" fill="lightgray" class="hide"/>
    <path d="M 242 169 Q 184 151 121 130 Q 105 126 80 125 Q 67 124 66 113 Q 65 100 74 93 Q 96 78 128 62 Q 138 61 149 68 Q 174 90 316 165 Q 335 175 349 187 Q 362 194 361 204 Q 357 208 344 206 Q 313 196 280 182 L 242 169 Z" fill="lightgray" class="hide"/>
    <path d="M 507 615 Q 535 630 558 645 Q 595 669 630 682 Q 645 686 647 693 Q 648 703 636 712 Q 575 740 545 732 Q 539 728 540 717 Q 546 681 407 583 Q 403 574 410 572 Q 413 573 423 578 Q 439 584 468 597 L 507 615 Z" fill="lightgray" class="hide"/>
    <path d="M 530 448 Q 561 458 598 468 Q 629 478 633 482 Q 640 489 636 498 Q 629 508 601 512 Q 570 516 533 495 L 487 479 Q 480 478 476 476 Q 434 463 385 455 Q 352 446 378 433 Q 418 414 467 431 Q 471 432 480 434 L 530 448 Z" fill="lightgray" class="hide"/>
    <path d="M 527 326 Q 530 425 530 448 L 533 495 Q 536 532 545 560 Q 552 573 550 584 Q 544 593 507 615 C 481 631 456 625 468 597 Q 486 566 487 479 L 487 330 Q 478 132 478 125 Q 457 23 470 -5 Q 471 -12 477 -21 Q 481 -36 489 -39 Q 493 -45 500 -38 Q 507 -34 516 -16 Q 523 5 523 31 Q 523 62 527 301 L 527 326 Z" fill="lightgray" class="hide"/>
    <path d="M 480 434 Q 461 361 430 291 Q 393 210 302 62 Q 298 53 307 53 Q 328 53 426 205 Q 459 259 487 330 C 542 468 488 463 480 434 Z" fill="lightgray" class="hide"/>
    <path d="M 527 301 Q 578 250 593 249 Q 603 249 608 263 Q 609 273 601 289 Q 580 320 527 326 C 498 330 506 322 527 301 Z" fill="lightgray" class="hide"/>
    <path d="M 601 389 Q 643 335 651 333 Q 660 332 665 341 Q 671 351 669 375 Q 666 397 605 426 Q 593 432 588 430 Q 584 429 583 418 Q 584 409 601 389 Z" fill="lightgray" class="hide"/>
    <path d="M 855 529 Q 830 489 779 426 Q 773 419 779 411 Q 786 410 795 414 Q 889 483 935 508 Q 954 512 949 525 Q 942 541 922 562 Q 901 581 877 583 Q 861 582 862 561 Q 865 546 855 529 Z" fill="lightgray" class="hide"/>
    <path d="M 747 331 Q 754 407 762 648 Q 762 684 783 744 Q 790 759 779 770 Q 755 788 716 798 Q 691 805 682 797 Q 672 790 680 778 Q 746 673 697 312 Q 694 303 693 291 Q 666 174 555 92 Q 543 83 544 79 Q 545 75 557 75 Q 570 72 600 87 Q 718 138 741 289 L 747 331 Z" fill="lightgray" class="hide"/>
    <path d="M 741 289 Q 789 169 847 85 Q 860 63 877 60 Q 923 63 963 64 Q 979 65 980 69 Q 983 73 964 89 Q 825 191 747 331 C 732 357 730 317 741 289 Z" fill="lightgray" class="hide"/></g><g transform="scale(1, -1) translate(0, -900)">
    <style type="text/css">
        .origin {display:none;}
        .hide {display:none;}
        .stroke {fill: #000000;}
        
.step1 {transform: translateX(1024px);}
.step2 {transform: translateX(2048px);}
.step3 {transform: translateX(3072px);}
.step4 {transform: translateX(4096px);}
.step5 {transform: translateX(5120px);}
.step6 {transform: translateX(6144px);}
.step7 {transform: translateX(7168px);}
.step8 {transform: translateX(8192px);}
.step9 {transform: translateX(9216px);}
.step10 {transform: translateX(10240px);}
.step11 {transform: translateX(11264px);}
.step12 {transform: translateX(12288px);}
.step13 {transform: translateX(13312px);}
.step14 {transform: translateX(14336px);}
.step15 {transform: translateX(15360px);}
.step16 {transform: translateX(16384px);}
.step17 {transform: translateX(17408px);}
.step18 {transform: translateX(18432px);}
.step19 {transform: translateX(19456px);}
.step20 {transform: translateX(20480px);}
.step21 {transform: translateX(21504px);}
.step22 {transform: translateX(22528px);}
.step23 {transform: translateX(23552px);}
.step24 {transform: translateX(24576px);}
.step25 {transform: translateX(25600px);}
.step26 {transform: translateX(26624px);}
.step27 {transform: translateX(27648px);}
.step28 {transform: translateX(28672px);}
.step29 {transform: translateX(29696px);}
    </style>

    <path d="M 173 475 Q 225 547 301 681 L 313 701 Q 322 716 332 725 Q 341 735 336 749 Q 332 762 302 783 Q 275 799 256 799 Q 237 796 247 775 Q 263 744 251 716 Q 188 547 41 359 Q 32 349 30 342 Q 27 332 41 334 Q 74 343 165 464 L 173 475 Z" fill="lightgray" class="stroke step2"/>
    <path d="M 301 681 Q 305 677 315 670 Q 342 651 371 626 Q 381 617 391 619 Q 398 619 402 628 Q 403 638 397 659 Q 393 675 366 687 Q 342 696 313 701 C 283 706 279 701 301 681 Z" fill="lightgray" class="stroke step2"/>
    <path d="M 267 462 Q 360 495 363 498 Q 370 507 365 514 Q 356 524 329 526 Q 308 527 238 495 Q 181 480 173 475 C 159 469 159 469 165 464 Q 184 445 229 451 L 267 462 Z" fill="lightgray" class="stroke step2"/>
    <path d="M 286 346 Q 308 355 335 363 Q 359 372 362 376 Q 369 383 364 390 Q 357 400 331 402 Q 307 403 287 393 L 241 373 Q 171 351 151 345 Q 120 336 145 324 Q 187 312 240 331 L 242 331 L 286 346 Z" fill="lightgray" class="hide"/>
    <path d="M 280 182 Q 283 273 286 346 L 287 393 Q 287 394 288 395 Q 291 440 288 445 Q 278 455 267 462 C 242 479 218 479 229 451 Q 236 441 241 373 L 242 331 Q 242 273 242 169 C 242 139 279 152 280 182 Z" fill="lightgray" class="hide"/>
    <path d="M 129 241 Q 148 225 167 204 Q 176 195 187 195 Q 194 196 198 205 Q 201 215 195 235 Q 192 248 171 259 Q 120 277 112 274 Q 108 273 109 263 Q 112 256 129 241 Z" fill="lightgray" class="hide"/>
    <path d="M 345 312 Q 332 287 303 248 Q 299 244 303 240 Q 307 239 313 242 Q 365 285 392 302 Q 402 306 399 313 Q 395 323 382 333 Q 370 343 356 344 Q 346 343 348 331 Q 349 322 345 312 Z" fill="lightgray" class="hide"/>
    <path d="M 242 169 Q 184 151 121 130 Q 105 126 80 125 Q 67 124 66 113 Q 65 100 74 93 Q 96 78 128 62 Q 138 61 149 68 Q 174 90 316 165 Q 335 175 349 187 Q 362 194 361 204 Q 357 208 344 206 Q 313 196 280 182 L 242 169 Z" fill="lightgray" class="hide"/>
    <path d="M 507 615 Q 535 630 558 645 Q 595 669 630 682 Q 645 686 647 693 Q 648 703 636 712 Q 575 740 545 732 Q 539 728 540 717 Q 546 681 407 583 Q 403 574 410 572 Q 413 573 423 578 Q 439 584 468 597 L 507 615 Z" fill="lightgray" class="hide"/>
    <path d="M 530 448 Q 561 458 598 468 Q 629 478 633 482 Q 640 489 636 498 Q 629 508 601 512 Q 570 516 533 495 L 487 479 Q 480 478 476 476 Q 434 463 385 455 Q 352 446 378 433 Q 418 414 467 431 Q 471 432 480 434 L 530 448 Z" fill="lightgray" class="hide"/>
    <path d="M 527 326 Q 530 425 530 448 L 533 495 Q 536 532 545 560 Q 552 573 550 584 Q 544 593 507 615 C 481 631 456 625 468 597 Q 486 566 487 479 L 487 330 Q 478 132 478 125 Q 457 23 470 -5 Q 471 -12 477 -21 Q 481 -36 489 -39 Q 493 -45 500 -38 Q 507 -34 516 -16 Q 523 5 523 31 Q 523 62 527 301 L 527 326 Z" fill="lightgray" class="hide"/>
    <path d="M 480 434 Q 461 361 430 291 Q 393 210 302 62 Q 298 53 307 53 Q 328 53 426 205 Q 459 259 487 330 C 542 468 488 463 480 434 Z" fill="lightgray" class="hide"/>
    <path d="M 527 301 Q 578 250 593 249 Q 603 249 608 263 Q 609 273 601 289 Q 580 320 527 326 C 498 330 506 322 527 301 Z" fill="lightgray" class="hide"/>
    <path d="M 601 389 Q 643 335 651 333 Q 660 332 665 341 Q 671 351 669 375 Q 666 397 605 426 Q 593 432 588 430 Q 584 429 583 418 Q 584 409 601 389 Z" fill="lightgray" class="hide"/>
    <path d="M 855 529 Q 830 489 779 426 Q 773 419 779 411 Q 786 410 795 414 Q 889 483 935 508 Q 954 512 949 525 Q 942 541 922 562 Q 901 581 877 583 Q 861 582 862 561 Q 865 546 855 529 Z" fill="lightgray" class="hide"/>
    <path d="M 747 331 Q 754 407 762 648 Q 762 684 783 744 Q 790 759 779 770 Q 755 788 716 798 Q 691 805 682 797 Q 672 790 680 778 Q 746 673 697 312 Q 694 303 693 291 Q 666 174 555 92 Q 543 83 544 79 Q 545 75 557 75 Q 570 72 600 87 Q 718 138 741 289 L 747 331 Z" fill="lightgray" class="hide"/>
    <path d="M 741 289 Q 789 169 847 85 Q 860 63 877 60 Q 923 63 963 64 Q 979 65 980 69 Q 983 73 964 89 Q 825 191 747 331 C 732 357 730 317 741 289 Z" fill="lightgray" class="hide"/></g><g transform="scale(1, -1) translate(0, -900)">
    <style type="text/css">
        .origin {display:none;}
        .hide {display:none;}
        .stroke {fill: #000000;}
        
.step1 {transform: translateX(1024px);}
.step2 {transform: translateX(2048px);}
.step3 {transform: translateX(3072px);}
.step4 {transform: translateX(4096px);}
.step5 {transform: translateX(5120px);}
.step6 {transform: translateX(6144px);}
.step7 {transform: translateX(7168px);}
.step8 {transform: translateX(8192px);}
.step9 {transform: translateX(9216px);}
.step10 {transform: translateX(10240px);}
.step11 {transform: translateX(11264px);}
.step12 {transform: translateX(12288px);}
.step13 {transform: translateX(13312px);}
.step14 {transform: translateX(14336px);}
.step15 {transform: translateX(15360px);}
.step16 {transform: translateX(16384px);}
.step17 {transform: translateX(17408px);}
.step18 {transform: translateX(18432px);}
.step19 {transform: translateX(19456px);}
.step20 {transform: translateX(20480px);}
.step21 {transform: translateX(21504px);}
.step22 {transform: translateX(22528px);}
.step23 {transform: translateX(23552px);}
.step24 {transform: translateX(24576px);}
.step25 {transform: translateX(25600px);}
.step26 {transform: translateX(26624px);}
.step27 {transform: translateX(27648px);}
.step28 {transform: translateX(28672px);}
.step29 {transform: translateX(29696px);}
    </style>

    <path d="M 173 475 Q 225 547 301 681 L 313 701 Q 322 716 332 725 Q 341 735 336 749 Q 332 762 302 783 Q 275 799 256 799 Q 237 796 247 775 Q 263 744 251 716 Q 188 547 41 359 Q 32 349 30 342 Q 27 332 41 334 Q 74 343 165 464 L 173 475 Z" fill="lightgray" class="stroke step3"/>
    <path d="M 301 681 Q 305 677 315 670 Q 342 651 371 626 Q 381 617 391 619 Q 398 619 402 628 Q 403 638 397 659 Q 393 675 366 687 Q 342 696 313 701 C 283 706 279 701 301 681 Z" fill="lightgray" class="stroke step3"/>
    <path d="M 267 462 Q 360 495 363 498 Q 370 507 365 514 Q 356 524 329 526 Q 308 527 238 495 Q 181 480 173 475 C 159 469 159 469 165 464 Q 184 445 229 451 L 267 462 Z" fill="lightgray" class="stroke step3"/>
    <path d="M 286 346 Q 308 355 335 363 Q 359 372 362 376 Q 369 383 364 390 Q 357 400 331 402 Q 307 403 287 393 L 241 373 Q 171 351 151 345 Q 120 336 145 324 Q 187 312 240 331 L 242 331 L 286 346 Z" fill="lightgray" class="stroke step3"/>
    <path d="M 280 182 Q 283 273 286 346 L 287 393 Q 287 394 288 395 Q 291 440 288 445 Q 278 455 267 462 C 242 479 218 479 229 451 Q 236 441 241 373 L 242 331 Q 242 273 242 169 C 242 139 279 152 280 182 Z" fill="lightgray" class="hide"/>
    <path d="M 129 241 Q 148 225 167 204 Q 176 195 187 195 Q 194 196 198 205 Q 201 215 195 235 Q 192 248 171 259 Q 120 277 112 274 Q 108 273 109 263 Q 112 256 129 241 Z" fill="lightgray" class="hide"/>
    <path d="M 345 312 Q 332 287 303 248 Q 299 244 303 240 Q 307 239 313 242 Q 365 285 392 302 Q 402 306 399 313 Q 395 323 382 333 Q 370 343 356 344 Q 346 343 348 331 Q 349 322 345 312 Z" fill="lightgray" class="hide"/>
    <path d="M 242 169 Q 184 151 121 130 Q 105 126 80 125 Q 67 124 66 113 Q 65 100 74 93 Q 96 78 128 62 Q 138 61 149 68 Q 174 90 316 165 Q 335 175 349 187 Q 362 194 361 204 Q 357 208 344 206 Q 313 196 280 182 L 242 169 Z" fill="lightgray" class="hide"/>
    <path d="M 507 615 Q 535 630 558 645 Q 595 669 630 682 Q 645 686 647 693 Q 648 703 636 712 Q 575 740 545 732 Q 539 728 540 717 Q 546 681 407 583 Q 403 574 410 572 Q 413 573 423 578 Q 439 584 468 597 L 507 615 Z" fill="lightgray" class="hide"/>
    <path d="M 530 448 Q 561 458 598 468 Q 629 478 633 482 Q 640 489 636 498 Q 629 508 601 512 Q 570 516 533 495 L 487 479 Q 480 478 476 476 Q 434 463 385 455 Q 352 446 378 433 Q 418 414 467 431 Q 471 432 480 434 L 530 448 Z" fill="lightgray" class="hide"/>
    <path d="M 527 326 Q 530 425 530 448 L 533 495 Q 536 532 545 560 Q 552 573 550 584 Q 544 593 507 615 C 481 631 456 625 468 597 Q 486 566 487 479 L 487 330 Q 478 132 478 125 Q 457 23 470 -5 Q 471 -12 477 -21 Q 481 -36 489 -39 Q 493 -45 500 -38 Q 507 -34 516 -16 Q 523 5 523 31 Q 523 62 527 301 L 527 326 Z" fill="lightgray" class="hide"/>
    <path d="M 480 434 Q 461 361 430 291 Q 393 210 302 62 Q 298 53 307 53 Q 328 53 426 205 Q 459 259 487 330 C 542 468 488 463 480 434 Z" fill="lightgray" class="hide"/>
    <path d="M 527 301 Q 578 250 593 249 Q 603 249 608 263 Q 609 273 601 289 Q 580 320 527 326 C 498 330 506 322 527 301 Z" fill="lightgray" class="hide"/>
    <path d="M 601 389 Q 643 335 651 333 Q 660 332 665 341 Q 671 351 669 375 Q 666 397 605 426 Q 593 432 588 430 Q 584 429 583 418 Q 584 409 601 389 Z" fill="lightgray" class="hide"/>
    <path d="M 855 529 Q 830 489 779 426 Q 773 419 779 411 Q 786 410 795 414 Q 889 483 935 508 Q 954 512 949 525 Q 942 541 922 562 Q 901 581 877 583 Q 861 582 862 561 Q 865 546 855 529 Z" fill="lightgray" class="hide"/>
    <path d="M 747 331 Q 754 407 762 648 Q 762 684 783 744 Q 790 759 779 770 Q 755 788 716 798 Q 691 805 682 797 Q 672 790 680 778 Q 746 673 697 312 Q 694 303 693 291 Q 666 174 555 92 Q 543 83 544 79 Q 545 75 557 75 Q 570 72 600 87 Q 718 138 741 289 L 747 331 Z" fill="lightgray" class="hide"/>
    <path d="M 741 289 Q 789 169 847 85 Q 860 63 877 60 Q 923 63 963 64 Q 979 65 980 69 Q 983 73 964 89 Q 825 191 747 331 C 732 357 730 317 741 289 Z" fill="lightgray" class="hide"/></g><g transform="scale(1, -1) translate(0, -900)">
    <style type="text/css">
        .origin {display:none;}
        .hide {display:none;}
        .stroke {fill: #000000;}
        
.step1 {transform: translateX(1024px);}
.step2 {transform: translateX(2048px);}
.step3 {transform: translateX(3072px);}
.step4 {transform: translateX(4096px);}
.step5 {transform: translateX(5120px);}
.step6 {transform: translateX(6144px);}
.step7 {transform: translateX(7168px);}
.step8 {transform: translateX(8192px);}
.step9 {transform: translateX(9216px);}
.step10 {transform: translateX(10240px);}
.step11 {transform: translateX(11264px);}
.step12 {transform: translateX(12288px);}
.step13 {transform: translateX(13312px);}
.step14 {transform: translateX(14336px);}
.step15 {transform: translateX(15360px);}
.step16 {transform: translateX(16384px);}
.step17 {transform: translateX(17408px);}
.step18 {transform: translateX(18432px);}
.step19 {transform: translateX(19456px);}
.step20 {transform: translateX(20480px);}
.step21 {transform: translateX(21504px);}
.step22 {transform: translateX(22528px);}
.step23 {transform: translateX(23552px);}
.step24 {transform: translateX(24576px);}
.step25 {transform: translateX(25600px);}
.step26 {transform: translateX(26624px);}
.step27 {transform: translateX(27648px);}
.step28 {transform: translateX(28672px);}
.step29 {transform: translateX(29696px);}
    </style>

    <path d="M 173 475 Q 225 547 301 681 L 313 701 Q 322 716 332 725 Q 341 735 336 749 Q 332 762 302 783 Q 275 799 256 799 Q 237 796 247 775 Q 263 744 251 716 Q 188 547 41 359 Q 32 349 30 342 Q 27 332 41 334 Q 74 343 165 464 L 173 475 Z" fill="lightgray" class="stroke step4"/>
    <path d="M 301 681 Q 305 677 315 670 Q 342 651 371 626 Q 381 617 391 619 Q 398 619 402 628 Q 403 638 397 659 Q 393 675 366 687 Q 342 696 313 701 C 283 706 279 701 301 681 Z" fill="lightgray" class="stroke step4"/>
    <path d="M 267 462 Q 360 495 363 498 Q 370 507 365 514 Q 356 524 329 526 Q 308 527 238 495 Q 181 480 173 475 C 159 469 159 469 165 464 Q 184 445 229 451 L 267 462 Z" fill="lightgray" class="stroke step4"/>
    <path d="M 286 346 Q 308 355 335 363 Q 359 372 362 376 Q 369 383 364 390 Q 357 400 331 402 Q 307 403 287 393 L 241 373 Q 171 351 151 345 Q 120 336 145 324 Q 187 312 240 331 L 242 331 L 286 346 Z" fill="lightgray" class="stroke step4"/>
    <path d="M 280 182 Q 283 273 286 346 L 287 393 Q 287 394 288 395 Q 291 440 288 445 Q 278 455 267 462 C 242 479 218 479 229 451 Q 236 441 241 373 L 242 331 Q 242 273 242 169 C 242 139 279 152 280 182 Z" fill="lightgray" class="stroke step4"/>
    <path d="M 129 241 Q 148 225 167 204 Q 176 195 187 195 Q 194 196 198 205 Q 201 215 195 235 Q 192 248 171 259 Q 120 277 112 274 Q 108 273 109 263 Q 112 256 129 241 Z" fill="lightgray" class="hide"/>
    <path d="M 345 312 Q 332 287 303 248 Q 299 244 303 240 Q 307 239 313 242 Q 365 285 392 302 Q 402 306 399 313 Q 395 323 382 333 Q 370 343 356 344 Q 346 343 348 331 Q 349 322 345 312 Z" fill="lightgray" class="hide"/>
    <path d="M 242 169 Q 184 151 121 130 Q 105 126 80 125 Q 67 124 66 113 Q 65 100 74 93 Q 96 78 128 62 Q 138 61 149 68 Q 174 90 316 165 Q 335 175 349 187 Q 362 194 361 204 Q 357 208 344 206 Q 313 196 280 182 L 242 169 Z" fill="lightgray" class="hide"/>
    <path d="M 507 615 Q 535 630 558 645 Q 595 669 630 682 Q 645 686 647 693 Q 648 703 636 712 Q 575 740 545 732 Q 539 728 540 717 Q 546 681 407 583 Q 403 574 410 572 Q 413 573 423 578 Q 439 584 468 597 L 507 615 Z" fill="lightgray" class="hide"/>
    <path d="M 530 448 Q 561 458 598 468 Q 629 478 633 482 Q 640 489 636 498 Q 629 508 601 512 Q 570 516 533 495 L 487 479 Q 480 478 476 476 Q 434 463 385 455 Q 352 446 378 433 Q 418 414 467 431 Q 471 432 480 434 L 530 448 Z" fill="lightgray" class="hide"/>
    <path d="M 527 326 Q 530 425 530 448 L 533 495 Q 536 532 545 560 Q 552 573 550 584 Q 544 593 507 615 C 481 631 456 625 468 597 Q 486 566 487 479 L 487 330 Q 478 132 478 125 Q 457 23 470 -5 Q 471 -12 477 -21 Q 481 -36 489 -39 Q 493 -45 500 -38 Q 507 -34 516 -16 Q 523 5 523 31 Q 523 62 527 301 L 527 326 Z" fill="lightgray" class="hide"/>
    <path d="M 480 434 Q 461 361 430 291 Q 393 210 302 62 Q 298 53 307 53 Q 328 53 426 205 Q 459 259 487 330 C 542 468 488 463 480 434 Z" fill="lightgray" class="hide"/>
    <path d="M 527 301 Q 578 250 593 249 Q 603 249 608 263 Q 609 273 601 289 Q 580 320 527 326 C 498 330 506 322 527 301 Z" fill="lightgray" class="hide"/>
    <path d="M 601 389 Q 643 335 651 333 Q 660 332 665 341 Q 671 351 669 375 Q 666 397 605 426 Q 593 432 588 430 Q 584 429 583 418 Q 584 409 601 389 Z" fill="lightgray" class="hide"/>
    <path d="M 855 529 Q 830 489 779 426 Q 773 419 779 411 Q 786 410 795 414 Q 889 483 935 508 Q 954 512 949 525 Q 942 541 922 562 Q 901 581 877 583 Q 861 582 862 561 Q 865 546 855 529 Z" fill="lightgray" class="hide"/>
    <path d="M 747 331 Q 754 407 762 648 Q 762 684 783 744 Q 790 759 779 770 Q 755 788 716 798 Q 691 805 682 797 Q 672 790 680 778 Q 746 673 697 312 Q 694 303 693 291 Q 666 174 555 92 Q 543 83 544 79 Q 545 75 557 75 Q 570 72 600 87 Q 718 138 741 289 L 747 331 Z" fill="lightgray" class="hide"/>
    <path d="M 741 289 Q 789 169 847 85 Q 860 63 877 60 Q 923 63 963 64 Q 979 65 980 69 Q 983 73 964 89 Q 825 191 747 331 C 732 357 730 317 741 289 Z" fill="lightgray" class="hide"/></g><g transform="scale(1, -1) translate(0, -900)">
    <style type="text/css">
        .origin {display:none;}
        .hide {display:none;}
        .stroke {fill: #000000;}
        
.step1 {transform: translateX(1024px);}
.step2 {transform: translateX(2048px);}
.step3 {transform: translateX(3072px);}
.step4 {transform: translateX(4096px);}
.step5 {transform: translateX(5120px);}
.step6 {transform: translateX(6144px);}
.step7 {transform: translateX(7168px);}
.step8 {transform: translateX(8192px);}
.step9 {transform: translateX(9216px);}
.step10 {transform: translateX(10240px);}
.step11 {transform: translateX(11264px);}
.step12 {transform: translateX(12288px);}
.step13 {transform: translateX(13312px);}
.step14 {transform: translateX(14336px);}
.step15 {transform: translateX(15360px);}
.step16 {transform: translateX(16384px);}
.step17 {transform: translateX(17408px);}
.step18 {transform: translateX(18432px);}
.step19 {transform: translateX(19456px);}
.step20 {transform: translateX(20480px);}
.step21 {transform: translateX(21504px);}
.step22 {transform: translateX(22528px);}
.step23 {transform: translateX(23552px);}
.step24 {transform: translateX(24576px);}
.step25 {transform: translateX(25600px);}
.step26 {transform: translateX(26624px);}
.step27 {transform: translateX(27648px);}
.step28 {transform: translateX(28672px);}
.step29 {transform: translateX(29696px);}
    </style>

    <path d="M 173 475 Q 225 547 301 681 L 313 701 Q 322 716 332 725 Q 341 735 336 749 Q 332 762 302 783 Q 275 799 256 799 Q 237 796 247 775 Q 263 744 251 716 Q 188 547 41 359 Q 32 349 30 342 Q 27 332 41 334 Q 74 343 165 464 L 173 475 Z" fill="lightgray" class="stroke step5"/>
    <path d="M 301 681 Q 305 677 315 670 Q 342 651 371 626 Q 381 617 391 619 Q 398 619 402 628 Q 403 638 397 659 Q 393 675 366 687 Q 342 696 313 701 C 283 706 279 701 301 681 Z" fill="lightgray" class="stroke step5"/>
    <path d="M 267 462 Q 360 495 363 498 Q 370 507 365 514 Q 356 524 329 526 Q 308 527 238 495 Q 181 480 173 475 C 159 469 159 469 165 464 Q 184 445 229 451 L 267 462 Z" fill="lightgray" class="stroke step5"/>
    <path d="M 286 346 Q 308 355 335 363 Q 359 372 362 376 Q 369 383 364 390 Q 357 400 331 402 Q 307 403 287 393 L 241 373 Q 171 351 151 345 Q 120 336 145 324 Q 187 312 240 331 L 242 331 L 286 346 Z" fill="lightgray" class="stroke step5"/>
    <path d="M 280 182 Q 283 273 286 346 L 287 393 Q 287 394 288 395 Q 291 440 288 445 Q 278 455 267 462 C 242 479 218 479 229 451 Q 236 441 241 373 L 242 331 Q 242 273 242 169 C 242 139 279 152 280 182 Z" fill="lightgray" class="stroke step5"/>
    <path d="M 129 241 Q 148 225 167 204 Q 176 195 187 195 Q 194 196 198 205 Q 201 215 195 235 Q 192 248 171 259 Q 120 277 112 274 Q 108 273 109 263 Q 112 256 129 241 Z" fill="lightgray" class="stroke step5"/>
    <path d="M 345 312 Q 332 287 303 248 Q 299 244 303 240 Q 307 239 313 242 Q 365 285 392 302 Q 402 306 399 313 Q 395 323 382 333 Q 370 343 356 344 Q 346 343 348 331 Q 349 322 345 312 Z" fill="lightgray" class="hide"/>
    <path d="M 242 169 Q 184 151 121 130 Q 105 126 80 125 Q 67 124 66 113 Q 65 100 74 93 Q 96 78 128 62 Q 138 61 149 68 Q 174 90 316 165 Q 335 175 349 187 Q 362 194 361 204 Q 357 208 344 206 Q 313 196 280 182 L 242 169 Z" fill="lightgray" class="hide"/>
    <path d="M 507 615 Q 535 630 558 645 Q 595 669 630 682 Q 645 686 647 693 Q 648 703 636 712 Q 575 740 545 732 Q 539 728 540 717 Q 546 681 407 583 Q 403 574 410 572 Q 413 573 423 578 Q 439 584 468 597 L 507 615 Z" fill="lightgray" class="hide"/>
    <path d="M 530 448 Q 561 458 598 468 Q 629 478 633 482 Q 640 489 636 498 Q 629 508 601 512 Q 570 516 533 495 L 487 479 Q 480 478 476 476 Q 434 463 385 455 Q 352 446 378 433 Q 418 414 467 431 Q 471 432 480 434 L 530 448 Z" fill="lightgray" class="hide"/>
    <path d="M 527 326 Q 530 425 530 448 L 533 495 Q 536 532 545 560 Q 552 573 550 584 Q 544 593 507 615 C 481 631 456 625 468 597 Q 486 566 487 479 L 487 330 Q 478 132 478 125 Q 457 23 470 -5 Q 471 -12 477 -21 Q 481 -36 489 -39 Q 493 -45 500 -38 Q 507 -34 516 -16 Q 523 5 523 31 Q 523 62 527 301 L 527 326 Z" fill="lightgray" class="hide"/>
    <path d="M 480 434 Q 461 361 430 291 Q 393 210 302 62 Q 298 53 307 53 Q 328 53 426 205 Q 459 259 487 330 C 542 468 488 463 480 434 Z" fill="lightgray" class="hide"/>
    <path d="M 527 301 Q 578 250 593 249 Q 603 249 608 263 Q 609 273 601 289 Q 580 320 527 326 C 498 330 506 322 527 301 Z" fill="lightgray" class="hide"/>
    <path d="M 601 389 Q 643 335 651 333 Q 660 332 665 341 Q 671 351 669 375 Q 666 397 605 426 Q 593 432 588 430 Q 584 429 583 418 Q 584 409 601 389 Z" fill="lightgray" class="hide"/>
    <path d="M 855 529 Q 830 489 779 426 Q 773 419 779 411 Q 786 410 795 414 Q 889 483 935 508 Q 954 512 949 525 Q 942 541 922 562 Q 901 581 877 583 Q 861 582 862 561 Q 865 546 855 529 Z" fill="lightgray" class="hide"/>
    <path d="M 747 331 Q 754 407 762 648 Q 762 684 783 744 Q 790 759 779 770 Q 755 788 716 798 Q 691 805 682 797 Q 672 790 680 778 Q 746 673 697 312 Q 694 303 693 291 Q 666 174 555 92 Q 543 83 544 79 Q 545 75 557 75 Q 570 72 600 87 Q 718 138 741 289 L 747 331 Z" fill="lightgray" class="hide"/>
    <path d="M 741 289 Q 789 169 847 85 Q 860 63 877 60 Q 923 63 963 64 Q 979 65 980 69 Q 983 73 964 89 Q 825 191 747 331 C 732 357 730 317 741 289 Z" fill="lightgray" class="hide"/></g><g transform="scale(1, -1) translate(0, -900)">
    <style type="text/css">
        .origin {display:none;}
        .hide {display:none;}
        .stroke {fill: #000000;}
        
.step1 {transform: translateX(1024px);}
.step2 {transform: translateX(2048px);}
.step3 {transform: translateX(3072px);}
.step4 {transform: translateX(4096px);}
.step5 {transform: translateX(5120px);}
.step6 {transform: translateX(6144px);}
.step7 {transform: translateX(7168px);}
.step8 {transform: translateX(8192px);}
.step9 {transform: translateX(9216px);}
.step10 {transform: translateX(10240px);}
.step11 {transform: translateX(11264px);}
.step12 {transform: translateX(12288px);}
.step13 {transform: translateX(13312px);}
.step14 {transform: translateX(14336px);}
.step15 {transform: translateX(15360px);}
.step16 {transform: translateX(16384px);}
.step17 {transform: translateX(17408px);}
.step18 {transform: translateX(18432px);}
.step19 {transform: translateX(19456px);}
.step20 {transform: translateX(20480px);}
.step21 {transform: translateX(21504px);}
.step22 {transform: translateX(22528px);}
.step23 {transform: translateX(23552px);}
.step24 {transform: translateX(24576px);}
.step25 {transform: translateX(25600px);}
.step26 {transform: translateX(26624px);}
.step27 {transform: translateX(27648px);}
.step28 {transform: translateX(28672px);}
.step29 {transform: translateX(29696px);}
    </style>

    <path d="M 173 475 Q 225 547 301 681 L 313 701 Q 322 716 332 725 Q 341 735 336 749 Q 332 762 302 783 Q 275 799 256 799 Q 237 796 247 775 Q 263 744 251 716 Q 188 547 41 359 Q 32 349 30 342 Q 27 332 41 334 Q 74 343 165 464 L 173 475 Z" fill="lightgray" class="stroke step6"/>
    <path d="M 301 681 Q 305 677 315 670 Q 342 651 371 626 Q 381 617 391 619 Q 398 619 402 628 Q 403 638 397 659 Q 393 675 366 687 Q 342 696 313 701 C 283 706 279 701 301 681 Z" fill="lightgray" class="stroke step6"/>
    <path d="M 267 462 Q 360 495 363 498 Q 370 507 365 514 Q 356 524 329 526 Q 308 527 238 495 Q 181 480 173 475 C 159 469 159 469 165 464 Q 184 445 229 451 L 267 462 Z" fill="lightgray" class="stroke step6"/>
    <path d="M 286 346 Q 308 355 335 363 Q 359 372 362 376 Q 369 383 364 390 Q 357 400 331 402 Q 307 403 287 393 L 241 373 Q 171 351 151 345 Q 120 336 145 324 Q 187 312 240 331 L 242 331 L 286 346 Z" fill="lightgray" class="stroke step6"/>
    <path d="M 280 182 Q 283 273 286 346 L 287 393 Q 287 394 288 395 Q 291 440 288 445 Q 278 455 267 462 C 242 479 218 479 229 451 Q 236 441 241 373 L 242 331 Q 242 273 242 169 C 242 139 279 152 280 182 Z" fill="lightgray" class="stroke step6"/>
    <path d="M 129 241 Q 148 225 167 204 Q 176 195 187 195 Q 194 196 198 205 Q 201 215 195 235 Q 192 248 171 259 Q 120 277 112 274 Q 108 273 109 263 Q 112 256 129 241 Z" fill="lightgray" class="stroke step6"/>
    <path d="M 345 312 Q 332 287 303 248 Q 299 244 303 240 Q 307 239 313 242 Q 365 285 392 302 Q 402 306 399 313 Q 395 323 382 333 Q 370 343 356 344 Q 346 343 348 331 Q 349 322 345 312 Z" fill="lightgray" class="stroke step6"/>
    <path d="M 242 169 Q 184 151 121 130 Q 105 126 80 125 Q 67 124 66 113 Q 65 100 74 93 Q 96 78 128 62 Q 138 61 149 68 Q 174 90 316 165 Q 335 175 349 187 Q 362 194 361 204 Q 357 208 344 206 Q 313 196 280 182 L 242 169 Z" fill="lightgray" class="hide"/>
    <path d="M 507 615 Q 535 630 558 645 Q 595 669 630 682 Q 645 686 647 693 Q 648 703 636 712 Q 575 740 545 732 Q 539 728 540 717 Q 546 681 407 583 Q 403 574 410 572 Q 413 573 423 578 Q 439 584 468 597 L 507 615 Z" fill="lightgray" class="hide"/>
    <path d="M 530 448 Q 561 458 598 468 Q 629 478 633 482 Q 640 489 636 498 Q 629 508 601 512 Q 570 516 533 495 L 487 479 Q 480 478 476 476 Q 434 463 385 455 Q 352 446 378 433 Q 418 414 467 431 Q 471 432 480 434 L 530 448 Z" fill="lightgray" class="hide"/>
    <path d="M 527 326 Q 530 425 530 448 L 533 495 Q 536 532 545 560 Q 552 573 550 584 Q 544 593 507 615 C 481 631 456 625 468 597 Q 486 566 487 479 L 487 330 Q 478 132 478 125 Q 457 23 470 -5 Q 471 -12 477 -21 Q 481 -36 489 -39 Q 493 -45 500 -38 Q 507 -34 516 -16 Q 523 5 523 31 Q 523 62 527 301 L 527 326 Z" fill="lightgray" class="hide"/>
    <path d="M 480 434 Q 461 361 430 291 Q 393 210 302 62 Q 298 53 307 53 Q 328 53 426 205 Q 459 259 487 330 C 542 468 488 463 480 434 Z" fill="lightgray" class="hide"/>
    <path d="M 527 301 Q 578 250 593 249 Q 603 249 608 263 Q 609 273 601 289 Q 580 320 527 326 C 498 330 506 322 527 301 Z" fill="lightgray" class="hide"/>
    <path d="M 601 389 Q 643 335 651 333 Q 660 332 665 341 Q 671 351 669 375 Q 666 397 605 426 Q 593 432 588 430 Q 584 429 583 418 Q 584 409 601 389 Z" fill="lightgray" class="hide"/>
    <path d="M 855 529 Q 830 489 779 426 Q 773 419 779 411 Q 786 410 795 414 Q 889 483 935 508 Q 954 512 949 525 Q 942 541 922 562 Q 901 581 877 583 Q 861 582 862 561 Q 865 546 855 529 Z" fill="lightgray" class="hide"/>
    <path d="M 747 331 Q 754 407 762 648 Q 762 684 783 744 Q 790 759 779 770 Q 755 788 716 798 Q 691 805 682 797 Q 672 790 680 778 Q 746 673 697 312 Q 694 303 693 291 Q 666 174 555 92 Q 543 83 544 79 Q 545 75 557 75 Q 570 72 600 87 Q 718 138 741 289 L 747 331 Z" fill="lightgray" class="hide"/>
    <path d="M 741 289 Q 789 169 847 85 Q 860 63 877 60 Q 923 63 963 64 Q 979 65 980 69 Q 983 73 964 89 Q 825 191 747 331 C 732 357 730 317 741 289 Z" fill="lightgray" class="hide"/></g><g transform="scale(1, -1) translate(0, -900)">
    <style type="text/css">
        .origin {display:none;}
        .hide {display:none;}
        .stroke {fill: #000000;}
        
.step1 {transform: translateX(1024px);}
.step2 {transform: translateX(2048px);}
.step3 {transform: translateX(3072px);}
.step4 {transform: translateX(4096px);}
.step5 {transform: translateX(5120px);}
.step6 {transform: translateX(6144px);}
.step7 {transform: translateX(7168px);}
.step8 {transform: translateX(8192px);}
.step9 {transform: translateX(9216px);}
.step10 {transform: translateX(10240px);}
.step11 {transform: translateX(11264px);}
.step12 {transform: translateX(12288px);}
.step13 {transform: translateX(13312px);}
.step14 {transform: translateX(14336px);}
.step15 {transform: translateX(15360px);}
.step16 {transform: translateX(16384px);}
.step17 {transform: translateX(17408px);}
.step18 {transform: translateX(18432px);}
.step19 {transform: translateX(19456px);}
.step20 {transform: translateX(20480px);}
.step21 {transform: translateX(21504px);}
.step22 {transform: translateX(22528px);}
.step23 {transform: translateX(23552px);}
.step24 {transform: translateX(24576px);}
.step25 {transform: translateX(25600px);}
.step26 {transform: translateX(26624px);}
.step27 {transform: translateX(27648px);}
.step28 {transform: translateX(28672px);}
.step29 {transform: translateX(29696px);}
    </style>

    <path d="M 173 475 Q 225 547 301 681 L 313 701 Q 322 716 332 725 Q 341 735 336 749 Q 332 762 302 783 Q 275 799 256 799 Q 237 796 247 775 Q 263 744 251 716 Q 188 547 41 359 Q 32 349 30 342 Q 27 332 41 334 Q 74 343 165 464 L 173 475 Z" fill="lightgray" class="stroke step7"/>
    <path d="M 301 681 Q 305 677 315 670 Q 342 651 371 626 Q 381 617 391 619 Q 398 619 402 628 Q 403 638 397 659 Q 393 675 366 687 Q 342 696 313 701 C 283 706 279 701 301 681 Z" fill="lightgray" class="stroke step7"/>
    <path d="M 267 462 Q 360 495 363 498 Q 370 507 365 514 Q 356 524 329 526 Q 308 527 238 495 Q 181 480 173 475 C 159 469 159 469 165 464 Q 184 445 229 451 L 267 462 Z" fill="lightgray" class="stroke step7"/>
    <path d="M 286 346 Q 308 355 335 363 Q 359 372 362 376 Q 369 383 364 390 Q 357 400 331 402 Q 307 403 287 393 L 241 373 Q 171 351 151 345 Q 120 336 145 324 Q 187 312 240 331 L 242 331 L 286 346 Z" fill="lightgray" class="stroke step7"/>
    <path d="M 280 182 Q 283 273 286 346 L 287 393 Q 287 394 288 395 Q 291 440 288 445 Q 278 455 267 462 C 242 479 218 479 229 451 Q 236 441 241 373 L 242 331 Q 242 273 242 169 C 242 139 279 152 280 182 Z" fill="lightgray" class="stroke step7"/>
    <path d="M 129 241 Q 148 225 167 204 Q 176 195 187 195 Q 194 196 198 205 Q 201 215 195 235 Q 192 248 171 259 Q 120 277 112 274 Q 108 273 109 263 Q 112 256 129 241 Z" fill="lightgray" class="stroke step7"/>
    <path d="M 345 312 Q 332 287 303 248 Q 299 244 303 240 Q 307 239 313 242 Q 365 285 392 302 Q 402 306 399 313 Q 395 323 382 333 Q 370 343 356 344 Q 346 343 348 331 Q 349 322 345 312 Z" fill="lightgray" class="stroke step7"/>
    <path d="M 242 169 Q 184 151 121 130 Q 105 126 80 125 Q 67 124 66 113 Q 65 100 74 93 Q 96 78 128 62 Q 138 61 149 68 Q 174 90 316 165 Q 335 175 349 187 Q 362 194 361 204 Q 357 208 344 206 Q 313 196 280 182 L 242 169 Z" fill="lightgray" class="stroke step7"/>
    <path d="M 507 615 Q 535 630 558 645 Q 595 669 630 682 Q 645 686 647 693 Q 648 703 636 712 Q 575 740 545 732 Q 539 728 540 717 Q 546 681 407 583 Q 403 574 410 572 Q 413 573 423 578 Q 439 584 468 597 L 507 615 Z" fill="lightgray" class="hide"/>
    <path d="M 530 448 Q 561 458 598 468 Q 629 478 633 482 Q 640 489 636 498 Q 629 508 601 512 Q 570 516 533 495 L 487 479 Q 480 478 476 476 Q 434 463 385 455 Q 352 446 378 433 Q 418 414 467 431 Q 471 432 480 434 L 530 448 Z" fill="lightgray" class="hide"/>
    <path d="M 527 326 Q 530 425 530 448 L 533 495 Q 536 532 545 560 Q 552 573 550 584 Q 544 593 507 615 C 481 631 456 625 468 597 Q 486 566 487 479 L 487 330 Q 478 132 478 125 Q 457 23 470 -5 Q 471 -12 477 -21 Q 481 -36 489 -39 Q 493 -45 500 -38 Q 507 -34 516 -16 Q 523 5 523 31 Q 523 62 527 301 L 527 326 Z" fill="lightgray" class="hide"/>
    <path d="M 480 434 Q 461 361 430 291 Q 393 210 302 62 Q 298 53 307 53 Q 328 53 426 205 Q 459 259 487 330 C 542 468 488 463 480 434 Z" fill="lightgray" class="hide"/>
    <path d="M 527 301 Q 578 250 593 249 Q 603 249 608 263 Q 609 273 601 289 Q 580 320 527 326 C 498 330 506 322 527 301 Z" fill="lightgray" class="hide"/>
    <path d="M 601 389 Q 643 335 651 333 Q 660 332 665 341 Q 671 351 669 375 Q 666 397 605 426 Q 593 432 588 430 Q 584 429 583 418 Q 584 409 601 389 Z" fill="lightgray" class="hide"/>
    <path d="M 855 529 Q 830 489 779 426 Q 773 419 779 411 Q 786 410 795 414 Q 889 483 935 508 Q 954 512 949 525 Q 942 541 922 562 Q 901 581 877 583 Q 861 582 862 561 Q 865 546 855 529 Z" fill="lightgray" class="hide"/>
    <path d="M 747 331 Q 754 407 762 648 Q 762 684 783 744 Q 790 759 779 770 Q 755 788 716 798 Q 691 805 682 797 Q 672 790 680 778 Q 746 673 697 312 Q 694 303 693 291 Q 666 174 555 92 Q 543 83 544 79 Q 545 75 557 75 Q 570 72 600 87 Q 718 138 741 289 L 747 331 Z" fill="lightgray" class="hide"/>
    <path d="M 741 289 Q 789 169 847 85 Q 860 63 877 60 Q 923 63 963 64 Q 979 65 980 69 Q 983 73 964 89 Q 825 191 747 331 C 732 357 730 317 741 289 Z" fill="lightgray" class="hide"/></g><g transform="scale(1, -1) translate(0, -900)">
    <style type="text/css">
        .origin {display:none;}
        .hide {display:none;}
        .stroke {fill: #000000;}
        
.step1 {transform: translateX(1024px);}
.step2 {transform: translateX(2048px);}
.step3 {transform: translateX(3072px);}
.step4 {transform: translateX(4096px);}
.step5 {transform: translateX(5120px);}
.step6 {transform: translateX(6144px);}
.step7 {transform: translateX(7168px);}
.step8 {transform: translateX(8192px);}
.step9 {transform: translateX(9216px);}
.step10 {transform: translateX(10240px);}
.step11 {transform: translateX(11264px);}
.step12 {transform: translateX(12288px);}
.step13 {transform: translateX(13312px);}
.step14 {transform: translateX(14336px);}
.step15 {transform: translateX(15360px);}
.step16 {transform: translateX(16384px);}
.step17 {transform: translateX(17408px);}
.step18 {transform: translateX(18432px);}
.step19 {transform: translateX(19456px);}
.step20 {transform: translateX(20480px);}
.step21 {transform: translateX(21504px);}
.step22 {transform: translateX(22528px);}
.step23 {transform: translateX(23552px);}
.step24 {transform: translateX(24576px);}
.step25 {transform: translateX(25600px);}
.step26 {transform: translateX(26624px);}
.step27 {transform: translateX(27648px);}
.step28 {transform: translateX(28672px);}
.step29 {transform: translateX(29696px);}
    </style>

    <path d="M 173 475 Q 225 547 301 681 L 313 701 Q 322 716 332 725 Q 341 735 336 749 Q 332 762 302 783 Q 275 799 256 799 Q 237 796 247 775 Q 263 744 251 716 Q 188 547 41 359 Q 32 349 30 342 Q 27 332 41 334 Q 74 343 165 464 L 173 475 Z" fill="lightgray" class="stroke step8"/>
    <path d="M 301 681 Q 305 677 315 670 Q 342 651 371 626 Q 381 617 391 619 Q 398 619 402 628 Q 403 638 397 659 Q 393 675 366 687 Q 342 696 313 701 C 283 706 279 701 301 681 Z" fill="lightgray" class="stroke step8"/>
    <path d="M 267 462 Q 360 495 363 498 Q 370 507 365 514 Q 356 524 329 526 Q 308 527 238 495 Q 181 480 173 475 C 159 469 159 469 165 464 Q 184 445 229 451 L 267 462 Z" fill="lightgray" class="stroke step8"/>
    <path d="M 286 346 Q 308 355 335 363 Q 359 372 362 376 Q 369 383 364 390 Q 357 400 331 402 Q 307 403 287 393 L 241 373 Q 171 351 151 345 Q 120 336 145 324 Q 187 312 240 331 L 242 331 L 286 346 Z" fill="lightgray" class="stroke step8"/>
    <path d="M 280 182 Q 283 273 286 346 L 287 393 Q 287 394 288 395 Q 291 440 288 445 Q 278 455 267 462 C 242 479 218 479 229 451 Q 236 441 241 373 L 242 331 Q 242 273 242 169 C 242 139 279 152 280 182 Z" fill="lightgray" class="stroke step8"/>
    <path d="M 129 241 Q 148 225 167 204 Q 176 195 187 195 Q 194 196 198 205 Q 201 215 195 235 Q 192 248 171 259 Q 120 277 112 274 Q 108 273 109 263 Q 112 256 129 241 Z" fill="lightgray" class="stroke step8"/>
    <path d="M 345 312 Q 332 287 303 248 Q 299 244 303 240 Q 307 239 313 242 Q 365 285 392 302 Q 402 306 399 313 Q 395 323 382 333 Q 370 343 356 344 Q 346 343 348 331 Q 349 322 345 312 Z" fill="lightgray" class="stroke step8"/>
    <path d="M 242 169 Q 184 151 121 130 Q 105 126 80 125 Q 67 124 66 113 Q 65 100 74 93 Q 96 78 128 62 Q 138 61 149 68 Q 174 90 316 165 Q 335 175 349 187 Q 362 194 361 204 Q 357 208 344 206 Q 313 196 280 182 L 242 169 Z" fill="lightgray" class="stroke step8"/>
    <path d="M 507 615 Q 535 630 558 645 Q 595 669 630 682 Q 645 686 647 693 Q 648 703 636 712 Q 575 740 545 732 Q 539 728 540 717 Q 546 681 407 583 Q 403 574 410 572 Q 413 573 423 578 Q 439 584 468 597 L 507 615 Z" fill="lightgray" class="stroke step8"/>
    <path d="M 530 448 Q 561 458 598 468 Q 629 478 633 482 Q 640 489 636 498 Q 629 508 601 512 Q 570 516 533 495 L 487 479 Q 480 478 476 476 Q 434 463 385 455 Q 352 446 378 433 Q 418 414 467 431 Q 471 432 480 434 L 530 448 Z" fill="lightgray" class="hide"/>
    <path d="M 527 326 Q 530 425 530 448 L 533 495 Q 536 532 545 560 Q 552 573 550 584 Q 544 593 507 615 C 481 631 456 625 468 597 Q 486 566 487 479 L 487 330 Q 478 132 478 125 Q 457 23 470 -5 Q 471 -12 477 -21 Q 481 -36 489 -39 Q 493 -45 500 -38 Q 507 -34 516 -16 Q 523 5 523 31 Q 523 62 527 301 L 527 326 Z" fill="lightgray" class="hide"/>
    <path d="M 480 434 Q 461 361 430 291 Q 393 210 302 62 Q 298 53 307 53 Q 328 53 426 205 Q 459 259 487 330 C 542 468 488 463 480 434 Z" fill="lightgray" class="hide"/>
    <path d="M 527 301 Q 578 250 593 249 Q 603 249 608 263 Q 609 273 601 289 Q 580 320 527 326 C 498 330 506 322 527 301 Z" fill="lightgray" class="hide"/>
    <path d="M 601 389 Q 643 335 651 333 Q 660 332 665 341 Q 671 351 669 375 Q 666 397 605 426 Q 593 432 588 430 Q 584 429 583 418 Q 584 409 601 389 Z" fill="lightgray" class="hide"/>
    <path d="M 855 529 Q 830 489 779 426 Q 773 419 779 411 Q 786 410 795 414 Q 889 483 935 508 Q 954 512 949 525 Q 942 541 922 562 Q 901 581 877 583 Q 861 582 862 561 Q 865 546 855 529 Z" fill="lightgray" class="hide"/>
    <path d="M 747 331 Q 754 407 762 648 Q 762 684 783 744 Q 790 759 779 770 Q 755 788 716 798 Q 691 805 682 797 Q 672 790 680 778 Q 746 673 697 312 Q 694 303 693 291 Q 666 174 555 92 Q 543 83 544 79 Q 545 75 557 75 Q 570 72 600 87 Q 718 138 741 289 L 747 331 Z" fill="lightgray" class="hide"/>
    <path d="M 741 289 Q 789 169 847 85 Q 860 63 877 60 Q 923 63 963 64 Q 979 65 980 69 Q 983 73 964 89 Q 825 191 747 331 C 732 357 730 317 741 289 Z" fill="lightgray" class="hide"/></g><g transform="scale(1, -1) translate(0, -900)">
    <style type="text/css">
        .origin {display:none;}
        .hide {display:none;}
        .stroke {fill: #000000;}
        
.step1 {transform: translateX(1024px);}
.step2 {transform: translateX(2048px);}
.step3 {transform: translateX(3072px);}
.step4 {transform: translateX(4096px);}
.step5 {transform: translateX(5120px);}
.step6 {transform: translateX(6144px);}
.step7 {transform: translateX(7168px);}
.step8 {transform: translateX(8192px);}
.step9 {transform: translateX(9216px);}
.step10 {transform: translateX(10240px);}
.step11 {transform: translateX(11264px);}
.step12 {transform: translateX(12288px);}
.step13 {transform: translateX(13312px);}
.step14 {transform: translateX(14336px);}
.step15 {transform: translateX(15360px);}
.step16 {transform: translateX(16384px);}
.step17 {transform: translateX(17408px);}
.step18 {transform: translateX(18432px);}
.step19 {transform: translateX(19456px);}
.step20 {transform: translateX(20480px);}
.step21 {transform: translateX(21504px);}
.step22 {transform: translateX(22528px);}
.step23 {transform: translateX(23552px);}
.step24 {transform: translateX(24576px);}
.step25 {transform: translateX(25600px);}
.step26 {transform: translateX(26624px);}
.step27 {transform: translateX(27648px);}
.step28 {transform: translateX(28672px);}
.step29 {transform: translateX(29696px);}
    </style>

    <path d="M 173 475 Q 225 547 301 681 L 313 701 Q 322 716 332 725 Q 341 735 336 749 Q 332 762 302 783 Q 275 799 256 799 Q 237 796 247 775 Q 263 744 251 716 Q 188 547 41 359 Q 32 349 30 342 Q 27 332 41 334 Q 74 343 165 464 L 173 475 Z" fill="lightgray" class="stroke step9"/>
    <path d="M 301 681 Q 305 677 315 670 Q 342 651 371 626 Q 381 617 391 619 Q 398 619 402 628 Q 403 638 397 659 Q 393 675 366 687 Q 342 696 313 701 C 283 706 279 701 301 681 Z" fill="lightgray" class="stroke step9"/>
    <path d="M 267 462 Q 360 495 363 498 Q 370 507 365 514 Q 356 524 329 526 Q 308 527 238 495 Q 181 480 173 475 C 159 469 159 469 165 464 Q 184 445 229 451 L 267 462 Z" fill="lightgray" class="stroke step9"/>
    <path d="M 286 346 Q 308 355 335 363 Q 359 372 362 376 Q 369 383 364 390 Q 357 400 331 402 Q 307 403 287 393 L 241 373 Q 171 351 151 345 Q 120 336 145 324 Q 187 312 240 331 L 242 331 L 286 346 Z" fill="lightgray" class="stroke step9"/>
    <path d="M 280 182 Q 283 273 286 346 L 287 393 Q 287 394 288 395 Q 291 440 288 445 Q 278 455 267 462 C 242 479 218 479 229 451 Q 236 441 241 373 L 242 331 Q 242 273 242 169 C 242 139 279 152 280 182 Z" fill="lightgray" class="stroke step9"/>
    <path d="M 129 241 Q 148 225 167 204 Q 176 195 187 195 Q 194 196 198 205 Q 201 215 195 235 Q 192 248 171 259 Q 120 277 112 274 Q 108 273 109 263 Q 112 256 129 241 Z" fill="lightgray" class="stroke step9"/>
    <path d="M 345 312 Q 332 287 303 248 Q 299 244 303 240 Q 307 239 313 242 Q 365 285 392 302 Q 402 306 399 313 Q 395 323 382 333 Q 370 343 356 344 Q 346 343 348 331 Q 349 322 345 312 Z" fill="lightgray" class="stroke step9"/>
    <path d="M 242 169 Q 184 151 121 130 Q 105 126 80 125 Q 67 124 66 113 Q 65 100 74 93 Q 96 78 128 62 Q 138 61 149 68 Q 174 90 316 165 Q 335 175 349 187 Q 362 194 361 204 Q 357 208 344 206 Q 313 196 280 182 L 242 169 Z" fill="lightgray" class="stroke step9"/>
    <path d="M 507 615 Q 535 630 558 645 Q 595 669 630 682 Q 645 686 647 693 Q 648 703 636 712 Q 575 740 545 732 Q 539 728 540 717 Q 546 681 407 583 Q 403 574 410 572 Q 413 573 423 578 Q 439 584 468 597 L 507 615 Z" fill="lightgray" class="stroke step9"/>
    <path d="M 530 448 Q 561 458 598 468 Q 629 478 633 482 Q 640 489 636 498 Q 629 508 601 512 Q 570 516 533 495 L 487 479 Q 480 478 476 476 Q 434 463 385 455 Q 352 446 378 433 Q 418 414 467 431 Q 471 432 480 434 L 530 448 Z" fill="lightgray" class="stroke step9"/>
    <path d="M 527 326 Q 530 425 530 448 L 533 495 Q 536 532 545 560 Q 552 573 550 584 Q 544 593 507 615 C 481 631 456 625 468 597 Q 486 566 487 479 L 487 330 Q 478 132 478 125 Q 457 23 470 -5 Q 471 -12 477 -21 Q 481 -36 489 -39 Q 493 -45 500 -38 Q 507 -34 516 -16 Q 523 5 523 31 Q 523 62 527 301 L 527 326 Z" fill="lightgray" class="hide"/>
    <path d="M 480 434 Q 461 361 430 291 Q 393 210 302 62 Q 298 53 307 53 Q 328 53 426 205 Q 459 259 487 330 C 542 468 488 463 480 434 Z" fill="lightgray" class="hide"/>
    <path d="M 527 301 Q 578 250 593 249 Q 603 249 608 263 Q 609 273 601 289 Q 580 320 527 326 C 498 330 506 322 527 301 Z" fill="lightgray" class="hide"/>
    <path d="M 601 389 Q 643 335 651 333 Q 660 332 665 341 Q 671 351 669 375 Q 666 397 605 426 Q 593 432 588 430 Q 584 429 583 418 Q 584 409 601 389 Z" fill="lightgray" class="hide"/>
    <path d="M 855 529 Q 830 489 779 426 Q 773 419 779 411 Q 786 410 795 414 Q 889 483 935 508 Q 954 512 949 525 Q 942 541 922 562 Q 901 581 877 583 Q 861 582 862 561 Q 865 546 855 529 Z" fill="lightgray" class="hide"/>
    <path d="M 747 331 Q 754 407 762 648 Q 762 684 783 744 Q 790 759 779 770 Q 755 788 716 798 Q 691 805 682 797 Q 672 790 680 778 Q 746 673 697 312 Q 694 303 693 291 Q 666 174 555 92 Q 543 83 544 79 Q 545 75 557 75 Q 570 72 600 87 Q 718 138 741 289 L 747 331 Z" fill="lightgray" class="hide"/>
    <path d="M 741 289 Q 789 169 847 85 Q 860 63 877 60 Q 923 63 963 64 Q 979 65 980 69 Q 983 73 964 89 Q 825 191 747 331 C 732 357 730 317 741 289 Z" fill="lightgray" class="hide"/></g><g transform="scale(1, -1) translate(0, -900)">
    <style type="text/css">
        .origin {display:none;}
        .hide {display:none;}
        .stroke {fill: #000000;}
        
.step1 {transform: translateX(1024px);}
.step2 {transform: translateX(2048px);}
.step3 {transform: translateX(3072px);}
.step4 {transform: translateX(4096px);}
.step5 {transform: translateX(5120px);}
.step6 {transform: translateX(6144px);}
.step7 {transform: translateX(7168px);}
.step8 {transform: translateX(8192px);}
.step9 {transform: translateX(9216px);}
.step10 {transform: translateX(10240px);}
.step11 {transform: translateX(11264px);}
.step12 {transform: translateX(12288px);}
.step13 {transform: translateX(13312px);}
.step14 {transform: translateX(14336px);}
.step15 {transform: translateX(15360px);}
.step16 {transform: translateX(16384px);}
.step17 {transform: translateX(17408px);}
.step18 {transform: translateX(18432px);}
.step19 {transform: translateX(19456px);}
.step20 {transform: translateX(20480px);}
.step21 {transform: translateX(21504px);}
.step22 {transform: translateX(22528px);}
.step23 {transform: translateX(23552px);}
.step24 {transform: translateX(24576px);}
.step25 {transform: translateX(25600px);}
.step26 {transform: translateX(26624px);}
.step27 {transform: translateX(27648px);}
.step28 {transform: translateX(28672px);}
.step29 {transform: translateX(29696px);}
    </style>

    <path d="M 173 475 Q 225 547 301 681 L 313 701 Q 322 716 332 725 Q 341 735 336 749 Q 332 762 302 783 Q 275 799 256 799 Q 237 796 247 775 Q 263 744 251 716 Q 188 547 41 359 Q 32 349 30 342 Q 27 332 41 334 Q 74 343 165 464 L 173 475 Z" fill="lightgray" class="stroke step10"/>
    <path d="M 301 681 Q 305 677 315 670 Q 342 651 371 626 Q 381 617 391 619 Q 398 619 402 628 Q 403 638 397 659 Q 393 675 366 687 Q 342 696 313 701 C 283 706 279 701 301 681 Z" fill="lightgray" class="stroke step10"/>
    <path d="M 267 462 Q 360 495 363 498 Q 370 507 365 514 Q 356 524 329 526 Q 308 527 238 495 Q 181 480 173 475 C 159 469 159 469 165 464 Q 184 445 229 451 L 267 462 Z" fill="lightgray" class="stroke step10"/>
    <path d="M 286 346 Q 308 355 335 363 Q 359 372 362 376 Q 369 383 364 390 Q 357 400 331 402 Q 307 403 287 393 L 241 373 Q 171 351 151 345 Q 120 336 145 324 Q 187 312 240 331 L 242 331 L 286 346 Z" fill="lightgray" class="stroke step10"/>
    <path d="M 280 182 Q 283 273 286 346 L 287 393 Q 287 394 288 395 Q 291 440 288 445 Q 278 455 267 462 C 242 479 218 479 229 451 Q 236 441 241 373 L 242 331 Q 242 273 242 169 C 242 139 279 152 280 182 Z" fill="lightgray" class="stroke step10"/>
    <path d="M 129 241 Q 148 225 167 204 Q 176 195 187 195 Q 194 196 198 205 Q 201 215 195 235 Q 192 248 171 259 Q 120 277 112 274 Q 108 273 109 263 Q 112 256 129 241 Z" fill="lightgray" class="stroke step10"/>
    <path d="M 345 312 Q 332 287 303 248 Q 299 244 303 240 Q 307 239 313 242 Q 365 285 392 302 Q 402 306 399 313 Q 395 323 382 333 Q 370 343 356 344 Q 346 343 348 331 Q 349 322 345 312 Z" fill="lightgray" class="stroke step10"/>
    <path d="M 242 169 Q 184 151 121 130 Q 105 126 80 125 Q 67 124 66 113 Q 65 100 74 93 Q 96 78 128 62 Q 138 61 149 68 Q 174 90 316 165 Q 335 175 349 187 Q 362 194 361 204 Q 357 208 344 206 Q 313 196 280 182 L 242 169 Z" fill="lightgray" class="stroke step10"/>
    <path d="M 507 615 Q 535 630 558 645 Q 595 669 630 682 Q 645 686 647 693 Q 648 703 636 712 Q 575 740 545 732 Q 539 728 540 717 Q 546 681 407 583 Q 403 574 410 572 Q 413 573 423 578 Q 439 584 468 597 L 507 615 Z" fill="lightgray" class="stroke step10"/>
    <path d="M 530 448 Q 561 458 598 468 Q 629 478 633 482 Q 640 489 636 498 Q 629 508 601 512 Q 570 516 533 495 L 487 479 Q 480 478 476 476 Q 434 463 385 455 Q 352 446 378 433 Q 418 414 467 431 Q 471 432 480 434 L 530 448 Z" fill="lightgray" class="stroke step10"/>
    <path d="M 527 326 Q 530 425 530 448 L 533 495 Q 536 532 545 560 Q 552 573 550 584 Q 544 593 507 615 C 481 631 456 625 468 597 Q 486 566 487 479 L 487 330 Q 478 132 478 125 Q 457 23 470 -5 Q 471 -12 477 -21 Q 481 -36 489 -39 Q 493 -45 500 -38 Q 507 -34 516 -16 Q 523 5 523 31 Q 523 62 527 301 L 527 326 Z" fill="lightgray" class="stroke step10"/>
    <path d="M 480 434 Q 461 361 430 291 Q 393 210 302 62 Q 298 53 307 53 Q 328 53 426 205 Q 459 259 487 330 C 542 468 488 463 480 434 Z" fill="lightgray" class="hide"/>
    <path d="M 527 301 Q 578 250 593 249 Q 603 249 608 263 Q 609 273 601 289 Q 580 320 527 326 C 498 330 506 322 527 301 Z" fill="lightgray" class="hide"/>
    <path d="M 601 389 Q 643 335 651 333 Q 660 332 665 341 Q 671 351 669 375 Q 666 397 605 426 Q 593 432 588 430 Q 584 429 583 418 Q 584 409 601 389 Z" fill="lightgray" class="hide"/>
    <path d="M 855 529 Q 830 489 779 426 Q 773 419 779 411 Q 786 410 795 414 Q 889 483 935 508 Q 954 512 949 525 Q 942 541 922 562 Q 901 581 877 583 Q 861 582 862 561 Q 865 546 855 529 Z" fill="lightgray" class="hide"/>
    <path d="M 747 331 Q 754 407 762 648 Q 762 684 783 744 Q 790 759 779 770 Q 755 788 716 798 Q 691 805 682 797 Q 672 790 680 778 Q 746 673 697 312 Q 694 303 693 291 Q 666 174 555 92 Q 543 83 544 79 Q 545 75 557 75 Q 570 72 600 87 Q 718 138 741 289 L 747 331 Z" fill="lightgray" class="hide"/>
    <path d="M 741 289 Q 789 169 847 85 Q 860 63 877 60 Q 923 63 963 64 Q 979 65 980 69 Q 983 73 964 89 Q 825 191 747 331 C 732 357 730 317 741 289 Z" fill="lightgray" class="hide"/></g><g transform="scale(1, -1) translate(0, -900)">
    <style type="text/css">
        .origin {display:none;}
        .hide {display:none;}
        .stroke {fill: #000000;}
        
.step1 {transform: translateX(1024px);}
.step2 {transform: translateX(2048px);}
.step3 {transform: translateX(3072px);}
.step4 {transform: translateX(4096px);}
.step5 {transform: translateX(5120px);}
.step6 {transform: translateX(6144px);}
.step7 {transform: translateX(7168px);}
.step8 {transform: translateX(8192px);}
.step9 {transform: translateX(9216px);}
.step10 {transform: translateX(10240px);}
.step11 {transform: translateX(11264px);}
.step12 {transform: translateX(12288px);}
.step13 {transform: translateX(13312px);}
.step14 {transform: translateX(14336px);}
.step15 {transform: translateX(15360px);}
.step16 {transform: translateX(16384px);}
.step17 {transform: translateX(17408px);}
.step18 {transform: translateX(18432px);}
.step19 {transform: translateX(19456px);}
.step20 {transform: translateX(20480px);}
.step21 {transform: translateX(21504px);}
.step22 {transform: translateX(22528px);}
.step23 {transform: translateX(23552px);}
.step24 {transform: translateX(24576px);}
.step25 {transform: translateX(25600px);}
.step26 {transform: translateX(26624px);}
.step27 {transform: translateX(27648px);}
.step28 {transform: translateX(28672px);}
.step29 {transform: translateX(29696px);}
    </style>

    <path d="M 173 475 Q 225 547 301 681 L 313 701 Q 322 716 332 725 Q 341 735 336 749 Q 332 762 302 783 Q 275 799 256 799 Q 237 796 247 775 Q 263 744 251 716 Q 188 547 41 359 Q 32 349 30 342 Q 27 332 41 334 Q 74 343 165 464 L 173 475 Z" fill="lightgray" class="stroke step11"/>
    <path d="M 301 681 Q 305 677 315 670 Q 342 651 371 626 Q 381 617 391 619 Q 398 619 402 628 Q 403 638 397 659 Q 393 675 366 687 Q 342 696 313 701 C 283 706 279 701 301 681 Z" fill="lightgray" class="stroke step11"/>
    <path d="M 267 462 Q 360 495 363 498 Q 370 507 365 514 Q 356 524 329 526 Q 308 527 238 495 Q 181 480 173 475 C 159 469 159 469 165 464 Q 184 445 229 451 L 267 462 Z" fill="lightgray" class="stroke step11"/>
    <path d="M 286 346 Q 308 355 335 363 Q 359 372 362 376 Q 369 383 364 390 Q 357 400 331 402 Q 307 403 287 393 L 241 373 Q 171 351 151 345 Q 120 336 145 324 Q 187 312 240 331 L 242 331 L 286 346 Z" fill="lightgray" class="stroke step11"/>
    <path d="M 280 182 Q 283 273 286 346 L 287 393 Q 287 394 288 395 Q 291 440 288 445 Q 278 455 267 462 C 242 479 218 479 229 451 Q 236 441 241 373 L 242 331 Q 242 273 242 169 C 242 139 279 152 280 182 Z" fill="lightgray" class="stroke step11"/>
    <path d="M 129 241 Q 148 225 167 204 Q 176 195 187 195 Q 194 196 198 205 Q 201 215 195 235 Q 192 248 171 259 Q 120 277 112 274 Q 108 273 109 263 Q 112 256 129 241 Z" fill="lightgray" class="stroke step11"/>
    <path d="M 345 312 Q 332 287 303 248 Q 299 244 303 240 Q 307 239 313 242 Q 365 285 392 302 Q 402 306 399 313 Q 395 323 382 333 Q 370 343 356 344 Q 346 343 348 331 Q 349 322 345 312 Z" fill="lightgray" class="stroke step11"/>
    <path d="M 242 169 Q 184 151 121 130 Q 105 126 80 125 Q 67 124 66 113 Q 65 100 74 93 Q 96 78 128 62 Q 138 61 149 68 Q 174 90 316 165 Q 335 175 349 187 Q 362 194 361 204 Q 357 208 344 206 Q 313 196 280 182 L 242 169 Z" fill="lightgray" class="stroke step11"/>
    <path d="M 507 615 Q 535 630 558 645 Q 595 669 630 682 Q 645 686 647 693 Q 648 703 636 712 Q 575 740 545 732 Q 539 728 540 717 Q 546 681 407 583 Q 403 574 410 572 Q 413 573 423 578 Q 439 584 468 597 L 507 615 Z" fill="lightgray" class="stroke step11"/>
    <path d="M 530 448 Q 561 458 598 468 Q 629 478 633 482 Q 640 489 636 498 Q 629 508 601 512 Q 570 516 533 495 L 487 479 Q 480 478 476 476 Q 434 463 385 455 Q 352 446 378 433 Q 418 414 467 431 Q 471 432 480 434 L 530 448 Z" fill="lightgray" class="stroke step11"/>
    <path d="M 527 326 Q 530 425 530 448 L 533 495 Q 536 532 545 560 Q 552 573 550 584 Q 544 593 507 615 C 481 631 456 625 468 597 Q 486 566 487 479 L 487 330 Q 478 132 478 125 Q 457 23 470 -5 Q 471 -12 477 -21 Q 481 -36 489 -39 Q 493 -45 500 -38 Q 507 -34 516 -16 Q 523 5 523 31 Q 523 62 527 301 L 527 326 Z" fill="lightgray" class="stroke step11"/>
    <path d="M 480 434 Q 461 361 430 291 Q 393 210 302 62 Q 298 53 307 53 Q 328 53 426 205 Q 459 259 487 330 C 542 468 488 463 480 434 Z" fill="lightgray" class="stroke step11"/>
    <path d="M 527 301 Q 578 250 593 249 Q 603 249 608 263 Q 609 273 601 289 Q 580 320 527 326 C 498 330 506 322 527 301 Z" fill="lightgray" class="hide"/>
    <path d="M 601 389 Q 643 335 651 333 Q 660 332 665 341 Q 671 351 669 375 Q 666 397 605 426 Q 593 432 588 430 Q 584 429 583 418 Q 584 409 601 389 Z" fill="lightgray" class="hide"/>
    <path d="M 855 529 Q 830 489 779 426 Q 773 419 779 411 Q 786 410 795 414 Q 889 483 935 508 Q 954 512 949 525 Q 942 541 922 562 Q 901 581 877 583 Q 861 582 862 561 Q 865 546 855 529 Z" fill="lightgray" class="hide"/>
    <path d="M 747 331 Q 754 407 762 648 Q 762 684 783 744 Q 790 759 779 770 Q 755 788 716 798 Q 691 805 682 797 Q 672 790 680 778 Q 746 673 697 312 Q 694 303 693 291 Q 666 174 555 92 Q 543 83 544 79 Q 545 75 557 75 Q 570 72 600 87 Q 718 138 741 289 L 747 331 Z" fill="lightgray" class="hide"/>
    <path d="M 741 289 Q 789 169 847 85 Q 860 63 877 60 Q 923 63 963 64 Q 979 65 980 69 Q 983 73 964 89 Q 825 191 747 331 C 732 357 730 317 741 289 Z" fill="lightgray" class="hide"/></g><g transform="scale(1, -1) translate(0, -900)">
    <style type="text/css">
        .origin {display:none;}
        .hide {display:none;}
        .stroke {fill: #000000;}
        
.step1 {transform: translateX(1024px);}
.step2 {transform: translateX(2048px);}
.step3 {transform: translateX(3072px);}
.step4 {transform: translateX(4096px);}
.step5 {transform: translateX(5120px);}
.step6 {transform: translateX(6144px);}
.step7 {transform: translateX(7168px);}
.step8 {transform: translateX(8192px);}
.step9 {transform: translateX(9216px);}
.step10 {transform: translateX(10240px);}
.step11 {transform: translateX(11264px);}
.step12 {transform: translateX(12288px);}
.step13 {transform: translateX(13312px);}
.step14 {transform: translateX(14336px);}
.step15 {transform: translateX(15360px);}
.step16 {transform: translateX(16384px);}
.step17 {transform: translateX(17408px);}
.step18 {transform: translateX(18432px);}
.step19 {transform: translateX(19456px);}
.step20 {transform: translateX(20480px);}
.step21 {transform: translateX(21504px);}
.step22 {transform: translateX(22528px);}
.step23 {transform: translateX(23552px);}
.step24 {transform: translateX(24576px);}
.step25 {transform: translateX(25600px);}
.step26 {transform: translateX(26624px);}
.step27 {transform: translateX(27648px);}
.step28 {transform: translateX(28672px);}
.step29 {transform: translateX(29696px);}
    </style>

    <path d="M 173 475 Q 225 547 301 681 L 313 701 Q 322 716 332 725 Q 341 735 336 749 Q 332 762 302 783 Q 275 799 256 799 Q 237 796 247 775 Q 263 744 251 716 Q 188 547 41 359 Q 32 349 30 342 Q 27 332 41 334 Q 74 343 165 464 L 173 475 Z" fill="lightgray" class="stroke step12"/>
    <path d="M 301 681 Q 305 677 315 670 Q 342 651 371 626 Q 381 617 391 619 Q 398 619 402 628 Q 403 638 397 659 Q 393 675 366 687 Q 342 696 313 701 C 283 706 279 701 301 681 Z" fill="lightgray" class="stroke step12"/>
    <path d="M 267 462 Q 360 495 363 498 Q 370 507 365 514 Q 356 524 329 526 Q 308 527 238 495 Q 181 480 173 475 C 159 469 159 469 165 464 Q 184 445 229 451 L 267 462 Z" fill="lightgray" class="stroke step12"/>
    <path d="M 286 346 Q 308 355 335 363 Q 359 372 362 376 Q 369 383 364 390 Q 357 400 331 402 Q 307 403 287 393 L 241 373 Q 171 351 151 345 Q 120 336 145 324 Q 187 312 240 331 L 242 331 L 286 346 Z" fill="lightgray" class="stroke step12"/>
    <path d="M 280 182 Q 283 273 286 346 L 287 393 Q 287 394 288 395 Q 291 440 288 445 Q 278 455 267 462 C 242 479 218 479 229 451 Q 236 441 241 373 L 242 331 Q 242 273 242 169 C 242 139 279 152 280 182 Z" fill="lightgray" class="stroke step12"/>
    <path d="M 129 241 Q 148 225 167 204 Q 176 195 187 195 Q 194 196 198 205 Q 201 215 195 235 Q 192 248 171 259 Q 120 277 112 274 Q 108 273 109 263 Q 112 256 129 241 Z" fill="lightgray" class="stroke step12"/>
    <path d="M 345 312 Q 332 287 303 248 Q 299 244 303 240 Q 307 239 313 242 Q 365 285 392 302 Q 402 306 399 313 Q 395 323 382 333 Q 370 343 356 344 Q 346 343 348 331 Q 349 322 345 312 Z" fill="lightgray" class="stroke step12"/>
    <path d="M 242 169 Q 184 151 121 130 Q 105 126 80 125 Q 67 124 66 113 Q 65 100 74 93 Q 96 78 128 62 Q 138 61 149 68 Q 174 90 316 165 Q 335 175 349 187 Q 362 194 361 204 Q 357 208 344 206 Q 313 196 280 182 L 242 169 Z" fill="lightgray" class="stroke step12"/>
    <path d="M 507 615 Q 535 630 558 645 Q 595 669 630 682 Q 645 686 647 693 Q 648 703 636 712 Q 575 740 545 732 Q 539 728 540 717 Q 546 681 407 583 Q 403 574 410 572 Q 413 573 423 578 Q 439 584 468 597 L 507 615 Z" fill="lightgray" class="stroke step12"/>
    <path d="M 530 448 Q 561 458 598 468 Q 629 478 633 482 Q 640 489 636 498 Q 629 508 601 512 Q 570 516 533 495 L 487 479 Q 480 478 476 476 Q 434 463 385 455 Q 352 446 378 433 Q 418 414 467 431 Q 471 432 480 434 L 530 448 Z" fill="lightgray" class="stroke step12"/>
    <path d="M 527 326 Q 530 425 530 448 L 533 495 Q 536 532 545 560 Q 552 573 550 584 Q 544 593 507 615 C 481 631 456 625 468 597 Q 486 566 487 479 L 487 330 Q 478 132 478 125 Q 457 23 470 -5 Q 471 -12 477 -21 Q 481 -36 489 -39 Q 493 -45 500 -38 Q 507 -34 516 -16 Q 523 5 523 31 Q 523 62 527 301 L 527 326 Z" fill="lightgray" class="stroke step12"/>
    <path d="M 480 434 Q 461 361 430 291 Q 393 210 302 62 Q 298 53 307 53 Q 328 53 426 205 Q 459 259 487 330 C 542 468 488 463 480 434 Z" fill="lightgray" class="stroke step12"/>
    <path d="M 527 301 Q 578 250 593 249 Q 603 249 608 263 Q 609 273 601 289 Q 580 320 527 326 C 498 330 506 322 527 301 Z" fill="lightgray" class="stroke step12"/>
    <path d="M 601 389 Q 643 335 651 333 Q 660 332 665 341 Q 671 351 669 375 Q 666 397 605 426 Q 593 432 588 430 Q 584 429 583 418 Q 584 409 601 389 Z" fill="lightgray" class="hide"/>
    <path d="M 855 529 Q 830 489 779 426 Q 773 419 779 411 Q 786 410 795 414 Q 889 483 935 508 Q 954 512 949 525 Q 942 541 922 562 Q 901 581 877 583 Q 861 582 862 561 Q 865 546 855 529 Z" fill="lightgray" class="hide"/>
    <path d="M 747 331 Q 754 407 762 648 Q 762 684 783 744 Q 790 759 779 770 Q 755 788 716 798 Q 691 805 682 797 Q 672 790 680 778 Q 746 673 697 312 Q 694 303 693 291 Q 666 174 555 92 Q 543 83 544 79 Q 545 75 557 75 Q 570 72 600 87 Q 718 138 741 289 L 747 331 Z" fill="lightgray" class="hide"/>
    <path d="M 741 289 Q 789 169 847 85 Q 860 63 877 60 Q 923 63 963 64 Q 979 65 980 69 Q 983 73 964 89 Q 825 191 747 331 C 732 357 730 317 741 289 Z" fill="lightgray" class="hide"/></g><g transform="scale(1, -1) translate(0, -900)">
    <style type="text/css">
        .origin {display:none;}
        .hide {display:none;}
        .stroke {fill: #000000;}
        
.step1 {transform: translateX(1024px);}
.step2 {transform: translateX(2048px);}
.step3 {transform: translateX(3072px);}
.step4 {transform: translateX(4096px);}
.step5 {transform: translateX(5120px);}
.step6 {transform: translateX(6144px);}
.step7 {transform: translateX(7168px);}
.step8 {transform: translateX(8192px);}
.step9 {transform: translateX(9216px);}
.step10 {transform: translateX(10240px);}
.step11 {transform: translateX(11264px);}
.step12 {transform: translateX(12288px);}
.step13 {transform: translateX(13312px);}
.step14 {transform: translateX(14336px);}
.step15 {transform: translateX(15360px);}
.step16 {transform: translateX(16384px);}
.step17 {transform: translateX(17408px);}
.step18 {transform: translateX(18432px);}
.step19 {transform: translateX(19456px);}
.step20 {transform: translateX(20480px);}
.step21 {transform: translateX(21504px);}
.step22 {transform: translateX(22528px);}
.step23 {transform: translateX(23552px);}
.step24 {transform: translateX(24576px);}
.step25 {transform: translateX(25600px);}
.step26 {transform: translateX(26624px);}
.step27 {transform: translateX(27648px);}
.step28 {transform: translateX(28672px);}
.step29 {transform: translateX(29696px);}
    </style>

    <path d="M 173 475 Q 225 547 301 681 L 313 701 Q 322 716 332 725 Q 341 735 336 749 Q 332 762 302 783 Q 275 799 256 799 Q 237 796 247 775 Q 263 744 251 716 Q 188 547 41 359 Q 32 349 30 342 Q 27 332 41 334 Q 74 343 165 464 L 173 475 Z" fill="lightgray" class="stroke step13"/>
    <path d="M 301 681 Q 305 677 315 670 Q 342 651 371 626 Q 381 617 391 619 Q 398 619 402 628 Q 403 638 397 659 Q 393 675 366 687 Q 342 696 313 701 C 283 706 279 701 301 681 Z" fill="lightgray" class="stroke step13"/>
    <path d="M 267 462 Q 360 495 363 498 Q 370 507 365 514 Q 356 524 329 526 Q 308 527 238 495 Q 181 480 173 475 C 159 469 159 469 165 464 Q 184 445 229 451 L 267 462 Z" fill="lightgray" class="stroke step13"/>
    <path d="M 286 346 Q 308 355 335 363 Q 359 372 362 376 Q 369 383 364 390 Q 357 400 331 402 Q 307 403 287 393 L 241 373 Q 171 351 151 345 Q 120 336 145 324 Q 187 312 240 331 L 242 331 L 286 346 Z" fill="lightgray" class="stroke step13"/>
    <path d="M 280 182 Q 283 273 286 346 L 287 393 Q 287 394 288 395 Q 291 440 288 445 Q 278 455 267 462 C 242 479 218 479 229 451 Q 236 441 241 373 L 242 331 Q 242 273 242 169 C 242 139 279 152 280 182 Z" fill="lightgray" class="stroke step13"/>
    <path d="M 129 241 Q 148 225 167 204 Q 176 195 187 195 Q 194 196 198 205 Q 201 215 195 235 Q 192 248 171 259 Q 120 277 112 274 Q 108 273 109 263 Q 112 256 129 241 Z" fill="lightgray" class="stroke step13"/>
    <path d="M 345 312 Q 332 287 303 248 Q 299 244 303 240 Q 307 239 313 242 Q 365 285 392 302 Q 402 306 399 313 Q 395 323 382 333 Q 370 343 356 344 Q 346 343 348 331 Q 349 322 345 312 Z" fill="lightgray" class="stroke step13"/>
    <path d="M 242 169 Q 184 151 121 130 Q 105 126 80 125 Q 67 124 66 113 Q 65 100 74 93 Q 96 78 128 62 Q 138 61 149 68 Q 174 90 316 165 Q 335 175 349 187 Q 362 194 361 204 Q 357 208 344 206 Q 313 196 280 182 L 242 169 Z" fill="lightgray" class="stroke step13"/>
    <path d="M 507 615 Q 535 630 558 645 Q 595 669 630 682 Q 645 686 647 693 Q 648 703 636 712 Q 575 740 545 732 Q 539 728 540 717 Q 546 681 407 583 Q 403 574 410 572 Q 413 573 423 578 Q 439 584 468 597 L 507 615 Z" fill="lightgray" class="stroke step13"/>
    <path d="M 530 448 Q 561 458 598 468 Q 629 478 633 482 Q 640 489 636 498 Q 629 508 601 512 Q 570 516 533 495 L 487 479 Q 480 478 476 476 Q 434 463 385 455 Q 352 446 378 433 Q 418 414 467 431 Q 471 432 480 434 L 530 448 Z" fill="lightgray" class="stroke step13"/>
    <path d="M 527 326 Q 530 425 530 448 L 533 495 Q 536 532 545 560 Q 552 573 550 584 Q 544 593 507 615 C 481 631 456 625 468 597 Q 486 566 487 479 L 487 330 Q 478 132 478 125 Q 457 23 470 -5 Q 471 -12 477 -21 Q 481 -36 489 -39 Q 493 -45 500 -38 Q 507 -34 516 -16 Q 523 5 523 31 Q 523 62 527 301 L 527 326 Z" fill="lightgray" class="stroke step13"/>
    <path d="M 480 434 Q 461 361 430 291 Q 393 210 302 62 Q 298 53 307 53 Q 328 53 426 205 Q 459 259 487 330 C 542 468 488 463 480 434 Z" fill="lightgray" class="stroke step13"/>
    <path d="M 527 301 Q 578 250 593 249 Q 603 249 608 263 Q 609 273 601 289 Q 580 320 527 326 C 498 330 506 322 527 301 Z" fill="lightgray" class="stroke step13"/>
    <path d="M 601 389 Q 643 335 651 333 Q 660 332 665 341 Q 671 351 669 375 Q 666 397 605 426 Q 593 432 588 430 Q 584 429 583 418 Q 584 409 601 389 Z" fill="lightgray" class="stroke step13"/>
    <path d="M 855 529 Q 830 489 779 426 Q 773 419 779 411 Q 786 410 795 414 Q 889 483 935 508 Q 954 512 949 525 Q 942 541 922 562 Q 901 581 877 583 Q 861 582 862 561 Q 865 546 855 529 Z" fill="lightgray" class="hide"/>
    <path d="M 747 331 Q 754 407 762 648 Q 762 684 783 744 Q 790 759 779 770 Q 755 788 716 798 Q 691 805 682 797 Q 672 790 680 778 Q 746 673 697 312 Q 694 303 693 291 Q 666 174 555 92 Q 543 83 544 79 Q 545 75 557 75 Q 570 72 600 87 Q 718 138 741 289 L 747 331 Z" fill="lightgray" class="hide"/>
    <path d="M 741 289 Q 789 169 847 85 Q 860 63 877 60 Q 923 63 963 64 Q 979 65 980 69 Q 983 73 964 89 Q 825 191 747 331 C 732 357 730 317 741 289 Z" fill="lightgray" class="hide"/></g><g transform="scale(1, -1) translate(0, -900)">
    <style type="text/css">
        .origin {display:none;}
        .hide {display:none;}
        .stroke {fill: #000000;}
        
.step1 {transform: translateX(1024px);}
.step2 {transform: translateX(2048px);}
.step3 {transform: translateX(3072px);}
.step4 {transform: translateX(4096px);}
.step5 {transform: translateX(5120px);}
.step6 {transform: translateX(6144px);}
.step7 {transform: translateX(7168px);}
.step8 {transform: translateX(8192px);}
.step9 {transform: translateX(9216px);}
.step10 {transform: translateX(10240px);}
.step11 {transform: translateX(11264px);}
.step12 {transform: translateX(12288px);}
.step13 {transform: translateX(13312px);}
.step14 {transform: translateX(14336px);}
.step15 {transform: translateX(15360px);}
.step16 {transform: translateX(16384px);}
.step17 {transform: translateX(17408px);}
.step18 {transform: translateX(18432px);}
.step19 {transform: translateX(19456px);}
.step20 {transform: translateX(20480px);}
.step21 {transform: translateX(21504px);}
.step22 {transform: translateX(22528px);}
.step23 {transform: translateX(23552px);}
.step24 {transform: translateX(24576px);}
.step25 {transform: translateX(25600px);}
.step26 {transform: translateX(26624px);}
.step27 {transform: translateX(27648px);}
.step28 {transform: translateX(28672px);}
.step29 {transform: translateX(29696px);}
    </style>

    <path d="M 173 475 Q 225 547 301 681 L 313 701 Q 322 716 332 725 Q 341 735 336 749 Q 332 762 302 783 Q 275 799 256 799 Q 237 796 247 775 Q 263 744 251 716 Q 188 547 41 359 Q 32 349 30 342 Q 27 332 41 334 Q 74 343 165 464 L 173 475 Z" fill="lightgray" class="stroke step14"/>
    <path d="M 301 681 Q 305 677 315 670 Q 342 651 371 626 Q 381 617 391 619 Q 398 619 402 628 Q 403 638 397 659 Q 393 675 366 687 Q 342 696 313 701 C 283 706 279 701 301 681 Z" fill="lightgray" class="stroke step14"/>
    <path d="M 267 462 Q 360 495 363 498 Q 370 507 365 514 Q 356 524 329 526 Q 308 527 238 495 Q 181 480 173 475 C 159 469 159 469 165 464 Q 184 445 229 451 L 267 462 Z" fill="lightgray" class="stroke step14"/>
    <path d="M 286 346 Q 308 355 335 363 Q 359 372 362 376 Q 369 383 364 390 Q 357 400 331 402 Q 307 403 287 393 L 241 373 Q 171 351 151 345 Q 120 336 145 324 Q 187 312 240 331 L 242 331 L 286 346 Z" fill="lightgray" class="stroke step14"/>
    <path d="M 280 182 Q 283 273 286 346 L 287 393 Q 287 394 288 395 Q 291 440 288 445 Q 278 455 267 462 C 242 479 218 479 229 451 Q 236 441 241 373 L 242 331 Q 242 273 242 169 C 242 139 279 152 280 182 Z" fill="lightgray" class="stroke step14"/>
    <path d="M 129 241 Q 148 225 167 204 Q 176 195 187 195 Q 194 196 198 205 Q 201 215 195 235 Q 192 248 171 259 Q 120 277 112 274 Q 108 273 109 263 Q 112 256 129 241 Z" fill="lightgray" class="stroke step14"/>
    <path d="M 345 312 Q 332 287 303 248 Q 299 244 303 240 Q 307 239 313 242 Q 365 285 392 302 Q 402 306 399 313 Q 395 323 382 333 Q 370 343 356 344 Q 346 343 348 331 Q 349 322 345 312 Z" fill="lightgray" class="stroke step14"/>
    <path d="M 242 169 Q 184 151 121 130 Q 105 126 80 125 Q 67 124 66 113 Q 65 100 74 93 Q 96 78 128 62 Q 138 61 149 68 Q 174 90 316 165 Q 335 175 349 187 Q 362 194 361 204 Q 357 208 344 206 Q 313 196 280 182 L 242 169 Z" fill="lightgray" class="stroke step14"/>
    <path d="M 507 615 Q 535 630 558 645 Q 595 669 630 682 Q 645 686 647 693 Q 648 703 636 712 Q 575 740 545 732 Q 539 728 540 717 Q 546 681 407 583 Q 403 574 410 572 Q 413 573 423 578 Q 439 584 468 597 L 507 615 Z" fill="lightgray" class="stroke step14"/>
    <path d="M 530 448 Q 561 458 598 468 Q 629 478 633 482 Q 640 489 636 498 Q 629 508 601 512 Q 570 516 533 495 L 487 479 Q 480 478 476 476 Q 434 463 385 455 Q 352 446 378 433 Q 418 414 467 431 Q 471 432 480 434 L 530 448 Z" fill="lightgray" class="stroke step14"/>
    <path d="M 527 326 Q 530 425 530 448 L 533 495 Q 536 532 545 560 Q 552 573 550 584 Q 544 593 507 615 C 481 631 456 625 468 597 Q 486 566 487 479 L 487 330 Q 478 132 478 125 Q 457 23 470 -5 Q 471 -12 477 -21 Q 481 -36 489 -39 Q 493 -45 500 -38 Q 507 -34 516 -16 Q 523 5 523 31 Q 523 62 527 301 L 527 326 Z" fill="lightgray" class="stroke step14"/>
    <path d="M 480 434 Q 461 361 430 291 Q 393 210 302 62 Q 298 53 307 53 Q 328 53 426 205 Q 459 259 487 330 C 542 468 488 463 480 434 Z" fill="lightgray" class="stroke step14"/>
    <path d="M 527 301 Q 578 250 593 249 Q 603 249 608 263 Q 609 273 601 289 Q 580 320 527 326 C 498 330 506 322 527 301 Z" fill="lightgray" class="stroke step14"/>
    <path d="M 601 389 Q 643 335 651 333 Q 660 332 665 341 Q 671 351 669 375 Q 666 397 605 426 Q 593 432 588 430 Q 584 429 583 418 Q 584 409 601 389 Z" fill="lightgray" class="stroke step14"/>
    <path d="M 855 529 Q 830 489 779 426 Q 773 419 779 411 Q 786 410 795 414 Q 889 483 935 508 Q 954 512 949 525 Q 942 541 922 562 Q 901 581 877 583 Q 861 582 862 561 Q 865 546 855 529 Z" fill="lightgray" class="stroke step14"/>
    <path d="M 747 331 Q 754 407 762 648 Q 762 684 783 744 Q 790 759 779 770 Q 755 788 716 798 Q 691 805 682 797 Q 672 790 680 778 Q 746 673 697 312 Q 694 303 693 291 Q 666 174 555 92 Q 543 83 544 79 Q 545 75 557 75 Q 570 72 600 87 Q 718 138 741 289 L 747 331 Z" fill="lightgray" class="hide"/>
    <path d="M 741 289 Q 789 169 847 85 Q 860 63 877 60 Q 923 63 963 64 Q 979 65 980 69 Q 983 73 964 89 Q 825 191 747 331 C 732 357 730 317 741 289 Z" fill="lightgray" class="hide"/></g><g transform="scale(1, -1) translate(0, -900)">
    <style type="text/css">
        .origin {display:none;}
        .hide {display:none;}
        .stroke {fill: #000000;}
        
.step1 {transform: translateX(1024px);}
.step2 {transform: translateX(2048px);}
.step3 {transform: translateX(3072px);}
.step4 {transform: translateX(4096px);}
.step5 {transform: translateX(5120px);}
.step6 {transform: translateX(6144px);}
.step7 {transform: translateX(7168px);}
.step8 {transform: translateX(8192px);}
.step9 {transform: translateX(9216px);}
.step10 {transform: translateX(10240px);}
.step11 {transform: translateX(11264px);}
.step12 {transform: translateX(12288px);}
.step13 {transform: translateX(13312px);}
.step14 {transform: translateX(14336px);}
.step15 {transform: translateX(15360px);}
.step16 {transform: translateX(16384px);}
.step17 {transform: translateX(17408px);}
.step18 {transform: translateX(18432px);}
.step19 {transform: translateX(19456px);}
.step20 {transform: translateX(20480px);}
.step21 {transform: translateX(21504px);}
.step22 {transform: translateX(22528px);}
.step23 {transform: translateX(23552px);}
.step24 {transform: translateX(24576px);}
.step25 {transform: translateX(25600px);}
.step26 {transform: translateX(26624px);}
.step27 {transform: translateX(27648px);}
.step28 {transform: translateX(28672px);}
.step29 {transform: translateX(29696px);}
    </style>

    <path d="M 173 475 Q 225 547 301 681 L 313 701 Q 322 716 332 725 Q 341 735 336 749 Q 332 762 302 783 Q 275 799 256 799 Q 237 796 247 775 Q 263 744 251 716 Q 188 547 41 359 Q 32 349 30 342 Q 27 332 41 334 Q 74 343 165 464 L 173 475 Z" fill="lightgray" class="stroke step15"/>
    <path d="M 301 681 Q 305 677 315 670 Q 342 651 371 626 Q 381 617 391 619 Q 398 619 402 628 Q 403 638 397 659 Q 393 675 366 687 Q 342 696 313 701 C 283 706 279 701 301 681 Z" fill="lightgray" class="stroke step15"/>
    <path d="M 267 462 Q 360 495 363 498 Q 370 507 365 514 Q 356 524 329 526 Q 308 527 238 495 Q 181 480 173 475 C 159 469 159 469 165 464 Q 184 445 229 451 L 267 462 Z" fill="lightgray" class="stroke step15"/>
    <path d="M 286 346 Q 308 355 335 363 Q 359 372 362 376 Q 369 383 364 390 Q 357 400 331 402 Q 307 403 287 393 L 241 373 Q 171 351 151 345 Q 120 336 145 324 Q 187 312 240 331 L 242 331 L 286 346 Z" fill="lightgray" class="stroke step15"/>
    <path d="M 280 182 Q 283 273 286 346 L 287 393 Q 287 394 288 395 Q 291 440 288 445 Q 278 455 267 462 C 242 479 218 479 229 451 Q 236 441 241 373 L 242 331 Q 242 273 242 169 C 242 139 279 152 280 182 Z" fill="lightgray" class="stroke step15"/>
    <path d="M 129 241 Q 148 225 167 204 Q 176 195 187 195 Q 194 196 198 205 Q 201 215 195 235 Q 192 248 171 259 Q 120 277 112 274 Q 108 273 109 263 Q 112 256 129 241 Z" fill="lightgray" class="stroke step15"/>
    <path d="M 345 312 Q 332 287 303 248 Q 299 244 303 240 Q 307 239 313 242 Q 365 285 392 302 Q 402 306 399 313 Q 395 323 382 333 Q 370 343 356 344 Q 346 343 348 331 Q 349 322 345 312 Z" fill="lightgray" class="stroke step15"/>
    <path d="M 242 169 Q 184 151 121 130 Q 105 126 80 125 Q 67 124 66 113 Q 65 100 74 93 Q 96 78 128 62 Q 138 61 149 68 Q 174 90 316 165 Q 335 175 349 187 Q 362 194 361 204 Q 357 208 344 206 Q 313 196 280 182 L 242 169 Z" fill="lightgray" class="stroke step15"/>
    <path d="M 507 615 Q 535 630 558 645 Q 595 669 630 682 Q 645 686 647 693 Q 648 703 636 712 Q 575 740 545 732 Q 539 728 540 717 Q 546 681 407 583 Q 403 574 410 572 Q 413 573 423 578 Q 439 584 468 597 L 507 615 Z" fill="lightgray" class="stroke step15"/>
    <path d="M 530 448 Q 561 458 598 468 Q 629 478 633 482 Q 640 489 636 498 Q 629 508 601 512 Q 570 516 533 495 L 487 479 Q 480 478 476 476 Q 434 463 385 455 Q 352 446 378 433 Q 418 414 467 431 Q 471 432 480 434 L 530 448 Z" fill="lightgray" class="stroke step15"/>
    <path d="M 527 326 Q 530 425 530 448 L 533 495 Q 536 532 545 560 Q 552 573 550 584 Q 544 593 507 615 C 481 631 456 625 468 597 Q 486 566 487 479 L 487 330 Q 478 132 478 125 Q 457 23 470 -5 Q 471 -12 477 -21 Q 481 -36 489 -39 Q 493 -45 500 -38 Q 507 -34 516 -16 Q 523 5 523 31 Q 523 62 527 301 L 527 326 Z" fill="lightgray" class="stroke step15"/>
    <path d="M 480 434 Q 461 361 430 291 Q 393 210 302 62 Q 298 53 307 53 Q 328 53 426 205 Q 459 259 487 330 C 542 468 488 463 480 434 Z" fill="lightgray" class="stroke step15"/>
    <path d="M 527 301 Q 578 250 593 249 Q 603 249 608 263 Q 609 273 601 289 Q 580 320 527 326 C 498 330 506 322 527 301 Z" fill="lightgray" class="stroke step15"/>
    <path d="M 601 389 Q 643 335 651 333 Q 660 332 665 341 Q 671 351 669 375 Q 666 397 605 426 Q 593 432 588 430 Q 584 429 583 418 Q 584 409 601 389 Z" fill="lightgray" class="stroke step15"/>
    <path d="M 855 529 Q 830 489 779 426 Q 773 419 779 411 Q 786 410 795 414 Q 889 483 935 508 Q 954 512 949 525 Q 942 541 922 562 Q 901 581 877 583 Q 861 582 862 561 Q 865 546 855 529 Z" fill="lightgray" class="stroke step15"/>
    <path d="M 747 331 Q 754 407 762 648 Q 762 684 783 744 Q 790 759 779 770 Q 755 788 716 798 Q 691 805 682 797 Q 672 790 680 778 Q 746 673 697 312 Q 694 303 693 291 Q 666 174 555 92 Q 543 83 544 79 Q 545 75 557 75 Q 570 72 600 87 Q 718 138 741 289 L 747 331 Z" fill="lightgray" class="stroke step15"/>
    <path d="M 741 289 Q 789 169 847 85 Q 860 63 877 60 Q 923 63 963 64 Q 979 65 980 69 Q 983 73 964 89 Q 825 191 747 331 C 732 357 730 317 741 289 Z" fill="lightgray" class="hide"/></g><g transform="scale(1, -1) translate(0, -900)">
    <style type="text/css">
        .origin {display:none;}
        .hide {display:none;}
        .stroke {fill: #000000;}
        
.step1 {transform: translateX(1024px);}
.step2 {transform: translateX(2048px);}
.step3 {transform: translateX(3072px);}
.step4 {transform: translateX(4096px);}
.step5 {transform: translateX(5120px);}
.step6 {transform: translateX(6144px);}
.step7 {transform: translateX(7168px);}
.step8 {transform: translateX(8192px);}
.step9 {transform: translateX(9216px);}
.step10 {transform: translateX(10240px);}
.step11 {transform: translateX(11264px);}
.step12 {transform: translateX(12288px);}
.step13 {transform: translateX(13312px);}
.step14 {transform: translateX(14336px);}
.step15 {transform: translateX(15360px);}
.step16 {transform: translateX(16384px);}
.step17 {transform: translateX(17408px);}
.step18 {transform: translateX(18432px);}
.step19 {transform: translateX(19456px);}
.step20 {transform: translateX(20480px);}
.step21 {transform: translateX(21504px);}
.step22 {transform: translateX(22528px);}
.step23 {transform: translateX(23552px);}
.step24 {transform: translateX(24576px);}
.step25 {transform: translateX(25600px);}
.step26 {transform: translateX(26624px);}
.step27 {transform: translateX(27648px);}
.step28 {transform: translateX(28672px);}
.step29 {transform: translateX(29696px);}
    </style>

    <path d="M 173 475 Q 225 547 301 681 L 313 701 Q 322 716 332 725 Q 341 735 336 749 Q 332 762 302 783 Q 275 799 256 799 Q 237 796 247 775 Q 263 744 251 716 Q 188 547 41 359 Q 32 349 30 342 Q 27 332 41 334 Q 74 343 165 464 L 173 475 Z" fill="lightgray" class="stroke step16"/>
    <path d="M 301 681 Q 305 677 315 670 Q 342 651 371 626 Q 381 617 391 619 Q 398 619 402 628 Q 403 638 397 659 Q 393 675 366 687 Q 342 696 313 701 C 283 706 279 701 301 681 Z" fill="lightgray" class="stroke step16"/>
    <path d="M 267 462 Q 360 495 363 498 Q 370 507 365 514 Q 356 524 329 526 Q 308 527 238 495 Q 181 480 173 475 C 159 469 159 469 165 464 Q 184 445 229 451 L 267 462 Z" fill="lightgray" class="stroke step16"/>
    <path d="M 286 346 Q 308 355 335 363 Q 359 372 362 376 Q 369 383 364 390 Q 357 400 331 402 Q 307 403 287 393 L 241 373 Q 171 351 151 345 Q 120 336 145 324 Q 187 312 240 331 L 242 331 L 286 346 Z" fill="lightgray" class="stroke step16"/>
    <path d="M 280 182 Q 283 273 286 346 L 287 393 Q 287 394 288 395 Q 291 440 288 445 Q 278 455 267 462 C 242 479 218 479 229 451 Q 236 441 241 373 L 242 331 Q 242 273 242 169 C 242 139 279 152 280 182 Z" fill="lightgray" class="stroke step16"/>
    <path d="M 129 241 Q 148 225 167 204 Q 176 195 187 195 Q 194 196 198 205 Q 201 215 195 235 Q 192 248 171 259 Q 120 277 112 274 Q 108 273 109 263 Q 112 256 129 241 Z" fill="lightgray" class="stroke step16"/>
    <path d="M 345 312 Q 332 287 303 248 Q 299 244 303 240 Q 307 239 313 242 Q 365 285 392 302 Q 402 306 399 313 Q 395 323 382 333 Q 370 343 356 344 Q 346 343 348 331 Q 349 322 345 312 Z" fill="lightgray" class="stroke step16"/>
    <path d="M 242 169 Q 184 151 121 130 Q 105 126 80 125 Q 67 124 66 113 Q 65 100 74 93 Q 96 78 128 62 Q 138 61 149 68 Q 174 90 316 165 Q 335 175 349 187 Q 362 194 361 204 Q 357 208 344 206 Q 313 196 280 182 L 242 169 Z" fill="lightgray" class="stroke step16"/>
    <path d="M 507 615 Q 535 630 558 645 Q 595 669 630 682 Q 645 686 647 693 Q 648 703 636 712 Q 575 740 545 732 Q 539 728 540 717 Q 546 681 407 583 Q 403 574 410 572 Q 413 573 423 578 Q 439 584 468 597 L 507 615 Z" fill="lightgray" class="stroke step16"/>
    <path d="M 530 448 Q 561 458 598 468 Q 629 478 633 482 Q 640 489 636 498 Q 629 508 601 512 Q 570 516 533 495 L 487 479 Q 480 478 476 476 Q 434 463 385 455 Q 352 446 378 433 Q 418 414 467 431 Q 471 432 480 434 L 530 448 Z" fill="lightgray" class="stroke step16"/>
    <path d="M 527 326 Q 530 425 530 448 L 533 495 Q 536 532 545 560 Q 552 573 550 584 Q 544 593 507 615 C 481 631 456 625 468 597 Q 486 566 487 479 L 487 330 Q 478 132 478 125 Q 457 23 470 -5 Q 471 -12 477 -21 Q 481 -36 489 -39 Q 493 -45 500 -38 Q 507 -34 516 -16 Q 523 5 523 31 Q 523 62 527 301 L 527 326 Z" fill="lightgray" class="stroke step16"/>
    <path d="M 480 434 Q 461 361 430 291 Q 393 210 302 62 Q 298 53 307 53 Q 328 53 426 205 Q 459 259 487 330 C 542 468 488 463 480 434 Z" fill="lightgray" class="stroke step16"/>
    <path d="M 527 301 Q 578 250 593 249 Q 603 249 608 263 Q 609 273 601 289 Q 580 320 527 326 C 498 330 506 322 527 301 Z" fill="lightgray" class="stroke step16"/>
    <path d="M 601 389 Q 643 335 651 333 Q 660 332 665 341 Q 671 351 669 375 Q 666 397 605 426 Q 593 432 588 430 Q 584 429 583 418 Q 584 409 601 389 Z" fill="lightgray" class="stroke step16"/>
    <path d="M 855 529 Q 830 489 779 426 Q 773 419 779 411 Q 786 410 795 414 Q 889 483 935 508 Q 954 512 949 525 Q 942 541 922 562 Q 901 581 877 583 Q 861 582 862 561 Q 865 546 855 529 Z" fill="lightgray" class="stroke step16"/>
    <path d="M 747 331 Q 754 407 762 648 Q 762 684 783 744 Q 790 759 779 770 Q 755 788 716 798 Q 691 805 682 797 Q 672 790 680 778 Q 746 673 697 312 Q 694 303 693 291 Q 666 174 555 92 Q 543 83 544 79 Q 545 75 557 75 Q 570 72 600 87 Q 718 138 741 289 L 747 331 Z" fill="lightgray" class="stroke step16"/>
    <path d="M 741 289 Q 789 169 847 85 Q 860 63 877 60 Q 923 63 963 64 Q 979 65 980 69 Q 983 73 964 89 Q 825 191 747 331 C 732 357 730 317 741 289 Z" fill="lightgray" class="stroke step16"/></g></svg>