<svg version="1.1" viewBox="0 0 3072 1024" xmlns="http://www.w3.org/2000/svg">
  
  <g transform="scale(1, -1) translate(0, -900)" class="origin">
    <style type="text/css">
        .origin {display:none;}
        .hide {display:none;}
        .stroke {fill: #000000;}
        
.step1 {transform: translateX(1024px);}
.step2 {transform: translateX(2048px);}
.step3 {transform: translateX(3072px);}
.step4 {transform: translateX(4096px);}
.step5 {transform: translateX(5120px);}
.step6 {transform: translateX(6144px);}
.step7 {transform: translateX(7168px);}
.step8 {transform: translateX(8192px);}
.step9 {transform: translateX(9216px);}
.step10 {transform: translateX(10240px);}
.step11 {transform: translateX(11264px);}
.step12 {transform: translateX(12288px);}
.step13 {transform: translateX(13312px);}
.step14 {transform: translateX(14336px);}
.step15 {transform: translateX(15360px);}
.step16 {transform: translateX(16384px);}
.step17 {transform: translateX(17408px);}
.step18 {transform: translateX(18432px);}
.step19 {transform: translateX(19456px);}
.step20 {transform: translateX(20480px);}
.step21 {transform: translateX(21504px);}
.step22 {transform: translateX(22528px);}
.step23 {transform: translateX(23552px);}
.step24 {transform: translateX(24576px);}
.step25 {transform: translateX(25600px);}
.step26 {transform: translateX(26624px);}
.step27 {transform: translateX(27648px);}
.step28 {transform: translateX(28672px);}
.step29 {transform: translateX(29696px);}
    </style>

    <path d="M 299 746 Q 359 655 388 651 Q 404 647 415 669 Q 419 685 409 711 Q 399 733 371 747 Q 328 774 308 779 Q 296 783 294 768 Q 291 758 299 746 Z" fill="lightgray"/>
    <path d="M 180 682 Q 205 622 204 550 Q 205 277 161 146 Q 139 83 178 38 Q 191 22 203 38 Q 242 80 244 243 Q 250 564 267 644 Q 270 665 251 676 Q 226 698 194 708 Q 184 711 176 701 Q 172 694 180 682 Z" fill="lightgray"/>
    <path d="M 519 749 Q 500 750 505 738 Q 512 725 537 712 Q 553 702 618 719 Q 732 755 754 717 Q 761 698 765 648 Q 783 405 769 128 Q 768 88 753 76 Q 738 66 666 85 Q 650 89 650 79 Q 651 72 664 64 Q 728 16 762 -21 Q 784 -42 797 -39 Q 810 -36 822 -6 Q 838 40 837 110 Q 819 498 822 642 Q 822 685 835 709 Q 848 733 836 745 Q 826 761 775 787 Q 754 797 689 779 Q 598 758 519 749 Z" fill="lightgray"/></g>
<g transform="scale(1, -1) translate(0, -900)">
    <style type="text/css">
        .origin {display:none;}
        .hide {display:none;}
        .stroke {fill: #000000;}
        
.step1 {transform: translateX(1024px);}
.step2 {transform: translateX(2048px);}
.step3 {transform: translateX(3072px);}
.step4 {transform: translateX(4096px);}
.step5 {transform: translateX(5120px);}
.step6 {transform: translateX(6144px);}
.step7 {transform: translateX(7168px);}
.step8 {transform: translateX(8192px);}
.step9 {transform: translateX(9216px);}
.step10 {transform: translateX(10240px);}
.step11 {transform: translateX(11264px);}
.step12 {transform: translateX(12288px);}
.step13 {transform: translateX(13312px);}
.step14 {transform: translateX(14336px);}
.step15 {transform: translateX(15360px);}
.step16 {transform: translateX(16384px);}
.step17 {transform: translateX(17408px);}
.step18 {transform: translateX(18432px);}
.step19 {transform: translateX(19456px);}
.step20 {transform: translateX(20480px);}
.step21 {transform: translateX(21504px);}
.step22 {transform: translateX(22528px);}
.step23 {transform: translateX(23552px);}
.step24 {transform: translateX(24576px);}
.step25 {transform: translateX(25600px);}
.step26 {transform: translateX(26624px);}
.step27 {transform: translateX(27648px);}
.step28 {transform: translateX(28672px);}
.step29 {transform: translateX(29696px);}
    </style>

    <path d="M 299 746 Q 359 655 388 651 Q 404 647 415 669 Q 419 685 409 711 Q 399 733 371 747 Q 328 774 308 779 Q 296 783 294 768 Q 291 758 299 746 Z" fill="lightgray" class="stroke step0"/>
    <path d="M 180 682 Q 205 622 204 550 Q 205 277 161 146 Q 139 83 178 38 Q 191 22 203 38 Q 242 80 244 243 Q 250 564 267 644 Q 270 665 251 676 Q 226 698 194 708 Q 184 711 176 701 Q 172 694 180 682 Z" fill="lightgray" class="hide"/>
    <path d="M 519 749 Q 500 750 505 738 Q 512 725 537 712 Q 553 702 618 719 Q 732 755 754 717 Q 761 698 765 648 Q 783 405 769 128 Q 768 88 753 76 Q 738 66 666 85 Q 650 89 650 79 Q 651 72 664 64 Q 728 16 762 -21 Q 784 -42 797 -39 Q 810 -36 822 -6 Q 838 40 837 110 Q 819 498 822 642 Q 822 685 835 709 Q 848 733 836 745 Q 826 761 775 787 Q 754 797 689 779 Q 598 758 519 749 Z" fill="lightgray" class="hide"/></g><g transform="scale(1, -1) translate(0, -900)">
    <style type="text/css">
        .origin {display:none;}
        .hide {display:none;}
        .stroke {fill: #000000;}
        
.step1 {transform: translateX(1024px);}
.step2 {transform: translateX(2048px);}
.step3 {transform: translateX(3072px);}
.step4 {transform: translateX(4096px);}
.step5 {transform: translateX(5120px);}
.step6 {transform: translateX(6144px);}
.step7 {transform: translateX(7168px);}
.step8 {transform: translateX(8192px);}
.step9 {transform: translateX(9216px);}
.step10 {transform: translateX(10240px);}
.step11 {transform: translateX(11264px);}
.step12 {transform: translateX(12288px);}
.step13 {transform: translateX(13312px);}
.step14 {transform: translateX(14336px);}
.step15 {transform: translateX(15360px);}
.step16 {transform: translateX(16384px);}
.step17 {transform: translateX(17408px);}
.step18 {transform: translateX(18432px);}
.step19 {transform: translateX(19456px);}
.step20 {transform: translateX(20480px);}
.step21 {transform: translateX(21504px);}
.step22 {transform: translateX(22528px);}
.step23 {transform: translateX(23552px);}
.step24 {transform: translateX(24576px);}
.step25 {transform: translateX(25600px);}
.step26 {transform: translateX(26624px);}
.step27 {transform: translateX(27648px);}
.step28 {transform: translateX(28672px);}
.step29 {transform: translateX(29696px);}
    </style>

    <path d="M 299 746 Q 359 655 388 651 Q 404 647 415 669 Q 419 685 409 711 Q 399 733 371 747 Q 328 774 308 779 Q 296 783 294 768 Q 291 758 299 746 Z" fill="lightgray" class="stroke step1"/>
    <path d="M 180 682 Q 205 622 204 550 Q 205 277 161 146 Q 139 83 178 38 Q 191 22 203 38 Q 242 80 244 243 Q 250 564 267 644 Q 270 665 251 676 Q 226 698 194 708 Q 184 711 176 701 Q 172 694 180 682 Z" fill="lightgray" class="stroke step1"/>
    <path d="M 519 749 Q 500 750 505 738 Q 512 725 537 712 Q 553 702 618 719 Q 732 755 754 717 Q 761 698 765 648 Q 783 405 769 128 Q 768 88 753 76 Q 738 66 666 85 Q 650 89 650 79 Q 651 72 664 64 Q 728 16 762 -21 Q 784 -42 797 -39 Q 810 -36 822 -6 Q 838 40 837 110 Q 819 498 822 642 Q 822 685 835 709 Q 848 733 836 745 Q 826 761 775 787 Q 754 797 689 779 Q 598 758 519 749 Z" fill="lightgray" class="hide"/></g><g transform="scale(1, -1) translate(0, -900)">
    <style type="text/css">
        .origin {display:none;}
        .hide {display:none;}
        .stroke {fill: #000000;}
        
.step1 {transform: translateX(1024px);}
.step2 {transform: translateX(2048px);}
.step3 {transform: translateX(3072px);}
.step4 {transform: translateX(4096px);}
.step5 {transform: translateX(5120px);}
.step6 {transform: translateX(6144px);}
.step7 {transform: translateX(7168px);}
.step8 {transform: translateX(8192px);}
.step9 {transform: translateX(9216px);}
.step10 {transform: translateX(10240px);}
.step11 {transform: translateX(11264px);}
.step12 {transform: translateX(12288px);}
.step13 {transform: translateX(13312px);}
.step14 {transform: translateX(14336px);}
.step15 {transform: translateX(15360px);}
.step16 {transform: translateX(16384px);}
.step17 {transform: translateX(17408px);}
.step18 {transform: translateX(18432px);}
.step19 {transform: translateX(19456px);}
.step20 {transform: translateX(20480px);}
.step21 {transform: translateX(21504px);}
.step22 {transform: translateX(22528px);}
.step23 {transform: translateX(23552px);}
.step24 {transform: translateX(24576px);}
.step25 {transform: translateX(25600px);}
.step26 {transform: translateX(26624px);}
.step27 {transform: translateX(27648px);}
.step28 {transform: translateX(28672px);}
.step29 {transform: translateX(29696px);}
    </style>

    <path d="M 299 746 Q 359 655 388 651 Q 404 647 415 669 Q 419 685 409 711 Q 399 733 371 747 Q 328 774 308 779 Q 296 783 294 768 Q 291 758 299 746 Z" fill="lightgray" class="stroke step2"/>
    <path d="M 180 682 Q 205 622 204 550 Q 205 277 161 146 Q 139 83 178 38 Q 191 22 203 38 Q 242 80 244 243 Q 250 564 267 644 Q 270 665 251 676 Q 226 698 194 708 Q 184 711 176 701 Q 172 694 180 682 Z" fill="lightgray" class="stroke step2"/>
    <path d="M 519 749 Q 500 750 505 738 Q 512 725 537 712 Q 553 702 618 719 Q 732 755 754 717 Q 761 698 765 648 Q 783 405 769 128 Q 768 88 753 76 Q 738 66 666 85 Q 650 89 650 79 Q 651 72 664 64 Q 728 16 762 -21 Q 784 -42 797 -39 Q 810 -36 822 -6 Q 838 40 837 110 Q 819 498 822 642 Q 822 685 835 709 Q 848 733 836 745 Q 826 761 775 787 Q 754 797 689 779 Q 598 758 519 749 Z" fill="lightgray" class="stroke step2"/></g></svg>