<svg version="1.1" viewBox="0 0 7168 1024" xmlns="http://www.w3.org/2000/svg">
  
  <g transform="scale(1, -1) translate(0, -900)" class="origin">
    <style type="text/css">
        .origin {display:none;}
        .hide {display:none;}
        .stroke {fill: #000000;}
        
.step1 {transform: translateX(1024px);}
.step2 {transform: translateX(2048px);}
.step3 {transform: translateX(3072px);}
.step4 {transform: translateX(4096px);}
.step5 {transform: translateX(5120px);}
.step6 {transform: translateX(6144px);}
.step7 {transform: translateX(7168px);}
.step8 {transform: translateX(8192px);}
.step9 {transform: translateX(9216px);}
.step10 {transform: translateX(10240px);}
.step11 {transform: translateX(11264px);}
.step12 {transform: translateX(12288px);}
.step13 {transform: translateX(13312px);}
.step14 {transform: translateX(14336px);}
.step15 {transform: translateX(15360px);}
.step16 {transform: translateX(16384px);}
.step17 {transform: translateX(17408px);}
.step18 {transform: translateX(18432px);}
.step19 {transform: translateX(19456px);}
.step20 {transform: translateX(20480px);}
.step21 {transform: translateX(21504px);}
.step22 {transform: translateX(22528px);}
.step23 {transform: translateX(23552px);}
.step24 {transform: translateX(24576px);}
.step25 {transform: translateX(25600px);}
.step26 {transform: translateX(26624px);}
.step27 {transform: translateX(27648px);}
.step28 {transform: translateX(28672px);}
.step29 {transform: translateX(29696px);}
    </style>

    <path d="M 242 667 Q 279 676 321 695 Q 340 705 351 694 Q 357 688 349 671 Q 307 578 318 556 Q 318 555 321 551 Q 385 457 369 434 Q 363 424 342 425 Q 317 426 288 424 Q 264 423 292 411 Q 341 387 388 357 Q 404 344 416 358 Q 431 368 437 395 Q 450 458 375 538 Q 339 574 363 611 Q 406 678 430 693 Q 449 706 440 720 Q 427 738 388 757 Q 367 766 352 753 Q 297 710 222 695 C 193 688 213 659 242 667 Z" fill="lightgray"/>
    <path d="M 222 695 Q 200 711 173 719 Q 163 722 156 712 Q 152 706 161 694 Q 207 594 195 299 Q 194 293 194 286 Q 190 195 162 105 Q 155 77 160 55 Q 170 18 183 5 Q 196 -10 206 5 Q 237 45 239 198 Q 233 592 242 662 Q 242 665 242 667 C 243 682 243 682 222 695 Z" fill="lightgray"/>
    <path d="M 650 304 Q 654 407 659 506 L 660 544 Q 663 679 682 747 Q 686 759 664 775 Q 627 794 600 799 Q 582 802 574 793 Q 567 784 575 768 Q 603 728 604 699 Q 614 512 606 294 C 605 264 649 274 650 304 Z" fill="lightgray"/>
    <path d="M 659 506 Q 704 497 742 510 Q 799 523 857 537 Q 885 544 888 548 Q 898 558 892 567 Q 883 580 850 586 Q 816 592 782 576 Q 752 566 720 556 Q 692 550 660 544 C 631 538 629 511 659 506 Z" fill="lightgray"/>
    <path d="M 496 278 Q 484 285 447 294 Q 434 298 429 293 Q 422 286 431 268 Q 461 193 474 74 Q 475 38 495 14 Q 514 -11 520 5 Q 526 21 526 48 L 523 84 Q 508 204 505 242 C 502 272 502 275 496 278 Z" fill="lightgray"/>
    <path d="M 796 109 Q 827 221 868 253 Q 887 274 871 294 Q 789 357 737 331 Q 692 316 650 304 L 606 294 Q 552 287 496 278 C 466 273 475 237 505 242 Q 517 243 531 247 Q 631 263 727 281 Q 752 287 762 276 Q 775 264 771 240 Q 759 170 742 113 C 734 84 788 80 796 109 Z" fill="lightgray"/>
    <path d="M 526 48 Q 533 47 546 48 Q 631 63 813 68 Q 825 69 826 78 Q 827 87 796 109 C 781 120 772 118 742 113 Q 619 92 523 84 C 493 81 496 49 526 48 Z" fill="lightgray"/></g>
<g transform="scale(1, -1) translate(0, -900)">
    <style type="text/css">
        .origin {display:none;}
        .hide {display:none;}
        .stroke {fill: #000000;}
        
.step1 {transform: translateX(1024px);}
.step2 {transform: translateX(2048px);}
.step3 {transform: translateX(3072px);}
.step4 {transform: translateX(4096px);}
.step5 {transform: translateX(5120px);}
.step6 {transform: translateX(6144px);}
.step7 {transform: translateX(7168px);}
.step8 {transform: translateX(8192px);}
.step9 {transform: translateX(9216px);}
.step10 {transform: translateX(10240px);}
.step11 {transform: translateX(11264px);}
.step12 {transform: translateX(12288px);}
.step13 {transform: translateX(13312px);}
.step14 {transform: translateX(14336px);}
.step15 {transform: translateX(15360px);}
.step16 {transform: translateX(16384px);}
.step17 {transform: translateX(17408px);}
.step18 {transform: translateX(18432px);}
.step19 {transform: translateX(19456px);}
.step20 {transform: translateX(20480px);}
.step21 {transform: translateX(21504px);}
.step22 {transform: translateX(22528px);}
.step23 {transform: translateX(23552px);}
.step24 {transform: translateX(24576px);}
.step25 {transform: translateX(25600px);}
.step26 {transform: translateX(26624px);}
.step27 {transform: translateX(27648px);}
.step28 {transform: translateX(28672px);}
.step29 {transform: translateX(29696px);}
    </style>

    <path d="M 242 667 Q 279 676 321 695 Q 340 705 351 694 Q 357 688 349 671 Q 307 578 318 556 Q 318 555 321 551 Q 385 457 369 434 Q 363 424 342 425 Q 317 426 288 424 Q 264 423 292 411 Q 341 387 388 357 Q 404 344 416 358 Q 431 368 437 395 Q 450 458 375 538 Q 339 574 363 611 Q 406 678 430 693 Q 449 706 440 720 Q 427 738 388 757 Q 367 766 352 753 Q 297 710 222 695 C 193 688 213 659 242 667 Z" fill="lightgray" class="stroke step0"/>
    <path d="M 222 695 Q 200 711 173 719 Q 163 722 156 712 Q 152 706 161 694 Q 207 594 195 299 Q 194 293 194 286 Q 190 195 162 105 Q 155 77 160 55 Q 170 18 183 5 Q 196 -10 206 5 Q 237 45 239 198 Q 233 592 242 662 Q 242 665 242 667 C 243 682 243 682 222 695 Z" fill="lightgray" class="hide"/>
    <path d="M 650 304 Q 654 407 659 506 L 660 544 Q 663 679 682 747 Q 686 759 664 775 Q 627 794 600 799 Q 582 802 574 793 Q 567 784 575 768 Q 603 728 604 699 Q 614 512 606 294 C 605 264 649 274 650 304 Z" fill="lightgray" class="hide"/>
    <path d="M 659 506 Q 704 497 742 510 Q 799 523 857 537 Q 885 544 888 548 Q 898 558 892 567 Q 883 580 850 586 Q 816 592 782 576 Q 752 566 720 556 Q 692 550 660 544 C 631 538 629 511 659 506 Z" fill="lightgray" class="hide"/>
    <path d="M 496 278 Q 484 285 447 294 Q 434 298 429 293 Q 422 286 431 268 Q 461 193 474 74 Q 475 38 495 14 Q 514 -11 520 5 Q 526 21 526 48 L 523 84 Q 508 204 505 242 C 502 272 502 275 496 278 Z" fill="lightgray" class="hide"/>
    <path d="M 796 109 Q 827 221 868 253 Q 887 274 871 294 Q 789 357 737 331 Q 692 316 650 304 L 606 294 Q 552 287 496 278 C 466 273 475 237 505 242 Q 517 243 531 247 Q 631 263 727 281 Q 752 287 762 276 Q 775 264 771 240 Q 759 170 742 113 C 734 84 788 80 796 109 Z" fill="lightgray" class="hide"/>
    <path d="M 526 48 Q 533 47 546 48 Q 631 63 813 68 Q 825 69 826 78 Q 827 87 796 109 C 781 120 772 118 742 113 Q 619 92 523 84 C 493 81 496 49 526 48 Z" fill="lightgray" class="hide"/></g><g transform="scale(1, -1) translate(0, -900)">
    <style type="text/css">
        .origin {display:none;}
        .hide {display:none;}
        .stroke {fill: #000000;}
        
.step1 {transform: translateX(1024px);}
.step2 {transform: translateX(2048px);}
.step3 {transform: translateX(3072px);}
.step4 {transform: translateX(4096px);}
.step5 {transform: translateX(5120px);}
.step6 {transform: translateX(6144px);}
.step7 {transform: translateX(7168px);}
.step8 {transform: translateX(8192px);}
.step9 {transform: translateX(9216px);}
.step10 {transform: translateX(10240px);}
.step11 {transform: translateX(11264px);}
.step12 {transform: translateX(12288px);}
.step13 {transform: translateX(13312px);}
.step14 {transform: translateX(14336px);}
.step15 {transform: translateX(15360px);}
.step16 {transform: translateX(16384px);}
.step17 {transform: translateX(17408px);}
.step18 {transform: translateX(18432px);}
.step19 {transform: translateX(19456px);}
.step20 {transform: translateX(20480px);}
.step21 {transform: translateX(21504px);}
.step22 {transform: translateX(22528px);}
.step23 {transform: translateX(23552px);}
.step24 {transform: translateX(24576px);}
.step25 {transform: translateX(25600px);}
.step26 {transform: translateX(26624px);}
.step27 {transform: translateX(27648px);}
.step28 {transform: translateX(28672px);}
.step29 {transform: translateX(29696px);}
    </style>

    <path d="M 242 667 Q 279 676 321 695 Q 340 705 351 694 Q 357 688 349 671 Q 307 578 318 556 Q 318 555 321 551 Q 385 457 369 434 Q 363 424 342 425 Q 317 426 288 424 Q 264 423 292 411 Q 341 387 388 357 Q 404 344 416 358 Q 431 368 437 395 Q 450 458 375 538 Q 339 574 363 611 Q 406 678 430 693 Q 449 706 440 720 Q 427 738 388 757 Q 367 766 352 753 Q 297 710 222 695 C 193 688 213 659 242 667 Z" fill="lightgray" class="stroke step1"/>
    <path d="M 222 695 Q 200 711 173 719 Q 163 722 156 712 Q 152 706 161 694 Q 207 594 195 299 Q 194 293 194 286 Q 190 195 162 105 Q 155 77 160 55 Q 170 18 183 5 Q 196 -10 206 5 Q 237 45 239 198 Q 233 592 242 662 Q 242 665 242 667 C 243 682 243 682 222 695 Z" fill="lightgray" class="stroke step1"/>
    <path d="M 650 304 Q 654 407 659 506 L 660 544 Q 663 679 682 747 Q 686 759 664 775 Q 627 794 600 799 Q 582 802 574 793 Q 567 784 575 768 Q 603 728 604 699 Q 614 512 606 294 C 605 264 649 274 650 304 Z" fill="lightgray" class="hide"/>
    <path d="M 659 506 Q 704 497 742 510 Q 799 523 857 537 Q 885 544 888 548 Q 898 558 892 567 Q 883 580 850 586 Q 816 592 782 576 Q 752 566 720 556 Q 692 550 660 544 C 631 538 629 511 659 506 Z" fill="lightgray" class="hide"/>
    <path d="M 496 278 Q 484 285 447 294 Q 434 298 429 293 Q 422 286 431 268 Q 461 193 474 74 Q 475 38 495 14 Q 514 -11 520 5 Q 526 21 526 48 L 523 84 Q 508 204 505 242 C 502 272 502 275 496 278 Z" fill="lightgray" class="hide"/>
    <path d="M 796 109 Q 827 221 868 253 Q 887 274 871 294 Q 789 357 737 331 Q 692 316 650 304 L 606 294 Q 552 287 496 278 C 466 273 475 237 505 242 Q 517 243 531 247 Q 631 263 727 281 Q 752 287 762 276 Q 775 264 771 240 Q 759 170 742 113 C 734 84 788 80 796 109 Z" fill="lightgray" class="hide"/>
    <path d="M 526 48 Q 533 47 546 48 Q 631 63 813 68 Q 825 69 826 78 Q 827 87 796 109 C 781 120 772 118 742 113 Q 619 92 523 84 C 493 81 496 49 526 48 Z" fill="lightgray" class="hide"/></g><g transform="scale(1, -1) translate(0, -900)">
    <style type="text/css">
        .origin {display:none;}
        .hide {display:none;}
        .stroke {fill: #000000;}
        
.step1 {transform: translateX(1024px);}
.step2 {transform: translateX(2048px);}
.step3 {transform: translateX(3072px);}
.step4 {transform: translateX(4096px);}
.step5 {transform: translateX(5120px);}
.step6 {transform: translateX(6144px);}
.step7 {transform: translateX(7168px);}
.step8 {transform: translateX(8192px);}
.step9 {transform: translateX(9216px);}
.step10 {transform: translateX(10240px);}
.step11 {transform: translateX(11264px);}
.step12 {transform: translateX(12288px);}
.step13 {transform: translateX(13312px);}
.step14 {transform: translateX(14336px);}
.step15 {transform: translateX(15360px);}
.step16 {transform: translateX(16384px);}
.step17 {transform: translateX(17408px);}
.step18 {transform: translateX(18432px);}
.step19 {transform: translateX(19456px);}
.step20 {transform: translateX(20480px);}
.step21 {transform: translateX(21504px);}
.step22 {transform: translateX(22528px);}
.step23 {transform: translateX(23552px);}
.step24 {transform: translateX(24576px);}
.step25 {transform: translateX(25600px);}
.step26 {transform: translateX(26624px);}
.step27 {transform: translateX(27648px);}
.step28 {transform: translateX(28672px);}
.step29 {transform: translateX(29696px);}
    </style>

    <path d="M 242 667 Q 279 676 321 695 Q 340 705 351 694 Q 357 688 349 671 Q 307 578 318 556 Q 318 555 321 551 Q 385 457 369 434 Q 363 424 342 425 Q 317 426 288 424 Q 264 423 292 411 Q 341 387 388 357 Q 404 344 416 358 Q 431 368 437 395 Q 450 458 375 538 Q 339 574 363 611 Q 406 678 430 693 Q 449 706 440 720 Q 427 738 388 757 Q 367 766 352 753 Q 297 710 222 695 C 193 688 213 659 242 667 Z" fill="lightgray" class="stroke step2"/>
    <path d="M 222 695 Q 200 711 173 719 Q 163 722 156 712 Q 152 706 161 694 Q 207 594 195 299 Q 194 293 194 286 Q 190 195 162 105 Q 155 77 160 55 Q 170 18 183 5 Q 196 -10 206 5 Q 237 45 239 198 Q 233 592 242 662 Q 242 665 242 667 C 243 682 243 682 222 695 Z" fill="lightgray" class="stroke step2"/>
    <path d="M 650 304 Q 654 407 659 506 L 660 544 Q 663 679 682 747 Q 686 759 664 775 Q 627 794 600 799 Q 582 802 574 793 Q 567 784 575 768 Q 603 728 604 699 Q 614 512 606 294 C 605 264 649 274 650 304 Z" fill="lightgray" class="stroke step2"/>
    <path d="M 659 506 Q 704 497 742 510 Q 799 523 857 537 Q 885 544 888 548 Q 898 558 892 567 Q 883 580 850 586 Q 816 592 782 576 Q 752 566 720 556 Q 692 550 660 544 C 631 538 629 511 659 506 Z" fill="lightgray" class="hide"/>
    <path d="M 496 278 Q 484 285 447 294 Q 434 298 429 293 Q 422 286 431 268 Q 461 193 474 74 Q 475 38 495 14 Q 514 -11 520 5 Q 526 21 526 48 L 523 84 Q 508 204 505 242 C 502 272 502 275 496 278 Z" fill="lightgray" class="hide"/>
    <path d="M 796 109 Q 827 221 868 253 Q 887 274 871 294 Q 789 357 737 331 Q 692 316 650 304 L 606 294 Q 552 287 496 278 C 466 273 475 237 505 242 Q 517 243 531 247 Q 631 263 727 281 Q 752 287 762 276 Q 775 264 771 240 Q 759 170 742 113 C 734 84 788 80 796 109 Z" fill="lightgray" class="hide"/>
    <path d="M 526 48 Q 533 47 546 48 Q 631 63 813 68 Q 825 69 826 78 Q 827 87 796 109 C 781 120 772 118 742 113 Q 619 92 523 84 C 493 81 496 49 526 48 Z" fill="lightgray" class="hide"/></g><g transform="scale(1, -1) translate(0, -900)">
    <style type="text/css">
        .origin {display:none;}
        .hide {display:none;}
        .stroke {fill: #000000;}
        
.step1 {transform: translateX(1024px);}
.step2 {transform: translateX(2048px);}
.step3 {transform: translateX(3072px);}
.step4 {transform: translateX(4096px);}
.step5 {transform: translateX(5120px);}
.step6 {transform: translateX(6144px);}
.step7 {transform: translateX(7168px);}
.step8 {transform: translateX(8192px);}
.step9 {transform: translateX(9216px);}
.step10 {transform: translateX(10240px);}
.step11 {transform: translateX(11264px);}
.step12 {transform: translateX(12288px);}
.step13 {transform: translateX(13312px);}
.step14 {transform: translateX(14336px);}
.step15 {transform: translateX(15360px);}
.step16 {transform: translateX(16384px);}
.step17 {transform: translateX(17408px);}
.step18 {transform: translateX(18432px);}
.step19 {transform: translateX(19456px);}
.step20 {transform: translateX(20480px);}
.step21 {transform: translateX(21504px);}
.step22 {transform: translateX(22528px);}
.step23 {transform: translateX(23552px);}
.step24 {transform: translateX(24576px);}
.step25 {transform: translateX(25600px);}
.step26 {transform: translateX(26624px);}
.step27 {transform: translateX(27648px);}
.step28 {transform: translateX(28672px);}
.step29 {transform: translateX(29696px);}
    </style>

    <path d="M 242 667 Q 279 676 321 695 Q 340 705 351 694 Q 357 688 349 671 Q 307 578 318 556 Q 318 555 321 551 Q 385 457 369 434 Q 363 424 342 425 Q 317 426 288 424 Q 264 423 292 411 Q 341 387 388 357 Q 404 344 416 358 Q 431 368 437 395 Q 450 458 375 538 Q 339 574 363 611 Q 406 678 430 693 Q 449 706 440 720 Q 427 738 388 757 Q 367 766 352 753 Q 297 710 222 695 C 193 688 213 659 242 667 Z" fill="lightgray" class="stroke step3"/>
    <path d="M 222 695 Q 200 711 173 719 Q 163 722 156 712 Q 152 706 161 694 Q 207 594 195 299 Q 194 293 194 286 Q 190 195 162 105 Q 155 77 160 55 Q 170 18 183 5 Q 196 -10 206 5 Q 237 45 239 198 Q 233 592 242 662 Q 242 665 242 667 C 243 682 243 682 222 695 Z" fill="lightgray" class="stroke step3"/>
    <path d="M 650 304 Q 654 407 659 506 L 660 544 Q 663 679 682 747 Q 686 759 664 775 Q 627 794 600 799 Q 582 802 574 793 Q 567 784 575 768 Q 603 728 604 699 Q 614 512 606 294 C 605 264 649 274 650 304 Z" fill="lightgray" class="stroke step3"/>
    <path d="M 659 506 Q 704 497 742 510 Q 799 523 857 537 Q 885 544 888 548 Q 898 558 892 567 Q 883 580 850 586 Q 816 592 782 576 Q 752 566 720 556 Q 692 550 660 544 C 631 538 629 511 659 506 Z" fill="lightgray" class="stroke step3"/>
    <path d="M 496 278 Q 484 285 447 294 Q 434 298 429 293 Q 422 286 431 268 Q 461 193 474 74 Q 475 38 495 14 Q 514 -11 520 5 Q 526 21 526 48 L 523 84 Q 508 204 505 242 C 502 272 502 275 496 278 Z" fill="lightgray" class="hide"/>
    <path d="M 796 109 Q 827 221 868 253 Q 887 274 871 294 Q 789 357 737 331 Q 692 316 650 304 L 606 294 Q 552 287 496 278 C 466 273 475 237 505 242 Q 517 243 531 247 Q 631 263 727 281 Q 752 287 762 276 Q 775 264 771 240 Q 759 170 742 113 C 734 84 788 80 796 109 Z" fill="lightgray" class="hide"/>
    <path d="M 526 48 Q 533 47 546 48 Q 631 63 813 68 Q 825 69 826 78 Q 827 87 796 109 C 781 120 772 118 742 113 Q 619 92 523 84 C 493 81 496 49 526 48 Z" fill="lightgray" class="hide"/></g><g transform="scale(1, -1) translate(0, -900)">
    <style type="text/css">
        .origin {display:none;}
        .hide {display:none;}
        .stroke {fill: #000000;}
        
.step1 {transform: translateX(1024px);}
.step2 {transform: translateX(2048px);}
.step3 {transform: translateX(3072px);}
.step4 {transform: translateX(4096px);}
.step5 {transform: translateX(5120px);}
.step6 {transform: translateX(6144px);}
.step7 {transform: translateX(7168px);}
.step8 {transform: translateX(8192px);}
.step9 {transform: translateX(9216px);}
.step10 {transform: translateX(10240px);}
.step11 {transform: translateX(11264px);}
.step12 {transform: translateX(12288px);}
.step13 {transform: translateX(13312px);}
.step14 {transform: translateX(14336px);}
.step15 {transform: translateX(15360px);}
.step16 {transform: translateX(16384px);}
.step17 {transform: translateX(17408px);}
.step18 {transform: translateX(18432px);}
.step19 {transform: translateX(19456px);}
.step20 {transform: translateX(20480px);}
.step21 {transform: translateX(21504px);}
.step22 {transform: translateX(22528px);}
.step23 {transform: translateX(23552px);}
.step24 {transform: translateX(24576px);}
.step25 {transform: translateX(25600px);}
.step26 {transform: translateX(26624px);}
.step27 {transform: translateX(27648px);}
.step28 {transform: translateX(28672px);}
.step29 {transform: translateX(29696px);}
    </style>

    <path d="M 242 667 Q 279 676 321 695 Q 340 705 351 694 Q 357 688 349 671 Q 307 578 318 556 Q 318 555 321 551 Q 385 457 369 434 Q 363 424 342 425 Q 317 426 288 424 Q 264 423 292 411 Q 341 387 388 357 Q 404 344 416 358 Q 431 368 437 395 Q 450 458 375 538 Q 339 574 363 611 Q 406 678 430 693 Q 449 706 440 720 Q 427 738 388 757 Q 367 766 352 753 Q 297 710 222 695 C 193 688 213 659 242 667 Z" fill="lightgray" class="stroke step4"/>
    <path d="M 222 695 Q 200 711 173 719 Q 163 722 156 712 Q 152 706 161 694 Q 207 594 195 299 Q 194 293 194 286 Q 190 195 162 105 Q 155 77 160 55 Q 170 18 183 5 Q 196 -10 206 5 Q 237 45 239 198 Q 233 592 242 662 Q 242 665 242 667 C 243 682 243 682 222 695 Z" fill="lightgray" class="stroke step4"/>
    <path d="M 650 304 Q 654 407 659 506 L 660 544 Q 663 679 682 747 Q 686 759 664 775 Q 627 794 600 799 Q 582 802 574 793 Q 567 784 575 768 Q 603 728 604 699 Q 614 512 606 294 C 605 264 649 274 650 304 Z" fill="lightgray" class="stroke step4"/>
    <path d="M 659 506 Q 704 497 742 510 Q 799 523 857 537 Q 885 544 888 548 Q 898 558 892 567 Q 883 580 850 586 Q 816 592 782 576 Q 752 566 720 556 Q 692 550 660 544 C 631 538 629 511 659 506 Z" fill="lightgray" class="stroke step4"/>
    <path d="M 496 278 Q 484 285 447 294 Q 434 298 429 293 Q 422 286 431 268 Q 461 193 474 74 Q 475 38 495 14 Q 514 -11 520 5 Q 526 21 526 48 L 523 84 Q 508 204 505 242 C 502 272 502 275 496 278 Z" fill="lightgray" class="stroke step4"/>
    <path d="M 796 109 Q 827 221 868 253 Q 887 274 871 294 Q 789 357 737 331 Q 692 316 650 304 L 606 294 Q 552 287 496 278 C 466 273 475 237 505 242 Q 517 243 531 247 Q 631 263 727 281 Q 752 287 762 276 Q 775 264 771 240 Q 759 170 742 113 C 734 84 788 80 796 109 Z" fill="lightgray" class="hide"/>
    <path d="M 526 48 Q 533 47 546 48 Q 631 63 813 68 Q 825 69 826 78 Q 827 87 796 109 C 781 120 772 118 742 113 Q 619 92 523 84 C 493 81 496 49 526 48 Z" fill="lightgray" class="hide"/></g><g transform="scale(1, -1) translate(0, -900)">
    <style type="text/css">
        .origin {display:none;}
        .hide {display:none;}
        .stroke {fill: #000000;}
        
.step1 {transform: translateX(1024px);}
.step2 {transform: translateX(2048px);}
.step3 {transform: translateX(3072px);}
.step4 {transform: translateX(4096px);}
.step5 {transform: translateX(5120px);}
.step6 {transform: translateX(6144px);}
.step7 {transform: translateX(7168px);}
.step8 {transform: translateX(8192px);}
.step9 {transform: translateX(9216px);}
.step10 {transform: translateX(10240px);}
.step11 {transform: translateX(11264px);}
.step12 {transform: translateX(12288px);}
.step13 {transform: translateX(13312px);}
.step14 {transform: translateX(14336px);}
.step15 {transform: translateX(15360px);}
.step16 {transform: translateX(16384px);}
.step17 {transform: translateX(17408px);}
.step18 {transform: translateX(18432px);}
.step19 {transform: translateX(19456px);}
.step20 {transform: translateX(20480px);}
.step21 {transform: translateX(21504px);}
.step22 {transform: translateX(22528px);}
.step23 {transform: translateX(23552px);}
.step24 {transform: translateX(24576px);}
.step25 {transform: translateX(25600px);}
.step26 {transform: translateX(26624px);}
.step27 {transform: translateX(27648px);}
.step28 {transform: translateX(28672px);}
.step29 {transform: translateX(29696px);}
    </style>

    <path d="M 242 667 Q 279 676 321 695 Q 340 705 351 694 Q 357 688 349 671 Q 307 578 318 556 Q 318 555 321 551 Q 385 457 369 434 Q 363 424 342 425 Q 317 426 288 424 Q 264 423 292 411 Q 341 387 388 357 Q 404 344 416 358 Q 431 368 437 395 Q 450 458 375 538 Q 339 574 363 611 Q 406 678 430 693 Q 449 706 440 720 Q 427 738 388 757 Q 367 766 352 753 Q 297 710 222 695 C 193 688 213 659 242 667 Z" fill="lightgray" class="stroke step5"/>
    <path d="M 222 695 Q 200 711 173 719 Q 163 722 156 712 Q 152 706 161 694 Q 207 594 195 299 Q 194 293 194 286 Q 190 195 162 105 Q 155 77 160 55 Q 170 18 183 5 Q 196 -10 206 5 Q 237 45 239 198 Q 233 592 242 662 Q 242 665 242 667 C 243 682 243 682 222 695 Z" fill="lightgray" class="stroke step5"/>
    <path d="M 650 304 Q 654 407 659 506 L 660 544 Q 663 679 682 747 Q 686 759 664 775 Q 627 794 600 799 Q 582 802 574 793 Q 567 784 575 768 Q 603 728 604 699 Q 614 512 606 294 C 605 264 649 274 650 304 Z" fill="lightgray" class="stroke step5"/>
    <path d="M 659 506 Q 704 497 742 510 Q 799 523 857 537 Q 885 544 888 548 Q 898 558 892 567 Q 883 580 850 586 Q 816 592 782 576 Q 752 566 720 556 Q 692 550 660 544 C 631 538 629 511 659 506 Z" fill="lightgray" class="stroke step5"/>
    <path d="M 496 278 Q 484 285 447 294 Q 434 298 429 293 Q 422 286 431 268 Q 461 193 474 74 Q 475 38 495 14 Q 514 -11 520 5 Q 526 21 526 48 L 523 84 Q 508 204 505 242 C 502 272 502 275 496 278 Z" fill="lightgray" class="stroke step5"/>
    <path d="M 796 109 Q 827 221 868 253 Q 887 274 871 294 Q 789 357 737 331 Q 692 316 650 304 L 606 294 Q 552 287 496 278 C 466 273 475 237 505 242 Q 517 243 531 247 Q 631 263 727 281 Q 752 287 762 276 Q 775 264 771 240 Q 759 170 742 113 C 734 84 788 80 796 109 Z" fill="lightgray" class="stroke step5"/>
    <path d="M 526 48 Q 533 47 546 48 Q 631 63 813 68 Q 825 69 826 78 Q 827 87 796 109 C 781 120 772 118 742 113 Q 619 92 523 84 C 493 81 496 49 526 48 Z" fill="lightgray" class="hide"/></g><g transform="scale(1, -1) translate(0, -900)">
    <style type="text/css">
        .origin {display:none;}
        .hide {display:none;}
        .stroke {fill: #000000;}
        
.step1 {transform: translateX(1024px);}
.step2 {transform: translateX(2048px);}
.step3 {transform: translateX(3072px);}
.step4 {transform: translateX(4096px);}
.step5 {transform: translateX(5120px);}
.step6 {transform: translateX(6144px);}
.step7 {transform: translateX(7168px);}
.step8 {transform: translateX(8192px);}
.step9 {transform: translateX(9216px);}
.step10 {transform: translateX(10240px);}
.step11 {transform: translateX(11264px);}
.step12 {transform: translateX(12288px);}
.step13 {transform: translateX(13312px);}
.step14 {transform: translateX(14336px);}
.step15 {transform: translateX(15360px);}
.step16 {transform: translateX(16384px);}
.step17 {transform: translateX(17408px);}
.step18 {transform: translateX(18432px);}
.step19 {transform: translateX(19456px);}
.step20 {transform: translateX(20480px);}
.step21 {transform: translateX(21504px);}
.step22 {transform: translateX(22528px);}
.step23 {transform: translateX(23552px);}
.step24 {transform: translateX(24576px);}
.step25 {transform: translateX(25600px);}
.step26 {transform: translateX(26624px);}
.step27 {transform: translateX(27648px);}
.step28 {transform: translateX(28672px);}
.step29 {transform: translateX(29696px);}
    </style>

    <path d="M 242 667 Q 279 676 321 695 Q 340 705 351 694 Q 357 688 349 671 Q 307 578 318 556 Q 318 555 321 551 Q 385 457 369 434 Q 363 424 342 425 Q 317 426 288 424 Q 264 423 292 411 Q 341 387 388 357 Q 404 344 416 358 Q 431 368 437 395 Q 450 458 375 538 Q 339 574 363 611 Q 406 678 430 693 Q 449 706 440 720 Q 427 738 388 757 Q 367 766 352 753 Q 297 710 222 695 C 193 688 213 659 242 667 Z" fill="lightgray" class="stroke step6"/>
    <path d="M 222 695 Q 200 711 173 719 Q 163 722 156 712 Q 152 706 161 694 Q 207 594 195 299 Q 194 293 194 286 Q 190 195 162 105 Q 155 77 160 55 Q 170 18 183 5 Q 196 -10 206 5 Q 237 45 239 198 Q 233 592 242 662 Q 242 665 242 667 C 243 682 243 682 222 695 Z" fill="lightgray" class="stroke step6"/>
    <path d="M 650 304 Q 654 407 659 506 L 660 544 Q 663 679 682 747 Q 686 759 664 775 Q 627 794 600 799 Q 582 802 574 793 Q 567 784 575 768 Q 603 728 604 699 Q 614 512 606 294 C 605 264 649 274 650 304 Z" fill="lightgray" class="stroke step6"/>
    <path d="M 659 506 Q 704 497 742 510 Q 799 523 857 537 Q 885 544 888 548 Q 898 558 892 567 Q 883 580 850 586 Q 816 592 782 576 Q 752 566 720 556 Q 692 550 660 544 C 631 538 629 511 659 506 Z" fill="lightgray" class="stroke step6"/>
    <path d="M 496 278 Q 484 285 447 294 Q 434 298 429 293 Q 422 286 431 268 Q 461 193 474 74 Q 475 38 495 14 Q 514 -11 520 5 Q 526 21 526 48 L 523 84 Q 508 204 505 242 C 502 272 502 275 496 278 Z" fill="lightgray" class="stroke step6"/>
    <path d="M 796 109 Q 827 221 868 253 Q 887 274 871 294 Q 789 357 737 331 Q 692 316 650 304 L 606 294 Q 552 287 496 278 C 466 273 475 237 505 242 Q 517 243 531 247 Q 631 263 727 281 Q 752 287 762 276 Q 775 264 771 240 Q 759 170 742 113 C 734 84 788 80 796 109 Z" fill="lightgray" class="stroke step6"/>
    <path d="M 526 48 Q 533 47 546 48 Q 631 63 813 68 Q 825 69 826 78 Q 827 87 796 109 C 781 120 772 118 742 113 Q 619 92 523 84 C 493 81 496 49 526 48 Z" fill="lightgray" class="stroke step6"/></g></svg>