<svg version="1.1" viewBox="0 0 15360 1024" xmlns="http://www.w3.org/2000/svg">
  
  <g transform="scale(1, -1) translate(0, -900)" class="origin">
    <style type="text/css">
        .origin {display:none;}
        .hide {display:none;}
        .stroke {fill: #000000;}
        
.step1 {transform: translateX(1024px);}
.step2 {transform: translateX(2048px);}
.step3 {transform: translateX(3072px);}
.step4 {transform: translateX(4096px);}
.step5 {transform: translateX(5120px);}
.step6 {transform: translateX(6144px);}
.step7 {transform: translateX(7168px);}
.step8 {transform: translateX(8192px);}
.step9 {transform: translateX(9216px);}
.step10 {transform: translateX(10240px);}
.step11 {transform: translateX(11264px);}
.step12 {transform: translateX(12288px);}
.step13 {transform: translateX(13312px);}
.step14 {transform: translateX(14336px);}
.step15 {transform: translateX(15360px);}
.step16 {transform: translateX(16384px);}
.step17 {transform: translateX(17408px);}
.step18 {transform: translateX(18432px);}
.step19 {transform: translateX(19456px);}
.step20 {transform: translateX(20480px);}
.step21 {transform: translateX(21504px);}
.step22 {transform: translateX(22528px);}
.step23 {transform: translateX(23552px);}
.step24 {transform: translateX(24576px);}
.step25 {transform: translateX(25600px);}
.step26 {transform: translateX(26624px);}
.step27 {transform: translateX(27648px);}
.step28 {transform: translateX(28672px);}
.step29 {transform: translateX(29696px);}
    </style>

    <path d="M 363 690 Q 403 700 447 708 Q 478 715 483 720 Q 490 727 487 734 Q 480 744 455 750 Q 434 753 344 727 Q 230 708 230 706 C 201 698 211 685 241 681 Q 278 675 324 683 L 363 690 Z" fill="lightgray"/>
    <path d="M 230 706 Q 215 719 194 727 Q 175 733 167 724 Q 161 718 169 707 Q 184 676 185 498 Q 185 411 172 357 Q 168 336 182 322 Q 203 307 223 320 C 229 323 228 359 228 389 Q 224 620 240 672 Q 241 676 241 681 C 243 696 243 696 230 706 Z" fill="lightgray"/>
    <path d="M 380 576 Q 440 591 443 592 Q 450 598 446 604 Q 442 611 421 617 Q 400 621 382 613 L 335 599 Q 310 593 281 590 Q 256 586 274 574 Q 296 562 335 566 L 380 576 Z" fill="lightgray"/>
    <path d="M 375 479 Q 399 486 426 492 Q 445 498 448 500 Q 454 507 450 512 Q 446 519 425 524 Q 401 527 377 515 L 334 501 Q 309 495 280 490 Q 255 486 273 474 Q 297 462 334 468 L 375 479 Z" fill="lightgray"/>
    <path d="M 377 515 Q 378 548 380 576 L 382 613 Q 382 626 385 648 Q 391 669 363 690 C 340 709 315 712 324 683 Q 336 650 335 599 L 335 566 Q 335 541 334 501 L 334 468 Q 334 434 334 392 C 334 362 371 370 372 400 Q 373 442 375 479 L 377 515 Z" fill="lightgray"/>
    <path d="M 223 320 Q 257 351 380 366 Q 408 372 423 361 Q 435 352 412 184 Q 406 133 384 101 Q 377 94 360 96 Q 332 105 308 113 Q 295 117 295 111 Q 294 107 302 99 Q 345 50 359 18 Q 366 -1 384 8 Q 444 36 453 103 Q 468 190 478 287 Q 482 321 499 352 Q 511 367 499 378 Q 483 397 447 415 Q 428 425 401 413 Q 385 406 372 400 L 334 392 Q 303 386 254 372 Q 229 368 228 389 C 211 414 198 303 223 320 Z" fill="lightgray"/>
    <path d="M 84 274 Q 77 220 59 170 Q 50 137 72 113 Q 82 100 97 114 Q 133 163 118 231 Q 115 259 104 280 Q 98 286 93 285 Q 86 282 84 274 Z" fill="lightgray"/>
    <path d="M 163 247 Q 169 190 181 170 Q 188 163 197 166 Q 204 170 210 180 Q 216 193 212 207 Q 209 219 184 261 Q 177 270 171 272 Q 167 273 164 266 Q 161 260 163 247 Z" fill="lightgray"/>
    <path d="M 239 254 Q 243 221 261 199 Q 268 193 277 198 Q 284 202 288 213 Q 289 238 257 272 Q 250 279 243 280 Q 239 281 237 274 Q 234 267 239 254 Z" fill="lightgray"/>
    <path d="M 321 259 Q 346 211 353 208 Q 360 207 366 213 Q 372 220 373 241 Q 374 251 360 266 Q 329 293 316 294 Q 312 293 310 285 Q 310 278 321 259 Z" fill="lightgray"/>
    <path d="M 537 516 Q 521 528 502 533 Q 496 536 491 531 Q 484 527 492 516 Q 531 438 526 264 Q 526 198 560 178 Q 575 174 578 201 L 578 209 L 577 242 Q 562 377 564 482 C 564 498 562 499 537 516 Z" fill="lightgray"/>
    <path d="M 817 229 Q 827 204 852 156 Q 861 140 871 140 Q 886 143 894 168 Q 925 232 927 318 Q 931 372 936 433 Q 940 479 962 509 Q 978 528 966 541 Q 945 560 900 580 Q 882 590 851 578 Q 731 535 537 516 C 507 513 534 477 564 482 Q 568 482 572 483 Q 594 487 623 493 L 651 498 Q 679 505 716 511 L 750 517 Q 852 539 870 523 Q 880 517 880 493 Q 881 379 862 267 Q 861 248 852 246 Q 849 245 839 248 C 812 241 812 241 817 229 Z" fill="lightgray"/>
    <path d="M 623 493 Q 632 462 627 433 Q 615 382 583 322 Q 579 318 580 313 Q 581 309 584 311 Q 627 321 672 437 Q 678 453 682 461 Q 685 468 678 477 Q 663 493 651 498 C 624 512 617 516 623 493 Z" fill="lightgray"/>
    <path d="M 716 511 Q 716 507 722 501 Q 737 483 733 392 Q 733 359 748 348 Q 761 335 823 340 Q 848 341 856 354 Q 863 361 858 367 Q 852 376 795 375 Q 743 375 778 481 Q 778 509 764 512 Q 757 515 750 517 C 721 526 706 531 716 511 Z" fill="lightgray"/>
    <path d="M 578 209 Q 584 208 595 209 Q 665 222 817 229 C 847 230 854 231 839 248 Q 832 258 814 269 Q 798 279 767 272 Q 662 251 577 242 C 547 239 548 211 578 209 Z" fill="lightgray"/></g>
<g transform="scale(1, -1) translate(0, -900)">
    <style type="text/css">
        .origin {display:none;}
        .hide {display:none;}
        .stroke {fill: #000000;}
        
.step1 {transform: translateX(1024px);}
.step2 {transform: translateX(2048px);}
.step3 {transform: translateX(3072px);}
.step4 {transform: translateX(4096px);}
.step5 {transform: translateX(5120px);}
.step6 {transform: translateX(6144px);}
.step7 {transform: translateX(7168px);}
.step8 {transform: translateX(8192px);}
.step9 {transform: translateX(9216px);}
.step10 {transform: translateX(10240px);}
.step11 {transform: translateX(11264px);}
.step12 {transform: translateX(12288px);}
.step13 {transform: translateX(13312px);}
.step14 {transform: translateX(14336px);}
.step15 {transform: translateX(15360px);}
.step16 {transform: translateX(16384px);}
.step17 {transform: translateX(17408px);}
.step18 {transform: translateX(18432px);}
.step19 {transform: translateX(19456px);}
.step20 {transform: translateX(20480px);}
.step21 {transform: translateX(21504px);}
.step22 {transform: translateX(22528px);}
.step23 {transform: translateX(23552px);}
.step24 {transform: translateX(24576px);}
.step25 {transform: translateX(25600px);}
.step26 {transform: translateX(26624px);}
.step27 {transform: translateX(27648px);}
.step28 {transform: translateX(28672px);}
.step29 {transform: translateX(29696px);}
    </style>

    <path d="M 363 690 Q 403 700 447 708 Q 478 715 483 720 Q 490 727 487 734 Q 480 744 455 750 Q 434 753 344 727 Q 230 708 230 706 C 201 698 211 685 241 681 Q 278 675 324 683 L 363 690 Z" fill="lightgray" class="stroke step0"/>
    <path d="M 230 706 Q 215 719 194 727 Q 175 733 167 724 Q 161 718 169 707 Q 184 676 185 498 Q 185 411 172 357 Q 168 336 182 322 Q 203 307 223 320 C 229 323 228 359 228 389 Q 224 620 240 672 Q 241 676 241 681 C 243 696 243 696 230 706 Z" fill="lightgray" class="hide"/>
    <path d="M 380 576 Q 440 591 443 592 Q 450 598 446 604 Q 442 611 421 617 Q 400 621 382 613 L 335 599 Q 310 593 281 590 Q 256 586 274 574 Q 296 562 335 566 L 380 576 Z" fill="lightgray" class="hide"/>
    <path d="M 375 479 Q 399 486 426 492 Q 445 498 448 500 Q 454 507 450 512 Q 446 519 425 524 Q 401 527 377 515 L 334 501 Q 309 495 280 490 Q 255 486 273 474 Q 297 462 334 468 L 375 479 Z" fill="lightgray" class="hide"/>
    <path d="M 377 515 Q 378 548 380 576 L 382 613 Q 382 626 385 648 Q 391 669 363 690 C 340 709 315 712 324 683 Q 336 650 335 599 L 335 566 Q 335 541 334 501 L 334 468 Q 334 434 334 392 C 334 362 371 370 372 400 Q 373 442 375 479 L 377 515 Z" fill="lightgray" class="hide"/>
    <path d="M 223 320 Q 257 351 380 366 Q 408 372 423 361 Q 435 352 412 184 Q 406 133 384 101 Q 377 94 360 96 Q 332 105 308 113 Q 295 117 295 111 Q 294 107 302 99 Q 345 50 359 18 Q 366 -1 384 8 Q 444 36 453 103 Q 468 190 478 287 Q 482 321 499 352 Q 511 367 499 378 Q 483 397 447 415 Q 428 425 401 413 Q 385 406 372 400 L 334 392 Q 303 386 254 372 Q 229 368 228 389 C 211 414 198 303 223 320 Z" fill="lightgray" class="hide"/>
    <path d="M 84 274 Q 77 220 59 170 Q 50 137 72 113 Q 82 100 97 114 Q 133 163 118 231 Q 115 259 104 280 Q 98 286 93 285 Q 86 282 84 274 Z" fill="lightgray" class="hide"/>
    <path d="M 163 247 Q 169 190 181 170 Q 188 163 197 166 Q 204 170 210 180 Q 216 193 212 207 Q 209 219 184 261 Q 177 270 171 272 Q 167 273 164 266 Q 161 260 163 247 Z" fill="lightgray" class="hide"/>
    <path d="M 239 254 Q 243 221 261 199 Q 268 193 277 198 Q 284 202 288 213 Q 289 238 257 272 Q 250 279 243 280 Q 239 281 237 274 Q 234 267 239 254 Z" fill="lightgray" class="hide"/>
    <path d="M 321 259 Q 346 211 353 208 Q 360 207 366 213 Q 372 220 373 241 Q 374 251 360 266 Q 329 293 316 294 Q 312 293 310 285 Q 310 278 321 259 Z" fill="lightgray" class="hide"/>
    <path d="M 537 516 Q 521 528 502 533 Q 496 536 491 531 Q 484 527 492 516 Q 531 438 526 264 Q 526 198 560 178 Q 575 174 578 201 L 578 209 L 577 242 Q 562 377 564 482 C 564 498 562 499 537 516 Z" fill="lightgray" class="hide"/>
    <path d="M 817 229 Q 827 204 852 156 Q 861 140 871 140 Q 886 143 894 168 Q 925 232 927 318 Q 931 372 936 433 Q 940 479 962 509 Q 978 528 966 541 Q 945 560 900 580 Q 882 590 851 578 Q 731 535 537 516 C 507 513 534 477 564 482 Q 568 482 572 483 Q 594 487 623 493 L 651 498 Q 679 505 716 511 L 750 517 Q 852 539 870 523 Q 880 517 880 493 Q 881 379 862 267 Q 861 248 852 246 Q 849 245 839 248 C 812 241 812 241 817 229 Z" fill="lightgray" class="hide"/>
    <path d="M 623 493 Q 632 462 627 433 Q 615 382 583 322 Q 579 318 580 313 Q 581 309 584 311 Q 627 321 672 437 Q 678 453 682 461 Q 685 468 678 477 Q 663 493 651 498 C 624 512 617 516 623 493 Z" fill="lightgray" class="hide"/>
    <path d="M 716 511 Q 716 507 722 501 Q 737 483 733 392 Q 733 359 748 348 Q 761 335 823 340 Q 848 341 856 354 Q 863 361 858 367 Q 852 376 795 375 Q 743 375 778 481 Q 778 509 764 512 Q 757 515 750 517 C 721 526 706 531 716 511 Z" fill="lightgray" class="hide"/>
    <path d="M 578 209 Q 584 208 595 209 Q 665 222 817 229 C 847 230 854 231 839 248 Q 832 258 814 269 Q 798 279 767 272 Q 662 251 577 242 C 547 239 548 211 578 209 Z" fill="lightgray" class="hide"/></g><g transform="scale(1, -1) translate(0, -900)">
    <style type="text/css">
        .origin {display:none;}
        .hide {display:none;}
        .stroke {fill: #000000;}
        
.step1 {transform: translateX(1024px);}
.step2 {transform: translateX(2048px);}
.step3 {transform: translateX(3072px);}
.step4 {transform: translateX(4096px);}
.step5 {transform: translateX(5120px);}
.step6 {transform: translateX(6144px);}
.step7 {transform: translateX(7168px);}
.step8 {transform: translateX(8192px);}
.step9 {transform: translateX(9216px);}
.step10 {transform: translateX(10240px);}
.step11 {transform: translateX(11264px);}
.step12 {transform: translateX(12288px);}
.step13 {transform: translateX(13312px);}
.step14 {transform: translateX(14336px);}
.step15 {transform: translateX(15360px);}
.step16 {transform: translateX(16384px);}
.step17 {transform: translateX(17408px);}
.step18 {transform: translateX(18432px);}
.step19 {transform: translateX(19456px);}
.step20 {transform: translateX(20480px);}
.step21 {transform: translateX(21504px);}
.step22 {transform: translateX(22528px);}
.step23 {transform: translateX(23552px);}
.step24 {transform: translateX(24576px);}
.step25 {transform: translateX(25600px);}
.step26 {transform: translateX(26624px);}
.step27 {transform: translateX(27648px);}
.step28 {transform: translateX(28672px);}
.step29 {transform: translateX(29696px);}
    </style>

    <path d="M 363 690 Q 403 700 447 708 Q 478 715 483 720 Q 490 727 487 734 Q 480 744 455 750 Q 434 753 344 727 Q 230 708 230 706 C 201 698 211 685 241 681 Q 278 675 324 683 L 363 690 Z" fill="lightgray" class="stroke step1"/>
    <path d="M 230 706 Q 215 719 194 727 Q 175 733 167 724 Q 161 718 169 707 Q 184 676 185 498 Q 185 411 172 357 Q 168 336 182 322 Q 203 307 223 320 C 229 323 228 359 228 389 Q 224 620 240 672 Q 241 676 241 681 C 243 696 243 696 230 706 Z" fill="lightgray" class="stroke step1"/>
    <path d="M 380 576 Q 440 591 443 592 Q 450 598 446 604 Q 442 611 421 617 Q 400 621 382 613 L 335 599 Q 310 593 281 590 Q 256 586 274 574 Q 296 562 335 566 L 380 576 Z" fill="lightgray" class="hide"/>
    <path d="M 375 479 Q 399 486 426 492 Q 445 498 448 500 Q 454 507 450 512 Q 446 519 425 524 Q 401 527 377 515 L 334 501 Q 309 495 280 490 Q 255 486 273 474 Q 297 462 334 468 L 375 479 Z" fill="lightgray" class="hide"/>
    <path d="M 377 515 Q 378 548 380 576 L 382 613 Q 382 626 385 648 Q 391 669 363 690 C 340 709 315 712 324 683 Q 336 650 335 599 L 335 566 Q 335 541 334 501 L 334 468 Q 334 434 334 392 C 334 362 371 370 372 400 Q 373 442 375 479 L 377 515 Z" fill="lightgray" class="hide"/>
    <path d="M 223 320 Q 257 351 380 366 Q 408 372 423 361 Q 435 352 412 184 Q 406 133 384 101 Q 377 94 360 96 Q 332 105 308 113 Q 295 117 295 111 Q 294 107 302 99 Q 345 50 359 18 Q 366 -1 384 8 Q 444 36 453 103 Q 468 190 478 287 Q 482 321 499 352 Q 511 367 499 378 Q 483 397 447 415 Q 428 425 401 413 Q 385 406 372 400 L 334 392 Q 303 386 254 372 Q 229 368 228 389 C 211 414 198 303 223 320 Z" fill="lightgray" class="hide"/>
    <path d="M 84 274 Q 77 220 59 170 Q 50 137 72 113 Q 82 100 97 114 Q 133 163 118 231 Q 115 259 104 280 Q 98 286 93 285 Q 86 282 84 274 Z" fill="lightgray" class="hide"/>
    <path d="M 163 247 Q 169 190 181 170 Q 188 163 197 166 Q 204 170 210 180 Q 216 193 212 207 Q 209 219 184 261 Q 177 270 171 272 Q 167 273 164 266 Q 161 260 163 247 Z" fill="lightgray" class="hide"/>
    <path d="M 239 254 Q 243 221 261 199 Q 268 193 277 198 Q 284 202 288 213 Q 289 238 257 272 Q 250 279 243 280 Q 239 281 237 274 Q 234 267 239 254 Z" fill="lightgray" class="hide"/>
    <path d="M 321 259 Q 346 211 353 208 Q 360 207 366 213 Q 372 220 373 241 Q 374 251 360 266 Q 329 293 316 294 Q 312 293 310 285 Q 310 278 321 259 Z" fill="lightgray" class="hide"/>
    <path d="M 537 516 Q 521 528 502 533 Q 496 536 491 531 Q 484 527 492 516 Q 531 438 526 264 Q 526 198 560 178 Q 575 174 578 201 L 578 209 L 577 242 Q 562 377 564 482 C 564 498 562 499 537 516 Z" fill="lightgray" class="hide"/>
    <path d="M 817 229 Q 827 204 852 156 Q 861 140 871 140 Q 886 143 894 168 Q 925 232 927 318 Q 931 372 936 433 Q 940 479 962 509 Q 978 528 966 541 Q 945 560 900 580 Q 882 590 851 578 Q 731 535 537 516 C 507 513 534 477 564 482 Q 568 482 572 483 Q 594 487 623 493 L 651 498 Q 679 505 716 511 L 750 517 Q 852 539 870 523 Q 880 517 880 493 Q 881 379 862 267 Q 861 248 852 246 Q 849 245 839 248 C 812 241 812 241 817 229 Z" fill="lightgray" class="hide"/>
    <path d="M 623 493 Q 632 462 627 433 Q 615 382 583 322 Q 579 318 580 313 Q 581 309 584 311 Q 627 321 672 437 Q 678 453 682 461 Q 685 468 678 477 Q 663 493 651 498 C 624 512 617 516 623 493 Z" fill="lightgray" class="hide"/>
    <path d="M 716 511 Q 716 507 722 501 Q 737 483 733 392 Q 733 359 748 348 Q 761 335 823 340 Q 848 341 856 354 Q 863 361 858 367 Q 852 376 795 375 Q 743 375 778 481 Q 778 509 764 512 Q 757 515 750 517 C 721 526 706 531 716 511 Z" fill="lightgray" class="hide"/>
    <path d="M 578 209 Q 584 208 595 209 Q 665 222 817 229 C 847 230 854 231 839 248 Q 832 258 814 269 Q 798 279 767 272 Q 662 251 577 242 C 547 239 548 211 578 209 Z" fill="lightgray" class="hide"/></g><g transform="scale(1, -1) translate(0, -900)">
    <style type="text/css">
        .origin {display:none;}
        .hide {display:none;}
        .stroke {fill: #000000;}
        
.step1 {transform: translateX(1024px);}
.step2 {transform: translateX(2048px);}
.step3 {transform: translateX(3072px);}
.step4 {transform: translateX(4096px);}
.step5 {transform: translateX(5120px);}
.step6 {transform: translateX(6144px);}
.step7 {transform: translateX(7168px);}
.step8 {transform: translateX(8192px);}
.step9 {transform: translateX(9216px);}
.step10 {transform: translateX(10240px);}
.step11 {transform: translateX(11264px);}
.step12 {transform: translateX(12288px);}
.step13 {transform: translateX(13312px);}
.step14 {transform: translateX(14336px);}
.step15 {transform: translateX(15360px);}
.step16 {transform: translateX(16384px);}
.step17 {transform: translateX(17408px);}
.step18 {transform: translateX(18432px);}
.step19 {transform: translateX(19456px);}
.step20 {transform: translateX(20480px);}
.step21 {transform: translateX(21504px);}
.step22 {transform: translateX(22528px);}
.step23 {transform: translateX(23552px);}
.step24 {transform: translateX(24576px);}
.step25 {transform: translateX(25600px);}
.step26 {transform: translateX(26624px);}
.step27 {transform: translateX(27648px);}
.step28 {transform: translateX(28672px);}
.step29 {transform: translateX(29696px);}
    </style>

    <path d="M 363 690 Q 403 700 447 708 Q 478 715 483 720 Q 490 727 487 734 Q 480 744 455 750 Q 434 753 344 727 Q 230 708 230 706 C 201 698 211 685 241 681 Q 278 675 324 683 L 363 690 Z" fill="lightgray" class="stroke step2"/>
    <path d="M 230 706 Q 215 719 194 727 Q 175 733 167 724 Q 161 718 169 707 Q 184 676 185 498 Q 185 411 172 357 Q 168 336 182 322 Q 203 307 223 320 C 229 323 228 359 228 389 Q 224 620 240 672 Q 241 676 241 681 C 243 696 243 696 230 706 Z" fill="lightgray" class="stroke step2"/>
    <path d="M 380 576 Q 440 591 443 592 Q 450 598 446 604 Q 442 611 421 617 Q 400 621 382 613 L 335 599 Q 310 593 281 590 Q 256 586 274 574 Q 296 562 335 566 L 380 576 Z" fill="lightgray" class="stroke step2"/>
    <path d="M 375 479 Q 399 486 426 492 Q 445 498 448 500 Q 454 507 450 512 Q 446 519 425 524 Q 401 527 377 515 L 334 501 Q 309 495 280 490 Q 255 486 273 474 Q 297 462 334 468 L 375 479 Z" fill="lightgray" class="hide"/>
    <path d="M 377 515 Q 378 548 380 576 L 382 613 Q 382 626 385 648 Q 391 669 363 690 C 340 709 315 712 324 683 Q 336 650 335 599 L 335 566 Q 335 541 334 501 L 334 468 Q 334 434 334 392 C 334 362 371 370 372 400 Q 373 442 375 479 L 377 515 Z" fill="lightgray" class="hide"/>
    <path d="M 223 320 Q 257 351 380 366 Q 408 372 423 361 Q 435 352 412 184 Q 406 133 384 101 Q 377 94 360 96 Q 332 105 308 113 Q 295 117 295 111 Q 294 107 302 99 Q 345 50 359 18 Q 366 -1 384 8 Q 444 36 453 103 Q 468 190 478 287 Q 482 321 499 352 Q 511 367 499 378 Q 483 397 447 415 Q 428 425 401 413 Q 385 406 372 400 L 334 392 Q 303 386 254 372 Q 229 368 228 389 C 211 414 198 303 223 320 Z" fill="lightgray" class="hide"/>
    <path d="M 84 274 Q 77 220 59 170 Q 50 137 72 113 Q 82 100 97 114 Q 133 163 118 231 Q 115 259 104 280 Q 98 286 93 285 Q 86 282 84 274 Z" fill="lightgray" class="hide"/>
    <path d="M 163 247 Q 169 190 181 170 Q 188 163 197 166 Q 204 170 210 180 Q 216 193 212 207 Q 209 219 184 261 Q 177 270 171 272 Q 167 273 164 266 Q 161 260 163 247 Z" fill="lightgray" class="hide"/>
    <path d="M 239 254 Q 243 221 261 199 Q 268 193 277 198 Q 284 202 288 213 Q 289 238 257 272 Q 250 279 243 280 Q 239 281 237 274 Q 234 267 239 254 Z" fill="lightgray" class="hide"/>
    <path d="M 321 259 Q 346 211 353 208 Q 360 207 366 213 Q 372 220 373 241 Q 374 251 360 266 Q 329 293 316 294 Q 312 293 310 285 Q 310 278 321 259 Z" fill="lightgray" class="hide"/>
    <path d="M 537 516 Q 521 528 502 533 Q 496 536 491 531 Q 484 527 492 516 Q 531 438 526 264 Q 526 198 560 178 Q 575 174 578 201 L 578 209 L 577 242 Q 562 377 564 482 C 564 498 562 499 537 516 Z" fill="lightgray" class="hide"/>
    <path d="M 817 229 Q 827 204 852 156 Q 861 140 871 140 Q 886 143 894 168 Q 925 232 927 318 Q 931 372 936 433 Q 940 479 962 509 Q 978 528 966 541 Q 945 560 900 580 Q 882 590 851 578 Q 731 535 537 516 C 507 513 534 477 564 482 Q 568 482 572 483 Q 594 487 623 493 L 651 498 Q 679 505 716 511 L 750 517 Q 852 539 870 523 Q 880 517 880 493 Q 881 379 862 267 Q 861 248 852 246 Q 849 245 839 248 C 812 241 812 241 817 229 Z" fill="lightgray" class="hide"/>
    <path d="M 623 493 Q 632 462 627 433 Q 615 382 583 322 Q 579 318 580 313 Q 581 309 584 311 Q 627 321 672 437 Q 678 453 682 461 Q 685 468 678 477 Q 663 493 651 498 C 624 512 617 516 623 493 Z" fill="lightgray" class="hide"/>
    <path d="M 716 511 Q 716 507 722 501 Q 737 483 733 392 Q 733 359 748 348 Q 761 335 823 340 Q 848 341 856 354 Q 863 361 858 367 Q 852 376 795 375 Q 743 375 778 481 Q 778 509 764 512 Q 757 515 750 517 C 721 526 706 531 716 511 Z" fill="lightgray" class="hide"/>
    <path d="M 578 209 Q 584 208 595 209 Q 665 222 817 229 C 847 230 854 231 839 248 Q 832 258 814 269 Q 798 279 767 272 Q 662 251 577 242 C 547 239 548 211 578 209 Z" fill="lightgray" class="hide"/></g><g transform="scale(1, -1) translate(0, -900)">
    <style type="text/css">
        .origin {display:none;}
        .hide {display:none;}
        .stroke {fill: #000000;}
        
.step1 {transform: translateX(1024px);}
.step2 {transform: translateX(2048px);}
.step3 {transform: translateX(3072px);}
.step4 {transform: translateX(4096px);}
.step5 {transform: translateX(5120px);}
.step6 {transform: translateX(6144px);}
.step7 {transform: translateX(7168px);}
.step8 {transform: translateX(8192px);}
.step9 {transform: translateX(9216px);}
.step10 {transform: translateX(10240px);}
.step11 {transform: translateX(11264px);}
.step12 {transform: translateX(12288px);}
.step13 {transform: translateX(13312px);}
.step14 {transform: translateX(14336px);}
.step15 {transform: translateX(15360px);}
.step16 {transform: translateX(16384px);}
.step17 {transform: translateX(17408px);}
.step18 {transform: translateX(18432px);}
.step19 {transform: translateX(19456px);}
.step20 {transform: translateX(20480px);}
.step21 {transform: translateX(21504px);}
.step22 {transform: translateX(22528px);}
.step23 {transform: translateX(23552px);}
.step24 {transform: translateX(24576px);}
.step25 {transform: translateX(25600px);}
.step26 {transform: translateX(26624px);}
.step27 {transform: translateX(27648px);}
.step28 {transform: translateX(28672px);}
.step29 {transform: translateX(29696px);}
    </style>

    <path d="M 363 690 Q 403 700 447 708 Q 478 715 483 720 Q 490 727 487 734 Q 480 744 455 750 Q 434 753 344 727 Q 230 708 230 706 C 201 698 211 685 241 681 Q 278 675 324 683 L 363 690 Z" fill="lightgray" class="stroke step3"/>
    <path d="M 230 706 Q 215 719 194 727 Q 175 733 167 724 Q 161 718 169 707 Q 184 676 185 498 Q 185 411 172 357 Q 168 336 182 322 Q 203 307 223 320 C 229 323 228 359 228 389 Q 224 620 240 672 Q 241 676 241 681 C 243 696 243 696 230 706 Z" fill="lightgray" class="stroke step3"/>
    <path d="M 380 576 Q 440 591 443 592 Q 450 598 446 604 Q 442 611 421 617 Q 400 621 382 613 L 335 599 Q 310 593 281 590 Q 256 586 274 574 Q 296 562 335 566 L 380 576 Z" fill="lightgray" class="stroke step3"/>
    <path d="M 375 479 Q 399 486 426 492 Q 445 498 448 500 Q 454 507 450 512 Q 446 519 425 524 Q 401 527 377 515 L 334 501 Q 309 495 280 490 Q 255 486 273 474 Q 297 462 334 468 L 375 479 Z" fill="lightgray" class="stroke step3"/>
    <path d="M 377 515 Q 378 548 380 576 L 382 613 Q 382 626 385 648 Q 391 669 363 690 C 340 709 315 712 324 683 Q 336 650 335 599 L 335 566 Q 335 541 334 501 L 334 468 Q 334 434 334 392 C 334 362 371 370 372 400 Q 373 442 375 479 L 377 515 Z" fill="lightgray" class="hide"/>
    <path d="M 223 320 Q 257 351 380 366 Q 408 372 423 361 Q 435 352 412 184 Q 406 133 384 101 Q 377 94 360 96 Q 332 105 308 113 Q 295 117 295 111 Q 294 107 302 99 Q 345 50 359 18 Q 366 -1 384 8 Q 444 36 453 103 Q 468 190 478 287 Q 482 321 499 352 Q 511 367 499 378 Q 483 397 447 415 Q 428 425 401 413 Q 385 406 372 400 L 334 392 Q 303 386 254 372 Q 229 368 228 389 C 211 414 198 303 223 320 Z" fill="lightgray" class="hide"/>
    <path d="M 84 274 Q 77 220 59 170 Q 50 137 72 113 Q 82 100 97 114 Q 133 163 118 231 Q 115 259 104 280 Q 98 286 93 285 Q 86 282 84 274 Z" fill="lightgray" class="hide"/>
    <path d="M 163 247 Q 169 190 181 170 Q 188 163 197 166 Q 204 170 210 180 Q 216 193 212 207 Q 209 219 184 261 Q 177 270 171 272 Q 167 273 164 266 Q 161 260 163 247 Z" fill="lightgray" class="hide"/>
    <path d="M 239 254 Q 243 221 261 199 Q 268 193 277 198 Q 284 202 288 213 Q 289 238 257 272 Q 250 279 243 280 Q 239 281 237 274 Q 234 267 239 254 Z" fill="lightgray" class="hide"/>
    <path d="M 321 259 Q 346 211 353 208 Q 360 207 366 213 Q 372 220 373 241 Q 374 251 360 266 Q 329 293 316 294 Q 312 293 310 285 Q 310 278 321 259 Z" fill="lightgray" class="hide"/>
    <path d="M 537 516 Q 521 528 502 533 Q 496 536 491 531 Q 484 527 492 516 Q 531 438 526 264 Q 526 198 560 178 Q 575 174 578 201 L 578 209 L 577 242 Q 562 377 564 482 C 564 498 562 499 537 516 Z" fill="lightgray" class="hide"/>
    <path d="M 817 229 Q 827 204 852 156 Q 861 140 871 140 Q 886 143 894 168 Q 925 232 927 318 Q 931 372 936 433 Q 940 479 962 509 Q 978 528 966 541 Q 945 560 900 580 Q 882 590 851 578 Q 731 535 537 516 C 507 513 534 477 564 482 Q 568 482 572 483 Q 594 487 623 493 L 651 498 Q 679 505 716 511 L 750 517 Q 852 539 870 523 Q 880 517 880 493 Q 881 379 862 267 Q 861 248 852 246 Q 849 245 839 248 C 812 241 812 241 817 229 Z" fill="lightgray" class="hide"/>
    <path d="M 623 493 Q 632 462 627 433 Q 615 382 583 322 Q 579 318 580 313 Q 581 309 584 311 Q 627 321 672 437 Q 678 453 682 461 Q 685 468 678 477 Q 663 493 651 498 C 624 512 617 516 623 493 Z" fill="lightgray" class="hide"/>
    <path d="M 716 511 Q 716 507 722 501 Q 737 483 733 392 Q 733 359 748 348 Q 761 335 823 340 Q 848 341 856 354 Q 863 361 858 367 Q 852 376 795 375 Q 743 375 778 481 Q 778 509 764 512 Q 757 515 750 517 C 721 526 706 531 716 511 Z" fill="lightgray" class="hide"/>
    <path d="M 578 209 Q 584 208 595 209 Q 665 222 817 229 C 847 230 854 231 839 248 Q 832 258 814 269 Q 798 279 767 272 Q 662 251 577 242 C 547 239 548 211 578 209 Z" fill="lightgray" class="hide"/></g><g transform="scale(1, -1) translate(0, -900)">
    <style type="text/css">
        .origin {display:none;}
        .hide {display:none;}
        .stroke {fill: #000000;}
        
.step1 {transform: translateX(1024px);}
.step2 {transform: translateX(2048px);}
.step3 {transform: translateX(3072px);}
.step4 {transform: translateX(4096px);}
.step5 {transform: translateX(5120px);}
.step6 {transform: translateX(6144px);}
.step7 {transform: translateX(7168px);}
.step8 {transform: translateX(8192px);}
.step9 {transform: translateX(9216px);}
.step10 {transform: translateX(10240px);}
.step11 {transform: translateX(11264px);}
.step12 {transform: translateX(12288px);}
.step13 {transform: translateX(13312px);}
.step14 {transform: translateX(14336px);}
.step15 {transform: translateX(15360px);}
.step16 {transform: translateX(16384px);}
.step17 {transform: translateX(17408px);}
.step18 {transform: translateX(18432px);}
.step19 {transform: translateX(19456px);}
.step20 {transform: translateX(20480px);}
.step21 {transform: translateX(21504px);}
.step22 {transform: translateX(22528px);}
.step23 {transform: translateX(23552px);}
.step24 {transform: translateX(24576px);}
.step25 {transform: translateX(25600px);}
.step26 {transform: translateX(26624px);}
.step27 {transform: translateX(27648px);}
.step28 {transform: translateX(28672px);}
.step29 {transform: translateX(29696px);}
    </style>

    <path d="M 363 690 Q 403 700 447 708 Q 478 715 483 720 Q 490 727 487 734 Q 480 744 455 750 Q 434 753 344 727 Q 230 708 230 706 C 201 698 211 685 241 681 Q 278 675 324 683 L 363 690 Z" fill="lightgray" class="stroke step4"/>
    <path d="M 230 706 Q 215 719 194 727 Q 175 733 167 724 Q 161 718 169 707 Q 184 676 185 498 Q 185 411 172 357 Q 168 336 182 322 Q 203 307 223 320 C 229 323 228 359 228 389 Q 224 620 240 672 Q 241 676 241 681 C 243 696 243 696 230 706 Z" fill="lightgray" class="stroke step4"/>
    <path d="M 380 576 Q 440 591 443 592 Q 450 598 446 604 Q 442 611 421 617 Q 400 621 382 613 L 335 599 Q 310 593 281 590 Q 256 586 274 574 Q 296 562 335 566 L 380 576 Z" fill="lightgray" class="stroke step4"/>
    <path d="M 375 479 Q 399 486 426 492 Q 445 498 448 500 Q 454 507 450 512 Q 446 519 425 524 Q 401 527 377 515 L 334 501 Q 309 495 280 490 Q 255 486 273 474 Q 297 462 334 468 L 375 479 Z" fill="lightgray" class="stroke step4"/>
    <path d="M 377 515 Q 378 548 380 576 L 382 613 Q 382 626 385 648 Q 391 669 363 690 C 340 709 315 712 324 683 Q 336 650 335 599 L 335 566 Q 335 541 334 501 L 334 468 Q 334 434 334 392 C 334 362 371 370 372 400 Q 373 442 375 479 L 377 515 Z" fill="lightgray" class="stroke step4"/>
    <path d="M 223 320 Q 257 351 380 366 Q 408 372 423 361 Q 435 352 412 184 Q 406 133 384 101 Q 377 94 360 96 Q 332 105 308 113 Q 295 117 295 111 Q 294 107 302 99 Q 345 50 359 18 Q 366 -1 384 8 Q 444 36 453 103 Q 468 190 478 287 Q 482 321 499 352 Q 511 367 499 378 Q 483 397 447 415 Q 428 425 401 413 Q 385 406 372 400 L 334 392 Q 303 386 254 372 Q 229 368 228 389 C 211 414 198 303 223 320 Z" fill="lightgray" class="hide"/>
    <path d="M 84 274 Q 77 220 59 170 Q 50 137 72 113 Q 82 100 97 114 Q 133 163 118 231 Q 115 259 104 280 Q 98 286 93 285 Q 86 282 84 274 Z" fill="lightgray" class="hide"/>
    <path d="M 163 247 Q 169 190 181 170 Q 188 163 197 166 Q 204 170 210 180 Q 216 193 212 207 Q 209 219 184 261 Q 177 270 171 272 Q 167 273 164 266 Q 161 260 163 247 Z" fill="lightgray" class="hide"/>
    <path d="M 239 254 Q 243 221 261 199 Q 268 193 277 198 Q 284 202 288 213 Q 289 238 257 272 Q 250 279 243 280 Q 239 281 237 274 Q 234 267 239 254 Z" fill="lightgray" class="hide"/>
    <path d="M 321 259 Q 346 211 353 208 Q 360 207 366 213 Q 372 220 373 241 Q 374 251 360 266 Q 329 293 316 294 Q 312 293 310 285 Q 310 278 321 259 Z" fill="lightgray" class="hide"/>
    <path d="M 537 516 Q 521 528 502 533 Q 496 536 491 531 Q 484 527 492 516 Q 531 438 526 264 Q 526 198 560 178 Q 575 174 578 201 L 578 209 L 577 242 Q 562 377 564 482 C 564 498 562 499 537 516 Z" fill="lightgray" class="hide"/>
    <path d="M 817 229 Q 827 204 852 156 Q 861 140 871 140 Q 886 143 894 168 Q 925 232 927 318 Q 931 372 936 433 Q 940 479 962 509 Q 978 528 966 541 Q 945 560 900 580 Q 882 590 851 578 Q 731 535 537 516 C 507 513 534 477 564 482 Q 568 482 572 483 Q 594 487 623 493 L 651 498 Q 679 505 716 511 L 750 517 Q 852 539 870 523 Q 880 517 880 493 Q 881 379 862 267 Q 861 248 852 246 Q 849 245 839 248 C 812 241 812 241 817 229 Z" fill="lightgray" class="hide"/>
    <path d="M 623 493 Q 632 462 627 433 Q 615 382 583 322 Q 579 318 580 313 Q 581 309 584 311 Q 627 321 672 437 Q 678 453 682 461 Q 685 468 678 477 Q 663 493 651 498 C 624 512 617 516 623 493 Z" fill="lightgray" class="hide"/>
    <path d="M 716 511 Q 716 507 722 501 Q 737 483 733 392 Q 733 359 748 348 Q 761 335 823 340 Q 848 341 856 354 Q 863 361 858 367 Q 852 376 795 375 Q 743 375 778 481 Q 778 509 764 512 Q 757 515 750 517 C 721 526 706 531 716 511 Z" fill="lightgray" class="hide"/>
    <path d="M 578 209 Q 584 208 595 209 Q 665 222 817 229 C 847 230 854 231 839 248 Q 832 258 814 269 Q 798 279 767 272 Q 662 251 577 242 C 547 239 548 211 578 209 Z" fill="lightgray" class="hide"/></g><g transform="scale(1, -1) translate(0, -900)">
    <style type="text/css">
        .origin {display:none;}
        .hide {display:none;}
        .stroke {fill: #000000;}
        
.step1 {transform: translateX(1024px);}
.step2 {transform: translateX(2048px);}
.step3 {transform: translateX(3072px);}
.step4 {transform: translateX(4096px);}
.step5 {transform: translateX(5120px);}
.step6 {transform: translateX(6144px);}
.step7 {transform: translateX(7168px);}
.step8 {transform: translateX(8192px);}
.step9 {transform: translateX(9216px);}
.step10 {transform: translateX(10240px);}
.step11 {transform: translateX(11264px);}
.step12 {transform: translateX(12288px);}
.step13 {transform: translateX(13312px);}
.step14 {transform: translateX(14336px);}
.step15 {transform: translateX(15360px);}
.step16 {transform: translateX(16384px);}
.step17 {transform: translateX(17408px);}
.step18 {transform: translateX(18432px);}
.step19 {transform: translateX(19456px);}
.step20 {transform: translateX(20480px);}
.step21 {transform: translateX(21504px);}
.step22 {transform: translateX(22528px);}
.step23 {transform: translateX(23552px);}
.step24 {transform: translateX(24576px);}
.step25 {transform: translateX(25600px);}
.step26 {transform: translateX(26624px);}
.step27 {transform: translateX(27648px);}
.step28 {transform: translateX(28672px);}
.step29 {transform: translateX(29696px);}
    </style>

    <path d="M 363 690 Q 403 700 447 708 Q 478 715 483 720 Q 490 727 487 734 Q 480 744 455 750 Q 434 753 344 727 Q 230 708 230 706 C 201 698 211 685 241 681 Q 278 675 324 683 L 363 690 Z" fill="lightgray" class="stroke step5"/>
    <path d="M 230 706 Q 215 719 194 727 Q 175 733 167 724 Q 161 718 169 707 Q 184 676 185 498 Q 185 411 172 357 Q 168 336 182 322 Q 203 307 223 320 C 229 323 228 359 228 389 Q 224 620 240 672 Q 241 676 241 681 C 243 696 243 696 230 706 Z" fill="lightgray" class="stroke step5"/>
    <path d="M 380 576 Q 440 591 443 592 Q 450 598 446 604 Q 442 611 421 617 Q 400 621 382 613 L 335 599 Q 310 593 281 590 Q 256 586 274 574 Q 296 562 335 566 L 380 576 Z" fill="lightgray" class="stroke step5"/>
    <path d="M 375 479 Q 399 486 426 492 Q 445 498 448 500 Q 454 507 450 512 Q 446 519 425 524 Q 401 527 377 515 L 334 501 Q 309 495 280 490 Q 255 486 273 474 Q 297 462 334 468 L 375 479 Z" fill="lightgray" class="stroke step5"/>
    <path d="M 377 515 Q 378 548 380 576 L 382 613 Q 382 626 385 648 Q 391 669 363 690 C 340 709 315 712 324 683 Q 336 650 335 599 L 335 566 Q 335 541 334 501 L 334 468 Q 334 434 334 392 C 334 362 371 370 372 400 Q 373 442 375 479 L 377 515 Z" fill="lightgray" class="stroke step5"/>
    <path d="M 223 320 Q 257 351 380 366 Q 408 372 423 361 Q 435 352 412 184 Q 406 133 384 101 Q 377 94 360 96 Q 332 105 308 113 Q 295 117 295 111 Q 294 107 302 99 Q 345 50 359 18 Q 366 -1 384 8 Q 444 36 453 103 Q 468 190 478 287 Q 482 321 499 352 Q 511 367 499 378 Q 483 397 447 415 Q 428 425 401 413 Q 385 406 372 400 L 334 392 Q 303 386 254 372 Q 229 368 228 389 C 211 414 198 303 223 320 Z" fill="lightgray" class="stroke step5"/>
    <path d="M 84 274 Q 77 220 59 170 Q 50 137 72 113 Q 82 100 97 114 Q 133 163 118 231 Q 115 259 104 280 Q 98 286 93 285 Q 86 282 84 274 Z" fill="lightgray" class="hide"/>
    <path d="M 163 247 Q 169 190 181 170 Q 188 163 197 166 Q 204 170 210 180 Q 216 193 212 207 Q 209 219 184 261 Q 177 270 171 272 Q 167 273 164 266 Q 161 260 163 247 Z" fill="lightgray" class="hide"/>
    <path d="M 239 254 Q 243 221 261 199 Q 268 193 277 198 Q 284 202 288 213 Q 289 238 257 272 Q 250 279 243 280 Q 239 281 237 274 Q 234 267 239 254 Z" fill="lightgray" class="hide"/>
    <path d="M 321 259 Q 346 211 353 208 Q 360 207 366 213 Q 372 220 373 241 Q 374 251 360 266 Q 329 293 316 294 Q 312 293 310 285 Q 310 278 321 259 Z" fill="lightgray" class="hide"/>
    <path d="M 537 516 Q 521 528 502 533 Q 496 536 491 531 Q 484 527 492 516 Q 531 438 526 264 Q 526 198 560 178 Q 575 174 578 201 L 578 209 L 577 242 Q 562 377 564 482 C 564 498 562 499 537 516 Z" fill="lightgray" class="hide"/>
    <path d="M 817 229 Q 827 204 852 156 Q 861 140 871 140 Q 886 143 894 168 Q 925 232 927 318 Q 931 372 936 433 Q 940 479 962 509 Q 978 528 966 541 Q 945 560 900 580 Q 882 590 851 578 Q 731 535 537 516 C 507 513 534 477 564 482 Q 568 482 572 483 Q 594 487 623 493 L 651 498 Q 679 505 716 511 L 750 517 Q 852 539 870 523 Q 880 517 880 493 Q 881 379 862 267 Q 861 248 852 246 Q 849 245 839 248 C 812 241 812 241 817 229 Z" fill="lightgray" class="hide"/>
    <path d="M 623 493 Q 632 462 627 433 Q 615 382 583 322 Q 579 318 580 313 Q 581 309 584 311 Q 627 321 672 437 Q 678 453 682 461 Q 685 468 678 477 Q 663 493 651 498 C 624 512 617 516 623 493 Z" fill="lightgray" class="hide"/>
    <path d="M 716 511 Q 716 507 722 501 Q 737 483 733 392 Q 733 359 748 348 Q 761 335 823 340 Q 848 341 856 354 Q 863 361 858 367 Q 852 376 795 375 Q 743 375 778 481 Q 778 509 764 512 Q 757 515 750 517 C 721 526 706 531 716 511 Z" fill="lightgray" class="hide"/>
    <path d="M 578 209 Q 584 208 595 209 Q 665 222 817 229 C 847 230 854 231 839 248 Q 832 258 814 269 Q 798 279 767 272 Q 662 251 577 242 C 547 239 548 211 578 209 Z" fill="lightgray" class="hide"/></g><g transform="scale(1, -1) translate(0, -900)">
    <style type="text/css">
        .origin {display:none;}
        .hide {display:none;}
        .stroke {fill: #000000;}
        
.step1 {transform: translateX(1024px);}
.step2 {transform: translateX(2048px);}
.step3 {transform: translateX(3072px);}
.step4 {transform: translateX(4096px);}
.step5 {transform: translateX(5120px);}
.step6 {transform: translateX(6144px);}
.step7 {transform: translateX(7168px);}
.step8 {transform: translateX(8192px);}
.step9 {transform: translateX(9216px);}
.step10 {transform: translateX(10240px);}
.step11 {transform: translateX(11264px);}
.step12 {transform: translateX(12288px);}
.step13 {transform: translateX(13312px);}
.step14 {transform: translateX(14336px);}
.step15 {transform: translateX(15360px);}
.step16 {transform: translateX(16384px);}
.step17 {transform: translateX(17408px);}
.step18 {transform: translateX(18432px);}
.step19 {transform: translateX(19456px);}
.step20 {transform: translateX(20480px);}
.step21 {transform: translateX(21504px);}
.step22 {transform: translateX(22528px);}
.step23 {transform: translateX(23552px);}
.step24 {transform: translateX(24576px);}
.step25 {transform: translateX(25600px);}
.step26 {transform: translateX(26624px);}
.step27 {transform: translateX(27648px);}
.step28 {transform: translateX(28672px);}
.step29 {transform: translateX(29696px);}
    </style>

    <path d="M 363 690 Q 403 700 447 708 Q 478 715 483 720 Q 490 727 487 734 Q 480 744 455 750 Q 434 753 344 727 Q 230 708 230 706 C 201 698 211 685 241 681 Q 278 675 324 683 L 363 690 Z" fill="lightgray" class="stroke step6"/>
    <path d="M 230 706 Q 215 719 194 727 Q 175 733 167 724 Q 161 718 169 707 Q 184 676 185 498 Q 185 411 172 357 Q 168 336 182 322 Q 203 307 223 320 C 229 323 228 359 228 389 Q 224 620 240 672 Q 241 676 241 681 C 243 696 243 696 230 706 Z" fill="lightgray" class="stroke step6"/>
    <path d="M 380 576 Q 440 591 443 592 Q 450 598 446 604 Q 442 611 421 617 Q 400 621 382 613 L 335 599 Q 310 593 281 590 Q 256 586 274 574 Q 296 562 335 566 L 380 576 Z" fill="lightgray" class="stroke step6"/>
    <path d="M 375 479 Q 399 486 426 492 Q 445 498 448 500 Q 454 507 450 512 Q 446 519 425 524 Q 401 527 377 515 L 334 501 Q 309 495 280 490 Q 255 486 273 474 Q 297 462 334 468 L 375 479 Z" fill="lightgray" class="stroke step6"/>
    <path d="M 377 515 Q 378 548 380 576 L 382 613 Q 382 626 385 648 Q 391 669 363 690 C 340 709 315 712 324 683 Q 336 650 335 599 L 335 566 Q 335 541 334 501 L 334 468 Q 334 434 334 392 C 334 362 371 370 372 400 Q 373 442 375 479 L 377 515 Z" fill="lightgray" class="stroke step6"/>
    <path d="M 223 320 Q 257 351 380 366 Q 408 372 423 361 Q 435 352 412 184 Q 406 133 384 101 Q 377 94 360 96 Q 332 105 308 113 Q 295 117 295 111 Q 294 107 302 99 Q 345 50 359 18 Q 366 -1 384 8 Q 444 36 453 103 Q 468 190 478 287 Q 482 321 499 352 Q 511 367 499 378 Q 483 397 447 415 Q 428 425 401 413 Q 385 406 372 400 L 334 392 Q 303 386 254 372 Q 229 368 228 389 C 211 414 198 303 223 320 Z" fill="lightgray" class="stroke step6"/>
    <path d="M 84 274 Q 77 220 59 170 Q 50 137 72 113 Q 82 100 97 114 Q 133 163 118 231 Q 115 259 104 280 Q 98 286 93 285 Q 86 282 84 274 Z" fill="lightgray" class="stroke step6"/>
    <path d="M 163 247 Q 169 190 181 170 Q 188 163 197 166 Q 204 170 210 180 Q 216 193 212 207 Q 209 219 184 261 Q 177 270 171 272 Q 167 273 164 266 Q 161 260 163 247 Z" fill="lightgray" class="hide"/>
    <path d="M 239 254 Q 243 221 261 199 Q 268 193 277 198 Q 284 202 288 213 Q 289 238 257 272 Q 250 279 243 280 Q 239 281 237 274 Q 234 267 239 254 Z" fill="lightgray" class="hide"/>
    <path d="M 321 259 Q 346 211 353 208 Q 360 207 366 213 Q 372 220 373 241 Q 374 251 360 266 Q 329 293 316 294 Q 312 293 310 285 Q 310 278 321 259 Z" fill="lightgray" class="hide"/>
    <path d="M 537 516 Q 521 528 502 533 Q 496 536 491 531 Q 484 527 492 516 Q 531 438 526 264 Q 526 198 560 178 Q 575 174 578 201 L 578 209 L 577 242 Q 562 377 564 482 C 564 498 562 499 537 516 Z" fill="lightgray" class="hide"/>
    <path d="M 817 229 Q 827 204 852 156 Q 861 140 871 140 Q 886 143 894 168 Q 925 232 927 318 Q 931 372 936 433 Q 940 479 962 509 Q 978 528 966 541 Q 945 560 900 580 Q 882 590 851 578 Q 731 535 537 516 C 507 513 534 477 564 482 Q 568 482 572 483 Q 594 487 623 493 L 651 498 Q 679 505 716 511 L 750 517 Q 852 539 870 523 Q 880 517 880 493 Q 881 379 862 267 Q 861 248 852 246 Q 849 245 839 248 C 812 241 812 241 817 229 Z" fill="lightgray" class="hide"/>
    <path d="M 623 493 Q 632 462 627 433 Q 615 382 583 322 Q 579 318 580 313 Q 581 309 584 311 Q 627 321 672 437 Q 678 453 682 461 Q 685 468 678 477 Q 663 493 651 498 C 624 512 617 516 623 493 Z" fill="lightgray" class="hide"/>
    <path d="M 716 511 Q 716 507 722 501 Q 737 483 733 392 Q 733 359 748 348 Q 761 335 823 340 Q 848 341 856 354 Q 863 361 858 367 Q 852 376 795 375 Q 743 375 778 481 Q 778 509 764 512 Q 757 515 750 517 C 721 526 706 531 716 511 Z" fill="lightgray" class="hide"/>
    <path d="M 578 209 Q 584 208 595 209 Q 665 222 817 229 C 847 230 854 231 839 248 Q 832 258 814 269 Q 798 279 767 272 Q 662 251 577 242 C 547 239 548 211 578 209 Z" fill="lightgray" class="hide"/></g><g transform="scale(1, -1) translate(0, -900)">
    <style type="text/css">
        .origin {display:none;}
        .hide {display:none;}
        .stroke {fill: #000000;}
        
.step1 {transform: translateX(1024px);}
.step2 {transform: translateX(2048px);}
.step3 {transform: translateX(3072px);}
.step4 {transform: translateX(4096px);}
.step5 {transform: translateX(5120px);}
.step6 {transform: translateX(6144px);}
.step7 {transform: translateX(7168px);}
.step8 {transform: translateX(8192px);}
.step9 {transform: translateX(9216px);}
.step10 {transform: translateX(10240px);}
.step11 {transform: translateX(11264px);}
.step12 {transform: translateX(12288px);}
.step13 {transform: translateX(13312px);}
.step14 {transform: translateX(14336px);}
.step15 {transform: translateX(15360px);}
.step16 {transform: translateX(16384px);}
.step17 {transform: translateX(17408px);}
.step18 {transform: translateX(18432px);}
.step19 {transform: translateX(19456px);}
.step20 {transform: translateX(20480px);}
.step21 {transform: translateX(21504px);}
.step22 {transform: translateX(22528px);}
.step23 {transform: translateX(23552px);}
.step24 {transform: translateX(24576px);}
.step25 {transform: translateX(25600px);}
.step26 {transform: translateX(26624px);}
.step27 {transform: translateX(27648px);}
.step28 {transform: translateX(28672px);}
.step29 {transform: translateX(29696px);}
    </style>

    <path d="M 363 690 Q 403 700 447 708 Q 478 715 483 720 Q 490 727 487 734 Q 480 744 455 750 Q 434 753 344 727 Q 230 708 230 706 C 201 698 211 685 241 681 Q 278 675 324 683 L 363 690 Z" fill="lightgray" class="stroke step7"/>
    <path d="M 230 706 Q 215 719 194 727 Q 175 733 167 724 Q 161 718 169 707 Q 184 676 185 498 Q 185 411 172 357 Q 168 336 182 322 Q 203 307 223 320 C 229 323 228 359 228 389 Q 224 620 240 672 Q 241 676 241 681 C 243 696 243 696 230 706 Z" fill="lightgray" class="stroke step7"/>
    <path d="M 380 576 Q 440 591 443 592 Q 450 598 446 604 Q 442 611 421 617 Q 400 621 382 613 L 335 599 Q 310 593 281 590 Q 256 586 274 574 Q 296 562 335 566 L 380 576 Z" fill="lightgray" class="stroke step7"/>
    <path d="M 375 479 Q 399 486 426 492 Q 445 498 448 500 Q 454 507 450 512 Q 446 519 425 524 Q 401 527 377 515 L 334 501 Q 309 495 280 490 Q 255 486 273 474 Q 297 462 334 468 L 375 479 Z" fill="lightgray" class="stroke step7"/>
    <path d="M 377 515 Q 378 548 380 576 L 382 613 Q 382 626 385 648 Q 391 669 363 690 C 340 709 315 712 324 683 Q 336 650 335 599 L 335 566 Q 335 541 334 501 L 334 468 Q 334 434 334 392 C 334 362 371 370 372 400 Q 373 442 375 479 L 377 515 Z" fill="lightgray" class="stroke step7"/>
    <path d="M 223 320 Q 257 351 380 366 Q 408 372 423 361 Q 435 352 412 184 Q 406 133 384 101 Q 377 94 360 96 Q 332 105 308 113 Q 295 117 295 111 Q 294 107 302 99 Q 345 50 359 18 Q 366 -1 384 8 Q 444 36 453 103 Q 468 190 478 287 Q 482 321 499 352 Q 511 367 499 378 Q 483 397 447 415 Q 428 425 401 413 Q 385 406 372 400 L 334 392 Q 303 386 254 372 Q 229 368 228 389 C 211 414 198 303 223 320 Z" fill="lightgray" class="stroke step7"/>
    <path d="M 84 274 Q 77 220 59 170 Q 50 137 72 113 Q 82 100 97 114 Q 133 163 118 231 Q 115 259 104 280 Q 98 286 93 285 Q 86 282 84 274 Z" fill="lightgray" class="stroke step7"/>
    <path d="M 163 247 Q 169 190 181 170 Q 188 163 197 166 Q 204 170 210 180 Q 216 193 212 207 Q 209 219 184 261 Q 177 270 171 272 Q 167 273 164 266 Q 161 260 163 247 Z" fill="lightgray" class="stroke step7"/>
    <path d="M 239 254 Q 243 221 261 199 Q 268 193 277 198 Q 284 202 288 213 Q 289 238 257 272 Q 250 279 243 280 Q 239 281 237 274 Q 234 267 239 254 Z" fill="lightgray" class="hide"/>
    <path d="M 321 259 Q 346 211 353 208 Q 360 207 366 213 Q 372 220 373 241 Q 374 251 360 266 Q 329 293 316 294 Q 312 293 310 285 Q 310 278 321 259 Z" fill="lightgray" class="hide"/>
    <path d="M 537 516 Q 521 528 502 533 Q 496 536 491 531 Q 484 527 492 516 Q 531 438 526 264 Q 526 198 560 178 Q 575 174 578 201 L 578 209 L 577 242 Q 562 377 564 482 C 564 498 562 499 537 516 Z" fill="lightgray" class="hide"/>
    <path d="M 817 229 Q 827 204 852 156 Q 861 140 871 140 Q 886 143 894 168 Q 925 232 927 318 Q 931 372 936 433 Q 940 479 962 509 Q 978 528 966 541 Q 945 560 900 580 Q 882 590 851 578 Q 731 535 537 516 C 507 513 534 477 564 482 Q 568 482 572 483 Q 594 487 623 493 L 651 498 Q 679 505 716 511 L 750 517 Q 852 539 870 523 Q 880 517 880 493 Q 881 379 862 267 Q 861 248 852 246 Q 849 245 839 248 C 812 241 812 241 817 229 Z" fill="lightgray" class="hide"/>
    <path d="M 623 493 Q 632 462 627 433 Q 615 382 583 322 Q 579 318 580 313 Q 581 309 584 311 Q 627 321 672 437 Q 678 453 682 461 Q 685 468 678 477 Q 663 493 651 498 C 624 512 617 516 623 493 Z" fill="lightgray" class="hide"/>
    <path d="M 716 511 Q 716 507 722 501 Q 737 483 733 392 Q 733 359 748 348 Q 761 335 823 340 Q 848 341 856 354 Q 863 361 858 367 Q 852 376 795 375 Q 743 375 778 481 Q 778 509 764 512 Q 757 515 750 517 C 721 526 706 531 716 511 Z" fill="lightgray" class="hide"/>
    <path d="M 578 209 Q 584 208 595 209 Q 665 222 817 229 C 847 230 854 231 839 248 Q 832 258 814 269 Q 798 279 767 272 Q 662 251 577 242 C 547 239 548 211 578 209 Z" fill="lightgray" class="hide"/></g><g transform="scale(1, -1) translate(0, -900)">
    <style type="text/css">
        .origin {display:none;}
        .hide {display:none;}
        .stroke {fill: #000000;}
        
.step1 {transform: translateX(1024px);}
.step2 {transform: translateX(2048px);}
.step3 {transform: translateX(3072px);}
.step4 {transform: translateX(4096px);}
.step5 {transform: translateX(5120px);}
.step6 {transform: translateX(6144px);}
.step7 {transform: translateX(7168px);}
.step8 {transform: translateX(8192px);}
.step9 {transform: translateX(9216px);}
.step10 {transform: translateX(10240px);}
.step11 {transform: translateX(11264px);}
.step12 {transform: translateX(12288px);}
.step13 {transform: translateX(13312px);}
.step14 {transform: translateX(14336px);}
.step15 {transform: translateX(15360px);}
.step16 {transform: translateX(16384px);}
.step17 {transform: translateX(17408px);}
.step18 {transform: translateX(18432px);}
.step19 {transform: translateX(19456px);}
.step20 {transform: translateX(20480px);}
.step21 {transform: translateX(21504px);}
.step22 {transform: translateX(22528px);}
.step23 {transform: translateX(23552px);}
.step24 {transform: translateX(24576px);}
.step25 {transform: translateX(25600px);}
.step26 {transform: translateX(26624px);}
.step27 {transform: translateX(27648px);}
.step28 {transform: translateX(28672px);}
.step29 {transform: translateX(29696px);}
    </style>

    <path d="M 363 690 Q 403 700 447 708 Q 478 715 483 720 Q 490 727 487 734 Q 480 744 455 750 Q 434 753 344 727 Q 230 708 230 706 C 201 698 211 685 241 681 Q 278 675 324 683 L 363 690 Z" fill="lightgray" class="stroke step8"/>
    <path d="M 230 706 Q 215 719 194 727 Q 175 733 167 724 Q 161 718 169 707 Q 184 676 185 498 Q 185 411 172 357 Q 168 336 182 322 Q 203 307 223 320 C 229 323 228 359 228 389 Q 224 620 240 672 Q 241 676 241 681 C 243 696 243 696 230 706 Z" fill="lightgray" class="stroke step8"/>
    <path d="M 380 576 Q 440 591 443 592 Q 450 598 446 604 Q 442 611 421 617 Q 400 621 382 613 L 335 599 Q 310 593 281 590 Q 256 586 274 574 Q 296 562 335 566 L 380 576 Z" fill="lightgray" class="stroke step8"/>
    <path d="M 375 479 Q 399 486 426 492 Q 445 498 448 500 Q 454 507 450 512 Q 446 519 425 524 Q 401 527 377 515 L 334 501 Q 309 495 280 490 Q 255 486 273 474 Q 297 462 334 468 L 375 479 Z" fill="lightgray" class="stroke step8"/>
    <path d="M 377 515 Q 378 548 380 576 L 382 613 Q 382 626 385 648 Q 391 669 363 690 C 340 709 315 712 324 683 Q 336 650 335 599 L 335 566 Q 335 541 334 501 L 334 468 Q 334 434 334 392 C 334 362 371 370 372 400 Q 373 442 375 479 L 377 515 Z" fill="lightgray" class="stroke step8"/>
    <path d="M 223 320 Q 257 351 380 366 Q 408 372 423 361 Q 435 352 412 184 Q 406 133 384 101 Q 377 94 360 96 Q 332 105 308 113 Q 295 117 295 111 Q 294 107 302 99 Q 345 50 359 18 Q 366 -1 384 8 Q 444 36 453 103 Q 468 190 478 287 Q 482 321 499 352 Q 511 367 499 378 Q 483 397 447 415 Q 428 425 401 413 Q 385 406 372 400 L 334 392 Q 303 386 254 372 Q 229 368 228 389 C 211 414 198 303 223 320 Z" fill="lightgray" class="stroke step8"/>
    <path d="M 84 274 Q 77 220 59 170 Q 50 137 72 113 Q 82 100 97 114 Q 133 163 118 231 Q 115 259 104 280 Q 98 286 93 285 Q 86 282 84 274 Z" fill="lightgray" class="stroke step8"/>
    <path d="M 163 247 Q 169 190 181 170 Q 188 163 197 166 Q 204 170 210 180 Q 216 193 212 207 Q 209 219 184 261 Q 177 270 171 272 Q 167 273 164 266 Q 161 260 163 247 Z" fill="lightgray" class="stroke step8"/>
    <path d="M 239 254 Q 243 221 261 199 Q 268 193 277 198 Q 284 202 288 213 Q 289 238 257 272 Q 250 279 243 280 Q 239 281 237 274 Q 234 267 239 254 Z" fill="lightgray" class="stroke step8"/>
    <path d="M 321 259 Q 346 211 353 208 Q 360 207 366 213 Q 372 220 373 241 Q 374 251 360 266 Q 329 293 316 294 Q 312 293 310 285 Q 310 278 321 259 Z" fill="lightgray" class="hide"/>
    <path d="M 537 516 Q 521 528 502 533 Q 496 536 491 531 Q 484 527 492 516 Q 531 438 526 264 Q 526 198 560 178 Q 575 174 578 201 L 578 209 L 577 242 Q 562 377 564 482 C 564 498 562 499 537 516 Z" fill="lightgray" class="hide"/>
    <path d="M 817 229 Q 827 204 852 156 Q 861 140 871 140 Q 886 143 894 168 Q 925 232 927 318 Q 931 372 936 433 Q 940 479 962 509 Q 978 528 966 541 Q 945 560 900 580 Q 882 590 851 578 Q 731 535 537 516 C 507 513 534 477 564 482 Q 568 482 572 483 Q 594 487 623 493 L 651 498 Q 679 505 716 511 L 750 517 Q 852 539 870 523 Q 880 517 880 493 Q 881 379 862 267 Q 861 248 852 246 Q 849 245 839 248 C 812 241 812 241 817 229 Z" fill="lightgray" class="hide"/>
    <path d="M 623 493 Q 632 462 627 433 Q 615 382 583 322 Q 579 318 580 313 Q 581 309 584 311 Q 627 321 672 437 Q 678 453 682 461 Q 685 468 678 477 Q 663 493 651 498 C 624 512 617 516 623 493 Z" fill="lightgray" class="hide"/>
    <path d="M 716 511 Q 716 507 722 501 Q 737 483 733 392 Q 733 359 748 348 Q 761 335 823 340 Q 848 341 856 354 Q 863 361 858 367 Q 852 376 795 375 Q 743 375 778 481 Q 778 509 764 512 Q 757 515 750 517 C 721 526 706 531 716 511 Z" fill="lightgray" class="hide"/>
    <path d="M 578 209 Q 584 208 595 209 Q 665 222 817 229 C 847 230 854 231 839 248 Q 832 258 814 269 Q 798 279 767 272 Q 662 251 577 242 C 547 239 548 211 578 209 Z" fill="lightgray" class="hide"/></g><g transform="scale(1, -1) translate(0, -900)">
    <style type="text/css">
        .origin {display:none;}
        .hide {display:none;}
        .stroke {fill: #000000;}
        
.step1 {transform: translateX(1024px);}
.step2 {transform: translateX(2048px);}
.step3 {transform: translateX(3072px);}
.step4 {transform: translateX(4096px);}
.step5 {transform: translateX(5120px);}
.step6 {transform: translateX(6144px);}
.step7 {transform: translateX(7168px);}
.step8 {transform: translateX(8192px);}
.step9 {transform: translateX(9216px);}
.step10 {transform: translateX(10240px);}
.step11 {transform: translateX(11264px);}
.step12 {transform: translateX(12288px);}
.step13 {transform: translateX(13312px);}
.step14 {transform: translateX(14336px);}
.step15 {transform: translateX(15360px);}
.step16 {transform: translateX(16384px);}
.step17 {transform: translateX(17408px);}
.step18 {transform: translateX(18432px);}
.step19 {transform: translateX(19456px);}
.step20 {transform: translateX(20480px);}
.step21 {transform: translateX(21504px);}
.step22 {transform: translateX(22528px);}
.step23 {transform: translateX(23552px);}
.step24 {transform: translateX(24576px);}
.step25 {transform: translateX(25600px);}
.step26 {transform: translateX(26624px);}
.step27 {transform: translateX(27648px);}
.step28 {transform: translateX(28672px);}
.step29 {transform: translateX(29696px);}
    </style>

    <path d="M 363 690 Q 403 700 447 708 Q 478 715 483 720 Q 490 727 487 734 Q 480 744 455 750 Q 434 753 344 727 Q 230 708 230 706 C 201 698 211 685 241 681 Q 278 675 324 683 L 363 690 Z" fill="lightgray" class="stroke step9"/>
    <path d="M 230 706 Q 215 719 194 727 Q 175 733 167 724 Q 161 718 169 707 Q 184 676 185 498 Q 185 411 172 357 Q 168 336 182 322 Q 203 307 223 320 C 229 323 228 359 228 389 Q 224 620 240 672 Q 241 676 241 681 C 243 696 243 696 230 706 Z" fill="lightgray" class="stroke step9"/>
    <path d="M 380 576 Q 440 591 443 592 Q 450 598 446 604 Q 442 611 421 617 Q 400 621 382 613 L 335 599 Q 310 593 281 590 Q 256 586 274 574 Q 296 562 335 566 L 380 576 Z" fill="lightgray" class="stroke step9"/>
    <path d="M 375 479 Q 399 486 426 492 Q 445 498 448 500 Q 454 507 450 512 Q 446 519 425 524 Q 401 527 377 515 L 334 501 Q 309 495 280 490 Q 255 486 273 474 Q 297 462 334 468 L 375 479 Z" fill="lightgray" class="stroke step9"/>
    <path d="M 377 515 Q 378 548 380 576 L 382 613 Q 382 626 385 648 Q 391 669 363 690 C 340 709 315 712 324 683 Q 336 650 335 599 L 335 566 Q 335 541 334 501 L 334 468 Q 334 434 334 392 C 334 362 371 370 372 400 Q 373 442 375 479 L 377 515 Z" fill="lightgray" class="stroke step9"/>
    <path d="M 223 320 Q 257 351 380 366 Q 408 372 423 361 Q 435 352 412 184 Q 406 133 384 101 Q 377 94 360 96 Q 332 105 308 113 Q 295 117 295 111 Q 294 107 302 99 Q 345 50 359 18 Q 366 -1 384 8 Q 444 36 453 103 Q 468 190 478 287 Q 482 321 499 352 Q 511 367 499 378 Q 483 397 447 415 Q 428 425 401 413 Q 385 406 372 400 L 334 392 Q 303 386 254 372 Q 229 368 228 389 C 211 414 198 303 223 320 Z" fill="lightgray" class="stroke step9"/>
    <path d="M 84 274 Q 77 220 59 170 Q 50 137 72 113 Q 82 100 97 114 Q 133 163 118 231 Q 115 259 104 280 Q 98 286 93 285 Q 86 282 84 274 Z" fill="lightgray" class="stroke step9"/>
    <path d="M 163 247 Q 169 190 181 170 Q 188 163 197 166 Q 204 170 210 180 Q 216 193 212 207 Q 209 219 184 261 Q 177 270 171 272 Q 167 273 164 266 Q 161 260 163 247 Z" fill="lightgray" class="stroke step9"/>
    <path d="M 239 254 Q 243 221 261 199 Q 268 193 277 198 Q 284 202 288 213 Q 289 238 257 272 Q 250 279 243 280 Q 239 281 237 274 Q 234 267 239 254 Z" fill="lightgray" class="stroke step9"/>
    <path d="M 321 259 Q 346 211 353 208 Q 360 207 366 213 Q 372 220 373 241 Q 374 251 360 266 Q 329 293 316 294 Q 312 293 310 285 Q 310 278 321 259 Z" fill="lightgray" class="stroke step9"/>
    <path d="M 537 516 Q 521 528 502 533 Q 496 536 491 531 Q 484 527 492 516 Q 531 438 526 264 Q 526 198 560 178 Q 575 174 578 201 L 578 209 L 577 242 Q 562 377 564 482 C 564 498 562 499 537 516 Z" fill="lightgray" class="hide"/>
    <path d="M 817 229 Q 827 204 852 156 Q 861 140 871 140 Q 886 143 894 168 Q 925 232 927 318 Q 931 372 936 433 Q 940 479 962 509 Q 978 528 966 541 Q 945 560 900 580 Q 882 590 851 578 Q 731 535 537 516 C 507 513 534 477 564 482 Q 568 482 572 483 Q 594 487 623 493 L 651 498 Q 679 505 716 511 L 750 517 Q 852 539 870 523 Q 880 517 880 493 Q 881 379 862 267 Q 861 248 852 246 Q 849 245 839 248 C 812 241 812 241 817 229 Z" fill="lightgray" class="hide"/>
    <path d="M 623 493 Q 632 462 627 433 Q 615 382 583 322 Q 579 318 580 313 Q 581 309 584 311 Q 627 321 672 437 Q 678 453 682 461 Q 685 468 678 477 Q 663 493 651 498 C 624 512 617 516 623 493 Z" fill="lightgray" class="hide"/>
    <path d="M 716 511 Q 716 507 722 501 Q 737 483 733 392 Q 733 359 748 348 Q 761 335 823 340 Q 848 341 856 354 Q 863 361 858 367 Q 852 376 795 375 Q 743 375 778 481 Q 778 509 764 512 Q 757 515 750 517 C 721 526 706 531 716 511 Z" fill="lightgray" class="hide"/>
    <path d="M 578 209 Q 584 208 595 209 Q 665 222 817 229 C 847 230 854 231 839 248 Q 832 258 814 269 Q 798 279 767 272 Q 662 251 577 242 C 547 239 548 211 578 209 Z" fill="lightgray" class="hide"/></g><g transform="scale(1, -1) translate(0, -900)">
    <style type="text/css">
        .origin {display:none;}
        .hide {display:none;}
        .stroke {fill: #000000;}
        
.step1 {transform: translateX(1024px);}
.step2 {transform: translateX(2048px);}
.step3 {transform: translateX(3072px);}
.step4 {transform: translateX(4096px);}
.step5 {transform: translateX(5120px);}
.step6 {transform: translateX(6144px);}
.step7 {transform: translateX(7168px);}
.step8 {transform: translateX(8192px);}
.step9 {transform: translateX(9216px);}
.step10 {transform: translateX(10240px);}
.step11 {transform: translateX(11264px);}
.step12 {transform: translateX(12288px);}
.step13 {transform: translateX(13312px);}
.step14 {transform: translateX(14336px);}
.step15 {transform: translateX(15360px);}
.step16 {transform: translateX(16384px);}
.step17 {transform: translateX(17408px);}
.step18 {transform: translateX(18432px);}
.step19 {transform: translateX(19456px);}
.step20 {transform: translateX(20480px);}
.step21 {transform: translateX(21504px);}
.step22 {transform: translateX(22528px);}
.step23 {transform: translateX(23552px);}
.step24 {transform: translateX(24576px);}
.step25 {transform: translateX(25600px);}
.step26 {transform: translateX(26624px);}
.step27 {transform: translateX(27648px);}
.step28 {transform: translateX(28672px);}
.step29 {transform: translateX(29696px);}
    </style>

    <path d="M 363 690 Q 403 700 447 708 Q 478 715 483 720 Q 490 727 487 734 Q 480 744 455 750 Q 434 753 344 727 Q 230 708 230 706 C 201 698 211 685 241 681 Q 278 675 324 683 L 363 690 Z" fill="lightgray" class="stroke step10"/>
    <path d="M 230 706 Q 215 719 194 727 Q 175 733 167 724 Q 161 718 169 707 Q 184 676 185 498 Q 185 411 172 357 Q 168 336 182 322 Q 203 307 223 320 C 229 323 228 359 228 389 Q 224 620 240 672 Q 241 676 241 681 C 243 696 243 696 230 706 Z" fill="lightgray" class="stroke step10"/>
    <path d="M 380 576 Q 440 591 443 592 Q 450 598 446 604 Q 442 611 421 617 Q 400 621 382 613 L 335 599 Q 310 593 281 590 Q 256 586 274 574 Q 296 562 335 566 L 380 576 Z" fill="lightgray" class="stroke step10"/>
    <path d="M 375 479 Q 399 486 426 492 Q 445 498 448 500 Q 454 507 450 512 Q 446 519 425 524 Q 401 527 377 515 L 334 501 Q 309 495 280 490 Q 255 486 273 474 Q 297 462 334 468 L 375 479 Z" fill="lightgray" class="stroke step10"/>
    <path d="M 377 515 Q 378 548 380 576 L 382 613 Q 382 626 385 648 Q 391 669 363 690 C 340 709 315 712 324 683 Q 336 650 335 599 L 335 566 Q 335 541 334 501 L 334 468 Q 334 434 334 392 C 334 362 371 370 372 400 Q 373 442 375 479 L 377 515 Z" fill="lightgray" class="stroke step10"/>
    <path d="M 223 320 Q 257 351 380 366 Q 408 372 423 361 Q 435 352 412 184 Q 406 133 384 101 Q 377 94 360 96 Q 332 105 308 113 Q 295 117 295 111 Q 294 107 302 99 Q 345 50 359 18 Q 366 -1 384 8 Q 444 36 453 103 Q 468 190 478 287 Q 482 321 499 352 Q 511 367 499 378 Q 483 397 447 415 Q 428 425 401 413 Q 385 406 372 400 L 334 392 Q 303 386 254 372 Q 229 368 228 389 C 211 414 198 303 223 320 Z" fill="lightgray" class="stroke step10"/>
    <path d="M 84 274 Q 77 220 59 170 Q 50 137 72 113 Q 82 100 97 114 Q 133 163 118 231 Q 115 259 104 280 Q 98 286 93 285 Q 86 282 84 274 Z" fill="lightgray" class="stroke step10"/>
    <path d="M 163 247 Q 169 190 181 170 Q 188 163 197 166 Q 204 170 210 180 Q 216 193 212 207 Q 209 219 184 261 Q 177 270 171 272 Q 167 273 164 266 Q 161 260 163 247 Z" fill="lightgray" class="stroke step10"/>
    <path d="M 239 254 Q 243 221 261 199 Q 268 193 277 198 Q 284 202 288 213 Q 289 238 257 272 Q 250 279 243 280 Q 239 281 237 274 Q 234 267 239 254 Z" fill="lightgray" class="stroke step10"/>
    <path d="M 321 259 Q 346 211 353 208 Q 360 207 366 213 Q 372 220 373 241 Q 374 251 360 266 Q 329 293 316 294 Q 312 293 310 285 Q 310 278 321 259 Z" fill="lightgray" class="stroke step10"/>
    <path d="M 537 516 Q 521 528 502 533 Q 496 536 491 531 Q 484 527 492 516 Q 531 438 526 264 Q 526 198 560 178 Q 575 174 578 201 L 578 209 L 577 242 Q 562 377 564 482 C 564 498 562 499 537 516 Z" fill="lightgray" class="stroke step10"/>
    <path d="M 817 229 Q 827 204 852 156 Q 861 140 871 140 Q 886 143 894 168 Q 925 232 927 318 Q 931 372 936 433 Q 940 479 962 509 Q 978 528 966 541 Q 945 560 900 580 Q 882 590 851 578 Q 731 535 537 516 C 507 513 534 477 564 482 Q 568 482 572 483 Q 594 487 623 493 L 651 498 Q 679 505 716 511 L 750 517 Q 852 539 870 523 Q 880 517 880 493 Q 881 379 862 267 Q 861 248 852 246 Q 849 245 839 248 C 812 241 812 241 817 229 Z" fill="lightgray" class="hide"/>
    <path d="M 623 493 Q 632 462 627 433 Q 615 382 583 322 Q 579 318 580 313 Q 581 309 584 311 Q 627 321 672 437 Q 678 453 682 461 Q 685 468 678 477 Q 663 493 651 498 C 624 512 617 516 623 493 Z" fill="lightgray" class="hide"/>
    <path d="M 716 511 Q 716 507 722 501 Q 737 483 733 392 Q 733 359 748 348 Q 761 335 823 340 Q 848 341 856 354 Q 863 361 858 367 Q 852 376 795 375 Q 743 375 778 481 Q 778 509 764 512 Q 757 515 750 517 C 721 526 706 531 716 511 Z" fill="lightgray" class="hide"/>
    <path d="M 578 209 Q 584 208 595 209 Q 665 222 817 229 C 847 230 854 231 839 248 Q 832 258 814 269 Q 798 279 767 272 Q 662 251 577 242 C 547 239 548 211 578 209 Z" fill="lightgray" class="hide"/></g><g transform="scale(1, -1) translate(0, -900)">
    <style type="text/css">
        .origin {display:none;}
        .hide {display:none;}
        .stroke {fill: #000000;}
        
.step1 {transform: translateX(1024px);}
.step2 {transform: translateX(2048px);}
.step3 {transform: translateX(3072px);}
.step4 {transform: translateX(4096px);}
.step5 {transform: translateX(5120px);}
.step6 {transform: translateX(6144px);}
.step7 {transform: translateX(7168px);}
.step8 {transform: translateX(8192px);}
.step9 {transform: translateX(9216px);}
.step10 {transform: translateX(10240px);}
.step11 {transform: translateX(11264px);}
.step12 {transform: translateX(12288px);}
.step13 {transform: translateX(13312px);}
.step14 {transform: translateX(14336px);}
.step15 {transform: translateX(15360px);}
.step16 {transform: translateX(16384px);}
.step17 {transform: translateX(17408px);}
.step18 {transform: translateX(18432px);}
.step19 {transform: translateX(19456px);}
.step20 {transform: translateX(20480px);}
.step21 {transform: translateX(21504px);}
.step22 {transform: translateX(22528px);}
.step23 {transform: translateX(23552px);}
.step24 {transform: translateX(24576px);}
.step25 {transform: translateX(25600px);}
.step26 {transform: translateX(26624px);}
.step27 {transform: translateX(27648px);}
.step28 {transform: translateX(28672px);}
.step29 {transform: translateX(29696px);}
    </style>

    <path d="M 363 690 Q 403 700 447 708 Q 478 715 483 720 Q 490 727 487 734 Q 480 744 455 750 Q 434 753 344 727 Q 230 708 230 706 C 201 698 211 685 241 681 Q 278 675 324 683 L 363 690 Z" fill="lightgray" class="stroke step11"/>
    <path d="M 230 706 Q 215 719 194 727 Q 175 733 167 724 Q 161 718 169 707 Q 184 676 185 498 Q 185 411 172 357 Q 168 336 182 322 Q 203 307 223 320 C 229 323 228 359 228 389 Q 224 620 240 672 Q 241 676 241 681 C 243 696 243 696 230 706 Z" fill="lightgray" class="stroke step11"/>
    <path d="M 380 576 Q 440 591 443 592 Q 450 598 446 604 Q 442 611 421 617 Q 400 621 382 613 L 335 599 Q 310 593 281 590 Q 256 586 274 574 Q 296 562 335 566 L 380 576 Z" fill="lightgray" class="stroke step11"/>
    <path d="M 375 479 Q 399 486 426 492 Q 445 498 448 500 Q 454 507 450 512 Q 446 519 425 524 Q 401 527 377 515 L 334 501 Q 309 495 280 490 Q 255 486 273 474 Q 297 462 334 468 L 375 479 Z" fill="lightgray" class="stroke step11"/>
    <path d="M 377 515 Q 378 548 380 576 L 382 613 Q 382 626 385 648 Q 391 669 363 690 C 340 709 315 712 324 683 Q 336 650 335 599 L 335 566 Q 335 541 334 501 L 334 468 Q 334 434 334 392 C 334 362 371 370 372 400 Q 373 442 375 479 L 377 515 Z" fill="lightgray" class="stroke step11"/>
    <path d="M 223 320 Q 257 351 380 366 Q 408 372 423 361 Q 435 352 412 184 Q 406 133 384 101 Q 377 94 360 96 Q 332 105 308 113 Q 295 117 295 111 Q 294 107 302 99 Q 345 50 359 18 Q 366 -1 384 8 Q 444 36 453 103 Q 468 190 478 287 Q 482 321 499 352 Q 511 367 499 378 Q 483 397 447 415 Q 428 425 401 413 Q 385 406 372 400 L 334 392 Q 303 386 254 372 Q 229 368 228 389 C 211 414 198 303 223 320 Z" fill="lightgray" class="stroke step11"/>
    <path d="M 84 274 Q 77 220 59 170 Q 50 137 72 113 Q 82 100 97 114 Q 133 163 118 231 Q 115 259 104 280 Q 98 286 93 285 Q 86 282 84 274 Z" fill="lightgray" class="stroke step11"/>
    <path d="M 163 247 Q 169 190 181 170 Q 188 163 197 166 Q 204 170 210 180 Q 216 193 212 207 Q 209 219 184 261 Q 177 270 171 272 Q 167 273 164 266 Q 161 260 163 247 Z" fill="lightgray" class="stroke step11"/>
    <path d="M 239 254 Q 243 221 261 199 Q 268 193 277 198 Q 284 202 288 213 Q 289 238 257 272 Q 250 279 243 280 Q 239 281 237 274 Q 234 267 239 254 Z" fill="lightgray" class="stroke step11"/>
    <path d="M 321 259 Q 346 211 353 208 Q 360 207 366 213 Q 372 220 373 241 Q 374 251 360 266 Q 329 293 316 294 Q 312 293 310 285 Q 310 278 321 259 Z" fill="lightgray" class="stroke step11"/>
    <path d="M 537 516 Q 521 528 502 533 Q 496 536 491 531 Q 484 527 492 516 Q 531 438 526 264 Q 526 198 560 178 Q 575 174 578 201 L 578 209 L 577 242 Q 562 377 564 482 C 564 498 562 499 537 516 Z" fill="lightgray" class="stroke step11"/>
    <path d="M 817 229 Q 827 204 852 156 Q 861 140 871 140 Q 886 143 894 168 Q 925 232 927 318 Q 931 372 936 433 Q 940 479 962 509 Q 978 528 966 541 Q 945 560 900 580 Q 882 590 851 578 Q 731 535 537 516 C 507 513 534 477 564 482 Q 568 482 572 483 Q 594 487 623 493 L 651 498 Q 679 505 716 511 L 750 517 Q 852 539 870 523 Q 880 517 880 493 Q 881 379 862 267 Q 861 248 852 246 Q 849 245 839 248 C 812 241 812 241 817 229 Z" fill="lightgray" class="stroke step11"/>
    <path d="M 623 493 Q 632 462 627 433 Q 615 382 583 322 Q 579 318 580 313 Q 581 309 584 311 Q 627 321 672 437 Q 678 453 682 461 Q 685 468 678 477 Q 663 493 651 498 C 624 512 617 516 623 493 Z" fill="lightgray" class="hide"/>
    <path d="M 716 511 Q 716 507 722 501 Q 737 483 733 392 Q 733 359 748 348 Q 761 335 823 340 Q 848 341 856 354 Q 863 361 858 367 Q 852 376 795 375 Q 743 375 778 481 Q 778 509 764 512 Q 757 515 750 517 C 721 526 706 531 716 511 Z" fill="lightgray" class="hide"/>
    <path d="M 578 209 Q 584 208 595 209 Q 665 222 817 229 C 847 230 854 231 839 248 Q 832 258 814 269 Q 798 279 767 272 Q 662 251 577 242 C 547 239 548 211 578 209 Z" fill="lightgray" class="hide"/></g><g transform="scale(1, -1) translate(0, -900)">
    <style type="text/css">
        .origin {display:none;}
        .hide {display:none;}
        .stroke {fill: #000000;}
        
.step1 {transform: translateX(1024px);}
.step2 {transform: translateX(2048px);}
.step3 {transform: translateX(3072px);}
.step4 {transform: translateX(4096px);}
.step5 {transform: translateX(5120px);}
.step6 {transform: translateX(6144px);}
.step7 {transform: translateX(7168px);}
.step8 {transform: translateX(8192px);}
.step9 {transform: translateX(9216px);}
.step10 {transform: translateX(10240px);}
.step11 {transform: translateX(11264px);}
.step12 {transform: translateX(12288px);}
.step13 {transform: translateX(13312px);}
.step14 {transform: translateX(14336px);}
.step15 {transform: translateX(15360px);}
.step16 {transform: translateX(16384px);}
.step17 {transform: translateX(17408px);}
.step18 {transform: translateX(18432px);}
.step19 {transform: translateX(19456px);}
.step20 {transform: translateX(20480px);}
.step21 {transform: translateX(21504px);}
.step22 {transform: translateX(22528px);}
.step23 {transform: translateX(23552px);}
.step24 {transform: translateX(24576px);}
.step25 {transform: translateX(25600px);}
.step26 {transform: translateX(26624px);}
.step27 {transform: translateX(27648px);}
.step28 {transform: translateX(28672px);}
.step29 {transform: translateX(29696px);}
    </style>

    <path d="M 363 690 Q 403 700 447 708 Q 478 715 483 720 Q 490 727 487 734 Q 480 744 455 750 Q 434 753 344 727 Q 230 708 230 706 C 201 698 211 685 241 681 Q 278 675 324 683 L 363 690 Z" fill="lightgray" class="stroke step12"/>
    <path d="M 230 706 Q 215 719 194 727 Q 175 733 167 724 Q 161 718 169 707 Q 184 676 185 498 Q 185 411 172 357 Q 168 336 182 322 Q 203 307 223 320 C 229 323 228 359 228 389 Q 224 620 240 672 Q 241 676 241 681 C 243 696 243 696 230 706 Z" fill="lightgray" class="stroke step12"/>
    <path d="M 380 576 Q 440 591 443 592 Q 450 598 446 604 Q 442 611 421 617 Q 400 621 382 613 L 335 599 Q 310 593 281 590 Q 256 586 274 574 Q 296 562 335 566 L 380 576 Z" fill="lightgray" class="stroke step12"/>
    <path d="M 375 479 Q 399 486 426 492 Q 445 498 448 500 Q 454 507 450 512 Q 446 519 425 524 Q 401 527 377 515 L 334 501 Q 309 495 280 490 Q 255 486 273 474 Q 297 462 334 468 L 375 479 Z" fill="lightgray" class="stroke step12"/>
    <path d="M 377 515 Q 378 548 380 576 L 382 613 Q 382 626 385 648 Q 391 669 363 690 C 340 709 315 712 324 683 Q 336 650 335 599 L 335 566 Q 335 541 334 501 L 334 468 Q 334 434 334 392 C 334 362 371 370 372 400 Q 373 442 375 479 L 377 515 Z" fill="lightgray" class="stroke step12"/>
    <path d="M 223 320 Q 257 351 380 366 Q 408 372 423 361 Q 435 352 412 184 Q 406 133 384 101 Q 377 94 360 96 Q 332 105 308 113 Q 295 117 295 111 Q 294 107 302 99 Q 345 50 359 18 Q 366 -1 384 8 Q 444 36 453 103 Q 468 190 478 287 Q 482 321 499 352 Q 511 367 499 378 Q 483 397 447 415 Q 428 425 401 413 Q 385 406 372 400 L 334 392 Q 303 386 254 372 Q 229 368 228 389 C 211 414 198 303 223 320 Z" fill="lightgray" class="stroke step12"/>
    <path d="M 84 274 Q 77 220 59 170 Q 50 137 72 113 Q 82 100 97 114 Q 133 163 118 231 Q 115 259 104 280 Q 98 286 93 285 Q 86 282 84 274 Z" fill="lightgray" class="stroke step12"/>
    <path d="M 163 247 Q 169 190 181 170 Q 188 163 197 166 Q 204 170 210 180 Q 216 193 212 207 Q 209 219 184 261 Q 177 270 171 272 Q 167 273 164 266 Q 161 260 163 247 Z" fill="lightgray" class="stroke step12"/>
    <path d="M 239 254 Q 243 221 261 199 Q 268 193 277 198 Q 284 202 288 213 Q 289 238 257 272 Q 250 279 243 280 Q 239 281 237 274 Q 234 267 239 254 Z" fill="lightgray" class="stroke step12"/>
    <path d="M 321 259 Q 346 211 353 208 Q 360 207 366 213 Q 372 220 373 241 Q 374 251 360 266 Q 329 293 316 294 Q 312 293 310 285 Q 310 278 321 259 Z" fill="lightgray" class="stroke step12"/>
    <path d="M 537 516 Q 521 528 502 533 Q 496 536 491 531 Q 484 527 492 516 Q 531 438 526 264 Q 526 198 560 178 Q 575 174 578 201 L 578 209 L 577 242 Q 562 377 564 482 C 564 498 562 499 537 516 Z" fill="lightgray" class="stroke step12"/>
    <path d="M 817 229 Q 827 204 852 156 Q 861 140 871 140 Q 886 143 894 168 Q 925 232 927 318 Q 931 372 936 433 Q 940 479 962 509 Q 978 528 966 541 Q 945 560 900 580 Q 882 590 851 578 Q 731 535 537 516 C 507 513 534 477 564 482 Q 568 482 572 483 Q 594 487 623 493 L 651 498 Q 679 505 716 511 L 750 517 Q 852 539 870 523 Q 880 517 880 493 Q 881 379 862 267 Q 861 248 852 246 Q 849 245 839 248 C 812 241 812 241 817 229 Z" fill="lightgray" class="stroke step12"/>
    <path d="M 623 493 Q 632 462 627 433 Q 615 382 583 322 Q 579 318 580 313 Q 581 309 584 311 Q 627 321 672 437 Q 678 453 682 461 Q 685 468 678 477 Q 663 493 651 498 C 624 512 617 516 623 493 Z" fill="lightgray" class="stroke step12"/>
    <path d="M 716 511 Q 716 507 722 501 Q 737 483 733 392 Q 733 359 748 348 Q 761 335 823 340 Q 848 341 856 354 Q 863 361 858 367 Q 852 376 795 375 Q 743 375 778 481 Q 778 509 764 512 Q 757 515 750 517 C 721 526 706 531 716 511 Z" fill="lightgray" class="hide"/>
    <path d="M 578 209 Q 584 208 595 209 Q 665 222 817 229 C 847 230 854 231 839 248 Q 832 258 814 269 Q 798 279 767 272 Q 662 251 577 242 C 547 239 548 211 578 209 Z" fill="lightgray" class="hide"/></g><g transform="scale(1, -1) translate(0, -900)">
    <style type="text/css">
        .origin {display:none;}
        .hide {display:none;}
        .stroke {fill: #000000;}
        
.step1 {transform: translateX(1024px);}
.step2 {transform: translateX(2048px);}
.step3 {transform: translateX(3072px);}
.step4 {transform: translateX(4096px);}
.step5 {transform: translateX(5120px);}
.step6 {transform: translateX(6144px);}
.step7 {transform: translateX(7168px);}
.step8 {transform: translateX(8192px);}
.step9 {transform: translateX(9216px);}
.step10 {transform: translateX(10240px);}
.step11 {transform: translateX(11264px);}
.step12 {transform: translateX(12288px);}
.step13 {transform: translateX(13312px);}
.step14 {transform: translateX(14336px);}
.step15 {transform: translateX(15360px);}
.step16 {transform: translateX(16384px);}
.step17 {transform: translateX(17408px);}
.step18 {transform: translateX(18432px);}
.step19 {transform: translateX(19456px);}
.step20 {transform: translateX(20480px);}
.step21 {transform: translateX(21504px);}
.step22 {transform: translateX(22528px);}
.step23 {transform: translateX(23552px);}
.step24 {transform: translateX(24576px);}
.step25 {transform: translateX(25600px);}
.step26 {transform: translateX(26624px);}
.step27 {transform: translateX(27648px);}
.step28 {transform: translateX(28672px);}
.step29 {transform: translateX(29696px);}
    </style>

    <path d="M 363 690 Q 403 700 447 708 Q 478 715 483 720 Q 490 727 487 734 Q 480 744 455 750 Q 434 753 344 727 Q 230 708 230 706 C 201 698 211 685 241 681 Q 278 675 324 683 L 363 690 Z" fill="lightgray" class="stroke step13"/>
    <path d="M 230 706 Q 215 719 194 727 Q 175 733 167 724 Q 161 718 169 707 Q 184 676 185 498 Q 185 411 172 357 Q 168 336 182 322 Q 203 307 223 320 C 229 323 228 359 228 389 Q 224 620 240 672 Q 241 676 241 681 C 243 696 243 696 230 706 Z" fill="lightgray" class="stroke step13"/>
    <path d="M 380 576 Q 440 591 443 592 Q 450 598 446 604 Q 442 611 421 617 Q 400 621 382 613 L 335 599 Q 310 593 281 590 Q 256 586 274 574 Q 296 562 335 566 L 380 576 Z" fill="lightgray" class="stroke step13"/>
    <path d="M 375 479 Q 399 486 426 492 Q 445 498 448 500 Q 454 507 450 512 Q 446 519 425 524 Q 401 527 377 515 L 334 501 Q 309 495 280 490 Q 255 486 273 474 Q 297 462 334 468 L 375 479 Z" fill="lightgray" class="stroke step13"/>
    <path d="M 377 515 Q 378 548 380 576 L 382 613 Q 382 626 385 648 Q 391 669 363 690 C 340 709 315 712 324 683 Q 336 650 335 599 L 335 566 Q 335 541 334 501 L 334 468 Q 334 434 334 392 C 334 362 371 370 372 400 Q 373 442 375 479 L 377 515 Z" fill="lightgray" class="stroke step13"/>
    <path d="M 223 320 Q 257 351 380 366 Q 408 372 423 361 Q 435 352 412 184 Q 406 133 384 101 Q 377 94 360 96 Q 332 105 308 113 Q 295 117 295 111 Q 294 107 302 99 Q 345 50 359 18 Q 366 -1 384 8 Q 444 36 453 103 Q 468 190 478 287 Q 482 321 499 352 Q 511 367 499 378 Q 483 397 447 415 Q 428 425 401 413 Q 385 406 372 400 L 334 392 Q 303 386 254 372 Q 229 368 228 389 C 211 414 198 303 223 320 Z" fill="lightgray" class="stroke step13"/>
    <path d="M 84 274 Q 77 220 59 170 Q 50 137 72 113 Q 82 100 97 114 Q 133 163 118 231 Q 115 259 104 280 Q 98 286 93 285 Q 86 282 84 274 Z" fill="lightgray" class="stroke step13"/>
    <path d="M 163 247 Q 169 190 181 170 Q 188 163 197 166 Q 204 170 210 180 Q 216 193 212 207 Q 209 219 184 261 Q 177 270 171 272 Q 167 273 164 266 Q 161 260 163 247 Z" fill="lightgray" class="stroke step13"/>
    <path d="M 239 254 Q 243 221 261 199 Q 268 193 277 198 Q 284 202 288 213 Q 289 238 257 272 Q 250 279 243 280 Q 239 281 237 274 Q 234 267 239 254 Z" fill="lightgray" class="stroke step13"/>
    <path d="M 321 259 Q 346 211 353 208 Q 360 207 366 213 Q 372 220 373 241 Q 374 251 360 266 Q 329 293 316 294 Q 312 293 310 285 Q 310 278 321 259 Z" fill="lightgray" class="stroke step13"/>
    <path d="M 537 516 Q 521 528 502 533 Q 496 536 491 531 Q 484 527 492 516 Q 531 438 526 264 Q 526 198 560 178 Q 575 174 578 201 L 578 209 L 577 242 Q 562 377 564 482 C 564 498 562 499 537 516 Z" fill="lightgray" class="stroke step13"/>
    <path d="M 817 229 Q 827 204 852 156 Q 861 140 871 140 Q 886 143 894 168 Q 925 232 927 318 Q 931 372 936 433 Q 940 479 962 509 Q 978 528 966 541 Q 945 560 900 580 Q 882 590 851 578 Q 731 535 537 516 C 507 513 534 477 564 482 Q 568 482 572 483 Q 594 487 623 493 L 651 498 Q 679 505 716 511 L 750 517 Q 852 539 870 523 Q 880 517 880 493 Q 881 379 862 267 Q 861 248 852 246 Q 849 245 839 248 C 812 241 812 241 817 229 Z" fill="lightgray" class="stroke step13"/>
    <path d="M 623 493 Q 632 462 627 433 Q 615 382 583 322 Q 579 318 580 313 Q 581 309 584 311 Q 627 321 672 437 Q 678 453 682 461 Q 685 468 678 477 Q 663 493 651 498 C 624 512 617 516 623 493 Z" fill="lightgray" class="stroke step13"/>
    <path d="M 716 511 Q 716 507 722 501 Q 737 483 733 392 Q 733 359 748 348 Q 761 335 823 340 Q 848 341 856 354 Q 863 361 858 367 Q 852 376 795 375 Q 743 375 778 481 Q 778 509 764 512 Q 757 515 750 517 C 721 526 706 531 716 511 Z" fill="lightgray" class="stroke step13"/>
    <path d="M 578 209 Q 584 208 595 209 Q 665 222 817 229 C 847 230 854 231 839 248 Q 832 258 814 269 Q 798 279 767 272 Q 662 251 577 242 C 547 239 548 211 578 209 Z" fill="lightgray" class="hide"/></g><g transform="scale(1, -1) translate(0, -900)">
    <style type="text/css">
        .origin {display:none;}
        .hide {display:none;}
        .stroke {fill: #000000;}
        
.step1 {transform: translateX(1024px);}
.step2 {transform: translateX(2048px);}
.step3 {transform: translateX(3072px);}
.step4 {transform: translateX(4096px);}
.step5 {transform: translateX(5120px);}
.step6 {transform: translateX(6144px);}
.step7 {transform: translateX(7168px);}
.step8 {transform: translateX(8192px);}
.step9 {transform: translateX(9216px);}
.step10 {transform: translateX(10240px);}
.step11 {transform: translateX(11264px);}
.step12 {transform: translateX(12288px);}
.step13 {transform: translateX(13312px);}
.step14 {transform: translateX(14336px);}
.step15 {transform: translateX(15360px);}
.step16 {transform: translateX(16384px);}
.step17 {transform: translateX(17408px);}
.step18 {transform: translateX(18432px);}
.step19 {transform: translateX(19456px);}
.step20 {transform: translateX(20480px);}
.step21 {transform: translateX(21504px);}
.step22 {transform: translateX(22528px);}
.step23 {transform: translateX(23552px);}
.step24 {transform: translateX(24576px);}
.step25 {transform: translateX(25600px);}
.step26 {transform: translateX(26624px);}
.step27 {transform: translateX(27648px);}
.step28 {transform: translateX(28672px);}
.step29 {transform: translateX(29696px);}
    </style>

    <path d="M 363 690 Q 403 700 447 708 Q 478 715 483 720 Q 490 727 487 734 Q 480 744 455 750 Q 434 753 344 727 Q 230 708 230 706 C 201 698 211 685 241 681 Q 278 675 324 683 L 363 690 Z" fill="lightgray" class="stroke step14"/>
    <path d="M 230 706 Q 215 719 194 727 Q 175 733 167 724 Q 161 718 169 707 Q 184 676 185 498 Q 185 411 172 357 Q 168 336 182 322 Q 203 307 223 320 C 229 323 228 359 228 389 Q 224 620 240 672 Q 241 676 241 681 C 243 696 243 696 230 706 Z" fill="lightgray" class="stroke step14"/>
    <path d="M 380 576 Q 440 591 443 592 Q 450 598 446 604 Q 442 611 421 617 Q 400 621 382 613 L 335 599 Q 310 593 281 590 Q 256 586 274 574 Q 296 562 335 566 L 380 576 Z" fill="lightgray" class="stroke step14"/>
    <path d="M 375 479 Q 399 486 426 492 Q 445 498 448 500 Q 454 507 450 512 Q 446 519 425 524 Q 401 527 377 515 L 334 501 Q 309 495 280 490 Q 255 486 273 474 Q 297 462 334 468 L 375 479 Z" fill="lightgray" class="stroke step14"/>
    <path d="M 377 515 Q 378 548 380 576 L 382 613 Q 382 626 385 648 Q 391 669 363 690 C 340 709 315 712 324 683 Q 336 650 335 599 L 335 566 Q 335 541 334 501 L 334 468 Q 334 434 334 392 C 334 362 371 370 372 400 Q 373 442 375 479 L 377 515 Z" fill="lightgray" class="stroke step14"/>
    <path d="M 223 320 Q 257 351 380 366 Q 408 372 423 361 Q 435 352 412 184 Q 406 133 384 101 Q 377 94 360 96 Q 332 105 308 113 Q 295 117 295 111 Q 294 107 302 99 Q 345 50 359 18 Q 366 -1 384 8 Q 444 36 453 103 Q 468 190 478 287 Q 482 321 499 352 Q 511 367 499 378 Q 483 397 447 415 Q 428 425 401 413 Q 385 406 372 400 L 334 392 Q 303 386 254 372 Q 229 368 228 389 C 211 414 198 303 223 320 Z" fill="lightgray" class="stroke step14"/>
    <path d="M 84 274 Q 77 220 59 170 Q 50 137 72 113 Q 82 100 97 114 Q 133 163 118 231 Q 115 259 104 280 Q 98 286 93 285 Q 86 282 84 274 Z" fill="lightgray" class="stroke step14"/>
    <path d="M 163 247 Q 169 190 181 170 Q 188 163 197 166 Q 204 170 210 180 Q 216 193 212 207 Q 209 219 184 261 Q 177 270 171 272 Q 167 273 164 266 Q 161 260 163 247 Z" fill="lightgray" class="stroke step14"/>
    <path d="M 239 254 Q 243 221 261 199 Q 268 193 277 198 Q 284 202 288 213 Q 289 238 257 272 Q 250 279 243 280 Q 239 281 237 274 Q 234 267 239 254 Z" fill="lightgray" class="stroke step14"/>
    <path d="M 321 259 Q 346 211 353 208 Q 360 207 366 213 Q 372 220 373 241 Q 374 251 360 266 Q 329 293 316 294 Q 312 293 310 285 Q 310 278 321 259 Z" fill="lightgray" class="stroke step14"/>
    <path d="M 537 516 Q 521 528 502 533 Q 496 536 491 531 Q 484 527 492 516 Q 531 438 526 264 Q 526 198 560 178 Q 575 174 578 201 L 578 209 L 577 242 Q 562 377 564 482 C 564 498 562 499 537 516 Z" fill="lightgray" class="stroke step14"/>
    <path d="M 817 229 Q 827 204 852 156 Q 861 140 871 140 Q 886 143 894 168 Q 925 232 927 318 Q 931 372 936 433 Q 940 479 962 509 Q 978 528 966 541 Q 945 560 900 580 Q 882 590 851 578 Q 731 535 537 516 C 507 513 534 477 564 482 Q 568 482 572 483 Q 594 487 623 493 L 651 498 Q 679 505 716 511 L 750 517 Q 852 539 870 523 Q 880 517 880 493 Q 881 379 862 267 Q 861 248 852 246 Q 849 245 839 248 C 812 241 812 241 817 229 Z" fill="lightgray" class="stroke step14"/>
    <path d="M 623 493 Q 632 462 627 433 Q 615 382 583 322 Q 579 318 580 313 Q 581 309 584 311 Q 627 321 672 437 Q 678 453 682 461 Q 685 468 678 477 Q 663 493 651 498 C 624 512 617 516 623 493 Z" fill="lightgray" class="stroke step14"/>
    <path d="M 716 511 Q 716 507 722 501 Q 737 483 733 392 Q 733 359 748 348 Q 761 335 823 340 Q 848 341 856 354 Q 863 361 858 367 Q 852 376 795 375 Q 743 375 778 481 Q 778 509 764 512 Q 757 515 750 517 C 721 526 706 531 716 511 Z" fill="lightgray" class="stroke step14"/>
    <path d="M 578 209 Q 584 208 595 209 Q 665 222 817 229 C 847 230 854 231 839 248 Q 832 258 814 269 Q 798 279 767 272 Q 662 251 577 242 C 547 239 548 211 578 209 Z" fill="lightgray" class="stroke step14"/></g></svg>