<svg version="1.1" viewBox="0 0 13312 1024" xmlns="http://www.w3.org/2000/svg">
  
  <g transform="scale(1, -1) translate(0, -900)" class="origin">
    <style type="text/css">
        .origin {display:none;}
        .hide {display:none;}
        .stroke {fill: #000000;}
        
.step1 {transform: translateX(1024px);}
.step2 {transform: translateX(2048px);}
.step3 {transform: translateX(3072px);}
.step4 {transform: translateX(4096px);}
.step5 {transform: translateX(5120px);}
.step6 {transform: translateX(6144px);}
.step7 {transform: translateX(7168px);}
.step8 {transform: translateX(8192px);}
.step9 {transform: translateX(9216px);}
.step10 {transform: translateX(10240px);}
.step11 {transform: translateX(11264px);}
.step12 {transform: translateX(12288px);}
.step13 {transform: translateX(13312px);}
.step14 {transform: translateX(14336px);}
.step15 {transform: translateX(15360px);}
.step16 {transform: translateX(16384px);}
.step17 {transform: translateX(17408px);}
.step18 {transform: translateX(18432px);}
.step19 {transform: translateX(19456px);}
.step20 {transform: translateX(20480px);}
.step21 {transform: translateX(21504px);}
.step22 {transform: translateX(22528px);}
.step23 {transform: translateX(23552px);}
.step24 {transform: translateX(24576px);}
.step25 {transform: translateX(25600px);}
.step26 {transform: translateX(26624px);}
.step27 {transform: translateX(27648px);}
.step28 {transform: translateX(28672px);}
.step29 {transform: translateX(29696px);}
    </style>

    <path d="M 366 618 Q 510 660 512 661 Q 519 668 515 677 Q 508 687 480 694 Q 449 698 372 667 L 320 651 Q 167 621 164 620 Q 128 613 155 598 Q 195 574 249 590 Q 283 599 320 607 L 366 618 Z" fill="lightgray"/>
    <path d="M 357 540 Q 361 580 366 618 L 372 667 Q 375 698 382 728 Q 392 755 375 771 Q 344 787 323 792 Q 310 796 302 788 Q 295 782 302 769 Q 317 747 317 732 Q 318 693 320 651 L 320 607 Q 320 570 318 529 C 317 499 354 510 357 540 Z" fill="lightgray"/>
    <path d="M 318 529 Q 308 528 222 509 Q 198 505 218 491 Q 248 470 271 478 Q 340 497 439 515 Q 448 514 455 525 Q 455 535 435 543 Q 407 556 357 540 L 318 529 Z" fill="lightgray"/>
    <path d="M 211 407 Q 199 411 184 411 Q 171 414 169 408 Q 163 401 173 386 Q 195 352 214 294 Q 218 276 231 266 Q 250 245 254 262 Q 255 269 256 278 L 252 308 Q 242 365 241 380 C 239 399 239 399 211 407 Z" fill="lightgray"/>
    <path d="M 443 343 Q 461 376 484 386 Q 500 402 487 418 Q 474 431 428 454 Q 413 461 329 432 Q 254 414 211 407 C 181 402 212 373 241 380 Q 242 381 380 411 Q 396 415 403 408 Q 407 404 406 393 Q 399 368 392 346 C 383 317 428 317 443 343 Z" fill="lightgray"/>
    <path d="M 256 278 Q 305 294 451 317 Q 460 318 461 326 Q 461 333 443 343 C 422 355 421 355 392 346 Q 313 322 252 308 C 223 301 227 269 256 278 Z" fill="lightgray"/>
    <path d="M 207 214 Q 229 160 254 153 Q 266 149 275 164 Q 279 176 274 196 Q 262 223 216 237 Q 209 241 205 230 Q 202 223 207 214 Z" fill="lightgray"/>
    <path d="M 399 164 Q 441 227 448 233 Q 461 243 454 253 Q 445 268 419 286 Q 407 296 392 290 Q 382 286 388 276 Q 394 257 360 153 C 351 124 382 139 399 164 Z" fill="lightgray"/>
    <path d="M 360 153 Q 272 132 179 108 Q 157 102 121 104 Q 108 103 105 93 Q 102 80 111 70 Q 133 52 167 32 Q 177 28 190 36 Q 238 67 290 87 Q 369 115 448 145 Q 478 157 500 171 Q 513 178 515 188 Q 509 194 496 192 Q 450 179 399 164 L 360 153 Z" fill="lightgray"/>
    <path d="M 682 531 Q 850 585 853 587 Q 862 596 856 604 Q 849 616 818 620 Q 787 624 757 609 Q 721 594 686 580 L 633 563 Q 590 553 542 543 Q 505 533 534 519 Q 579 498 632 516 L 682 531 Z" fill="lightgray"/>
    <path d="M 672 418 Q 676 476 682 531 L 686 580 Q 695 721 716 782 Q 720 794 699 810 Q 662 831 636 836 Q 618 840 610 831 Q 601 824 610 807 Q 632 773 633 748 Q 636 660 633 563 L 632 516 Q 631 462 626 402 C 624 372 670 388 672 418 Z" fill="lightgray"/>
    <path d="M 692 181 Q 729 245 762 339 Q 774 369 793 387 Q 812 403 798 416 Q 785 428 753 438 Q 732 445 672 418 L 626 402 Q 589 393 535 385 Q 522 384 517 377 Q 513 370 531 363 Q 567 350 615 366 Q 675 388 686 389 Q 710 386 704 361 Q 686 277 655 217 L 631 179 Q 568 91 424 44 Q 411 38 422 31 Q 428 27 472 29 Q 578 41 664 140 L 692 181 Z" fill="lightgray"/>
    <path d="M 664 140 Q 778 7 829 3 Q 848 3 952 22 Q 965 23 977 29 Q 984 36 973 45 Q 958 52 840 91 Q 770 112 692 181 L 655 217 Q 621 250 587 289 Q 568 311 537 316 Q 524 317 514 310 Q 508 303 519 295 Q 526 289 533 285 Q 554 276 631 179 L 664 140 Z" fill="lightgray"/></g>
<g transform="scale(1, -1) translate(0, -900)">
    <style type="text/css">
        .origin {display:none;}
        .hide {display:none;}
        .stroke {fill: #000000;}
        
.step1 {transform: translateX(1024px);}
.step2 {transform: translateX(2048px);}
.step3 {transform: translateX(3072px);}
.step4 {transform: translateX(4096px);}
.step5 {transform: translateX(5120px);}
.step6 {transform: translateX(6144px);}
.step7 {transform: translateX(7168px);}
.step8 {transform: translateX(8192px);}
.step9 {transform: translateX(9216px);}
.step10 {transform: translateX(10240px);}
.step11 {transform: translateX(11264px);}
.step12 {transform: translateX(12288px);}
.step13 {transform: translateX(13312px);}
.step14 {transform: translateX(14336px);}
.step15 {transform: translateX(15360px);}
.step16 {transform: translateX(16384px);}
.step17 {transform: translateX(17408px);}
.step18 {transform: translateX(18432px);}
.step19 {transform: translateX(19456px);}
.step20 {transform: translateX(20480px);}
.step21 {transform: translateX(21504px);}
.step22 {transform: translateX(22528px);}
.step23 {transform: translateX(23552px);}
.step24 {transform: translateX(24576px);}
.step25 {transform: translateX(25600px);}
.step26 {transform: translateX(26624px);}
.step27 {transform: translateX(27648px);}
.step28 {transform: translateX(28672px);}
.step29 {transform: translateX(29696px);}
    </style>

    <path d="M 366 618 Q 510 660 512 661 Q 519 668 515 677 Q 508 687 480 694 Q 449 698 372 667 L 320 651 Q 167 621 164 620 Q 128 613 155 598 Q 195 574 249 590 Q 283 599 320 607 L 366 618 Z" fill="lightgray" class="stroke step0"/>
    <path d="M 357 540 Q 361 580 366 618 L 372 667 Q 375 698 382 728 Q 392 755 375 771 Q 344 787 323 792 Q 310 796 302 788 Q 295 782 302 769 Q 317 747 317 732 Q 318 693 320 651 L 320 607 Q 320 570 318 529 C 317 499 354 510 357 540 Z" fill="lightgray" class="hide"/>
    <path d="M 318 529 Q 308 528 222 509 Q 198 505 218 491 Q 248 470 271 478 Q 340 497 439 515 Q 448 514 455 525 Q 455 535 435 543 Q 407 556 357 540 L 318 529 Z" fill="lightgray" class="hide"/>
    <path d="M 211 407 Q 199 411 184 411 Q 171 414 169 408 Q 163 401 173 386 Q 195 352 214 294 Q 218 276 231 266 Q 250 245 254 262 Q 255 269 256 278 L 252 308 Q 242 365 241 380 C 239 399 239 399 211 407 Z" fill="lightgray" class="hide"/>
    <path d="M 443 343 Q 461 376 484 386 Q 500 402 487 418 Q 474 431 428 454 Q 413 461 329 432 Q 254 414 211 407 C 181 402 212 373 241 380 Q 242 381 380 411 Q 396 415 403 408 Q 407 404 406 393 Q 399 368 392 346 C 383 317 428 317 443 343 Z" fill="lightgray" class="hide"/>
    <path d="M 256 278 Q 305 294 451 317 Q 460 318 461 326 Q 461 333 443 343 C 422 355 421 355 392 346 Q 313 322 252 308 C 223 301 227 269 256 278 Z" fill="lightgray" class="hide"/>
    <path d="M 207 214 Q 229 160 254 153 Q 266 149 275 164 Q 279 176 274 196 Q 262 223 216 237 Q 209 241 205 230 Q 202 223 207 214 Z" fill="lightgray" class="hide"/>
    <path d="M 399 164 Q 441 227 448 233 Q 461 243 454 253 Q 445 268 419 286 Q 407 296 392 290 Q 382 286 388 276 Q 394 257 360 153 C 351 124 382 139 399 164 Z" fill="lightgray" class="hide"/>
    <path d="M 360 153 Q 272 132 179 108 Q 157 102 121 104 Q 108 103 105 93 Q 102 80 111 70 Q 133 52 167 32 Q 177 28 190 36 Q 238 67 290 87 Q 369 115 448 145 Q 478 157 500 171 Q 513 178 515 188 Q 509 194 496 192 Q 450 179 399 164 L 360 153 Z" fill="lightgray" class="hide"/>
    <path d="M 682 531 Q 850 585 853 587 Q 862 596 856 604 Q 849 616 818 620 Q 787 624 757 609 Q 721 594 686 580 L 633 563 Q 590 553 542 543 Q 505 533 534 519 Q 579 498 632 516 L 682 531 Z" fill="lightgray" class="hide"/>
    <path d="M 672 418 Q 676 476 682 531 L 686 580 Q 695 721 716 782 Q 720 794 699 810 Q 662 831 636 836 Q 618 840 610 831 Q 601 824 610 807 Q 632 773 633 748 Q 636 660 633 563 L 632 516 Q 631 462 626 402 C 624 372 670 388 672 418 Z" fill="lightgray" class="hide"/>
    <path d="M 692 181 Q 729 245 762 339 Q 774 369 793 387 Q 812 403 798 416 Q 785 428 753 438 Q 732 445 672 418 L 626 402 Q 589 393 535 385 Q 522 384 517 377 Q 513 370 531 363 Q 567 350 615 366 Q 675 388 686 389 Q 710 386 704 361 Q 686 277 655 217 L 631 179 Q 568 91 424 44 Q 411 38 422 31 Q 428 27 472 29 Q 578 41 664 140 L 692 181 Z" fill="lightgray" class="hide"/>
    <path d="M 664 140 Q 778 7 829 3 Q 848 3 952 22 Q 965 23 977 29 Q 984 36 973 45 Q 958 52 840 91 Q 770 112 692 181 L 655 217 Q 621 250 587 289 Q 568 311 537 316 Q 524 317 514 310 Q 508 303 519 295 Q 526 289 533 285 Q 554 276 631 179 L 664 140 Z" fill="lightgray" class="hide"/></g><g transform="scale(1, -1) translate(0, -900)">
    <style type="text/css">
        .origin {display:none;}
        .hide {display:none;}
        .stroke {fill: #000000;}
        
.step1 {transform: translateX(1024px);}
.step2 {transform: translateX(2048px);}
.step3 {transform: translateX(3072px);}
.step4 {transform: translateX(4096px);}
.step5 {transform: translateX(5120px);}
.step6 {transform: translateX(6144px);}
.step7 {transform: translateX(7168px);}
.step8 {transform: translateX(8192px);}
.step9 {transform: translateX(9216px);}
.step10 {transform: translateX(10240px);}
.step11 {transform: translateX(11264px);}
.step12 {transform: translateX(12288px);}
.step13 {transform: translateX(13312px);}
.step14 {transform: translateX(14336px);}
.step15 {transform: translateX(15360px);}
.step16 {transform: translateX(16384px);}
.step17 {transform: translateX(17408px);}
.step18 {transform: translateX(18432px);}
.step19 {transform: translateX(19456px);}
.step20 {transform: translateX(20480px);}
.step21 {transform: translateX(21504px);}
.step22 {transform: translateX(22528px);}
.step23 {transform: translateX(23552px);}
.step24 {transform: translateX(24576px);}
.step25 {transform: translateX(25600px);}
.step26 {transform: translateX(26624px);}
.step27 {transform: translateX(27648px);}
.step28 {transform: translateX(28672px);}
.step29 {transform: translateX(29696px);}
    </style>

    <path d="M 366 618 Q 510 660 512 661 Q 519 668 515 677 Q 508 687 480 694 Q 449 698 372 667 L 320 651 Q 167 621 164 620 Q 128 613 155 598 Q 195 574 249 590 Q 283 599 320 607 L 366 618 Z" fill="lightgray" class="stroke step1"/>
    <path d="M 357 540 Q 361 580 366 618 L 372 667 Q 375 698 382 728 Q 392 755 375 771 Q 344 787 323 792 Q 310 796 302 788 Q 295 782 302 769 Q 317 747 317 732 Q 318 693 320 651 L 320 607 Q 320 570 318 529 C 317 499 354 510 357 540 Z" fill="lightgray" class="stroke step1"/>
    <path d="M 318 529 Q 308 528 222 509 Q 198 505 218 491 Q 248 470 271 478 Q 340 497 439 515 Q 448 514 455 525 Q 455 535 435 543 Q 407 556 357 540 L 318 529 Z" fill="lightgray" class="hide"/>
    <path d="M 211 407 Q 199 411 184 411 Q 171 414 169 408 Q 163 401 173 386 Q 195 352 214 294 Q 218 276 231 266 Q 250 245 254 262 Q 255 269 256 278 L 252 308 Q 242 365 241 380 C 239 399 239 399 211 407 Z" fill="lightgray" class="hide"/>
    <path d="M 443 343 Q 461 376 484 386 Q 500 402 487 418 Q 474 431 428 454 Q 413 461 329 432 Q 254 414 211 407 C 181 402 212 373 241 380 Q 242 381 380 411 Q 396 415 403 408 Q 407 404 406 393 Q 399 368 392 346 C 383 317 428 317 443 343 Z" fill="lightgray" class="hide"/>
    <path d="M 256 278 Q 305 294 451 317 Q 460 318 461 326 Q 461 333 443 343 C 422 355 421 355 392 346 Q 313 322 252 308 C 223 301 227 269 256 278 Z" fill="lightgray" class="hide"/>
    <path d="M 207 214 Q 229 160 254 153 Q 266 149 275 164 Q 279 176 274 196 Q 262 223 216 237 Q 209 241 205 230 Q 202 223 207 214 Z" fill="lightgray" class="hide"/>
    <path d="M 399 164 Q 441 227 448 233 Q 461 243 454 253 Q 445 268 419 286 Q 407 296 392 290 Q 382 286 388 276 Q 394 257 360 153 C 351 124 382 139 399 164 Z" fill="lightgray" class="hide"/>
    <path d="M 360 153 Q 272 132 179 108 Q 157 102 121 104 Q 108 103 105 93 Q 102 80 111 70 Q 133 52 167 32 Q 177 28 190 36 Q 238 67 290 87 Q 369 115 448 145 Q 478 157 500 171 Q 513 178 515 188 Q 509 194 496 192 Q 450 179 399 164 L 360 153 Z" fill="lightgray" class="hide"/>
    <path d="M 682 531 Q 850 585 853 587 Q 862 596 856 604 Q 849 616 818 620 Q 787 624 757 609 Q 721 594 686 580 L 633 563 Q 590 553 542 543 Q 505 533 534 519 Q 579 498 632 516 L 682 531 Z" fill="lightgray" class="hide"/>
    <path d="M 672 418 Q 676 476 682 531 L 686 580 Q 695 721 716 782 Q 720 794 699 810 Q 662 831 636 836 Q 618 840 610 831 Q 601 824 610 807 Q 632 773 633 748 Q 636 660 633 563 L 632 516 Q 631 462 626 402 C 624 372 670 388 672 418 Z" fill="lightgray" class="hide"/>
    <path d="M 692 181 Q 729 245 762 339 Q 774 369 793 387 Q 812 403 798 416 Q 785 428 753 438 Q 732 445 672 418 L 626 402 Q 589 393 535 385 Q 522 384 517 377 Q 513 370 531 363 Q 567 350 615 366 Q 675 388 686 389 Q 710 386 704 361 Q 686 277 655 217 L 631 179 Q 568 91 424 44 Q 411 38 422 31 Q 428 27 472 29 Q 578 41 664 140 L 692 181 Z" fill="lightgray" class="hide"/>
    <path d="M 664 140 Q 778 7 829 3 Q 848 3 952 22 Q 965 23 977 29 Q 984 36 973 45 Q 958 52 840 91 Q 770 112 692 181 L 655 217 Q 621 250 587 289 Q 568 311 537 316 Q 524 317 514 310 Q 508 303 519 295 Q 526 289 533 285 Q 554 276 631 179 L 664 140 Z" fill="lightgray" class="hide"/></g><g transform="scale(1, -1) translate(0, -900)">
    <style type="text/css">
        .origin {display:none;}
        .hide {display:none;}
        .stroke {fill: #000000;}
        
.step1 {transform: translateX(1024px);}
.step2 {transform: translateX(2048px);}
.step3 {transform: translateX(3072px);}
.step4 {transform: translateX(4096px);}
.step5 {transform: translateX(5120px);}
.step6 {transform: translateX(6144px);}
.step7 {transform: translateX(7168px);}
.step8 {transform: translateX(8192px);}
.step9 {transform: translateX(9216px);}
.step10 {transform: translateX(10240px);}
.step11 {transform: translateX(11264px);}
.step12 {transform: translateX(12288px);}
.step13 {transform: translateX(13312px);}
.step14 {transform: translateX(14336px);}
.step15 {transform: translateX(15360px);}
.step16 {transform: translateX(16384px);}
.step17 {transform: translateX(17408px);}
.step18 {transform: translateX(18432px);}
.step19 {transform: translateX(19456px);}
.step20 {transform: translateX(20480px);}
.step21 {transform: translateX(21504px);}
.step22 {transform: translateX(22528px);}
.step23 {transform: translateX(23552px);}
.step24 {transform: translateX(24576px);}
.step25 {transform: translateX(25600px);}
.step26 {transform: translateX(26624px);}
.step27 {transform: translateX(27648px);}
.step28 {transform: translateX(28672px);}
.step29 {transform: translateX(29696px);}
    </style>

    <path d="M 366 618 Q 510 660 512 661 Q 519 668 515 677 Q 508 687 480 694 Q 449 698 372 667 L 320 651 Q 167 621 164 620 Q 128 613 155 598 Q 195 574 249 590 Q 283 599 320 607 L 366 618 Z" fill="lightgray" class="stroke step2"/>
    <path d="M 357 540 Q 361 580 366 618 L 372 667 Q 375 698 382 728 Q 392 755 375 771 Q 344 787 323 792 Q 310 796 302 788 Q 295 782 302 769 Q 317 747 317 732 Q 318 693 320 651 L 320 607 Q 320 570 318 529 C 317 499 354 510 357 540 Z" fill="lightgray" class="stroke step2"/>
    <path d="M 318 529 Q 308 528 222 509 Q 198 505 218 491 Q 248 470 271 478 Q 340 497 439 515 Q 448 514 455 525 Q 455 535 435 543 Q 407 556 357 540 L 318 529 Z" fill="lightgray" class="stroke step2"/>
    <path d="M 211 407 Q 199 411 184 411 Q 171 414 169 408 Q 163 401 173 386 Q 195 352 214 294 Q 218 276 231 266 Q 250 245 254 262 Q 255 269 256 278 L 252 308 Q 242 365 241 380 C 239 399 239 399 211 407 Z" fill="lightgray" class="hide"/>
    <path d="M 443 343 Q 461 376 484 386 Q 500 402 487 418 Q 474 431 428 454 Q 413 461 329 432 Q 254 414 211 407 C 181 402 212 373 241 380 Q 242 381 380 411 Q 396 415 403 408 Q 407 404 406 393 Q 399 368 392 346 C 383 317 428 317 443 343 Z" fill="lightgray" class="hide"/>
    <path d="M 256 278 Q 305 294 451 317 Q 460 318 461 326 Q 461 333 443 343 C 422 355 421 355 392 346 Q 313 322 252 308 C 223 301 227 269 256 278 Z" fill="lightgray" class="hide"/>
    <path d="M 207 214 Q 229 160 254 153 Q 266 149 275 164 Q 279 176 274 196 Q 262 223 216 237 Q 209 241 205 230 Q 202 223 207 214 Z" fill="lightgray" class="hide"/>
    <path d="M 399 164 Q 441 227 448 233 Q 461 243 454 253 Q 445 268 419 286 Q 407 296 392 290 Q 382 286 388 276 Q 394 257 360 153 C 351 124 382 139 399 164 Z" fill="lightgray" class="hide"/>
    <path d="M 360 153 Q 272 132 179 108 Q 157 102 121 104 Q 108 103 105 93 Q 102 80 111 70 Q 133 52 167 32 Q 177 28 190 36 Q 238 67 290 87 Q 369 115 448 145 Q 478 157 500 171 Q 513 178 515 188 Q 509 194 496 192 Q 450 179 399 164 L 360 153 Z" fill="lightgray" class="hide"/>
    <path d="M 682 531 Q 850 585 853 587 Q 862 596 856 604 Q 849 616 818 620 Q 787 624 757 609 Q 721 594 686 580 L 633 563 Q 590 553 542 543 Q 505 533 534 519 Q 579 498 632 516 L 682 531 Z" fill="lightgray" class="hide"/>
    <path d="M 672 418 Q 676 476 682 531 L 686 580 Q 695 721 716 782 Q 720 794 699 810 Q 662 831 636 836 Q 618 840 610 831 Q 601 824 610 807 Q 632 773 633 748 Q 636 660 633 563 L 632 516 Q 631 462 626 402 C 624 372 670 388 672 418 Z" fill="lightgray" class="hide"/>
    <path d="M 692 181 Q 729 245 762 339 Q 774 369 793 387 Q 812 403 798 416 Q 785 428 753 438 Q 732 445 672 418 L 626 402 Q 589 393 535 385 Q 522 384 517 377 Q 513 370 531 363 Q 567 350 615 366 Q 675 388 686 389 Q 710 386 704 361 Q 686 277 655 217 L 631 179 Q 568 91 424 44 Q 411 38 422 31 Q 428 27 472 29 Q 578 41 664 140 L 692 181 Z" fill="lightgray" class="hide"/>
    <path d="M 664 140 Q 778 7 829 3 Q 848 3 952 22 Q 965 23 977 29 Q 984 36 973 45 Q 958 52 840 91 Q 770 112 692 181 L 655 217 Q 621 250 587 289 Q 568 311 537 316 Q 524 317 514 310 Q 508 303 519 295 Q 526 289 533 285 Q 554 276 631 179 L 664 140 Z" fill="lightgray" class="hide"/></g><g transform="scale(1, -1) translate(0, -900)">
    <style type="text/css">
        .origin {display:none;}
        .hide {display:none;}
        .stroke {fill: #000000;}
        
.step1 {transform: translateX(1024px);}
.step2 {transform: translateX(2048px);}
.step3 {transform: translateX(3072px);}
.step4 {transform: translateX(4096px);}
.step5 {transform: translateX(5120px);}
.step6 {transform: translateX(6144px);}
.step7 {transform: translateX(7168px);}
.step8 {transform: translateX(8192px);}
.step9 {transform: translateX(9216px);}
.step10 {transform: translateX(10240px);}
.step11 {transform: translateX(11264px);}
.step12 {transform: translateX(12288px);}
.step13 {transform: translateX(13312px);}
.step14 {transform: translateX(14336px);}
.step15 {transform: translateX(15360px);}
.step16 {transform: translateX(16384px);}
.step17 {transform: translateX(17408px);}
.step18 {transform: translateX(18432px);}
.step19 {transform: translateX(19456px);}
.step20 {transform: translateX(20480px);}
.step21 {transform: translateX(21504px);}
.step22 {transform: translateX(22528px);}
.step23 {transform: translateX(23552px);}
.step24 {transform: translateX(24576px);}
.step25 {transform: translateX(25600px);}
.step26 {transform: translateX(26624px);}
.step27 {transform: translateX(27648px);}
.step28 {transform: translateX(28672px);}
.step29 {transform: translateX(29696px);}
    </style>

    <path d="M 366 618 Q 510 660 512 661 Q 519 668 515 677 Q 508 687 480 694 Q 449 698 372 667 L 320 651 Q 167 621 164 620 Q 128 613 155 598 Q 195 574 249 590 Q 283 599 320 607 L 366 618 Z" fill="lightgray" class="stroke step3"/>
    <path d="M 357 540 Q 361 580 366 618 L 372 667 Q 375 698 382 728 Q 392 755 375 771 Q 344 787 323 792 Q 310 796 302 788 Q 295 782 302 769 Q 317 747 317 732 Q 318 693 320 651 L 320 607 Q 320 570 318 529 C 317 499 354 510 357 540 Z" fill="lightgray" class="stroke step3"/>
    <path d="M 318 529 Q 308 528 222 509 Q 198 505 218 491 Q 248 470 271 478 Q 340 497 439 515 Q 448 514 455 525 Q 455 535 435 543 Q 407 556 357 540 L 318 529 Z" fill="lightgray" class="stroke step3"/>
    <path d="M 211 407 Q 199 411 184 411 Q 171 414 169 408 Q 163 401 173 386 Q 195 352 214 294 Q 218 276 231 266 Q 250 245 254 262 Q 255 269 256 278 L 252 308 Q 242 365 241 380 C 239 399 239 399 211 407 Z" fill="lightgray" class="stroke step3"/>
    <path d="M 443 343 Q 461 376 484 386 Q 500 402 487 418 Q 474 431 428 454 Q 413 461 329 432 Q 254 414 211 407 C 181 402 212 373 241 380 Q 242 381 380 411 Q 396 415 403 408 Q 407 404 406 393 Q 399 368 392 346 C 383 317 428 317 443 343 Z" fill="lightgray" class="hide"/>
    <path d="M 256 278 Q 305 294 451 317 Q 460 318 461 326 Q 461 333 443 343 C 422 355 421 355 392 346 Q 313 322 252 308 C 223 301 227 269 256 278 Z" fill="lightgray" class="hide"/>
    <path d="M 207 214 Q 229 160 254 153 Q 266 149 275 164 Q 279 176 274 196 Q 262 223 216 237 Q 209 241 205 230 Q 202 223 207 214 Z" fill="lightgray" class="hide"/>
    <path d="M 399 164 Q 441 227 448 233 Q 461 243 454 253 Q 445 268 419 286 Q 407 296 392 290 Q 382 286 388 276 Q 394 257 360 153 C 351 124 382 139 399 164 Z" fill="lightgray" class="hide"/>
    <path d="M 360 153 Q 272 132 179 108 Q 157 102 121 104 Q 108 103 105 93 Q 102 80 111 70 Q 133 52 167 32 Q 177 28 190 36 Q 238 67 290 87 Q 369 115 448 145 Q 478 157 500 171 Q 513 178 515 188 Q 509 194 496 192 Q 450 179 399 164 L 360 153 Z" fill="lightgray" class="hide"/>
    <path d="M 682 531 Q 850 585 853 587 Q 862 596 856 604 Q 849 616 818 620 Q 787 624 757 609 Q 721 594 686 580 L 633 563 Q 590 553 542 543 Q 505 533 534 519 Q 579 498 632 516 L 682 531 Z" fill="lightgray" class="hide"/>
    <path d="M 672 418 Q 676 476 682 531 L 686 580 Q 695 721 716 782 Q 720 794 699 810 Q 662 831 636 836 Q 618 840 610 831 Q 601 824 610 807 Q 632 773 633 748 Q 636 660 633 563 L 632 516 Q 631 462 626 402 C 624 372 670 388 672 418 Z" fill="lightgray" class="hide"/>
    <path d="M 692 181 Q 729 245 762 339 Q 774 369 793 387 Q 812 403 798 416 Q 785 428 753 438 Q 732 445 672 418 L 626 402 Q 589 393 535 385 Q 522 384 517 377 Q 513 370 531 363 Q 567 350 615 366 Q 675 388 686 389 Q 710 386 704 361 Q 686 277 655 217 L 631 179 Q 568 91 424 44 Q 411 38 422 31 Q 428 27 472 29 Q 578 41 664 140 L 692 181 Z" fill="lightgray" class="hide"/>
    <path d="M 664 140 Q 778 7 829 3 Q 848 3 952 22 Q 965 23 977 29 Q 984 36 973 45 Q 958 52 840 91 Q 770 112 692 181 L 655 217 Q 621 250 587 289 Q 568 311 537 316 Q 524 317 514 310 Q 508 303 519 295 Q 526 289 533 285 Q 554 276 631 179 L 664 140 Z" fill="lightgray" class="hide"/></g><g transform="scale(1, -1) translate(0, -900)">
    <style type="text/css">
        .origin {display:none;}
        .hide {display:none;}
        .stroke {fill: #000000;}
        
.step1 {transform: translateX(1024px);}
.step2 {transform: translateX(2048px);}
.step3 {transform: translateX(3072px);}
.step4 {transform: translateX(4096px);}
.step5 {transform: translateX(5120px);}
.step6 {transform: translateX(6144px);}
.step7 {transform: translateX(7168px);}
.step8 {transform: translateX(8192px);}
.step9 {transform: translateX(9216px);}
.step10 {transform: translateX(10240px);}
.step11 {transform: translateX(11264px);}
.step12 {transform: translateX(12288px);}
.step13 {transform: translateX(13312px);}
.step14 {transform: translateX(14336px);}
.step15 {transform: translateX(15360px);}
.step16 {transform: translateX(16384px);}
.step17 {transform: translateX(17408px);}
.step18 {transform: translateX(18432px);}
.step19 {transform: translateX(19456px);}
.step20 {transform: translateX(20480px);}
.step21 {transform: translateX(21504px);}
.step22 {transform: translateX(22528px);}
.step23 {transform: translateX(23552px);}
.step24 {transform: translateX(24576px);}
.step25 {transform: translateX(25600px);}
.step26 {transform: translateX(26624px);}
.step27 {transform: translateX(27648px);}
.step28 {transform: translateX(28672px);}
.step29 {transform: translateX(29696px);}
    </style>

    <path d="M 366 618 Q 510 660 512 661 Q 519 668 515 677 Q 508 687 480 694 Q 449 698 372 667 L 320 651 Q 167 621 164 620 Q 128 613 155 598 Q 195 574 249 590 Q 283 599 320 607 L 366 618 Z" fill="lightgray" class="stroke step4"/>
    <path d="M 357 540 Q 361 580 366 618 L 372 667 Q 375 698 382 728 Q 392 755 375 771 Q 344 787 323 792 Q 310 796 302 788 Q 295 782 302 769 Q 317 747 317 732 Q 318 693 320 651 L 320 607 Q 320 570 318 529 C 317 499 354 510 357 540 Z" fill="lightgray" class="stroke step4"/>
    <path d="M 318 529 Q 308 528 222 509 Q 198 505 218 491 Q 248 470 271 478 Q 340 497 439 515 Q 448 514 455 525 Q 455 535 435 543 Q 407 556 357 540 L 318 529 Z" fill="lightgray" class="stroke step4"/>
    <path d="M 211 407 Q 199 411 184 411 Q 171 414 169 408 Q 163 401 173 386 Q 195 352 214 294 Q 218 276 231 266 Q 250 245 254 262 Q 255 269 256 278 L 252 308 Q 242 365 241 380 C 239 399 239 399 211 407 Z" fill="lightgray" class="stroke step4"/>
    <path d="M 443 343 Q 461 376 484 386 Q 500 402 487 418 Q 474 431 428 454 Q 413 461 329 432 Q 254 414 211 407 C 181 402 212 373 241 380 Q 242 381 380 411 Q 396 415 403 408 Q 407 404 406 393 Q 399 368 392 346 C 383 317 428 317 443 343 Z" fill="lightgray" class="stroke step4"/>
    <path d="M 256 278 Q 305 294 451 317 Q 460 318 461 326 Q 461 333 443 343 C 422 355 421 355 392 346 Q 313 322 252 308 C 223 301 227 269 256 278 Z" fill="lightgray" class="hide"/>
    <path d="M 207 214 Q 229 160 254 153 Q 266 149 275 164 Q 279 176 274 196 Q 262 223 216 237 Q 209 241 205 230 Q 202 223 207 214 Z" fill="lightgray" class="hide"/>
    <path d="M 399 164 Q 441 227 448 233 Q 461 243 454 253 Q 445 268 419 286 Q 407 296 392 290 Q 382 286 388 276 Q 394 257 360 153 C 351 124 382 139 399 164 Z" fill="lightgray" class="hide"/>
    <path d="M 360 153 Q 272 132 179 108 Q 157 102 121 104 Q 108 103 105 93 Q 102 80 111 70 Q 133 52 167 32 Q 177 28 190 36 Q 238 67 290 87 Q 369 115 448 145 Q 478 157 500 171 Q 513 178 515 188 Q 509 194 496 192 Q 450 179 399 164 L 360 153 Z" fill="lightgray" class="hide"/>
    <path d="M 682 531 Q 850 585 853 587 Q 862 596 856 604 Q 849 616 818 620 Q 787 624 757 609 Q 721 594 686 580 L 633 563 Q 590 553 542 543 Q 505 533 534 519 Q 579 498 632 516 L 682 531 Z" fill="lightgray" class="hide"/>
    <path d="M 672 418 Q 676 476 682 531 L 686 580 Q 695 721 716 782 Q 720 794 699 810 Q 662 831 636 836 Q 618 840 610 831 Q 601 824 610 807 Q 632 773 633 748 Q 636 660 633 563 L 632 516 Q 631 462 626 402 C 624 372 670 388 672 418 Z" fill="lightgray" class="hide"/>
    <path d="M 692 181 Q 729 245 762 339 Q 774 369 793 387 Q 812 403 798 416 Q 785 428 753 438 Q 732 445 672 418 L 626 402 Q 589 393 535 385 Q 522 384 517 377 Q 513 370 531 363 Q 567 350 615 366 Q 675 388 686 389 Q 710 386 704 361 Q 686 277 655 217 L 631 179 Q 568 91 424 44 Q 411 38 422 31 Q 428 27 472 29 Q 578 41 664 140 L 692 181 Z" fill="lightgray" class="hide"/>
    <path d="M 664 140 Q 778 7 829 3 Q 848 3 952 22 Q 965 23 977 29 Q 984 36 973 45 Q 958 52 840 91 Q 770 112 692 181 L 655 217 Q 621 250 587 289 Q 568 311 537 316 Q 524 317 514 310 Q 508 303 519 295 Q 526 289 533 285 Q 554 276 631 179 L 664 140 Z" fill="lightgray" class="hide"/></g><g transform="scale(1, -1) translate(0, -900)">
    <style type="text/css">
        .origin {display:none;}
        .hide {display:none;}
        .stroke {fill: #000000;}
        
.step1 {transform: translateX(1024px);}
.step2 {transform: translateX(2048px);}
.step3 {transform: translateX(3072px);}
.step4 {transform: translateX(4096px);}
.step5 {transform: translateX(5120px);}
.step6 {transform: translateX(6144px);}
.step7 {transform: translateX(7168px);}
.step8 {transform: translateX(8192px);}
.step9 {transform: translateX(9216px);}
.step10 {transform: translateX(10240px);}
.step11 {transform: translateX(11264px);}
.step12 {transform: translateX(12288px);}
.step13 {transform: translateX(13312px);}
.step14 {transform: translateX(14336px);}
.step15 {transform: translateX(15360px);}
.step16 {transform: translateX(16384px);}
.step17 {transform: translateX(17408px);}
.step18 {transform: translateX(18432px);}
.step19 {transform: translateX(19456px);}
.step20 {transform: translateX(20480px);}
.step21 {transform: translateX(21504px);}
.step22 {transform: translateX(22528px);}
.step23 {transform: translateX(23552px);}
.step24 {transform: translateX(24576px);}
.step25 {transform: translateX(25600px);}
.step26 {transform: translateX(26624px);}
.step27 {transform: translateX(27648px);}
.step28 {transform: translateX(28672px);}
.step29 {transform: translateX(29696px);}
    </style>

    <path d="M 366 618 Q 510 660 512 661 Q 519 668 515 677 Q 508 687 480 694 Q 449 698 372 667 L 320 651 Q 167 621 164 620 Q 128 613 155 598 Q 195 574 249 590 Q 283 599 320 607 L 366 618 Z" fill="lightgray" class="stroke step5"/>
    <path d="M 357 540 Q 361 580 366 618 L 372 667 Q 375 698 382 728 Q 392 755 375 771 Q 344 787 323 792 Q 310 796 302 788 Q 295 782 302 769 Q 317 747 317 732 Q 318 693 320 651 L 320 607 Q 320 570 318 529 C 317 499 354 510 357 540 Z" fill="lightgray" class="stroke step5"/>
    <path d="M 318 529 Q 308 528 222 509 Q 198 505 218 491 Q 248 470 271 478 Q 340 497 439 515 Q 448 514 455 525 Q 455 535 435 543 Q 407 556 357 540 L 318 529 Z" fill="lightgray" class="stroke step5"/>
    <path d="M 211 407 Q 199 411 184 411 Q 171 414 169 408 Q 163 401 173 386 Q 195 352 214 294 Q 218 276 231 266 Q 250 245 254 262 Q 255 269 256 278 L 252 308 Q 242 365 241 380 C 239 399 239 399 211 407 Z" fill="lightgray" class="stroke step5"/>
    <path d="M 443 343 Q 461 376 484 386 Q 500 402 487 418 Q 474 431 428 454 Q 413 461 329 432 Q 254 414 211 407 C 181 402 212 373 241 380 Q 242 381 380 411 Q 396 415 403 408 Q 407 404 406 393 Q 399 368 392 346 C 383 317 428 317 443 343 Z" fill="lightgray" class="stroke step5"/>
    <path d="M 256 278 Q 305 294 451 317 Q 460 318 461 326 Q 461 333 443 343 C 422 355 421 355 392 346 Q 313 322 252 308 C 223 301 227 269 256 278 Z" fill="lightgray" class="stroke step5"/>
    <path d="M 207 214 Q 229 160 254 153 Q 266 149 275 164 Q 279 176 274 196 Q 262 223 216 237 Q 209 241 205 230 Q 202 223 207 214 Z" fill="lightgray" class="hide"/>
    <path d="M 399 164 Q 441 227 448 233 Q 461 243 454 253 Q 445 268 419 286 Q 407 296 392 290 Q 382 286 388 276 Q 394 257 360 153 C 351 124 382 139 399 164 Z" fill="lightgray" class="hide"/>
    <path d="M 360 153 Q 272 132 179 108 Q 157 102 121 104 Q 108 103 105 93 Q 102 80 111 70 Q 133 52 167 32 Q 177 28 190 36 Q 238 67 290 87 Q 369 115 448 145 Q 478 157 500 171 Q 513 178 515 188 Q 509 194 496 192 Q 450 179 399 164 L 360 153 Z" fill="lightgray" class="hide"/>
    <path d="M 682 531 Q 850 585 853 587 Q 862 596 856 604 Q 849 616 818 620 Q 787 624 757 609 Q 721 594 686 580 L 633 563 Q 590 553 542 543 Q 505 533 534 519 Q 579 498 632 516 L 682 531 Z" fill="lightgray" class="hide"/>
    <path d="M 672 418 Q 676 476 682 531 L 686 580 Q 695 721 716 782 Q 720 794 699 810 Q 662 831 636 836 Q 618 840 610 831 Q 601 824 610 807 Q 632 773 633 748 Q 636 660 633 563 L 632 516 Q 631 462 626 402 C 624 372 670 388 672 418 Z" fill="lightgray" class="hide"/>
    <path d="M 692 181 Q 729 245 762 339 Q 774 369 793 387 Q 812 403 798 416 Q 785 428 753 438 Q 732 445 672 418 L 626 402 Q 589 393 535 385 Q 522 384 517 377 Q 513 370 531 363 Q 567 350 615 366 Q 675 388 686 389 Q 710 386 704 361 Q 686 277 655 217 L 631 179 Q 568 91 424 44 Q 411 38 422 31 Q 428 27 472 29 Q 578 41 664 140 L 692 181 Z" fill="lightgray" class="hide"/>
    <path d="M 664 140 Q 778 7 829 3 Q 848 3 952 22 Q 965 23 977 29 Q 984 36 973 45 Q 958 52 840 91 Q 770 112 692 181 L 655 217 Q 621 250 587 289 Q 568 311 537 316 Q 524 317 514 310 Q 508 303 519 295 Q 526 289 533 285 Q 554 276 631 179 L 664 140 Z" fill="lightgray" class="hide"/></g><g transform="scale(1, -1) translate(0, -900)">
    <style type="text/css">
        .origin {display:none;}
        .hide {display:none;}
        .stroke {fill: #000000;}
        
.step1 {transform: translateX(1024px);}
.step2 {transform: translateX(2048px);}
.step3 {transform: translateX(3072px);}
.step4 {transform: translateX(4096px);}
.step5 {transform: translateX(5120px);}
.step6 {transform: translateX(6144px);}
.step7 {transform: translateX(7168px);}
.step8 {transform: translateX(8192px);}
.step9 {transform: translateX(9216px);}
.step10 {transform: translateX(10240px);}
.step11 {transform: translateX(11264px);}
.step12 {transform: translateX(12288px);}
.step13 {transform: translateX(13312px);}
.step14 {transform: translateX(14336px);}
.step15 {transform: translateX(15360px);}
.step16 {transform: translateX(16384px);}
.step17 {transform: translateX(17408px);}
.step18 {transform: translateX(18432px);}
.step19 {transform: translateX(19456px);}
.step20 {transform: translateX(20480px);}
.step21 {transform: translateX(21504px);}
.step22 {transform: translateX(22528px);}
.step23 {transform: translateX(23552px);}
.step24 {transform: translateX(24576px);}
.step25 {transform: translateX(25600px);}
.step26 {transform: translateX(26624px);}
.step27 {transform: translateX(27648px);}
.step28 {transform: translateX(28672px);}
.step29 {transform: translateX(29696px);}
    </style>

    <path d="M 366 618 Q 510 660 512 661 Q 519 668 515 677 Q 508 687 480 694 Q 449 698 372 667 L 320 651 Q 167 621 164 620 Q 128 613 155 598 Q 195 574 249 590 Q 283 599 320 607 L 366 618 Z" fill="lightgray" class="stroke step6"/>
    <path d="M 357 540 Q 361 580 366 618 L 372 667 Q 375 698 382 728 Q 392 755 375 771 Q 344 787 323 792 Q 310 796 302 788 Q 295 782 302 769 Q 317 747 317 732 Q 318 693 320 651 L 320 607 Q 320 570 318 529 C 317 499 354 510 357 540 Z" fill="lightgray" class="stroke step6"/>
    <path d="M 318 529 Q 308 528 222 509 Q 198 505 218 491 Q 248 470 271 478 Q 340 497 439 515 Q 448 514 455 525 Q 455 535 435 543 Q 407 556 357 540 L 318 529 Z" fill="lightgray" class="stroke step6"/>
    <path d="M 211 407 Q 199 411 184 411 Q 171 414 169 408 Q 163 401 173 386 Q 195 352 214 294 Q 218 276 231 266 Q 250 245 254 262 Q 255 269 256 278 L 252 308 Q 242 365 241 380 C 239 399 239 399 211 407 Z" fill="lightgray" class="stroke step6"/>
    <path d="M 443 343 Q 461 376 484 386 Q 500 402 487 418 Q 474 431 428 454 Q 413 461 329 432 Q 254 414 211 407 C 181 402 212 373 241 380 Q 242 381 380 411 Q 396 415 403 408 Q 407 404 406 393 Q 399 368 392 346 C 383 317 428 317 443 343 Z" fill="lightgray" class="stroke step6"/>
    <path d="M 256 278 Q 305 294 451 317 Q 460 318 461 326 Q 461 333 443 343 C 422 355 421 355 392 346 Q 313 322 252 308 C 223 301 227 269 256 278 Z" fill="lightgray" class="stroke step6"/>
    <path d="M 207 214 Q 229 160 254 153 Q 266 149 275 164 Q 279 176 274 196 Q 262 223 216 237 Q 209 241 205 230 Q 202 223 207 214 Z" fill="lightgray" class="stroke step6"/>
    <path d="M 399 164 Q 441 227 448 233 Q 461 243 454 253 Q 445 268 419 286 Q 407 296 392 290 Q 382 286 388 276 Q 394 257 360 153 C 351 124 382 139 399 164 Z" fill="lightgray" class="hide"/>
    <path d="M 360 153 Q 272 132 179 108 Q 157 102 121 104 Q 108 103 105 93 Q 102 80 111 70 Q 133 52 167 32 Q 177 28 190 36 Q 238 67 290 87 Q 369 115 448 145 Q 478 157 500 171 Q 513 178 515 188 Q 509 194 496 192 Q 450 179 399 164 L 360 153 Z" fill="lightgray" class="hide"/>
    <path d="M 682 531 Q 850 585 853 587 Q 862 596 856 604 Q 849 616 818 620 Q 787 624 757 609 Q 721 594 686 580 L 633 563 Q 590 553 542 543 Q 505 533 534 519 Q 579 498 632 516 L 682 531 Z" fill="lightgray" class="hide"/>
    <path d="M 672 418 Q 676 476 682 531 L 686 580 Q 695 721 716 782 Q 720 794 699 810 Q 662 831 636 836 Q 618 840 610 831 Q 601 824 610 807 Q 632 773 633 748 Q 636 660 633 563 L 632 516 Q 631 462 626 402 C 624 372 670 388 672 418 Z" fill="lightgray" class="hide"/>
    <path d="M 692 181 Q 729 245 762 339 Q 774 369 793 387 Q 812 403 798 416 Q 785 428 753 438 Q 732 445 672 418 L 626 402 Q 589 393 535 385 Q 522 384 517 377 Q 513 370 531 363 Q 567 350 615 366 Q 675 388 686 389 Q 710 386 704 361 Q 686 277 655 217 L 631 179 Q 568 91 424 44 Q 411 38 422 31 Q 428 27 472 29 Q 578 41 664 140 L 692 181 Z" fill="lightgray" class="hide"/>
    <path d="M 664 140 Q 778 7 829 3 Q 848 3 952 22 Q 965 23 977 29 Q 984 36 973 45 Q 958 52 840 91 Q 770 112 692 181 L 655 217 Q 621 250 587 289 Q 568 311 537 316 Q 524 317 514 310 Q 508 303 519 295 Q 526 289 533 285 Q 554 276 631 179 L 664 140 Z" fill="lightgray" class="hide"/></g><g transform="scale(1, -1) translate(0, -900)">
    <style type="text/css">
        .origin {display:none;}
        .hide {display:none;}
        .stroke {fill: #000000;}
        
.step1 {transform: translateX(1024px);}
.step2 {transform: translateX(2048px);}
.step3 {transform: translateX(3072px);}
.step4 {transform: translateX(4096px);}
.step5 {transform: translateX(5120px);}
.step6 {transform: translateX(6144px);}
.step7 {transform: translateX(7168px);}
.step8 {transform: translateX(8192px);}
.step9 {transform: translateX(9216px);}
.step10 {transform: translateX(10240px);}
.step11 {transform: translateX(11264px);}
.step12 {transform: translateX(12288px);}
.step13 {transform: translateX(13312px);}
.step14 {transform: translateX(14336px);}
.step15 {transform: translateX(15360px);}
.step16 {transform: translateX(16384px);}
.step17 {transform: translateX(17408px);}
.step18 {transform: translateX(18432px);}
.step19 {transform: translateX(19456px);}
.step20 {transform: translateX(20480px);}
.step21 {transform: translateX(21504px);}
.step22 {transform: translateX(22528px);}
.step23 {transform: translateX(23552px);}
.step24 {transform: translateX(24576px);}
.step25 {transform: translateX(25600px);}
.step26 {transform: translateX(26624px);}
.step27 {transform: translateX(27648px);}
.step28 {transform: translateX(28672px);}
.step29 {transform: translateX(29696px);}
    </style>

    <path d="M 366 618 Q 510 660 512 661 Q 519 668 515 677 Q 508 687 480 694 Q 449 698 372 667 L 320 651 Q 167 621 164 620 Q 128 613 155 598 Q 195 574 249 590 Q 283 599 320 607 L 366 618 Z" fill="lightgray" class="stroke step7"/>
    <path d="M 357 540 Q 361 580 366 618 L 372 667 Q 375 698 382 728 Q 392 755 375 771 Q 344 787 323 792 Q 310 796 302 788 Q 295 782 302 769 Q 317 747 317 732 Q 318 693 320 651 L 320 607 Q 320 570 318 529 C 317 499 354 510 357 540 Z" fill="lightgray" class="stroke step7"/>
    <path d="M 318 529 Q 308 528 222 509 Q 198 505 218 491 Q 248 470 271 478 Q 340 497 439 515 Q 448 514 455 525 Q 455 535 435 543 Q 407 556 357 540 L 318 529 Z" fill="lightgray" class="stroke step7"/>
    <path d="M 211 407 Q 199 411 184 411 Q 171 414 169 408 Q 163 401 173 386 Q 195 352 214 294 Q 218 276 231 266 Q 250 245 254 262 Q 255 269 256 278 L 252 308 Q 242 365 241 380 C 239 399 239 399 211 407 Z" fill="lightgray" class="stroke step7"/>
    <path d="M 443 343 Q 461 376 484 386 Q 500 402 487 418 Q 474 431 428 454 Q 413 461 329 432 Q 254 414 211 407 C 181 402 212 373 241 380 Q 242 381 380 411 Q 396 415 403 408 Q 407 404 406 393 Q 399 368 392 346 C 383 317 428 317 443 343 Z" fill="lightgray" class="stroke step7"/>
    <path d="M 256 278 Q 305 294 451 317 Q 460 318 461 326 Q 461 333 443 343 C 422 355 421 355 392 346 Q 313 322 252 308 C 223 301 227 269 256 278 Z" fill="lightgray" class="stroke step7"/>
    <path d="M 207 214 Q 229 160 254 153 Q 266 149 275 164 Q 279 176 274 196 Q 262 223 216 237 Q 209 241 205 230 Q 202 223 207 214 Z" fill="lightgray" class="stroke step7"/>
    <path d="M 399 164 Q 441 227 448 233 Q 461 243 454 253 Q 445 268 419 286 Q 407 296 392 290 Q 382 286 388 276 Q 394 257 360 153 C 351 124 382 139 399 164 Z" fill="lightgray" class="stroke step7"/>
    <path d="M 360 153 Q 272 132 179 108 Q 157 102 121 104 Q 108 103 105 93 Q 102 80 111 70 Q 133 52 167 32 Q 177 28 190 36 Q 238 67 290 87 Q 369 115 448 145 Q 478 157 500 171 Q 513 178 515 188 Q 509 194 496 192 Q 450 179 399 164 L 360 153 Z" fill="lightgray" class="hide"/>
    <path d="M 682 531 Q 850 585 853 587 Q 862 596 856 604 Q 849 616 818 620 Q 787 624 757 609 Q 721 594 686 580 L 633 563 Q 590 553 542 543 Q 505 533 534 519 Q 579 498 632 516 L 682 531 Z" fill="lightgray" class="hide"/>
    <path d="M 672 418 Q 676 476 682 531 L 686 580 Q 695 721 716 782 Q 720 794 699 810 Q 662 831 636 836 Q 618 840 610 831 Q 601 824 610 807 Q 632 773 633 748 Q 636 660 633 563 L 632 516 Q 631 462 626 402 C 624 372 670 388 672 418 Z" fill="lightgray" class="hide"/>
    <path d="M 692 181 Q 729 245 762 339 Q 774 369 793 387 Q 812 403 798 416 Q 785 428 753 438 Q 732 445 672 418 L 626 402 Q 589 393 535 385 Q 522 384 517 377 Q 513 370 531 363 Q 567 350 615 366 Q 675 388 686 389 Q 710 386 704 361 Q 686 277 655 217 L 631 179 Q 568 91 424 44 Q 411 38 422 31 Q 428 27 472 29 Q 578 41 664 140 L 692 181 Z" fill="lightgray" class="hide"/>
    <path d="M 664 140 Q 778 7 829 3 Q 848 3 952 22 Q 965 23 977 29 Q 984 36 973 45 Q 958 52 840 91 Q 770 112 692 181 L 655 217 Q 621 250 587 289 Q 568 311 537 316 Q 524 317 514 310 Q 508 303 519 295 Q 526 289 533 285 Q 554 276 631 179 L 664 140 Z" fill="lightgray" class="hide"/></g><g transform="scale(1, -1) translate(0, -900)">
    <style type="text/css">
        .origin {display:none;}
        .hide {display:none;}
        .stroke {fill: #000000;}
        
.step1 {transform: translateX(1024px);}
.step2 {transform: translateX(2048px);}
.step3 {transform: translateX(3072px);}
.step4 {transform: translateX(4096px);}
.step5 {transform: translateX(5120px);}
.step6 {transform: translateX(6144px);}
.step7 {transform: translateX(7168px);}
.step8 {transform: translateX(8192px);}
.step9 {transform: translateX(9216px);}
.step10 {transform: translateX(10240px);}
.step11 {transform: translateX(11264px);}
.step12 {transform: translateX(12288px);}
.step13 {transform: translateX(13312px);}
.step14 {transform: translateX(14336px);}
.step15 {transform: translateX(15360px);}
.step16 {transform: translateX(16384px);}
.step17 {transform: translateX(17408px);}
.step18 {transform: translateX(18432px);}
.step19 {transform: translateX(19456px);}
.step20 {transform: translateX(20480px);}
.step21 {transform: translateX(21504px);}
.step22 {transform: translateX(22528px);}
.step23 {transform: translateX(23552px);}
.step24 {transform: translateX(24576px);}
.step25 {transform: translateX(25600px);}
.step26 {transform: translateX(26624px);}
.step27 {transform: translateX(27648px);}
.step28 {transform: translateX(28672px);}
.step29 {transform: translateX(29696px);}
    </style>

    <path d="M 366 618 Q 510 660 512 661 Q 519 668 515 677 Q 508 687 480 694 Q 449 698 372 667 L 320 651 Q 167 621 164 620 Q 128 613 155 598 Q 195 574 249 590 Q 283 599 320 607 L 366 618 Z" fill="lightgray" class="stroke step8"/>
    <path d="M 357 540 Q 361 580 366 618 L 372 667 Q 375 698 382 728 Q 392 755 375 771 Q 344 787 323 792 Q 310 796 302 788 Q 295 782 302 769 Q 317 747 317 732 Q 318 693 320 651 L 320 607 Q 320 570 318 529 C 317 499 354 510 357 540 Z" fill="lightgray" class="stroke step8"/>
    <path d="M 318 529 Q 308 528 222 509 Q 198 505 218 491 Q 248 470 271 478 Q 340 497 439 515 Q 448 514 455 525 Q 455 535 435 543 Q 407 556 357 540 L 318 529 Z" fill="lightgray" class="stroke step8"/>
    <path d="M 211 407 Q 199 411 184 411 Q 171 414 169 408 Q 163 401 173 386 Q 195 352 214 294 Q 218 276 231 266 Q 250 245 254 262 Q 255 269 256 278 L 252 308 Q 242 365 241 380 C 239 399 239 399 211 407 Z" fill="lightgray" class="stroke step8"/>
    <path d="M 443 343 Q 461 376 484 386 Q 500 402 487 418 Q 474 431 428 454 Q 413 461 329 432 Q 254 414 211 407 C 181 402 212 373 241 380 Q 242 381 380 411 Q 396 415 403 408 Q 407 404 406 393 Q 399 368 392 346 C 383 317 428 317 443 343 Z" fill="lightgray" class="stroke step8"/>
    <path d="M 256 278 Q 305 294 451 317 Q 460 318 461 326 Q 461 333 443 343 C 422 355 421 355 392 346 Q 313 322 252 308 C 223 301 227 269 256 278 Z" fill="lightgray" class="stroke step8"/>
    <path d="M 207 214 Q 229 160 254 153 Q 266 149 275 164 Q 279 176 274 196 Q 262 223 216 237 Q 209 241 205 230 Q 202 223 207 214 Z" fill="lightgray" class="stroke step8"/>
    <path d="M 399 164 Q 441 227 448 233 Q 461 243 454 253 Q 445 268 419 286 Q 407 296 392 290 Q 382 286 388 276 Q 394 257 360 153 C 351 124 382 139 399 164 Z" fill="lightgray" class="stroke step8"/>
    <path d="M 360 153 Q 272 132 179 108 Q 157 102 121 104 Q 108 103 105 93 Q 102 80 111 70 Q 133 52 167 32 Q 177 28 190 36 Q 238 67 290 87 Q 369 115 448 145 Q 478 157 500 171 Q 513 178 515 188 Q 509 194 496 192 Q 450 179 399 164 L 360 153 Z" fill="lightgray" class="stroke step8"/>
    <path d="M 682 531 Q 850 585 853 587 Q 862 596 856 604 Q 849 616 818 620 Q 787 624 757 609 Q 721 594 686 580 L 633 563 Q 590 553 542 543 Q 505 533 534 519 Q 579 498 632 516 L 682 531 Z" fill="lightgray" class="hide"/>
    <path d="M 672 418 Q 676 476 682 531 L 686 580 Q 695 721 716 782 Q 720 794 699 810 Q 662 831 636 836 Q 618 840 610 831 Q 601 824 610 807 Q 632 773 633 748 Q 636 660 633 563 L 632 516 Q 631 462 626 402 C 624 372 670 388 672 418 Z" fill="lightgray" class="hide"/>
    <path d="M 692 181 Q 729 245 762 339 Q 774 369 793 387 Q 812 403 798 416 Q 785 428 753 438 Q 732 445 672 418 L 626 402 Q 589 393 535 385 Q 522 384 517 377 Q 513 370 531 363 Q 567 350 615 366 Q 675 388 686 389 Q 710 386 704 361 Q 686 277 655 217 L 631 179 Q 568 91 424 44 Q 411 38 422 31 Q 428 27 472 29 Q 578 41 664 140 L 692 181 Z" fill="lightgray" class="hide"/>
    <path d="M 664 140 Q 778 7 829 3 Q 848 3 952 22 Q 965 23 977 29 Q 984 36 973 45 Q 958 52 840 91 Q 770 112 692 181 L 655 217 Q 621 250 587 289 Q 568 311 537 316 Q 524 317 514 310 Q 508 303 519 295 Q 526 289 533 285 Q 554 276 631 179 L 664 140 Z" fill="lightgray" class="hide"/></g><g transform="scale(1, -1) translate(0, -900)">
    <style type="text/css">
        .origin {display:none;}
        .hide {display:none;}
        .stroke {fill: #000000;}
        
.step1 {transform: translateX(1024px);}
.step2 {transform: translateX(2048px);}
.step3 {transform: translateX(3072px);}
.step4 {transform: translateX(4096px);}
.step5 {transform: translateX(5120px);}
.step6 {transform: translateX(6144px);}
.step7 {transform: translateX(7168px);}
.step8 {transform: translateX(8192px);}
.step9 {transform: translateX(9216px);}
.step10 {transform: translateX(10240px);}
.step11 {transform: translateX(11264px);}
.step12 {transform: translateX(12288px);}
.step13 {transform: translateX(13312px);}
.step14 {transform: translateX(14336px);}
.step15 {transform: translateX(15360px);}
.step16 {transform: translateX(16384px);}
.step17 {transform: translateX(17408px);}
.step18 {transform: translateX(18432px);}
.step19 {transform: translateX(19456px);}
.step20 {transform: translateX(20480px);}
.step21 {transform: translateX(21504px);}
.step22 {transform: translateX(22528px);}
.step23 {transform: translateX(23552px);}
.step24 {transform: translateX(24576px);}
.step25 {transform: translateX(25600px);}
.step26 {transform: translateX(26624px);}
.step27 {transform: translateX(27648px);}
.step28 {transform: translateX(28672px);}
.step29 {transform: translateX(29696px);}
    </style>

    <path d="M 366 618 Q 510 660 512 661 Q 519 668 515 677 Q 508 687 480 694 Q 449 698 372 667 L 320 651 Q 167 621 164 620 Q 128 613 155 598 Q 195 574 249 590 Q 283 599 320 607 L 366 618 Z" fill="lightgray" class="stroke step9"/>
    <path d="M 357 540 Q 361 580 366 618 L 372 667 Q 375 698 382 728 Q 392 755 375 771 Q 344 787 323 792 Q 310 796 302 788 Q 295 782 302 769 Q 317 747 317 732 Q 318 693 320 651 L 320 607 Q 320 570 318 529 C 317 499 354 510 357 540 Z" fill="lightgray" class="stroke step9"/>
    <path d="M 318 529 Q 308 528 222 509 Q 198 505 218 491 Q 248 470 271 478 Q 340 497 439 515 Q 448 514 455 525 Q 455 535 435 543 Q 407 556 357 540 L 318 529 Z" fill="lightgray" class="stroke step9"/>
    <path d="M 211 407 Q 199 411 184 411 Q 171 414 169 408 Q 163 401 173 386 Q 195 352 214 294 Q 218 276 231 266 Q 250 245 254 262 Q 255 269 256 278 L 252 308 Q 242 365 241 380 C 239 399 239 399 211 407 Z" fill="lightgray" class="stroke step9"/>
    <path d="M 443 343 Q 461 376 484 386 Q 500 402 487 418 Q 474 431 428 454 Q 413 461 329 432 Q 254 414 211 407 C 181 402 212 373 241 380 Q 242 381 380 411 Q 396 415 403 408 Q 407 404 406 393 Q 399 368 392 346 C 383 317 428 317 443 343 Z" fill="lightgray" class="stroke step9"/>
    <path d="M 256 278 Q 305 294 451 317 Q 460 318 461 326 Q 461 333 443 343 C 422 355 421 355 392 346 Q 313 322 252 308 C 223 301 227 269 256 278 Z" fill="lightgray" class="stroke step9"/>
    <path d="M 207 214 Q 229 160 254 153 Q 266 149 275 164 Q 279 176 274 196 Q 262 223 216 237 Q 209 241 205 230 Q 202 223 207 214 Z" fill="lightgray" class="stroke step9"/>
    <path d="M 399 164 Q 441 227 448 233 Q 461 243 454 253 Q 445 268 419 286 Q 407 296 392 290 Q 382 286 388 276 Q 394 257 360 153 C 351 124 382 139 399 164 Z" fill="lightgray" class="stroke step9"/>
    <path d="M 360 153 Q 272 132 179 108 Q 157 102 121 104 Q 108 103 105 93 Q 102 80 111 70 Q 133 52 167 32 Q 177 28 190 36 Q 238 67 290 87 Q 369 115 448 145 Q 478 157 500 171 Q 513 178 515 188 Q 509 194 496 192 Q 450 179 399 164 L 360 153 Z" fill="lightgray" class="stroke step9"/>
    <path d="M 682 531 Q 850 585 853 587 Q 862 596 856 604 Q 849 616 818 620 Q 787 624 757 609 Q 721 594 686 580 L 633 563 Q 590 553 542 543 Q 505 533 534 519 Q 579 498 632 516 L 682 531 Z" fill="lightgray" class="stroke step9"/>
    <path d="M 672 418 Q 676 476 682 531 L 686 580 Q 695 721 716 782 Q 720 794 699 810 Q 662 831 636 836 Q 618 840 610 831 Q 601 824 610 807 Q 632 773 633 748 Q 636 660 633 563 L 632 516 Q 631 462 626 402 C 624 372 670 388 672 418 Z" fill="lightgray" class="hide"/>
    <path d="M 692 181 Q 729 245 762 339 Q 774 369 793 387 Q 812 403 798 416 Q 785 428 753 438 Q 732 445 672 418 L 626 402 Q 589 393 535 385 Q 522 384 517 377 Q 513 370 531 363 Q 567 350 615 366 Q 675 388 686 389 Q 710 386 704 361 Q 686 277 655 217 L 631 179 Q 568 91 424 44 Q 411 38 422 31 Q 428 27 472 29 Q 578 41 664 140 L 692 181 Z" fill="lightgray" class="hide"/>
    <path d="M 664 140 Q 778 7 829 3 Q 848 3 952 22 Q 965 23 977 29 Q 984 36 973 45 Q 958 52 840 91 Q 770 112 692 181 L 655 217 Q 621 250 587 289 Q 568 311 537 316 Q 524 317 514 310 Q 508 303 519 295 Q 526 289 533 285 Q 554 276 631 179 L 664 140 Z" fill="lightgray" class="hide"/></g><g transform="scale(1, -1) translate(0, -900)">
    <style type="text/css">
        .origin {display:none;}
        .hide {display:none;}
        .stroke {fill: #000000;}
        
.step1 {transform: translateX(1024px);}
.step2 {transform: translateX(2048px);}
.step3 {transform: translateX(3072px);}
.step4 {transform: translateX(4096px);}
.step5 {transform: translateX(5120px);}
.step6 {transform: translateX(6144px);}
.step7 {transform: translateX(7168px);}
.step8 {transform: translateX(8192px);}
.step9 {transform: translateX(9216px);}
.step10 {transform: translateX(10240px);}
.step11 {transform: translateX(11264px);}
.step12 {transform: translateX(12288px);}
.step13 {transform: translateX(13312px);}
.step14 {transform: translateX(14336px);}
.step15 {transform: translateX(15360px);}
.step16 {transform: translateX(16384px);}
.step17 {transform: translateX(17408px);}
.step18 {transform: translateX(18432px);}
.step19 {transform: translateX(19456px);}
.step20 {transform: translateX(20480px);}
.step21 {transform: translateX(21504px);}
.step22 {transform: translateX(22528px);}
.step23 {transform: translateX(23552px);}
.step24 {transform: translateX(24576px);}
.step25 {transform: translateX(25600px);}
.step26 {transform: translateX(26624px);}
.step27 {transform: translateX(27648px);}
.step28 {transform: translateX(28672px);}
.step29 {transform: translateX(29696px);}
    </style>

    <path d="M 366 618 Q 510 660 512 661 Q 519 668 515 677 Q 508 687 480 694 Q 449 698 372 667 L 320 651 Q 167 621 164 620 Q 128 613 155 598 Q 195 574 249 590 Q 283 599 320 607 L 366 618 Z" fill="lightgray" class="stroke step10"/>
    <path d="M 357 540 Q 361 580 366 618 L 372 667 Q 375 698 382 728 Q 392 755 375 771 Q 344 787 323 792 Q 310 796 302 788 Q 295 782 302 769 Q 317 747 317 732 Q 318 693 320 651 L 320 607 Q 320 570 318 529 C 317 499 354 510 357 540 Z" fill="lightgray" class="stroke step10"/>
    <path d="M 318 529 Q 308 528 222 509 Q 198 505 218 491 Q 248 470 271 478 Q 340 497 439 515 Q 448 514 455 525 Q 455 535 435 543 Q 407 556 357 540 L 318 529 Z" fill="lightgray" class="stroke step10"/>
    <path d="M 211 407 Q 199 411 184 411 Q 171 414 169 408 Q 163 401 173 386 Q 195 352 214 294 Q 218 276 231 266 Q 250 245 254 262 Q 255 269 256 278 L 252 308 Q 242 365 241 380 C 239 399 239 399 211 407 Z" fill="lightgray" class="stroke step10"/>
    <path d="M 443 343 Q 461 376 484 386 Q 500 402 487 418 Q 474 431 428 454 Q 413 461 329 432 Q 254 414 211 407 C 181 402 212 373 241 380 Q 242 381 380 411 Q 396 415 403 408 Q 407 404 406 393 Q 399 368 392 346 C 383 317 428 317 443 343 Z" fill="lightgray" class="stroke step10"/>
    <path d="M 256 278 Q 305 294 451 317 Q 460 318 461 326 Q 461 333 443 343 C 422 355 421 355 392 346 Q 313 322 252 308 C 223 301 227 269 256 278 Z" fill="lightgray" class="stroke step10"/>
    <path d="M 207 214 Q 229 160 254 153 Q 266 149 275 164 Q 279 176 274 196 Q 262 223 216 237 Q 209 241 205 230 Q 202 223 207 214 Z" fill="lightgray" class="stroke step10"/>
    <path d="M 399 164 Q 441 227 448 233 Q 461 243 454 253 Q 445 268 419 286 Q 407 296 392 290 Q 382 286 388 276 Q 394 257 360 153 C 351 124 382 139 399 164 Z" fill="lightgray" class="stroke step10"/>
    <path d="M 360 153 Q 272 132 179 108 Q 157 102 121 104 Q 108 103 105 93 Q 102 80 111 70 Q 133 52 167 32 Q 177 28 190 36 Q 238 67 290 87 Q 369 115 448 145 Q 478 157 500 171 Q 513 178 515 188 Q 509 194 496 192 Q 450 179 399 164 L 360 153 Z" fill="lightgray" class="stroke step10"/>
    <path d="M 682 531 Q 850 585 853 587 Q 862 596 856 604 Q 849 616 818 620 Q 787 624 757 609 Q 721 594 686 580 L 633 563 Q 590 553 542 543 Q 505 533 534 519 Q 579 498 632 516 L 682 531 Z" fill="lightgray" class="stroke step10"/>
    <path d="M 672 418 Q 676 476 682 531 L 686 580 Q 695 721 716 782 Q 720 794 699 810 Q 662 831 636 836 Q 618 840 610 831 Q 601 824 610 807 Q 632 773 633 748 Q 636 660 633 563 L 632 516 Q 631 462 626 402 C 624 372 670 388 672 418 Z" fill="lightgray" class="stroke step10"/>
    <path d="M 692 181 Q 729 245 762 339 Q 774 369 793 387 Q 812 403 798 416 Q 785 428 753 438 Q 732 445 672 418 L 626 402 Q 589 393 535 385 Q 522 384 517 377 Q 513 370 531 363 Q 567 350 615 366 Q 675 388 686 389 Q 710 386 704 361 Q 686 277 655 217 L 631 179 Q 568 91 424 44 Q 411 38 422 31 Q 428 27 472 29 Q 578 41 664 140 L 692 181 Z" fill="lightgray" class="hide"/>
    <path d="M 664 140 Q 778 7 829 3 Q 848 3 952 22 Q 965 23 977 29 Q 984 36 973 45 Q 958 52 840 91 Q 770 112 692 181 L 655 217 Q 621 250 587 289 Q 568 311 537 316 Q 524 317 514 310 Q 508 303 519 295 Q 526 289 533 285 Q 554 276 631 179 L 664 140 Z" fill="lightgray" class="hide"/></g><g transform="scale(1, -1) translate(0, -900)">
    <style type="text/css">
        .origin {display:none;}
        .hide {display:none;}
        .stroke {fill: #000000;}
        
.step1 {transform: translateX(1024px);}
.step2 {transform: translateX(2048px);}
.step3 {transform: translateX(3072px);}
.step4 {transform: translateX(4096px);}
.step5 {transform: translateX(5120px);}
.step6 {transform: translateX(6144px);}
.step7 {transform: translateX(7168px);}
.step8 {transform: translateX(8192px);}
.step9 {transform: translateX(9216px);}
.step10 {transform: translateX(10240px);}
.step11 {transform: translateX(11264px);}
.step12 {transform: translateX(12288px);}
.step13 {transform: translateX(13312px);}
.step14 {transform: translateX(14336px);}
.step15 {transform: translateX(15360px);}
.step16 {transform: translateX(16384px);}
.step17 {transform: translateX(17408px);}
.step18 {transform: translateX(18432px);}
.step19 {transform: translateX(19456px);}
.step20 {transform: translateX(20480px);}
.step21 {transform: translateX(21504px);}
.step22 {transform: translateX(22528px);}
.step23 {transform: translateX(23552px);}
.step24 {transform: translateX(24576px);}
.step25 {transform: translateX(25600px);}
.step26 {transform: translateX(26624px);}
.step27 {transform: translateX(27648px);}
.step28 {transform: translateX(28672px);}
.step29 {transform: translateX(29696px);}
    </style>

    <path d="M 366 618 Q 510 660 512 661 Q 519 668 515 677 Q 508 687 480 694 Q 449 698 372 667 L 320 651 Q 167 621 164 620 Q 128 613 155 598 Q 195 574 249 590 Q 283 599 320 607 L 366 618 Z" fill="lightgray" class="stroke step11"/>
    <path d="M 357 540 Q 361 580 366 618 L 372 667 Q 375 698 382 728 Q 392 755 375 771 Q 344 787 323 792 Q 310 796 302 788 Q 295 782 302 769 Q 317 747 317 732 Q 318 693 320 651 L 320 607 Q 320 570 318 529 C 317 499 354 510 357 540 Z" fill="lightgray" class="stroke step11"/>
    <path d="M 318 529 Q 308 528 222 509 Q 198 505 218 491 Q 248 470 271 478 Q 340 497 439 515 Q 448 514 455 525 Q 455 535 435 543 Q 407 556 357 540 L 318 529 Z" fill="lightgray" class="stroke step11"/>
    <path d="M 211 407 Q 199 411 184 411 Q 171 414 169 408 Q 163 401 173 386 Q 195 352 214 294 Q 218 276 231 266 Q 250 245 254 262 Q 255 269 256 278 L 252 308 Q 242 365 241 380 C 239 399 239 399 211 407 Z" fill="lightgray" class="stroke step11"/>
    <path d="M 443 343 Q 461 376 484 386 Q 500 402 487 418 Q 474 431 428 454 Q 413 461 329 432 Q 254 414 211 407 C 181 402 212 373 241 380 Q 242 381 380 411 Q 396 415 403 408 Q 407 404 406 393 Q 399 368 392 346 C 383 317 428 317 443 343 Z" fill="lightgray" class="stroke step11"/>
    <path d="M 256 278 Q 305 294 451 317 Q 460 318 461 326 Q 461 333 443 343 C 422 355 421 355 392 346 Q 313 322 252 308 C 223 301 227 269 256 278 Z" fill="lightgray" class="stroke step11"/>
    <path d="M 207 214 Q 229 160 254 153 Q 266 149 275 164 Q 279 176 274 196 Q 262 223 216 237 Q 209 241 205 230 Q 202 223 207 214 Z" fill="lightgray" class="stroke step11"/>
    <path d="M 399 164 Q 441 227 448 233 Q 461 243 454 253 Q 445 268 419 286 Q 407 296 392 290 Q 382 286 388 276 Q 394 257 360 153 C 351 124 382 139 399 164 Z" fill="lightgray" class="stroke step11"/>
    <path d="M 360 153 Q 272 132 179 108 Q 157 102 121 104 Q 108 103 105 93 Q 102 80 111 70 Q 133 52 167 32 Q 177 28 190 36 Q 238 67 290 87 Q 369 115 448 145 Q 478 157 500 171 Q 513 178 515 188 Q 509 194 496 192 Q 450 179 399 164 L 360 153 Z" fill="lightgray" class="stroke step11"/>
    <path d="M 682 531 Q 850 585 853 587 Q 862 596 856 604 Q 849 616 818 620 Q 787 624 757 609 Q 721 594 686 580 L 633 563 Q 590 553 542 543 Q 505 533 534 519 Q 579 498 632 516 L 682 531 Z" fill="lightgray" class="stroke step11"/>
    <path d="M 672 418 Q 676 476 682 531 L 686 580 Q 695 721 716 782 Q 720 794 699 810 Q 662 831 636 836 Q 618 840 610 831 Q 601 824 610 807 Q 632 773 633 748 Q 636 660 633 563 L 632 516 Q 631 462 626 402 C 624 372 670 388 672 418 Z" fill="lightgray" class="stroke step11"/>
    <path d="M 692 181 Q 729 245 762 339 Q 774 369 793 387 Q 812 403 798 416 Q 785 428 753 438 Q 732 445 672 418 L 626 402 Q 589 393 535 385 Q 522 384 517 377 Q 513 370 531 363 Q 567 350 615 366 Q 675 388 686 389 Q 710 386 704 361 Q 686 277 655 217 L 631 179 Q 568 91 424 44 Q 411 38 422 31 Q 428 27 472 29 Q 578 41 664 140 L 692 181 Z" fill="lightgray" class="stroke step11"/>
    <path d="M 664 140 Q 778 7 829 3 Q 848 3 952 22 Q 965 23 977 29 Q 984 36 973 45 Q 958 52 840 91 Q 770 112 692 181 L 655 217 Q 621 250 587 289 Q 568 311 537 316 Q 524 317 514 310 Q 508 303 519 295 Q 526 289 533 285 Q 554 276 631 179 L 664 140 Z" fill="lightgray" class="hide"/></g><g transform="scale(1, -1) translate(0, -900)">
    <style type="text/css">
        .origin {display:none;}
        .hide {display:none;}
        .stroke {fill: #000000;}
        
.step1 {transform: translateX(1024px);}
.step2 {transform: translateX(2048px);}
.step3 {transform: translateX(3072px);}
.step4 {transform: translateX(4096px);}
.step5 {transform: translateX(5120px);}
.step6 {transform: translateX(6144px);}
.step7 {transform: translateX(7168px);}
.step8 {transform: translateX(8192px);}
.step9 {transform: translateX(9216px);}
.step10 {transform: translateX(10240px);}
.step11 {transform: translateX(11264px);}
.step12 {transform: translateX(12288px);}
.step13 {transform: translateX(13312px);}
.step14 {transform: translateX(14336px);}
.step15 {transform: translateX(15360px);}
.step16 {transform: translateX(16384px);}
.step17 {transform: translateX(17408px);}
.step18 {transform: translateX(18432px);}
.step19 {transform: translateX(19456px);}
.step20 {transform: translateX(20480px);}
.step21 {transform: translateX(21504px);}
.step22 {transform: translateX(22528px);}
.step23 {transform: translateX(23552px);}
.step24 {transform: translateX(24576px);}
.step25 {transform: translateX(25600px);}
.step26 {transform: translateX(26624px);}
.step27 {transform: translateX(27648px);}
.step28 {transform: translateX(28672px);}
.step29 {transform: translateX(29696px);}
    </style>

    <path d="M 366 618 Q 510 660 512 661 Q 519 668 515 677 Q 508 687 480 694 Q 449 698 372 667 L 320 651 Q 167 621 164 620 Q 128 613 155 598 Q 195 574 249 590 Q 283 599 320 607 L 366 618 Z" fill="lightgray" class="stroke step12"/>
    <path d="M 357 540 Q 361 580 366 618 L 372 667 Q 375 698 382 728 Q 392 755 375 771 Q 344 787 323 792 Q 310 796 302 788 Q 295 782 302 769 Q 317 747 317 732 Q 318 693 320 651 L 320 607 Q 320 570 318 529 C 317 499 354 510 357 540 Z" fill="lightgray" class="stroke step12"/>
    <path d="M 318 529 Q 308 528 222 509 Q 198 505 218 491 Q 248 470 271 478 Q 340 497 439 515 Q 448 514 455 525 Q 455 535 435 543 Q 407 556 357 540 L 318 529 Z" fill="lightgray" class="stroke step12"/>
    <path d="M 211 407 Q 199 411 184 411 Q 171 414 169 408 Q 163 401 173 386 Q 195 352 214 294 Q 218 276 231 266 Q 250 245 254 262 Q 255 269 256 278 L 252 308 Q 242 365 241 380 C 239 399 239 399 211 407 Z" fill="lightgray" class="stroke step12"/>
    <path d="M 443 343 Q 461 376 484 386 Q 500 402 487 418 Q 474 431 428 454 Q 413 461 329 432 Q 254 414 211 407 C 181 402 212 373 241 380 Q 242 381 380 411 Q 396 415 403 408 Q 407 404 406 393 Q 399 368 392 346 C 383 317 428 317 443 343 Z" fill="lightgray" class="stroke step12"/>
    <path d="M 256 278 Q 305 294 451 317 Q 460 318 461 326 Q 461 333 443 343 C 422 355 421 355 392 346 Q 313 322 252 308 C 223 301 227 269 256 278 Z" fill="lightgray" class="stroke step12"/>
    <path d="M 207 214 Q 229 160 254 153 Q 266 149 275 164 Q 279 176 274 196 Q 262 223 216 237 Q 209 241 205 230 Q 202 223 207 214 Z" fill="lightgray" class="stroke step12"/>
    <path d="M 399 164 Q 441 227 448 233 Q 461 243 454 253 Q 445 268 419 286 Q 407 296 392 290 Q 382 286 388 276 Q 394 257 360 153 C 351 124 382 139 399 164 Z" fill="lightgray" class="stroke step12"/>
    <path d="M 360 153 Q 272 132 179 108 Q 157 102 121 104 Q 108 103 105 93 Q 102 80 111 70 Q 133 52 167 32 Q 177 28 190 36 Q 238 67 290 87 Q 369 115 448 145 Q 478 157 500 171 Q 513 178 515 188 Q 509 194 496 192 Q 450 179 399 164 L 360 153 Z" fill="lightgray" class="stroke step12"/>
    <path d="M 682 531 Q 850 585 853 587 Q 862 596 856 604 Q 849 616 818 620 Q 787 624 757 609 Q 721 594 686 580 L 633 563 Q 590 553 542 543 Q 505 533 534 519 Q 579 498 632 516 L 682 531 Z" fill="lightgray" class="stroke step12"/>
    <path d="M 672 418 Q 676 476 682 531 L 686 580 Q 695 721 716 782 Q 720 794 699 810 Q 662 831 636 836 Q 618 840 610 831 Q 601 824 610 807 Q 632 773 633 748 Q 636 660 633 563 L 632 516 Q 631 462 626 402 C 624 372 670 388 672 418 Z" fill="lightgray" class="stroke step12"/>
    <path d="M 692 181 Q 729 245 762 339 Q 774 369 793 387 Q 812 403 798 416 Q 785 428 753 438 Q 732 445 672 418 L 626 402 Q 589 393 535 385 Q 522 384 517 377 Q 513 370 531 363 Q 567 350 615 366 Q 675 388 686 389 Q 710 386 704 361 Q 686 277 655 217 L 631 179 Q 568 91 424 44 Q 411 38 422 31 Q 428 27 472 29 Q 578 41 664 140 L 692 181 Z" fill="lightgray" class="stroke step12"/>
    <path d="M 664 140 Q 778 7 829 3 Q 848 3 952 22 Q 965 23 977 29 Q 984 36 973 45 Q 958 52 840 91 Q 770 112 692 181 L 655 217 Q 621 250 587 289 Q 568 311 537 316 Q 524 317 514 310 Q 508 303 519 295 Q 526 289 533 285 Q 554 276 631 179 L 664 140 Z" fill="lightgray" class="stroke step12"/></g></svg>