<svg version="1.1" viewBox="0 0 1024 1024" xmlns="http://www.w3.org/2000/svg">
  
  <g transform="scale(1, -1) translate(0, -900)">
    <style type="text/css">
        .origin {display:none;}
        .hide {display:none;}
        .stroke {fill: #000000;}
    </style>

    <path d="M 265 595 L 265 597 Q 252 622 240 632 Q 221 648 218 620 Q 224 575 153 488 Q 132 464 161 406 Q 180 381 197 408 Q 216 438 232 481 Q 248 532 262 562 L 265 595 Z" fill="lightgray" class="stroke"/>
    <path d="M 495 599 Q 688 633 725 628 Q 740 616 733 607 Q 733 603 697 517 Q 687 501 695 496 Q 705 492 724 506 Q 787 552 839 569 Q 882 582 880 595 Q 877 605 799 660 Q 771 681 679 662 Q 592 650 501 633 L 438 623 Q 402 619 363 611 Q 314 602 265 595 C 235 591 233 571 262 562 Q 284 550 309 557 Q 369 576 433 588 L 495 599 Z" fill="lightgray" class="stroke"/>
    <path d="M 433 588 Q 402 416 372 339 Q 296 162 172 68 Q 144 46 117 27 Q 98 14 94 7 Q 91 0 105 -2 Q 156 -5 268 87 Q 335 145 379 217 Q 421 290 450 398 Q 474 483 495 599 L 501 633 Q 508 705 524 743 Q 534 767 511 781 Q 459 815 440 815 Q 416 814 432 786 Q 451 738 438 623 L 433 588 Z" fill="lightgray" class="stroke"/>
    <path d="M 516 361 Q 503 129 521 66 Q 527 39 551 17 Q 635 -52 815 -24 L 851 -16 Q 896 -3 940 28 Q 961 46 946 74 Q 930 108 910 216 Q 909 232 901 238 Q 894 242 890 222 Q 865 108 844 72 Q 811 30 693 35 Q 648 36 613 52 Q 582 67 573 87 Q 534 160 576 414 Q 582 447 529 467 Q 516 471 506 466 Q 499 462 504 443 Q 519 401 516 361 Z" fill="lightgray" class="stroke"/></g>
</svg>